<?xml version="1.0" encoding="UTF-8" standalone="no"?>
<!-- Created with Inkscape (http://www.inkscape.org/) -->

<svg
   xmlns:dc="http://purl.org/dc/elements/1.1/"
   xmlns:cc="http://creativecommons.org/ns#"
   xmlns:rdf="http://www.w3.org/1999/02/22-rdf-syntax-ns#"
   xmlns:svg="http://www.w3.org/2000/svg"
   xmlns="http://www.w3.org/2000/svg"
   xmlns:sodipodi="http://sodipodi.sourceforge.net/DTD/sodipodi-0.dtd"
   xmlns:inkscape="http://www.inkscape.org/namespaces/inkscape"
   version="1.1"
   width="168.54591"
   height="315.00723"
   id="svg2"
   xml:space="preserve"
   inkscape:version="0.48.4 r9939"
   sodipodi:docname="Kapitelbild.svg"><sodipodi:namedview
     pagecolor="#ffffff"
     bordercolor="#666666"
     borderopacity="1"
     objecttolerance="10"
     gridtolerance="10"
     guidetolerance="10"
     inkscape:pageopacity="0"
     inkscape:pageshadow="2"
     inkscape:window-width="640"
     inkscape:window-height="480"
     id="namedview47"
     showgrid="false"
     inkscape:zoom="0.22424933"
     inkscape:cx="63.761177"
     inkscape:cy="105.37499"
     inkscape:window-x="0"
     inkscape:window-y="0"
     inkscape:window-maximized="0"
     inkscape:current-layer="svg2" /><metadata
     id="metadata8"><rdf:RDF><cc:Work
         rdf:about=""><dc:format>image/svg+xml</dc:format><dc:type
           rdf:resource="http://purl.org/dc/dcmitype/StillImage" /></cc:Work></rdf:RDF></metadata><defs
     id="defs6"><clipPath
       id="clipPath18"><path
         d="m 0,0 293.95,0 0,219.33 L 0,219.33 0,0 z"
         inkscape:connector-curvature="0"
         id="path20" /></clipPath></defs><g
     transform="matrix(1.25,0,0,-1.25,-308.31384,735.83223)"
     id="g10"><g
       transform="matrix(4.691,0,0,3.5,95.01,336.66)"
       id="g12"><g
         transform="scale(0.24494,0.32828)"
         id="g14"><g
           clip-path="url(#clipPath18)"
           id="g16"><path
             d="m 200.12,95.276 c -11.25,0 -20.37,-8.965 -20.37,-20.025 0,-11.06 9.12,-20.025 20.37,-20.025 11.26,0 20.38,8.965 20.38,20.025 0,11.06 -9.12,20.025 -20.38,20.025 z"
             inkscape:connector-curvature="0"
             id="path22"
             style="fill:#5a5a5a;fill-opacity:1;fill-rule:evenodd;stroke:none" /><path
             d="m 200.12,95.276 c -11.25,0 -20.37,-8.965 -20.37,-20.025 0,-11.06 9.12,-20.025 20.37,-20.025 11.26,0 20.38,8.965 20.38,20.025 0,11.06 -9.12,20.025 -20.38,20.025 z"
             inkscape:connector-curvature="0"
             id="path24"
             style="fill:none;stroke:#000000;stroke-width:0.75;stroke-linecap:round;stroke-linejoin:round;stroke-miterlimit:10;stroke-opacity:1;stroke-dasharray:none" /><path
             d="m 191.02,192.38 c -11.25,0 -20.37,-8.97 -20.37,-20.03 0,-11.06 9.12,-20.02 20.37,-20.02 11.26,0 20.38,8.96 20.38,20.02 0,11.06 -9.12,20.03 -20.38,20.03 z"
             inkscape:connector-curvature="0"
             id="path26"
             style="fill:#5a5a5a;fill-opacity:1;fill-rule:evenodd;stroke:none" /><path
             d="m 191.02,192.38 c -11.25,0 -20.37,-8.97 -20.37,-20.03 0,-11.06 9.12,-20.02 20.37,-20.02 11.26,0 20.38,8.96 20.38,20.02 0,11.06 -9.12,20.03 -20.38,20.03 z"
             inkscape:connector-curvature="0"
             id="path28"
             style="fill:none;stroke:#000000;stroke-width:0.75;stroke-linecap:round;stroke-linejoin:round;stroke-miterlimit:10;stroke-opacity:1;stroke-dasharray:none" /><path
             d="m 132.35,215.68 116.6,0 0,3.65 -116.6,0 0,-3.65 z"
             inkscape:connector-curvature="0"
             id="path30"
             style="fill:#000000;fill-opacity:1;fill-rule:evenodd;stroke:none" /><path
             d="m 132.35,215.68 116.6,0 0,3.65 -116.6,0 0,-3.65 z"
             inkscape:connector-curvature="0"
             id="path32"
             style="fill:none;stroke:#000000;stroke-width:0.75;stroke-linecap:round;stroke-linejoin:miter;stroke-miterlimit:8;stroke-opacity:1;stroke-dasharray:none" /><path
             d="m 171.95,179.68 -26.4,-54.7"
             inkscape:connector-curvature="0"
             id="path34"
             style="fill:none;stroke:#000000;stroke-width:0.75;stroke-linecap:round;stroke-linejoin:round;stroke-miterlimit:8;stroke-opacity:1;stroke-dasharray:none" /><path
             d="m 211.4,173.73 9.1,-97.754"
             inkscape:connector-curvature="0"
             id="path36"
             style="fill:none;stroke:#000000;stroke-width:0.75;stroke-linecap:round;stroke-linejoin:round;stroke-miterlimit:8;stroke-opacity:1;stroke-dasharray:none" /><path
             d="m 180.45,80.376 10.8,46.504"
             inkscape:connector-curvature="0"
             id="path38"
             style="fill:none;stroke:#000000;stroke-width:0.75;stroke-linecap:round;stroke-linejoin:round;stroke-miterlimit:8;stroke-opacity:1;stroke-dasharray:none" /><path
             d="m 200,70.476 0,-29.3"
             inkscape:connector-curvature="0"
             id="path40"
             style="fill:none;stroke:#000000;stroke-width:0.75;stroke-linecap:round;stroke-linejoin:round;stroke-miterlimit:8;stroke-opacity:1;stroke-dasharray:none" /><path
             d="m 185.95,0.12589 6.36,22.90011 12.73,0 6.36,-22.90011 -25.45,0 z"
             inkscape:connector-curvature="0"
             id="path42"
             style="fill:#000000;fill-opacity:1;fill-rule:evenodd;stroke:none" /><path
             d="m 185.95,0.12589 6.36,22.90011 12.73,0 6.36,-22.90011 -25.45,0 z"
             inkscape:connector-curvature="0"
             id="path44"
             style="fill:none;stroke:#000000;stroke-width:0.75;stroke-linecap:round;stroke-linejoin:round;stroke-miterlimit:8;stroke-opacity:1;stroke-dasharray:none" /><path
             d="m 198.1,39.926 2.45,0 0,34.25 -2.45,0 0,-34.25 z"
             inkscape:connector-curvature="0"
             id="path46"
             style="fill:#000000;fill-opacity:1;fill-rule:evenodd;stroke:none" /><path
             d="m 198.1,39.926 2.45,0 0,34.25 -2.45,0 0,-34.25 z"
             inkscape:connector-curvature="0"
             id="path48"
             style="fill:none;stroke:#000000;stroke-width:0.75;stroke-linecap:round;stroke-linejoin:miter;stroke-miterlimit:8;stroke-opacity:1;stroke-dasharray:none" /><path
             d="m 199.35,75.976 c -0.99,0 -1.8,-0.795 -1.8,-1.775 0,-0.98 0.81,-1.775 1.8,-1.775 0.99,0 1.8,0.795 1.8,1.775 0,0.98 -0.81,1.775 -1.8,1.775 z"
             inkscape:connector-curvature="0"
             id="path50"
             style="fill:#ffffff;fill-opacity:1;fill-rule:evenodd;stroke:none" /><path
             d="m 199.35,75.976 c -0.99,0 -1.8,-0.795 -1.8,-1.775 0,-0.98 0.81,-1.775 1.8,-1.775 0.99,0 1.8,0.795 1.8,1.775 0,0.98 -0.81,1.775 -1.8,1.775 z"
             inkscape:connector-curvature="0"
             id="path52"
             style="fill:none;stroke:#000000;stroke-width:0.75;stroke-linecap:round;stroke-linejoin:round;stroke-miterlimit:8;stroke-opacity:1;stroke-dasharray:none" /><path
             d="m 199.2,35.523 c 0.96,-0.374 1.73,-1.068 2.19,-1.96 1.09,-2.111 0.17,-4.756 -2.07,-5.908 -2.23,-1.153 -4.92,-0.376 -6.01,1.734 -0.46,0.892 -0.58,1.927 -0.33,2.924 -0.25,-0.997 -0.13,-2.032 0.33,-2.924 1.09,-2.11 3.78,-2.887 6.01,-1.734 2.24,1.152 3.16,3.797 2.07,5.908 -0.46,0.892 -1.23,1.586 -2.19,1.96 z"
             inkscape:connector-curvature="0"
             id="path54"
             style="fill:#ffffff;fill-opacity:1;fill-rule:evenodd;stroke:none" /><path
             d="m 199.2,35.523 c 0.96,-0.374 1.73,-1.068 2.19,-1.96 1.09,-2.111 0.17,-4.756 -2.07,-5.908 -2.23,-1.153 -4.92,-0.376 -6.01,1.734 -0.46,0.892 -0.58,1.927 -0.33,2.924 -0.25,-0.997 -0.13,-2.032 0.33,-2.924 1.09,-2.11 3.78,-2.887 6.01,-1.734 2.24,1.152 3.16,3.797 2.07,5.908 -0.46,0.892 -1.23,1.586 -2.19,1.96 z"
             inkscape:connector-curvature="0"
             id="path56"
             style="fill:none;stroke:#000000;stroke-width:0.75;stroke-linecap:round;stroke-linejoin:round;stroke-miterlimit:8;stroke-opacity:1;stroke-dasharray:none" /><path
             d="m 199.15,35.226 0.05,5.4"
             inkscape:connector-curvature="0"
             id="path58"
             style="fill:none;stroke:#000000;stroke-width:0.75;stroke-linecap:round;stroke-linejoin:round;stroke-miterlimit:8;stroke-opacity:1;stroke-dasharray:none" /><path
             d="m 199.15,23.026 0.05,6.8"
             inkscape:connector-curvature="0"
             id="path60"
             style="fill:none;stroke:#000000;stroke-width:2.25;stroke-linecap:butt;stroke-linejoin:round;stroke-miterlimit:8;stroke-opacity:1;stroke-dasharray:none" /><path
             d="m 191.05,136.76 c -1.03,0.07 -1.98,0.5 -2.68,1.22 -1.67,1.68 -1.58,4.49 0.21,6.25 1.78,1.77 4.58,1.83 6.25,0.15 0.71,-0.72 1.13,-1.67 1.19,-2.7 -0.06,1.03 -0.48,1.98 -1.19,2.7 -1.67,1.68 -4.47,1.62 -6.25,-0.15 -1.79,-1.76 -1.88,-4.57 -0.21,-6.25 0.7,-0.72 1.65,-1.15 2.68,-1.22 z"
             inkscape:connector-curvature="0"
             id="path62"
             style="fill:#ffffff;fill-opacity:1;fill-rule:evenodd;stroke:none" /><path
             d="m 191.05,136.76 c -1.03,0.07 -1.98,0.5 -2.68,1.22 -1.67,1.68 -1.58,4.49 0.21,6.25 1.78,1.77 4.58,1.83 6.25,0.15 0.71,-0.72 1.13,-1.67 1.19,-2.7 -0.06,1.03 -0.48,1.98 -1.19,2.7 -1.67,1.68 -4.47,1.62 -6.25,-0.15 -1.79,-1.76 -1.88,-4.57 -0.21,-6.25 0.7,-0.72 1.65,-1.15 2.68,-1.22 z"
             inkscape:connector-curvature="0"
             id="path64"
             style="fill:none;stroke:#000000;stroke-width:0.75;stroke-linecap:round;stroke-linejoin:round;stroke-miterlimit:8;stroke-opacity:1;stroke-dasharray:none" /><path
             d="m 190.7,126.88 1.4,0 0,7.15 -1.4,0 0,-7.15 z"
             inkscape:connector-curvature="0"
             id="path66"
             style="fill:#000000;fill-opacity:1;fill-rule:evenodd;stroke:none" /><path
             d="m 190.7,126.88 1.4,0 0,7.15 -1.4,0 0,-7.15 z"
             inkscape:connector-curvature="0"
             id="path68"
             style="fill:none;stroke:#000000;stroke-width:0.75;stroke-linecap:round;stroke-linejoin:miter;stroke-miterlimit:8;stroke-opacity:1;stroke-dasharray:none" /><path
             d="m 191.55,134.13 0,2.85"
             inkscape:connector-curvature="0"
             id="path70"
             style="fill:none;stroke:#000000;stroke-width:0.75;stroke-linecap:round;stroke-linejoin:round;stroke-miterlimit:8;stroke-opacity:1;stroke-dasharray:none" /><path
             d="m 189.25,139.78 3.55,0 0,75.9 -3.55,0 0,-75.9 z"
             inkscape:connector-curvature="0"
             id="path72"
             style="fill:#000000;fill-opacity:1;fill-rule:evenodd;stroke:none" /><path
             d="m 189.25,139.78 3.55,0 0,75.9 -3.55,0 0,-75.9 z"
             inkscape:connector-curvature="0"
             id="path74"
             style="fill:none;stroke:#000000;stroke-width:0.75;stroke-linecap:round;stroke-linejoin:miter;stroke-miterlimit:8;stroke-opacity:1;stroke-dasharray:none" /><path
             d="m 191,173.73 c -0.99,0 -1.8,-0.8 -1.8,-1.78 0,-0.98 0.81,-1.77 1.8,-1.77 0.99,0 1.8,0.79 1.8,1.77 0,0.98 -0.81,1.78 -1.8,1.78 z"
             inkscape:connector-curvature="0"
             id="path76"
             style="fill:#ffffff;fill-opacity:1;fill-rule:evenodd;stroke:none" /><path
             d="m 191,173.73 c -0.99,0 -1.8,-0.8 -1.8,-1.78 0,-0.98 0.81,-1.77 1.8,-1.77 0.99,0 1.8,0.79 1.8,1.77 0,0.98 -0.81,1.78 -1.8,1.78 z"
             inkscape:connector-curvature="0"
             id="path78"
             style="fill:none;stroke:#000000;stroke-width:0.75;stroke-linecap:round;stroke-linejoin:round;stroke-miterlimit:8;stroke-opacity:1;stroke-dasharray:none" /><path
             d="m 191,144.58 c -0.99,0 -1.8,-0.8 -1.8,-1.78 0,-0.98 0.81,-1.77 1.8,-1.77 0.99,0 1.8,0.79 1.8,1.77 0,0.98 -0.81,1.78 -1.8,1.78 z"
             inkscape:connector-curvature="0"
             id="path80"
             style="fill:#ffffff;fill-opacity:1;fill-rule:evenodd;stroke:none" /><path
             d="m 191,144.58 c -0.99,0 -1.8,-0.8 -1.8,-1.78 0,-0.98 0.81,-1.77 1.8,-1.77 0.99,0 1.8,0.79 1.8,1.77 0,0.98 -0.81,1.78 -1.8,1.78 z"
             inkscape:connector-curvature="0"
             id="path82"
             style="fill:none;stroke:#000000;stroke-width:0.75;stroke-linecap:round;stroke-linejoin:round;stroke-miterlimit:8;stroke-opacity:1;stroke-dasharray:none" /><path
             d="m 142.4,116.82 c 0.9,-0.51 1.57,-1.3 1.9,-2.25 0.78,-2.24 -0.52,-4.73 -2.89,-5.56 -2.37,-0.82 -4.93,0.33 -5.71,2.57 -0.33,0.95 -0.3,1.99 0.09,2.94 -0.39,-0.95 -0.42,-1.99 -0.09,-2.94 0.78,-2.24 3.34,-3.39 5.71,-2.57 2.37,0.83 3.67,3.32 2.89,5.56 -0.33,0.95 -1,1.74 -1.9,2.25 z"
             inkscape:connector-curvature="0"
             id="path84"
             style="fill:#ffffff;fill-opacity:1;fill-rule:evenodd;stroke:none" /><path
             d="m 142.4,116.82 c 0.9,-0.51 1.57,-1.3 1.9,-2.25 0.78,-2.24 -0.52,-4.73 -2.89,-5.56 -2.37,-0.82 -4.93,0.33 -5.71,2.57 -0.33,0.95 -0.3,1.99 0.09,2.94 -0.39,-0.95 -0.42,-1.99 -0.09,-2.94 0.78,-2.24 3.34,-3.39 5.71,-2.57 2.37,0.83 3.67,3.32 2.89,5.56 -0.33,0.95 -1,1.74 -1.9,2.25 z"
             inkscape:connector-curvature="0"
             id="path86"
             style="fill:none;stroke:#000000;stroke-width:0.75;stroke-linecap:round;stroke-linejoin:round;stroke-miterlimit:8;stroke-opacity:1;stroke-dasharray:none" /><path
             d="m 145.76,126.28 -3.08,-6.45 1.26,-0.61 3.08,6.45 -1.26,0.61 z"
             inkscape:connector-curvature="0"
             id="path88"
             style="fill:#000000;fill-opacity:1;fill-rule:evenodd;stroke:none" /><path
             d="m 145.76,126.28 -3.08,-6.45 1.26,-0.61 3.08,6.45 -1.26,0.61 z"
             inkscape:connector-curvature="0"
             id="path90"
             style="fill:none;stroke:#000000;stroke-width:0.75;stroke-linecap:round;stroke-linejoin:miter;stroke-miterlimit:8;stroke-opacity:1;stroke-dasharray:none" /><path
             d="m 143.11,119.49 -1.22,-2.57"
             inkscape:connector-curvature="0"
             id="path92"
             style="fill:none;stroke:#000000;stroke-width:0.75;stroke-linecap:round;stroke-linejoin:round;stroke-miterlimit:8;stroke-opacity:1;stroke-dasharray:none" /></g></g></g></g></svg>