<?xml version="1.0" encoding="UTF-8" standalone="no"?>
<!-- Created with Inkscape (http://www.inkscape.org/) -->

<svg
   xmlns:dc="http://purl.org/dc/elements/1.1/"
   xmlns:cc="http://creativecommons.org/ns#"
   xmlns:rdf="http://www.w3.org/1999/02/22-rdf-syntax-ns#"
   xmlns:svg="http://www.w3.org/2000/svg"
   xmlns="http://www.w3.org/2000/svg"
   xmlns:sodipodi="http://sodipodi.sourceforge.net/DTD/sodipodi-0.dtd"
   xmlns:inkscape="http://www.inkscape.org/namespaces/inkscape"
   version="1.1"
   width="170.625"
   height="293.0625"
   id="svg2"
   xml:space="preserve"
   inkscape:version="0.48.4 r9939"
   sodipodi:docname="Bild 1-2 Anwendung mit zwei Verantwortlichkeiten .svg"><sodipodi:namedview
     pagecolor="#ffffff"
     bordercolor="#666666"
     borderopacity="1"
     objecttolerance="10"
     gridtolerance="10"
     guidetolerance="10"
     inkscape:pageopacity="0"
     inkscape:pageshadow="2"
     inkscape:window-width="640"
     inkscape:window-height="480"
     id="namedview156"
     showgrid="false"
     inkscape:zoom="0.18730159"
     inkscape:cx="542.65625"
     inkscape:cy="28.15625"
     inkscape:window-x="0"
     inkscape:window-y="0"
     inkscape:window-maximized="0"
     inkscape:current-layer="svg2" /><metadata
     id="metadata8"><rdf:RDF><cc:Work
         rdf:about=""><dc:format>image/svg+xml</dc:format><dc:type
           rdf:resource="http://purl.org/dc/dcmitype/StillImage" /></cc:Work></rdf:RDF></metadata><defs
     id="defs6"><clipPath
       id="clipPath20"><path
         d="m 70.921,622.99 135.03,0 0,88.575 -135.03,0 0,-88.575 z"
         inkscape:connector-curvature="0"
         id="path22" /></clipPath><clipPath
       id="clipPath28"><path
         d="m 70.92,622.99 135.02,0 0,88.584 -135.02,0 0,-88.584 z"
         inkscape:connector-curvature="0"
         id="path30" /></clipPath><clipPath
       id="clipPath40"><path
         d="m 70.92,622.99 135.02,0 0,88.584 -135.02,0 0,-88.584 z"
         inkscape:connector-curvature="0"
         id="path42" /></clipPath><clipPath
       id="clipPath48"><path
         d="m 70.92,622.99 135.02,0 0,88.584 -135.02,0 0,-88.584 z"
         inkscape:connector-curvature="0"
         id="path50" /></clipPath><clipPath
       id="clipPath60"><path
         d="m 70.92,622.99 135.02,0 0,88.584 -135.02,0 0,-88.584 z"
         inkscape:connector-curvature="0"
         id="path62" /></clipPath><clipPath
       id="clipPath68"><path
         d="m 70.92,622.99 135.02,0 0,88.584 -135.02,0 0,-88.584 z"
         inkscape:connector-curvature="0"
         id="path70" /></clipPath><clipPath
       id="clipPath76"><path
         d="m 70.92,622.99 135.02,0 0,88.584 -135.02,0 0,-88.584 z"
         inkscape:connector-curvature="0"
         id="path78" /></clipPath><clipPath
       id="clipPath88"><path
         d="m 70.92,622.99 135.02,0 0,88.584 -135.02,0 0,-88.584 z"
         inkscape:connector-curvature="0"
         id="path90" /></clipPath><clipPath
       id="clipPath96"><path
         d="m 70.92,622.99 135.02,0 0,88.584 -135.02,0 0,-88.584 z"
         inkscape:connector-curvature="0"
         id="path98" /></clipPath><clipPath
       id="clipPath108"><path
         d="m 70.92,622.99 135.02,0 0,88.584 -135.02,0 0,-88.584 z"
         inkscape:connector-curvature="0"
         id="path110" /></clipPath><clipPath
       id="clipPath116"><path
         d="m 70.92,622.99 135.02,0 0,88.584 -135.02,0 0,-88.584 z"
         inkscape:connector-curvature="0"
         id="path118" /></clipPath><clipPath
       id="clipPath128"><path
         d="m 70.92,622.99 135.02,0 0,88.584 -135.02,0 0,-88.584 z"
         inkscape:connector-curvature="0"
         id="path130" /></clipPath><clipPath
       id="clipPath136"><path
         d="m 70.92,622.99 135.02,0 0,88.584 -135.02,0 0,-88.584 z"
         inkscape:connector-curvature="0"
         id="path138" /></clipPath><clipPath
       id="clipPath148"><path
         d="m 70.92,622.99 135.02,0 0,88.584 -135.02,0 0,-88.584 z"
         inkscape:connector-curvature="0"
         id="path150" /></clipPath><clipPath
       id="clipPath160"><path
         d="m 73.081,485.83 130.71,0 0,73.44 -130.71,0 0,-73.44 z"
         inkscape:connector-curvature="0"
         id="path162" /></clipPath><clipPath
       id="clipPath168"><path
         d="m 73.08,485.83 130.7,0 0,73.44 -130.7,0 0,-73.44 z"
         inkscape:connector-curvature="0"
         id="path170" /></clipPath><clipPath
       id="clipPath180"><path
         d="m 73.08,485.83 130.7,0 0,73.44 -130.7,0 0,-73.44 z"
         inkscape:connector-curvature="0"
         id="path182" /></clipPath><clipPath
       id="clipPath188"><path
         d="m 73.08,485.83 130.7,0 0,73.44 -130.7,0 0,-73.44 z"
         inkscape:connector-curvature="0"
         id="path190" /></clipPath><clipPath
       id="clipPath196"><path
         d="m 73.08,485.83 130.7,0 0,73.44 -130.7,0 0,-73.44 z"
         inkscape:connector-curvature="0"
         id="path198" /></clipPath><clipPath
       id="clipPath208"><path
         d="m 73.08,485.83 130.7,0 0,73.44 -130.7,0 0,-73.44 z"
         inkscape:connector-curvature="0"
         id="path210" /></clipPath><clipPath
       id="clipPath220"><path
         d="m 73.08,485.83 130.7,0 0,73.44 -130.7,0 0,-73.44 z"
         inkscape:connector-curvature="0"
         id="path222" /></clipPath><clipPath
       id="clipPath228"><path
         d="m 73.08,485.83 130.7,0 0,73.44 -130.7,0 0,-73.44 z"
         inkscape:connector-curvature="0"
         id="path230" /></clipPath><clipPath
       id="clipPath240"><path
         d="m 73.08,485.83 130.7,0 0,73.44 -130.7,0 0,-73.44 z"
         inkscape:connector-curvature="0"
         id="path242" /></clipPath><clipPath
       id="clipPath248"><path
         d="m 73.08,485.83 130.7,0 0,73.44 -130.7,0 0,-73.44 z"
         inkscape:connector-curvature="0"
         id="path250" /></clipPath><clipPath
       id="clipPath260"><path
         d="m 73.08,485.83 130.7,0 0,73.44 -130.7,0 0,-73.44 z"
         inkscape:connector-curvature="0"
         id="path262" /></clipPath><clipPath
       id="clipPath268"><path
         d="m 73.08,485.83 130.7,0 0,73.44 -130.7,0 0,-73.44 z"
         inkscape:connector-curvature="0"
         id="path270" /></clipPath><clipPath
       id="clipPath280"><path
         d="m 73.08,485.83 130.7,0 0,73.44 -130.7,0 0,-73.44 z"
         inkscape:connector-curvature="0"
         id="path282" /></clipPath><clipPath
       id="clipPath288"><path
         d="m 73.08,485.83 130.7,0 0,73.44 -130.7,0 0,-73.44 z"
         inkscape:connector-curvature="0"
         id="path290" /></clipPath><clipPath
       id="clipPath300"><path
         d="m 73.08,485.83 130.7,0 0,73.44 -130.7,0 0,-73.44 z"
         inkscape:connector-curvature="0"
         id="path302" /></clipPath></defs><g
     transform="matrix(1.25,0,0,-1.25,-87.71875,894.90625)"
     id="g10"><path
       d="m 70.55,683.3 135.75,0.05"
       inkscape:connector-curvature="0"
       id="path12"
       style="fill:none;stroke:#000000;stroke-width:0.75;stroke-linecap:round;stroke-linejoin:round;stroke-miterlimit:10;stroke-opacity:1;stroke-dasharray:none" /><path
       d="m 70.55,619 135.75,0 0,96.55 -135.75,0 0,-96.55 z"
       inkscape:connector-curvature="0"
       id="path14"
       style="fill:none;stroke:#000000;stroke-width:0.75;stroke-linecap:round;stroke-linejoin:miter;stroke-miterlimit:8;stroke-opacity:1;stroke-dasharray:none" /><g
       id="g16"><g
         clip-path="url(#clipPath20)"
         id="g18"><g
           id="g24"><g
             clip-path="url(#clipPath28)"
             id="g26"><text
   transform="matrix(1,0,0,-1,98.784,701.26)"
   id="text32"><tspan
     x="0 7.1999998 14.4 21.6 28.799999 36 43.200001 50.400002 57.599998 64.800003 72"
     y="0"
     id="tspan34"
     style="font-size:12px;font-variant:normal;font-weight:normal;writing-mode:lr-tb;fill:#000000;fill-opacity:1;fill-rule:nonzero;stroke:none;font-family:Courier New;-inkscape-font-specification:Courier New">«interface»</tspan></text>

</g></g><g
           id="g36"><g
             clip-path="url(#clipPath40)"
             id="g38" /></g><g
           id="g44"><g
             clip-path="url(#clipPath48)"
             id="g46"><text
   transform="matrix(1,0,0,-1,120.02,686.86)"
   id="text52"><tspan
     x="0 3.336 12 15.336 18.708 25.416 32.748001"
     y="0"
     id="tspan54"
     style="font-size:12px;font-variant:normal;font-weight:bold;writing-mode:lr-tb;fill:#000000;fill-opacity:1;fill-rule:nonzero;stroke:none;font-family:Helvetica;-inkscape-font-specification:Helvetica-Bold">IClient</tspan></text>

</g></g><g
           id="g56"><g
             clip-path="url(#clipPath60)"
             id="g58" /></g><g
           id="g64"><g
             clip-path="url(#clipPath68)"
             id="g66" /></g><g
           id="g72"><g
             clip-path="url(#clipPath76)"
             id="g74"><text
   transform="matrix(1,0,0,-1,78.12,670.78)"
   id="text80"><tspan
     x="0 6.96 10.296 16.296 23.028 29.736 36.444 43.152 49.032001 52.368 56.363998 60.312 63.647999 67.019997 70.356003 76.260002 82.968002 85.632004"
     y="0"
     id="tspan82"
     style="font-size:12px;font-variant:normal;font-weight:normal;writing-mode:lr-tb;fill:#000000;fill-opacity:1;fill-rule:nonzero;stroke:none;font-family:Helvetica;-inkscape-font-specification:Helvetica">+ connect() : void</tspan></text>

</g></g><g
           id="g84"><g
             clip-path="url(#clipPath88)"
             id="g86" /></g><g
           id="g92"><g
             clip-path="url(#clipPath96)"
             id="g94"><text
   transform="matrix(1,0,0,-1,78.12,656.95)"
   id="text100"><tspan
     x="0 6.96 10.296 17.028 19.691999 25.691999 31.691999 38.363998 45.096001 51.804001 58.512001 64.391998 67.727997 71.723999 75.671997 79.008003 82.379997 85.716003 91.620003 98.328003 100.992"
     y="0"
     id="tspan102"
     style="font-size:12px;font-variant:normal;font-weight:normal;writing-mode:lr-tb;fill:#000000;fill-opacity:1;fill-rule:nonzero;stroke:none;font-family:Helvetica;-inkscape-font-specification:Helvetica">+ disconnect() : void</tspan></text>

</g></g><g
           id="g104"><g
             clip-path="url(#clipPath108)"
             id="g106" /></g><g
           id="g112"><g
             clip-path="url(#clipPath116)"
             id="g114"><text
   transform="matrix(1,0,0,-1,78.12,643.15)"
   id="text120"><tspan
     x="0 6.96 10.296 14.292 20.964001 26.964001 33.708 36.372002 42.228001 48.936001 52.931999 56.855999 60.192001 63.563999 67.031998 72.912003 79.620003 82.283997"
     y="0"
     id="tspan122"
     style="font-size:12px;font-variant:normal;font-weight:normal;writing-mode:lr-tb;fill:#000000;fill-opacity:1;fill-rule:nonzero;stroke:none;font-family:Helvetica;-inkscape-font-specification:Helvetica">+ receive() : void</tspan></text>

</g></g><g
           id="g124"><g
             clip-path="url(#clipPath128)"
             id="g126" /></g><g
           id="g132"><g
             clip-path="url(#clipPath136)"
             id="g134"><text
   transform="matrix(1,0,0,-1,78.12,629.23)"
   id="text140"><tspan
     x="0 6.96 10.296 16.296 23.028 29.736 36.444 40.439999 44.363998 47.700001 51.071999 54.408001 60.312 67.019997 69.683998"
     y="0"
     id="tspan142"
     style="font-size:12px;font-variant:normal;font-weight:normal;writing-mode:lr-tb;fill:#000000;fill-opacity:1;fill-rule:nonzero;stroke:none;font-family:Helvetica;-inkscape-font-specification:Helvetica">+ send() : void</tspan></text>

</g></g><g
           id="g144"><g
             clip-path="url(#clipPath148)"
             id="g146" /></g></g></g><path
       d="m 72.7,543.05 131.45,0.05"
       inkscape:connector-curvature="0"
       id="path152"
       style="fill:none;stroke:#000000;stroke-width:0.75;stroke-linecap:round;stroke-linejoin:round;stroke-miterlimit:8;stroke-opacity:1;stroke-dasharray:none" /><path
       d="m 72.7,481.85 131.45,0 0,81.5 -131.45,0 0,-81.5 z"
       inkscape:connector-curvature="0"
       id="path154"
       style="fill:none;stroke:#000000;stroke-width:0.75;stroke-linecap:round;stroke-linejoin:miter;stroke-miterlimit:8;stroke-opacity:1;stroke-dasharray:none" /><g
       id="g156"><g
         clip-path="url(#clipPath160)"
         id="g158"><g
           id="g164"><g
             clip-path="url(#clipPath168)"
             id="g166"><text
   transform="matrix(1,0,0,-1,121.7,548.23)"
   id="text172"><tspan
     x="0 8.6639996 12 15.336 22.068001 29.4"
     y="0"
     id="tspan174"
     style="font-size:12px;font-variant:normal;font-weight:bold;writing-mode:lr-tb;fill:#000000;fill-opacity:1;fill-rule:nonzero;stroke:none;font-family:Helvetica;-inkscape-font-specification:Helvetica-Bold">Client</tspan></text>

</g></g><g
           id="g176"><g
             clip-path="url(#clipPath180)"
             id="g178" /></g><g
           id="g184"><g
             clip-path="url(#clipPath188)"
             id="g186" /></g><g
           id="g192"><g
             clip-path="url(#clipPath196)"
             id="g194"><text
   transform="matrix(1,0,0,-1,80.28,532.15)"
   id="text200"><tspan
     x="0 6.96 10.296 16.296 23.028 29.736 36.444 43.152 49.032001"
     y="0"
     id="tspan202"
     style="font-size:12px;font-variant:normal;font-weight:normal;writing-mode:lr-tb;fill:#000000;fill-opacity:1;fill-rule:nonzero;stroke:none;font-family:Helvetica;-inkscape-font-specification:Helvetica">+ connect</tspan></text>

</g></g><g
           id="g204"><g
             clip-path="url(#clipPath208)"
             id="g206"><text
   transform="matrix(1,0,0,-1,132.74,532.15)"
   id="text212"><tspan
     x="0 3.96"
     y="0"
     id="tspan214"
     style="font-size:12px;font-variant:normal;font-weight:normal;writing-mode:lr-tb;fill:#000000;fill-opacity:1;fill-rule:nonzero;stroke:none;font-family:Helvetica;-inkscape-font-specification:Helvetica">()</tspan></text>

</g></g><g
           id="g216"><g
             clip-path="url(#clipPath220)"
             id="g218" /></g><g
           id="g224"><g
             clip-path="url(#clipPath228)"
             id="g226"><text
   transform="matrix(1,0,0,-1,144.02,532.15)"
   id="text232"><tspan
     x="0 3.336 6.7080002 12.588 19.296 21.959999"
     y="0"
     id="tspan234"
     style="font-size:12px;font-variant:normal;font-weight:normal;writing-mode:lr-tb;fill:#000000;fill-opacity:1;fill-rule:nonzero;stroke:none;font-family:Helvetica;-inkscape-font-specification:Helvetica">: void</tspan></text>

</g></g><g
           id="g236"><g
             clip-path="url(#clipPath240)"
             id="g238" /></g><g
           id="g244"><g
             clip-path="url(#clipPath248)"
             id="g246"><text
   transform="matrix(1,0,0,-1,80.28,518.35)"
   id="text252"><tspan
     x="0 6.96 10.296 17.028 19.691999 25.691999 31.691999 38.363998 45.096001 51.804001 58.512001 64.391998 67.727997 71.723999 75.671997 79.008003 82.379997 85.716003 91.620003 98.328003 100.992"
     y="0"
     id="tspan254"
     style="font-size:12px;font-variant:normal;font-weight:normal;writing-mode:lr-tb;fill:#000000;fill-opacity:1;fill-rule:nonzero;stroke:none;font-family:Helvetica;-inkscape-font-specification:Helvetica">+ disconnect() : void</tspan></text>

</g></g><g
           id="g256"><g
             clip-path="url(#clipPath260)"
             id="g258" /></g><g
           id="g264"><g
             clip-path="url(#clipPath268)"
             id="g266"><text
   transform="matrix(1,0,0,-1,80.28,504.55)"
   id="text272"><tspan
     x="0 6.96 10.296 14.292 20.964001 26.964001 33.708 36.372002 42.228001 48.936001 52.931999 56.855999 60.192001 63.563999 67.031998 72.912003 79.620003 82.283997"
     y="0"
     id="tspan274"
     style="font-size:12px;font-variant:normal;font-weight:normal;writing-mode:lr-tb;fill:#000000;fill-opacity:1;fill-rule:nonzero;stroke:none;font-family:Helvetica;-inkscape-font-specification:Helvetica">+ receive() : void</tspan></text>

</g></g><g
           id="g276"><g
             clip-path="url(#clipPath280)"
             id="g278" /></g><g
           id="g284"><g
             clip-path="url(#clipPath288)"
             id="g286"><text
   transform="matrix(1,0,0,-1,80.28,490.63)"
   id="text292"><tspan
     x="0 6.96 10.296 16.296 23.028 29.736 36.444 40.439999 44.363998 47.700001 51.071999 54.408001 60.312 67.019997 69.683998"
     y="0"
     id="tspan294"
     style="font-size:12px;font-variant:normal;font-weight:normal;writing-mode:lr-tb;fill:#000000;fill-opacity:1;fill-rule:nonzero;stroke:none;font-family:Helvetica;-inkscape-font-specification:Helvetica">+ send() : void</tspan></text>

</g></g><g
           id="g296"><g
             clip-path="url(#clipPath300)"
             id="g298" /></g></g></g><path
       d="m 137.22,619 -12.37,-15 24.75,0 -12.38,15 z"
       inkscape:connector-curvature="0"
       id="path304"
       style="fill:#ffffff;fill-opacity:1;fill-rule:evenodd;stroke:none" /><path
       d="m 137.22,619 -12.37,-15 24.75,0 -12.38,15 z"
       inkscape:connector-curvature="0"
       id="path306"
       style="fill:none;stroke:#000000;stroke-width:0.75;stroke-linecap:round;stroke-linejoin:round;stroke-miterlimit:8;stroke-opacity:1;stroke-dasharray:none" /><g
       id="g308"><path
         d="m 137.25,603.3 0.4,-39.95"
         inkscape:connector-curvature="0"
         id="path310"
         style="fill:none;stroke:#000000;stroke-width:0.75;stroke-linecap:round;stroke-linejoin:round;stroke-miterlimit:8;stroke-opacity:1;stroke-dasharray:5.25, 3;stroke-dashoffset:0" /></g></g></svg>