<?xml version="1.0" encoding="UTF-8" standalone="no"?>
<!-- Created with Inkscape (http://www.inkscape.org/) -->

<svg
   xmlns:dc="http://purl.org/dc/elements/1.1/"
   xmlns:cc="http://creativecommons.org/ns#"
   xmlns:rdf="http://www.w3.org/1999/02/22-rdf-syntax-ns#"
   xmlns:svg="http://www.w3.org/2000/svg"
   xmlns="http://www.w3.org/2000/svg"
   xmlns:sodipodi="http://sodipodi.sourceforge.net/DTD/sodipodi-0.dtd"
   xmlns:inkscape="http://www.inkscape.org/namespaces/inkscape"
   version="1.1"
   width="349.34375"
   height="248.3125"
   id="svg2"
   xml:space="preserve"
   inkscape:version="0.48.4 r9939"
   sodipodi:docname="Bild 1-8 Versch채rfen einer Nachbedingung in einer abgeleiteten Klasse.svg"><sodipodi:namedview
     pagecolor="#ffffff"
     bordercolor="#666666"
     borderopacity="1"
     objecttolerance="10"
     gridtolerance="10"
     guidetolerance="10"
     inkscape:pageopacity="0"
     inkscape:pageshadow="2"
     inkscape:window-width="640"
     inkscape:window-height="480"
     id="namedview215"
     showgrid="false"
     inkscape:zoom="0.18730159"
     inkscape:cx="451.78125"
     inkscape:cy="-105.75"
     inkscape:window-x="0"
     inkscape:window-y="0"
     inkscape:window-maximized="0"
     inkscape:current-layer="svg2" /><metadata
     id="metadata8"><rdf:RDF><cc:Work
         rdf:about=""><dc:format>image/svg+xml</dc:format><dc:type
           rdf:resource="http://purl.org/dc/dcmitype/StillImage" /></cc:Work></rdf:RDF></metadata><defs
     id="defs6"><clipPath
       id="clipPath24"><path
         d="m 165.15,630.31 105.72,0 0,31.8 -105.72,0 0,-31.8 z"
         inkscape:connector-curvature="0"
         id="path26" /></clipPath><clipPath
       id="clipPath32"><path
         d="m 165.14,630.31 105.72,0 0,31.8 -105.72,0 0,-31.8 z"
         inkscape:connector-curvature="0"
         id="path34" /></clipPath><clipPath
       id="clipPath44"><path
         d="m 165.14,630.31 105.72,0 0,31.8 -105.72,0 0,-31.8 z"
         inkscape:connector-curvature="0"
         id="path46" /></clipPath><clipPath
       id="clipPath56"><path
         d="m 165.14,630.31 105.72,0 0,31.8 -105.72,0 0,-31.8 z"
         inkscape:connector-curvature="0"
         id="path58" /></clipPath><clipPath
       id="clipPath64"><path
         d="m 165.14,630.31 105.72,0 0,31.8 -105.72,0 0,-31.8 z"
         inkscape:connector-curvature="0"
         id="path66" /></clipPath><clipPath
       id="clipPath76"><path
         d="m 165.14,630.31 105.72,0 0,31.8 -105.72,0 0,-31.8 z"
         inkscape:connector-curvature="0"
         id="path78" /></clipPath><clipPath
       id="clipPath88"><path
         d="m 165.14,630.31 105.72,0 0,31.8 -105.72,0 0,-31.8 z"
         inkscape:connector-curvature="0"
         id="path90" /></clipPath><clipPath
       id="clipPath98"><path
         d="m 284.33,592.15 109.44,0 0,34.8 -109.44,0 0,-34.8 z"
         inkscape:connector-curvature="0"
         id="path100" /></clipPath><clipPath
       id="clipPath106"><path
         d="m 284.33,592.15 109.44,0 0,34.8 -109.44,0 0,-34.8 z"
         inkscape:connector-curvature="0"
         id="path108" /></clipPath><clipPath
       id="clipPath118"><path
         d="m 284.33,592.15 109.44,0 0,34.8 -109.44,0 0,-34.8 z"
         inkscape:connector-curvature="0"
         id="path120" /></clipPath><clipPath
       id="clipPath130"><path
         d="m 284.33,592.15 109.44,0 0,34.8 -109.44,0 0,-34.8 z"
         inkscape:connector-curvature="0"
         id="path132" /></clipPath><clipPath
       id="clipPath138"><path
         d="m 284.33,592.15 109.44,0 0,34.8 -109.44,0 0,-34.8 z"
         inkscape:connector-curvature="0"
         id="path140" /></clipPath><clipPath
       id="clipPath150"><path
         d="m 284.33,592.15 109.44,0 0,34.8 -109.44,0 0,-34.8 z"
         inkscape:connector-curvature="0"
         id="path152" /></clipPath><clipPath
       id="clipPath162"><path
         d="m 284.33,592.15 109.44,0 0,34.8 -109.44,0 0,-34.8 z"
         inkscape:connector-curvature="0"
         id="path164" /></clipPath><clipPath
       id="clipPath176"><path
         d="m 194.55,719.01 111.5,0 0,61.68 -111.5,0 0,-61.68 z"
         inkscape:connector-curvature="0"
         id="path178" /></clipPath><clipPath
       id="clipPath184"><path
         d="m 194.54,719.02 111.5,0 0,61.68 -111.5,0 0,-61.68 z"
         inkscape:connector-curvature="0"
         id="path186" /></clipPath><clipPath
       id="clipPath196"><path
         d="m 194.54,719.02 111.5,0 0,61.68 -111.5,0 0,-61.68 z"
         inkscape:connector-curvature="0"
         id="path198" /></clipPath><clipPath
       id="clipPath204"><path
         d="m 194.54,719.02 111.5,0 0,61.68 -111.5,0 0,-61.68 z"
         inkscape:connector-curvature="0"
         id="path206" /></clipPath><clipPath
       id="clipPath216"><path
         d="m 194.54,719.02 111.5,0 0,61.68 -111.5,0 0,-61.68 z"
         inkscape:connector-curvature="0"
         id="path218" /></clipPath><clipPath
       id="clipPath228"><path
         d="m 194.54,719.02 111.5,0 0,61.68 -111.5,0 0,-61.68 z"
         inkscape:connector-curvature="0"
         id="path230" /></clipPath><clipPath
       id="clipPath236"><path
         d="m 194.54,719.02 111.5,0 0,61.68 -111.5,0 0,-61.68 z"
         inkscape:connector-curvature="0"
         id="path238" /></clipPath><clipPath
       id="clipPath248"><path
         d="m 194.54,719.02 111.5,0 0,61.68 -111.5,0 0,-61.68 z"
         inkscape:connector-curvature="0"
         id="path250" /></clipPath><clipPath
       id="clipPath260"><path
         d="m 194.54,719.02 111.5,0 0,61.68 -111.5,0 0,-61.68 z"
         inkscape:connector-curvature="0"
         id="path262" /></clipPath><clipPath
       id="clipPath272"><path
         d="m 194.54,719.02 111.5,0 0,61.68 -111.5,0 0,-61.68 z"
         inkscape:connector-curvature="0"
         id="path274" /></clipPath><clipPath
       id="clipPath284"><path
         d="m 194.54,719.02 111.5,0 0,61.68 -111.5,0 0,-61.68 z"
         inkscape:connector-curvature="0"
         id="path286" /></clipPath><clipPath
       id="clipPath296"><path
         d="m 194.54,719.02 111.5,0 0,61.68 -111.5,0 0,-61.68 z"
         inkscape:connector-curvature="0"
         id="path298" /></clipPath><clipPath
       id="clipPath306"><path
         d="m 307.61,711.69 114.72,0 0,71.88 -114.72,0 0,-71.88 z"
         inkscape:connector-curvature="0"
         id="path308" /></clipPath><clipPath
       id="clipPath314"><path
         d="m 307.61,711.7 114.72,0 0,71.88 -114.72,0 0,-71.88 z"
         inkscape:connector-curvature="0"
         id="path316" /></clipPath><clipPath
       id="clipPath326"><path
         d="m 307.61,711.7 114.72,0 0,71.88 -114.72,0 0,-71.88 z"
         inkscape:connector-curvature="0"
         id="path328" /></clipPath><clipPath
       id="clipPath334"><path
         d="m 307.61,711.7 114.72,0 0,71.88 -114.72,0 0,-71.88 z"
         inkscape:connector-curvature="0"
         id="path336" /></clipPath><clipPath
       id="clipPath346"><path
         d="m 307.61,711.7 114.72,0 0,71.88 -114.72,0 0,-71.88 z"
         inkscape:connector-curvature="0"
         id="path348" /></clipPath><clipPath
       id="clipPath358"><path
         d="m 307.61,711.7 114.72,0 0,71.88 -114.72,0 0,-71.88 z"
         inkscape:connector-curvature="0"
         id="path360" /></clipPath><clipPath
       id="clipPath370"><path
         d="m 307.61,711.7 114.72,0 0,71.88 -114.72,0 0,-71.88 z"
         inkscape:connector-curvature="0"
         id="path372" /></clipPath><clipPath
       id="clipPath382"><path
         d="m 307.61,711.7 114.72,0 0,71.88 -114.72,0 0,-71.88 z"
         inkscape:connector-curvature="0"
         id="path384" /></clipPath><clipPath
       id="clipPath390"><path
         d="m 307.61,711.7 114.72,0 0,71.88 -114.72,0 0,-71.88 z"
         inkscape:connector-curvature="0"
         id="path392" /></clipPath><clipPath
       id="clipPath402"><path
         d="m 307.61,711.7 114.72,0 0,71.88 -114.72,0 0,-71.88 z"
         inkscape:connector-curvature="0"
         id="path404" /></clipPath><clipPath
       id="clipPath414"><path
         d="m 307.61,711.7 114.72,0 0,71.88 -114.72,0 0,-71.88 z"
         inkscape:connector-curvature="0"
         id="path416" /></clipPath><clipPath
       id="clipPath426"><path
         d="m 307.61,711.7 114.72,0 0,71.88 -114.72,0 0,-71.88 z"
         inkscape:connector-curvature="0"
         id="path428" /></clipPath></defs><g
     transform="matrix(1.25,0,0,-1.25,-178.59375,984.0625)"
     id="g10"><path
       d="m 243.38,698.85 c -55.31,0 -100.13,-24.34 -100.13,-54.38 0,-30.03 44.82,-54.37 100.13,-54.37 55.3,0 100.12,24.34 100.12,54.37 0,30.04 -44.82,54.38 -100.12,54.38 z"
       inkscape:connector-curvature="0"
       id="path12"
       style="fill:#ffffff;fill-opacity:1;fill-rule:evenodd;stroke:none" /><path
       d="m 243.38,698.85 c -55.31,0 -100.13,-24.34 -100.13,-54.38 0,-30.03 44.82,-54.37 100.13,-54.37 55.3,0 100.12,24.34 100.12,54.37 0,30.04 -44.82,54.38 -100.12,54.38 z"
       inkscape:connector-curvature="0"
       id="path14"
       style="fill:none;stroke:#000000;stroke-width:0.75;stroke-linecap:round;stroke-linejoin:round;stroke-miterlimit:10;stroke-opacity:1;stroke-dasharray:none" /><path
       d="m 217.5,680.85 c -36.45,0 -66,-15.45 -66,-34.5 0,-19.05 29.55,-34.5 66,-34.5 36.45,0 66,15.45 66,34.5 0,19.05 -29.55,34.5 -66,34.5 z"
       inkscape:connector-curvature="0"
       id="path16"
       style="fill:#ffffff;fill-opacity:1;fill-rule:evenodd;stroke:none" /><path
       d="m 217.5,680.85 c -36.45,0 -66,-15.45 -66,-34.5 0,-19.05 29.55,-34.5 66,-34.5 36.45,0 66,15.45 66,34.5 0,19.05 -29.55,34.5 -66,34.5 z"
       inkscape:connector-curvature="0"
       id="path18"
       style="fill:none;stroke:#000000;stroke-width:2;stroke-linecap:round;stroke-linejoin:round;stroke-miterlimit:10;stroke-opacity:1;stroke-dasharray:none" /><g
       id="g20"><g
         clip-path="url(#clipPath24)"
         id="g22"><g
           id="g28"><g
             clip-path="url(#clipPath32)"
             id="g30"><text
   transform="matrix(1,0,0,-1,172.34,651.07)"
   id="text36"><tspan
     x="0 8.6639996 15.336 21.336 28.068001 34.776001 41.375999 48.084 50.748001 57.419998 64.043999 70.751999 77.459999 84.059998"
     y="0"
     id="tspan38"
     style="font-size:12px;font-variant:normal;font-weight:normal;writing-mode:lr-tb;fill:#000000;fill-opacity:1;fill-rule:nonzero;stroke:none;font-family:Helvetica;-inkscape-font-specification:Helvetica">Nachbedingung </tspan></text>

</g></g><g
           id="g40"><g
             clip-path="url(#clipPath44)"
             id="g42"><text
   transform="matrix(1,0,0,-1,172.34,637.27)"
   id="text48"><tspan
     x="0 7.1999998 14.4"
     y="0"
     id="tspan50"
     style="font-size:12px;font-variant:normal;font-weight:normal;writing-mode:lr-tb;fill:#000000;fill-opacity:1;fill-rule:nonzero;stroke:none;font-family:Courier New;-inkscape-font-specification:Courier New">g()</tspan></text>

</g></g><g
           id="g52"><g
             clip-path="url(#clipPath56)"
             id="g54" /></g><g
           id="g60"><g
             clip-path="url(#clipPath64)"
             id="g62"><text
   transform="matrix(1,0,0,-1,197.3,637.27)"
   id="text68"><tspan
     x="0 6.7080002 13.416 19.416"
     y="0"
     id="tspan70"
     style="font-size:12px;font-variant:normal;font-weight:normal;writing-mode:lr-tb;fill:#000000;fill-opacity:1;fill-rule:nonzero;stroke:none;font-family:Helvetica;-inkscape-font-specification:Helvetica">aus </tspan></text>

</g></g><g
           id="g72"><g
             clip-path="url(#clipPath76)"
             id="g74"><text
   transform="matrix(1,0,0,-1,220.1,637.27)"
   id="text80"><tspan
     x="0"
     y="0"
     id="tspan82"
     style="font-size:12px;font-variant:normal;font-weight:normal;writing-mode:lr-tb;fill:#000000;fill-opacity:1;fill-rule:nonzero;stroke:none;font-family:Courier New;-inkscape-font-specification:Courier New">B</tspan></text>

</g></g><g
           id="g84"><g
             clip-path="url(#clipPath88)"
             id="g86" /></g></g></g><path
       d="m 284.25,588.6 109.5,0 0,42 -109.5,0 0,-42 z"
       inkscape:connector-curvature="0"
       id="path92"
       style="fill:#ffffff;fill-opacity:1;fill-rule:evenodd;stroke:none" /><g
       id="g94"><g
         clip-path="url(#clipPath98)"
         id="g96"><g
           id="g102"><g
             clip-path="url(#clipPath106)"
             id="g104"><text
   transform="matrix(1,0,0,-1,291.53,615.91)"
   id="text110"><tspan
     x="0 8.6639996 15.336 21.336 28.068001 34.776001 41.375999 48.084 50.748001 57.419998 64.043999 70.751999 77.459999 84.059998"
     y="0"
     id="tspan112"
     style="font-size:12px;font-variant:normal;font-weight:normal;writing-mode:lr-tb;fill:#000000;fill-opacity:1;fill-rule:nonzero;stroke:none;font-family:Helvetica;-inkscape-font-specification:Helvetica">Nachbedingung </tspan></text>

</g></g><g
           id="g114"><g
             clip-path="url(#clipPath118)"
             id="g116"><text
   transform="matrix(1,0,0,-1,291.53,602.11)"
   id="text122"><tspan
     x="0 7.1999998 14.4"
     y="0"
     id="tspan124"
     style="font-size:12px;font-variant:normal;font-weight:normal;writing-mode:lr-tb;fill:#000000;fill-opacity:1;fill-rule:nonzero;stroke:none;font-family:Courier New;-inkscape-font-specification:Courier New">g()</tspan></text>

</g></g><g
           id="g126"><g
             clip-path="url(#clipPath130)"
             id="g128" /></g><g
           id="g134"><g
             clip-path="url(#clipPath138)"
             id="g136"><text
   transform="matrix(1,0,0,-1,316.49,602.11)"
   id="text142"><tspan
     x="0 6.7080002 13.416 19.416"
     y="0"
     id="tspan144"
     style="font-size:12px;font-variant:normal;font-weight:normal;writing-mode:lr-tb;fill:#000000;fill-opacity:1;fill-rule:nonzero;stroke:none;font-family:Helvetica;-inkscape-font-specification:Helvetica">aus </tspan></text>

</g></g><g
           id="g146"><g
             clip-path="url(#clipPath150)"
             id="g148"><text
   transform="matrix(1,0,0,-1,339.29,602.11)"
   id="text154"><tspan
     x="0"
     y="0"
     id="tspan156"
     style="font-size:12px;font-variant:normal;font-weight:normal;writing-mode:lr-tb;fill:#000000;fill-opacity:1;fill-rule:nonzero;stroke:none;font-family:Courier New;-inkscape-font-specification:Courier New">A</tspan></text>

</g></g><g
           id="g158"><g
             clip-path="url(#clipPath162)"
             id="g160" /></g></g></g><path
       d="m 231.85,674.81 25.65,54.15 c 0.12,0.25 0.41,0.36 0.66,0.24 0.25,-0.12 0.36,-0.41 0.24,-0.66 l -25.65,-54.15 c -0.12,-0.25 -0.41,-0.36 -0.66,-0.24 -0.25,0.12 -0.36,0.41 -0.24,0.66 z m 2.26,-1.07 c -0.48,-0.99 -1.67,-1.42 -2.67,-0.95 -0.99,0.48 -1.42,1.67 -0.95,2.67 0.48,0.99 1.67,1.42 2.67,0.95 0.99,-0.48 1.42,-1.67 0.95,-2.67 z"
       inkscape:connector-curvature="0"
       id="path166"
       style="fill:#000000;fill-opacity:1;fill-rule:nonzero;stroke:none" /><path
       d="m 326.07,666.3 31.35,54.15 c 0.14,0.24 0.44,0.32 0.68,0.18 0.24,-0.14 0.32,-0.44 0.18,-0.68 L 326.93,665.8 c -0.14,-0.24 -0.44,-0.32 -0.68,-0.18 -0.24,0.14 -0.32,0.44 -0.18,0.68 z m 2.16,-1.25 c -0.55,-0.96 -1.78,-1.28 -2.73,-0.73 -0.96,0.55 -1.28,1.78 -0.73,2.73 0.55,0.96 1.78,1.28 2.73,0.73 0.96,-0.55 1.28,-1.78 0.73,-2.73 z"
       inkscape:connector-curvature="0"
       id="path168"
       style="fill:#000000;fill-opacity:1;fill-rule:nonzero;stroke:none" /><path
       d="m 194.5,715.35 111.6,0 0,69 -111.6,0 0,-69 z"
       inkscape:connector-curvature="0"
       id="path170"
       style="fill:#ffffff;fill-opacity:1;fill-rule:evenodd;stroke:none" /><g
       id="g172"><g
         clip-path="url(#clipPath176)"
         id="g174"><g
           id="g180"><g
             clip-path="url(#clipPath184)"
             id="g182"><text
   transform="matrix(1,0,0,-1,201.74,769.18)"
   id="text188"><tspan
     x="0 7.1999998 14.4"
     y="0"
     id="tspan190"
     style="font-size:12px;font-variant:normal;font-weight:normal;writing-mode:lr-tb;fill:#000000;fill-opacity:1;fill-rule:nonzero;stroke:none;font-family:Courier New;-inkscape-font-specification:Courier New">f()</tspan></text>

</g></g><g
           id="g192"><g
             clip-path="url(#clipPath196)"
             id="g194" /></g><g
           id="g200"><g
             clip-path="url(#clipPath204)"
             id="g202"><text
   transform="matrix(1,0,0,-1,226.7,769.18)"
   id="text208"><tspan
     x="0 6.7080002 10.704 17.375999 24.096001 26.76 30.096001 33.431999 39.335999 46.043999 52.751999"
     y="0"
     id="tspan210"
     style="font-size:12px;font-variant:normal;font-weight:normal;writing-mode:lr-tb;fill:#000000;fill-opacity:1;fill-rule:nonzero;stroke:none;font-family:Helvetica;-inkscape-font-specification:Helvetica">erh채lt von </tspan></text>

</g></g><g
           id="g212"><g
             clip-path="url(#clipPath216)"
             id="g214"><text
   transform="matrix(1,0,0,-1,201.74,754.3)"
   id="text220"><tspan
     x="0 7.1999998 14.4"
     y="0"
     id="tspan222"
     style="font-size:12px;font-variant:normal;font-weight:normal;writing-mode:lr-tb;fill:#000000;fill-opacity:1;fill-rule:nonzero;stroke:none;font-family:Courier New;-inkscape-font-specification:Courier New">g()</tspan></text>

</g></g><g
           id="g224"><g
             clip-path="url(#clipPath228)"
             id="g226" /></g><g
           id="g232"><g
             clip-path="url(#clipPath236)"
             id="g234"><text
   transform="matrix(1,0,0,-1,226.7,754.3)"
   id="text240"><tspan
     x="0 6.7080002 9.3719997 16.044001 22.775999 26.016001 32.723999 39.431999"
     y="0"
     id="tspan242"
     style="font-size:12px;font-variant:normal;font-weight:normal;writing-mode:lr-tb;fill:#000000;fill-opacity:1;fill-rule:nonzero;stroke:none;font-family:Helvetica;-inkscape-font-specification:Helvetica">eine bes</tspan></text>

</g></g><g
           id="g244"><g
             clip-path="url(#clipPath248)"
             id="g246"><text
   transform="matrix(1,0,0,-1,272.06,754.3)"
   id="text252"><tspan
     x="0 6 12.708 16.704 23.375999"
     y="0"
     id="tspan254"
     style="font-size:12px;font-variant:normal;font-weight:normal;writing-mode:lr-tb;fill:#000000;fill-opacity:1;fill-rule:nonzero;stroke:none;font-family:Helvetica;-inkscape-font-specification:Helvetica">sere </tspan></text>

</g></g><g
           id="g256"><g
             clip-path="url(#clipPath260)"
             id="g258"><text
   transform="matrix(1,0,0,-1,201.74,740.02)"
   id="text264"><tspan
     x="0 9.3360004 16.068001 22.775999 25.440001 28.056 31.392 38.124001 41.363998 44.700001 51.431999 54.096001 60.096001"
     y="0"
     id="tspan266"
     style="font-size:12px;font-variant:normal;font-weight:normal;writing-mode:lr-tb;fill:#000000;fill-opacity:1;fill-rule:nonzero;stroke:none;font-family:Helvetica;-inkscape-font-specification:Helvetica">Qualit채t als </tspan></text>

</g></g><g
           id="g268"><g
             clip-path="url(#clipPath272)"
             id="g270"><text
   transform="matrix(1,0,0,-1,201.74,726.22)"
   id="text276"><tspan
     x="0 6.7080002 10.704 19.188 25.896 29.892 33.228001 39.900002"
     y="0"
     id="tspan278"
     style="font-size:12px;font-variant:normal;font-weight:normal;writing-mode:lr-tb;fill:#000000;fill-opacity:1;fill-rule:nonzero;stroke:none;font-family:Helvetica;-inkscape-font-specification:Helvetica">erwartet</tspan></text>

</g></g><g
           id="g280"><g
             clip-path="url(#clipPath284)"
             id="g282"><text
   transform="matrix(1,0,0,-1,245.06,726.22)"
   id="text288"><tspan
     x="0"
     y="0"
     id="tspan290"
     style="font-size:12px;font-variant:normal;font-weight:normal;writing-mode:lr-tb;fill:#000000;fill-opacity:1;fill-rule:nonzero;stroke:none;font-family:Helvetica;-inkscape-font-specification:Helvetica">.</tspan></text>

</g></g><g
           id="g292"><g
             clip-path="url(#clipPath296)"
             id="g294" /></g></g></g><path
       d="m 307.6,708.05 114.75,0 0,79.2 -114.75,0 0,-79.2 z"
       inkscape:connector-curvature="0"
       id="path300"
       style="fill:#ffffff;fill-opacity:1;fill-rule:evenodd;stroke:none" /><g
       id="g302"><g
         clip-path="url(#clipPath306)"
         id="g304"><g
           id="g310"><g
             clip-path="url(#clipPath314)"
             id="g312"><text
   transform="matrix(1,0,0,-1,314.81,772.06)"
   id="text318"><tspan
     x="0 7.1999998 14.4"
     y="0"
     id="tspan320"
     style="font-size:12px;font-variant:normal;font-weight:normal;writing-mode:lr-tb;fill:#000000;fill-opacity:1;fill-rule:nonzero;stroke:none;font-family:Courier New;-inkscape-font-specification:Courier New">f()</tspan></text>

</g></g><g
           id="g322"><g
             clip-path="url(#clipPath326)"
             id="g324" /></g><g
           id="g330"><g
             clip-path="url(#clipPath334)"
             id="g332"><text
   transform="matrix(1,0,0,-1,339.77,772.06)"
   id="text338"><tspan
     x="0 5.8800001 12.588 16.584 19.188 25.896 31.896 37.896 41.231998 44.604 50.604 53.268002 59.268002 65.940002"
     y="0"
     id="tspan340"
     style="font-size:12px;font-variant:normal;font-weight:normal;writing-mode:lr-tb;fill:#000000;fill-opacity:1;fill-rule:nonzero;stroke:none;font-family:Helvetica;-inkscape-font-specification:Helvetica">verl채sst sich </tspan></text>

</g></g><g
           id="g342"><g
             clip-path="url(#clipPath346)"
             id="g344"><text
   transform="matrix(1,0,0,-1,314.81,757.78)"
   id="text350"><tspan
     x="0 6.7080002 13.416 17.412001 24.084 30.695999 34.032001 37.403999 40.740002 47.363998 54.071999 60.071999 66.071999 69.407997 76.031998 82.739998 88.739998"
     y="0"
     id="tspan352"
     style="font-size:12px;font-variant:normal;font-weight:normal;writing-mode:lr-tb;fill:#000000;fill-opacity:1;fill-rule:nonzero;stroke:none;font-family:Helvetica;-inkscape-font-specification:Helvetica">darauf, dass das </tspan></text>

</g></g><g
           id="g354"><g
             clip-path="url(#clipPath358)"
             id="g356"><text
   transform="matrix(1,0,0,-1,314.81,743.5)"
   id="text362"><tspan
     x="0 8.0279999 12.024 18.587999 25.296 32.004002 38.712002 41.375999 47.375999 50.712002 56.591999 63.299999 70.008003"
     y="0"
     id="tspan364"
     style="font-size:12px;font-variant:normal;font-weight:normal;writing-mode:lr-tb;fill:#000000;fill-opacity:1;fill-rule:nonzero;stroke:none;font-family:Helvetica;-inkscape-font-specification:Helvetica">Ergebnis von </tspan></text>

</g></g><g
           id="g366"><g
             clip-path="url(#clipPath370)"
             id="g368"><text
   transform="matrix(1,0,0,-1,388.25,743.5)"
   id="text374"><tspan
     x="0 7.1999998 14.4"
     y="0"
     id="tspan376"
     style="font-size:12px;font-variant:normal;font-weight:normal;writing-mode:lr-tb;fill:#000000;fill-opacity:1;fill-rule:nonzero;stroke:none;font-family:Courier New;-inkscape-font-specification:Courier New">g()</tspan></text>

</g></g><g
           id="g378"><g
             clip-path="url(#clipPath382)"
             id="g380" /></g><g
           id="g386"><g
             clip-path="url(#clipPath390)"
             id="g388"><text
   transform="matrix(1,0,0,-1,314.81,729.1)"
   id="text394"><tspan
     x="0 2.664 9.3360004 12.708 19.416 22.08 28.752001 35.375999 45.444 48.779999 55.403999 62.112 70.632004 73.295998 79.295998 85.295998 91.968002 98.699997"
     y="0"
     id="tspan396"
     style="font-size:12px;font-variant:normal;font-weight:normal;writing-mode:lr-tb;fill:#000000;fill-opacity:1;fill-rule:nonzero;stroke:none;font-family:Helvetica;-inkscape-font-specification:Helvetica">in einem gewissen </tspan></text>

</g></g><g
           id="g398"><g
             clip-path="url(#clipPath402)"
             id="g400"><text
   transform="matrix(1,0,0,-1,314.81,715.3)"
   id="text406"><tspan
     x="0 8.0279999 14.736 18.732 25.403999 28.068001 34.068001 40.764 44.099998 46.764 49.428001 56.099998 62.723999"
     y="0"
     id="tspan408"
     style="font-size:12px;font-variant:normal;font-weight:normal;writing-mode:lr-tb;fill:#000000;fill-opacity:1;fill-rule:nonzero;stroke:none;font-family:Helvetica;-inkscape-font-specification:Helvetica">Bereich liegt</tspan></text>

</g></g><g
           id="g410"><g
             clip-path="url(#clipPath414)"
             id="g412"><text
   transform="matrix(1,0,0,-1,380.93,715.3)"
   id="text418"><tspan
     x="0"
     y="0"
     id="tspan420"
     style="font-size:12px;font-variant:normal;font-weight:normal;writing-mode:lr-tb;fill:#000000;fill-opacity:1;fill-rule:nonzero;stroke:none;font-family:Helvetica;-inkscape-font-specification:Helvetica">.</tspan></text>

</g></g><g
           id="g422"><g
             clip-path="url(#clipPath426)"
             id="g424" /></g></g></g></g></svg>