<?xml version="1.0" encoding="UTF-8" standalone="no"?>
<!-- Created with Inkscape (http://www.inkscape.org/) -->

<svg
   xmlns:dc="http://purl.org/dc/elements/1.1/"
   xmlns:cc="http://creativecommons.org/ns#"
   xmlns:rdf="http://www.w3.org/1999/02/22-rdf-syntax-ns#"
   xmlns:svg="http://www.w3.org/2000/svg"
   xmlns="http://www.w3.org/2000/svg"
   xmlns:sodipodi="http://sodipodi.sourceforge.net/DTD/sodipodi-0.dtd"
   xmlns:inkscape="http://www.inkscape.org/namespaces/inkscape"
   version="1.1"
   width="546"
   height="393.1875"
   id="svg2"
   xml:space="preserve"
   inkscape:version="0.48.4 r9939"
   sodipodi:docname="Bild 1-5 Einteilung der Vögel in unterschiedliche Gruppen.svg"><sodipodi:namedview
     pagecolor="#ffffff"
     bordercolor="#666666"
     borderopacity="1"
     objecttolerance="10"
     gridtolerance="10"
     guidetolerance="10"
     inkscape:pageopacity="0"
     inkscape:pageshadow="2"
     inkscape:window-width="640"
     inkscape:window-height="480"
     id="namedview350"
     showgrid="false"
     inkscape:zoom="0.18730159"
     inkscape:cx="533.21875"
     inkscape:cy="47.28125"
     inkscape:window-x="0"
     inkscape:window-y="0"
     inkscape:window-maximized="0"
     inkscape:current-layer="svg2" /><metadata
     id="metadata8"><rdf:RDF><cc:Work
         rdf:about=""><dc:format>image/svg+xml</dc:format><dc:type
           rdf:resource="http://purl.org/dc/dcmitype/StillImage" /></cc:Work></rdf:RDF></metadata><defs
     id="defs6"><clipPath
       id="clipPath18"><path
         d="m 308.69,588.43 134.88,0 0,51.24 -134.88,0 0,-51.24 z"
         inkscape:connector-curvature="0"
         id="path20" /></clipPath><clipPath
       id="clipPath26"><path
         d="m 308.69,588.43 134.88,0 0,51.24 -134.88,0 0,-51.24 z"
         inkscape:connector-curvature="0"
         id="path28" /></clipPath><clipPath
       id="clipPath38"><path
         d="m 308.69,588.43 134.88,0 0,51.24 -134.88,0 0,-51.24 z"
         inkscape:connector-curvature="0"
         id="path40" /></clipPath><clipPath
       id="clipPath50"><path
         d="m 308.69,588.43 134.88,0 0,51.24 -134.88,0 0,-51.24 z"
         inkscape:connector-curvature="0"
         id="path52" /></clipPath><clipPath
       id="clipPath58"><path
         d="m 308.69,588.43 134.88,0 0,51.24 -134.88,0 0,-51.24 z"
         inkscape:connector-curvature="0"
         id="path60" /></clipPath><clipPath
       id="clipPath66"><path
         d="m 308.69,588.43 134.88,0 0,51.24 -134.88,0 0,-51.24 z"
         inkscape:connector-curvature="0"
         id="path68" /></clipPath><clipPath
       id="clipPath74"><path
         d="m 308.69,588.43 134.88,0 0,51.24 -134.88,0 0,-51.24 z"
         inkscape:connector-curvature="0"
         id="path76" /></clipPath><clipPath
       id="clipPath86"><path
         d="m 308.69,588.43 134.88,0 0,51.24 -134.88,0 0,-51.24 z"
         inkscape:connector-curvature="0"
         id="path88" /></clipPath><clipPath
       id="clipPath98"><path
         d="m 308.69,588.43 134.88,0 0,51.24 -134.88,0 0,-51.24 z"
         inkscape:connector-curvature="0"
         id="path100" /></clipPath><clipPath
       id="clipPath110"><path
         d="m 308.69,588.43 134.88,0 0,51.24 -134.88,0 0,-51.24 z"
         inkscape:connector-curvature="0"
         id="path112" /></clipPath><clipPath
       id="clipPath118"><path
         d="m 308.69,588.43 134.88,0 0,51.24 -134.88,0 0,-51.24 z"
         inkscape:connector-curvature="0"
         id="path120" /></clipPath><clipPath
       id="clipPath130"><path
         d="m 308.69,588.43 134.88,0 0,51.24 -134.88,0 0,-51.24 z"
         inkscape:connector-curvature="0"
         id="path132" /></clipPath><clipPath
       id="clipPath142"><path
         d="m 308.69,588.43 134.88,0 0,51.24 -134.88,0 0,-51.24 z"
         inkscape:connector-curvature="0"
         id="path144" /></clipPath><clipPath
       id="clipPath154"><path
         d="m 308.69,588.43 134.88,0 0,51.24 -134.88,0 0,-51.24 z"
         inkscape:connector-curvature="0"
         id="path156" /></clipPath><clipPath
       id="clipPath166"><path
         d="m 237.39,470.47 135.02,0 0,46.32 -135.02,0 0,-46.32 z"
         inkscape:connector-curvature="0"
         id="path168" /></clipPath><clipPath
       id="clipPath174"><path
         d="m 237.38,470.47 135.02,0 0,46.32 -135.02,0 0,-46.32 z"
         inkscape:connector-curvature="0"
         id="path176" /></clipPath><clipPath
       id="clipPath186"><path
         d="m 237.38,470.47 135.02,0 0,46.32 -135.02,0 0,-46.32 z"
         inkscape:connector-curvature="0"
         id="path188" /></clipPath><clipPath
       id="clipPath194"><path
         d="m 237.38,470.47 135.02,0 0,46.32 -135.02,0 0,-46.32 z"
         inkscape:connector-curvature="0"
         id="path196" /></clipPath><clipPath
       id="clipPath202"><path
         d="m 237.38,470.47 135.02,0 0,46.32 -135.02,0 0,-46.32 z"
         inkscape:connector-curvature="0"
         id="path204" /></clipPath><clipPath
       id="clipPath214"><path
         d="m 237.38,470.47 135.02,0 0,46.32 -135.02,0 0,-46.32 z"
         inkscape:connector-curvature="0"
         id="path216" /></clipPath><clipPath
       id="clipPath226"><path
         d="m 237.38,470.47 135.02,0 0,46.32 -135.02,0 0,-46.32 z"
         inkscape:connector-curvature="0"
         id="path228" /></clipPath><clipPath
       id="clipPath238"><path
         d="m 237.38,470.47 135.02,0 0,46.32 -135.02,0 0,-46.32 z"
         inkscape:connector-curvature="0"
         id="path240" /></clipPath><clipPath
       id="clipPath246"><path
         d="m 237.38,470.47 135.02,0 0,46.32 -135.02,0 0,-46.32 z"
         inkscape:connector-curvature="0"
         id="path248" /></clipPath><clipPath
       id="clipPath258"><path
         d="m 237.38,470.47 135.02,0 0,46.32 -135.02,0 0,-46.32 z"
         inkscape:connector-curvature="0"
         id="path260" /></clipPath><clipPath
       id="clipPath288"><path
         d="m 84.121,470.47 130.71,0 0,46.32 -130.71,0 0,-46.32 z"
         inkscape:connector-curvature="0"
         id="path290" /></clipPath><clipPath
       id="clipPath296"><path
         d="m 84.12,470.47 130.7,0 0,46.32 -130.7,0 0,-46.32 z"
         inkscape:connector-curvature="0"
         id="path298" /></clipPath><clipPath
       id="clipPath308"><path
         d="m 84.12,470.47 130.7,0 0,46.32 -130.7,0 0,-46.32 z"
         inkscape:connector-curvature="0"
         id="path310" /></clipPath><clipPath
       id="clipPath316"><path
         d="m 84.12,470.47 130.7,0 0,46.32 -130.7,0 0,-46.32 z"
         inkscape:connector-curvature="0"
         id="path318" /></clipPath><clipPath
       id="clipPath324"><path
         d="m 84.12,470.47 130.7,0 0,46.32 -130.7,0 0,-46.32 z"
         inkscape:connector-curvature="0"
         id="path326" /></clipPath><clipPath
       id="clipPath336"><path
         d="m 84.12,470.47 130.7,0 0,46.32 -130.7,0 0,-46.32 z"
         inkscape:connector-curvature="0"
         id="path338" /></clipPath><clipPath
       id="clipPath348"><path
         d="m 84.12,470.47 130.7,0 0,46.32 -130.7,0 0,-46.32 z"
         inkscape:connector-curvature="0"
         id="path350" /></clipPath><clipPath
       id="clipPath360"><path
         d="m 84.12,470.47 130.7,0 0,46.32 -130.7,0 0,-46.32 z"
         inkscape:connector-curvature="0"
         id="path362" /></clipPath><clipPath
       id="clipPath368"><path
         d="m 84.12,470.47 130.7,0 0,46.32 -130.7,0 0,-46.32 z"
         inkscape:connector-curvature="0"
         id="path370" /></clipPath><clipPath
       id="clipPath380"><path
         d="m 84.12,470.47 130.7,0 0,46.32 -130.7,0 0,-46.32 z"
         inkscape:connector-curvature="0"
         id="path382" /></clipPath><clipPath
       id="clipPath388"><path
         d="m 84.12,470.47 130.7,0 0,46.32 -130.7,0 0,-46.32 z"
         inkscape:connector-curvature="0"
         id="path390" /></clipPath><clipPath
       id="clipPath400"><path
         d="m 201.51,725.13 135.02,0 0,51.24 -135.02,0 0,-51.24 z"
         inkscape:connector-curvature="0"
         id="path402" /></clipPath><clipPath
       id="clipPath408"><path
         d="m 201.5,725.14 135.02,0 0,51.24 -135.02,0 0,-51.24 z"
         inkscape:connector-curvature="0"
         id="path410" /></clipPath><clipPath
       id="clipPath420"><path
         d="m 201.5,725.14 135.02,0 0,51.24 -135.02,0 0,-51.24 z"
         inkscape:connector-curvature="0"
         id="path422" /></clipPath><clipPath
       id="clipPath428"><path
         d="m 201.5,725.14 135.02,0 0,51.24 -135.02,0 0,-51.24 z"
         inkscape:connector-curvature="0"
         id="path430" /></clipPath><clipPath
       id="clipPath436"><path
         d="m 201.5,725.14 135.02,0 0,51.24 -135.02,0 0,-51.24 z"
         inkscape:connector-curvature="0"
         id="path438" /></clipPath><clipPath
       id="clipPath444"><path
         d="m 201.5,725.14 135.02,0 0,51.24 -135.02,0 0,-51.24 z"
         inkscape:connector-curvature="0"
         id="path446" /></clipPath><clipPath
       id="clipPath456"><path
         d="m 201.5,725.14 135.02,0 0,51.24 -135.02,0 0,-51.24 z"
         inkscape:connector-curvature="0"
         id="path458" /></clipPath><clipPath
       id="clipPath472"><path
         d="m 78.481,587.59 148.23,0 0,51.12 -148.23,0 0,-51.12 z"
         inkscape:connector-curvature="0"
         id="path474" /></clipPath><clipPath
       id="clipPath480"><path
         d="m 78.48,587.59 148.22,0 0,51.12 -148.22,0 0,-51.12 z"
         inkscape:connector-curvature="0"
         id="path482" /></clipPath><clipPath
       id="clipPath492"><path
         d="m 78.48,587.59 148.22,0 0,51.12 -148.22,0 0,-51.12 z"
         inkscape:connector-curvature="0"
         id="path494" /></clipPath><clipPath
       id="clipPath504"><path
         d="m 78.48,587.59 148.22,0 0,51.12 -148.22,0 0,-51.12 z"
         inkscape:connector-curvature="0"
         id="path506" /></clipPath><clipPath
       id="clipPath512"><path
         d="m 78.48,587.59 148.22,0 0,51.12 -148.22,0 0,-51.12 z"
         inkscape:connector-curvature="0"
         id="path514" /></clipPath><clipPath
       id="clipPath520"><path
         d="m 78.48,587.59 148.22,0 0,51.12 -148.22,0 0,-51.12 z"
         inkscape:connector-curvature="0"
         id="path522" /></clipPath><clipPath
       id="clipPath528"><path
         d="m 78.48,587.59 148.22,0 0,51.12 -148.22,0 0,-51.12 z"
         inkscape:connector-curvature="0"
         id="path530" /></clipPath><clipPath
       id="clipPath540"><path
         d="m 78.48,587.59 148.22,0 0,51.12 -148.22,0 0,-51.12 z"
         inkscape:connector-curvature="0"
         id="path542" /></clipPath><clipPath
       id="clipPath554"><path
         d="m 378.89,470.47 134.91,0 0,46.32 -134.91,0 0,-46.32 z"
         inkscape:connector-curvature="0"
         id="path556" /></clipPath><clipPath
       id="clipPath562"><path
         d="m 378.89,470.47 134.9,0 0,46.32 -134.9,0 0,-46.32 z"
         inkscape:connector-curvature="0"
         id="path564" /></clipPath><clipPath
       id="clipPath574"><path
         d="m 378.89,470.47 134.9,0 0,46.32 -134.9,0 0,-46.32 z"
         inkscape:connector-curvature="0"
         id="path576" /></clipPath><clipPath
       id="clipPath582"><path
         d="m 378.89,470.47 134.9,0 0,46.32 -134.9,0 0,-46.32 z"
         inkscape:connector-curvature="0"
         id="path584" /></clipPath><clipPath
       id="clipPath590"><path
         d="m 378.89,470.47 134.9,0 0,46.32 -134.9,0 0,-46.32 z"
         inkscape:connector-curvature="0"
         id="path592" /></clipPath><clipPath
       id="clipPath602"><path
         d="m 378.89,470.47 134.9,0 0,46.32 -134.9,0 0,-46.32 z"
         inkscape:connector-curvature="0"
         id="path604" /></clipPath><clipPath
       id="clipPath614"><path
         d="m 378.89,470.47 134.9,0 0,46.32 -134.9,0 0,-46.32 z"
         inkscape:connector-curvature="0"
         id="path616" /></clipPath><clipPath
       id="clipPath626"><path
         d="m 378.89,470.47 134.9,0 0,46.32 -134.9,0 0,-46.32 z"
         inkscape:connector-curvature="0"
         id="path628" /></clipPath><clipPath
       id="clipPath634"><path
         d="m 378.89,470.47 134.9,0 0,46.32 -134.9,0 0,-46.32 z"
         inkscape:connector-curvature="0"
         id="path636" /></clipPath><clipPath
       id="clipPath646"><path
         d="m 378.89,470.47 134.9,0 0,46.32 -134.9,0 0,-46.32 z"
         inkscape:connector-curvature="0"
         id="path648" /></clipPath><clipPath
       id="clipPath658"><path
         d="m 378.89,470.47 134.9,0 0,46.32 -134.9,0 0,-46.32 z"
         inkscape:connector-curvature="0"
         id="path660" /></clipPath><clipPath
       id="clipPath670"><path
         d="m 378.89,470.47 134.9,0 0,46.32 -134.9,0 0,-46.32 z"
         inkscape:connector-curvature="0"
         id="path672" /></clipPath><clipPath
       id="clipPath682"><path
         d="m 378.89,470.47 134.9,0 0,46.32 -134.9,0 0,-46.32 z"
         inkscape:connector-curvature="0"
         id="path684" /></clipPath></defs><g
     transform="matrix(1.25,0,0,-1.25,-97.15625,975.90625)"
     id="g10"><path
       d="m 308.2,584.5 135.75,0 0,59.2 -135.75,0 0,-59.2 z"
       inkscape:connector-curvature="0"
       id="path12"
       style="fill:none;stroke:#000000;stroke-width:0.75;stroke-linecap:round;stroke-linejoin:miter;stroke-miterlimit:10;stroke-opacity:1;stroke-dasharray:none" /><g
       id="g14"><g
         clip-path="url(#clipPath18)"
         id="g16"><g
           id="g22"><g
             clip-path="url(#clipPath26)"
             id="g24"><text
   transform="matrix(1,0,0,-1,326.09,628.63)"
   id="text30"><tspan
     x="0 7.3319998 10.668 14.004 20.747999 28.08 34.751999 42.084 49.416 56.136002 60.695999"
     y="0"
     id="tspan32"
     style="font-size:12px;font-style:oblique;font-variant:normal;font-weight:bold;writing-mode:lr-tb;fill:#000000;fill-opacity:1;fill-rule:nonzero;stroke:none;font-family:Helvetica;-inkscape-font-specification:Helvetica-BoldOblique">Fliegender_</tspan></text>

</g></g><g
           id="g34"><g
             clip-path="url(#clipPath38)"
             id="g36"><text
   transform="matrix(1,0,0,-1,393.53,628.63)"
   id="text42"><tspan
     x="0 8.0279999 15.36 22.691999 29.364"
     y="0"
     id="tspan44"
     style="font-size:12px;font-style:oblique;font-variant:normal;font-weight:bold;writing-mode:lr-tb;fill:#000000;fill-opacity:1;fill-rule:nonzero;stroke:none;font-family:Helvetica;-inkscape-font-specification:Helvetica-BoldOblique">Vogel</tspan></text>

</g></g><g
           id="g46"><g
             clip-path="url(#clipPath50)"
             id="g48" /></g><g
           id="g54"><g
             clip-path="url(#clipPath58)"
             id="g56" /></g><g
           id="g62"><g
             clip-path="url(#clipPath66)"
             id="g64" /></g><g
           id="g70"><g
             clip-path="url(#clipPath74)"
             id="g72"><text
   transform="matrix(1,0,0,-1,315.89,605.59)"
   id="text78"><tspan
     x="0 6.96"
     y="0"
     id="tspan80"
     style="font-size:12px;font-variant:normal;font-weight:normal;writing-mode:lr-tb;fill:#000000;fill-opacity:1;fill-rule:nonzero;stroke:none;font-family:Helvetica;-inkscape-font-specification:Helvetica">+ </tspan></text>

</g></g><g
           id="g82"><g
             clip-path="url(#clipPath86)"
             id="g84"><text
   transform="matrix(1,0,0,-1,326.21,605.59)"
   id="text90"><tspan
     x="0 6.7080002 12.708 18.708 25.416"
     y="0"
     id="tspan92"
     style="font-size:12px;font-variant:normal;font-weight:normal;writing-mode:lr-tb;fill:#000000;fill-opacity:1;fill-rule:nonzero;stroke:none;font-family:Helvetica;-inkscape-font-specification:Helvetica">essen</tspan></text>

</g></g><g
           id="g94"><g
             clip-path="url(#clipPath98)"
             id="g96"><text
   transform="matrix(1,0,0,-1,358.37,605.59)"
   id="text102"><tspan
     x="0 3.9960001 7.9200001 11.256 14.628 17.964001 23.868 30.576 33.240002"
     y="0"
     id="tspan104"
     style="font-size:12px;font-variant:normal;font-weight:normal;writing-mode:lr-tb;fill:#000000;fill-opacity:1;fill-rule:nonzero;stroke:none;font-family:Helvetica;-inkscape-font-specification:Helvetica">() : void</tspan></text>

</g></g><g
           id="g106"><g
             clip-path="url(#clipPath110)"
             id="g108" /></g><g
           id="g114"><g
             clip-path="url(#clipPath118)"
             id="g116"><text
   transform="matrix(1,0,0,-1,315.89,591.67)"
   id="text122"><tspan
     x="0 6.96"
     y="0"
     id="tspan124"
     style="font-size:12px;font-variant:normal;font-weight:normal;writing-mode:lr-tb;fill:#000000;fill-opacity:1;fill-rule:nonzero;stroke:none;font-family:Helvetica;-inkscape-font-specification:Helvetica">+ </tspan></text>

</g></g><g
           id="g126"><g
             clip-path="url(#clipPath130)"
             id="g128"><text
   transform="matrix(1,0,0,-1,326.21,591.67)"
   id="text134"><tspan
     x="0 3.4679999 6.132 8.7480001 15.456 22.056 28.764"
     y="0"
     id="tspan136"
     style="font-size:12px;font-variant:normal;font-weight:normal;writing-mode:lr-tb;fill:#000000;fill-opacity:1;fill-rule:nonzero;stroke:none;font-family:Helvetica;-inkscape-font-specification:Helvetica">fliegen</tspan></text>

</g></g><g
           id="g138"><g
             clip-path="url(#clipPath142)"
             id="g140"><text
   transform="matrix(1,0,0,-1,361.73,591.67)"
   id="text146"><tspan
     x="0 3.9960001 7.9200001 11.256 14.628 17.964001 23.868 30.576 33.240002"
     y="0"
     id="tspan148"
     style="font-size:12px;font-variant:normal;font-weight:normal;writing-mode:lr-tb;fill:#000000;fill-opacity:1;fill-rule:nonzero;stroke:none;font-family:Helvetica;-inkscape-font-specification:Helvetica">() : void</tspan></text>

</g></g><g
           id="g150"><g
             clip-path="url(#clipPath154)"
             id="g152" /></g></g></g><path
       d="m 308.2,619.8 135.75,0.05"
       inkscape:connector-curvature="0"
       id="path158"
       style="fill:none;stroke:#000000;stroke-width:0.75;stroke-linecap:round;stroke-linejoin:round;stroke-miterlimit:10;stroke-opacity:1;stroke-dasharray:none" /><path
       d="m 236.95,466.55 135.75,0 0,54.35 -135.75,0 0,-54.35 z"
       inkscape:connector-curvature="0"
       id="path160"
       style="fill:none;stroke:#000000;stroke-width:0.75;stroke-linecap:round;stroke-linejoin:miter;stroke-miterlimit:8;stroke-opacity:1;stroke-dasharray:none" /><g
       id="g162"><g
         clip-path="url(#clipPath166)"
         id="g164"><g
           id="g170"><g
             clip-path="url(#clipPath174)"
             id="g172"><text
   transform="matrix(1,0,0,-1,285.89,505.75)"
   id="text178"><tspan
     x="0 8.0279999 12.024 19.308001 23.976 30.695999"
     y="0"
     id="tspan180"
     style="font-size:12px;font-variant:normal;font-weight:bold;writing-mode:lr-tb;fill:#000000;fill-opacity:1;fill-rule:nonzero;stroke:none;font-family:Helvetica;-inkscape-font-specification:Helvetica-Bold">Storch</tspan></text>

</g></g><g
           id="g182"><g
             clip-path="url(#clipPath186)"
             id="g184" /></g><g
           id="g190"><g
             clip-path="url(#clipPath194)"
             id="g192" /></g><g
           id="g198"><g
             clip-path="url(#clipPath202)"
             id="g200"><text
   transform="matrix(1,0,0,-1,244.58,489.67)"
   id="text206"><tspan
     x="0 6.96"
     y="0"
     id="tspan208"
     style="font-size:12px;font-variant:normal;font-weight:normal;writing-mode:lr-tb;fill:#000000;fill-opacity:1;fill-rule:nonzero;stroke:none;font-family:Helvetica;-inkscape-font-specification:Helvetica">+ </tspan></text>

</g></g><g
           id="g210"><g
             clip-path="url(#clipPath214)"
             id="g212"><text
   transform="matrix(1,0,0,-1,254.9,489.67)"
   id="text218"><tspan
     x="0 6.7080002 12.708 18.708 25.416"
     y="0"
     id="tspan220"
     style="font-size:12px;font-variant:normal;font-weight:normal;writing-mode:lr-tb;fill:#000000;fill-opacity:1;fill-rule:nonzero;stroke:none;font-family:Helvetica;-inkscape-font-specification:Helvetica">essen</tspan></text>

</g></g><g
           id="g222"><g
             clip-path="url(#clipPath226)"
             id="g224"><text
   transform="matrix(1,0,0,-1,287.09,489.67)"
   id="text230"><tspan
     x="0 3.9960001 7.9200001 11.256 14.628 17.964001 23.868 30.576 33.240002"
     y="0"
     id="tspan232"
     style="font-size:12px;font-variant:normal;font-weight:normal;writing-mode:lr-tb;fill:#000000;fill-opacity:1;fill-rule:nonzero;stroke:none;font-family:Helvetica;-inkscape-font-specification:Helvetica">() : void</tspan></text>

</g></g><g
           id="g234"><g
             clip-path="url(#clipPath238)"
             id="g236" /></g><g
           id="g242"><g
             clip-path="url(#clipPath246)"
             id="g244"><text
   transform="matrix(1,0,0,-1,244.58,475.75)"
   id="text250"><tspan
     x="0 6.96 10.296 13.788 16.452 19.068001 25.775999 32.375999 39.084 45.792 49.787998 53.712002 57.048 60.419998 63.756001 69.660004 76.367996 79.031998"
     y="0"
     id="tspan252"
     style="font-size:12px;font-variant:normal;font-weight:normal;writing-mode:lr-tb;fill:#000000;fill-opacity:1;fill-rule:nonzero;stroke:none;font-family:Helvetica;-inkscape-font-specification:Helvetica">+ fliegen() : void</tspan></text>

</g></g><g
           id="g254"><g
             clip-path="url(#clipPath258)"
             id="g256" /></g></g></g><path
       d="m 236.95,502.1 135.75,0"
       inkscape:connector-curvature="0"
       id="path262"
       style="fill:none;stroke:#000000;stroke-width:0.75;stroke-linecap:round;stroke-linejoin:round;stroke-miterlimit:8;stroke-opacity:1;stroke-dasharray:none" /><path
       d="m 401.57,584.5 -12.37,-15 24.75,0 -12.38,15 z"
       inkscape:connector-curvature="0"
       id="path264"
       style="fill:#ffffff;fill-opacity:1;fill-rule:evenodd;stroke:none" /><path
       d="m 401.57,584.5 -12.37,-15 24.75,0 -12.38,15 z"
       inkscape:connector-curvature="0"
       id="path266"
       style="fill:none;stroke:#000000;stroke-width:0.75;stroke-linecap:round;stroke-linejoin:round;stroke-miterlimit:8;stroke-opacity:1;stroke-dasharray:none" /><path
       d="m 296.23,721.15 -12.38,-15 24.75,0 -12.37,15 z"
       inkscape:connector-curvature="0"
       id="path268"
       style="fill:#ffffff;fill-opacity:1;fill-rule:evenodd;stroke:none" /><path
       d="m 296.23,721.15 -12.38,-15 24.75,0 -12.37,15 z"
       inkscape:connector-curvature="0"
       id="path270"
       style="fill:none;stroke:#000000;stroke-width:0.75;stroke-linecap:round;stroke-linejoin:round;stroke-miterlimit:8;stroke-opacity:1;stroke-dasharray:none" /><path
       d="m 243.02,721.15 -12.37,-15 24.75,0 -12.38,15 z"
       inkscape:connector-curvature="0"
       id="path272"
       style="fill:#ffffff;fill-opacity:1;fill-rule:evenodd;stroke:none" /><path
       d="m 243.02,721.15 -12.37,-15 24.75,0 -12.38,15 z"
       inkscape:connector-curvature="0"
       id="path274"
       style="fill:none;stroke:#000000;stroke-width:0.75;stroke-linecap:round;stroke-linejoin:round;stroke-miterlimit:8;stroke-opacity:1;stroke-dasharray:none" /><path
       d="m 296.85,706.15 -0.7,0 0,-41.45 79.7,0"
       inkscape:connector-curvature="0"
       id="path276"
       style="fill:none;stroke:#000000;stroke-width:0.75;stroke-linecap:round;stroke-linejoin:round;stroke-miterlimit:8;stroke-opacity:1;stroke-dasharray:none" /><path
       d="m 375.85,664.7 0,-21"
       inkscape:connector-curvature="0"
       id="path278"
       style="fill:none;stroke:#000000;stroke-width:0.75;stroke-linecap:round;stroke-linejoin:round;stroke-miterlimit:8;stroke-opacity:1;stroke-dasharray:none" /><path
       d="m 401.45,569.5 0,-48.6"
       inkscape:connector-curvature="0"
       id="path280"
       style="fill:none;stroke:#000000;stroke-width:0.75;stroke-linecap:round;stroke-linejoin:round;stroke-miterlimit:8;stroke-opacity:1;stroke-dasharray:none" /><path
       d="m 83.7,466.55 131.45,0 0,54.35 -131.45,0 0,-54.35 z"
       inkscape:connector-curvature="0"
       id="path282"
       style="fill:none;stroke:#000000;stroke-width:0.75;stroke-linecap:round;stroke-linejoin:miter;stroke-miterlimit:8;stroke-opacity:1;stroke-dasharray:none" /><g
       id="g284"><g
         clip-path="url(#clipPath288)"
         id="g286"><g
           id="g292"><g
             clip-path="url(#clipPath296)"
             id="g294"><text
   transform="matrix(1,0,0,-1,127.46,505.75)"
   id="text300"><tspan
     x="0 8.0279999 11.364 18.695999 26.028 33.360001 36.695999"
     y="0"
     id="tspan302"
     style="font-size:12px;font-variant:normal;font-weight:bold;writing-mode:lr-tb;fill:#000000;fill-opacity:1;fill-rule:nonzero;stroke:none;font-family:Helvetica;-inkscape-font-specification:Helvetica-Bold">Pinguin</tspan></text>

</g></g><g
           id="g304"><g
             clip-path="url(#clipPath308)"
             id="g306" /></g><g
           id="g312"><g
             clip-path="url(#clipPath316)"
             id="g314" /></g><g
           id="g320"><g
             clip-path="url(#clipPath324)"
             id="g322"><text
   transform="matrix(1,0,0,-1,91.32,489.67)"
   id="text328"><tspan
     x="0 6.96"
     y="0"
     id="tspan330"
     style="font-size:12px;font-variant:normal;font-weight:normal;writing-mode:lr-tb;fill:#000000;fill-opacity:1;fill-rule:nonzero;stroke:none;font-family:Helvetica;-inkscape-font-specification:Helvetica">+ </tspan></text>

</g></g><g
           id="g332"><g
             clip-path="url(#clipPath336)"
             id="g334"><text
   transform="matrix(1,0,0,-1,101.66,489.67)"
   id="text340"><tspan
     x="0 6.7080002 12.708 18.708 25.416"
     y="0"
     id="tspan342"
     style="font-size:12px;font-variant:normal;font-weight:normal;writing-mode:lr-tb;fill:#000000;fill-opacity:1;fill-rule:nonzero;stroke:none;font-family:Helvetica;-inkscape-font-specification:Helvetica">essen</tspan></text>

</g></g><g
           id="g344"><g
             clip-path="url(#clipPath348)"
             id="g346"><text
   transform="matrix(1,0,0,-1,133.82,489.67)"
   id="text352"><tspan
     x="0 3.96"
     y="0"
     id="tspan354"
     style="font-size:12px;font-variant:normal;font-weight:normal;writing-mode:lr-tb;fill:#000000;fill-opacity:1;fill-rule:nonzero;stroke:none;font-family:Helvetica;-inkscape-font-specification:Helvetica">()</tspan></text>

</g></g><g
           id="g356"><g
             clip-path="url(#clipPath360)"
             id="g358" /></g><g
           id="g364"><g
             clip-path="url(#clipPath368)"
             id="g366"><text
   transform="matrix(1,0,0,-1,145.1,489.67)"
   id="text372"><tspan
     x="0 3.336 6.7080002 12.588 19.296 21.959999"
     y="0"
     id="tspan374"
     style="font-size:12px;font-variant:normal;font-weight:normal;writing-mode:lr-tb;fill:#000000;fill-opacity:1;fill-rule:nonzero;stroke:none;font-family:Helvetica;-inkscape-font-specification:Helvetica">: void</tspan></text>

</g></g><g
           id="g376"><g
             clip-path="url(#clipPath380)"
             id="g378" /></g><g
           id="g384"><g
             clip-path="url(#clipPath388)"
             id="g386" /></g></g></g><path
       d="m 83.7,501.95 131.45,0.15"
       inkscape:connector-curvature="0"
       id="path392"
       style="fill:none;stroke:#000000;stroke-width:0.75;stroke-linecap:round;stroke-linejoin:round;stroke-miterlimit:8;stroke-opacity:1;stroke-dasharray:none" /><path
       d="m 201.1,721.15 135.75,0 0,59.2 -135.75,0 0,-59.2 z"
       inkscape:connector-curvature="0"
       id="path394"
       style="fill:none;stroke:#000000;stroke-width:0.75;stroke-linecap:round;stroke-linejoin:miter;stroke-miterlimit:8;stroke-opacity:1;stroke-dasharray:none" /><g
       id="g396"><g
         clip-path="url(#clipPath400)"
         id="g398"><g
           id="g404"><g
             clip-path="url(#clipPath408)"
             id="g406"><text
   transform="matrix(1,0,0,-1,252.62,765.34)"
   id="text412"><tspan
     x="0 8.0279999 15.36 22.691999 29.364"
     y="0"
     id="tspan414"
     style="font-size:12px;font-style:oblique;font-variant:normal;font-weight:bold;writing-mode:lr-tb;fill:#000000;fill-opacity:1;fill-rule:nonzero;stroke:none;font-family:Helvetica;-inkscape-font-specification:Helvetica-BoldOblique">Vogel</tspan></text>

</g></g><g
           id="g416"><g
             clip-path="url(#clipPath420)"
             id="g418" /></g><g
           id="g424"><g
             clip-path="url(#clipPath428)"
             id="g426" /></g><g
           id="g432"><g
             clip-path="url(#clipPath436)"
             id="g434" /></g><g
           id="g440"><g
             clip-path="url(#clipPath444)"
             id="g442"><text
   transform="matrix(1,0,0,-1,208.7,742.18)"
   id="text448"><tspan
     x="0 6.96 10.296 17.028 23.028 29.028 35.736 42.444 46.439999 50.363998 53.700001 57.071999 60.408001 66.311996 73.019997 75.683998"
     y="0"
     id="tspan450"
     style="font-size:12px;font-variant:normal;font-weight:normal;writing-mode:lr-tb;fill:#000000;fill-opacity:1;fill-rule:nonzero;stroke:none;font-family:Helvetica;-inkscape-font-specification:Helvetica">+ essen() : void</tspan></text>

</g></g><g
           id="g452"><g
             clip-path="url(#clipPath456)"
             id="g454" /></g></g></g><path
       d="m 243.3,706.1 0.05,-41.45"
       inkscape:connector-curvature="0"
       id="path460"
       style="fill:none;stroke:#000000;stroke-width:0.75;stroke-linecap:round;stroke-linejoin:round;stroke-miterlimit:8;stroke-opacity:1;stroke-dasharray:none" /><path
       d="m 243.35,664.7 -61.8,-0.1"
       inkscape:connector-curvature="0"
       id="path462"
       style="fill:none;stroke:#000000;stroke-width:0.75;stroke-linecap:round;stroke-linejoin:round;stroke-miterlimit:8;stroke-opacity:1;stroke-dasharray:none" /><path
       d="m 181.55,664.65 0,-20.95"
       inkscape:connector-curvature="0"
       id="path464"
       style="fill:none;stroke:#000000;stroke-width:0.75;stroke-linecap:round;stroke-linejoin:round;stroke-miterlimit:8;stroke-opacity:1;stroke-dasharray:none" /><path
       d="m 78.1,583.6 148.95,0 0,59.2 -148.95,0 0,-59.2 z"
       inkscape:connector-curvature="0"
       id="path466"
       style="fill:none;stroke:#000000;stroke-width:0.75;stroke-linecap:round;stroke-linejoin:miter;stroke-miterlimit:8;stroke-opacity:1;stroke-dasharray:none" /><g
       id="g468"><g
         clip-path="url(#clipPath472)"
         id="g470"><g
           id="g476"><g
             clip-path="url(#clipPath480)"
             id="g478"><text
   transform="matrix(1,0,0,-1,89.52,627.67)"
   id="text484"><tspan
     x="0 7.3319998 10.668 18 25.332001 32.664001 39.995998 43.919998 50.627998 57.335999 64.667999 68.003998 75.335999 82.043999"
     y="0"
     id="tspan486"
     style="font-size:12px;font-style:oblique;font-variant:normal;font-weight:bold;writing-mode:lr-tb;fill:#000000;fill-opacity:1;fill-rule:nonzero;stroke:none;font-family:Helvetica;-inkscape-font-specification:Helvetica-BoldOblique">Flugunfaehiger</tspan></text>

</g></g><g
           id="g488"><g
             clip-path="url(#clipPath492)"
             id="g490"><text
   transform="matrix(1,0,0,-1,176.3,627.67)"
   id="text496"><tspan
     x="0 6.7080002 14.736 22.068001 29.256001 35.855999"
     y="0"
     id="tspan498"
     style="font-size:12px;font-style:oblique;font-variant:normal;font-weight:bold;writing-mode:lr-tb;fill:#000000;fill-opacity:1;fill-rule:nonzero;stroke:none;font-family:Helvetica;-inkscape-font-specification:Helvetica-BoldOblique">_Vogel</tspan></text>

</g></g><g
           id="g500"><g
             clip-path="url(#clipPath504)"
             id="g502" /></g><g
           id="g508"><g
             clip-path="url(#clipPath512)"
             id="g510" /></g><g
           id="g516"><g
             clip-path="url(#clipPath520)"
             id="g518" /></g><g
           id="g524"><g
             clip-path="url(#clipPath528)"
             id="g526"><text
   transform="matrix(1,0,0,-1,85.68,604.63)"
   id="text532"><tspan
     x="0 6.96 10.296 17.028 23.028 29.028 35.736 42.444 46.439999 50.363998 53.700001 57.071999 60.408001 66.311996 73.019997 75.683998"
     y="0"
     id="tspan534"
     style="font-size:12px;font-variant:normal;font-weight:normal;writing-mode:lr-tb;fill:#000000;fill-opacity:1;fill-rule:nonzero;stroke:none;font-family:Helvetica;-inkscape-font-specification:Helvetica">+ essen() : void</tspan></text>

</g></g><g
           id="g536"><g
             clip-path="url(#clipPath540)"
             id="g538" /></g></g></g><path
       d="m 78.1,618.8 148.95,0"
       inkscape:connector-curvature="0"
       id="path544"
       style="fill:none;stroke:#000000;stroke-width:0.75;stroke-linecap:round;stroke-linejoin:round;stroke-miterlimit:8;stroke-opacity:1;stroke-dasharray:none" /><path
       d="m 201.7,760.35 135.75,0"
       inkscape:connector-curvature="0"
       id="path546"
       style="fill:none;stroke:#000000;stroke-width:0.75;stroke-linecap:round;stroke-linejoin:round;stroke-miterlimit:8;stroke-opacity:1;stroke-dasharray:none" /><path
       d="m 378.4,466.55 135.75,0 0,54.35 -135.75,0 0,-54.35 z"
       inkscape:connector-curvature="0"
       id="path548"
       style="fill:none;stroke:#000000;stroke-width:0.75;stroke-linecap:round;stroke-linejoin:miter;stroke-miterlimit:8;stroke-opacity:1;stroke-dasharray:none" /><g
       id="g550"><g
         clip-path="url(#clipPath554)"
         id="g552"><g
           id="g558"><g
             clip-path="url(#clipPath562)"
             id="g560"><text
   transform="matrix(1,0,0,-1,428.33,505.75)"
   id="text566"><tspan
     x="0 8.3999996 19.188 25.896 32.604"
     y="0"
     id="tspan568"
     style="font-size:12px;font-variant:normal;font-weight:bold;writing-mode:lr-tb;fill:#000000;fill-opacity:1;fill-rule:nonzero;stroke:none;font-family:Helvetica;-inkscape-font-specification:Helvetica-Bold">Amsel</tspan></text>

</g></g><g
           id="g570"><g
             clip-path="url(#clipPath574)"
             id="g572" /></g><g
           id="g578"><g
             clip-path="url(#clipPath582)"
             id="g580" /></g><g
           id="g586"><g
             clip-path="url(#clipPath590)"
             id="g588"><text
   transform="matrix(1,0,0,-1,386.09,489.67)"
   id="text594"><tspan
     x="0 6.96"
     y="0"
     id="tspan596"
     style="font-size:12px;font-variant:normal;font-weight:normal;writing-mode:lr-tb;fill:#000000;fill-opacity:1;fill-rule:nonzero;stroke:none;font-family:Helvetica;-inkscape-font-specification:Helvetica">+ </tspan></text>

</g></g><g
           id="g598"><g
             clip-path="url(#clipPath602)"
             id="g600"><text
   transform="matrix(1,0,0,-1,396.41,489.67)"
   id="text606"><tspan
     x="0 6.7080002 12.708 18.708 25.416"
     y="0"
     id="tspan608"
     style="font-size:12px;font-variant:normal;font-weight:normal;writing-mode:lr-tb;fill:#000000;fill-opacity:1;fill-rule:nonzero;stroke:none;font-family:Helvetica;-inkscape-font-specification:Helvetica">essen</tspan></text>

</g></g><g
           id="g610"><g
             clip-path="url(#clipPath614)"
             id="g612"><text
   transform="matrix(1,0,0,-1,428.57,489.67)"
   id="text618"><tspan
     x="0 3.9960001 7.9200001 11.256 14.628 17.964001 23.868 30.576 33.240002"
     y="0"
     id="tspan620"
     style="font-size:12px;font-variant:normal;font-weight:normal;writing-mode:lr-tb;fill:#000000;fill-opacity:1;fill-rule:nonzero;stroke:none;font-family:Helvetica;-inkscape-font-specification:Helvetica">() : void</tspan></text>

</g></g><g
           id="g622"><g
             clip-path="url(#clipPath626)"
             id="g624" /></g><g
           id="g630"><g
             clip-path="url(#clipPath634)"
             id="g632"><text
   transform="matrix(1,0,0,-1,386.09,475.75)"
   id="text638"><tspan
     x="0 6.96"
     y="0"
     id="tspan640"
     style="font-size:12px;font-variant:normal;font-weight:normal;writing-mode:lr-tb;fill:#000000;fill-opacity:1;fill-rule:nonzero;stroke:none;font-family:Helvetica;-inkscape-font-specification:Helvetica">+ </tspan></text>

</g></g><g
           id="g642"><g
             clip-path="url(#clipPath646)"
             id="g644"><text
   transform="matrix(1,0,0,-1,396.41,475.75)"
   id="text650"><tspan
     x="0 3.4679999 6.132 8.7480001 15.456 22.056 28.764"
     y="0"
     id="tspan652"
     style="font-size:12px;font-variant:normal;font-weight:normal;writing-mode:lr-tb;fill:#000000;fill-opacity:1;fill-rule:nonzero;stroke:none;font-family:Helvetica;-inkscape-font-specification:Helvetica">fliegen</tspan></text>

</g></g><g
           id="g654"><g
             clip-path="url(#clipPath658)"
             id="g656"><text
   transform="matrix(1,0,0,-1,431.93,475.75)"
   id="text662"><tspan
     x="0 3.9960001 7.9200001 11.256 14.628 17.964001"
     y="0"
     id="tspan664"
     style="font-size:12px;font-variant:normal;font-weight:normal;writing-mode:lr-tb;fill:#000000;fill-opacity:1;fill-rule:nonzero;stroke:none;font-family:Helvetica;-inkscape-font-specification:Helvetica">() : v</tspan></text>

</g></g><g
           id="g666"><g
             clip-path="url(#clipPath670)"
             id="g668"><text
   transform="matrix(1,0,0,-1,455.81,475.75)"
   id="text674"><tspan
     x="0 6.7080002 9.3719997"
     y="0"
     id="tspan676"
     style="font-size:12px;font-variant:normal;font-weight:normal;writing-mode:lr-tb;fill:#000000;fill-opacity:1;fill-rule:nonzero;stroke:none;font-family:Helvetica;-inkscape-font-specification:Helvetica">oid</tspan></text>

</g></g><g
           id="g678"><g
             clip-path="url(#clipPath682)"
             id="g680" /></g></g></g><path
       d="M 514.15,501.9 378.4,501.95"
       inkscape:connector-curvature="0"
       id="path686"
       style="fill:none;stroke:#000000;stroke-width:0.75;stroke-linecap:round;stroke-linejoin:round;stroke-miterlimit:8;stroke-opacity:1;stroke-dasharray:none" /><path
       d="m 146.45,569.5 0,-48.6"
       inkscape:connector-curvature="0"
       id="path688"
       style="fill:none;stroke:#000000;stroke-width:0.75;stroke-linecap:round;stroke-linejoin:round;stroke-miterlimit:8;stroke-opacity:1;stroke-dasharray:none" /><path
       d="m 146.88,583.3 -12.38,-15 24.75,0 -12.37,15 z"
       inkscape:connector-curvature="0"
       id="path690"
       style="fill:#ffffff;fill-opacity:1;fill-rule:evenodd;stroke:none" /><path
       d="m 146.88,583.3 -12.38,-15 24.75,0 -12.37,15 z"
       inkscape:connector-curvature="0"
       id="path692"
       style="fill:none;stroke:#000000;stroke-width:0.75;stroke-linecap:round;stroke-linejoin:round;stroke-miterlimit:8;stroke-opacity:1;stroke-dasharray:none" /><path
       d="m 347.98,584.5 -12.38,-15 24.75,0 -12.37,15 z"
       inkscape:connector-curvature="0"
       id="path694"
       style="fill:#ffffff;fill-opacity:1;fill-rule:evenodd;stroke:none" /><path
       d="m 347.98,584.5 -12.38,-15 24.75,0 -12.37,15 z"
       inkscape:connector-curvature="0"
       id="path696"
       style="fill:none;stroke:#000000;stroke-width:0.75;stroke-linecap:round;stroke-linejoin:round;stroke-miterlimit:8;stroke-opacity:1;stroke-dasharray:none" /><path
       d="m 348.65,569.5 0,-48.6"
       inkscape:connector-curvature="0"
       id="path698"
       style="fill:none;stroke:#000000;stroke-width:0.75;stroke-linecap:round;stroke-linejoin:round;stroke-miterlimit:8;stroke-opacity:1;stroke-dasharray:none" /></g></svg>