<?xml version="1.0" encoding="UTF-8" standalone="no"?>
<!-- Created with Inkscape (http://www.inkscape.org/) -->

<svg
   xmlns:dc="http://purl.org/dc/elements/1.1/"
   xmlns:cc="http://creativecommons.org/ns#"
   xmlns:rdf="http://www.w3.org/1999/02/22-rdf-syntax-ns#"
   xmlns:svg="http://www.w3.org/2000/svg"
   xmlns="http://www.w3.org/2000/svg"
   xmlns:sodipodi="http://sodipodi.sourceforge.net/DTD/sodipodi-0.dtd"
   xmlns:inkscape="http://www.inkscape.org/namespaces/inkscape"
   version="1.1"
   width="419.90646"
   height="298.125"
   id="svg2"
   xml:space="preserve"
   inkscape:version="0.48.4 r9939"
   sodipodi:docname="Bild 1-9 Die abstrakte Klasse GrafischesElement als symbolisches Framework.svg"><sodipodi:namedview
     pagecolor="#ffffff"
     bordercolor="#666666"
     borderopacity="1"
     objecttolerance="10"
     gridtolerance="10"
     guidetolerance="10"
     inkscape:pageopacity="0"
     inkscape:pageshadow="2"
     inkscape:window-width="640"
     inkscape:window-height="480"
     id="namedview295"
     showgrid="false"
     inkscape:zoom="0.18730159"
     inkscape:cx="89.90625"
     inkscape:cy="152.34375"
     inkscape:window-x="0"
     inkscape:window-y="0"
     inkscape:window-maximized="0"
     inkscape:current-layer="svg2" /><metadata
     id="metadata8"><rdf:RDF><cc:Work
         rdf:about=""><dc:format>image/svg+xml</dc:format><dc:type
           rdf:resource="http://purl.org/dc/dcmitype/StillImage" /></cc:Work></rdf:RDF></metadata><defs
     id="defs6"><clipPath
       id="clipPath22"><path
         d="m 433.97,522.07 129.75,0 0,94.08 -129.75,0 0,-94.08 z"
         inkscape:connector-curvature="0"
         id="path24" /></clipPath><clipPath
       id="clipPath30"><path
         d="m 433.97,522.07 129.74,0 0,94.08 -129.74,0 0,-94.08 z"
         inkscape:connector-curvature="0"
         id="path32" /></clipPath><clipPath
       id="clipPath40"><path
         d="m 434.21,599.11 129.03,0 0,15.96 -129.03,0 0,-15.96 z"
         inkscape:connector-curvature="0"
         id="path42" /></clipPath><clipPath
       id="clipPath48"><path
         d="m 434.21,599.11 129.02,0 0,15.96 -129.02,0 0,-15.96 z"
         inkscape:connector-curvature="0"
         id="path50" /></clipPath><clipPath
       id="clipPath60"><path
         d="m 434.21,599.11 129.02,0 0,15.96 -129.02,0 0,-15.96 z"
         inkscape:connector-curvature="0"
         id="path62" /></clipPath><clipPath
       id="clipPath72"><path
         d="m 434.21,599.11 129.02,0 0,15.96 -129.02,0 0,-15.96 z"
         inkscape:connector-curvature="0"
         id="path74" /></clipPath><clipPath
       id="clipPath84"><path
         d="m 434.21,599.11 129.02,0 0,15.96 -129.02,0 0,-15.96 z"
         inkscape:connector-curvature="0"
         id="path86" /></clipPath><clipPath
       id="clipPath96"><path
         d="m 434.21,599.11 129.02,0 0,15.96 -129.02,0 0,-15.96 z"
         inkscape:connector-curvature="0"
         id="path98" /></clipPath><clipPath
       id="clipPath104"><path
         d="m 438.77,521.71 125.31,0 0,65.04 -125.31,0 0,-65.04 z"
         inkscape:connector-curvature="0"
         id="path106" /></clipPath><clipPath
       id="clipPath112"><path
         d="m 438.77,521.71 125.3,0 0,65.04 -125.3,0 0,-65.04 z"
         inkscape:connector-curvature="0"
         id="path114" /></clipPath><clipPath
       id="clipPath124"><path
         d="m 438.77,521.71 125.3,0 0,65.04 -125.3,0 0,-65.04 z"
         inkscape:connector-curvature="0"
         id="path126" /></clipPath><clipPath
       id="clipPath132"><path
         d="m 438.77,521.71 125.3,0 0,65.04 -125.3,0 0,-65.04 z"
         inkscape:connector-curvature="0"
         id="path134" /></clipPath><clipPath
       id="clipPath144"><path
         d="m 438.77,521.71 125.3,0 0,65.04 -125.3,0 0,-65.04 z"
         inkscape:connector-curvature="0"
         id="path146" /></clipPath><clipPath
       id="clipPath152"><path
         d="m 438.77,521.71 125.3,0 0,65.04 -125.3,0 0,-65.04 z"
         inkscape:connector-curvature="0"
         id="path154" /></clipPath><clipPath
       id="clipPath160"><path
         d="m 438.77,521.71 125.3,0 0,65.04 -125.3,0 0,-65.04 z"
         inkscape:connector-curvature="0"
         id="path162" /></clipPath><clipPath
       id="clipPath172"><path
         d="m 438.77,521.71 125.3,0 0,65.04 -125.3,0 0,-65.04 z"
         inkscape:connector-curvature="0"
         id="path174" /></clipPath><clipPath
       id="clipPath180"><path
         d="m 438.77,521.71 125.3,0 0,65.04 -125.3,0 0,-65.04 z"
         inkscape:connector-curvature="0"
         id="path182" /></clipPath><clipPath
       id="clipPath192"><path
         d="m 438.77,521.71 125.3,0 0,65.04 -125.3,0 0,-65.04 z"
         inkscape:connector-curvature="0"
         id="path194" /></clipPath><clipPath
       id="clipPath200"><path
         d="m 438.77,521.71 125.3,0 0,65.04 -125.3,0 0,-65.04 z"
         inkscape:connector-curvature="0"
         id="path202" /></clipPath><clipPath
       id="clipPath212"><path
         d="m 438.77,521.71 125.3,0 0,65.04 -125.3,0 0,-65.04 z"
         inkscape:connector-curvature="0"
         id="path214" /></clipPath><clipPath
       id="clipPath228"><path
         d="m 433.25,386.44 129.63,0 0,78.27 -129.63,0 0,-78.27 z"
         inkscape:connector-curvature="0"
         id="path230" /></clipPath><clipPath
       id="clipPath236"><path
         d="m 433.25,386.45 129.62,0 0,78.264 -129.62,0 0,-78.264 z"
         inkscape:connector-curvature="0"
         id="path238" /></clipPath><clipPath
       id="clipPath248"><path
         d="m 443.33,428.68 111.75,0 0,34.95 -111.75,0 0,-34.95 z"
         inkscape:connector-curvature="0"
         id="path250" /></clipPath><clipPath
       id="clipPath256"><path
         d="m 443.33,428.69 111.74,0 0,34.944 -111.74,0 0,-34.944 z"
         inkscape:connector-curvature="0"
         id="path258" /></clipPath><clipPath
       id="clipPath268"><path
         d="m 443.33,428.69 111.74,0 0,34.944 -111.74,0 0,-34.944 z"
         inkscape:connector-curvature="0"
         id="path270" /></clipPath><clipPath
       id="clipPath276"><path
         d="m 443.33,428.69 111.74,0 0,34.944 -111.74,0 0,-34.944 z"
         inkscape:connector-curvature="0"
         id="path278" /></clipPath><clipPath
       id="clipPath288"><path
         d="m 443.33,428.69 111.74,0 0,34.944 -111.74,0 0,-34.944 z"
         inkscape:connector-curvature="0"
         id="path290" /></clipPath><clipPath
       id="clipPath296"><path
         d="m 438.05,388.36 125.19,0 0,28.68 -125.19,0 0,-28.68 z"
         inkscape:connector-curvature="0"
         id="path298" /></clipPath><clipPath
       id="clipPath304"><path
         d="m 438.05,388.37 125.18,0 0,28.68 -125.18,0 0,-28.68 z"
         inkscape:connector-curvature="0"
         id="path306" /></clipPath><clipPath
       id="clipPath316"><path
         d="m 438.05,388.37 125.18,0 0,28.68 -125.18,0 0,-28.68 z"
         inkscape:connector-curvature="0"
         id="path318" /></clipPath><clipPath
       id="clipPath324"><path
         d="m 438.05,388.37 125.18,0 0,28.68 -125.18,0 0,-28.68 z"
         inkscape:connector-curvature="0"
         id="path326" /></clipPath><clipPath
       id="clipPath336"><path
         d="m 438.05,388.37 125.18,0 0,28.68 -125.18,0 0,-28.68 z"
         inkscape:connector-curvature="0"
         id="path338" /></clipPath><clipPath
       id="clipPath344"><path
         d="m 438.05,388.37 125.18,0 0,28.68 -125.18,0 0,-28.68 z"
         inkscape:connector-curvature="0"
         id="path346" /></clipPath><clipPath
       id="clipPath352"><path
         d="m 603.44,593.71 125.89,0 0,19.8 -125.89,0 0,-19.8 z"
         inkscape:connector-curvature="0"
         id="path354" /></clipPath><clipPath
       id="clipPath360"><path
         d="m 603.43,593.71 125.9,0 0,19.8 -125.9,0 0,-19.8 z"
         inkscape:connector-curvature="0"
         id="path362" /></clipPath><clipPath
       id="clipPath372"><path
         d="m 603.43,593.71 125.9,0 0,19.8 -125.9,0 0,-19.8 z"
         inkscape:connector-curvature="0"
         id="path374" /></clipPath><clipPath
       id="clipPath380"><path
         d="m 603.44,541.27 188.9,0 0,19.68 -188.9,0 0,-19.68 z"
         inkscape:connector-curvature="0"
         id="path382" /></clipPath><clipPath
       id="clipPath388"><path
         d="m 603.43,541.27 188.9,0 0,19.68 -188.9,0 0,-19.68 z"
         inkscape:connector-curvature="0"
         id="path390" /></clipPath><clipPath
       id="clipPath400"><path
         d="m 603.43,541.27 188.9,0 0,19.68 -188.9,0 0,-19.68 z"
         inkscape:connector-curvature="0"
         id="path402" /></clipPath><clipPath
       id="clipPath412"><path
         d="m 603.43,541.27 188.9,0 0,19.68 -188.9,0 0,-19.68 z"
         inkscape:connector-curvature="0"
         id="path414" /></clipPath><clipPath
       id="clipPath420"><path
         d="m 615.44,412.6 98.895,0 0,19.68 -98.895,0 0,-19.68 z"
         inkscape:connector-curvature="0"
         id="path422" /></clipPath><clipPath
       id="clipPath428"><path
         d="m 615.43,412.61 98.904,0 0,19.68 -98.904,0 0,-19.68 z"
         inkscape:connector-curvature="0"
         id="path430" /></clipPath><clipPath
       id="clipPath440"><path
         d="m 615.43,412.61 98.904,0 0,19.68 -98.904,0 0,-19.68 z"
         inkscape:connector-curvature="0"
         id="path442" /></clipPath><clipPath
       id="clipPath452"><path
         d="m 615.43,412.61 98.904,0 0,19.68 -98.904,0 0,-19.68 z"
         inkscape:connector-curvature="0"
         id="path454" /></clipPath><clipPath
       id="clipPath464"><path
         d="m 615.43,412.61 98.904,0 0,19.68 -98.904,0 0,-19.68 z"
         inkscape:connector-curvature="0"
         id="path466" /></clipPath><clipPath
       id="clipPath478"><path
         d="m 602.96,497.35 135.02,0 0,43.8 -135.02,0 0,-43.8 z"
         inkscape:connector-curvature="0"
         id="path480" /></clipPath><clipPath
       id="clipPath486"><path
         d="m 602.95,497.35 135.02,0 0,43.8 -135.02,0 0,-43.8 z"
         inkscape:connector-curvature="0"
         id="path488" /></clipPath><clipPath
       id="clipPath498"><path
         d="m 602.95,497.35 135.02,0 0,43.8 -135.02,0 0,-43.8 z"
         inkscape:connector-curvature="0"
         id="path500" /></clipPath><clipPath
       id="clipPath510"><path
         d="m 602.95,497.35 135.02,0 0,43.8 -135.02,0 0,-43.8 z"
         inkscape:connector-curvature="0"
         id="path512" /></clipPath><clipPath
       id="clipPath522"><path
         d="m 602.95,497.35 135.02,0 0,43.8 -135.02,0 0,-43.8 z"
         inkscape:connector-curvature="0"
         id="path524" /></clipPath><clipPath
       id="clipPath534"><path
         d="m 602.95,497.35 135.02,0 0,43.8 -135.02,0 0,-43.8 z"
         inkscape:connector-curvature="0"
         id="path536" /></clipPath><clipPath
       id="clipPath546"><path
         d="m 602.95,497.35 135.02,0 0,43.8 -135.02,0 0,-43.8 z"
         inkscape:connector-curvature="0"
         id="path548" /></clipPath><clipPath
       id="clipPath562"><path
         d="m 603.8,566.83 154.46,0 0,18.96 -154.46,0 0,-18.96 z"
         inkscape:connector-curvature="0"
         id="path564" /></clipPath><clipPath
       id="clipPath570"><path
         d="m 603.79,566.83 154.46,0 0,18.96 -154.46,0 0,-18.96 z"
         inkscape:connector-curvature="0"
         id="path572" /></clipPath><clipPath
       id="clipPath582"><path
         d="m 603.79,566.83 154.46,0 0,18.96 -154.46,0 0,-18.96 z"
         inkscape:connector-curvature="0"
         id="path584" /></clipPath></defs><g
     transform="matrix(1.25,0,0,-1.25,-540.46875,775.78125)"
     id="g10"><path
       d="m 498,500.85 0,-32.1"
       inkscape:connector-curvature="0"
       id="path12"
       style="fill:none;stroke:#000000;stroke-width:0.75;stroke-linecap:round;stroke-linejoin:round;stroke-miterlimit:10;stroke-opacity:1;stroke-dasharray:none" /><path
       d="m 433.5,518.15 130.5,0 0,102.1 -130.5,0 0,-102.1 z"
       inkscape:connector-curvature="0"
       id="path14"
       style="fill:#ffffff;fill-opacity:1;fill-rule:evenodd;stroke:none" /><path
       d="m 433.5,518.15 130.5,0 0,102.1 -130.5,0 0,-102.1 z"
       inkscape:connector-curvature="0"
       id="path16"
       style="fill:none;stroke:#000000;stroke-width:0.75;stroke-linecap:round;stroke-linejoin:miter;stroke-miterlimit:8;stroke-opacity:1;stroke-dasharray:none" /><g
       id="g18"><g
         clip-path="url(#clipPath22)"
         id="g20"><g
           id="g26"><g
             clip-path="url(#clipPath30)"
             id="g28" /></g></g></g><path
       d="m 433.5,593.25 130.5,0"
       inkscape:connector-curvature="0"
       id="path34"
       style="fill:none;stroke:#000000;stroke-width:0.75;stroke-linecap:round;stroke-linejoin:round;stroke-miterlimit:8;stroke-opacity:1;stroke-dasharray:none" /><g
       id="g36"><g
         clip-path="url(#clipPath40)"
         id="g38"><g
           id="g44"><g
             clip-path="url(#clipPath48)"
             id="g46"><text
   transform="matrix(1,0,0,-1,441.41,604.51)"
   id="text52"><tspan
     x="0"
     y="0"
     id="tspan54"
     style="font-size:11.03999996px;font-style:oblique;font-variant:normal;font-weight:bold;writing-mode:lr-tb;fill:#000000;fill-opacity:1;fill-rule:nonzero;stroke:none;font-family:Helvetica;-inkscape-font-specification:Helvetica-BoldOblique">G</tspan></text>

</g></g><g
           id="g56"><g
             clip-path="url(#clipPath60)"
             id="g58"><text
   transform="matrix(1,0,0,-1,450.05,604.51)"
   id="text64"><tspan
     x="0 4.3199601"
     y="0"
     id="tspan66"
     style="font-size:11.03999996px;font-style:oblique;font-variant:normal;font-weight:bold;writing-mode:lr-tb;fill:#000000;fill-opacity:1;fill-rule:nonzero;stroke:none;font-family:Helvetica;-inkscape-font-specification:Helvetica-BoldOblique">ra</tspan></text>

</g></g><g
           id="g68"><g
             clip-path="url(#clipPath72)"
             id="g70"><text
   transform="matrix(1,0,0,-1,460.37,604.51)"
   id="text76"><tspan
     x="0"
     y="0"
     id="tspan78"
     style="font-size:11.03999996px;font-style:oblique;font-variant:normal;font-weight:bold;writing-mode:lr-tb;fill:#000000;fill-opacity:1;fill-rule:nonzero;stroke:none;font-family:Helvetica;-inkscape-font-specification:Helvetica-BoldOblique">f</tspan></text>

</g></g><g
           id="g80"><g
             clip-path="url(#clipPath84)"
             id="g82"><text
   transform="matrix(1,0,0,-1,464.09,604.51)"
   id="text88"><tspan
     x="0 3.1132801 9.2515202 15.35664 22.102079 28.196159 34.3344 41.63184 44.745121 50.739841 60.554401 66.692642 73.43808"
     y="0"
     id="tspan90"
     style="font-size:11.03999996px;font-style:oblique;font-variant:normal;font-weight:bold;writing-mode:lr-tb;fill:#000000;fill-opacity:1;fill-rule:nonzero;stroke:none;font-family:Helvetica;-inkscape-font-specification:Helvetica-BoldOblique">ischesElement</tspan></text>

</g></g><g
           id="g92"><g
             clip-path="url(#clipPath96)"
             id="g94" /></g></g></g><g
       id="g100"><g
         clip-path="url(#clipPath104)"
         id="g102"><g
           id="g108"><g
             clip-path="url(#clipPath112)"
             id="g110"><text
   transform="matrix(1,0,0,-1,445.97,576.55)"
   id="text116"><tspan
     x="0"
     y="0"
     id="tspan118"
     style="font-size:11.03999996px;font-variant:normal;font-weight:normal;writing-mode:lr-tb;fill:#000000;fill-opacity:1;fill-rule:nonzero;stroke:none;font-family:Helvetica;-inkscape-font-specification:Helvetica">x</tspan></text>

</g></g><g
           id="g120"><g
             clip-path="url(#clipPath124)"
             id="g122" /></g><g
           id="g128"><g
             clip-path="url(#clipPath132)"
             id="g130"><text
   transform="matrix(1,0,0,-1,445.97,563.95)"
   id="text136"><tspan
     x="0"
     y="0"
     id="tspan138"
     style="font-size:11.03999996px;font-variant:normal;font-weight:normal;writing-mode:lr-tb;fill:#000000;fill-opacity:1;fill-rule:nonzero;stroke:none;font-family:Helvetica;-inkscape-font-specification:Helvetica">y</tspan></text>

</g></g><g
           id="g140"><g
             clip-path="url(#clipPath144)"
             id="g142" /></g><g
           id="g148"><g
             clip-path="url(#clipPath152)"
             id="g150" /></g><g
           id="g156"><g
             clip-path="url(#clipPath160)"
             id="g158"><text
   transform="matrix(1,0,0,-1,445.97,550.15)"
   id="text164"><tspan
     x="0 5.2771201 11.50368 13.89936 19.419359 25.5576 31.66272 37.800961 41.47728"
     y="0"
     id="tspan166"
     style="font-size:11.03999996px;font-style:oblique;font-variant:normal;font-weight:normal;writing-mode:lr-tb;fill:#000000;fill-opacity:1;fill-rule:nonzero;stroke:none;font-family:Helvetica;-inkscape-font-specification:Helvetica-Oblique">zeichne()</tspan></text>

</g></g><g
           id="g168"><g
             clip-path="url(#clipPath172)"
             id="g170" /></g><g
           id="g176"><g
             clip-path="url(#clipPath180)"
             id="g178"><text
   transform="matrix(1,0,0,-1,445.97,537.43)"
   id="text184"><tspan
     x="0 2.39568 4.7913599 10.9296 17.034719 20.148001 27.46752 33.605759 39.71088 45.230881 48.344158 51.347038 60.576481 67.896004 70.291679 76.429916 85.626244 91.764481 97.902718 100.89456 104.604"
     y="0"
     id="tspan186"
     style="font-size:11.03999996px;font-style:oblique;font-variant:normal;font-weight:normal;writing-mode:lr-tb;fill:#000000;fill-opacity:1;fill-rule:nonzero;stroke:none;font-family:Helvetica;-inkscape-font-specification:Helvetica-Oblique">liegtPunktImElement()</tspan></text>

</g></g><g
           id="g188"><g
             clip-path="url(#clipPath192)"
             id="g190" /></g><g
           id="g196"><g
             clip-path="url(#clipPath200)"
             id="g198"><text
   transform="matrix(1,0,0,-1,445.97,524.83)"
   id="text204"><tspan
     x="0 5.39856 11.5368 15.21312 20.73312 26.25312 32.391361 34.79808 40.936321 47.041439 53.17968 56.855999 60.587521 63.590401 67.277763 69.728638 75.833763 81.828484 85.052162"
     y="0"
     id="tspan206"
     style="font-size:11.03999996px;font-variant:normal;font-weight:normal;writing-mode:lr-tb;fill:#000000;fill-opacity:1;fill-rule:nonzero;stroke:none;font-family:Helvetica;-inkscape-font-specification:Helvetica">verschiebe() {leaf}</tspan></text>

</g></g><g
           id="g208"><g
             clip-path="url(#clipPath212)"
             id="g210" /></g></g></g><path
       d="m 497.92,518.1 -9.37,-17.25 18.75,0 -9.38,17.25 z"
       inkscape:connector-curvature="0"
       id="path216"
       style="fill:#ffffff;fill-opacity:1;fill-rule:evenodd;stroke:none" /><path
       d="m 497.92,518.1 -9.37,-17.25 18.75,0 -9.38,17.25 z"
       inkscape:connector-curvature="0"
       id="path218"
       style="fill:none;stroke:#000000;stroke-width:0.75;stroke-linecap:round;stroke-linejoin:round;stroke-miterlimit:8;stroke-opacity:1;stroke-dasharray:none" /><path
       d="m 432.75,382.5 130.5,0 0,86.25 -130.5,0 0,-86.25 z"
       inkscape:connector-curvature="0"
       id="path220"
       style="fill:#ffffff;fill-opacity:1;fill-rule:evenodd;stroke:none" /><path
       d="m 432.75,382.5 130.5,0 0,86.25 -130.5,0 0,-86.25 z"
       inkscape:connector-curvature="0"
       id="path222"
       style="fill:none;stroke:#000000;stroke-width:0.75;stroke-linecap:round;stroke-linejoin:miter;stroke-miterlimit:8;stroke-opacity:1;stroke-dasharray:none" /><g
       id="g224"><g
         clip-path="url(#clipPath228)"
         id="g226"><g
           id="g232"><g
             clip-path="url(#clipPath236)"
             id="g234" /></g></g></g><path
       d="m 432.75,422.25 130.5,0"
       inkscape:connector-curvature="0"
       id="path240"
       style="fill:none;stroke:#000000;stroke-width:0.75;stroke-linecap:round;stroke-linejoin:round;stroke-miterlimit:8;stroke-opacity:1;stroke-dasharray:none" /><path
       d="m 443.25,425.1 111.75,0 0,42.15 -111.75,0 0,-42.15 z"
       inkscape:connector-curvature="0"
       id="path242"
       style="fill:#ffffff;fill-opacity:1;fill-rule:evenodd;stroke:none" /><g
       id="g244"><g
         clip-path="url(#clipPath248)"
         id="g246"><g
           id="g252"><g
             clip-path="url(#clipPath256)"
             id="g254"><text
   transform="matrix(1,0,0,-1,479.35,453.55)"
   id="text260"><tspan
     x="0 7.9156799 12.21024 18.34848 21.46176 27.6 33.70512"
     y="0"
     id="tspan262"
     style="font-size:11.03999996px;font-variant:normal;font-weight:bold;writing-mode:lr-tb;fill:#000000;fill-opacity:1;fill-rule:nonzero;stroke:none;font-family:Helvetica;-inkscape-font-specification:Helvetica-Bold">Dreieck</tspan></text>

</g></g><g
           id="g264"><g
             clip-path="url(#clipPath268)"
             id="g266" /></g><g
           id="g272"><g
             clip-path="url(#clipPath276)"
             id="g274"><text
   transform="matrix(1,0,0,-1,486.67,440.59)"
   id="text280"><tspan
     x="0 3.68736 6.1382399 12.24336 18.238079 21.46176"
     y="0"
     id="tspan282"
     style="font-size:11.03999996px;font-variant:normal;font-weight:normal;writing-mode:lr-tb;fill:#000000;fill-opacity:1;fill-rule:nonzero;stroke:none;font-family:Helvetica;-inkscape-font-specification:Helvetica">{leaf}</tspan></text>

</g></g><g
           id="g284"><g
             clip-path="url(#clipPath288)"
             id="g286" /></g></g></g><g
       id="g292"><g
         clip-path="url(#clipPath296)"
         id="g294"><g
           id="g300"><g
             clip-path="url(#clipPath304)"
             id="g302"><text
   transform="matrix(1,0,0,-1,445.25,406.85)"
   id="text308"><tspan
     x="0 5.39856 11.5368 13.92144 19.441441 25.579679 31.684799 37.82304 41.499359"
     y="0"
     id="tspan310"
     style="font-size:11.03999996px;font-variant:normal;font-weight:normal;writing-mode:lr-tb;fill:#000000;fill-opacity:1;fill-rule:nonzero;stroke:none;font-family:Helvetica;-inkscape-font-specification:Helvetica">zeichne()</tspan></text>

</g></g><g
           id="g312"><g
             clip-path="url(#clipPath316)"
             id="g314" /></g><g
           id="g320"><g
             clip-path="url(#clipPath324)"
             id="g322"><text
   transform="matrix(1,0,0,-1,445.25,394.25)"
   id="text328"><tspan
     x="0 2.39568 4.7913599 10.9296 17.145121 20.2584 27.577921 33.71616 39.699841 45.330238 48.333118 51.335999 60.565441 67.884956 70.28064 76.418877 85.615196 91.753441 97.891678 100.88352 104.59296"
     y="0"
     id="tspan330"
     style="font-size:11.03999996px;font-variant:normal;font-weight:normal;writing-mode:lr-tb;fill:#000000;fill-opacity:1;fill-rule:nonzero;stroke:none;font-family:Helvetica;-inkscape-font-specification:Helvetica">liegtPunktImElement()</tspan></text>

</g></g><g
           id="g332"><g
             clip-path="url(#clipPath336)"
             id="g334" /></g><g
           id="g340"><g
             clip-path="url(#clipPath344)"
             id="g342" /></g></g></g><g
       id="g348"><g
         clip-path="url(#clipPath352)"
         id="g350"><g
           id="g356"><g
             clip-path="url(#clipPath360)"
             id="g358"><text
   transform="matrix(1,0,0,-1,610.63,603.31)"
   id="text364"><tspan
     x="0 7.31952 13.45776 18.97776 22.046881 25.78944 31.784161 37.304161 40.417439 46.555679 49.624802 56.98848 59.373119 65.51136 71.031357 76.551361"
     y="0"
     id="tspan366"
     style="font-size:11.03999996px;font-variant:normal;font-weight:normal;writing-mode:lr-tb;fill:#808080;fill-opacity:1;fill-rule:nonzero;stroke:none;font-family:Helvetica;-inkscape-font-specification:Helvetica">Abstrakte Klasse</tspan></text>

</g></g><g
           id="g368"><g
             clip-path="url(#clipPath372)"
             id="g370" /></g></g></g><g
       id="g376"><g
         clip-path="url(#clipPath380)"
         id="g378"><g
           id="g384"><g
             clip-path="url(#clipPath388)"
             id="g386"><text
   transform="matrix(1,0,0,-1,610.63,550.63)"
   id="text392"><tspan
     x="0 7.31952 13.45776 18.97776 22.046881 25.78944 31.784161 37.304161 40.417439 46.555679 49.624802 55.763039"
     y="0"
     id="tspan394"
     style="font-size:11.03999996px;font-variant:normal;font-weight:normal;writing-mode:lr-tb;fill:#808080;fill-opacity:1;fill-rule:nonzero;stroke:none;font-family:Helvetica;-inkscape-font-specification:Helvetica">Abstrakte po</tspan></text>

</g></g><g
           id="g396"><g
             clip-path="url(#clipPath400)"
             id="g398"><text
   transform="matrix(1,0,0,-1,672.58,550.63)"
   id="text404"><tspan
     x="0 2.39568 7.79424 17.02368 23.161921 26.83824 32.976479 39.114719 45.0984 48.10128 56.624161 62.762402 68.867523 72.576958 78.715202 81.784317 84.235199 90.340317"
     y="0"
     id="tspan406"
     style="font-size:11.03999996px;font-variant:normal;font-weight:normal;writing-mode:lr-tb;fill:#808080;fill-opacity:1;fill-rule:nonzero;stroke:none;font-family:Helvetica;-inkscape-font-specification:Helvetica">lymorphe Operation</tspan></text>

</g></g><g
           id="g408"><g
             clip-path="url(#clipPath412)"
             id="g410" /></g></g></g><g
       id="g416"><g
         clip-path="url(#clipPath420)"
         id="g418"><g
           id="g424"><g
             clip-path="url(#clipPath428)"
             id="g426"><text
   transform="matrix(1,0,0,-1,622.63,421.97)"
   id="text432"><tspan
     x="0 7.31952 9.7152004 15.85344 18.92256"
     y="0"
     id="tspan434"
     style="font-size:11.03999996px;font-variant:normal;font-weight:normal;writing-mode:lr-tb;fill:#808080;fill-opacity:1;fill-rule:nonzero;stroke:none;font-family:Helvetica;-inkscape-font-specification:Helvetica">Blatt</tspan></text>

</g></g><g
           id="g436"><g
             clip-path="url(#clipPath440)"
             id="g438"><text
   transform="matrix(1,0,0,-1,644.71,421.97)"
   id="text444"><tspan
     x="0"
     y="0"
     id="tspan446"
     style="font-size:11.03999996px;font-variant:normal;font-weight:normal;writing-mode:lr-tb;fill:#808080;fill-opacity:1;fill-rule:nonzero;stroke:none;font-family:Helvetica;-inkscape-font-specification:Helvetica">-</tspan></text>

</g></g><g
           id="g448"><g
             clip-path="url(#clipPath452)"
             id="g450"><text
   transform="matrix(1,0,0,-1,648.43,421.97)"
   id="text456"><tspan
     x="0 7.31952 9.7152004 15.85344 21.37344 26.89344"
     y="0"
     id="tspan458"
     style="font-size:11.03999996px;font-variant:normal;font-weight:normal;writing-mode:lr-tb;fill:#808080;fill-opacity:1;fill-rule:nonzero;stroke:none;font-family:Helvetica;-inkscape-font-specification:Helvetica">Klasse</tspan></text>

</g></g><g
           id="g460"><g
             clip-path="url(#clipPath464)"
             id="g462" /></g></g></g><path
       d="m 615.1,421.79 -81.7,34.95 c -0.25,0.11 -0.37,0.4 -0.26,0.66 0.11,0.25 0.4,0.37 0.66,0.26 l 81.7,-34.95 c 0.25,-0.11 0.37,-0.4 0.26,-0.66 -0.11,-0.25 -0.4,-0.37 -0.66,-0.26 z m -82.68,32.65 c -1.52,0.65 -2.23,2.42 -1.58,3.94 0.65,1.52 2.42,2.23 3.94,1.58 1.52,-0.65 2.23,-2.42 1.58,-3.94 -0.65,-1.52 -2.42,-2.23 -3.94,-1.58 z"
       inkscape:connector-curvature="0"
       id="path468"
       style="fill:#7f7f7f;fill-opacity:1;fill-rule:nonzero;stroke:none" /><path
       d="m 555.75,608.6 47.55,0 c 0.28,0 0.5,-0.22 0.5,-0.5 0,-0.28 -0.22,-0.5 -0.5,-0.5 l -47.55,0 c -0.28,0 -0.5,0.22 -0.5,0.5 0,0.28 0.22,0.5 0.5,0.5 z m 0,-3.5 c -1.66,0 -3,1.34 -3,3 0,1.66 1.34,3 3,3 1.66,0 3,-1.34 3,-3 0,-1.66 -1.34,-3 -3,-3 z"
       inkscape:connector-curvature="0"
       id="path470"
       style="fill:#7f7f7f;fill-opacity:1;fill-rule:nonzero;stroke:none" /><path
       d="m 503.57,556.15 99.75,-3.05 c 0.27,-0.01 0.49,-0.24 0.48,-0.52 -0.01,-0.27 -0.24,-0.49 -0.52,-0.48 l -99.75,3.05 c -0.27,0.01 -0.49,0.24 -0.48,0.52 0.01,0.27 0.24,0.49 0.52,0.48 z m -0.11,-3.5 c -1.66,0.05 -2.96,1.44 -2.91,3.09 0.05,1.66 1.44,2.96 3.09,2.91 1.66,-0.05 2.96,-1.44 2.91,-3.09 -0.05,-1.66 -1.44,-2.96 -3.09,-2.91 z"
       inkscape:connector-curvature="0"
       id="path472"
       style="fill:#7f7f7f;fill-opacity:1;fill-rule:nonzero;stroke:none" /><g
       id="g474"><g
         clip-path="url(#clipPath478)"
         id="g476"><g
           id="g482"><g
             clip-path="url(#clipPath486)"
             id="g484"><text
   transform="matrix(1,0,0,-1,610.15,530.95)"
   id="text490"><tspan
     x="0 7.31952 13.45776 19.56288 25.08288 28.79232 34.930561 37.99968 44.027519 47.1408 55.774078 61.912319 67.896004 71.605438 77.743683 80.812798 83.26368 89.368797 95.363518"
     y="0"
     id="tspan492"
     style="font-size:11.03999996px;font-variant:normal;font-weight:normal;writing-mode:lr-tb;fill:#808080;fill-opacity:1;fill-rule:nonzero;stroke:none;font-family:Helvetica;-inkscape-font-specification:Helvetica">Konkrete Operation </tspan></text>

</g></g><g
           id="g494"><g
             clip-path="url(#clipPath498)"
             id="g496"><text
   transform="matrix(1,0,0,-1,610.15,518.35)"
   id="text502"><tspan
     x="0 3.70944 9.8476801 12.23232 17.752319 23.89056 26.959681 30.106079 36.24432 42.349442 44.745121 50.143681 59.373119 65.51136 69.187683 75.32592"
     y="0"
     id="tspan504"
     style="font-size:11.03999996px;font-variant:normal;font-weight:normal;writing-mode:lr-tb;fill:#808080;fill-opacity:1;fill-rule:nonzero;stroke:none;font-family:Helvetica;-inkscape-font-specification:Helvetica">(nicht polymorph</tspan></text>

</g></g><g
           id="g506"><g
             clip-path="url(#clipPath510)"
             id="g508"><text
   transform="matrix(1,0,0,-1,691.54,518.35)"
   id="text514"><tspan
     x="0 3.1132801 6.2265601 12.3648 18.469919 24.60816 30.591841 34.301281"
     y="0"
     id="tspan516"
     style="font-size:11.03999996px;font-variant:normal;font-weight:normal;writing-mode:lr-tb;fill:#808080;fill-opacity:1;fill-rule:nonzero;stroke:none;font-family:Helvetica;-inkscape-font-specification:Helvetica">, daher </tspan></text>

</g></g><g
           id="g518"><g
             clip-path="url(#clipPath522)"
             id="g520"><text
   transform="matrix(1,0,0,-1,610.15,505.51)"
   id="text526"><tspan
     x="0 2.39568 8.5339203 14.63904"
     y="0"
     id="tspan528"
     style="font-size:11.03999996px;font-variant:normal;font-weight:normal;writing-mode:lr-tb;fill:#808080;fill-opacity:1;fill-rule:nonzero;stroke:none;font-family:Helvetica;-inkscape-font-specification:Helvetica">leaf</tspan></text>

</g></g><g
           id="g530"><g
             clip-path="url(#clipPath534)"
             id="g532"><text
   transform="matrix(1,0,0,-1,627.91,505.51)"
   id="text538"><tspan
     x="0"
     y="0"
     id="tspan540"
     style="font-size:11.03999996px;font-variant:normal;font-weight:normal;writing-mode:lr-tb;fill:#808080;fill-opacity:1;fill-rule:nonzero;stroke:none;font-family:Helvetica;-inkscape-font-specification:Helvetica">)</tspan></text>

</g></g><g
           id="g542"><g
             clip-path="url(#clipPath546)"
             id="g544" /></g></g></g><path
       d="m 545.55,531.9 58.25,-6.2 c 0.28,-0.03 0.48,-0.28 0.45,-0.55 -0.03,-0.28 -0.28,-0.48 -0.55,-0.45 l -58.25,6.2 c -0.28,0.03 -0.48,0.28 -0.45,0.55 0.03,0.28 0.28,0.48 0.55,0.45 z m -0.37,-3.48 c -1.65,0.17 -2.84,1.65 -2.66,3.3 0.17,1.65 1.65,2.84 3.3,2.66 1.65,-0.17 2.84,-1.65 2.66,-3.3 -0.17,-1.65 -1.65,-2.84 -3.3,-2.66 z"
       inkscape:connector-curvature="0"
       id="path550"
       style="fill:#7f7f7f;fill-opacity:1;fill-rule:nonzero;stroke:none" /><path
       d="m 514.81,583.9 86.25,-1.55 c 0.28,-0.01 0.49,-0.23 0.49,-0.51 -0.01,-0.28 -0.23,-0.49 -0.51,-0.49 l -86.25,1.55 c -0.28,0.01 -0.49,0.23 -0.49,0.51 0,0.28 0.23,0.49 0.51,0.49 z m -0.06,-3.5 c -1.66,0.03 -2.98,1.4 -2.95,3.05 0.03,1.66 1.4,2.98 3.05,2.95 1.66,-0.03 2.98,-1.4 2.95,-3.05 -0.03,-1.66 -1.4,-2.98 -3.05,-2.95 z"
       inkscape:connector-curvature="0"
       id="path552"
       style="fill:#7f7f7f;fill-opacity:1;fill-rule:nonzero;stroke:none" /><path
       d="m 542.14,569.3 58.5,1.5 c 0.27,0.01 0.5,-0.21 0.51,-0.49 0.01,-0.27 -0.21,-0.5 -0.49,-0.51 l -58.5,-1.5 c -0.27,-0.01 -0.5,0.21 -0.51,0.49 -0.01,0.27 0.21,0.5 0.49,0.51 z m 0.09,-3.5 c -1.66,-0.04 -3.04,1.27 -3.08,2.92 -0.04,1.66 1.27,3.04 2.92,3.08 1.66,0.04 3.04,-1.27 3.08,-2.92 0.04,-1.66 -1.27,-3.04 -2.92,-3.08 z"
       inkscape:connector-curvature="0"
       id="path554"
       style="fill:#7f7f7f;fill-opacity:1;fill-rule:nonzero;stroke:none" /><path
       d="m 603.75,563.25 154.5,0 0,26.25 -154.5,0 0,-26.25 z"
       inkscape:connector-curvature="0"
       id="path556"
       style="fill:#ffffff;fill-opacity:1;fill-rule:evenodd;stroke:none" /><g
       id="g558"><g
         clip-path="url(#clipPath562)"
         id="g560"><g
           id="g566"><g
             clip-path="url(#clipPath570)"
             id="g568"><text
   transform="matrix(1,0,0,-1,610.99,575.47)"
   id="text574"><tspan
     x="0 7.31952 12.83952 18.97776 26.76096 32.8992 36.57552 42.71376 48.852001 54.990238 60.587521 63.700802 69.099358 74.729759 80.867996 86.851677 90.561119 96.699364 99.084 105.22224 111.32736 114.44064 120.43536"
     y="0"
     id="tspan576"
     style="font-size:11.03999996px;font-variant:normal;font-weight:normal;writing-mode:lr-tb;fill:#808080;fill-opacity:1;fill-rule:nonzero;stroke:none;font-family:Helvetica;-inkscape-font-specification:Helvetica">Schwerpunktskoordinaten</tspan></text>

</g></g><g
           id="g578"><g
             clip-path="url(#clipPath582)"
             id="g580" /></g></g></g><path
       d="m 433.8,560.45 130.2,0"
       inkscape:connector-curvature="0"
       id="path586"
       style="fill:none;stroke:#000000;stroke-width:0.75;stroke-linecap:round;stroke-linejoin:round;stroke-miterlimit:8;stroke-opacity:1;stroke-dasharray:none" /><path
       d="m 564.25,545.3 38.6,3.8 c 0.28,0.02 0.52,-0.18 0.55,-0.45 0.02,-0.28 -0.18,-0.52 -0.45,-0.55 l -38.6,-3.8 c -0.28,-0.02 -0.52,0.18 -0.55,0.45 -0.02,0.28 0.18,0.52 0.45,0.55 z m 0.34,-3.49 c -1.65,-0.16 -3.11,1.05 -3.28,2.7 -0.16,1.65 1.05,3.11 2.7,3.28 1.64,0.16 3.11,-1.05 3.28,-2.7 0.16,-1.64 -1.05,-3.11 -2.7,-3.28 z"
       inkscape:connector-curvature="0"
       id="path588"
       style="fill:#7f7f7f;fill-opacity:1;fill-rule:nonzero;stroke:none" /></g></svg>