<?xml version="1.0" encoding="UTF-8" standalone="no"?>
<!-- Created with Inkscape (http://www.inkscape.org/) -->

<svg
   xmlns:dc="http://purl.org/dc/elements/1.1/"
   xmlns:cc="http://creativecommons.org/ns#"
   xmlns:rdf="http://www.w3.org/1999/02/22-rdf-syntax-ns#"
   xmlns:svg="http://www.w3.org/2000/svg"
   xmlns="http://www.w3.org/2000/svg"
   xmlns:sodipodi="http://sodipodi.sourceforge.net/DTD/sodipodi-0.dtd"
   xmlns:inkscape="http://www.inkscape.org/namespaces/inkscape"
   version="1.1"
   width="627.1875"
   height="262.5"
   id="svg2"
   xml:space="preserve"
   inkscape:version="0.48.4 r9939"
   sodipodi:docname="Bild 1-11 Einfache Ebenenstruktur.svg"><sodipodi:namedview
     pagecolor="#ffffff"
     bordercolor="#666666"
     borderopacity="1"
     objecttolerance="10"
     gridtolerance="10"
     guidetolerance="10"
     inkscape:pageopacity="0"
     inkscape:pageshadow="2"
     inkscape:window-width="640"
     inkscape:window-height="480"
     id="namedview84"
     showgrid="false"
     inkscape:zoom="0.18730159"
     inkscape:cx="353.34375"
     inkscape:cy="95.15625"
     inkscape:window-x="0"
     inkscape:window-y="0"
     inkscape:window-maximized="0"
     inkscape:current-layer="svg2" /><metadata
     id="metadata8"><rdf:RDF><cc:Work
         rdf:about=""><dc:format>image/svg+xml</dc:format><dc:type
           rdf:resource="http://purl.org/dc/dcmitype/StillImage" /></cc:Work></rdf:RDF></metadata><defs
     id="defs6"><clipPath
       id="clipPath20"><path
         d="m 222.39,554.47 139.46,0 0,78.96 -139.46,0 0,-78.96 z"
         inkscape:connector-curvature="0"
         id="path22" /></clipPath><clipPath
       id="clipPath28"><path
         d="m 222.38,554.47 139.46,0 0,78.96 -139.46,0 0,-78.96 z"
         inkscape:connector-curvature="0"
         id="path30" /></clipPath><clipPath
       id="clipPath36"><path
         d="m 222.38,554.47 139.46,0 0,78.96 -139.46,0 0,-78.96 z"
         inkscape:connector-curvature="0"
         id="path38" /></clipPath><clipPath
       id="clipPath44"><path
         d="m 222.38,554.47 139.46,0 0,78.96 -139.46,0 0,-78.96 z"
         inkscape:connector-curvature="0"
         id="path46" /></clipPath><clipPath
       id="clipPath56"><path
         d="m 222.38,554.47 139.46,0 0,78.96 -139.46,0 0,-78.96 z"
         inkscape:connector-curvature="0"
         id="path58" /></clipPath><clipPath
       id="clipPath68"><path
         d="m 403.97,493.75 139.47,0 0,78.96 -139.47,0 0,-78.96 z"
         inkscape:connector-curvature="0"
         id="path70" /></clipPath><clipPath
       id="clipPath76"><path
         d="m 403.97,493.75 139.46,0 0,78.96 -139.46,0 0,-78.96 z"
         inkscape:connector-curvature="0"
         id="path78" /></clipPath><clipPath
       id="clipPath84"><path
         d="m 403.97,493.75 139.46,0 0,78.96 -139.46,0 0,-78.96 z"
         inkscape:connector-curvature="0"
         id="path86" /></clipPath><clipPath
       id="clipPath92"><path
         d="m 403.97,493.75 139.46,0 0,78.96 -139.46,0 0,-78.96 z"
         inkscape:connector-curvature="0"
         id="path94" /></clipPath><clipPath
       id="clipPath104"><path
         d="m 403.97,493.75 139.46,0 0,78.96 -139.46,0 0,-78.96 z"
         inkscape:connector-curvature="0"
         id="path106" /></clipPath><clipPath
       id="clipPath116"><path
         d="m 583.28,432.16 139.46,0 0,78.99 -139.46,0 0,-78.99 z"
         inkscape:connector-curvature="0"
         id="path118" /></clipPath><clipPath
       id="clipPath124"><path
         d="m 583.27,432.17 139.46,0 0,78.984 -139.46,0 0,-78.984 z"
         inkscape:connector-curvature="0"
         id="path126" /></clipPath><clipPath
       id="clipPath132"><path
         d="m 583.27,432.17 139.46,0 0,78.984 -139.46,0 0,-78.984 z"
         inkscape:connector-curvature="0"
         id="path134" /></clipPath><clipPath
       id="clipPath140"><path
         d="m 583.27,432.17 139.46,0 0,78.984 -139.46,0 0,-78.984 z"
         inkscape:connector-curvature="0"
         id="path142" /></clipPath><clipPath
       id="clipPath152"><path
         d="m 583.27,432.17 139.46,0 0,78.984 -139.46,0 0,-78.984 z"
         inkscape:connector-curvature="0"
         id="path154" /></clipPath></defs><g
     transform="matrix(1.25,0,0,-1.25,-277.03125,797.34375)"
     id="g10"><path
       d="m 222,550.5 140.25,0 0,87 -140.25,0 0,-87 z"
       inkscape:connector-curvature="0"
       id="path12"
       style="fill:#ffffff;fill-opacity:1;fill-rule:evenodd;stroke:none" /><path
       d="m 222,550.5 140.25,0 0,87 -140.25,0 0,-87 z"
       inkscape:connector-curvature="0"
       id="path14"
       style="fill:none;stroke:#000000;stroke-width:0.75;stroke-linecap:round;stroke-linejoin:miter;stroke-miterlimit:10;stroke-opacity:1;stroke-dasharray:none" /><g
       id="g16"><g
         clip-path="url(#clipPath20)"
         id="g18"><g
           id="g24"><g
             clip-path="url(#clipPath28)"
             id="g26" /></g><g
           id="g32"><g
             clip-path="url(#clipPath36)"
             id="g34" /></g><g
           id="g40"><g
             clip-path="url(#clipPath44)"
             id="g42"><text
   transform="matrix(1,0,0,-1,253.94,592.75)"
   id="text48"><tspan
     x="0 9.3646803 17.170919 20.2878 23.40468 30.466801 37.304279 41.249519 49.055759 56.862 63.68544 71.491676"
     y="0"
     id="tspan50"
     style="font-size:14.03999996px;font-variant:normal;font-weight:normal;writing-mode:lr-tb;fill:#000000;fill-opacity:1;fill-rule:nonzero;stroke:none;font-family:Helvetica;-inkscape-font-specification:Helvetica">Policy Layer</tspan></text>

</g></g><g
           id="g52"><g
             clip-path="url(#clipPath56)"
             id="g54" /></g></g></g><path
       d="m 403.5,489.75 140.25,0 0,87 -140.25,0 0,-87 z"
       inkscape:connector-curvature="0"
       id="path60"
       style="fill:#ffffff;fill-opacity:1;fill-rule:evenodd;stroke:none" /><path
       d="m 403.5,489.75 140.25,0 0,87 -140.25,0 0,-87 z"
       inkscape:connector-curvature="0"
       id="path62"
       style="fill:none;stroke:#000000;stroke-width:0.75;stroke-linecap:round;stroke-linejoin:miter;stroke-miterlimit:10;stroke-opacity:1;stroke-dasharray:none" /><g
       id="g64"><g
         clip-path="url(#clipPath68)"
         id="g66"><g
           id="g72"><g
             clip-path="url(#clipPath76)"
             id="g74" /></g><g
           id="g80"><g
             clip-path="url(#clipPath84)"
             id="g82" /></g><g
           id="g88"><g
             clip-path="url(#clipPath92)"
             id="g90"><text
   transform="matrix(1,0,0,-1,418.49,532.03)"
   id="text96"><tspan
     x="0 11.63916 19.4454 26.507521 34.313759 42.119999 49.926239 52.902721 59.96484 71.603996 75.54924 83.355476 91.16172 97.985161 105.7914"
     y="0"
     id="tspan98"
     style="font-size:14.03999996px;font-variant:normal;font-weight:normal;writing-mode:lr-tb;fill:#000000;fill-opacity:1;fill-rule:nonzero;stroke:none;font-family:Helvetica;-inkscape-font-specification:Helvetica">Mechanism Layer</tspan></text>

</g></g><g
           id="g100"><g
             clip-path="url(#clipPath104)"
             id="g102" /></g></g></g><path
       d="m 582.75,428.25 140.25,0 0,87 -140.25,0 0,-87 z"
       inkscape:connector-curvature="0"
       id="path108"
       style="fill:#ffffff;fill-opacity:1;fill-rule:evenodd;stroke:none" /><path
       d="m 582.75,428.25 140.25,0 0,87 -140.25,0 0,-87 z"
       inkscape:connector-curvature="0"
       id="path110"
       style="fill:none;stroke:#000000;stroke-width:0.75;stroke-linecap:round;stroke-linejoin:miter;stroke-miterlimit:10;stroke-opacity:1;stroke-dasharray:none" /><g
       id="g112"><g
         clip-path="url(#clipPath116)"
         id="g114"><g
           id="g120"><g
             clip-path="url(#clipPath124)"
             id="g122" /></g><g
           id="g128"><g
             clip-path="url(#clipPath132)"
             id="g130" /></g><g
           id="g136"><g
             clip-path="url(#clipPath140)"
             id="g138"><text
   transform="matrix(1,0,0,-1,616.51,470.47)"
   id="text144"><tspan
     x="0 10.08072 14.02596 17.142839 20.25972 23.3766 27.33588 34.173359 38.118599 45.924839 53.731079 60.55452 68.360764"
     y="0"
     id="tspan146"
     style="font-size:14.03999996px;font-variant:normal;font-weight:normal;writing-mode:lr-tb;fill:#000000;fill-opacity:1;fill-rule:nonzero;stroke:none;font-family:Helvetica;-inkscape-font-specification:Helvetica">Utility Layer</tspan></text>

</g></g><g
           id="g148"><g
             clip-path="url(#clipPath152)"
             id="g150" /></g></g></g><g
       id="g156"><path
         d="m 363.75,607.5 108,0"
         inkscape:connector-curvature="0"
         id="path158"
         style="fill:none;stroke:#000000;stroke-width:0.75;stroke-linecap:round;stroke-linejoin:round;stroke-miterlimit:10;stroke-opacity:1;stroke-dasharray:2.25, 3;stroke-dashoffset:0" /></g><path
       d="m 472.25,607.65 0,-3 c 0,-0.28 -0.22,-0.5 -0.5,-0.5 -0.28,0 -0.5,0.22 -0.5,0.5 l 0,3 c 0,0.28 0.22,0.5 0.5,0.5 0.28,0 0.5,-0.22 0.5,-0.5 z m 0,-7 0,-3 c 0,-0.28 -0.22,-0.5 -0.5,-0.5 -0.28,0 -0.5,0.22 -0.5,0.5 l 0,3 c 0,0.28 0.22,0.5 0.5,0.5 0.28,0 0.5,-0.22 0.5,-0.5 z m 0,-7 0,-3 c 0,-0.28 -0.22,-0.5 -0.5,-0.5 -0.28,0 -0.5,0.22 -0.5,0.5 l 0,3 c 0,0.28 0.22,0.5 0.5,0.5 0.28,0 0.5,-0.22 0.5,-0.5 z m 0,-7 0,-3 c 0,-0.28 -0.22,-0.5 -0.5,-0.5 -0.28,0 -0.5,0.22 -0.5,0.5 l 0,3 c 0,0.28 0.22,0.5 0.5,0.5 0.28,0 0.5,-0.22 0.5,-0.5 z m 0,-7 0,0 c 0,-0.28 -0.22,-0.5 -0.5,-0.5 -0.28,0 -0.5,0.22 -0.5,0.5 l 0,0 c 0,0.28 0.22,0.5 0.5,0.5 0.28,0 0.5,-0.22 0.5,-0.5 z m 4.88,5.68 -5.38,-6.46 -5.38,6.46 c -0.18,0.21 -0.15,0.53 0.06,0.7 0.21,0.18 0.53,0.15 0.7,-0.06 l 5,-6 -0.76,0 5,6 c 0.17,0.21 0.49,0.24 0.7,0.06 0.21,-0.17 0.24,-0.49 0.06,-0.7 z"
       inkscape:connector-curvature="0"
       id="path160"
       style="fill:#000000;fill-opacity:1;fill-rule:nonzero;stroke:none" /><g
       id="g162"><path
         d="m 545.25,544.5 108,0"
         inkscape:connector-curvature="0"
         id="path164"
         style="fill:none;stroke:#000000;stroke-width:0.75;stroke-linecap:round;stroke-linejoin:round;stroke-miterlimit:10;stroke-opacity:1;stroke-dasharray:2.25, 3;stroke-dashoffset:0" /></g><path
       d="m 653.75,544.65 0,-3 c 0,-0.28 -0.22,-0.5 -0.5,-0.5 -0.28,0 -0.5,0.22 -0.5,0.5 l 0,3 c 0,0.28 0.22,0.5 0.5,0.5 0.28,0 0.5,-0.22 0.5,-0.5 z m 0,-7 0,-3 c 0,-0.28 -0.22,-0.5 -0.5,-0.5 -0.28,0 -0.5,0.22 -0.5,0.5 l 0,3 c 0,0.28 0.22,0.5 0.5,0.5 0.28,0 0.5,-0.22 0.5,-0.5 z m 0,-7 0,-3 c 0,-0.28 -0.22,-0.5 -0.5,-0.5 -0.28,0 -0.5,0.22 -0.5,0.5 l 0,3 c 0,0.28 0.22,0.5 0.5,0.5 0.28,0 0.5,-0.22 0.5,-0.5 z m 0,-7 0,-3 c 0,-0.28 -0.22,-0.5 -0.5,-0.5 -0.28,0 -0.5,0.22 -0.5,0.5 l 0,3 c 0,0.28 0.22,0.5 0.5,0.5 0.28,0 0.5,-0.22 0.5,-0.5 z m 0,-7 0,0 c 0,-0.28 -0.22,-0.5 -0.5,-0.5 -0.28,0 -0.5,0.22 -0.5,0.5 l 0,0 c 0,0.28 0.22,0.5 0.5,0.5 0.28,0 0.5,-0.22 0.5,-0.5 z m 4.88,5.68 -5.38,-6.46 -5.38,6.46 c -0.18,0.21 -0.15,0.53 0.06,0.7 0.21,0.18 0.53,0.15 0.7,-0.06 l 5,-6 -0.76,0 5,6 c 0.17,0.21 0.49,0.24 0.7,0.06 0.21,-0.17 0.24,-0.49 0.06,-0.7 z"
       inkscape:connector-curvature="0"
       id="path166"
       style="fill:#000000;fill-opacity:1;fill-rule:nonzero;stroke:none" /></g></svg>