<?xml version="1.0" encoding="UTF-8" standalone="no"?>
<!-- Created with Inkscape (http://www.inkscape.org/) -->

<svg
   xmlns:dc="http://purl.org/dc/elements/1.1/"
   xmlns:cc="http://creativecommons.org/ns#"
   xmlns:rdf="http://www.w3.org/1999/02/22-rdf-syntax-ns#"
   xmlns:svg="http://www.w3.org/2000/svg"
   xmlns="http://www.w3.org/2000/svg"
   xmlns:sodipodi="http://sodipodi.sourceforge.net/DTD/sodipodi-0.dtd"
   xmlns:inkscape="http://www.inkscape.org/namespaces/inkscape"
   version="1.1"
   width="349.34375"
   height="277.5"
   id="svg2"
   xml:space="preserve"
   inkscape:version="0.48.4 r9939"
   sodipodi:docname="Bild 1-7 Aufweichen einer Vorbedingung in einer abgeleiteten Klasse.svg"><sodipodi:namedview
     pagecolor="#ffffff"
     bordercolor="#666666"
     borderopacity="1"
     objecttolerance="10"
     gridtolerance="10"
     guidetolerance="10"
     inkscape:pageopacity="0"
     inkscape:pageshadow="2"
     inkscape:window-width="640"
     inkscape:window-height="480"
     id="namedview209"
     showgrid="false"
     inkscape:zoom="0.18730159"
     inkscape:cx="452.28125"
     inkscape:cy="-118.375"
     inkscape:window-x="0"
     inkscape:window-y="0"
     inkscape:window-maximized="0"
     inkscape:current-layer="svg2" /><metadata
     id="metadata8"><rdf:RDF><cc:Work
         rdf:about=""><dc:format>image/svg+xml</dc:format><dc:type
           rdf:resource="http://purl.org/dc/dcmitype/StillImage" /></cc:Work></rdf:RDF></metadata><defs
     id="defs6"><clipPath
       id="clipPath24"><path
         d="m 164.19,640.51 105.72,0 0,31.815 -105.72,0 0,-31.815 z"
         inkscape:connector-curvature="0"
         id="path26" /></clipPath><clipPath
       id="clipPath32"><path
         d="m 164.18,640.51 105.72,0 0,31.824 -105.72,0 0,-31.824 z"
         inkscape:connector-curvature="0"
         id="path34" /></clipPath><clipPath
       id="clipPath44"><path
         d="m 164.18,640.51 105.72,0 0,31.824 -105.72,0 0,-31.824 z"
         inkscape:connector-curvature="0"
         id="path46" /></clipPath><clipPath
       id="clipPath56"><path
         d="m 164.18,640.51 105.72,0 0,31.824 -105.72,0 0,-31.824 z"
         inkscape:connector-curvature="0"
         id="path58" /></clipPath><clipPath
       id="clipPath64"><path
         d="m 164.18,640.51 105.72,0 0,31.824 -105.72,0 0,-31.824 z"
         inkscape:connector-curvature="0"
         id="path66" /></clipPath><clipPath
       id="clipPath76"><path
         d="m 164.18,640.51 105.72,0 0,31.824 -105.72,0 0,-31.824 z"
         inkscape:connector-curvature="0"
         id="path78" /></clipPath><clipPath
       id="clipPath88"><path
         d="m 164.18,640.51 105.72,0 0,31.824 -105.72,0 0,-31.824 z"
         inkscape:connector-curvature="0"
         id="path90" /></clipPath><clipPath
       id="clipPath98"><path
         d="m 282.65,602.35 109.56,0 0,34.68 -109.56,0 0,-34.68 z"
         inkscape:connector-curvature="0"
         id="path100" /></clipPath><clipPath
       id="clipPath106"><path
         d="m 282.65,602.35 109.56,0 0,34.68 -109.56,0 0,-34.68 z"
         inkscape:connector-curvature="0"
         id="path108" /></clipPath><clipPath
       id="clipPath118"><path
         d="m 282.65,602.35 109.56,0 0,34.68 -109.56,0 0,-34.68 z"
         inkscape:connector-curvature="0"
         id="path120" /></clipPath><clipPath
       id="clipPath130"><path
         d="m 282.65,602.35 109.56,0 0,34.68 -109.56,0 0,-34.68 z"
         inkscape:connector-curvature="0"
         id="path132" /></clipPath><clipPath
       id="clipPath138"><path
         d="m 282.65,602.35 109.56,0 0,34.68 -109.56,0 0,-34.68 z"
         inkscape:connector-curvature="0"
         id="path140" /></clipPath><clipPath
       id="clipPath150"><path
         d="m 282.65,602.35 109.56,0 0,34.68 -109.56,0 0,-34.68 z"
         inkscape:connector-curvature="0"
         id="path152" /></clipPath><clipPath
       id="clipPath162"><path
         d="m 282.65,602.35 109.56,0 0,34.68 -109.56,0 0,-34.68 z"
         inkscape:connector-curvature="0"
         id="path164" /></clipPath><clipPath
       id="clipPath176"><path
         d="m 166.83,740.97 158.42,0 0,72 -158.42,0 0,-72 z"
         inkscape:connector-curvature="0"
         id="path178" /></clipPath><clipPath
       id="clipPath184"><path
         d="m 166.82,740.98 158.42,0 0,72 -158.42,0 0,-72 z"
         inkscape:connector-curvature="0"
         id="path186" /></clipPath><clipPath
       id="clipPath196"><path
         d="m 166.82,740.98 158.42,0 0,72 -158.42,0 0,-72 z"
         inkscape:connector-curvature="0"
         id="path198" /></clipPath><clipPath
       id="clipPath204"><path
         d="m 166.82,740.98 158.42,0 0,72 -158.42,0 0,-72 z"
         inkscape:connector-curvature="0"
         id="path206" /></clipPath><clipPath
       id="clipPath216"><path
         d="m 166.82,740.98 158.42,0 0,72 -158.42,0 0,-72 z"
         inkscape:connector-curvature="0"
         id="path218" /></clipPath><clipPath
       id="clipPath228"><path
         d="m 166.82,740.98 158.42,0 0,72 -158.42,0 0,-72 z"
         inkscape:connector-curvature="0"
         id="path230" /></clipPath><clipPath
       id="clipPath240"><path
         d="m 166.82,740.98 158.42,0 0,72 -158.42,0 0,-72 z"
         inkscape:connector-curvature="0"
         id="path242" /></clipPath><clipPath
       id="clipPath248"><path
         d="m 166.82,740.98 158.42,0 0,72 -158.42,0 0,-72 z"
         inkscape:connector-curvature="0"
         id="path250" /></clipPath><clipPath
       id="clipPath260"><path
         d="m 166.82,740.98 158.42,0 0,72 -158.42,0 0,-72 z"
         inkscape:connector-curvature="0"
         id="path262" /></clipPath><clipPath
       id="clipPath272"><path
         d="m 166.82,740.98 158.42,0 0,72 -158.42,0 0,-72 z"
         inkscape:connector-curvature="0"
         id="path274" /></clipPath><clipPath
       id="clipPath284"><path
         d="m 166.82,740.98 158.42,0 0,72 -158.42,0 0,-72 z"
         inkscape:connector-curvature="0"
         id="path286" /></clipPath><clipPath
       id="clipPath296"><path
         d="m 166.82,740.98 158.42,0 0,72 -158.42,0 0,-72 z"
         inkscape:connector-curvature="0"
         id="path298" /></clipPath><clipPath
       id="clipPath306"><path
         d="m 322.25,741.09 99.72,0 0,75.96 -99.72,0 0,-75.96 z"
         inkscape:connector-curvature="0"
         id="path308" /></clipPath><clipPath
       id="clipPath314"><path
         d="m 322.25,741.1 99.72,0 0,75.96 -99.72,0 0,-75.96 z"
         inkscape:connector-curvature="0"
         id="path316" /></clipPath><clipPath
       id="clipPath326"><path
         d="m 322.25,741.1 99.72,0 0,75.96 -99.72,0 0,-75.96 z"
         inkscape:connector-curvature="0"
         id="path328" /></clipPath><clipPath
       id="clipPath334"><path
         d="m 322.25,741.1 99.72,0 0,75.96 -99.72,0 0,-75.96 z"
         inkscape:connector-curvature="0"
         id="path336" /></clipPath><clipPath
       id="clipPath346"><path
         d="m 322.25,741.1 99.72,0 0,75.96 -99.72,0 0,-75.96 z"
         inkscape:connector-curvature="0"
         id="path348" /></clipPath><clipPath
       id="clipPath358"><path
         d="m 322.25,741.1 99.72,0 0,75.96 -99.72,0 0,-75.96 z"
         inkscape:connector-curvature="0"
         id="path360" /></clipPath><clipPath
       id="clipPath370"><path
         d="m 322.25,741.1 99.72,0 0,75.96 -99.72,0 0,-75.96 z"
         inkscape:connector-curvature="0"
         id="path372" /></clipPath><clipPath
       id="clipPath378"><path
         d="m 322.25,741.1 99.72,0 0,75.96 -99.72,0 0,-75.96 z"
         inkscape:connector-curvature="0"
         id="path380" /></clipPath><clipPath
       id="clipPath390"><path
         d="m 322.25,741.1 99.72,0 0,75.96 -99.72,0 0,-75.96 z"
         inkscape:connector-curvature="0"
         id="path392" /></clipPath><clipPath
       id="clipPath402"><path
         d="m 322.25,741.1 99.72,0 0,75.96 -99.72,0 0,-75.96 z"
         inkscape:connector-curvature="0"
         id="path404" /></clipPath><clipPath
       id="clipPath414"><path
         d="m 322.25,741.1 99.72,0 0,75.96 -99.72,0 0,-75.96 z"
         inkscape:connector-curvature="0"
         id="path416" /></clipPath></defs><g
     transform="matrix(1.25,0,0,-1.25,-178.09375,1025.875)"
     id="g10"><path
       d="m 242.97,708.95 c -55.3,0 -100.12,-24.34 -100.12,-54.37 0,-30.04 44.82,-54.38 100.12,-54.38 55.31,0 100.13,24.34 100.13,54.38 0,30.03 -44.82,54.37 -100.13,54.37 z"
       inkscape:connector-curvature="0"
       id="path12"
       style="fill:#ffffff;fill-opacity:1;fill-rule:evenodd;stroke:none" /><path
       d="m 242.97,708.95 c -55.3,0 -100.12,-24.34 -100.12,-54.37 0,-30.04 44.82,-54.38 100.12,-54.38 55.31,0 100.13,24.34 100.13,54.38 0,30.03 -44.82,54.37 -100.13,54.37 z"
       inkscape:connector-curvature="0"
       id="path14"
       style="fill:none;stroke:#000000;stroke-width:0.75;stroke-linecap:round;stroke-linejoin:round;stroke-miterlimit:10;stroke-opacity:1;stroke-dasharray:none" /><path
       d="m 217.1,690.95 c -36.45,0 -66,-15.45 -66,-34.5 0,-19.05 29.55,-34.5 66,-34.5 36.45,0 66,15.45 66,34.5 0,19.05 -29.55,34.5 -66,34.5 z"
       inkscape:connector-curvature="0"
       id="path16"
       style="fill:#ffffff;fill-opacity:1;fill-rule:evenodd;stroke:none" /><path
       d="m 217.1,690.95 c -36.45,0 -66,-15.45 -66,-34.5 0,-19.05 29.55,-34.5 66,-34.5 36.45,0 66,15.45 66,34.5 0,19.05 -29.55,34.5 -66,34.5 z"
       inkscape:connector-curvature="0"
       id="path18"
       style="fill:none;stroke:#000000;stroke-width:2;stroke-linecap:round;stroke-linejoin:round;stroke-miterlimit:10;stroke-opacity:1;stroke-dasharray:none" /><g
       id="g20"><g
         clip-path="url(#clipPath24)"
         id="g22"><g
           id="g28"><g
             clip-path="url(#clipPath32)"
             id="g30"><text
   transform="matrix(1,0,0,-1,171.38,661.27)"
   id="text36"><tspan
     x="0 8.0279999 14.736 18.732 25.403999 32.015999 38.723999 41.388 48.060001 54.683998 61.391998 68.099998 74.699997"
     y="0"
     id="tspan38"
     style="font-size:12px;font-variant:normal;font-weight:normal;writing-mode:lr-tb;fill:#000000;fill-opacity:1;fill-rule:nonzero;stroke:none;font-family:Helvetica;-inkscape-font-specification:Helvetica">Vorbedingung </tspan></text>

</g></g><g
           id="g40"><g
             clip-path="url(#clipPath44)"
             id="g42"><text
   transform="matrix(1,0,0,-1,171.38,647.47)"
   id="text48"><tspan
     x="0 7.1999998 14.4"
     y="0"
     id="tspan50"
     style="font-size:12px;font-variant:normal;font-weight:normal;writing-mode:lr-tb;fill:#000000;fill-opacity:1;fill-rule:nonzero;stroke:none;font-family:Courier New;-inkscape-font-specification:Courier New">g()</tspan></text>

</g></g><g
           id="g52"><g
             clip-path="url(#clipPath56)"
             id="g54" /></g><g
           id="g60"><g
             clip-path="url(#clipPath64)"
             id="g62"><text
   transform="matrix(1,0,0,-1,196.34,647.47)"
   id="text68"><tspan
     x="0 6.7080002 13.416 19.416"
     y="0"
     id="tspan70"
     style="font-size:12px;font-variant:normal;font-weight:normal;writing-mode:lr-tb;fill:#000000;fill-opacity:1;fill-rule:nonzero;stroke:none;font-family:Helvetica;-inkscape-font-specification:Helvetica">aus </tspan></text>

</g></g><g
           id="g72"><g
             clip-path="url(#clipPath76)"
             id="g74"><text
   transform="matrix(1,0,0,-1,219.14,647.47)"
   id="text80"><tspan
     x="0"
     y="0"
     id="tspan82"
     style="font-size:12px;font-variant:normal;font-weight:normal;writing-mode:lr-tb;fill:#000000;fill-opacity:1;fill-rule:nonzero;stroke:none;font-family:Courier New;-inkscape-font-specification:Courier New">A</tspan></text>

</g></g><g
           id="g84"><g
             clip-path="url(#clipPath88)"
             id="g86" /></g></g></g><path
       d="m 282.65,598.7 109.5,0 0,42 -109.5,0 0,-42 z"
       inkscape:connector-curvature="0"
       id="path92"
       style="fill:#ffffff;fill-opacity:1;fill-rule:evenodd;stroke:none" /><g
       id="g94"><g
         clip-path="url(#clipPath98)"
         id="g96"><g
           id="g102"><g
             clip-path="url(#clipPath106)"
             id="g104"><text
   transform="matrix(1,0,0,-1,289.85,625.99)"
   id="text110"><tspan
     x="0 8.0279999 14.736 18.732 25.403999 32.015999 38.723999 41.388 48.060001 54.683998 61.391998 68.099998 74.699997"
     y="0"
     id="tspan112"
     style="font-size:12px;font-variant:normal;font-weight:normal;writing-mode:lr-tb;fill:#000000;fill-opacity:1;fill-rule:nonzero;stroke:none;font-family:Helvetica;-inkscape-font-specification:Helvetica">Vorbedingung </tspan></text>

</g></g><g
           id="g114"><g
             clip-path="url(#clipPath118)"
             id="g116"><text
   transform="matrix(1,0,0,-1,289.85,612.07)"
   id="text122"><tspan
     x="0 7.1999998 14.4"
     y="0"
     id="tspan124"
     style="font-size:12px;font-variant:normal;font-weight:normal;writing-mode:lr-tb;fill:#000000;fill-opacity:1;fill-rule:nonzero;stroke:none;font-family:Courier New;-inkscape-font-specification:Courier New">g()</tspan></text>

</g></g><g
           id="g126"><g
             clip-path="url(#clipPath130)"
             id="g128" /></g><g
           id="g134"><g
             clip-path="url(#clipPath138)"
             id="g136"><text
   transform="matrix(1,0,0,-1,314.81,612.07)"
   id="text142"><tspan
     x="0 6.7080002 13.416 19.416"
     y="0"
     id="tspan144"
     style="font-size:12px;font-variant:normal;font-weight:normal;writing-mode:lr-tb;fill:#000000;fill-opacity:1;fill-rule:nonzero;stroke:none;font-family:Helvetica;-inkscape-font-specification:Helvetica">aus </tspan></text>

</g></g><g
           id="g146"><g
             clip-path="url(#clipPath150)"
             id="g148"><text
   transform="matrix(1,0,0,-1,337.61,612.07)"
   id="text154"><tspan
     x="0"
     y="0"
     id="tspan156"
     style="font-size:12px;font-variant:normal;font-weight:normal;writing-mode:lr-tb;fill:#000000;fill-opacity:1;fill-rule:nonzero;stroke:none;font-family:Courier New;-inkscape-font-specification:Courier New">B</tspan></text>

</g></g><g
           id="g158"><g
             clip-path="url(#clipPath162)"
             id="g160" /></g></g></g><path
       d="m 257.2,674.51 -4.5,62.8 c -0.02,0.28 0.19,0.52 0.46,0.54 0.28,0.02 0.52,-0.19 0.54,-0.46 l 4.5,-62.8 c 0.02,-0.28 -0.19,-0.52 -0.46,-0.54 -0.28,-0.02 -0.52,0.19 -0.54,0.46 z m 2.49,0.18 c 0.08,-1.1 -0.75,-2.06 -1.85,-2.13 -1.1,-0.08 -2.06,0.75 -2.13,1.85 -0.08,1.1 0.75,2.06 1.85,2.13 1.1,0.08 2.06,-0.75 2.13,-1.85 z"
       inkscape:connector-curvature="0"
       id="path166"
       style="fill:#000000;fill-opacity:1;fill-rule:nonzero;stroke:none" /><path
       d="m 325.63,675.17 22.8,62.25 c 0.1,0.26 0.38,0.39 0.64,0.3 0.26,-0.1 0.39,-0.38 0.3,-0.64 l -22.8,-62.25 c -0.1,-0.26 -0.38,-0.39 -0.64,-0.3 -0.26,0.1 -0.39,0.38 -0.3,0.64 z m 2.35,-0.86 c -0.38,-1.03 -1.53,-1.57 -2.57,-1.19 -1.04,0.38 -1.57,1.53 -1.19,2.57 0.38,1.04 1.53,1.57 2.57,1.19 1.03,-0.38 1.57,-1.53 1.19,-2.57 z"
       inkscape:connector-curvature="0"
       id="path168"
       style="fill:#000000;fill-opacity:1;fill-rule:nonzero;stroke:none" /><path
       d="m 166.8,737.35 158.4,0 0,79.2 -158.4,0 0,-79.2 z"
       inkscape:connector-curvature="0"
       id="path170"
       style="fill:#ffffff;fill-opacity:1;fill-rule:evenodd;stroke:none" /><g
       id="g172"><g
         clip-path="url(#clipPath176)"
         id="g174"><g
           id="g180"><g
             clip-path="url(#clipPath184)"
             id="g182"><text
   transform="matrix(1,0,0,-1,174.02,801.46)"
   id="text188"><tspan
     x="0 7.1999998 14.4"
     y="0"
     id="tspan190"
     style="font-size:12px;font-variant:normal;font-weight:normal;writing-mode:lr-tb;fill:#000000;fill-opacity:1;fill-rule:nonzero;stroke:none;font-family:Courier New;-inkscape-font-specification:Courier New">f()</tspan></text>

</g></g><g
           id="g192"><g
             clip-path="url(#clipPath196)"
             id="g194" /></g><g
           id="g200"><g
             clip-path="url(#clipPath204)"
             id="g202"><text
   transform="matrix(1,0,0,-1,198.98,801.46)"
   id="text208"><tspan
     x="0 6 12.708 19.416 26.016001 29.351999 36.084 38.748001 45.419998 51.419998 58.043999"
     y="0"
     id="tspan210"
     style="font-size:12px;font-variant:normal;font-weight:normal;writing-mode:lr-tb;fill:#000000;fill-opacity:1;fill-rule:nonzero;stroke:none;font-family:Helvetica;-inkscape-font-specification:Helvetica">kann diese </tspan></text>

</g></g><g
           id="g212"><g
             clip-path="url(#clipPath216)"
             id="g214"><text
   transform="matrix(1,0,0,-1,174.02,787.06)"
   id="text220"><tspan
     x="0 8.0279999 14.736 18.732 25.403999 32.015999 38.723999 41.388 48.060001 54.683998 61.391998 68.099998 74.699997 78.036003 84.767998 87.431999 94.103996 100.728 107.436 110.1 113.436 120.036 126.744 130.08"
     y="0"
     id="tspan222"
     style="font-size:12px;font-variant:normal;font-weight:normal;writing-mode:lr-tb;fill:#000000;fill-opacity:1;fill-rule:nonzero;stroke:none;font-family:Helvetica;-inkscape-font-specification:Helvetica">Vorbedingung einhalten. </tspan></text>

</g></g><g
           id="g224"><g
             clip-path="url(#clipPath228)"
             id="g226"><text
   transform="matrix(1,0,0,-1,174.02,772.78)"
   id="text232"><tspan
     x="0 7.1999998 14.4"
     y="0"
     id="tspan234"
     style="font-size:12px;font-variant:normal;font-weight:normal;writing-mode:lr-tb;fill:#000000;fill-opacity:1;fill-rule:nonzero;stroke:none;font-family:Courier New;-inkscape-font-specification:Courier New">f()</tspan></text>

</g></g><g
           id="g236"><g
             clip-path="url(#clipPath240)"
             id="g238" /></g><g
           id="g244"><g
             clip-path="url(#clipPath248)"
             id="g246"><text
   transform="matrix(1,0,0,-1,198.98,772.78)"
   id="text252"><tspan
     x="0 6 12.708 19.416 26.016001 29.351999 36.084 42.683998 49.391998 53.388 56.723999 62.723999 69.396004 72.059998 78.779999 85.379997"
     y="0"
     id="tspan254"
     style="font-size:12px;font-variant:normal;font-weight:normal;writing-mode:lr-tb;fill:#000000;fill-opacity:1;fill-rule:nonzero;stroke:none;font-family:Helvetica;-inkscape-font-specification:Helvetica">kann aber keine </tspan></text>

</g></g><g
           id="g256"><g
             clip-path="url(#clipPath260)"
             id="g258"><text
   transform="matrix(1,0,0,-1,174.02,758.38)"
   id="text264"><tspan
     x="0 6 12 18.708 25.416 29.256001 32.723999 39.431999 43.428001 50.099998 53.352001 61.380001 68.087997 72.084 78.755997 85.367996 92.075996 94.739998 101.412 108.036 114.744 121.344 127.944"
     y="0"
     id="tspan266"
     style="font-size:12px;font-variant:normal;font-weight:normal;writing-mode:lr-tb;fill:#000000;fill-opacity:1;fill-rule:nonzero;stroke:none;font-family:Helvetica;-inkscape-font-specification:Helvetica">sch채rfere Vorbedingung </tspan></text>

</g></g><g
           id="g268"><g
             clip-path="url(#clipPath272)"
             id="g270"><text
   transform="matrix(1,0,0,-1,174.02,744.58)"
   id="text276"><tspan
     x="0 6.5999999 13.308 21.827999 28.535999 35.243999 39.240002 41.844002 48.551998 51.216 57.216 60.551998 67.260002"
     y="0"
     id="tspan278"
     style="font-size:12px;font-variant:normal;font-weight:normal;writing-mode:lr-tb;fill:#000000;fill-opacity:1;fill-rule:nonzero;stroke:none;font-family:Helvetica;-inkscape-font-specification:Helvetica">gew채hrleisten</tspan></text>

</g></g><g
           id="g280"><g
             clip-path="url(#clipPath284)"
             id="g282"><text
   transform="matrix(1,0,0,-1,248.06,744.58)"
   id="text288"><tspan
     x="0"
     y="0"
     id="tspan290"
     style="font-size:12px;font-variant:normal;font-weight:normal;writing-mode:lr-tb;fill:#000000;fill-opacity:1;fill-rule:nonzero;stroke:none;font-family:Helvetica;-inkscape-font-specification:Helvetica">.</tspan></text>

</g></g><g
           id="g292"><g
             clip-path="url(#clipPath296)"
             id="g294" /></g></g></g><path
       d="m 322.2,737.45 99.75,0 0,83.25 -99.75,0 0,-83.25 z"
       inkscape:connector-curvature="0"
       id="path300"
       style="fill:#ffffff;fill-opacity:1;fill-rule:evenodd;stroke:none" /><g
       id="g302"><g
         clip-path="url(#clipPath306)"
         id="g304"><g
           id="g310"><g
             clip-path="url(#clipPath314)"
             id="g312"><text
   transform="matrix(1,0,0,-1,329.45,805.54)"
   id="text318"><tspan
     x="0 7.1999998 14.4"
     y="0"
     id="tspan320"
     style="font-size:12px;font-variant:normal;font-weight:normal;writing-mode:lr-tb;fill:#000000;fill-opacity:1;fill-rule:nonzero;stroke:none;font-family:Courier New;-inkscape-font-specification:Courier New">f()</tspan></text>

</g></g><g
           id="g322"><g
             clip-path="url(#clipPath326)"
             id="g324" /></g><g
           id="g330"><g
             clip-path="url(#clipPath334)"
             id="g332"><text
   transform="matrix(1,0,0,-1,354.41,805.54)"
   id="text338"><tspan
     x="0 6.7080002 13.416 16.752001 20.124001 26.004 32.712002 35.375999 42.048"
     y="0"
     id="tspan340"
     style="font-size:12px;font-variant:normal;font-weight:normal;writing-mode:lr-tb;fill:#000000;fill-opacity:1;fill-rule:nonzero;stroke:none;font-family:Helvetica;-inkscape-font-specification:Helvetica">hat kein </tspan></text>

</g></g><g
           id="g342"><g
             clip-path="url(#clipPath346)"
             id="g344"><text
   transform="matrix(1,0,0,-1,329.45,791.14)"
   id="text350"><tspan
     x="0 8.0279999 12.024 18.695999 25.416 28.08 34.655998 44.723999 48.060001 51.431999 58.139999 60.66 67.367996 74.075996"
     y="0"
     id="tspan352"
     style="font-size:12px;font-variant:normal;font-weight:normal;writing-mode:lr-tb;fill:#000000;fill-opacity:1;fill-rule:nonzero;stroke:none;font-family:Helvetica;-inkscape-font-specification:Helvetica">Problem, eine </tspan></text>

</g></g><g
           id="g354"><g
             clip-path="url(#clipPath358)"
             id="g356"><text
   transform="matrix(1,0,0,-1,329.45,777.34)"
   id="text362"><tspan
     x="0 6 12 18.708 27.228001 33.936001 39.936001 46.644001 53.352001 57.348"
     y="0"
     id="tspan364"
     style="font-size:12px;font-variant:normal;font-weight:normal;writing-mode:lr-tb;fill:#000000;fill-opacity:1;fill-rule:nonzero;stroke:none;font-family:Helvetica;-inkscape-font-specification:Helvetica">schw채chere</tspan></text>

</g></g><g
           id="g366"><g
             clip-path="url(#clipPath370)"
             id="g368" /></g><g
           id="g374"><g
             clip-path="url(#clipPath378)"
             id="g376"><text
   transform="matrix(1,0,0,-1,329.45,763.54)"
   id="text382"><tspan
     x="0 8.0279999 14.736 18.732 25.403999 32.015999 38.723999 41.388 48.060001 54.683998 61.391998 68.099998 74.699997"
     y="0"
     id="tspan384"
     style="font-size:12px;font-variant:normal;font-weight:normal;writing-mode:lr-tb;fill:#000000;fill-opacity:1;fill-rule:nonzero;stroke:none;font-family:Helvetica;-inkscape-font-specification:Helvetica">Vorbedingung </tspan></text>

</g></g><g
           id="g386"><g
             clip-path="url(#clipPath390)"
             id="g388"><text
   transform="matrix(1,0,0,-1,329.45,749.62)"
   id="text394"><tspan
     x="0 5.8800001 12.588 15.924 22.656 26.652 30.084 36.792 39.456001 42.071999 48.672001"
     y="0"
     id="tspan396"
     style="font-size:12px;font-variant:normal;font-weight:normal;writing-mode:lr-tb;fill:#000000;fill-opacity:1;fill-rule:nonzero;stroke:none;font-family:Helvetica;-inkscape-font-specification:Helvetica">zu erf체llen</tspan></text>

</g></g><g
           id="g398"><g
             clip-path="url(#clipPath402)"
             id="g400"><text
   transform="matrix(1,0,0,-1,384.89,749.62)"
   id="text406"><tspan
     x="0"
     y="0"
     id="tspan408"
     style="font-size:12px;font-variant:normal;font-weight:normal;writing-mode:lr-tb;fill:#000000;fill-opacity:1;fill-rule:nonzero;stroke:none;font-family:Helvetica;-inkscape-font-specification:Helvetica">.</tspan></text>

</g></g><g
           id="g410"><g
             clip-path="url(#clipPath414)"
             id="g412" /></g></g></g></g></svg>