<?xml version="1.0" encoding="UTF-8" standalone="no"?>
<!-- Created with Inkscape (http://www.inkscape.org/) -->

<svg
   xmlns:dc="http://purl.org/dc/elements/1.1/"
   xmlns:cc="http://creativecommons.org/ns#"
   xmlns:rdf="http://www.w3.org/1999/02/22-rdf-syntax-ns#"
   xmlns:svg="http://www.w3.org/2000/svg"
   xmlns="http://www.w3.org/2000/svg"
   xmlns:sodipodi="http://sodipodi.sourceforge.net/DTD/sodipodi-0.dtd"
   xmlns:inkscape="http://www.inkscape.org/namespaces/inkscape"
   version="1.1"
   width="707.22705"
   height="399.41693"
   id="svg2"
   xml:space="preserve"
   inkscape:version="0.48.4 r9939"
   sodipodi:docname="Bild 1-1 Daten und Methoden – die Bestandteile von Objekten.svg"><sodipodi:namedview
     pagecolor="#ffffff"
     bordercolor="#666666"
     borderopacity="1"
     objecttolerance="10"
     gridtolerance="10"
     guidetolerance="10"
     inkscape:pageopacity="0"
     inkscape:pageshadow="2"
     inkscape:window-width="640"
     inkscape:window-height="480"
     id="namedview328"
     showgrid="false"
     inkscape:zoom="0.22424933"
     inkscape:cx="354.80729"
     inkscape:cy="231.93014"
     inkscape:window-x="0"
     inkscape:window-y="0"
     inkscape:window-maximized="0"
     inkscape:current-layer="svg2" /><metadata
     id="metadata8"><rdf:RDF><cc:Work
         rdf:about=""><dc:format>image/svg+xml</dc:format><dc:type
           rdf:resource="http://purl.org/dc/dcmitype/StillImage" /></cc:Work></rdf:RDF></metadata><defs
     id="defs6"><clipPath
       id="clipPath16"><path
         d="m 42.841,507.55 258.05,0 0,52.8 -258.05,0 0,-52.8 z"
         inkscape:connector-curvature="0"
         id="path18" /></clipPath><clipPath
       id="clipPath24"><path
         d="m 42.84,507.55 258.05,0 0,52.8 -258.05,0 0,-52.8 z"
         inkscape:connector-curvature="0"
         id="path26" /></clipPath><clipPath
       id="clipPath36"><path
         d="m 42.84,507.55 258.05,0 0,52.8 -258.05,0 0,-52.8 z"
         inkscape:connector-curvature="0"
         id="path38" /></clipPath><clipPath
       id="clipPath44"><path
         d="m 42.84,507.55 258.05,0 0,52.8 -258.05,0 0,-52.8 z"
         inkscape:connector-curvature="0"
         id="path46" /></clipPath><clipPath
       id="clipPath56"><path
         d="m 42.84,507.55 258.05,0 0,52.8 -258.05,0 0,-52.8 z"
         inkscape:connector-curvature="0"
         id="path58" /></clipPath><clipPath
       id="clipPath68"><path
         d="m 42.84,507.55 258.05,0 0,52.8 -258.05,0 0,-52.8 z"
         inkscape:connector-curvature="0"
         id="path70" /></clipPath><clipPath
       id="clipPath76"><path
         d="m 324.92,241.71 246.77,0 0,211.49 -246.77,0 0,-211.49 z"
         inkscape:connector-curvature="0"
         id="path78" /></clipPath><clipPath
       id="clipPath84"><path
         d="m 324.91,241.7 246.77,0 0,211.49 -246.77,0 0,-211.49 z"
         inkscape:connector-curvature="0"
         id="path86" /></clipPath><clipPath
       id="clipPath96"><path
         d="m 324.91,241.7 246.77,0 0,211.49 -246.77,0 0,-211.49 z"
         inkscape:connector-curvature="0"
         id="path98" /></clipPath><clipPath
       id="clipPath108"><path
         d="m 324.91,241.7 246.77,0 0,211.49 -246.77,0 0,-211.49 z"
         inkscape:connector-curvature="0"
         id="path110" /></clipPath><clipPath
       id="clipPath120"><path
         d="m 324.91,241.7 246.77,0 0,211.49 -246.77,0 0,-211.49 z"
         inkscape:connector-curvature="0"
         id="path122" /></clipPath><clipPath
       id="clipPath132"><path
         d="m 324.91,241.7 246.77,0 0,211.49 -246.77,0 0,-211.49 z"
         inkscape:connector-curvature="0"
         id="path134" /></clipPath><clipPath
       id="clipPath144"><path
         d="m 324.91,241.7 246.77,0 0,211.49 -246.77,0 0,-211.49 z"
         inkscape:connector-curvature="0"
         id="path146" /></clipPath><clipPath
       id="clipPath156"><path
         d="m 324.91,241.7 246.77,0 0,211.49 -246.77,0 0,-211.49 z"
         inkscape:connector-curvature="0"
         id="path158" /></clipPath><clipPath
       id="clipPath164"><path
         d="m 324.91,241.7 246.77,0 0,211.49 -246.77,0 0,-211.49 z"
         inkscape:connector-curvature="0"
         id="path166" /></clipPath><clipPath
       id="clipPath172"><path
         d="m 324.91,241.7 246.77,0 0,211.49 -246.77,0 0,-211.49 z"
         inkscape:connector-curvature="0"
         id="path174" /></clipPath><clipPath
       id="clipPath184"><path
         d="m 324.91,241.7 246.77,0 0,211.49 -246.77,0 0,-211.49 z"
         inkscape:connector-curvature="0"
         id="path186" /></clipPath><clipPath
       id="clipPath196"><path
         d="m 324.91,241.7 246.77,0 0,211.49 -246.77,0 0,-211.49 z"
         inkscape:connector-curvature="0"
         id="path198" /></clipPath><clipPath
       id="clipPath208"><path
         d="m 324.91,241.7 246.77,0 0,211.49 -246.77,0 0,-211.49 z"
         inkscape:connector-curvature="0"
         id="path210" /></clipPath><clipPath
       id="clipPath220"><path
         d="m 324.91,241.7 246.77,0 0,211.49 -246.77,0 0,-211.49 z"
         inkscape:connector-curvature="0"
         id="path222" /></clipPath><clipPath
       id="clipPath228"><path
         d="m 324.91,241.7 246.77,0 0,211.49 -246.77,0 0,-211.49 z"
         inkscape:connector-curvature="0"
         id="path230" /></clipPath><clipPath
       id="clipPath240"><path
         d="m 324.91,241.7 246.77,0 0,211.49 -246.77,0 0,-211.49 z"
         inkscape:connector-curvature="0"
         id="path242" /></clipPath><clipPath
       id="clipPath252"><path
         d="m 324.91,241.7 246.77,0 0,211.49 -246.77,0 0,-211.49 z"
         inkscape:connector-curvature="0"
         id="path254" /></clipPath><clipPath
       id="clipPath264"><path
         d="m 324.91,241.7 246.77,0 0,211.49 -246.77,0 0,-211.49 z"
         inkscape:connector-curvature="0"
         id="path266" /></clipPath><clipPath
       id="clipPath272"><path
         d="m 324.91,241.7 246.77,0 0,211.49 -246.77,0 0,-211.49 z"
         inkscape:connector-curvature="0"
         id="path274" /></clipPath><clipPath
       id="clipPath284"><path
         d="m 324.91,241.7 246.77,0 0,211.49 -246.77,0 0,-211.49 z"
         inkscape:connector-curvature="0"
         id="path286" /></clipPath><clipPath
       id="clipPath296"><path
         d="m 324.91,241.7 246.77,0 0,211.49 -246.77,0 0,-211.49 z"
         inkscape:connector-curvature="0"
         id="path298" /></clipPath><clipPath
       id="clipPath304"><path
         d="m 324.91,241.7 246.77,0 0,211.49 -246.77,0 0,-211.49 z"
         inkscape:connector-curvature="0"
         id="path306" /></clipPath><clipPath
       id="clipPath316"><path
         d="m 324.91,241.7 246.77,0 0,211.49 -246.77,0 0,-211.49 z"
         inkscape:connector-curvature="0"
         id="path318" /></clipPath><clipPath
       id="clipPath328"><path
         d="m 324.91,241.7 246.77,0 0,211.49 -246.77,0 0,-211.49 z"
         inkscape:connector-curvature="0"
         id="path330" /></clipPath><clipPath
       id="clipPath340"><path
         d="m 324.91,241.7 246.77,0 0,211.49 -246.77,0 0,-211.49 z"
         inkscape:connector-curvature="0"
         id="path342" /></clipPath><clipPath
       id="clipPath406"><path
         d="m 7.6813,228.03 170.31,0 0,57.375 -170.31,0 0,-57.375 z"
         inkscape:connector-curvature="0"
         id="path408" /></clipPath><clipPath
       id="clipPath414"><path
         d="m 7.68,228.02 170.3,0 0,57.384 -170.3,0 0,-57.384 z"
         inkscape:connector-curvature="0"
         id="path416" /></clipPath><clipPath
       id="clipPath426"><path
         d="m 7.68,228.02 170.3,0 0,57.384 -170.3,0 0,-57.384 z"
         inkscape:connector-curvature="0"
         id="path428" /></clipPath><clipPath
       id="clipPath438"><path
         d="m 7.68,228.02 170.3,0 0,57.384 -170.3,0 0,-57.384 z"
         inkscape:connector-curvature="0"
         id="path440" /></clipPath><clipPath
       id="clipPath450"><path
         d="m 7.68,228.02 170.3,0 0,57.384 -170.3,0 0,-57.384 z"
         inkscape:connector-curvature="0"
         id="path452" /></clipPath><clipPath
       id="clipPath458"><path
         d="m 140.79,255.03 170.42,0 0,27.375 -170.42,0 0,-27.375 z"
         inkscape:connector-curvature="0"
         id="path460" /></clipPath><clipPath
       id="clipPath466"><path
         d="m 140.78,255.02 170.42,0 0,27.384 -170.42,0 0,-27.384 z"
         inkscape:connector-curvature="0"
         id="path468" /></clipPath><clipPath
       id="clipPath478"><path
         d="m 140.78,255.02 170.42,0 0,27.384 -170.42,0 0,-27.384 z"
         inkscape:connector-curvature="0"
         id="path480" /></clipPath><clipPath
       id="clipPath490"><path
         d="m 140.78,255.02 170.42,0 0,27.384 -170.42,0 0,-27.384 z"
         inkscape:connector-curvature="0"
         id="path492" /></clipPath><clipPath
       id="clipPath498"><path
         d="m 4.9213,353.08 79.11,0 0,27.36 -79.11,0 0,-27.36 z"
         inkscape:connector-curvature="0"
         id="path500" /></clipPath><clipPath
       id="clipPath506"><path
         d="m 4.92,353.09 79.104,0 0,27.36 -79.104,0 0,-27.36 z"
         inkscape:connector-curvature="0"
         id="path508" /></clipPath><clipPath
       id="clipPath518"><path
         d="m 4.92,353.09 79.104,0 0,27.36 -79.104,0 0,-27.36 z"
         inkscape:connector-curvature="0"
         id="path520" /></clipPath><clipPath
       id="clipPath532"><path
         d="m 326.36,460.27 258.05,0 0,93.36 -258.05,0 0,-93.36 z"
         inkscape:connector-curvature="0"
         id="path534" /></clipPath><clipPath
       id="clipPath540"><path
         d="m 326.35,460.27 258.05,0 0,93.36 -258.05,0 0,-93.36 z"
         inkscape:connector-curvature="0"
         id="path542" /></clipPath><clipPath
       id="clipPath552"><path
         d="m 326.35,460.27 258.05,0 0,93.36 -258.05,0 0,-93.36 z"
         inkscape:connector-curvature="0"
         id="path554" /></clipPath><clipPath
       id="clipPath564"><path
         d="m 326.35,460.27 258.05,0 0,93.36 -258.05,0 0,-93.36 z"
         inkscape:connector-curvature="0"
         id="path566" /></clipPath><clipPath
       id="clipPath572"><path
         d="m 326.35,460.27 258.05,0 0,93.36 -258.05,0 0,-93.36 z"
         inkscape:connector-curvature="0"
         id="path574" /></clipPath><clipPath
       id="clipPath584"><path
         d="m 326.35,460.27 258.05,0 0,93.36 -258.05,0 0,-93.36 z"
         inkscape:connector-curvature="0"
         id="path586" /></clipPath><clipPath
       id="clipPath596"><path
         d="m 326.35,460.27 258.05,0 0,93.36 -258.05,0 0,-93.36 z"
         inkscape:connector-curvature="0"
         id="path598" /></clipPath><clipPath
       id="clipPath604"><path
         d="m 326.35,460.27 258.05,0 0,93.36 -258.05,0 0,-93.36 z"
         inkscape:connector-curvature="0"
         id="path606" /></clipPath><clipPath
       id="clipPath616"><path
         d="m 326.35,460.27 258.05,0 0,93.36 -258.05,0 0,-93.36 z"
         inkscape:connector-curvature="0"
         id="path618" /></clipPath><clipPath
       id="clipPath628"><path
         d="m 326.35,460.27 258.05,0 0,93.36 -258.05,0 0,-93.36 z"
         inkscape:connector-curvature="0"
         id="path630" /></clipPath><clipPath
       id="clipPath640"><path
         d="m 326.35,460.27 258.05,0 0,93.36 -258.05,0 0,-93.36 z"
         inkscape:connector-curvature="0"
         id="path642" /></clipPath><clipPath
       id="clipPath652"><path
         d="m 326.35,460.27 258.05,0 0,93.36 -258.05,0 0,-93.36 z"
         inkscape:connector-curvature="0"
         id="path654" /></clipPath></defs><g
     transform="matrix(1.25,0,0,-1.25,-17.267725,693.68677)"
     id="g10"><g
       id="g12"><g
         clip-path="url(#clipPath16)"
         id="g14"><g
           id="g20"><g
             clip-path="url(#clipPath24)"
             id="g22"><text
   transform="matrix(1,0,0,-1,43.8,539.23)"
   id="text28"><tspan
     x="0 15.85512 28.06488 41.482441 53.736118 65.945877"
     y="0"
     id="tspan30"
     style="font-size:21.95999908px;font-variant:normal;font-weight:bold;writing-mode:lr-tb;fill:#000000;fill-opacity:1;fill-rule:nonzero;stroke:none;font-family:Helvetica;-inkscape-font-specification:Helvetica-Bold">Kapsel</tspan></text>

</g></g><g
           id="g32"><g
             clip-path="url(#clipPath36)"
             id="g34" /></g><g
           id="g40"><g
             clip-path="url(#clipPath44)"
             id="g42"><text
   transform="matrix(1,0,0,-1,122.06,539.23)"
   id="text48"><tspan
     x="0 12.20976 24.419519 35.487358 41.592239 59.884918 72.094681 78.199562 90.409317 102.663 114.87276 127.08252 139.35815"
     y="0"
     id="tspan50"
     style="font-size:21.95999908px;font-variant:normal;font-weight:normal;writing-mode:lr-tb;fill:#000000;fill-opacity:1;fill-rule:nonzero;stroke:none;font-family:Helvetica;-inkscape-font-specification:Helvetica">aus Methoden </tspan></text>

</g></g><g
           id="g52"><g
             clip-path="url(#clipPath56)"
             id="g54"><text
   transform="matrix(1,0,0,-1,43.8,514.03)"
   id="text60"><tspan
     x="0 12.20976 24.419519 36.69516 42.800041 58.655159 70.864922 76.969803 89.22348"
     y="0"
     id="tspan62"
     style="font-size:21.95999908px;font-variant:normal;font-weight:normal;writing-mode:lr-tb;fill:#000000;fill-opacity:1;fill-rule:nonzero;stroke:none;font-family:Helvetica;-inkscape-font-specification:Helvetica">und Daten</tspan></text>

</g></g><g
           id="g64"><g
             clip-path="url(#clipPath68)"
             id="g66" /></g></g></g><g
       id="g72"><g
         clip-path="url(#clipPath76)"
         id="g74"><g
           id="g80"><g
             clip-path="url(#clipPath84)"
             id="g82"><text
   transform="matrix(1,0,0,-1,325.87,432.77)"
   id="text88"><tspan
     x="0 15.85512 28.06488 34.169762 46.37952 58.655159"
     y="0"
     id="tspan90"
     style="font-size:21.95999908px;font-variant:normal;font-weight:normal;writing-mode:lr-tb;fill:#000000;fill-opacity:1;fill-rule:nonzero;stroke:none;font-family:Helvetica;-inkscape-font-specification:Helvetica">Daten </tspan></text>

</g></g><g
           id="g92"><g
             clip-path="url(#clipPath96)"
             id="g94"><text
   transform="matrix(1,0,0,-1,390.67,432.77)"
   id="text100"><tspan
     x="0 12.20976 24.419519 36.69516 42.800041 61.09272 73.302483 79.407356 91.617119 103.8708 116.08056 128.29031"
     y="0"
     id="tspan102"
     style="font-size:21.95999908px;font-variant:normal;font-weight:normal;writing-mode:lr-tb;fill:#000000;fill-opacity:1;fill-rule:nonzero;stroke:none;font-family:Helvetica;-inkscape-font-specification:Helvetica">und Methoden</tspan></text>

</g></g><g
           id="g104"><g
             clip-path="url(#clipPath108)"
             id="g106"><text
   transform="matrix(1,0,0,-1,531.34,432.77)"
   id="text112"><tspan
     x="0"
     y="0"
     id="tspan114"
     style="font-size:21.95999908px;font-variant:normal;font-weight:normal;writing-mode:lr-tb;fill:#000000;fill-opacity:1;fill-rule:nonzero;stroke:none;font-family:Helvetica;-inkscape-font-specification:Helvetica">-</tspan></text>

</g></g><g
           id="g116"><g
             clip-path="url(#clipPath120)"
             id="g118"><text
   transform="matrix(1,0,0,-1,325.87,407.57)"
   id="text124"><tspan
     x="0 7.3126798 19.52244 37.815121 50.024879 56.129761 68.339523"
     y="0"
     id="tspan126"
     style="font-size:21.95999908px;font-variant:normal;font-weight:normal;writing-mode:lr-tb;fill:#000000;fill-opacity:1;fill-rule:nonzero;stroke:none;font-family:Helvetica;-inkscape-font-specification:Helvetica">rümpfe </tspan></text>

</g></g><g
           id="g128"><g
             clip-path="url(#clipPath132)"
             id="g130"><text
   transform="matrix(1,0,0,-1,400.39,407.57)"
   id="text136"><tspan
     x="0 10.98 15.94296 28.152719 40.36248"
     y="0"
     id="tspan138"
     style="font-size:21.95999908px;font-variant:normal;font-weight:normal;writing-mode:lr-tb;fill:#000000;fill-opacity:1;fill-rule:nonzero;stroke:none;font-family:Helvetica;-inkscape-font-specification:Helvetica">sind </tspan></text>

</g></g><g
           id="g140"><g
             clip-path="url(#clipPath144)"
             id="g142"><text
   transform="matrix(1,0,0,-1,446.98,407.57)"
   id="text148"><tspan
     x="0 10.98 23.18976 30.502439 42.7122 54.921959 62.234638 74.488319 86.698082"
     y="0"
     id="tspan150"
     style="font-size:21.95999908px;font-variant:normal;font-weight:normal;writing-mode:lr-tb;fill:#000000;fill-opacity:1;fill-rule:nonzero;stroke:none;font-family:Helvetica;-inkscape-font-specification:Helvetica">verborgen</tspan></text>

</g></g><g
           id="g152"><g
             clip-path="url(#clipPath156)"
             id="g154" /></g><g
           id="g160"><g
             clip-path="url(#clipPath164)"
             id="g162" /></g><g
           id="g168"><g
             clip-path="url(#clipPath172)"
             id="g170"><text
   transform="matrix(1,0,0,-1,325.87,381.65)"
   id="text176"><tspan
     x="0"
     y="0"
     id="tspan178"
     style="font-size:21.95999908px;font-variant:normal;font-weight:normal;writing-mode:lr-tb;fill:#000000;fill-opacity:1;fill-rule:nonzero;stroke:none;font-family:Helvetica;-inkscape-font-specification:Helvetica">(</tspan></text>

</g></g><g
           id="g180"><g
             clip-path="url(#clipPath184)"
             id="g182"><text
   transform="matrix(1,0,0,-1,333.19,381.65)"
   id="text188"><tspan
     x="0 6.1048799 19.52244 26.835119 40.2966 48.839039 68.361481 80.571243 87.883919 94.032722 107.45028 120.86784 126.97272 142.82784 148.93272 162.41615 168.52104 181.9386"
     y="0"
     id="tspan190"
     style="font-size:21.95999908px;font-variant:normal;font-weight:bold;writing-mode:lr-tb;fill:#000000;fill-opacity:1;fill-rule:nonzero;stroke:none;font-family:Helvetica;-inkscape-font-specification:Helvetica-Bold">Information Hiding</tspan></text>

</g></g><g
           id="g192"><g
             clip-path="url(#clipPath196)"
             id="g194"><text
   transform="matrix(1,0,0,-1,528.7,381.65)"
   id="text200"><tspan
     x="0 7.3200002 13.4322"
     y="0"
     id="tspan202"
     style="font-size:21.95999908px;font-variant:normal;font-weight:normal;writing-mode:lr-tb;fill:#000000;fill-opacity:1;fill-rule:nonzero;stroke:none;font-family:Helvetica;-inkscape-font-specification:Helvetica">). </tspan></text>

</g></g><g
           id="g204"><g
             clip-path="url(#clipPath208)"
             id="g206"><text
   transform="matrix(1,0,0,-1,325.87,356.45)"
   id="text212"><tspan
     x="0 15.85512 20.73024 32.939999 39.088799 54.94392 67.153679 73.25856 85.468323"
     y="0"
     id="tspan214"
     style="font-size:21.95999908px;font-variant:normal;font-weight:normal;writing-mode:lr-tb;fill:#000000;fill-opacity:1;fill-rule:nonzero;stroke:none;font-family:Helvetica;-inkscape-font-specification:Helvetica">Die Daten</tspan></text>

</g></g><g
           id="g216"><g
             clip-path="url(#clipPath220)"
             id="g218" /></g><g
           id="g224"><g
             clip-path="url(#clipPath228)"
             id="g226"><text
   transform="matrix(1,0,0,-1,429.79,356.45)"
   id="text232"><tspan
     x="0 10.98 23.25564 35.465401 47.675159 59.950802 72.160561 78.265442 90.519119 102.72888 110.04156"
     y="0"
     id="tspan234"
     style="font-size:21.95999908px;font-variant:normal;font-weight:normal;writing-mode:lr-tb;fill:#000000;fill-opacity:1;fill-rule:nonzero;stroke:none;font-family:Helvetica;-inkscape-font-specification:Helvetica">können nur </tspan></text>

</g></g><g
           id="g236"><g
             clip-path="url(#clipPath240)"
             id="g238"><text
   transform="matrix(1,0,0,-1,325.87,331.25)"
   id="text244"><tspan
     x="0 12.20976 24.419519 36.69516 44.007839 50.11272 62.322479 67.263481 79.473244"
     y="0"
     id="tspan246"
     style="font-size:21.95999908px;font-variant:normal;font-weight:normal;writing-mode:lr-tb;fill:#000000;fill-opacity:1;fill-rule:nonzero;stroke:none;font-family:Helvetica;-inkscape-font-specification:Helvetica">über die </tspan></text>

</g></g><g
           id="g248"><g
             clip-path="url(#clipPath252)"
             id="g250"><text
   transform="matrix(1,0,0,-1,411.55,331.25)"
   id="text256"><tspan
     x="0 14.64732 26.85708 39.066841 45.215641 57.4254 63.530281 75.783958 87.993721"
     y="0"
     id="tspan258"
     style="font-size:21.95999908px;font-variant:normal;font-weight:normal;writing-mode:lr-tb;fill:#000000;fill-opacity:1;fill-rule:nonzero;stroke:none;font-family:Helvetica;-inkscape-font-specification:Helvetica">Köpfe der</tspan></text>

</g></g><g
           id="g260"><g
             clip-path="url(#clipPath264)"
             id="g262" /></g><g
           id="g268"><g
             clip-path="url(#clipPath272)"
             id="g270"><text
   transform="matrix(1,0,0,-1,325.87,306.05)"
   id="text276"><tspan
     x="0 12.20976 17.128799 29.33856 41.548321 53.823959 66.033722 78.243477 84.392281 102.68496 114.89472 120.9996 133.20937 145.41911 157.69476 169.90453 182.11427"
     y="0"
     id="tspan278"
     style="font-size:21.95999908px;font-variant:normal;font-weight:normal;writing-mode:lr-tb;fill:#000000;fill-opacity:1;fill-rule:nonzero;stroke:none;font-family:Helvetica;-inkscape-font-specification:Helvetica">eigenen Methoden </tspan></text>

</g></g><g
           id="g280"><g
             clip-path="url(#clipPath284)"
             id="g282"><text
   transform="matrix(1,0,0,-1,514.3,306.05)"
   id="text288"><tspan
     x="0 12.20976 17.128799 29.33856 41.548321"
     y="0"
     id="tspan290"
     style="font-size:21.95999908px;font-variant:normal;font-weight:normal;writing-mode:lr-tb;fill:#000000;fill-opacity:1;fill-rule:nonzero;stroke:none;font-family:Helvetica;-inkscape-font-specification:Helvetica">eines</tspan></text>

</g></g><g
           id="g292"><g
             clip-path="url(#clipPath296)"
             id="g294" /></g><g
           id="g300"><g
             clip-path="url(#clipPath304)"
             id="g302"><text
   transform="matrix(1,0,0,-1,325.87,280.85)"
   id="text308"><tspan
     x="0 17.084881 29.29464 34.169762 46.37952 57.447361 63.552238 74.576157 80.681038 98.973717 111.18348 123.39324"
     y="0"
     id="tspan310"
     style="font-size:21.95999908px;font-variant:normal;font-weight:normal;writing-mode:lr-tb;fill:#000000;fill-opacity:1;fill-rule:nonzero;stroke:none;font-family:Helvetica;-inkscape-font-specification:Helvetica">Objekts mani</tspan></text>

</g></g><g
           id="g312"><g
             clip-path="url(#clipPath316)"
             id="g314"><text
   transform="matrix(1,0,0,-1,454.3,280.85)"
   id="text320"><tspan
     x="0 12.20976 24.419519 29.382481 34.257599 46.51128 53.823959 59.928841"
     y="0"
     id="tspan322"
     style="font-size:21.95999908px;font-variant:normal;font-weight:normal;writing-mode:lr-tb;fill:#000000;fill-opacity:1;fill-rule:nonzero;stroke:none;font-family:Helvetica;-inkscape-font-specification:Helvetica">puliert </tspan></text>

</g></g><g
           id="g324"><g
             clip-path="url(#clipPath328)"
             id="g326"><text
   transform="matrix(1,0,0,-1,325.87,255.62)"
   id="text332"><tspan
     x="0 15.85512 28.06488 35.37756 47.587318 59.862961 72.072723"
     y="0"
     id="tspan334"
     style="font-size:21.95999908px;font-variant:normal;font-weight:normal;writing-mode:lr-tb;fill:#000000;fill-opacity:1;fill-rule:nonzero;stroke:none;font-family:Helvetica;-inkscape-font-specification:Helvetica">werden.</tspan></text>

</g></g><g
           id="g336"><g
             clip-path="url(#clipPath340)"
             id="g338" /></g></g></g><path
       d="m 141.96,496.82 -54.61,-54.61 0,-77.28 54.61,-54.61 77.23,0 54.61,54.61 0,77.28 -54.61,54.61 -77.23,0 z"
       inkscape:connector-curvature="0"
       id="path344"
       style="fill:#969696;fill-opacity:1;fill-rule:evenodd;stroke:none" /><path
       d="m 141.96,496.82 -54.61,-54.61 0,-77.28 54.61,-54.61 77.23,0 54.61,54.61 0,77.28 -54.61,54.61 -77.23,0 z"
       inkscape:connector-curvature="0"
       id="path346"
       style="fill:none;stroke:#000000;stroke-width:0.75;stroke-linecap:round;stroke-linejoin:round;stroke-miterlimit:10;stroke-opacity:1;stroke-dasharray:none" /><path
       d="m 149.24,477.62 -43.64,-43.64 0,-61.77 43.64,-43.64 61.72,0 43.64,43.64 0,61.77 -43.64,43.64 -61.72,0 z"
       inkscape:connector-curvature="0"
       id="path348"
       style="fill:#dddddd;fill-opacity:1;fill-rule:evenodd;stroke:none" /><path
       d="m 149.24,477.62 -43.64,-43.64 0,-61.77 43.64,-43.64 61.72,0 43.64,43.64 0,61.77 -43.64,43.64 -61.72,0 z"
       inkscape:connector-curvature="0"
       id="path350"
       style="fill:none;stroke:#000000;stroke-width:0.75;stroke-linecap:round;stroke-linejoin:round;stroke-miterlimit:10;stroke-opacity:1;stroke-dasharray:none" /><path
       d="m 142.45,496.82 6.95,-18.75"
       inkscape:connector-curvature="0"
       id="path352"
       style="fill:none;stroke:#000000;stroke-width:0.75;stroke-linecap:round;stroke-linejoin:round;stroke-miterlimit:10;stroke-opacity:1;stroke-dasharray:none" /><path
       d="m 210.85,328.62 9.1,-18"
       inkscape:connector-curvature="0"
       id="path354"
       style="fill:none;stroke:#000000;stroke-width:0.75;stroke-linecap:round;stroke-linejoin:round;stroke-miterlimit:10;stroke-opacity:1;stroke-dasharray:none" /><path
       d="m 142.1,310.62 7.55,18.35"
       inkscape:connector-curvature="0"
       id="path356"
       style="fill:none;stroke:#000000;stroke-width:0.75;stroke-linecap:round;stroke-linejoin:round;stroke-miterlimit:10;stroke-opacity:1;stroke-dasharray:none" /><path
       d="m 87,364.62 18.35,7.25"
       inkscape:connector-curvature="0"
       id="path358"
       style="fill:none;stroke:#000000;stroke-width:0.75;stroke-linecap:round;stroke-linejoin:round;stroke-miterlimit:10;stroke-opacity:1;stroke-dasharray:none" /><path
       d="m 87.7,441.72 18,-8.3"
       inkscape:connector-curvature="0"
       id="path360"
       style="fill:none;stroke:#000000;stroke-width:0.75;stroke-linecap:round;stroke-linejoin:round;stroke-miterlimit:10;stroke-opacity:1;stroke-dasharray:none" /><path
       d="m 219.5,496.82 -8.65,-19.1"
       inkscape:connector-curvature="0"
       id="path362"
       style="fill:none;stroke:#000000;stroke-width:0.75;stroke-linecap:round;stroke-linejoin:round;stroke-miterlimit:10;stroke-opacity:1;stroke-dasharray:none" /><path
       d="m 254.05,434.17 19.45,7.55"
       inkscape:connector-curvature="0"
       id="path364"
       style="fill:none;stroke:#000000;stroke-width:0.75;stroke-linecap:round;stroke-linejoin:round;stroke-miterlimit:10;stroke-opacity:1;stroke-dasharray:none" /><path
       d="m 254.4,372.57 19.1,-7.2"
       inkscape:connector-curvature="0"
       id="path366"
       style="fill:none;stroke:#000000;stroke-width:0.75;stroke-linecap:round;stroke-linejoin:round;stroke-miterlimit:10;stroke-opacity:1;stroke-dasharray:none" /><path
       d="m 139.15,407.17 36.401,0 0,31.9 -36.401,0 0,-31.9 z"
       inkscape:connector-curvature="0"
       id="path368"
       style="fill:#7f7f7f;fill-opacity:1;fill-rule:evenodd;stroke:none" /><path
       d="m 139.15,407.17 36.401,0 0,31.9 -36.401,0 0,-31.9 z"
       inkscape:connector-curvature="0"
       id="path370"
       style="fill:none;stroke:#000000;stroke-width:0.14;stroke-linecap:round;stroke-linejoin:round;stroke-miterlimit:10;stroke-opacity:1;stroke-dasharray:none" /><path
       d="m 185.35,407.17 36.401,0 0,31.9 -36.401,0 0,-31.9 z"
       inkscape:connector-curvature="0"
       id="path372"
       style="fill:#7f7f7f;fill-opacity:1;fill-rule:evenodd;stroke:none" /><path
       d="m 185.35,407.17 36.401,0 0,31.9 -36.401,0 0,-31.9 z"
       inkscape:connector-curvature="0"
       id="path374"
       style="fill:none;stroke:#000000;stroke-width:0.14;stroke-linecap:round;stroke-linejoin:round;stroke-miterlimit:10;stroke-opacity:1;stroke-dasharray:none" /><path
       d="m 139.15,365.17 36.401,0 0,31.9 -36.401,0 0,-31.9 z"
       inkscape:connector-curvature="0"
       id="path376"
       style="fill:#7f7f7f;fill-opacity:1;fill-rule:evenodd;stroke:none" /><path
       d="m 139.15,365.17 36.401,0 0,31.9 -36.401,0 0,-31.9 z"
       inkscape:connector-curvature="0"
       id="path378"
       style="fill:none;stroke:#000000;stroke-width:0.14;stroke-linecap:round;stroke-linejoin:round;stroke-miterlimit:10;stroke-opacity:1;stroke-dasharray:none" /><path
       d="m 185.35,365.17 36.401,0 0,31.9 -36.401,0 0,-31.9 z"
       inkscape:connector-curvature="0"
       id="path380"
       style="fill:#7f7f7f;fill-opacity:1;fill-rule:evenodd;stroke:none" /><path
       d="m 185.35,365.17 36.401,0 0,31.9 -36.401,0 0,-31.9 z"
       inkscape:connector-curvature="0"
       id="path382"
       style="fill:none;stroke:#000000;stroke-width:0.14;stroke-linecap:round;stroke-linejoin:round;stroke-miterlimit:10;stroke-opacity:1;stroke-dasharray:none" /><path
       d="m 154.72,465.62 -35.57,-35.57 0,-54.36 35.57,-35.57 50.31,0 35.57,35.57 0,54.36 -35.57,35.57 -50.31,0 z"
       inkscape:connector-curvature="0"
       id="path384"
       style="fill:none;stroke:#000000;stroke-width:0.75;stroke-linecap:round;stroke-linejoin:round;stroke-miterlimit:10;stroke-opacity:1;stroke-dasharray:none" /><path
       d="m 206.4,340.12 4.45,-11.55"
       inkscape:connector-curvature="0"
       id="path386"
       style="fill:none;stroke:#000000;stroke-width:0.75;stroke-linecap:round;stroke-linejoin:round;stroke-miterlimit:10;stroke-opacity:1;stroke-dasharray:none" /><path
       d="m 105.35,371.42 13.8,5.45"
       inkscape:connector-curvature="0"
       id="path388"
       style="fill:none;stroke:#000000;stroke-width:0.75;stroke-linecap:round;stroke-linejoin:round;stroke-miterlimit:10;stroke-opacity:1;stroke-dasharray:none" /><path
       d="m 149.4,328.97 4.25,11.15"
       inkscape:connector-curvature="0"
       id="path390"
       style="fill:none;stroke:#000000;stroke-width:0.75;stroke-linecap:round;stroke-linejoin:round;stroke-miterlimit:10;stroke-opacity:1;stroke-dasharray:none" /><path
       d="m 105.7,434.17 13.45,-5.55"
       inkscape:connector-curvature="0"
       id="path392"
       style="fill:none;stroke:#000000;stroke-width:0.75;stroke-linecap:round;stroke-linejoin:round;stroke-miterlimit:10;stroke-opacity:1;stroke-dasharray:none" /><path
       d="m 149.65,477.62 4,-12"
       inkscape:connector-curvature="0"
       id="path394"
       style="fill:none;stroke:#000000;stroke-width:0.75;stroke-linecap:round;stroke-linejoin:round;stroke-miterlimit:10;stroke-opacity:1;stroke-dasharray:none" /><path
       d="M 210.85,478.07 206.4,465.62"
       inkscape:connector-curvature="0"
       id="path396"
       style="fill:none;stroke:#000000;stroke-width:0.75;stroke-linecap:round;stroke-linejoin:round;stroke-miterlimit:10;stroke-opacity:1;stroke-dasharray:none" /><path
       d="m 254.6,434.17 -14,-5.55"
       inkscape:connector-curvature="0"
       id="path398"
       style="fill:none;stroke:#000000;stroke-width:0.75;stroke-linecap:round;stroke-linejoin:round;stroke-miterlimit:10;stroke-opacity:1;stroke-dasharray:none" /><path
       d="m 254.05,371.42 -13.45,5.45"
       inkscape:connector-curvature="0"
       id="path400"
       style="fill:none;stroke:#000000;stroke-width:0.75;stroke-linecap:round;stroke-linejoin:round;stroke-miterlimit:10;stroke-opacity:1;stroke-dasharray:none" /><g
       id="g402"><g
         clip-path="url(#clipPath406)"
         id="g404"><g
           id="g410"><g
             clip-path="url(#clipPath414)"
             id="g412"><text
   transform="matrix(1,0,0,-1,14.88,264.98)"
   id="text418"><tspan
     x="0 18.292681 30.502439 36.607319 48.817081 61.02684 73.302483 85.512238"
     y="0"
     id="tspan420"
     style="font-size:21.95999908px;font-variant:normal;font-weight:normal;writing-mode:lr-tb;fill:#000000;fill-opacity:1;fill-rule:nonzero;stroke:none;font-family:Helvetica;-inkscape-font-specification:Helvetica">Methoden</tspan></text>

</g></g><g
           id="g422"><g
             clip-path="url(#clipPath426)"
             id="g424"><text
   transform="matrix(1,0,0,-1,112.7,264.98)"
   id="text430"><tspan
     x="0"
     y="0"
     id="tspan432"
     style="font-size:21.95999908px;font-variant:normal;font-weight:normal;writing-mode:lr-tb;fill:#000000;fill-opacity:1;fill-rule:nonzero;stroke:none;font-family:Helvetica;-inkscape-font-specification:Helvetica">-</tspan></text>

</g></g><g
           id="g434"><g
             clip-path="url(#clipPath438)"
             id="g436"><text
   transform="matrix(1,0,0,-1,14.88,239.78)"
   id="text442"><tspan
     x="0 7.3126798 19.52244 37.815121 50.024879"
     y="0"
     id="tspan444"
     style="font-size:21.95999908px;font-variant:normal;font-weight:normal;writing-mode:lr-tb;fill:#000000;fill-opacity:1;fill-rule:nonzero;stroke:none;font-family:Helvetica;-inkscape-font-specification:Helvetica">rumpf</tspan></text>

</g></g><g
           id="g446"><g
             clip-path="url(#clipPath450)"
             id="g448" /></g></g></g><g
       id="g454"><g
         clip-path="url(#clipPath458)"
         id="g456"><g
           id="g462"><g
             clip-path="url(#clipPath466)"
             id="g464"><text
   transform="matrix(1,0,0,-1,147.98,261.98)"
   id="text470"><tspan
     x="0 18.292681 30.502439 36.607319 48.817081 61.02684 73.302483 85.512238"
     y="0"
     id="tspan472"
     style="font-size:21.95999908px;font-variant:normal;font-weight:normal;writing-mode:lr-tb;fill:#000000;fill-opacity:1;fill-rule:nonzero;stroke:none;font-family:Helvetica;-inkscape-font-specification:Helvetica">Methoden</tspan></text>

</g></g><g
           id="g474"><g
             clip-path="url(#clipPath478)"
             id="g476"><text
   transform="matrix(1,0,0,-1,245.81,261.98)"
   id="text482"><tspan
     x="0 10.98 23.25564 35.465401"
     y="0"
     id="tspan484"
     style="font-size:21.95999908px;font-variant:normal;font-weight:normal;writing-mode:lr-tb;fill:#000000;fill-opacity:1;fill-rule:nonzero;stroke:none;font-family:Helvetica;-inkscape-font-specification:Helvetica">kopf</tspan></text>

</g></g><g
           id="g486"><g
             clip-path="url(#clipPath490)"
             id="g488" /></g></g></g><g
       id="g494"><g
         clip-path="url(#clipPath498)"
         id="g496"><g
           id="g502"><g
             clip-path="url(#clipPath506)"
             id="g504"><text
   transform="matrix(1,0,0,-1,12.12,360.05)"
   id="text510"><tspan
     x="0 15.85512 28.06488 34.169762 46.37952"
     y="0"
     id="tspan512"
     style="font-size:21.95999908px;font-variant:normal;font-weight:normal;writing-mode:lr-tb;fill:#000000;fill-opacity:1;fill-rule:nonzero;stroke:none;font-family:Helvetica;-inkscape-font-specification:Helvetica">Daten</tspan></text>

</g></g><g
           id="g514"><g
             clip-path="url(#clipPath518)"
             id="g516" /></g></g></g><path
       d="m 188.25,290.17 -4.5,26.7"
       inkscape:connector-curvature="0"
       id="path522"
       style="fill:none;stroke:#000000;stroke-width:2;stroke-linecap:butt;stroke-linejoin:round;stroke-miterlimit:10;stroke-opacity:1;stroke-dasharray:none" /><path
       d="m 46.5,383.62 93.65,42.75"
       inkscape:connector-curvature="0"
       id="path524"
       style="fill:none;stroke:#000000;stroke-width:2;stroke-linecap:butt;stroke-linejoin:round;stroke-miterlimit:10;stroke-opacity:1;stroke-dasharray:none" /><path
       d="m 134.15,352.12 -53.55,-69"
       inkscape:connector-curvature="0"
       id="path526"
       style="fill:none;stroke:#000000;stroke-width:2;stroke-linecap:butt;stroke-linejoin:round;stroke-miterlimit:10;stroke-opacity:1;stroke-dasharray:none" /><g
       id="g528"><g
         clip-path="url(#clipPath532)"
         id="g530"><g
           id="g536"><g
             clip-path="url(#clipPath540)"
             id="g538"><text
   transform="matrix(1,0,0,-1,327.31,533.23)"
   id="text544"><tspan
     x="0 18.292681 30.502439 36.607319 48.817081 61.02684 73.302483 85.512238"
     y="0"
     id="tspan546"
     style="font-size:21.95999908px;font-variant:normal;font-weight:normal;writing-mode:lr-tb;fill:#000000;fill-opacity:1;fill-rule:nonzero;stroke:none;font-family:Helvetica;-inkscape-font-specification:Helvetica">Methoden</tspan></text>

</g></g><g
           id="g548"><g
             clip-path="url(#clipPath552)"
             id="g550"><text
   transform="matrix(1,0,0,-1,425.11,533.23)"
   id="text556"><tspan
     x="0 10.98 23.25564 35.465401 41.570278"
     y="0"
     id="tspan558"
     style="font-size:21.95999908px;font-variant:normal;font-weight:normal;writing-mode:lr-tb;fill:#000000;fill-opacity:1;fill-rule:nonzero;stroke:none;font-family:Helvetica;-inkscape-font-specification:Helvetica">köpfe</tspan></text>

</g></g><g
           id="g560"><g
             clip-path="url(#clipPath564)"
             id="g562" /></g><g
           id="g568"><g
             clip-path="url(#clipPath572)"
             id="g570"><text
   transform="matrix(1,0,0,-1,485.14,533.23)"
   id="text576"><tspan
     x="0 10.98 15.94296 28.152719 40.36248 46.51128 58.721039 63.640079 75.849838"
     y="0"
     id="tspan578"
     style="font-size:21.95999908px;font-variant:normal;font-weight:normal;writing-mode:lr-tb;fill:#000000;fill-opacity:1;fill-rule:nonzero;stroke:none;font-family:Helvetica;-inkscape-font-specification:Helvetica">sind die </tspan></text>

</g></g><g
           id="g580"><g
             clip-path="url(#clipPath584)"
             id="g582"><text
   transform="matrix(1,0,0,-1,327.31,508.03)"
   id="text588"><tspan
     x="0 14.64732 25.627319 37.902962 50.11272 55.031761 61.136639 67.241524 78.287399 84.392281 96.602043 101.54304 106.41816 118.67184 130.88161 136.98648 149.24016 161.44992 172.4958 178.60068 195.68556 207.89532 212.77045 225.02412 236.00412 242.15292"
     y="0"
     id="tspan590"
     style="font-size:21.95999908px;font-variant:normal;font-weight:normal;writing-mode:lr-tb;fill:#000000;fill-opacity:1;fill-rule:nonzero;stroke:none;font-family:Helvetica;-inkscape-font-specification:Helvetica">Schnittstellen des Objekts</tspan></text>

</g></g><g
           id="g592"><g
             clip-path="url(#clipPath596)"
             id="g594" /></g><g
           id="g600"><g
             clip-path="url(#clipPath604)"
             id="g602"><text
   transform="matrix(1,0,0,-1,327.31,482.11)"
   id="text608"><tspan
     x="0"
     y="0"
     id="tspan610"
     style="font-size:21.95999908px;font-variant:normal;font-weight:normal;writing-mode:lr-tb;fill:#000000;fill-opacity:1;fill-rule:nonzero;stroke:none;font-family:Helvetica;-inkscape-font-specification:Helvetica">(</tspan></text>

</g></g><g
           id="g612"><g
             clip-path="url(#clipPath616)"
             id="g614"><text
   transform="matrix(1,0,0,-1,334.63,482.11)"
   id="text620"><tspan
     x="0 15.85512 29.27268 41.482441 48.79512 57.337559 69.547318 81.82296 89.135643 95.240517 108.65808"
     y="0"
     id="tspan622"
     style="font-size:21.95999908px;font-variant:normal;font-weight:bold;writing-mode:lr-tb;fill:#000000;fill-opacity:1;fill-rule:nonzero;stroke:none;font-family:Helvetica;-inkscape-font-specification:Helvetica-Bold">Abstraktion</tspan></text>

</g></g><g
           id="g624"><g
             clip-path="url(#clipPath628)"
             id="g626"><text
   transform="matrix(1,0,0,-1,456.82,482.11)"
   id="text632"><tspan
     x="0"
     y="0"
     id="tspan634"
     style="font-size:21.95999908px;font-variant:normal;font-weight:normal;writing-mode:lr-tb;fill:#000000;fill-opacity:1;fill-rule:nonzero;stroke:none;font-family:Helvetica;-inkscape-font-specification:Helvetica">)</tspan></text>

</g></g><g
           id="g636"><g
             clip-path="url(#clipPath640)"
             id="g638"><text
   transform="matrix(1,0,0,-1,464.14,482.11)"
   id="text644"><tspan
     x="0"
     y="0"
     id="tspan646"
     style="font-size:21.95999908px;font-variant:normal;font-weight:normal;writing-mode:lr-tb;fill:#000000;fill-opacity:1;fill-rule:nonzero;stroke:none;font-family:Helvetica;-inkscape-font-specification:Helvetica">.</tspan></text>

</g></g><g
           id="g648"><g
             clip-path="url(#clipPath652)"
             id="g650" /></g></g></g></g></svg>