<?xml version="1.0" encoding="UTF-8" standalone="no"?>
<!-- Created with Inkscape (http://www.inkscape.org/) -->

<svg
   xmlns:dc="http://purl.org/dc/elements/1.1/"
   xmlns:cc="http://creativecommons.org/ns#"
   xmlns:rdf="http://www.w3.org/1999/02/22-rdf-syntax-ns#"
   xmlns:svg="http://www.w3.org/2000/svg"
   xmlns="http://www.w3.org/2000/svg"
   xmlns:sodipodi="http://sodipodi.sourceforge.net/DTD/sodipodi-0.dtd"
   xmlns:inkscape="http://www.inkscape.org/namespaces/inkscape"
   version="1.1"
   width="511.875"
   height="287.875"
   id="svg2"
   xml:space="preserve"
   inkscape:version="0.48.4 r9939"
   sodipodi:docname="Bild 1-12 Beseitigung der Abhängigkeit einer Klasse einer höheren Ebene von einer Klasse der tieferen Ebene.svg"><sodipodi:namedview
     pagecolor="#ffffff"
     bordercolor="#666666"
     borderopacity="1"
     objecttolerance="10"
     gridtolerance="10"
     guidetolerance="10"
     inkscape:pageopacity="0"
     inkscape:pageshadow="2"
     inkscape:window-width="640"
     inkscape:window-height="480"
     id="namedview73"
     showgrid="false"
     inkscape:zoom="0.18730159"
     inkscape:cx="457.40625"
     inkscape:cy="-81.96875"
     inkscape:window-x="0"
     inkscape:window-y="0"
     inkscape:window-maximized="0"
     inkscape:current-layer="svg2" /><metadata
     id="metadata8"><rdf:RDF><cc:Work
         rdf:about=""><dc:format>image/svg+xml</dc:format><dc:type
           rdf:resource="http://purl.org/dc/dcmitype/StillImage" /></cc:Work></rdf:RDF></metadata><defs
     id="defs6"><clipPath
       id="clipPath20"><path
         d="m 139.23,735.21 121.44,0 0,59.52 -121.44,0 0,-59.52 z"
         inkscape:connector-curvature="0"
         id="path22" /></clipPath><clipPath
       id="clipPath28"><path
         d="m 139.22,735.22 121.44,0 0,59.52 -121.44,0 0,-59.52 z"
         inkscape:connector-curvature="0"
         id="path30" /></clipPath><clipPath
       id="clipPath40"><path
         d="m 139.22,735.22 121.44,0 0,59.52 -121.44,0 0,-59.52 z"
         inkscape:connector-curvature="0"
         id="path42" /></clipPath><clipPath
       id="clipPath54"><path
         d="m 425.69,735.93 121.47,0 0,59.52 -121.47,0 0,-59.52 z"
         inkscape:connector-curvature="0"
         id="path56" /></clipPath><clipPath
       id="clipPath62"><path
         d="m 425.69,735.94 121.46,0 0,59.52 -121.46,0 0,-59.52 z"
         inkscape:connector-curvature="0"
         id="path64" /></clipPath><clipPath
       id="clipPath74"><path
         d="m 425.69,735.94 121.46,0 0,59.52 -121.46,0 0,-59.52 z"
         inkscape:connector-curvature="0"
         id="path76" /></clipPath><clipPath
       id="clipPath86"><path
         d="m 425.69,573.91 121.47,0 0,59.52 -121.47,0 0,-59.52 z"
         inkscape:connector-curvature="0"
         id="path88" /></clipPath><clipPath
       id="clipPath94"><path
         d="m 425.69,573.91 121.46,0 0,59.52 -121.46,0 0,-59.52 z"
         inkscape:connector-curvature="0"
         id="path96" /></clipPath><clipPath
       id="clipPath106"><path
         d="m 425.69,573.91 121.46,0 0,59.52 -121.46,0 0,-59.52 z"
         inkscape:connector-curvature="0"
         id="path108" /></clipPath><clipPath
       id="clipPath114"><path
         d="m 425.69,573.91 121.46,0 0,59.52 -121.46,0 0,-59.52 z"
         inkscape:connector-curvature="0"
         id="path116" /></clipPath><clipPath
       id="clipPath130"><path
         d="m 476.72,712.77 19.8,0 0,7.2 -19.8,0 0,-7.2 z"
         inkscape:connector-curvature="0"
         id="path132" /></clipPath><clipPath
       id="clipPath138"><path
         d="m 476.71,712.78 19.8,0 0,7.2 -19.8,0 0,-7.2 z"
         inkscape:connector-curvature="0"
         id="path140" /></clipPath></defs><g
     transform="matrix(1.25,0,0,-1.25,-172.96875,999.84375)"
     id="g10"><path
       d="m 138.75,731.25 122.25,0 0,67.5 -122.25,0 0,-67.5 z"
       inkscape:connector-curvature="0"
       id="path12"
       style="fill:#ffffff;fill-opacity:1;fill-rule:evenodd;stroke:none" /><path
       d="m 138.75,731.25 122.25,0 0,67.5 -122.25,0 0,-67.5 z"
       inkscape:connector-curvature="0"
       id="path14"
       style="fill:none;stroke:#000000;stroke-width:0.75;stroke-linecap:round;stroke-linejoin:miter;stroke-miterlimit:10;stroke-opacity:1;stroke-dasharray:none" /><g
       id="g16"><g
         clip-path="url(#clipPath20)"
         id="g18"><g
           id="g24"><g
             clip-path="url(#clipPath28)"
             id="g26"><text
   transform="matrix(1,0,0,-1,146.42,781.42)"
   id="text32"><tspan
     x="0 10.08072 18.603001 27.12528 34.931519 40.4352 48.24144 52.18668 62.267399 66.212639 74.018883 81.825119 89.631363"
     y="0"
     id="tspan34"
     style="font-size:14.03999996px;font-variant:normal;font-weight:bold;writing-mode:lr-tb;fill:#000000;fill-opacity:1;fill-rule:nonzero;stroke:none;font-family:Helvetica;-inkscape-font-specification:Helvetica-Bold">Höhere Klasse</tspan></text>

</g></g><g
           id="g36"><g
             clip-path="url(#clipPath40)"
             id="g38" /></g></g></g><path
       d="m 264.75,764.25 159.75,0"
       inkscape:connector-curvature="0"
       id="path44"
       style="fill:none;stroke:#000000;stroke-width:0.75;stroke-linecap:round;stroke-linejoin:round;stroke-miterlimit:10;stroke-opacity:1;stroke-dasharray:none" /><path
       d="m 425.25,732 122.25,0 0,67.5 -122.25,0 0,-67.5 z"
       inkscape:connector-curvature="0"
       id="path46"
       style="fill:#ffffff;fill-opacity:1;fill-rule:evenodd;stroke:none" /><path
       d="m 425.25,732 122.25,0 0,67.5 -122.25,0 0,-67.5 z"
       inkscape:connector-curvature="0"
       id="path48"
       style="fill:none;stroke:#000000;stroke-width:0.75;stroke-linecap:round;stroke-linejoin:miter;stroke-miterlimit:8;stroke-opacity:1;stroke-dasharray:none" /><g
       id="g50"><g
         clip-path="url(#clipPath54)"
         id="g52"><g
           id="g58"><g
             clip-path="url(#clipPath62)"
             id="g60"><text
   transform="matrix(1,0,0,-1,457.25,782.14)"
   id="text66"><tspan
     x="0 3.94524 12.46752 17.142839 24.94908 30.452761 35.128078 42.807961 50.614201"
     y="0"
     id="tspan68"
     style="font-size:14.03999996px;font-variant:normal;font-weight:bold;writing-mode:lr-tb;fill:#000000;fill-opacity:1;fill-rule:nonzero;stroke:none;font-family:Helvetica;-inkscape-font-specification:Helvetica-Bold">Interface</tspan></text>

</g></g><g
           id="g70"><g
             clip-path="url(#clipPath74)"
             id="g72" /></g></g></g><path
       d="m 425.25,569.95 122.25,0 0,67.5 -122.25,0 0,-67.5 z"
       inkscape:connector-curvature="0"
       id="path78"
       style="fill:#ffffff;fill-opacity:1;fill-rule:evenodd;stroke:none" /><path
       d="m 425.25,569.95 122.25,0 0,67.5 -122.25,0 0,-67.5 z"
       inkscape:connector-curvature="0"
       id="path80"
       style="fill:none;stroke:#000000;stroke-width:0.75;stroke-linecap:round;stroke-linejoin:miter;stroke-miterlimit:8;stroke-opacity:1;stroke-dasharray:none" /><g
       id="g82"><g
         clip-path="url(#clipPath86)"
         id="g84"><g
           id="g90"><g
             clip-path="url(#clipPath94)"
             id="g92"><text
   transform="matrix(1,0,0,-1,438.89,620.11)"
   id="text98"><tspan
     x="0 8.5222797 12.46752 20.27376 24.94908 32.755322 38.258999 45.938881 49.884121 59.96484 63.91008 71.589958 79.396202 87.202438"
     y="0"
     id="tspan100"
     style="font-size:14.03999996px;font-variant:normal;font-weight:bold;writing-mode:lr-tb;fill:#000000;fill-opacity:1;fill-rule:nonzero;stroke:none;font-family:Helvetica;-inkscape-font-specification:Helvetica-Bold">Tiefere Klasse</tspan></text>

</g></g><g
           id="g102"><g
             clip-path="url(#clipPath106)"
             id="g104" /></g><g
           id="g110"><g
             clip-path="url(#clipPath114)"
             id="g112" /></g></g></g><path
       d="m 278.6,773.4 -17.45,-9.2 17.45,-9.2 17.45,9.2 -17.45,9.2 z"
       inkscape:connector-curvature="0"
       id="path118"
       style="fill:#ffffff;fill-opacity:1;fill-rule:evenodd;stroke:none" /><path
       d="m 278.6,773.4 -17.45,-9.2 17.45,-9.2 17.45,9.2 -17.45,9.2 z"
       inkscape:connector-curvature="0"
       id="path120"
       style="fill:none;stroke:#000000;stroke-width:0.75;stroke-linecap:round;stroke-linejoin:round;stroke-miterlimit:8;stroke-opacity:1;stroke-dasharray:none" /><path
       d="m 486.48,731.3 13.02,-22.5 -26.05,0 13.03,22.5 z"
       inkscape:connector-curvature="0"
       id="path122"
       style="fill:#ffffff;fill-opacity:1;fill-rule:evenodd;stroke:none" /><path
       d="m 486.48,731.3 13.02,-22.5 -26.05,0 13.03,22.5 z"
       inkscape:connector-curvature="0"
       id="path124"
       style="fill:none;stroke:#000000;stroke-width:0.75;stroke-linecap:round;stroke-linejoin:round;stroke-miterlimit:8;stroke-opacity:1;stroke-dasharray:none" /><g
       id="g126"><g
         clip-path="url(#clipPath130)"
         id="g128"><g
           id="g134"><g
             clip-path="url(#clipPath138)"
             id="g136" /></g></g></g><g
       id="g142"><path
         d="m 486.6,708.8 0,-71.3"
         inkscape:connector-curvature="0"
         id="path144"
         style="fill:none;stroke:#000000;stroke-width:0.75;stroke-linecap:round;stroke-linejoin:round;stroke-miterlimit:8;stroke-opacity:1;stroke-dasharray:5.25, 3;stroke-dashoffset:0" /></g></g></svg>