<?xml version="1.0" encoding="UTF-8" standalone="no"?>
<!-- Created with Inkscape (http://www.inkscape.org/) -->

<svg
   xmlns:dc="http://purl.org/dc/elements/1.1/"
   xmlns:cc="http://creativecommons.org/ns#"
   xmlns:rdf="http://www.w3.org/1999/02/22-rdf-syntax-ns#"
   xmlns:svg="http://www.w3.org/2000/svg"
   xmlns="http://www.w3.org/2000/svg"
   xmlns:sodipodi="http://sodipodi.sourceforge.net/DTD/sodipodi-0.dtd"
   xmlns:inkscape="http://www.inkscape.org/namespaces/inkscape"
   version="1.1"
   width="388.25"
   height="293.1875"
   id="svg2"
   xml:space="preserve"
   inkscape:version="0.48.4 r9939"
   sodipodi:docname="Bild 1-3 Anwendung mit getrennten Verantwortlichkeiten.svg"><sodipodi:namedview
     pagecolor="#ffffff"
     bordercolor="#666666"
     borderopacity="1"
     objecttolerance="10"
     gridtolerance="10"
     guidetolerance="10"
     inkscape:pageopacity="0"
     inkscape:pageshadow="2"
     inkscape:window-width="640"
     inkscape:window-height="480"
     id="namedview242"
     showgrid="false"
     inkscape:zoom="0.18730159"
     inkscape:cx="542.65625"
     inkscape:cy="28.28125"
     inkscape:window-x="0"
     inkscape:window-y="0"
     inkscape:window-maximized="0"
     inkscape:current-layer="svg2" /><metadata
     id="metadata8"><rdf:RDF><cc:Work
         rdf:about=""><dc:format>image/svg+xml</dc:format><dc:type
           rdf:resource="http://purl.org/dc/dcmitype/StillImage" /></cc:Work></rdf:RDF></metadata><defs
     id="defs6"><clipPath
       id="clipPath20"><path
         d="m 70.921,651.91 135.03,0 0,59.655 -135.03,0 0,-59.655 z"
         inkscape:connector-curvature="0"
         id="path22" /></clipPath><clipPath
       id="clipPath28"><path
         d="m 70.92,651.91 135.02,0 0,59.664 -135.02,0 0,-59.664 z"
         inkscape:connector-curvature="0"
         id="path30" /></clipPath><clipPath
       id="clipPath40"><path
         d="m 70.92,651.91 135.02,0 0,59.664 -135.02,0 0,-59.664 z"
         inkscape:connector-curvature="0"
         id="path42" /></clipPath><clipPath
       id="clipPath48"><path
         d="m 70.92,651.91 135.02,0 0,59.664 -135.02,0 0,-59.664 z"
         inkscape:connector-curvature="0"
         id="path50" /></clipPath><clipPath
       id="clipPath60"><path
         d="m 70.92,651.91 135.02,0 0,59.664 -135.02,0 0,-59.664 z"
         inkscape:connector-curvature="0"
         id="path62" /></clipPath><clipPath
       id="clipPath68"><path
         d="m 70.92,651.91 135.02,0 0,59.664 -135.02,0 0,-59.664 z"
         inkscape:connector-curvature="0"
         id="path70" /></clipPath><clipPath
       id="clipPath76"><path
         d="m 70.92,651.91 135.02,0 0,59.664 -135.02,0 0,-59.664 z"
         inkscape:connector-curvature="0"
         id="path78" /></clipPath><clipPath
       id="clipPath88"><path
         d="m 70.92,651.91 135.02,0 0,59.664 -135.02,0 0,-59.664 z"
         inkscape:connector-curvature="0"
         id="path90" /></clipPath><clipPath
       id="clipPath96"><path
         d="m 70.92,651.91 135.02,0 0,59.664 -135.02,0 0,-59.664 z"
         inkscape:connector-curvature="0"
         id="path98" /></clipPath><clipPath
       id="clipPath108"><path
         d="m 70.92,651.91 135.02,0 0,59.664 -135.02,0 0,-59.664 z"
         inkscape:connector-curvature="0"
         id="path110" /></clipPath><clipPath
       id="clipPath126"><path
         d="m 244.95,651.91 135.02,0 0,59.655 -135.02,0 0,-59.655 z"
         inkscape:connector-curvature="0"
         id="path128" /></clipPath><clipPath
       id="clipPath134"><path
         d="m 244.94,651.91 135.02,0 0,59.664 -135.02,0 0,-59.664 z"
         inkscape:connector-curvature="0"
         id="path136" /></clipPath><clipPath
       id="clipPath146"><path
         d="m 244.94,651.91 135.02,0 0,59.664 -135.02,0 0,-59.664 z"
         inkscape:connector-curvature="0"
         id="path148" /></clipPath><clipPath
       id="clipPath154"><path
         d="m 244.94,651.91 135.02,0 0,59.664 -135.02,0 0,-59.664 z"
         inkscape:connector-curvature="0"
         id="path156" /></clipPath><clipPath
       id="clipPath166"><path
         d="m 244.94,651.91 135.02,0 0,59.664 -135.02,0 0,-59.664 z"
         inkscape:connector-curvature="0"
         id="path168" /></clipPath><clipPath
       id="clipPath174"><path
         d="m 244.94,651.91 135.02,0 0,59.664 -135.02,0 0,-59.664 z"
         inkscape:connector-curvature="0"
         id="path176" /></clipPath><clipPath
       id="clipPath182"><path
         d="m 244.94,651.91 135.02,0 0,59.664 -135.02,0 0,-59.664 z"
         inkscape:connector-curvature="0"
         id="path184" /></clipPath><clipPath
       id="clipPath194"><path
         d="m 244.94,651.91 135.02,0 0,59.664 -135.02,0 0,-59.664 z"
         inkscape:connector-curvature="0"
         id="path196" /></clipPath><clipPath
       id="clipPath206"><path
         d="m 244.94,651.91 135.02,0 0,59.664 -135.02,0 0,-59.664 z"
         inkscape:connector-curvature="0"
         id="path208" /></clipPath><clipPath
       id="clipPath218"><path
         d="m 244.94,651.91 135.02,0 0,59.664 -135.02,0 0,-59.664 z"
         inkscape:connector-curvature="0"
         id="path220" /></clipPath><clipPath
       id="clipPath226"><path
         d="m 244.94,651.91 135.02,0 0,59.664 -135.02,0 0,-59.664 z"
         inkscape:connector-curvature="0"
         id="path228" /></clipPath><clipPath
       id="clipPath238"><path
         d="m 244.94,651.91 135.02,0 0,59.664 -135.02,0 0,-59.664 z"
         inkscape:connector-curvature="0"
         id="path240" /></clipPath><clipPath
       id="clipPath250"><path
         d="m 244.94,651.91 135.02,0 0,59.664 -135.02,0 0,-59.664 z"
         inkscape:connector-curvature="0"
         id="path252" /></clipPath><clipPath
       id="clipPath262"><path
         d="m 244.94,651.91 135.02,0 0,59.664 -135.02,0 0,-59.664 z"
         inkscape:connector-curvature="0"
         id="path264" /></clipPath><clipPath
       id="clipPath272"><path
         d="m 70.921,485.71 135.03,0 0,48.72 -135.03,0 0,-48.72 z"
         inkscape:connector-curvature="0"
         id="path274" /></clipPath><clipPath
       id="clipPath280"><path
         d="m 70.92,485.71 135.02,0 0,48.72 -135.02,0 0,-48.72 z"
         inkscape:connector-curvature="0"
         id="path282" /></clipPath><clipPath
       id="clipPath292"><path
         d="m 70.92,485.71 135.02,0 0,48.72 -135.02,0 0,-48.72 z"
         inkscape:connector-curvature="0"
         id="path294" /></clipPath><clipPath
       id="clipPath300"><path
         d="m 70.92,485.71 135.02,0 0,48.72 -135.02,0 0,-48.72 z"
         inkscape:connector-curvature="0"
         id="path302" /></clipPath><clipPath
       id="clipPath308"><path
         d="m 70.92,485.71 135.02,0 0,48.72 -135.02,0 0,-48.72 z"
         inkscape:connector-curvature="0"
         id="path310" /></clipPath><clipPath
       id="clipPath320"><path
         d="m 70.92,485.71 135.02,0 0,48.72 -135.02,0 0,-48.72 z"
         inkscape:connector-curvature="0"
         id="path322" /></clipPath><clipPath
       id="clipPath328"><path
         d="m 70.92,485.71 135.02,0 0,48.72 -135.02,0 0,-48.72 z"
         inkscape:connector-curvature="0"
         id="path330" /></clipPath><clipPath
       id="clipPath340"><path
         d="m 70.92,485.71 135.02,0 0,48.72 -135.02,0 0,-48.72 z"
         inkscape:connector-curvature="0"
         id="path342" /></clipPath><clipPath
       id="clipPath350"><path
         d="m 244.95,485.71 134.9,0 0,48.72 -134.9,0 0,-48.72 z"
         inkscape:connector-curvature="0"
         id="path352" /></clipPath><clipPath
       id="clipPath358"><path
         d="m 244.94,485.71 134.9,0 0,48.72 -134.9,0 0,-48.72 z"
         inkscape:connector-curvature="0"
         id="path360" /></clipPath><clipPath
       id="clipPath370"><path
         d="m 244.94,485.71 134.9,0 0,48.72 -134.9,0 0,-48.72 z"
         inkscape:connector-curvature="0"
         id="path372" /></clipPath><clipPath
       id="clipPath378"><path
         d="m 244.94,485.71 134.9,0 0,48.72 -134.9,0 0,-48.72 z"
         inkscape:connector-curvature="0"
         id="path380" /></clipPath><clipPath
       id="clipPath386"><path
         d="m 244.94,485.71 134.9,0 0,48.72 -134.9,0 0,-48.72 z"
         inkscape:connector-curvature="0"
         id="path388" /></clipPath><clipPath
       id="clipPath398"><path
         d="m 244.94,485.71 134.9,0 0,48.72 -134.9,0 0,-48.72 z"
         inkscape:connector-curvature="0"
         id="path400" /></clipPath><clipPath
       id="clipPath410"><path
         d="m 244.94,485.71 134.9,0 0,48.72 -134.9,0 0,-48.72 z"
         inkscape:connector-curvature="0"
         id="path412" /></clipPath><clipPath
       id="clipPath422"><path
         d="m 244.94,485.71 134.9,0 0,48.72 -134.9,0 0,-48.72 z"
         inkscape:connector-curvature="0"
         id="path424" /></clipPath><clipPath
       id="clipPath430"><path
         d="m 244.94,485.71 134.9,0 0,48.72 -134.9,0 0,-48.72 z"
         inkscape:connector-curvature="0"
         id="path432" /></clipPath><clipPath
       id="clipPath442"><path
         d="m 244.94,485.71 134.9,0 0,48.72 -134.9,0 0,-48.72 z"
         inkscape:connector-curvature="0"
         id="path444" /></clipPath><clipPath
       id="clipPath454"><path
         d="m 244.94,485.71 134.9,0 0,48.72 -134.9,0 0,-48.72 z"
         inkscape:connector-curvature="0"
         id="path456" /></clipPath><clipPath
       id="clipPath466"><path
         d="m 244.94,485.71 134.9,0 0,48.72 -134.9,0 0,-48.72 z"
         inkscape:connector-curvature="0"
         id="path468" /></clipPath></defs><g
     transform="matrix(1.25,0,0,-1.25,-87.71875,894.90625)"
     id="g10"><path
       d="m 70.55,683.3 135.75,0.05"
       inkscape:connector-curvature="0"
       id="path12"
       style="fill:none;stroke:#000000;stroke-width:0.75;stroke-linecap:round;stroke-linejoin:round;stroke-miterlimit:10;stroke-opacity:1;stroke-dasharray:none" /><path
       d="m 70.55,648 135.75,0 0,67.55 -135.75,0 0,-67.55 z"
       inkscape:connector-curvature="0"
       id="path14"
       style="fill:none;stroke:#000000;stroke-width:0.75;stroke-linecap:round;stroke-linejoin:miter;stroke-miterlimit:8;stroke-opacity:1;stroke-dasharray:none" /><g
       id="g16"><g
         clip-path="url(#clipPath20)"
         id="g18"><g
           id="g24"><g
             clip-path="url(#clipPath28)"
             id="g26"><text
   transform="matrix(1,0,0,-1,98.784,701.26)"
   id="text32"><tspan
     x="0 7.1999998 14.4 21.6 28.799999 36 43.200001 50.400002 57.599998 64.800003 72"
     y="0"
     id="tspan34"
     style="font-size:12px;font-variant:normal;font-weight:normal;writing-mode:lr-tb;fill:#000000;fill-opacity:1;fill-rule:nonzero;stroke:none;font-family:Courier New;-inkscape-font-specification:Courier New">«interface»</tspan></text>

</g></g><g
           id="g36"><g
             clip-path="url(#clipPath40)"
             id="g38" /></g><g
           id="g44"><g
             clip-path="url(#clipPath48)"
             id="g46"><text
   transform="matrix(1,0,0,-1,103.46,686.86)"
   id="text52"><tspan
     x="0 3.336 11.388 18.096001 22.764 30.096001 33.431999 40.764 48.096001 55.428001 62.759998"
     y="0"
     id="tspan54"
     style="font-size:12px;font-variant:normal;font-weight:bold;writing-mode:lr-tb;fill:#000000;fill-opacity:1;fill-rule:nonzero;stroke:none;font-family:Helvetica;-inkscape-font-specification:Helvetica-Bold">IVerbindung</tspan></text>

</g></g><g
           id="g56"><g
             clip-path="url(#clipPath60)"
             id="g58" /></g><g
           id="g64"><g
             clip-path="url(#clipPath68)"
             id="g66" /></g><g
           id="g72"><g
             clip-path="url(#clipPath76)"
             id="g74"><text
   transform="matrix(1,0,0,-1,78.12,670.78)"
   id="text80"><tspan
     x="0 6.96 10.296 16.296 23.028 29.736 36.444 43.152 49.032001 52.368 56.363998 60.312 63.647999 67.019997 70.356003 76.260002 82.968002 85.632004"
     y="0"
     id="tspan82"
     style="font-size:12px;font-variant:normal;font-weight:normal;writing-mode:lr-tb;fill:#000000;fill-opacity:1;fill-rule:nonzero;stroke:none;font-family:Helvetica;-inkscape-font-specification:Helvetica">+ connect() : void</tspan></text>

</g></g><g
           id="g84"><g
             clip-path="url(#clipPath88)"
             id="g86" /></g><g
           id="g92"><g
             clip-path="url(#clipPath96)"
             id="g94"><text
   transform="matrix(1,0,0,-1,78.12,656.95)"
   id="text100"><tspan
     x="0 6.96 10.296 17.028 19.691999 25.691999 31.691999 38.363998 45.096001 51.804001 58.512001 64.391998 67.727997 71.723999 75.671997 79.008003 82.379997 85.716003 91.620003 98.328003 100.992"
     y="0"
     id="tspan102"
     style="font-size:12px;font-variant:normal;font-weight:normal;writing-mode:lr-tb;fill:#000000;fill-opacity:1;fill-rule:nonzero;stroke:none;font-family:Helvetica;-inkscape-font-specification:Helvetica">+ disconnect() : void</tspan></text>

</g></g><g
           id="g104"><g
             clip-path="url(#clipPath108)"
             id="g106" /></g></g></g><path
       d="m 138.42,648 -12.37,-15 24.75,0 -12.38,15 z"
       inkscape:connector-curvature="0"
       id="path112"
       style="fill:#ffffff;fill-opacity:1;fill-rule:evenodd;stroke:none" /><path
       d="m 138.42,648 -12.37,-15 24.75,0 -12.38,15 z"
       inkscape:connector-curvature="0"
       id="path114"
       style="fill:none;stroke:#000000;stroke-width:0.75;stroke-linecap:round;stroke-linejoin:round;stroke-miterlimit:8;stroke-opacity:1;stroke-dasharray:none" /><g
       id="g116"><path
         d="m 138.55,633 0,-94.5"
         inkscape:connector-curvature="0"
         id="path118"
         style="fill:none;stroke:#000000;stroke-width:0.75;stroke-linecap:round;stroke-linejoin:round;stroke-miterlimit:8;stroke-opacity:1;stroke-dasharray:5.25, 3;stroke-dashoffset:0" /></g><path
       d="m 244.55,648 135.75,0 0,67.55 -135.75,0 0,-67.55 z"
       inkscape:connector-curvature="0"
       id="path120"
       style="fill:none;stroke:#000000;stroke-width:0.75;stroke-linecap:round;stroke-linejoin:miter;stroke-miterlimit:8;stroke-opacity:1;stroke-dasharray:none" /><g
       id="g122"><g
         clip-path="url(#clipPath126)"
         id="g124"><g
           id="g130"><g
             clip-path="url(#clipPath134)"
             id="g132"><text
   transform="matrix(1,0,0,-1,272.78,701.26)"
   id="text138"><tspan
     x="0 7.1999998 14.4 21.6 28.799999 36 43.200001 50.400002 57.599998 64.800003 72"
     y="0"
     id="tspan140"
     style="font-size:12px;font-variant:normal;font-weight:normal;writing-mode:lr-tb;fill:#000000;fill-opacity:1;fill-rule:nonzero;stroke:none;font-family:Courier New;-inkscape-font-specification:Courier New">«interface»</tspan></text>

</g></g><g
           id="g142"><g
             clip-path="url(#clipPath146)"
             id="g144" /></g><g
           id="g150"><g
             clip-path="url(#clipPath154)"
             id="g152"><text
   transform="matrix(1,0,0,-1,271.46,686.86)"
   id="text158"><tspan
     x="0 3.336 12 18.708 26.040001 32.712002 37.416 41.411999 46.080002 52.751999 60.084 67.416 74.748001"
     y="0"
     id="tspan160"
     style="font-size:12px;font-variant:normal;font-weight:bold;writing-mode:lr-tb;fill:#000000;fill-opacity:1;fill-rule:nonzero;stroke:none;font-family:Helvetica;-inkscape-font-specification:Helvetica-Bold">IUebertragung</tspan></text>

</g></g><g
           id="g162"><g
             clip-path="url(#clipPath166)"
             id="g164" /></g><g
           id="g170"><g
             clip-path="url(#clipPath174)"
             id="g172" /></g><g
           id="g178"><g
             clip-path="url(#clipPath182)"
             id="g180"><text
   transform="matrix(1,0,0,-1,252.14,670.78)"
   id="text186"><tspan
     x="0 6.96"
     y="0"
     id="tspan188"
     style="font-size:12px;font-variant:normal;font-weight:normal;writing-mode:lr-tb;fill:#000000;fill-opacity:1;fill-rule:nonzero;stroke:none;font-family:Helvetica;-inkscape-font-specification:Helvetica">+ </tspan></text>

</g></g><g
           id="g190"><g
             clip-path="url(#clipPath194)"
             id="g192"><text
   transform="matrix(1,0,0,-1,262.46,670.78)"
   id="text198"><tspan
     x="0 3.9960001 10.668 16.667999 23.388 26.052 31.908001"
     y="0"
     id="tspan200"
     style="font-size:12px;font-variant:normal;font-weight:normal;writing-mode:lr-tb;fill:#000000;fill-opacity:1;fill-rule:nonzero;stroke:none;font-family:Helvetica;-inkscape-font-specification:Helvetica">receive</tspan></text>

</g></g><g
           id="g202"><g
             clip-path="url(#clipPath206)"
             id="g204"><text
   transform="matrix(1,0,0,-1,301.13,670.78)"
   id="text210"><tspan
     x="0 3.9960001 7.9200001 11.256 14.628 18.096001 23.976 30.684 33.348"
     y="0"
     id="tspan212"
     style="font-size:12px;font-variant:normal;font-weight:normal;writing-mode:lr-tb;fill:#000000;fill-opacity:1;fill-rule:nonzero;stroke:none;font-family:Helvetica;-inkscape-font-specification:Helvetica">() : void</tspan></text>

</g></g><g
           id="g214"><g
             clip-path="url(#clipPath218)"
             id="g216" /></g><g
           id="g222"><g
             clip-path="url(#clipPath226)"
             id="g224"><text
   transform="matrix(1,0,0,-1,252.14,656.95)"
   id="text230"><tspan
     x="0 6.96"
     y="0"
     id="tspan232"
     style="font-size:12px;font-variant:normal;font-weight:normal;writing-mode:lr-tb;fill:#000000;fill-opacity:1;fill-rule:nonzero;stroke:none;font-family:Helvetica;-inkscape-font-specification:Helvetica">+ </tspan></text>

</g></g><g
           id="g234"><g
             clip-path="url(#clipPath238)"
             id="g236"><text
   transform="matrix(1,0,0,-1,262.46,656.95)"
   id="text242"><tspan
     x="0 6 12.708 19.416"
     y="0"
     id="tspan244"
     style="font-size:12px;font-variant:normal;font-weight:normal;writing-mode:lr-tb;fill:#000000;fill-opacity:1;fill-rule:nonzero;stroke:none;font-family:Helvetica;-inkscape-font-specification:Helvetica">send</tspan></text>

</g></g><g
           id="g246"><g
             clip-path="url(#clipPath250)"
             id="g248"><text
   transform="matrix(1,0,0,-1,288.65,656.95)"
   id="text254"><tspan
     x="0 3.9960001 7.9200001 11.256 14.628 17.964001 23.868 30.576 33.240002"
     y="0"
     id="tspan256"
     style="font-size:12px;font-variant:normal;font-weight:normal;writing-mode:lr-tb;fill:#000000;fill-opacity:1;fill-rule:nonzero;stroke:none;font-family:Helvetica;-inkscape-font-specification:Helvetica">() : void</tspan></text>

</g></g><g
           id="g258"><g
             clip-path="url(#clipPath262)"
             id="g260" /></g></g></g><path
       d="m 70.55,481.75 135.75,0 0,56.75 -135.75,0 0,-56.75 z"
       inkscape:connector-curvature="0"
       id="path266"
       style="fill:none;stroke:#000000;stroke-width:0.75;stroke-linecap:round;stroke-linejoin:miter;stroke-miterlimit:8;stroke-opacity:1;stroke-dasharray:none" /><g
       id="g268"><g
         clip-path="url(#clipPath272)"
         id="g270"><g
           id="g276"><g
             clip-path="url(#clipPath280)"
             id="g278"><text
   transform="matrix(1,0,0,-1,105.02,523.39)"
   id="text284"><tspan
     x="0 8.0279999 14.736 19.403999 26.736 30.072001 37.403999 44.736 52.068001 59.400002"
     y="0"
     id="tspan286"
     style="font-size:12px;font-variant:normal;font-weight:bold;writing-mode:lr-tb;fill:#000000;fill-opacity:1;fill-rule:nonzero;stroke:none;font-family:Helvetica;-inkscape-font-specification:Helvetica-Bold">Verbindung</tspan></text>

</g></g><g
           id="g288"><g
             clip-path="url(#clipPath292)"
             id="g290" /></g><g
           id="g296"><g
             clip-path="url(#clipPath300)"
             id="g298" /></g><g
           id="g304"><g
             clip-path="url(#clipPath308)"
             id="g306"><text
   transform="matrix(1,0,0,-1,78.12,507.31)"
   id="text312"><tspan
     x="0 6.96 10.296 16.296 23.028 29.736 36.444 43.152 49.032001 52.368 56.363998 60.312 63.647999 67.019997 70.356003 76.260002 82.968002 85.632004"
     y="0"
     id="tspan314"
     style="font-size:12px;font-variant:normal;font-weight:normal;writing-mode:lr-tb;fill:#000000;fill-opacity:1;fill-rule:nonzero;stroke:none;font-family:Helvetica;-inkscape-font-specification:Helvetica">+ connect() : void</tspan></text>

</g></g><g
           id="g316"><g
             clip-path="url(#clipPath320)"
             id="g318" /></g><g
           id="g324"><g
             clip-path="url(#clipPath328)"
             id="g326"><text
   transform="matrix(1,0,0,-1,78.12,493.39)"
   id="text332"><tspan
     x="0 6.96 10.296 17.028 19.691999 25.691999 31.691999 38.363998 45.096001 51.804001 58.512001 64.391998 67.727997 71.723999 75.671997 79.008003 82.379997 85.716003 91.620003 98.328003 100.992"
     y="0"
     id="tspan334"
     style="font-size:12px;font-variant:normal;font-weight:normal;writing-mode:lr-tb;fill:#000000;fill-opacity:1;fill-rule:nonzero;stroke:none;font-family:Helvetica;-inkscape-font-specification:Helvetica">+ disconnect() : void</tspan></text>

</g></g><g
           id="g336"><g
             clip-path="url(#clipPath340)"
             id="g338" /></g></g></g><path
       d="m 244.5,481.75 135.75,0 0,56.75 -135.75,0 0,-56.75 z"
       inkscape:connector-curvature="0"
       id="path344"
       style="fill:none;stroke:#000000;stroke-width:0.75;stroke-linecap:round;stroke-linejoin:miter;stroke-miterlimit:8;stroke-opacity:1;stroke-dasharray:none" /><g
       id="g346"><g
         clip-path="url(#clipPath350)"
         id="g348"><g
           id="g354"><g
             clip-path="url(#clipPath358)"
             id="g356"><text
   transform="matrix(1,0,0,-1,273.02,523.39)"
   id="text362"><tspan
     x="0 8.6639996 15.336 22.667999 29.388 34.056 38.051998 42.720001 49.391998 56.723999 64.056 71.388"
     y="0"
     id="tspan364"
     style="font-size:12px;font-variant:normal;font-weight:bold;writing-mode:lr-tb;fill:#000000;fill-opacity:1;fill-rule:nonzero;stroke:none;font-family:Helvetica;-inkscape-font-specification:Helvetica-Bold">Uebertragung</tspan></text>

</g></g><g
           id="g366"><g
             clip-path="url(#clipPath370)"
             id="g368" /></g><g
           id="g374"><g
             clip-path="url(#clipPath378)"
             id="g376" /></g><g
           id="g382"><g
             clip-path="url(#clipPath386)"
             id="g384"><text
   transform="matrix(1,0,0,-1,252.14,507.31)"
   id="text390"><tspan
     x="0 6.96"
     y="0"
     id="tspan392"
     style="font-size:12px;font-variant:normal;font-weight:normal;writing-mode:lr-tb;fill:#000000;fill-opacity:1;fill-rule:nonzero;stroke:none;font-family:Helvetica;-inkscape-font-specification:Helvetica">+ </tspan></text>

</g></g><g
           id="g394"><g
             clip-path="url(#clipPath398)"
             id="g396"><text
   transform="matrix(1,0,0,-1,262.46,507.31)"
   id="text402"><tspan
     x="0 3.9960001 10.668 16.667999 23.388 26.052 31.908001"
     y="0"
     id="tspan404"
     style="font-size:12px;font-variant:normal;font-weight:normal;writing-mode:lr-tb;fill:#000000;fill-opacity:1;fill-rule:nonzero;stroke:none;font-family:Helvetica;-inkscape-font-specification:Helvetica">receive</tspan></text>

</g></g><g
           id="g406"><g
             clip-path="url(#clipPath410)"
             id="g408"><text
   transform="matrix(1,0,0,-1,301.13,507.31)"
   id="text414"><tspan
     x="0 3.9960001 7.9200001 11.256 14.628 18.096001 23.976 30.684 33.348"
     y="0"
     id="tspan416"
     style="font-size:12px;font-variant:normal;font-weight:normal;writing-mode:lr-tb;fill:#000000;fill-opacity:1;fill-rule:nonzero;stroke:none;font-family:Helvetica;-inkscape-font-specification:Helvetica">() : void</tspan></text>

</g></g><g
           id="g418"><g
             clip-path="url(#clipPath422)"
             id="g420" /></g><g
           id="g426"><g
             clip-path="url(#clipPath430)"
             id="g428"><text
   transform="matrix(1,0,0,-1,252.14,493.39)"
   id="text434"><tspan
     x="0 6.96"
     y="0"
     id="tspan436"
     style="font-size:12px;font-variant:normal;font-weight:normal;writing-mode:lr-tb;fill:#000000;fill-opacity:1;fill-rule:nonzero;stroke:none;font-family:Helvetica;-inkscape-font-specification:Helvetica">+ </tspan></text>

</g></g><g
           id="g438"><g
             clip-path="url(#clipPath442)"
             id="g440"><text
   transform="matrix(1,0,0,-1,262.46,493.39)"
   id="text446"><tspan
     x="0 6 12.708 19.416"
     y="0"
     id="tspan448"
     style="font-size:12px;font-variant:normal;font-weight:normal;writing-mode:lr-tb;fill:#000000;fill-opacity:1;fill-rule:nonzero;stroke:none;font-family:Helvetica;-inkscape-font-specification:Helvetica">send</tspan></text>

</g></g><g
           id="g450"><g
             clip-path="url(#clipPath454)"
             id="g452"><text
   transform="matrix(1,0,0,-1,288.65,493.39)"
   id="text458"><tspan
     x="0 3.9960001 7.9200001 11.256 14.628 17.964001 23.868 30.576 33.240002"
     y="0"
     id="tspan460"
     style="font-size:12px;font-variant:normal;font-weight:normal;writing-mode:lr-tb;fill:#000000;fill-opacity:1;fill-rule:nonzero;stroke:none;font-family:Helvetica;-inkscape-font-specification:Helvetica">() : void</tspan></text>

</g></g><g
           id="g462"><g
             clip-path="url(#clipPath466)"
             id="g464" /></g></g></g><path
       d="m 312.27,648 -12.37,-15 24.75,0 -12.38,15 z"
       inkscape:connector-curvature="0"
       id="path470"
       style="fill:#ffffff;fill-opacity:1;fill-rule:evenodd;stroke:none" /><path
       d="m 312.27,648 -12.37,-15 24.75,0 -12.38,15 z"
       inkscape:connector-curvature="0"
       id="path472"
       style="fill:none;stroke:#000000;stroke-width:0.75;stroke-linecap:round;stroke-linejoin:round;stroke-miterlimit:8;stroke-opacity:1;stroke-dasharray:none" /><g
       id="g474"><path
         d="m 312.45,633 0,-94.5"
         inkscape:connector-curvature="0"
         id="path476"
         style="fill:none;stroke:#000000;stroke-width:0.75;stroke-linecap:round;stroke-linejoin:round;stroke-miterlimit:8;stroke-opacity:1;stroke-dasharray:5.25, 3;stroke-dashoffset:0" /></g><path
       d="m 70.55,518.5 135.75,0"
       inkscape:connector-curvature="0"
       id="path478"
       style="fill:none;stroke:#000000;stroke-width:0.75;stroke-linecap:round;stroke-linejoin:round;stroke-miterlimit:8;stroke-opacity:1;stroke-dasharray:none" /><path
       d="m 244.65,518.5 135.75,0"
       inkscape:connector-curvature="0"
       id="path480"
       style="fill:none;stroke:#000000;stroke-width:0.75;stroke-linecap:round;stroke-linejoin:round;stroke-miterlimit:8;stroke-opacity:1;stroke-dasharray:none" /><path
       d="m 244.5,683.35 135.75,0"
       inkscape:connector-curvature="0"
       id="path482"
       style="fill:none;stroke:#000000;stroke-width:0.75;stroke-linecap:round;stroke-linejoin:round;stroke-miterlimit:8;stroke-opacity:1;stroke-dasharray:none" /></g></svg>