<?xml version="1.0" encoding="UTF-8" standalone="no"?>
<!-- Created with Inkscape (http://www.inkscape.org/) -->

<svg
   xmlns:dc="http://purl.org/dc/elements/1.1/"
   xmlns:cc="http://creativecommons.org/ns#"
   xmlns:rdf="http://www.w3.org/1999/02/22-rdf-syntax-ns#"
   xmlns:svg="http://www.w3.org/2000/svg"
   xmlns="http://www.w3.org/2000/svg"
   xmlns:sodipodi="http://sodipodi.sourceforge.net/DTD/sodipodi-0.dtd"
   xmlns:inkscape="http://www.inkscape.org/namespaces/inkscape"
   version="1.1"
   width="483.875"
   height="303.75"
   id="svg2"
   xml:space="preserve"
   inkscape:version="0.48.4 r9939"
   sodipodi:docname="Bild 1-13 Klassendiagramm des Beobachter-Entwurfmusters.svg"><sodipodi:namedview
     pagecolor="#ffffff"
     bordercolor="#666666"
     borderopacity="1"
     objecttolerance="10"
     gridtolerance="10"
     guidetolerance="10"
     inkscape:pageopacity="0"
     inkscape:pageshadow="2"
     inkscape:window-width="640"
     inkscape:window-height="480"
     id="namedview333"
     showgrid="false"
     inkscape:zoom="0.18730159"
     inkscape:cx="160.34375"
     inkscape:cy="224.53125"
     inkscape:window-x="0"
     inkscape:window-y="0"
     inkscape:window-maximized="0"
     inkscape:current-layer="svg2" /><metadata
     id="metadata8"><rdf:RDF><cc:Work
         rdf:about=""><dc:format>image/svg+xml</dc:format><dc:type
           rdf:resource="http://purl.org/dc/dcmitype/StillImage" /></cc:Work></rdf:RDF></metadata><defs
     id="defs6"><clipPath
       id="clipPath20"><path
         d="m 376.85,328.72 159.75,0 0,80.64 -159.75,0 0,-80.64 z"
         inkscape:connector-curvature="0"
         id="path22" /></clipPath><clipPath
       id="clipPath28"><path
         d="m 376.85,328.73 159.74,0 0,80.64 -159.74,0 0,-80.64 z"
         inkscape:connector-curvature="0"
         id="path30" /></clipPath><clipPath
       id="clipPath40"><path
         d="m 376.85,328.73 159.74,0 0,80.64 -159.74,0 0,-80.64 z"
         inkscape:connector-curvature="0"
         id="path42" /></clipPath><clipPath
       id="clipPath48"><path
         d="m 376.85,328.73 159.74,0 0,80.64 -159.74,0 0,-80.64 z"
         inkscape:connector-curvature="0"
         id="path50" /></clipPath><clipPath
       id="clipPath56"><path
         d="m 376.85,328.73 159.74,0 0,80.64 -159.74,0 0,-80.64 z"
         inkscape:connector-curvature="0"
         id="path58" /></clipPath><clipPath
       id="clipPath68"><path
         d="m 376.85,328.73 159.74,0 0,80.64 -159.74,0 0,-80.64 z"
         inkscape:connector-curvature="0"
         id="path70" /></clipPath><clipPath
       id="clipPath76"><path
         d="m 376.85,328.73 159.74,0 0,80.64 -159.74,0 0,-80.64 z"
         inkscape:connector-curvature="0"
         id="path78" /></clipPath><clipPath
       id="clipPath88"><path
         d="m 376.85,328.73 159.74,0 0,80.64 -159.74,0 0,-80.64 z"
         inkscape:connector-curvature="0"
         id="path90" /></clipPath><clipPath
       id="clipPath96"><path
         d="m 376.85,328.73 159.74,0 0,80.64 -159.74,0 0,-80.64 z"
         inkscape:connector-curvature="0"
         id="path98" /></clipPath><clipPath
       id="clipPath108"><path
         d="m 376.85,328.73 159.74,0 0,80.64 -159.74,0 0,-80.64 z"
         inkscape:connector-curvature="0"
         id="path110" /></clipPath><clipPath
       id="clipPath116"><path
         d="m 376.85,328.73 159.74,0 0,80.64 -159.74,0 0,-80.64 z"
         inkscape:connector-curvature="0"
         id="path118" /></clipPath><clipPath
       id="clipPath128"><path
         d="m 376.85,328.73 159.74,0 0,80.64 -159.74,0 0,-80.64 z"
         inkscape:connector-curvature="0"
         id="path130" /></clipPath><clipPath
       id="clipPath136"><path
         d="m 376.85,328.73 159.74,0 0,80.64 -159.74,0 0,-80.64 z"
         inkscape:connector-curvature="0"
         id="path138" /></clipPath><clipPath
       id="clipPath148"><path
         d="m 376.85,328.73 159.74,0 0,80.64 -159.74,0 0,-80.64 z"
         inkscape:connector-curvature="0"
         id="path150" /></clipPath><clipPath
       id="clipPath156"><path
         d="m 376.85,328.73 159.74,0 0,80.64 -159.74,0 0,-80.64 z"
         inkscape:connector-curvature="0"
         id="path158" /></clipPath><clipPath
       id="clipPath172"><path
         d="m 564.92,472.75 188.41,0 0,58.56 -188.41,0 0,-58.56 z"
         inkscape:connector-curvature="0"
         id="path174" /></clipPath><clipPath
       id="clipPath180"><path
         d="m 564.91,472.75 188.42,0 0,58.56 -188.42,0 0,-58.56 z"
         inkscape:connector-curvature="0"
         id="path182" /></clipPath><clipPath
       id="clipPath192"><path
         d="m 564.91,472.75 188.42,0 0,58.56 -188.42,0 0,-58.56 z"
         inkscape:connector-curvature="0"
         id="path194" /></clipPath><clipPath
       id="clipPath200"><path
         d="m 564.91,472.75 188.42,0 0,58.56 -188.42,0 0,-58.56 z"
         inkscape:connector-curvature="0"
         id="path202" /></clipPath><clipPath
       id="clipPath212"><path
         d="m 564.91,472.75 188.42,0 0,58.56 -188.42,0 0,-58.56 z"
         inkscape:connector-curvature="0"
         id="path214" /></clipPath><clipPath
       id="clipPath224"><path
         d="m 564.91,472.75 188.42,0 0,58.56 -188.42,0 0,-58.56 z"
         inkscape:connector-curvature="0"
         id="path226" /></clipPath><clipPath
       id="clipPath232"><path
         d="m 564.91,472.75 188.42,0 0,58.56 -188.42,0 0,-58.56 z"
         inkscape:connector-curvature="0"
         id="path234" /></clipPath><clipPath
       id="clipPath240"><path
         d="m 564.91,472.75 188.42,0 0,58.56 -188.42,0 0,-58.56 z"
         inkscape:connector-curvature="0"
         id="path242" /></clipPath><clipPath
       id="clipPath252"><path
         d="m 564.91,472.75 188.42,0 0,58.56 -188.42,0 0,-58.56 z"
         inkscape:connector-curvature="0"
         id="path254" /></clipPath><clipPath
       id="clipPath264"><path
         d="m 564.91,472.75 188.42,0 0,58.56 -188.42,0 0,-58.56 z"
         inkscape:connector-curvature="0"
         id="path266" /></clipPath><clipPath
       id="clipPath272"><path
         d="m 564.91,472.75 188.42,0 0,58.56 -188.42,0 0,-58.56 z"
         inkscape:connector-curvature="0"
         id="path274" /></clipPath><clipPath
       id="clipPath280"><path
         d="m 564.91,472.75 188.42,0 0,58.56 -188.42,0 0,-58.56 z"
         inkscape:connector-curvature="0"
         id="path282" /></clipPath><clipPath
       id="clipPath292"><path
         d="m 564.91,472.75 188.42,0 0,58.56 -188.42,0 0,-58.56 z"
         inkscape:connector-curvature="0"
         id="path294" /></clipPath><clipPath
       id="clipPath306"><path
         d="m 376.97,487.51 159.75,0 0,75.48 -159.75,0 0,-75.48 z"
         inkscape:connector-curvature="0"
         id="path308" /></clipPath><clipPath
       id="clipPath314"><path
         d="m 376.97,487.51 159.74,0 0,75.48 -159.74,0 0,-75.48 z"
         inkscape:connector-curvature="0"
         id="path316" /></clipPath><clipPath
       id="clipPath326"><path
         d="m 376.97,487.51 159.74,0 0,75.48 -159.74,0 0,-75.48 z"
         inkscape:connector-curvature="0"
         id="path328" /></clipPath><clipPath
       id="clipPath334"><path
         d="m 376.97,487.51 159.74,0 0,75.48 -159.74,0 0,-75.48 z"
         inkscape:connector-curvature="0"
         id="path336" /></clipPath><clipPath
       id="clipPath346"><path
         d="m 376.97,487.51 159.74,0 0,75.48 -159.74,0 0,-75.48 z"
         inkscape:connector-curvature="0"
         id="path348" /></clipPath><clipPath
       id="clipPath354"><path
         d="m 376.97,487.51 159.74,0 0,75.48 -159.74,0 0,-75.48 z"
         inkscape:connector-curvature="0"
         id="path356" /></clipPath><clipPath
       id="clipPath362"><path
         d="m 376.97,487.51 159.74,0 0,75.48 -159.74,0 0,-75.48 z"
         inkscape:connector-curvature="0"
         id="path364" /></clipPath><clipPath
       id="clipPath374"><path
         d="m 376.97,487.51 159.74,0 0,75.48 -159.74,0 0,-75.48 z"
         inkscape:connector-curvature="0"
         id="path376" /></clipPath><clipPath
       id="clipPath386"><path
         d="m 376.97,487.51 159.74,0 0,75.48 -159.74,0 0,-75.48 z"
         inkscape:connector-curvature="0"
         id="path388" /></clipPath><clipPath
       id="clipPath394"><path
         d="m 376.97,487.51 159.74,0 0,75.48 -159.74,0 0,-75.48 z"
         inkscape:connector-curvature="0"
         id="path396" /></clipPath><clipPath
       id="clipPath406"><path
         d="m 376.97,487.51 159.74,0 0,75.48 -159.74,0 0,-75.48 z"
         inkscape:connector-curvature="0"
         id="path408" /></clipPath><clipPath
       id="clipPath414"><path
         d="m 376.97,487.51 159.74,0 0,75.48 -159.74,0 0,-75.48 z"
         inkscape:connector-curvature="0"
         id="path416" /></clipPath><clipPath
       id="clipPath426"><path
         d="m 376.97,487.51 159.74,0 0,75.48 -159.74,0 0,-75.48 z"
         inkscape:connector-curvature="0"
         id="path428" /></clipPath><clipPath
       id="clipPath434"><path
         d="m 376.97,487.51 159.74,0 0,75.48 -159.74,0 0,-75.48 z"
         inkscape:connector-curvature="0"
         id="path436" /></clipPath><clipPath
       id="clipPath446"><path
         d="m 376.97,487.51 159.74,0 0,75.48 -159.74,0 0,-75.48 z"
         inkscape:connector-curvature="0"
         id="path448" /></clipPath><clipPath
       id="clipPath454"><path
         d="m 376.97,487.51 159.74,0 0,75.48 -159.74,0 0,-75.48 z"
         inkscape:connector-curvature="0"
         id="path456" /></clipPath><clipPath
       id="clipPath466"><path
         d="m 583.28,335.2 179.18,0 0,74.4 -179.18,0 0,-74.4 z"
         inkscape:connector-curvature="0"
         id="path468" /></clipPath><clipPath
       id="clipPath474"><path
         d="m 583.27,335.21 179.18,0 0,74.4 -179.18,0 0,-74.4 z"
         inkscape:connector-curvature="0"
         id="path476" /></clipPath><clipPath
       id="clipPath486"><path
         d="m 583.27,335.21 179.18,0 0,74.4 -179.18,0 0,-74.4 z"
         inkscape:connector-curvature="0"
         id="path488" /></clipPath><clipPath
       id="clipPath494"><path
         d="m 583.27,335.21 179.18,0 0,74.4 -179.18,0 0,-74.4 z"
         inkscape:connector-curvature="0"
         id="path496" /></clipPath><clipPath
       id="clipPath502"><path
         d="m 583.27,335.21 179.18,0 0,74.4 -179.18,0 0,-74.4 z"
         inkscape:connector-curvature="0"
         id="path504" /></clipPath><clipPath
       id="clipPath514"><path
         d="m 583.27,335.21 179.18,0 0,74.4 -179.18,0 0,-74.4 z"
         inkscape:connector-curvature="0"
         id="path516" /></clipPath><clipPath
       id="clipPath526"><path
         d="m 583.27,335.21 179.18,0 0,74.4 -179.18,0 0,-74.4 z"
         inkscape:connector-curvature="0"
         id="path528" /></clipPath><clipPath
       id="clipPath534"><path
         d="m 583.27,335.21 179.18,0 0,74.4 -179.18,0 0,-74.4 z"
         inkscape:connector-curvature="0"
         id="path536" /></clipPath><clipPath
       id="clipPath546"><path
         d="m 583.27,335.21 179.18,0 0,74.4 -179.18,0 0,-74.4 z"
         inkscape:connector-curvature="0"
         id="path548" /></clipPath><clipPath
       id="clipPath558"><path
         d="m 583.27,335.21 179.18,0 0,74.4 -179.18,0 0,-74.4 z"
         inkscape:connector-curvature="0"
         id="path560" /></clipPath><clipPath
       id="clipPath570"><path
         d="m 583.27,335.21 179.18,0 0,74.4 -179.18,0 0,-74.4 z"
         inkscape:connector-curvature="0"
         id="path572" /></clipPath><clipPath
       id="clipPath578"><path
         d="m 583.27,335.21 179.18,0 0,74.4 -179.18,0 0,-74.4 z"
         inkscape:connector-curvature="0"
         id="path580" /></clipPath><clipPath
       id="clipPath602"><path
         d="m 595.64,547.39 84.615,0 0,12.24 -84.615,0 0,-12.24 z"
         inkscape:connector-curvature="0"
         id="path604" /></clipPath><clipPath
       id="clipPath610"><path
         d="m 595.63,547.39 84.624,0 0,12.24 -84.624,0 0,-12.24 z"
         inkscape:connector-curvature="0"
         id="path612" /></clipPath><clipPath
       id="clipPath622"><path
         d="m 595.63,547.39 84.624,0 0,12.24 -84.624,0 0,-12.24 z"
         inkscape:connector-curvature="0"
         id="path624" /></clipPath><clipPath
       id="clipPath634"><path
         d="m 595.63,547.39 84.624,0 0,12.24 -84.624,0 0,-12.24 z"
         inkscape:connector-curvature="0"
         id="path636" /></clipPath><clipPath
       id="clipPath642"><path
         d="m 595.63,547.39 84.624,0 0,12.24 -84.624,0 0,-12.24 z"
         inkscape:connector-curvature="0"
         id="path644" /></clipPath></defs><g
     transform="matrix(1.25,0,0,-1.25,-470.03125,709.21875)"
     id="g10"><path
       d="m 376.4,324.75 160.5,0 0,88.75 -160.5,0 0,-88.75 z"
       inkscape:connector-curvature="0"
       id="path12"
       style="fill:#ffffff;fill-opacity:1;fill-rule:evenodd;stroke:none" /><path
       d="m 376.4,324.75 160.5,0 0,88.75 -160.5,0 0,-88.75 z"
       inkscape:connector-curvature="0"
       id="path14"
       style="fill:none;stroke:#000000;stroke-width:0.75;stroke-linecap:round;stroke-linejoin:miter;stroke-miterlimit:10;stroke-opacity:1;stroke-dasharray:none" /><g
       id="g16"><g
         clip-path="url(#clipPath20)"
         id="g18"><g
           id="g24"><g
             clip-path="url(#clipPath28)"
             id="g26"><text
   transform="matrix(1,0,0,-1,420.05,398.33)"
   id="text32"><tspan
     x="0 8.6639996 15.336 22.667999 30 36.708 43.416 50.748001 54.695999 62.028 68.699997"
     y="0"
     id="tspan34"
     style="font-size:12px;font-variant:normal;font-weight:bold;writing-mode:lr-tb;fill:#000000;fill-opacity:1;fill-rule:nonzero;stroke:none;font-family:Helvetica;-inkscape-font-specification:Helvetica-Bold">Beobachtbar</tspan></text>

</g></g><g
           id="g36"><g
             clip-path="url(#clipPath40)"
             id="g38" /></g><g
           id="g44"><g
             clip-path="url(#clipPath48)"
             id="g46" /></g><g
           id="g52"><g
             clip-path="url(#clipPath56)"
             id="g54"><text
   transform="matrix(1,0,0,-1,384.05,370.85)"
   id="text60"><tspan
     x="0 6.7080002 13.416 23.375999 30.084 32.748001 39.419998 46.043999"
     y="0"
     id="tspan62"
     style="font-size:12px;font-variant:normal;font-weight:normal;writing-mode:lr-tb;fill:#000000;fill-opacity:1;fill-rule:nonzero;stroke:none;font-family:Helvetica;-inkscape-font-specification:Helvetica">anmelden</tspan></text>

</g></g><g
           id="g64"><g
             clip-path="url(#clipPath68)"
             id="g66" /></g><g
           id="g72"><g
             clip-path="url(#clipPath76)"
             id="g74"><text
   transform="matrix(1,0,0,-1,440.21,370.85)"
   id="text80"><tspan
     x="0 3.9960001 10.668 14.004 17.280001 20.615999 28.667999 35.268002 41.976002 48.576 55.284 61.164001 67.872002 71.208 77.940002 81.935997"
     y="0"
     id="tspan82"
     style="font-size:12px;font-variant:normal;font-weight:normal;writing-mode:lr-tb;fill:#000000;fill-opacity:1;fill-rule:nonzero;stroke:none;font-family:Helvetica;-inkscape-font-specification:Helvetica">(o: IBeobachter)</tspan></text>

</g></g><g
           id="g84"><g
             clip-path="url(#clipPath88)"
             id="g86" /></g><g
           id="g92"><g
             clip-path="url(#clipPath96)"
             id="g94"><text
   transform="matrix(1,0,0,-1,384.05,357.05)"
   id="text100"><tspan
     x="0 6.7080002 13.416 23.375999 30.084 32.748001 39.419998 46.043999"
     y="0"
     id="tspan102"
     style="font-size:12px;font-variant:normal;font-weight:normal;writing-mode:lr-tb;fill:#000000;fill-opacity:1;fill-rule:nonzero;stroke:none;font-family:Helvetica;-inkscape-font-specification:Helvetica">abmelden</tspan></text>

</g></g><g
           id="g104"><g
             clip-path="url(#clipPath108)"
             id="g106" /></g><g
           id="g112"><g
             clip-path="url(#clipPath116)"
             id="g114"><text
   transform="matrix(1,0,0,-1,440.21,357.05)"
   id="text120"><tspan
     x="0 3.9960001 10.668 14.004 17.280001 20.615999 28.667999 35.268002 41.976002 48.576 55.284 61.164001 67.872002 71.208 77.940002 81.935997"
     y="0"
     id="tspan122"
     style="font-size:12px;font-variant:normal;font-weight:normal;writing-mode:lr-tb;fill:#000000;fill-opacity:1;fill-rule:nonzero;stroke:none;font-family:Helvetica;-inkscape-font-specification:Helvetica">(o: IBeobachter)</tspan></text>

</g></g><g
           id="g124"><g
             clip-path="url(#clipPath128)"
             id="g126" /></g><g
           id="g132"><g
             clip-path="url(#clipPath136)"
             id="g134"><text
   transform="matrix(1,0,0,-1,384.05,343.25)"
   id="text140"><tspan
     x="0 6.5999999 9.2639999 15.936 23.268 29.988001 35.987999 39.324001 46.056 52.764 59.472 62.807999 66.804001"
     y="0"
     id="tspan142"
     style="font-size:12px;font-variant:normal;font-weight:normal;writing-mode:lr-tb;fill:#000000;fill-opacity:1;fill-rule:nonzero;stroke:none;font-family:Helvetica;-inkscape-font-specification:Helvetica">gibZustand ()</tspan></text>

</g></g><g
           id="g144"><g
             clip-path="url(#clipPath148)"
             id="g146" /></g><g
           id="g152"><g
             clip-path="url(#clipPath156)"
             id="g154" /></g></g></g><g
       id="g160"><path
         d="m 759.7,559.6 0,-145.55"
         inkscape:connector-curvature="0"
         id="path162"
         style="fill:none;stroke:#000000;stroke-width:0.75;stroke-linecap:round;stroke-linejoin:round;stroke-miterlimit:10;stroke-opacity:1;stroke-dasharray:5.25, 3;stroke-dashoffset:0" /></g><path
       d="m 564.4,468.75 189.2,0 0,66.6 -189.2,0 0,-66.6 z"
       inkscape:connector-curvature="0"
       id="path164"
       style="fill:#ffffff;fill-opacity:1;fill-rule:evenodd;stroke:none" /><path
       d="m 564.4,468.75 189.2,0 0,66.6 -189.2,0 0,-66.6 z"
       inkscape:connector-curvature="0"
       id="path166"
       style="fill:none;stroke:#000000;stroke-width:0.75;stroke-linecap:round;stroke-linejoin:miter;stroke-miterlimit:10;stroke-opacity:1;stroke-dasharray:none" /><g
       id="g168"><g
         clip-path="url(#clipPath172)"
         id="g170"><g
           id="g176"><g
             clip-path="url(#clipPath180)"
             id="g178"><text
   transform="matrix(1,0,0,-1,619.51,520.99)"
   id="text184"><tspan
     x="0 7.1999998 14.4 21.6 28.799999 36 43.200001 50.400002 57.599998 64.800003 72"
     y="0"
     id="tspan186"
     style="font-size:12px;font-variant:normal;font-weight:normal;writing-mode:lr-tb;fill:#000000;fill-opacity:1;fill-rule:nonzero;stroke:none;font-family:Courier New;-inkscape-font-specification:Courier New">«interface»</tspan></text>

</g></g><g
           id="g188"><g
             clip-path="url(#clipPath192)"
             id="g190" /></g><g
           id="g196"><g
             clip-path="url(#clipPath200)"
             id="g198"><text
   transform="matrix(1,0,0,-1,624.43,506.71)"
   id="text204"><tspan
     x="0"
     y="0"
     id="tspan206"
     style="font-size:12px;font-variant:normal;font-weight:bold;writing-mode:lr-tb;fill:#000000;fill-opacity:1;fill-rule:nonzero;stroke:none;font-family:Helvetica;-inkscape-font-specification:Helvetica-Bold">I</tspan></text>

</g></g><g
           id="g208"><g
             clip-path="url(#clipPath212)"
             id="g210"><text
   transform="matrix(1,0,0,-1,627.79,506.71)"
   id="text216"><tspan
     x="0 8.6639996 15.336 22.667999 30 36.708 43.416 50.748001 54.695999 61.403999"
     y="0"
     id="tspan218"
     style="font-size:12px;font-variant:normal;font-weight:bold;writing-mode:lr-tb;fill:#000000;fill-opacity:1;fill-rule:nonzero;stroke:none;font-family:Helvetica;-inkscape-font-specification:Helvetica-Bold">Beobachter</tspan></text>

</g></g><g
           id="g220"><g
             clip-path="url(#clipPath224)"
             id="g222" /></g><g
           id="g228"><g
             clip-path="url(#clipPath232)"
             id="g230" /></g><g
           id="g236"><g
             clip-path="url(#clipPath240)"
             id="g238"><text
   transform="matrix(1,0,0,-1,572.11,478.99)"
   id="text244"><tspan
     x="0"
     y="0"
     id="tspan246"
     style="font-size:12px;font-variant:normal;font-weight:normal;writing-mode:lr-tb;fill:#000000;fill-opacity:1;fill-rule:nonzero;stroke:none;font-family:Helvetica;-inkscape-font-specification:Helvetica">a</tspan></text>

</g></g><g
           id="g248"><g
             clip-path="url(#clipPath252)"
             id="g250"><text
   transform="matrix(1,0,0,-1,578.83,478.99)"
   id="text256"><tspan
     x="0 6 9.3360004 16.068001 22.775999 25.440001 28.056 34.056 36.720001 43.391998 47.388 53.976002"
     y="0"
     id="tspan258"
     style="font-size:12px;font-variant:normal;font-weight:normal;writing-mode:lr-tb;fill:#000000;fill-opacity:1;fill-rule:nonzero;stroke:none;font-family:Helvetica;-inkscape-font-specification:Helvetica">ktualisieren</tspan></text>

</g></g><g
           id="g260"><g
             clip-path="url(#clipPath264)"
             id="g262" /></g><g
           id="g268"><g
             clip-path="url(#clipPath272)"
             id="g270" /></g><g
           id="g276"><g
             clip-path="url(#clipPath280)"
             id="g278"><text
   transform="matrix(1,0,0,-1,646.27,478.99)"
   id="text284"><tspan
     x="0 3.9960001 10.668 14.004 17.280001 20.615999 28.667999 35.268002 41.976002 48.576 55.284 61.284 67.991997 71.328003 77.952003 84.660004 88.655998"
     y="0"
     id="tspan286"
     style="font-size:12px;font-variant:normal;font-weight:normal;writing-mode:lr-tb;fill:#000000;fill-opacity:1;fill-rule:nonzero;stroke:none;font-family:Helvetica;-inkscape-font-specification:Helvetica">(o: IBeobachtbar)</tspan></text>

</g></g><g
           id="g288"><g
             clip-path="url(#clipPath292)"
             id="g290" /></g></g></g><path
       d="m 564.6,501.65 188.5,0.05"
       inkscape:connector-curvature="0"
       id="path296"
       style="fill:none;stroke:#000000;stroke-width:0.75;stroke-linecap:round;stroke-linejoin:round;stroke-miterlimit:10;stroke-opacity:1;stroke-dasharray:none" /><path
       d="m 376.5,483.6 160.5,0 0,83.4 -160.5,0 0,-83.4 z"
       inkscape:connector-curvature="0"
       id="path298"
       style="fill:#ffffff;fill-opacity:1;fill-rule:evenodd;stroke:none" /><path
       d="m 376.5,483.6 160.5,0 0,83.4 -160.5,0 0,-83.4 z"
       inkscape:connector-curvature="0"
       id="path300"
       style="fill:none;stroke:#000000;stroke-width:0.75;stroke-linecap:round;stroke-linejoin:miter;stroke-miterlimit:8;stroke-opacity:1;stroke-dasharray:none" /><g
       id="g302"><g
         clip-path="url(#clipPath306)"
         id="g304"><g
           id="g310"><g
             clip-path="url(#clipPath314)"
             id="g312"><text
   transform="matrix(1,0,0,-1,417.17,552.67)"
   id="text318"><tspan
     x="0 7.1999998 14.4 21.6 28.799999 36 43.200001 50.400002 57.599998 64.800003 72"
     y="0"
     id="tspan320"
     style="font-size:12px;font-variant:normal;font-weight:normal;writing-mode:lr-tb;fill:#000000;fill-opacity:1;fill-rule:nonzero;stroke:none;font-family:Courier New;-inkscape-font-specification:Courier New">«interface»</tspan></text>

</g></g><g
           id="g322"><g
             clip-path="url(#clipPath326)"
             id="g324" /></g><g
           id="g330"><g
             clip-path="url(#clipPath334)"
             id="g332"><text
   transform="matrix(1,0,0,-1,418.49,538.27)"
   id="text338"><tspan
     x="0 3.336 12 18.708 26.040001 33.372002 40.043999 46.776001 54.108002 58.056 65.388 72.059998"
     y="0"
     id="tspan340"
     style="font-size:12px;font-variant:normal;font-weight:bold;writing-mode:lr-tb;fill:#000000;fill-opacity:1;fill-rule:nonzero;stroke:none;font-family:Helvetica;-inkscape-font-specification:Helvetica-Bold">IBeobachtbar</tspan></text>

</g></g><g
           id="g342"><g
             clip-path="url(#clipPath346)"
             id="g344" /></g><g
           id="g350"><g
             clip-path="url(#clipPath354)"
             id="g352" /></g><g
           id="g358"><g
             clip-path="url(#clipPath362)"
             id="g360"><text
   transform="matrix(1,0,0,-1,384.17,519.91)"
   id="text366"><tspan
     x="0 6.7080002 13.416 23.375999 30.084 32.748001 39.419998 46.043999 52.751999 56.088001 60.084 66.755997 70.139999 73.379997 76.716003 84.767998 91.367996 98.075996"
     y="0"
     id="tspan368"
     style="font-size:12px;font-variant:normal;font-weight:normal;writing-mode:lr-tb;fill:#000000;fill-opacity:1;fill-rule:nonzero;stroke:none;font-family:Helvetica;-inkscape-font-specification:Helvetica">anmelden (o: IBeob</tspan></text>

</g></g><g
           id="g370"><g
             clip-path="url(#clipPath374)"
             id="g372"><text
   transform="matrix(1,0,0,-1,488.95,519.91)"
   id="text378"><tspan
     x="0 6.7080002 12.588 19.296 22.632 29.364 33.360001"
     y="0"
     id="tspan380"
     style="font-size:12px;font-variant:normal;font-weight:normal;writing-mode:lr-tb;fill:#000000;fill-opacity:1;fill-rule:nonzero;stroke:none;font-family:Helvetica;-inkscape-font-specification:Helvetica">achter)</tspan></text>

</g></g><g
           id="g382"><g
             clip-path="url(#clipPath386)"
             id="g384" /></g><g
           id="g390"><g
             clip-path="url(#clipPath394)"
             id="g392"><text
   transform="matrix(1,0,0,-1,384.17,506.11)"
   id="text398"><tspan
     x="0 6.7080002 13.416 23.375999 30.084 32.748001 39.419998 46.043999 52.751999 56.088001 60.084 66.755997 70.139999 73.379997 76.716003 84.767998 91.367996 98.075996 104.676 111.384 117.264 123.972 127.308 134.03999 138.036"
     y="0"
     id="tspan400"
     style="font-size:12px;font-variant:normal;font-weight:normal;writing-mode:lr-tb;fill:#000000;fill-opacity:1;fill-rule:nonzero;stroke:none;font-family:Helvetica;-inkscape-font-specification:Helvetica">abmelden (o: IBeobachter)</tspan></text>

</g></g><g
           id="g402"><g
             clip-path="url(#clipPath406)"
             id="g404" /></g><g
           id="g410"><g
             clip-path="url(#clipPath414)"
             id="g412"><text
   transform="matrix(1,0,0,-1,384.17,492.31)"
   id="text418"><tspan
     x="0 6.5999999 9.2639999 15.936 23.268 29.988001 35.987999 39.324001 46.056 52.764"
     y="0"
     id="tspan420"
     style="font-size:12px;font-variant:normal;font-weight:normal;writing-mode:lr-tb;fill:#000000;fill-opacity:1;fill-rule:nonzero;stroke:none;font-family:Helvetica;-inkscape-font-specification:Helvetica">gibZustand</tspan></text>

</g></g><g
           id="g422"><g
             clip-path="url(#clipPath426)"
             id="g424" /></g><g
           id="g430"><g
             clip-path="url(#clipPath434)"
             id="g432"><text
   transform="matrix(1,0,0,-1,447.05,492.31)"
   id="text438"><tspan
     x="0 3.96"
     y="0"
     id="tspan440"
     style="font-size:12px;font-variant:normal;font-weight:normal;writing-mode:lr-tb;fill:#000000;fill-opacity:1;fill-rule:nonzero;stroke:none;font-family:Helvetica;-inkscape-font-specification:Helvetica">()</tspan></text>

</g></g><g
           id="g442"><g
             clip-path="url(#clipPath446)"
             id="g444" /></g><g
           id="g450"><g
             clip-path="url(#clipPath454)"
             id="g452" /></g></g></g><path
       d="m 582.75,331.3 180,0 0,82.4 -180,0 0,-82.4 z"
       inkscape:connector-curvature="0"
       id="path458"
       style="fill:#ffffff;fill-opacity:1;fill-rule:evenodd;stroke:none" /><path
       d="m 582.75,331.3 180,0 0,82.4 -180,0 0,-82.4 z"
       inkscape:connector-curvature="0"
       id="path460"
       style="fill:none;stroke:#000000;stroke-width:0.75;stroke-linecap:round;stroke-linejoin:miter;stroke-miterlimit:8;stroke-opacity:1;stroke-dasharray:none" /><g
       id="g462"><g
         clip-path="url(#clipPath466)"
         id="g464"><g
           id="g470"><g
             clip-path="url(#clipPath474)"
             id="g472"><text
   transform="matrix(1,0,0,-1,639.91,398.57)"
   id="text478"><tspan
     x="0 8.6639996 15.336 22.667999 30 36.708 43.416 50.748001 54.695999 61.403999"
     y="0"
     id="tspan480"
     style="font-size:12px;font-variant:normal;font-weight:bold;writing-mode:lr-tb;fill:#000000;fill-opacity:1;fill-rule:nonzero;stroke:none;font-family:Helvetica;-inkscape-font-specification:Helvetica-Bold">Beobachter</tspan></text>

</g></g><g
           id="g482"><g
             clip-path="url(#clipPath486)"
             id="g484" /></g><g
           id="g490"><g
             clip-path="url(#clipPath494)"
             id="g492" /></g><g
           id="g498"><g
             clip-path="url(#clipPath502)"
             id="g500"><text
   transform="matrix(1,0,0,-1,590.47,370.97)"
   id="text506"><tspan
     x="0"
     y="0"
     id="tspan508"
     style="font-size:12px;font-variant:normal;font-weight:normal;writing-mode:lr-tb;fill:#000000;fill-opacity:1;fill-rule:nonzero;stroke:none;font-family:Helvetica;-inkscape-font-specification:Helvetica">a</tspan></text>

</g></g><g
           id="g510"><g
             clip-path="url(#clipPath514)"
             id="g512"><text
   transform="matrix(1,0,0,-1,597.19,370.97)"
   id="text518"><tspan
     x="0 6 9.3360004 16.068001 22.775999 25.440001 28.056 34.056 36.720001 43.391998 47.388 53.976002"
     y="0"
     id="tspan520"
     style="font-size:12px;font-variant:normal;font-weight:normal;writing-mode:lr-tb;fill:#000000;fill-opacity:1;fill-rule:nonzero;stroke:none;font-family:Helvetica;-inkscape-font-specification:Helvetica">ktualisieren</tspan></text>

</g></g><g
           id="g522"><g
             clip-path="url(#clipPath526)"
             id="g524" /></g><g
           id="g530"><g
             clip-path="url(#clipPath534)"
             id="g532"><text
   transform="matrix(1,0,0,-1,661.3,370.97)"
   id="text538"><tspan
     x="0"
     y="0"
     id="tspan540"
     style="font-size:12px;font-variant:normal;font-weight:normal;writing-mode:lr-tb;fill:#000000;fill-opacity:1;fill-rule:nonzero;stroke:none;font-family:Helvetica;-inkscape-font-specification:Helvetica">(</tspan></text>

</g></g><g
           id="g542"><g
             clip-path="url(#clipPath546)"
             id="g544"><text
   transform="matrix(1,0,0,-1,665.26,370.97)"
   id="text550"><tspan
     x="0 6.7080002 10.044 13.416 16.656 24.684 31.284 37.992001 44.591999 51.299999 57.299999 64.008003 67.344002 73.968002 80.676003"
     y="0"
     id="tspan552"
     style="font-size:12px;font-variant:normal;font-weight:normal;writing-mode:lr-tb;fill:#000000;fill-opacity:1;fill-rule:nonzero;stroke:none;font-family:Helvetica;-inkscape-font-specification:Helvetica">o: IBeobachtbar</tspan></text>

</g></g><g
           id="g554"><g
             clip-path="url(#clipPath558)"
             id="g556"><text
   transform="matrix(1,0,0,-1,749.98,370.97)"
   id="text562"><tspan
     x="0"
     y="0"
     id="tspan564"
     style="font-size:12px;font-variant:normal;font-weight:normal;writing-mode:lr-tb;fill:#000000;fill-opacity:1;fill-rule:nonzero;stroke:none;font-family:Helvetica;-inkscape-font-specification:Helvetica">)</tspan></text>

</g></g><g
           id="g566"><g
             clip-path="url(#clipPath570)"
             id="g568" /></g><g
           id="g574"><g
             clip-path="url(#clipPath578)"
             id="g576" /></g></g></g><path
       d="m 559.95,514.95 3.7,0"
       inkscape:connector-curvature="0"
       id="path582"
       style="fill:none;stroke:#000000;stroke-width:0.75;stroke-linecap:round;stroke-linejoin:round;stroke-miterlimit:8;stroke-opacity:1;stroke-dasharray:none" /><path
       d="m 560.1,514.9 0,-142.5"
       inkscape:connector-curvature="0"
       id="path584"
       style="fill:none;stroke:#000000;stroke-width:0.75;stroke-linecap:round;stroke-linejoin:round;stroke-miterlimit:8;stroke-opacity:1;stroke-dasharray:none" /><path
       d="m 376.95,533.5 160.05,0"
       inkscape:connector-curvature="0"
       id="path586"
       style="fill:none;stroke:#000000;stroke-width:0.75;stroke-linecap:round;stroke-linejoin:round;stroke-miterlimit:8;stroke-opacity:1;stroke-dasharray:none" /><path
       d="m 536.6,372.69 9.75,-5.44 9.5,5.44 -9.5,5.16 -9.75,-5.16"
       inkscape:connector-curvature="0"
       id="path588"
       style="fill:#ffffff;fill-opacity:1;fill-rule:evenodd;stroke:none" /><path
       d="m 536.6,372.69 9.75,-5.44 9.5,5.44 -9.5,5.16 -9.75,-5.16"
       inkscape:connector-curvature="0"
       id="path590"
       style="fill:none;stroke:#000000;stroke-width:0.75;stroke-linecap:round;stroke-linejoin:round;stroke-miterlimit:8;stroke-opacity:1;stroke-dasharray:none" /><path
       d="m 556.05,372.4 4.8,0.05"
       inkscape:connector-curvature="0"
       id="path592"
       style="fill:none;stroke:#000000;stroke-width:0.75;stroke-linecap:round;stroke-linejoin:round;stroke-miterlimit:8;stroke-opacity:1;stroke-dasharray:none" /><path
       d="m 582.75,389.75 180,-0.05"
       inkscape:connector-curvature="0"
       id="path594"
       style="fill:none;stroke:#000000;stroke-width:0.75;stroke-linecap:round;stroke-linejoin:round;stroke-miterlimit:8;stroke-opacity:1;stroke-dasharray:none" /><path
       d="m 595.5,543.75 84.75,0 0,19.5 -84.75,0 0,-19.5 z"
       inkscape:connector-curvature="0"
       id="path596"
       style="fill:#ffffff;fill-opacity:1;fill-rule:evenodd;stroke:none" /><g
       id="g598"><g
         clip-path="url(#clipPath602)"
         id="g600"><g
           id="g606"><g
             clip-path="url(#clipPath610)"
             id="g608"><text
   transform="matrix(1,0,0,-1,619.87,549.31)"
   id="text614"><tspan
     x="0 7.1999998 14.4"
     y="0"
     id="tspan616"
     style="font-size:12px;font-variant:normal;font-weight:normal;writing-mode:lr-tb;fill:#000000;fill-opacity:1;fill-rule:nonzero;stroke:none;font-family:Courier New;-inkscape-font-specification:Courier New">«us</tspan></text>

</g></g><g
           id="g618"><g
             clip-path="url(#clipPath622)"
             id="g620"><text
   transform="matrix(1,0,0,-1,641.47,549.31)"
   id="text626"><tspan
     x="0 7.1999998"
     y="0"
     id="tspan628"
     style="font-size:12px;font-variant:normal;font-weight:normal;writing-mode:lr-tb;fill:#000000;fill-opacity:1;fill-rule:nonzero;stroke:none;font-family:Courier New;-inkscape-font-specification:Courier New">e»</tspan></text>

</g></g><g
           id="g630"><g
             clip-path="url(#clipPath634)"
             id="g632" /></g><g
           id="g638"><g
             clip-path="url(#clipPath642)"
             id="g640" /></g></g></g><path
       d="m 460.75,483.15 -4.75,-10.6 9.75,0 -5,10.6"
       inkscape:connector-curvature="0"
       id="path646"
       style="fill:#ffffff;fill-opacity:1;fill-rule:evenodd;stroke:none" /><path
       d="m 460.75,483.15 -4.75,-10.6 9.75,0 -5,10.6"
       inkscape:connector-curvature="0"
       id="path648"
       style="fill:none;stroke:#000000;stroke-width:0.75;stroke-linecap:round;stroke-linejoin:round;stroke-miterlimit:8;stroke-opacity:1;stroke-dasharray:none" /><g
       id="g650"><path
         d="m 460.2,472.75 0,-58"
         inkscape:connector-curvature="0"
         id="path652"
         style="fill:none;stroke:#000000;stroke-width:0.75;stroke-linecap:round;stroke-linejoin:round;stroke-miterlimit:8;stroke-opacity:1;stroke-dasharray:2.25, 3;stroke-dashoffset:0" /></g><path
       d="m 376.5,384.75 160.5,0"
       inkscape:connector-curvature="0"
       id="path654"
       style="fill:none;stroke:#000000;stroke-width:0.75;stroke-linecap:round;stroke-linejoin:round;stroke-miterlimit:8;stroke-opacity:1;stroke-dasharray:none" /><path
       d="m 694.75,468.75 -4.75,-10.6 9.75,0 -5,10.6"
       inkscape:connector-curvature="0"
       id="path656"
       style="fill:#ffffff;fill-opacity:1;fill-rule:evenodd;stroke:none" /><path
       d="m 694.75,468.75 -4.75,-10.6 9.75,0 -5,10.6"
       inkscape:connector-curvature="0"
       id="path658"
       style="fill:none;stroke:#000000;stroke-width:0.75;stroke-linecap:round;stroke-linejoin:round;stroke-miterlimit:8;stroke-opacity:1;stroke-dasharray:none" /><g
       id="g660"><path
         d="m 694.2,458.35 0,-43.95"
         inkscape:connector-curvature="0"
         id="path662"
         style="fill:none;stroke:#000000;stroke-width:0.75;stroke-linecap:round;stroke-linejoin:round;stroke-miterlimit:8;stroke-opacity:1;stroke-dasharray:2.25, 3;stroke-dashoffset:0" /></g><path
       d="m 758,559.4 -7,0 c -0.28,0 -0.5,0.22 -0.5,0.5 0,0.28 0.22,0.5 0.5,0.5 l 7,0 c 0.28,0 0.5,-0.22 0.5,-0.5 0,-0.28 -0.22,-0.5 -0.5,-0.5 z m -11,0 -7,0 c -0.28,0 -0.5,0.22 -0.5,0.5 0,0.28 0.22,0.5 0.5,0.5 l 7,0 c 0.28,0 0.5,-0.22 0.5,-0.5 0,-0.28 -0.22,-0.5 -0.5,-0.5 z m -11,0 -7,0 c -0.28,0 -0.5,0.22 -0.5,0.5 0,0.28 0.22,0.5 0.5,0.5 l 7,0 c 0.28,0 0.5,-0.22 0.5,-0.5 0,-0.28 -0.22,-0.5 -0.5,-0.5 z m -11,0 -7,0 c -0.28,0 -0.5,0.22 -0.5,0.5 0,0.28 0.22,0.5 0.5,0.5 l 7,0 c 0.28,0 0.5,-0.22 0.5,-0.5 0,-0.28 -0.22,-0.5 -0.5,-0.5 z m -11,0 -7,0 c -0.28,0 -0.5,0.22 -0.5,0.5 0,0.28 0.22,0.5 0.5,0.5 l 7,0 c 0.28,0 0.5,-0.22 0.5,-0.5 0,-0.28 -0.22,-0.5 -0.5,-0.5 z m -11,0 -7,0 c -0.28,0 -0.5,0.22 -0.5,0.5 0,0.28 0.22,0.5 0.5,0.5 l 7,0 c 0.28,0 0.5,-0.22 0.5,-0.5 0,-0.28 -0.22,-0.5 -0.5,-0.5 z m -11,0 -7,0 c -0.28,0 -0.5,0.22 -0.5,0.5 0,0.28 0.22,0.5 0.5,0.5 l 7,0 c 0.28,0 0.5,-0.22 0.5,-0.5 0,-0.28 -0.22,-0.5 -0.5,-0.5 z m -11,0 -7,0 c -0.28,0 -0.5,0.22 -0.5,0.5 0,0.28 0.22,0.5 0.5,0.5 l 7,0 c 0.28,0 0.5,-0.22 0.5,-0.5 0,-0.28 -0.22,-0.5 -0.5,-0.5 z m -11,0 -7,0 c -0.28,0 -0.5,0.22 -0.5,0.5 0,0.28 0.22,0.5 0.5,0.5 l 7,0 c 0.28,0 0.5,-0.22 0.5,-0.5 0,-0.28 -0.22,-0.5 -0.5,-0.5 z m -11,0 -7,0 c -0.28,0 -0.5,0.22 -0.5,0.5 0,0.28 0.22,0.5 0.5,0.5 l 7,0 c 0.28,0 0.5,-0.22 0.5,-0.5 0,-0.28 -0.22,-0.5 -0.5,-0.5 z m -11,0 -7,0 c -0.28,0 -0.5,0.22 -0.5,0.5 0,0.28 0.22,0.5 0.5,0.5 l 7,0 c 0.28,0 0.5,-0.22 0.5,-0.5 0,-0.28 -0.22,-0.5 -0.5,-0.5 z m -11,0 -7,0 c -0.28,0 -0.5,0.22 -0.5,0.5 0,0.28 0.22,0.5 0.5,0.5 l 7,0 c 0.28,0 0.5,-0.22 0.5,-0.5 0,-0.28 -0.22,-0.5 -0.5,-0.5 z m -11,0 -7,0 c -0.28,0 -0.5,0.22 -0.5,0.5 0,0.28 0.22,0.5 0.5,0.5 l 7,0 c 0.28,0 0.5,-0.22 0.5,-0.5 0,-0.28 -0.22,-0.5 -0.5,-0.5 z m -11,0 -7,0 c -0.28,0 -0.5,0.22 -0.5,0.5 0,0.28 0.22,0.5 0.5,0.5 l 7,0 c 0.28,0 0.5,-0.22 0.5,-0.5 0,-0.28 -0.22,-0.5 -0.5,-0.5 z m -11,0 -7,0 c -0.28,0 -0.5,0.22 -0.5,0.5 0,0.28 0.22,0.5 0.5,0.5 l 7,0 c 0.28,0 0.5,-0.22 0.5,-0.5 0,-0.28 -0.22,-0.5 -0.5,-0.5 z m -11,0 -7,0 c -0.28,0 -0.5,0.22 -0.5,0.5 0,0.28 0.22,0.5 0.5,0.5 l 7,0 c 0.28,0 0.5,-0.22 0.5,-0.5 0,-0.28 -0.22,-0.5 -0.5,-0.5 z m -11,0 -7,0 c -0.28,0 -0.5,0.22 -0.5,0.5 0,0.28 0.22,0.5 0.5,0.5 l 7,0 c 0.28,0 0.5,-0.22 0.5,-0.5 0,-0.28 -0.22,-0.5 -0.5,-0.5 z m -11,0 -7,0 c -0.28,0 -0.5,0.22 -0.5,0.5 0,0.28 0.22,0.5 0.5,0.5 l 7,0 c 0.28,0 0.5,-0.22 0.5,-0.5 0,-0.28 -0.22,-0.5 -0.5,-0.5 z m -11,0 -7,0 c -0.28,0 -0.5,0.22 -0.5,0.5 0,0.28 0.22,0.5 0.5,0.5 l 7,0 c 0.28,0 0.5,-0.22 0.5,-0.5 0,-0.28 -0.22,-0.5 -0.5,-0.5 z m -11,0 -7,0 c -0.28,0 -0.5,0.22 -0.5,0.5 0,0.28 0.22,0.5 0.5,0.5 l 7,0 c 0.28,0 0.5,-0.22 0.5,-0.5 0,-0.28 -0.22,-0.5 -0.5,-0.5 z m -0.49,-4.94 -9.79,5.44 9.79,5.44 c 0.24,0.13 0.54,0.04 0.68,-0.2 0.13,-0.24 0.04,-0.54 -0.2,-0.68 l -9,-5 0,0.88 9,-5 c 0.24,-0.14 0.33,-0.44 0.2,-0.68 -0.14,-0.24 -0.44,-0.33 -0.68,-0.2 z"
       inkscape:connector-curvature="0"
       id="path664"
       style="fill:#000000;fill-opacity:1;fill-rule:nonzero;stroke:none" /></g></svg>