<?xml version="1.0" encoding="UTF-8" standalone="no"?>
<!-- Created with Inkscape (http://www.inkscape.org/) -->

<svg
   xmlns:dc="http://purl.org/dc/elements/1.1/"
   xmlns:cc="http://creativecommons.org/ns#"
   xmlns:rdf="http://www.w3.org/1999/02/22-rdf-syntax-ns#"
   xmlns:svg="http://www.w3.org/2000/svg"
   xmlns="http://www.w3.org/2000/svg"
   xmlns:sodipodi="http://sodipodi.sourceforge.net/DTD/sodipodi-0.dtd"
   xmlns:inkscape="http://www.inkscape.org/namespaces/inkscape"
   version="1.1"
   width="553.625"
   height="251.5625"
   id="svg2"
   xml:space="preserve"
   inkscape:version="0.48.4 r9939"
   sodipodi:docname="Bild 1-4 Jede abgeleitete Klasse besitzt sämtliche Methoden der abstrakten Klasse.svg"><sodipodi:namedview
     pagecolor="#ffffff"
     bordercolor="#666666"
     borderopacity="1"
     objecttolerance="10"
     gridtolerance="10"
     guidetolerance="10"
     inkscape:pageopacity="0"
     inkscape:pageshadow="2"
     inkscape:window-width="640"
     inkscape:window-height="480"
     id="namedview258"
     showgrid="false"
     inkscape:zoom="0.18730159"
     inkscape:cx="546.53125"
     inkscape:cy="-5.78125"
     inkscape:window-x="0"
     inkscape:window-y="0"
     inkscape:window-maximized="0"
     inkscape:current-layer="svg2" /><metadata
     id="metadata8"><rdf:RDF><cc:Work
         rdf:about=""><dc:format>image/svg+xml</dc:format><dc:type
           rdf:resource="http://purl.org/dc/dcmitype/StillImage" /></cc:Work></rdf:RDF></metadata><defs
     id="defs6"><clipPath
       id="clipPath20"><path
         d="m 219.27,654.19 134.9,0 0,51.255 -134.9,0 0,-51.255 z"
         inkscape:connector-curvature="0"
         id="path22" /></clipPath><clipPath
       id="clipPath28"><path
         d="m 219.26,654.19 134.9,0 0,51.264 -134.9,0 0,-51.264 z"
         inkscape:connector-curvature="0"
         id="path30" /></clipPath><clipPath
       id="clipPath40"><path
         d="m 219.26,654.19 134.9,0 0,51.264 -134.9,0 0,-51.264 z"
         inkscape:connector-curvature="0"
         id="path42" /></clipPath><clipPath
       id="clipPath48"><path
         d="m 219.26,654.19 134.9,0 0,51.264 -134.9,0 0,-51.264 z"
         inkscape:connector-curvature="0"
         id="path50" /></clipPath><clipPath
       id="clipPath56"><path
         d="m 219.26,654.19 134.9,0 0,51.264 -134.9,0 0,-51.264 z"
         inkscape:connector-curvature="0"
         id="path58" /></clipPath><clipPath
       id="clipPath64"><path
         d="m 219.26,654.19 134.9,0 0,51.264 -134.9,0 0,-51.264 z"
         inkscape:connector-curvature="0"
         id="path66" /></clipPath><clipPath
       id="clipPath76"><path
         d="m 219.26,654.19 134.9,0 0,51.264 -134.9,0 0,-51.264 z"
         inkscape:connector-curvature="0"
         id="path78" /></clipPath><clipPath
       id="clipPath88"><path
         d="m 219.26,654.19 134.9,0 0,51.264 -134.9,0 0,-51.264 z"
         inkscape:connector-curvature="0"
         id="path90" /></clipPath><clipPath
       id="clipPath100"><path
         d="m 219.26,654.19 134.9,0 0,51.264 -134.9,0 0,-51.264 z"
         inkscape:connector-curvature="0"
         id="path102" /></clipPath><clipPath
       id="clipPath108"><path
         d="m 219.26,654.19 134.9,0 0,51.264 -134.9,0 0,-51.264 z"
         inkscape:connector-curvature="0"
         id="path110" /></clipPath><clipPath
       id="clipPath120"><path
         d="m 219.26,654.19 134.9,0 0,51.264 -134.9,0 0,-51.264 z"
         inkscape:connector-curvature="0"
         id="path122" /></clipPath><clipPath
       id="clipPath132"><path
         d="m 219.26,654.19 134.9,0 0,51.264 -134.9,0 0,-51.264 z"
         inkscape:connector-curvature="0"
         id="path134" /></clipPath><clipPath
       id="clipPath144"><path
         d="m 219.26,654.19 134.9,0 0,51.264 -134.9,0 0,-51.264 z"
         inkscape:connector-curvature="0"
         id="path146" /></clipPath><clipPath
       id="clipPath156"><path
         d="m 67.801,512.95 130.71,0 0,46.32 -130.71,0 0,-46.32 z"
         inkscape:connector-curvature="0"
         id="path158" /></clipPath><clipPath
       id="clipPath164"><path
         d="m 67.8,512.95 130.7,0 0,46.32 -130.7,0 0,-46.32 z"
         inkscape:connector-curvature="0"
         id="path166" /></clipPath><clipPath
       id="clipPath176"><path
         d="m 67.8,512.95 130.7,0 0,46.32 -130.7,0 0,-46.32 z"
         inkscape:connector-curvature="0"
         id="path178" /></clipPath><clipPath
       id="clipPath184"><path
         d="m 67.8,512.95 130.7,0 0,46.32 -130.7,0 0,-46.32 z"
         inkscape:connector-curvature="0"
         id="path186" /></clipPath><clipPath
       id="clipPath192"><path
         d="m 67.8,512.95 130.7,0 0,46.32 -130.7,0 0,-46.32 z"
         inkscape:connector-curvature="0"
         id="path194" /></clipPath><clipPath
       id="clipPath204"><path
         d="m 67.8,512.95 130.7,0 0,46.32 -130.7,0 0,-46.32 z"
         inkscape:connector-curvature="0"
         id="path206" /></clipPath><clipPath
       id="clipPath216"><path
         d="m 67.8,512.95 130.7,0 0,46.32 -130.7,0 0,-46.32 z"
         inkscape:connector-curvature="0"
         id="path218" /></clipPath><clipPath
       id="clipPath228"><path
         d="m 67.8,512.95 130.7,0 0,46.32 -130.7,0 0,-46.32 z"
         inkscape:connector-curvature="0"
         id="path230" /></clipPath><clipPath
       id="clipPath236"><path
         d="m 67.8,512.95 130.7,0 0,46.32 -130.7,0 0,-46.32 z"
         inkscape:connector-curvature="0"
         id="path238" /></clipPath><clipPath
       id="clipPath248"><path
         d="m 67.8,512.95 130.7,0 0,46.32 -130.7,0 0,-46.32 z"
         inkscape:connector-curvature="0"
         id="path250" /></clipPath><clipPath
       id="clipPath256"><path
         d="m 67.8,512.95 130.7,0 0,46.32 -130.7,0 0,-46.32 z"
         inkscape:connector-curvature="0"
         id="path258" /></clipPath><clipPath
       id="clipPath270"><path
         d="m 219.27,512.95 134.9,0 0,46.32 -134.9,0 0,-46.32 z"
         inkscape:connector-curvature="0"
         id="path272" /></clipPath><clipPath
       id="clipPath278"><path
         d="m 219.26,512.95 134.9,0 0,46.32 -134.9,0 0,-46.32 z"
         inkscape:connector-curvature="0"
         id="path280" /></clipPath><clipPath
       id="clipPath290"><path
         d="m 219.26,512.95 134.9,0 0,46.32 -134.9,0 0,-46.32 z"
         inkscape:connector-curvature="0"
         id="path292" /></clipPath><clipPath
       id="clipPath298"><path
         d="m 219.26,512.95 134.9,0 0,46.32 -134.9,0 0,-46.32 z"
         inkscape:connector-curvature="0"
         id="path300" /></clipPath><clipPath
       id="clipPath306"><path
         d="m 219.26,512.95 134.9,0 0,46.32 -134.9,0 0,-46.32 z"
         inkscape:connector-curvature="0"
         id="path308" /></clipPath><clipPath
       id="clipPath318"><path
         d="m 219.26,512.95 134.9,0 0,46.32 -134.9,0 0,-46.32 z"
         inkscape:connector-curvature="0"
         id="path320" /></clipPath><clipPath
       id="clipPath330"><path
         d="m 219.26,512.95 134.9,0 0,46.32 -134.9,0 0,-46.32 z"
         inkscape:connector-curvature="0"
         id="path332" /></clipPath><clipPath
       id="clipPath342"><path
         d="m 219.26,512.95 134.9,0 0,46.32 -134.9,0 0,-46.32 z"
         inkscape:connector-curvature="0"
         id="path344" /></clipPath><clipPath
       id="clipPath350"><path
         d="m 219.26,512.95 134.9,0 0,46.32 -134.9,0 0,-46.32 z"
         inkscape:connector-curvature="0"
         id="path352" /></clipPath><clipPath
       id="clipPath362"><path
         d="m 219.26,512.95 134.9,0 0,46.32 -134.9,0 0,-46.32 z"
         inkscape:connector-curvature="0"
         id="path364" /></clipPath><clipPath
       id="clipPath374"><path
         d="m 219.26,512.95 134.9,0 0,46.32 -134.9,0 0,-46.32 z"
         inkscape:connector-curvature="0"
         id="path376" /></clipPath><clipPath
       id="clipPath386"><path
         d="m 219.26,512.95 134.9,0 0,46.32 -134.9,0 0,-46.32 z"
         inkscape:connector-curvature="0"
         id="path388" /></clipPath><clipPath
       id="clipPath402"><path
         d="m 374.33,512.95 134.91,0 0,46.32 -134.91,0 0,-46.32 z"
         inkscape:connector-curvature="0"
         id="path404" /></clipPath><clipPath
       id="clipPath410"><path
         d="m 374.33,512.95 134.9,0 0,46.32 -134.9,0 0,-46.32 z"
         inkscape:connector-curvature="0"
         id="path412" /></clipPath><clipPath
       id="clipPath422"><path
         d="m 374.33,512.95 134.9,0 0,46.32 -134.9,0 0,-46.32 z"
         inkscape:connector-curvature="0"
         id="path424" /></clipPath><clipPath
       id="clipPath430"><path
         d="m 374.33,512.95 134.9,0 0,46.32 -134.9,0 0,-46.32 z"
         inkscape:connector-curvature="0"
         id="path432" /></clipPath><clipPath
       id="clipPath438"><path
         d="m 374.33,512.95 134.9,0 0,46.32 -134.9,0 0,-46.32 z"
         inkscape:connector-curvature="0"
         id="path440" /></clipPath><clipPath
       id="clipPath450"><path
         d="m 374.33,512.95 134.9,0 0,46.32 -134.9,0 0,-46.32 z"
         inkscape:connector-curvature="0"
         id="path452" /></clipPath><clipPath
       id="clipPath462"><path
         d="m 374.33,512.95 134.9,0 0,46.32 -134.9,0 0,-46.32 z"
         inkscape:connector-curvature="0"
         id="path464" /></clipPath><clipPath
       id="clipPath474"><path
         d="m 374.33,512.95 134.9,0 0,46.32 -134.9,0 0,-46.32 z"
         inkscape:connector-curvature="0"
         id="path476" /></clipPath><clipPath
       id="clipPath482"><path
         d="m 374.33,512.95 134.9,0 0,46.32 -134.9,0 0,-46.32 z"
         inkscape:connector-curvature="0"
         id="path484" /></clipPath><clipPath
       id="clipPath494"><path
         d="m 374.33,512.95 134.9,0 0,46.32 -134.9,0 0,-46.32 z"
         inkscape:connector-curvature="0"
         id="path496" /></clipPath></defs><g
     transform="matrix(1.25,0,0,-1.25,-83.84375,887.34375)"
     id="g10"><path
       d="m 218.8,683.45 135.75,0.05"
       inkscape:connector-curvature="0"
       id="path12"
       style="fill:none;stroke:#000000;stroke-width:0.75;stroke-linecap:round;stroke-linejoin:round;stroke-miterlimit:10;stroke-opacity:1;stroke-dasharray:none" /><path
       d="m 218.8,650.3 135.75,0 0,59.2 -135.75,0 0,-59.2 z"
       inkscape:connector-curvature="0"
       id="path14"
       style="fill:none;stroke:#000000;stroke-width:0.75;stroke-linecap:round;stroke-linejoin:miter;stroke-miterlimit:8;stroke-opacity:1;stroke-dasharray:none" /><g
       id="g16"><g
         clip-path="url(#clipPath20)"
         id="g18"><g
           id="g24"><g
             clip-path="url(#clipPath28)"
             id="g26"><text
   transform="matrix(1,0,0,-1,270.38,694.42)"
   id="text32"><tspan
     x="0 8.0279999 15.36 22.691999 29.364"
     y="0"
     id="tspan34"
     style="font-size:12px;font-style:oblique;font-variant:normal;font-weight:bold;writing-mode:lr-tb;fill:#000000;fill-opacity:1;fill-rule:nonzero;stroke:none;font-family:Helvetica;-inkscape-font-specification:Helvetica-BoldOblique">Vogel</tspan></text>

</g></g><g
           id="g36"><g
             clip-path="url(#clipPath40)"
             id="g38" /></g><g
           id="g44"><g
             clip-path="url(#clipPath48)"
             id="g46" /></g><g
           id="g52"><g
             clip-path="url(#clipPath56)"
             id="g54" /></g><g
           id="g60"><g
             clip-path="url(#clipPath64)"
             id="g62"><text
   transform="matrix(1,0,0,-1,226.46,671.62)"
   id="text68"><tspan
     x="0 6.96"
     y="0"
     id="tspan70"
     style="font-size:12px;font-style:oblique;font-variant:normal;font-weight:normal;writing-mode:lr-tb;fill:#000000;fill-opacity:1;fill-rule:nonzero;stroke:none;font-family:Helvetica;-inkscape-font-specification:Helvetica-Oblique">+ </tspan></text>

</g></g><g
           id="g72"><g
             clip-path="url(#clipPath76)"
             id="g74"><text
   transform="matrix(1,0,0,-1,236.78,671.62)"
   id="text80"><tspan
     x="0 6.7080002 12.708 18.708 25.416"
     y="0"
     id="tspan82"
     style="font-size:12px;font-style:oblique;font-variant:normal;font-weight:normal;writing-mode:lr-tb;fill:#000000;fill-opacity:1;fill-rule:nonzero;stroke:none;font-family:Helvetica;-inkscape-font-specification:Helvetica-Oblique">essen</tspan></text>

</g></g><g
           id="g84"><g
             clip-path="url(#clipPath88)"
             id="g86"><text
   transform="matrix(1,0,0,-1,268.94,671.62)"
   id="text92"><tspan
     x="0 3.9960001 7.9200001 11.256 14.628 17.964001 23.964001 30.695999 33.216"
     y="0"
     id="tspan94"
     style="font-size:12px;font-style:oblique;font-variant:normal;font-weight:normal;writing-mode:lr-tb;fill:#000000;fill-opacity:1;fill-rule:nonzero;stroke:none;font-family:Helvetica;-inkscape-font-specification:Helvetica-Oblique">() : void</tspan></text>

</g></g><g
           id="g96"><g
             clip-path="url(#clipPath100)"
             id="g98" /></g><g
           id="g104"><g
             clip-path="url(#clipPath108)"
             id="g106"><text
   transform="matrix(1,0,0,-1,226.46,657.67)"
   id="text112"><tspan
     x="0 6.96"
     y="0"
     id="tspan114"
     style="font-size:12px;font-style:oblique;font-variant:normal;font-weight:normal;writing-mode:lr-tb;fill:#000000;fill-opacity:1;fill-rule:nonzero;stroke:none;font-family:Helvetica;-inkscape-font-specification:Helvetica-Oblique">+ </tspan></text>

</g></g><g
           id="g116"><g
             clip-path="url(#clipPath120)"
             id="g118"><text
   transform="matrix(1,0,0,-1,236.78,657.67)"
   id="text124"><tspan
     x="0 3.336 6 8.6639996 15.336 22.068001 28.775999"
     y="0"
     id="tspan126"
     style="font-size:12px;font-style:oblique;font-variant:normal;font-weight:normal;writing-mode:lr-tb;fill:#000000;fill-opacity:1;fill-rule:nonzero;stroke:none;font-family:Helvetica;-inkscape-font-specification:Helvetica-Oblique">fliegen</tspan></text>

</g></g><g
           id="g128"><g
             clip-path="url(#clipPath132)"
             id="g130"><text
   transform="matrix(1,0,0,-1,272.3,657.67)"
   id="text136"><tspan
     x="0 3.9960001 7.9200001 11.256 14.628 17.964001 23.868 30.576 33.240002"
     y="0"
     id="tspan138"
     style="font-size:12px;font-style:oblique;font-variant:normal;font-weight:normal;writing-mode:lr-tb;fill:#000000;fill-opacity:1;fill-rule:nonzero;stroke:none;font-family:Helvetica;-inkscape-font-specification:Helvetica-Oblique">() : void</tspan></text>

</g></g><g
           id="g140"><g
             clip-path="url(#clipPath144)"
             id="g142" /></g></g></g><path
       d="m 67.45,543.2 131.45,0.05"
       inkscape:connector-curvature="0"
       id="path148"
       style="fill:none;stroke:#000000;stroke-width:0.75;stroke-linecap:round;stroke-linejoin:round;stroke-miterlimit:8;stroke-opacity:1;stroke-dasharray:none" /><path
       d="m 67.45,509 131.45,0 0,54.35 -131.45,0 0,-54.35 z"
       inkscape:connector-curvature="0"
       id="path150"
       style="fill:none;stroke:#000000;stroke-width:0.75;stroke-linecap:round;stroke-linejoin:miter;stroke-miterlimit:8;stroke-opacity:1;stroke-dasharray:none" /><g
       id="g152"><g
         clip-path="url(#clipPath156)"
         id="g154"><g
           id="g160"><g
             clip-path="url(#clipPath164)"
             id="g162"><text
   transform="matrix(1,0,0,-1,111.14,548.23)"
   id="text168"><tspan
     x="0 8.0279999 11.364 18.695999 26.028 33.360001 36.695999"
     y="0"
     id="tspan170"
     style="font-size:12px;font-variant:normal;font-weight:bold;writing-mode:lr-tb;fill:#000000;fill-opacity:1;fill-rule:nonzero;stroke:none;font-family:Helvetica;-inkscape-font-specification:Helvetica-Bold">Pinguin</tspan></text>

</g></g><g
           id="g172"><g
             clip-path="url(#clipPath176)"
             id="g174" /></g><g
           id="g180"><g
             clip-path="url(#clipPath184)"
             id="g182" /></g><g
           id="g188"><g
             clip-path="url(#clipPath192)"
             id="g190"><text
   transform="matrix(1,0,0,-1,75,532.15)"
   id="text196"><tspan
     x="0 6.96"
     y="0"
     id="tspan198"
     style="font-size:12px;font-variant:normal;font-weight:normal;writing-mode:lr-tb;fill:#000000;fill-opacity:1;fill-rule:nonzero;stroke:none;font-family:Helvetica;-inkscape-font-specification:Helvetica">+ </tspan></text>

</g></g><g
           id="g200"><g
             clip-path="url(#clipPath204)"
             id="g202"><text
   transform="matrix(1,0,0,-1,85.32,532.15)"
   id="text208"><tspan
     x="0 6.7080002 12.708 18.708 25.416"
     y="0"
     id="tspan210"
     style="font-size:12px;font-variant:normal;font-weight:normal;writing-mode:lr-tb;fill:#000000;fill-opacity:1;fill-rule:nonzero;stroke:none;font-family:Helvetica;-inkscape-font-specification:Helvetica">essen</tspan></text>

</g></g><g
           id="g212"><g
             clip-path="url(#clipPath216)"
             id="g214"><text
   transform="matrix(1,0,0,-1,117.5,532.15)"
   id="text220"><tspan
     x="0 3.96"
     y="0"
     id="tspan222"
     style="font-size:12px;font-variant:normal;font-weight:normal;writing-mode:lr-tb;fill:#000000;fill-opacity:1;fill-rule:nonzero;stroke:none;font-family:Helvetica;-inkscape-font-specification:Helvetica">()</tspan></text>

</g></g><g
           id="g224"><g
             clip-path="url(#clipPath228)"
             id="g226" /></g><g
           id="g232"><g
             clip-path="url(#clipPath236)"
             id="g234"><text
   transform="matrix(1,0,0,-1,128.78,532.15)"
   id="text240"><tspan
     x="0 3.336 6.7080002 12.588 19.296 21.959999"
     y="0"
     id="tspan242"
     style="font-size:12px;font-variant:normal;font-weight:normal;writing-mode:lr-tb;fill:#000000;fill-opacity:1;fill-rule:nonzero;stroke:none;font-family:Helvetica;-inkscape-font-specification:Helvetica">: void</tspan></text>

</g></g><g
           id="g244"><g
             clip-path="url(#clipPath248)"
             id="g246" /></g><g
           id="g252"><g
             clip-path="url(#clipPath256)"
             id="g254" /></g></g></g><path
       d="m 286.77,650.3 -12.37,-15 24.75,0 -12.38,15 z"
       inkscape:connector-curvature="0"
       id="path260"
       style="fill:#ffffff;fill-opacity:1;fill-rule:evenodd;stroke:none" /><path
       d="m 286.77,650.3 -12.37,-15 24.75,0 -12.38,15 z"
       inkscape:connector-curvature="0"
       id="path262"
       style="fill:none;stroke:#000000;stroke-width:0.75;stroke-linecap:round;stroke-linejoin:round;stroke-miterlimit:8;stroke-opacity:1;stroke-dasharray:none" /><path
       d="m 218.8,509 135.75,0 0,54.35 -135.75,0 0,-54.35 z"
       inkscape:connector-curvature="0"
       id="path264"
       style="fill:none;stroke:#000000;stroke-width:0.75;stroke-linecap:round;stroke-linejoin:miter;stroke-miterlimit:8;stroke-opacity:1;stroke-dasharray:none" /><g
       id="g266"><g
         clip-path="url(#clipPath270)"
         id="g268"><g
           id="g274"><g
             clip-path="url(#clipPath278)"
             id="g276"><text
   transform="matrix(1,0,0,-1,268.7,548.23)"
   id="text282"><tspan
     x="0 8.3999996 19.188 25.896 32.604"
     y="0"
     id="tspan284"
     style="font-size:12px;font-variant:normal;font-weight:bold;writing-mode:lr-tb;fill:#000000;fill-opacity:1;fill-rule:nonzero;stroke:none;font-family:Helvetica;-inkscape-font-specification:Helvetica-Bold">Amsel</tspan></text>

</g></g><g
           id="g286"><g
             clip-path="url(#clipPath290)"
             id="g288" /></g><g
           id="g294"><g
             clip-path="url(#clipPath298)"
             id="g296" /></g><g
           id="g302"><g
             clip-path="url(#clipPath306)"
             id="g304"><text
   transform="matrix(1,0,0,-1,226.46,532.15)"
   id="text310"><tspan
     x="0 6.96"
     y="0"
     id="tspan312"
     style="font-size:12px;font-variant:normal;font-weight:normal;writing-mode:lr-tb;fill:#000000;fill-opacity:1;fill-rule:nonzero;stroke:none;font-family:Helvetica;-inkscape-font-specification:Helvetica">+ </tspan></text>

</g></g><g
           id="g314"><g
             clip-path="url(#clipPath318)"
             id="g316"><text
   transform="matrix(1,0,0,-1,236.78,532.15)"
   id="text322"><tspan
     x="0 6.7080002 12.708 18.708 25.416"
     y="0"
     id="tspan324"
     style="font-size:12px;font-variant:normal;font-weight:normal;writing-mode:lr-tb;fill:#000000;fill-opacity:1;fill-rule:nonzero;stroke:none;font-family:Helvetica;-inkscape-font-specification:Helvetica">essen</tspan></text>

</g></g><g
           id="g326"><g
             clip-path="url(#clipPath330)"
             id="g328"><text
   transform="matrix(1,0,0,-1,268.94,532.15)"
   id="text334"><tspan
     x="0 3.9960001 7.9200001 11.256 14.628 17.964001 23.868 30.576 33.240002"
     y="0"
     id="tspan336"
     style="font-size:12px;font-variant:normal;font-weight:normal;writing-mode:lr-tb;fill:#000000;fill-opacity:1;fill-rule:nonzero;stroke:none;font-family:Helvetica;-inkscape-font-specification:Helvetica">() : void</tspan></text>

</g></g><g
           id="g338"><g
             clip-path="url(#clipPath342)"
             id="g340" /></g><g
           id="g346"><g
             clip-path="url(#clipPath350)"
             id="g348"><text
   transform="matrix(1,0,0,-1,226.46,518.23)"
   id="text354"><tspan
     x="0 6.96"
     y="0"
     id="tspan356"
     style="font-size:12px;font-variant:normal;font-weight:normal;writing-mode:lr-tb;fill:#000000;fill-opacity:1;fill-rule:nonzero;stroke:none;font-family:Helvetica;-inkscape-font-specification:Helvetica">+ </tspan></text>

</g></g><g
           id="g358"><g
             clip-path="url(#clipPath362)"
             id="g360"><text
   transform="matrix(1,0,0,-1,236.78,518.23)"
   id="text366"><tspan
     x="0 3.4679999 6.132 8.7480001 15.456 22.056 28.764"
     y="0"
     id="tspan368"
     style="font-size:12px;font-variant:normal;font-weight:normal;writing-mode:lr-tb;fill:#000000;fill-opacity:1;fill-rule:nonzero;stroke:none;font-family:Helvetica;-inkscape-font-specification:Helvetica">fliegen</tspan></text>

</g></g><g
           id="g370"><g
             clip-path="url(#clipPath374)"
             id="g372"><text
   transform="matrix(1,0,0,-1,272.3,518.23)"
   id="text378"><tspan
     x="0 3.9960001 7.9200001 11.256 14.628 17.964001 23.868 30.576 33.240002"
     y="0"
     id="tspan380"
     style="font-size:12px;font-variant:normal;font-weight:normal;writing-mode:lr-tb;fill:#000000;fill-opacity:1;fill-rule:nonzero;stroke:none;font-family:Helvetica;-inkscape-font-specification:Helvetica">() : void</tspan></text>

</g></g><g
           id="g382"><g
             clip-path="url(#clipPath386)"
             id="g384" /></g></g></g><path
       d="m 336.73,650.3 -12.38,-15 24.75,0 -12.37,15 z"
       inkscape:connector-curvature="0"
       id="path390"
       style="fill:#ffffff;fill-opacity:1;fill-rule:evenodd;stroke:none" /><path
       d="m 336.73,650.3 -12.38,-15 24.75,0 -12.37,15 z"
       inkscape:connector-curvature="0"
       id="path392"
       style="fill:none;stroke:#000000;stroke-width:0.75;stroke-linecap:round;stroke-linejoin:round;stroke-miterlimit:8;stroke-opacity:1;stroke-dasharray:none" /><path
       d="M 354.55,543 218.8,543.05"
       inkscape:connector-curvature="0"
       id="path394"
       style="fill:none;stroke:#000000;stroke-width:0.75;stroke-linecap:round;stroke-linejoin:round;stroke-miterlimit:8;stroke-opacity:1;stroke-dasharray:none" /><path
       d="m 373.85,509 135.75,0 0,54.35 -135.75,0 0,-54.35 z"
       inkscape:connector-curvature="0"
       id="path396"
       style="fill:none;stroke:#000000;stroke-width:0.75;stroke-linecap:round;stroke-linejoin:miter;stroke-miterlimit:8;stroke-opacity:1;stroke-dasharray:none" /><g
       id="g398"><g
         clip-path="url(#clipPath402)"
         id="g400"><g
           id="g406"><g
             clip-path="url(#clipPath410)"
             id="g408"><text
   transform="matrix(1,0,0,-1,422.81,548.23)"
   id="text414"><tspan
     x="0 8.0279999 12.024 19.308001 23.976 30.695999"
     y="0"
     id="tspan416"
     style="font-size:12px;font-variant:normal;font-weight:bold;writing-mode:lr-tb;fill:#000000;fill-opacity:1;fill-rule:nonzero;stroke:none;font-family:Helvetica;-inkscape-font-specification:Helvetica-Bold">Storch</tspan></text>

</g></g><g
           id="g418"><g
             clip-path="url(#clipPath422)"
             id="g420" /></g><g
           id="g426"><g
             clip-path="url(#clipPath430)"
             id="g428" /></g><g
           id="g434"><g
             clip-path="url(#clipPath438)"
             id="g436"><text
   transform="matrix(1,0,0,-1,381.53,532.15)"
   id="text442"><tspan
     x="0 6.96"
     y="0"
     id="tspan444"
     style="font-size:12px;font-variant:normal;font-weight:normal;writing-mode:lr-tb;fill:#000000;fill-opacity:1;fill-rule:nonzero;stroke:none;font-family:Helvetica;-inkscape-font-specification:Helvetica">+ </tspan></text>

</g></g><g
           id="g446"><g
             clip-path="url(#clipPath450)"
             id="g448"><text
   transform="matrix(1,0,0,-1,391.85,532.15)"
   id="text454"><tspan
     x="0 6.7080002 12.708 18.708 25.416"
     y="0"
     id="tspan456"
     style="font-size:12px;font-variant:normal;font-weight:normal;writing-mode:lr-tb;fill:#000000;fill-opacity:1;fill-rule:nonzero;stroke:none;font-family:Helvetica;-inkscape-font-specification:Helvetica">essen</tspan></text>

</g></g><g
           id="g458"><g
             clip-path="url(#clipPath462)"
             id="g460"><text
   transform="matrix(1,0,0,-1,424.01,532.15)"
   id="text466"><tspan
     x="0 3.9960001 7.9200001 11.256 14.628 17.964001 23.868 30.576 33.240002"
     y="0"
     id="tspan468"
     style="font-size:12px;font-variant:normal;font-weight:normal;writing-mode:lr-tb;fill:#000000;fill-opacity:1;fill-rule:nonzero;stroke:none;font-family:Helvetica;-inkscape-font-specification:Helvetica">() : void</tspan></text>

</g></g><g
           id="g470"><g
             clip-path="url(#clipPath474)"
             id="g472" /></g><g
           id="g478"><g
             clip-path="url(#clipPath482)"
             id="g480"><text
   transform="matrix(1,0,0,-1,381.53,518.23)"
   id="text486"><tspan
     x="0 6.96 10.296 13.788 16.452 19.068001 25.775999 32.375999 39.084 45.792 49.787998 53.712002 57.048 60.419998 63.756001 69.660004 76.367996 79.031998"
     y="0"
     id="tspan488"
     style="font-size:12px;font-variant:normal;font-weight:normal;writing-mode:lr-tb;fill:#000000;fill-opacity:1;fill-rule:nonzero;stroke:none;font-family:Helvetica;-inkscape-font-specification:Helvetica">+ fliegen() : void</tspan></text>

</g></g><g
           id="g490"><g
             clip-path="url(#clipPath494)"
             id="g492" /></g></g></g><path
       d="m 239.67,650.3 -12.37,-15 24.75,0 -12.38,15 z"
       inkscape:connector-curvature="0"
       id="path498"
       style="fill:#ffffff;fill-opacity:1;fill-rule:evenodd;stroke:none" /><path
       d="m 239.67,650.3 -12.37,-15 24.75,0 -12.38,15 z"
       inkscape:connector-curvature="0"
       id="path500"
       style="fill:none;stroke:#000000;stroke-width:0.75;stroke-linecap:round;stroke-linejoin:round;stroke-miterlimit:8;stroke-opacity:1;stroke-dasharray:none" /><path
       d="m 337.65,635.3 -0.75,0 0,-41.5 102.55,0"
       inkscape:connector-curvature="0"
       id="path502"
       style="fill:none;stroke:#000000;stroke-width:0.75;stroke-linecap:round;stroke-linejoin:round;stroke-miterlimit:8;stroke-opacity:1;stroke-dasharray:none" /><path
       d="m 439.45,593.85 0,-30.5"
       inkscape:connector-curvature="0"
       id="path504"
       style="fill:none;stroke:#000000;stroke-width:0.75;stroke-linecap:round;stroke-linejoin:round;stroke-miterlimit:8;stroke-opacity:1;stroke-dasharray:none" /><path
       d="m 286.75,635.3 0,-71.95"
       inkscape:connector-curvature="0"
       id="path506"
       style="fill:none;stroke:#000000;stroke-width:0.75;stroke-linecap:round;stroke-linejoin:round;stroke-miterlimit:8;stroke-opacity:1;stroke-dasharray:none" /><path
       d="m 239.75,635.3 0,-41.45"
       inkscape:connector-curvature="0"
       id="path508"
       style="fill:none;stroke:#000000;stroke-width:0.75;stroke-linecap:round;stroke-linejoin:round;stroke-miterlimit:8;stroke-opacity:1;stroke-dasharray:none" /><path
       d="M 239.75,593.85 133.8,593.8"
       inkscape:connector-curvature="0"
       id="path510"
       style="fill:none;stroke:#000000;stroke-width:0.75;stroke-linecap:round;stroke-linejoin:round;stroke-miterlimit:8;stroke-opacity:1;stroke-dasharray:none" /><path
       d="m 133.8,593.8 0,-30.5"
       inkscape:connector-curvature="0"
       id="path512"
       style="fill:none;stroke:#000000;stroke-width:0.75;stroke-linecap:round;stroke-linejoin:round;stroke-miterlimit:8;stroke-opacity:1;stroke-dasharray:none" /><path
       d="M 373.85,543.25 509.6,543.4"
       inkscape:connector-curvature="0"
       id="path514"
       style="fill:none;stroke:#000000;stroke-width:0.75;stroke-linecap:round;stroke-linejoin:round;stroke-miterlimit:8;stroke-opacity:1;stroke-dasharray:none" /></g></svg>