<?xml version="1.0" encoding="UTF-8" standalone="no"?>
<!-- Created with Inkscape (http://www.inkscape.org/) -->

<svg
   xmlns:dc="http://purl.org/dc/elements/1.1/"
   xmlns:cc="http://creativecommons.org/ns#"
   xmlns:rdf="http://www.w3.org/1999/02/22-rdf-syntax-ns#"
   xmlns:svg="http://www.w3.org/2000/svg"
   xmlns="http://www.w3.org/2000/svg"
   xmlns:sodipodi="http://sodipodi.sourceforge.net/DTD/sodipodi-0.dtd"
   xmlns:inkscape="http://www.inkscape.org/namespaces/inkscape"
   version="1.1"
   width="234.125"
   height="234.125"
   id="svg2"
   xml:space="preserve"
   inkscape:version="0.48.4 r9939"
   sodipodi:docname="Kapitelbild.svg"><sodipodi:namedview
     pagecolor="#ffffff"
     bordercolor="#666666"
     borderopacity="1"
     objecttolerance="10"
     gridtolerance="10"
     guidetolerance="10"
     inkscape:pageopacity="0"
     inkscape:pageshadow="2"
     inkscape:window-width="640"
     inkscape:window-height="480"
     id="namedview123"
     showgrid="false"
     inkscape:zoom="0.22424933"
     inkscape:cx="176.10626"
     inkscape:cy="48.956238"
     inkscape:window-x="0"
     inkscape:window-y="0"
     inkscape:window-maximized="0"
     inkscape:current-layer="svg2" /><metadata
     id="metadata8"><rdf:RDF><cc:Work
         rdf:about=""><dc:format>image/svg+xml</dc:format><dc:type
           rdf:resource="http://purl.org/dc/dcmitype/StillImage" /></cc:Work></rdf:RDF></metadata><defs
     id="defs6"><clipPath
       id="clipPath20"><path
         d="m 182.67,411.04 135.65,0 0,128.55 -135.65,0 0,-128.55 z"
         inkscape:connector-curvature="0"
         id="path22" /></clipPath><clipPath
       id="clipPath28"><path
         d="m 182.66,411.05 135.65,0 0,128.54 -135.65,0 0,-128.54 z"
         inkscape:connector-curvature="0"
         id="path30" /></clipPath><clipPath
       id="clipPath40"><path
         d="m 195.77,423.76 109.2,0 0,102.15 -109.2,0 0,-102.15 z"
         inkscape:connector-curvature="0"
         id="path42" /></clipPath><clipPath
       id="clipPath48"><path
         d="m 195.77,423.77 109.2,0 0,102.14 -109.2,0 0,-102.14 z"
         inkscape:connector-curvature="0"
         id="path50" /></clipPath><clipPath
       id="clipPath74"><path
         d="m 209.45,482.47 36.48,0 0,24.84 -36.48,0 0,-24.84 z"
         inkscape:connector-curvature="0"
         id="path76" /></clipPath><clipPath
       id="clipPath82"><path
         d="m 209.45,482.47 36.48,0 0,24.84 -36.48,0 0,-24.84 z"
         inkscape:connector-curvature="0"
         id="path84" /></clipPath><clipPath
       id="clipPath92"><path
         d="m 209.45,482.47 36.48,0 0,24.84 -36.48,0 0,-24.84 z"
         inkscape:connector-curvature="0"
         id="path94" /></clipPath><clipPath
       id="clipPath100"><path
         d="m 209.45,482.47 36.48,0 0,24.84 -36.48,0 0,-24.84 z"
         inkscape:connector-curvature="0"
         id="path102" /></clipPath><clipPath
       id="clipPath110"><path
         d="m 255.65,482.47 36.48,0 0,24.84 -36.48,0 0,-24.84 z"
         inkscape:connector-curvature="0"
         id="path112" /></clipPath><clipPath
       id="clipPath118"><path
         d="m 255.65,482.47 36.48,0 0,24.84 -36.48,0 0,-24.84 z"
         inkscape:connector-curvature="0"
         id="path120" /></clipPath><clipPath
       id="clipPath128"><path
         d="m 255.65,482.47 36.48,0 0,24.84 -36.48,0 0,-24.84 z"
         inkscape:connector-curvature="0"
         id="path130" /></clipPath><clipPath
       id="clipPath136"><path
         d="m 255.65,482.47 36.48,0 0,24.84 -36.48,0 0,-24.84 z"
         inkscape:connector-curvature="0"
         id="path138" /></clipPath><clipPath
       id="clipPath146"><path
         d="m 209.45,440.35 36.48,0 0,24.96 -36.48,0 0,-24.96 z"
         inkscape:connector-curvature="0"
         id="path148" /></clipPath><clipPath
       id="clipPath154"><path
         d="m 209.45,440.35 36.48,0 0,24.96 -36.48,0 0,-24.96 z"
         inkscape:connector-curvature="0"
         id="path156" /></clipPath><clipPath
       id="clipPath164"><path
         d="m 209.45,440.35 36.48,0 0,24.96 -36.48,0 0,-24.96 z"
         inkscape:connector-curvature="0"
         id="path166" /></clipPath><clipPath
       id="clipPath172"><path
         d="m 209.45,440.35 36.48,0 0,24.96 -36.48,0 0,-24.96 z"
         inkscape:connector-curvature="0"
         id="path174" /></clipPath><clipPath
       id="clipPath182"><path
         d="m 255.65,440.35 36.48,0 0,24.96 -36.48,0 0,-24.96 z"
         inkscape:connector-curvature="0"
         id="path184" /></clipPath><clipPath
       id="clipPath190"><path
         d="m 255.65,440.35 36.48,0 0,24.96 -36.48,0 0,-24.96 z"
         inkscape:connector-curvature="0"
         id="path192" /></clipPath><clipPath
       id="clipPath200"><path
         d="m 255.65,440.35 36.48,0 0,24.96 -36.48,0 0,-24.96 z"
         inkscape:connector-curvature="0"
         id="path202" /></clipPath><clipPath
       id="clipPath208"><path
         d="m 255.65,440.35 36.48,0 0,24.96 -36.48,0 0,-24.96 z"
         inkscape:connector-curvature="0"
         id="path210" /></clipPath><clipPath
       id="clipPath218"><path
         d="m 205.37,431.32 89.64,0 0,86.55 -89.64,0 0,-86.55 z"
         inkscape:connector-curvature="0"
         id="path220" /></clipPath><clipPath
       id="clipPath226"><path
         d="m 205.37,431.33 89.64,0 0,86.544 -89.64,0 0,-86.544 z"
         inkscape:connector-curvature="0"
         id="path228" /></clipPath></defs><g
     transform="matrix(1.25,0,0,-1.25,-195.96875,711.36875)"
     id="g10"><path
       d="m 211.77,568.72 -54.62,-54.62 0,-77.31 54.62,-54.62 77.26,0 54.62,54.62 0,77.31 -54.62,54.62 -77.26,0 z"
       inkscape:connector-curvature="0"
       id="path12"
       style="fill:#969696;fill-opacity:1;fill-rule:evenodd;stroke:none" /><path
       d="m 211.77,568.72 -54.62,-54.62 0,-77.31 54.62,-54.62 77.26,0 54.62,54.62 0,77.31 -54.62,54.62 -77.26,0 z"
       inkscape:connector-curvature="0"
       id="path14"
       style="fill:none;stroke:#000000;stroke-width:0.75;stroke-linecap:round;stroke-linejoin:round;stroke-miterlimit:10;stroke-opacity:1;stroke-dasharray:none" /><g
       id="g16"><g
         clip-path="url(#clipPath20)"
         id="g18"><g
           id="g24"><g
             clip-path="url(#clipPath28)"
             id="g26" /></g></g></g><path
       d="m 219.4,549.52 -43.65,-43.65 0,-61.8 43.65,-43.65 61.75,0 43.65,43.65 0,61.8 -43.65,43.65 -61.75,0 z"
       inkscape:connector-curvature="0"
       id="path32"
       style="fill:#dddddd;fill-opacity:1;fill-rule:evenodd;stroke:none" /><path
       d="m 219.4,549.52 -43.65,-43.65 0,-61.8 43.65,-43.65 61.75,0 43.65,43.65 0,61.8 -43.65,43.65 -61.75,0 z"
       inkscape:connector-curvature="0"
       id="path34"
       style="fill:none;stroke:#000000;stroke-width:0.75;stroke-linecap:round;stroke-linejoin:round;stroke-miterlimit:10;stroke-opacity:1;stroke-dasharray:none" /><g
       id="g36"><g
         clip-path="url(#clipPath40)"
         id="g38"><g
           id="g44"><g
             clip-path="url(#clipPath48)"
             id="g46" /></g></g></g><path
       d="m 212.6,568.72 6.95,-18.75"
       inkscape:connector-curvature="0"
       id="path52"
       style="fill:none;stroke:#000000;stroke-width:0.75;stroke-linecap:round;stroke-linejoin:round;stroke-miterlimit:10;stroke-opacity:1;stroke-dasharray:none" /><path
       d="m 281.05,400.47 9.1,-18"
       inkscape:connector-curvature="0"
       id="path54"
       style="fill:none;stroke:#000000;stroke-width:0.75;stroke-linecap:round;stroke-linejoin:round;stroke-miterlimit:10;stroke-opacity:1;stroke-dasharray:none" /><path
       d="m 212.25,382.47 7.55,18.35"
       inkscape:connector-curvature="0"
       id="path56"
       style="fill:none;stroke:#000000;stroke-width:0.75;stroke-linecap:round;stroke-linejoin:round;stroke-miterlimit:10;stroke-opacity:1;stroke-dasharray:none" /><path
       d="m 157.15,436.47 18.35,7.25"
       inkscape:connector-curvature="0"
       id="path58"
       style="fill:none;stroke:#000000;stroke-width:0.75;stroke-linecap:round;stroke-linejoin:round;stroke-miterlimit:10;stroke-opacity:1;stroke-dasharray:none" /><path
       d="m 157.85,513.62 18,-8.3"
       inkscape:connector-curvature="0"
       id="path60"
       style="fill:none;stroke:#000000;stroke-width:0.75;stroke-linecap:round;stroke-linejoin:round;stroke-miterlimit:10;stroke-opacity:1;stroke-dasharray:none" /><path
       d="m 289.7,568.72 -8.65,-19.1"
       inkscape:connector-curvature="0"
       id="path62"
       style="fill:none;stroke:#000000;stroke-width:0.75;stroke-linecap:round;stroke-linejoin:round;stroke-miterlimit:10;stroke-opacity:1;stroke-dasharray:none" /><path
       d="m 324.25,506.07 19.45,7.55"
       inkscape:connector-curvature="0"
       id="path64"
       style="fill:none;stroke:#000000;stroke-width:0.75;stroke-linecap:round;stroke-linejoin:round;stroke-miterlimit:10;stroke-opacity:1;stroke-dasharray:none" /><path
       d="m 324.6,444.42 19.1,-7.2"
       inkscape:connector-curvature="0"
       id="path66"
       style="fill:none;stroke:#000000;stroke-width:0.75;stroke-linecap:round;stroke-linejoin:round;stroke-miterlimit:10;stroke-opacity:1;stroke-dasharray:none" /><path
       d="m 209.35,479.02 36.401,0 0,31.901 -36.401,0 0,-31.901 z"
       inkscape:connector-curvature="0"
       id="path68"
       style="fill:#7f7f7f;fill-opacity:1;fill-rule:evenodd;stroke:none" /><g
       id="g70"><g
         clip-path="url(#clipPath74)"
         id="g72"><g
           id="g78"><g
             clip-path="url(#clipPath82)"
             id="g80" /></g></g></g><path
       d="m 209.35,479.02 36.401,0 0,31.901 -36.401,0 0,-31.901 z"
       inkscape:connector-curvature="0"
       id="path86"
       style="fill:none;stroke:#000000;stroke-width:0.14;stroke-linecap:round;stroke-linejoin:round;stroke-miterlimit:10;stroke-opacity:1;stroke-dasharray:none" /><g
       id="g88"><g
         clip-path="url(#clipPath92)"
         id="g90"><g
           id="g96"><g
             clip-path="url(#clipPath100)"
             id="g98" /></g></g></g><path
       d="m 255.55,479.02 36.401,0 0,31.901 -36.401,0 0,-31.901 z"
       inkscape:connector-curvature="0"
       id="path104"
       style="fill:#7f7f7f;fill-opacity:1;fill-rule:evenodd;stroke:none" /><g
       id="g106"><g
         clip-path="url(#clipPath110)"
         id="g108"><g
           id="g114"><g
             clip-path="url(#clipPath118)"
             id="g116" /></g></g></g><path
       d="m 255.55,479.02 36.401,0 0,31.901 -36.401,0 0,-31.901 z"
       inkscape:connector-curvature="0"
       id="path122"
       style="fill:none;stroke:#000000;stroke-width:0.14;stroke-linecap:round;stroke-linejoin:round;stroke-miterlimit:10;stroke-opacity:1;stroke-dasharray:none" /><g
       id="g124"><g
         clip-path="url(#clipPath128)"
         id="g126"><g
           id="g132"><g
             clip-path="url(#clipPath136)"
             id="g134" /></g></g></g><path
       d="m 209.35,436.97 36.401,0 0,31.95 -36.401,0 0,-31.95 z"
       inkscape:connector-curvature="0"
       id="path140"
       style="fill:#7f7f7f;fill-opacity:1;fill-rule:evenodd;stroke:none" /><g
       id="g142"><g
         clip-path="url(#clipPath146)"
         id="g144"><g
           id="g150"><g
             clip-path="url(#clipPath154)"
             id="g152" /></g></g></g><path
       d="m 209.35,436.97 36.401,0 0,31.95 -36.401,0 0,-31.95 z"
       inkscape:connector-curvature="0"
       id="path158"
       style="fill:none;stroke:#000000;stroke-width:0.14;stroke-linecap:round;stroke-linejoin:round;stroke-miterlimit:10;stroke-opacity:1;stroke-dasharray:none" /><g
       id="g160"><g
         clip-path="url(#clipPath164)"
         id="g162"><g
           id="g168"><g
             clip-path="url(#clipPath172)"
             id="g170" /></g></g></g><path
       d="m 255.55,436.97 36.401,0 0,31.95 -36.401,0 0,-31.95 z"
       inkscape:connector-curvature="0"
       id="path176"
       style="fill:#7f7f7f;fill-opacity:1;fill-rule:evenodd;stroke:none" /><g
       id="g178"><g
         clip-path="url(#clipPath182)"
         id="g180"><g
           id="g186"><g
             clip-path="url(#clipPath190)"
             id="g188" /></g></g></g><path
       d="m 255.55,436.97 36.401,0 0,31.95 -36.401,0 0,-31.95 z"
       inkscape:connector-curvature="0"
       id="path194"
       style="fill:none;stroke:#000000;stroke-width:0.14;stroke-linecap:round;stroke-linejoin:round;stroke-miterlimit:10;stroke-opacity:1;stroke-dasharray:none" /><g
       id="g196"><g
         clip-path="url(#clipPath200)"
         id="g198"><g
           id="g204"><g
             clip-path="url(#clipPath208)"
             id="g206" /></g></g></g><path
       d="m 224.88,537.52 -35.58,-35.58 0,-54.34 35.58,-35.58 50.34,0 35.58,35.58 0,54.34 -35.58,35.58 -50.34,0 z"
       inkscape:connector-curvature="0"
       id="path212"
       style="fill:none;stroke:#000000;stroke-width:0.75;stroke-linecap:round;stroke-linejoin:round;stroke-miterlimit:10;stroke-opacity:1;stroke-dasharray:none" /><g
       id="g214"><g
         clip-path="url(#clipPath218)"
         id="g216"><g
           id="g222"><g
             clip-path="url(#clipPath226)"
             id="g224" /></g></g></g><path
       d="M 276.55,412.02 281,400.47"
       inkscape:connector-curvature="0"
       id="path230"
       style="fill:none;stroke:#000000;stroke-width:0.75;stroke-linecap:round;stroke-linejoin:round;stroke-miterlimit:10;stroke-opacity:1;stroke-dasharray:none" /><path
       d="m 175.5,443.32 13.8,5.45"
       inkscape:connector-curvature="0"
       id="path232"
       style="fill:none;stroke:#000000;stroke-width:0.75;stroke-linecap:round;stroke-linejoin:round;stroke-miterlimit:10;stroke-opacity:1;stroke-dasharray:none" /><path
       d="m 219.55,400.87 4.25,11.15"
       inkscape:connector-curvature="0"
       id="path234"
       style="fill:none;stroke:#000000;stroke-width:0.75;stroke-linecap:round;stroke-linejoin:round;stroke-miterlimit:10;stroke-opacity:1;stroke-dasharray:none" /><path
       d="m 175.85,506.07 13.45,-5.55"
       inkscape:connector-curvature="0"
       id="path236"
       style="fill:none;stroke:#000000;stroke-width:0.75;stroke-linecap:round;stroke-linejoin:round;stroke-miterlimit:10;stroke-opacity:1;stroke-dasharray:none" /><path
       d="m 219.8,549.52 4,-12"
       inkscape:connector-curvature="0"
       id="path238"
       style="fill:none;stroke:#000000;stroke-width:0.75;stroke-linecap:round;stroke-linejoin:round;stroke-miterlimit:10;stroke-opacity:1;stroke-dasharray:none" /><path
       d="m 281,549.97 -4.45,-12.45"
       inkscape:connector-curvature="0"
       id="path240"
       style="fill:none;stroke:#000000;stroke-width:0.75;stroke-linecap:round;stroke-linejoin:round;stroke-miterlimit:10;stroke-opacity:1;stroke-dasharray:none" /><path
       d="m 324.8,506.07 -14,-5.55"
       inkscape:connector-curvature="0"
       id="path242"
       style="fill:none;stroke:#000000;stroke-width:0.75;stroke-linecap:round;stroke-linejoin:round;stroke-miterlimit:10;stroke-opacity:1;stroke-dasharray:none" /><path
       d="m 324.25,443.32 -13.45,5.45"
       inkscape:connector-curvature="0"
       id="path244"
       style="fill:none;stroke:#000000;stroke-width:0.75;stroke-linecap:round;stroke-linejoin:round;stroke-miterlimit:10;stroke-opacity:1;stroke-dasharray:none" /></g></svg>