<?xml version="1.0" encoding="UTF-8" standalone="no"?>
<!-- Created with Inkscape (http://www.inkscape.org/) -->

<svg
   xmlns:dc="http://purl.org/dc/elements/1.1/"
   xmlns:cc="http://creativecommons.org/ns#"
   xmlns:rdf="http://www.w3.org/1999/02/22-rdf-syntax-ns#"
   xmlns:svg="http://www.w3.org/2000/svg"
   xmlns="http://www.w3.org/2000/svg"
   xmlns:sodipodi="http://sodipodi.sourceforge.net/DTD/sodipodi-0.dtd"
   xmlns:inkscape="http://www.inkscape.org/namespaces/inkscape"
   version="1.1"
   width="260.72501"
   height="223.28751"
   id="svg2"
   xml:space="preserve"
   inkscape:version="0.48.4 r9939"
   sodipodi:docname="Bild 3-1 Muster bei der SW-Entwicklung.svg"><sodipodi:namedview
     pagecolor="#ffffff"
     bordercolor="#666666"
     borderopacity="1"
     objecttolerance="10"
     gridtolerance="10"
     guidetolerance="10"
     inkscape:pageopacity="0"
     inkscape:pageshadow="2"
     inkscape:window-width="640"
     inkscape:window-height="480"
     id="namedview75"
     showgrid="false"
     inkscape:zoom="0.18730159"
     inkscape:cx="541.1625"
     inkscape:cy="35.1"
     inkscape:window-x="0"
     inkscape:window-y="0"
     inkscape:window-maximized="0"
     inkscape:current-layer="svg2" /><metadata
     id="metadata8"><rdf:RDF><cc:Work
         rdf:about=""><dc:format>image/svg+xml</dc:format><dc:type
           rdf:resource="http://purl.org/dc/dcmitype/StillImage" /></cc:Work></rdf:RDF></metadata><defs
     id="defs6"><clipPath
       id="clipPath34"><path
         d="m 72.241,609.67 193.59,0 0,28.08 -193.59,0 0,-28.08 z"
         inkscape:connector-curvature="0"
         id="path36" /></clipPath><clipPath
       id="clipPath42"><path
         d="m 72.24,609.67 193.58,0 0,28.08 -193.58,0 0,-28.08 z"
         inkscape:connector-curvature="0"
         id="path44" /></clipPath><clipPath
       id="clipPath54"><path
         d="m 72.24,609.67 193.58,0 0,28.08 -193.58,0 0,-28.08 z"
         inkscape:connector-curvature="0"
         id="path56" /></clipPath><clipPath
       id="clipPath80"><path
         d="m 73.201,480.31 193.59,0 0,28.08 -193.59,0 0,-28.08 z"
         inkscape:connector-curvature="0"
         id="path82" /></clipPath><clipPath
       id="clipPath88"><path
         d="m 73.2,480.31 193.58,0 0,28.08 -193.58,0 0,-28.08 z"
         inkscape:connector-curvature="0"
         id="path90" /></clipPath><clipPath
       id="clipPath100"><path
         d="m 73.2,480.31 193.58,0 0,28.08 -193.58,0 0,-28.08 z"
         inkscape:connector-curvature="0"
         id="path102" /></clipPath><clipPath
       id="clipPath126"><path
         d="m 72.361,541.51 193.71,0 0,31.08 -193.71,0 0,-31.08 z"
         inkscape:connector-curvature="0"
         id="path128" /></clipPath><clipPath
       id="clipPath134"><path
         d="m 72.36,541.51 193.7,0 0,31.08 -193.7,0 0,-31.08 z"
         inkscape:connector-curvature="0"
         id="path136" /></clipPath><clipPath
       id="clipPath146"><path
         d="m 72.36,541.51 193.7,0 0,31.08 -193.7,0 0,-31.08 z"
         inkscape:connector-curvature="0"
         id="path148" /></clipPath></defs><g
     transform="matrix(1.25,0,0,-1.25,-89.2125,818.1875)"
     id="g10"><path
       d="m 266.25,605.75 0,36 12.73,12.73 0,-36 -12.73,-12.73 z"
       inkscape:connector-curvature="0"
       id="path12"
       style="fill:#e1e1e1;fill-opacity:1;fill-rule:evenodd;stroke:none" /><path
       d="m 266.25,605.75 12.73,12.73"
       inkscape:connector-curvature="0"
       id="path14"
       style="fill:none;stroke:#e1e1e1;stroke-width:0.14;stroke-linecap:butt;stroke-linejoin:miter;stroke-miterlimit:10;stroke-opacity:1;stroke-dasharray:none" /><path
       d="m 266.25,641.75 -194.4,0 12.728,12.73 194.402,0 -12.73,-12.73 z"
       inkscape:connector-curvature="0"
       id="path16"
       style="fill:#989898;fill-opacity:1;fill-rule:evenodd;stroke:none" /><path
       d="m 266.25,641.75 12.73,12.73"
       inkscape:connector-curvature="0"
       id="path18"
       style="fill:none;stroke:#989898;stroke-width:0.14;stroke-linecap:butt;stroke-linejoin:miter;stroke-miterlimit:10;stroke-opacity:1;stroke-dasharray:none" /><path
       d="m 71.85,605.75 194.4,0 0,36 -194.4,0 0,-36 z"
       inkscape:connector-curvature="0"
       id="path20"
       style="fill:#c4c4c4;fill-opacity:1;fill-rule:evenodd;stroke:none" /><path
       d="m 71.85,641.75 0,-36"
       inkscape:connector-curvature="0"
       id="path22"
       style="fill:none;stroke:#d6d6d6;stroke-width:0.95999998;stroke-linecap:butt;stroke-linejoin:miter;stroke-miterlimit:10;stroke-opacity:1;stroke-dasharray:none" /><path
       d="m 71.85,605.75 194.4,0"
       inkscape:connector-curvature="0"
       id="path24"
       style="fill:none;stroke:#b7b7b7;stroke-width:0.95999998;stroke-linecap:butt;stroke-linejoin:miter;stroke-miterlimit:10;stroke-opacity:1;stroke-dasharray:none" /><path
       d="m 266.25,605.75 0,36"
       inkscape:connector-curvature="0"
       id="path26"
       style="fill:none;stroke:#eaeaea;stroke-width:0.95999998;stroke-linecap:butt;stroke-linejoin:miter;stroke-miterlimit:10;stroke-opacity:1;stroke-dasharray:none" /><path
       d="m 266.25,641.75 -194.4,0"
       inkscape:connector-curvature="0"
       id="path28"
       style="fill:none;stroke:#b7b7b7;stroke-width:0.95999998;stroke-linecap:butt;stroke-linejoin:miter;stroke-miterlimit:10;stroke-opacity:1;stroke-dasharray:none" /><g
       id="g30"><g
         clip-path="url(#clipPath34)"
         id="g32"><g
           id="g38"><g
             clip-path="url(#clipPath42)"
             id="g40"><text
   transform="matrix(1,0,0,-1,98.544,620.11)"
   id="text46"><tspan
     x="0 12.006 18 27 37.007999 40.914001 45.917999 55.925999 64.926003 69.93 79.938004 85.931999 100.926 110.88 119.988 124.992 135"
     y="0"
     id="tspan48"
     style="font-size:18px;font-variant:normal;font-weight:normal;writing-mode:lr-tb;fill:#000000;fill-opacity:1;fill-rule:nonzero;stroke:none;font-family:Helvetica;-inkscape-font-specification:Helvetica">Architekturmuster</tspan></text>

</g></g><g
           id="g50"><g
             clip-path="url(#clipPath54)"
             id="g52" /></g></g></g><path
       d="m 267.15,476.4 0,36 12.73,12.73 0,-36 -12.73,-12.73 z"
       inkscape:connector-curvature="0"
       id="path58"
       style="fill:#e1e1e1;fill-opacity:1;fill-rule:evenodd;stroke:none" /><path
       d="m 267.15,476.4 12.73,12.73"
       inkscape:connector-curvature="0"
       id="path60"
       style="fill:none;stroke:#e1e1e1;stroke-width:0.14;stroke-linecap:butt;stroke-linejoin:miter;stroke-miterlimit:10;stroke-opacity:1;stroke-dasharray:none" /><path
       d="m 267.15,512.4 -194.4,0 12.728,12.73 194.402,0 -12.73,-12.73 z"
       inkscape:connector-curvature="0"
       id="path62"
       style="fill:#989898;fill-opacity:1;fill-rule:evenodd;stroke:none" /><path
       d="m 267.15,512.4 12.73,12.73"
       inkscape:connector-curvature="0"
       id="path64"
       style="fill:none;stroke:#989898;stroke-width:0.14;stroke-linecap:butt;stroke-linejoin:miter;stroke-miterlimit:10;stroke-opacity:1;stroke-dasharray:none" /><path
       d="m 72.75,476.4 194.4,0 0,36 -194.4,0 0,-36 z"
       inkscape:connector-curvature="0"
       id="path66"
       style="fill:#c4c4c4;fill-opacity:1;fill-rule:evenodd;stroke:none" /><path
       d="m 72.75,512.4 0,-36"
       inkscape:connector-curvature="0"
       id="path68"
       style="fill:none;stroke:#d6d6d6;stroke-width:0.95999998;stroke-linecap:butt;stroke-linejoin:miter;stroke-miterlimit:10;stroke-opacity:1;stroke-dasharray:none" /><path
       d="m 72.75,476.4 194.4,0"
       inkscape:connector-curvature="0"
       id="path70"
       style="fill:none;stroke:#b7b7b7;stroke-width:0.95999998;stroke-linecap:butt;stroke-linejoin:miter;stroke-miterlimit:10;stroke-opacity:1;stroke-dasharray:none" /><path
       d="m 267.15,476.4 0,36"
       inkscape:connector-curvature="0"
       id="path72"
       style="fill:none;stroke:#eaeaea;stroke-width:0.95999998;stroke-linecap:butt;stroke-linejoin:miter;stroke-miterlimit:10;stroke-opacity:1;stroke-dasharray:none" /><path
       d="m 267.15,512.4 -194.4,0"
       inkscape:connector-curvature="0"
       id="path74"
       style="fill:none;stroke:#b7b7b7;stroke-width:0.95999998;stroke-linecap:butt;stroke-linejoin:miter;stroke-miterlimit:10;stroke-opacity:1;stroke-dasharray:none" /><g
       id="g76"><g
         clip-path="url(#clipPath80)"
         id="g78"><g
           id="g84"><g
             clip-path="url(#clipPath88)"
             id="g86"><text
   transform="matrix(1,0,0,-1,143.06,490.75)"
   id="text92"><tspan
     x="0 5.0040002 15.012 19.007999 28.926001 43.919998"
     y="0"
     id="tspan94"
     style="font-size:18px;font-variant:normal;font-weight:normal;writing-mode:lr-tb;fill:#000000;fill-opacity:1;fill-rule:nonzero;stroke:none;font-family:Helvetica;-inkscape-font-specification:Helvetica">Idiome</tspan></text>

</g></g><g
           id="g96"><g
             clip-path="url(#clipPath100)"
             id="g98" /></g></g></g><path
       d="m 266.4,537.6 0,39 12.73,12.73 0,-39 -12.73,-12.73 z"
       inkscape:connector-curvature="0"
       id="path104"
       style="fill:#e1e1e1;fill-opacity:1;fill-rule:evenodd;stroke:none" /><path
       d="m 266.4,537.6 12.73,12.73"
       inkscape:connector-curvature="0"
       id="path106"
       style="fill:none;stroke:#e1e1e1;stroke-width:0.14;stroke-linecap:butt;stroke-linejoin:miter;stroke-miterlimit:10;stroke-opacity:1;stroke-dasharray:none" /><path
       d="m 266.4,576.6 -194.4,0 12.728,12.73 194.402,0 -12.73,-12.73 z"
       inkscape:connector-curvature="0"
       id="path108"
       style="fill:#989898;fill-opacity:1;fill-rule:evenodd;stroke:none" /><path
       d="m 266.4,576.6 12.73,12.73"
       inkscape:connector-curvature="0"
       id="path110"
       style="fill:none;stroke:#989898;stroke-width:0.14;stroke-linecap:butt;stroke-linejoin:miter;stroke-miterlimit:10;stroke-opacity:1;stroke-dasharray:none" /><path
       d="m 72,537.6 194.4,0 0,39 -194.4,0 0,-39 z"
       inkscape:connector-curvature="0"
       id="path112"
       style="fill:#c4c4c4;fill-opacity:1;fill-rule:evenodd;stroke:none" /><path
       d="m 72,576.6 0,-39"
       inkscape:connector-curvature="0"
       id="path114"
       style="fill:none;stroke:#d6d6d6;stroke-width:0.95999998;stroke-linecap:butt;stroke-linejoin:miter;stroke-miterlimit:10;stroke-opacity:1;stroke-dasharray:none" /><path
       d="m 72,537.6 194.4,0"
       inkscape:connector-curvature="0"
       id="path116"
       style="fill:none;stroke:#b7b7b7;stroke-width:0.95999998;stroke-linecap:butt;stroke-linejoin:miter;stroke-miterlimit:10;stroke-opacity:1;stroke-dasharray:none" /><path
       d="m 266.4,537.6 0,39"
       inkscape:connector-curvature="0"
       id="path118"
       style="fill:none;stroke:#eaeaea;stroke-width:0.95999998;stroke-linecap:butt;stroke-linejoin:miter;stroke-miterlimit:10;stroke-opacity:1;stroke-dasharray:none" /><path
       d="M 266.4,576.6 72,576.6"
       inkscape:connector-curvature="0"
       id="path120"
       style="fill:none;stroke:#b7b7b7;stroke-width:0.95999998;stroke-linecap:butt;stroke-linejoin:miter;stroke-miterlimit:10;stroke-opacity:1;stroke-dasharray:none" /><g
       id="g122"><g
         clip-path="url(#clipPath126)"
         id="g124"><g
           id="g130"><g
             clip-path="url(#clipPath134)"
             id="g132"><text
   transform="matrix(1,0,0,-1,106.7,554.95)"
   id="text138"><tspan
     x="0 12.006 21.959999 27.108 39.834 49.896 55.889999 60.894001 69.893997 84.888 94.896004 103.896 108.9 118.998"
     y="0"
     id="tspan140"
     style="font-size:18px;font-variant:normal;font-weight:normal;writing-mode:lr-tb;fill:#000000;fill-opacity:1;fill-rule:nonzero;stroke:none;font-family:Helvetica;-inkscape-font-specification:Helvetica">Entwurfsmuster</tspan></text>

</g></g><g
           id="g142"><g
             clip-path="url(#clipPath146)"
             id="g144" /></g></g></g></g></svg>