<?xml version="1.0" encoding="UTF-8" standalone="no"?>
<!-- Created with Inkscape (http://www.inkscape.org/) -->

<svg
   xmlns:dc="http://purl.org/dc/elements/1.1/"
   xmlns:cc="http://creativecommons.org/ns#"
   xmlns:rdf="http://www.w3.org/1999/02/22-rdf-syntax-ns#"
   xmlns:svg="http://www.w3.org/2000/svg"
   xmlns="http://www.w3.org/2000/svg"
   xmlns:sodipodi="http://sodipodi.sourceforge.net/DTD/sodipodi-0.dtd"
   xmlns:inkscape="http://www.inkscape.org/namespaces/inkscape"
   version="1.1"
   width="602.1875"
   height="343.8125"
   id="svg2"
   xml:space="preserve"
   inkscape:version="0.48.4 r9939"
   sodipodi:docname="Bild 4-34 Klassendiagramm des Strategie-Musters.svg"><sodipodi:namedview
     pagecolor="#ffffff"
     bordercolor="#666666"
     borderopacity="1"
     objecttolerance="10"
     gridtolerance="10"
     guidetolerance="10"
     inkscape:pageopacity="0"
     inkscape:pageshadow="2"
     inkscape:window-width="640"
     inkscape:window-height="480"
     id="namedview333"
     showgrid="false"
     inkscape:zoom="0.18730159"
     inkscape:cx="122.78125"
     inkscape:cy="270.46875"
     inkscape:window-x="0"
     inkscape:window-y="0"
     inkscape:window-maximized="0"
     inkscape:current-layer="svg2" /><metadata
     id="metadata8"><rdf:RDF><cc:Work
         rdf:about=""><dc:format>image/svg+xml</dc:format><dc:type
           rdf:resource="http://purl.org/dc/dcmitype/StillImage" /></cc:Work></rdf:RDF></metadata><defs
     id="defs6"><clipPath
       id="clipPath18"><path
         d="m 406.37,485.47 104.55,0 0,21.48 -104.55,0 0,-21.48 z"
         inkscape:connector-curvature="0"
         id="path20" /></clipPath><clipPath
       id="clipPath26"><path
         d="m 406.37,485.47 104.54,0 0,21.48 -104.54,0 0,-21.48 z"
         inkscape:connector-curvature="0"
         id="path28" /></clipPath><clipPath
       id="clipPath38"><path
         d="m 406.37,485.47 104.54,0 0,21.48 -104.54,0 0,-21.48 z"
         inkscape:connector-curvature="0"
         id="path40" /></clipPath><clipPath
       id="clipPath50"><path
         d="m 406.37,485.47 104.54,0 0,21.48 -104.54,0 0,-21.48 z"
         inkscape:connector-curvature="0"
         id="path52" /></clipPath><clipPath
       id="clipPath58"><path
         d="m 406.37,485.47 104.54,0 0,21.48 -104.54,0 0,-21.48 z"
         inkscape:connector-curvature="0"
         id="path60" /></clipPath><clipPath
       id="clipPath70"><path
         d="m 406.37,485.47 104.54,0 0,21.48 -104.54,0 0,-21.48 z"
         inkscape:connector-curvature="0"
         id="path72" /></clipPath><clipPath
       id="clipPath78"><path
         d="m 406.37,485.47 104.54,0 0,21.48 -104.54,0 0,-21.48 z"
         inkscape:connector-curvature="0"
         id="path80" /></clipPath><clipPath
       id="clipPath90"><path
         d="m 406.37,485.47 104.54,0 0,21.48 -104.54,0 0,-21.48 z"
         inkscape:connector-curvature="0"
         id="path92" /></clipPath><clipPath
       id="clipPath106"><path
         d="m 563.36,521.95 52.32,0 0,21.6 -52.32,0 0,-21.6 z"
         inkscape:connector-curvature="0"
         id="path108" /></clipPath><clipPath
       id="clipPath114"><path
         d="m 563.35,521.95 52.32,0 0,21.6 -52.32,0 0,-21.6 z"
         inkscape:connector-curvature="0"
         id="path116" /></clipPath><clipPath
       id="clipPath126"><path
         d="m 563.35,521.95 52.32,0 0,21.6 -52.32,0 0,-21.6 z"
         inkscape:connector-curvature="0"
         id="path128" /></clipPath><clipPath
       id="clipPath138"><path
         d="m 655.17,485.59 119.64,0 0,21.36 -119.64,0 0,-21.36 z"
         inkscape:connector-curvature="0"
         id="path140" /></clipPath><clipPath
       id="clipPath146"><path
         d="m 655.18,485.59 119.64,0 0,21.36 -119.64,0 0,-21.36 z"
         inkscape:connector-curvature="0"
         id="path148" /></clipPath><clipPath
       id="clipPath158"><path
         d="m 655.18,485.59 119.64,0 0,21.36 -119.64,0 0,-21.36 z"
         inkscape:connector-curvature="0"
         id="path160" /></clipPath><clipPath
       id="clipPath170"><path
         d="m 655.18,485.59 119.64,0 0,21.36 -119.64,0 0,-21.36 z"
         inkscape:connector-curvature="0"
         id="path172" /></clipPath><clipPath
       id="clipPath178"><path
         d="m 655.18,485.59 119.64,0 0,21.36 -119.64,0 0,-21.36 z"
         inkscape:connector-curvature="0"
         id="path180" /></clipPath><clipPath
       id="clipPath190"><path
         d="m 655.18,485.59 119.64,0 0,21.36 -119.64,0 0,-21.36 z"
         inkscape:connector-curvature="0"
         id="path192" /></clipPath><clipPath
       id="clipPath198"><path
         d="m 655.18,485.59 119.64,0 0,21.36 -119.64,0 0,-21.36 z"
         inkscape:connector-curvature="0"
         id="path200" /></clipPath><clipPath
       id="clipPath210"><path
         d="m 655.18,485.59 119.64,0 0,21.36 -119.64,0 0,-21.36 z"
         inkscape:connector-curvature="0"
         id="path212" /></clipPath><clipPath
       id="clipPath226"><path
         d="m 412.37,423.4 157.71,0 0,28.71 -157.71,0 0,-28.71 z"
         inkscape:connector-curvature="0"
         id="path228" /></clipPath><clipPath
       id="clipPath234"><path
         d="m 412.37,423.41 157.7,0 0,28.704 -157.7,0 0,-28.704 z"
         inkscape:connector-curvature="0"
         id="path236" /></clipPath><clipPath
       id="clipPath246"><path
         d="m 412.37,423.41 157.7,0 0,28.704 -157.7,0 0,-28.704 z"
         inkscape:connector-curvature="0"
         id="path248" /></clipPath><clipPath
       id="clipPath254"><path
         d="m 412.37,423.41 157.7,0 0,28.704 -157.7,0 0,-28.704 z"
         inkscape:connector-curvature="0"
         id="path256" /></clipPath><clipPath
       id="clipPath266"><path
         d="m 412.37,423.41 157.7,0 0,28.704 -157.7,0 0,-28.704 z"
         inkscape:connector-curvature="0"
         id="path268" /></clipPath><clipPath
       id="clipPath278"><path
         d="m 412.37,423.41 157.7,0 0,28.704 -157.7,0 0,-28.704 z"
         inkscape:connector-curvature="0"
         id="path280" /></clipPath><clipPath
       id="clipPath290"><path
         d="m 406.37,539.47 104.55,0 0,18.6 -104.55,0 0,-18.6 z"
         inkscape:connector-curvature="0"
         id="path292" /></clipPath><clipPath
       id="clipPath298"><path
         d="m 406.37,539.47 104.54,0 0,18.6 -104.54,0 0,-18.6 z"
         inkscape:connector-curvature="0"
         id="path300" /></clipPath><clipPath
       id="clipPath310"><path
         d="m 406.37,539.47 104.54,0 0,18.6 -104.54,0 0,-18.6 z"
         inkscape:connector-curvature="0"
         id="path312" /></clipPath><clipPath
       id="clipPath320"><path
         d="m 542.48,309.76 138.97,0 0,21.48 -138.97,0 0,-21.48 z"
         inkscape:connector-curvature="0"
         id="path322" /></clipPath><clipPath
       id="clipPath328"><path
         d="m 542.47,309.77 138.98,0 0,21.48 -138.98,0 0,-21.48 z"
         inkscape:connector-curvature="0"
         id="path330" /></clipPath><clipPath
       id="clipPath340"><path
         d="m 542.47,309.77 138.98,0 0,21.48 -138.98,0 0,-21.48 z"
         inkscape:connector-curvature="0"
         id="path342" /></clipPath><clipPath
       id="clipPath352"><path
         d="m 542.47,309.77 138.98,0 0,21.48 -138.98,0 0,-21.48 z"
         inkscape:connector-curvature="0"
         id="path354" /></clipPath><clipPath
       id="clipPath360"><path
         d="m 542.47,309.77 138.98,0 0,21.48 -138.98,0 0,-21.48 z"
         inkscape:connector-curvature="0"
         id="path362" /></clipPath><clipPath
       id="clipPath372"><path
         d="m 542.47,309.77 138.98,0 0,21.48 -138.98,0 0,-21.48 z"
         inkscape:connector-curvature="0"
         id="path374" /></clipPath><clipPath
       id="clipPath380"><path
         d="m 542.47,309.77 138.98,0 0,21.48 -138.98,0 0,-21.48 z"
         inkscape:connector-curvature="0"
         id="path382" /></clipPath><clipPath
       id="clipPath392"><path
         d="m 542.47,309.77 138.98,0 0,21.48 -138.98,0 0,-21.48 z"
         inkscape:connector-curvature="0"
         id="path394" /></clipPath><clipPath
       id="clipPath400"><path
         d="m 542.48,348.88 146.41,0 0,18.6 -146.41,0 0,-18.6 z"
         inkscape:connector-curvature="0"
         id="path402" /></clipPath><clipPath
       id="clipPath408"><path
         d="m 542.47,348.89 146.42,0 0,18.6 -146.42,0 0,-18.6 z"
         inkscape:connector-curvature="0"
         id="path410" /></clipPath><clipPath
       id="clipPath420"><path
         d="m 542.47,348.89 146.42,0 0,18.6 -146.42,0 0,-18.6 z"
         inkscape:connector-curvature="0"
         id="path422" /></clipPath><clipPath
       id="clipPath430"><path
         d="m 741.09,309.76 140.55,0 0,21.48 -140.55,0 0,-21.48 z"
         inkscape:connector-curvature="0"
         id="path432" /></clipPath><clipPath
       id="clipPath438"><path
         d="m 741.1,309.77 140.54,0 0,21.48 -140.54,0 0,-21.48 z"
         inkscape:connector-curvature="0"
         id="path440" /></clipPath><clipPath
       id="clipPath450"><path
         d="m 741.1,309.77 140.54,0 0,21.48 -140.54,0 0,-21.48 z"
         inkscape:connector-curvature="0"
         id="path452" /></clipPath><clipPath
       id="clipPath462"><path
         d="m 741.1,309.77 140.54,0 0,21.48 -140.54,0 0,-21.48 z"
         inkscape:connector-curvature="0"
         id="path464" /></clipPath><clipPath
       id="clipPath470"><path
         d="m 741.1,309.77 140.54,0 0,21.48 -140.54,0 0,-21.48 z"
         inkscape:connector-curvature="0"
         id="path472" /></clipPath><clipPath
       id="clipPath482"><path
         d="m 741.1,309.77 140.54,0 0,21.48 -140.54,0 0,-21.48 z"
         inkscape:connector-curvature="0"
         id="path484" /></clipPath><clipPath
       id="clipPath490"><path
         d="m 741.1,309.77 140.54,0 0,21.48 -140.54,0 0,-21.48 z"
         inkscape:connector-curvature="0"
         id="path492" /></clipPath><clipPath
       id="clipPath502"><path
         d="m 741.1,309.77 140.54,0 0,21.48 -140.54,0 0,-21.48 z"
         inkscape:connector-curvature="0"
         id="path504" /></clipPath><clipPath
       id="clipPath510"><path
         d="m 741.09,348.88 146.43,0 0,18.6 -146.43,0 0,-18.6 z"
         inkscape:connector-curvature="0"
         id="path512" /></clipPath><clipPath
       id="clipPath518"><path
         d="m 741.1,348.89 146.42,0 0,18.6 -146.42,0 0,-18.6 z"
         inkscape:connector-curvature="0"
         id="path520" /></clipPath><clipPath
       id="clipPath530"><path
         d="m 741.1,348.89 146.42,0 0,18.6 -146.42,0 0,-18.6 z"
         inkscape:connector-curvature="0"
         id="path532" /></clipPath><clipPath
       id="clipPath540"><path
         d="m 657.45,522.07 114.36,0 0,21.48 -114.36,0 0,-21.48 z"
         inkscape:connector-curvature="0"
         id="path542" /></clipPath><clipPath
       id="clipPath548"><path
         d="m 657.46,522.07 114.36,0 0,21.48 -114.36,0 0,-21.48 z"
         inkscape:connector-curvature="0"
         id="path550" /></clipPath><clipPath
       id="clipPath560"><path
         d="m 657.46,522.07 114.36,0 0,21.48 -114.36,0 0,-21.48 z"
         inkscape:connector-curvature="0"
         id="path562" /></clipPath><clipPath
       id="clipPath572"><path
         d="m 657.46,522.07 114.36,0 0,21.48 -114.36,0 0,-21.48 z"
         inkscape:connector-curvature="0"
         id="path574" /></clipPath><clipPath
       id="clipPath580"><path
         d="m 657.45,543.67 114.36,0 0,18.6 -114.36,0 0,-18.6 z"
         inkscape:connector-curvature="0"
         id="path582" /></clipPath><clipPath
       id="clipPath588"><path
         d="m 657.46,543.67 114.36,0 0,18.6 -114.36,0 0,-18.6 z"
         inkscape:connector-curvature="0"
         id="path590" /></clipPath><clipPath
       id="clipPath600"><path
         d="m 657.46,543.67 114.36,0 0,18.6 -114.36,0 0,-18.6 z"
         inkscape:connector-curvature="0"
         id="path602" /></clipPath><clipPath
       id="clipPath612"><path
         d="m 657.46,543.67 114.36,0 0,18.6 -114.36,0 0,-18.6 z"
         inkscape:connector-curvature="0"
         id="path614" /></clipPath><clipPath
       id="clipPath624"><path
         d="m 657.46,543.67 114.36,0 0,18.6 -114.36,0 0,-18.6 z"
         inkscape:connector-curvature="0"
         id="path626" /></clipPath></defs><g
     transform="matrix(1.25,0,0,-1.25,-507.59375,703.34375)"
     id="g10"><path
       d="m 406.3,485.5 104.55,0 0,21.55 -104.55,0 0,-21.55 z"
       inkscape:connector-curvature="0"
       id="path12"
       style="fill:#ffffff;fill-opacity:1;fill-rule:evenodd;stroke:none" /><g
       id="g14"><g
         clip-path="url(#clipPath18)"
         id="g16"><g
           id="g22"><g
             clip-path="url(#clipPath26)"
             id="g24"><text
   transform="matrix(1,0,0,-1,412.01,495.79)"
   id="text30"><tspan
     x="0 6.96 13.668 20.375999 27.084 31.08 37.751999 41.088001 43.751999 50.363998"
     y="0"
     id="tspan32"
     style="font-size:12px;font-variant:normal;font-weight:normal;writing-mode:lr-tb;fill:#000000;fill-opacity:1;fill-rule:nonzero;stroke:none;font-family:Helvetica;-inkscape-font-specification:Helvetica">+operation</tspan></text>

</g></g><g
           id="g34"><g
             clip-path="url(#clipPath38)"
             id="g36"><text
   transform="matrix(1,0,0,-1,469.15,495.79)"
   id="text42"><tspan
     x="0 3.96"
     y="0"
     id="tspan44"
     style="font-size:12px;font-variant:normal;font-weight:normal;writing-mode:lr-tb;fill:#000000;fill-opacity:1;fill-rule:nonzero;stroke:none;font-family:Helvetica;-inkscape-font-specification:Helvetica">()</tspan></text>

</g></g><g
           id="g46"><g
             clip-path="url(#clipPath50)"
             id="g48" /></g><g
           id="g54"><g
             clip-path="url(#clipPath58)"
             id="g56"><text
   transform="matrix(1,0,0,-1,480.43,495.79)"
   id="text62"><tspan
     x="0"
     y="0"
     id="tspan64"
     style="font-size:12px;font-variant:normal;font-weight:normal;writing-mode:lr-tb;fill:#000000;fill-opacity:1;fill-rule:nonzero;stroke:none;font-family:Helvetica;-inkscape-font-specification:Helvetica">:</tspan></text>

</g></g><g
           id="g66"><g
             clip-path="url(#clipPath70)"
             id="g68" /></g><g
           id="g74"><g
             clip-path="url(#clipPath78)"
             id="g76"><text
   transform="matrix(1,0,0,-1,487.15,495.79)"
   id="text82"><tspan
     x="0 5.8800001 12.588 15.252"
     y="0"
     id="tspan84"
     style="font-size:12px;font-variant:normal;font-weight:normal;writing-mode:lr-tb;fill:#000000;fill-opacity:1;fill-rule:nonzero;stroke:none;font-family:Helvetica;-inkscape-font-specification:Helvetica">void</tspan></text>

</g></g><g
           id="g86"><g
             clip-path="url(#clipPath90)"
             id="g88" /></g></g></g><path
       d="m 542.4,288 146.4,0 0,82.45 -146.4,0 0,-82.45 z"
       inkscape:connector-curvature="0"
       id="path94"
       style="fill:none;stroke:#000000;stroke-width:0.75;stroke-linecap:round;stroke-linejoin:miter;stroke-miterlimit:10;stroke-opacity:1;stroke-dasharray:none" /><path
       d="m 741.05,288 146.4,0 0,82.45 -146.4,0 0,-82.45 z"
       inkscape:connector-curvature="0"
       id="path96"
       style="fill:none;stroke:#000000;stroke-width:0.75;stroke-linecap:round;stroke-linejoin:miter;stroke-miterlimit:10;stroke-opacity:1;stroke-dasharray:none" /><path
       d="m 658.2,479.8 114.4,0 0,82.5 -114.4,0 0,-82.5 z"
       inkscape:connector-curvature="0"
       id="path98"
       style="fill:none;stroke:#000000;stroke-width:0.75;stroke-linecap:round;stroke-linejoin:miter;stroke-miterlimit:10;stroke-opacity:1;stroke-dasharray:none" /><path
       d="m 563.3,521.9 52.3,0 0,21.65 -52.3,0 0,-21.65 z"
       inkscape:connector-curvature="0"
       id="path100"
       style="fill:#ffffff;fill-opacity:1;fill-rule:evenodd;stroke:none" /><g
       id="g102"><g
         clip-path="url(#clipPath106)"
         id="g104"><g
           id="g110"><g
             clip-path="url(#clipPath114)"
             id="g112"><text
   transform="matrix(1,0,0,-1,563.35,532.39)"
   id="text118"><tspan
     x="0 6 9.3360004 13.332 20.004 23.388 30.096001 36.695999 39.360001"
     y="0"
     id="tspan120"
     style="font-size:12px;font-variant:normal;font-weight:normal;writing-mode:lr-tb;fill:#000000;fill-opacity:1;fill-rule:nonzero;stroke:none;font-family:Helvetica;-inkscape-font-specification:Helvetica">strategie</tspan></text>

</g></g><g
           id="g122"><g
             clip-path="url(#clipPath126)"
             id="g124" /></g></g></g><path
       d="m 741,478.65 -10.4,-21.55 20.8,0 -10.4,21.55 z"
       inkscape:connector-curvature="0"
       id="path130"
       style="fill:#ffffff;fill-opacity:1;fill-rule:evenodd;stroke:none" /><path
       d="m 741,478.65 -10.4,-21.55 20.8,0 -10.4,21.55 z"
       inkscape:connector-curvature="0"
       id="path132"
       style="fill:none;stroke:#000000;stroke-width:0.75;stroke-linecap:round;stroke-linejoin:round;stroke-miterlimit:10;stroke-opacity:1;stroke-dasharray:none" /><g
       id="g134"><g
         clip-path="url(#clipPath138)"
         id="g136"><g
           id="g142"><g
             clip-path="url(#clipPath146)"
             id="g144"><text
   transform="matrix(1,0,0,-1,660.94,495.79)"
   id="text150"><tspan
     x="0 6.96 13.668 16.332001 22.908001 29.615999 33.612 36.216 39.551998 46.284 56.352001 63.060001"
     y="0"
     id="tspan152"
     style="font-size:12px;font-variant:normal;font-weight:normal;writing-mode:lr-tb;fill:#000000;fill-opacity:1;fill-rule:nonzero;stroke:none;font-family:Helvetica;-inkscape-font-specification:Helvetica">+algorithmus</tspan></text>

</g></g><g
           id="g154"><g
             clip-path="url(#clipPath158)"
             id="g156"><text
   transform="matrix(1,0,0,-1,730.06,495.79)"
   id="text162"><tspan
     x="0 3.96"
     y="0"
     id="tspan164"
     style="font-size:12px;font-variant:normal;font-weight:normal;writing-mode:lr-tb;fill:#000000;fill-opacity:1;fill-rule:nonzero;stroke:none;font-family:Helvetica;-inkscape-font-specification:Helvetica">()</tspan></text>

</g></g><g
           id="g166"><g
             clip-path="url(#clipPath170)"
             id="g168" /></g><g
           id="g174"><g
             clip-path="url(#clipPath178)"
             id="g176"><text
   transform="matrix(1,0,0,-1,741.34,495.79)"
   id="text182"><tspan
     x="0"
     y="0"
     id="tspan184"
     style="font-size:12px;font-variant:normal;font-weight:normal;writing-mode:lr-tb;fill:#000000;fill-opacity:1;fill-rule:nonzero;stroke:none;font-family:Helvetica;-inkscape-font-specification:Helvetica">:</tspan></text>

</g></g><g
           id="g186"><g
             clip-path="url(#clipPath190)"
             id="g188" /></g><g
           id="g194"><g
             clip-path="url(#clipPath198)"
             id="g196"><text
   transform="matrix(1,0,0,-1,748.06,495.79)"
   id="text202"><tspan
     x="0 5.8800001 12.588 15.252"
     y="0"
     id="tspan204"
     style="font-size:12px;font-variant:normal;font-weight:normal;writing-mode:lr-tb;fill:#000000;fill-opacity:1;fill-rule:nonzero;stroke:none;font-family:Helvetica;-inkscape-font-specification:Helvetica">void</tspan></text>

</g></g><g
           id="g206"><g
             clip-path="url(#clipPath210)"
             id="g208" /></g></g></g><path
       d="m 406.45,412.55 0,44.45 146.39,0 20.91,-5.56 0,-38.89 -167.3,0 z"
       inkscape:connector-curvature="0"
       id="path214"
       style="fill:#ffffff;fill-opacity:1;fill-rule:evenodd;stroke:none" /><path
       d="m 552.84,457 5.41,-5.37 c 2.09,0.86 7.66,0.86 15.5,-0.19"
       inkscape:connector-curvature="0"
       id="path216"
       style="fill:#cdcdcd;fill-opacity:1;fill-rule:evenodd;stroke:none" /><path
       d="m 406.45,412.55 0,44.45 146.39,0 20.91,-5.56 0,-38.89 -167.3,0 z"
       inkscape:connector-curvature="0"
       id="path218"
       style="fill:none;stroke:#000000;stroke-width:0.75;stroke-linecap:round;stroke-linejoin:round;stroke-miterlimit:10;stroke-opacity:1;stroke-dasharray:none" /><path
       d="m 552.84,457 5.41,-5.37 c 2.09,0.86 7.66,0.86 15.5,-0.19"
       inkscape:connector-curvature="0"
       id="path220"
       style="fill:none;stroke:#000000;stroke-width:0.75;stroke-linecap:round;stroke-linejoin:round;stroke-miterlimit:10;stroke-opacity:1;stroke-dasharray:none" /><g
       id="g222"><g
         clip-path="url(#clipPath226)"
         id="g224"><g
           id="g230"><g
             clip-path="url(#clipPath234)"
             id="g232"><text
   transform="matrix(1,0,0,-1,412.37,441.07)"
   id="text238"><tspan
     x="0 3.9960001 10.668 14.004 17.388 20.724001 27.455999 34.056 37.391998"
     y="0"
     id="tspan240"
     style="font-size:12px;font-variant:normal;font-weight:normal;writing-mode:lr-tb;fill:#000000;fill-opacity:1;fill-rule:nonzero;stroke:none;font-family:Helvetica;-inkscape-font-specification:Helvetica">ruft auf:</tspan></text>

</g></g><g
           id="g242"><g
             clip-path="url(#clipPath246)"
             id="g244" /></g><g
           id="g250"><g
             clip-path="url(#clipPath254)"
             id="g252"><text
   transform="matrix(1,0,0,-1,412.37,427.97)"
   id="text258"><tspan
     x="0 7.1999998 14.4 21.6 28.799999 36 43.200001 50.400002 57.599998 64.800003 72 79.199997 86.400002 93.599998 100.8 108 115.2 122.4 129.60001 136.8 144"
     y="0"
     id="tspan260"
     style="font-size:12px;font-variant:normal;font-weight:normal;writing-mode:lr-tb;fill:#000000;fill-opacity:1;fill-rule:nonzero;stroke:none;font-family:Courier New;-inkscape-font-specification:Courier New">strategie.algorithmus</tspan></text>

</g></g><g
           id="g262"><g
             clip-path="url(#clipPath266)"
             id="g264"><text
   transform="matrix(1,0,0,-1,412.37,414.41)"
   id="text270"><tspan
     x="0 7.1999998"
     y="0"
     id="tspan272"
     style="font-size:12px;font-variant:normal;font-weight:normal;writing-mode:lr-tb;fill:#000000;fill-opacity:1;fill-rule:nonzero;stroke:none;font-family:Courier New;-inkscape-font-specification:Courier New">()</tspan></text>

</g></g><g
           id="g274"><g
             clip-path="url(#clipPath278)"
             id="g276" /></g></g></g><g
       id="g282"><path
         d="M 688.85,457 688.8,413.75"
         inkscape:connector-curvature="0"
         id="path284"
         style="fill:none;stroke:#000000;stroke-width:0.75;stroke-linecap:round;stroke-linejoin:round;stroke-miterlimit:10;stroke-opacity:1;stroke-dasharray:5.25, 3;stroke-dashoffset:0" /></g><g
       id="g286"><g
         clip-path="url(#clipPath290)"
         id="g288"><g
           id="g294"><g
             clip-path="url(#clipPath298)"
             id="g296"><text
   transform="matrix(1,0,0,-1,436.25,546.55)"
   id="text302"><tspan
     x="0 8.6639996 15.996 23.280001 27.275999 33.948002 40.667999"
     y="0"
     id="tspan304"
     style="font-size:12px;font-variant:normal;font-weight:bold;writing-mode:lr-tb;fill:#000000;fill-opacity:1;fill-rule:nonzero;stroke:none;font-family:Helvetica;-inkscape-font-specification:Helvetica-Bold">Kontext</tspan></text>

</g></g><g
           id="g306"><g
             clip-path="url(#clipPath310)"
             id="g308" /></g></g></g><path
       d="m 407.2,531.65 104.4,0"
       inkscape:connector-curvature="0"
       id="path314"
       style="fill:none;stroke:#000000;stroke-width:0.75;stroke-linecap:round;stroke-linejoin:round;stroke-miterlimit:10;stroke-opacity:1;stroke-dasharray:none" /><g
       id="g316"><g
         clip-path="url(#clipPath320)"
         id="g318"><g
           id="g324"><g
             clip-path="url(#clipPath328)"
             id="g326"><text
   transform="matrix(1,0,0,-1,548.11,320.21)"
   id="text332"><tspan
     x="0 6.96 13.668 16.332001 22.908001 29.615999 33.612 36.216 39.551998 46.284 56.352001 63.060001"
     y="0"
     id="tspan334"
     style="font-size:12px;font-variant:normal;font-weight:normal;writing-mode:lr-tb;fill:#000000;fill-opacity:1;fill-rule:nonzero;stroke:none;font-family:Helvetica;-inkscape-font-specification:Helvetica">+algorithmus</tspan></text>

</g></g><g
           id="g336"><g
             clip-path="url(#clipPath340)"
             id="g338"><text
   transform="matrix(1,0,0,-1,617.23,320.21)"
   id="text344"><tspan
     x="0 3.96"
     y="0"
     id="tspan346"
     style="font-size:12px;font-variant:normal;font-weight:normal;writing-mode:lr-tb;fill:#000000;fill-opacity:1;fill-rule:nonzero;stroke:none;font-family:Helvetica;-inkscape-font-specification:Helvetica">()</tspan></text>

</g></g><g
           id="g348"><g
             clip-path="url(#clipPath352)"
             id="g350" /></g><g
           id="g356"><g
             clip-path="url(#clipPath360)"
             id="g358"><text
   transform="matrix(1,0,0,-1,628.51,320.21)"
   id="text364"><tspan
     x="0"
     y="0"
     id="tspan366"
     style="font-size:12px;font-variant:normal;font-weight:normal;writing-mode:lr-tb;fill:#000000;fill-opacity:1;fill-rule:nonzero;stroke:none;font-family:Helvetica;-inkscape-font-specification:Helvetica">:</tspan></text>

</g></g><g
           id="g368"><g
             clip-path="url(#clipPath372)"
             id="g370" /></g><g
           id="g376"><g
             clip-path="url(#clipPath380)"
             id="g378"><text
   transform="matrix(1,0,0,-1,635.23,320.21)"
   id="text384"><tspan
     x="0 5.8800001 12.588 15.252"
     y="0"
     id="tspan386"
     style="font-size:12px;font-variant:normal;font-weight:normal;writing-mode:lr-tb;fill:#000000;fill-opacity:1;fill-rule:nonzero;stroke:none;font-family:Helvetica;-inkscape-font-specification:Helvetica">void</tspan></text>

</g></g><g
           id="g388"><g
             clip-path="url(#clipPath392)"
             id="g390" /></g></g></g><g
       id="g396"><g
         clip-path="url(#clipPath400)"
         id="g398"><g
           id="g404"><g
             clip-path="url(#clipPath408)"
             id="g406"><text
   transform="matrix(1,0,0,-1,559.63,355.97)"
   id="text412"><tspan
     x="0 8.6639996 15.996 23.280001 29.988001 34.655998 41.375999 45.372002 52.043999 60.084 64.080002 68.748001 75.419998 79.416 86.112 93.444 96.671997 103.5"
     y="0"
     id="tspan414"
     style="font-size:12px;font-variant:normal;font-weight:bold;writing-mode:lr-tb;fill:#000000;fill-opacity:1;fill-rule:nonzero;stroke:none;font-family:Helvetica;-inkscape-font-specification:Helvetica-Bold">KonkreteStrategieA</tspan></text>

</g></g><g
           id="g416"><g
             clip-path="url(#clipPath420)"
             id="g418" /></g></g></g><path
       d="m 542.4,338 146.4,-0.05"
       inkscape:connector-curvature="0"
       id="path424"
       style="fill:none;stroke:#000000;stroke-width:0.75;stroke-linecap:round;stroke-linejoin:round;stroke-miterlimit:10;stroke-opacity:1;stroke-dasharray:none" /><g
       id="g426"><g
         clip-path="url(#clipPath430)"
         id="g428"><g
           id="g434"><g
             clip-path="url(#clipPath438)"
             id="g436"><text
   transform="matrix(1,0,0,-1,746.74,320.21)"
   id="text442"><tspan
     x="0 6.96 13.668 16.332001 22.908001 29.615999 33.612 36.216 39.551998 46.284 56.352001 63.060001"
     y="0"
     id="tspan444"
     style="font-size:12px;font-variant:normal;font-weight:normal;writing-mode:lr-tb;fill:#000000;fill-opacity:1;fill-rule:nonzero;stroke:none;font-family:Helvetica;-inkscape-font-specification:Helvetica">+algorithmus</tspan></text>

</g></g><g
           id="g446"><g
             clip-path="url(#clipPath450)"
             id="g448"><text
   transform="matrix(1,0,0,-1,815.86,320.21)"
   id="text454"><tspan
     x="0 3.96"
     y="0"
     id="tspan456"
     style="font-size:12px;font-variant:normal;font-weight:normal;writing-mode:lr-tb;fill:#000000;fill-opacity:1;fill-rule:nonzero;stroke:none;font-family:Helvetica;-inkscape-font-specification:Helvetica">()</tspan></text>

</g></g><g
           id="g458"><g
             clip-path="url(#clipPath462)"
             id="g460" /></g><g
           id="g466"><g
             clip-path="url(#clipPath470)"
             id="g468"><text
   transform="matrix(1,0,0,-1,827.14,320.21)"
   id="text474"><tspan
     x="0"
     y="0"
     id="tspan476"
     style="font-size:12px;font-variant:normal;font-weight:normal;writing-mode:lr-tb;fill:#000000;fill-opacity:1;fill-rule:nonzero;stroke:none;font-family:Helvetica;-inkscape-font-specification:Helvetica">:</tspan></text>

</g></g><g
           id="g478"><g
             clip-path="url(#clipPath482)"
             id="g480" /></g><g
           id="g486"><g
             clip-path="url(#clipPath490)"
             id="g488"><text
   transform="matrix(1,0,0,-1,833.86,320.21)"
   id="text494"><tspan
     x="0 5.8800001 12.588 15.252"
     y="0"
     id="tspan496"
     style="font-size:12px;font-variant:normal;font-weight:normal;writing-mode:lr-tb;fill:#000000;fill-opacity:1;fill-rule:nonzero;stroke:none;font-family:Helvetica;-inkscape-font-specification:Helvetica">void</tspan></text>

</g></g><g
           id="g498"><g
             clip-path="url(#clipPath502)"
             id="g500" /></g></g></g><g
       id="g506"><g
         clip-path="url(#clipPath510)"
         id="g508"><g
           id="g514"><g
             clip-path="url(#clipPath518)"
             id="g516"><text
   transform="matrix(1,0,0,-1,758.26,355.97)"
   id="text522"><tspan
     x="0 8.6639996 15.996 23.280001 29.988001 34.655998 41.375999 45.372002 52.043999 60.084 64.080002 68.748001 75.419998 79.416 86.112 93.444 96.671997 103.38"
     y="0"
     id="tspan524"
     style="font-size:12px;font-variant:normal;font-weight:bold;writing-mode:lr-tb;fill:#000000;fill-opacity:1;fill-rule:nonzero;stroke:none;font-family:Helvetica;-inkscape-font-specification:Helvetica-Bold">KonkreteStrategieB</tspan></text>

</g></g><g
           id="g526"><g
             clip-path="url(#clipPath530)"
             id="g528" /></g></g></g><path
       d="m 741.05,338 146.4,-0.05"
       inkscape:connector-curvature="0"
       id="path534"
       style="fill:none;stroke:#000000;stroke-width:0.75;stroke-linecap:round;stroke-linejoin:round;stroke-miterlimit:10;stroke-opacity:1;stroke-dasharray:none" /><g
       id="g536"><g
         clip-path="url(#clipPath540)"
         id="g538"><g
           id="g544"><g
             clip-path="url(#clipPath548)"
             id="g546"><text
   transform="matrix(1,0,0,-1,687.22,532.15)"
   id="text552"><tspan
     x="0"
     y="0"
     id="tspan554"
     style="font-size:12px;font-variant:normal;font-weight:bold;writing-mode:lr-tb;fill:#000000;fill-opacity:1;fill-rule:nonzero;stroke:none;font-family:Helvetica;-inkscape-font-specification:Helvetica-Bold">I</tspan></text>

</g></g><g
           id="g556"><g
             clip-path="url(#clipPath560)"
             id="g558"><text
   transform="matrix(1,0,0,-1,690.58,532.15)"
   id="text564"><tspan
     x="0 8.0279999 12.024 16.691999 23.364 27.360001 34.056 41.388 44.723999"
     y="0"
     id="tspan566"
     style="font-size:12px;font-variant:normal;font-weight:bold;writing-mode:lr-tb;fill:#000000;fill-opacity:1;fill-rule:nonzero;stroke:none;font-family:Helvetica;-inkscape-font-specification:Helvetica-Bold">Strategie</tspan></text>

</g></g><g
           id="g568"><g
             clip-path="url(#clipPath572)"
             id="g570" /></g></g></g><g
       id="g576"><g
         clip-path="url(#clipPath580)"
         id="g578"><g
           id="g584"><g
             clip-path="url(#clipPath588)"
             id="g586"><text
   transform="matrix(1,0,0,-1,674.98,552.67)"
   id="text592"><tspan
     x="0"
     y="0"
     id="tspan594"
     style="font-size:12px;font-variant:normal;font-weight:normal;writing-mode:lr-tb;fill:#000000;fill-opacity:1;fill-rule:nonzero;stroke:none;font-family:Courier New;-inkscape-font-specification:Courier New">«</tspan></text>

</g></g><g
           id="g596"><g
             clip-path="url(#clipPath600)"
             id="g598"><text
   transform="matrix(1,0,0,-1,682.18,552.67)"
   id="text604"><tspan
     x="0 7.1999998 14.4 21.6 28.799999 36 43.200001 50.400002 57.599998"
     y="0"
     id="tspan606"
     style="font-size:12px;font-variant:normal;font-weight:normal;writing-mode:lr-tb;fill:#000000;fill-opacity:1;fill-rule:nonzero;stroke:none;font-family:Courier New;-inkscape-font-specification:Courier New">interface</tspan></text>

</g></g><g
           id="g608"><g
             clip-path="url(#clipPath612)"
             id="g610"><text
   transform="matrix(1,0,0,-1,746.98,552.67)"
   id="text616"><tspan
     x="0"
     y="0"
     id="tspan618"
     style="font-size:12px;font-variant:normal;font-weight:normal;writing-mode:lr-tb;fill:#000000;fill-opacity:1;fill-rule:nonzero;stroke:none;font-family:Courier New;-inkscape-font-specification:Courier New">»</tspan></text>

</g></g><g
           id="g620"><g
             clip-path="url(#clipPath624)"
             id="g622" /></g></g></g><path
       d="m 658.15,524 114.4,-0.05"
       inkscape:connector-curvature="0"
       id="path628"
       style="fill:none;stroke:#000000;stroke-width:0.75;stroke-linecap:round;stroke-linejoin:round;stroke-miterlimit:10;stroke-opacity:1;stroke-dasharray:none" /><path
       d="m 688.7,478.65 -10.4,-21.55 20.8,0 -10.4,21.55 z"
       inkscape:connector-curvature="0"
       id="path630"
       style="fill:#ffffff;fill-opacity:1;fill-rule:evenodd;stroke:none" /><path
       d="m 688.7,478.65 -10.4,-21.55 20.8,0 -10.4,21.55 z"
       inkscape:connector-curvature="0"
       id="path632"
       style="fill:none;stroke:#000000;stroke-width:0.75;stroke-linecap:round;stroke-linejoin:round;stroke-miterlimit:10;stroke-opacity:1;stroke-dasharray:none" /><g
       id="g634"><path
         d="m 741.1,457 -0.05,-43.25"
         inkscape:connector-curvature="0"
         id="path636"
         style="fill:none;stroke:#000000;stroke-width:0.75;stroke-linecap:round;stroke-linejoin:round;stroke-miterlimit:10;stroke-opacity:1;stroke-dasharray:5.25, 3;stroke-dashoffset:0" /></g><g
       id="g638"><path
         d="m 615.65,413.75 -0.05,-43.3"
         inkscape:connector-curvature="0"
         id="path640"
         style="fill:none;stroke:#000000;stroke-width:0.75;stroke-linecap:round;stroke-linejoin:round;stroke-miterlimit:10;stroke-opacity:1;stroke-dasharray:5.25, 3;stroke-dashoffset:0" /></g><g
       id="g642"><path
         d="m 814.3,413.75 -0.05,-43.3"
         inkscape:connector-curvature="0"
         id="path644"
         style="fill:none;stroke:#000000;stroke-width:0.75;stroke-linecap:round;stroke-linejoin:round;stroke-miterlimit:10;stroke-opacity:1;stroke-dasharray:5.25, 3;stroke-dashoffset:0" /></g><g
       id="g646"><path
         d="m 814.25,413.75 -73.2,-0.1"
         inkscape:connector-curvature="0"
         id="path648"
         style="fill:none;stroke:#000000;stroke-width:0.75;stroke-linecap:round;stroke-linejoin:round;stroke-miterlimit:10;stroke-opacity:1;stroke-dasharray:5.25, 3;stroke-dashoffset:0" /></g><g
       id="g650"><path
         d="m 615.6,413.75 73.2,-0.1"
         inkscape:connector-curvature="0"
         id="path652"
         style="fill:none;stroke:#000000;stroke-width:0.75;stroke-linecap:round;stroke-linejoin:round;stroke-miterlimit:10;stroke-opacity:1;stroke-dasharray:5.25, 3;stroke-dashoffset:0" /></g><g
       id="g654"><path
         d="m 458.75,478.65 0,-21.65"
         inkscape:connector-curvature="0"
         id="path656"
         style="fill:none;stroke:#000000;stroke-width:0.75;stroke-linecap:round;stroke-linejoin:round;stroke-miterlimit:10;stroke-opacity:1;stroke-dasharray:5.25, 3;stroke-dashoffset:0" /></g><path
       d="m 527.45,530.8 -15.7,-8.5 15.7,-8.5 15.7,8.5 -15.7,8.5 z"
       inkscape:connector-curvature="0"
       id="path658"
       style="fill:#ffffff;fill-opacity:1;fill-rule:evenodd;stroke:none" /><path
       d="m 527.45,530.8 -15.7,-8.5 15.7,-8.5 15.7,8.5 -15.7,8.5 z"
       inkscape:connector-curvature="0"
       id="path660"
       style="fill:none;stroke:#000000;stroke-width:0.75;stroke-linecap:round;stroke-linejoin:round;stroke-miterlimit:10;stroke-opacity:1;stroke-dasharray:none" /><path
       d="m 542.4,522.3 115.8,0"
       inkscape:connector-curvature="0"
       id="path662"
       style="fill:none;stroke:#000000;stroke-width:0.75;stroke-linecap:round;stroke-linejoin:round;stroke-miterlimit:10;stroke-opacity:1;stroke-dasharray:none" /><path
       d="m 407.2,479.85 104.4,0 0,82.45 -104.4,0 0,-82.45 z"
       inkscape:connector-curvature="0"
       id="path664"
       style="fill:none;stroke:#000000;stroke-width:0.75;stroke-linecap:round;stroke-linejoin:miter;stroke-miterlimit:8;stroke-opacity:1;stroke-dasharray:none" /></g></svg>