<?xml version="1.0" encoding="UTF-8" standalone="no"?>
<!-- Created with Inkscape (http://www.inkscape.org/) -->

<svg
   xmlns:dc="http://purl.org/dc/elements/1.1/"
   xmlns:cc="http://creativecommons.org/ns#"
   xmlns:rdf="http://www.w3.org/1999/02/22-rdf-syntax-ns#"
   xmlns:svg="http://www.w3.org/2000/svg"
   xmlns="http://www.w3.org/2000/svg"
   xmlns:sodipodi="http://sodipodi.sourceforge.net/DTD/sodipodi-0.dtd"
   xmlns:inkscape="http://www.inkscape.org/namespaces/inkscape"
   version="1.1"
   width="469.6875"
   height="343.875"
   id="svg2"
   xml:space="preserve"
   inkscape:version="0.48.4 r9939"
   sodipodi:docname="Bild 4-31 Abhängigkeit eines Beobachters vom beobachtbaren Objekt.svg"><sodipodi:namedview
     pagecolor="#ffffff"
     bordercolor="#666666"
     borderopacity="1"
     objecttolerance="10"
     gridtolerance="10"
     guidetolerance="10"
     inkscape:pageopacity="0"
     inkscape:pageshadow="2"
     inkscape:window-width="640"
     inkscape:window-height="480"
     id="namedview124"
     showgrid="false"
     inkscape:zoom="0.18730159"
     inkscape:cx="514.59375"
     inkscape:cy="268.40625"
     inkscape:window-x="0"
     inkscape:window-y="0"
     inkscape:window-maximized="0"
     inkscape:current-layer="svg2" /><metadata
     id="metadata8"><rdf:RDF><cc:Work
         rdf:about=""><dc:format>image/svg+xml</dc:format><dc:type
           rdf:resource="http://purl.org/dc/dcmitype/StillImage" /></cc:Work></rdf:RDF></metadata><defs
     id="defs6"><clipPath
       id="clipPath20"><path
         d="m 93.391,480.19 136.44,0 0,78.96 -136.44,0 0,-78.96 z"
         inkscape:connector-curvature="0"
         id="path22" /></clipPath><clipPath
       id="clipPath28"><path
         d="m 93.384,480.19 136.44,0 0,78.96 -136.44,0 0,-78.96 z"
         inkscape:connector-curvature="0"
         id="path30" /></clipPath><clipPath
       id="clipPath40"><path
         d="m 93.384,480.19 136.44,0 0,78.96 -136.44,0 0,-78.96 z"
         inkscape:connector-curvature="0"
         id="path42" /></clipPath><clipPath
       id="clipPath52"><path
         d="m 93.384,480.19 136.44,0 0,78.96 -136.44,0 0,-78.96 z"
         inkscape:connector-curvature="0"
         id="path54" /></clipPath><clipPath
       id="clipPath64"><path
         d="m 207.39,293.56 136.46,0 0,78.96 -136.46,0 0,-78.96 z"
         inkscape:connector-curvature="0"
         id="path66" /></clipPath><clipPath
       id="clipPath72"><path
         d="m 207.38,293.57 136.46,0 0,78.96 -136.46,0 0,-78.96 z"
         inkscape:connector-curvature="0"
         id="path74" /></clipPath><clipPath
       id="clipPath84"><path
         d="m 207.38,293.57 136.46,0 0,78.96 -136.46,0 0,-78.96 z"
         inkscape:connector-curvature="0"
         id="path86" /></clipPath><clipPath
       id="clipPath96"><path
         d="m 331.25,480.91 136.47,0 0,79.08 -136.47,0 0,-79.08 z"
         inkscape:connector-curvature="0"
         id="path98" /></clipPath><clipPath
       id="clipPath104"><path
         d="m 331.25,480.91 136.46,0 0,79.08 -136.46,0 0,-79.08 z"
         inkscape:connector-curvature="0"
         id="path106" /></clipPath><clipPath
       id="clipPath116"><path
         d="m 331.25,480.91 136.46,0 0,79.08 -136.46,0 0,-79.08 z"
         inkscape:connector-curvature="0"
         id="path118" /></clipPath><clipPath
       id="clipPath128"><path
         d="m 331.25,480.91 136.46,0 0,79.08 -136.46,0 0,-79.08 z"
         inkscape:connector-curvature="0"
         id="path130" /></clipPath><clipPath
       id="clipPath140"><path
         d="m 339.05,423.52 68.04,0 0,19.83 -68.04,0 0,-19.83 z"
         inkscape:connector-curvature="0"
         id="path142" /></clipPath><clipPath
       id="clipPath148"><path
         d="m 339.05,423.53 68.04,0 0,19.824 -68.04,0 0,-19.824 z"
         inkscape:connector-curvature="0"
         id="path150" /></clipPath><clipPath
       id="clipPath160"><path
         d="m 339.05,423.53 68.04,0 0,19.824 -68.04,0 0,-19.824 z"
         inkscape:connector-curvature="0"
         id="path162" /></clipPath><clipPath
       id="clipPath172"><path
         d="m 339.05,423.53 68.04,0 0,19.824 -68.04,0 0,-19.824 z"
         inkscape:connector-curvature="0"
         id="path174" /></clipPath><clipPath
       id="clipPath184"><path
         d="m 339.05,423.53 68.04,0 0,19.824 -68.04,0 0,-19.824 z"
         inkscape:connector-curvature="0"
         id="path186" /></clipPath><clipPath
       id="clipPath192"><path
         d="m 207.27,423.52 67.08,0 0,19.83 -67.08,0 0,-19.83 z"
         inkscape:connector-curvature="0"
         id="path194" /></clipPath><clipPath
       id="clipPath200"><path
         d="m 207.26,423.53 67.08,0 0,19.824 -67.08,0 0,-19.824 z"
         inkscape:connector-curvature="0"
         id="path202" /></clipPath><clipPath
       id="clipPath212"><path
         d="m 207.26,423.53 67.08,0 0,19.824 -67.08,0 0,-19.824 z"
         inkscape:connector-curvature="0"
         id="path214" /></clipPath><clipPath
       id="clipPath224"><path
         d="m 207.26,423.53 67.08,0 0,19.824 -67.08,0 0,-19.824 z"
         inkscape:connector-curvature="0"
         id="path226" /></clipPath><clipPath
       id="clipPath236"><path
         d="m 207.26,423.53 67.08,0 0,19.824 -67.08,0 0,-19.824 z"
         inkscape:connector-curvature="0"
         id="path238" /></clipPath><clipPath
       id="clipPath244"><path
         d="m 207.26,423.53 67.08,0 0,19.824 -67.08,0 0,-19.824 z"
         inkscape:connector-curvature="0"
         id="path246" /></clipPath></defs><g
     transform="matrix(1.25,0,0,-1.25,-115.78125,705.46875)"
     id="g10"><path
       d="m 93,476.25 137.25,0 0,87 -137.25,0 0,-87 z"
       inkscape:connector-curvature="0"
       id="path12"
       style="fill:#ffffff;fill-opacity:1;fill-rule:evenodd;stroke:none" /><path
       d="m 93,476.25 137.25,0 0,87 -137.25,0 0,-87 z"
       inkscape:connector-curvature="0"
       id="path14"
       style="fill:none;stroke:#000000;stroke-width:0.75;stroke-linecap:round;stroke-linejoin:miter;stroke-miterlimit:10;stroke-opacity:1;stroke-dasharray:none" /><g
       id="g16"><g
         clip-path="url(#clipPath20)"
         id="g18"><g
           id="g24"><g
             clip-path="url(#clipPath28)"
             id="g26"><text
   transform="matrix(1,0,0,-1,100.58,542.35)"
   id="text32"><tspan
     x="0"
     y="0"
     id="tspan34"
     style="font-size:18px;font-variant:normal;font-weight:normal;writing-mode:lr-tb;fill:#000000;fill-opacity:1;fill-rule:nonzero;stroke:none;font-family:Helvetica;-inkscape-font-specification:Helvetica">:</tspan></text>

</g></g><g
           id="g36"><g
             clip-path="url(#clipPath40)"
             id="g38"><text
   transform="matrix(1,0,0,-1,105.62,542.35)"
   id="text44"><tspan
     x="0 12.006 21.959999 31.968 41.886002 51.894001 60.948002 70.956001 75.959999 85.914001"
     y="0"
     id="tspan46"
     style="font-size:18px;font-variant:normal;font-weight:normal;writing-mode:lr-tb;fill:#000000;fill-opacity:1;fill-rule:nonzero;stroke:none;font-family:Helvetica;-inkscape-font-specification:Helvetica">Beobachter</tspan></text>

</g></g><g
           id="g48"><g
             clip-path="url(#clipPath52)"
             id="g50" /></g></g></g><path
       d="m 207,289.65 137.25,0 0,87 -137.25,0 0,-87 z"
       inkscape:connector-curvature="0"
       id="path56"
       style="fill:#ffffff;fill-opacity:1;fill-rule:evenodd;stroke:none" /><path
       d="m 207,289.65 137.25,0 0,87 -137.25,0 0,-87 z"
       inkscape:connector-curvature="0"
       id="path58"
       style="fill:none;stroke:#000000;stroke-width:0.75;stroke-linecap:round;stroke-linejoin:miter;stroke-miterlimit:10;stroke-opacity:1;stroke-dasharray:none" /><g
       id="g60"><g
         clip-path="url(#clipPath64)"
         id="g62"><g
           id="g68"><g
             clip-path="url(#clipPath72)"
             id="g70"><text
   transform="matrix(1,0,0,-1,214.58,355.73)"
   id="text76"><tspan
     x="0 5.0040002 17.01 27.018 36.953999 46.962002 56.880001 65.987999 75.996002 81 90.954002 100.962"
     y="0"
     id="tspan78"
     style="font-size:18px;font-variant:normal;font-weight:normal;writing-mode:lr-tb;fill:#000000;fill-opacity:1;fill-rule:nonzero;stroke:none;font-family:Helvetica;-inkscape-font-specification:Helvetica">:Beobachtbar</tspan></text>

</g></g><g
           id="g80"><g
             clip-path="url(#clipPath84)"
             id="g82" /></g></g></g><path
       d="m 330.75,477 137.25,0 0,87 -137.25,0 0,-87 z"
       inkscape:connector-curvature="0"
       id="path88"
       style="fill:#ffffff;fill-opacity:1;fill-rule:evenodd;stroke:none" /><path
       d="m 330.75,477 137.25,0 0,87 -137.25,0 0,-87 z"
       inkscape:connector-curvature="0"
       id="path90"
       style="fill:none;stroke:#000000;stroke-width:0.75;stroke-linecap:round;stroke-linejoin:miter;stroke-miterlimit:10;stroke-opacity:1;stroke-dasharray:none" /><g
       id="g92"><g
         clip-path="url(#clipPath96)"
         id="g94"><g
           id="g100"><g
             clip-path="url(#clipPath104)"
             id="g102"><text
   transform="matrix(1,0,0,-1,338.45,543.31)"
   id="text108"><tspan
     x="0"
     y="0"
     id="tspan110"
     style="font-size:18px;font-variant:normal;font-weight:normal;writing-mode:lr-tb;fill:#000000;fill-opacity:1;fill-rule:nonzero;stroke:none;font-family:Helvetica;-inkscape-font-specification:Helvetica">:</tspan></text>

</g></g><g
           id="g112"><g
             clip-path="url(#clipPath116)"
             id="g114"><text
   transform="matrix(1,0,0,-1,343.49,543.31)"
   id="text120"><tspan
     x="0 12.006 21.959999 31.968 41.886002 51.894001 60.948002 70.956001 75.959999 85.914001"
     y="0"
     id="tspan122"
     style="font-size:18px;font-variant:normal;font-weight:normal;writing-mode:lr-tb;fill:#000000;fill-opacity:1;fill-rule:nonzero;stroke:none;font-family:Helvetica;-inkscape-font-specification:Helvetica">Beobachter</tspan></text>

</g></g><g
           id="g124"><g
             clip-path="url(#clipPath128)"
             id="g126" /></g></g></g><path
       d="m 180.39,475.96 4.31,-5.52 c 0.17,-0.22 0.13,-0.53 -0.09,-0.7 -0.21,-0.17 -0.53,-0.13 -0.7,0.08 l -4.3,5.52 c -0.17,0.22 -0.14,0.53 0.08,0.7 0.22,0.17 0.53,0.14 0.7,-0.08 z m 6.77,-8.67 4.31,-5.52 c 0.17,-0.22 0.13,-0.54 -0.09,-0.7 -0.22,-0.17 -0.53,-0.14 -0.7,0.08 l -4.31,5.52 c -0.17,0.22 -0.13,0.53 0.09,0.7 0.22,0.17 0.53,0.13 0.7,-0.08 z m 6.77,-8.68 4.3,-5.52 c 0.17,-0.21 0.14,-0.53 -0.08,-0.7 -0.22,-0.17 -0.53,-0.13 -0.7,0.09 l -4.31,5.52 c -0.17,0.22 -0.13,0.53 0.09,0.7 0.21,0.17 0.53,0.13 0.7,-0.09 z m 6.77,-8.67 4.3,-5.52 c 0.17,-0.22 0.13,-0.53 -0.09,-0.7 -0.21,-0.17 -0.53,-0.13 -0.7,0.09 l -4.3,5.52 c -0.17,0.21 -0.13,0.53 0.08,0.7 0.22,0.17 0.54,0.13 0.71,-0.09 z m 6.76,-8.67 4.31,-5.52 c 0.17,-0.22 0.13,-0.53 -0.09,-0.7 -0.22,-0.17 -0.53,-0.13 -0.7,0.09 l -4.31,5.51 c -0.17,0.22 -0.13,0.54 0.09,0.71 0.22,0.17 0.53,0.13 0.7,-0.09 z m 6.77,-8.67 4.31,-5.52 c 0.17,-0.22 0.13,-0.53 -0.09,-0.7 -0.22,-0.17 -0.53,-0.13 -0.7,0.08 l -4.31,5.52 c -0.17,0.22 -0.13,0.53 0.09,0.7 0.21,0.17 0.53,0.13 0.7,-0.08 z m 6.77,-8.68 4.3,-5.51 c 0.17,-0.22 0.13,-0.54 -0.08,-0.71 -0.22,-0.17 -0.54,-0.13 -0.71,0.09 l -4.3,5.52 c -0.17,0.22 -0.13,0.53 0.08,0.7 0.22,0.17 0.54,0.13 0.71,-0.09 z m 6.76,-8.67 4.31,-5.52 c 0.17,-0.21 0.13,-0.53 -0.09,-0.7 -0.22,-0.17 -0.53,-0.13 -0.7,0.09 l -4.31,5.52 c -0.17,0.21 -0.13,0.53 0.09,0.7 0.22,0.17 0.53,0.13 0.7,-0.09 z m 6.77,-8.67 4.31,-5.52 c 0.17,-0.22 0.13,-0.53 -0.09,-0.7 -0.22,-0.17 -0.53,-0.13 -0.7,0.09 l -4.31,5.51 c -0.17,0.22 -0.13,0.54 0.09,0.71 0.22,0.17 0.53,0.13 0.7,-0.09 z m 6.77,-8.67 4.3,-5.52 c 0.17,-0.22 0.13,-0.53 -0.08,-0.7 -0.22,-0.17 -0.54,-0.13 -0.71,0.08 l -4.3,5.52 c -0.17,0.22 -0.13,0.53 0.09,0.7 0.21,0.17 0.53,0.14 0.7,-0.08 z m 6.76,-8.67 4.31,-5.52 c 0.17,-0.22 0.13,-0.54 -0.09,-0.71 -0.21,-0.17 -0.53,-0.13 -0.7,0.09 l -4.3,5.52 c -0.17,0.22 -0.14,0.53 0.08,0.7 0.22,0.17 0.53,0.13 0.7,-0.08 z m 6.77,-8.68 1.58,-2.03 c 0.17,-0.21 0.14,-0.53 -0.08,-0.7 -0.22,-0.17 -0.53,-0.13 -0.7,0.09 l -1.59,2.03 c -0.17,0.22 -0.13,0.53 0.09,0.7 0.22,0.17 0.53,0.13 0.7,-0.09 z m 1.94,5.46 -0.27,-8.41 -8.22,1.78 c -0.27,0.06 -0.44,0.33 -0.38,0.6 0.06,0.27 0.32,0.44 0.59,0.38 l 7.64,-1.65 -0.61,-0.48 0.25,7.81 c 0.01,0.28 0.24,0.49 0.52,0.48 0.27,-0.01 0.49,-0.24 0.48,-0.51 z"
       inkscape:connector-curvature="0"
       id="path132"
       style="fill:#000000;fill-opacity:1;fill-rule:nonzero;stroke:none" /><path
       d="m 381.38,475.32 -4.63,-5.26 c -0.18,-0.21 -0.49,-0.23 -0.7,-0.04 -0.21,0.18 -0.23,0.49 -0.05,0.7 l 4.62,5.26 c 0.19,0.21 0.5,0.23 0.71,0.05 0.21,-0.19 0.23,-0.5 0.05,-0.71 z m -7.27,-8.26 -4.62,-5.26 c -0.18,-0.21 -0.49,-0.23 -0.7,-0.05 -0.21,0.19 -0.23,0.5 -0.05,0.71 l 4.62,5.26 c 0.19,0.2 0.5,0.23 0.71,0.04 0.21,-0.18 0.23,-0.5 0.04,-0.7 z m -7.26,-8.27 -4.62,-5.25 c -0.18,-0.21 -0.5,-0.23 -0.7,-0.05 -0.21,0.18 -0.23,0.5 -0.05,0.71 l 4.62,5.25 c 0.18,0.21 0.5,0.23 0.71,0.05 0.2,-0.18 0.23,-0.5 0.04,-0.71 z m -7.26,-8.26 -4.62,-5.26 c -0.18,-0.2 -0.5,-0.22 -0.7,-0.04 -0.21,0.18 -0.23,0.5 -0.05,0.7 l 4.62,5.26 c 0.18,0.21 0.5,0.23 0.71,0.05 0.2,-0.18 0.22,-0.5 0.04,-0.71 z m -7.26,-8.26 -4.62,-5.26 c -0.18,-0.21 -0.5,-0.23 -0.71,-0.04 -0.2,0.18 -0.22,0.49 -0.04,0.7 l 4.62,5.26 c 0.18,0.21 0.5,0.23 0.7,0.04 0.21,-0.18 0.23,-0.49 0.05,-0.7 z m -7.26,-8.26 -4.62,-5.26 c -0.18,-0.21 -0.5,-0.23 -0.71,-0.05 -0.2,0.18 -0.23,0.5 -0.04,0.71 l 4.62,5.26 c 0.18,0.2 0.5,0.22 0.7,0.04 0.21,-0.18 0.23,-0.5 0.05,-0.7 z m -7.26,-8.27 -4.62,-5.25 c -0.19,-0.21 -0.5,-0.23 -0.71,-0.05 -0.21,0.18 -0.23,0.5 -0.04,0.71 l 4.62,5.25 c 0.18,0.21 0.49,0.23 0.7,0.05 0.21,-0.18 0.23,-0.5 0.05,-0.71 z m -7.26,-8.26 -4.62,-5.26 c -0.19,-0.2 -0.5,-0.23 -0.71,-0.04 -0.21,0.18 -0.23,0.5 -0.05,0.7 l 4.63,5.26 c 0.18,0.21 0.49,0.23 0.7,0.05 0.21,-0.19 0.23,-0.5 0.05,-0.71 z m -7.26,-8.26 -4.63,-5.26 c -0.18,-0.21 -0.49,-0.23 -0.7,-0.05 -0.21,0.19 -0.23,0.5 -0.05,0.71 l 4.62,5.26 c 0.19,0.21 0.5,0.23 0.71,0.04 0.21,-0.18 0.23,-0.49 0.05,-0.7 z m -7.27,-8.27 -4.62,-5.25 c -0.18,-0.21 -0.49,-0.23 -0.7,-0.05 -0.21,0.18 -0.23,0.5 -0.05,0.71 l 4.62,5.25 c 0.19,0.21 0.5,0.23 0.71,0.05 0.21,-0.18 0.23,-0.5 0.04,-0.71 z m -7.26,-8.26 -4.62,-5.26 c -0.18,-0.2 -0.5,-0.22 -0.7,-0.04 -0.21,0.18 -0.23,0.5 -0.05,0.7 l 4.62,5.26 c 0.18,0.21 0.5,0.23 0.71,0.05 0.2,-0.18 0.23,-0.5 0.04,-0.71 z m -7.26,-8.26 -4.62,-5.26 c -0.18,-0.21 -0.5,-0.23 -0.7,-0.04 -0.21,0.18 -0.23,0.49 -0.05,0.7 l 4.62,5.26 c 0.18,0.21 0.5,0.23 0.71,0.04 0.2,-0.18 0.22,-0.49 0.04,-0.7 z m 1.61,-5.57 -8.31,-1.29 0.23,8.4 c 0,0.28 0.23,0.5 0.51,0.49 0.27,-0.01 0.49,-0.24 0.48,-0.51 l -0.2,-7.81 -0.58,0.51 7.72,1.2 c 0.27,0.05 0.53,-0.14 0.57,-0.41 0.04,-0.28 -0.14,-0.53 -0.42,-0.58 z"
       inkscape:connector-curvature="0"
       id="path134"
       style="fill:#000000;fill-opacity:1;fill-rule:nonzero;stroke:none" /><g
       id="g136"><g
         clip-path="url(#clipPath140)"
         id="g138"><g
           id="g144"><g
             clip-path="url(#clipPath148)"
             id="g146"><text
   transform="matrix(1,0,0,-1,346.25,430.61)"
   id="text152"><tspan
     x="0"
     y="0"
     id="tspan154"
     style="font-size:15.96000004px;font-variant:normal;font-weight:normal;writing-mode:lr-tb;fill:#000000;fill-opacity:1;fill-rule:nonzero;stroke:none;font-family:Courier New;-inkscape-font-specification:Courier New">«</tspan></text>

</g></g><g
           id="g156"><g
             clip-path="url(#clipPath160)"
             id="g158"><text
   transform="matrix(1,0,0,-1,355.85,430.61)"
   id="text164"><tspan
     x="0 9.6000004 19.200001"
     y="0"
     id="tspan166"
     style="font-size:15.96000004px;font-variant:normal;font-weight:normal;writing-mode:lr-tb;fill:#000000;fill-opacity:1;fill-rule:nonzero;stroke:none;font-family:Courier New;-inkscape-font-specification:Courier New">use</tspan></text>

</g></g><g
           id="g168"><g
             clip-path="url(#clipPath172)"
             id="g170"><text
   transform="matrix(1,0,0,-1,384.65,430.61)"
   id="text176"><tspan
     x="0"
     y="0"
     id="tspan178"
     style="font-size:15.96000004px;font-variant:normal;font-weight:normal;writing-mode:lr-tb;fill:#000000;fill-opacity:1;fill-rule:nonzero;stroke:none;font-family:Courier New;-inkscape-font-specification:Courier New">»</tspan></text>

</g></g><g
           id="g180"><g
             clip-path="url(#clipPath184)"
             id="g182" /></g></g></g><g
       id="g188"><g
         clip-path="url(#clipPath192)"
         id="g190"><g
           id="g196"><g
             clip-path="url(#clipPath200)"
             id="g198"><text
   transform="matrix(1,0,0,-1,214.46,429.53)"
   id="text204"><tspan
     x="0"
     y="0"
     id="tspan206"
     style="font-size:15.96000004px;font-variant:normal;font-weight:normal;writing-mode:lr-tb;fill:#000000;fill-opacity:1;fill-rule:nonzero;stroke:none;font-family:Courier New;-inkscape-font-specification:Courier New">«</tspan></text>

</g></g><g
           id="g208"><g
             clip-path="url(#clipPath212)"
             id="g210"><text
   transform="matrix(1,0,0,-1,224.06,429.53)"
   id="text216"><tspan
     x="0 9.6000004 19.200001"
     y="0"
     id="tspan218"
     style="font-size:15.96000004px;font-variant:normal;font-weight:normal;writing-mode:lr-tb;fill:#000000;fill-opacity:1;fill-rule:nonzero;stroke:none;font-family:Courier New;-inkscape-font-specification:Courier New">use</tspan></text>

</g></g><g
           id="g220"><g
             clip-path="url(#clipPath224)"
             id="g222"><text
   transform="matrix(1,0,0,-1,252.86,429.53)"
   id="text228"><tspan
     x="0"
     y="0"
     id="tspan230"
     style="font-size:15.96000004px;font-variant:normal;font-weight:normal;writing-mode:lr-tb;fill:#000000;fill-opacity:1;fill-rule:nonzero;stroke:none;font-family:Courier New;-inkscape-font-specification:Courier New">»</tspan></text>

</g></g><g
           id="g232"><g
             clip-path="url(#clipPath236)"
             id="g234" /></g><g
           id="g240"><g
             clip-path="url(#clipPath244)"
             id="g242" /></g></g></g></g></svg>