<?xml version="1.0" encoding="UTF-8" standalone="no"?>
<!-- Created with Inkscape (http://www.inkscape.org/) -->

<svg
   xmlns:dc="http://purl.org/dc/elements/1.1/"
   xmlns:cc="http://creativecommons.org/ns#"
   xmlns:rdf="http://www.w3.org/1999/02/22-rdf-syntax-ns#"
   xmlns:svg="http://www.w3.org/2000/svg"
   xmlns="http://www.w3.org/2000/svg"
   xmlns:sodipodi="http://sodipodi.sourceforge.net/DTD/sodipodi-0.dtd"
   xmlns:inkscape="http://www.inkscape.org/namespaces/inkscape"
   version="1.1"
   width="335.63776"
   height="240.9375"
   id="svg2"
   xml:space="preserve"
   inkscape:version="0.48.4 r9939"
   sodipodi:docname="Bild 4-43 Rollen in einem Objektdiagramm.svg"><sodipodi:namedview
     pagecolor="#ffffff"
     bordercolor="#666666"
     borderopacity="1"
     objecttolerance="10"
     gridtolerance="10"
     guidetolerance="10"
     inkscape:pageopacity="0"
     inkscape:pageshadow="2"
     inkscape:window-width="640"
     inkscape:window-height="480"
     id="namedview175"
     showgrid="false"
     inkscape:zoom="0.18730159"
     inkscape:cx="321.46875"
     inkscape:cy="148.59375"
     inkscape:window-x="0"
     inkscape:window-y="0"
     inkscape:window-maximized="0"
     inkscape:current-layer="svg2" /><metadata
     id="metadata8"><rdf:RDF><cc:Work
         rdf:about=""><dc:format>image/svg+xml</dc:format><dc:type
           rdf:resource="http://purl.org/dc/dcmitype/StillImage" /></cc:Work></rdf:RDF></metadata><defs
     id="defs6"><clipPath
       id="clipPath20"><path
         d="m 247.95,509.47 102.62,0 0,63.96 -102.62,0 0,-63.96 z"
         inkscape:connector-curvature="0"
         id="path22" /></clipPath><clipPath
       id="clipPath28"><path
         d="m 247.94,509.47 102.62,0 0,63.96 -102.62,0 0,-63.96 z"
         inkscape:connector-curvature="0"
         id="path30" /></clipPath><clipPath
       id="clipPath40"><path
         d="m 247.94,509.47 102.62,0 0,63.96 -102.62,0 0,-63.96 z"
         inkscape:connector-curvature="0"
         id="path42" /></clipPath><clipPath
       id="clipPath52"><path
         d="m 247.95,389.44 102.62,0 0,63.99 -102.62,0 0,-63.99 z"
         inkscape:connector-curvature="0"
         id="path54" /></clipPath><clipPath
       id="clipPath60"><path
         d="m 247.94,389.45 102.62,0 0,63.984 -102.62,0 0,-63.984 z"
         inkscape:connector-curvature="0"
         id="path62" /></clipPath><clipPath
       id="clipPath72"><path
         d="m 247.94,389.45 102.62,0 0,63.984 -102.62,0 0,-63.984 z"
         inkscape:connector-curvature="0"
         id="path74" /></clipPath><clipPath
       id="clipPath80"><path
         d="m 247.94,389.45 102.62,0 0,63.984 -102.62,0 0,-63.984 z"
         inkscape:connector-curvature="0"
         id="path82" /></clipPath><clipPath
       id="clipPath92"><path
         d="m 247.94,389.45 102.62,0 0,63.984 -102.62,0 0,-63.984 z"
         inkscape:connector-curvature="0"
         id="path94" /></clipPath><clipPath
       id="clipPath104"><path
         d="m 247.94,389.45 102.62,0 0,63.984 -102.62,0 0,-63.984 z"
         inkscape:connector-curvature="0"
         id="path106" /></clipPath><clipPath
       id="clipPath116"><path
         d="m 247.94,389.45 102.62,0 0,63.984 -102.62,0 0,-63.984 z"
         inkscape:connector-curvature="0"
         id="path118" /></clipPath><clipPath
       id="clipPath128"><path
         d="m 247.94,389.45 102.62,0 0,63.984 -102.62,0 0,-63.984 z"
         inkscape:connector-curvature="0"
         id="path130" /></clipPath><clipPath
       id="clipPath140"><path
         d="m 247.94,389.45 102.62,0 0,63.984 -102.62,0 0,-63.984 z"
         inkscape:connector-curvature="0"
         id="path142" /></clipPath><clipPath
       id="clipPath152"><path
         d="m 248.91,474.55 72.135,0 0,16.08 -72.135,0 0,-16.08 z"
         inkscape:connector-curvature="0"
         id="path154" /></clipPath><clipPath
       id="clipPath160"><path
         d="m 248.9,474.55 72.144,0 0,16.08 -72.144,0 0,-16.08 z"
         inkscape:connector-curvature="0"
         id="path162" /></clipPath><clipPath
       id="clipPath172"><path
         d="m 248.9,474.55 72.144,0 0,16.08 -72.144,0 0,-16.08 z"
         inkscape:connector-curvature="0"
         id="path174" /></clipPath><clipPath
       id="clipPath184"><path
         d="m 416.69,389.44 97.47,0 0,63.99 -97.47,0 0,-63.99 z"
         inkscape:connector-curvature="0"
         id="path186" /></clipPath><clipPath
       id="clipPath192"><path
         d="m 416.69,389.45 97.464,0 0,63.984 -97.464,0 0,-63.984 z"
         inkscape:connector-curvature="0"
         id="path194" /></clipPath><clipPath
       id="clipPath204"><path
         d="m 416.69,389.45 97.464,0 0,63.984 -97.464,0 0,-63.984 z"
         inkscape:connector-curvature="0"
         id="path206" /></clipPath><clipPath
       id="clipPath212"><path
         d="m 416.69,389.45 97.464,0 0,63.984 -97.464,0 0,-63.984 z"
         inkscape:connector-curvature="0"
         id="path214" /></clipPath><clipPath
       id="clipPath224"><path
         d="m 416.69,389.45 97.464,0 0,63.984 -97.464,0 0,-63.984 z"
         inkscape:connector-curvature="0"
         id="path226" /></clipPath><clipPath
       id="clipPath236"><path
         d="m 416.69,389.45 97.464,0 0,63.984 -97.464,0 0,-63.984 z"
         inkscape:connector-curvature="0"
         id="path238" /></clipPath><clipPath
       id="clipPath246"><path
         d="m 364.61,523.39 166.47,0 0,20.4 -166.47,0 0,-20.4 z"
         inkscape:connector-curvature="0"
         id="path248" /></clipPath><clipPath
       id="clipPath254"><path
         d="m 364.61,523.39 166.46,0 0,20.4 -166.46,0 0,-20.4 z"
         inkscape:connector-curvature="0"
         id="path256" /></clipPath><clipPath
       id="clipPath266"><path
         d="m 364.61,523.39 166.46,0 0,20.4 -166.46,0 0,-20.4 z"
         inkscape:connector-curvature="0"
         id="path268" /></clipPath><clipPath
       id="clipPath274"><path
         d="m 294.05,487.39 62.16,0 0,17.4 -62.16,0 0,-17.4 z"
         inkscape:connector-curvature="0"
         id="path276" /></clipPath><clipPath
       id="clipPath282"><path
         d="m 294.05,487.39 62.16,0 0,17.4 -62.16,0 0,-17.4 z"
         inkscape:connector-curvature="0"
         id="path284" /></clipPath><clipPath
       id="clipPath294"><path
         d="m 294.05,487.39 62.16,0 0,17.4 -62.16,0 0,-17.4 z"
         inkscape:connector-curvature="0"
         id="path296" /></clipPath><clipPath
       id="clipPath306"><path
         d="m 294.05,487.39 62.16,0 0,17.4 -62.16,0 0,-17.4 z"
         inkscape:connector-curvature="0"
         id="path308" /></clipPath><clipPath
       id="clipPath314"><path
         d="m 294.05,455.11 54.96,0 0,17.52 -54.96,0 0,-17.52 z"
         inkscape:connector-curvature="0"
         id="path316" /></clipPath><clipPath
       id="clipPath322"><path
         d="m 294.05,455.11 54.96,0 0,17.52 -54.96,0 0,-17.52 z"
         inkscape:connector-curvature="0"
         id="path324" /></clipPath><clipPath
       id="clipPath334"><path
         d="m 294.05,455.11 54.96,0 0,17.52 -54.96,0 0,-17.52 z"
         inkscape:connector-curvature="0"
         id="path336" /></clipPath><clipPath
       id="clipPath346"><path
         d="m 294.05,455.11 54.96,0 0,17.52 -54.96,0 0,-17.52 z"
         inkscape:connector-curvature="0"
         id="path348" /></clipPath></defs><g
     transform="matrix(1.25,0,0,-1.25,-308.90625,722.34375)"
     id="g10"><path
       d="m 247.5,505.5 103.4,0 0,72 -103.4,0 0,-72 z"
       inkscape:connector-curvature="0"
       id="path12"
       style="fill:#ffffff;fill-opacity:1;fill-rule:evenodd;stroke:none" /><path
       d="m 247.5,505.5 103.4,0 0,72 -103.4,0 0,-72 z"
       inkscape:connector-curvature="0"
       id="path14"
       style="fill:none;stroke:#000000;stroke-width:0.75;stroke-linecap:round;stroke-linejoin:miter;stroke-miterlimit:10;stroke-opacity:1;stroke-dasharray:none" /><g
       id="g16"><g
         clip-path="url(#clipPath20)"
         id="g18"><g
           id="g24"><g
             clip-path="url(#clipPath28)"
             id="g26"><text
   transform="matrix(1,0,0,-1,269.66,560.35)"
   id="text32"><tspan
     x="0 3.94524 13.30992 21.116159 28.9224 36.728642 39.84552 47.65176 55.303558"
     y="0"
     id="tspan34"
     style="font-size:14.03999996px;font-variant:normal;font-weight:normal;writing-mode:lr-tb;fill:#000000;fill-opacity:1;fill-rule:nonzero;stroke:none;font-family:Helvetica;-inkscape-font-specification:Helvetica">:Kandidat</tspan></text>

</g></g><g
           id="g36"><g
             clip-path="url(#clipPath40)"
             id="g38" /></g></g></g><path
       d="m 247.5,385.5 103.4,0 0,72 -103.4,0 0,-72 z"
       inkscape:connector-curvature="0"
       id="path44"
       style="fill:#ffffff;fill-opacity:1;fill-rule:evenodd;stroke:none" /><path
       d="m 247.5,385.5 103.4,0 0,72 -103.4,0 0,-72 z"
       inkscape:connector-curvature="0"
       id="path46"
       style="fill:none;stroke:#000000;stroke-width:0.75;stroke-linecap:round;stroke-linejoin:miter;stroke-miterlimit:10;stroke-opacity:1;stroke-dasharray:none" /><g
       id="g48"><g
         clip-path="url(#clipPath52)"
         id="g50"><g
           id="g56"><g
             clip-path="url(#clipPath60)"
             id="g58"><text
   transform="matrix(1,0,0,-1,267.26,440.47)"
   id="text64"><tspan
     x="0 3.94524 13.30992 17.985241 25.665119 29.610359 37.416599 44.366402 51.42852 59.23476"
     y="0"
     id="tspan66"
     style="font-size:14.03999996px;font-variant:normal;font-weight:normal;writing-mode:lr-tb;fill:#000000;fill-opacity:1;fill-rule:nonzero;stroke:none;font-family:Helvetica;-inkscape-font-specification:Helvetica">:Professor</tspan></text>

</g></g><g
           id="g68"><g
             clip-path="url(#clipPath72)"
             id="g70" /></g><g
           id="g76"><g
             clip-path="url(#clipPath80)"
             id="g78"><text
   transform="matrix(1,0,0,-1,263.06,424.37)"
   id="text84"><tspan
     x="0 3.94524 13.30992 21.116159 25.791479 33.471359 37.416599 45.222839 53.029079 60.69492"
     y="0"
     id="tspan86"
     style="font-size:14.03999996px;font-variant:normal;font-weight:normal;writing-mode:lr-tb;fill:#000000;fill-opacity:1;fill-rule:nonzero;stroke:none;font-family:Helvetica;-inkscape-font-specification:Helvetica">[Berufungs</tspan></text>

</g></g><g
           id="g88"><g
             clip-path="url(#clipPath92)"
             id="g90"><text
   transform="matrix(1,0,0,-1,330.89,424.37)"
   id="text96"><tspan
     x="0"
     y="0"
     id="tspan98"
     style="font-size:14.03999996px;font-variant:normal;font-weight:normal;writing-mode:lr-tb;fill:#000000;fill-opacity:1;fill-rule:nonzero;stroke:none;font-family:Helvetica;-inkscape-font-specification:Helvetica">-</tspan></text>

</g></g><g
           id="g100"><g
             clip-path="url(#clipPath104)"
             id="g102"><text
   transform="matrix(1,0,0,-1,256.46,408.29)"
   id="text108"><tspan
     x="0 7.06212 14.86836 26.507521 38.146679 41.263561 48.227402 55.28952 58.406399 66.212639 73.892517"
     y="0"
     id="tspan110"
     style="font-size:14.03999996px;font-variant:normal;font-weight:normal;writing-mode:lr-tb;fill:#000000;fill-opacity:1;fill-rule:nonzero;stroke:none;font-family:Helvetica;-inkscape-font-specification:Helvetica">kommissions</tspan></text>

</g></g><g
           id="g112"><g
             clip-path="url(#clipPath116)"
             id="g114"><text
   transform="matrix(1,0,0,-1,337.49,408.29)"
   id="text120"><tspan
     x="0"
     y="0"
     id="tspan122"
     style="font-size:14.03999996px;font-variant:normal;font-weight:normal;writing-mode:lr-tb;fill:#000000;fill-opacity:1;fill-rule:nonzero;stroke:none;font-family:Helvetica;-inkscape-font-specification:Helvetica">-</tspan></text>

</g></g><g
           id="g124"><g
             clip-path="url(#clipPath128)"
             id="g126"><text
   transform="matrix(1,0,0,-1,273.14,392.21)"
   id="text132"><tspan
     x="0 11.63916 14.75604 18.701281 26.507521 29.624399 32.74128 40.54752 48.227402"
     y="0"
     id="tspan134"
     style="font-size:14.03999996px;font-variant:normal;font-weight:normal;writing-mode:lr-tb;fill:#000000;fill-opacity:1;fill-rule:nonzero;stroke:none;font-family:Helvetica;-inkscape-font-specification:Helvetica">mitglied]</tspan></text>

</g></g><g
           id="g136"><g
             clip-path="url(#clipPath140)"
             id="g138" /></g></g></g><path
       d="m 297.25,457.5 0,43 c 0,0.28 0.22,0.5 0.5,0.5 0.28,0 0.5,-0.22 0.5,-0.5 l 0,-43 c 0,-0.28 -0.22,-0.5 -0.5,-0.5 -0.28,0 -0.5,0.22 -0.5,0.5 z m -2.5,42 3,6 3,-6 -6,0 z"
       inkscape:connector-curvature="0"
       id="path144"
       style="fill:#000000;fill-opacity:1;fill-rule:nonzero;stroke:none" /><path
       d="m 248.9,470.95 72.2,0 0,23.3 -72.2,0 0,-23.3 z"
       inkscape:connector-curvature="0"
       id="path146"
       style="fill:#ffffff;fill-opacity:1;fill-rule:evenodd;stroke:none" /><g
       id="g148"><g
         clip-path="url(#clipPath152)"
         id="g150"><g
           id="g156"><g
             clip-path="url(#clipPath160)"
             id="g158"><text
   transform="matrix(1,0,0,-1,256.1,477.67)"
   id="text164"><tspan
     x="0 7.8062401 15.61248 23.41872 28.09404 32.025242 39.831478 42.94836 45.938881"
     y="0"
     id="tspan166"
     style="font-size:14.03999996px;font-variant:normal;font-weight:normal;writing-mode:lr-tb;fill:#000000;fill-opacity:1;fill-rule:nonzero;stroke:none;font-family:Helvetica;-inkscape-font-specification:Helvetica">beurteilt</tspan></text>

</g></g><g
           id="g168"><g
             clip-path="url(#clipPath172)"
             id="g170" /></g></g></g><path
       d="m 416.25,385.5 98.25,0 0,72 -98.25,0 0,-72 z"
       inkscape:connector-curvature="0"
       id="path176"
       style="fill:#ffffff;fill-opacity:1;fill-rule:evenodd;stroke:none" /><path
       d="m 416.25,385.5 98.25,0 0,72 -98.25,0 0,-72 z"
       inkscape:connector-curvature="0"
       id="path178"
       style="fill:none;stroke:#000000;stroke-width:0.75;stroke-linecap:round;stroke-linejoin:miter;stroke-miterlimit:10;stroke-opacity:1;stroke-dasharray:none" /><g
       id="g180"><g
         clip-path="url(#clipPath184)"
         id="g182"><g
           id="g188"><g
             clip-path="url(#clipPath192)"
             id="g190"><text
   transform="matrix(1,0,0,-1,433.49,440.47)"
   id="text196"><tspan
     x="0 3.94524 13.30992 17.985241 25.665119 29.610359 37.416599 44.366402 51.42852 59.23476"
     y="0"
     id="tspan198"
     style="font-size:14.03999996px;font-variant:normal;font-weight:normal;writing-mode:lr-tb;fill:#000000;fill-opacity:1;fill-rule:nonzero;stroke:none;font-family:Helvetica;-inkscape-font-specification:Helvetica">:Professor</tspan></text>

</g></g><g
           id="g200"><g
             clip-path="url(#clipPath204)"
             id="g202" /></g><g
           id="g208"><g
             clip-path="url(#clipPath212)"
             id="g210"><text
   transform="matrix(1,0,0,-1,441.29,424.25)"
   id="text216"><tspan
     x="0 3.94524 14.02596 21.832199 28.89432 36.700562"
     y="0"
     id="tspan218"
     style="font-size:14.03999996px;font-variant:normal;font-weight:normal;writing-mode:lr-tb;fill:#000000;fill-opacity:1;fill-rule:nonzero;stroke:none;font-family:Helvetica;-inkscape-font-specification:Helvetica">[Dekan</tspan></text>

</g></g><g
           id="g220"><g
             clip-path="url(#clipPath224)"
             id="g222"><text
   transform="matrix(1,0,0,-1,485.71,424.25)"
   id="text228"><tspan
     x="0"
     y="0"
     id="tspan230"
     style="font-size:14.03999996px;font-variant:normal;font-weight:normal;writing-mode:lr-tb;fill:#000000;fill-opacity:1;fill-rule:nonzero;stroke:none;font-family:Helvetica;-inkscape-font-specification:Helvetica">]</tspan></text>

</g></g><g
           id="g232"><g
             clip-path="url(#clipPath236)"
             id="g234" /></g></g></g><path
       d="m 355.25,537.39 110.44,-79.48 c 0.23,-0.17 0.28,-0.48 0.12,-0.7 -0.17,-0.23 -0.48,-0.28 -0.7,-0.12 l -110.44,79.48 c -0.23,0.16 -0.28,0.48 -0.12,0.7 0.16,0.23 0.48,0.28 0.7,0.12 z m -1.23,-3.43 -3.12,5.94 6.62,-1.07 -3.5,-4.87 z"
       inkscape:connector-curvature="0"
       id="path240"
       style="fill:#000000;fill-opacity:1;fill-rule:nonzero;stroke:none" /><g
       id="g242"><g
         clip-path="url(#clipPath246)"
         id="g244"><g
           id="g250"><g
             clip-path="url(#clipPath254)"
             id="g252"><text
   transform="matrix(1,0,0,-1,371.69,530.71)"
   id="text258"><tspan
     x="0 7.8062401 10.92312 18.729361 22.660561 26.605801 36.68652 44.49276 52.172642 59.978882 63.924122 71.730362 74.847237 82.527122 90.333359 94.278603 102.08484 109.76472 116.72856 124.5348 132.34103 140.14728"
     y="0"
     id="tspan260"
     style="font-size:14.03999996px;font-variant:normal;font-weight:normal;writing-mode:lr-tb;fill:#000000;fill-opacity:1;fill-rule:nonzero;stroke:none;font-family:Helvetica;-inkscape-font-specification:Helvetica">gibt Rangfolge bekannt</tspan></text>

</g></g><g
           id="g262"><g
             clip-path="url(#clipPath266)"
             id="g264" /></g></g></g><g
       id="g270"><g
         clip-path="url(#clipPath274)"
         id="g272"><g
           id="g278"><g
             clip-path="url(#clipPath282)"
             id="g280"><text
   transform="matrix(1,0,0,-1,301.25,493.63)"
   id="text286"><tspan
     x="0 6.7080002 10.044 13.416 16.752001"
     y="0"
     id="tspan288"
     style="font-size:12px;font-variant:normal;font-weight:normal;writing-mode:lr-tb;fill:#000000;fill-opacity:1;fill-rule:nonzero;stroke:none;font-family:Helvetica;-inkscape-font-specification:Helvetica">1 .. </tspan></text>

</g></g><g
           id="g290"><g
             clip-path="url(#clipPath294)"
             id="g292"><text
   transform="matrix(1,0,0,-1,321.41,493.63)"
   id="text298"><tspan
     x="0"
     y="0"
     id="tspan300"
     style="font-size:12px;font-variant:normal;font-weight:normal;writing-mode:lr-tb;fill:#000000;fill-opacity:1;fill-rule:nonzero;stroke:none;font-family:Helvetica;-inkscape-font-specification:Helvetica">*</tspan></text>

</g></g><g
           id="g302"><g
             clip-path="url(#clipPath306)"
             id="g304" /></g></g></g><g
       id="g310"><g
         clip-path="url(#clipPath314)"
         id="g312"><g
           id="g318"><g
             clip-path="url(#clipPath322)"
             id="g320"><text
   transform="matrix(1,0,0,-1,301.25,461.59)"
   id="text326"><tspan
     x="0 6.7080002 10.044 13.416 16.752001"
     y="0"
     id="tspan328"
     style="font-size:12px;font-variant:normal;font-weight:normal;writing-mode:lr-tb;fill:#000000;fill-opacity:1;fill-rule:nonzero;stroke:none;font-family:Helvetica;-inkscape-font-specification:Helvetica">1 .. </tspan></text>

</g></g><g
           id="g330"><g
             clip-path="url(#clipPath334)"
             id="g332"><text
   transform="matrix(1,0,0,-1,321.41,461.59)"
   id="text338"><tspan
     x="0"
     y="0"
     id="tspan340"
     style="font-size:12px;font-variant:normal;font-weight:normal;writing-mode:lr-tb;fill:#000000;fill-opacity:1;fill-rule:nonzero;stroke:none;font-family:Helvetica;-inkscape-font-specification:Helvetica">*</tspan></text>

</g></g><g
           id="g342"><g
             clip-path="url(#clipPath346)"
             id="g344" /></g></g></g></g></svg>