<?xml version="1.0" encoding="UTF-8" standalone="no"?>
<!-- Created with Inkscape (http://www.inkscape.org/) -->

<svg
   xmlns:dc="http://purl.org/dc/elements/1.1/"
   xmlns:cc="http://creativecommons.org/ns#"
   xmlns:rdf="http://www.w3.org/1999/02/22-rdf-syntax-ns#"
   xmlns:svg="http://www.w3.org/2000/svg"
   xmlns="http://www.w3.org/2000/svg"
   xmlns:sodipodi="http://sodipodi.sourceforge.net/DTD/sodipodi-0.dtd"
   xmlns:inkscape="http://www.inkscape.org/namespaces/inkscape"
   version="1.1"
   width="678.0625"
   height="338.4375"
   id="svg2"
   xml:space="preserve"
   inkscape:version="0.48.4 r9939"
   sodipodi:docname="Bild 4-30 Sequenzdiagramm des Befehlsmusters.svg"><sodipodi:namedview
     pagecolor="#ffffff"
     bordercolor="#666666"
     borderopacity="1"
     objecttolerance="10"
     gridtolerance="10"
     guidetolerance="10"
     inkscape:pageopacity="0"
     inkscape:pageshadow="2"
     inkscape:window-width="640"
     inkscape:window-height="480"
     id="namedview217"
     showgrid="false"
     inkscape:zoom="0.18730159"
     inkscape:cx="116.03125"
     inkscape:cy="248.90625"
     inkscape:window-x="0"
     inkscape:window-y="0"
     inkscape:window-maximized="0"
     inkscape:current-layer="svg2" /><metadata
     id="metadata8"><rdf:RDF><cc:Work
         rdf:about=""><dc:format>image/svg+xml</dc:format><dc:type
           rdf:resource="http://purl.org/dc/dcmitype/StillImage" /></cc:Work></rdf:RDF></metadata><defs
     id="defs6"><clipPath
       id="clipPath38"><path
         d="m 411.89,540.19 107.55,0 0,18.36 -107.55,0 0,-18.36 z"
         inkscape:connector-curvature="0"
         id="path40" /></clipPath><clipPath
       id="clipPath46"><path
         d="m 411.89,540.19 107.54,0 0,18.36 -107.54,0 0,-18.36 z"
         inkscape:connector-curvature="0"
         id="path48" /></clipPath><clipPath
       id="clipPath58"><path
         d="m 411.89,540.19 107.54,0 0,18.36 -107.54,0 0,-18.36 z"
         inkscape:connector-curvature="0"
         id="path60" /></clipPath><clipPath
       id="clipPath66"><path
         d="m 551.72,440.23 195.38,0 0,18 -195.38,0 0,-18 z"
         inkscape:connector-curvature="0"
         id="path68" /></clipPath><clipPath
       id="clipPath74"><path
         d="m 551.71,440.23 195.38,0 0,18 -195.38,0 0,-18 z"
         inkscape:connector-curvature="0"
         id="path76" /></clipPath><clipPath
       id="clipPath86"><path
         d="m 551.71,440.23 195.38,0 0,18 -195.38,0 0,-18 z"
         inkscape:connector-curvature="0"
         id="path88" /></clipPath><clipPath
       id="clipPath96"><path
         d="m 482.36,486.55 107.16,0 0,31.08 -107.16,0 0,-31.08 z"
         inkscape:connector-curvature="0"
         id="path98" /></clipPath><clipPath
       id="clipPath104"><path
         d="m 482.35,486.55 107.16,0 0,31.08 -107.16,0 0,-31.08 z"
         inkscape:connector-curvature="0"
         id="path106" /></clipPath><clipPath
       id="clipPath116"><path
         d="m 482.35,486.55 107.16,0 0,31.08 -107.16,0 0,-31.08 z"
         inkscape:connector-curvature="0"
         id="path118" /></clipPath><clipPath
       id="clipPath128"><path
         d="m 482.35,486.55 107.16,0 0,31.08 -107.16,0 0,-31.08 z"
         inkscape:connector-curvature="0"
         id="path130" /></clipPath><clipPath
       id="clipPath140"><path
         d="m 482.35,486.55 107.16,0 0,31.08 -107.16,0 0,-31.08 z"
         inkscape:connector-curvature="0"
         id="path142" /></clipPath><clipPath
       id="clipPath152"><path
         d="m 482.35,486.55 107.16,0 0,31.08 -107.16,0 0,-31.08 z"
         inkscape:connector-curvature="0"
         id="path154" /></clipPath><clipPath
       id="clipPath166"><path
         d="m 666.09,377.08 83.28,0 0,14.52 -83.28,0 0,-14.52 z"
         inkscape:connector-curvature="0"
         id="path168" /></clipPath><clipPath
       id="clipPath174"><path
         d="m 666.1,377.09 83.28,0 0,14.52 -83.28,0 0,-14.52 z"
         inkscape:connector-curvature="0"
         id="path176" /></clipPath><clipPath
       id="clipPath186"><path
         d="m 666.1,377.09 83.28,0 0,14.52 -83.28,0 0,-14.52 z"
         inkscape:connector-curvature="0"
         id="path188" /></clipPath><clipPath
       id="clipPath194"><path
         d="m 711.09,350.8 63,0 0,14.52 -63,0 0,-14.52 z"
         inkscape:connector-curvature="0"
         id="path196" /></clipPath><clipPath
       id="clipPath202"><path
         d="m 711.1,350.81 63,0 0,14.52 -63,0 0,-14.52 z"
         inkscape:connector-curvature="0"
         id="path204" /></clipPath><clipPath
       id="clipPath214"><path
         d="m 711.1,350.81 63,0 0,14.52 -63,0 0,-14.52 z"
         inkscape:connector-curvature="0"
         id="path216" /></clipPath><clipPath
       id="clipPath226"><path
         d="m 711.1,350.81 63,0 0,14.52 -63,0 0,-14.52 z"
         inkscape:connector-curvature="0"
         id="path228" /></clipPath><clipPath
       id="clipPath246"><path
         d="m 585.08,475.75 107.78,0 0,36.84 -107.78,0 0,-36.84 z"
         inkscape:connector-curvature="0"
         id="path248" /></clipPath><clipPath
       id="clipPath254"><path
         d="m 585.07,475.75 107.78,0 0,36.84 -107.78,0 0,-36.84 z"
         inkscape:connector-curvature="0"
         id="path256" /></clipPath><clipPath
       id="clipPath266"><path
         d="m 585.07,475.75 107.78,0 0,36.84 -107.78,0 0,-36.84 z"
         inkscape:connector-curvature="0"
         id="path268" /></clipPath><clipPath
       id="clipPath278"><path
         d="m 585.07,475.75 107.78,0 0,36.84 -107.78,0 0,-36.84 z"
         inkscape:connector-curvature="0"
         id="path280" /></clipPath><clipPath
       id="clipPath286"><path
         d="m 585.07,475.75 107.78,0 0,36.84 -107.78,0 0,-36.84 z"
         inkscape:connector-curvature="0"
         id="path288" /></clipPath><clipPath
       id="clipPath298"><path
         d="m 585.07,475.75 107.78,0 0,36.84 -107.78,0 0,-36.84 z"
         inkscape:connector-curvature="0"
         id="path300" /></clipPath><clipPath
       id="clipPath310"><path
         d="m 720.09,539.23 108,0 0,18.36 -108,0 0,-18.36 z"
         inkscape:connector-curvature="0"
         id="path312" /></clipPath><clipPath
       id="clipPath318"><path
         d="m 720.1,539.23 108,0 0,18.36 -108,0 0,-18.36 z"
         inkscape:connector-curvature="0"
         id="path320" /></clipPath><clipPath
       id="clipPath330"><path
         d="m 720.1,539.23 108,0 0,18.36 -108,0 0,-18.36 z"
         inkscape:connector-curvature="0"
         id="path332" /></clipPath><clipPath
       id="clipPath342"><path
         d="m 846.12,539.23 108,0 0,18.36 -108,0 0,-18.36 z"
         inkscape:connector-curvature="0"
         id="path344" /></clipPath><clipPath
       id="clipPath350"><path
         d="m 846.12,539.23 108,0 0,18.36 -108,0 0,-18.36 z"
         inkscape:connector-curvature="0"
         id="path352" /></clipPath><clipPath
       id="clipPath362"><path
         d="m 846.12,539.23 108,0 0,18.36 -108,0 0,-18.36 z"
         inkscape:connector-curvature="0"
         id="path364" /></clipPath><clipPath
       id="clipPath372"><path
         d="m 558.08,404.08 83.28,0 0,14.52 -83.28,0 0,-14.52 z"
         inkscape:connector-curvature="0"
         id="path374" /></clipPath><clipPath
       id="clipPath380"><path
         d="m 558.07,404.09 83.28,0 0,14.52 -83.28,0 0,-14.52 z"
         inkscape:connector-curvature="0"
         id="path382" /></clipPath><clipPath
       id="clipPath392"><path
         d="m 558.07,404.09 83.28,0 0,14.52 -83.28,0 0,-14.52 z"
         inkscape:connector-curvature="0"
         id="path394" /></clipPath><clipPath
       id="clipPath404"><path
         d="m 558.07,404.09 83.28,0 0,14.52 -83.28,0 0,-14.52 z"
         inkscape:connector-curvature="0"
         id="path406" /></clipPath><clipPath
       id="clipPath416"><path
         d="m 558.07,404.09 83.28,0 0,14.52 -83.28,0 0,-14.52 z"
         inkscape:connector-curvature="0"
         id="path418" /></clipPath></defs><g
     transform="matrix(1.25,0,0,-1.25,-514.34375,719.53125)"
     id="g10"><path
       d="m 473.25,442.3 279,-0.05 c 0.28,0 0.5,-0.22 0.5,-0.5 0,-0.27 -0.22,-0.5 -0.5,-0.5 l -279,0.05 c -0.28,0 -0.5,0.22 -0.5,0.5 0,0.28 0.22,0.5 0.5,0.5 z m 278,4.45 10,-5 -10,-5 0,10 z"
       inkscape:connector-curvature="0"
       id="path12"
       style="fill:#000000;fill-opacity:1;fill-rule:nonzero;stroke:none" /><g
       id="g14"><path
         d="M 639.05,470.15 639,305.25"
         inkscape:connector-curvature="0"
         id="path16"
         style="fill:none;stroke:#000000;stroke-width:0.75;stroke-linecap:round;stroke-linejoin:round;stroke-miterlimit:10;stroke-opacity:1;stroke-dasharray:5.25, 3;stroke-dashoffset:0" /></g><g
       id="g18"><path
         d="m 900.05,524.15 0.05,-218.9"
         inkscape:connector-curvature="0"
         id="path20"
         style="fill:none;stroke:#000000;stroke-width:0.75;stroke-linecap:round;stroke-linejoin:round;stroke-miterlimit:10;stroke-opacity:1;stroke-dasharray:5.25, 3;stroke-dashoffset:0" /></g><g
       id="g22"><path
         d="m 774,524.15 0.05,-218.9"
         inkscape:connector-curvature="0"
         id="path24"
         style="fill:none;stroke:#000000;stroke-width:0.75;stroke-linecap:round;stroke-linejoin:round;stroke-miterlimit:10;stroke-opacity:1;stroke-dasharray:5.25, 3;stroke-dashoffset:0" /></g><g
       id="g26"><path
         d="M 465.8,523.7 465.75,305.25"
         inkscape:connector-curvature="0"
         id="path28"
         style="fill:none;stroke:#000000;stroke-width:0.75;stroke-linecap:round;stroke-linejoin:round;stroke-miterlimit:10;stroke-opacity:1;stroke-dasharray:5.25, 3;stroke-dashoffset:0" /></g><path
       d="m 411.85,523.7 107.6,0 0,51.1 -107.6,0 0,-51.1 z"
       inkscape:connector-curvature="0"
       id="path30"
       style="fill:#ffffff;fill-opacity:1;fill-rule:evenodd;stroke:none" /><path
       d="m 411.85,523.7 107.6,0 0,51.1 -107.6,0 0,-51.1 z"
       inkscape:connector-curvature="0"
       id="path32"
       style="fill:none;stroke:#000000;stroke-width:0.75;stroke-linecap:round;stroke-linejoin:miter;stroke-miterlimit:10;stroke-opacity:1;stroke-dasharray:none" /><g
       id="g34"><g
         clip-path="url(#clipPath38)"
         id="g36"><g
           id="g42"><g
             clip-path="url(#clipPath46)"
             id="g44"><text
   transform="matrix(1,0,0,-1,442.97,543.79)"
   id="text50"><tspan
     x="0 4.4368801 15.96 19.551001 23.142 32.015759 40.889519"
     y="0"
     id="tspan52"
     style="font-size:15.96000004px;font-variant:normal;font-weight:normal;writing-mode:lr-tb;fill:#000000;fill-opacity:1;fill-rule:nonzero;stroke:none;font-family:Helvetica;-inkscape-font-specification:Helvetica">:Client</tspan></text>

</g></g><g
           id="g54"><g
             clip-path="url(#clipPath58)"
             id="g56" /></g></g></g><g
       id="g62"><g
         clip-path="url(#clipPath66)"
         id="g64"><g
           id="g70"><g
             clip-path="url(#clipPath74)"
             id="g72"><text
   transform="matrix(1,0,0,-1,551.71,447.19)"
   id="text78"><tspan
     x="0 6 12.708 19.416 22.08 28.08 34.751999 41.484001 45.48 52.043999 60.071999 66.671997 70.008003 76.739998 83.447998 86.112 89.447998 93.407997 96.744003 104.688 111.396 117.996 123.996 127.956 134.664 138 144.73199 148.728 156.73199 163.332 166.668 173.39999 180.108 182.772"
     y="0"
     id="tspan80"
     style="font-size:12px;font-variant:normal;font-weight:normal;writing-mode:lr-tb;fill:#000000;fill-opacity:1;fill-rule:nonzero;stroke:none;font-family:Helvetica;-inkscape-font-specification:Helvetica">speichereBefehl (:KonkreterBefehl)</tspan></text>

</g></g><g
           id="g82"><g
             clip-path="url(#clipPath86)"
             id="g84" /></g></g></g><path
       d="m 477,485.75 7,0 c 0.28,0 0.5,-0.23 0.5,-0.5 0,-0.28 -0.22,-0.5 -0.5,-0.5 l -7,0 c -0.28,0 -0.5,0.22 -0.5,0.5 0,0.28 0.22,0.5 0.5,0.5 z m 11,0 7,-0.01 c 0.28,0 0.5,-0.22 0.5,-0.5 0,-0.27 -0.22,-0.5 -0.5,-0.5 l -7,0.01 c -0.28,0 -0.5,0.22 -0.5,0.5 0,0.27 0.22,0.5 0.5,0.5 z m 11,-0.01 7,0 c 0.28,0 0.5,-0.23 0.5,-0.5 0,-0.28 -0.22,-0.5 -0.5,-0.5 l -7,0 c -0.28,0 -0.5,0.22 -0.5,0.5 0,0.28 0.22,0.5 0.5,0.5 z m 11,-0.01 7,0 c 0.28,0 0.5,-0.22 0.5,-0.5 0,-0.27 -0.22,-0.5 -0.5,-0.5 l -7,0 c -0.28,0.01 -0.5,0.23 -0.5,0.51 0,0.27 0.22,0.5 0.5,0.49 z m 11,0 7,0 c 0.28,0 0.5,-0.23 0.5,-0.5 0,-0.28 -0.22,-0.5 -0.5,-0.5 l -7,0 c -0.28,0 -0.5,0.22 -0.5,0.5 0,0.28 0.22,0.5 0.5,0.5 z m 11,-0.01 7,0 c 0.28,0 0.5,-0.22 0.5,-0.5 0,-0.27 -0.22,-0.5 -0.5,-0.5 l -7,0 c -0.28,0 -0.5,0.23 -0.5,0.51 0,0.27 0.22,0.49 0.5,0.49 z m 11,0 7,0 c 0.28,0 0.5,-0.23 0.5,-0.5 0,-0.28 -0.22,-0.5 -0.5,-0.5 l -7,0 c -0.28,0 -0.5,0.22 -0.5,0.5 0,0.28 0.22,0.5 0.5,0.5 z m 11,-0.01 7,0 c 0.28,0 0.5,-0.22 0.5,-0.5 0,-0.27 -0.22,-0.5 -0.5,-0.5 l -7,0 c -0.28,0 -0.5,0.23 -0.5,0.51 0,0.27 0.22,0.49 0.5,0.49 z m 11,0 7,0 c 0.28,0 0.5,-0.23 0.5,-0.5 0,-0.28 -0.22,-0.5 -0.5,-0.5 l -7,0 c -0.28,0 -0.5,0.22 -0.5,0.5 0,0.28 0.22,0.5 0.5,0.5 z m 11,-0.01 7,0 c 0.28,0 0.5,-0.22 0.5,-0.5 0,-0.28 -0.22,-0.5 -0.5,-0.5 l -7,0 c -0.28,0 -0.5,0.23 -0.5,0.5 0,0.28 0.22,0.5 0.5,0.5 z m -1.5,4.94 9.78,-5.44 -9.79,-5.43 c -0.24,-0.14 -0.55,-0.05 -0.68,0.19 -0.13,0.24 -0.05,0.55 0.19,0.68 l 9.01,5 0,-0.88 -9,5.01 c -0.24,0.13 -0.33,0.44 -0.19,0.68 0.13,0.24 0.43,0.33 0.68,0.19 z"
       inkscape:connector-curvature="0"
       id="path90"
       style="fill:#000000;fill-opacity:1;fill-rule:nonzero;stroke:none" /><g
       id="g92"><g
         clip-path="url(#clipPath96)"
         id="g94"><g
           id="g100"><g
             clip-path="url(#clipPath104)"
             id="g102"><text
   transform="matrix(1,0,0,-1,489.55,506.59)"
   id="text108"><tspan
     x="0 6.7080002 10.704 16.548 23.256001 29.964001 36.563999 43.271999"
     y="0"
     id="tspan110"
     style="font-size:12px;font-variant:normal;font-weight:normal;writing-mode:lr-tb;fill:#000000;fill-opacity:1;fill-rule:nonzero;stroke:none;font-family:Helvetica;-inkscape-font-specification:Helvetica">erzeuge </tspan></text>

</g></g><g
           id="g112"><g
             clip-path="url(#clipPath116)"
             id="g114"><text
   transform="matrix(1,0,0,-1,489.55,492.79)"
   id="text120"><tspan
     x="0"
     y="0"
     id="tspan122"
     style="font-size:12px;font-variant:normal;font-weight:normal;writing-mode:lr-tb;fill:#000000;fill-opacity:1;fill-rule:nonzero;stroke:none;font-family:Helvetica;-inkscape-font-specification:Helvetica">(</tspan></text>

</g></g><g
           id="g124"><g
             clip-path="url(#clipPath128)"
             id="g126"><text
   transform="matrix(1,0,0,-1,493.51,492.79)"
   id="text132"><tspan
     x="0"
     y="0"
     id="tspan134"
     style="font-size:12px;font-variant:normal;font-weight:normal;writing-mode:lr-tb;fill:#000000;fill-opacity:1;fill-rule:nonzero;stroke:none;font-family:Helvetica;-inkscape-font-specification:Helvetica">:</tspan></text>

</g></g><g
           id="g136"><g
             clip-path="url(#clipPath140)"
             id="g138"><text
   transform="matrix(1,0,0,-1,496.87,492.79)"
   id="text144"><tspan
     x="0 8.0279999 18.096001 24.695999 28.032 34.764 41.363998 48.071999 54.672001 61.380001 65.375999"
     y="0"
     id="tspan146"
     style="font-size:12px;font-variant:normal;font-weight:normal;writing-mode:lr-tb;fill:#000000;fill-opacity:1;fill-rule:nonzero;stroke:none;font-family:Helvetica;-inkscape-font-specification:Helvetica">Empfaenger)</tspan></text>

</g></g><g
           id="g148"><g
             clip-path="url(#clipPath152)"
             id="g150" /></g></g></g><path
       d="m 761.6,422.25 22.75,0 0,19.5 -22.75,0 0,-19.5 z"
       inkscape:connector-curvature="0"
       id="path156"
       style="fill:#ffffff;fill-opacity:1;fill-rule:evenodd;stroke:none" /><path
       d="m 761.6,422.25 22.75,0 0,19.5 -22.75,0 0,-19.5 z"
       inkscape:connector-curvature="0"
       id="path158"
       style="fill:none;stroke:#000000;stroke-width:0.75;stroke-linecap:round;stroke-linejoin:miter;stroke-miterlimit:10;stroke-opacity:1;stroke-dasharray:none" /><path
       d="M 765,376.75 657,376.7 c -0.28,0 -0.5,0.23 -0.5,0.5 0,0.28 0.22,0.5 0.5,0.5 l 108,0.05 c 0.28,0 0.5,-0.22 0.5,-0.5 0,-0.28 -0.22,-0.5 -0.5,-0.5 z m -107,-4.55 -10,5 10,5 0,-10 z"
       inkscape:connector-curvature="0"
       id="path160"
       style="fill:#000000;fill-opacity:1;fill-rule:nonzero;stroke:none" /><g
       id="g162"><g
         clip-path="url(#clipPath166)"
         id="g164"><g
           id="g170"><g
             clip-path="url(#clipPath174)"
             id="g172"><text
   transform="matrix(1,0,0,-1,673.3,380.57)"
   id="text178"><tspan
     x="0 3.336 10.068 16.775999 23.483999 27.48 34.043999 42.071999 48.779999 54.779999 58.740002"
     y="0"
     id="tspan180"
     style="font-size:12px;font-variant:normal;font-weight:normal;writing-mode:lr-tb;fill:#000000;fill-opacity:1;fill-rule:nonzero;stroke:none;font-family:Helvetica;-inkscape-font-specification:Helvetica">fuehreAus()</tspan></text>

</g></g><g
           id="g182"><g
             clip-path="url(#clipPath186)"
             id="g184" /></g></g></g><g
       id="g190"><g
         clip-path="url(#clipPath194)"
         id="g192"><g
           id="g198"><g
             clip-path="url(#clipPath202)"
             id="g200"><text
   transform="matrix(1,0,0,-1,718.3,354.29)"
   id="text206"><tspan
     x="0 6.7080002 12.708 16.044001 18.708 25.416"
     y="0"
     id="tspan208"
     style="font-size:12px;font-variant:normal;font-weight:normal;writing-mode:lr-tb;fill:#000000;fill-opacity:1;fill-rule:nonzero;stroke:none;font-family:Helvetica;-inkscape-font-specification:Helvetica">aktion</tspan></text>

</g></g><g
           id="g210"><g
             clip-path="url(#clipPath214)"
             id="g212"><text
   transform="matrix(1,0,0,-1,750.46,354.29)"
   id="text218"><tspan
     x="0 3.96"
     y="0"
     id="tspan220"
     style="font-size:12px;font-variant:normal;font-weight:normal;writing-mode:lr-tb;fill:#000000;fill-opacity:1;fill-rule:nonzero;stroke:none;font-family:Helvetica;-inkscape-font-specification:Helvetica">()</tspan></text>

</g></g><g
           id="g222"><g
             clip-path="url(#clipPath226)"
             id="g224" /></g></g></g><path
       d="m 645.75,351.5 234,-0.05 c 0.28,0 0.5,-0.22 0.5,-0.5 0,-0.27 -0.22,-0.5 -0.5,-0.5 l -234,0.05 c -0.28,0 -0.5,0.22 -0.5,0.5 0,0.28 0.22,0.5 0.5,0.5 z m 233,4.45 10,-5 -10,-5 0,10 z"
       inkscape:connector-curvature="0"
       id="path230"
       style="fill:#000000;fill-opacity:1;fill-rule:nonzero;stroke:none" /><path
       d="m 888.75,334.35 22.75,0 0,16.65 -22.75,0 0,-16.65 z"
       inkscape:connector-curvature="0"
       id="path232"
       style="fill:#ffffff;fill-opacity:1;fill-rule:evenodd;stroke:none" /><path
       d="m 888.75,334.35 22.75,0 0,16.65 -22.75,0 0,-16.65 z"
       inkscape:connector-curvature="0"
       id="path234"
       style="fill:#ffffff;fill-opacity:1;fill-rule:evenodd;stroke:none" /><path
       d="m 888.75,334.35 22.75,0 0,16.65 -22.75,0 0,-16.65 z"
       inkscape:connector-curvature="0"
       id="path236"
       style="fill:none;stroke:#000000;stroke-width:0.75;stroke-linecap:round;stroke-linejoin:miter;stroke-miterlimit:10;stroke-opacity:1;stroke-dasharray:none" /><path
       d="m 585.25,470.15 107.55,0 0,51.1 -107.55,0 0,-51.1 z"
       inkscape:connector-curvature="0"
       id="path238"
       style="fill:#ffffff;fill-opacity:1;fill-rule:evenodd;stroke:none" /><path
       d="m 585.25,470.15 107.55,0 0,51.1 -107.55,0 0,-51.1 z"
       inkscape:connector-curvature="0"
       id="path240"
       style="fill:none;stroke:#000000;stroke-width:0.75;stroke-linecap:round;stroke-linejoin:miter;stroke-miterlimit:10;stroke-opacity:1;stroke-dasharray:none" /><g
       id="g242"><g
         clip-path="url(#clipPath246)"
         id="g244"><g
           id="g250"><g
             clip-path="url(#clipPath254)"
             id="g252"><text
   transform="matrix(1,0,0,-1,599.35,497.83)"
   id="text258"><tspan
     x="0 4.4368801 15.0822 23.955959 32.861641 40.889519 46.204201 55.077961 59.514839 68.388603"
     y="0"
     id="tspan260"
     style="font-size:15.96000004px;font-variant:normal;font-weight:normal;writing-mode:lr-tb;fill:#000000;fill-opacity:1;fill-rule:nonzero;stroke:none;font-family:Helvetica;-inkscape-font-specification:Helvetica">:Konkreter</tspan></text>

</g></g><g
           id="g262"><g
             clip-path="url(#clipPath266)"
             id="g264"><text
   transform="matrix(1,0,0,-1,673.18,497.83)"
   id="text270"><tspan
     x="0"
     y="0"
     id="tspan272"
     style="font-size:15.96000004px;font-variant:normal;font-weight:normal;writing-mode:lr-tb;fill:#000000;fill-opacity:1;fill-rule:nonzero;stroke:none;font-family:Helvetica;-inkscape-font-specification:Helvetica">-</tspan></text>

</g></g><g
           id="g274"><g
             clip-path="url(#clipPath278)"
             id="g276" /></g><g
           id="g282"><g
             clip-path="url(#clipPath286)"
             id="g284"><text
   transform="matrix(1,0,0,-1,616.27,479.59)"
   id="text290"><tspan
     x="0 10.64532 19.519079 23.955959 32.861641 41.735401"
     y="0"
     id="tspan292"
     style="font-size:15.96000004px;font-variant:normal;font-weight:normal;writing-mode:lr-tb;fill:#000000;fill-opacity:1;fill-rule:nonzero;stroke:none;font-family:Helvetica;-inkscape-font-specification:Helvetica">Befehl</tspan></text>

</g></g><g
           id="g294"><g
             clip-path="url(#clipPath298)"
             id="g296" /></g></g></g><path
       d="m 720,524.15 107.55,0 0,51.1 -107.55,0 0,-51.1 z"
       inkscape:connector-curvature="0"
       id="path302"
       style="fill:#ffffff;fill-opacity:1;fill-rule:evenodd;stroke:none" /><path
       d="m 720,524.15 107.55,0 0,51.1 -107.55,0 0,-51.1 z"
       inkscape:connector-curvature="0"
       id="path304"
       style="fill:none;stroke:#000000;stroke-width:0.75;stroke-linecap:round;stroke-linejoin:miter;stroke-miterlimit:10;stroke-opacity:1;stroke-dasharray:none" /><g
       id="g306"><g
         clip-path="url(#clipPath310)"
         id="g308"><g
           id="g314"><g
             clip-path="url(#clipPath318)"
             id="g316"><text
   transform="matrix(1,0,0,-1,743.38,542.83)"
   id="text322"><tspan
     x="0 4.4368801 15.0822 23.955959 28.392839 33.70752 42.58128 47.018162 55.891918"
     y="0"
     id="tspan324"
     style="font-size:15.96000004px;font-variant:normal;font-weight:normal;writing-mode:lr-tb;fill:#000000;fill-opacity:1;fill-rule:nonzero;stroke:none;font-family:Helvetica;-inkscape-font-specification:Helvetica">:Aufrufer</tspan></text>

</g></g><g
           id="g326"><g
             clip-path="url(#clipPath330)"
             id="g328" /></g></g></g><path
       d="m 846,524.15 107.55,0 0,51.1 -107.55,0 0,-51.1 z"
       inkscape:connector-curvature="0"
       id="path334"
       style="fill:#ffffff;fill-opacity:1;fill-rule:evenodd;stroke:none" /><path
       d="m 846,524.15 107.55,0 0,51.1 -107.55,0 0,-51.1 z"
       inkscape:connector-curvature="0"
       id="path336"
       style="fill:none;stroke:#000000;stroke-width:0.75;stroke-linecap:round;stroke-linejoin:miter;stroke-miterlimit:10;stroke-opacity:1;stroke-dasharray:none" /><g
       id="g338"><g
         clip-path="url(#clipPath342)"
         id="g340"><g
           id="g346"><g
             clip-path="url(#clipPath350)"
             id="g348"><text
   transform="matrix(1,0,0,-1,854.28,542.83)"
   id="text354"><tspan
     x="0 4.4368801 15.0822 28.424761 37.298519 41.735401 50.609161 59.482922 68.356682 77.230438 86.104202"
     y="0"
     id="tspan356"
     style="font-size:15.96000004px;font-variant:normal;font-weight:normal;writing-mode:lr-tb;fill:#000000;fill-opacity:1;fill-rule:nonzero;stroke:none;font-family:Helvetica;-inkscape-font-specification:Helvetica">:Empfaenger</tspan></text>

</g></g><g
           id="g358"><g
             clip-path="url(#clipPath362)"
             id="g360" /></g></g></g><path
       d="m 474.75,404.8 279,-0.05 c 0.28,0 0.5,-0.22 0.5,-0.5 0,-0.27 -0.22,-0.5 -0.5,-0.5 l -279,0.05 c -0.28,0 -0.5,0.22 -0.5,0.5 0,0.28 0.22,0.5 0.5,0.5 z m 278,4.45 10,-5 -10,-5 0,10 z"
       inkscape:connector-curvature="0"
       id="path366"
       style="fill:#000000;fill-opacity:1;fill-rule:nonzero;stroke:none" /><g
       id="g368"><g
         clip-path="url(#clipPath372)"
         id="g370"><g
           id="g376"><g
             clip-path="url(#clipPath380)"
             id="g378"><text
   transform="matrix(1,0,0,-1,565.27,407.57)"
   id="text384"><tspan
     x="0"
     y="0"
     id="tspan386"
     style="font-size:12px;font-variant:normal;font-weight:normal;writing-mode:lr-tb;fill:#000000;fill-opacity:1;fill-rule:nonzero;stroke:none;font-family:Helvetica;-inkscape-font-specification:Helvetica">a</tspan></text>

</g></g><g
           id="g388"><g
             clip-path="url(#clipPath392)"
             id="g390"><text
   transform="matrix(1,0,0,-1,571.99,407.57)"
   id="text396"><tspan
     x="0 6 9.3360004 12 17.879999 20.544001 27.216 31.212 37.883999"
     y="0"
     id="tspan398"
     style="font-size:12px;font-variant:normal;font-weight:normal;writing-mode:lr-tb;fill:#000000;fill-opacity:1;fill-rule:nonzero;stroke:none;font-family:Helvetica;-inkscape-font-specification:Helvetica">ktivieren</tspan></text>

</g></g><g
           id="g400"><g
             clip-path="url(#clipPath404)"
             id="g402"><text
   transform="matrix(1,0,0,-1,616.63,407.57)"
   id="text408"><tspan
     x="0 3.96"
     y="0"
     id="tspan410"
     style="font-size:12px;font-variant:normal;font-weight:normal;writing-mode:lr-tb;fill:#000000;fill-opacity:1;fill-rule:nonzero;stroke:none;font-family:Helvetica;-inkscape-font-specification:Helvetica">()</tspan></text>

</g></g><g
           id="g412"><g
             clip-path="url(#clipPath416)"
             id="g414" /></g></g></g><path
       d="m 762.35,377.25 22.75,0 0,27 -22.75,0 0,-27 z"
       inkscape:connector-curvature="0"
       id="path420"
       style="fill:#ffffff;fill-opacity:1;fill-rule:evenodd;stroke:none" /><path
       d="m 762.35,377.25 22.75,0 0,27 -22.75,0 0,-27 z"
       inkscape:connector-curvature="0"
       id="path422"
       style="fill:none;stroke:#000000;stroke-width:0.75;stroke-linecap:round;stroke-linejoin:miter;stroke-miterlimit:10;stroke-opacity:1;stroke-dasharray:none" /><path
       d="m 626.6,350 22.75,0 0,27.25 -22.75,0 0,-27.25 z"
       inkscape:connector-curvature="0"
       id="path424"
       style="fill:#ffffff;fill-opacity:1;fill-rule:evenodd;stroke:none" /><path
       d="m 626.6,350 22.75,0 0,27.25 -22.75,0 0,-27.25 z"
       inkscape:connector-curvature="0"
       id="path426"
       style="fill:#ffffff;fill-opacity:1;fill-rule:evenodd;stroke:none" /><path
       d="m 626.6,350 22.75,0 0,27.25 -22.75,0 0,-27.25 z"
       inkscape:connector-curvature="0"
       id="path428"
       style="fill:none;stroke:#000000;stroke-width:0.75;stroke-linecap:round;stroke-linejoin:miter;stroke-miterlimit:10;stroke-opacity:1;stroke-dasharray:none" /><path
       d="m 454.25,395.25 22.75,0 0,94.45 -22.75,0 0,-94.45 z"
       inkscape:connector-curvature="0"
       id="path430"
       style="fill:#ffffff;fill-opacity:1;fill-rule:evenodd;stroke:none" /><path
       d="m 454.25,395.25 22.75,0 0,94.45 -22.75,0 0,-94.45 z"
       inkscape:connector-curvature="0"
       id="path432"
       style="fill:none;stroke:#000000;stroke-width:0.75;stroke-linecap:round;stroke-linejoin:miter;stroke-miterlimit:10;stroke-opacity:1;stroke-dasharray:none" /></g></svg>