<?xml version="1.0" encoding="UTF-8" standalone="no"?>
<!-- Created with Inkscape (http://www.inkscape.org/) -->

<svg
   xmlns:dc="http://purl.org/dc/elements/1.1/"
   xmlns:cc="http://creativecommons.org/ns#"
   xmlns:rdf="http://www.w3.org/1999/02/22-rdf-syntax-ns#"
   xmlns:svg="http://www.w3.org/2000/svg"
   xmlns="http://www.w3.org/2000/svg"
   xmlns:sodipodi="http://sodipodi.sourceforge.net/DTD/sodipodi-0.dtd"
   xmlns:inkscape="http://www.inkscape.org/namespaces/inkscape"
   version="1.1"
   width="340.125"
   height="261.4375"
   id="svg2"
   xml:space="preserve"
   inkscape:version="0.48.4 r9939"
   sodipodi:docname="Bild 4-16 Beispiel für ein Klassendiagramm des Fassade-Musters.svg"><sodipodi:namedview
     pagecolor="#ffffff"
     bordercolor="#666666"
     borderopacity="1"
     objecttolerance="10"
     gridtolerance="10"
     guidetolerance="10"
     inkscape:pageopacity="0"
     inkscape:pageshadow="2"
     inkscape:window-width="640"
     inkscape:window-height="480"
     id="namedview307"
     showgrid="false"
     inkscape:zoom="0.18730159"
     inkscape:cx="124.59375"
     inkscape:cy="205.65625"
     inkscape:window-x="0"
     inkscape:window-y="0"
     inkscape:window-maximized="0"
     inkscape:current-layer="svg2" /><metadata
     id="metadata8"><rdf:RDF><cc:Work
         rdf:about=""><dc:format>image/svg+xml</dc:format><dc:type
           rdf:resource="http://purl.org/dc/dcmitype/StillImage" /></cc:Work></rdf:RDF></metadata><defs
     id="defs6"><clipPath
       id="clipPath28"><path
         d="m 426.41,520.75 63.75,0 0,23.4 -63.75,0 0,-23.4 z"
         inkscape:connector-curvature="0"
         id="path30" /></clipPath><clipPath
       id="clipPath36"><path
         d="m 426.41,520.75 63.744,0 0,23.4 -63.744,0 0,-23.4 z"
         inkscape:connector-curvature="0"
         id="path38" /></clipPath><clipPath
       id="clipPath48"><path
         d="m 426.41,520.75 63.744,0 0,23.4 -63.744,0 0,-23.4 z"
         inkscape:connector-curvature="0"
         id="path50" /></clipPath><clipPath
       id="clipPath58"><path
         d="m 509,520.75 63.72,0 0,23.4 -63.72,0 0,-23.4 z"
         inkscape:connector-curvature="0"
         id="path60" /></clipPath><clipPath
       id="clipPath66"><path
         d="m 508.99,520.75 63.72,0 0,23.4 -63.72,0 0,-23.4 z"
         inkscape:connector-curvature="0"
         id="path68" /></clipPath><clipPath
       id="clipPath78"><path
         d="m 508.99,520.75 63.72,0 0,23.4 -63.72,0 0,-23.4 z"
         inkscape:connector-curvature="0"
         id="path80" /></clipPath><clipPath
       id="clipPath88"><path
         d="m 590.72,520.75 63.735,0 0,23.4 -63.735,0 0,-23.4 z"
         inkscape:connector-curvature="0"
         id="path90" /></clipPath><clipPath
       id="clipPath96"><path
         d="m 590.71,520.75 63.744,0 0,23.4 -63.744,0 0,-23.4 z"
         inkscape:connector-curvature="0"
         id="path98" /></clipPath><clipPath
       id="clipPath108"><path
         d="m 590.71,520.75 63.744,0 0,23.4 -63.744,0 0,-23.4 z"
         inkscape:connector-curvature="0"
         id="path110" /></clipPath><clipPath
       id="clipPath120"><path
         d="m 509.72,468.19 63.72,0 0,23.52 -63.72,0 0,-23.52 z"
         inkscape:connector-curvature="0"
         id="path122" /></clipPath><clipPath
       id="clipPath128"><path
         d="m 509.71,468.19 63.72,0 0,23.52 -63.72,0 0,-23.52 z"
         inkscape:connector-curvature="0"
         id="path130" /></clipPath><clipPath
       id="clipPath140"><path
         d="m 509.71,468.19 63.72,0 0,23.52 -63.72,0 0,-23.52 z"
         inkscape:connector-curvature="0"
         id="path142" /></clipPath><clipPath
       id="clipPath178"><path
         d="m 415.25,408.16 68.91,0 0,27.24 -68.91,0 0,-27.24 z"
         inkscape:connector-curvature="0"
         id="path180" /></clipPath><clipPath
       id="clipPath186"><path
         d="m 415.25,408.17 68.904,0 0,27.24 -68.904,0 0,-27.24 z"
         inkscape:connector-curvature="0"
         id="path188" /></clipPath><clipPath
       id="clipPath198"><path
         d="m 415.25,408.17 68.904,0 0,27.24 -68.904,0 0,-27.24 z"
         inkscape:connector-curvature="0"
         id="path200" /></clipPath><clipPath
       id="clipPath210"><path
         d="m 415.25,408.17 68.904,0 0,27.24 -68.904,0 0,-27.24 z"
         inkscape:connector-curvature="0"
         id="path212" /></clipPath><clipPath
       id="clipPath222"><path
         d="m 415.25,408.17 68.904,0 0,27.24 -68.904,0 0,-27.24 z"
         inkscape:connector-curvature="0"
         id="path224" /></clipPath><clipPath
       id="clipPath234"><path
         d="m 415.25,408.17 68.904,0 0,27.24 -68.904,0 0,-27.24 z"
         inkscape:connector-curvature="0"
         id="path236" /></clipPath><clipPath
       id="clipPath246"><path
         d="m 415.25,408.17 68.904,0 0,27.24 -68.904,0 0,-27.24 z"
         inkscape:connector-curvature="0"
         id="path248" /></clipPath><clipPath
       id="clipPath254"><path
         d="m 415.25,408.17 68.904,0 0,27.24 -68.904,0 0,-27.24 z"
         inkscape:connector-curvature="0"
         id="path256" /></clipPath><clipPath
       id="clipPath266"><path
         d="m 415.25,408.17 68.904,0 0,27.24 -68.904,0 0,-27.24 z"
         inkscape:connector-curvature="0"
         id="path268" /></clipPath><clipPath
       id="clipPath274"><path
         d="m 415.25,408.17 68.904,0 0,27.24 -68.904,0 0,-27.24 z"
         inkscape:connector-curvature="0"
         id="path276" /></clipPath><clipPath
       id="clipPath286"><path
         d="m 415.25,352.72 68.91,0 0,27.24 -68.91,0 0,-27.24 z"
         inkscape:connector-curvature="0"
         id="path288" /></clipPath><clipPath
       id="clipPath294"><path
         d="m 415.25,352.73 68.904,0 0,27.24 -68.904,0 0,-27.24 z"
         inkscape:connector-curvature="0"
         id="path296" /></clipPath><clipPath
       id="clipPath306"><path
         d="m 415.25,352.73 68.904,0 0,27.24 -68.904,0 0,-27.24 z"
         inkscape:connector-curvature="0"
         id="path308" /></clipPath><clipPath
       id="clipPath318"><path
         d="m 415.25,352.73 68.904,0 0,27.24 -68.904,0 0,-27.24 z"
         inkscape:connector-curvature="0"
         id="path320" /></clipPath><clipPath
       id="clipPath330"><path
         d="m 415.25,352.73 68.904,0 0,27.24 -68.904,0 0,-27.24 z"
         inkscape:connector-curvature="0"
         id="path332" /></clipPath><clipPath
       id="clipPath342"><path
         d="m 415.25,352.73 68.904,0 0,27.24 -68.904,0 0,-27.24 z"
         inkscape:connector-curvature="0"
         id="path344" /></clipPath><clipPath
       id="clipPath354"><path
         d="m 415.25,352.73 68.904,0 0,27.24 -68.904,0 0,-27.24 z"
         inkscape:connector-curvature="0"
         id="path356" /></clipPath><clipPath
       id="clipPath362"><path
         d="m 415.25,352.73 68.904,0 0,27.24 -68.904,0 0,-27.24 z"
         inkscape:connector-curvature="0"
         id="path364" /></clipPath><clipPath
       id="clipPath370"><path
         d="m 415.25,352.73 68.904,0 0,27.24 -68.904,0 0,-27.24 z"
         inkscape:connector-curvature="0"
         id="path372" /></clipPath><clipPath
       id="clipPath382"><path
         d="m 596.72,408.16 69.015,0 0,27.24 -69.015,0 0,-27.24 z"
         inkscape:connector-curvature="0"
         id="path384" /></clipPath><clipPath
       id="clipPath390"><path
         d="m 596.71,408.17 69.024,0 0,27.24 -69.024,0 0,-27.24 z"
         inkscape:connector-curvature="0"
         id="path392" /></clipPath><clipPath
       id="clipPath402"><path
         d="m 596.71,408.17 69.024,0 0,27.24 -69.024,0 0,-27.24 z"
         inkscape:connector-curvature="0"
         id="path404" /></clipPath><clipPath
       id="clipPath414"><path
         d="m 596.71,408.17 69.024,0 0,27.24 -69.024,0 0,-27.24 z"
         inkscape:connector-curvature="0"
         id="path416" /></clipPath><clipPath
       id="clipPath426"><path
         d="m 596.71,408.17 69.024,0 0,27.24 -69.024,0 0,-27.24 z"
         inkscape:connector-curvature="0"
         id="path428" /></clipPath><clipPath
       id="clipPath438"><path
         d="m 596.71,408.17 69.024,0 0,27.24 -69.024,0 0,-27.24 z"
         inkscape:connector-curvature="0"
         id="path440" /></clipPath><clipPath
       id="clipPath450"><path
         d="m 596.71,408.17 69.024,0 0,27.24 -69.024,0 0,-27.24 z"
         inkscape:connector-curvature="0"
         id="path452" /></clipPath><clipPath
       id="clipPath458"><path
         d="m 596.71,408.17 69.024,0 0,27.24 -69.024,0 0,-27.24 z"
         inkscape:connector-curvature="0"
         id="path460" /></clipPath><clipPath
       id="clipPath466"><path
         d="m 596.71,408.17 69.024,0 0,27.24 -69.024,0 0,-27.24 z"
         inkscape:connector-curvature="0"
         id="path468" /></clipPath><clipPath
       id="clipPath478"><path
         d="m 596.72,352.72 69.015,0 0,27.24 -69.015,0 0,-27.24 z"
         inkscape:connector-curvature="0"
         id="path480" /></clipPath><clipPath
       id="clipPath486"><path
         d="m 596.71,352.73 69.024,0 0,27.24 -69.024,0 0,-27.24 z"
         inkscape:connector-curvature="0"
         id="path488" /></clipPath><clipPath
       id="clipPath498"><path
         d="m 596.71,352.73 69.024,0 0,27.24 -69.024,0 0,-27.24 z"
         inkscape:connector-curvature="0"
         id="path500" /></clipPath><clipPath
       id="clipPath510"><path
         d="m 596.71,352.73 69.024,0 0,27.24 -69.024,0 0,-27.24 z"
         inkscape:connector-curvature="0"
         id="path512" /></clipPath><clipPath
       id="clipPath522"><path
         d="m 596.71,352.73 69.024,0 0,27.24 -69.024,0 0,-27.24 z"
         inkscape:connector-curvature="0"
         id="path524" /></clipPath><clipPath
       id="clipPath534"><path
         d="m 596.71,352.73 69.024,0 0,27.24 -69.024,0 0,-27.24 z"
         inkscape:connector-curvature="0"
         id="path536" /></clipPath><clipPath
       id="clipPath546"><path
         d="m 596.71,352.73 69.024,0 0,27.24 -69.024,0 0,-27.24 z"
         inkscape:connector-curvature="0"
         id="path548" /></clipPath><clipPath
       id="clipPath554"><path
         d="m 596.71,352.73 69.024,0 0,27.24 -69.024,0 0,-27.24 z"
         inkscape:connector-curvature="0"
         id="path556" /></clipPath><clipPath
       id="clipPath566"><path
         d="m 596.71,352.73 69.024,0 0,27.24 -69.024,0 0,-27.24 z"
         inkscape:connector-curvature="0"
         id="path568" /></clipPath><clipPath
       id="clipPath574"><path
         d="m 596.71,352.73 69.024,0 0,27.24 -69.024,0 0,-27.24 z"
         inkscape:connector-curvature="0"
         id="path576" /></clipPath><clipPath
       id="clipPath582"><path
         d="m 596.71,352.73 69.024,0 0,27.24 -69.024,0 0,-27.24 z"
         inkscape:connector-curvature="0"
         id="path584" /></clipPath><clipPath
       id="clipPath590"><path
         d="m 406.85,451.15 69.63,0 0,24.24 -69.63,0 0,-24.24 z"
         inkscape:connector-curvature="0"
         id="path592" /></clipPath><clipPath
       id="clipPath598"><path
         d="m 406.85,451.15 69.624,0 0,24.24 -69.624,0 0,-24.24 z"
         inkscape:connector-curvature="0"
         id="path600" /></clipPath><clipPath
       id="clipPath610"><path
         d="m 406.85,451.15 69.624,0 0,24.24 -69.624,0 0,-24.24 z"
         inkscape:connector-curvature="0"
         id="path612" /></clipPath></defs><g
     transform="matrix(1.25,0,0,-1.25,-505.78125,685.78125)"
     id="g10"><path
       d="m 509.05,514.75 64,0 0,32 -64,0 0,-32 z"
       inkscape:connector-curvature="0"
       id="path12"
       style="fill:none;stroke:#ecf2f5;stroke-width:0.14;stroke-linecap:round;stroke-linejoin:miter;stroke-miterlimit:10;stroke-opacity:1;stroke-dasharray:none" /><path
       d="m 405,479.05 53.75,0 0,16 -53.75,0 0,-16 z"
       inkscape:connector-curvature="0"
       id="path14"
       style="fill:#ffffff;fill-opacity:1;fill-rule:evenodd;stroke:none" /><path
       d="m 405,479.05 53.75,0 0,16 -53.75,0 0,-16 z"
       inkscape:connector-curvature="0"
       id="path16"
       style="fill:none;stroke:#ffffff;stroke-width:0.14;stroke-linecap:round;stroke-linejoin:miter;stroke-miterlimit:10;stroke-opacity:1;stroke-dasharray:none" /><g
       id="g18"><path
         d="m 405,339.85 271.35,0 0,139.2 -271.35,0 0,-139.2 z"
         inkscape:connector-curvature="0"
         id="path20"
         style="fill:none;stroke:#000000;stroke-width:0.75;stroke-linecap:butt;stroke-linejoin:miter;stroke-miterlimit:10;stroke-opacity:1;stroke-dasharray:6, 2.25;stroke-dashoffset:0" /></g><path
       d="m 426,516.75 64.5,0 0,31.5 -64.5,0 0,-31.5 z"
       inkscape:connector-curvature="0"
       id="path22"
       style="fill:none;stroke:#000000;stroke-width:0.75;stroke-linecap:round;stroke-linejoin:miter;stroke-miterlimit:10;stroke-opacity:1;stroke-dasharray:none" /><g
       id="g24"><g
         clip-path="url(#clipPath28)"
         id="g26"><g
           id="g32"><g
             clip-path="url(#clipPath36)"
             id="g34"><text
   transform="matrix(1,0,0,-1,438.29,532.63)"
   id="text40"><tspan
     x="0 8.6639996 12 15.336 22.068001 29.4 33.348"
     y="0"
     id="tspan42"
     style="font-size:12px;font-variant:normal;font-weight:bold;writing-mode:lr-tb;fill:#000000;fill-opacity:1;fill-rule:nonzero;stroke:none;font-family:Helvetica;-inkscape-font-specification:Helvetica-Bold">Client1</tspan></text>

</g></g><g
           id="g44"><g
             clip-path="url(#clipPath48)"
             id="g46" /></g></g></g><path
       d="m 508.5,516.75 64.5,0 0,31.5 -64.5,0 0,-31.5 z"
       inkscape:connector-curvature="0"
       id="path52"
       style="fill:none;stroke:#000000;stroke-width:0.75;stroke-linecap:round;stroke-linejoin:miter;stroke-miterlimit:10;stroke-opacity:1;stroke-dasharray:none" /><g
       id="g54"><g
         clip-path="url(#clipPath58)"
         id="g56"><g
           id="g62"><g
             clip-path="url(#clipPath66)"
             id="g64"><text
   transform="matrix(1,0,0,-1,520.87,532.63)"
   id="text70"><tspan
     x="0 8.6639996 12 15.336 22.068001 29.4 33.348"
     y="0"
     id="tspan72"
     style="font-size:12px;font-variant:normal;font-weight:bold;writing-mode:lr-tb;fill:#000000;fill-opacity:1;fill-rule:nonzero;stroke:none;font-family:Helvetica;-inkscape-font-specification:Helvetica-Bold">Client2</tspan></text>

</g></g><g
           id="g74"><g
             clip-path="url(#clipPath78)"
             id="g76" /></g></g></g><path
       d="m 590.25,516.75 64.5,0 0,31.5 -64.5,0 0,-31.5 z"
       inkscape:connector-curvature="0"
       id="path82"
       style="fill:none;stroke:#000000;stroke-width:0.75;stroke-linecap:round;stroke-linejoin:miter;stroke-miterlimit:10;stroke-opacity:1;stroke-dasharray:none" /><g
       id="g84"><g
         clip-path="url(#clipPath88)"
         id="g86"><g
           id="g92"><g
             clip-path="url(#clipPath96)"
             id="g94"><text
   transform="matrix(1,0,0,-1,602.59,532.63)"
   id="text100"><tspan
     x="0 8.6639996 12 15.336 22.068001 29.4 33.348"
     y="0"
     id="tspan102"
     style="font-size:12px;font-variant:normal;font-weight:bold;writing-mode:lr-tb;fill:#000000;fill-opacity:1;fill-rule:nonzero;stroke:none;font-family:Helvetica;-inkscape-font-specification:Helvetica-Bold">Client3</tspan></text>

</g></g><g
           id="g104"><g
             clip-path="url(#clipPath108)"
             id="g106" /></g></g></g><path
       d="m 509.25,464.25 64.5,0 0,31.5 -64.5,0 0,-31.5 z"
       inkscape:connector-curvature="0"
       id="path112"
       style="fill:#ffffff;fill-opacity:1;fill-rule:evenodd;stroke:none" /><path
       d="m 509.25,464.25 64.5,0 0,31.5 -64.5,0 0,-31.5 z"
       inkscape:connector-curvature="0"
       id="path114"
       style="fill:none;stroke:#000000;stroke-width:0.75;stroke-linecap:round;stroke-linejoin:miter;stroke-miterlimit:10;stroke-opacity:1;stroke-dasharray:none" /><g
       id="g116"><g
         clip-path="url(#clipPath120)"
         id="g118"><g
           id="g124"><g
             clip-path="url(#clipPath128)"
             id="g126"><text
   transform="matrix(1,0,0,-1,517.51,480.31)"
   id="text132"><tspan
     x="0 7.3319998 14.004 20.747999 27.455999 34.164001 41.363998"
     y="0"
     id="tspan134"
     style="font-size:12px;font-variant:normal;font-weight:bold;writing-mode:lr-tb;fill:#000000;fill-opacity:1;fill-rule:nonzero;stroke:none;font-family:Helvetica;-inkscape-font-specification:Helvetica-Bold">Fassade</tspan></text>

</g></g><g
           id="g136"><g
             clip-path="url(#clipPath140)"
             id="g138" /></g></g></g><path
       d="M 598.15,516.85 573.65,495.5"
       inkscape:connector-curvature="0"
       id="path144"
       style="fill:none;stroke:#000000;stroke-width:0.75;stroke-linecap:round;stroke-linejoin:round;stroke-miterlimit:10;stroke-opacity:1;stroke-dasharray:none" /><path
       d="m 540.9,516.75 0.05,-20.9"
       inkscape:connector-curvature="0"
       id="path146"
       style="fill:none;stroke:#000000;stroke-width:0.75;stroke-linecap:round;stroke-linejoin:round;stroke-miterlimit:10;stroke-opacity:1;stroke-dasharray:none" /><path
       d="m 483,516.65 26.45,-20.8"
       inkscape:connector-curvature="0"
       id="path148"
       style="fill:none;stroke:#000000;stroke-width:0.75;stroke-linecap:round;stroke-linejoin:round;stroke-miterlimit:10;stroke-opacity:1;stroke-dasharray:none" /><path
       d="M 509.25,464.25 483,438.75"
       inkscape:connector-curvature="0"
       id="path150"
       style="fill:none;stroke:#000000;stroke-width:0.75;stroke-linecap:round;stroke-linejoin:round;stroke-miterlimit:10;stroke-opacity:1;stroke-dasharray:none" /><path
       d="m 573.65,464.25 22.6,-24.75"
       inkscape:connector-curvature="0"
       id="path152"
       style="fill:none;stroke:#000000;stroke-width:0.75;stroke-linecap:round;stroke-linejoin:round;stroke-miterlimit:10;stroke-opacity:1;stroke-dasharray:none" /><path
       d="M 532.8,464.25 483,384"
       inkscape:connector-curvature="0"
       id="path154"
       style="fill:none;stroke:#000000;stroke-width:0.75;stroke-linecap:round;stroke-linejoin:round;stroke-miterlimit:10;stroke-opacity:1;stroke-dasharray:none" /><path
       d="M 549,464.25 597.75,384"
       inkscape:connector-curvature="0"
       id="path156"
       style="fill:none;stroke:#000000;stroke-width:0.75;stroke-linecap:round;stroke-linejoin:round;stroke-miterlimit:10;stroke-opacity:1;stroke-dasharray:none" /><path
       d="m 484.5,366.75 111.75,0"
       inkscape:connector-curvature="0"
       id="path158"
       style="fill:none;stroke:#000000;stroke-width:0.75;stroke-linecap:round;stroke-linejoin:round;stroke-miterlimit:10;stroke-opacity:1;stroke-dasharray:none" /><path
       d="M 596.25,425.25 484.5,367.5"
       inkscape:connector-curvature="0"
       id="path160"
       style="fill:none;stroke:#000000;stroke-width:0.75;stroke-linecap:round;stroke-linejoin:round;stroke-miterlimit:10;stroke-opacity:1;stroke-dasharray:none" /><path
       d="m 484.5,425.25 113.25,-58.5"
       inkscape:connector-curvature="0"
       id="path162"
       style="fill:none;stroke:#000000;stroke-width:0.75;stroke-linecap:round;stroke-linejoin:round;stroke-miterlimit:10;stroke-opacity:1;stroke-dasharray:none" /><path
       d="m 484.5,425.25 113.25,0"
       inkscape:connector-curvature="0"
       id="path164"
       style="fill:none;stroke:#000000;stroke-width:0.75;stroke-linecap:round;stroke-linejoin:round;stroke-miterlimit:10;stroke-opacity:1;stroke-dasharray:none" /><path
       d="m 450,406.5 0.05,-23.25"
       inkscape:connector-curvature="0"
       id="path166"
       style="fill:none;stroke:#000000;stroke-width:0.75;stroke-linecap:round;stroke-linejoin:round;stroke-miterlimit:10;stroke-opacity:1;stroke-dasharray:none" /><path
       d="m 630.75,406.5 0.05,-21.75"
       inkscape:connector-curvature="0"
       id="path168"
       style="fill:none;stroke:#000000;stroke-width:0.75;stroke-linecap:round;stroke-linejoin:round;stroke-miterlimit:10;stroke-opacity:1;stroke-dasharray:none" /><path
       d="m 414.75,404.25 69.75,0 0,35.25 -69.75,0 0,-35.25 z"
       inkscape:connector-curvature="0"
       id="path170"
       style="fill:#ffffff;fill-opacity:1;fill-rule:evenodd;stroke:none" /><path
       d="m 414.75,404.25 69.75,0 0,35.25 -69.75,0 0,-35.25 z"
       inkscape:connector-curvature="0"
       id="path172"
       style="fill:none;stroke:#000000;stroke-width:0.75;stroke-linecap:round;stroke-linejoin:miter;stroke-miterlimit:8;stroke-opacity:1;stroke-dasharray:none" /><g
       id="g174"><g
         clip-path="url(#clipPath178)"
         id="g176"><g
           id="g182"><g
             clip-path="url(#clipPath186)"
             id="g184"><text
   transform="matrix(1,0,0,-1,424.25,427.25)"
   id="text190"><tspan
     x="0"
     y="0"
     id="tspan192"
     style="font-size:9px;font-variant:normal;font-weight:bold;writing-mode:lr-tb;fill:#000000;fill-opacity:1;fill-rule:nonzero;stroke:none;font-family:Helvetica;-inkscape-font-specification:Helvetica-Bold">S</tspan></text>

</g></g><g
           id="g194"><g
             clip-path="url(#clipPath198)"
             id="g196"><text
   transform="matrix(1,0,0,-1,430.25,427.25)"
   id="text202"><tspan
     x="0 5.52"
     y="0"
     id="tspan204"
     style="font-size:9px;font-variant:normal;font-weight:bold;writing-mode:lr-tb;fill:#000000;fill-opacity:1;fill-rule:nonzero;stroke:none;font-family:Helvetica;-inkscape-font-specification:Helvetica-Bold">ub</tspan></text>

</g></g><g
           id="g206"><g
             clip-path="url(#clipPath210)"
             id="g208"><text
   transform="matrix(1,0,0,-1,441.29,427.25)"
   id="text214"><tspan
     x="0 5.1479998 9.8280001 14.859 17.856001 22.886999"
     y="0"
     id="tspan216"
     style="font-size:9px;font-variant:normal;font-weight:bold;writing-mode:lr-tb;fill:#000000;fill-opacity:1;fill-rule:nonzero;stroke:none;font-family:Helvetica;-inkscape-font-specification:Helvetica-Bold">system</tspan></text>

</g></g><g
           id="g218"><g
             clip-path="url(#clipPath222)"
             id="g220"><text
   transform="matrix(1,0,0,-1,472.27,427.25)"
   id="text226"><tspan
     x="0"
     y="0"
     id="tspan228"
     style="font-size:9px;font-variant:normal;font-weight:bold;writing-mode:lr-tb;fill:#000000;fill-opacity:1;fill-rule:nonzero;stroke:none;font-family:Helvetica;-inkscape-font-specification:Helvetica-Bold">-</tspan></text>

</g></g><g
           id="g230"><g
             clip-path="url(#clipPath234)"
             id="g232"><text
   transform="matrix(1,0,0,-1,432.17,416.93)"
   id="text238"><tspan
     x="0 5.0310001 7.533 12.582 17.613001 22.535999"
     y="0"
     id="tspan240"
     style="font-size:9px;font-variant:normal;font-weight:bold;writing-mode:lr-tb;fill:#000000;fill-opacity:1;fill-rule:nonzero;stroke:none;font-family:Helvetica;-inkscape-font-specification:Helvetica-Bold">klasse</tspan></text>

</g></g><g
           id="g242"><g
             clip-path="url(#clipPath246)"
             id="g244" /></g><g
           id="g250"><g
             clip-path="url(#clipPath254)"
             id="g252"><text
   transform="matrix(1,0,0,-1,462.29,416.93)"
   id="text258"><tspan
     x="0"
     y="0"
     id="tspan260"
     style="font-size:9px;font-variant:normal;font-weight:bold;writing-mode:lr-tb;fill:#000000;fill-opacity:1;fill-rule:nonzero;stroke:none;font-family:Helvetica;-inkscape-font-specification:Helvetica-Bold">1</tspan></text>

</g></g><g
           id="g262"><g
             clip-path="url(#clipPath266)"
             id="g264" /></g><g
           id="g270"><g
             clip-path="url(#clipPath274)"
             id="g272" /></g></g></g><path
       d="m 414.75,348.75 69.75,0 0,35.25 -69.75,0 0,-35.25 z"
       inkscape:connector-curvature="0"
       id="path278"
       style="fill:#ffffff;fill-opacity:1;fill-rule:evenodd;stroke:none" /><path
       d="m 414.75,348.75 69.75,0 0,35.25 -69.75,0 0,-35.25 z"
       inkscape:connector-curvature="0"
       id="path280"
       style="fill:none;stroke:#000000;stroke-width:0.75;stroke-linecap:round;stroke-linejoin:miter;stroke-miterlimit:8;stroke-opacity:1;stroke-dasharray:none" /><g
       id="g282"><g
         clip-path="url(#clipPath286)"
         id="g284"><g
           id="g290"><g
             clip-path="url(#clipPath294)"
             id="g292"><text
   transform="matrix(1,0,0,-1,424.25,371.81)"
   id="text298"><tspan
     x="0"
     y="0"
     id="tspan300"
     style="font-size:9px;font-variant:normal;font-weight:bold;writing-mode:lr-tb;fill:#000000;fill-opacity:1;fill-rule:nonzero;stroke:none;font-family:Helvetica;-inkscape-font-specification:Helvetica-Bold">S</tspan></text>

</g></g><g
           id="g302"><g
             clip-path="url(#clipPath306)"
             id="g304"><text
   transform="matrix(1,0,0,-1,430.25,371.81)"
   id="text310"><tspan
     x="0 5.52"
     y="0"
     id="tspan312"
     style="font-size:9px;font-variant:normal;font-weight:bold;writing-mode:lr-tb;fill:#000000;fill-opacity:1;fill-rule:nonzero;stroke:none;font-family:Helvetica;-inkscape-font-specification:Helvetica-Bold">ub</tspan></text>

</g></g><g
           id="g314"><g
             clip-path="url(#clipPath318)"
             id="g316"><text
   transform="matrix(1,0,0,-1,441.29,371.81)"
   id="text322"><tspan
     x="0 5.1479998 9.8280001 14.859 17.856001 22.886999"
     y="0"
     id="tspan324"
     style="font-size:9px;font-variant:normal;font-weight:bold;writing-mode:lr-tb;fill:#000000;fill-opacity:1;fill-rule:nonzero;stroke:none;font-family:Helvetica;-inkscape-font-specification:Helvetica-Bold">system</tspan></text>

</g></g><g
           id="g326"><g
             clip-path="url(#clipPath330)"
             id="g328"><text
   transform="matrix(1,0,0,-1,472.27,371.81)"
   id="text334"><tspan
     x="0"
     y="0"
     id="tspan336"
     style="font-size:9px;font-variant:normal;font-weight:bold;writing-mode:lr-tb;fill:#000000;fill-opacity:1;fill-rule:nonzero;stroke:none;font-family:Helvetica;-inkscape-font-specification:Helvetica-Bold">-</tspan></text>

</g></g><g
           id="g338"><g
             clip-path="url(#clipPath342)"
             id="g340"><text
   transform="matrix(1,0,0,-1,432.17,361.37)"
   id="text346"><tspan
     x="0 5.0310001 7.533 12.582 17.613001 22.535999 27.566999 30.069"
     y="0"
     id="tspan348"
     style="font-size:9px;font-variant:normal;font-weight:bold;writing-mode:lr-tb;fill:#000000;fill-opacity:1;fill-rule:nonzero;stroke:none;font-family:Helvetica;-inkscape-font-specification:Helvetica-Bold">klasse 2</tspan></text>

</g></g><g
           id="g350"><g
             clip-path="url(#clipPath354)"
             id="g352" /></g><g
           id="g358"><g
             clip-path="url(#clipPath362)"
             id="g360" /></g><g
           id="g366"><g
             clip-path="url(#clipPath370)"
             id="g368" /></g></g></g><path
       d="m 596.25,404.25 69.75,0 0,35.25 -69.75,0 0,-35.25 z"
       inkscape:connector-curvature="0"
       id="path374"
       style="fill:#ffffff;fill-opacity:1;fill-rule:evenodd;stroke:none" /><path
       d="m 596.25,404.25 69.75,0 0,35.25 -69.75,0 0,-35.25 z"
       inkscape:connector-curvature="0"
       id="path376"
       style="fill:none;stroke:#000000;stroke-width:0.75;stroke-linecap:round;stroke-linejoin:miter;stroke-miterlimit:8;stroke-opacity:1;stroke-dasharray:none" /><g
       id="g378"><g
         clip-path="url(#clipPath382)"
         id="g380"><g
           id="g386"><g
             clip-path="url(#clipPath390)"
             id="g388"><text
   transform="matrix(1,0,0,-1,605.71,427.25)"
   id="text394"><tspan
     x="0"
     y="0"
     id="tspan396"
     style="font-size:9px;font-variant:normal;font-weight:bold;writing-mode:lr-tb;fill:#000000;fill-opacity:1;fill-rule:nonzero;stroke:none;font-family:Helvetica;-inkscape-font-specification:Helvetica-Bold">S</tspan></text>

</g></g><g
           id="g398"><g
             clip-path="url(#clipPath402)"
             id="g400"><text
   transform="matrix(1,0,0,-1,611.71,427.25)"
   id="text406"><tspan
     x="0 5.52"
     y="0"
     id="tspan408"
     style="font-size:9px;font-variant:normal;font-weight:bold;writing-mode:lr-tb;fill:#000000;fill-opacity:1;fill-rule:nonzero;stroke:none;font-family:Helvetica;-inkscape-font-specification:Helvetica-Bold">ub</tspan></text>

</g></g><g
           id="g410"><g
             clip-path="url(#clipPath414)"
             id="g412"><text
   transform="matrix(1,0,0,-1,622.75,427.25)"
   id="text418"><tspan
     x="0 5.1479998 9.8280001 14.859 17.856001 22.886999"
     y="0"
     id="tspan420"
     style="font-size:9px;font-variant:normal;font-weight:bold;writing-mode:lr-tb;fill:#000000;fill-opacity:1;fill-rule:nonzero;stroke:none;font-family:Helvetica;-inkscape-font-specification:Helvetica-Bold">system</tspan></text>

</g></g><g
           id="g422"><g
             clip-path="url(#clipPath426)"
             id="g424"><text
   transform="matrix(1,0,0,-1,653.74,427.25)"
   id="text430"><tspan
     x="0"
     y="0"
     id="tspan432"
     style="font-size:9px;font-variant:normal;font-weight:bold;writing-mode:lr-tb;fill:#000000;fill-opacity:1;fill-rule:nonzero;stroke:none;font-family:Helvetica;-inkscape-font-specification:Helvetica-Bold">-</tspan></text>

</g></g><g
           id="g434"><g
             clip-path="url(#clipPath438)"
             id="g436"><text
   transform="matrix(1,0,0,-1,613.63,416.93)"
   id="text442"><tspan
     x="0 5.0310001 7.533 12.582 17.613001 22.535999 27.566999 30.069"
     y="0"
     id="tspan444"
     style="font-size:9px;font-variant:normal;font-weight:bold;writing-mode:lr-tb;fill:#000000;fill-opacity:1;fill-rule:nonzero;stroke:none;font-family:Helvetica;-inkscape-font-specification:Helvetica-Bold">klasse 3</tspan></text>

</g></g><g
           id="g446"><g
             clip-path="url(#clipPath450)"
             id="g448" /></g><g
           id="g454"><g
             clip-path="url(#clipPath458)"
             id="g456" /></g><g
           id="g462"><g
             clip-path="url(#clipPath466)"
             id="g464" /></g></g></g><path
       d="m 596.25,348.75 69.75,0 0,35.25 -69.75,0 0,-35.25 z"
       inkscape:connector-curvature="0"
       id="path470"
       style="fill:#ffffff;fill-opacity:1;fill-rule:evenodd;stroke:none" /><path
       d="m 596.25,348.75 69.75,0 0,35.25 -69.75,0 0,-35.25 z"
       inkscape:connector-curvature="0"
       id="path472"
       style="fill:none;stroke:#000000;stroke-width:0.75;stroke-linecap:round;stroke-linejoin:miter;stroke-miterlimit:8;stroke-opacity:1;stroke-dasharray:none" /><g
       id="g474"><g
         clip-path="url(#clipPath478)"
         id="g476"><g
           id="g482"><g
             clip-path="url(#clipPath486)"
             id="g484"><text
   transform="matrix(1,0,0,-1,605.71,371.81)"
   id="text490"><tspan
     x="0"
     y="0"
     id="tspan492"
     style="font-size:9px;font-variant:normal;font-weight:bold;writing-mode:lr-tb;fill:#000000;fill-opacity:1;fill-rule:nonzero;stroke:none;font-family:Helvetica;-inkscape-font-specification:Helvetica-Bold">S</tspan></text>

</g></g><g
           id="g494"><g
             clip-path="url(#clipPath498)"
             id="g496"><text
   transform="matrix(1,0,0,-1,611.71,371.81)"
   id="text502"><tspan
     x="0 5.52"
     y="0"
     id="tspan504"
     style="font-size:9px;font-variant:normal;font-weight:bold;writing-mode:lr-tb;fill:#000000;fill-opacity:1;fill-rule:nonzero;stroke:none;font-family:Helvetica;-inkscape-font-specification:Helvetica-Bold">ub</tspan></text>

</g></g><g
           id="g506"><g
             clip-path="url(#clipPath510)"
             id="g508"><text
   transform="matrix(1,0,0,-1,622.75,371.81)"
   id="text514"><tspan
     x="0 5.1479998 9.8280001 14.859 17.856001 22.886999"
     y="0"
     id="tspan516"
     style="font-size:9px;font-variant:normal;font-weight:bold;writing-mode:lr-tb;fill:#000000;fill-opacity:1;fill-rule:nonzero;stroke:none;font-family:Helvetica;-inkscape-font-specification:Helvetica-Bold">system</tspan></text>

</g></g><g
           id="g518"><g
             clip-path="url(#clipPath522)"
             id="g520"><text
   transform="matrix(1,0,0,-1,653.74,371.81)"
   id="text526"><tspan
     x="0"
     y="0"
     id="tspan528"
     style="font-size:9px;font-variant:normal;font-weight:bold;writing-mode:lr-tb;fill:#000000;fill-opacity:1;fill-rule:nonzero;stroke:none;font-family:Helvetica;-inkscape-font-specification:Helvetica-Bold">-</tspan></text>

</g></g><g
           id="g530"><g
             clip-path="url(#clipPath534)"
             id="g532"><text
   transform="matrix(1,0,0,-1,613.63,361.37)"
   id="text538"><tspan
     x="0 5.0310001 7.533 12.582 17.613001 22.535999"
     y="0"
     id="tspan540"
     style="font-size:9px;font-variant:normal;font-weight:bold;writing-mode:lr-tb;fill:#000000;fill-opacity:1;fill-rule:nonzero;stroke:none;font-family:Helvetica;-inkscape-font-specification:Helvetica-Bold">klasse</tspan></text>

</g></g><g
           id="g542"><g
             clip-path="url(#clipPath546)"
             id="g544" /></g><g
           id="g550"><g
             clip-path="url(#clipPath554)"
             id="g552"><text
   transform="matrix(1,0,0,-1,643.75,361.37)"
   id="text558"><tspan
     x="0"
     y="0"
     id="tspan560"
     style="font-size:9px;font-variant:normal;font-weight:bold;writing-mode:lr-tb;fill:#000000;fill-opacity:1;fill-rule:nonzero;stroke:none;font-family:Helvetica;-inkscape-font-specification:Helvetica-Bold">4</tspan></text>

</g></g><g
           id="g562"><g
             clip-path="url(#clipPath566)"
             id="g564" /></g><g
           id="g570"><g
             clip-path="url(#clipPath574)"
             id="g572" /></g><g
           id="g578"><g
             clip-path="url(#clipPath582)"
             id="g580" /></g></g></g><g
       id="g586"><g
         clip-path="url(#clipPath590)"
         id="g588"><g
           id="g594"><g
             clip-path="url(#clipPath598)"
             id="g596"><text
   transform="matrix(1,0,0,-1,415.01,465.79)"
   id="text602"><tspan
     x="0 6.6034799 12.70896 18.81444 24.441839 29.84016 35.377918 38.834042 44.371799"
     y="0"
     id="tspan604"
     style="font-size:9.96000004px;font-variant:normal;font-weight:bold;writing-mode:lr-tb;fill:#000000;fill-opacity:1;fill-rule:nonzero;stroke:none;font-family:Helvetica;-inkscape-font-specification:Helvetica-Bold">Subsystem</tspan></text>

</g></g><g
           id="g606"><g
             clip-path="url(#clipPath610)"
             id="g608" /></g></g></g></g></svg>