<?xml version="1.0" encoding="UTF-8" standalone="no"?>
<!-- Created with Inkscape (http://www.inkscape.org/) -->

<svg
   xmlns:dc="http://purl.org/dc/elements/1.1/"
   xmlns:cc="http://creativecommons.org/ns#"
   xmlns:rdf="http://www.w3.org/1999/02/22-rdf-syntax-ns#"
   xmlns:svg="http://www.w3.org/2000/svg"
   xmlns="http://www.w3.org/2000/svg"
   xmlns:sodipodi="http://sodipodi.sourceforge.net/DTD/sodipodi-0.dtd"
   xmlns:inkscape="http://www.inkscape.org/namespaces/inkscape"
   version="1.1"
   width="340.9375"
   height="195.875"
   id="svg2"
   xml:space="preserve"
   inkscape:version="0.48.4 r9939"
   sodipodi:docname="Bild 4-13 Erweiterung von Funktionalität durch Ableiten.svg"><sodipodi:namedview
     pagecolor="#ffffff"
     bordercolor="#666666"
     borderopacity="1"
     objecttolerance="10"
     gridtolerance="10"
     guidetolerance="10"
     inkscape:pageopacity="0"
     inkscape:pageshadow="2"
     inkscape:window-width="640"
     inkscape:window-height="480"
     id="namedview108"
     showgrid="false"
     inkscape:zoom="0.18730159"
     inkscape:cx="38.21875"
     inkscape:cy="102.59375"
     inkscape:window-x="0"
     inkscape:window-y="0"
     inkscape:window-maximized="0"
     inkscape:current-layer="svg2" /><metadata
     id="metadata8"><rdf:RDF><cc:Work
         rdf:about=""><dc:format>image/svg+xml</dc:format><dc:type
           rdf:resource="http://purl.org/dc/dcmitype/StillImage" /></cc:Work></rdf:RDF></metadata><defs
     id="defs6"><clipPath
       id="clipPath20"><path
         d="m 564.08,551.23 92.535,0 0,22.92 -92.535,0 0,-22.92 z"
         inkscape:connector-curvature="0"
         id="path22" /></clipPath><clipPath
       id="clipPath28"><path
         d="m 564.07,551.23 92.544,0 0,22.92 -92.544,0 0,-22.92 z"
         inkscape:connector-curvature="0"
         id="path30" /></clipPath><clipPath
       id="clipPath40"><path
         d="m 564.07,551.23 92.544,0 0,22.92 -92.544,0 0,-22.92 z"
         inkscape:connector-curvature="0"
         id="path42" /></clipPath><clipPath
       id="clipPath48"><path
         d="m 564.07,551.23 92.544,0 0,22.92 -92.544,0 0,-22.92 z"
         inkscape:connector-curvature="0"
         id="path50" /></clipPath><clipPath
       id="clipPath60"><path
         d="m 564.07,551.23 92.544,0 0,22.92 -92.544,0 0,-22.92 z"
         inkscape:connector-curvature="0"
         id="path62" /></clipPath><clipPath
       id="clipPath72"><path
         d="m 474.56,488.71 111.96,0 0,14.64 -111.96,0 0,-14.64 z"
         inkscape:connector-curvature="0"
         id="path74" /></clipPath><clipPath
       id="clipPath80"><path
         d="m 474.55,488.71 111.96,0 0,14.64 -111.96,0 0,-14.64 z"
         inkscape:connector-curvature="0"
         id="path82" /></clipPath><clipPath
       id="clipPath92"><path
         d="m 474.55,488.71 111.96,0 0,14.64 -111.96,0 0,-14.64 z"
         inkscape:connector-curvature="0"
         id="path94" /></clipPath><clipPath
       id="clipPath104"><path
         d="m 633.8,488.71 111.85,0 0,14.64 -111.85,0 0,-14.64 z"
         inkscape:connector-curvature="0"
         id="path106" /></clipPath><clipPath
       id="clipPath112"><path
         d="m 633.79,488.71 111.86,0 0,14.64 -111.86,0 0,-14.64 z"
         inkscape:connector-curvature="0"
         id="path114" /></clipPath><clipPath
       id="clipPath124"><path
         d="m 633.79,488.71 111.86,0 0,14.64 -111.86,0 0,-14.64 z"
         inkscape:connector-curvature="0"
         id="path126" /></clipPath><clipPath
       id="clipPath136"><path
         d="m 474.56,426.16 111.96,0 0,14.67 -111.96,0 0,-14.67 z"
         inkscape:connector-curvature="0"
         id="path138" /></clipPath><clipPath
       id="clipPath144"><path
         d="m 474.55,426.17 111.96,0 0,14.664 -111.96,0 0,-14.664 z"
         inkscape:connector-curvature="0"
         id="path146" /></clipPath><clipPath
       id="clipPath156"><path
         d="m 474.55,426.17 111.96,0 0,14.664 -111.96,0 0,-14.664 z"
         inkscape:connector-curvature="0"
         id="path158" /></clipPath><clipPath
       id="clipPath168"><path
         d="m 633.92,426.16 111.85,0 0,14.67 -111.85,0 0,-14.67 z"
         inkscape:connector-curvature="0"
         id="path170" /></clipPath><clipPath
       id="clipPath176"><path
         d="m 633.91,426.17 111.86,0 0,14.664 -111.86,0 0,-14.664 z"
         inkscape:connector-curvature="0"
         id="path178" /></clipPath><clipPath
       id="clipPath188"><path
         d="m 633.91,426.17 111.86,0 0,14.664 -111.86,0 0,-14.664 z"
         inkscape:connector-curvature="0"
         id="path190" /></clipPath></defs><g
     transform="matrix(1.25,0,0,-1.25,-592.15625,723.28125)"
     id="g10"><path
       d="m 563.65,547.3 93.25,0 0,30.95 -93.25,0 0,-30.95 z"
       inkscape:connector-curvature="0"
       id="path12"
       style="fill:#ffffff;fill-opacity:1;fill-rule:evenodd;stroke:none" /><path
       d="m 563.65,547.3 93.25,0 0,30.95 -93.25,0 0,-30.95 z"
       inkscape:connector-curvature="0"
       id="path14"
       style="fill:none;stroke:#000000;stroke-width:0.75;stroke-linecap:round;stroke-linejoin:miter;stroke-miterlimit:10;stroke-opacity:1;stroke-dasharray:none" /><g
       id="g16"><g
         clip-path="url(#clipPath20)"
         id="g18"><g
           id="g24"><g
             clip-path="url(#clipPath28)"
             id="g26"><text
   transform="matrix(1,0,0,-1,576.91,565.03)"
   id="text32"><tspan
     x="0 7.7887201 13.8942 17.240761 23.346239 29.451719 32.798279 39.40176 42.748322 46.59288 52.130638 57.628559"
     y="0"
     id="tspan34"
     style="font-size:9.96000004px;font-variant:normal;font-weight:bold;writing-mode:lr-tb;fill:#000000;fill-opacity:1;fill-rule:nonzero;stroke:none;font-family:Helvetica;-inkscape-font-specification:Helvetica-Bold">OutputStream</tspan></text>

</g></g><g
           id="g36"><g
             clip-path="url(#clipPath40)"
             id="g38" /></g><g
           id="g44"><g
             clip-path="url(#clipPath48)"
             id="g46"><text
   transform="matrix(1,0,0,-1,589.15,553.63)"
   id="text52"><tspan
     x="0 3.34656 8.8843203 14.38224 19.412041 22.18092 25.517521 31.055281 36.065159 38.834042"
     y="0"
     id="tspan54"
     style="font-size:9.96000004px;font-variant:normal;font-weight:normal;writing-mode:lr-tb;fill:#000000;fill-opacity:1;fill-rule:nonzero;stroke:none;font-family:Helvetica;-inkscape-font-specification:Helvetica">{abstract}</tspan></text>

</g></g><g
           id="g56"><g
             clip-path="url(#clipPath60)"
             id="g58" /></g></g></g><path
       d="m 474.1,484.8 112.7,0 0,22.55 -112.7,0 0,-22.55 z"
       inkscape:connector-curvature="0"
       id="path64"
       style="fill:#ffffff;fill-opacity:1;fill-rule:evenodd;stroke:none" /><path
       d="m 474.1,484.8 112.7,0 0,22.55 -112.7,0 0,-22.55 z"
       inkscape:connector-curvature="0"
       id="path66"
       style="fill:none;stroke:#000000;stroke-width:0.75;stroke-linecap:round;stroke-linejoin:miter;stroke-miterlimit:10;stroke-opacity:1;stroke-dasharray:none" /><g
       id="g68"><g
         clip-path="url(#clipPath72)"
         id="g70"><g
           id="g76"><g
             clip-path="url(#clipPath80)"
             id="g78"><text
   transform="matrix(1,0,0,-1,483.55,493.87)"
   id="text84"><tspan
     x="0 6.6034799 9.3723602 15.45792 20.99568 27.11112 34.899841 41.005322 44.351879 50.457359 56.56284 59.909401 66.512878 69.859444 73.704002 79.24176 84.849243"
     y="0"
     id="tspan86"
     style="font-size:9.96000004px;font-variant:normal;font-weight:bold;writing-mode:lr-tb;fill:#000000;fill-opacity:1;fill-rule:nonzero;stroke:none;font-family:Helvetica;-inkscape-font-specification:Helvetica-Bold">PipedOutputStream</tspan></text>

</g></g><g
           id="g88"><g
             clip-path="url(#clipPath92)"
             id="g90" /></g></g></g><path
       d="m 633.3,484.8 112.7,0 0,22.55 -112.7,0 0,-22.55 z"
       inkscape:connector-curvature="0"
       id="path96"
       style="fill:#ffffff;fill-opacity:1;fill-rule:evenodd;stroke:none" /><path
       d="m 633.3,484.8 112.7,0 0,22.55 -112.7,0 0,-22.55 z"
       inkscape:connector-curvature="0"
       id="path98"
       style="fill:none;stroke:#000000;stroke-width:0.75;stroke-linecap:round;stroke-linejoin:miter;stroke-miterlimit:10;stroke-opacity:1;stroke-dasharray:none" /><g
       id="g100"><g
         clip-path="url(#clipPath104)"
         id="g102"><g
           id="g108"><g
             clip-path="url(#clipPath112)"
             id="g110"><text
   transform="matrix(1,0,0,-1,647.83,493.87)"
   id="text116"><tspan
     x="0 6.1054802 8.8743601 11.64324 17.141159 24.92988 31.03536 34.38192 40.4874 46.59288 49.939442 56.542919 59.889481 63.734039 69.271797 74.769722"
     y="0"
     id="tspan118"
     style="font-size:9.96000004px;font-variant:normal;font-weight:bold;writing-mode:lr-tb;fill:#000000;fill-opacity:1;fill-rule:nonzero;stroke:none;font-family:Helvetica;-inkscape-font-specification:Helvetica-Bold">FileOutputStream</tspan></text>

</g></g><g
           id="g120"><g
             clip-path="url(#clipPath124)"
             id="g122" /></g></g></g><path
       d="m 474.1,422.3 112.7,0 0,22.55 -112.7,0 0,-22.55 z"
       inkscape:connector-curvature="0"
       id="path128"
       style="fill:#ffffff;fill-opacity:1;fill-rule:evenodd;stroke:none" /><path
       d="m 474.1,422.3 112.7,0 0,22.55 -112.7,0 0,-22.55 z"
       inkscape:connector-curvature="0"
       id="path130"
       style="fill:none;stroke:#000000;stroke-width:0.75;stroke-linecap:round;stroke-linejoin:miter;stroke-miterlimit:10;stroke-opacity:1;stroke-dasharray:none" /><g
       id="g132"><g
         clip-path="url(#clipPath136)"
         id="g134"><g
           id="g140"><g
             clip-path="url(#clipPath144)"
             id="g142"><text
   transform="matrix(1,0,0,-1,499.39,431.33)"
   id="text148"><tspan
     x="0 7.1911201 13.30656 16.65312 19.99968 25.537439 29.36208 34.899841 40.985401 47.628719 50.357761 56.59272"
     y="0"
     id="tspan150"
     style="font-size:9.96000004px;font-variant:normal;font-weight:bold;writing-mode:lr-tb;fill:#000000;fill-opacity:1;fill-rule:nonzero;stroke:none;font-family:Helvetica;-inkscape-font-specification:Helvetica-Bold">BufferedPipe</tspan></text>

</g></g><g
           id="g152"><g
             clip-path="url(#clipPath156)"
             id="g154" /></g></g></g><path
       d="m 633.4,422.3 112.7,0 0,22.55 -112.7,0 0,-22.55 z"
       inkscape:connector-curvature="0"
       id="path160"
       style="fill:#ffffff;fill-opacity:1;fill-rule:evenodd;stroke:none" /><path
       d="m 633.4,422.3 112.7,0 0,22.55 -112.7,0 0,-22.55 z"
       inkscape:connector-curvature="0"
       id="path162"
       style="fill:none;stroke:#000000;stroke-width:0.75;stroke-linecap:round;stroke-linejoin:miter;stroke-miterlimit:10;stroke-opacity:1;stroke-dasharray:none" /><g
       id="g164"><g
         clip-path="url(#clipPath168)"
         id="g166"><g
           id="g172"><g
             clip-path="url(#clipPath176)"
             id="g174"><text
   transform="matrix(1,0,0,-1,660.7,431.33)"
   id="text180"><tspan
     x="0 7.1911201 13.30656 16.65312 19.99968 25.537439 29.36208 34.899841 40.985401 47.110802 49.879681 52.64856"
     y="0"
     id="tspan182"
     style="font-size:9.96000004px;font-variant:normal;font-weight:bold;writing-mode:lr-tb;fill:#000000;fill-opacity:1;fill-rule:nonzero;stroke:none;font-family:Helvetica;-inkscape-font-specification:Helvetica-Bold">BufferedFile</tspan></text>

</g></g><g
           id="g184"><g
             clip-path="url(#clipPath188)"
             id="g186" /></g></g></g><path
       d="M 530.85,507.35 586.8,547.3"
       inkscape:connector-curvature="0"
       id="path192"
       style="fill:none;stroke:#000000;stroke-width:0.75;stroke-linecap:round;stroke-linejoin:round;stroke-miterlimit:10;stroke-opacity:1;stroke-dasharray:none" /><path
       d="m 633.3,547.3 56.1,-39.95"
       inkscape:connector-curvature="0"
       id="path194"
       style="fill:none;stroke:#000000;stroke-width:0.75;stroke-linecap:round;stroke-linejoin:round;stroke-miterlimit:10;stroke-opacity:1;stroke-dasharray:none" /><path
       d="m 530.55,473.1 0.05,-28.25"
       inkscape:connector-curvature="0"
       id="path196"
       style="fill:none;stroke:#000000;stroke-width:0.75;stroke-linecap:round;stroke-linejoin:round;stroke-miterlimit:10;stroke-opacity:1;stroke-dasharray:none" /><path
       d="m 689.8,472.9 0,-28.05"
       inkscape:connector-curvature="0"
       id="path198"
       style="fill:none;stroke:#000000;stroke-width:0.75;stroke-linecap:round;stroke-linejoin:round;stroke-miterlimit:10;stroke-opacity:1;stroke-dasharray:none" /><path
       d="m 530.63,484.5 -6.13,-11.6 12.25,0 -6.12,11.6 z"
       inkscape:connector-curvature="0"
       id="path200"
       style="fill:#ffffff;fill-opacity:1;fill-rule:evenodd;stroke:none" /><path
       d="m 530.63,484.5 -6.13,-11.6 12.25,0 -6.12,11.6 z"
       inkscape:connector-curvature="0"
       id="path202"
       style="fill:none;stroke:#000000;stroke-width:0.75;stroke-linecap:round;stroke-linejoin:round;stroke-miterlimit:10;stroke-opacity:1;stroke-dasharray:none" /><path
       d="m 689.72,484.5 -6.12,-11.6 12.25,0 -6.13,11.6 z"
       inkscape:connector-curvature="0"
       id="path204"
       style="fill:#ffffff;fill-opacity:1;fill-rule:evenodd;stroke:none" /><path
       d="m 689.72,484.5 -6.12,-11.6 12.25,0 -6.13,11.6 z"
       inkscape:connector-curvature="0"
       id="path206"
       style="fill:none;stroke:#000000;stroke-width:0.75;stroke-linecap:round;stroke-linejoin:round;stroke-miterlimit:10;stroke-opacity:1;stroke-dasharray:none" /><path
       d="m 633.63,547.25 5.87,-11.73 7.13,9.96 -13,1.77 z"
       inkscape:connector-curvature="0"
       id="path208"
       style="fill:#ffffff;fill-opacity:1;fill-rule:evenodd;stroke:none" /><path
       d="m 633.63,547.25 5.87,-11.73 7.13,9.96 -13,1.77 z"
       inkscape:connector-curvature="0"
       id="path210"
       style="fill:none;stroke:#000000;stroke-width:0.75;stroke-linecap:round;stroke-linejoin:round;stroke-miterlimit:10;stroke-opacity:1;stroke-dasharray:none" /><path
       d="m 586.36,547.02 -12.96,-1.97 7.27,-9.85 5.69,11.82 z"
       inkscape:connector-curvature="0"
       id="path212"
       style="fill:#ffffff;fill-opacity:1;fill-rule:evenodd;stroke:none" /><path
       d="m 586.36,547.02 -12.96,-1.97 7.27,-9.85 5.69,11.82 z"
       inkscape:connector-curvature="0"
       id="path214"
       style="fill:none;stroke:#000000;stroke-width:0.75;stroke-linecap:round;stroke-linejoin:round;stroke-miterlimit:10;stroke-opacity:1;stroke-dasharray:none" /></g></svg>