<?xml version="1.0" encoding="UTF-8" standalone="no"?>
<!-- Created with Inkscape (http://www.inkscape.org/) -->

<svg
   xmlns:dc="http://purl.org/dc/elements/1.1/"
   xmlns:cc="http://creativecommons.org/ns#"
   xmlns:rdf="http://www.w3.org/1999/02/22-rdf-syntax-ns#"
   xmlns:svg="http://www.w3.org/2000/svg"
   xmlns="http://www.w3.org/2000/svg"
   xmlns:sodipodi="http://sodipodi.sourceforge.net/DTD/sodipodi-0.dtd"
   xmlns:inkscape="http://www.inkscape.org/namespaces/inkscape"
   version="1.1"
   width="383.4375"
   height="277.5"
   id="svg2"
   xml:space="preserve"
   inkscape:version="0.48.4 r9939"
   sodipodi:docname="Bild 4-46 Ein Mitarbeiter hat mehrere Rollen.svg"><sodipodi:namedview
     pagecolor="#ffffff"
     bordercolor="#666666"
     borderopacity="1"
     objecttolerance="10"
     gridtolerance="10"
     guidetolerance="10"
     inkscape:pageopacity="0"
     inkscape:pageshadow="2"
     inkscape:window-width="640"
     inkscape:window-height="480"
     id="namedview107"
     showgrid="false"
     inkscape:zoom="0.18730159"
     inkscape:cx="365.53125"
     inkscape:cy="144.15625"
     inkscape:window-x="0"
     inkscape:window-y="0"
     inkscape:window-maximized="0"
     inkscape:current-layer="svg2" /><metadata
     id="metadata8"><rdf:RDF><cc:Work
         rdf:about=""><dc:format>image/svg+xml</dc:format><dc:type
           rdf:resource="http://purl.org/dc/dcmitype/StillImage" /></cc:Work></rdf:RDF></metadata><defs
     id="defs6"><clipPath
       id="clipPath20"><path
         d="m 212.67,551.95 90.015,0 0,54.36 -90.015,0 0,-54.36 z"
         inkscape:connector-curvature="0"
         id="path22" /></clipPath><clipPath
       id="clipPath28"><path
         d="m 212.66,551.95 90.024,0 0,54.36 -90.024,0 0,-54.36 z"
         inkscape:connector-curvature="0"
         id="path30" /></clipPath><clipPath
       id="clipPath40"><path
         d="m 212.66,551.95 90.024,0 0,54.36 -90.024,0 0,-54.36 z"
         inkscape:connector-curvature="0"
         id="path42" /></clipPath><clipPath
       id="clipPath52"><path
         d="m 212.66,551.95 90.024,0 0,54.36 -90.024,0 0,-54.36 z"
         inkscape:connector-curvature="0"
         id="path54" /></clipPath><clipPath
       id="clipPath64"><path
         d="m 319.97,551.95 89.88,0 0,54.36 -89.88,0 0,-54.36 z"
         inkscape:connector-curvature="0"
         id="path66" /></clipPath><clipPath
       id="clipPath72"><path
         d="m 319.97,551.95 89.88,0 0,54.36 -89.88,0 0,-54.36 z"
         inkscape:connector-curvature="0"
         id="path74" /></clipPath><clipPath
       id="clipPath84"><path
         d="m 319.97,551.95 89.88,0 0,54.36 -89.88,0 0,-54.36 z"
         inkscape:connector-curvature="0"
         id="path86" /></clipPath><clipPath
       id="clipPath96"><path
         d="m 319.97,551.95 89.88,0 0,54.36 -89.88,0 0,-54.36 z"
         inkscape:connector-curvature="0"
         id="path98" /></clipPath><clipPath
       id="clipPath108"><path
         d="m 427.97,551.95 89.91,0 0,54.36 -89.91,0 0,-54.36 z"
         inkscape:connector-curvature="0"
         id="path110" /></clipPath><clipPath
       id="clipPath116"><path
         d="m 427.97,551.95 89.904,0 0,54.36 -89.904,0 0,-54.36 z"
         inkscape:connector-curvature="0"
         id="path118" /></clipPath><clipPath
       id="clipPath128"><path
         d="m 427.97,551.95 89.904,0 0,54.36 -89.904,0 0,-54.36 z"
         inkscape:connector-curvature="0"
         id="path130" /></clipPath><clipPath
       id="clipPath140"><path
         d="m 427.97,551.95 89.904,0 0,54.36 -89.904,0 0,-54.36 z"
         inkscape:connector-curvature="0"
         id="path142" /></clipPath><clipPath
       id="clipPath170"><path
         d="m 312.41,392.92 97.44,0 0,54.39 -97.44,0 0,-54.39 z"
         inkscape:connector-curvature="0"
         id="path172" /></clipPath><clipPath
       id="clipPath178"><path
         d="m 312.41,392.93 97.44,0 0,54.384 -97.44,0 0,-54.384 z"
         inkscape:connector-curvature="0"
         id="path180" /></clipPath><clipPath
       id="clipPath190"><path
         d="m 312.41,392.93 97.44,0 0,54.384 -97.44,0 0,-54.384 z"
         inkscape:connector-curvature="0"
         id="path192" /></clipPath><clipPath
       id="clipPath198"><path
         d="m 312.41,392.93 97.44,0 0,54.384 -97.44,0 0,-54.384 z"
         inkscape:connector-curvature="0"
         id="path200" /></clipPath><clipPath
       id="clipPath210"><path
         d="m 312.41,392.93 97.44,0 0,54.384 -97.44,0 0,-54.384 z"
         inkscape:connector-curvature="0"
         id="path212" /></clipPath></defs><g
     transform="matrix(1.25,0,0,-1.25,-264.84375,763.34375)"
     id="g10"><path
       d="m 212.25,548.05 90.75,0 0,62.25 -90.75,0 0,-62.25 z"
       inkscape:connector-curvature="0"
       id="path12"
       style="fill:#ffffff;fill-opacity:1;fill-rule:evenodd;stroke:none" /><path
       d="m 212.25,548.05 90.75,0 0,62.25 -90.75,0 0,-62.25 z"
       inkscape:connector-curvature="0"
       id="path14"
       style="fill:none;stroke:#000000;stroke-width:0.75;stroke-linecap:round;stroke-linejoin:miter;stroke-miterlimit:10;stroke-opacity:1;stroke-dasharray:none" /><g
       id="g16"><g
         clip-path="url(#clipPath20)"
         id="g18"><g
           id="g24"><g
             clip-path="url(#clipPath28)"
             id="g26"><text
   transform="matrix(1,0,0,-1,235.34,595.27)"
   id="text32"><tspan
     x="0"
     y="0"
     id="tspan34"
     style="font-size:12px;font-variant:normal;font-weight:normal;writing-mode:lr-tb;fill:#000000;fill-opacity:1;fill-rule:nonzero;stroke:none;font-family:Helvetica;-inkscape-font-specification:Helvetica">:</tspan></text>

</g></g><g
           id="g36"><g
             clip-path="url(#clipPath40)"
             id="g38"><text
   transform="matrix(1,0,0,-1,238.7,595.27)"
   id="text44"><tspan
     x="0 8.0279999 14.736 18.732 24.732 31.403999 38.015999"
     y="0"
     id="tspan46"
     style="font-size:12px;font-variant:normal;font-weight:normal;writing-mode:lr-tb;fill:#000000;fill-opacity:1;fill-rule:nonzero;stroke:none;font-family:Helvetica;-inkscape-font-specification:Helvetica">Verkauf</tspan></text>

</g></g><g
           id="g48"><g
             clip-path="url(#clipPath52)"
             id="g50" /></g></g></g><path
       d="m 319.5,548.05 90.75,0 0,62.25 -90.75,0 0,-62.25 z"
       inkscape:connector-curvature="0"
       id="path56"
       style="fill:#ffffff;fill-opacity:1;fill-rule:evenodd;stroke:none" /><path
       d="m 319.5,548.05 90.75,0 0,62.25 -90.75,0 0,-62.25 z"
       inkscape:connector-curvature="0"
       id="path58"
       style="fill:none;stroke:#000000;stroke-width:0.75;stroke-linecap:round;stroke-linejoin:miter;stroke-miterlimit:10;stroke-opacity:1;stroke-dasharray:none" /><g
       id="g60"><g
         clip-path="url(#clipPath64)"
         id="g62"><g
           id="g68"><g
             clip-path="url(#clipPath72)"
             id="g70"><text
   transform="matrix(1,0,0,-1,331.25,595.27)"
   id="text76"><tspan
     x="0"
     y="0"
     id="tspan78"
     style="font-size:12px;font-variant:normal;font-weight:normal;writing-mode:lr-tb;fill:#000000;fill-opacity:1;fill-rule:nonzero;stroke:none;font-family:Helvetica;-inkscape-font-specification:Helvetica">:</tspan></text>

</g></g><g
           id="g80"><g
             clip-path="url(#clipPath84)"
             id="g82"><text
   transform="matrix(1,0,0,-1,334.61,595.27)"
   id="text88"><tspan
     x="0 8.0279999 14.736 18.072001 26.615999 29.280001 35.279999 41.279999 43.896 50.604 57.312"
     y="0"
     id="tspan90"
     style="font-size:12px;font-variant:normal;font-weight:normal;writing-mode:lr-tb;fill:#000000;fill-opacity:1;fill-rule:nonzero;stroke:none;font-family:Helvetica;-inkscape-font-specification:Helvetica">Entwicklung</tspan></text>

</g></g><g
           id="g92"><g
             clip-path="url(#clipPath96)"
             id="g94" /></g></g></g><path
       d="m 427.5,548.05 90.75,0 0,62.25 -90.75,0 0,-62.25 z"
       inkscape:connector-curvature="0"
       id="path100"
       style="fill:#ffffff;fill-opacity:1;fill-rule:evenodd;stroke:none" /><path
       d="m 427.5,548.05 90.75,0 0,62.25 -90.75,0 0,-62.25 z"
       inkscape:connector-curvature="0"
       id="path102"
       style="fill:none;stroke:#000000;stroke-width:0.75;stroke-linecap:round;stroke-linejoin:miter;stroke-miterlimit:10;stroke-opacity:1;stroke-dasharray:none" /><g
       id="g104"><g
         clip-path="url(#clipPath108)"
         id="g106"><g
           id="g112"><g
             clip-path="url(#clipPath116)"
             id="g114"><text
   transform="matrix(1,0,0,-1,442.61,595.27)"
   id="text120"><tspan
     x="0"
     y="0"
     id="tspan122"
     style="font-size:12px;font-variant:normal;font-weight:normal;writing-mode:lr-tb;fill:#000000;fill-opacity:1;fill-rule:nonzero;stroke:none;font-family:Helvetica;-inkscape-font-specification:Helvetica">:</tspan></text>

</g></g><g
           id="g124"><g
             clip-path="url(#clipPath128)"
             id="g126"><text
   transform="matrix(1,0,0,-1,445.97,595.27)"
   id="text132"><tspan
     x="0 8.6639996 15.336 22.068001 25.403999 29.4 36.071999 38.736 41.400002 44.028 50.736"
     y="0"
     id="tspan134"
     style="font-size:12px;font-variant:normal;font-weight:normal;writing-mode:lr-tb;fill:#000000;fill-opacity:1;fill-rule:nonzero;stroke:none;font-family:Helvetica;-inkscape-font-specification:Helvetica">Controlling</tspan></text>

</g></g><g
           id="g136"><g
             clip-path="url(#clipPath140)"
             id="g138" /></g></g></g><path
       d="m 241.56,547.24 2.48,-15.44 14.65,-5.44 -2.48,15.44 -14.65,5.44 z"
       inkscape:connector-curvature="0"
       id="path144"
       style="fill:#ffffff;fill-opacity:1;fill-rule:evenodd;stroke:none" /><path
       d="m 241.56,547.24 2.48,-15.44 14.65,-5.44 -2.48,15.44 -14.65,5.44 z"
       inkscape:connector-curvature="0"
       id="path146"
       style="fill:none;stroke:#000000;stroke-width:0.75;stroke-linecap:round;stroke-linejoin:round;stroke-miterlimit:10;stroke-opacity:1;stroke-dasharray:none" /><path
       d="m 361.88,548.05 -7.88,-13.5 7.88,-13.5 7.87,13.5 -7.87,13.5 z"
       inkscape:connector-curvature="0"
       id="path148"
       style="fill:#ffffff;fill-opacity:1;fill-rule:evenodd;stroke:none" /><path
       d="m 361.88,548.05 -7.88,-13.5 7.88,-13.5 7.87,13.5 -7.87,13.5 z"
       inkscape:connector-curvature="0"
       id="path150"
       style="fill:none;stroke:#000000;stroke-width:0.75;stroke-linecap:round;stroke-linejoin:round;stroke-miterlimit:10;stroke-opacity:1;stroke-dasharray:none" /><path
       d="m 481.04,546.94 -15.42,-2.55 -5.36,-14.68 15.42,2.55 5.36,14.68 z"
       inkscape:connector-curvature="0"
       id="path152"
       style="fill:#ffffff;fill-opacity:1;fill-rule:evenodd;stroke:none" /><path
       d="m 481.04,546.94 -15.42,-2.55 -5.36,-14.68 15.42,2.55 5.36,14.68 z"
       inkscape:connector-curvature="0"
       id="path154"
       style="fill:none;stroke:#000000;stroke-width:0.75;stroke-linecap:round;stroke-linejoin:round;stroke-miterlimit:10;stroke-opacity:1;stroke-dasharray:none" /><path
       d="M 258.75,525.55 363,449.05"
       inkscape:connector-curvature="0"
       id="path156"
       style="fill:none;stroke:#000000;stroke-width:0.75;stroke-linecap:round;stroke-linejoin:round;stroke-miterlimit:10;stroke-opacity:1;stroke-dasharray:none" /><path
       d="m 361.5,521.8 0,-70.4"
       inkscape:connector-curvature="0"
       id="path158"
       style="fill:none;stroke:#000000;stroke-width:0.75;stroke-linecap:round;stroke-linejoin:round;stroke-miterlimit:10;stroke-opacity:1;stroke-dasharray:none" /><path
       d="m 461.25,530.8 -99.75,-81"
       inkscape:connector-curvature="0"
       id="path160"
       style="fill:none;stroke:#000000;stroke-width:0.75;stroke-linecap:round;stroke-linejoin:round;stroke-miterlimit:10;stroke-opacity:1;stroke-dasharray:none" /><path
       d="m 312,389.05 98.25,0 0,62.25 -98.25,0 0,-62.25 z"
       inkscape:connector-curvature="0"
       id="path162"
       style="fill:#ffffff;fill-opacity:1;fill-rule:evenodd;stroke:none" /><path
       d="m 312,389.05 98.25,0 0,62.25 -98.25,0 0,-62.25 z"
       inkscape:connector-curvature="0"
       id="path164"
       style="fill:none;stroke:#000000;stroke-width:0.75;stroke-linecap:round;stroke-linejoin:miter;stroke-miterlimit:8;stroke-opacity:1;stroke-dasharray:none" /><g
       id="g166"><g
         clip-path="url(#clipPath170)"
         id="g168"><g
           id="g174"><g
             clip-path="url(#clipPath178)"
             id="g176"><text
   transform="matrix(1,0,0,-1,339.17,436.25)"
   id="text182"><tspan
     x="0 6 12 18.708 25.416 28.08 33.936001 40.644001"
     y="0"
     id="tspan184"
     style="font-size:12px;font-variant:normal;font-weight:normal;writing-mode:lr-tb;fill:#000000;fill-opacity:1;fill-rule:nonzero;stroke:none;font-family:Helvetica;-inkscape-font-specification:Helvetica">schulze:</tspan></text>

</g></g><g
           id="g186"><g
             clip-path="url(#clipPath190)"
             id="g188" /></g><g
           id="g194"><g
             clip-path="url(#clipPath198)"
             id="g196"><text
   transform="matrix(1,0,0,-1,332.81,422.45)"
   id="text202"><tspan
     x="0 9.96 12.624 15.96 22.667999 26.664 33.335999 40.056 42.720001 46.056 52.764"
     y="0"
     id="tspan204"
     style="font-size:12px;font-variant:normal;font-weight:normal;writing-mode:lr-tb;fill:#000000;fill-opacity:1;fill-rule:nonzero;stroke:none;font-family:Helvetica;-inkscape-font-specification:Helvetica">Mitarbeiter</tspan></text>

</g></g><g
           id="g206"><g
             clip-path="url(#clipPath210)"
             id="g208" /></g></g></g></g></svg>