<?xml version="1.0" encoding="UTF-8" standalone="no"?>
<!-- Created with Inkscape (http://www.inkscape.org/) -->

<svg
   xmlns:dc="http://purl.org/dc/elements/1.1/"
   xmlns:cc="http://creativecommons.org/ns#"
   xmlns:rdf="http://www.w3.org/1999/02/22-rdf-syntax-ns#"
   xmlns:svg="http://www.w3.org/2000/svg"
   xmlns="http://www.w3.org/2000/svg"
   xmlns:sodipodi="http://sodipodi.sourceforge.net/DTD/sodipodi-0.dtd"
   xmlns:inkscape="http://www.inkscape.org/namespaces/inkscape"
   version="1.1"
   width="418.875"
   height="234.375"
   id="svg2"
   xml:space="preserve"
   inkscape:version="0.48.4 r9939"
   sodipodi:docname="Bild 4-22 Zu realisierende grafische Oberfl채che.svg"><sodipodi:namedview
     pagecolor="#ffffff"
     bordercolor="#666666"
     borderopacity="1"
     objecttolerance="10"
     gridtolerance="10"
     guidetolerance="10"
     inkscape:pageopacity="0"
     inkscape:pageshadow="2"
     inkscape:window-width="640"
     inkscape:window-height="480"
     id="namedview132"
     showgrid="false"
     inkscape:zoom="0.18730159"
     inkscape:cx="131.34375"
     inkscape:cy="149.53125"
     inkscape:window-x="0"
     inkscape:window-y="0"
     inkscape:window-maximized="0"
     inkscape:current-layer="svg2" /><metadata
     id="metadata8"><rdf:RDF><cc:Work
         rdf:about=""><dc:format>image/svg+xml</dc:format><dc:type
           rdf:resource="http://purl.org/dc/dcmitype/StillImage" /></cc:Work></rdf:RDF></metadata><defs
     id="defs6"><clipPath
       id="clipPath20"><path
         d="m 400.01,445.87 235.71,0 0,121.56 -235.71,0 0,-121.56 z"
         inkscape:connector-curvature="0"
         id="path22" /></clipPath><clipPath
       id="clipPath28"><path
         d="m 400.01,445.87 235.7,0 0,121.56 -235.7,0 0,-121.56 z"
         inkscape:connector-curvature="0"
         id="path30" /></clipPath><clipPath
       id="clipPath46"><path
         d="m 407.45,454.27 92.79,0 0,107.16 -92.79,0 0,-107.16 z"
         inkscape:connector-curvature="0"
         id="path48" /></clipPath><clipPath
       id="clipPath54"><path
         d="m 407.45,454.27 92.784,0 0,107.16 -92.784,0 0,-107.16 z"
         inkscape:connector-curvature="0"
         id="path56" /></clipPath><clipPath
       id="clipPath66"><path
         d="m 407.45,454.27 92.784,0 0,107.16 -92.784,0 0,-107.16 z"
         inkscape:connector-curvature="0"
         id="path68" /></clipPath><clipPath
       id="clipPath84"><path
         d="m 522.92,490.99 95.76,0 0,63.96 -95.76,0 0,-63.96 z"
         inkscape:connector-curvature="0"
         id="path86" /></clipPath><clipPath
       id="clipPath92"><path
         d="m 522.91,490.99 95.76,0 0,63.96 -95.76,0 0,-63.96 z"
         inkscape:connector-curvature="0"
         id="path94" /></clipPath><clipPath
       id="clipPath104"><path
         d="m 522.91,490.99 95.76,0 0,63.96 -95.76,0 0,-63.96 z"
         inkscape:connector-curvature="0"
         id="path106" /></clipPath><clipPath
       id="clipPath116"><path
         d="m 522.44,457.51 31.68,0 0,11.64 -31.68,0 0,-11.64 z"
         inkscape:connector-curvature="0"
         id="path118" /></clipPath><clipPath
       id="clipPath124"><path
         d="m 522.43,457.51 31.68,0 0,11.64 -31.68,0 0,-11.64 z"
         inkscape:connector-curvature="0"
         id="path126" /></clipPath><clipPath
       id="clipPath136"><path
         d="m 593.12,457.27 31.56,0 0,11.64 -31.56,0 0,-11.64 z"
         inkscape:connector-curvature="0"
         id="path138" /></clipPath><clipPath
       id="clipPath144"><path
         d="m 593.11,457.27 31.56,0 0,11.64 -31.56,0 0,-11.64 z"
         inkscape:connector-curvature="0"
         id="path146" /></clipPath><clipPath
       id="clipPath156"><path
         d="m 557.48,457.75 31.56,0 0,11.64 -31.56,0 0,-11.64 z"
         inkscape:connector-curvature="0"
         id="path158" /></clipPath><clipPath
       id="clipPath164"><path
         d="m 557.47,457.75 31.56,0 0,11.64 -31.56,0 0,-11.64 z"
         inkscape:connector-curvature="0"
         id="path166" /></clipPath><clipPath
       id="clipPath176"><path
         d="m 403.37,389.32 97.71,0 0,14.76 -97.71,0 0,-14.76 z"
         inkscape:connector-curvature="0"
         id="path178" /></clipPath><clipPath
       id="clipPath184"><path
         d="m 403.37,389.33 97.704,0 0,14.76 -97.704,0 0,-14.76 z"
         inkscape:connector-curvature="0"
         id="path186" /></clipPath><clipPath
       id="clipPath196"><path
         d="m 403.37,389.33 97.704,0 0,14.76 -97.704,0 0,-14.76 z"
         inkscape:connector-curvature="0"
         id="path198" /></clipPath><clipPath
       id="clipPath208"><path
         d="m 517.76,389.32 97.8,0 0,14.76 -97.8,0 0,-14.76 z"
         inkscape:connector-curvature="0"
         id="path210" /></clipPath><clipPath
       id="clipPath216"><path
         d="m 517.75,389.33 97.8,0 0,14.76 -97.8,0 0,-14.76 z"
         inkscape:connector-curvature="0"
         id="path218" /></clipPath><clipPath
       id="clipPath228"><path
         d="m 517.75,389.33 97.8,0 0,14.76 -97.8,0 0,-14.76 z"
         inkscape:connector-curvature="0"
         id="path230" /></clipPath><clipPath
       id="clipPath240"><path
         d="m 632.6,389.32 97.695,0 0,14.76 -97.695,0 0,-14.76 z"
         inkscape:connector-curvature="0"
         id="path242" /></clipPath><clipPath
       id="clipPath248"><path
         d="m 632.59,389.33 97.704,0 0,14.76 -97.704,0 0,-14.76 z"
         inkscape:connector-curvature="0"
         id="path250" /></clipPath><clipPath
       id="clipPath260"><path
         d="m 632.59,389.33 97.704,0 0,14.76 -97.704,0 0,-14.76 z"
         inkscape:connector-curvature="0"
         id="path262" /></clipPath></defs><g
     transform="matrix(1.25,0,0,-1.25,-499.03125,714.84375)"
     id="g10"><path
       d="m 399.6,441.9 236.4,0 0,129.6 -236.4,0 0,-129.6 z"
       inkscape:connector-curvature="0"
       id="path12"
       style="fill:#ffffff;fill-opacity:1;fill-rule:evenodd;stroke:none" /><path
       d="m 399.6,441.9 236.4,0 0,129.6 -236.4,0 0,-129.6 z"
       inkscape:connector-curvature="0"
       id="path14"
       style="fill:none;stroke:#000000;stroke-width:0.75;stroke-linecap:round;stroke-linejoin:miter;stroke-miterlimit:10;stroke-opacity:1;stroke-dasharray:none" /><g
       id="g16"><g
         clip-path="url(#clipPath20)"
         id="g18"><g
           id="g24"><g
             clip-path="url(#clipPath28)"
             id="g26" /></g></g></g><path
       d="m 511.2,446.4 119.25,0 0,122.4 -119.25,0 0,-122.4 z"
       inkscape:connector-curvature="0"
       id="path32"
       style="fill:#ffffff;fill-opacity:1;fill-rule:evenodd;stroke:none" /><g
       id="g34"><path
         d="m 511.2,446.4 119.25,0 0,122.4 -119.25,0 0,-122.4 z"
         inkscape:connector-curvature="0"
         id="path36"
         style="fill:none;stroke:#000000;stroke-width:0.75;stroke-linecap:butt;stroke-linejoin:miter;stroke-miterlimit:10;stroke-opacity:1;stroke-dasharray:3, 2.25;stroke-dashoffset:0" /></g><path
       d="m 406.95,450.3 93.6,0 0,115.2 -93.6,0 0,-115.2 z"
       inkscape:connector-curvature="0"
       id="path38"
       style="fill:#ffffff;fill-opacity:1;fill-rule:evenodd;stroke:none" /><path
       d="m 406.95,450.3 93.6,0 0,115.2 -93.6,0 0,-115.2 z"
       inkscape:connector-curvature="0"
       id="path40"
       style="fill:none;stroke:#000000;stroke-width:0.75;stroke-linecap:round;stroke-linejoin:miter;stroke-miterlimit:10;stroke-opacity:1;stroke-dasharray:none" /><g
       id="g42"><g
         clip-path="url(#clipPath46)"
         id="g44"><g
           id="g50"><g
             clip-path="url(#clipPath54)"
             id="g52"><text
   transform="matrix(1,0,0,-1,414.65,550.27)"
   id="text58"><tspan
     x="0 7.428 14.028 20.736 27.444 30.108 32.723999"
     y="0"
     id="tspan60"
     style="font-size:12px;font-variant:normal;font-weight:normal;writing-mode:lr-tb;fill:#000000;fill-opacity:1;fill-rule:nonzero;stroke:none;font-family:Helvetica;-inkscape-font-specification:Helvetica">Tabelle</tspan></text>

</g></g><g
           id="g62"><g
             clip-path="url(#clipPath66)"
             id="g64" /></g></g></g><path
       d="m 518.4,451.65 110.4,0 0,23.55 -110.4,0 0,-23.55 z"
       inkscape:connector-curvature="0"
       id="path70"
       style="fill:#ffffff;fill-opacity:1;fill-rule:evenodd;stroke:none" /><g
       id="g72"><path
         d="m 518.4,451.65 110.4,0 0,23.55 -110.4,0 0,-23.55 z"
         inkscape:connector-curvature="0"
         id="path74"
         style="fill:none;stroke:#000000;stroke-width:0.75;stroke-linecap:butt;stroke-linejoin:miter;stroke-miterlimit:10;stroke-opacity:1;stroke-dasharray:6, 2.25;stroke-dashoffset:0" /></g><path
       d="m 522.45,487.05 96.6,0 0,72 -96.6,0 0,-72 z"
       inkscape:connector-curvature="0"
       id="path76"
       style="fill:#ffffff;fill-opacity:1;fill-rule:evenodd;stroke:none" /><path
       d="m 522.45,487.05 96.6,0 0,72 -96.6,0 0,-72 z"
       inkscape:connector-curvature="0"
       id="path78"
       style="fill:none;stroke:#000000;stroke-width:0.75;stroke-linecap:round;stroke-linejoin:miter;stroke-miterlimit:10;stroke-opacity:1;stroke-dasharray:none" /><g
       id="g80"><g
         clip-path="url(#clipPath84)"
         id="g82"><g
           id="g88"><g
             clip-path="url(#clipPath92)"
             id="g90"><text
   transform="matrix(1,0,0,-1,530.11,543.79)"
   id="text96"><tspan
     x="0 7.428 14.136 20.016001 23.256001 26.724001 33.431999 36.096001"
     y="0"
     id="tspan98"
     style="font-size:12px;font-variant:normal;font-weight:normal;writing-mode:lr-tb;fill:#000000;fill-opacity:1;fill-rule:nonzero;stroke:none;font-family:Helvetica;-inkscape-font-specification:Helvetica">Textfeld</tspan></text>

</g></g><g
           id="g100"><g
             clip-path="url(#clipPath104)"
             id="g102" /></g></g></g><path
       d="m 522,453.6 32.4,0 0,19.65 -32.4,0 0,-19.65 z"
       inkscape:connector-curvature="0"
       id="path108"
       style="fill:#ffffff;fill-opacity:1;fill-rule:evenodd;stroke:none" /><path
       d="m 522,453.6 32.4,0 0,19.65 -32.4,0 0,-19.65 z"
       inkscape:connector-curvature="0"
       id="path110"
       style="fill:none;stroke:#000000;stroke-width:0.75;stroke-linecap:round;stroke-linejoin:miter;stroke-miterlimit:10;stroke-opacity:1;stroke-dasharray:none" /><g
       id="g112"><g
         clip-path="url(#clipPath116)"
         id="g114"><g
           id="g120"><g
             clip-path="url(#clipPath124)"
             id="g122" /></g></g></g><path
       d="m 592.65,453.3 32.4,0 0,19.65 -32.4,0 0,-19.65 z"
       inkscape:connector-curvature="0"
       id="path128"
       style="fill:#ffffff;fill-opacity:1;fill-rule:evenodd;stroke:none" /><path
       d="m 592.65,453.3 32.4,0 0,19.65 -32.4,0 0,-19.65 z"
       inkscape:connector-curvature="0"
       id="path130"
       style="fill:none;stroke:#000000;stroke-width:0.75;stroke-linecap:round;stroke-linejoin:miter;stroke-miterlimit:10;stroke-opacity:1;stroke-dasharray:none" /><g
       id="g132"><g
         clip-path="url(#clipPath136)"
         id="g134"><g
           id="g140"><g
             clip-path="url(#clipPath144)"
             id="g142" /></g></g></g><path
       d="m 556.95,453.75 32.4,0 0,19.65 -32.4,0 0,-19.65 z"
       inkscape:connector-curvature="0"
       id="path148"
       style="fill:#ffffff;fill-opacity:1;fill-rule:evenodd;stroke:none" /><path
       d="m 556.95,453.75 32.4,0 0,19.65 -32.4,0 0,-19.65 z"
       inkscape:connector-curvature="0"
       id="path150"
       style="fill:none;stroke:#000000;stroke-width:0.75;stroke-linecap:round;stroke-linejoin:miter;stroke-miterlimit:10;stroke-opacity:1;stroke-dasharray:none" /><g
       id="g152"><g
         clip-path="url(#clipPath156)"
         id="g154"><g
           id="g160"><g
             clip-path="url(#clipPath164)"
             id="g162" /></g></g></g><path
       d="m 417.13,408.75 c -9.68,0 -17.53,-1.79 -17.53,-4 l 0,-6 0,-10 c 0,-2.21 7.85,-4 17.53,-4 l 43.81,0 26.28,0 c 9.68,0 17.53,1.79 17.53,4 l 0,10 0,6 c 0,2.21 -7.85,4 -17.53,4 l 50.93,47.4 -77.21,-47.4 -43.81,0 z"
       inkscape:connector-curvature="0"
       id="path168"
       style="fill:#ffffff;fill-opacity:1;fill-rule:evenodd;stroke:none" /><path
       d="m 417.13,408.75 c -9.68,0 -17.53,-1.79 -17.53,-4 l 0,-6 0,-10 c 0,-2.21 7.85,-4 17.53,-4 l 43.81,0 26.28,0 c 9.68,0 17.53,1.79 17.53,4 l 0,10 0,6 c 0,2.21 -7.85,4 -17.53,4 l 50.93,47.4 -77.21,-47.4 -43.81,0 z"
       inkscape:connector-curvature="0"
       id="path170"
       style="fill:none;stroke:#000000;stroke-width:0.75;stroke-linecap:round;stroke-linejoin:round;stroke-miterlimit:10;stroke-opacity:1;stroke-dasharray:none" /><g
       id="g172"><g
         clip-path="url(#clipPath176)"
         id="g174"><g
           id="g180"><g
             clip-path="url(#clipPath184)"
             id="g182"><text
   transform="matrix(1,0,0,-1,414.53,392.93)"
   id="text188"><tspan
     x="0 8.0279999 14.028 20.736 27.444 30.108 33.324001 36.792 39.456001 46.127998 52.032001 58.740002 65.447998 68.688004"
     y="0"
     id="tspan190"
     style="font-size:12px;font-variant:normal;font-weight:normal;writing-mode:lr-tb;fill:#000000;fill-opacity:1;fill-rule:nonzero;stroke:none;font-family:Helvetica;-inkscape-font-specification:Helvetica">Schaltfl채che 1</tspan></text>

</g></g><g
           id="g192"><g
             clip-path="url(#clipPath196)"
             id="g194" /></g></g></g><path
       d="m 531.52,408.75 c -9.67,0 -17.52,-1.79 -17.52,-4 l 0,-6 0,-10 c 0,-2.21 7.85,-4 17.52,-4 l 43.82,0 26.29,0 c 9.67,0 17.52,1.79 17.52,4 l 0,10 0,6 c 0,2.21 -7.85,4 -17.52,4 l -29.23,47.55 2.94,-47.55 -43.82,0 z"
       inkscape:connector-curvature="0"
       id="path200"
       style="fill:#ffffff;fill-opacity:1;fill-rule:evenodd;stroke:none" /><path
       d="m 531.52,408.75 c -9.67,0 -17.52,-1.79 -17.52,-4 l 0,-6 0,-10 c 0,-2.21 7.85,-4 17.52,-4 l 43.82,0 26.29,0 c 9.67,0 17.52,1.79 17.52,4 l 0,10 0,6 c 0,2.21 -7.85,4 -17.52,4 l -29.23,47.55 2.94,-47.55 -43.82,0 z"
       inkscape:connector-curvature="0"
       id="path202"
       style="fill:none;stroke:#000000;stroke-width:0.75;stroke-linecap:round;stroke-linejoin:round;stroke-miterlimit:10;stroke-opacity:1;stroke-dasharray:none" /><g
       id="g204"><g
         clip-path="url(#clipPath208)"
         id="g206"><g
           id="g212"><g
             clip-path="url(#clipPath216)"
             id="g214"><text
   transform="matrix(1,0,0,-1,528.91,392.93)"
   id="text220"><tspan
     x="0 8.0279999 14.028 20.736 27.444 30.108 33.324001 36.792 39.456001 46.127998 52.032001 58.740002 65.447998 68.688004"
     y="0"
     id="tspan222"
     style="font-size:12px;font-variant:normal;font-weight:normal;writing-mode:lr-tb;fill:#000000;fill-opacity:1;fill-rule:nonzero;stroke:none;font-family:Helvetica;-inkscape-font-specification:Helvetica">Schaltfl채che 2</tspan></text>

</g></g><g
           id="g224"><g
             clip-path="url(#clipPath228)"
             id="g226" /></g></g></g><path
       d="m 646.32,408.75 c -9.67,0 -17.52,-1.79 -17.52,-4 l 0,-6 0,-10 c 0,-2.21 7.85,-4 17.52,-4 l 26.29,0 43.81,0 c 9.68,0 17.53,1.79 17.53,4 l 0,10 0,6 c 0,2.21 -7.85,4 -17.53,4 l -43.81,0 -61.91,47.6 35.62,-47.6 z"
       inkscape:connector-curvature="0"
       id="path232"
       style="fill:#ffffff;fill-opacity:1;fill-rule:evenodd;stroke:none" /><path
       d="m 646.32,408.75 c -9.67,0 -17.52,-1.79 -17.52,-4 l 0,-6 0,-10 c 0,-2.21 7.85,-4 17.52,-4 l 26.29,0 43.81,0 c 9.68,0 17.53,1.79 17.53,4 l 0,10 0,6 c 0,2.21 -7.85,4 -17.53,4 l -43.81,0 -61.91,47.6 35.62,-47.6 z"
       inkscape:connector-curvature="0"
       id="path234"
       style="fill:none;stroke:#000000;stroke-width:0.75;stroke-linecap:round;stroke-linejoin:round;stroke-miterlimit:10;stroke-opacity:1;stroke-dasharray:none" /><g
       id="g236"><g
         clip-path="url(#clipPath240)"
         id="g238"><g
           id="g244"><g
             clip-path="url(#clipPath248)"
             id="g246"><text
   transform="matrix(1,0,0,-1,643.75,392.93)"
   id="text252"><tspan
     x="0 8.0279999 14.028 20.736 27.444 30.108 33.324001 36.792 39.456001 46.127998 52.032001 58.740002 65.447998 68.688004"
     y="0"
     id="tspan254"
     style="font-size:12px;font-variant:normal;font-weight:normal;writing-mode:lr-tb;fill:#000000;fill-opacity:1;fill-rule:nonzero;stroke:none;font-family:Helvetica;-inkscape-font-specification:Helvetica">Schaltfl채che 3</tspan></text>

</g></g><g
           id="g256"><g
             clip-path="url(#clipPath260)"
             id="g258" /></g></g></g></g></svg>