<?xml version="1.0" encoding="UTF-8" standalone="no"?>
<!-- Created with Inkscape (http://www.inkscape.org/) -->

<svg
   xmlns:dc="http://purl.org/dc/elements/1.1/"
   xmlns:cc="http://creativecommons.org/ns#"
   xmlns:rdf="http://www.w3.org/1999/02/22-rdf-syntax-ns#"
   xmlns:svg="http://www.w3.org/2000/svg"
   xmlns="http://www.w3.org/2000/svg"
   xmlns:sodipodi="http://sodipodi.sourceforge.net/DTD/sodipodi-0.dtd"
   xmlns:inkscape="http://www.inkscape.org/namespaces/inkscape"
   version="1.1"
   width="849.75"
   height="354.5625"
   id="svg2"
   xml:space="preserve"
   inkscape:version="0.48.4 r9939"
   sodipodi:docname="Bild 4-6 Klassendiagramm für das Beispiel .svg"><sodipodi:namedview
     pagecolor="#ffffff"
     bordercolor="#666666"
     borderopacity="1"
     objecttolerance="10"
     gridtolerance="10"
     guidetolerance="10"
     inkscape:pageopacity="0"
     inkscape:pageshadow="2"
     inkscape:window-width="640"
     inkscape:window-height="480"
     id="namedview219"
     showgrid="false"
     inkscape:zoom="0.18730159"
     inkscape:cx="585.65625"
     inkscape:cy="53.09375"
     inkscape:window-x="0"
     inkscape:window-y="0"
     inkscape:window-maximized="0"
     inkscape:current-layer="svg2" /><metadata
     id="metadata8"><rdf:RDF><cc:Work
         rdf:about=""><dc:format>image/svg+xml</dc:format><dc:type
           rdf:resource="http://purl.org/dc/dcmitype/StillImage" /></cc:Work></rdf:RDF></metadata><defs
     id="defs6"><clipPath
       id="clipPath22"><path
         d="m 427.61,578.35 142.83,0 0,90.255 -142.83,0 0,-90.255 z"
         inkscape:connector-curvature="0"
         id="path24" /></clipPath><clipPath
       id="clipPath30"><path
         d="m 427.61,578.35 142.82,0 0,90.264 -142.82,0 0,-90.264 z"
         inkscape:connector-curvature="0"
         id="path32" /></clipPath><clipPath
       id="clipPath42"><path
         d="m 427.61,578.35 142.82,0 0,90.264 -142.82,0 0,-90.264 z"
         inkscape:connector-curvature="0"
         id="path44" /></clipPath><clipPath
       id="clipPath50"><path
         d="m 427.61,578.35 142.82,0 0,90.264 -142.82,0 0,-90.264 z"
         inkscape:connector-curvature="0"
         id="path52" /></clipPath><clipPath
       id="clipPath62"><path
         d="m 427.61,578.35 142.82,0 0,90.264 -142.82,0 0,-90.264 z"
         inkscape:connector-curvature="0"
         id="path64" /></clipPath><clipPath
       id="clipPath74"><path
         d="m 427.61,578.35 142.82,0 0,90.264 -142.82,0 0,-90.264 z"
         inkscape:connector-curvature="0"
         id="path76" /></clipPath><clipPath
       id="clipPath86"><path
         d="m 427.61,578.35 142.82,0 0,90.264 -142.82,0 0,-90.264 z"
         inkscape:connector-curvature="0"
         id="path88" /></clipPath><clipPath
       id="clipPath98"><path
         d="m 427.61,578.35 142.82,0 0,90.264 -142.82,0 0,-90.264 z"
         inkscape:connector-curvature="0"
         id="path100" /></clipPath><clipPath
       id="clipPath110"><path
         d="m 427.61,578.35 142.82,0 0,90.264 -142.82,0 0,-90.264 z"
         inkscape:connector-curvature="0"
         id="path112" /></clipPath><clipPath
       id="clipPath118"><path
         d="m 427.61,578.35 142.82,0 0,90.264 -142.82,0 0,-90.264 z"
         inkscape:connector-curvature="0"
         id="path120" /></clipPath><clipPath
       id="clipPath126"><path
         d="m 427.61,578.35 142.82,0 0,90.264 -142.82,0 0,-90.264 z"
         inkscape:connector-curvature="0"
         id="path128" /></clipPath><clipPath
       id="clipPath138"><path
         d="m 57.601,584.35 134.91,0 0,68.4 -134.91,0 0,-68.4 z"
         inkscape:connector-curvature="0"
         id="path140" /></clipPath><clipPath
       id="clipPath146"><path
         d="m 57.6,584.35 134.9,0 0,68.4 -134.9,0 0,-68.4 z"
         inkscape:connector-curvature="0"
         id="path148" /></clipPath><clipPath
       id="clipPath158"><path
         d="m 57.6,584.35 134.9,0 0,68.4 -134.9,0 0,-68.4 z"
         inkscape:connector-curvature="0"
         id="path160" /></clipPath><clipPath
       id="clipPath166"><path
         d="m 57.6,584.35 134.9,0 0,68.4 -134.9,0 0,-68.4 z"
         inkscape:connector-curvature="0"
         id="path168" /></clipPath><clipPath
       id="clipPath174"><path
         d="m 57.6,584.35 134.9,0 0,68.4 -134.9,0 0,-68.4 z"
         inkscape:connector-curvature="0"
         id="path176" /></clipPath><clipPath
       id="clipPath182"><path
         d="m 57.6,584.35 134.9,0 0,68.4 -134.9,0 0,-68.4 z"
         inkscape:connector-curvature="0"
         id="path184" /></clipPath><clipPath
       id="clipPath196"><path
         d="m 36.721,465.79 180.39,0 0,68.52 -180.39,0 0,-68.52 z"
         inkscape:connector-curvature="0"
         id="path198" /></clipPath><clipPath
       id="clipPath204"><path
         d="m 36.72,465.79 180.38,0 0,68.52 -180.38,0 0,-68.52 z"
         inkscape:connector-curvature="0"
         id="path206" /></clipPath><clipPath
       id="clipPath216"><path
         d="m 36.72,465.79 180.38,0 0,68.52 -180.38,0 0,-68.52 z"
         inkscape:connector-curvature="0"
         id="path218" /></clipPath><clipPath
       id="clipPath228"><path
         d="m 36.961,698.49 165.03,0 0,42.24 -165.03,0 0,-42.24 z"
         inkscape:connector-curvature="0"
         id="path230" /></clipPath><clipPath
       id="clipPath236"><path
         d="m 36.96,698.5 165.02,0 0,42.24 -165.02,0 0,-42.24 z"
         inkscape:connector-curvature="0"
         id="path238" /></clipPath><clipPath
       id="clipPath248"><path
         d="m 36.96,698.5 165.02,0 0,42.24 -165.02,0 0,-42.24 z"
         inkscape:connector-curvature="0"
         id="path250" /></clipPath><clipPath
       id="clipPath256"><path
         d="m 36.96,698.5 165.02,0 0,42.24 -165.02,0 0,-42.24 z"
         inkscape:connector-curvature="0"
         id="path258" /></clipPath><clipPath
       id="clipPath264"><path
         d="m 36.96,698.5 165.02,0 0,42.24 -165.02,0 0,-42.24 z"
         inkscape:connector-curvature="0"
         id="path266" /></clipPath><clipPath
       id="clipPath272"><path
         d="m 36.96,698.5 165.02,0 0,42.24 -165.02,0 0,-42.24 z"
         inkscape:connector-curvature="0"
         id="path274" /></clipPath><clipPath
       id="clipPath282"><path
         d="m 531.2,465.79 183.74,0 0,53.52 -183.74,0 0,-53.52 z"
         inkscape:connector-curvature="0"
         id="path284" /></clipPath><clipPath
       id="clipPath290"><path
         d="m 531.19,465.79 183.74,0 0,53.52 -183.74,0 0,-53.52 z"
         inkscape:connector-curvature="0"
         id="path292" /></clipPath><clipPath
       id="clipPath302"><path
         d="m 531.19,465.79 183.74,0 0,53.52 -183.74,0 0,-53.52 z"
         inkscape:connector-curvature="0"
         id="path304" /></clipPath><clipPath
       id="clipPath310"><path
         d="m 531.19,465.79 183.74,0 0,53.52 -183.74,0 0,-53.52 z"
         inkscape:connector-curvature="0"
         id="path312" /></clipPath><clipPath
       id="clipPath318"><path
         d="m 531.19,465.79 183.74,0 0,53.52 -183.74,0 0,-53.52 z"
         inkscape:connector-curvature="0"
         id="path320" /></clipPath><clipPath
       id="clipPath328"><path
         d="m 46.201,660.91 59.19,0 0,25.815 -59.19,0 0,-25.815 z"
         inkscape:connector-curvature="0"
         id="path330" /></clipPath><clipPath
       id="clipPath336"><path
         d="m 46.2,660.91 59.184,0 0,25.824 -59.184,0 0,-25.824 z"
         inkscape:connector-curvature="0"
         id="path338" /></clipPath><clipPath
       id="clipPath348"><path
         d="m 46.2,660.91 59.184,0 0,25.824 -59.184,0 0,-25.824 z"
         inkscape:connector-curvature="0"
         id="path350" /></clipPath><clipPath
       id="clipPath356"><path
         d="m 123.63,660.67 59.16,0 0,25.815 -59.16,0 0,-25.815 z"
         inkscape:connector-curvature="0"
         id="path358" /></clipPath><clipPath
       id="clipPath364"><path
         d="m 123.62,660.67 59.16,0 0,25.824 -59.16,0 0,-25.824 z"
         inkscape:connector-curvature="0"
         id="path366" /></clipPath><clipPath
       id="clipPath376"><path
         d="m 123.62,660.67 59.16,0 0,25.824 -59.16,0 0,-25.824 z"
         inkscape:connector-curvature="0"
         id="path378" /></clipPath><clipPath
       id="clipPath400"><path
         d="m 331.85,465.79 158.31,0 0,53.52 -158.31,0 0,-53.52 z"
         inkscape:connector-curvature="0"
         id="path402" /></clipPath><clipPath
       id="clipPath408"><path
         d="m 331.85,465.79 158.3,0 0,53.52 -158.3,0 0,-53.52 z"
         inkscape:connector-curvature="0"
         id="path410" /></clipPath><clipPath
       id="clipPath420"><path
         d="m 331.85,465.79 158.3,0 0,53.52 -158.3,0 0,-53.52 z"
         inkscape:connector-curvature="0"
         id="path422" /></clipPath></defs><g
     transform="matrix(1.25,0,0,-1.25,-44.71875,931.46875)"
     id="g10"><path
       d="m 57.15,629.9 136.5,-0.05"
       inkscape:connector-curvature="0"
       id="path12"
       style="fill:none;stroke:#000000;stroke-width:0.75;stroke-linecap:round;stroke-linejoin:round;stroke-miterlimit:10;stroke-opacity:1;stroke-dasharray:none" /><path
       d="m 426.9,609.55 144,0.05"
       inkscape:connector-curvature="0"
       id="path14"
       style="fill:none;stroke:#000000;stroke-width:0.75;stroke-linecap:round;stroke-linejoin:round;stroke-miterlimit:10;stroke-opacity:1;stroke-dasharray:none" /><path
       d="m 427.2,574.35 143.55,0 0,98.25 -143.55,0 0,-98.25 z"
       inkscape:connector-curvature="0"
       id="path16"
       style="fill:none;stroke:#000000;stroke-width:0.75;stroke-linecap:round;stroke-linejoin:miter;stroke-miterlimit:8;stroke-opacity:1;stroke-dasharray:none" /><g
       id="g18"><g
         clip-path="url(#clipPath22)"
         id="g20"><g
           id="g26"><g
             clip-path="url(#clipPath30)"
             id="g28"><text
   transform="matrix(1,0,0,-1,452.81,656.71)"
   id="text34"><tspan
     x="0 8.3999996 16.799999 25.200001 33.599998 42 50.400002 58.799999 67.199997 75.599998 84"
     y="0"
     id="tspan36"
     style="font-size:14.03999996px;font-variant:normal;font-weight:normal;writing-mode:lr-tb;fill:#000000;fill-opacity:1;fill-rule:nonzero;stroke:none;font-family:Courier New;-inkscape-font-specification:Courier New">«interface»</tspan></text>

</g></g><g
           id="g38"><g
             clip-path="url(#clipPath42)"
             id="g40" /></g><g
           id="g46"><g
             clip-path="url(#clipPath50)"
             id="g48"><text
   transform="matrix(1,0,0,-1,452.33,637.39)"
   id="text54"><tspan
     x="0"
     y="0"
     id="tspan56"
     style="font-size:14.03999996px;font-variant:normal;font-weight:bold;writing-mode:lr-tb;fill:#000000;fill-opacity:1;fill-rule:nonzero;stroke:none;font-family:Helvetica;-inkscape-font-specification:Helvetica-Bold">I</tspan></text>

</g></g><g
           id="g58"><g
             clip-path="url(#clipPath62)"
             id="g60"><text
   transform="matrix(1,0,0,-1,456.41,637.39)"
   id="text66"><tspan
     x="0 9.8420401 18.364321 26.170561 34.678799 38.624039 46.430279 50.375519 58.8978 66.704041 72.207718 80.013962"
     y="0"
     id="tspan68"
     style="font-size:14.03999996px;font-variant:normal;font-weight:bold;writing-mode:lr-tb;fill:#000000;fill-opacity:1;fill-rule:nonzero;stroke:none;font-family:Helvetica;-inkscape-font-specification:Helvetica-Bold">Abspielgerät</tspan></text>

</g></g><g
           id="g70"><g
             clip-path="url(#clipPath74)"
             id="g72"><text
   transform="matrix(1,0,0,-1,541.15,637.39)"
   id="text78"><tspan
     x="0"
     y="0"
     id="tspan80"
     style="font-size:14.03999996px;font-variant:normal;font-weight:bold;writing-mode:lr-tb;fill:#000000;fill-opacity:1;fill-rule:nonzero;stroke:none;font-family:Helvetica;-inkscape-font-specification:Helvetica-Bold">-</tspan></text>

</g></g><g
           id="g82"><g
             clip-path="url(#clipPath86)"
             id="g84"><text
   transform="matrix(1,0,0,-1,448.85,618.79)"
   id="text90"><tspan
     x="0 3.94524 16.4268 24.94908 28.89432"
     y="0"
     id="tspan92"
     style="font-size:14.03999996px;font-variant:normal;font-weight:bold;writing-mode:lr-tb;fill:#000000;fill-opacity:1;fill-rule:nonzero;stroke:none;font-family:Helvetica;-inkscape-font-specification:Helvetica-Bold">Imple</tspan></text>

</g></g><g
           id="g94"><g
             clip-path="url(#clipPath98)"
             id="g96"><text
   transform="matrix(1,0,0,-1,485.47,618.79)"
   id="text102"><tspan
     x="0 12.48156 20.2878 28.79604 33.471359 37.416599 45.096481 50.600159 58.280041"
     y="0"
     id="tspan104"
     style="font-size:14.03999996px;font-variant:normal;font-weight:bold;writing-mode:lr-tb;fill:#000000;fill-opacity:1;fill-rule:nonzero;stroke:none;font-family:Helvetica;-inkscape-font-specification:Helvetica-Bold">mentierer</tspan></text>

</g></g><g
           id="g106"><g
             clip-path="url(#clipPath110)"
             id="g108" /></g><g
           id="g114"><g
             clip-path="url(#clipPath118)"
             id="g116" /></g><g
           id="g122"><g
             clip-path="url(#clipPath126)"
             id="g124" /></g></g></g><path
       d="m 36.15,512.85 181.5,0"
       inkscape:connector-curvature="0"
       id="path130"
       style="fill:none;stroke:#000000;stroke-width:0.75;stroke-linecap:round;stroke-linejoin:round;stroke-miterlimit:8;stroke-opacity:1;stroke-dasharray:none" /><path
       d="m 57.15,580.35 135.75,0 0,76.5 -135.75,0 0,-76.5 z"
       inkscape:connector-curvature="0"
       id="path132"
       style="fill:none;stroke:#000000;stroke-width:0.75;stroke-linecap:round;stroke-linejoin:miter;stroke-miterlimit:8;stroke-opacity:1;stroke-dasharray:none" /><g
       id="g134"><g
         clip-path="url(#clipPath138)"
         id="g136"><g
           id="g142"><g
             clip-path="url(#clipPath146)"
             id="g144"><text
   transform="matrix(1,0,0,-1,82.68,639.79)"
   id="text150"><tspan
     x="0 9.95436 18.476641 26.381161 34.903439 38.848679 46.654919 50.600159 59.12244 66.92868 72.432358 80.238602"
     y="0"
     id="tspan152"
     style="font-size:14.03999996px;font-variant:normal;font-weight:bold;writing-mode:lr-tb;fill:#000000;fill-opacity:1;fill-rule:nonzero;stroke:none;font-family:Helvetica;-inkscape-font-specification:Helvetica-Bold">Abspielgerät</tspan></text>

</g></g><g
           id="g154"><g
             clip-path="url(#clipPath158)"
             id="g156" /></g><g
           id="g162"><g
             clip-path="url(#clipPath166)"
             id="g164" /></g><g
           id="g170"><g
             clip-path="url(#clipPath174)"
             id="g172" /></g><g
           id="g178"><g
             clip-path="url(#clipPath182)"
             id="g180" /></g></g></g><path
       d="m 530.65,500.35 184.55,0"
       inkscape:connector-curvature="0"
       id="path186"
       style="fill:none;stroke:#000000;stroke-width:0.75;stroke-linecap:round;stroke-linejoin:round;stroke-miterlimit:8;stroke-opacity:1;stroke-dasharray:none" /><path
       d="m 125.65,696.05 -0.04,-7 c 0,-0.28 -0.22,-0.5 -0.5,-0.5 -0.28,0 -0.5,0.23 -0.5,0.5 l 0.04,7 c 0,0.28 0.23,0.5 0.5,0.5 0.28,0 0.5,-0.23 0.5,-0.5 z m -0.06,-11 -0.03,-7 c 0,-0.28 -0.23,-0.5 -0.51,-0.5 -0.27,0 -0.49,0.23 -0.49,0.5 l 0.03,7 c 0,0.28 0.23,0.5 0.51,0.5 0.27,0 0.49,-0.23 0.49,-0.5 z m -0.05,-11 -0.04,-7 c 0,-0.28 -0.23,-0.5 -0.5,-0.5 -0.28,0 -0.5,0.23 -0.5,0.5 l 0.04,7 c 0,0.28 0.22,0.5 0.5,0.5 0.27,0 0.5,-0.23 0.5,-0.5 z m -0.06,-11 -0.02,-3.55 c 0,-0.28 -0.23,-0.5 -0.5,-0.5 -0.28,0 -0.5,0.23 -0.5,0.5 l 0.02,3.55 c 0,0.28 0.23,0.5 0.5,0.5 0.28,0 0.5,-0.23 0.5,-0.5 z m 4.96,5.18 -5.49,-9.76 -5.38,9.82 c -0.13,0.24 -0.05,0.54 0.2,0.67 0.24,0.14 0.54,0.05 0.68,-0.19 l 4.95,-9.03 -0.88,0.01 5.05,8.97 c 0.14,0.24 0.44,0.33 0.68,0.19 0.24,-0.14 0.33,-0.44 0.19,-0.68 z"
       inkscape:connector-curvature="0"
       id="path188"
       style="fill:#000000;fill-opacity:1;fill-rule:nonzero;stroke:none" /><path
       d="m 36.3,461.9 181.2,0 0,76.5 -181.2,0 0,-76.5 z"
       inkscape:connector-curvature="0"
       id="path190"
       style="fill:none;stroke:#000000;stroke-width:0.75;stroke-linecap:round;stroke-linejoin:miter;stroke-miterlimit:8;stroke-opacity:1;stroke-dasharray:none" /><g
       id="g192"><g
         clip-path="url(#clipPath196)"
         id="g194"><g
           id="g200"><g
             clip-path="url(#clipPath204)"
             id="g202"><text
   transform="matrix(1,0,0,-1,63.96,520.99)"
   id="text208"><tspan
     x="0 8.5222797 12.46752 20.27376 24.94908 32.755322 41.375881 51.217918 59.7402 67.54644 76.05468 79.999924 87.80616 91.751404 100.27368 108.07992 113.5836 121.26348"
     y="0"
     id="tspan210"
     style="font-size:14.03999996px;font-variant:normal;font-weight:bold;writing-mode:lr-tb;fill:#000000;fill-opacity:1;fill-rule:nonzero;stroke:none;font-family:Helvetica;-inkscape-font-specification:Helvetica-Bold">ListenAbspielgerät</tspan></text>

</g></g><g
           id="g212"><g
             clip-path="url(#clipPath216)"
             id="g214" /></g></g></g><path
       d="m 36.6,694.55 165.7,0 0,50.25 -165.7,0 0,-50.25 z"
       inkscape:connector-curvature="0"
       id="path220"
       style="fill:#ffffff;fill-opacity:1;fill-rule:evenodd;stroke:none" /><path
       d="m 36.6,694.55 165.7,0 0,50.25 -165.7,0 0,-50.25 z"
       inkscape:connector-curvature="0"
       id="path222"
       style="fill:none;stroke:#000000;stroke-width:0.75;stroke-linecap:round;stroke-linejoin:miter;stroke-miterlimit:8;stroke-opacity:1;stroke-dasharray:none" /><g
       id="g224"><g
         clip-path="url(#clipPath228)"
         id="g226"><g
           id="g232"><g
             clip-path="url(#clipPath236)"
             id="g234"><text
   transform="matrix(1,0,0,-1,99.984,727.78)"
   id="text240"><tspan
     x="0 10.08072 14.02596 17.971201 25.777439 34.285679"
     y="0"
     id="tspan242"
     style="font-size:14.03999996px;font-variant:normal;font-weight:bold;writing-mode:lr-tb;fill:#000000;fill-opacity:1;fill-rule:nonzero;stroke:none;font-family:Helvetica;-inkscape-font-specification:Helvetica-Bold">Client</tspan></text>

</g></g><g
           id="g244"><g
             clip-path="url(#clipPath248)"
             id="g246" /></g><g
           id="g252"><g
             clip-path="url(#clipPath256)"
             id="g254" /></g><g
           id="g260"><g
             clip-path="url(#clipPath264)"
             id="g262" /></g><g
           id="g268"><g
             clip-path="url(#clipPath272)"
             id="g270" /></g></g></g><path
       d="m 530.7,461.9 184.5,0 0,61.5 -184.5,0 0,-61.5 z"
       inkscape:connector-curvature="0"
       id="path276"
       style="fill:none;stroke:#000000;stroke-width:0.75;stroke-linecap:round;stroke-linejoin:miter;stroke-miterlimit:8;stroke-opacity:1;stroke-dasharray:none" /><g
       id="g278"><g
         clip-path="url(#clipPath282)"
         id="g280"><g
           id="g286"><g
             clip-path="url(#clipPath290)"
             id="g288"><text
   transform="matrix(1,0,0,-1,566.23,506.35)"
   id="text294"><tspan
     x="0 10.08072 17.886959 25.693199 33.499439 41.305679 45.980999 50.656319 58.462559 66.956757 76.321442 84.843719 88.788963 96.468842 100.41408 108.22032"
     y="0"
     id="tspan296"
     style="font-size:14.03999996px;font-variant:normal;font-weight:bold;writing-mode:lr-tb;fill:#000000;fill-opacity:1;fill-rule:nonzero;stroke:none;font-family:Helvetica;-inkscape-font-specification:Helvetica-Bold">KassettenSpieler</tspan></text>

</g></g><g
           id="g298"><g
             clip-path="url(#clipPath302)"
             id="g300" /></g><g
           id="g306"><g
             clip-path="url(#clipPath310)"
             id="g308" /></g><g
           id="g314"><g
             clip-path="url(#clipPath318)"
             id="g316" /></g></g></g><path
       d="m 46.85,694.55 -0.009,-7 c 0,-0.28 -0.224,-0.5 -0.501,-0.5 -0.276,0 -0.499,0.22 -0.499,0.5 l 0.009,7 c 0,0.28 0.224,0.5 0.501,0.5 0.276,0 0.499,-0.22 0.499,-0.5 z m -0.014,-11 -0.009,-7 c 0,-0.28 -0.225,-0.5 -0.501,-0.5 -0.276,0 -0.499,0.22 -0.499,0.5 l 0.009,7 c 0,0.28 0.224,0.5 0.501,0.5 0.276,0 0.499,-0.22 0.499,-0.5 z m -0.014,-11 -0.009,-7 c -0.001,-0.28 -0.225,-0.5 -0.501,-0.5 -0.276,0 -0.5,0.22 -0.499,0.5 l 0.009,7 c 0,0.28 0.224,0.5 0.5,0.5 0.277,0 0.5,-0.22 0.5,-0.5 z m -0.014,-11 -0.009,-7 c -10e-4,-0.28 -0.225,-0.5 -0.501,-0.5 -0.276,0 -0.5,0.22 -0.499,0.5 l 0.009,7 c 0,0.28 0.224,0.5 0.5,0.5 0.277,0 0.5,-0.22 0.5,-0.5 z m -0.014,-11 -0.009,-7 c -10e-4,-0.28 -0.225,-0.5 -0.501,-0.5 -0.276,0 -0.5,0.22 -0.499,0.5 l 0.009,7 c 0,0.28 0.224,0.5 0.5,0.5 0.276,0 0.5,-0.22 0.5,-0.5 z m -0.014,-11 -0.009,-7 c -10e-4,-0.28 -0.225,-0.5 -0.501,-0.5 -0.276,0 -0.5,0.22 -0.499,0.5 l 0.009,7 c 0,0.28 0.224,0.5 0.5,0.5 0.276,0 0.5,-0.22 0.5,-0.5 z m -0.015,-11 -0.009,-7 c 0,-0.28 -0.224,-0.5 -0.5,-0.5 -0.276,0 -0.5,0.22 -0.5,0.5 l 0.009,7 c 10e-4,0.28 0.225,0.5 0.501,0.5 0.276,0 0.5,-0.22 0.499,-0.5 z m -0.014,-11 -0.009,-7 c 0,-0.28 -0.224,-0.5 -0.5,-0.5 -0.276,0 -0.5,0.22 -0.5,0.5 l 0.009,7 c 0.001,0.28 0.225,0.5 0.501,0.5 0.276,0 0.5,-0.22 0.499,-0.5 z m -0.014,-11 -0.009,-7 c 0,-0.28 -0.224,-0.5 -0.5,-0.5 -0.276,0 -0.5,0.22 -0.5,0.5 l 0.009,7 c 10e-4,0.28 0.225,0.5 0.501,0.5 0.276,0 0.5,-0.22 0.499,-0.5 z m -0.014,-11 -0.009,-7 c 0,-0.28 -0.224,-0.5 -0.5,-0.5 -0.277,0 -0.5,0.22 -0.5,0.5 l 0.009,7 c 10e-4,0.28 0.225,0.5 0.501,0.5 0.276,0 0.5,-0.22 0.499,-0.5 z m -0.014,-11 -0.009,-7 c 0,-0.28 -0.224,-0.5 -0.501,-0.5 -0.276,0 -0.499,0.22 -0.499,0.5 l 0.009,7 c 0,0.28 0.225,0.5 0.501,0.5 0.276,0 0.499,-0.22 0.499,-0.5 z m -0.014,-11 -0.009,-7 c 0,-0.28 -0.224,-0.5 -0.501,-0.5 -0.276,0 -0.499,0.22 -0.499,0.5 l 0.009,7 c 0,0.28 0.225,0.5 0.501,0.5 0.276,0 0.499,-0.22 0.499,-0.5 z m -0.014,-11 -0.009,-7 c 0,-0.28 -0.225,-0.5 -0.501,-0.5 -0.276,0 -0.499,0.22 -0.499,0.5 l 0.009,7 c 0,0.28 0.224,0.5 0.501,0.5 0.276,0 0.499,-0.22 0.499,-0.5 z m -0.014,-11 -0.009,-7 c 0,-0.28 -0.225,-0.5 -0.501,-0.5 -0.276,0 -0.499,0.22 -0.499,0.5 l 0.009,7 c 0,0.28 0.224,0.5 0.5,0.5 0.277,0 0.5,-0.22 0.5,-0.5 z m -0.014,-11 0,-0.15 c -10e-4,-0.28 -0.225,-0.5 -0.501,-0.5 -0.276,0 -0.5,0.22 -0.499,0.5 l 0,0.15 c 0,0.28 0.224,0.5 0.5,0.5 0.277,0 0.5,-0.22 0.5,-0.5 z m 4.948,8.6 -5.45,-9.78 -5.424,9.79 c -0.134,0.25 -0.047,0.55 0.195,0.68 0.241,0.14 0.546,0.05 0.679,-0.19 l 4.989,-9.01 -0.874,0 5.011,9 c 0.135,0.24 0.439,0.32 0.68,0.19 0.242,-0.13 0.328,-0.44 0.194,-0.68 z"
       inkscape:connector-curvature="0"
       id="path322"
       style="fill:#000000;fill-opacity:1;fill-rule:nonzero;stroke:none" /><g
       id="g324"><g
         clip-path="url(#clipPath328)"
         id="g326"><g
           id="g332"><g
             clip-path="url(#clipPath336)"
             id="g334"><text
   transform="matrix(1,0,0,-1,53.4,675.58)"
   id="text340"><tspan
     x="0 6.7080002 13.416 19.416 26.016001"
     y="0"
     id="tspan342"
     style="font-size:12px;font-variant:normal;font-weight:normal;writing-mode:lr-tb;fill:#000000;fill-opacity:1;fill-rule:nonzero;stroke:none;font-family:Helvetica;-inkscape-font-specification:Helvetica">«use»</tspan></text>

</g></g><g
           id="g344"><g
             clip-path="url(#clipPath348)"
             id="g346" /></g></g></g><g
       id="g352"><g
         clip-path="url(#clipPath356)"
         id="g354"><g
           id="g360"><g
             clip-path="url(#clipPath364)"
             id="g362"><text
   transform="matrix(1,0,0,-1,130.82,675.34)"
   id="text368"><tspan
     x="0 6.7080002 13.416 19.416 26.016001"
     y="0"
     id="tspan370"
     style="font-size:12px;font-variant:normal;font-weight:normal;writing-mode:lr-tb;fill:#000000;fill-opacity:1;fill-rule:nonzero;stroke:none;font-family:Helvetica;-inkscape-font-specification:Helvetica">«use»</tspan></text>

</g></g><g
           id="g372"><g
             clip-path="url(#clipPath376)"
             id="g374" /></g></g></g><path
       d="m 124.42,580.1 9.33,-15 -18.65,0 9.32,15 z"
       inkscape:connector-curvature="0"
       id="path380"
       style="fill:#ffffff;fill-opacity:1;fill-rule:evenodd;stroke:none" /><path
       d="m 124.42,580.1 9.33,-15 -18.65,0 9.32,15 z"
       inkscape:connector-curvature="0"
       id="path382"
       style="fill:none;stroke:#000000;stroke-width:0.75;stroke-linecap:round;stroke-linejoin:round;stroke-miterlimit:8;stroke-opacity:1;stroke-dasharray:none" /><path
       d="m 124.95,565.1 0,-26.7"
       inkscape:connector-curvature="0"
       id="path384"
       style="fill:none;stroke:#000000;stroke-width:0.75;stroke-linecap:round;stroke-linejoin:round;stroke-miterlimit:8;stroke-opacity:1;stroke-dasharray:none" /><path
       d="m 204.97,629.9 -11.87,-7.47 11.87,-7.48 11.88,7.48 -11.88,7.47 z"
       inkscape:connector-curvature="0"
       id="path386"
       style="fill:#ffffff;fill-opacity:1;fill-rule:evenodd;stroke:none" /><path
       d="m 204.97,629.9 -11.87,-7.47 11.87,-7.48 11.88,7.48 -11.88,7.47 z"
       inkscape:connector-curvature="0"
       id="path388"
       style="fill:none;stroke:#000000;stroke-width:0.75;stroke-linecap:round;stroke-linejoin:round;stroke-miterlimit:8;stroke-opacity:1;stroke-dasharray:none" /><path
       d="m 216.85,622.5 210.05,0"
       inkscape:connector-curvature="0"
       id="path390"
       style="fill:none;stroke:#000000;stroke-width:0.75;stroke-linecap:round;stroke-linejoin:round;stroke-miterlimit:8;stroke-opacity:1;stroke-dasharray:none" /><path
       d="m 331.45,461.9 159.05,0 0,61.5 -159.05,0 0,-61.5 z"
       inkscape:connector-curvature="0"
       id="path392"
       style="fill:#ffffff;fill-opacity:1;fill-rule:evenodd;stroke:none" /><path
       d="m 331.45,461.9 159.05,0 0,61.5 -159.05,0 0,-61.5 z"
       inkscape:connector-curvature="0"
       id="path394"
       style="fill:none;stroke:#000000;stroke-width:0.75;stroke-linecap:round;stroke-linejoin:miter;stroke-miterlimit:8;stroke-opacity:1;stroke-dasharray:none" /><g
       id="g396"><g
         clip-path="url(#clipPath400)"
         id="g398"><g
           id="g404"><g
             clip-path="url(#clipPath408)"
             id="g406"><text
   transform="matrix(1,0,0,-1,377.45,505.99)"
   id="text412"><tspan
     x="0 10.08072 20.16144 29.526119 38.048401 41.993641 49.799881 53.745121 61.551361"
     y="0"
     id="tspan414"
     style="font-size:14.03999996px;font-variant:normal;font-weight:bold;writing-mode:lr-tb;fill:#000000;fill-opacity:1;fill-rule:nonzero;stroke:none;font-family:Helvetica;-inkscape-font-specification:Helvetica-Bold">CDSpieler</tspan></text>

</g></g><g
           id="g416"><g
             clip-path="url(#clipPath420)"
             id="g418" /></g></g></g><path
       d="m 331.45,500.3 159.05,0"
       inkscape:connector-curvature="0"
       id="path424"
       style="fill:none;stroke:#000000;stroke-width:0.75;stroke-linecap:round;stroke-linejoin:round;stroke-miterlimit:8;stroke-opacity:1;stroke-dasharray:none" /><path
       d="m 460.49,574.2 -1.16,-17.63 -15.15,10.87 16.31,6.76 z"
       inkscape:connector-curvature="0"
       id="path426"
       style="fill:#ffffff;fill-opacity:1;fill-rule:evenodd;stroke:none" /><path
       d="m 460.49,574.2 -1.16,-17.63 -15.15,10.87 16.31,6.76 z"
       inkscape:connector-curvature="0"
       id="path428"
       style="fill:none;stroke:#000000;stroke-width:0.75;stroke-linecap:round;stroke-linejoin:round;stroke-miterlimit:8;stroke-opacity:1;stroke-dasharray:none" /><path
       d="m 534.09,574.17 17.31,-3.5 -12.78,-13.58 -4.53,17.08 z"
       inkscape:connector-curvature="0"
       id="path430"
       style="fill:#ffffff;fill-opacity:1;fill-rule:evenodd;stroke:none" /><path
       d="m 534.09,574.17 17.31,-3.5 -12.78,-13.58 -4.53,17.08 z"
       inkscape:connector-curvature="0"
       id="path432"
       style="fill:none;stroke:#000000;stroke-width:0.75;stroke-linecap:round;stroke-linejoin:round;stroke-miterlimit:8;stroke-opacity:1;stroke-dasharray:none" /><path
       d="M 451.8,561.9 425.1,523.4"
       inkscape:connector-curvature="0"
       id="path434"
       style="fill:none;stroke:#000000;stroke-width:0.75;stroke-linecap:round;stroke-linejoin:round;stroke-miterlimit:8;stroke-opacity:1;stroke-dasharray:none" /><path
       d="m 544.85,563.7 43.45,-40"
       inkscape:connector-curvature="0"
       id="path436"
       style="fill:none;stroke:#000000;stroke-width:0.75;stroke-linecap:round;stroke-linejoin:round;stroke-miterlimit:8;stroke-opacity:1;stroke-dasharray:none" /></g></svg>