<?xml version="1.0" encoding="UTF-8" standalone="no"?>
<!-- Created with Inkscape (http://www.inkscape.org/) -->

<svg
   xmlns:dc="http://purl.org/dc/elements/1.1/"
   xmlns:cc="http://creativecommons.org/ns#"
   xmlns:rdf="http://www.w3.org/1999/02/22-rdf-syntax-ns#"
   xmlns:svg="http://www.w3.org/2000/svg"
   xmlns="http://www.w3.org/2000/svg"
   xmlns:sodipodi="http://sodipodi.sourceforge.net/DTD/sodipodi-0.dtd"
   xmlns:inkscape="http://www.inkscape.org/namespaces/inkscape"
   version="1.1"
   width="570.96875"
   height="301.875"
   id="svg2"
   xml:space="preserve"
   inkscape:version="0.48.4 r9939"
   sodipodi:docname="Bild 4-11 Klassendiagramm des Dekorierer-Musters mit mehreren konkreten Dekorierern.svg"><sodipodi:namedview
     pagecolor="#ffffff"
     bordercolor="#666666"
     borderopacity="1"
     objecttolerance="10"
     gridtolerance="10"
     guidetolerance="10"
     inkscape:pageopacity="0"
     inkscape:pageshadow="2"
     inkscape:window-width="640"
     inkscape:window-height="480"
     id="namedview240"
     showgrid="false"
     inkscape:zoom="0.18730159"
     inkscape:cx="338.34375"
     inkscape:cy="197.34375"
     inkscape:window-x="0"
     inkscape:window-y="0"
     inkscape:window-maximized="0"
     inkscape:current-layer="svg2" /><metadata
     id="metadata8"><rdf:RDF><cc:Work
         rdf:about=""><dc:format>image/svg+xml</dc:format><dc:type
           rdf:resource="http://purl.org/dc/dcmitype/StillImage" /></cc:Work></rdf:RDF></metadata><defs
     id="defs6"><clipPath
       id="clipPath24"><path
         d="m 417.05,553.75 95.19,0 0,29.4 -95.19,0 0,-29.4 z"
         inkscape:connector-curvature="0"
         id="path26" /></clipPath><clipPath
       id="clipPath32"><path
         d="m 417.05,553.75 95.184,0 0,29.4 -95.184,0 0,-29.4 z"
         inkscape:connector-curvature="0"
         id="path34" /></clipPath><clipPath
       id="clipPath44"><path
         d="m 417.05,553.75 95.184,0 0,29.4 -95.184,0 0,-29.4 z"
         inkscape:connector-curvature="0"
         id="path46" /></clipPath><clipPath
       id="clipPath56"><path
         d="m 492.08,449.47 95.16,0 0,29.52 -95.16,0 0,-29.52 z"
         inkscape:connector-curvature="0"
         id="path58" /></clipPath><clipPath
       id="clipPath64"><path
         d="m 492.07,449.47 95.16,0 0,29.52 -95.16,0 0,-29.52 z"
         inkscape:connector-curvature="0"
         id="path66" /></clipPath><clipPath
       id="clipPath76"><path
         d="m 492.07,449.47 95.16,0 0,29.52 -95.16,0 0,-29.52 z"
         inkscape:connector-curvature="0"
         id="path78" /></clipPath><clipPath
       id="clipPath84"><path
         d="m 492.07,449.47 95.16,0 0,29.52 -95.16,0 0,-29.52 z"
         inkscape:connector-curvature="0"
         id="path86" /></clipPath><clipPath
       id="clipPath96"><path
         d="m 492.07,449.47 95.16,0 0,29.52 -95.16,0 0,-29.52 z"
         inkscape:connector-curvature="0"
         id="path98" /></clipPath><clipPath
       id="clipPath130"><path
         d="m 449.33,458.11 37.47,0 0,12.96 -37.47,0 0,-12.96 z"
         inkscape:connector-curvature="0"
         id="path132" /></clipPath><clipPath
       id="clipPath138"><path
         d="m 449.33,458.11 37.464,0 0,12.96 -37.464,0 0,-12.96 z"
         inkscape:connector-curvature="0"
         id="path140" /></clipPath><clipPath
       id="clipPath150"><path
         d="m 449.33,458.11 37.464,0 0,12.96 -37.464,0 0,-12.96 z"
         inkscape:connector-curvature="0"
         id="path152" /></clipPath><clipPath
       id="clipPath162"><path
         d="m 443.33,350.44 95.19,0 0,29.52 -95.19,0 0,-29.52 z"
         inkscape:connector-curvature="0"
         id="path164" /></clipPath><clipPath
       id="clipPath170"><path
         d="m 443.33,350.45 95.184,0 0,29.52 -95.184,0 0,-29.52 z"
         inkscape:connector-curvature="0"
         id="path172" /></clipPath><clipPath
       id="clipPath182"><path
         d="m 443.33,350.45 95.184,0 0,29.52 -95.184,0 0,-29.52 z"
         inkscape:connector-curvature="0"
         id="path184" /></clipPath><clipPath
       id="clipPath190"><path
         d="m 443.33,350.45 95.184,0 0,29.52 -95.184,0 0,-29.52 z"
         inkscape:connector-curvature="0"
         id="path192" /></clipPath><clipPath
       id="clipPath202"><path
         d="m 443.33,350.45 95.184,0 0,29.52 -95.184,0 0,-29.52 z"
         inkscape:connector-curvature="0"
         id="path204" /></clipPath><clipPath
       id="clipPath214"><path
         d="m 546.8,350.44 95.28,0 0,29.52 -95.28,0 0,-29.52 z"
         inkscape:connector-curvature="0"
         id="path216" /></clipPath><clipPath
       id="clipPath222"><path
         d="m 546.79,350.45 95.28,0 0,29.52 -95.28,0 0,-29.52 z"
         inkscape:connector-curvature="0"
         id="path224" /></clipPath><clipPath
       id="clipPath234"><path
         d="m 546.79,350.45 95.28,0 0,29.52 -95.28,0 0,-29.52 z"
         inkscape:connector-curvature="0"
         id="path236" /></clipPath><clipPath
       id="clipPath242"><path
         d="m 546.79,350.45 95.28,0 0,29.52 -95.28,0 0,-29.52 z"
         inkscape:connector-curvature="0"
         id="path244" /></clipPath><clipPath
       id="clipPath254"><path
         d="m 546.79,350.45 95.28,0 0,29.52 -95.28,0 0,-29.52 z"
         inkscape:connector-curvature="0"
         id="path256" /></clipPath><clipPath
       id="clipPath268"><path
         d="m 653,359.08 37.455,0 0,12.96 -37.455,0 0,-12.96 z"
         inkscape:connector-curvature="0"
         id="path270" /></clipPath><clipPath
       id="clipPath276"><path
         d="m 652.99,359.09 37.464,0 0,12.96 -37.464,0 0,-12.96 z"
         inkscape:connector-curvature="0"
         id="path278" /></clipPath><clipPath
       id="clipPath288"><path
         d="m 652.99,359.09 37.464,0 0,12.96 -37.464,0 0,-12.96 z"
         inkscape:connector-curvature="0"
         id="path290" /></clipPath><clipPath
       id="clipPath300"><path
         d="m 234.39,552.91 95.295,0 0,29.52 -95.295,0 0,-29.52 z"
         inkscape:connector-curvature="0"
         id="path302" /></clipPath><clipPath
       id="clipPath308"><path
         d="m 234.38,552.91 95.304,0 0,29.52 -95.304,0 0,-29.52 z"
         inkscape:connector-curvature="0"
         id="path310" /></clipPath><clipPath
       id="clipPath320"><path
         d="m 234.38,552.91 95.304,0 0,29.52 -95.304,0 0,-29.52 z"
         inkscape:connector-curvature="0"
         id="path322" /></clipPath><clipPath
       id="clipPath332"><path
         d="m 234.75,449.47 95.295,0 0,29.52 -95.295,0 0,-29.52 z"
         inkscape:connector-curvature="0"
         id="path334" /></clipPath><clipPath
       id="clipPath340"><path
         d="m 234.74,449.47 95.304,0 0,29.52 -95.304,0 0,-29.52 z"
         inkscape:connector-curvature="0"
         id="path342" /></clipPath><clipPath
       id="clipPath352"><path
         d="m 234.74,449.47 95.304,0 0,29.52 -95.304,0 0,-29.52 z"
         inkscape:connector-curvature="0"
         id="path354" /></clipPath><clipPath
       id="clipPath360"><path
         d="m 234.74,449.47 95.304,0 0,29.52 -95.304,0 0,-29.52 z"
         inkscape:connector-curvature="0"
         id="path362" /></clipPath><clipPath
       id="clipPath372"><path
         d="m 234.74,449.47 95.304,0 0,29.52 -95.304,0 0,-29.52 z"
         inkscape:connector-curvature="0"
         id="path374" /></clipPath><clipPath
       id="clipPath384"><path
         d="m 338.33,449.47 95.16,0 0,29.52 -95.16,0 0,-29.52 z"
         inkscape:connector-curvature="0"
         id="path386" /></clipPath><clipPath
       id="clipPath392"><path
         d="m 338.33,449.47 95.16,0 0,29.52 -95.16,0 0,-29.52 z"
         inkscape:connector-curvature="0"
         id="path394" /></clipPath><clipPath
       id="clipPath404"><path
         d="m 338.33,449.47 95.16,0 0,29.52 -95.16,0 0,-29.52 z"
         inkscape:connector-curvature="0"
         id="path406" /></clipPath><clipPath
       id="clipPath412"><path
         d="m 338.33,449.47 95.16,0 0,29.52 -95.16,0 0,-29.52 z"
         inkscape:connector-curvature="0"
         id="path414" /></clipPath><clipPath
       id="clipPath424"><path
         d="m 338.33,449.47 95.16,0 0,29.52 -95.16,0 0,-29.52 z"
         inkscape:connector-curvature="0"
         id="path426" /></clipPath><clipPath
       id="clipPath432"><path
         d="m 338.33,449.47 95.16,0 0,29.52 -95.16,0 0,-29.52 z"
         inkscape:connector-curvature="0"
         id="path434" /></clipPath><clipPath
       id="clipPath440"><path
         d="m 341.45,563.59 56.16,0 0,17.4 -56.16,0 0,-17.4 z"
         inkscape:connector-curvature="0"
         id="path442" /></clipPath><clipPath
       id="clipPath448"><path
         d="m 341.45,563.59 56.16,0 0,17.4 -56.16,0 0,-17.4 z"
         inkscape:connector-curvature="0"
         id="path450" /></clipPath><clipPath
       id="clipPath460"><path
         d="m 341.45,563.59 56.16,0 0,17.4 -56.16,0 0,-17.4 z"
         inkscape:connector-curvature="0"
         id="path462" /></clipPath></defs><g
     transform="matrix(1.25,0,0,-1.25,-292.03125,734.53125)"
     id="g10"><path
       d="M 450.1,536.85 407.55,483"
       inkscape:connector-curvature="0"
       id="path12"
       style="fill:none;stroke:#000000;stroke-width:0.75;stroke-linecap:round;stroke-linejoin:round;stroke-miterlimit:10;stroke-opacity:1;stroke-dasharray:none" /><path
       d="M 416.61,540.98 315.09,483.32"
       inkscape:connector-curvature="0"
       id="path14"
       style="fill:none;stroke:#000000;stroke-width:0.75;stroke-linecap:round;stroke-linejoin:round;stroke-miterlimit:10;stroke-opacity:1;stroke-dasharray:none" /><path
       d="m 416.6,549.75 96,0 0,37.5 -96,0 0,-37.5 z"
       inkscape:connector-curvature="0"
       id="path16"
       style="fill:#ffffff;fill-opacity:1;fill-rule:evenodd;stroke:none" /><path
       d="m 416.6,549.75 96,0 0,37.5 -96,0 0,-37.5 z"
       inkscape:connector-curvature="0"
       id="path18"
       style="fill:none;stroke:#000000;stroke-width:0.75;stroke-linecap:round;stroke-linejoin:miter;stroke-miterlimit:8;stroke-opacity:1;stroke-dasharray:none" /><g
       id="g20"><g
         clip-path="url(#clipPath24)"
         id="g22"><g
           id="g28"><g
             clip-path="url(#clipPath32)"
             id="g30"><text
   transform="matrix(1,0,0,-1,427.97,571.63)"
   id="text36"><tspan
     x="0 8.6639996 15.996 26.664 33.959999 41.292 48.624001 55.296001 62.627998 66.624001"
     y="0"
     id="tspan38"
     style="font-size:12px;font-variant:normal;font-weight:bold;writing-mode:lr-tb;fill:#000000;fill-opacity:1;fill-rule:nonzero;stroke:none;font-family:Helvetica;-inkscape-font-specification:Helvetica-Bold">Komponente</tspan></text>

</g></g><g
           id="g40"><g
             clip-path="url(#clipPath44)"
             id="g42" /></g></g></g><path
       d="m 491.6,445.5 96,0 0,37.5 -96,0 0,-37.5 z"
       inkscape:connector-curvature="0"
       id="path48"
       style="fill:#ffffff;fill-opacity:1;fill-rule:evenodd;stroke:none" /><path
       d="m 491.6,445.5 96,0 0,37.5 -96,0 0,-37.5 z"
       inkscape:connector-curvature="0"
       id="path50"
       style="fill:none;stroke:#000000;stroke-width:0.75;stroke-linecap:round;stroke-linejoin:miter;stroke-miterlimit:8;stroke-opacity:1;stroke-dasharray:none" /><g
       id="g52"><g
         clip-path="url(#clipPath56)"
         id="g54"><g
           id="g60"><g
             clip-path="url(#clipPath64)"
             id="g62"><text
   transform="matrix(1,0,0,-1,509.71,467.95)"
   id="text68"><tspan
     x="0 8.6639996 15.996 22.667999 26.664 31.332001 38.028 44.736 48.731998 55.403999"
     y="0"
     id="tspan70"
     style="font-size:12px;font-style:oblique;font-variant:normal;font-weight:bold;writing-mode:lr-tb;fill:#000000;fill-opacity:1;fill-rule:nonzero;stroke:none;font-family:Helvetica;-inkscape-font-specification:Helvetica-BoldOblique">Abstrakter</tspan></text>

</g></g><g
           id="g72"><g
             clip-path="url(#clipPath76)"
             id="g74" /></g><g
           id="g80"><g
             clip-path="url(#clipPath84)"
             id="g82"><text
   transform="matrix(1,0,0,-1,509.71,453.91)"
   id="text88"><tspan
     x="0 8.6639996 15.336 22.068001 29.4 34.068001 37.403999 44.136002 48.695999 55.403999"
     y="0"
     id="tspan90"
     style="font-size:12px;font-style:oblique;font-variant:normal;font-weight:bold;writing-mode:lr-tb;fill:#000000;fill-opacity:1;fill-rule:nonzero;stroke:none;font-family:Helvetica;-inkscape-font-specification:Helvetica-BoldOblique">Dekorierer</tspan></text>

</g></g><g
           id="g92"><g
             clip-path="url(#clipPath96)"
             id="g94" /></g></g></g><path
       d="m 599.22,472.5 -10.87,-6.37 10.87,-6.38 10.88,6.38 -10.88,6.37 z"
       inkscape:connector-curvature="0"
       id="path100"
       style="fill:#ffffff;fill-opacity:1;fill-rule:evenodd;stroke:none" /><path
       d="m 599.22,472.5 -10.87,-6.37 10.87,-6.38 10.88,6.38 -10.88,6.37 z"
       inkscape:connector-curvature="0"
       id="path102"
       style="fill:none;stroke:#000000;stroke-width:0.75;stroke-linecap:round;stroke-linejoin:round;stroke-miterlimit:8;stroke-opacity:1;stroke-dasharray:none" /><path
       d="m 487.07,549.62 16.07,-8.06 -10.92,-9.16 -5.15,17.22 z"
       inkscape:connector-curvature="0"
       id="path104"
       style="fill:#ffffff;fill-opacity:1;fill-rule:evenodd;stroke:none" /><path
       d="m 487.07,549.62 16.07,-8.06 -10.92,-9.16 -5.15,17.22 z"
       inkscape:connector-curvature="0"
       id="path106"
       style="fill:none;stroke:#000000;stroke-width:0.75;stroke-linecap:round;stroke-linejoin:round;stroke-miterlimit:8;stroke-opacity:1;stroke-dasharray:none" /><path
       d="m 610.1,465.75 26.25,-0.05"
       inkscape:connector-curvature="0"
       id="path108"
       style="fill:none;stroke:#000000;stroke-width:0.75;stroke-linecap:round;stroke-linejoin:round;stroke-miterlimit:8;stroke-opacity:1;stroke-dasharray:none" /><path
       d="m 512.6,567 124.5,-0.15"
       inkscape:connector-curvature="0"
       id="path110"
       style="fill:none;stroke:#000000;stroke-width:0.75;stroke-linecap:round;stroke-linejoin:round;stroke-miterlimit:8;stroke-opacity:1;stroke-dasharray:none" /><path
       d="M 636.35,567 636.4,466.5"
       inkscape:connector-curvature="0"
       id="path112"
       style="fill:none;stroke:#000000;stroke-width:0.75;stroke-linecap:round;stroke-linejoin:round;stroke-miterlimit:8;stroke-opacity:1;stroke-dasharray:none" /><path
       d="m 460.88,549.67 -5.15,-17.22 -10.92,9.16 16.07,8.06 z"
       inkscape:connector-curvature="0"
       id="path114"
       style="fill:#ffffff;fill-opacity:1;fill-rule:evenodd;stroke:none" /><path
       d="m 460.88,549.67 -5.15,-17.22 -10.92,9.16 16.07,8.06 z"
       inkscape:connector-curvature="0"
       id="path116"
       style="fill:none;stroke:#000000;stroke-width:0.75;stroke-linecap:round;stroke-linejoin:round;stroke-miterlimit:8;stroke-opacity:1;stroke-dasharray:none" /><path
       d="m 431.64,549 -10.72,-14.42 -7.13,12.34 17.85,2.08 z"
       inkscape:connector-curvature="0"
       id="path118"
       style="fill:#ffffff;fill-opacity:1;fill-rule:evenodd;stroke:none" /><path
       d="m 431.64,549 -10.72,-14.42 -7.13,12.34 17.85,2.08 z"
       inkscape:connector-curvature="0"
       id="path120"
       style="fill:none;stroke:#000000;stroke-width:0.75;stroke-linecap:round;stroke-linejoin:round;stroke-miterlimit:8;stroke-opacity:1;stroke-dasharray:none" /><path
       d="M 498,536.85 541.5,483"
       inkscape:connector-curvature="0"
       id="path122"
       style="fill:none;stroke:#000000;stroke-width:0.75;stroke-linecap:round;stroke-linejoin:round;stroke-miterlimit:8;stroke-opacity:1;stroke-dasharray:none" /><path
       d="m 449.25,454.5 37.5,0 0,20.25 -37.5,0 0,-20.25 z"
       inkscape:connector-curvature="0"
       id="path124"
       style="fill:#ffffff;fill-opacity:1;fill-rule:evenodd;stroke:none" /><g
       id="g126"><g
         clip-path="url(#clipPath130)"
         id="g128"><g
           id="g134"><g
             clip-path="url(#clipPath138)"
             id="g136"><text
   transform="matrix(1,0,0,-1,456.53,460.03)"
   id="text142"><tspan
     x="0 3 6 9 12 15 18"
     y="0"
     id="tspan144"
     style="font-size:12px;font-variant:normal;font-weight:bold;writing-mode:lr-tb;fill:#000000;fill-opacity:1;fill-rule:nonzero;stroke:none;font-family:Times New Roman;-inkscape-font-specification:Times-Bold">. . . .</tspan></text>

</g></g><g
           id="g146"><g
             clip-path="url(#clipPath150)"
             id="g148" /></g></g></g><path
       d="m 442.85,346.5 96,0 0,37.5 -96,0 0,-37.5 z"
       inkscape:connector-curvature="0"
       id="path154"
       style="fill:#ffffff;fill-opacity:1;fill-rule:evenodd;stroke:none" /><path
       d="m 442.85,346.5 96,0 0,37.5 -96,0 0,-37.5 z"
       inkscape:connector-curvature="0"
       id="path156"
       style="fill:none;stroke:#000000;stroke-width:0.75;stroke-linecap:round;stroke-linejoin:miter;stroke-miterlimit:8;stroke-opacity:1;stroke-dasharray:none" /><g
       id="g158"><g
         clip-path="url(#clipPath162)"
         id="g160"><g
           id="g166"><g
             clip-path="url(#clipPath170)"
             id="g168"><text
   transform="matrix(1,0,0,-1,462.65,368.93)"
   id="text174"><tspan
     x="0 8.6639996 15.996 23.280001 29.988001 34.655998 41.375999 45.372002 52.043999"
     y="0"
     id="tspan176"
     style="font-size:12px;font-variant:normal;font-weight:bold;writing-mode:lr-tb;fill:#000000;fill-opacity:1;fill-rule:nonzero;stroke:none;font-family:Helvetica;-inkscape-font-specification:Helvetica-Bold">Konkreter</tspan></text>

</g></g><g
           id="g178"><g
             clip-path="url(#clipPath182)"
             id="g180" /></g><g
           id="g186"><g
             clip-path="url(#clipPath190)"
             id="g188"><text
   transform="matrix(1,0,0,-1,457.61,354.77)"
   id="text194"><tspan
     x="0 8.6639996 15.336 22.068001 29.4 34.068001 37.403999 44.136002 48.695999 55.403999 60.071999"
     y="0"
     id="tspan196"
     style="font-size:12px;font-variant:normal;font-weight:bold;writing-mode:lr-tb;fill:#000000;fill-opacity:1;fill-rule:nonzero;stroke:none;font-family:Helvetica;-inkscape-font-specification:Helvetica-Bold">Dekorierer1</tspan></text>

</g></g><g
           id="g198"><g
             clip-path="url(#clipPath202)"
             id="g200" /></g></g></g><path
       d="m 546.35,346.5 96,0 0,37.5 -96,0 0,-37.5 z"
       inkscape:connector-curvature="0"
       id="path206"
       style="fill:#ffffff;fill-opacity:1;fill-rule:evenodd;stroke:none" /><path
       d="m 546.35,346.5 96,0 0,37.5 -96,0 0,-37.5 z"
       inkscape:connector-curvature="0"
       id="path208"
       style="fill:none;stroke:#000000;stroke-width:0.75;stroke-linecap:round;stroke-linejoin:miter;stroke-miterlimit:8;stroke-opacity:1;stroke-dasharray:none" /><g
       id="g210"><g
         clip-path="url(#clipPath214)"
         id="g212"><g
           id="g218"><g
             clip-path="url(#clipPath222)"
             id="g220"><text
   transform="matrix(1,0,0,-1,566.11,368.93)"
   id="text226"><tspan
     x="0 8.6639996 15.996 23.280001 29.988001 34.655998 41.375999 45.372002 52.043999"
     y="0"
     id="tspan228"
     style="font-size:12px;font-variant:normal;font-weight:bold;writing-mode:lr-tb;fill:#000000;fill-opacity:1;fill-rule:nonzero;stroke:none;font-family:Helvetica;-inkscape-font-specification:Helvetica-Bold">Konkreter</tspan></text>

</g></g><g
           id="g230"><g
             clip-path="url(#clipPath234)"
             id="g232" /></g><g
           id="g238"><g
             clip-path="url(#clipPath242)"
             id="g240"><text
   transform="matrix(1,0,0,-1,561.07,354.77)"
   id="text246"><tspan
     x="0 8.6639996 15.336 22.068001 29.4 34.068001 37.403999 44.136002 48.695999 55.403999 60.071999"
     y="0"
     id="tspan248"
     style="font-size:12px;font-variant:normal;font-weight:bold;writing-mode:lr-tb;fill:#000000;fill-opacity:1;fill-rule:nonzero;stroke:none;font-family:Helvetica;-inkscape-font-specification:Helvetica-Bold">Dekorierer2</tspan></text>

</g></g><g
           id="g250"><g
             clip-path="url(#clipPath254)"
             id="g252" /></g></g></g><path
       d="m 513,431.05 -27.35,-46.5"
       inkscape:connector-curvature="0"
       id="path258"
       style="fill:none;stroke:#000000;stroke-width:0.75;stroke-linecap:round;stroke-linejoin:round;stroke-miterlimit:8;stroke-opacity:1;stroke-dasharray:none" /><path
       d="M 567.6,431.25 595.05,384"
       inkscape:connector-curvature="0"
       id="path260"
       style="fill:none;stroke:#000000;stroke-width:0.75;stroke-linecap:round;stroke-linejoin:round;stroke-miterlimit:8;stroke-opacity:1;stroke-dasharray:none" /><path
       d="m 652.9,355.5 37.5,0 0,20.25 -37.5,0 0,-20.25 z"
       inkscape:connector-curvature="0"
       id="path262"
       style="fill:#ffffff;fill-opacity:1;fill-rule:evenodd;stroke:none" /><g
       id="g264"><g
         clip-path="url(#clipPath268)"
         id="g266"><g
           id="g272"><g
             clip-path="url(#clipPath276)"
             id="g274"><text
   transform="matrix(1,0,0,-1,660.22,361.01)"
   id="text280"><tspan
     x="0 3 6 9 12 15 18"
     y="0"
     id="tspan282"
     style="font-size:12px;font-variant:normal;font-weight:bold;writing-mode:lr-tb;fill:#000000;fill-opacity:1;fill-rule:nonzero;stroke:none;font-family:Times New Roman;-inkscape-font-specification:Times-Bold">. . . .</tspan></text>

</g></g><g
           id="g284"><g
             clip-path="url(#clipPath288)"
             id="g286" /></g></g></g><path
       d="m 234,549 96,0 0,37.5 -96,0 0,-37.5 z"
       inkscape:connector-curvature="0"
       id="path292"
       style="fill:#ffffff;fill-opacity:1;fill-rule:evenodd;stroke:none" /><path
       d="m 234,549 96,0 0,37.5 -96,0 0,-37.5 z"
       inkscape:connector-curvature="0"
       id="path294"
       style="fill:none;stroke:#000000;stroke-width:0.75;stroke-linecap:round;stroke-linejoin:miter;stroke-miterlimit:8;stroke-opacity:1;stroke-dasharray:none" /><g
       id="g296"><g
         clip-path="url(#clipPath300)"
         id="g298"><g
           id="g304"><g
             clip-path="url(#clipPath308)"
             id="g306"><text
   transform="matrix(1,0,0,-1,265.34,571.03)"
   id="text312"><tspan
     x="0 8.6639996 12 15.336 22.068001 29.4"
     y="0"
     id="tspan314"
     style="font-size:12px;font-variant:normal;font-weight:bold;writing-mode:lr-tb;fill:#000000;fill-opacity:1;fill-rule:nonzero;stroke:none;font-family:Helvetica;-inkscape-font-specification:Helvetica-Bold">Client</tspan></text>

</g></g><g
           id="g316"><g
             clip-path="url(#clipPath320)"
             id="g318" /></g></g></g><path
       d="m 234.35,445.5 96,0 0,37.5 -96,0 0,-37.5 z"
       inkscape:connector-curvature="0"
       id="path324"
       style="fill:#ffffff;fill-opacity:1;fill-rule:evenodd;stroke:none" /><path
       d="m 234.35,445.5 96,0 0,37.5 -96,0 0,-37.5 z"
       inkscape:connector-curvature="0"
       id="path326"
       style="fill:none;stroke:#000000;stroke-width:0.75;stroke-linecap:round;stroke-linejoin:miter;stroke-miterlimit:8;stroke-opacity:1;stroke-dasharray:none" /><g
       id="g328"><g
         clip-path="url(#clipPath332)"
         id="g330"><g
           id="g336"><g
             clip-path="url(#clipPath340)"
             id="g338"><text
   transform="matrix(1,0,0,-1,256.34,467.95)"
   id="text344"><tspan
     x="0 8.6639996 15.996 23.280001 29.988001 34.655998 41.375999 45.372002"
     y="0"
     id="tspan346"
     style="font-size:12px;font-variant:normal;font-weight:bold;writing-mode:lr-tb;fill:#000000;fill-opacity:1;fill-rule:nonzero;stroke:none;font-family:Helvetica;-inkscape-font-specification:Helvetica-Bold">Konkrete</tspan></text>

</g></g><g
           id="g348"><g
             clip-path="url(#clipPath352)"
             id="g350" /></g><g
           id="g356"><g
             clip-path="url(#clipPath360)"
             id="g358"><text
   transform="matrix(1,0,0,-1,242.3,453.79)"
   id="text364"><tspan
     x="0 8.6639996 15.996 26.664 33.959999 41.292 48.624001 55.296001 62.627998 66.624001 73.295998"
     y="0"
     id="tspan366"
     style="font-size:12px;font-variant:normal;font-weight:bold;writing-mode:lr-tb;fill:#000000;fill-opacity:1;fill-rule:nonzero;stroke:none;font-family:Helvetica;-inkscape-font-specification:Helvetica-Bold">Komponente1</tspan></text>

</g></g><g
           id="g368"><g
             clip-path="url(#clipPath372)"
             id="g370" /></g></g></g><path
       d="m 337.85,445.5 96,0 0,37.5 -96,0 0,-37.5 z"
       inkscape:connector-curvature="0"
       id="path376"
       style="fill:#ffffff;fill-opacity:1;fill-rule:evenodd;stroke:none" /><path
       d="m 337.85,445.5 96,0 0,37.5 -96,0 0,-37.5 z"
       inkscape:connector-curvature="0"
       id="path378"
       style="fill:none;stroke:#000000;stroke-width:0.75;stroke-linecap:round;stroke-linejoin:miter;stroke-miterlimit:8;stroke-opacity:1;stroke-dasharray:none" /><g
       id="g380"><g
         clip-path="url(#clipPath384)"
         id="g382"><g
           id="g388"><g
             clip-path="url(#clipPath392)"
             id="g390"><text
   transform="matrix(1,0,0,-1,359.93,467.95)"
   id="text396"><tspan
     x="0 8.6639996 15.996 23.280001 29.988001 34.655998 41.375999 45.372002"
     y="0"
     id="tspan398"
     style="font-size:12px;font-variant:normal;font-weight:bold;writing-mode:lr-tb;fill:#000000;fill-opacity:1;fill-rule:nonzero;stroke:none;font-family:Helvetica;-inkscape-font-specification:Helvetica-Bold">Konkrete</tspan></text>

</g></g><g
           id="g400"><g
             clip-path="url(#clipPath404)"
             id="g402" /></g><g
           id="g408"><g
             clip-path="url(#clipPath412)"
             id="g410"><text
   transform="matrix(1,0,0,-1,345.89,454.15)"
   id="text416"><tspan
     x="0 8.6639996 15.996 26.664 33.959999 41.292 48.624001 55.296001 62.627998 66.624001 73.295998"
     y="0"
     id="tspan418"
     style="font-size:12px;font-variant:normal;font-weight:bold;writing-mode:lr-tb;fill:#000000;fill-opacity:1;fill-rule:nonzero;stroke:none;font-family:Helvetica;-inkscape-font-specification:Helvetica-Bold">Komponente2</tspan></text>

</g></g><g
           id="g420"><g
             clip-path="url(#clipPath424)"
             id="g422" /></g><g
           id="g428"><g
             clip-path="url(#clipPath432)"
             id="g430" /></g></g></g><g
       id="g436"><g
         clip-path="url(#clipPath440)"
         id="g438"><g
           id="g444"><g
             clip-path="url(#clipPath448)"
             id="g446"><text
   transform="matrix(1,0,0,-1,348.65,571.39)"
   id="text452"><tspan
     x="0 7.1999998 14.4 21.6 28.799999"
     y="0"
     id="tspan454"
     style="font-size:12px;font-variant:normal;font-weight:normal;writing-mode:lr-tb;fill:#000000;fill-opacity:1;fill-rule:nonzero;stroke:none;font-family:Courier New;-inkscape-font-specification:Courier New">«use»</tspan></text>

</g></g><g
           id="g456"><g
             clip-path="url(#clipPath460)"
             id="g458" /></g></g></g><path
       d="m 415.85,565.88 -12.1,-5.63 0,11.25 12.1,-5.62 z"
       inkscape:connector-curvature="0"
       id="path464"
       style="fill:#ffffff;fill-opacity:1;fill-rule:evenodd;stroke:none" /><path
       d="m 415.85,565.88 -12.1,-5.63 0,11.25 12.1,-5.62 z"
       inkscape:connector-curvature="0"
       id="path466"
       style="fill:none;stroke:#000000;stroke-width:0.75;stroke-linecap:round;stroke-linejoin:round;stroke-miterlimit:8;stroke-opacity:1;stroke-dasharray:none" /><g
       id="g468"><path
         d="m 330,565.5 73.8,0.4"
         inkscape:connector-curvature="0"
         id="path470"
         style="fill:none;stroke:#000000;stroke-width:1;stroke-linecap:butt;stroke-linejoin:round;stroke-miterlimit:8;stroke-opacity:1;stroke-dasharray:4, 3;stroke-dashoffset:0" /></g><path
       d="m 559.5,445.19 14.42,-10.72 -12.34,-7.13 -2.08,17.85 z"
       inkscape:connector-curvature="0"
       id="path472"
       style="fill:#ffffff;fill-opacity:1;fill-rule:evenodd;stroke:none" /><path
       d="m 559.5,445.19 14.42,-10.72 -12.34,-7.13 -2.08,17.85 z"
       inkscape:connector-curvature="0"
       id="path474"
       style="fill:none;stroke:#000000;stroke-width:0.75;stroke-linecap:round;stroke-linejoin:round;stroke-miterlimit:8;stroke-opacity:1;stroke-dasharray:none" /><path
       d="m 521.25,445.19 -2.08,-17.85 -12.34,7.13 14.42,10.72 z"
       inkscape:connector-curvature="0"
       id="path476"
       style="fill:#ffffff;fill-opacity:1;fill-rule:evenodd;stroke:none" /><path
       d="m 521.25,445.19 -2.08,-17.85 -12.34,7.13 14.42,10.72 z"
       inkscape:connector-curvature="0"
       id="path478"
       style="fill:none;stroke:#000000;stroke-width:0.75;stroke-linecap:round;stroke-linejoin:round;stroke-miterlimit:8;stroke-opacity:1;stroke-dasharray:none" /></g></svg>