<?xml version="1.0" encoding="UTF-8" standalone="no"?>
<!-- Created with Inkscape (http://www.inkscape.org/) -->

<svg
   xmlns:dc="http://purl.org/dc/elements/1.1/"
   xmlns:cc="http://creativecommons.org/ns#"
   xmlns:rdf="http://www.w3.org/1999/02/22-rdf-syntax-ns#"
   xmlns:svg="http://www.w3.org/2000/svg"
   xmlns="http://www.w3.org/2000/svg"
   xmlns:sodipodi="http://sodipodi.sourceforge.net/DTD/sodipodi-0.dtd"
   xmlns:inkscape="http://www.inkscape.org/namespaces/inkscape"
   version="1.1"
   width="375.9375"
   height="189.375"
   id="svg2"
   xml:space="preserve"
   inkscape:version="0.48.4 r9939"
   sodipodi:docname="Bild 4-9 Dekorierer als Realisierung einer Schnittstelle.svg"><sodipodi:namedview
     pagecolor="#ffffff"
     bordercolor="#666666"
     borderopacity="1"
     objecttolerance="10"
     gridtolerance="10"
     guidetolerance="10"
     inkscape:pageopacity="0"
     inkscape:pageshadow="2"
     inkscape:window-width="640"
     inkscape:window-height="480"
     id="namedview79"
     showgrid="false"
     inkscape:zoom="0.18730159"
     inkscape:cx="379.59375"
     inkscape:cy="57.65625"
     inkscape:window-x="0"
     inkscape:window-y="0"
     inkscape:window-maximized="0"
     inkscape:current-layer="svg2" /><metadata
     id="metadata8"><rdf:RDF><cc:Work
         rdf:about=""><dc:format>image/svg+xml</dc:format><dc:type
           rdf:resource="http://purl.org/dc/dcmitype/StillImage" /></cc:Work></rdf:RDF></metadata><defs
     id="defs6"><clipPath
       id="clipPath28"><path
         d="m 268.95,576.91 109.46,0 0,28.08 -109.46,0 0,-28.08 z"
         inkscape:connector-curvature="0"
         id="path30" /></clipPath><clipPath
       id="clipPath36"><path
         d="m 268.94,576.91 109.46,0 0,28.08 -109.46,0 0,-28.08 z"
         inkscape:connector-curvature="0"
         id="path38" /></clipPath><clipPath
       id="clipPath48"><path
         d="m 268.94,576.91 109.46,0 0,28.08 -109.46,0 0,-28.08 z"
         inkscape:connector-curvature="0"
         id="path50" /></clipPath><clipPath
       id="clipPath62"><path
         d="m 337.25,462.19 101.88,0 0,36.96 -101.88,0 0,-36.96 z"
         inkscape:connector-curvature="0"
         id="path64" /></clipPath><clipPath
       id="clipPath70"><path
         d="m 337.25,462.19 101.88,0 0,36.96 -101.88,0 0,-36.96 z"
         inkscape:connector-curvature="0"
         id="path72" /></clipPath><clipPath
       id="clipPath82"><path
         d="m 337.25,462.19 101.88,0 0,36.96 -101.88,0 0,-36.96 z"
         inkscape:connector-curvature="0"
         id="path84" /></clipPath><clipPath
       id="clipPath90"><path
         d="m 337.25,462.19 101.88,0 0,36.96 -101.88,0 0,-36.96 z"
         inkscape:connector-curvature="0"
         id="path92" /></clipPath><clipPath
       id="clipPath100"><path
         d="m 201.39,462.19 102.02,0 0,36.96 -102.02,0 0,-36.96 z"
         inkscape:connector-curvature="0"
         id="path102" /></clipPath><clipPath
       id="clipPath108"><path
         d="m 201.38,462.19 102.02,0 0,36.96 -102.02,0 0,-36.96 z"
         inkscape:connector-curvature="0"
         id="path110" /></clipPath><clipPath
       id="clipPath120"><path
         d="m 201.38,462.19 102.02,0 0,36.96 -102.02,0 0,-36.96 z"
         inkscape:connector-curvature="0"
         id="path122" /></clipPath><clipPath
       id="clipPath132"><path
         d="m 201.38,462.19 102.02,0 0,36.96 -102.02,0 0,-36.96 z"
         inkscape:connector-curvature="0"
         id="path134" /></clipPath><clipPath
       id="clipPath140"><path
         d="m 201.38,462.19 102.02,0 0,36.96 -102.02,0 0,-36.96 z"
         inkscape:connector-curvature="0"
         id="path142" /></clipPath></defs><g
     transform="matrix(1.25,0,0,-1.25,-250.78125,761.71875)"
     id="g10"><g
       id="g12"><path
         d="m 307.65,572.7 -54.9,-69.45"
         inkscape:connector-curvature="0"
         id="path14"
         style="fill:none;stroke:#000000;stroke-width:0.75;stroke-linecap:round;stroke-linejoin:round;stroke-miterlimit:10;stroke-opacity:1;stroke-dasharray:5.25, 3;stroke-dashoffset:0" /></g><g
       id="g16"><path
         d="M 388.05,503.25 339.2,573"
         inkscape:connector-curvature="0"
         id="path18"
         style="fill:none;stroke:#000000;stroke-width:0.75;stroke-linecap:round;stroke-linejoin:round;stroke-miterlimit:10;stroke-opacity:1;stroke-dasharray:5.25, 3;stroke-dashoffset:0" /></g><path
       d="m 268.5,573 110.25,0 0,36 -110.25,0 0,-36 z"
       inkscape:connector-curvature="0"
       id="path20"
       style="fill:#ffffff;fill-opacity:1;fill-rule:evenodd;stroke:none" /><path
       d="m 268.5,573 110.25,0 0,36 -110.25,0 0,-36 z"
       inkscape:connector-curvature="0"
       id="path22"
       style="fill:none;stroke:#000000;stroke-width:0.75;stroke-linecap:round;stroke-linejoin:miter;stroke-miterlimit:10;stroke-opacity:1;stroke-dasharray:none" /><g
       id="g24"><g
         clip-path="url(#clipPath28)"
         id="g26"><g
           id="g32"><g
             clip-path="url(#clipPath36)"
             id="g34"><text
   transform="matrix(1,0,0,-1,288.53,594.43)"
   id="text40"><tspan
     x="0 3.1132801 11.02896 17.774401 27.588961 34.3344 41.024639 47.770081 53.864159 60.6096 64.285919"
     y="0"
     id="tspan42"
     style="font-size:11.03999996px;font-variant:normal;font-weight:bold;writing-mode:lr-tb;fill:#000000;fill-opacity:1;fill-rule:nonzero;stroke:none;font-family:Helvetica;-inkscape-font-specification:Helvetica-Bold">IKomponente</tspan></text>

</g></g><g
           id="g44"><g
             clip-path="url(#clipPath48)"
             id="g46" /></g></g></g><path
       d="m 448.13,486 -7.88,-5.25 7.88,-5.25 7.87,5.25 -7.87,5.25 z"
       inkscape:connector-curvature="0"
       id="path52"
       style="fill:#ffffff;fill-opacity:1;fill-rule:evenodd;stroke:none" /><path
       d="m 448.13,486 -7.88,-5.25 7.88,-5.25 7.87,5.25 -7.87,5.25 z"
       inkscape:connector-curvature="0"
       id="path54"
       style="fill:none;stroke:#000000;stroke-width:0.75;stroke-linecap:round;stroke-linejoin:round;stroke-miterlimit:10;stroke-opacity:1;stroke-dasharray:none" /><path
       d="m 336.75,458.25 102.75,0 0,45 -102.75,0 0,-45 z"
       inkscape:connector-curvature="0"
       id="path56"
       style="fill:none;stroke:#000000;stroke-width:0.75;stroke-linecap:round;stroke-linejoin:miter;stroke-miterlimit:8;stroke-opacity:1;stroke-dasharray:none" /><g
       id="g58"><g
         clip-path="url(#clipPath62)"
         id="g60"><g
           id="g66"><g
             clip-path="url(#clipPath70)"
             id="g68"><text
   transform="matrix(1,0,0,-1,360.65,489.07)"
   id="text74"><tspan
     x="0 7.9156799 14.05392 20.15904 26.90448 31.199039 34.312321 40.450562 44.745121 50.883362"
     y="0"
     id="tspan76"
     style="font-size:11.03999996px;font-variant:normal;font-weight:bold;writing-mode:lr-tb;fill:#000000;fill-opacity:1;fill-rule:nonzero;stroke:none;font-family:Helvetica;-inkscape-font-specification:Helvetica-Bold">Dekorierer</tspan></text>

</g></g><g
           id="g78"><g
             clip-path="url(#clipPath82)"
             id="g80" /></g><g
           id="g86"><g
             clip-path="url(#clipPath90)"
             id="g88" /></g></g></g><path
       d="m 201,458.25 102.75,0 0,45 -102.75,0 0,-45 z"
       inkscape:connector-curvature="0"
       id="path94"
       style="fill:none;stroke:#000000;stroke-width:0.75;stroke-linecap:round;stroke-linejoin:miter;stroke-miterlimit:8;stroke-opacity:1;stroke-dasharray:none" /><g
       id="g96"><g
         clip-path="url(#clipPath100)"
         id="g98"><g
           id="g104"><g
             clip-path="url(#clipPath108)"
             id="g106"><text
   transform="matrix(1,0,0,-1,228.5,489.07)"
   id="text112"><tspan
     x="0 7.9156799 14.66112 21.35136 27.489599 31.784161 37.922401 41.598721 47.736961"
     y="0"
     id="tspan114"
     style="font-size:11.03999996px;font-variant:normal;font-weight:bold;writing-mode:lr-tb;fill:#000000;fill-opacity:1;fill-rule:nonzero;stroke:none;font-family:Helvetica;-inkscape-font-specification:Helvetica-Bold">Konkrete </tspan></text>

</g></g><g
           id="g116"><g
             clip-path="url(#clipPath120)"
             id="g118"><text
   transform="matrix(1,0,0,-1,218.78,476.47)"
   id="text124"><tspan
     x="0 7.9156799 14.66112 24.475679 31.221121 37.911362 44.656799 50.750881 57.496319 61.172642"
     y="0"
     id="tspan126"
     style="font-size:11.03999996px;font-variant:normal;font-weight:bold;writing-mode:lr-tb;fill:#000000;fill-opacity:1;fill-rule:nonzero;stroke:none;font-family:Helvetica;-inkscape-font-specification:Helvetica-Bold">Komponente</tspan></text>

</g></g><g
           id="g128"><g
             clip-path="url(#clipPath132)"
             id="g130" /></g><g
           id="g136"><g
             clip-path="url(#clipPath140)"
             id="g138" /></g></g></g><path
       d="m 456,480.75 45,0"
       inkscape:connector-curvature="0"
       id="path144"
       style="fill:none;stroke:#000000;stroke-width:0.75;stroke-linecap:round;stroke-linejoin:round;stroke-miterlimit:8;stroke-opacity:1;stroke-dasharray:none" /><path
       d="m 501,480.75 0,111.75"
       inkscape:connector-curvature="0"
       id="path146"
       style="fill:none;stroke:#000000;stroke-width:0.75;stroke-linecap:round;stroke-linejoin:round;stroke-miterlimit:8;stroke-opacity:1;stroke-dasharray:none" /><path
       d="m 501,592.5 -122.25,0"
       inkscape:connector-curvature="0"
       id="path148"
       style="fill:none;stroke:#000000;stroke-width:0.75;stroke-linecap:round;stroke-linejoin:round;stroke-miterlimit:8;stroke-opacity:1;stroke-dasharray:none" /><path
       d="m 307.46,572.62 -10.19,-4.26 8.44,-6.65 1.75,10.91 z"
       inkscape:connector-curvature="0"
       id="path150"
       style="fill:#ffffff;fill-opacity:1;fill-rule:evenodd;stroke:none" /><path
       d="m 307.46,572.62 -10.19,-4.26 8.44,-6.65 1.75,10.91 z"
       inkscape:connector-curvature="0"
       id="path152"
       style="fill:none;stroke:#000000;stroke-width:0.75;stroke-linecap:round;stroke-linejoin:round;stroke-miterlimit:8;stroke-opacity:1;stroke-dasharray:none" /><path
       d="m 339.49,572.52 1.17,-10.99 8.79,6.2 -9.96,4.79 z"
       inkscape:connector-curvature="0"
       id="path154"
       style="fill:#ffffff;fill-opacity:1;fill-rule:evenodd;stroke:none" /><path
       d="m 339.49,572.52 1.17,-10.99 8.79,6.2 -9.96,4.79 z"
       inkscape:connector-curvature="0"
       id="path156"
       style="fill:none;stroke:#000000;stroke-width:0.75;stroke-linecap:round;stroke-linejoin:round;stroke-miterlimit:8;stroke-opacity:1;stroke-dasharray:none" /></g></svg>