<?xml version="1.0" encoding="UTF-8" standalone="no"?>
<!-- Created with Inkscape (http://www.inkscape.org/) -->

<svg
   xmlns:dc="http://purl.org/dc/elements/1.1/"
   xmlns:cc="http://creativecommons.org/ns#"
   xmlns:rdf="http://www.w3.org/1999/02/22-rdf-syntax-ns#"
   xmlns:svg="http://www.w3.org/2000/svg"
   xmlns="http://www.w3.org/2000/svg"
   xmlns:sodipodi="http://sodipodi.sourceforge.net/DTD/sodipodi-0.dtd"
   xmlns:inkscape="http://www.inkscape.org/namespaces/inkscape"
   version="1.1"
   width="726.9375"
   height="562.125"
   id="svg2"
   xml:space="preserve"
   inkscape:version="0.48.4 r9939"
   sodipodi:docname="Bild 4-51 Sequenzdiagramm des Besucher-Musters.svg"><sodipodi:namedview
     pagecolor="#ffffff"
     bordercolor="#666666"
     borderopacity="1"
     objecttolerance="10"
     gridtolerance="10"
     guidetolerance="10"
     inkscape:pageopacity="0"
     inkscape:pageshadow="2"
     inkscape:window-width="640"
     inkscape:window-height="480"
     id="namedview548"
     showgrid="false"
     inkscape:zoom="0.18730159"
     inkscape:cx="542.71875"
     inkscape:cy="15.09375"
     inkscape:window-x="0"
     inkscape:window-y="0"
     inkscape:window-maximized="0"
     inkscape:current-layer="svg2" /><metadata
     id="metadata8"><rdf:RDF><cc:Work
         rdf:about=""><dc:format>image/svg+xml</dc:format><dc:type
           rdf:resource="http://purl.org/dc/dcmitype/StillImage" /></cc:Work></rdf:RDF></metadata><defs
     id="defs6"><clipPath
       id="clipPath16"><path
         d="m 123.63,514.51 114.72,0 0,15.24 -114.72,0 0,-15.24 z"
         inkscape:connector-curvature="0"
         id="path18" /></clipPath><clipPath
       id="clipPath24"><path
         d="m 123.62,514.51 114.72,0 0,15.24 -114.72,0 0,-15.24 z"
         inkscape:connector-curvature="0"
         id="path26" /></clipPath><clipPath
       id="clipPath36"><path
         d="m 123.62,514.51 114.72,0 0,15.24 -114.72,0 0,-15.24 z"
         inkscape:connector-curvature="0"
         id="path38" /></clipPath><clipPath
       id="clipPath48"><path
         d="m 70.921,885.93 104.91,0 0,50.55 -104.91,0 0,-50.55 z"
         inkscape:connector-curvature="0"
         id="path50" /></clipPath><clipPath
       id="clipPath56"><path
         d="m 70.92,885.94 104.9,0 0,50.544 -104.9,0 0,-50.544 z"
         inkscape:connector-curvature="0"
         id="path58" /></clipPath><clipPath
       id="clipPath68"><path
         d="m 70.92,885.94 104.9,0 0,50.544 -104.9,0 0,-50.544 z"
         inkscape:connector-curvature="0"
         id="path70" /></clipPath><clipPath
       id="clipPath80"><path
         d="m 188.67,885.93 105.02,0 0,50.55 -105.02,0 0,-50.55 z"
         inkscape:connector-curvature="0"
         id="path82" /></clipPath><clipPath
       id="clipPath88"><path
         d="m 188.66,885.94 105.02,0 0,50.544 -105.02,0 0,-50.544 z"
         inkscape:connector-curvature="0"
         id="path90" /></clipPath><clipPath
       id="clipPath100"><path
         d="m 188.66,885.94 105.02,0 0,50.544 -105.02,0 0,-50.544 z"
         inkscape:connector-curvature="0"
         id="path102" /></clipPath><clipPath
       id="clipPath112"><path
         d="m 188.66,885.94 105.02,0 0,50.544 -105.02,0 0,-50.544 z"
         inkscape:connector-curvature="0"
         id="path114" /></clipPath><clipPath
       id="clipPath124"><path
         d="m 188.66,885.94 105.02,0 0,50.544 -105.02,0 0,-50.544 z"
         inkscape:connector-curvature="0"
         id="path126" /></clipPath><clipPath
       id="clipPath136"><path
         d="m 305.21,885.93 105,0 0,50.55 -105,0 0,-50.55 z"
         inkscape:connector-curvature="0"
         id="path138" /></clipPath><clipPath
       id="clipPath144"><path
         d="m 305.21,885.94 105,0 0,50.544 -105,0 0,-50.544 z"
         inkscape:connector-curvature="0"
         id="path146" /></clipPath><clipPath
       id="clipPath156"><path
         d="m 305.21,885.94 105,0 0,50.544 -105,0 0,-50.544 z"
         inkscape:connector-curvature="0"
         id="path158" /></clipPath><clipPath
       id="clipPath168"><path
         d="m 305.21,885.94 105,0 0,50.544 -105,0 0,-50.544 z"
         inkscape:connector-curvature="0"
         id="path170" /></clipPath><clipPath
       id="clipPath176"><path
         d="m 305.21,885.94 105,0 0,50.544 -105,0 0,-50.544 z"
         inkscape:connector-curvature="0"
         id="path178" /></clipPath><clipPath
       id="clipPath184"><path
         d="m 305.21,885.94 105,0 0,50.544 -105,0 0,-50.544 z"
         inkscape:connector-curvature="0"
         id="path186" /></clipPath><clipPath
       id="clipPath196"><path
         d="m 305.21,885.94 105,0 0,50.544 -105,0 0,-50.544 z"
         inkscape:connector-curvature="0"
         id="path198" /></clipPath><clipPath
       id="clipPath208"><path
         d="m 305.21,885.94 105,0 0,50.544 -105,0 0,-50.544 z"
         inkscape:connector-curvature="0"
         id="path210" /></clipPath><clipPath
       id="clipPath216"><path
         d="m 305.21,885.94 105,0 0,50.544 -105,0 0,-50.544 z"
         inkscape:connector-curvature="0"
         id="path218" /></clipPath><clipPath
       id="clipPath228"><path
         d="m 305.21,885.94 105,0 0,50.544 -105,0 0,-50.544 z"
         inkscape:connector-curvature="0"
         id="path230" /></clipPath><clipPath
       id="clipPath240"><path
         d="m 424.49,885.93 105.03,0 0,50.55 -105.03,0 0,-50.55 z"
         inkscape:connector-curvature="0"
         id="path242" /></clipPath><clipPath
       id="clipPath248"><path
         d="m 424.49,885.94 105.02,0 0,50.544 -105.02,0 0,-50.544 z"
         inkscape:connector-curvature="0"
         id="path250" /></clipPath><clipPath
       id="clipPath260"><path
         d="m 424.49,885.94 105.02,0 0,50.544 -105.02,0 0,-50.544 z"
         inkscape:connector-curvature="0"
         id="path262" /></clipPath><clipPath
       id="clipPath272"><path
         d="m 424.49,885.94 105.02,0 0,50.544 -105.02,0 0,-50.544 z"
         inkscape:connector-curvature="0"
         id="path274" /></clipPath><clipPath
       id="clipPath280"><path
         d="m 424.49,885.94 105.02,0 0,50.544 -105.02,0 0,-50.544 z"
         inkscape:connector-curvature="0"
         id="path282" /></clipPath><clipPath
       id="clipPath288"><path
         d="m 424.49,885.94 105.02,0 0,50.544 -105.02,0 0,-50.544 z"
         inkscape:connector-curvature="0"
         id="path290" /></clipPath><clipPath
       id="clipPath300"><path
         d="m 424.49,885.94 105.02,0 0,50.544 -105.02,0 0,-50.544 z"
         inkscape:connector-curvature="0"
         id="path302" /></clipPath><clipPath
       id="clipPath312"><path
         d="m 424.49,885.94 105.02,0 0,50.544 -105.02,0 0,-50.544 z"
         inkscape:connector-curvature="0"
         id="path314" /></clipPath><clipPath
       id="clipPath320"><path
         d="m 424.49,885.94 105.02,0 0,50.544 -105.02,0 0,-50.544 z"
         inkscape:connector-curvature="0"
         id="path322" /></clipPath><clipPath
       id="clipPath332"><path
         d="m 424.49,885.94 105.02,0 0,50.544 -105.02,0 0,-50.544 z"
         inkscape:connector-curvature="0"
         id="path334" /></clipPath><clipPath
       id="clipPath362"><path
         d="m 127.59,823.41 110.16,0 0,35.52 -110.16,0 0,-35.52 z"
         inkscape:connector-curvature="0"
         id="path364" /></clipPath><clipPath
       id="clipPath370"><path
         d="m 127.58,823.42 110.16,0 0,35.52 -110.16,0 0,-35.52 z"
         inkscape:connector-curvature="0"
         id="path372" /></clipPath><clipPath
       id="clipPath382"><path
         d="m 127.58,823.42 110.16,0 0,35.52 -110.16,0 0,-35.52 z"
         inkscape:connector-curvature="0"
         id="path384" /></clipPath><clipPath
       id="clipPath394"><path
         d="m 127.58,823.42 110.16,0 0,35.52 -110.16,0 0,-35.52 z"
         inkscape:connector-curvature="0"
         id="path396" /></clipPath><clipPath
       id="clipPath406"><path
         d="m 127.58,823.42 110.16,0 0,35.52 -110.16,0 0,-35.52 z"
         inkscape:connector-curvature="0"
         id="path408" /></clipPath><clipPath
       id="clipPath418"><path
         d="m 127.58,823.42 110.16,0 0,35.52 -110.16,0 0,-35.52 z"
         inkscape:connector-curvature="0"
         id="path420" /></clipPath><clipPath
       id="clipPath430"><path
         d="m 127.58,823.42 110.16,0 0,35.52 -110.16,0 0,-35.52 z"
         inkscape:connector-curvature="0"
         id="path432" /></clipPath><clipPath
       id="clipPath442"><path
         d="m 127.58,823.42 110.16,0 0,35.52 -110.16,0 0,-35.52 z"
         inkscape:connector-curvature="0"
         id="path444" /></clipPath><clipPath
       id="clipPath450"><path
         d="m 246.39,789.57 107.9,0 0,17.4 -107.9,0 0,-17.4 z"
         inkscape:connector-curvature="0"
         id="path452" /></clipPath><clipPath
       id="clipPath458"><path
         d="m 246.38,789.58 107.9,0 0,17.4 -107.9,0 0,-17.4 z"
         inkscape:connector-curvature="0"
         id="path460" /></clipPath><clipPath
       id="clipPath470"><path
         d="m 246.38,789.58 107.9,0 0,17.4 -107.9,0 0,-17.4 z"
         inkscape:connector-curvature="0"
         id="path472" /></clipPath><clipPath
       id="clipPath478"><path
         d="m 481.88,746.73 99,0 0,19.8 -99,0 0,-19.8 z"
         inkscape:connector-curvature="0"
         id="path480" /></clipPath><clipPath
       id="clipPath486"><path
         d="m 481.87,746.74 99,0 0,19.8 -99,0 0,-19.8 z"
         inkscape:connector-curvature="0"
         id="path488" /></clipPath><clipPath
       id="clipPath498"><path
         d="m 481.87,746.74 99,0 0,19.8 -99,0 0,-19.8 z"
         inkscape:connector-curvature="0"
         id="path500" /></clipPath><clipPath
       id="clipPath506"><path
         d="m 374.45,775.17 98.43,0 0,17.4 -98.43,0 0,-17.4 z"
         inkscape:connector-curvature="0"
         id="path508" /></clipPath><clipPath
       id="clipPath514"><path
         d="m 374.45,775.18 98.424,0 0,17.4 -98.424,0 0,-17.4 z"
         inkscape:connector-curvature="0"
         id="path516" /></clipPath><clipPath
       id="clipPath526"><path
         d="m 374.45,775.18 98.424,0 0,17.4 -98.424,0 0,-17.4 z"
         inkscape:connector-curvature="0"
         id="path528" /></clipPath><clipPath
       id="clipPath538"><path
         d="m 374.45,775.18 98.424,0 0,17.4 -98.424,0 0,-17.4 z"
         inkscape:connector-curvature="0"
         id="path540" /></clipPath><clipPath
       id="clipPath550"><path
         d="m 374.45,775.18 98.424,0 0,17.4 -98.424,0 0,-17.4 z"
         inkscape:connector-curvature="0"
         id="path552" /></clipPath><clipPath
       id="clipPath562"><path
         d="m 374.45,775.18 98.424,0 0,17.4 -98.424,0 0,-17.4 z"
         inkscape:connector-curvature="0"
         id="path564" /></clipPath><clipPath
       id="clipPath574"><path
         d="m 374.45,775.18 98.424,0 0,17.4 -98.424,0 0,-17.4 z"
         inkscape:connector-curvature="0"
         id="path576" /></clipPath><clipPath
       id="clipPath586"><path
         d="m 546.08,885.93 104.88,0 0,51.27 -104.88,0 0,-51.27 z"
         inkscape:connector-curvature="0"
         id="path588" /></clipPath><clipPath
       id="clipPath594"><path
         d="m 546.07,885.94 104.88,0 0,51.264 -104.88,0 0,-51.264 z"
         inkscape:connector-curvature="0"
         id="path596" /></clipPath><clipPath
       id="clipPath606"><path
         d="m 546.07,885.94 104.88,0 0,51.264 -104.88,0 0,-51.264 z"
         inkscape:connector-curvature="0"
         id="path608" /></clipPath><clipPath
       id="clipPath618"><path
         d="m 546.07,885.94 104.88,0 0,51.264 -104.88,0 0,-51.264 z"
         inkscape:connector-curvature="0"
         id="path620" /></clipPath><clipPath
       id="clipPath630"><path
         d="m 546.07,885.94 104.88,0 0,51.264 -104.88,0 0,-51.264 z"
         inkscape:connector-curvature="0"
         id="path632" /></clipPath><clipPath
       id="clipPath642"><path
         d="m 546.07,885.94 104.88,0 0,51.264 -104.88,0 0,-51.264 z"
         inkscape:connector-curvature="0"
         id="path644" /></clipPath><clipPath
       id="clipPath650"><path
         d="m 546.07,885.94 104.88,0 0,51.264 -104.88,0 0,-51.264 z"
         inkscape:connector-curvature="0"
         id="path652" /></clipPath><clipPath
       id="clipPath658"><path
         d="m 546.07,885.94 104.88,0 0,51.264 -104.88,0 0,-51.264 z"
         inkscape:connector-curvature="0"
         id="path660" /></clipPath><clipPath
       id="clipPath670"><path
         d="m 546.07,885.94 104.88,0 0,51.264 -104.88,0 0,-51.264 z"
         inkscape:connector-curvature="0"
         id="path672" /></clipPath><clipPath
       id="clipPath682"><path
         d="m 546.07,885.94 104.88,0 0,51.264 -104.88,0 0,-51.264 z"
         inkscape:connector-curvature="0"
         id="path684" /></clipPath><clipPath
       id="clipPath690"><path
         d="m 546.07,885.94 104.88,0 0,51.264 -104.88,0 0,-51.264 z"
         inkscape:connector-curvature="0"
         id="path692" /></clipPath><clipPath
       id="clipPath702"><path
         d="m 546.07,885.94 104.88,0 0,51.264 -104.88,0 0,-51.264 z"
         inkscape:connector-curvature="0"
         id="path704" /></clipPath><clipPath
       id="clipPath734"><path
         d="m 249.75,629.11 116.3,0 0,14.64 -116.3,0 0,-14.64 z"
         inkscape:connector-curvature="0"
         id="path736" /></clipPath><clipPath
       id="clipPath742"><path
         d="m 249.74,629.11 116.3,0 0,14.64 -116.3,0 0,-14.64 z"
         inkscape:connector-curvature="0"
         id="path744" /></clipPath><clipPath
       id="clipPath754"><path
         d="m 249.74,629.11 116.3,0 0,14.64 -116.3,0 0,-14.64 z"
         inkscape:connector-curvature="0"
         id="path756" /></clipPath><clipPath
       id="clipPath766"><path
         d="m 249.74,629.11 116.3,0 0,14.64 -116.3,0 0,-14.64 z"
         inkscape:connector-curvature="0"
         id="path768" /></clipPath><clipPath
       id="clipPath778"><path
         d="m 249.74,629.11 116.3,0 0,14.64 -116.3,0 0,-14.64 z"
         inkscape:connector-curvature="0"
         id="path780" /></clipPath><clipPath
       id="clipPath790"><path
         d="m 249.74,629.11 116.3,0 0,14.64 -116.3,0 0,-14.64 z"
         inkscape:connector-curvature="0"
         id="path792" /></clipPath><clipPath
       id="clipPath802"><path
         d="m 249.74,629.11 116.3,0 0,14.64 -116.3,0 0,-14.64 z"
         inkscape:connector-curvature="0"
         id="path804" /></clipPath><clipPath
       id="clipPath814"><path
         d="m 249.74,629.11 116.3,0 0,14.64 -116.3,0 0,-14.64 z"
         inkscape:connector-curvature="0"
         id="path816" /></clipPath><clipPath
       id="clipPath826"><path
         d="m 249.74,629.11 116.3,0 0,14.64 -116.3,0 0,-14.64 z"
         inkscape:connector-curvature="0"
         id="path828" /></clipPath><clipPath
       id="clipPath840"><path
         d="m 362.45,517.39 99,0 0,19.8 -99,0 0,-19.8 z"
         inkscape:connector-curvature="0"
         id="path842" /></clipPath><clipPath
       id="clipPath848"><path
         d="m 362.45,517.39 99,0 0,19.8 -99,0 0,-19.8 z"
         inkscape:connector-curvature="0"
         id="path850" /></clipPath><clipPath
       id="clipPath860"><path
         d="m 362.45,517.39 99,0 0,19.8 -99,0 0,-19.8 z"
         inkscape:connector-curvature="0"
         id="path862" /></clipPath><clipPath
       id="clipPath872"><path
         d="m 362.45,517.39 99,0 0,19.8 -99,0 0,-19.8 z"
         inkscape:connector-curvature="0"
         id="path874" /></clipPath><clipPath
       id="clipPath888"><path
         d="m 382.85,716.37 81.36,0 0,20.4 -81.36,0 0,-20.4 z"
         inkscape:connector-curvature="0"
         id="path890" /></clipPath><clipPath
       id="clipPath896"><path
         d="m 382.85,716.38 81.36,0 0,20.4 -81.36,0 0,-20.4 z"
         inkscape:connector-curvature="0"
         id="path898" /></clipPath><clipPath
       id="clipPath908"><path
         d="m 382.85,716.38 81.36,0 0,20.4 -81.36,0 0,-20.4 z"
         inkscape:connector-curvature="0"
         id="path910" /></clipPath><clipPath
       id="clipPath916"><path
         d="m 491.48,694.53 79.44,0 0,13.8 -79.44,0 0,-13.8 z"
         inkscape:connector-curvature="0"
         id="path918" /></clipPath><clipPath
       id="clipPath924"><path
         d="m 491.47,694.54 79.44,0 0,13.8 -79.44,0 0,-13.8 z"
         inkscape:connector-curvature="0"
         id="path926" /></clipPath><clipPath
       id="clipPath936"><path
         d="m 491.47,694.54 79.44,0 0,13.8 -79.44,0 0,-13.8 z"
         inkscape:connector-curvature="0"
         id="path938" /></clipPath><clipPath
       id="clipPath944"><path
         d="m 258.75,692.97 85.935,0 0,13.8 -85.935,0 0,-13.8 z"
         inkscape:connector-curvature="0"
         id="path946" /></clipPath><clipPath
       id="clipPath952"><path
         d="m 258.74,692.98 85.944,0 0,13.8 -85.944,0 0,-13.8 z"
         inkscape:connector-curvature="0"
         id="path954" /></clipPath><clipPath
       id="clipPath964"><path
         d="m 258.74,692.98 85.944,0 0,13.8 -85.944,0 0,-13.8 z"
         inkscape:connector-curvature="0"
         id="path966" /></clipPath><clipPath
       id="clipPath980"><path
         d="m 489.08,614.59 99.72,0 0,14.64 -99.72,0 0,-14.64 z"
         inkscape:connector-curvature="0"
         id="path982" /></clipPath><clipPath
       id="clipPath988"><path
         d="m 489.07,614.59 99.72,0 0,14.64 -99.72,0 0,-14.64 z"
         inkscape:connector-curvature="0"
         id="path990" /></clipPath><clipPath
       id="clipPath1000"><path
         d="m 489.07,614.59 99.72,0 0,14.64 -99.72,0 0,-14.64 z"
         inkscape:connector-curvature="0"
         id="path1002" /></clipPath><clipPath
       id="clipPath1008"><path
         d="m 502.28,589.39 84.96,0 0,13.68 -84.96,0 0,-13.68 z"
         inkscape:connector-curvature="0"
         id="path1010" /></clipPath><clipPath
       id="clipPath1016"><path
         d="m 502.27,589.39 84.96,0 0,13.68 -84.96,0 0,-13.68 z"
         inkscape:connector-curvature="0"
         id="path1018" /></clipPath><clipPath
       id="clipPath1028"><path
         d="m 502.27,589.39 84.96,0 0,13.68 -84.96,0 0,-13.68 z"
         inkscape:connector-curvature="0"
         id="path1030" /></clipPath><clipPath
       id="clipPath1044"><path
         d="m 497.84,555.79 80.4,0 0,13.68 -80.4,0 0,-13.68 z"
         inkscape:connector-curvature="0"
         id="path1046" /></clipPath><clipPath
       id="clipPath1052"><path
         d="m 497.83,555.79 80.4,0 0,13.68 -80.4,0 0,-13.68 z"
         inkscape:connector-curvature="0"
         id="path1054" /></clipPath><clipPath
       id="clipPath1064"><path
         d="m 497.83,555.79 80.4,0 0,13.68 -80.4,0 0,-13.68 z"
         inkscape:connector-curvature="0"
         id="path1066" /></clipPath><clipPath
       id="clipPath1072"><path
         d="m 501.32,529.75 77.28,0 0,13.68 -77.28,0 0,-13.68 z"
         inkscape:connector-curvature="0"
         id="path1074" /></clipPath><clipPath
       id="clipPath1080"><path
         d="m 501.31,529.75 77.28,0 0,13.68 -77.28,0 0,-13.68 z"
         inkscape:connector-curvature="0"
         id="path1082" /></clipPath><clipPath
       id="clipPath1092"><path
         d="m 501.31,529.75 77.28,0 0,13.68 -77.28,0 0,-13.68 z"
         inkscape:connector-curvature="0"
         id="path1094" /></clipPath></defs><g
     transform="matrix(1.25,0,0,-1.25,-87.65625,1177.0313)"
     id="g10"><g
       id="g12"><g
         clip-path="url(#clipPath16)"
         id="g14"><g
           id="g20"><g
             clip-path="url(#clipPath24)"
             id="g22"><text
   transform="matrix(1,0,0,-1,130.82,518.59)"
   id="text28"><tspan
     x="0 6.7080002 13.416 19.416 26.124001 32.004002 38.712002 45.419998 53.448002 56.112 62.688 72.755997 79.356003 86.064003 89.400002 93.396004"
     y="0"
     id="tspan30"
     style="font-size:12px;font-variant:normal;font-weight:normal;writing-mode:lr-tb;fill:#000000;fill-opacity:1;fill-rule:nonzero;stroke:none;font-family:Helvetica;-inkscape-font-specification:Helvetica">besucheElement()</tspan></text>

</g></g><g
           id="g32"><g
             clip-path="url(#clipPath36)"
             id="g34" /></g></g></g><path
       d="m 70.5,882 105.75,0 0,58.5 -105.75,0 0,-58.5 z"
       inkscape:connector-curvature="0"
       id="path40"
       style="fill:#ffffff;fill-opacity:1;fill-rule:evenodd;stroke:none" /><path
       d="m 70.5,882 105.75,0 0,58.5 -105.75,0 0,-58.5 z"
       inkscape:connector-curvature="0"
       id="path42"
       style="fill:none;stroke:#000000;stroke-width:0.75;stroke-linecap:round;stroke-linejoin:miter;stroke-miterlimit:10;stroke-opacity:1;stroke-dasharray:none" /><g
       id="g44"><g
         clip-path="url(#clipPath48)"
         id="g46"><g
           id="g52"><g
             clip-path="url(#clipPath56)"
             id="g54"><text
   transform="matrix(1,0,0,-1,106.46,925.44)"
   id="text60"><tspan
     x="0 3.336 12 14.664 17.280001 23.988001 30.695999"
     y="0"
     id="tspan62"
     style="font-size:12px;font-variant:normal;font-weight:normal;writing-mode:lr-tb;fill:#000000;fill-opacity:1;fill-rule:nonzero;stroke:none;font-family:Helvetica;-inkscape-font-specification:Helvetica">:Client</tspan></text>

</g></g><g
           id="g64"><g
             clip-path="url(#clipPath68)"
             id="g66" /></g></g></g><path
       d="m 188.25,882 105.75,0 0,58.5 -105.75,0 0,-58.5 z"
       inkscape:connector-curvature="0"
       id="path72"
       style="fill:#ffffff;fill-opacity:1;fill-rule:evenodd;stroke:none" /><path
       d="m 188.25,882 105.75,0 0,58.5 -105.75,0 0,-58.5 z"
       inkscape:connector-curvature="0"
       id="path74"
       style="fill:none;stroke:#000000;stroke-width:0.75;stroke-linecap:round;stroke-linejoin:miter;stroke-miterlimit:10;stroke-opacity:1;stroke-dasharray:none" /><g
       id="g76"><g
         clip-path="url(#clipPath80)"
         id="g78"><g
           id="g84"><g
             clip-path="url(#clipPath88)"
             id="g86"><text
   transform="matrix(1,0,0,-1,201.14,925.44)"
   id="text92"><tspan
     x="0 3.336 12.708 19.416 22.08 28.752001 34.751999"
     y="0"
     id="tspan94"
     style="font-size:12px;font-variant:normal;font-weight:normal;writing-mode:lr-tb;fill:#000000;fill-opacity:1;fill-rule:nonzero;stroke:none;font-family:Helvetica;-inkscape-font-specification:Helvetica">:Objekt</tspan></text>

</g></g><g
           id="g96"><g
             clip-path="url(#clipPath100)"
             id="g98"><text
   transform="matrix(1,0,0,-1,239.3,925.44)"
   id="text104"><tspan
     x="0"
     y="0"
     id="tspan106"
     style="font-size:12px;font-variant:normal;font-weight:normal;writing-mode:lr-tb;fill:#000000;fill-opacity:1;fill-rule:nonzero;stroke:none;font-family:Helvetica;-inkscape-font-specification:Helvetica">S</tspan></text>

</g></g><g
           id="g108"><g
             clip-path="url(#clipPath112)"
             id="g110"><text
   transform="matrix(1,0,0,-1,247.22,925.44)"
   id="text116"><tspan
     x="0 3.336 7.3319998 14.004 20.004 23.388 30.096001"
     y="0"
     id="tspan118"
     style="font-size:12px;font-variant:normal;font-weight:normal;writing-mode:lr-tb;fill:#000000;fill-opacity:1;fill-rule:nonzero;stroke:none;font-family:Helvetica;-inkscape-font-specification:Helvetica">truktur</tspan></text>

</g></g><g
           id="g120"><g
             clip-path="url(#clipPath124)"
             id="g122" /></g></g></g><path
       d="m 304.8,882 105.75,0 0,58.5 -105.75,0 0,-58.5 z"
       inkscape:connector-curvature="0"
       id="path128"
       style="fill:#ffffff;fill-opacity:1;fill-rule:evenodd;stroke:none" /><path
       d="m 304.8,882 105.75,0 0,58.5 -105.75,0 0,-58.5 z"
       inkscape:connector-curvature="0"
       id="path130"
       style="fill:none;stroke:#000000;stroke-width:0.75;stroke-linecap:round;stroke-linejoin:miter;stroke-miterlimit:10;stroke-opacity:1;stroke-dasharray:none" /><g
       id="g132"><g
         clip-path="url(#clipPath136)"
         id="g134"><g
           id="g140"><g
             clip-path="url(#clipPath144)"
             id="g142"><text
   transform="matrix(1,0,0,-1,343.97,925.44)"
   id="text148"><tspan
     x="0 6 12.708 20.736"
     y="0"
     id="tspan150"
     style="font-size:12px;font-variant:normal;font-weight:normal;writing-mode:lr-tb;fill:#000000;fill-opacity:1;fill-rule:nonzero;stroke:none;font-family:Helvetica;-inkscape-font-specification:Helvetica">keA </tspan></text>

</g></g><g
           id="g152"><g
             clip-path="url(#clipPath156)"
             id="g154"><text
   transform="matrix(1,0,0,-1,368.09,925.44)"
   id="text160"><tspan
     x="0"
     y="0"
     id="tspan162"
     style="font-size:12px;font-variant:normal;font-weight:normal;writing-mode:lr-tb;fill:#000000;fill-opacity:1;fill-rule:nonzero;stroke:none;font-family:Helvetica;-inkscape-font-specification:Helvetica">:</tspan></text>

</g></g><g
           id="g164"><g
             clip-path="url(#clipPath168)"
             id="g166" /></g><g
           id="g172"><g
             clip-path="url(#clipPath176)"
             id="g174" /></g><g
           id="g180"><g
             clip-path="url(#clipPath184)"
             id="g182"><text
   transform="matrix(1,0,0,-1,328.61,911.64)"
   id="text188"><tspan
     x="0 8.0279999 14.736 21.444 27.444 31.403999 38.112 41.352001 48.060001"
     y="0"
     id="tspan190"
     style="font-size:12px;font-variant:normal;font-weight:normal;writing-mode:lr-tb;fill:#000000;fill-opacity:1;fill-rule:nonzero;stroke:none;font-family:Helvetica;-inkscape-font-specification:Helvetica">Konkretes</tspan></text>

</g></g><g
           id="g192"><g
             clip-path="url(#clipPath196)"
             id="g194"><text
   transform="matrix(1,0,0,-1,382.73,911.64)"
   id="text200"><tspan
     x="0"
     y="0"
     id="tspan202"
     style="font-size:12px;font-variant:normal;font-weight:normal;writing-mode:lr-tb;fill:#000000;fill-opacity:1;fill-rule:nonzero;stroke:none;font-family:Helvetica;-inkscape-font-specification:Helvetica">-</tspan></text>

</g></g><g
           id="g204"><g
             clip-path="url(#clipPath208)"
             id="g206" /></g><g
           id="g212"><g
             clip-path="url(#clipPath216)"
             id="g214"><text
   transform="matrix(1,0,0,-1,331.61,897.84)"
   id="text220"><tspan
     x="0 8.0279999 10.692 17.364 27.360001 34.056 40.764 44.099998"
     y="0"
     id="tspan222"
     style="font-size:12px;font-variant:normal;font-weight:normal;writing-mode:lr-tb;fill:#000000;fill-opacity:1;fill-rule:nonzero;stroke:none;font-family:Helvetica;-inkscape-font-specification:Helvetica">ElementA</tspan></text>

</g></g><g
           id="g224"><g
             clip-path="url(#clipPath228)"
             id="g226" /></g></g></g><path
       d="m 424.05,882 105.75,0 0,58.5 -105.75,0 0,-58.5 z"
       inkscape:connector-curvature="0"
       id="path232"
       style="fill:#ffffff;fill-opacity:1;fill-rule:evenodd;stroke:none" /><path
       d="m 424.05,882 105.75,0 0,58.5 -105.75,0 0,-58.5 z"
       inkscape:connector-curvature="0"
       id="path234"
       style="fill:none;stroke:#000000;stroke-width:0.75;stroke-linecap:round;stroke-linejoin:miter;stroke-miterlimit:10;stroke-opacity:1;stroke-dasharray:none" /><g
       id="g236"><g
         clip-path="url(#clipPath240)"
         id="g238"><g
           id="g244"><g
             clip-path="url(#clipPath248)"
             id="g246"><text
   transform="matrix(1,0,0,-1,463.25,925.44)"
   id="text252"><tspan
     x="0 6 12.708 20.736"
     y="0"
     id="tspan254"
     style="font-size:12px;font-variant:normal;font-weight:normal;writing-mode:lr-tb;fill:#000000;fill-opacity:1;fill-rule:nonzero;stroke:none;font-family:Helvetica;-inkscape-font-specification:Helvetica">keB </tspan></text>

</g></g><g
           id="g256"><g
             clip-path="url(#clipPath260)"
             id="g258"><text
   transform="matrix(1,0,0,-1,487.39,925.44)"
   id="text264"><tspan
     x="0"
     y="0"
     id="tspan266"
     style="font-size:12px;font-variant:normal;font-weight:normal;writing-mode:lr-tb;fill:#000000;fill-opacity:1;fill-rule:nonzero;stroke:none;font-family:Helvetica;-inkscape-font-specification:Helvetica">:</tspan></text>

</g></g><g
           id="g268"><g
             clip-path="url(#clipPath272)"
             id="g270" /></g><g
           id="g276"><g
             clip-path="url(#clipPath280)"
             id="g278" /></g><g
           id="g284"><g
             clip-path="url(#clipPath288)"
             id="g286"><text
   transform="matrix(1,0,0,-1,447.89,911.64)"
   id="text292"><tspan
     x="0 8.0279999 14.736 21.444 27.444 31.403999 38.112 41.352001 48.060001"
     y="0"
     id="tspan294"
     style="font-size:12px;font-variant:normal;font-weight:normal;writing-mode:lr-tb;fill:#000000;fill-opacity:1;fill-rule:nonzero;stroke:none;font-family:Helvetica;-inkscape-font-specification:Helvetica">Konkretes</tspan></text>

</g></g><g
           id="g296"><g
             clip-path="url(#clipPath300)"
             id="g298"><text
   transform="matrix(1,0,0,-1,502.03,911.64)"
   id="text304"><tspan
     x="0"
     y="0"
     id="tspan306"
     style="font-size:12px;font-variant:normal;font-weight:normal;writing-mode:lr-tb;fill:#000000;fill-opacity:1;fill-rule:nonzero;stroke:none;font-family:Helvetica;-inkscape-font-specification:Helvetica">-</tspan></text>

</g></g><g
           id="g308"><g
             clip-path="url(#clipPath312)"
             id="g310" /></g><g
           id="g316"><g
             clip-path="url(#clipPath320)"
             id="g318"><text
   transform="matrix(1,0,0,-1,450.89,897.84)"
   id="text324"><tspan
     x="0 8.0279999 10.692 17.364 27.360001 34.056 40.764 44.099998"
     y="0"
     id="tspan326"
     style="font-size:12px;font-variant:normal;font-weight:normal;writing-mode:lr-tb;fill:#000000;fill-opacity:1;fill-rule:nonzero;stroke:none;font-family:Helvetica;-inkscape-font-specification:Helvetica">ElementB</tspan></text>

</g></g><g
           id="g328"><g
             clip-path="url(#clipPath332)"
             id="g330" /></g></g></g><g
       id="g336"><path
         d="m 123.45,882 0,-389.7"
         inkscape:connector-curvature="0"
         id="path338"
         style="fill:none;stroke:#000000;stroke-width:0.75;stroke-linecap:round;stroke-linejoin:round;stroke-miterlimit:10;stroke-opacity:1;stroke-dasharray:5.25, 3;stroke-dashoffset:0" /></g><g
       id="g340"><path
         d="m 241.2,882 0,-389.7"
         inkscape:connector-curvature="0"
         id="path342"
         style="fill:none;stroke:#000000;stroke-width:0.75;stroke-linecap:round;stroke-linejoin:round;stroke-miterlimit:10;stroke-opacity:1;stroke-dasharray:5.25, 3;stroke-dashoffset:0" /></g><g
       id="g344"><path
         d="m 357.75,882 0,-389.7"
         inkscape:connector-curvature="0"
         id="path346"
         style="fill:none;stroke:#000000;stroke-width:0.75;stroke-linecap:round;stroke-linejoin:round;stroke-miterlimit:10;stroke-opacity:1;stroke-dasharray:5.25, 3;stroke-dashoffset:0" /></g><g
       id="g348"><path
         d="m 477,882 0,-389.7"
         inkscape:connector-curvature="0"
         id="path350"
         style="fill:none;stroke:#000000;stroke-width:0.75;stroke-linecap:round;stroke-linejoin:round;stroke-miterlimit:10;stroke-opacity:1;stroke-dasharray:5.25, 3;stroke-dashoffset:0" /></g><path
       d="m 123.45,824 100.05,0 c 0.28,0 0.5,-0.22 0.5,-0.5 0,-0.28 -0.22,-0.5 -0.5,-0.5 l -100.05,0 c -0.28,0 -0.5,0.22 -0.5,0.5 0,0.28 0.22,0.5 0.5,0.5 z m 99.05,4.5 10,-5 -10,-5 0,10 z"
       inkscape:connector-curvature="0"
       id="path352"
       style="fill:#000000;fill-opacity:1;fill-rule:nonzero;stroke:none" /><path
       d="m 242.25,790.05 97.5,0 c 0.28,0 0.5,-0.22 0.5,-0.5 0,-0.28 -0.22,-0.5 -0.5,-0.5 l -97.5,0 c -0.28,0 -0.5,0.22 -0.5,0.5 0,0.28 0.22,0.5 0.5,0.5 z m 96.5,4.5 10,-5 -10,-5 0,10 z"
       inkscape:connector-curvature="0"
       id="path354"
       style="fill:#000000;fill-opacity:1;fill-rule:nonzero;stroke:none" /><path
       d="m 360.75,775.4 219.75,0 c 0.28,0 0.5,-0.22 0.5,-0.5 0,-0.28 -0.22,-0.5 -0.5,-0.5 l -219.75,0 c -0.28,0 -0.5,0.22 -0.5,0.5 0,0.28 0.22,0.5 0.5,0.5 z m 218.75,4.5 10,-5 -10,-5 0,10 z"
       inkscape:connector-curvature="0"
       id="path356"
       style="fill:#000000;fill-opacity:1;fill-rule:nonzero;stroke:none" /><g
       id="g358"><g
         clip-path="url(#clipPath362)"
         id="g360"><g
           id="g366"><g
             clip-path="url(#clipPath370)"
             id="g368"><text
   transform="matrix(1,0,0,-1,134.66,847.9)"
   id="text374"><tspan
     x="0 6.7080002 13.416 19.416 26.124001 32.004002 38.712002"
     y="0"
     id="tspan376"
     style="font-size:12px;font-variant:normal;font-weight:normal;writing-mode:lr-tb;fill:#000000;fill-opacity:1;fill-rule:nonzero;stroke:none;font-family:Helvetica;-inkscape-font-specification:Helvetica">besuche</tspan></text>

</g></g><g
           id="g378"><g
             clip-path="url(#clipPath382)"
             id="g380"><text
   transform="matrix(1,0,0,-1,180.14,847.9)"
   id="text386"><tspan
     x="0"
     y="0"
     id="tspan388"
     style="font-size:12px;font-variant:normal;font-weight:normal;writing-mode:lr-tb;fill:#000000;fill-opacity:1;fill-rule:nonzero;stroke:none;font-family:Helvetica;-inkscape-font-specification:Helvetica">-</tspan></text>

</g></g><g
           id="g390"><g
             clip-path="url(#clipPath394)"
             id="g392"><text
   transform="matrix(1,0,0,-1,134.66,834.1)"
   id="text398"><tspan
     x="0 8.0279999 10.692 17.364 27.360001 34.056 40.764"
     y="0"
     id="tspan400"
     style="font-size:12px;font-variant:normal;font-weight:normal;writing-mode:lr-tb;fill:#000000;fill-opacity:1;fill-rule:nonzero;stroke:none;font-family:Helvetica;-inkscape-font-specification:Helvetica">Element</tspan></text>

</g></g><g
           id="g402"><g
             clip-path="url(#clipPath406)"
             id="g404"><text
   transform="matrix(1,0,0,-1,178.82,834.1)"
   id="text410"><tspan
     x="0"
     y="0"
     id="tspan412"
     style="font-size:12px;font-variant:normal;font-weight:normal;writing-mode:lr-tb;fill:#000000;fill-opacity:1;fill-rule:nonzero;stroke:none;font-family:Helvetica;-inkscape-font-specification:Helvetica">(</tspan></text>

</g></g><g
           id="g414"><g
             clip-path="url(#clipPath418)"
             id="g416"><text
   transform="matrix(1,0,0,-1,182.78,834.1)"
   id="text422"><tspan
     x="0 6 12.708"
     y="0"
     id="tspan424"
     style="font-size:12px;font-variant:normal;font-weight:normal;writing-mode:lr-tb;fill:#000000;fill-opacity:1;fill-rule:nonzero;stroke:none;font-family:Helvetica;-inkscape-font-specification:Helvetica">kbX</tspan></text>

</g></g><g
           id="g426"><g
             clip-path="url(#clipPath430)"
             id="g428"><text
   transform="matrix(1,0,0,-1,203.42,834.1)"
   id="text434"><tspan
     x="0"
     y="0"
     id="tspan436"
     style="font-size:12px;font-variant:normal;font-weight:normal;writing-mode:lr-tb;fill:#000000;fill-opacity:1;fill-rule:nonzero;stroke:none;font-family:Helvetica;-inkscape-font-specification:Helvetica">)</tspan></text>

</g></g><g
           id="g438"><g
             clip-path="url(#clipPath442)"
             id="g440" /></g></g></g><g
       id="g446"><g
         clip-path="url(#clipPath450)"
         id="g448"><g
           id="g454"><g
             clip-path="url(#clipPath458)"
             id="g456"><text
   transform="matrix(1,0,0,-1,253.58,795.82)"
   id="text462"><tspan
     x="0 6.7080002 12.708 18.587999 25.296 32.004002 35.34 38.004002 44.712002 48.708 55.380001 62.099998 66.096001 72.096001 78.767998 86.699997"
     y="0"
     id="tspan464"
     style="font-size:12px;font-variant:normal;font-weight:normal;writing-mode:lr-tb;fill:#000000;fill-opacity:1;fill-rule:nonzero;stroke:none;font-family:Helvetica;-inkscape-font-specification:Helvetica">akzeptieren(kbX)</tspan></text>

</g></g><g
           id="g466"><g
             clip-path="url(#clipPath470)"
             id="g468" /></g></g></g><g
       id="g474"><g
         clip-path="url(#clipPath478)"
         id="g476"><g
           id="g482"><g
             clip-path="url(#clipPath486)"
             id="g484"><text
   transform="matrix(1,0,0,-1,489.07,755.5)"
   id="text490"><tspan
     x="0 6.5999999 13.308 16.643999 25.308001 32.015999 35.352001 42.084 48.792 56.82 60.816002"
     y="0"
     id="tspan492"
     style="font-size:12px;font-variant:normal;font-weight:normal;writing-mode:lr-tb;fill:#000000;fill-opacity:1;fill-rule:nonzero;stroke:none;font-family:Helvetica;-inkscape-font-specification:Helvetica">getDatenA()</tspan></text>

</g></g><g
           id="g494"><g
             clip-path="url(#clipPath498)"
             id="g496" /></g></g></g><g
       id="g502"><g
         clip-path="url(#clipPath506)"
         id="g504"><g
           id="g510"><g
             clip-path="url(#clipPath514)"
             id="g512"><text
   transform="matrix(1,0,0,-1,381.65,781.54)"
   id="text518"><tspan
     x="0"
     y="0"
     id="tspan520"
     style="font-size:12px;font-variant:normal;font-weight:normal;writing-mode:lr-tb;fill:#000000;fill-opacity:1;fill-rule:nonzero;stroke:none;font-family:Helvetica;-inkscape-font-specification:Helvetica">b</tspan></text>

</g></g><g
           id="g522"><g
             clip-path="url(#clipPath526)"
             id="g524"><text
   transform="matrix(1,0,0,-1,388.37,781.54)"
   id="text530"><tspan
     x="0 6.7080002 12.708 19.416 25.296 32.004002 38.712002"
     y="0"
     id="tspan532"
     style="font-size:12px;font-variant:normal;font-weight:normal;writing-mode:lr-tb;fill:#000000;fill-opacity:1;fill-rule:nonzero;stroke:none;font-family:Helvetica;-inkscape-font-specification:Helvetica">esuchen</tspan></text>

</g></g><g
           id="g534"><g
             clip-path="url(#clipPath538)"
             id="g536"><text
   transform="matrix(1,0,0,-1,433.85,781.54)"
   id="text542"><tspan
     x="0"
     y="0"
     id="tspan544"
     style="font-size:12px;font-variant:normal;font-weight:normal;writing-mode:lr-tb;fill:#000000;fill-opacity:1;fill-rule:nonzero;stroke:none;font-family:Helvetica;-inkscape-font-specification:Helvetica">(</tspan></text>

</g></g><g
           id="g546"><g
             clip-path="url(#clipPath550)"
             id="g548"><text
   transform="matrix(1,0,0,-1,437.81,781.54)"
   id="text554"><tspan
     x="0 6 12.6"
     y="0"
     id="tspan556"
     style="font-size:12px;font-variant:normal;font-weight:normal;writing-mode:lr-tb;fill:#000000;fill-opacity:1;fill-rule:nonzero;stroke:none;font-family:Helvetica;-inkscape-font-specification:Helvetica">keA</tspan></text>

</g></g><g
           id="g558"><g
             clip-path="url(#clipPath562)"
             id="g560"><text
   transform="matrix(1,0,0,-1,458.45,781.54)"
   id="text566"><tspan
     x="0"
     y="0"
     id="tspan568"
     style="font-size:12px;font-variant:normal;font-weight:normal;writing-mode:lr-tb;fill:#000000;fill-opacity:1;fill-rule:nonzero;stroke:none;font-family:Helvetica;-inkscape-font-specification:Helvetica">)</tspan></text>

</g></g><g
           id="g570"><g
             clip-path="url(#clipPath574)"
             id="g572" /></g></g></g><path
       d="m 545.55,882 105.75,0 0,59.25 -105.75,0 0,-59.25 z"
       inkscape:connector-curvature="0"
       id="path578"
       style="fill:#ffffff;fill-opacity:1;fill-rule:evenodd;stroke:none" /><path
       d="m 545.55,882 105.75,0 0,59.25 -105.75,0 0,-59.25 z"
       inkscape:connector-curvature="0"
       id="path580"
       style="fill:none;stroke:#000000;stroke-width:0.75;stroke-linecap:round;stroke-linejoin:miter;stroke-miterlimit:10;stroke-opacity:1;stroke-dasharray:none" /><g
       id="g582"><g
         clip-path="url(#clipPath586)"
         id="g584"><g
           id="g590"><g
             clip-path="url(#clipPath594)"
             id="g592"><text
   transform="matrix(1,0,0,-1,584.83,926.16)"
   id="text598"><tspan
     x="0"
     y="0"
     id="tspan600"
     style="font-size:12px;font-variant:normal;font-weight:normal;writing-mode:lr-tb;fill:#000000;fill-opacity:1;fill-rule:nonzero;stroke:none;font-family:Helvetica;-inkscape-font-specification:Helvetica">k</tspan></text>

</g></g><g
           id="g602"><g
             clip-path="url(#clipPath606)"
             id="g604"><text
   transform="matrix(1,0,0,-1,590.83,926.16)"
   id="text610"><tspan
     x="0"
     y="0"
     id="tspan612"
     style="font-size:12px;font-variant:normal;font-weight:normal;writing-mode:lr-tb;fill:#000000;fill-opacity:1;fill-rule:nonzero;stroke:none;font-family:Helvetica;-inkscape-font-specification:Helvetica">b</tspan></text>

</g></g><g
           id="g614"><g
             clip-path="url(#clipPath618)"
             id="g616"><text
   transform="matrix(1,0,0,-1,597.55,926.16)"
   id="text622"><tspan
     x="0 7.9200001"
     y="0"
     id="tspan624"
     style="font-size:12px;font-variant:normal;font-weight:normal;writing-mode:lr-tb;fill:#000000;fill-opacity:1;fill-rule:nonzero;stroke:none;font-family:Helvetica;-inkscape-font-specification:Helvetica">X </tspan></text>

</g></g><g
           id="g626"><g
             clip-path="url(#clipPath630)"
             id="g628"><text
   transform="matrix(1,0,0,-1,608.83,926.16)"
   id="text634"><tspan
     x="0"
     y="0"
     id="tspan636"
     style="font-size:12px;font-variant:normal;font-weight:normal;writing-mode:lr-tb;fill:#000000;fill-opacity:1;fill-rule:nonzero;stroke:none;font-family:Helvetica;-inkscape-font-specification:Helvetica">:</tspan></text>

</g></g><g
           id="g638"><g
             clip-path="url(#clipPath642)"
             id="g640" /></g><g
           id="g646"><g
             clip-path="url(#clipPath650)"
             id="g648" /></g><g
           id="g654"><g
             clip-path="url(#clipPath658)"
             id="g656"><text
   transform="matrix(1,0,0,-1,570.55,912.36)"
   id="text662"><tspan
     x="0 8.0279999 14.736 21.444 27.444 31.403999 38.112 41.352001 48.060001"
     y="0"
     id="tspan664"
     style="font-size:12px;font-variant:normal;font-weight:normal;writing-mode:lr-tb;fill:#000000;fill-opacity:1;fill-rule:nonzero;stroke:none;font-family:Helvetica;-inkscape-font-specification:Helvetica">Konkreter</tspan></text>

</g></g><g
           id="g666"><g
             clip-path="url(#clipPath670)"
             id="g668"><text
   transform="matrix(1,0,0,-1,622.63,912.36)"
   id="text674"><tspan
     x="0"
     y="0"
     id="tspan676"
     style="font-size:12px;font-variant:normal;font-weight:normal;writing-mode:lr-tb;fill:#000000;fill-opacity:1;fill-rule:nonzero;stroke:none;font-family:Helvetica;-inkscape-font-specification:Helvetica">-</tspan></text>

</g></g><g
           id="g678"><g
             clip-path="url(#clipPath682)"
             id="g680" /></g><g
           id="g686"><g
             clip-path="url(#clipPath690)"
             id="g688"><text
   transform="matrix(1,0,0,-1,569.23,898.44)"
   id="text694"><tspan
     x="0 8.0279999 14.736 20.736 27.444 33.444 40.043999 46.751999 50.748001"
     y="0"
     id="tspan696"
     style="font-size:12px;font-variant:normal;font-weight:normal;writing-mode:lr-tb;fill:#000000;fill-opacity:1;fill-rule:nonzero;stroke:none;font-family:Helvetica;-inkscape-font-specification:Helvetica">BesucherX</tspan></text>

</g></g><g
           id="g698"><g
             clip-path="url(#clipPath702)"
             id="g700" /></g></g></g><g
       id="g706"><path
         d="m 598.5,882 0,-389.7"
         inkscape:connector-curvature="0"
         id="path708"
         style="fill:none;stroke:#000000;stroke-width:0.75;stroke-linecap:round;stroke-linejoin:round;stroke-miterlimit:10;stroke-opacity:1;stroke-dasharray:5.25, 3;stroke-dashoffset:0" /></g><path
       d="m 368,693.2 3,0 c 0.28,0 0.5,-0.22 0.5,-0.5 0,-0.28 -0.22,-0.5 -0.5,-0.5 l -3,0 c -0.28,0 -0.5,0.22 -0.5,0.5 0,0.28 0.22,0.5 0.5,0.5 z m 7,0 3,0 c 0.28,0 0.5,-0.22 0.5,-0.5 0,-0.28 -0.22,-0.5 -0.5,-0.5 l -3,0 c -0.28,0 -0.5,0.22 -0.5,0.5 0,0.28 0.22,0.5 0.5,0.5 z m 7,0 3,0 c 0.28,0 0.5,-0.22 0.5,-0.5 0,-0.28 -0.22,-0.5 -0.5,-0.5 l -3,0 c -0.28,0 -0.5,0.22 -0.5,0.5 0,0.28 0.22,0.5 0.5,0.5 z m 7,0 3,0 c 0.28,0 0.5,-0.22 0.5,-0.5 0,-0.28 -0.22,-0.5 -0.5,-0.5 l -3,0 c -0.28,0 -0.5,0.22 -0.5,0.5 0,0.28 0.22,0.5 0.5,0.5 z m 7,0 3,0 c 0.28,0 0.5,-0.22 0.5,-0.5 0,-0.28 -0.22,-0.5 -0.5,-0.5 l -3,0 c -0.28,0 -0.5,0.22 -0.5,0.5 0,0.28 0.22,0.5 0.5,0.5 z m 7,0 3,0 c 0.28,0 0.5,-0.22 0.5,-0.5 0,-0.28 -0.22,-0.5 -0.5,-0.5 l -3,0 c -0.28,0 -0.5,0.22 -0.5,0.5 0,0.28 0.22,0.5 0.5,0.5 z m 7,0 3,0 c 0.28,0 0.5,-0.22 0.5,-0.5 0,-0.28 -0.22,-0.5 -0.5,-0.5 l -3,0 c -0.28,0 -0.5,0.22 -0.5,0.5 0,0.28 0.22,0.5 0.5,0.5 z m 7,0 3,0 c 0.28,0 0.5,-0.22 0.5,-0.5 0,-0.28 -0.22,-0.5 -0.5,-0.5 l -3,0 c -0.28,0 -0.5,0.22 -0.5,0.5 0,0.28 0.22,0.5 0.5,0.5 z m 7,0 3,0 c 0.28,0 0.5,-0.22 0.5,-0.5 0,-0.28 -0.22,-0.5 -0.5,-0.5 l -3,0 c -0.28,0 -0.5,0.22 -0.5,0.5 0,0.28 0.22,0.5 0.5,0.5 z m 7,0 3,0 c 0.28,0 0.5,-0.22 0.5,-0.5 0,-0.28 -0.22,-0.5 -0.5,-0.5 l -3,0 c -0.28,0 -0.5,0.22 -0.5,0.5 0,0.28 0.22,0.5 0.5,0.5 z m 7,0 3,0 c 0.28,0 0.5,-0.22 0.5,-0.5 0,-0.28 -0.22,-0.5 -0.5,-0.5 l -3,0 c -0.28,0 -0.5,0.22 -0.5,0.5 0,0.28 0.22,0.5 0.5,0.5 z m 7,0 3,0 c 0.28,0 0.5,-0.22 0.5,-0.5 0,-0.28 -0.22,-0.5 -0.5,-0.5 l -3,0 c -0.28,0 -0.5,0.22 -0.5,0.5 0,0.28 0.22,0.5 0.5,0.5 z m 7,0 3,0 c 0.28,0 0.5,-0.22 0.5,-0.5 0,-0.28 -0.22,-0.5 -0.5,-0.5 l -3,0 c -0.28,0 -0.5,0.22 -0.5,0.5 0,0.28 0.22,0.5 0.5,0.5 z m 7,0 3,0 c 0.28,0 0.5,-0.22 0.5,-0.5 0,-0.28 -0.22,-0.5 -0.5,-0.5 l -3,0 c -0.28,0 -0.5,0.22 -0.5,0.5 0,0.28 0.22,0.5 0.5,0.5 z m 7,0 3,0 c 0.28,0 0.5,-0.22 0.5,-0.5 0,-0.28 -0.22,-0.5 -0.5,-0.5 l -3,0 c -0.28,0 -0.5,0.22 -0.5,0.5 0,0.28 0.22,0.5 0.5,0.5 z m 7,0 3,0 c 0.28,0 0.5,-0.22 0.5,-0.5 0,-0.28 -0.22,-0.5 -0.5,-0.5 l -3,0 c -0.28,0 -0.5,0.22 -0.5,0.5 0,0.28 0.22,0.5 0.5,0.5 z m 7,0 3,0 c 0.28,0 0.5,-0.22 0.5,-0.5 0,-0.28 -0.22,-0.5 -0.5,-0.5 l -3,0 c -0.28,0 -0.5,0.22 -0.5,0.5 0,0.28 0.22,0.5 0.5,0.5 z m 7,0 3,0 c 0.28,0 0.5,-0.22 0.5,-0.5 0,-0.28 -0.22,-0.5 -0.5,-0.5 l -3,0 c -0.28,0 -0.5,0.22 -0.5,0.5 0,0.28 0.22,0.5 0.5,0.5 z m 7,0 3,0 c 0.28,0 0.5,-0.22 0.5,-0.5 0,-0.28 -0.22,-0.5 -0.5,-0.5 l -3,0 c -0.28,0 -0.5,0.22 -0.5,0.5 0,0.28 0.22,0.5 0.5,0.5 z m 7,0 3,0 c 0.28,0 0.5,-0.22 0.5,-0.5 0,-0.28 -0.22,-0.5 -0.5,-0.5 l -3,0 c -0.28,0 -0.5,0.22 -0.5,0.5 0,0.28 0.22,0.5 0.5,0.5 z m 7,0 3,0 c 0.28,0 0.5,-0.22 0.5,-0.5 0,-0.28 -0.22,-0.5 -0.5,-0.5 l -3,0 c -0.28,0 -0.5,0.22 -0.5,0.5 0,0.28 0.22,0.5 0.5,0.5 z m 7,0 3,0 c 0.28,0 0.5,-0.22 0.5,-0.5 0,-0.28 -0.22,-0.5 -0.5,-0.5 l -3,0 c -0.28,0 -0.5,0.22 -0.5,0.5 0,0.28 0.22,0.5 0.5,0.5 z m 7,0 3,0 c 0.28,0 0.5,-0.22 0.5,-0.5 0,-0.28 -0.22,-0.5 -0.5,-0.5 l -3,0 c -0.28,0 -0.5,0.22 -0.5,0.5 0,0.28 0.22,0.5 0.5,0.5 z m 7,0 3,0 c 0.28,0 0.5,-0.22 0.5,-0.5 0,-0.28 -0.22,-0.5 -0.5,-0.5 l -3,0 c -0.28,0 -0.5,0.22 -0.5,0.5 0,0.28 0.22,0.5 0.5,0.5 z m 7,0 3,0 c 0.28,0 0.5,-0.22 0.5,-0.5 0,-0.28 -0.22,-0.5 -0.5,-0.5 l -3,0 c -0.28,0 -0.5,0.22 -0.5,0.5 0,0.28 0.22,0.5 0.5,0.5 z m 7,0 3,0 c 0.28,0 0.5,-0.22 0.5,-0.5 0,-0.28 -0.22,-0.5 -0.5,-0.5 l -3,0 c -0.28,0 -0.5,0.22 -0.5,0.5 0,0.28 0.22,0.5 0.5,0.5 z m 7,0 3,0 c 0.28,0 0.5,-0.22 0.5,-0.5 0,-0.28 -0.22,-0.5 -0.5,-0.5 l -3,0 c -0.28,0 -0.5,0.22 -0.5,0.5 0,0.28 0.22,0.5 0.5,0.5 z m 7,0 3,0 c 0.28,0 0.5,-0.22 0.5,-0.5 0,-0.28 -0.22,-0.5 -0.5,-0.5 l -3,0 c -0.28,0 -0.5,0.22 -0.5,0.5 0,0.28 0.22,0.5 0.5,0.5 z m 7,0 3,0 c 0.28,0 0.5,-0.22 0.5,-0.5 0,-0.28 -0.22,-0.5 -0.5,-0.5 l -3,0 c -0.28,0 -0.5,0.22 -0.5,0.5 0,0.28 0.22,0.5 0.5,0.5 z m 7,0 3,0 c 0.28,0 0.5,-0.22 0.5,-0.5 0,-0.28 -0.22,-0.5 -0.5,-0.5 l -3,0 c -0.28,0 -0.5,0.22 -0.5,0.5 0,0.28 0.22,0.5 0.5,0.5 z m 7,0 3,0 c 0.28,0 0.5,-0.22 0.5,-0.5 0,-0.28 -0.22,-0.5 -0.5,-0.5 l -3,0 c -0.28,0 -0.5,0.22 -0.5,0.5 0,0.28 0.22,0.5 0.5,0.5 z m 7,0 3,0 c 0.28,0 0.5,-0.22 0.5,-0.5 0,-0.28 -0.22,-0.5 -0.5,-0.5 l -3,0 c -0.28,0 -0.5,0.22 -0.5,0.5 0,0.28 0.22,0.5 0.5,0.5 z m 7,0 3,0 c 0.28,0 0.5,-0.22 0.5,-0.5 0,-0.28 -0.22,-0.5 -0.5,-0.5 l -3,0 c -0.28,0 -0.5,0.22 -0.5,0.5 0,0.28 0.22,0.5 0.5,0.5 z m 7,0 1,0 c 0.28,0 0.5,-0.22 0.5,-0.5 0,-0.28 -0.22,-0.5 -0.5,-0.5 l -1,0 c -0.28,0 -0.5,0.22 -0.5,0.5 0,0.28 0.22,0.5 0.5,0.5 z m -225.25,-4.43 -6.74,3.93 6.74,3.93 c 0.24,0.14 0.54,0.06 0.68,-0.18 0.14,-0.24 0.06,-0.54 -0.18,-0.68 l -6,-3.5 0,0.86 6,-3.5 c 0.24,-0.14 0.32,-0.44 0.18,-0.68 -0.14,-0.24 -0.44,-0.32 -0.68,-0.18 z"
       inkscape:connector-curvature="0"
       id="path710"
       style="fill:#000000;fill-opacity:1;fill-rule:nonzero;stroke:none" /><path
       d="m 349.05,688.85 17.25,0 0,101.2 -17.25,0 0,-101.2 z"
       inkscape:connector-curvature="0"
       id="path712"
       style="fill:#ffffff;fill-opacity:1;fill-rule:evenodd;stroke:none" /><path
       d="m 349.05,688.85 17.25,0 0,101.2 -17.25,0 0,-101.2 z"
       inkscape:connector-curvature="0"
       id="path714"
       style="fill:none;stroke:#000000;stroke-width:0.75;stroke-linecap:round;stroke-linejoin:miter;stroke-miterlimit:10;stroke-opacity:1;stroke-dasharray:none" /><path
       d="m 232.5,512.05 17.25,0 0,311.45 -17.25,0 0,-311.45 z"
       inkscape:connector-curvature="0"
       id="path716"
       style="fill:#ffffff;fill-opacity:1;fill-rule:evenodd;stroke:none" /><path
       d="m 232.5,512.05 17.25,0 0,311.45 -17.25,0 0,-311.45 z"
       inkscape:connector-curvature="0"
       id="path718"
       style="fill:none;stroke:#000000;stroke-width:0.75;stroke-linecap:round;stroke-linejoin:miter;stroke-miterlimit:10;stroke-opacity:1;stroke-dasharray:none" /><path
       d="m 357.35,719.55 17.25,0 0,31.5 -17.25,0 0,-31.5 z"
       inkscape:connector-curvature="0"
       id="path720"
       style="fill:#ffffff;fill-opacity:1;fill-rule:evenodd;stroke:none" /><path
       d="m 357.35,719.55 17.25,0 0,31.5 -17.25,0 0,-31.5 z"
       inkscape:connector-curvature="0"
       id="path722"
       style="fill:none;stroke:#000000;stroke-width:0.75;stroke-linecap:round;stroke-linejoin:miter;stroke-miterlimit:10;stroke-opacity:1;stroke-dasharray:none" /><path
       d="m 589.5,692.7 17.25,0 0,82.2 -17.25,0 0,-82.2 z"
       inkscape:connector-curvature="0"
       id="path724"
       style="fill:#ffffff;fill-opacity:1;fill-rule:evenodd;stroke:none" /><path
       d="m 589.5,692.7 17.25,0 0,82.2 -17.25,0 0,-82.2 z"
       inkscape:connector-curvature="0"
       id="path726"
       style="fill:none;stroke:#000000;stroke-width:0.75;stroke-linecap:round;stroke-linejoin:miter;stroke-miterlimit:10;stroke-opacity:1;stroke-dasharray:none" /><path
       d="m 251.25,626 208.5,0 c 0.28,0 0.5,-0.22 0.5,-0.5 0,-0.28 -0.22,-0.5 -0.5,-0.5 l -208.5,0 c -0.28,0 -0.5,0.22 -0.5,0.5 0,0.28 0.22,0.5 0.5,0.5 z m 207.5,4.5 10,-5 -10,-5 0,10 z"
       inkscape:connector-curvature="0"
       id="path728"
       style="fill:#000000;fill-opacity:1;fill-rule:nonzero;stroke:none" /><g
       id="g730"><g
         clip-path="url(#clipPath734)"
         id="g732"><g
           id="g738"><g
             clip-path="url(#clipPath742)"
             id="g740"><text
   transform="matrix(1,0,0,-1,256.94,632.71)"
   id="text746"><tspan
     x="0"
     y="0"
     id="tspan748"
     style="font-size:12px;font-variant:normal;font-weight:normal;writing-mode:lr-tb;fill:#000000;fill-opacity:1;fill-rule:nonzero;stroke:none;font-family:Helvetica;-inkscape-font-specification:Helvetica">a</tspan></text>

</g></g><g
           id="g750"><g
             clip-path="url(#clipPath754)"
             id="g752"><text
   transform="matrix(1,0,0,-1,263.66,632.71)"
   id="text758"><tspan
     x="0 6 11.88 18.587999 25.296"
     y="0"
     id="tspan760"
     style="font-size:12px;font-variant:normal;font-weight:normal;writing-mode:lr-tb;fill:#000000;fill-opacity:1;fill-rule:nonzero;stroke:none;font-family:Helvetica;-inkscape-font-specification:Helvetica">kzept</tspan></text>

</g></g><g
           id="g762"><g
             clip-path="url(#clipPath766)"
             id="g764"><text
   transform="matrix(1,0,0,-1,292.37,632.71)"
   id="text770"><tspan
     x="0 2.664 9.3360004 13.332 20.004"
     y="0"
     id="tspan772"
     style="font-size:12px;font-variant:normal;font-weight:normal;writing-mode:lr-tb;fill:#000000;fill-opacity:1;fill-rule:nonzero;stroke:none;font-family:Helvetica;-inkscape-font-specification:Helvetica">ieren</tspan></text>

</g></g><g
           id="g774"><g
             clip-path="url(#clipPath778)"
             id="g776"><text
   transform="matrix(1,0,0,-1,319.13,632.71)"
   id="text782"><tspan
     x="0"
     y="0"
     id="tspan784"
     style="font-size:12px;font-variant:normal;font-weight:normal;writing-mode:lr-tb;fill:#000000;fill-opacity:1;fill-rule:nonzero;stroke:none;font-family:Helvetica;-inkscape-font-specification:Helvetica">(</tspan></text>

</g></g><g
           id="g786"><g
             clip-path="url(#clipPath790)"
             id="g788"><text
   transform="matrix(1,0,0,-1,323.09,632.71)"
   id="text794"><tspan
     x="0"
     y="0"
     id="tspan796"
     style="font-size:12px;font-variant:normal;font-weight:normal;writing-mode:lr-tb;fill:#000000;fill-opacity:1;fill-rule:nonzero;stroke:none;font-family:Helvetica;-inkscape-font-specification:Helvetica">k</tspan></text>

</g></g><g
           id="g798"><g
             clip-path="url(#clipPath802)"
             id="g800"><text
   transform="matrix(1,0,0,-1,329.09,632.71)"
   id="text806"><tspan
     x="0"
     y="0"
     id="tspan808"
     style="font-size:12px;font-variant:normal;font-weight:normal;writing-mode:lr-tb;fill:#000000;fill-opacity:1;fill-rule:nonzero;stroke:none;font-family:Helvetica;-inkscape-font-specification:Helvetica">b</tspan></text>

</g></g><g
           id="g810"><g
             clip-path="url(#clipPath814)"
             id="g812"><text
   transform="matrix(1,0,0,-1,335.81,632.71)"
   id="text818"><tspan
     x="0 7.9200001"
     y="0"
     id="tspan820"
     style="font-size:12px;font-variant:normal;font-weight:normal;writing-mode:lr-tb;fill:#000000;fill-opacity:1;fill-rule:nonzero;stroke:none;font-family:Helvetica;-inkscape-font-specification:Helvetica">X)</tspan></text>

</g></g><g
           id="g822"><g
             clip-path="url(#clipPath826)"
             id="g824" /></g></g></g><path
       d="m 482.25,612.35 99,0 c 0.28,0 0.5,-0.22 0.5,-0.5 0,-0.28 -0.22,-0.5 -0.5,-0.5 l -99,0 c -0.28,0 -0.5,0.22 -0.5,0.5 0,0.28 0.22,0.5 0.5,0.5 z m 98,4.5 10,-5 -10,-5 0,10 z"
       inkscape:connector-curvature="0"
       id="path830"
       style="fill:#000000;fill-opacity:1;fill-rule:nonzero;stroke:none" /><path
       d="m 590.25,526.05 17.25,0 0,85.8 -17.25,0 0,-85.8 z"
       inkscape:connector-curvature="0"
       id="path832"
       style="fill:#ffffff;fill-opacity:1;fill-rule:evenodd;stroke:none" /><path
       d="m 590.25,526.05 17.25,0 0,85.8 -17.25,0 0,-85.8 z"
       inkscape:connector-curvature="0"
       id="path834"
       style="fill:none;stroke:#000000;stroke-width:0.75;stroke-linecap:round;stroke-linejoin:miter;stroke-miterlimit:10;stroke-opacity:1;stroke-dasharray:none" /><g
       id="g836"><g
         clip-path="url(#clipPath840)"
         id="g838"><g
           id="g844"><g
             clip-path="url(#clipPath848)"
             id="g846"><text
   transform="matrix(1,0,0,-1,369.65,526.15)"
   id="text852"><tspan
     x="0 6.7080002 12.708 18.587999 25.296 32.004002 35.34 38.004002 44.712002 48.708 55.380001"
     y="0"
     id="tspan854"
     style="font-size:12px;font-variant:normal;font-weight:normal;writing-mode:lr-tb;fill:#000000;fill-opacity:1;fill-rule:nonzero;stroke:none;font-family:Helvetica;-inkscape-font-specification:Helvetica">akzeptieren</tspan></text>

</g></g><g
           id="g856"><g
             clip-path="url(#clipPath860)"
             id="g858"><text
   transform="matrix(1,0,0,-1,431.81,526.15)"
   id="text864"><tspan
     x="0 3.96"
     y="0"
     id="tspan866"
     style="font-size:12px;font-variant:normal;font-weight:normal;writing-mode:lr-tb;fill:#000000;fill-opacity:1;fill-rule:nonzero;stroke:none;font-family:Helvetica;-inkscape-font-specification:Helvetica">()</tspan></text>

</g></g><g
           id="g868"><g
             clip-path="url(#clipPath872)"
             id="g870" /></g></g></g><path
       d="m 468.75,520.1 17.25,0 0,105.4 -17.25,0 0,-105.4 z"
       inkscape:connector-curvature="0"
       id="path876"
       style="fill:#ffffff;fill-opacity:1;fill-rule:evenodd;stroke:none" /><path
       d="m 468.75,520.1 17.25,0 0,105.4 -17.25,0 0,-105.4 z"
       inkscape:connector-curvature="0"
       id="path878"
       style="fill:none;stroke:#000000;stroke-width:0.75;stroke-linecap:round;stroke-linejoin:miter;stroke-miterlimit:10;stroke-opacity:1;stroke-dasharray:none" /><path
       d="m 589.5,750.4 -205.9,0 c -0.28,0 -0.5,0.22 -0.5,0.5 0,0.28 0.22,0.5 0.5,0.5 l 205.9,0 c 0.28,0 0.5,-0.22 0.5,-0.5 0,-0.28 -0.22,-0.5 -0.5,-0.5 z m -204.9,-4.5 -10,5 10,5 0,-10 z"
       inkscape:connector-curvature="0"
       id="path880"
       style="fill:#000000;fill-opacity:1;fill-rule:nonzero;stroke:none" /><path
       d="m 374.45,720.4 3,0 c 0.28,0 0.5,-0.22 0.5,-0.5 0,-0.28 -0.22,-0.5 -0.5,-0.5 l -3,0 c -0.28,0 -0.5,0.22 -0.5,0.5 0,0.28 0.22,0.5 0.5,0.5 z m 7,0 3,0 c 0.28,0 0.5,-0.22 0.5,-0.5 0,-0.28 -0.22,-0.5 -0.5,-0.5 l -3,0 c -0.28,0 -0.5,0.22 -0.5,0.5 0,0.28 0.22,0.5 0.5,0.5 z m 7,0 3,0 c 0.28,0 0.5,-0.22 0.5,-0.5 0,-0.28 -0.22,-0.5 -0.5,-0.5 l -3,0 c -0.28,0 -0.5,0.22 -0.5,0.5 0,0.28 0.22,0.5 0.5,0.5 z m 7,0 3,0 c 0.28,0 0.5,-0.22 0.5,-0.5 0,-0.28 -0.22,-0.5 -0.5,-0.5 l -3,0 c -0.28,0 -0.5,0.22 -0.5,0.5 0,0.28 0.22,0.5 0.5,0.5 z m 7,0 3,0 c 0.28,0 0.5,-0.22 0.5,-0.5 0,-0.28 -0.22,-0.5 -0.5,-0.5 l -3,0 c -0.28,0 -0.5,0.22 -0.5,0.5 0,0.28 0.22,0.5 0.5,0.5 z m 7,0 3,0 c 0.28,0 0.5,-0.22 0.5,-0.5 0,-0.28 -0.22,-0.5 -0.5,-0.5 l -3,0 c -0.28,0 -0.5,0.22 -0.5,0.5 0,0.28 0.22,0.5 0.5,0.5 z m 7,0 3,0 c 0.28,0 0.5,-0.22 0.5,-0.5 0,-0.28 -0.22,-0.5 -0.5,-0.5 l -3,0 c -0.28,0 -0.5,0.22 -0.5,0.5 0,0.28 0.22,0.5 0.5,0.5 z m 7,0 3,0 c 0.28,0 0.5,-0.22 0.5,-0.5 0,-0.28 -0.22,-0.5 -0.5,-0.5 l -3,0 c -0.28,0 -0.5,0.22 -0.5,0.5 0,0.28 0.22,0.5 0.5,0.5 z m 7,0 3,0 c 0.28,0 0.5,-0.22 0.5,-0.5 0,-0.28 -0.22,-0.5 -0.5,-0.5 l -3,0 c -0.28,0 -0.5,0.22 -0.5,0.5 0,0.28 0.22,0.5 0.5,0.5 z m 7,0 3,0 c 0.28,0 0.5,-0.22 0.5,-0.5 0,-0.28 -0.22,-0.5 -0.5,-0.5 l -3,0 c -0.28,0 -0.5,0.22 -0.5,0.5 0,0.28 0.22,0.5 0.5,0.5 z m 7,0 3,0 c 0.28,0 0.5,-0.22 0.5,-0.5 0,-0.28 -0.22,-0.5 -0.5,-0.5 l -3,0 c -0.28,0 -0.5,0.22 -0.5,0.5 0,0.28 0.22,0.5 0.5,0.5 z m 7,0 3,0 c 0.28,0 0.5,-0.22 0.5,-0.5 0,-0.28 -0.22,-0.5 -0.5,-0.5 l -3,0 c -0.28,0 -0.5,0.22 -0.5,0.5 0,0.28 0.22,0.5 0.5,0.5 z m 7,0 3,0 c 0.28,0 0.5,-0.22 0.5,-0.5 0,-0.28 -0.22,-0.5 -0.5,-0.5 l -3,0 c -0.28,0 -0.5,0.22 -0.5,0.5 0,0.28 0.22,0.5 0.5,0.5 z m 7,0 3,0 c 0.28,0 0.5,-0.22 0.5,-0.5 0,-0.28 -0.22,-0.5 -0.5,-0.5 l -3,0 c -0.28,0 -0.5,0.22 -0.5,0.5 0,0.28 0.22,0.5 0.5,0.5 z m 7,0 3,0 c 0.28,0 0.5,-0.22 0.5,-0.5 0,-0.28 -0.22,-0.5 -0.5,-0.5 l -3,0 c -0.28,0 -0.5,0.22 -0.5,0.5 0,0.28 0.22,0.5 0.5,0.5 z m 7,0 3,0 c 0.28,0 0.5,-0.22 0.5,-0.5 0,-0.28 -0.22,-0.5 -0.5,-0.5 l -3,0 c -0.28,0 -0.5,0.22 -0.5,0.5 0,0.28 0.22,0.5 0.5,0.5 z m 7,0 3,0 c 0.28,0 0.5,-0.22 0.5,-0.5 0,-0.28 -0.22,-0.5 -0.5,-0.5 l -3,0 c -0.28,0 -0.5,0.22 -0.5,0.5 0,0.28 0.22,0.5 0.5,0.5 z m 7,0 3,0 c 0.28,0 0.5,-0.22 0.5,-0.5 0,-0.28 -0.22,-0.5 -0.5,-0.5 l -3,0 c -0.28,0 -0.5,0.22 -0.5,0.5 0,0.28 0.22,0.5 0.5,0.5 z m 7,0 3,0 c 0.28,0 0.5,-0.22 0.5,-0.5 0,-0.28 -0.22,-0.5 -0.5,-0.5 l -3,0 c -0.28,0 -0.5,0.22 -0.5,0.5 0,0.28 0.22,0.5 0.5,0.5 z m 7,0 3,0 c 0.28,0 0.5,-0.22 0.5,-0.5 0,-0.28 -0.22,-0.5 -0.5,-0.5 l -3,0 c -0.28,0 -0.5,0.22 -0.5,0.5 0,0.28 0.22,0.5 0.5,0.5 z m 7,0 3,0 c 0.28,0 0.5,-0.22 0.5,-0.5 0,-0.28 -0.22,-0.5 -0.5,-0.5 l -3,0 c -0.28,0 -0.5,0.22 -0.5,0.5 0,0.28 0.22,0.5 0.5,0.5 z m 7,0 3,0 c 0.28,0 0.5,-0.22 0.5,-0.5 0,-0.28 -0.22,-0.5 -0.5,-0.5 l -3,0 c -0.28,0 -0.5,0.22 -0.5,0.5 0,0.28 0.22,0.5 0.5,0.5 z m 7,0 3,0 c 0.28,0 0.5,-0.22 0.5,-0.5 0,-0.28 -0.22,-0.5 -0.5,-0.5 l -3,0 c -0.28,0 -0.5,0.22 -0.5,0.5 0,0.28 0.22,0.5 0.5,0.5 z m 7,0 3,0 c 0.28,0 0.5,-0.22 0.5,-0.5 0,-0.28 -0.22,-0.5 -0.5,-0.5 l -3,0 c -0.28,0 -0.5,0.22 -0.5,0.5 0,0.28 0.22,0.5 0.5,0.5 z m 7,0 3,0 c 0.28,0 0.5,-0.22 0.5,-0.5 0,-0.28 -0.22,-0.5 -0.5,-0.5 l -3,0 c -0.28,0 -0.5,0.22 -0.5,0.5 0,0.28 0.22,0.5 0.5,0.5 z m 7,0 3,0 c 0.28,0 0.5,-0.22 0.5,-0.5 0,-0.28 -0.22,-0.5 -0.5,-0.5 l -3,0 c -0.28,0 -0.5,0.22 -0.5,0.5 0,0.28 0.22,0.5 0.5,0.5 z m 7,0 3,0 c 0.28,0 0.5,-0.22 0.5,-0.5 0,-0.28 -0.22,-0.5 -0.5,-0.5 l -3,0 c -0.28,0 -0.5,0.22 -0.5,0.5 0,0.28 0.22,0.5 0.5,0.5 z m 7,0 3,0 c 0.28,0 0.5,-0.22 0.5,-0.5 0,-0.28 -0.22,-0.5 -0.5,-0.5 l -3,0 c -0.28,0 -0.5,0.22 -0.5,0.5 0,0.28 0.22,0.5 0.5,0.5 z m 7,0 3,0 c 0.28,0 0.5,-0.22 0.5,-0.5 0,-0.28 -0.22,-0.5 -0.5,-0.5 l -3,0 c -0.28,0 -0.5,0.22 -0.5,0.5 0,0.28 0.22,0.5 0.5,0.5 z m 7,0 3,0 c 0.28,0 0.5,-0.22 0.5,-0.5 0,-0.28 -0.22,-0.5 -0.5,-0.5 l -3,0 c -0.28,0 -0.5,0.22 -0.5,0.5 0,0.28 0.22,0.5 0.5,0.5 z m 7,0 3,0 c 0.28,0 0.5,-0.22 0.5,-0.5 0,-0.28 -0.22,-0.5 -0.5,-0.5 l -3,0 c -0.28,0 -0.5,0.22 -0.5,0.5 0,0.28 0.22,0.5 0.5,0.5 z m -2.7,3.43 6.74,-3.93 -6.74,-3.93 c -0.24,-0.14 -0.54,-0.06 -0.68,0.18 -0.14,0.24 -0.06,0.54 0.18,0.68 l 6,3.5 0,-0.86 -6,3.5 c -0.24,0.14 -0.32,0.44 -0.18,0.68 0.14,0.24 0.44,0.32 0.68,0.18 z"
       inkscape:connector-curvature="0"
       id="path882"
       style="fill:#000000;fill-opacity:1;fill-rule:nonzero;stroke:none" /><g
       id="g884"><g
         clip-path="url(#clipPath888)"
         id="g886"><g
           id="g892"><g
             clip-path="url(#clipPath896)"
             id="g894"><text
   transform="matrix(1,0,0,-1,390.05,725.62)"
   id="text900"><tspan
     x="0 6.5999999 13.308 16.643999 25.308001 32.015999 35.352001 42.084 48.792 56.82 60.816002"
     y="0"
     id="tspan902"
     style="font-size:12px;font-variant:normal;font-weight:normal;writing-mode:lr-tb;fill:#000000;fill-opacity:1;fill-rule:nonzero;stroke:none;font-family:Helvetica;-inkscape-font-specification:Helvetica">getDatenA()</tspan></text>

</g></g><g
           id="g904"><g
             clip-path="url(#clipPath908)"
             id="g906" /></g></g></g><g
       id="g912"><g
         clip-path="url(#clipPath916)"
         id="g914"><g
           id="g920"><g
             clip-path="url(#clipPath924)"
             id="g922"><text
   transform="matrix(1,0,0,-1,498.67,697.3)"
   id="text928"><tspan
     x="0 6.7080002 13.416 19.416 26.124001 32.004002 38.712002 45.419998 52.127998 56.124001"
     y="0"
     id="tspan930"
     style="font-size:12px;font-variant:normal;font-weight:normal;writing-mode:lr-tb;fill:#000000;fill-opacity:1;fill-rule:nonzero;stroke:none;font-family:Helvetica;-inkscape-font-specification:Helvetica">besuchen()</tspan></text>

</g></g><g
           id="g932"><g
             clip-path="url(#clipPath936)"
             id="g934" /></g></g></g><g
       id="g940"><g
         clip-path="url(#clipPath944)"
         id="g942"><g
           id="g948"><g
             clip-path="url(#clipPath952)"
             id="g950"><text
   transform="matrix(1,0,0,-1,265.94,695.74)"
   id="text956"><tspan
     x="0 6.7080002 12.708 18.587999 25.296 32.004002 35.34 38.004002 44.712002 48.708 55.380001 62.099998 66.096001"
     y="0"
     id="tspan958"
     style="font-size:12px;font-variant:normal;font-weight:normal;writing-mode:lr-tb;fill:#000000;fill-opacity:1;fill-rule:nonzero;stroke:none;font-family:Helvetica;-inkscape-font-specification:Helvetica">akzeptieren()</tspan></text>

</g></g><g
           id="g960"><g
             clip-path="url(#clipPath964)"
             id="g962" /></g></g></g><path
       d="m 348.75,688.9 -3,0 c -0.28,0 -0.5,0.22 -0.5,0.5 0,0.28 0.22,0.5 0.5,0.5 l 3,0 c 0.28,0 0.5,-0.22 0.5,-0.5 0,-0.28 -0.22,-0.5 -0.5,-0.5 z m -7,0 -3,0 c -0.28,0 -0.5,0.22 -0.5,0.5 0,0.28 0.22,0.5 0.5,0.5 l 3,0 c 0.28,0 0.5,-0.22 0.5,-0.5 0,-0.28 -0.22,-0.5 -0.5,-0.5 z m -7,0 -3,0 c -0.28,0 -0.5,0.22 -0.5,0.5 0,0.28 0.22,0.5 0.5,0.5 l 3,0 c 0.28,0 0.5,-0.22 0.5,-0.5 0,-0.28 -0.22,-0.5 -0.5,-0.5 z m -7,0 -3,0 c -0.28,0 -0.5,0.22 -0.5,0.5 0,0.28 0.22,0.5 0.5,0.5 l 3,0 c 0.28,0 0.5,-0.22 0.5,-0.5 0,-0.28 -0.22,-0.5 -0.5,-0.5 z m -7,0 -3,0 c -0.28,0 -0.5,0.22 -0.5,0.5 0,0.28 0.22,0.5 0.5,0.5 l 3,0 c 0.28,0 0.5,-0.22 0.5,-0.5 0,-0.28 -0.22,-0.5 -0.5,-0.5 z m -7,0 -3,0 c -0.28,0 -0.5,0.22 -0.5,0.5 0,0.28 0.22,0.5 0.5,0.5 l 3,0 c 0.28,0 0.5,-0.22 0.5,-0.5 0,-0.28 -0.22,-0.5 -0.5,-0.5 z m -7,0 -3,0 c -0.28,0 -0.5,0.22 -0.5,0.5 0,0.28 0.22,0.5 0.5,0.5 l 3,0 c 0.28,0 0.5,-0.22 0.5,-0.5 0,-0.28 -0.22,-0.5 -0.5,-0.5 z m -7,0 -3,0 c -0.28,0 -0.5,0.22 -0.5,0.5 0,0.28 0.22,0.5 0.5,0.5 l 3,0 c 0.28,0 0.5,-0.22 0.5,-0.5 0,-0.28 -0.22,-0.5 -0.5,-0.5 z m -7,0 -3,0 c -0.28,0 -0.5,0.22 -0.5,0.5 0,0.28 0.22,0.5 0.5,0.5 l 3,0 c 0.28,0 0.5,-0.22 0.5,-0.5 0,-0.28 -0.22,-0.5 -0.5,-0.5 z m -7,0 -3,0 c -0.28,0 -0.5,0.22 -0.5,0.5 0,0.28 0.22,0.5 0.5,0.5 l 3,0 c 0.28,0 0.5,-0.22 0.5,-0.5 0,-0.28 -0.22,-0.5 -0.5,-0.5 z m -7,0 -3,0 c -0.28,0 -0.5,0.22 -0.5,0.5 0,0.28 0.22,0.5 0.5,0.5 l 3,0 c 0.28,0 0.5,-0.22 0.5,-0.5 0,-0.28 -0.22,-0.5 -0.5,-0.5 z m -7,0 -3,0 c -0.28,0 -0.5,0.22 -0.5,0.5 0,0.28 0.22,0.5 0.5,0.5 l 3,0 c 0.28,0 0.5,-0.22 0.5,-0.5 0,-0.28 -0.22,-0.5 -0.5,-0.5 z m -7,0 -3,0 c -0.28,0 -0.5,0.22 -0.5,0.5 0,0.28 0.22,0.5 0.5,0.5 l 3,0 c 0.28,0 0.5,-0.22 0.5,-0.5 0,-0.28 -0.22,-0.5 -0.5,-0.5 z m -7,0 -3,0 c -0.28,0 -0.5,0.22 -0.5,0.5 0,0.28 0.22,0.5 0.5,0.5 l 3,0 c 0.28,0 0.5,-0.22 0.5,-0.5 0,-0.28 -0.22,-0.5 -0.5,-0.5 z m -0.25,-3.43 -6.74,3.93 6.74,3.93 c 0.24,0.14 0.54,0.06 0.68,-0.18 0.14,-0.24 0.06,-0.54 -0.18,-0.68 l -6,-3.5 0,0.86 6,-3.5 c 0.24,-0.14 0.32,-0.44 0.18,-0.68 -0.14,-0.24 -0.44,-0.32 -0.68,-0.18 z"
       inkscape:connector-curvature="0"
       id="path968"
       style="fill:#000000;fill-opacity:1;fill-rule:nonzero;stroke:none" /><path
       d="m 476.45,551.75 17.25,0 0,34.95 -17.25,0 0,-34.95 z"
       inkscape:connector-curvature="0"
       id="path970"
       style="fill:#ffffff;fill-opacity:1;fill-rule:evenodd;stroke:none" /><path
       d="m 476.45,551.75 17.25,0 0,34.95 -17.25,0 0,-34.95 z"
       inkscape:connector-curvature="0"
       id="path972"
       style="fill:none;stroke:#000000;stroke-width:0.75;stroke-linecap:round;stroke-linejoin:miter;stroke-miterlimit:10;stroke-opacity:1;stroke-dasharray:none" /><path
       d="m 501.8,587.2 88.45,0 c 0.28,0 0.5,-0.22 0.5,-0.5 0,-0.28 -0.22,-0.5 -0.5,-0.5 l -88.45,0 c -0.28,0 -0.5,0.22 -0.5,0.5 0,0.28 0.22,0.5 0.5,0.5 z m 1,-5.5 -10,5 10,5 0,-10 z"
       inkscape:connector-curvature="0"
       id="path974"
       style="fill:#000000;fill-opacity:1;fill-rule:nonzero;stroke:none" /><g
       id="g976"><g
         clip-path="url(#clipPath980)"
         id="g978"><g
           id="g984"><g
             clip-path="url(#clipPath988)"
             id="g986"><text
   transform="matrix(1,0,0,-1,496.27,618.19)"
   id="text992"><tspan
     x="0 6.7080002 13.416 19.416 26.124001 32.004002 38.712002 45.419998 52.127998 56.124001 62.124001 68.688004 76.716003"
     y="0"
     id="tspan994"
     style="font-size:12px;font-variant:normal;font-weight:normal;writing-mode:lr-tb;fill:#000000;fill-opacity:1;fill-rule:nonzero;stroke:none;font-family:Helvetica;-inkscape-font-specification:Helvetica">besuchen(keB)</tspan></text>

</g></g><g
           id="g996"><g
             clip-path="url(#clipPath1000)"
             id="g998" /></g></g></g><g
       id="g1004"><g
         clip-path="url(#clipPath1008)"
         id="g1006"><g
           id="g1012"><g
             clip-path="url(#clipPath1016)"
             id="g1014"><text
   transform="matrix(1,0,0,-1,509.47,592.03)"
   id="text1020"><tspan
     x="0 6.5999999 13.308 16.643999 25.308001 32.015999 35.352001 42.084 48.792 56.82 60.816002"
     y="0"
     id="tspan1022"
     style="font-size:12px;font-variant:normal;font-weight:normal;writing-mode:lr-tb;fill:#000000;fill-opacity:1;fill-rule:nonzero;stroke:none;font-family:Helvetica;-inkscape-font-specification:Helvetica">getDatenB()</tspan></text>

</g></g><g
           id="g1024"><g
             clip-path="url(#clipPath1028)"
             id="g1026" /></g></g></g><path
       d="m 493.7,552.8 3,0 c 0.28,0 0.5,-0.22 0.5,-0.5 0,-0.28 -0.22,-0.5 -0.5,-0.5 l -3,0 c -0.28,0 -0.5,0.22 -0.5,0.5 0,0.28 0.22,0.5 0.5,0.5 z m 7,0 3,0 c 0.28,0 0.5,-0.22 0.5,-0.5 0,-0.28 -0.22,-0.5 -0.5,-0.5 l -3,0 c -0.28,0 -0.5,0.22 -0.5,0.5 0,0.28 0.22,0.5 0.5,0.5 z m 7,0 3,0 c 0.28,0 0.5,-0.22 0.5,-0.5 0,-0.28 -0.22,-0.5 -0.5,-0.5 l -3,0 c -0.28,0 -0.5,0.22 -0.5,0.5 0,0.28 0.22,0.5 0.5,0.5 z m 7,0 3,0 c 0.28,0 0.5,-0.22 0.5,-0.5 0,-0.28 -0.22,-0.5 -0.5,-0.5 l -3,0 c -0.28,0 -0.5,0.22 -0.5,0.5 0,0.28 0.22,0.5 0.5,0.5 z m 7,0 3,0 c 0.28,0 0.5,-0.22 0.5,-0.5 0,-0.28 -0.22,-0.5 -0.5,-0.5 l -3,0 c -0.28,0 -0.5,0.22 -0.5,0.5 0,0.28 0.22,0.5 0.5,0.5 z m 7,0 3,0 c 0.28,0 0.5,-0.22 0.5,-0.5 0,-0.28 -0.22,-0.5 -0.5,-0.5 l -3,0 c -0.28,0 -0.5,0.22 -0.5,0.5 0,0.28 0.22,0.5 0.5,0.5 z m 7,0 3,0 c 0.28,0 0.5,-0.22 0.5,-0.5 0,-0.28 -0.22,-0.5 -0.5,-0.5 l -3,0 c -0.28,0 -0.5,0.22 -0.5,0.5 0,0.28 0.22,0.5 0.5,0.5 z m 7,0 3,0 c 0.28,0 0.5,-0.22 0.5,-0.5 0,-0.28 -0.22,-0.5 -0.5,-0.5 l -3,0 c -0.28,0 -0.5,0.22 -0.5,0.5 0,0.28 0.22,0.5 0.5,0.5 z m 7,0 3,0 c 0.28,0 0.5,-0.22 0.5,-0.5 0,-0.28 -0.22,-0.5 -0.5,-0.5 l -3,0 c -0.28,0 -0.5,0.22 -0.5,0.5 0,0.28 0.22,0.5 0.5,0.5 z m 7,0 3,0 c 0.28,0 0.5,-0.22 0.5,-0.5 0,-0.28 -0.22,-0.5 -0.5,-0.5 l -3,0 c -0.28,0 -0.5,0.22 -0.5,0.5 0,0.28 0.22,0.5 0.5,0.5 z m 7,0 3,0 c 0.28,0 0.5,-0.22 0.5,-0.5 0,-0.28 -0.22,-0.5 -0.5,-0.5 l -3,0 c -0.28,0 -0.5,0.22 -0.5,0.5 0,0.28 0.22,0.5 0.5,0.5 z m 7,0 3,0 c 0.28,0 0.5,-0.22 0.5,-0.5 0,-0.28 -0.22,-0.5 -0.5,-0.5 l -3,0 c -0.28,0 -0.5,0.22 -0.5,0.5 0,0.28 0.22,0.5 0.5,0.5 z m 7,0 3,0 c 0.28,0 0.5,-0.22 0.5,-0.5 0,-0.28 -0.22,-0.5 -0.5,-0.5 l -3,0 c -0.28,0 -0.5,0.22 -0.5,0.5 0,0.28 0.22,0.5 0.5,0.5 z m 7,0 3,0 c 0.28,0 0.5,-0.22 0.5,-0.5 0,-0.28 -0.22,-0.5 -0.5,-0.5 l -3,0 c -0.28,0 -0.5,0.22 -0.5,0.5 0,0.28 0.22,0.5 0.5,0.5 z m -2.2,3.43 6.74,-3.93 -6.74,-3.93 c -0.24,-0.14 -0.54,-0.06 -0.68,0.18 -0.14,0.24 -0.06,0.54 0.18,0.68 l 6,3.5 0,-0.86 -6,3.5 c -0.24,0.14 -0.32,0.44 -0.18,0.68 0.14,0.24 0.44,0.32 0.68,0.18 z"
       inkscape:connector-curvature="0"
       id="path1032"
       style="fill:#000000;fill-opacity:1;fill-rule:nonzero;stroke:none" /><path
       d="m 588.8,525.95 -3,0 c -0.28,0 -0.5,0.22 -0.5,0.5 0,0.28 0.22,0.5 0.5,0.5 l 3,0 c 0.28,0 0.5,-0.22 0.5,-0.5 0,-0.28 -0.22,-0.5 -0.5,-0.5 z m -7,0 -3,0 c -0.28,0 -0.5,0.22 -0.5,0.5 0,0.28 0.22,0.5 0.5,0.5 l 3,0 c 0.28,0 0.5,-0.22 0.5,-0.5 0,-0.28 -0.22,-0.5 -0.5,-0.5 z m -7,0 -3,0 c -0.28,0 -0.5,0.22 -0.5,0.5 0,0.28 0.22,0.5 0.5,0.5 l 3,0 c 0.28,0 0.5,-0.22 0.5,-0.5 0,-0.28 -0.22,-0.5 -0.5,-0.5 z m -7,0 -3,0 c -0.28,0 -0.5,0.22 -0.5,0.5 0,0.28 0.22,0.5 0.5,0.5 l 3,0 c 0.28,0 0.5,-0.22 0.5,-0.5 0,-0.28 -0.22,-0.5 -0.5,-0.5 z m -7,0 -3,0 c -0.28,0 -0.5,0.22 -0.5,0.5 0,0.28 0.22,0.5 0.5,0.5 l 3,0 c 0.28,0 0.5,-0.22 0.5,-0.5 0,-0.28 -0.22,-0.5 -0.5,-0.5 z m -7,0 -3,0 c -0.28,0 -0.5,0.22 -0.5,0.5 0,0.28 0.22,0.5 0.5,0.5 l 3,0 c 0.28,0 0.5,-0.22 0.5,-0.5 0,-0.28 -0.22,-0.5 -0.5,-0.5 z m -7,0 -3,0 c -0.28,0 -0.5,0.22 -0.5,0.5 0,0.28 0.22,0.5 0.5,0.5 l 3,0 c 0.28,0 0.5,-0.22 0.5,-0.5 0,-0.28 -0.22,-0.5 -0.5,-0.5 z m -7,0 -3,0 c -0.28,0 -0.5,0.22 -0.5,0.5 0,0.28 0.22,0.5 0.5,0.5 l 3,0 c 0.28,0 0.5,-0.22 0.5,-0.5 0,-0.28 -0.22,-0.5 -0.5,-0.5 z m -7,0 -3,0 c -0.28,0 -0.5,0.22 -0.5,0.5 0,0.28 0.22,0.5 0.5,0.5 l 3,0 c 0.28,0 0.5,-0.22 0.5,-0.5 0,-0.28 -0.22,-0.5 -0.5,-0.5 z m -7,0 -3,0 c -0.28,0 -0.5,0.22 -0.5,0.5 0,0.28 0.22,0.5 0.5,0.5 l 3,0 c 0.28,0 0.5,-0.22 0.5,-0.5 0,-0.28 -0.22,-0.5 -0.5,-0.5 z m -7,0 -3,0 c -0.28,0 -0.5,0.22 -0.5,0.5 0,0.28 0.22,0.5 0.5,0.5 l 3,0 c 0.28,0 0.5,-0.22 0.5,-0.5 0,-0.28 -0.22,-0.5 -0.5,-0.5 z m -7,0 -3,0 c -0.28,0 -0.5,0.22 -0.5,0.5 0,0.28 0.22,0.5 0.5,0.5 l 3,0 c 0.28,0 0.5,-0.22 0.5,-0.5 0,-0.28 -0.22,-0.5 -0.5,-0.5 z m -7,0 -3,0 c -0.28,0 -0.5,0.22 -0.5,0.5 0,0.28 0.22,0.5 0.5,0.5 l 3,0 c 0.28,0 0.5,-0.22 0.5,-0.5 0,-0.28 -0.22,-0.5 -0.5,-0.5 z m -7,0 -3,0 c -0.28,0 -0.5,0.22 -0.5,0.5 0,0.28 0.22,0.5 0.5,0.5 l 3,0 c 0.28,0 0.5,-0.22 0.5,-0.5 0,-0.28 -0.22,-0.5 -0.5,-0.5 z m -7,0 -2.8,0 c -0.28,0 -0.5,0.22 -0.5,0.5 0,0.28 0.22,0.5 0.5,0.5 l 2.8,0 c 0.28,0 0.5,-0.22 0.5,-0.5 0,-0.28 -0.22,-0.5 -0.5,-0.5 z m 2.95,-3.43 -6.74,3.93 6.74,3.93 c 0.24,0.14 0.54,0.06 0.68,-0.18 0.14,-0.24 0.06,-0.54 -0.18,-0.68 l -6,-3.5 0,0.86 6,-3.5 c 0.24,-0.14 0.32,-0.44 0.18,-0.68 -0.14,-0.24 -0.44,-0.32 -0.68,-0.18 z"
       inkscape:connector-curvature="0"
       id="path1034"
       style="fill:#000000;fill-opacity:1;fill-rule:nonzero;stroke:none" /><path
       d="m 468.75,519.75 -3,0 c -0.28,0 -0.5,0.22 -0.5,0.5 0,0.28 0.22,0.5 0.5,0.5 l 3,0 c 0.28,0 0.5,-0.22 0.5,-0.5 0,-0.28 -0.22,-0.5 -0.5,-0.5 z m -7,0 -3,0 c -0.28,0 -0.5,0.22 -0.5,0.5 0,0.28 0.22,0.5 0.5,0.5 l 3,0 c 0.28,0 0.5,-0.22 0.5,-0.5 0,-0.28 -0.22,-0.5 -0.5,-0.5 z m -7,0 -3,0 c -0.28,0 -0.5,0.22 -0.5,0.5 0,0.28 0.22,0.5 0.5,0.5 l 3,0 c 0.28,0 0.5,-0.22 0.5,-0.5 0,-0.28 -0.22,-0.5 -0.5,-0.5 z m -7,0 -3,0 c -0.28,0 -0.5,0.22 -0.5,0.5 0,0.28 0.22,0.5 0.5,0.5 l 3,0 c 0.28,0 0.5,-0.22 0.5,-0.5 0,-0.28 -0.22,-0.5 -0.5,-0.5 z m -7,0 -3,0 c -0.28,0 -0.5,0.22 -0.5,0.5 0,0.28 0.22,0.5 0.5,0.5 l 3,0 c 0.28,0 0.5,-0.22 0.5,-0.5 0,-0.28 -0.22,-0.5 -0.5,-0.5 z m -7,0 -3,0 c -0.28,0 -0.5,0.22 -0.5,0.5 0,0.28 0.22,0.5 0.5,0.5 l 3,0 c 0.28,0 0.5,-0.22 0.5,-0.5 0,-0.28 -0.22,-0.5 -0.5,-0.5 z m -7,0 -3,0 c -0.28,0 -0.5,0.22 -0.5,0.5 0,0.28 0.22,0.5 0.5,0.5 l 3,0 c 0.28,0 0.5,-0.22 0.5,-0.5 0,-0.28 -0.22,-0.5 -0.5,-0.5 z m -7,0 -3,0 c -0.28,0 -0.5,0.22 -0.5,0.5 0,0.28 0.22,0.5 0.5,0.5 l 3,0 c 0.28,0 0.5,-0.22 0.5,-0.5 0,-0.28 -0.22,-0.5 -0.5,-0.5 z m -7,0 -3,0 c -0.28,0 -0.5,0.22 -0.5,0.5 0,0.28 0.22,0.5 0.5,0.5 l 3,0 c 0.28,0 0.5,-0.22 0.5,-0.5 0,-0.28 -0.22,-0.5 -0.5,-0.5 z m -7,0 -3,0 c -0.28,0 -0.5,0.22 -0.5,0.5 0,0.28 0.22,0.5 0.5,0.5 l 3,0 c 0.28,0 0.5,-0.22 0.5,-0.5 0,-0.28 -0.22,-0.5 -0.5,-0.5 z m -7,0 -3,0 c -0.28,0 -0.5,0.22 -0.5,0.5 0,0.28 0.22,0.5 0.5,0.5 l 3,0 c 0.28,0 0.5,-0.22 0.5,-0.5 0,-0.28 -0.22,-0.5 -0.5,-0.5 z m -7,0 -3,0 c -0.28,0 -0.5,0.22 -0.5,0.5 0,0.28 0.22,0.5 0.5,0.5 l 3,0 c 0.28,0 0.5,-0.22 0.5,-0.5 0,-0.28 -0.22,-0.5 -0.5,-0.5 z m -7,0 -3,0 c -0.28,0 -0.5,0.22 -0.5,0.5 0,0.28 0.22,0.5 0.5,0.5 l 3,0 c 0.28,0 0.5,-0.22 0.5,-0.5 0,-0.28 -0.22,-0.5 -0.5,-0.5 z m -7,0 -3,0 c -0.28,0 -0.5,0.22 -0.5,0.5 0,0.28 0.22,0.5 0.5,0.5 l 3,0 c 0.28,0 0.5,-0.22 0.5,-0.5 0,-0.28 -0.22,-0.5 -0.5,-0.5 z m -7,0 -3,0 c -0.28,0 -0.5,0.22 -0.5,0.5 0,0.28 0.22,0.5 0.5,0.5 l 3,0 c 0.28,0 0.5,-0.22 0.5,-0.5 0,-0.28 -0.22,-0.5 -0.5,-0.5 z m -7,0 -3,0 c -0.28,0 -0.5,0.22 -0.5,0.5 0,0.28 0.22,0.5 0.5,0.5 l 3,0 c 0.28,0 0.5,-0.22 0.5,-0.5 0,-0.28 -0.22,-0.5 -0.5,-0.5 z m -7,0 -3,0 c -0.28,0 -0.5,0.22 -0.5,0.5 0,0.28 0.22,0.5 0.5,0.5 l 3,0 c 0.28,0 0.5,-0.22 0.5,-0.5 0,-0.28 -0.22,-0.5 -0.5,-0.5 z m -7,0 -3,0 c -0.28,0 -0.5,0.22 -0.5,0.5 0,0.28 0.22,0.5 0.5,0.5 l 3,0 c 0.28,0 0.5,-0.22 0.5,-0.5 0,-0.28 -0.22,-0.5 -0.5,-0.5 z m -7,0 -3,0 c -0.28,0 -0.5,0.22 -0.5,0.5 0,0.28 0.22,0.5 0.5,0.5 l 3,0 c 0.28,0 0.5,-0.22 0.5,-0.5 0,-0.28 -0.22,-0.5 -0.5,-0.5 z m -7,0 -3,0 c -0.28,0 -0.5,0.22 -0.5,0.5 0,0.28 0.22,0.5 0.5,0.5 l 3,0 c 0.28,0 0.5,-0.22 0.5,-0.5 0,-0.28 -0.22,-0.5 -0.5,-0.5 z m -7,0 -3,0 c -0.28,0 -0.5,0.22 -0.5,0.5 0,0.28 0.22,0.5 0.5,0.5 l 3,0 c 0.28,0 0.5,-0.22 0.5,-0.5 0,-0.28 -0.22,-0.5 -0.5,-0.5 z m -7,0 -3,0 c -0.28,0 -0.5,0.22 -0.5,0.5 0,0.28 0.22,0.5 0.5,0.5 l 3,0 c 0.28,0 0.5,-0.22 0.5,-0.5 0,-0.28 -0.22,-0.5 -0.5,-0.5 z m -7,0 -3,0 c -0.28,0 -0.5,0.22 -0.5,0.5 0,0.28 0.22,0.5 0.5,0.5 l 3,0 c 0.28,0 0.5,-0.22 0.5,-0.5 0,-0.28 -0.22,-0.5 -0.5,-0.5 z m -7,0 -3,0 c -0.28,0 -0.5,0.22 -0.5,0.5 0,0.28 0.22,0.5 0.5,0.5 l 3,0 c 0.28,0 0.5,-0.22 0.5,-0.5 0,-0.28 -0.22,-0.5 -0.5,-0.5 z m -7,0 -3,0 c -0.28,0 -0.5,0.22 -0.5,0.5 0,0.28 0.22,0.5 0.5,0.5 l 3,0 c 0.28,0 0.5,-0.22 0.5,-0.5 0,-0.28 -0.22,-0.5 -0.5,-0.5 z m -7,0 -3,0 c -0.28,0 -0.5,0.22 -0.5,0.5 0,0.28 0.22,0.5 0.5,0.5 l 3,0 c 0.28,0 0.5,-0.22 0.5,-0.5 0,-0.28 -0.22,-0.5 -0.5,-0.5 z m -7,0 -3,0 c -0.28,0 -0.5,0.22 -0.5,0.5 0,0.28 0.22,0.5 0.5,0.5 l 3,0 c 0.28,0 0.5,-0.22 0.5,-0.5 0,-0.28 -0.22,-0.5 -0.5,-0.5 z m -7,0 -3,0 c -0.28,0 -0.5,0.22 -0.5,0.5 0,0.28 0.22,0.5 0.5,0.5 l 3,0 c 0.28,0 0.5,-0.22 0.5,-0.5 0,-0.28 -0.22,-0.5 -0.5,-0.5 z m -7,0 -3,0 c -0.28,0 -0.5,0.22 -0.5,0.5 0,0.28 0.22,0.5 0.5,0.5 l 3,0 c 0.28,0 0.5,-0.22 0.5,-0.5 0,-0.28 -0.22,-0.5 -0.5,-0.5 z m -7,0 -3,0 c -0.28,0 -0.5,0.22 -0.5,0.5 0,0.28 0.22,0.5 0.5,0.5 l 3,0 c 0.28,0 0.5,-0.22 0.5,-0.5 0,-0.28 -0.22,-0.5 -0.5,-0.5 z m -7,0 -3,0 c -0.28,0 -0.5,0.22 -0.5,0.5 0,0.28 0.22,0.5 0.5,0.5 l 3,0 c 0.28,0 0.5,-0.22 0.5,-0.5 0,-0.28 -0.22,-0.5 -0.5,-0.5 z m -7,0 0,0 c -0.28,0 -0.5,0.22 -0.5,0.5 0,0.28 0.22,0.5 0.5,0.5 l 0,0 c 0.28,0 0.5,-0.22 0.5,-0.5 0,-0.28 -0.22,-0.5 -0.5,-0.5 z m 5.75,-3.43 -6.74,3.93 6.74,3.93 c 0.24,0.14 0.54,0.06 0.68,-0.18 0.14,-0.24 0.06,-0.54 -0.18,-0.68 l -6,-3.5 0,0.86 6,-3.5 c 0.24,-0.14 0.32,-0.44 0.18,-0.68 -0.14,-0.24 -0.44,-0.32 -0.68,-0.18 z"
       inkscape:connector-curvature="0"
       id="path1036"
       style="fill:#000000;fill-opacity:1;fill-rule:nonzero;stroke:none" /><path
       d="m 232.65,511.95 -3,0 c -0.28,0 -0.5,0.22 -0.5,0.5 0,0.28 0.22,0.5 0.5,0.5 l 3,0 c 0.28,0 0.5,-0.22 0.5,-0.5 0,-0.28 -0.22,-0.5 -0.5,-0.5 z m -7,0 -3,0 c -0.28,0 -0.5,0.22 -0.5,0.5 0,0.28 0.22,0.5 0.5,0.5 l 3,0 c 0.28,0 0.5,-0.22 0.5,-0.5 0,-0.28 -0.22,-0.5 -0.5,-0.5 z m -7,0 -3,0 c -0.28,0 -0.5,0.22 -0.5,0.5 0,0.28 0.22,0.5 0.5,0.5 l 3,0 c 0.28,0 0.5,-0.22 0.5,-0.5 0,-0.28 -0.22,-0.5 -0.5,-0.5 z m -7,0 -3,0 c -0.28,0 -0.5,0.22 -0.5,0.5 0,0.28 0.22,0.5 0.5,0.5 l 3,0 c 0.28,0 0.5,-0.22 0.5,-0.5 0,-0.28 -0.22,-0.5 -0.5,-0.5 z m -7,0 -3,0 c -0.28,0 -0.5,0.22 -0.5,0.5 0,0.28 0.22,0.5 0.5,0.5 l 3,0 c 0.28,0 0.5,-0.22 0.5,-0.5 0,-0.28 -0.22,-0.5 -0.5,-0.5 z m -7,0 -3,0 c -0.28,0 -0.5,0.22 -0.5,0.5 0,0.28 0.22,0.5 0.5,0.5 l 3,0 c 0.28,0 0.5,-0.22 0.5,-0.5 0,-0.28 -0.22,-0.5 -0.5,-0.5 z m -7,0 -3,0 c -0.28,0 -0.5,0.22 -0.5,0.5 0,0.28 0.22,0.5 0.5,0.5 l 3,0 c 0.28,0 0.5,-0.22 0.5,-0.5 0,-0.28 -0.22,-0.5 -0.5,-0.5 z m -7,0 -3,0 c -0.28,0 -0.5,0.22 -0.5,0.5 0,0.28 0.22,0.5 0.5,0.5 l 3,0 c 0.28,0 0.5,-0.22 0.5,-0.5 0,-0.28 -0.22,-0.5 -0.5,-0.5 z m -7,0 -3,0 c -0.28,0 -0.5,0.22 -0.5,0.5 0,0.28 0.22,0.5 0.5,0.5 l 3,0 c 0.28,0 0.5,-0.22 0.5,-0.5 0,-0.28 -0.22,-0.5 -0.5,-0.5 z m -7,0 -3,0 c -0.28,0 -0.5,0.22 -0.5,0.5 0,0.28 0.22,0.5 0.5,0.5 l 3,0 c 0.28,0 0.5,-0.22 0.5,-0.5 0,-0.28 -0.22,-0.5 -0.5,-0.5 z m -7,0 -3,0 c -0.28,0 -0.5,0.22 -0.5,0.5 0,0.28 0.22,0.5 0.5,0.5 l 3,0 c 0.28,0 0.5,-0.22 0.5,-0.5 0,-0.28 -0.22,-0.5 -0.5,-0.5 z m -7,0 -3,0 c -0.28,0 -0.5,0.22 -0.5,0.5 0,0.28 0.22,0.5 0.5,0.5 l 3,0 c 0.28,0 0.5,-0.22 0.5,-0.5 0,-0.28 -0.22,-0.5 -0.5,-0.5 z m -7,0 -3,0 c -0.28,0 -0.5,0.22 -0.5,0.5 0,0.28 0.22,0.5 0.5,0.5 l 3,0 c 0.28,0 0.5,-0.22 0.5,-0.5 0,-0.28 -0.22,-0.5 -0.5,-0.5 z m -7,0 -3,0 c -0.28,0 -0.5,0.22 -0.5,0.5 0,0.28 0.22,0.5 0.5,0.5 l 3,0 c 0.28,0 0.5,-0.22 0.5,-0.5 0,-0.28 -0.22,-0.5 -0.5,-0.5 z m -7,0 -3,0 c -0.28,0 -0.5,0.22 -0.5,0.5 0,0.28 0.22,0.5 0.5,0.5 l 3,0 c 0.28,0 0.5,-0.22 0.5,-0.5 0,-0.28 -0.22,-0.5 -0.5,-0.5 z m -7,0 -2.2,0 c -0.28,0 -0.5,0.22 -0.5,0.5 0,0.28 0.22,0.5 0.5,0.5 l 2.2,0 c 0.28,0 0.5,-0.22 0.5,-0.5 0,-0.28 -0.22,-0.5 -0.5,-0.5 z m 3.55,-3.43 -6.74,3.93 6.74,3.93 c 0.24,0.14 0.54,0.06 0.68,-0.18 0.14,-0.24 0.06,-0.54 -0.18,-0.68 l -6,-3.5 0,0.86 6,-3.5 c 0.24,-0.14 0.32,-0.44 0.18,-0.68 -0.14,-0.24 -0.44,-0.32 -0.68,-0.18 z"
       inkscape:connector-curvature="0"
       id="path1038"
       style="fill:#000000;fill-opacity:1;fill-rule:nonzero;stroke:none" /><g
       id="g1040"><g
         clip-path="url(#clipPath1044)"
         id="g1042"><g
           id="g1048"><g
             clip-path="url(#clipPath1052)"
             id="g1050"><text
   transform="matrix(1,0,0,-1,505.03,558.43)"
   id="text1056"><tspan
     x="0 6.5999999 13.308 16.643999 25.308001 32.015999 35.352001 42.084 48.792 56.82 60.816002"
     y="0"
     id="tspan1058"
     style="font-size:12px;font-variant:normal;font-weight:normal;writing-mode:lr-tb;fill:#000000;fill-opacity:1;fill-rule:nonzero;stroke:none;font-family:Helvetica;-inkscape-font-specification:Helvetica">getDatenB()</tspan></text>

</g></g><g
           id="g1060"><g
             clip-path="url(#clipPath1064)"
             id="g1062" /></g></g></g><g
       id="g1068"><g
         clip-path="url(#clipPath1072)"
         id="g1070"><g
           id="g1076"><g
             clip-path="url(#clipPath1080)"
             id="g1078"><text
   transform="matrix(1,0,0,-1,508.51,532.39)"
   id="text1084"><tspan
     x="0 6.7080002 13.416 19.416 26.124001 32.004002 38.712002 45.419998 52.127998 56.124001"
     y="0"
     id="tspan1086"
     style="font-size:12px;font-variant:normal;font-weight:normal;writing-mode:lr-tb;fill:#000000;fill-opacity:1;fill-rule:nonzero;stroke:none;font-family:Helvetica;-inkscape-font-specification:Helvetica">besuchen()</tspan></text>

</g></g><g
           id="g1088"><g
             clip-path="url(#clipPath1092)"
             id="g1090" /></g></g></g></g></svg>