<?xml version="1.0" encoding="UTF-8" standalone="no"?>
<!-- Created with Inkscape (http://www.inkscape.org/) -->

<svg
   xmlns:dc="http://purl.org/dc/elements/1.1/"
   xmlns:cc="http://creativecommons.org/ns#"
   xmlns:rdf="http://www.w3.org/1999/02/22-rdf-syntax-ns#"
   xmlns:svg="http://www.w3.org/2000/svg"
   xmlns="http://www.w3.org/2000/svg"
   xmlns:sodipodi="http://sodipodi.sourceforge.net/DTD/sodipodi-0.dtd"
   xmlns:inkscape="http://www.inkscape.org/namespaces/inkscape"
   version="1.1"
   width="525.1875"
   height="166.875"
   id="svg2"
   xml:space="preserve"
   inkscape:version="0.48.4 r9939"
   sodipodi:docname="Bild 4-15 Weiteres Beispiel für den Dekorierer.svg"><sodipodi:namedview
     pagecolor="#ffffff"
     bordercolor="#666666"
     borderopacity="1"
     objecttolerance="10"
     gridtolerance="10"
     guidetolerance="10"
     inkscape:pageopacity="0"
     inkscape:pageshadow="2"
     inkscape:window-width="640"
     inkscape:window-height="480"
     id="namedview102"
     showgrid="false"
     inkscape:zoom="0.18730159"
     inkscape:cx="246.78125"
     inkscape:cy="73.34375"
     inkscape:window-x="0"
     inkscape:window-y="0"
     inkscape:window-maximized="0"
     inkscape:current-layer="svg2" /><metadata
     id="metadata8"><rdf:RDF><cc:Work
         rdf:about=""><dc:format>image/svg+xml</dc:format><dc:type
           rdf:resource="http://purl.org/dc/dcmitype/StillImage" /></cc:Work></rdf:RDF></metadata><defs
     id="defs6"><clipPath
       id="clipPath18"><path
         d="m 410.45,453.79 88.83,0 0,18.24 -88.83,0 0,-18.24 z"
         inkscape:connector-curvature="0"
         id="path20" /></clipPath><clipPath
       id="clipPath26"><path
         d="m 410.45,453.79 88.824,0 0,18.24 -88.824,0 0,-18.24 z"
         inkscape:connector-curvature="0"
         id="path28" /></clipPath><clipPath
       id="clipPath38"><path
         d="m 410.45,453.79 88.824,0 0,18.24 -88.824,0 0,-18.24 z"
         inkscape:connector-curvature="0"
         id="path40" /></clipPath><clipPath
       id="clipPath48"><path
         d="m 311.09,453.79 48.84,0 0,18.24 -48.84,0 0,-18.24 z"
         inkscape:connector-curvature="0"
         id="path50" /></clipPath><clipPath
       id="clipPath56"><path
         d="m 311.09,453.79 48.84,0 0,18.24 -48.84,0 0,-18.24 z"
         inkscape:connector-curvature="0"
         id="path58" /></clipPath><clipPath
       id="clipPath68"><path
         d="m 311.09,453.79 48.84,0 0,18.24 -48.84,0 0,-18.24 z"
         inkscape:connector-curvature="0"
         id="path70" /></clipPath><clipPath
       id="clipPath78"><path
         d="m 576.68,452.95 50.04,0 0,18.36 -50.04,0 0,-18.36 z"
         inkscape:connector-curvature="0"
         id="path80" /></clipPath><clipPath
       id="clipPath86"><path
         d="m 576.67,452.95 50.04,0 0,18.36 -50.04,0 0,-18.36 z"
         inkscape:connector-curvature="0"
         id="path88" /></clipPath><clipPath
       id="clipPath98"><path
         d="m 576.67,452.95 50.04,0 0,18.36 -50.04,0 0,-18.36 z"
         inkscape:connector-curvature="0"
         id="path100" /></clipPath><clipPath
       id="clipPath108"><path
         d="m 543.68,540.55 110.53,0 0,34.8 -110.53,0 0,-34.8 z"
         inkscape:connector-curvature="0"
         id="path110" /></clipPath><clipPath
       id="clipPath116"><path
         d="m 543.67,540.55 110.54,0 0,34.8 -110.54,0 0,-34.8 z"
         inkscape:connector-curvature="0"
         id="path118" /></clipPath><clipPath
       id="clipPath128"><path
         d="m 543.67,540.55 110.54,0 0,34.8 -110.54,0 0,-34.8 z"
         inkscape:connector-curvature="0"
         id="path130" /></clipPath><clipPath
       id="clipPath140"><path
         d="m 543.67,540.55 110.54,0 0,34.8 -110.54,0 0,-34.8 z"
         inkscape:connector-curvature="0"
         id="path142" /></clipPath><clipPath
       id="clipPath152"><path
         d="m 543.67,540.55 110.54,0 0,34.8 -110.54,0 0,-34.8 z"
         inkscape:connector-curvature="0"
         id="path154" /></clipPath><clipPath
       id="clipPath160"><path
         d="m 543.67,540.55 110.54,0 0,34.8 -110.54,0 0,-34.8 z"
         inkscape:connector-curvature="0"
         id="path162" /></clipPath><clipPath
       id="clipPath172"><path
         d="m 543.67,540.55 110.54,0 0,34.8 -110.54,0 0,-34.8 z"
         inkscape:connector-curvature="0"
         id="path174" /></clipPath></defs><g
     transform="matrix(1.25,0,0,-1.25,-383.59375,723.53125)"
     id="g10"><path
       d="m 410.3,445.7 88.75,0 0,30.9 -88.75,0 0,-30.9 z"
       inkscape:connector-curvature="0"
       id="path12"
       style="fill:none;stroke:#000000;stroke-width:0.75;stroke-linecap:round;stroke-linejoin:miter;stroke-miterlimit:10;stroke-opacity:1;stroke-dasharray:none" /><g
       id="g14"><g
         clip-path="url(#clipPath18)"
         id="g16"><g
           id="g22"><g
             clip-path="url(#clipPath26)"
             id="g24"><text
   transform="matrix(1,0,0,-1,419.45,460.51)"
   id="text30"><tspan
     x="0 8.0279999 14.736 22.068001 28.74 32.124001 36.119999 40.043999 43.380001 50.004002 56.712002 64.043999"
     y="0"
     id="tspan32"
     style="font-size:12px;font-variant:normal;font-weight:bold;writing-mode:lr-tb;fill:#000000;fill-opacity:1;fill-rule:nonzero;stroke:none;font-family:Helvetica;-inkscape-font-specification:Helvetica-Bold">Schaltfläche</tspan></text>

</g></g><g
           id="g34"><g
             clip-path="url(#clipPath38)"
             id="g36" /></g></g></g><path
       d="m 307.25,445.7 56.9,0 0,30.9 -56.9,0 0,-30.9 z"
       inkscape:connector-curvature="0"
       id="path42"
       style="fill:none;stroke:#000000;stroke-width:0.75;stroke-linecap:round;stroke-linejoin:miter;stroke-miterlimit:10;stroke-opacity:1;stroke-dasharray:none" /><g
       id="g44"><g
         clip-path="url(#clipPath48)"
         id="g46"><g
           id="g52"><g
             clip-path="url(#clipPath56)"
             id="g54"><text
   transform="matrix(1,0,0,-1,311.09,460.51)"
   id="text60"><tspan
     x="0 7.3319998 14.004 20.747999 24.743999 28.667999 35.375999 38.712002"
     y="0"
     id="tspan62"
     style="font-size:12px;font-variant:normal;font-weight:bold;writing-mode:lr-tb;fill:#000000;fill-opacity:1;fill-rule:nonzero;stroke:none;font-family:Helvetica;-inkscape-font-specification:Helvetica-Bold">Textfeld</tspan></text>

</g></g><g
           id="g64"><g
             clip-path="url(#clipPath68)"
             id="g66" /></g></g></g><path
       d="m 542.4,445.7 109.25,0 0,30.9 -109.25,0 0,-30.9 z"
       inkscape:connector-curvature="0"
       id="path72"
       style="fill:none;stroke:#000000;stroke-width:0.75;stroke-linecap:round;stroke-linejoin:miter;stroke-miterlimit:10;stroke-opacity:1;stroke-dasharray:none" /><g
       id="g74"><g
         clip-path="url(#clipPath78)"
         id="g76"><g
           id="g82"><g
             clip-path="url(#clipPath86)"
             id="g84"><text
   transform="matrix(1,0,0,-1,576.67,459.91)"
   id="text90"><tspan
     x="0 8.6639996 15.336 22.667999 33.335999 40.068001"
     y="0"
     id="tspan92"
     style="font-size:12px;font-variant:normal;font-weight:bold;writing-mode:lr-tb;fill:#000000;fill-opacity:1;fill-rule:nonzero;stroke:none;font-family:Helvetica;-inkscape-font-specification:Helvetica-Bold">Rahmen</tspan></text>

</g></g><g
           id="g94"><g
             clip-path="url(#clipPath98)"
             id="g96" /></g></g></g><path
       d="m 537.85,531.45 117.2,0 0,47 -117.2,0 0,-47 z"
       inkscape:connector-curvature="0"
       id="path102"
       style="fill:none;stroke:#000000;stroke-width:0.75;stroke-linecap:round;stroke-linejoin:miter;stroke-miterlimit:10;stroke-opacity:1;stroke-dasharray:none" /><g
       id="g104"><g
         clip-path="url(#clipPath108)"
         id="g106"><g
           id="g112"><g
             clip-path="url(#clipPath116)"
             id="g114"><text
   transform="matrix(1,0,0,-1,562.27,564.31)"
   id="text120"><tspan
     x="0"
     y="0"
     id="tspan122"
     style="font-size:12px;font-variant:normal;font-weight:bold;writing-mode:lr-tb;fill:#000000;fill-opacity:1;fill-rule:nonzero;stroke:none;font-family:Helvetica;-inkscape-font-specification:Helvetica-Bold">K</tspan></text>

</g></g><g
           id="g124"><g
             clip-path="url(#clipPath128)"
             id="g126"><text
   transform="matrix(1,0,0,-1,570.91,564.31)"
   id="text132"><tspan
     x="0 7.3319998 18 25.332001 32.664001 39.995998 46.667999 54"
     y="0"
     id="tspan134"
     style="font-size:12px;font-variant:normal;font-weight:bold;writing-mode:lr-tb;fill:#000000;fill-opacity:1;fill-rule:nonzero;stroke:none;font-family:Helvetica;-inkscape-font-specification:Helvetica-Bold">omponent</tspan></text>

</g></g><g
           id="g136"><g
             clip-path="url(#clipPath140)"
             id="g138"><text
   transform="matrix(1,0,0,-1,628.87,564.31)"
   id="text144"><tspan
     x="0"
     y="0"
     id="tspan146"
     style="font-size:12px;font-variant:normal;font-weight:bold;writing-mode:lr-tb;fill:#000000;fill-opacity:1;fill-rule:nonzero;stroke:none;font-family:Helvetica;-inkscape-font-specification:Helvetica-Bold">e</tspan></text>

</g></g><g
           id="g148"><g
             clip-path="url(#clipPath152)"
             id="g150" /></g><g
           id="g156"><g
             clip-path="url(#clipPath160)"
             id="g158"><text
   transform="matrix(1,0,0,-1,573.55,550.51)"
   id="text164"><tspan
     x="0 3.96 10.668 17.375999 23.375999 26.712 30.708 37.380001 43.403999 46.740002"
     y="0"
     id="tspan166"
     style="font-size:12px;font-variant:normal;font-weight:normal;writing-mode:lr-tb;fill:#000000;fill-opacity:1;fill-rule:nonzero;stroke:none;font-family:Helvetica;-inkscape-font-specification:Helvetica">{abstract}</tspan></text>

</g></g><g
           id="g168"><g
             clip-path="url(#clipPath172)"
             id="g170" /></g></g></g><path
       d="m 477.75,476.6 93.1,54.85"
       inkscape:connector-curvature="0"
       id="path176"
       style="fill:none;stroke:#000000;stroke-width:0.75;stroke-linecap:round;stroke-linejoin:round;stroke-miterlimit:10;stroke-opacity:1;stroke-dasharray:none" /><path
       d="m 596.65,476.6 0,42.3"
       inkscape:connector-curvature="0"
       id="path178"
       style="fill:none;stroke:#000000;stroke-width:0.75;stroke-linecap:round;stroke-linejoin:round;stroke-miterlimit:10;stroke-opacity:1;stroke-dasharray:none" /><path
       d="m 651.65,460.6 5.7,3.4 6.8,-3.4 -6.8,-3.45 -5.7,3.45 z"
       inkscape:connector-curvature="0"
       id="path180"
       style="fill:#ffffff;fill-opacity:1;fill-rule:evenodd;stroke:none" /><path
       d="m 651.65,460.6 5.7,3.4 6.8,-3.4 -6.8,-3.45 -5.7,3.45 z"
       inkscape:connector-curvature="0"
       id="path182"
       style="fill:none;stroke:#000000;stroke-width:0.75;stroke-linecap:round;stroke-linejoin:round;stroke-miterlimit:10;stroke-opacity:1;stroke-dasharray:none" /><path
       d="m 358.8,476.6 166.65,64.45"
       inkscape:connector-curvature="0"
       id="path184"
       style="fill:none;stroke:#000000;stroke-width:0.75;stroke-linecap:round;stroke-linejoin:round;stroke-miterlimit:10;stroke-opacity:1;stroke-dasharray:none" /><path
       d="m 596.63,531.3 -5.38,-12.4 10.75,0 -5.37,12.4 z"
       inkscape:connector-curvature="0"
       id="path186"
       style="fill:#ffffff;fill-opacity:1;fill-rule:evenodd;stroke:none" /><path
       d="m 596.63,531.3 -5.38,-12.4 10.75,0 -5.37,12.4 z"
       inkscape:connector-curvature="0"
       id="path188"
       style="fill:none;stroke:#000000;stroke-width:0.75;stroke-linecap:round;stroke-linejoin:round;stroke-miterlimit:10;stroke-opacity:1;stroke-dasharray:none" /><path
       d="m 570.01,530.98 -13.42,-1.56 5.39,-9.3 8.03,10.86 z"
       inkscape:connector-curvature="0"
       id="path190"
       style="fill:#ffffff;fill-opacity:1;fill-rule:evenodd;stroke:none" /><path
       d="m 570.01,530.98 -13.42,-1.56 5.39,-9.3 8.03,10.86 z"
       inkscape:connector-curvature="0"
       id="path192"
       style="fill:none;stroke:#000000;stroke-width:0.75;stroke-linecap:round;stroke-linejoin:round;stroke-miterlimit:10;stroke-opacity:1;stroke-dasharray:none" /><path
       d="m 537.44,545.74 -13.5,0.59 3.84,-10.04 9.66,9.45 z"
       inkscape:connector-curvature="0"
       id="path194"
       style="fill:#ffffff;fill-opacity:1;fill-rule:evenodd;stroke:none" /><path
       d="m 537.44,545.74 -13.5,0.59 3.84,-10.04 9.66,9.45 z"
       inkscape:connector-curvature="0"
       id="path196"
       style="fill:none;stroke:#000000;stroke-width:0.75;stroke-linecap:round;stroke-linejoin:round;stroke-miterlimit:10;stroke-opacity:1;stroke-dasharray:none" /><path
       d="m 655.05,554.85 71.6,0"
       inkscape:connector-curvature="0"
       id="path198"
       style="fill:none;stroke:#000000;stroke-width:0.75;stroke-linecap:round;stroke-linejoin:round;stroke-miterlimit:10;stroke-opacity:1;stroke-dasharray:none" /><path
       d="m 664.15,460.5 62.5,0"
       inkscape:connector-curvature="0"
       id="path200"
       style="fill:none;stroke:#000000;stroke-width:0.75;stroke-linecap:round;stroke-linejoin:round;stroke-miterlimit:10;stroke-opacity:1;stroke-dasharray:none" /><path
       d="m 726.65,554.85 0,-94.35"
       inkscape:connector-curvature="0"
       id="path202"
       style="fill:none;stroke:#000000;stroke-width:0.75;stroke-linecap:round;stroke-linejoin:round;stroke-miterlimit:10;stroke-opacity:1;stroke-dasharray:none" /></g></svg>