<?xml version="1.0" encoding="UTF-8" standalone="no"?>
<!-- Created with Inkscape (http://www.inkscape.org/) -->

<svg
   xmlns:dc="http://purl.org/dc/elements/1.1/"
   xmlns:cc="http://creativecommons.org/ns#"
   xmlns:rdf="http://www.w3.org/1999/02/22-rdf-syntax-ns#"
   xmlns:svg="http://www.w3.org/2000/svg"
   xmlns="http://www.w3.org/2000/svg"
   xmlns:sodipodi="http://sodipodi.sourceforge.net/DTD/sodipodi-0.dtd"
   xmlns:inkscape="http://www.inkscape.org/namespaces/inkscape"
   version="1.1"
   width="146.5625"
   height="201.875"
   id="svg2"
   xml:space="preserve"
   inkscape:version="0.48.4 r9939"
   sodipodi:docname="Bild 4-8 Aufbau eines Dekorierers.svg"><sodipodi:namedview
     pagecolor="#ffffff"
     bordercolor="#666666"
     borderopacity="1"
     objecttolerance="10"
     gridtolerance="10"
     guidetolerance="10"
     inkscape:pageopacity="0"
     inkscape:pageshadow="2"
     inkscape:window-width="640"
     inkscape:window-height="480"
     id="namedview123"
     showgrid="false"
     inkscape:zoom="0.18730159"
     inkscape:cx="212.375"
     inkscape:cy="107.9375"
     inkscape:window-x="0"
     inkscape:window-y="0"
     inkscape:window-maximized="0"
     inkscape:current-layer="svg2" /><metadata
     id="metadata8"><rdf:RDF><cc:Work
         rdf:about=""><dc:format>image/svg+xml</dc:format><dc:type
           rdf:resource="http://purl.org/dc/dcmitype/StillImage" /></cc:Work></rdf:RDF></metadata><defs
     id="defs6"><clipPath
       id="clipPath18"><path
         d="m 335.45,476.23 115.2,0 0,45.72 -115.2,0 0,-45.72 z"
         inkscape:connector-curvature="0"
         id="path20" /></clipPath><clipPath
       id="clipPath26"><path
         d="m 335.45,476.23 115.2,0 0,45.72 -115.2,0 0,-45.72 z"
         inkscape:connector-curvature="0"
         id="path28" /></clipPath><clipPath
       id="clipPath38"><path
         d="m 335.45,476.23 115.2,0 0,45.72 -115.2,0 0,-45.72 z"
         inkscape:connector-curvature="0"
         id="path40" /></clipPath><clipPath
       id="clipPath46"><path
         d="m 335.45,476.23 115.2,0 0,45.72 -115.2,0 0,-45.72 z"
         inkscape:connector-curvature="0"
         id="path48" /></clipPath><clipPath
       id="clipPath58"><path
         d="m 335.45,476.23 115.2,0 0,45.72 -115.2,0 0,-45.72 z"
         inkscape:connector-curvature="0"
         id="path60" /></clipPath><clipPath
       id="clipPath70"><path
         d="m 335.45,476.23 115.2,0 0,45.72 -115.2,0 0,-45.72 z"
         inkscape:connector-curvature="0"
         id="path72" /></clipPath><clipPath
       id="clipPath82"><path
         d="m 335.45,476.23 115.2,0 0,45.72 -115.2,0 0,-45.72 z"
         inkscape:connector-curvature="0"
         id="path84" /></clipPath><clipPath
       id="clipPath94"><path
         d="m 335.45,476.23 115.2,0 0,45.72 -115.2,0 0,-45.72 z"
         inkscape:connector-curvature="0"
         id="path96" /></clipPath><clipPath
       id="clipPath106"><path
         d="m 335.45,530.23 115.2,0 0,44.28 -115.2,0 0,-44.28 z"
         inkscape:connector-curvature="0"
         id="path108" /></clipPath><clipPath
       id="clipPath114"><path
         d="m 335.45,530.23 115.2,0 0,44.28 -115.2,0 0,-44.28 z"
         inkscape:connector-curvature="0"
         id="path116" /></clipPath><clipPath
       id="clipPath126"><path
         d="m 335.45,530.23 115.2,0 0,44.28 -115.2,0 0,-44.28 z"
         inkscape:connector-curvature="0"
         id="path128" /></clipPath><clipPath
       id="clipPath134"><path
         d="m 335.45,530.23 115.2,0 0,44.28 -115.2,0 0,-44.28 z"
         inkscape:connector-curvature="0"
         id="path136" /></clipPath><clipPath
       id="clipPath146"><path
         d="m 335.45,530.23 115.2,0 0,44.28 -115.2,0 0,-44.28 z"
         inkscape:connector-curvature="0"
         id="path148" /></clipPath><clipPath
       id="clipPath158"><path
         d="m 335.45,530.23 115.2,0 0,44.28 -115.2,0 0,-44.28 z"
         inkscape:connector-curvature="0"
         id="path160" /></clipPath><clipPath
       id="clipPath170"><path
         d="m 335.45,422.2 115.2,0 0,45.75 -115.2,0 0,-45.75 z"
         inkscape:connector-curvature="0"
         id="path172" /></clipPath><clipPath
       id="clipPath178"><path
         d="m 335.45,422.21 115.2,0 0,45.744 -115.2,0 0,-45.744 z"
         inkscape:connector-curvature="0"
         id="path180" /></clipPath><clipPath
       id="clipPath190"><path
         d="m 335.45,422.21 115.2,0 0,45.744 -115.2,0 0,-45.744 z"
         inkscape:connector-curvature="0"
         id="path192" /></clipPath><clipPath
       id="clipPath198"><path
         d="m 335.45,422.21 115.2,0 0,45.744 -115.2,0 0,-45.744 z"
         inkscape:connector-curvature="0"
         id="path200" /></clipPath><clipPath
       id="clipPath210"><path
         d="m 335.45,422.21 115.2,0 0,45.744 -115.2,0 0,-45.744 z"
         inkscape:connector-curvature="0"
         id="path212" /></clipPath><clipPath
       id="clipPath222"><path
         d="m 335.45,422.21 115.2,0 0,45.744 -115.2,0 0,-45.744 z"
         inkscape:connector-curvature="0"
         id="path224" /></clipPath><clipPath
       id="clipPath230"><path
         d="m 335.45,422.21 115.2,0 0,45.744 -115.2,0 0,-45.744 z"
         inkscape:connector-curvature="0"
         id="path232" /></clipPath><clipPath
       id="clipPath242"><path
         d="m 335.45,422.21 115.2,0 0,45.744 -115.2,0 0,-45.744 z"
         inkscape:connector-curvature="0"
         id="path244" /></clipPath></defs><g
     transform="matrix(1.25,0,0,-1.25,-418,723.9375)"
     id="g10"><path
       d="m 334.9,472.15 116.25,0 0,54 -116.25,0 0,-54 z"
       inkscape:connector-curvature="0"
       id="path12"
       style="fill:none;stroke:#000000;stroke-width:1;stroke-linecap:round;stroke-linejoin:miter;stroke-miterlimit:10;stroke-opacity:1;stroke-dasharray:none" /><g
       id="g14"><g
         clip-path="url(#clipPath18)"
         id="g16"><g
           id="g22"><g
             clip-path="url(#clipPath26)"
             id="g24"><text
   transform="matrix(1,0,0,-1,342.65,510.91)"
   id="text30"><tspan
     x="0 6.7080002 9.3719997 15.948 22.656 29.364 36.071999"
     y="0"
     id="tspan32"
     style="font-size:12px;font-variant:normal;font-weight:normal;writing-mode:lr-tb;fill:#000000;fill-opacity:1;fill-rule:nonzero;stroke:none;font-family:Helvetica;-inkscape-font-specification:Helvetica">eigener</tspan></text>

</g></g><g
           id="g34"><g
             clip-path="url(#clipPath38)"
             id="g36" /></g><g
           id="g42"><g
             clip-path="url(#clipPath46)"
             id="g44"><text
   transform="matrix(1,0,0,-1,342.65,496.99)"
   id="text50"><tspan
     x="0"
     y="0"
     id="tspan52"
     style="font-size:12px;font-variant:normal;font-weight:normal;writing-mode:lr-tb;fill:#000000;fill-opacity:1;fill-rule:nonzero;stroke:none;font-family:Helvetica;-inkscape-font-specification:Helvetica">E</tspan></text>

</g></g><g
           id="g54"><g
             clip-path="url(#clipPath58)"
             id="g56"><text
   transform="matrix(1,0,0,-1,350.69,496.99)"
   id="text62"><tspan
     x="0 3.9960001 12.48 19.188 21.851999 25.188"
     y="0"
     id="tspan64"
     style="font-size:12px;font-variant:normal;font-weight:normal;writing-mode:lr-tb;fill:#000000;fill-opacity:1;fill-rule:nonzero;stroke:none;font-family:Helvetica;-inkscape-font-specification:Helvetica">rweite</tspan></text>

</g></g><g
           id="g66"><g
             clip-path="url(#clipPath70)"
             id="g68"><text
   transform="matrix(1,0,0,-1,382.61,496.99)"
   id="text74"><tspan
     x="0 3.9960001 10.668 17.388 23.988001 29.988001"
     y="0"
     id="tspan76"
     style="font-size:12px;font-variant:normal;font-weight:normal;writing-mode:lr-tb;fill:#000000;fill-opacity:1;fill-rule:nonzero;stroke:none;font-family:Helvetica;-inkscape-font-specification:Helvetica">rungsa</tspan></text>

</g></g><g
           id="g78"><g
             clip-path="url(#clipPath82)"
             id="g80"><text
   transform="matrix(1,0,0,-1,419.33,496.99)"
   id="text86"><tspan
     x="0 6.7080002 10.044 16.775999 19.440001"
     y="0"
     id="tspan88"
     style="font-size:12px;font-variant:normal;font-weight:normal;writing-mode:lr-tb;fill:#000000;fill-opacity:1;fill-rule:nonzero;stroke:none;font-family:Helvetica;-inkscape-font-specification:Helvetica">nteil</tspan></text>

</g></g><g
           id="g90"><g
             clip-path="url(#clipPath94)"
             id="g92" /></g></g></g><path
       d="m 334.9,526.15 116.25,0 0,52.5 -116.25,0 0,-52.5 z"
       inkscape:connector-curvature="0"
       id="path98"
       style="fill:#ffffff;fill-opacity:1;fill-rule:evenodd;stroke:none" /><path
       d="m 334.9,526.15 116.25,0 0,52.5 -116.25,0 0,-52.5 z"
       inkscape:connector-curvature="0"
       id="path100"
       style="fill:none;stroke:#000000;stroke-width:1;stroke-linecap:round;stroke-linejoin:miter;stroke-miterlimit:10;stroke-opacity:1;stroke-dasharray:none" /><g
       id="g102"><g
         clip-path="url(#clipPath106)"
         id="g104"><g
           id="g110"><g
             clip-path="url(#clipPath114)"
             id="g112"><text
   transform="matrix(1,0,0,-1,342.65,563.47)"
   id="text118"><tspan
     x="0 6.7080002 13.416 19.296 26.004 30 36.672001 43.391998 50.099998 56.807999 60.804001 64.008003 70.716003"
     y="0"
     id="tspan120"
     style="font-size:12px;font-variant:normal;font-weight:normal;writing-mode:lr-tb;fill:#000000;fill-opacity:1;fill-rule:nonzero;stroke:none;font-family:Helvetica;-inkscape-font-specification:Helvetica">unveränderter</tspan></text>

</g></g><g
           id="g122"><g
             clip-path="url(#clipPath126)"
             id="g124" /></g><g
           id="g130"><g
             clip-path="url(#clipPath134)"
             id="g132"><text
   transform="matrix(1,0,0,-1,342.65,549.67)"
   id="text138"><tspan
     x="0 8.0279999 14.736 18.732 25.403999 29.4 36.071999 42.695999 49.403999 56.004002 62.004002"
     y="0"
     id="tspan140"
     style="font-size:12px;font-variant:normal;font-weight:normal;writing-mode:lr-tb;fill:#000000;fill-opacity:1;fill-rule:nonzero;stroke:none;font-family:Helvetica;-inkscape-font-specification:Helvetica">Vererbungsa</tspan></text>

</g></g><g
           id="g142"><g
             clip-path="url(#clipPath146)"
             id="g144"><text
   transform="matrix(1,0,0,-1,411.41,549.67)"
   id="text150"><tspan
     x="0 6.7080002 10.044 16.775999 19.440001"
     y="0"
     id="tspan152"
     style="font-size:12px;font-variant:normal;font-weight:normal;writing-mode:lr-tb;fill:#000000;fill-opacity:1;fill-rule:nonzero;stroke:none;font-family:Helvetica;-inkscape-font-specification:Helvetica">nteil</tspan></text>

</g></g><g
           id="g154"><g
             clip-path="url(#clipPath158)"
             id="g156" /></g></g></g><path
       d="m 334.9,418.15 116.25,0 0,54 -116.25,0 0,-54 z"
       inkscape:connector-curvature="0"
       id="path162"
       style="fill:#ffffff;fill-opacity:1;fill-rule:evenodd;stroke:none" /><path
       d="m 334.9,418.15 116.25,0 0,54 -116.25,0 0,-54 z"
       inkscape:connector-curvature="0"
       id="path164"
       style="fill:none;stroke:#000000;stroke-width:1;stroke-linecap:round;stroke-linejoin:miter;stroke-miterlimit:10;stroke-opacity:1;stroke-dasharray:none" /><g
       id="g166"><g
         clip-path="url(#clipPath170)"
         id="g168"><g
           id="g174"><g
             clip-path="url(#clipPath178)"
             id="g176"><text
   transform="matrix(1,0,0,-1,342.65,456.91)"
   id="text182"><tspan
     x="0 6.7080002 13.416 20.124001 24.120001 27.455999 35.459999 42.084 48.683998 52.68 59.352001 65.963997 72.671997 76.008003 78.671997 85.379997"
     y="0"
     id="tspan184"
     style="font-size:12px;font-variant:normal;font-weight:normal;writing-mode:lr-tb;fill:#000000;fill-opacity:1;fill-rule:nonzero;stroke:none;font-family:Helvetica;-inkscape-font-specification:Helvetica">über Aggregation</tspan></text>

</g></g><g
           id="g186"><g
             clip-path="url(#clipPath190)"
             id="g188" /></g><g
           id="g194"><g
             clip-path="url(#clipPath198)"
             id="g196"><text
   transform="matrix(1,0,0,-1,342.65,443.11)"
   id="text202"><tspan
     x="0 5.8800001 12.588 16.584 19.92 27.924 34.655998 38.652 42.084 48.792 55.391998 62.099998 68.807999 75.407997"
     y="0"
     id="tspan204"
     style="font-size:12px;font-variant:normal;font-weight:normal;writing-mode:lr-tb;fill:#000000;fill-opacity:1;fill-rule:nonzero;stroke:none;font-family:Helvetica;-inkscape-font-specification:Helvetica">zur Verfügung </tspan></text>

</g></g><g
           id="g206"><g
             clip-path="url(#clipPath210)"
             id="g208"><text
   transform="matrix(1,0,0,-1,342.65,429.17)"
   id="text214"><tspan
     x="0 6.5999999 13.308 19.308001 22.643999 29.375999 32.040001 34.655998 37.992001 44.723999"
     y="0"
     id="tspan216"
     style="font-size:12px;font-variant:normal;font-weight:normal;writing-mode:lr-tb;fill:#000000;fill-opacity:1;fill-rule:nonzero;stroke:none;font-family:Helvetica;-inkscape-font-specification:Helvetica">gestellter</tspan></text>

</g></g><g
           id="g218"><g
             clip-path="url(#clipPath222)"
             id="g220" /></g><g
           id="g226"><g
             clip-path="url(#clipPath230)"
             id="g228"><text
   transform="matrix(1,0,0,-1,394.73,429.17)"
   id="text234"><tspan
     x="0 8.0279999 14.736 17.976 24.684 27.348"
     y="0"
     id="tspan236"
     style="font-size:12px;font-variant:normal;font-weight:normal;writing-mode:lr-tb;fill:#000000;fill-opacity:1;fill-rule:nonzero;stroke:none;font-family:Helvetica;-inkscape-font-specification:Helvetica">Anteil</tspan></text>

</g></g><g
           id="g238"><g
             clip-path="url(#clipPath242)"
             id="g240" /></g></g></g></g></svg>