<?xml version="1.0" encoding="UTF-8" standalone="no"?>
<!-- Created with Inkscape (http://www.inkscape.org/) -->

<svg
   xmlns:dc="http://purl.org/dc/elements/1.1/"
   xmlns:cc="http://creativecommons.org/ns#"
   xmlns:rdf="http://www.w3.org/1999/02/22-rdf-syntax-ns#"
   xmlns:svg="http://www.w3.org/2000/svg"
   xmlns="http://www.w3.org/2000/svg"
   xmlns:sodipodi="http://sodipodi.sourceforge.net/DTD/sodipodi-0.dtd"
   xmlns:inkscape="http://www.inkscape.org/namespaces/inkscape"
   version="1.1"
   width="370.4375"
   height="267.1875"
   id="svg2"
   xml:space="preserve"
   inkscape:version="0.48.4 r9939"
   sodipodi:docname="Bild 4-28 Container-Klassen zur Veranschaulichung der Schablonenmethode.svg"><sodipodi:namedview
     pagecolor="#ffffff"
     bordercolor="#666666"
     borderopacity="1"
     objecttolerance="10"
     gridtolerance="10"
     guidetolerance="10"
     inkscape:pageopacity="0"
     inkscape:pageshadow="2"
     inkscape:window-width="640"
     inkscape:window-height="480"
     id="namedview246"
     showgrid="false"
     inkscape:zoom="0.18730159"
     inkscape:cx="500.96875"
     inkscape:cy="179.15625"
     inkscape:window-x="0"
     inkscape:window-y="0"
     inkscape:window-maximized="0"
     inkscape:current-layer="svg2" /><metadata
     id="metadata8"><rdf:RDF><cc:Work
         rdf:about=""><dc:format>image/svg+xml</dc:format><dc:type
           rdf:resource="http://purl.org/dc/dcmitype/StillImage" /></cc:Work></rdf:RDF></metadata><defs
     id="defs6"><clipPath
       id="clipPath20"><path
         d="m 130.47,476.23 242.66,0 0,93.72 -242.66,0 0,-93.72 z"
         inkscape:connector-curvature="0"
         id="path22" /></clipPath><clipPath
       id="clipPath28"><path
         d="m 130.46,476.23 242.66,0 0,93.72 -242.66,0 0,-93.72 z"
         inkscape:connector-curvature="0"
         id="path30" /></clipPath><clipPath
       id="clipPath36"><path
         d="m 129.75,539.35 243.74,0 0,30.48 -243.74,0 0,-30.48 z"
         inkscape:connector-curvature="0"
         id="path38" /></clipPath><clipPath
       id="clipPath44"><path
         d="m 129.74,539.35 243.74,0 0,30.48 -243.74,0 0,-30.48 z"
         inkscape:connector-curvature="0"
         id="path46" /></clipPath><clipPath
       id="clipPath56"><path
         d="m 129.74,539.35 243.74,0 0,30.48 -243.74,0 0,-30.48 z"
         inkscape:connector-curvature="0"
         id="path58" /></clipPath><clipPath
       id="clipPath64"><path
         d="m 129.74,539.35 243.74,0 0,30.48 -243.74,0 0,-30.48 z"
         inkscape:connector-curvature="0"
         id="path66" /></clipPath><clipPath
       id="clipPath76"><path
         d="m 129.74,539.35 243.74,0 0,30.48 -243.74,0 0,-30.48 z"
         inkscape:connector-curvature="0"
         id="path78" /></clipPath><clipPath
       id="clipPath84"><path
         d="m 129.74,539.35 243.74,0 0,30.48 -243.74,0 0,-30.48 z"
         inkscape:connector-curvature="0"
         id="path86" /></clipPath><clipPath
       id="clipPath104"><path
         d="m 129.75,478.51 243.74,0 0,53.64 -243.74,0 0,-53.64 z"
         inkscape:connector-curvature="0"
         id="path106" /></clipPath><clipPath
       id="clipPath112"><path
         d="m 129.74,478.51 243.74,0 0,53.64 -243.74,0 0,-53.64 z"
         inkscape:connector-curvature="0"
         id="path114" /></clipPath><clipPath
       id="clipPath124"><path
         d="m 129.74,478.51 243.74,0 0,53.64 -243.74,0 0,-53.64 z"
         inkscape:connector-curvature="0"
         id="path126" /></clipPath><clipPath
       id="clipPath132"><path
         d="m 129.74,478.51 243.74,0 0,53.64 -243.74,0 0,-53.64 z"
         inkscape:connector-curvature="0"
         id="path134" /></clipPath><clipPath
       id="clipPath144"><path
         d="m 129.74,478.51 243.74,0 0,53.64 -243.74,0 0,-53.64 z"
         inkscape:connector-curvature="0"
         id="path146" /></clipPath><clipPath
       id="clipPath152"><path
         d="m 129.74,478.51 243.74,0 0,53.64 -243.74,0 0,-53.64 z"
         inkscape:connector-curvature="0"
         id="path154" /></clipPath><clipPath
       id="clipPath164"><path
         d="m 129.74,478.51 243.74,0 0,53.64 -243.74,0 0,-53.64 z"
         inkscape:connector-curvature="0"
         id="path166" /></clipPath><clipPath
       id="clipPath176"><path
         d="m 129.74,478.51 243.74,0 0,53.64 -243.74,0 0,-53.64 z"
         inkscape:connector-curvature="0"
         id="path178" /></clipPath><clipPath
       id="clipPath188"><path
         d="m 129.74,478.51 243.74,0 0,53.64 -243.74,0 0,-53.64 z"
         inkscape:connector-curvature="0"
         id="path190" /></clipPath><clipPath
       id="clipPath196"><path
         d="m 129.74,478.51 243.74,0 0,53.64 -243.74,0 0,-53.64 z"
         inkscape:connector-curvature="0"
         id="path198" /></clipPath><clipPath
       id="clipPath208"><path
         d="m 129.74,478.51 243.74,0 0,53.64 -243.74,0 0,-53.64 z"
         inkscape:connector-curvature="0"
         id="path210" /></clipPath><clipPath
       id="clipPath216"><path
         d="m 129.74,478.51 243.74,0 0,53.64 -243.74,0 0,-53.64 z"
         inkscape:connector-curvature="0"
         id="path218" /></clipPath><clipPath
       id="clipPath228"><path
         d="m 129.74,478.51 243.74,0 0,53.64 -243.74,0 0,-53.64 z"
         inkscape:connector-curvature="0"
         id="path230" /></clipPath><clipPath
       id="clipPath236"><path
         d="m 129.74,478.51 243.74,0 0,53.64 -243.74,0 0,-53.64 z"
         inkscape:connector-curvature="0"
         id="path238" /></clipPath><clipPath
       id="clipPath248"><path
         d="m 129.74,478.51 243.74,0 0,53.64 -243.74,0 0,-53.64 z"
         inkscape:connector-curvature="0"
         id="path250" /></clipPath><clipPath
       id="clipPath256"><path
         d="m 129.74,478.51 243.74,0 0,53.64 -243.74,0 0,-53.64 z"
         inkscape:connector-curvature="0"
         id="path258" /></clipPath><clipPath
       id="clipPath268"><path
         d="m 129.74,478.51 243.74,0 0,53.64 -243.74,0 0,-53.64 z"
         inkscape:connector-curvature="0"
         id="path270" /></clipPath><clipPath
       id="clipPath276"><path
         d="m 129.74,478.51 243.74,0 0,53.64 -243.74,0 0,-53.64 z"
         inkscape:connector-curvature="0"
         id="path278" /></clipPath><clipPath
       id="clipPath288"><path
         d="m 129.74,478.51 243.74,0 0,53.64 -243.74,0 0,-53.64 z"
         inkscape:connector-curvature="0"
         id="path290" /></clipPath><clipPath
       id="clipPath296"><path
         d="m 129.74,478.51 243.74,0 0,53.64 -243.74,0 0,-53.64 z"
         inkscape:connector-curvature="0"
         id="path298" /></clipPath><clipPath
       id="clipPath308"><path
         d="m 129.74,478.51 243.74,0 0,53.64 -243.74,0 0,-53.64 z"
         inkscape:connector-curvature="0"
         id="path310" /></clipPath><clipPath
       id="clipPath316"><path
         d="m 129.74,478.51 243.74,0 0,53.64 -243.74,0 0,-53.64 z"
         inkscape:connector-curvature="0"
         id="path318" /></clipPath><clipPath
       id="clipPath328"><path
         d="m 129.74,478.51 243.74,0 0,53.64 -243.74,0 0,-53.64 z"
         inkscape:connector-curvature="0"
         id="path330" /></clipPath><clipPath
       id="clipPath340"><path
         d="m 104.31,364.96 138.36,0 0,51.12 -138.36,0 0,-51.12 z"
         inkscape:connector-curvature="0"
         id="path342" /></clipPath><clipPath
       id="clipPath348"><path
         d="m 104.3,364.97 138.36,0 0,51.12 -138.36,0 0,-51.12 z"
         inkscape:connector-curvature="0"
         id="path350" /></clipPath><clipPath
       id="clipPath360"><path
         d="m 104.3,364.97 138.36,0 0,51.12 -138.36,0 0,-51.12 z"
         inkscape:connector-curvature="0"
         id="path362" /></clipPath><clipPath
       id="clipPath368"><path
         d="m 104.3,364.97 138.36,0 0,51.12 -138.36,0 0,-51.12 z"
         inkscape:connector-curvature="0"
         id="path370" /></clipPath><clipPath
       id="clipPath376"><path
         d="m 104.3,364.97 138.36,0 0,51.12 -138.36,0 0,-51.12 z"
         inkscape:connector-curvature="0"
         id="path378" /></clipPath><clipPath
       id="clipPath388"><path
         d="m 104.3,364.97 138.36,0 0,51.12 -138.36,0 0,-51.12 z"
         inkscape:connector-curvature="0"
         id="path390" /></clipPath><clipPath
       id="clipPath396"><path
         d="m 104.3,364.97 138.36,0 0,51.12 -138.36,0 0,-51.12 z"
         inkscape:connector-curvature="0"
         id="path398" /></clipPath><clipPath
       id="clipPath408"><path
         d="m 104.3,364.97 138.36,0 0,51.12 -138.36,0 0,-51.12 z"
         inkscape:connector-curvature="0"
         id="path410" /></clipPath><clipPath
       id="clipPath420"><path
         d="m 260.79,364.96 138.38,0 0,51.12 -138.38,0 0,-51.12 z"
         inkscape:connector-curvature="0"
         id="path422" /></clipPath><clipPath
       id="clipPath428"><path
         d="m 260.78,364.97 138.38,0 0,51.12 -138.38,0 0,-51.12 z"
         inkscape:connector-curvature="0"
         id="path430" /></clipPath><clipPath
       id="clipPath440"><path
         d="m 260.78,364.97 138.38,0 0,51.12 -138.38,0 0,-51.12 z"
         inkscape:connector-curvature="0"
         id="path442" /></clipPath><clipPath
       id="clipPath448"><path
         d="m 260.78,364.97 138.38,0 0,51.12 -138.38,0 0,-51.12 z"
         inkscape:connector-curvature="0"
         id="path450" /></clipPath><clipPath
       id="clipPath456"><path
         d="m 260.78,364.97 138.38,0 0,51.12 -138.38,0 0,-51.12 z"
         inkscape:connector-curvature="0"
         id="path458" /></clipPath><clipPath
       id="clipPath468"><path
         d="m 260.78,364.97 138.38,0 0,51.12 -138.38,0 0,-51.12 z"
         inkscape:connector-curvature="0"
         id="path470" /></clipPath><clipPath
       id="clipPath476"><path
         d="m 260.78,364.97 138.38,0 0,51.12 -138.38,0 0,-51.12 z"
         inkscape:connector-curvature="0"
         id="path478" /></clipPath><clipPath
       id="clipPath488"><path
         d="m 260.78,364.97 138.38,0 0,51.12 -138.38,0 0,-51.12 z"
         inkscape:connector-curvature="0"
         id="path490" /></clipPath></defs><g
     transform="matrix(1.25,0,0,-1.25,-129.40625,718.03125)"
     id="g10"><path
       d="m 272.85,461.85 57.1,-41.65"
       inkscape:connector-curvature="0"
       id="path12"
       style="fill:none;stroke:#000000;stroke-width:0.75;stroke-linecap:round;stroke-linejoin:round;stroke-miterlimit:10;stroke-opacity:1;stroke-dasharray:none" /><path
       d="m 130,472.25 243.5,0 0,101.8 -243.5,0 0,-101.8 z"
       inkscape:connector-curvature="0"
       id="path14"
       style="fill:none;stroke:#000000;stroke-width:0.75;stroke-linecap:round;stroke-linejoin:miter;stroke-miterlimit:8;stroke-opacity:1;stroke-dasharray:none" /><g
       id="g16"><g
         clip-path="url(#clipPath20)"
         id="g18"><g
           id="g24"><g
             clip-path="url(#clipPath28)"
             id="g26" /></g></g></g><g
       id="g32"><g
         clip-path="url(#clipPath36)"
         id="g34"><g
           id="g40"><g
             clip-path="url(#clipPath44)"
             id="g42"><text
   transform="matrix(1,0,0,-1,222.62,558.79)"
   id="text48"><tspan
     x="0 8.6639996 15.996 19.332001 22.667999 29.388 36.096001 40.091999 43.428001 50.759998"
     y="0"
     id="tspan50"
     style="font-size:12px;font-variant:normal;font-weight:bold;writing-mode:lr-tb;fill:#000000;fill-opacity:1;fill-rule:nonzero;stroke:none;font-family:Helvetica;-inkscape-font-specification:Helvetica-Bold">Collection</tspan></text>

</g></g><g
           id="g52"><g
             clip-path="url(#clipPath56)"
             id="g54" /></g><g
           id="g60"><g
             clip-path="url(#clipPath64)"
             id="g62"><text
   transform="matrix(1,0,0,-1,226.22,544.99)"
   id="text68"><tspan
     x="0 3.96 10.668 17.375999 23.375999 26.712 30.708 37.380001 43.403999 46.740002"
     y="0"
     id="tspan70"
     style="font-size:12px;font-variant:normal;font-weight:normal;writing-mode:lr-tb;fill:#000000;fill-opacity:1;fill-rule:nonzero;stroke:none;font-family:Helvetica;-inkscape-font-specification:Helvetica">{abstract}</tspan></text>

</g></g><g
           id="g72"><g
             clip-path="url(#clipPath76)"
             id="g74" /></g><g
           id="g80"><g
             clip-path="url(#clipPath84)"
             id="g82" /></g></g></g><path
       d="m 130,538.65 243.5,0"
       inkscape:connector-curvature="0"
       id="path88"
       style="fill:none;stroke:#000000;stroke-width:0.75;stroke-linecap:round;stroke-linejoin:round;stroke-miterlimit:8;stroke-opacity:1;stroke-dasharray:none" /><path
       d="M 244.1,472.25 173.55,420.2"
       inkscape:connector-curvature="0"
       id="path90"
       style="fill:none;stroke:#000000;stroke-width:0.75;stroke-linecap:round;stroke-linejoin:round;stroke-miterlimit:8;stroke-opacity:1;stroke-dasharray:none" /><path
       d="m 243.5,471.81 -17.4,-2.97 9.9,-13.01 7.5,15.98 z"
       inkscape:connector-curvature="0"
       id="path92"
       style="fill:#ffffff;fill-opacity:1;fill-rule:evenodd;stroke:none" /><path
       d="m 243.5,471.81 -17.4,-2.97 9.9,-13.01 7.5,15.98 z"
       inkscape:connector-curvature="0"
       id="path94"
       style="fill:none;stroke:#000000;stroke-width:0.75;stroke-linecap:round;stroke-linejoin:round;stroke-miterlimit:8;stroke-opacity:1;stroke-dasharray:none" /><path
       d="m 259.57,471.71 17.79,-3.5 -9.36,-12.54 -8.43,16.04 z"
       inkscape:connector-curvature="0"
       id="path96"
       style="fill:#ffffff;fill-opacity:1;fill-rule:evenodd;stroke:none" /><path
       d="m 259.57,471.71 17.79,-3.5 -9.36,-12.54 -8.43,16.04 z"
       inkscape:connector-curvature="0"
       id="path98"
       style="fill:none;stroke:#000000;stroke-width:0.75;stroke-linecap:round;stroke-linejoin:round;stroke-miterlimit:8;stroke-opacity:1;stroke-dasharray:none" /><g
       id="g100"><g
         clip-path="url(#clipPath104)"
         id="g102"><g
           id="g108"><g
             clip-path="url(#clipPath112)"
             id="g110"><text
   transform="matrix(1,0,0,-1,136.94,521.11)"
   id="text116"><tspan
     x="0"
     y="0"
     id="tspan118"
     style="font-size:12px;font-variant:normal;font-weight:normal;writing-mode:lr-tb;fill:#000000;fill-opacity:1;fill-rule:nonzero;stroke:none;font-family:Helvetica;-inkscape-font-specification:Helvetica">+</tspan></text>

</g></g><g
           id="g120"><g
             clip-path="url(#clipPath124)"
             id="g122" /></g><g
           id="g128"><g
             clip-path="url(#clipPath132)"
             id="g130"><text
   transform="matrix(1,0,0,-1,147.26,521.11)"
   id="text136"><tspan
     x="0 6 12.708 19.416 22.752001 29.483999 32.147999 38.82"
     y="0"
     id="tspan138"
     style="font-size:12px;font-variant:normal;font-weight:normal;writing-mode:lr-tb;fill:#000000;fill-opacity:1;fill-rule:nonzero;stroke:none;font-family:Helvetica;-inkscape-font-specification:Helvetica">contains</tspan></text>

</g></g><g
           id="g140"><g
             clip-path="url(#clipPath144)"
             id="g142" /></g><g
           id="g148"><g
             clip-path="url(#clipPath152)"
             id="g150"><text
   transform="matrix(1,0,0,-1,195.38,521.11)"
   id="text156"><tspan
     x="0"
     y="0"
     id="tspan158"
     style="font-size:12px;font-variant:normal;font-weight:normal;writing-mode:lr-tb;fill:#000000;fill-opacity:1;fill-rule:nonzero;stroke:none;font-family:Helvetica;-inkscape-font-specification:Helvetica">(</tspan></text>

</g></g><g
           id="g160"><g
             clip-path="url(#clipPath164)"
             id="g162"><text
   transform="matrix(1,0,0,-1,199.34,521.11)"
   id="text168"><tspan
     x="0 9.3360004 16.068001 18.732 25.403999 31.403999 34.776001 38.015999"
     y="0"
     id="tspan170"
     style="font-size:12px;font-variant:normal;font-weight:normal;writing-mode:lr-tb;fill:#000000;fill-opacity:1;fill-rule:nonzero;stroke:none;font-family:Helvetica;-inkscape-font-specification:Helvetica">Object o</tspan></text>

</g></g><g
           id="g172"><g
             clip-path="url(#clipPath176)"
             id="g174"><text
   transform="matrix(1,0,0,-1,244.1,521.11)"
   id="text180"><tspan
     x="0"
     y="0"
     id="tspan182"
     style="font-size:12px;font-variant:normal;font-weight:normal;writing-mode:lr-tb;fill:#000000;fill-opacity:1;fill-rule:nonzero;stroke:none;font-family:Helvetica;-inkscape-font-specification:Helvetica">)</tspan></text>

</g></g><g
           id="g184"><g
             clip-path="url(#clipPath188)"
             id="g186" /></g><g
           id="g192"><g
             clip-path="url(#clipPath196)"
             id="g194"><text
   transform="matrix(1,0,0,-1,251.42,521.11)"
   id="text200"><tspan
     x="0 3.96 6.6240001 13.296 19.92 23.388"
     y="0"
     id="tspan202"
     style="font-size:12px;font-variant:normal;font-weight:normal;writing-mode:lr-tb;fill:#000000;fill-opacity:1;fill-rule:nonzero;stroke:none;font-family:Helvetica;-inkscape-font-specification:Helvetica">{leaf}</tspan></text>

</g></g><g
           id="g204"><g
             clip-path="url(#clipPath208)"
             id="g206" /></g><g
           id="g212"><g
             clip-path="url(#clipPath216)"
             id="g214"><text
   transform="matrix(1,0,0,-1,136.94,507.31)"
   id="text220"><tspan
     x="0"
     y="0"
     id="tspan222"
     style="font-size:12px;font-variant:normal;font-weight:normal;writing-mode:lr-tb;fill:#000000;fill-opacity:1;fill-rule:nonzero;stroke:none;font-family:Helvetica;-inkscape-font-specification:Helvetica">#</tspan></text>

</g></g><g
           id="g224"><g
             clip-path="url(#clipPath228)"
             id="g226" /></g><g
           id="g232"><g
             clip-path="url(#clipPath236)"
             id="g234"><text
   transform="matrix(1,0,0,-1,147.02,507.31)"
   id="text240"><tspan
     x="0 6.7080002 13.416 19.416 29.412001 36.084 39.936001 46.644001 54.672001 57.335999 63.911999 73.980003 80.688004 87.288002 90.624001 96.624001 100.62"
     y="0"
     id="tspan242"
     style="font-size:12px;font-variant:normal;font-weight:normal;writing-mode:lr-tb;fill:#000000;fill-opacity:1;fill-rule:nonzero;stroke:none;font-family:Helvetica;-inkscape-font-specification:Helvetica">hasMoreElements()</tspan></text>

</g></g><g
           id="g244"><g
             clip-path="url(#clipPath248)"
             id="g246" /></g><g
           id="g252"><g
             clip-path="url(#clipPath256)"
             id="g254"><text
   transform="matrix(1,0,0,-1,255.02,507.31)"
   id="text260"><tspan
     x="0 3.96 10.668 17.375999 23.375999 26.712 30.708 37.380001 43.403999 46.740002"
     y="0"
     id="tspan262"
     style="font-size:12px;font-variant:normal;font-weight:normal;writing-mode:lr-tb;fill:#000000;fill-opacity:1;fill-rule:nonzero;stroke:none;font-family:Helvetica;-inkscape-font-specification:Helvetica">{abstract}</tspan></text>

</g></g><g
           id="g264"><g
             clip-path="url(#clipPath268)"
             id="g266" /></g><g
           id="g272"><g
             clip-path="url(#clipPath276)"
             id="g274"><text
   transform="matrix(1,0,0,-1,136.94,493.51)"
   id="text280"><tspan
     x="0"
     y="0"
     id="tspan282"
     style="font-size:12px;font-variant:normal;font-weight:normal;writing-mode:lr-tb;fill:#000000;fill-opacity:1;fill-rule:nonzero;stroke:none;font-family:Helvetica;-inkscape-font-specification:Helvetica">#</tspan></text>

</g></g><g
           id="g284"><g
             clip-path="url(#clipPath288)"
             id="g286" /></g><g
           id="g292"><g
             clip-path="url(#clipPath296)"
             id="g294"><text
   transform="matrix(1,0,0,-1,147.02,493.51)"
   id="text300"><tspan
     x="0 6.7080002 13.416 19.296 22.632 30.684 33.348 39.924 49.992001 56.700001 63.299999 66.636002 70.632004"
     y="0"
     id="tspan302"
     style="font-size:12px;font-variant:normal;font-weight:normal;writing-mode:lr-tb;fill:#000000;fill-opacity:1;fill-rule:nonzero;stroke:none;font-family:Helvetica;-inkscape-font-specification:Helvetica">nextElement()</tspan></text>

</g></g><g
           id="g304"><g
             clip-path="url(#clipPath308)"
             id="g306" /></g><g
           id="g312"><g
             clip-path="url(#clipPath316)"
             id="g314"><text
   transform="matrix(1,0,0,-1,225.02,493.51)"
   id="text320"><tspan
     x="0 3.96 10.668 17.375999 23.375999 26.712 30.576 37.284 43.284 46.619999"
     y="0"
     id="tspan322"
     style="font-size:12px;font-variant:normal;font-weight:normal;writing-mode:lr-tb;fill:#000000;fill-opacity:1;fill-rule:nonzero;stroke:none;font-family:Helvetica;-inkscape-font-specification:Helvetica">{abstract}</tspan></text>

</g></g><g
           id="g324"><g
             clip-path="url(#clipPath328)"
             id="g326" /></g></g></g><path
       d="m 103.9,361.05 139.15,0 0,59.15 -139.15,0 0,-59.15 z"
       inkscape:connector-curvature="0"
       id="path332"
       style="fill:#ffffff;fill-opacity:1;fill-rule:evenodd;stroke:none" /><path
       d="m 103.9,361.05 139.15,0 0,59.15 -139.15,0 0,-59.15 z"
       inkscape:connector-curvature="0"
       id="path334"
       style="fill:none;stroke:#000000;stroke-width:0.75;stroke-linecap:round;stroke-linejoin:miter;stroke-miterlimit:8;stroke-opacity:1;stroke-dasharray:none" /><g
       id="g336"><g
         clip-path="url(#clipPath340)"
         id="g338"><g
           id="g344"><g
             clip-path="url(#clipPath348)"
             id="g346"><text
   transform="matrix(1,0,0,-1,143.42,405.05)"
   id="text352"><tspan
     x="0 7.3319998 10.668 18 24.708 31.416 38.748001 46.080002 49.416 56.124001"
     y="0"
     id="tspan354"
     style="font-size:12px;font-variant:normal;font-weight:bold;writing-mode:lr-tb;fill:#000000;fill-opacity:1;fill-rule:nonzero;stroke:none;font-family:Helvetica;-inkscape-font-specification:Helvetica-Bold">LinkedList</tspan></text>

</g></g><g
           id="g356"><g
             clip-path="url(#clipPath360)"
             id="g358" /></g><g
           id="g364"><g
             clip-path="url(#clipPath368)"
             id="g366" /></g><g
           id="g372"><g
             clip-path="url(#clipPath376)"
             id="g374"><text
   transform="matrix(1,0,0,-1,111.5,382.13)"
   id="text380"><tspan
     x="0 6.7080002 10.044 16.775999 23.483999 29.483999 39.48 46.152 50.004002 56.712002 64.739998 67.403999 73.980003 84.047997 90.755997 97.356003 100.692 106.692 110.688"
     y="0"
     id="tspan382"
     style="font-size:12px;font-variant:normal;font-weight:normal;writing-mode:lr-tb;fill:#000000;fill-opacity:1;fill-rule:nonzero;stroke:none;font-family:Helvetica;-inkscape-font-specification:Helvetica"># hasMoreElements()</tspan></text>

</g></g><g
           id="g384"><g
             clip-path="url(#clipPath388)"
             id="g386" /></g><g
           id="g392"><g
             clip-path="url(#clipPath396)"
             id="g394"><text
   transform="matrix(1,0,0,-1,111.5,368.33)"
   id="text400"><tspan
     x="0 6.7080002 10.044 16.775999 23.483999 29.364 32.700001 40.751999 43.416 49.992001 60.060001 66.767998 73.367996 76.704002 80.699997"
     y="0"
     id="tspan402"
     style="font-size:12px;font-variant:normal;font-weight:normal;writing-mode:lr-tb;fill:#000000;fill-opacity:1;fill-rule:nonzero;stroke:none;font-family:Helvetica;-inkscape-font-specification:Helvetica"># nextElement()</tspan></text>

</g></g><g
           id="g404"><g
             clip-path="url(#clipPath408)"
             id="g406" /></g></g></g><path
       d="m 260.35,361.05 139.15,0 0,59.15 -139.15,0 0,-59.15 z"
       inkscape:connector-curvature="0"
       id="path412"
       style="fill:#ffffff;fill-opacity:1;fill-rule:evenodd;stroke:none" /><path
       d="m 260.35,361.05 139.15,0 0,59.15 -139.15,0 0,-59.15 z"
       inkscape:connector-curvature="0"
       id="path414"
       style="fill:none;stroke:#000000;stroke-width:0.75;stroke-linecap:round;stroke-linejoin:miter;stroke-miterlimit:8;stroke-opacity:1;stroke-dasharray:none" /><g
       id="g416"><g
         clip-path="url(#clipPath420)"
         id="g418"><g
           id="g424"><g
             clip-path="url(#clipPath428)"
             id="g426"><text
   transform="matrix(1,0,0,-1,313.97,405.05)"
   id="text432"><tspan
     x="0 8.0279999 12.024 18.695999 25.416"
     y="0"
     id="tspan434"
     style="font-size:12px;font-variant:normal;font-weight:bold;writing-mode:lr-tb;fill:#000000;fill-opacity:1;fill-rule:nonzero;stroke:none;font-family:Helvetica;-inkscape-font-specification:Helvetica-Bold">Stack</tspan></text>

</g></g><g
           id="g436"><g
             clip-path="url(#clipPath440)"
             id="g438" /></g><g
           id="g444"><g
             clip-path="url(#clipPath448)"
             id="g446" /></g><g
           id="g452"><g
             clip-path="url(#clipPath456)"
             id="g454"><text
   transform="matrix(1,0,0,-1,267.98,382.13)"
   id="text460"><tspan
     x="0 6.7080002 10.044 16.775999 23.483999 29.483999 39.48 46.152 50.004002 56.712002 64.739998 67.403999 73.980003 84.047997 90.755997 97.356003 100.692 106.692 110.688"
     y="0"
     id="tspan462"
     style="font-size:12px;font-variant:normal;font-weight:normal;writing-mode:lr-tb;fill:#000000;fill-opacity:1;fill-rule:nonzero;stroke:none;font-family:Helvetica;-inkscape-font-specification:Helvetica"># hasMoreElements()</tspan></text>

</g></g><g
           id="g464"><g
             clip-path="url(#clipPath468)"
             id="g466" /></g><g
           id="g472"><g
             clip-path="url(#clipPath476)"
             id="g474"><text
   transform="matrix(1,0,0,-1,267.98,368.33)"
   id="text480"><tspan
     x="0 6.7080002 10.044 16.775999 23.483999 29.364 32.700001 40.751999 43.416 49.992001 60.060001 66.767998 73.367996 76.704002 80.699997"
     y="0"
     id="tspan482"
     style="font-size:12px;font-variant:normal;font-weight:normal;writing-mode:lr-tb;fill:#000000;fill-opacity:1;fill-rule:nonzero;stroke:none;font-family:Helvetica;-inkscape-font-specification:Helvetica"># nextElement()</tspan></text>

</g></g><g
           id="g484"><g
             clip-path="url(#clipPath488)"
             id="g486" /></g></g></g></g></svg>