<?xml version="1.0" encoding="UTF-8" standalone="no"?>
<!-- Created with Inkscape (http://www.inkscape.org/) -->

<svg
   xmlns:dc="http://purl.org/dc/elements/1.1/"
   xmlns:cc="http://creativecommons.org/ns#"
   xmlns:rdf="http://www.w3.org/1999/02/22-rdf-syntax-ns#"
   xmlns:svg="http://www.w3.org/2000/svg"
   xmlns="http://www.w3.org/2000/svg"
   xmlns:sodipodi="http://sodipodi.sourceforge.net/DTD/sodipodi-0.dtd"
   xmlns:inkscape="http://www.inkscape.org/namespaces/inkscape"
   version="1.1"
   width="554.75"
   height="230.8125"
   id="svg2"
   xml:space="preserve"
   inkscape:version="0.48.4 r9939"
   sodipodi:docname="Bild 4-55 Klassendiagramm des Fabrikmethode-Musters mit abstrakten Klassen.svg"><sodipodi:namedview
     pagecolor="#ffffff"
     bordercolor="#666666"
     borderopacity="1"
     objecttolerance="10"
     gridtolerance="10"
     guidetolerance="10"
     inkscape:pageopacity="0"
     inkscape:pageshadow="2"
     inkscape:window-width="640"
     inkscape:window-height="480"
     id="namedview243"
     showgrid="false"
     inkscape:zoom="0.18730159"
     inkscape:cx="124.71875"
     inkscape:cy="0.78125"
     inkscape:window-x="0"
     inkscape:window-y="0"
     inkscape:window-maximized="0"
     inkscape:current-layer="svg2" /><metadata
     id="metadata8"><rdf:RDF><cc:Work
         rdf:about=""><dc:format>image/svg+xml</dc:format><dc:type
           rdf:resource="http://purl.org/dc/dcmitype/StillImage" /></cc:Work></rdf:RDF></metadata><defs
     id="defs6"><clipPath
       id="clipPath18"><path
         d="m 579.2,540.19 108.62,0 0,15.24 -108.62,0 0,-15.24 z"
         inkscape:connector-curvature="0"
         id="path20" /></clipPath><clipPath
       id="clipPath26"><path
         d="m 579.19,540.19 108.62,0 0,15.24 -108.62,0 0,-15.24 z"
         inkscape:connector-curvature="0"
         id="path28" /></clipPath><clipPath
       id="clipPath38"><path
         d="m 579.19,540.19 108.62,0 0,15.24 -108.62,0 0,-15.24 z"
         inkscape:connector-curvature="0"
         id="path40" /></clipPath><clipPath
       id="clipPath50"><path
         d="m 579.19,540.19 108.62,0 0,15.24 -108.62,0 0,-15.24 z"
         inkscape:connector-curvature="0"
         id="path52" /></clipPath><clipPath
       id="clipPath60"><path
         d="m 579.44,509.47 102.5,0 0,27.12 -102.5,0 0,-27.12 z"
         inkscape:connector-curvature="0"
         id="path62" /></clipPath><clipPath
       id="clipPath68"><path
         d="m 579.43,509.47 102.5,0 0,27.12 -102.5,0 0,-27.12 z"
         inkscape:connector-curvature="0"
         id="path70" /></clipPath><clipPath
       id="clipPath80"><path
         d="m 579.43,509.47 102.5,0 0,27.12 -102.5,0 0,-27.12 z"
         inkscape:connector-curvature="0"
         id="path82" /></clipPath><clipPath
       id="clipPath92"><path
         d="m 579.43,509.47 102.5,0 0,27.12 -102.5,0 0,-27.12 z"
         inkscape:connector-curvature="0"
         id="path94" /></clipPath><clipPath
       id="clipPath100"><path
         d="m 579.43,509.47 102.5,0 0,27.12 -102.5,0 0,-27.12 z"
         inkscape:connector-curvature="0"
         id="path102" /></clipPath><clipPath
       id="clipPath112"><path
         d="m 579.44,623.59 102.5,0 0,27 -102.5,0 0,-27 z"
         inkscape:connector-curvature="0"
         id="path114" /></clipPath><clipPath
       id="clipPath120"><path
         d="m 579.43,623.59 102.5,0 0,27 -102.5,0 0,-27 z"
         inkscape:connector-curvature="0"
         id="path122" /></clipPath><clipPath
       id="clipPath132"><path
         d="m 579.43,623.59 102.5,0 0,27 -102.5,0 0,-27 z"
         inkscape:connector-curvature="0"
         id="path134" /></clipPath><clipPath
       id="clipPath144"><path
         d="m 579.43,623.59 102.5,0 0,27 -102.5,0 0,-27 z"
         inkscape:connector-curvature="0"
         id="path146" /></clipPath><clipPath
       id="clipPath152"><path
         d="m 579.43,623.59 102.5,0 0,27 -102.5,0 0,-27 z"
         inkscape:connector-curvature="0"
         id="path154" /></clipPath><clipPath
       id="clipPath164"><path
         d="m 579.43,623.59 102.5,0 0,27 -102.5,0 0,-27 z"
         inkscape:connector-curvature="0"
         id="path166" /></clipPath><clipPath
       id="clipPath176"><path
         d="m 579.43,623.59 102.5,0 0,27 -102.5,0 0,-27 z"
         inkscape:connector-curvature="0"
         id="path178" /></clipPath><clipPath
       id="clipPath188"><path
         d="m 579.43,623.59 102.5,0 0,27 -102.5,0 0,-27 z"
         inkscape:connector-curvature="0"
         id="path190" /></clipPath><clipPath
       id="clipPath196"><path
         d="m 578.96,652.51 108.62,0 0,31.695 -108.62,0 0,-31.695 z"
         inkscape:connector-curvature="0"
         id="path198" /></clipPath><clipPath
       id="clipPath204"><path
         d="m 578.95,652.51 108.62,0 0,31.704 -108.62,0 0,-31.704 z"
         inkscape:connector-curvature="0"
         id="path206" /></clipPath><clipPath
       id="clipPath216"><path
         d="m 578.95,652.51 108.62,0 0,31.704 -108.62,0 0,-31.704 z"
         inkscape:connector-curvature="0"
         id="path218" /></clipPath><clipPath
       id="clipPath224"><path
         d="m 578.95,652.51 108.62,0 0,31.704 -108.62,0 0,-31.704 z"
         inkscape:connector-curvature="0"
         id="path226" /></clipPath><clipPath
       id="clipPath236"><path
         d="m 578.95,652.51 108.62,0 0,31.704 -108.62,0 0,-31.704 z"
         inkscape:connector-curvature="0"
         id="path238" /></clipPath><clipPath
       id="clipPath244"><path
         d="m 578.95,652.51 108.62,0 0,31.704 -108.62,0 0,-31.704 z"
         inkscape:connector-curvature="0"
         id="path246" /></clipPath><clipPath
       id="clipPath254"><path
         d="m 413.81,625.63 90.51,0 0,31.8 -90.51,0 0,-31.8 z"
         inkscape:connector-curvature="0"
         id="path256" /></clipPath><clipPath
       id="clipPath262"><path
         d="m 413.81,625.63 90.504,0 0,31.8 -90.504,0 0,-31.8 z"
         inkscape:connector-curvature="0"
         id="path264" /></clipPath><clipPath
       id="clipPath274"><path
         d="m 413.81,625.63 90.504,0 0,31.8 -90.504,0 0,-31.8 z"
         inkscape:connector-curvature="0"
         id="path276" /></clipPath><clipPath
       id="clipPath282"><path
         d="m 413.81,625.63 90.504,0 0,31.8 -90.504,0 0,-31.8 z"
         inkscape:connector-curvature="0"
         id="path284" /></clipPath><clipPath
       id="clipPath294"><path
         d="m 413.81,625.63 90.504,0 0,31.8 -90.504,0 0,-31.8 z"
         inkscape:connector-curvature="0"
         id="path296" /></clipPath><clipPath
       id="clipPath302"><path
         d="m 413.81,625.63 90.504,0 0,31.8 -90.504,0 0,-31.8 z"
         inkscape:connector-curvature="0"
         id="path304" /></clipPath><clipPath
       id="clipPath310"><path
         d="m 413.81,625.63 90.504,0 0,31.8 -90.504,0 0,-31.8 z"
         inkscape:connector-curvature="0"
         id="path312" /></clipPath><clipPath
       id="clipPath318"><path
         d="m 403.85,540.55 110.31,0 0,15 -110.31,0 0,-15 z"
         inkscape:connector-curvature="0"
         id="path320" /></clipPath><clipPath
       id="clipPath326"><path
         d="m 403.85,540.55 110.3,0 0,15 -110.3,0 0,-15 z"
         inkscape:connector-curvature="0"
         id="path328" /></clipPath><clipPath
       id="clipPath338"><path
         d="m 403.85,540.55 110.3,0 0,15 -110.3,0 0,-15 z"
         inkscape:connector-curvature="0"
         id="path340" /></clipPath><clipPath
       id="clipPath350"><path
         d="m 403.85,540.55 110.3,0 0,15 -110.3,0 0,-15 z"
         inkscape:connector-curvature="0"
         id="path352" /></clipPath><clipPath
       id="clipPath376"><path
         d="m 712.65,507.67 135.03,0 0,33.48 -135.03,0 0,-33.48 z"
         inkscape:connector-curvature="0"
         id="path378" /></clipPath><clipPath
       id="clipPath384"><path
         d="m 712.66,507.67 135.02,0 0,33.48 -135.02,0 0,-33.48 z"
         inkscape:connector-curvature="0"
         id="path386" /></clipPath><clipPath
       id="clipPath396"><path
         d="m 712.66,507.67 135.02,0 0,33.48 -135.02,0 0,-33.48 z"
         inkscape:connector-curvature="0"
         id="path398" /></clipPath><clipPath
       id="clipPath404"><path
         d="m 712.66,507.67 135.02,0 0,33.48 -135.02,0 0,-33.48 z"
         inkscape:connector-curvature="0"
         id="path406" /></clipPath><clipPath
       id="clipPath416"><path
         d="m 712.66,507.67 135.02,0 0,33.48 -135.02,0 0,-33.48 z"
         inkscape:connector-curvature="0"
         id="path418" /></clipPath><clipPath
       id="clipPath428"><path
         d="m 712.66,507.67 135.02,0 0,33.48 -135.02,0 0,-33.48 z"
         inkscape:connector-curvature="0"
         id="path430" /></clipPath><clipPath
       id="clipPath440"><path
         d="m 712.66,507.67 135.02,0 0,33.48 -135.02,0 0,-33.48 z"
         inkscape:connector-curvature="0"
         id="path442" /></clipPath><clipPath
       id="clipPath462"><path
         d="m 513.56,589.99 78.36,0 0,13.32 -78.36,0 0,-13.32 z"
         inkscape:connector-curvature="0"
         id="path464" /></clipPath><clipPath
       id="clipPath470"><path
         d="m 513.55,589.99 78.36,0 0,13.32 -78.36,0 0,-13.32 z"
         inkscape:connector-curvature="0"
         id="path472" /></clipPath><clipPath
       id="clipPath482"><path
         d="m 513.55,589.99 78.36,0 0,13.32 -78.36,0 0,-13.32 z"
         inkscape:connector-curvature="0"
         id="path484" /></clipPath></defs><g
     transform="matrix(1.25,0,0,-1.25,-505.65625,860.03125)"
     id="g10"><path
       d="m 413.8,625.75 90.5,0 0,34.95 -90.5,0 0,-34.95 z"
       inkscape:connector-curvature="0"
       id="path12"
       style="fill:none;stroke:#000000;stroke-width:0.75;stroke-linecap:round;stroke-linejoin:miter;stroke-miterlimit:10;stroke-opacity:1;stroke-dasharray:none" /><g
       id="g14"><g
         clip-path="url(#clipPath18)"
         id="g16"><g
           id="g22"><g
             clip-path="url(#clipPath26)"
             id="g24"><text
   transform="matrix(1,0,0,-1,585.07,545.95)"
   id="text30"><tspan
     x="0 7.1911201 13.30656 19.412041 24.9498 28.774441 34.312199 37.62888 43.28616 47.130718 53.843761 57.68832 62.718121 68.255882 74.341438 80.466843 86.004601"
     y="0"
     id="tspan32"
     style="font-size:9.96000004px;font-variant:normal;font-weight:bold;writing-mode:lr-tb;fill:#000000;fill-opacity:1;fill-rule:nonzero;stroke:none;font-family:Helvetica;-inkscape-font-specification:Helvetica-Bold">KonkreterErzeuger</tspan></text>

</g></g><g
           id="g34"><g
             clip-path="url(#clipPath38)"
             id="g36"><text
   transform="matrix(1,0,0,-1,675.1,545.95)"
   id="text42"><tspan
     x="0"
     y="0"
     id="tspan44"
     style="font-size:9.96000004px;font-variant:normal;font-weight:bold;writing-mode:lr-tb;fill:#000000;fill-opacity:1;fill-rule:nonzero;stroke:none;font-family:Helvetica;-inkscape-font-specification:Helvetica-Bold">X</tspan></text>

</g></g><g
           id="g46"><g
             clip-path="url(#clipPath50)"
             id="g48" /></g></g></g><path
       d="m 579.35,509.5 102.5,0 0,27.15 -102.5,0 0,-27.15 z"
       inkscape:connector-curvature="0"
       id="path54"
       style="fill:#ffffff;fill-opacity:1;fill-rule:evenodd;stroke:none" /><g
       id="g56"><g
         clip-path="url(#clipPath60)"
         id="g58"><g
           id="g64"><g
             clip-path="url(#clipPath68)"
             id="g66"><text
   transform="matrix(1,0,0,-1,584.11,529.27)"
   id="text72"><tspan
     x="0 4.6953602 6.9545999 11.39268 15.83076 18.46788 20.25276 24.22452 31.058519 35.375999 37.651321 42.089401 46.527481 50.965561 55.403641 58.04076 60.677879 62.953201 65.115959"
     y="0"
     id="tspan74"
     style="font-size:8.03999996px;font-variant:normal;font-weight:normal;writing-mode:lr-tb;fill:#000000;fill-opacity:1;fill-rule:nonzero;stroke:none;font-family:Helvetica;-inkscape-font-specification:Helvetica">+fabrikmethode() : </tspan></text>

</g></g><g
           id="g76"><g
             clip-path="url(#clipPath80)"
             id="g78"><text
   transform="matrix(1,0,0,-1,651.55,529.27)"
   id="text84"><tspan
     x="0 5.3948398 8.0319595 12.47004 16.908119 21.346201 25.309919"
     y="0"
     id="tspan86"
     style="font-size:8.03999996px;font-variant:normal;font-weight:normal;writing-mode:lr-tb;fill:#000000;fill-opacity:1;fill-rule:nonzero;stroke:none;font-family:Helvetica;-inkscape-font-specification:Helvetica">Produkt</tspan></text>

</g></g><g
           id="g88"><g
             clip-path="url(#clipPath92)"
             id="g90" /></g><g
           id="g96"><g
             clip-path="url(#clipPath100)"
             id="g98" /></g></g></g><path
       d="m 579.35,503.75 108.6,0 0,53.5 -108.6,0 0,-53.5 z"
       inkscape:connector-curvature="0"
       id="path104"
       style="fill:none;stroke:#000000;stroke-width:0.75;stroke-linecap:round;stroke-linejoin:miter;stroke-miterlimit:10;stroke-opacity:1;stroke-dasharray:none" /><path
       d="m 579.35,623.55 102.5,0 0,27.15 -102.5,0 0,-27.15 z"
       inkscape:connector-curvature="0"
       id="path106"
       style="fill:#ffffff;fill-opacity:1;fill-rule:evenodd;stroke:none" /><g
       id="g108"><g
         clip-path="url(#clipPath112)"
         id="g110"><g
           id="g116"><g
             clip-path="url(#clipPath120)"
             id="g118"><text
   transform="matrix(1,0,0,-1,584.11,643.27)"
   id="text124"><tspan
     x="0 4.6953602 9.1173601 13.55544 17.993521 20.63064"
     y="0"
     id="tspan126"
     style="font-size:8.03999996px;font-variant:normal;font-weight:normal;writing-mode:lr-tb;fill:#000000;fill-opacity:1;fill-rule:nonzero;stroke:none;font-family:Helvetica;-inkscape-font-specification:Helvetica">+opera</tspan></text>

</g></g><g
           id="g128"><g
             clip-path="url(#clipPath132)"
             id="g130"><text
   transform="matrix(1,0,0,-1,609.19,643.27)"
   id="text136"><tspan
     x="0 2.2753201 4.0602002 8.5304403 12.95244 15.22776 17.50308 19.7784 23.742121 28.180201 29.96508"
     y="0"
     id="tspan138"
     style="font-size:8.03999996px;font-variant:normal;font-weight:normal;writing-mode:lr-tb;fill:#000000;fill-opacity:1;fill-rule:nonzero;stroke:none;font-family:Helvetica;-inkscape-font-specification:Helvetica">tion : void</tspan></text>

</g></g><g
           id="g140"><g
             clip-path="url(#clipPath144)"
             id="g142" /></g><g
           id="g148"><g
             clip-path="url(#clipPath152)"
             id="g150"><text
   transform="matrix(1,0,0,-1,584.11,633.91)"
   id="text156"><tspan
     x="0"
     y="0"
     id="tspan158"
     style="font-size:8.03999996px;font-variant:normal;font-weight:normal;writing-mode:lr-tb;fill:#000000;fill-opacity:1;fill-rule:nonzero;stroke:none;font-family:Helvetica;-inkscape-font-specification:Helvetica">+</tspan></text>

</g></g><g
           id="g160"><g
             clip-path="url(#clipPath164)"
             id="g162"><text
   transform="matrix(1,0,0,-1,588.79,633.91)"
   id="text168"><tspan
     x="0 2.2753201 6.7133999 11.15148 13.7886 15.57348 19.657801 26.25864 30.69672 32.972038 37.410118 41.848202 46.286282 50.724361 53.361481 55.9986 58.273918 60.43668"
     y="0"
     id="tspan170"
     style="font-size:8.03999996px;font-style:oblique;font-variant:normal;font-weight:normal;writing-mode:lr-tb;fill:#000000;fill-opacity:1;fill-rule:nonzero;stroke:none;font-family:Helvetica;-inkscape-font-specification:Helvetica-Oblique">fabrikmethode() : </tspan></text>

</g></g><g
           id="g172"><g
             clip-path="url(#clipPath176)"
             id="g174"><text
   transform="matrix(1,0,0,-1,651.55,633.91)"
   id="text180"><tspan
     x="0 5.3948398 8.0319595 12.47004 16.908119 21.346201 25.309919"
     y="0"
     id="tspan182"
     style="font-size:8.03999996px;font-style:oblique;font-variant:normal;font-weight:normal;writing-mode:lr-tb;fill:#000000;fill-opacity:1;fill-rule:nonzero;stroke:none;font-family:Helvetica;-inkscape-font-specification:Helvetica-Oblique">Produkt</tspan></text>

</g></g><g
           id="g184"><g
             clip-path="url(#clipPath188)"
             id="g186" /></g></g></g><g
       id="g192"><g
         clip-path="url(#clipPath196)"
         id="g194"><g
           id="g200"><g
             clip-path="url(#clipPath204)"
             id="g202"><text
   transform="matrix(1,0,0,-1,611.83,675.1)"
   id="text208"><tspan
     x="0 6.6034799 10.44804 15.47784 21.0156 27.10116 33.226559 38.853958"
     y="0"
     id="tspan210"
     style="font-size:9.96000004px;font-variant:normal;font-weight:bold;writing-mode:lr-tb;fill:#000000;fill-opacity:1;fill-rule:nonzero;stroke:none;font-family:Helvetica;-inkscape-font-specification:Helvetica-Bold">Erzeuger</tspan></text>

</g></g><g
           id="g212"><g
             clip-path="url(#clipPath216)"
             id="g214" /></g><g
           id="g220"><g
             clip-path="url(#clipPath224)"
             id="g222"><text
   transform="matrix(1,0,0,-1,603.19,664.15)"
   id="text228"><tspan
     x="0 6 12 18 24 30 36 42 48 54"
     y="0"
     id="tspan230"
     style="font-size:9.96000004px;font-variant:normal;font-weight:normal;writing-mode:lr-tb;fill:#000000;fill-opacity:1;fill-rule:nonzero;stroke:none;font-family:Courier New;-inkscape-font-specification:Courier New">{abstract}</tspan></text>

</g></g><g
           id="g232"><g
             clip-path="url(#clipPath236)"
             id="g234" /></g><g
           id="g240"><g
             clip-path="url(#clipPath244)"
             id="g242" /></g></g></g><path
       d="m 578.8,625.75 108.6,0 0,61.9 -108.6,0 0,-61.9 z"
       inkscape:connector-curvature="0"
       id="path248"
       style="fill:none;stroke:#000000;stroke-width:0.75;stroke-linecap:round;stroke-linejoin:miter;stroke-miterlimit:10;stroke-opacity:1;stroke-dasharray:none" /><g
       id="g250"><g
         clip-path="url(#clipPath254)"
         id="g252"><g
           id="g258"><g
             clip-path="url(#clipPath262)"
             id="g260"><text
   transform="matrix(1,0,0,-1,440.09,648.31)"
   id="text266"><tspan
     x="0 6.6034799 10.44804 16.55352 22.659 28.764481 34.302238"
     y="0"
     id="tspan268"
     style="font-size:9.96000004px;font-variant:normal;font-weight:bold;writing-mode:lr-tb;fill:#000000;fill-opacity:1;fill-rule:nonzero;stroke:none;font-family:Helvetica;-inkscape-font-specification:Helvetica-Bold">Produkt</tspan></text>

</g></g><g
           id="g270"><g
             clip-path="url(#clipPath274)"
             id="g272" /></g><g
           id="g278"><g
             clip-path="url(#clipPath282)"
             id="g280"><text
   transform="matrix(1,0,0,-1,429.05,637.39)"
   id="text286"><tspan
     x="0 6 12 18 24 30 36 42 48 54"
     y="0"
     id="tspan288"
     style="font-size:9.96000004px;font-variant:normal;font-weight:normal;writing-mode:lr-tb;fill:#000000;fill-opacity:1;fill-rule:nonzero;stroke:none;font-family:Courier New;-inkscape-font-specification:Courier New">{abstract}</tspan></text>

</g></g><g
           id="g290"><g
             clip-path="url(#clipPath294)"
             id="g292" /></g><g
           id="g298"><g
             clip-path="url(#clipPath302)"
             id="g300" /></g><g
           id="g306"><g
             clip-path="url(#clipPath310)"
             id="g308" /></g></g></g><g
       id="g314"><g
         clip-path="url(#clipPath318)"
         id="g316"><g
           id="g322"><g
             clip-path="url(#clipPath326)"
             id="g324"><text
   transform="matrix(1,0,0,-1,412.25,546.07)"
   id="text330"><tspan
     x="0 7.1911201 13.30656 19.412041 24.9498 28.774441 34.312199 37.62888 43.28616 48.823921 55.51704 59.361599 65.467079 71.572563 77.67804 83.215797"
     y="0"
     id="tspan332"
     style="font-size:9.96000004px;font-variant:normal;font-weight:bold;writing-mode:lr-tb;fill:#000000;fill-opacity:1;fill-rule:nonzero;stroke:none;font-family:Helvetica;-inkscape-font-specification:Helvetica-Bold">KonkretesProdukt</tspan></text>

</g></g><g
           id="g334"><g
             clip-path="url(#clipPath338)"
             id="g336"><text
   transform="matrix(1,0,0,-1,498.91,546.07)"
   id="text342"><tspan
     x="0"
     y="0"
     id="tspan344"
     style="font-size:9.96000004px;font-variant:normal;font-weight:bold;writing-mode:lr-tb;fill:#000000;fill-opacity:1;fill-rule:nonzero;stroke:none;font-family:Helvetica;-inkscape-font-specification:Helvetica-Bold">X</tspan></text>

</g></g><g
           id="g346"><g
             clip-path="url(#clipPath350)"
             id="g348" /></g></g></g><path
       d="m 404.9,503.75 108.6,0 0,53.5 -108.6,0 0,-53.5 z"
       inkscape:connector-curvature="0"
       id="path354"
       style="fill:none;stroke:#000000;stroke-width:0.75;stroke-linecap:round;stroke-linejoin:miter;stroke-miterlimit:10;stroke-opacity:1;stroke-dasharray:none" /><path
       d="m 578.9,654.8 108.6,0.05"
       inkscape:connector-curvature="0"
       id="path356"
       style="fill:none;stroke:#000000;stroke-width:0.75;stroke-linecap:round;stroke-linejoin:round;stroke-miterlimit:10;stroke-opacity:1;stroke-dasharray:none" /><path
       d="M 579.35,539.95 687.95,540"
       inkscape:connector-curvature="0"
       id="path358"
       style="fill:none;stroke:#000000;stroke-width:0.75;stroke-linecap:round;stroke-linejoin:round;stroke-miterlimit:10;stroke-opacity:1;stroke-dasharray:none" /><path
       d="m 633.65,557.65 0,54.55"
       inkscape:connector-curvature="0"
       id="path360"
       style="fill:none;stroke:#000000;stroke-width:0.75;stroke-linecap:round;stroke-linejoin:round;stroke-miterlimit:10;stroke-opacity:1;stroke-dasharray:none" /><path
       d="m 459.35,612.3 0,-55.05"
       inkscape:connector-curvature="0"
       id="path362"
       style="fill:none;stroke:#000000;stroke-width:0.75;stroke-linecap:round;stroke-linejoin:round;stroke-miterlimit:10;stroke-opacity:1;stroke-dasharray:none" /><path
       d="m 712.15,503.75 0,45.25 118.83,0 16.97,-5.66 0,-39.59 -135.8,0 z"
       inkscape:connector-curvature="0"
       id="path364"
       style="fill:#ffffff;fill-opacity:1;fill-rule:evenodd;stroke:none" /><path
       d="m 830.98,549 4.39,-5.46 c 1.7,0.86 6.22,0.86 12.58,-0.2"
       inkscape:connector-curvature="0"
       id="path366"
       style="fill:#cdcdcd;fill-opacity:1;fill-rule:evenodd;stroke:none" /><path
       d="m 712.15,503.75 0,45.25 118.83,0 16.97,-5.66 0,-39.59 -135.8,0 z"
       inkscape:connector-curvature="0"
       id="path368"
       style="fill:none;stroke:#000000;stroke-width:0.75;stroke-linecap:round;stroke-linejoin:round;stroke-miterlimit:10;stroke-opacity:1;stroke-dasharray:none" /><path
       d="m 830.98,549 4.39,-5.46 c 1.7,0.86 6.22,0.86 12.58,-0.2"
       inkscape:connector-curvature="0"
       id="path370"
       style="fill:none;stroke:#000000;stroke-width:0.75;stroke-linecap:round;stroke-linejoin:round;stroke-miterlimit:10;stroke-opacity:1;stroke-dasharray:none" /><g
       id="g372"><g
         clip-path="url(#clipPath376)"
         id="g374"><g
           id="g380"><g
             clip-path="url(#clipPath384)"
             id="g382"><text
   transform="matrix(1,0,0,-1,719.86,533.83)"
   id="text388"><tspan
     x="0 2.63712 7.0752001 9.3505201 13.7886 16.42572"
     y="0"
     id="tspan390"
     style="font-size:8.03999996px;font-variant:normal;font-weight:normal;writing-mode:lr-tb;fill:#000000;fill-opacity:1;fill-rule:nonzero;stroke:none;font-family:Helvetica;-inkscape-font-specification:Helvetica">return</tspan></text>

</g></g><g
           id="g392"><g
             clip-path="url(#clipPath396)"
             id="g394" /></g><g
           id="g400"><g
             clip-path="url(#clipPath404)"
             id="g402"><text
   transform="matrix(1,0,0,-1,719.86,524.47)"
   id="text408"><tspan
     x="0 4.4380798 8.8761597 14.5122 16.787519 22.18236 26.62044 31.058519 35.126759 37.763882 42.201962 44.47728 48.915359 52.879082 58.273918 60.911041 65.349121 69.787201 74.225281 78.293518"
     y="0"
     id="tspan410"
     style="font-size:8.03999996px;font-variant:normal;font-weight:normal;writing-mode:lr-tb;fill:#000000;fill-opacity:1;fill-rule:nonzero;stroke:none;font-family:Helvetica;-inkscape-font-specification:Helvetica">new KonkretesProdukt</tspan></text>

</g></g><g
           id="g412"><g
             clip-path="url(#clipPath416)"
             id="g414"><text
   transform="matrix(1,0,0,-1,800.5,524.47)"
   id="text420"><tspan
     x="0"
     y="0"
     id="tspan422"
     style="font-size:8.03999996px;font-variant:normal;font-weight:normal;writing-mode:lr-tb;fill:#000000;fill-opacity:1;fill-rule:nonzero;stroke:none;font-family:Helvetica;-inkscape-font-specification:Helvetica">X</tspan></text>

</g></g><g
           id="g424"><g
             clip-path="url(#clipPath428)"
             id="g426"><text
   transform="matrix(1,0,0,-1,805.66,524.47)"
   id="text432"><tspan
     x="0 2.6400199"
     y="0"
     id="tspan434"
     style="font-size:8.03999996px;font-variant:normal;font-weight:normal;writing-mode:lr-tb;fill:#000000;fill-opacity:1;fill-rule:nonzero;stroke:none;font-family:Helvetica;-inkscape-font-specification:Helvetica">()</tspan></text>

</g></g><g
           id="g436"><g
             clip-path="url(#clipPath440)"
             id="g438" /></g></g></g><g
       id="g444"><path
         d="m 687.95,525.65 24.2,0"
         inkscape:connector-curvature="0"
         id="path446"
         style="fill:none;stroke:#000000;stroke-width:0.75;stroke-linecap:round;stroke-linejoin:round;stroke-miterlimit:10;stroke-opacity:1;stroke-dasharray:2.25, 3;stroke-dashoffset:0" /></g><path
       d="m 459.1,625.5 -6.8,-13.2 13.6,0 -6.8,13.2 z"
       inkscape:connector-curvature="0"
       id="path448"
       style="fill:#ffffff;fill-opacity:1;fill-rule:evenodd;stroke:none" /><path
       d="m 459.1,625.5 -6.8,-13.2 13.6,0 -6.8,13.2 z"
       inkscape:connector-curvature="0"
       id="path450"
       style="fill:none;stroke:#000000;stroke-width:0.75;stroke-linecap:round;stroke-linejoin:round;stroke-miterlimit:10;stroke-opacity:1;stroke-dasharray:none" /><path
       d="m 579.35,525.9 -3,0 c -0.28,0 -0.5,0.22 -0.5,0.5 0,0.28 0.22,0.5 0.5,0.5 l 3,0 c 0.28,0 0.5,-0.22 0.5,-0.5 0,-0.28 -0.22,-0.5 -0.5,-0.5 z m -7,0 -3,0 c -0.28,0 -0.5,0.22 -0.5,0.5 0,0.28 0.22,0.5 0.5,0.5 l 3,0 c 0.28,0 0.5,-0.22 0.5,-0.5 0,-0.28 -0.22,-0.5 -0.5,-0.5 z m -7,0 -3,0 c -0.28,0 -0.5,0.22 -0.5,0.5 0,0.28 0.22,0.5 0.5,0.5 l 3,0 c 0.28,0 0.5,-0.22 0.5,-0.5 0,-0.28 -0.22,-0.5 -0.5,-0.5 z m -7,0 -3,0 c -0.28,0 -0.5,0.22 -0.5,0.5 0,0.28 0.22,0.5 0.5,0.5 l 3,0 c 0.28,0 0.5,-0.22 0.5,-0.5 0,-0.28 -0.22,-0.5 -0.5,-0.5 z m -7,0 -3,0 c -0.28,0 -0.5,0.22 -0.5,0.5 0,0.28 0.22,0.5 0.5,0.5 l 3,0 c 0.28,0 0.5,-0.22 0.5,-0.5 0,-0.28 -0.22,-0.5 -0.5,-0.5 z m -7,0 -3,0 c -0.28,0 -0.5,0.22 -0.5,0.5 0,0.28 0.22,0.5 0.5,0.5 l 3,0 c 0.28,0 0.5,-0.22 0.5,-0.5 0,-0.28 -0.22,-0.5 -0.5,-0.5 z m -7,0 -3,0 c -0.28,0 -0.5,0.22 -0.5,0.5 0,0.28 0.22,0.5 0.5,0.5 l 3,0 c 0.28,0 0.5,-0.22 0.5,-0.5 0,-0.28 -0.22,-0.5 -0.5,-0.5 z m -7,0 -3,0 c -0.28,0 -0.5,0.22 -0.5,0.5 0,0.28 0.22,0.5 0.5,0.5 l 3,0 c 0.28,0 0.5,-0.22 0.5,-0.5 0,-0.28 -0.22,-0.5 -0.5,-0.5 z m -7,0 -3,0 c -0.28,0 -0.5,0.22 -0.5,0.5 0,0.28 0.22,0.5 0.5,0.5 l 3,0 c 0.28,0 0.5,-0.22 0.5,-0.5 0,-0.28 -0.22,-0.5 -0.5,-0.5 z m -7,0 -1.8,0 c -0.28,0 -0.5,0.22 -0.5,0.5 0,0.28 0.22,0.5 0.5,0.5 l 1.8,0 c 0.28,0 0.5,-0.22 0.5,-0.5 0,-0.28 -0.22,-0.5 -0.5,-0.5 z m 6.96,-4.94 -9.79,5.44 9.79,5.44 c 0.24,0.13 0.54,0.04 0.68,-0.2 0.13,-0.24 0.04,-0.54 -0.2,-0.68 l -9,-5 0,0.88 9,-5 c 0.24,-0.14 0.33,-0.44 0.2,-0.68 -0.14,-0.24 -0.44,-0.33 -0.68,-0.2 z"
       inkscape:connector-curvature="0"
       id="path452"
       style="fill:#000000;fill-opacity:1;fill-rule:nonzero;stroke:none" /><path
       d="m 633.15,625.65 -6.8,-13.2 13.6,0 -6.8,13.2 z"
       inkscape:connector-curvature="0"
       id="path454"
       style="fill:#ffffff;fill-opacity:1;fill-rule:evenodd;stroke:none" /><path
       d="m 633.15,625.65 -6.8,-13.2 13.6,0 -6.8,13.2 z"
       inkscape:connector-curvature="0"
       id="path456"
       style="fill:none;stroke:#000000;stroke-width:0.75;stroke-linecap:round;stroke-linejoin:round;stroke-miterlimit:10;stroke-opacity:1;stroke-dasharray:none" /><g
       id="g458"><g
         clip-path="url(#clipPath462)"
         id="g460"><g
           id="g466"><g
             clip-path="url(#clipPath470)"
             id="g468"><text
   transform="matrix(1,0,0,-1,520.75,595.51)"
   id="text474"><tspan
     x="0 6 12 18 24 30 36 42"
     y="0"
     id="tspan476"
     style="font-size:9.96000004px;font-variant:normal;font-weight:normal;writing-mode:lr-tb;fill:#000000;fill-opacity:1;fill-rule:nonzero;stroke:none;font-family:Courier New;-inkscape-font-specification:Courier New">«Create»</tspan></text>

</g></g><g
           id="g478"><g
             clip-path="url(#clipPath482)"
             id="g480" /></g></g></g></g></svg>