<?xml version="1.0" encoding="UTF-8" standalone="no"?>
<!-- Created with Inkscape (http://www.inkscape.org/) -->

<svg
   xmlns:dc="http://purl.org/dc/elements/1.1/"
   xmlns:cc="http://creativecommons.org/ns#"
   xmlns:rdf="http://www.w3.org/1999/02/22-rdf-syntax-ns#"
   xmlns:svg="http://www.w3.org/2000/svg"
   xmlns="http://www.w3.org/2000/svg"
   xmlns:sodipodi="http://sodipodi.sourceforge.net/DTD/sodipodi-0.dtd"
   xmlns:inkscape="http://www.inkscape.org/namespaces/inkscape"
   version="1.1"
   width="420.5"
   height="160.9375"
   id="svg2"
   xml:space="preserve"
   inkscape:version="0.48.4 r9939"
   sodipodi:docname="Bild 4-40 Klassendiagramm des Entwurfmusters Zustand.svg"><sodipodi:namedview
     pagecolor="#ffffff"
     bordercolor="#666666"
     borderopacity="1"
     objecttolerance="10"
     gridtolerance="10"
     guidetolerance="10"
     inkscape:pageopacity="0"
     inkscape:pageshadow="2"
     inkscape:window-width="640"
     inkscape:window-height="480"
     id="namedview416"
     showgrid="false"
     inkscape:zoom="0.18730159"
     inkscape:cx="231.1875"
     inkscape:cy="-9.625"
     inkscape:window-x="0"
     inkscape:window-y="0"
     inkscape:window-maximized="0"
     inkscape:current-layer="svg2" /><metadata
     id="metadata8"><rdf:RDF><cc:Work
         rdf:about=""><dc:format>image/svg+xml</dc:format><dc:type
           rdf:resource="http://purl.org/dc/dcmitype/StillImage" /></cc:Work></rdf:RDF></metadata><defs
     id="defs6"><clipPath
       id="clipPath16"><path
         d="m 442.13,536.47 65.19,0 0,7.92 -65.19,0 0,-7.92 z"
         inkscape:connector-curvature="0"
         id="path18" /></clipPath><clipPath
       id="clipPath24"><path
         d="m 442.13,536.47 65.184,0 0,7.92 -65.184,0 0,-7.92 z"
         inkscape:connector-curvature="0"
         id="path26" /></clipPath><clipPath
       id="clipPath36"><path
         d="m 442.13,536.47 65.184,0 0,7.92 -65.184,0 0,-7.92 z"
         inkscape:connector-curvature="0"
         id="path38" /></clipPath><clipPath
       id="clipPath44"><path
         d="m 442.13,526.27 65.19,0 0,7.92 -65.19,0 0,-7.92 z"
         inkscape:connector-curvature="0"
         id="path46" /></clipPath><clipPath
       id="clipPath52"><path
         d="m 442.13,526.27 65.184,0 0,7.92 -65.184,0 0,-7.92 z"
         inkscape:connector-curvature="0"
         id="path54" /></clipPath><clipPath
       id="clipPath64"><path
         d="m 442.13,526.27 65.184,0 0,7.92 -65.184,0 0,-7.92 z"
         inkscape:connector-curvature="0"
         id="path66" /></clipPath><clipPath
       id="clipPath76"><path
         d="m 442.13,526.27 65.184,0 0,7.92 -65.184,0 0,-7.92 z"
         inkscape:connector-curvature="0"
         id="path78" /></clipPath><clipPath
       id="clipPath88"><path
         d="m 442.13,526.27 65.184,0 0,7.92 -65.184,0 0,-7.92 z"
         inkscape:connector-curvature="0"
         id="path90" /></clipPath><clipPath
       id="clipPath134"><path
         d="m 420.17,599.11 63.51,0 0,8.04 -63.51,0 0,-8.04 z"
         inkscape:connector-curvature="0"
         id="path136" /></clipPath><clipPath
       id="clipPath142"><path
         d="m 420.17,599.11 63.504,0 0,8.04 -63.504,0 0,-8.04 z"
         inkscape:connector-curvature="0"
         id="path144" /></clipPath><clipPath
       id="clipPath154"><path
         d="m 420.17,599.11 63.504,0 0,8.04 -63.504,0 0,-8.04 z"
         inkscape:connector-curvature="0"
         id="path156" /></clipPath><clipPath
       id="clipPath162"><path
         d="m 523.88,593.83 54.6,0 0,13.08 -54.6,0 0,-13.08 z"
         inkscape:connector-curvature="0"
         id="path164" /></clipPath><clipPath
       id="clipPath170"><path
         d="m 523.87,593.83 54.6,0 0,13.08 -54.6,0 0,-13.08 z"
         inkscape:connector-curvature="0"
         id="path172" /></clipPath><clipPath
       id="clipPath182"><path
         d="m 523.87,593.83 54.6,0 0,13.08 -54.6,0 0,-13.08 z"
         inkscape:connector-curvature="0"
         id="path184" /></clipPath><clipPath
       id="clipPath190"><path
         d="m 523.87,593.83 54.6,0 0,13.08 -54.6,0 0,-13.08 z"
         inkscape:connector-curvature="0"
         id="path192" /></clipPath><clipPath
       id="clipPath202"><path
         d="m 523.87,593.83 54.6,0 0,13.08 -54.6,0 0,-13.08 z"
         inkscape:connector-curvature="0"
         id="path204" /></clipPath><clipPath
       id="clipPath214"><path
         d="m 523.87,593.83 54.6,0 0,13.08 -54.6,0 0,-13.08 z"
         inkscape:connector-curvature="0"
         id="path216" /></clipPath><clipPath
       id="clipPath222"><path
         d="m 592.76,533.59 62.775,0 0,9.84 -62.775,0 0,-9.84 z"
         inkscape:connector-curvature="0"
         id="path224" /></clipPath><clipPath
       id="clipPath230"><path
         d="m 592.75,533.59 62.784,0 0,9.84 -62.784,0 0,-9.84 z"
         inkscape:connector-curvature="0"
         id="path232" /></clipPath><clipPath
       id="clipPath242"><path
         d="m 592.75,533.59 62.784,0 0,9.84 -62.784,0 0,-9.84 z"
         inkscape:connector-curvature="0"
         id="path244" /></clipPath><clipPath
       id="clipPath250"><path
         d="m 519.44,581.71 66.72,0 0,7.92 -66.72,0 0,-7.92 z"
         inkscape:connector-curvature="0"
         id="path252" /></clipPath><clipPath
       id="clipPath258"><path
         d="m 519.43,581.71 66.72,0 0,7.92 -66.72,0 0,-7.92 z"
         inkscape:connector-curvature="0"
         id="path260" /></clipPath><clipPath
       id="clipPath270"><path
         d="m 519.43,581.71 66.72,0 0,7.92 -66.72,0 0,-7.92 z"
         inkscape:connector-curvature="0"
         id="path272" /></clipPath><clipPath
       id="clipPath282"><path
         d="m 519.43,581.71 66.72,0 0,7.92 -66.72,0 0,-7.92 z"
         inkscape:connector-curvature="0"
         id="path284" /></clipPath><clipPath
       id="clipPath294"><path
         d="m 519.43,581.71 66.72,0 0,7.92 -66.72,0 0,-7.92 z"
         inkscape:connector-curvature="0"
         id="path296" /></clipPath><clipPath
       id="clipPath302"><path
         d="m 412.25,574.99 81.87,0 0,13.44 -81.87,0 0,-13.44 z"
         inkscape:connector-curvature="0"
         id="path304" /></clipPath><clipPath
       id="clipPath310"><path
         d="m 412.25,574.99 81.864,0 0,13.44 -81.864,0 0,-13.44 z"
         inkscape:connector-curvature="0"
         id="path312" /></clipPath><clipPath
       id="clipPath322"><path
         d="m 412.25,574.99 81.864,0 0,13.44 -81.864,0 0,-13.44 z"
         inkscape:connector-curvature="0"
         id="path324" /></clipPath><clipPath
       id="clipPath334"><path
         d="m 412.25,574.99 81.864,0 0,13.44 -81.864,0 0,-13.44 z"
         inkscape:connector-curvature="0"
         id="path336" /></clipPath><clipPath
       id="clipPath342"><path
         d="m 412.25,574.99 81.864,0 0,13.44 -81.864,0 0,-13.44 z"
         inkscape:connector-curvature="0"
         id="path344" /></clipPath><clipPath
       id="clipPath354"><path
         d="m 412.25,574.99 81.864,0 0,13.44 -81.864,0 0,-13.44 z"
         inkscape:connector-curvature="0"
         id="path356" /></clipPath><clipPath
       id="clipPath362"><path
         d="m 412.25,574.99 81.864,0 0,13.44 -81.864,0 0,-13.44 z"
         inkscape:connector-curvature="0"
         id="path364" /></clipPath><clipPath
       id="clipPath374"><path
         d="m 412.25,574.99 81.864,0 0,13.44 -81.864,0 0,-13.44 z"
         inkscape:connector-curvature="0"
         id="path376" /></clipPath><clipPath
       id="clipPath382"><path
         d="m 412.25,574.99 81.864,0 0,13.44 -81.864,0 0,-13.44 z"
         inkscape:connector-curvature="0"
         id="path384" /></clipPath><clipPath
       id="clipPath394"><path
         d="m 412.25,574.99 81.864,0 0,13.44 -81.864,0 0,-13.44 z"
         inkscape:connector-curvature="0"
         id="path396" /></clipPath><clipPath
       id="clipPath406"><path
         d="m 412.25,574.99 81.864,0 0,13.44 -81.864,0 0,-13.44 z"
         inkscape:connector-curvature="0"
         id="path408" /></clipPath><clipPath
       id="clipPath418"><path
         d="m 412.25,574.99 81.864,0 0,13.44 -81.864,0 0,-13.44 z"
         inkscape:connector-curvature="0"
         id="path420" /></clipPath><clipPath
       id="clipPath426"><path
         d="m 412.25,574.99 81.864,0 0,13.44 -81.864,0 0,-13.44 z"
         inkscape:connector-curvature="0"
         id="path428" /></clipPath><clipPath
       id="clipPath434"><path
         d="m 592.76,526.39 62.535,0 0,7.92 -62.535,0 0,-7.92 z"
         inkscape:connector-curvature="0"
         id="path436" /></clipPath><clipPath
       id="clipPath442"><path
         d="m 592.75,526.39 62.544,0 0,7.92 -62.544,0 0,-7.92 z"
         inkscape:connector-curvature="0"
         id="path444" /></clipPath><clipPath
       id="clipPath454"><path
         d="m 592.75,526.39 62.544,0 0,7.92 -62.544,0 0,-7.92 z"
         inkscape:connector-curvature="0"
         id="path456" /></clipPath><clipPath
       id="clipPath466"><path
         d="m 592.75,526.39 62.544,0 0,7.92 -62.544,0 0,-7.92 z"
         inkscape:connector-curvature="0"
         id="path468" /></clipPath><clipPath
       id="clipPath478"><path
         d="m 592.75,526.39 62.544,0 0,7.92 -62.544,0 0,-7.92 z"
         inkscape:connector-curvature="0"
         id="path480" /></clipPath><clipPath
       id="clipPath488"><path
         d="m 516.8,526.39 66.72,0 0,7.92 -66.72,0 0,-7.92 z"
         inkscape:connector-curvature="0"
         id="path490" /></clipPath><clipPath
       id="clipPath496"><path
         d="m 516.79,526.39 66.72,0 0,7.92 -66.72,0 0,-7.92 z"
         inkscape:connector-curvature="0"
         id="path498" /></clipPath><clipPath
       id="clipPath508"><path
         d="m 516.79,526.39 66.72,0 0,7.92 -66.72,0 0,-7.92 z"
         inkscape:connector-curvature="0"
         id="path510" /></clipPath><clipPath
       id="clipPath520"><path
         d="m 516.79,526.39 66.72,0 0,7.92 -66.72,0 0,-7.92 z"
         inkscape:connector-curvature="0"
         id="path522" /></clipPath><clipPath
       id="clipPath528"><path
         d="m 516.8,535.51 66.72,0 0,8.04 -66.72,0 0,-8.04 z"
         inkscape:connector-curvature="0"
         id="path530" /></clipPath><clipPath
       id="clipPath536"><path
         d="m 516.79,535.51 66.72,0 0,8.04 -66.72,0 0,-8.04 z"
         inkscape:connector-curvature="0"
         id="path538" /></clipPath><clipPath
       id="clipPath548"><path
         d="m 516.79,535.51 66.72,0 0,8.04 -66.72,0 0,-8.04 z"
         inkscape:connector-curvature="0"
         id="path550" /></clipPath><clipPath
       id="clipPath566"><path
         d="m 419.81,628.39 63.39,0 0,8.04 -63.39,0 0,-8.04 z"
         inkscape:connector-curvature="0"
         id="path568" /></clipPath><clipPath
       id="clipPath574"><path
         d="m 419.81,628.39 63.384,0 0,8.04 -63.384,0 0,-8.04 z"
         inkscape:connector-curvature="0"
         id="path576" /></clipPath><clipPath
       id="clipPath586"><path
         d="m 419.81,628.39 63.384,0 0,8.04 -63.384,0 0,-8.04 z"
         inkscape:connector-curvature="0"
         id="path588" /></clipPath><clipPath
       id="clipPath598"><path
         d="m 412.61,589.51 72.99,0 0,8.04 -72.99,0 0,-8.04 z"
         inkscape:connector-curvature="0"
         id="path600" /></clipPath><clipPath
       id="clipPath606"><path
         d="m 412.61,589.51 72.984,0 0,8.04 -72.984,0 0,-8.04 z"
         inkscape:connector-curvature="0"
         id="path608" /></clipPath><clipPath
       id="clipPath618"><path
         d="m 412.61,589.51 72.984,0 0,8.04 -72.984,0 0,-8.04 z"
         inkscape:connector-curvature="0"
         id="path620" /></clipPath><clipPath
       id="clipPath626"><path
         d="m 412.61,589.51 72.984,0 0,8.04 -72.984,0 0,-8.04 z"
         inkscape:connector-curvature="0"
         id="path628" /></clipPath><clipPath
       id="clipPath638"><path
         d="m 412.61,589.51 72.984,0 0,8.04 -72.984,0 0,-8.04 z"
         inkscape:connector-curvature="0"
         id="path640" /></clipPath><clipPath
       id="clipPath650"><path
         d="m 412.61,589.51 72.984,0 0,8.04 -72.984,0 0,-8.04 z"
         inkscape:connector-curvature="0"
         id="path652" /></clipPath><clipPath
       id="clipPath662"><path
         d="m 412.61,589.51 72.984,0 0,8.04 -72.984,0 0,-8.04 z"
         inkscape:connector-curvature="0"
         id="path664" /></clipPath><clipPath
       id="clipPath674"><path
         d="m 442.49,614.47 41.43,0 0,7.92 -41.43,0 0,-7.92 z"
         inkscape:connector-curvature="0"
         id="path676" /></clipPath><clipPath
       id="clipPath682"><path
         d="m 442.49,614.47 41.424,0 0,7.92 -41.424,0 0,-7.92 z"
         inkscape:connector-curvature="0"
         id="path684" /></clipPath><clipPath
       id="clipPath694"><path
         d="m 442.49,614.47 41.424,0 0,7.92 -41.424,0 0,-7.92 z"
         inkscape:connector-curvature="0"
         id="path696" /></clipPath><clipPath
       id="clipPath706"><path
         d="m 442.49,614.47 41.424,0 0,7.92 -41.424,0 0,-7.92 z"
         inkscape:connector-curvature="0"
         id="path708" /></clipPath><clipPath
       id="clipPath718"><path
         d="m 442.49,614.47 41.424,0 0,7.92 -41.424,0 0,-7.92 z"
         inkscape:connector-curvature="0"
         id="path720" /></clipPath><clipPath
       id="clipPath740"><path
         d="m 316.01,510.55 106.44,0 0,31.56 -106.44,0 0,-31.56 z"
         inkscape:connector-curvature="0"
         id="path742" /></clipPath><clipPath
       id="clipPath748"><path
         d="m 316.01,510.55 106.44,0 0,31.56 -106.44,0 0,-31.56 z"
         inkscape:connector-curvature="0"
         id="path750" /></clipPath><clipPath
       id="clipPath760"><path
         d="m 316.01,510.55 106.44,0 0,31.56 -106.44,0 0,-31.56 z"
         inkscape:connector-curvature="0"
         id="path762" /></clipPath><clipPath
       id="clipPath768"><path
         d="m 316.01,510.55 106.44,0 0,31.56 -106.44,0 0,-31.56 z"
         inkscape:connector-curvature="0"
         id="path770" /></clipPath><clipPath
       id="clipPath780"><path
         d="m 316.01,510.55 106.44,0 0,31.56 -106.44,0 0,-31.56 z"
         inkscape:connector-curvature="0"
         id="path782" /></clipPath><clipPath
       id="clipPath788"><path
         d="m 316.01,510.55 106.44,0 0,31.56 -106.44,0 0,-31.56 z"
         inkscape:connector-curvature="0"
         id="path790" /></clipPath><clipPath
       id="clipPath800"><path
         d="m 316.01,510.55 106.44,0 0,31.56 -106.44,0 0,-31.56 z"
         inkscape:connector-curvature="0"
         id="path802" /></clipPath><clipPath
       id="clipPath808"><path
         d="m 316.01,510.55 106.44,0 0,31.56 -106.44,0 0,-31.56 z"
         inkscape:connector-curvature="0"
         id="path810" /></clipPath><clipPath
       id="clipPath820"><path
         d="m 316.01,510.55 106.44,0 0,31.56 -106.44,0 0,-31.56 z"
         inkscape:connector-curvature="0"
         id="path822" /></clipPath></defs><g
     transform="matrix(1.25,0,0,-1.25,-399.1875,800.5625)"
     id="g10"><g
       id="g12"><g
         clip-path="url(#clipPath16)"
         id="g14"><g
           id="g20"><g
             clip-path="url(#clipPath24)"
             id="g22"><text
   transform="matrix(1,0,0,-1,446.93,538.51)"
   id="text28"><tspan
     x="0 4.3319998 8.0340004 11.634 14.988 17.268 20.622 22.656 26.01 28.290001 32.004002 35.604 38.958 40.992001 44.346001 47.945999 51.66"
     y="0"
     id="tspan30"
     style="font-size:6px;font-variant:normal;font-weight:bold;writing-mode:lr-tb;fill:#000000;fill-opacity:1;fill-rule:nonzero;stroke:none;font-family:Helvetica;-inkscape-font-specification:Helvetica-Bold">KonkreterZustandX</tspan></text>

</g></g><g
           id="g32"><g
             clip-path="url(#clipPath36)"
             id="g34" /></g></g></g><g
       id="g40"><g
         clip-path="url(#clipPath44)"
         id="g42"><g
           id="g48"><g
             clip-path="url(#clipPath52)"
             id="g50"><text
   transform="matrix(1,0,0,-1,443.57,529.51)"
   id="text56"><tspan
     x="0 2.9999599"
     y="0"
     id="tspan58"
     style="font-size:5.03999996px;font-variant:normal;font-weight:normal;writing-mode:lr-tb;fill:#000000;fill-opacity:1;fill-rule:nonzero;stroke:none;font-family:Helvetica;-inkscape-font-specification:Helvetica">+ </tspan></text>

</g></g><g
           id="g60"><g
             clip-path="url(#clipPath64)"
             id="g62"><text
   transform="matrix(1,0,0,-1,448.01,529.51)"
   id="text68"><tspan
     x="0 2.76192 5.52384 8.2857599 9.9640799 12.726 14.04648 15.24096 18.00288"
     y="0"
     id="tspan70"
     style="font-size:5.03999996px;font-variant:normal;font-weight:normal;writing-mode:lr-tb;fill:#000000;fill-opacity:1;fill-rule:nonzero;stroke:none;font-family:Helvetica;-inkscape-font-specification:Helvetica">operation</tspan></text>

</g></g><g
           id="g72"><g
             clip-path="url(#clipPath76)"
             id="g74"><text
   transform="matrix(1,0,0,-1,468.79,529.51)"
   id="text80"><tspan
     x="0 1.6799999"
     y="0"
     id="tspan82"
     style="font-size:5.03999996px;font-variant:normal;font-weight:normal;writing-mode:lr-tb;fill:#000000;fill-opacity:1;fill-rule:nonzero;stroke:none;font-family:Helvetica;-inkscape-font-specification:Helvetica">()</tspan></text>

</g></g><g
           id="g84"><g
             clip-path="url(#clipPath88)"
             id="g86" /></g></g></g><path
       d="m 417.6,573.6 68.75,0 0,34.2 -68.75,0 0,-34.2 z"
       inkscape:connector-curvature="0"
       id="path92"
       style="fill:none;stroke:#000000;stroke-width:0.5;stroke-linecap:round;stroke-linejoin:miter;stroke-miterlimit:10;stroke-opacity:1;stroke-dasharray:none" /><path
       d="m 523.75,574.2 52.55,0 0,33.55 -52.55,0 0,-33.55 z"
       inkscape:connector-curvature="0"
       id="path94"
       style="fill:none;stroke:#000000;stroke-width:0.5;stroke-linecap:round;stroke-linejoin:miter;stroke-miterlimit:10;stroke-opacity:1;stroke-dasharray:none" /><path
       d="m 442.15,522.1 65.15,0 0,22.5 -65.15,0 0,-22.5 z"
       inkscape:connector-curvature="0"
       id="path96"
       style="fill:none;stroke:#000000;stroke-width:0.5;stroke-linecap:round;stroke-linejoin:miter;stroke-miterlimit:10;stroke-opacity:1;stroke-dasharray:none" /><path
       d="m 550.07,573.95 -3.57,-7.15 7.15,0 -3.58,7.15 z"
       inkscape:connector-curvature="0"
       id="path98"
       style="fill:#ffffff;fill-opacity:1;fill-rule:evenodd;stroke:none" /><path
       d="m 550.07,573.95 -3.57,-7.15 7.15,0 -3.58,7.15 z"
       inkscape:connector-curvature="0"
       id="path100"
       style="fill:none;stroke:#000000;stroke-width:0.5;stroke-linecap:round;stroke-linejoin:round;stroke-miterlimit:10;stroke-opacity:1;stroke-dasharray:none" /><g
       id="g102"><path
         d="m 550.05,566.7 0.05,-21.65"
         inkscape:connector-curvature="0"
         id="path104"
         style="fill:none;stroke:#000000;stroke-width:0.5;stroke-linecap:round;stroke-linejoin:round;stroke-miterlimit:10;stroke-opacity:1;stroke-dasharray:1.5, 2;stroke-dashoffset:0" /></g><g
       id="g106"><path
         d="m 523.75,574.2 -49.5,-29.6"
         inkscape:connector-curvature="0"
         id="path108"
         style="fill:none;stroke:#000000;stroke-width:0.5;stroke-linecap:round;stroke-linejoin:round;stroke-miterlimit:10;stroke-opacity:1;stroke-dasharray:1.5, 2;stroke-dashoffset:0" /></g><g
       id="g110"><path
         d="M 576.5,573.95 623.85,544.6"
         inkscape:connector-curvature="0"
         id="path112"
         style="fill:none;stroke:#000000;stroke-width:0.5;stroke-linecap:round;stroke-linejoin:round;stroke-miterlimit:10;stroke-opacity:1;stroke-dasharray:1.5, 2;stroke-dashoffset:0" /></g><path
       d="m 491.08,600.75 -4.28,-3.03 4.28,-3.02 4.27,3.02 -4.27,3.03 z"
       inkscape:connector-curvature="0"
       id="path114"
       style="fill:#ffffff;fill-opacity:1;fill-rule:evenodd;stroke:none" /><path
       d="m 491.08,600.75 -4.28,-3.03 4.28,-3.02 4.27,3.02 -4.27,3.03 z"
       inkscape:connector-curvature="0"
       id="path116"
       style="fill:none;stroke:#000000;stroke-width:0.5;stroke-linecap:round;stroke-linejoin:round;stroke-miterlimit:10;stroke-opacity:1;stroke-dasharray:none" /><path
       d="m 495.5,597.8 28.4,0"
       inkscape:connector-curvature="0"
       id="path118"
       style="fill:none;stroke:#000000;stroke-width:0.5;stroke-linecap:round;stroke-linejoin:round;stroke-miterlimit:10;stroke-opacity:1;stroke-dasharray:none" /><path
       d="m 417.6,599.6 68.75,-0.05"
       inkscape:connector-curvature="0"
       id="path120"
       style="fill:none;stroke:#000000;stroke-width:0.5;stroke-linecap:round;stroke-linejoin:round;stroke-miterlimit:10;stroke-opacity:1;stroke-dasharray:none" /><path
       d="m 418.05,590.5 68.3,0"
       inkscape:connector-curvature="0"
       id="path122"
       style="fill:none;stroke:#000000;stroke-width:0.5;stroke-linecap:round;stroke-linejoin:round;stroke-miterlimit:10;stroke-opacity:1;stroke-dasharray:none" /><path
       d="M 523.75,591.75 576.3,591.7"
       inkscape:connector-curvature="0"
       id="path124"
       style="fill:none;stroke:#000000;stroke-width:0.5;stroke-linecap:round;stroke-linejoin:round;stroke-miterlimit:10;stroke-opacity:1;stroke-dasharray:none" /><path
       d="m 442.3,535.65 65,0"
       inkscape:connector-curvature="0"
       id="path126"
       style="fill:none;stroke:#000000;stroke-width:0.5;stroke-linecap:round;stroke-linejoin:round;stroke-miterlimit:10;stroke-opacity:1;stroke-dasharray:none" /><path
       d="m 592.45,535.5 62.75,0"
       inkscape:connector-curvature="0"
       id="path128"
       style="fill:none;stroke:#000000;stroke-width:0.5;stroke-linecap:round;stroke-linejoin:round;stroke-miterlimit:10;stroke-opacity:1;stroke-dasharray:none" /><g
       id="g130"><g
         clip-path="url(#clipPath134)"
         id="g132"><g
           id="g138"><g
             clip-path="url(#clipPath142)"
             id="g140"><text
   transform="matrix(1,0,0,-1,440.69,601.39)"
   id="text146"><tspan
     x="0 4.3319998 8.0340004 11.634 13.668 17.021999 20.375999"
     y="0"
     id="tspan148"
     style="font-size:6px;font-variant:normal;font-weight:bold;writing-mode:lr-tb;fill:#000000;fill-opacity:1;fill-rule:nonzero;stroke:none;font-family:Helvetica;-inkscape-font-specification:Helvetica-Bold">Kontext</tspan></text>

</g></g><g
           id="g150"><g
             clip-path="url(#clipPath154)"
             id="g152" /></g></g></g><g
       id="g158"><g
         clip-path="url(#clipPath162)"
         id="g160"><g
           id="g166"><g
             clip-path="url(#clipPath170)"
             id="g168"><text
   transform="matrix(1,0,0,-1,531.43,601.87)"
   id="text174"><tspan
     x="0 3.5999999 7.1999998 10.8 14.4 18 21.6 25.200001 28.799999 32.400002 36"
     y="0"
     id="tspan176"
     style="font-size:6px;font-variant:normal;font-weight:normal;writing-mode:lr-tb;fill:#000000;fill-opacity:1;fill-rule:nonzero;stroke:none;font-family:Courier New;-inkscape-font-specification:Courier New">«interface»</tspan></text>

</g></g><g
           id="g178"><g
             clip-path="url(#clipPath182)"
             id="g180" /></g><g
           id="g186"><g
             clip-path="url(#clipPath190)"
             id="g188"><text
   transform="matrix(1,0,0,-1,538.75,594.67)"
   id="text194"><tspan
     x="0"
     y="0"
     id="tspan196"
     style="font-size:6px;font-variant:normal;font-weight:bold;writing-mode:lr-tb;fill:#000000;fill-opacity:1;fill-rule:nonzero;stroke:none;font-family:Helvetica;-inkscape-font-specification:Helvetica-Bold">I</tspan></text>

</g></g><g
           id="g198"><g
             clip-path="url(#clipPath202)"
             id="g200"><text
   transform="matrix(1,0,0,-1,540.31,594.67)"
   id="text206"><tspan
     x="0 3.714 7.3140001 10.668 12.702 16.056 19.656"
     y="0"
     id="tspan208"
     style="font-size:6px;font-variant:normal;font-weight:bold;writing-mode:lr-tb;fill:#000000;fill-opacity:1;fill-rule:nonzero;stroke:none;font-family:Helvetica;-inkscape-font-specification:Helvetica-Bold">Zustand</tspan></text>

</g></g><g
           id="g210"><g
             clip-path="url(#clipPath214)"
             id="g212" /></g></g></g><g
       id="g218"><g
         clip-path="url(#clipPath222)"
         id="g220"><g
           id="g226"><g
             clip-path="url(#clipPath230)"
             id="g228"><text
   transform="matrix(1,0,0,-1,596.47,537.55)"
   id="text234"><tspan
     x="0 4.3319998 8.0340004 11.634 14.988 17.268 20.622 22.656 26.01 28.290001 32.004002 35.604 38.958 40.992001 44.346001 47.945999 51.66"
     y="0"
     id="tspan236"
     style="font-size:6px;font-variant:normal;font-weight:bold;writing-mode:lr-tb;fill:#000000;fill-opacity:1;fill-rule:nonzero;stroke:none;font-family:Helvetica;-inkscape-font-specification:Helvetica-Bold">KonkreterZustandZ</tspan></text>

</g></g><g
           id="g238"><g
             clip-path="url(#clipPath242)"
             id="g240" /></g></g></g><g
       id="g246"><g
         clip-path="url(#clipPath250)"
         id="g248"><g
           id="g254"><g
             clip-path="url(#clipPath258)"
             id="g256"><text
   transform="matrix(1,0,0,-1,526.63,584.95)"
   id="text262"><tspan
     x="0 2.9999599"
     y="0"
     id="tspan264"
     style="font-size:5.03999996px;font-variant:normal;font-weight:normal;writing-mode:lr-tb;fill:#000000;fill-opacity:1;fill-rule:nonzero;stroke:none;font-family:Helvetica;-inkscape-font-specification:Helvetica">+ </tspan></text>

</g></g><g
           id="g266"><g
             clip-path="url(#clipPath270)"
             id="g268"><text
   transform="matrix(1,0,0,-1,531.07,584.95)"
   id="text274"><tspan
     x="0 2.76192 5.52384 8.2857599 9.9640799 12.726 14.04648 15.24096 18.00288"
     y="0"
     id="tspan276"
     style="font-size:5.03999996px;font-variant:normal;font-weight:normal;writing-mode:lr-tb;fill:#000000;fill-opacity:1;fill-rule:nonzero;stroke:none;font-family:Helvetica;-inkscape-font-specification:Helvetica">operation</tspan></text>

</g></g><g
           id="g278"><g
             clip-path="url(#clipPath282)"
             id="g280"><text
   transform="matrix(1,0,0,-1,551.83,584.95)"
   id="text286"><tspan
     x="0 1.6799999"
     y="0"
     id="tspan288"
     style="font-size:5.03999996px;font-variant:normal;font-weight:normal;writing-mode:lr-tb;fill:#000000;fill-opacity:1;fill-rule:nonzero;stroke:none;font-family:Helvetica;-inkscape-font-specification:Helvetica">()</tspan></text>

</g></g><g
           id="g290"><g
             clip-path="url(#clipPath294)"
             id="g292" /></g></g></g><g
       id="g298"><g
         clip-path="url(#clipPath302)"
         id="g300"><g
           id="g306"><g
             clip-path="url(#clipPath310)"
             id="g308"><text
   transform="matrix(1,0,0,-1,419.45,583.87)"
   id="text314"><tspan
     x="0 2.9999599"
     y="0"
     id="tspan316"
     style="font-size:5.03999996px;font-variant:normal;font-weight:normal;writing-mode:lr-tb;fill:#000000;fill-opacity:1;fill-rule:nonzero;stroke:none;font-family:Helvetica;-inkscape-font-specification:Helvetica">+ </tspan></text>

</g></g><g
           id="g318"><g
             clip-path="url(#clipPath322)"
             id="g320"><text
   transform="matrix(1,0,0,-1,423.89,583.87)"
   id="text326"><tspan
     x="0 2.76192 5.52384 8.2857599 9.9640799 12.726 14.04648 15.24096 18.00288 20.764799 22.443119"
     y="0"
     id="tspan328"
     style="font-size:5.03999996px;font-variant:normal;font-weight:normal;writing-mode:lr-tb;fill:#000000;fill-opacity:1;fill-rule:nonzero;stroke:none;font-family:Helvetica;-inkscape-font-specification:Helvetica">operation()</tspan></text>

</g></g><g
           id="g330"><g
             clip-path="url(#clipPath334)"
             id="g332" /></g><g
           id="g338"><g
             clip-path="url(#clipPath342)"
             id="g340"><text
   transform="matrix(1,0,0,-1,419.45,578.11)"
   id="text346"><tspan
     x="0"
     y="0"
     id="tspan348"
     style="font-size:5.03999996px;font-variant:normal;font-weight:normal;writing-mode:lr-tb;fill:#000000;fill-opacity:1;fill-rule:nonzero;stroke:none;font-family:Helvetica;-inkscape-font-specification:Helvetica">-</tspan></text>

</g></g><g
           id="g350"><g
             clip-path="url(#clipPath354)"
             id="g352" /></g><g
           id="g358"><g
             clip-path="url(#clipPath362)"
             id="g360"><text
   transform="matrix(1,0,0,-1,424.01,578.11)"
   id="text366"><tspan
     x="0 2.76192 5.52384 8.2857599 11.04768 13.8096 15.48792 18.24984 21.364559 24.12648 26.52552 27.96192 30.723841 33.48576"
     y="0"
     id="tspan368"
     style="font-size:5.03999996px;font-variant:normal;font-weight:normal;writing-mode:lr-tb;fill:#000000;fill-opacity:1;fill-rule:nonzero;stroke:none;font-family:Helvetica;-inkscape-font-specification:Helvetica">aendereZustand</tspan></text>

</g></g><g
           id="g370"><g
             clip-path="url(#clipPath374)"
             id="g372" /></g><g
           id="g378"><g
             clip-path="url(#clipPath382)"
             id="g380"><text
   transform="matrix(1,0,0,-1,461.69,578.11)"
   id="text386"><tspan
     x="0"
     y="0"
     id="tspan388"
     style="font-size:5.03999996px;font-variant:normal;font-weight:normal;writing-mode:lr-tb;fill:#000000;fill-opacity:1;fill-rule:nonzero;stroke:none;font-family:Helvetica;-inkscape-font-specification:Helvetica">(</tspan></text>

</g></g><g
           id="g390"><g
             clip-path="url(#clipPath394)"
             id="g392"><text
   transform="matrix(1,0,0,-1,463.37,578.11)"
   id="text398"><tspan
     x="0 1.44002"
     y="0"
     id="tspan400"
     style="font-size:5.03999996px;font-variant:normal;font-weight:normal;writing-mode:lr-tb;fill:#000000;fill-opacity:1;fill-rule:nonzero;stroke:none;font-family:Helvetica;-inkscape-font-specification:Helvetica">IZ</tspan></text>

</g></g><g
           id="g402"><g
             clip-path="url(#clipPath406)"
             id="g404"><text
   transform="matrix(1,0,0,-1,467.95,578.11)"
   id="text410"><tspan
     x="0 2.76192 5.1609602 6.5973601 9.3592796 12.1212 14.88312"
     y="0"
     id="tspan412"
     style="font-size:5.03999996px;font-variant:normal;font-weight:normal;writing-mode:lr-tb;fill:#000000;fill-opacity:1;fill-rule:nonzero;stroke:none;font-family:Helvetica;-inkscape-font-specification:Helvetica">ustand)</tspan></text>

</g></g><g
           id="g414"><g
             clip-path="url(#clipPath418)"
             id="g416" /></g><g
           id="g422"><g
             clip-path="url(#clipPath426)"
             id="g424" /></g></g></g><g
       id="g430"><g
         clip-path="url(#clipPath434)"
         id="g432"><g
           id="g438"><g
             clip-path="url(#clipPath442)"
             id="g440"><text
   transform="matrix(1,0,0,-1,594.19,529.63)"
   id="text446"><tspan
     x="0 2.9999599"
     y="0"
     id="tspan448"
     style="font-size:5.03999996px;font-variant:normal;font-weight:normal;writing-mode:lr-tb;fill:#000000;fill-opacity:1;fill-rule:nonzero;stroke:none;font-family:Helvetica;-inkscape-font-specification:Helvetica">+ </tspan></text>

</g></g><g
           id="g450"><g
             clip-path="url(#clipPath454)"
             id="g452"><text
   transform="matrix(1,0,0,-1,598.63,529.63)"
   id="text458"><tspan
     x="0 2.76192 5.52384 8.2857599 9.9640799 12.726 14.04648 15.24096 18.00288"
     y="0"
     id="tspan460"
     style="font-size:5.03999996px;font-variant:normal;font-weight:normal;writing-mode:lr-tb;fill:#000000;fill-opacity:1;fill-rule:nonzero;stroke:none;font-family:Helvetica;-inkscape-font-specification:Helvetica">operation</tspan></text>

</g></g><g
           id="g462"><g
             clip-path="url(#clipPath466)"
             id="g464"><text
   transform="matrix(1,0,0,-1,619.39,529.63)"
   id="text470"><tspan
     x="0 1.6799999"
     y="0"
     id="tspan472"
     style="font-size:5.03999996px;font-variant:normal;font-weight:normal;writing-mode:lr-tb;fill:#000000;fill-opacity:1;fill-rule:nonzero;stroke:none;font-family:Helvetica;-inkscape-font-specification:Helvetica">()</tspan></text>

</g></g><g
           id="g474"><g
             clip-path="url(#clipPath478)"
             id="g476" /></g></g></g><path
       d="m 516.7,522.1 66.75,0 0,22.5 -66.75,0 0,-22.5 z"
       inkscape:connector-curvature="0"
       id="path482"
       style="fill:none;stroke:#000000;stroke-width:0.5;stroke-linecap:round;stroke-linejoin:miter;stroke-miterlimit:8;stroke-opacity:1;stroke-dasharray:none" /><g
       id="g484"><g
         clip-path="url(#clipPath488)"
         id="g486"><g
           id="g492"><g
             clip-path="url(#clipPath496)"
             id="g494"><text
   transform="matrix(1,0,0,-1,518.23,529.63)"
   id="text500"><tspan
     x="0 2.9999599"
     y="0"
     id="tspan502"
     style="font-size:5.03999996px;font-variant:normal;font-weight:normal;writing-mode:lr-tb;fill:#000000;fill-opacity:1;fill-rule:nonzero;stroke:none;font-family:Helvetica;-inkscape-font-specification:Helvetica">+ </tspan></text>

</g></g><g
           id="g504"><g
             clip-path="url(#clipPath508)"
             id="g506"><text
   transform="matrix(1,0,0,-1,522.67,529.63)"
   id="text512"><tspan
     x="0 2.76192 5.52384 8.2857599 9.9640799 12.726 14.04648 15.24096 18.00288 20.764799 22.443119"
     y="0"
     id="tspan514"
     style="font-size:5.03999996px;font-variant:normal;font-weight:normal;writing-mode:lr-tb;fill:#000000;fill-opacity:1;fill-rule:nonzero;stroke:none;font-family:Helvetica;-inkscape-font-specification:Helvetica">operation()</tspan></text>

</g></g><g
           id="g516"><g
             clip-path="url(#clipPath520)"
             id="g518" /></g></g></g><g
       id="g524"><g
         clip-path="url(#clipPath528)"
         id="g526"><g
           id="g532"><g
             clip-path="url(#clipPath536)"
             id="g534"><text
   transform="matrix(1,0,0,-1,522.31,537.79)"
   id="text540"><tspan
     x="0 4.3319998 8.0340004 11.634 14.988 17.268 20.622 22.656 26.01 28.290001 32.004002 35.604 38.958 40.992001 44.346001 47.945999 51.66"
     y="0"
     id="tspan542"
     style="font-size:6px;font-variant:normal;font-weight:bold;writing-mode:lr-tb;fill:#000000;fill-opacity:1;fill-rule:nonzero;stroke:none;font-family:Helvetica;-inkscape-font-specification:Helvetica-Bold">KonkreterZustandY</tspan></text>

</g></g><g
           id="g544"><g
             clip-path="url(#clipPath548)"
             id="g546" /></g></g></g><path
       d="m 516.7,535.5 66.75,0"
       inkscape:connector-curvature="0"
       id="path552"
       style="fill:none;stroke:#000000;stroke-width:0.5;stroke-linecap:round;stroke-linejoin:round;stroke-miterlimit:8;stroke-opacity:1;stroke-dasharray:none" /><path
       d="m 592.75,522.1 62.75,0 0,22.5 -62.75,0 0,-22.5 z"
       inkscape:connector-curvature="0"
       id="path554"
       style="fill:none;stroke:#000000;stroke-width:0.5;stroke-linecap:round;stroke-linejoin:miter;stroke-miterlimit:8;stroke-opacity:1;stroke-dasharray:none" /><path
       d="m 417.6,616 68.75,0 0,24.2 -68.75,0 0,-24.2 z"
       inkscape:connector-curvature="0"
       id="path556"
       style="fill:none;stroke:#000000;stroke-width:0.5;stroke-linecap:round;stroke-linejoin:miter;stroke-miterlimit:8;stroke-opacity:1;stroke-dasharray:none" /><g
       id="g558"><path
         d="M 452.1,616 452,607.8"
         inkscape:connector-curvature="0"
         id="path560"
         style="fill:none;stroke:#000000;stroke-width:0.75;stroke-linecap:round;stroke-linejoin:round;stroke-miterlimit:8;stroke-opacity:1;stroke-dasharray:2.25, 3;stroke-dashoffset:0" /></g><g
       id="g562"><g
         clip-path="url(#clipPath566)"
         id="g564"><g
           id="g570"><g
             clip-path="url(#clipPath574)"
             id="g572"><text
   transform="matrix(1,0,0,-1,443.21,630.67)"
   id="text578"><tspan
     x="0 4.3319998 6 7.6680002 11.034 14.634"
     y="0"
     id="tspan580"
     style="font-size:6px;font-variant:normal;font-weight:bold;writing-mode:lr-tb;fill:#000000;fill-opacity:1;fill-rule:nonzero;stroke:none;font-family:Helvetica;-inkscape-font-specification:Helvetica-Bold">Client</tspan></text>

</g></g><g
           id="g582"><g
             clip-path="url(#clipPath586)"
             id="g584" /></g></g></g><g
       id="g590"><path
         d="m 363.3,585.8 54.3,0"
         inkscape:connector-curvature="0"
         id="path592"
         style="fill:none;stroke:#000000;stroke-width:0.5;stroke-linecap:round;stroke-linejoin:round;stroke-miterlimit:8;stroke-opacity:1;stroke-dasharray:1.5, 2;stroke-dashoffset:0" /></g><g
       id="g594"><g
         clip-path="url(#clipPath598)"
         id="g596"><g
           id="g602"><g
             clip-path="url(#clipPath606)"
             id="g604"><text
   transform="matrix(1,0,0,-1,419.69,592.99)"
   id="text610"><tspan
     x="0"
     y="0"
     id="tspan612"
     style="font-size:5.03999996px;font-variant:normal;font-weight:normal;writing-mode:lr-tb;fill:#000000;fill-opacity:1;fill-rule:nonzero;stroke:none;font-family:Helvetica;-inkscape-font-specification:Helvetica">-</tspan></text>

</g></g><g
           id="g614"><g
             clip-path="url(#clipPath618)"
             id="g616" /></g><g
           id="g622"><g
             clip-path="url(#clipPath626)"
             id="g624"><text
   transform="matrix(1,0,0,-1,422.81,592.99)"
   id="text630"><tspan
     x="0 2.52 5.28192 7.6809602 9.1173601 11.87928 14.6412 17.40312 18.83952 20.275921"
     y="0"
     id="tspan632"
     style="font-size:5.03999996px;font-variant:normal;font-weight:normal;writing-mode:lr-tb;fill:#000000;fill-opacity:1;fill-rule:nonzero;stroke:none;font-family:Helvetica;-inkscape-font-specification:Helvetica">zustand : </tspan></text>

</g></g><g
           id="g634"><g
             clip-path="url(#clipPath638)"
             id="g636"><text
   transform="matrix(1,0,0,-1,444.53,592.99)"
   id="text642"><tspan
     x="0"
     y="0"
     id="tspan644"
     style="font-size:5.03999996px;font-variant:normal;font-weight:normal;writing-mode:lr-tb;fill:#000000;fill-opacity:1;fill-rule:nonzero;stroke:none;font-family:Helvetica;-inkscape-font-specification:Helvetica">I</tspan></text>

</g></g><g
           id="g646"><g
             clip-path="url(#clipPath650)"
             id="g648"><text
   transform="matrix(1,0,0,-1,445.85,592.99)"
   id="text654"><tspan
     x="0 3.1147201 5.8766398 8.2756796 9.71208 12.474 15.23592"
     y="0"
     id="tspan656"
     style="font-size:5.03999996px;font-variant:normal;font-weight:normal;writing-mode:lr-tb;fill:#000000;fill-opacity:1;fill-rule:nonzero;stroke:none;font-family:Helvetica;-inkscape-font-specification:Helvetica">Zustand</tspan></text>

</g></g><g
           id="g658"><g
             clip-path="url(#clipPath662)"
             id="g660" /></g></g></g><path
       d="m 449.05,611.85 2.9,-4.05"
       inkscape:connector-curvature="0"
       id="path666"
       style="fill:none;stroke:#000000;stroke-width:0.75;stroke-linecap:round;stroke-linejoin:round;stroke-miterlimit:8;stroke-opacity:1;stroke-dasharray:none" /><path
       d="m 455.3,611.85 -3.2,-3.9"
       inkscape:connector-curvature="0"
       id="path668"
       style="fill:none;stroke:#000000;stroke-width:0.75;stroke-linecap:round;stroke-linejoin:round;stroke-miterlimit:8;stroke-opacity:1;stroke-dasharray:none" /><g
       id="g670"><g
         clip-path="url(#clipPath674)"
         id="g672"><g
           id="g678"><g
             clip-path="url(#clipPath682)"
             id="g680"><text
   transform="matrix(1,0,0,-1,454.13,617.71)"
   id="text686"><tspan
     x="0"
     y="0"
     id="tspan688"
     style="font-size:6px;font-variant:normal;font-weight:normal;writing-mode:lr-tb;fill:#000000;fill-opacity:1;fill-rule:nonzero;stroke:none;font-family:Courier New;-inkscape-font-specification:Courier New">«</tspan></text>

</g></g><g
           id="g690"><g
             clip-path="url(#clipPath694)"
             id="g692"><text
   transform="matrix(1,0,0,-1,457.73,617.71)"
   id="text698"><tspan
     x="0 3.5999999 7.1999998"
     y="0"
     id="tspan700"
     style="font-size:6px;font-variant:normal;font-weight:normal;writing-mode:lr-tb;fill:#000000;fill-opacity:1;fill-rule:nonzero;stroke:none;font-family:Courier New;-inkscape-font-specification:Courier New">use</tspan></text>

</g></g><g
           id="g702"><g
             clip-path="url(#clipPath706)"
             id="g704"><text
   transform="matrix(1,0,0,-1,468.55,617.71)"
   id="text710"><tspan
     x="0"
     y="0"
     id="tspan712"
     style="font-size:6px;font-variant:normal;font-weight:normal;writing-mode:lr-tb;fill:#000000;fill-opacity:1;fill-rule:nonzero;stroke:none;font-family:Courier New;-inkscape-font-specification:Courier New">»</tspan></text>

</g></g><g
           id="g714"><g
             clip-path="url(#clipPath718)"
             id="g716" /></g></g></g><path
       d="m 395.8,552.05 0,-10.95 21.8,0 -21.8,10.95 z"
       inkscape:connector-curvature="0"
       id="path722"
       style="fill:none;stroke:#000000;stroke-width:0.5;stroke-linecap:round;stroke-linejoin:round;stroke-miterlimit:8;stroke-opacity:1;stroke-dasharray:none" /><path
       d="m 417.6,541.1 0,-29.15"
       inkscape:connector-curvature="0"
       id="path724"
       style="fill:none;stroke:#000000;stroke-width:0.5;stroke-linecap:round;stroke-linejoin:round;stroke-miterlimit:8;stroke-opacity:1;stroke-dasharray:none" /><path
       d="m 417.6,511.95 -98,0"
       inkscape:connector-curvature="0"
       id="path726"
       style="fill:none;stroke:#000000;stroke-width:0.5;stroke-linecap:round;stroke-linejoin:round;stroke-miterlimit:8;stroke-opacity:1;stroke-dasharray:none" /><path
       d="m 319.6,511.95 0,40.1"
       inkscape:connector-curvature="0"
       id="path728"
       style="fill:none;stroke:#000000;stroke-width:0.5;stroke-linecap:round;stroke-linejoin:round;stroke-miterlimit:8;stroke-opacity:1;stroke-dasharray:none" /><path
       d="m 395.8,552.05 -76.2,0"
       inkscape:connector-curvature="0"
       id="path730"
       style="fill:none;stroke:#000000;stroke-width:0.5;stroke-linecap:round;stroke-linejoin:round;stroke-miterlimit:8;stroke-opacity:1;stroke-dasharray:none" /><g
       id="g732"><path
         d="m 363.4,585.95 0,-33.25"
         inkscape:connector-curvature="0"
         id="path734"
         style="fill:none;stroke:#000000;stroke-width:0.5;stroke-linecap:round;stroke-linejoin:round;stroke-miterlimit:8;stroke-opacity:1;stroke-dasharray:1.5, 2;stroke-dashoffset:0" /></g><g
       id="g736"><g
         clip-path="url(#clipPath740)"
         id="g738"><g
           id="g744"><g
             clip-path="url(#clipPath748)"
             id="g746"><text
   transform="matrix(1,0,0,-1,323.21,534.43)"
   id="text752"><tspan
     x="0 4.8000002 9.6000004 14.4 19.200001 24 28.799999 33.599998 38.400002 43.200001 48"
     y="0"
     id="tspan754"
     style="font-size:8.03999996px;font-variant:normal;font-weight:normal;writing-mode:lr-tb;fill:#000000;fill-opacity:1;fill-rule:nonzero;stroke:none;font-family:Courier New;-inkscape-font-specification:Courier New">operation()</tspan></text>

</g></g><g
           id="g756"><g
             clip-path="url(#clipPath760)"
             id="g758" /></g><g
           id="g764"><g
             clip-path="url(#clipPath768)"
             id="g766"><text
   transform="matrix(1,0,0,-1,378.29,534.43)"
   id="text772"><tspan
     x="0 2.63712 7.0752001 9.3505201"
     y="0"
     id="tspan774"
     style="font-size:8.03999996px;font-variant:normal;font-weight:normal;writing-mode:lr-tb;fill:#000000;fill-opacity:1;fill-rule:nonzero;stroke:none;font-family:Helvetica;-inkscape-font-specification:Helvetica">ruft</tspan></text>

</g></g><g
           id="g776"><g
             clip-path="url(#clipPath780)"
             id="g778" /></g><g
           id="g784"><g
             clip-path="url(#clipPath788)"
             id="g786"><text
   transform="matrix(1,0,0,-1,392.09,534.43)"
   id="text792"><tspan
     x="0 4.4380798 8.8761597 11.15148"
     y="0"
     id="tspan794"
     style="font-size:8.03999996px;font-variant:normal;font-weight:normal;writing-mode:lr-tb;fill:#000000;fill-opacity:1;fill-rule:nonzero;stroke:none;font-family:Helvetica;-inkscape-font-specification:Helvetica">auf:</tspan></text>

</g></g><g
           id="g796"><g
             clip-path="url(#clipPath800)"
             id="g798" /></g><g
           id="g804"><g
             clip-path="url(#clipPath808)"
             id="g806"><text
   transform="matrix(1,0,0,-1,323.21,526.03)"
   id="text812"><tspan
     x="0 4.8000002 9.6000004 14.4 19.200001 24 28.799999 33.599998 38.400002 43.200001 48 52.799999 57.599998 62.400002 67.199997 72 76.800003 81.599998 86.400002"
     y="0"
     id="tspan814"
     style="font-size:8.03999996px;font-variant:normal;font-weight:normal;writing-mode:lr-tb;fill:#000000;fill-opacity:1;fill-rule:nonzero;stroke:none;font-family:Courier New;-inkscape-font-specification:Courier New">zustand.operation()</tspan></text>

</g></g><g
           id="g816"><g
             clip-path="url(#clipPath820)"
             id="g818" /></g></g></g><path
       d="m 576.57,573.98 4.25,-6.77 3.72,6.11 -7.97,0.66 z"
       inkscape:connector-curvature="0"
       id="path824"
       style="fill:#ffffff;fill-opacity:1;fill-rule:evenodd;stroke:none" /><path
       d="m 576.57,573.98 4.25,-6.77 3.72,6.11 -7.97,0.66 z"
       inkscape:connector-curvature="0"
       id="path826"
       style="fill:none;stroke:#000000;stroke-width:0.5;stroke-linecap:round;stroke-linejoin:round;stroke-miterlimit:8;stroke-opacity:1;stroke-dasharray:none" /><path
       d="m 523.54,574.12 -7.97,-0.63 3.69,-6.12 4.28,6.75 z"
       inkscape:connector-curvature="0"
       id="path828"
       style="fill:#ffffff;fill-opacity:1;fill-rule:evenodd;stroke:none" /><path
       d="m 523.54,574.12 -7.97,-0.63 3.69,-6.12 4.28,6.75 z"
       inkscape:connector-curvature="0"
       id="path830"
       style="fill:none;stroke:#000000;stroke-width:0.5;stroke-linecap:round;stroke-linejoin:round;stroke-miterlimit:8;stroke-opacity:1;stroke-dasharray:none" /></g></svg>