<?xml version="1.0" encoding="UTF-8" standalone="no"?>
<!-- Created with Inkscape (http://www.inkscape.org/) -->

<svg
   xmlns:dc="http://purl.org/dc/elements/1.1/"
   xmlns:cc="http://creativecommons.org/ns#"
   xmlns:rdf="http://www.w3.org/1999/02/22-rdf-syntax-ns#"
   xmlns:svg="http://www.w3.org/2000/svg"
   xmlns="http://www.w3.org/2000/svg"
   xmlns:sodipodi="http://sodipodi.sourceforge.net/DTD/sodipodi-0.dtd"
   xmlns:inkscape="http://www.inkscape.org/namespaces/inkscape"
   version="1.1"
   width="526.125"
   height="153.75"
   id="svg2"
   xml:space="preserve"
   inkscape:version="0.48.4 r9939"
   sodipodi:docname="Bild 4-23 Klassendiagramm für eine Anwendung des Kompositum-Musters.svg"><sodipodi:namedview
     pagecolor="#ffffff"
     bordercolor="#666666"
     borderopacity="1"
     objecttolerance="10"
     gridtolerance="10"
     guidetolerance="10"
     inkscape:pageopacity="0"
     inkscape:pageshadow="2"
     inkscape:window-width="640"
     inkscape:window-height="480"
     id="namedview183"
     showgrid="false"
     inkscape:zoom="0.18730159"
     inkscape:cx="250.40625"
     inkscape:cy="76.40625"
     inkscape:window-x="0"
     inkscape:window-y="0"
     inkscape:window-maximized="0"
     inkscape:current-layer="svg2" /><metadata
     id="metadata8"><rdf:RDF><cc:Work
         rdf:about=""><dc:format>image/svg+xml</dc:format><dc:type
           rdf:resource="http://purl.org/dc/dcmitype/StillImage" /></cc:Work></rdf:RDF></metadata><defs
     id="defs6"><clipPath
       id="clipPath22"><path
         d="m 675.81,539.23 41.28,0 0,16.68 -41.28,0 0,-16.68 z"
         inkscape:connector-curvature="0"
         id="path24" /></clipPath><clipPath
       id="clipPath30"><path
         d="m 675.82,539.23 41.28,0 0,16.68 -41.28,0 0,-16.68 z"
         inkscape:connector-curvature="0"
         id="path32" /></clipPath><clipPath
       id="clipPath42"><path
         d="m 675.82,539.23 41.28,0 0,16.68 -41.28,0 0,-16.68 z"
         inkscape:connector-curvature="0"
         id="path44" /></clipPath><clipPath
       id="clipPath54"><path
         d="m 568.28,534.19 110.29,0 0,27.24 -110.29,0 0,-27.24 z"
         inkscape:connector-curvature="0"
         id="path56" /></clipPath><clipPath
       id="clipPath62"><path
         d="m 568.27,534.19 110.3,0 0,27.24 -110.3,0 0,-27.24 z"
         inkscape:connector-curvature="0"
         id="path64" /></clipPath><clipPath
       id="clipPath74"><path
         d="m 568.27,534.19 110.3,0 0,27.24 -110.3,0 0,-27.24 z"
         inkscape:connector-curvature="0"
         id="path76" /></clipPath><clipPath
       id="clipPath86"><path
         d="m 568.27,534.19 110.3,0 0,27.24 -110.3,0 0,-27.24 z"
         inkscape:connector-curvature="0"
         id="path88" /></clipPath><clipPath
       id="clipPath98"><path
         d="m 568.27,534.19 110.3,0 0,27.24 -110.3,0 0,-27.24 z"
         inkscape:connector-curvature="0"
         id="path100" /></clipPath><clipPath
       id="clipPath106"><path
         d="m 568.27,534.19 110.3,0 0,27.24 -110.3,0 0,-27.24 z"
         inkscape:connector-curvature="0"
         id="path108" /></clipPath><clipPath
       id="clipPath118"><path
         d="m 568.27,534.19 110.3,0 0,27.24 -110.3,0 0,-27.24 z"
         inkscape:connector-curvature="0"
         id="path120" /></clipPath><clipPath
       id="clipPath126"><path
         d="m 568.27,534.19 110.3,0 0,27.24 -110.3,0 0,-27.24 z"
         inkscape:connector-curvature="0"
         id="path128" /></clipPath><clipPath
       id="clipPath138"><path
         d="m 582.68,447.19 79.935,0 0,27.24 -79.935,0 0,-27.24 z"
         inkscape:connector-curvature="0"
         id="path140" /></clipPath><clipPath
       id="clipPath146"><path
         d="m 582.67,447.19 79.944,0 0,27.24 -79.944,0 0,-27.24 z"
         inkscape:connector-curvature="0"
         id="path148" /></clipPath><clipPath
       id="clipPath158"><path
         d="m 582.67,447.19 79.944,0 0,27.24 -79.944,0 0,-27.24 z"
         inkscape:connector-curvature="0"
         id="path160" /></clipPath><clipPath
       id="clipPath166"><path
         d="m 582.67,447.19 79.944,0 0,27.24 -79.944,0 0,-27.24 z"
         inkscape:connector-curvature="0"
         id="path168" /></clipPath><clipPath
       id="clipPath174"><path
         d="m 582.67,447.19 79.944,0 0,27.24 -79.944,0 0,-27.24 z"
         inkscape:connector-curvature="0"
         id="path176" /></clipPath><clipPath
       id="clipPath186"><path
         d="m 493.04,447.19 78.96,0 0,27.24 -78.96,0 0,-27.24 z"
         inkscape:connector-curvature="0"
         id="path188" /></clipPath><clipPath
       id="clipPath194"><path
         d="m 493.03,447.19 78.96,0 0,27.24 -78.96,0 0,-27.24 z"
         inkscape:connector-curvature="0"
         id="path196" /></clipPath><clipPath
       id="clipPath206"><path
         d="m 493.03,447.19 78.96,0 0,27.24 -78.96,0 0,-27.24 z"
         inkscape:connector-curvature="0"
         id="path208" /></clipPath><clipPath
       id="clipPath214"><path
         d="m 493.03,447.19 78.96,0 0,27.24 -78.96,0 0,-27.24 z"
         inkscape:connector-curvature="0"
         id="path216" /></clipPath><clipPath
       id="clipPath222"><path
         d="m 493.03,447.19 78.96,0 0,27.24 -78.96,0 0,-27.24 z"
         inkscape:connector-curvature="0"
         id="path224" /></clipPath><clipPath
       id="clipPath234"><path
         d="m 398.81,447.19 83.67,0 0,27.24 -83.67,0 0,-27.24 z"
         inkscape:connector-curvature="0"
         id="path236" /></clipPath><clipPath
       id="clipPath242"><path
         d="m 398.81,447.19 83.664,0 0,27.24 -83.664,0 0,-27.24 z"
         inkscape:connector-curvature="0"
         id="path244" /></clipPath><clipPath
       id="clipPath254"><path
         d="m 398.81,447.19 83.664,0 0,27.24 -83.664,0 0,-27.24 z"
         inkscape:connector-curvature="0"
         id="path256" /></clipPath><clipPath
       id="clipPath262"><path
         d="m 398.81,447.19 83.664,0 0,27.24 -83.664,0 0,-27.24 z"
         inkscape:connector-curvature="0"
         id="path264" /></clipPath><clipPath
       id="clipPath270"><path
         d="m 398.81,447.19 83.664,0 0,27.24 -83.664,0 0,-27.24 z"
         inkscape:connector-curvature="0"
         id="path272" /></clipPath><clipPath
       id="clipPath278"><path
         d="m 664.29,467.59 41.16,0 0,16.8 -41.16,0 0,-16.8 z"
         inkscape:connector-curvature="0"
         id="path280" /></clipPath><clipPath
       id="clipPath286"><path
         d="m 664.3,467.59 41.16,0 0,16.8 -41.16,0 0,-16.8 z"
         inkscape:connector-curvature="0"
         id="path288" /></clipPath><clipPath
       id="clipPath298"><path
         d="m 304.85,447.43 83.52,0 0,27.24 -83.52,0 0,-27.24 z"
         inkscape:connector-curvature="0"
         id="path300" /></clipPath><clipPath
       id="clipPath306"><path
         d="m 304.85,447.43 83.52,0 0,27.24 -83.52,0 0,-27.24 z"
         inkscape:connector-curvature="0"
         id="path308" /></clipPath><clipPath
       id="clipPath318"><path
         d="m 304.85,447.43 83.52,0 0,27.24 -83.52,0 0,-27.24 z"
         inkscape:connector-curvature="0"
         id="path320" /></clipPath><clipPath
       id="clipPath326"><path
         d="m 304.85,447.43 83.52,0 0,27.24 -83.52,0 0,-27.24 z"
         inkscape:connector-curvature="0"
         id="path328" /></clipPath><clipPath
       id="clipPath334"><path
         d="m 304.85,447.43 83.52,0 0,27.24 -83.52,0 0,-27.24 z"
         inkscape:connector-curvature="0"
         id="path336" /></clipPath></defs><g
     transform="matrix(1.25,0,0,-1.25,-379.96875,707.34375)"
     id="g10"><path
       d="m 472.8,478.75 86.75,47"
       inkscape:connector-curvature="0"
       id="path12"
       style="fill:none;stroke:#000000;stroke-width:0.75;stroke-linecap:round;stroke-linejoin:round;stroke-miterlimit:10;stroke-opacity:1;stroke-dasharray:none" /><path
       d="m 622.6,477.75 0,43.5"
       inkscape:connector-curvature="0"
       id="path14"
       style="fill:none;stroke:#000000;stroke-width:0.75;stroke-linecap:round;stroke-linejoin:round;stroke-miterlimit:10;stroke-opacity:1;stroke-dasharray:none" /><path
       d="M 346.2,478.75 558.95,540.6"
       inkscape:connector-curvature="0"
       id="path16"
       style="fill:none;stroke:#000000;stroke-width:0.75;stroke-linecap:round;stroke-linejoin:round;stroke-miterlimit:10;stroke-opacity:1;stroke-dasharray:none" /><g
       id="g18"><g
         clip-path="url(#clipPath22)"
         id="g20"><g
           id="g26"><g
             clip-path="url(#clipPath30)"
             id="g28"><text
   transform="matrix(1,0,0,-1,683.02,544.75)"
   id="text34"><tspan
     x="0"
     y="0"
     id="tspan36"
     style="font-size:12px;font-variant:normal;font-weight:normal;writing-mode:lr-tb;fill:#000000;fill-opacity:1;fill-rule:nonzero;stroke:none;font-family:Helvetica;-inkscape-font-specification:Helvetica">*</tspan></text>

</g></g><g
           id="g38"><g
             clip-path="url(#clipPath42)"
             id="g40" /></g></g></g><path
       d="m 567.8,530.25 111.05,0 0,35.25 -111.05,0 0,-35.25 z"
       inkscape:connector-curvature="0"
       id="path46"
       style="fill:#ffffff;fill-opacity:1;fill-rule:evenodd;stroke:none" /><path
       d="m 567.8,530.25 111.05,0 0,35.25 -111.05,0 0,-35.25 z"
       inkscape:connector-curvature="0"
       id="path48"
       style="fill:none;stroke:#000000;stroke-width:0.75;stroke-linecap:round;stroke-linejoin:miter;stroke-miterlimit:8;stroke-opacity:1;stroke-dasharray:none" /><g
       id="g50"><g
         clip-path="url(#clipPath54)"
         id="g52"><g
           id="g58"><g
             clip-path="url(#clipPath62)"
             id="g60"><text
   transform="matrix(1,0,0,-1,586.75,550.39)"
   id="text66"><tspan
     x="0"
     y="0"
     id="tspan68"
     style="font-size:12px;font-variant:normal;font-weight:bold;writing-mode:lr-tb;fill:#000000;fill-opacity:1;fill-rule:nonzero;stroke:none;font-family:Helvetica;-inkscape-font-specification:Helvetica-Bold">K</tspan></text>

</g></g><g
           id="g70"><g
             clip-path="url(#clipPath74)"
             id="g72"><text
   transform="matrix(1,0,0,-1,595.39,550.39)"
   id="text78"><tspan
     x="0 7.3319998 18 25.332001 32.664001 39.995998 46.667999 54"
     y="0"
     id="tspan80"
     style="font-size:12px;font-variant:normal;font-weight:bold;writing-mode:lr-tb;fill:#000000;fill-opacity:1;fill-rule:nonzero;stroke:none;font-family:Helvetica;-inkscape-font-specification:Helvetica-Bold">omponent</tspan></text>

</g></g><g
           id="g82"><g
             clip-path="url(#clipPath86)"
             id="g84"><text
   transform="matrix(1,0,0,-1,653.35,550.39)"
   id="text90"><tspan
     x="0"
     y="0"
     id="tspan92"
     style="font-size:12px;font-variant:normal;font-weight:bold;writing-mode:lr-tb;fill:#000000;fill-opacity:1;fill-rule:nonzero;stroke:none;font-family:Helvetica;-inkscape-font-specification:Helvetica-Bold">e</tspan></text>

</g></g><g
           id="g94"><g
             clip-path="url(#clipPath98)"
             id="g96" /></g><g
           id="g102"><g
             clip-path="url(#clipPath106)"
             id="g104"><text
   transform="matrix(1,0,0,-1,598.03,536.59)"
   id="text110"><tspan
     x="0 3.96 10.668 17.375999 23.375999 26.712 30.708 37.380001 43.403999 46.740002"
     y="0"
     id="tspan112"
     style="font-size:12px;font-variant:normal;font-weight:normal;writing-mode:lr-tb;fill:#000000;fill-opacity:1;fill-rule:nonzero;stroke:none;font-family:Helvetica;-inkscape-font-specification:Helvetica">{abstract}</tspan></text>

</g></g><g
           id="g114"><g
             clip-path="url(#clipPath118)"
             id="g116" /></g><g
           id="g122"><g
             clip-path="url(#clipPath126)"
             id="g124" /></g></g></g><path
       d="m 582.15,443.25 80.75,0 0,35.25 -80.75,0 0,-35.25 z"
       inkscape:connector-curvature="0"
       id="path130"
       style="fill:#ffffff;fill-opacity:1;fill-rule:evenodd;stroke:none" /><path
       d="m 582.15,443.25 80.75,0 0,35.25 -80.75,0 0,-35.25 z"
       inkscape:connector-curvature="0"
       id="path132"
       style="fill:none;stroke:#000000;stroke-width:0.75;stroke-linecap:round;stroke-linejoin:miter;stroke-miterlimit:8;stroke-opacity:1;stroke-dasharray:none" /><g
       id="g134"><g
         clip-path="url(#clipPath138)"
         id="g136"><g
           id="g142"><g
             clip-path="url(#clipPath146)"
             id="g144"><text
   transform="matrix(1,0,0,-1,603.31,463.39)"
   id="text150"><tspan
     x="0 6.7080002 14.736 21.444 28.775999 35.363998"
     y="0"
     id="tspan152"
     style="font-size:12px;font-variant:normal;font-weight:bold;writing-mode:lr-tb;fill:#000000;fill-opacity:1;fill-rule:nonzero;stroke:none;font-family:Helvetica;-inkscape-font-specification:Helvetica-Bold">JPanel</tspan></text>

</g></g><g
           id="g154"><g
             clip-path="url(#clipPath158)"
             id="g156" /></g><g
           id="g162"><g
             clip-path="url(#clipPath166)"
             id="g164" /></g><g
           id="g170"><g
             clip-path="url(#clipPath174)"
             id="g172" /></g></g></g><path
       d="m 492.55,443.25 79.8,0 0,35.25 -79.8,0 0,-35.25 z"
       inkscape:connector-curvature="0"
       id="path178"
       style="fill:#ffffff;fill-opacity:1;fill-rule:evenodd;stroke:none" /><path
       d="m 492.55,443.25 79.8,0 0,35.25 -79.8,0 0,-35.25 z"
       inkscape:connector-curvature="0"
       id="path180"
       style="fill:none;stroke:#000000;stroke-width:0.75;stroke-linecap:round;stroke-linejoin:miter;stroke-miterlimit:8;stroke-opacity:1;stroke-dasharray:none" /><g
       id="g182"><g
         clip-path="url(#clipPath186)"
         id="g184"><g
           id="g190"><g
             clip-path="url(#clipPath194)"
             id="g192"><text
   transform="matrix(1,0,0,-1,513.55,463.39)"
   id="text198"><tspan
     x="0 6.7080002 14.04 20.712 28.044001 31.416"
     y="0"
     id="tspan200"
     style="font-size:12px;font-variant:normal;font-weight:bold;writing-mode:lr-tb;fill:#000000;fill-opacity:1;fill-rule:nonzero;stroke:none;font-family:Helvetica;-inkscape-font-specification:Helvetica-Bold">JTable</tspan></text>

</g></g><g
           id="g202"><g
             clip-path="url(#clipPath206)"
             id="g204" /></g><g
           id="g210"><g
             clip-path="url(#clipPath214)"
             id="g212" /></g><g
           id="g218"><g
             clip-path="url(#clipPath222)"
             id="g220" /></g></g></g><path
       d="m 398.4,443.25 84.4,0 0,35.25 -84.4,0 0,-35.25 z"
       inkscape:connector-curvature="0"
       id="path226"
       style="fill:#ffffff;fill-opacity:1;fill-rule:evenodd;stroke:none" /><path
       d="m 398.4,443.25 84.4,0 0,35.25 -84.4,0 0,-35.25 z"
       inkscape:connector-curvature="0"
       id="path228"
       style="fill:none;stroke:#000000;stroke-width:0.75;stroke-linecap:round;stroke-linejoin:miter;stroke-miterlimit:8;stroke-opacity:1;stroke-dasharray:none" /><g
       id="g230"><g
         clip-path="url(#clipPath234)"
         id="g232"><g
           id="g238"><g
             clip-path="url(#clipPath242)"
             id="g240"><text
   transform="matrix(1,0,0,-1,417.89,463.39)"
   id="text246"><tspan
     x="0 6.7080002 15.372 22.704 26.628 30.624001 37.908001"
     y="0"
     id="tspan248"
     style="font-size:12px;font-variant:normal;font-weight:bold;writing-mode:lr-tb;fill:#000000;fill-opacity:1;fill-rule:nonzero;stroke:none;font-family:Helvetica;-inkscape-font-specification:Helvetica-Bold">JButton</tspan></text>

</g></g><g
           id="g250"><g
             clip-path="url(#clipPath254)"
             id="g252" /></g><g
           id="g258"><g
             clip-path="url(#clipPath262)"
             id="g260" /></g><g
           id="g266"><g
             clip-path="url(#clipPath270)"
             id="g268" /></g></g></g><g
       id="g274"><g
         clip-path="url(#clipPath278)"
         id="g276"><g
           id="g282"><g
             clip-path="url(#clipPath286)"
             id="g284" /></g></g></g><path
       d="m 304.35,443.5 84.4,0 0,35.25 -84.4,0 0,-35.25 z"
       inkscape:connector-curvature="0"
       id="path290"
       style="fill:#ffffff;fill-opacity:1;fill-rule:evenodd;stroke:none" /><path
       d="m 304.35,443.5 84.4,0 0,35.25 -84.4,0 0,-35.25 z"
       inkscape:connector-curvature="0"
       id="path292"
       style="fill:none;stroke:#000000;stroke-width:0.75;stroke-linecap:round;stroke-linejoin:miter;stroke-miterlimit:8;stroke-opacity:1;stroke-dasharray:none" /><g
       id="g294"><g
         clip-path="url(#clipPath298)"
         id="g296"><g
           id="g302"><g
             clip-path="url(#clipPath306)"
             id="g304"><text
   transform="matrix(1,0,0,-1,323.93,463.63)"
   id="text310"><tspan
     x="0 6.7080002 15.372 22.704 26.628 30.624001 37.908001"
     y="0"
     id="tspan312"
     style="font-size:12px;font-variant:normal;font-weight:bold;writing-mode:lr-tb;fill:#000000;fill-opacity:1;fill-rule:nonzero;stroke:none;font-family:Helvetica;-inkscape-font-specification:Helvetica-Bold">JButton</tspan></text>

</g></g><g
           id="g314"><g
             clip-path="url(#clipPath318)"
             id="g316" /></g><g
           id="g322"><g
             clip-path="url(#clipPath326)"
             id="g324" /></g><g
           id="g330"><g
             clip-path="url(#clipPath334)"
             id="g332" /></g></g></g><path
       d="m 540.6,478.5 43.95,44.8"
       inkscape:connector-curvature="0"
       id="path338"
       style="fill:none;stroke:#000000;stroke-width:0.75;stroke-linecap:round;stroke-linejoin:round;stroke-miterlimit:8;stroke-opacity:1;stroke-dasharray:none" /><path
       d="m 622.47,530.25 -3.57,-9 7.15,0 -3.58,9 z"
       inkscape:connector-curvature="0"
       id="path340"
       style="fill:#ffffff;fill-opacity:1;fill-rule:evenodd;stroke:none" /><path
       d="m 622.47,530.25 -3.57,-9 7.15,0 -3.58,9 z"
       inkscape:connector-curvature="0"
       id="path342"
       style="fill:none;stroke:#000000;stroke-width:0.75;stroke-linecap:round;stroke-linejoin:round;stroke-miterlimit:8;stroke-opacity:1;stroke-dasharray:none" /><path
       d="m 668.52,464.15 -5.47,-3.57 5.47,-3.58 5.48,3.58 -5.48,3.57 z"
       inkscape:connector-curvature="0"
       id="path344"
       style="fill:#ffffff;fill-opacity:1;fill-rule:evenodd;stroke:none" /><path
       d="m 668.52,464.15 -5.47,-3.57 5.47,-3.58 5.48,3.58 -5.48,3.57 z"
       inkscape:connector-curvature="0"
       id="path346"
       style="fill:none;stroke:#000000;stroke-width:0.75;stroke-linecap:round;stroke-linejoin:round;stroke-miterlimit:8;stroke-opacity:1;stroke-dasharray:none" /><path
       d="m 590.79,529.89 -8.81,-4 5.15,-4.96 3.66,8.96 z"
       inkscape:connector-curvature="0"
       id="path348"
       style="fill:#ffffff;fill-opacity:1;fill-rule:evenodd;stroke:none" /><path
       d="m 590.79,529.89 -8.81,-4 5.15,-4.96 3.66,8.96 z"
       inkscape:connector-curvature="0"
       id="path350"
       style="fill:none;stroke:#000000;stroke-width:0.75;stroke-linecap:round;stroke-linejoin:round;stroke-miterlimit:8;stroke-opacity:1;stroke-dasharray:none" /><path
       d="m 567.7,530.23 -9.61,-1.18 3.43,-6.27 6.18,7.45 z"
       inkscape:connector-curvature="0"
       id="path352"
       style="fill:#ffffff;fill-opacity:1;fill-rule:evenodd;stroke:none" /><path
       d="m 567.7,530.23 -9.61,-1.18 3.43,-6.27 6.18,7.45 z"
       inkscape:connector-curvature="0"
       id="path354"
       style="fill:none;stroke:#000000;stroke-width:0.75;stroke-linecap:round;stroke-linejoin:round;stroke-miterlimit:8;stroke-opacity:1;stroke-dasharray:none" /><path
       d="m 567.63,542.85 -9.63,0.99 1.94,-6.88 7.69,5.89 z"
       inkscape:connector-curvature="0"
       id="path356"
       style="fill:#ffffff;fill-opacity:1;fill-rule:evenodd;stroke:none" /><path
       d="m 567.63,542.85 -9.63,0.99 1.94,-6.88 7.69,5.89 z"
       inkscape:connector-curvature="0"
       id="path358"
       style="fill:none;stroke:#000000;stroke-width:0.75;stroke-linecap:round;stroke-linejoin:round;stroke-miterlimit:8;stroke-opacity:1;stroke-dasharray:none" /><path
       d="m 724.5,460.6 0,87.2"
       inkscape:connector-curvature="0"
       id="path360"
       style="fill:none;stroke:#000000;stroke-width:0.75;stroke-linecap:round;stroke-linejoin:round;stroke-miterlimit:8;stroke-opacity:1;stroke-dasharray:none" /><path
       d="m 724.5,547.8 -45.65,0"
       inkscape:connector-curvature="0"
       id="path362"
       style="fill:none;stroke:#000000;stroke-width:0.75;stroke-linecap:round;stroke-linejoin:round;stroke-miterlimit:8;stroke-opacity:1;stroke-dasharray:none" /><path
       d="m 674,460.6 50.5,0"
       inkscape:connector-curvature="0"
       id="path364"
       style="fill:none;stroke:#000000;stroke-width:0.75;stroke-linecap:round;stroke-linejoin:round;stroke-miterlimit:8;stroke-opacity:1;stroke-dasharray:none" /></g></svg>