<?xml version="1.0" encoding="UTF-8" standalone="no"?>
<!-- Created with Inkscape (http://www.inkscape.org/) -->

<svg
   xmlns:dc="http://purl.org/dc/elements/1.1/"
   xmlns:cc="http://creativecommons.org/ns#"
   xmlns:rdf="http://www.w3.org/1999/02/22-rdf-syntax-ns#"
   xmlns:svg="http://www.w3.org/2000/svg"
   xmlns="http://www.w3.org/2000/svg"
   xmlns:sodipodi="http://sodipodi.sourceforge.net/DTD/sodipodi-0.dtd"
   xmlns:inkscape="http://www.inkscape.org/namespaces/inkscape"
   version="1.1"
   width="687.125"
   height="314.53125"
   id="svg2"
   xml:space="preserve"
   inkscape:version="0.48.4 r9939"
   sodipodi:docname="Bild 4-61 Klassendiagramm des Objektpool-Musters.svg"><sodipodi:namedview
     pagecolor="#ffffff"
     bordercolor="#666666"
     borderopacity="1"
     objecttolerance="10"
     gridtolerance="10"
     guidetolerance="10"
     inkscape:pageopacity="0"
     inkscape:pageshadow="2"
     inkscape:window-width="640"
     inkscape:window-height="480"
     id="namedview360"
     showgrid="false"
     inkscape:zoom="0.18730159"
     inkscape:cx="163.59375"
     inkscape:cy="217.96875"
     inkscape:window-x="0"
     inkscape:window-y="0"
     inkscape:window-maximized="0"
     inkscape:current-layer="svg2" /><metadata
     id="metadata8"><rdf:RDF><cc:Work
         rdf:about=""><dc:format>image/svg+xml</dc:format><dc:type
           rdf:resource="http://purl.org/dc/dcmitype/StillImage" /></cc:Work></rdf:RDF></metadata><defs
     id="defs6"><clipPath
       id="clipPath18"><path
         d="m 390.77,459.55 64.56,0 0,19.8 -64.56,0 0,-19.8 z"
         inkscape:connector-curvature="0"
         id="path20" /></clipPath><clipPath
       id="clipPath26"><path
         d="m 390.77,459.55 64.56,0 0,19.8 -64.56,0 0,-19.8 z"
         inkscape:connector-curvature="0"
         id="path28" /></clipPath><clipPath
       id="clipPath38"><path
         d="m 390.77,459.55 64.56,0 0,19.8 -64.56,0 0,-19.8 z"
         inkscape:connector-curvature="0"
         id="path40" /></clipPath><clipPath
       id="clipPath50"><path
         d="m 390.77,459.55 64.56,0 0,19.8 -64.56,0 0,-19.8 z"
         inkscape:connector-curvature="0"
         id="path52" /></clipPath><clipPath
       id="clipPath62"><path
         d="m 390.77,459.55 64.56,0 0,19.8 -64.56,0 0,-19.8 z"
         inkscape:connector-curvature="0"
         id="path64" /></clipPath><clipPath
       id="clipPath72"><path
         d="m 554.6,357.16 40.92,0 0,18.96 -40.92,0 0,-18.96 z"
         inkscape:connector-curvature="0"
         id="path74" /></clipPath><clipPath
       id="clipPath80"><path
         d="m 554.59,357.17 40.92,0 0,18.96 -40.92,0 0,-18.96 z"
         inkscape:connector-curvature="0"
         id="path82" /></clipPath><clipPath
       id="clipPath92"><path
         d="m 554.59,357.17 40.92,0 0,18.96 -40.92,0 0,-18.96 z"
         inkscape:connector-curvature="0"
         id="path94" /></clipPath><clipPath
       id="clipPath110"><path
         d="m 385.49,539.59 153.63,0 0,17.88 -153.63,0 0,-17.88 z"
         inkscape:connector-curvature="0"
         id="path112" /></clipPath><clipPath
       id="clipPath118"><path
         d="m 385.49,539.59 153.62,0 0,17.88 -153.62,0 0,-17.88 z"
         inkscape:connector-curvature="0"
         id="path120" /></clipPath><clipPath
       id="clipPath130"><path
         d="m 385.49,539.59 153.62,0 0,17.88 -153.62,0 0,-17.88 z"
         inkscape:connector-curvature="0"
         id="path132" /></clipPath><clipPath
       id="clipPath144"><path
         d="m 578.6,500.59 343.85,0 0,21 -343.85,0 0,-21 z"
         inkscape:connector-curvature="0"
         id="path146" /></clipPath><clipPath
       id="clipPath152"><path
         d="m 578.59,500.59 343.85,0 0,21 -343.85,0 0,-21 z"
         inkscape:connector-curvature="0"
         id="path154" /></clipPath><clipPath
       id="clipPath164"><path
         d="m 578.59,500.59 343.85,0 0,21 -343.85,0 0,-21 z"
         inkscape:connector-curvature="0"
         id="path166" /></clipPath><clipPath
       id="clipPath176"><path
         d="m 578.59,500.59 343.85,0 0,21 -343.85,0 0,-21 z"
         inkscape:connector-curvature="0"
         id="path178" /></clipPath><clipPath
       id="clipPath188"><path
         d="m 578.59,500.59 343.85,0 0,21 -343.85,0 0,-21 z"
         inkscape:connector-curvature="0"
         id="path190" /></clipPath><clipPath
       id="clipPath200"><path
         d="m 578.59,500.59 343.85,0 0,21 -343.85,0 0,-21 z"
         inkscape:connector-curvature="0"
         id="path202" /></clipPath><clipPath
       id="clipPath212"><path
         d="m 578.59,500.59 343.85,0 0,21 -343.85,0 0,-21 z"
         inkscape:connector-curvature="0"
         id="path214" /></clipPath><clipPath
       id="clipPath222"><path
         d="m 578.6,410.8 343.85,0 0,82.71 -343.85,0 0,-82.71 z"
         inkscape:connector-curvature="0"
         id="path224" /></clipPath><clipPath
       id="clipPath230"><path
         d="m 578.59,410.81 343.85,0 0,82.704 -343.85,0 0,-82.704 z"
         inkscape:connector-curvature="0"
         id="path232" /></clipPath><clipPath
       id="clipPath242"><path
         d="m 578.59,410.81 343.85,0 0,82.704 -343.85,0 0,-82.704 z"
         inkscape:connector-curvature="0"
         id="path244" /></clipPath><clipPath
       id="clipPath250"><path
         d="m 578.59,410.81 343.85,0 0,82.704 -343.85,0 0,-82.704 z"
         inkscape:connector-curvature="0"
         id="path252" /></clipPath><clipPath
       id="clipPath262"><path
         d="m 578.59,410.81 343.85,0 0,82.704 -343.85,0 0,-82.704 z"
         inkscape:connector-curvature="0"
         id="path264" /></clipPath><clipPath
       id="clipPath274"><path
         d="m 578.59,410.81 343.85,0 0,82.704 -343.85,0 0,-82.704 z"
         inkscape:connector-curvature="0"
         id="path276" /></clipPath><clipPath
       id="clipPath282"><path
         d="m 578.59,410.81 343.85,0 0,82.704 -343.85,0 0,-82.704 z"
         inkscape:connector-curvature="0"
         id="path284" /></clipPath><clipPath
       id="clipPath294"><path
         d="m 578.59,410.81 343.85,0 0,82.704 -343.85,0 0,-82.704 z"
         inkscape:connector-curvature="0"
         id="path296" /></clipPath><clipPath
       id="clipPath302"><path
         d="m 578.59,410.81 343.85,0 0,82.704 -343.85,0 0,-82.704 z"
         inkscape:connector-curvature="0"
         id="path304" /></clipPath><clipPath
       id="clipPath314"><path
         d="m 578.59,410.81 343.85,0 0,82.704 -343.85,0 0,-82.704 z"
         inkscape:connector-curvature="0"
         id="path316" /></clipPath><clipPath
       id="clipPath326"><path
         d="m 578.59,410.81 343.85,0 0,82.704 -343.85,0 0,-82.704 z"
         inkscape:connector-curvature="0"
         id="path328" /></clipPath><clipPath
       id="clipPath338"><path
         d="m 578.59,410.81 343.85,0 0,82.704 -343.85,0 0,-82.704 z"
         inkscape:connector-curvature="0"
         id="path340" /></clipPath><clipPath
       id="clipPath346"><path
         d="m 578.59,410.81 343.85,0 0,82.704 -343.85,0 0,-82.704 z"
         inkscape:connector-curvature="0"
         id="path348" /></clipPath><clipPath
       id="clipPath358"><path
         d="m 578.59,410.81 343.85,0 0,82.704 -343.85,0 0,-82.704 z"
         inkscape:connector-curvature="0"
         id="path360" /></clipPath><clipPath
       id="clipPath370"><path
         d="m 578.59,410.81 343.85,0 0,82.704 -343.85,0 0,-82.704 z"
         inkscape:connector-curvature="0"
         id="path372" /></clipPath><clipPath
       id="clipPath382"><path
         d="m 578.59,410.81 343.85,0 0,82.704 -343.85,0 0,-82.704 z"
         inkscape:connector-curvature="0"
         id="path384" /></clipPath><clipPath
       id="clipPath394"><path
         d="m 578.59,410.81 343.85,0 0,82.704 -343.85,0 0,-82.704 z"
         inkscape:connector-curvature="0"
         id="path396" /></clipPath><clipPath
       id="clipPath406"><path
         d="m 578.59,410.81 343.85,0 0,82.704 -343.85,0 0,-82.704 z"
         inkscape:connector-curvature="0"
         id="path408" /></clipPath><clipPath
       id="clipPath416"><path
         d="m 578.59,410.81 343.85,0 0,82.704 -343.85,0 0,-82.704 z"
         inkscape:connector-curvature="0"
         id="path418" /></clipPath><clipPath
       id="clipPath428"><path
         d="m 578.59,410.81 343.85,0 0,82.704 -343.85,0 0,-82.704 z"
         inkscape:connector-curvature="0"
         id="path430" /></clipPath><clipPath
       id="clipPath436"><path
         d="m 578.59,410.81 343.85,0 0,82.704 -343.85,0 0,-82.704 z"
         inkscape:connector-curvature="0"
         id="path438" /></clipPath><clipPath
       id="clipPath448"><path
         d="m 578.59,410.81 343.85,0 0,82.704 -343.85,0 0,-82.704 z"
         inkscape:connector-curvature="0"
         id="path450" /></clipPath><clipPath
       id="clipPath456"><path
         d="m 578.59,410.81 343.85,0 0,82.704 -343.85,0 0,-82.704 z"
         inkscape:connector-curvature="0"
         id="path458" /></clipPath><clipPath
       id="clipPath468"><path
         d="m 578.59,410.81 343.85,0 0,82.704 -343.85,0 0,-82.704 z"
         inkscape:connector-curvature="0"
         id="path470" /></clipPath><clipPath
       id="clipPath476"><path
         d="m 578.59,410.81 343.85,0 0,82.704 -343.85,0 0,-82.704 z"
         inkscape:connector-curvature="0"
         id="path478" /></clipPath><clipPath
       id="clipPath488"><path
         d="m 578.59,410.81 343.85,0 0,82.704 -343.85,0 0,-82.704 z"
         inkscape:connector-curvature="0"
         id="path490" /></clipPath><clipPath
       id="clipPath496"><path
         d="m 578.59,410.81 343.85,0 0,82.704 -343.85,0 0,-82.704 z"
         inkscape:connector-curvature="0"
         id="path498" /></clipPath><clipPath
       id="clipPath508"><path
         d="m 578.59,410.81 343.85,0 0,82.704 -343.85,0 0,-82.704 z"
         inkscape:connector-curvature="0"
         id="path510" /></clipPath><clipPath
       id="clipPath516"><path
         d="m 578.59,410.81 343.85,0 0,82.704 -343.85,0 0,-82.704 z"
         inkscape:connector-curvature="0"
         id="path518" /></clipPath><clipPath
       id="clipPath528"><path
         d="m 578.59,410.81 343.85,0 0,82.704 -343.85,0 0,-82.704 z"
         inkscape:connector-curvature="0"
         id="path530" /></clipPath><clipPath
       id="clipPath540"><path
         d="m 578.59,410.81 343.85,0 0,82.704 -343.85,0 0,-82.704 z"
         inkscape:connector-curvature="0"
         id="path542" /></clipPath><clipPath
       id="clipPath552"><path
         d="m 578.59,410.81 343.85,0 0,82.704 -343.85,0 0,-82.704 z"
         inkscape:connector-curvature="0"
         id="path554" /></clipPath><clipPath
       id="clipPath560"><path
         d="m 578.59,410.81 343.85,0 0,82.704 -343.85,0 0,-82.704 z"
         inkscape:connector-curvature="0"
         id="path562" /></clipPath><clipPath
       id="clipPath568"><path
         d="m 578.59,410.81 343.85,0 0,82.704 -343.85,0 0,-82.704 z"
         inkscape:connector-curvature="0"
         id="path570" /></clipPath><clipPath
       id="clipPath580"><path
         d="m 578.59,410.81 343.85,0 0,82.704 -343.85,0 0,-82.704 z"
         inkscape:connector-curvature="0"
         id="path582" /></clipPath><clipPath
       id="clipPath588"><path
         d="m 578.59,410.81 343.85,0 0,82.704 -343.85,0 0,-82.704 z"
         inkscape:connector-curvature="0"
         id="path590" /></clipPath><clipPath
       id="clipPath600"><path
         d="m 578.59,410.81 343.85,0 0,82.704 -343.85,0 0,-82.704 z"
         inkscape:connector-curvature="0"
         id="path602" /></clipPath><clipPath
       id="clipPath610"><path
         d="m 374.21,333.52 176.19,0 0,38.76 -176.19,0 0,-38.76 z"
         inkscape:connector-curvature="0"
         id="path612" /></clipPath><clipPath
       id="clipPath618"><path
         d="m 374.21,333.53 176.18,0 0,38.76 -176.18,0 0,-38.76 z"
         inkscape:connector-curvature="0"
         id="path620" /></clipPath><clipPath
       id="clipPath630"><path
         d="m 374.21,333.53 176.18,0 0,38.76 -176.18,0 0,-38.76 z"
         inkscape:connector-curvature="0"
         id="path632" /></clipPath><clipPath
       id="clipPath642"><path
         d="m 374.21,333.53 176.18,0 0,38.76 -176.18,0 0,-38.76 z"
         inkscape:connector-curvature="0"
         id="path644" /></clipPath><clipPath
       id="clipPath650"><path
         d="m 374.21,333.53 176.18,0 0,38.76 -176.18,0 0,-38.76 z"
         inkscape:connector-curvature="0"
         id="path652" /></clipPath><clipPath
       id="clipPath662"><path
         d="m 374.21,333.53 176.18,0 0,38.76 -176.18,0 0,-38.76 z"
         inkscape:connector-curvature="0"
         id="path664" /></clipPath><clipPath
       id="clipPath672"><path
         d="m 576.08,557.83 64.56,0 0,19.8 -64.56,0 0,-19.8 z"
         inkscape:connector-curvature="0"
         id="path674" /></clipPath><clipPath
       id="clipPath680"><path
         d="m 576.07,557.83 64.56,0 0,19.8 -64.56,0 0,-19.8 z"
         inkscape:connector-curvature="0"
         id="path682" /></clipPath><clipPath
       id="clipPath692"><path
         d="m 576.07,557.83 64.56,0 0,19.8 -64.56,0 0,-19.8 z"
         inkscape:connector-curvature="0"
         id="path694" /></clipPath><clipPath
       id="clipPath704"><path
         d="m 576.07,557.83 64.56,0 0,19.8 -64.56,0 0,-19.8 z"
         inkscape:connector-curvature="0"
         id="path706" /></clipPath><clipPath
       id="clipPath716"><path
         d="m 576.07,557.83 64.56,0 0,19.8 -64.56,0 0,-19.8 z"
         inkscape:connector-curvature="0"
         id="path718" /></clipPath></defs><g
     transform="matrix(1.25,0,0,-1.25,-466.78125,726.5625)"
     id="g10"><path
       d="m 390.75,456 64.55,0 0,27 -64.55,0 0,-27 z"
       inkscape:connector-curvature="0"
       id="path12"
       style="fill:#ffffff;fill-opacity:1;fill-rule:evenodd;stroke:none" /><g
       id="g14"><g
         clip-path="url(#clipPath18)"
         id="g16"><g
           id="g22"><g
             clip-path="url(#clipPath26)"
             id="g24"><text
   transform="matrix(1,0,0,-1,397.97,468.31)"
   id="text30"><tspan
     x="0"
     y="0"
     id="tspan32"
     style="font-size:12px;font-variant:normal;font-weight:normal;writing-mode:lr-tb;fill:#000000;fill-opacity:1;fill-rule:nonzero;stroke:none;font-family:Courier New;-inkscape-font-specification:Courier New">«</tspan></text>

</g></g><g
           id="g34"><g
             clip-path="url(#clipPath38)"
             id="g36"><text
   transform="matrix(1,0,0,-1,405.17,468.31)"
   id="text42"><tspan
     x="0 6.7080002 12.708"
     y="0"
     id="tspan44"
     style="font-size:12px;font-variant:normal;font-weight:normal;writing-mode:lr-tb;fill:#000000;fill-opacity:1;fill-rule:nonzero;stroke:none;font-family:Helvetica;-inkscape-font-specification:Helvetica">use</tspan></text>

</g></g><g
           id="g46"><g
             clip-path="url(#clipPath50)"
             id="g48"><text
   transform="matrix(1,0,0,-1,424.61,468.31)"
   id="text54"><tspan
     x="0"
     y="0"
     id="tspan56"
     style="font-size:12px;font-variant:normal;font-weight:normal;writing-mode:lr-tb;fill:#000000;fill-opacity:1;fill-rule:nonzero;stroke:none;font-family:Courier New;-inkscape-font-specification:Courier New">»</tspan></text>

</g></g><g
           id="g58"><g
             clip-path="url(#clipPath62)"
             id="g60" /></g></g></g><path
       d="m 750.33,407.35 -7.88,-12.3 7.88,-12.3 7.87,12.3 -7.87,12.3 z"
       inkscape:connector-curvature="0"
       id="path66"
       style="fill:none;stroke:#000000;stroke-width:0.75;stroke-linecap:round;stroke-linejoin:round;stroke-miterlimit:10;stroke-opacity:1;stroke-dasharray:none" /><g
       id="g68"><g
         clip-path="url(#clipPath72)"
         id="g70"><g
           id="g76"><g
             clip-path="url(#clipPath80)"
             id="g78"><text
   transform="matrix(1,0,0,-1,560.95,357.53)"
   id="text84"><tspan
     x="0"
     y="0"
     id="tspan86"
     style="font-size:20.04000092px;font-variant:normal;font-weight:bold;writing-mode:lr-tb;fill:#000000;fill-opacity:1;fill-rule:nonzero;stroke:none;font-family:Helvetica;-inkscape-font-specification:Helvetica-Bold">*</tspan></text>

</g></g><g
           id="g88"><g
             clip-path="url(#clipPath92)"
             id="g90" /></g></g></g><path
       d="M 750.4,352.75 550.75,352.8"
       inkscape:connector-curvature="0"
       id="path96"
       style="fill:none;stroke:#000000;stroke-width:0.75;stroke-linecap:round;stroke-linejoin:round;stroke-miterlimit:10;stroke-opacity:1;stroke-dasharray:none" /><path
       d="m 750.4,382.75 0.05,-29.9"
       inkscape:connector-curvature="0"
       id="path98"
       style="fill:none;stroke:#000000;stroke-width:0.75;stroke-linecap:round;stroke-linejoin:round;stroke-miterlimit:10;stroke-opacity:1;stroke-dasharray:none" /><path
       d="m 750.95,548.5 0.01,-3 c 0,-0.28 -0.23,-0.5 -0.5,-0.5 -0.28,0 -0.5,0.22 -0.5,0.5 l -0.01,3 c 0,0.28 0.22,0.5 0.5,0.5 0.27,0 0.5,-0.22 0.5,-0.5 z m 0.01,-7 0.01,-3 c 0,-0.27 -0.22,-0.5 -0.5,-0.5 -0.27,0 -0.5,0.22 -0.5,0.5 l -0.01,3 c 0,0.28 0.23,0.5 0.5,0.5 0.28,0 0.5,-0.22 0.5,-0.5 z m 0.02,-7 0.01,-3 c 0,-0.27 -0.23,-0.5 -0.5,-0.5 -0.28,0 -0.5,0.22 -0.5,0.5 l -0.01,3 c 0,0.28 0.22,0.5 0.5,0.5 0.27,0 0.5,-0.22 0.5,-0.5 z m 0.01,-7 0.01,-0.35 c 0,-0.27 -0.23,-0.5 -0.5,-0.5 -0.28,0 -0.5,0.22 -0.5,0.5 l -0.01,0.35 c 0,0.28 0.23,0.5 0.5,0.5 0.28,0 0.5,-0.22 0.5,-0.5 z m 4.92,8.42 -5.41,-9.8 -5.46,9.78 c -0.14,0.24 -0.05,0.54 0.19,0.68 0.24,0.13 0.55,0.04 0.68,-0.2 l 5.02,-8.99 -0.87,0 4.98,9.01 c 0.13,0.24 0.44,0.33 0.68,0.2 0.24,-0.14 0.33,-0.44 0.19,-0.68 z"
       inkscape:connector-curvature="0"
       id="path100"
       style="fill:#000000;fill-opacity:1;fill-rule:nonzero;stroke:none" /><path
       d="m 462.85,536.25 0,-3 c 0,-0.28 -0.22,-0.5 -0.5,-0.5 -0.28,0 -0.5,0.22 -0.5,0.5 l 0,3 c 0,0.28 0.22,0.5 0.5,0.5 0.28,0 0.5,-0.22 0.5,-0.5 z m 0,-7 0,-3 c 0,-0.28 -0.22,-0.5 -0.5,-0.5 -0.27,0 -0.5,0.22 -0.5,0.5 l 0,3 c 0,0.28 0.23,0.5 0.5,0.5 0.28,0 0.5,-0.22 0.5,-0.5 z m 0,-7 0.01,-3 c 0,-0.28 -0.23,-0.5 -0.5,-0.5 -0.28,0 -0.5,0.22 -0.5,0.5 l -0.01,3 c 0,0.28 0.23,0.5 0.5,0.5 0.28,0 0.5,-0.22 0.5,-0.5 z m 0.01,-7 0,-3 c 0,-0.28 -0.23,-0.5 -0.5,-0.5 -0.28,0 -0.5,0.22 -0.5,0.5 l 0,3 c 0,0.28 0.22,0.5 0.5,0.5 0.27,0 0.5,-0.22 0.5,-0.5 z m 0,-7 0,-3 c 0,-0.28 -0.22,-0.5 -0.5,-0.5 -0.28,0 -0.5,0.22 -0.5,0.5 l 0,3 c 0,0.28 0.22,0.5 0.5,0.5 0.27,0 0.5,-0.22 0.5,-0.5 z m 0,-7 0,-3 c 0,-0.28 -0.22,-0.5 -0.5,-0.5 -0.27,0 -0.5,0.22 -0.5,0.5 l 0,3 c 0,0.28 0.22,0.5 0.5,0.5 0.28,0 0.5,-0.22 0.5,-0.5 z m 0,-7 0,-3 c 0,-0.28 -0.22,-0.5 -0.5,-0.5 -0.27,0 -0.5,0.22 -0.5,0.5 l 0,3 c 0,0.28 0.23,0.5 0.5,0.5 0.28,0 0.5,-0.22 0.5,-0.5 z m 0.01,-7 0,-3 c 0,-0.28 -0.23,-0.5 -0.5,-0.5 -0.28,0 -0.5,0.22 -0.5,0.5 l 0,3 c -0.01,0.28 0.22,0.5 0.49,0.5 0.28,0 0.5,-0.22 0.51,-0.5 z m 0,-7 0,-3 c 0,-0.28 -0.23,-0.5 -0.5,-0.5 -0.28,0 -0.5,0.22 -0.5,0.5 l 0,3 c 0,0.28 0.22,0.5 0.5,0.5 0.27,0 0.5,-0.22 0.5,-0.5 z m 0,-7 0,-3 c 0,-0.28 -0.22,-0.5 -0.5,-0.5 -0.28,0 -0.5,0.22 -0.5,0.5 l 0,3 c 0,0.28 0.22,0.5 0.5,0.5 0.28,0 0.5,-0.22 0.5,-0.5 z m 0,-7 0,-3 c 0,-0.28 -0.22,-0.5 -0.5,-0.5 -0.27,0 -0.5,0.22 -0.5,0.5 l 0,3 c 0,0.28 0.23,0.5 0.5,0.5 0.28,0 0.5,-0.22 0.5,-0.5 z m 0,-7 0,-3 c 0,-0.28 -0.22,-0.5 -0.5,-0.5 -0.27,0 -0.5,0.22 -0.5,0.5 l 0,3 c 0,0.28 0.23,0.5 0.5,0.5 0.28,0 0.5,-0.22 0.5,-0.5 z m 0.01,-7 0,-3 c 0,-0.28 -0.23,-0.5 -0.5,-0.5 -0.28,0 -0.5,0.22 -0.5,0.5 l 0,3 c 0,0.28 0.22,0.5 0.5,0.5 0.27,0 0.5,-0.22 0.5,-0.5 z m 0,-7 0,-3 c 0,-0.28 -0.22,-0.5 -0.5,-0.5 -0.28,0 -0.5,0.22 -0.5,0.5 l 0,3 c 0,0.28 0.22,0.5 0.5,0.5 0.27,0 0.5,-0.22 0.5,-0.5 z m 0,-7 0,-3 c 0,-0.28 -0.22,-0.5 -0.5,-0.5 -0.27,0 -0.5,0.22 -0.5,0.5 l 0,3 c 0,0.28 0.22,0.5 0.5,0.5 0.28,0 0.5,-0.22 0.5,-0.5 z m 0,-7 0,-3 c 0,-0.28 -0.22,-0.5 -0.5,-0.5 -0.27,0 -0.5,0.22 -0.5,0.5 l 0,3 c 0,0.28 0.23,0.5 0.5,0.5 0.28,0 0.5,-0.22 0.5,-0.5 z m 0,-7 0.01,-3 c 0,-0.28 -0.23,-0.5 -0.5,-0.5 -0.28,0 -0.5,0.22 -0.5,0.5 l -0.01,3 c 0,0.28 0.23,0.5 0.5,0.5 0.28,0 0.5,-0.22 0.5,-0.5 z m 0.01,-7 0,-3 c 0,-0.28 -0.23,-0.5 -0.5,-0.5 -0.28,0 -0.5,0.22 -0.5,0.5 l 0,3 c 0,0.28 0.22,0.5 0.5,0.5 0.27,0 0.5,-0.22 0.5,-0.5 z m 0,-7 0,-3 c 0,-0.28 -0.22,-0.5 -0.5,-0.5 -0.28,0 -0.5,0.22 -0.5,0.5 l 0,3 c 0,0.28 0.22,0.5 0.5,0.5 0.28,0 0.5,-0.22 0.5,-0.5 z m 0,-7 0,-3 c 0,-0.28 -0.22,-0.5 -0.5,-0.5 -0.27,0 -0.5,0.22 -0.5,0.5 l 0,3 c 0,0.28 0.22,0.5 0.5,0.5 0.28,0 0.5,-0.22 0.5,-0.5 z m 0,-7 0,-3 c 0,-0.28 -0.22,-0.5 -0.5,-0.5 -0.27,0 -0.5,0.22 -0.5,0.5 l 0,3 c 0,0.28 0.23,0.5 0.5,0.5 0.28,0 0.5,-0.22 0.5,-0.5 z m 0.01,-7 0,-3 c 0,-0.28 -0.23,-0.5 -0.5,-0.5 -0.28,0 -0.5,0.22 -0.5,0.5 l 0,3 c 0,0.28 0.22,0.5 0.5,0.5 0.27,0 0.5,-0.22 0.5,-0.5 z m 0,-7 0,-3 c 0,-0.28 -0.22,-0.5 -0.5,-0.5 -0.28,0 -0.5,0.22 -0.5,0.5 l 0,3 c 0,0.28 0.22,0.5 0.5,0.5 0.27,0 0.5,-0.22 0.5,-0.5 z m 4.93,4.41 -5.43,-9.79 -5.44,9.79 c -0.13,0.24 -0.05,0.54 0.19,0.68 0.24,0.13 0.55,0.04 0.68,-0.2 l 5.01,-9 -0.88,0 5,9 c 0.13,0.25 0.44,0.33 0.68,0.2 0.24,-0.14 0.33,-0.44 0.19,-0.68 z"
       inkscape:connector-curvature="0"
       id="path102"
       style="fill:#000000;fill-opacity:1;fill-rule:nonzero;stroke:none" /><path
       d="m 385.05,536.1 154.45,0 0,24.95 -154.45,0 0,-24.95 z"
       inkscape:connector-curvature="0"
       id="path104"
       style="fill:none;stroke:#000000;stroke-width:0.75;stroke-linecap:round;stroke-linejoin:miter;stroke-miterlimit:8;stroke-opacity:1;stroke-dasharray:none" /><g
       id="g106"><g
         clip-path="url(#clipPath110)"
         id="g108"><g
           id="g114"><g
             clip-path="url(#clipPath118)"
             id="g116"><text
   transform="matrix(1,0,0,-1,442.85,544.15)"
   id="text122"><tspan
     x="0 10.08072 14.02596 17.971201 25.777439 34.285679"
     y="0"
     id="tspan124"
     style="font-size:14.03999996px;font-variant:normal;font-weight:bold;writing-mode:lr-tb;fill:#000000;fill-opacity:1;fill-rule:nonzero;stroke:none;font-family:Helvetica;-inkscape-font-specification:Helvetica-Bold">Client</tspan></text>

</g></g><g
           id="g126"><g
             clip-path="url(#clipPath130)"
             id="g128" /></g></g></g><g
       id="g134"><path
         d="m 539.5,548.55 211,-0.05"
         inkscape:connector-curvature="0"
         id="path136"
         style="fill:none;stroke:#000000;stroke-width:0.75;stroke-linecap:round;stroke-linejoin:round;stroke-miterlimit:8;stroke-opacity:1;stroke-dasharray:2.25, 3;stroke-dashoffset:0" /></g><path
       d="m 578.05,497.1 344.7,0 0,28.05 -344.7,0 0,-28.05 z"
       inkscape:connector-curvature="0"
       id="path138"
       style="fill:none;stroke:#000000;stroke-width:0.75;stroke-linecap:round;stroke-linejoin:miter;stroke-miterlimit:8;stroke-opacity:1;stroke-dasharray:none" /><g
       id="g140"><g
         clip-path="url(#clipPath144)"
         id="g142"><g
           id="g148"><g
             clip-path="url(#clipPath152)"
             id="g150"><text
   transform="matrix(1,0,0,-1,713.86,508.27)"
   id="text156"><tspan
     x="0 10.92312 19.4454 23.39064"
     y="0"
     id="tspan158"
     style="font-size:14.03999996px;font-variant:normal;font-weight:bold;writing-mode:lr-tb;fill:#000000;fill-opacity:1;fill-rule:nonzero;stroke:none;font-family:Helvetica;-inkscape-font-specification:Helvetica-Bold">Obje</tspan></text>

</g></g><g
           id="g160"><g
             clip-path="url(#clipPath164)"
             id="g162"><text
   transform="matrix(1,0,0,-1,745.06,508.27)"
   id="text168"><tspan
     x="0"
     y="0"
     id="tspan170"
     style="font-size:14.03999996px;font-variant:normal;font-weight:bold;writing-mode:lr-tb;fill:#000000;fill-opacity:1;fill-rule:nonzero;stroke:none;font-family:Helvetica;-inkscape-font-specification:Helvetica-Bold">k</tspan></text>

</g></g><g
           id="g172"><g
             clip-path="url(#clipPath176)"
             id="g174"><text
   transform="matrix(1,0,0,-1,752.86,508.27)"
   id="text180"><tspan
     x="0"
     y="0"
     id="tspan182"
     style="font-size:14.03999996px;font-variant:normal;font-weight:bold;writing-mode:lr-tb;fill:#000000;fill-opacity:1;fill-rule:nonzero;stroke:none;font-family:Helvetica;-inkscape-font-specification:Helvetica-Bold">t</tspan></text>

</g></g><g
           id="g184"><g
             clip-path="url(#clipPath188)"
             id="g186"><text
   transform="matrix(1,0,0,-1,757.54,508.27)"
   id="text192"><tspan
     x="0"
     y="0"
     id="tspan194"
     style="font-size:14.03999996px;font-variant:normal;font-weight:bold;writing-mode:lr-tb;fill:#000000;fill-opacity:1;fill-rule:nonzero;stroke:none;font-family:Helvetica;-inkscape-font-specification:Helvetica-Bold">p</tspan></text>

</g></g><g
           id="g196"><g
             clip-path="url(#clipPath200)"
             id="g198"><text
   transform="matrix(1,0,0,-1,766.06,508.27)"
   id="text204"><tspan
     x="0 8.5200396 17.040079"
     y="0"
     id="tspan206"
     style="font-size:14.03999996px;font-variant:normal;font-weight:bold;writing-mode:lr-tb;fill:#000000;fill-opacity:1;fill-rule:nonzero;stroke:none;font-family:Helvetica;-inkscape-font-specification:Helvetica-Bold">ool</tspan></text>

</g></g><g
           id="g208"><g
             clip-path="url(#clipPath212)"
             id="g210" /></g></g></g><path
       d="m 578.05,407.35 344.7,0 0,89.75 -344.7,0 0,-89.75 z"
       inkscape:connector-curvature="0"
       id="path216"
       style="fill:none;stroke:#000000;stroke-width:0.75;stroke-linecap:round;stroke-linejoin:miter;stroke-miterlimit:8;stroke-opacity:1;stroke-dasharray:none" /><g
       id="g218"><g
         clip-path="url(#clipPath222)"
         id="g220"><g
           id="g226"><g
             clip-path="url(#clipPath230)"
             id="g228"><text
   transform="matrix(1,0,0,-1,584.83,480.55)"
   id="text234"><tspan
     x="0"
     y="0"
     id="tspan236"
     style="font-size:14.03999996px;font-variant:normal;font-weight:normal;writing-mode:lr-tb;fill:#000000;fill-opacity:1;fill-rule:nonzero;stroke:none;font-family:Helvetica;-inkscape-font-specification:Helvetica">-</tspan></text>

</g></g><g
           id="g238"><g
             clip-path="url(#clipPath242)"
             id="g240" /></g><g
           id="g246"><g
             clip-path="url(#clipPath250)"
             id="g248"><text
   transform="matrix(1,0,0,-1,597.31,480.55)"
   id="text254"><tspan
     x="0 10.92312 18.729361 21.846239 29.526119 36.588242 40.533482"
     y="0"
     id="tspan256"
     style="font-size:14.03999996px;font-variant:normal;font-weight:normal;writing-mode:lr-tb;fill:#000000;fill-opacity:1;fill-rule:nonzero;stroke:none;font-family:Helvetica;-inkscape-font-specification:Helvetica">Objektp</tspan></text>

</g></g><g
           id="g258"><g
             clip-path="url(#clipPath262)"
             id="g260"><text
   transform="matrix(1,0,0,-1,645.67,480.55)"
   id="text266"><tspan
     x="0 7.8062401 15.48612 18.603001 23.27832"
     y="0"
     id="tspan268"
     style="font-size:14.03999996px;font-variant:normal;font-weight:normal;writing-mode:lr-tb;fill:#000000;fill-opacity:1;fill-rule:nonzero;stroke:none;font-family:Helvetica;-inkscape-font-specification:Helvetica">ool()</tspan></text>

</g></g><g
           id="g270"><g
             clip-path="url(#clipPath274)"
             id="g272" /></g><g
           id="g278"><g
             clip-path="url(#clipPath282)"
             id="g280"><text
   transform="matrix(1,0,0,-1,584.83,464.47)"
   id="text286"><tspan
     x="0"
     y="0"
     id="tspan288"
     style="font-size:14.03999996px;font-variant:normal;font-weight:normal;writing-mode:lr-tb;fill:#000000;fill-opacity:1;fill-rule:nonzero;stroke:none;font-family:Helvetica;-inkscape-font-specification:Helvetica">+</tspan></text>

</g></g><g
           id="g290"><g
             clip-path="url(#clipPath294)"
             id="g292" /></g><g
           id="g298"><g
             clip-path="url(#clipPath302)"
             id="g300"><text
   transform="matrix(1,0,0,-1,596.95,464.47)"
   id="text306"><tspan
     x="0 7.8000002 10.91064"
     y="0"
     id="tspan308"
     style="font-size:14.03999996px;font-variant:normal;font-weight:normal;writing-mode:lr-tb;fill:#000000;fill-opacity:1;fill-rule:nonzero;stroke:none;font-family:Helvetica;-inkscape-font-specification:Helvetica">gib</tspan></text>

</g></g><g
           id="g310"><g
             clip-path="url(#clipPath314)"
             id="g312"><text
   transform="matrix(1,0,0,-1,615.67,464.47)"
   id="text318"><tspan
     x="0 9.3599997 17.16156 24.96312 28.075319"
     y="0"
     id="tspan320"
     style="font-size:14.03999996px;font-variant:normal;font-weight:normal;writing-mode:lr-tb;fill:#000000;fill-opacity:1;fill-rule:nonzero;stroke:none;font-family:Helvetica;-inkscape-font-specification:Helvetica">Pooli</tspan></text>

</g></g><g
           id="g322"><g
             clip-path="url(#clipPath326)"
             id="g324"><text
   transform="matrix(1,0,0,-1,646.87,464.47)"
   id="text330"><tspan
     x="0 7.6798801 14.64372 18.588961 26.395201 34.075081 41.137199 45.812519"
     y="0"
     id="tspan332"
     style="font-size:14.03999996px;font-variant:normal;font-weight:normal;writing-mode:lr-tb;fill:#000000;fill-opacity:1;fill-rule:nonzero;stroke:none;font-family:Helvetica;-inkscape-font-specification:Helvetica">nstanz()</tspan></text>

</g></g><g
           id="g334"><g
             clip-path="url(#clipPath338)"
             id="g336" /></g><g
           id="g342"><g
             clip-path="url(#clipPath346)"
             id="g344"><text
   transform="matrix(1,0,0,-1,701.26,464.47)"
   id="text350"><tspan
     x="0 3.8469601 7.7922001 18.715321 26.521561 29.638439"
     y="0"
     id="tspan352"
     style="font-size:14.03999996px;font-variant:normal;font-weight:normal;writing-mode:lr-tb;fill:#000000;fill-opacity:1;fill-rule:nonzero;stroke:none;font-family:Helvetica;-inkscape-font-specification:Helvetica">: Obje</tspan></text>

</g></g><g
           id="g354"><g
             clip-path="url(#clipPath358)"
             id="g356"><text
   transform="matrix(1,0,0,-1,738.58,464.47)"
   id="text362"><tspan
     x="0"
     y="0"
     id="tspan364"
     style="font-size:14.03999996px;font-variant:normal;font-weight:normal;writing-mode:lr-tb;fill:#000000;fill-opacity:1;fill-rule:nonzero;stroke:none;font-family:Helvetica;-inkscape-font-specification:Helvetica">k</tspan></text>

</g></g><g
           id="g366"><g
             clip-path="url(#clipPath370)"
             id="g368"><text
   transform="matrix(1,0,0,-1,745.66,464.47)"
   id="text374"><tspan
     x="0"
     y="0"
     id="tspan376"
     style="font-size:14.03999996px;font-variant:normal;font-weight:normal;writing-mode:lr-tb;fill:#000000;fill-opacity:1;fill-rule:nonzero;stroke:none;font-family:Helvetica;-inkscape-font-specification:Helvetica">t</tspan></text>

</g></g><g
           id="g378"><g
             clip-path="url(#clipPath382)"
             id="g380"><text
   transform="matrix(1,0,0,-1,749.62,464.47)"
   id="text386"><tspan
     x="0"
     y="0"
     id="tspan388"
     style="font-size:14.03999996px;font-variant:normal;font-weight:normal;writing-mode:lr-tb;fill:#000000;fill-opacity:1;fill-rule:nonzero;stroke:none;font-family:Helvetica;-inkscape-font-specification:Helvetica">p</tspan></text>

</g></g><g
           id="g390"><g
             clip-path="url(#clipPath394)"
             id="g392"><text
   transform="matrix(1,0,0,-1,757.3,464.47)"
   id="text398"><tspan
     x="0 7.8000002 15.6"
     y="0"
     id="tspan400"
     style="font-size:14.03999996px;font-variant:normal;font-weight:normal;writing-mode:lr-tb;fill:#000000;fill-opacity:1;fill-rule:nonzero;stroke:none;font-family:Helvetica;-inkscape-font-specification:Helvetica">ool</tspan></text>

</g></g><g
           id="g402"><g
             clip-path="url(#clipPath406)"
             id="g404" /></g><path
           d="m 584.83,461.95 191.06,0 0,1.08 -191.06,0 0,-1.08 z"
           inkscape:connector-curvature="0"
           id="path410"
           style="fill:#000000;fill-opacity:1;fill-rule:evenodd;stroke:none" /><g
           id="g412"><g
             clip-path="url(#clipPath416)"
             id="g414"><text
   transform="matrix(1,0,0,-1,584.83,448.39)"
   id="text420"><tspan
     x="0"
     y="0"
     id="tspan422"
     style="font-size:14.03999996px;font-variant:normal;font-weight:normal;writing-mode:lr-tb;fill:#000000;fill-opacity:1;fill-rule:nonzero;stroke:none;font-family:Helvetica;-inkscape-font-specification:Helvetica">+</tspan></text>

</g></g><g
           id="g424"><g
             clip-path="url(#clipPath428)"
             id="g426" /></g><g
           id="g432"><g
             clip-path="url(#clipPath436)"
             id="g434"><text
   transform="matrix(1,0,0,-1,596.95,448.39)"
   id="text440"><tspan
     x="0 7.8062401 10.92312 18.729361 29.652479 37.458721 40.5756 48.24144 55.20528 59.15052 63.82584"
     y="0"
     id="tspan442"
     style="font-size:14.03999996px;font-variant:normal;font-weight:normal;writing-mode:lr-tb;fill:#000000;fill-opacity:1;fill-rule:nonzero;stroke:none;font-family:Helvetica;-inkscape-font-specification:Helvetica">gibObjekt()</tspan></text>

</g></g><g
           id="g444"><g
             clip-path="url(#clipPath448)"
             id="g446" /></g><g
           id="g452"><g
             clip-path="url(#clipPath456)"
             id="g454"><text
   transform="matrix(1,0,0,-1,669.34,448.39)"
   id="text460"><tspan
     x="0 3.8469601 7.6939201 21.003839 24.12072 31.8006 39.606838 47.413078 52.088402 58.92588 66.732117 71.505722 81.460083 89.266319 97.072563 104.8788 112.68504 120.49128 125.1666 132.97284 142.33752 145.45441 153.26064 160.28064 167.37083"
     y="0"
     id="tspan462"
     style="font-size:14.03999996px;font-variant:normal;font-weight:normal;writing-mode:lr-tb;fill:#000000;fill-opacity:1;fill-rule:nonzero;stroke:none;font-family:Helvetica;-inkscape-font-specification:Helvetica">: WiederverwendbareKlasse</tspan></text>

</g></g><g
           id="g464"><g
             clip-path="url(#clipPath468)"
             id="g466" /></g><g
           id="g472"><g
             clip-path="url(#clipPath476)"
             id="g474"><text
   transform="matrix(1,0,0,-1,848.4,448.39)"
   id="text480"><tspan
     x="0 4.6893601 12.4956 20.30184 27.95364 32.62896 40.4352 48.24144 56.04768"
     y="0"
     id="tspan482"
     style="font-size:14.03999996px;font-variant:normal;font-weight:normal;writing-mode:lr-tb;fill:#000000;fill-opacity:1;fill-rule:nonzero;stroke:none;font-family:Helvetica;-inkscape-font-specification:Helvetica">{guarded}</tspan></text>

</g></g><g
           id="g484"><g
             clip-path="url(#clipPath488)"
             id="g486" /></g><g
           id="g492"><g
             clip-path="url(#clipPath496)"
             id="g494"><text
   transform="matrix(1,0,0,-1,584.83,432.17)"
   id="text500"><tspan
     x="0"
     y="0"
     id="tspan502"
     style="font-size:14.03999996px;font-variant:normal;font-weight:normal;writing-mode:lr-tb;fill:#000000;fill-opacity:1;fill-rule:nonzero;stroke:none;font-family:Helvetica;-inkscape-font-specification:Helvetica">+</tspan></text>

</g></g><g
           id="g504"><g
             clip-path="url(#clipPath508)"
             id="g506" /></g><g
           id="g512"><g
             clip-path="url(#clipPath516)"
             id="g514"><text
   transform="matrix(1,0,0,-1,596.95,432.17)"
   id="text520"><tspan
     x="0 7.8062401 15.61248 18.729361 26.395201 33.457321 37.402561 45.924839 53.731079"
     y="0"
     id="tspan522"
     style="font-size:14.03999996px;font-variant:normal;font-weight:normal;writing-mode:lr-tb;fill:#000000;fill-opacity:1;fill-rule:nonzero;stroke:none;font-family:Helvetica;-inkscape-font-specification:Helvetica">objektZur</tspan></text>

</g></g><g
           id="g524"><g
             clip-path="url(#clipPath528)"
             id="g526"><text
   transform="matrix(1,0,0,-1,655.42,432.17)"
   id="text532"><tspan
     x="0 7.8000002"
     y="0"
     id="tspan534"
     style="font-size:14.03999996px;font-variant:normal;font-weight:normal;writing-mode:lr-tb;fill:#000000;fill-opacity:1;fill-rule:nonzero;stroke:none;font-family:Helvetica;-inkscape-font-specification:Helvetica">ue</tspan></text>

</g></g><g
           id="g536"><g
             clip-path="url(#clipPath540)"
             id="g538"><text
   transform="matrix(1,0,0,-1,670.9,432.17)"
   id="text544"><tspan
     x="0 6.96384 14.02596 21.832199 29.512079 37.318321 45.124561 52.930801"
     y="0"
     id="tspan546"
     style="font-size:14.03999996px;font-variant:normal;font-weight:normal;writing-mode:lr-tb;fill:#000000;fill-opacity:1;fill-rule:nonzero;stroke:none;font-family:Helvetica;-inkscape-font-specification:Helvetica">ckgeben </tspan></text>

</g></g><g
           id="g548"><g
             clip-path="url(#clipPath552)"
             id="g550" /></g><g
           id="g556"><g
             clip-path="url(#clipPath560)"
             id="g558" /></g><g
           id="g564"><g
             clip-path="url(#clipPath568)"
             id="g566"><text
   transform="matrix(1,0,0,-1,654.94,415.97)"
   id="text572"><tspan
     x="0 4.6753201 12.48156 16.31448 20.16144 24.0084 37.430641 40.4352 48.115082 55.921322 63.727558 68.402878 75.240356 83.0466 87.820198 97.774559 105.5808 113.38704 121.19328 128.99953 136.80576 141.48108 149.28732 158.65199 161.76888 169.57512 176.59512 183.68532 191.3652"
     y="0"
     id="tspan574"
     style="font-size:14.03999996px;font-variant:normal;font-weight:normal;writing-mode:lr-tb;fill:#000000;fill-opacity:1;fill-rule:nonzero;stroke:none;font-family:Helvetica;-inkscape-font-specification:Helvetica">(o : WiederverwendbareKlasse)</tspan></text>

</g></g><g
           id="g576"><g
             clip-path="url(#clipPath580)"
             id="g578" /></g><g
           id="g584"><g
             clip-path="url(#clipPath588)"
             id="g586"><text
   transform="matrix(1,0,0,-1,855,415.97)"
   id="text592"><tspan
     x="0 4.6893601 12.4956 20.16144 27.96768 32.643002 40.449242 48.255482 56.061722"
     y="0"
     id="tspan594"
     style="font-size:14.03999996px;font-variant:normal;font-weight:normal;writing-mode:lr-tb;fill:#000000;fill-opacity:1;fill-rule:nonzero;stroke:none;font-family:Helvetica;-inkscape-font-specification:Helvetica">{guarded}</tspan></text>

</g></g><g
           id="g596"><g
             clip-path="url(#clipPath600)"
             id="g598" /></g></g></g><path
       d="m 373.8,330 176.95,0 0,45.9 -176.95,0 0,-45.9 z"
       inkscape:connector-curvature="0"
       id="path604"
       style="fill:none;stroke:#000000;stroke-width:0.75;stroke-linecap:round;stroke-linejoin:miter;stroke-miterlimit:8;stroke-opacity:1;stroke-dasharray:none" /><g
       id="g606"><g
         clip-path="url(#clipPath610)"
         id="g608"><g
           id="g614"><g
             clip-path="url(#clipPath618)"
             id="g616"><text
   transform="matrix(1,0,0,-1,393.41,359.33)"
   id="text622"><tspan
     x="0 13.1976 17.142839 24.94908 33.457321 41.263561 46.767239 54.447121 62.253361 67.532402 78.680161 86.486397 94.994637 103.51692 112.0392 119.84544 125.34912"
     y="0"
     id="tspan624"
     style="font-size:14.03999996px;font-variant:normal;font-weight:bold;writing-mode:lr-tb;fill:#000000;fill-opacity:1;fill-rule:nonzero;stroke:none;font-family:Helvetica;-inkscape-font-specification:Helvetica-Bold">Wiederverwendbare</tspan></text>

</g></g><g
           id="g626"><g
             clip-path="url(#clipPath630)"
             id="g628"><text
   transform="matrix(1,0,0,-1,526.63,359.33)"
   id="text634"><tspan
     x="0"
     y="0"
     id="tspan636"
     style="font-size:14.03999996px;font-variant:normal;font-weight:bold;writing-mode:lr-tb;fill:#000000;fill-opacity:1;fill-rule:nonzero;stroke:none;font-family:Helvetica;-inkscape-font-specification:Helvetica-Bold">-</tspan></text>

</g></g><g
           id="g638"><g
             clip-path="url(#clipPath642)"
             id="g640" /></g><g
           id="g646"><g
             clip-path="url(#clipPath650)"
             id="g648"><text
   transform="matrix(1,0,0,-1,439.73,342.77)"
   id="text654"><tspan
     x="0 10.08072 14.02596 21.832199 29.638439 37.444679"
     y="0"
     id="tspan656"
     style="font-size:14.03999996px;font-variant:normal;font-weight:bold;writing-mode:lr-tb;fill:#000000;fill-opacity:1;fill-rule:nonzero;stroke:none;font-family:Helvetica;-inkscape-font-specification:Helvetica-Bold">Klasse</tspan></text>

</g></g><g
           id="g658"><g
             clip-path="url(#clipPath662)"
             id="g660" /></g></g></g><path
       d="m 576,554.25 64.55,0 0,27 -64.55,0 0,-27 z"
       inkscape:connector-curvature="0"
       id="path666"
       style="fill:#ffffff;fill-opacity:1;fill-rule:evenodd;stroke:none" /><g
       id="g668"><g
         clip-path="url(#clipPath672)"
         id="g670"><g
           id="g676"><g
             clip-path="url(#clipPath680)"
             id="g678"><text
   transform="matrix(1,0,0,-1,583.27,566.59)"
   id="text684"><tspan
     x="0"
     y="0"
     id="tspan686"
     style="font-size:12px;font-variant:normal;font-weight:normal;writing-mode:lr-tb;fill:#000000;fill-opacity:1;fill-rule:nonzero;stroke:none;font-family:Courier New;-inkscape-font-specification:Courier New">«</tspan></text>

</g></g><g
           id="g688"><g
             clip-path="url(#clipPath692)"
             id="g690"><text
   transform="matrix(1,0,0,-1,590.47,566.59)"
   id="text696"><tspan
     x="0 6.7080002 12.708"
     y="0"
     id="tspan698"
     style="font-size:12px;font-variant:normal;font-weight:normal;writing-mode:lr-tb;fill:#000000;fill-opacity:1;fill-rule:nonzero;stroke:none;font-family:Helvetica;-inkscape-font-specification:Helvetica">use</tspan></text>

</g></g><g
           id="g700"><g
             clip-path="url(#clipPath704)"
             id="g702"><text
   transform="matrix(1,0,0,-1,609.91,566.59)"
   id="text708"><tspan
     x="0"
     y="0"
     id="tspan710"
     style="font-size:12px;font-variant:normal;font-weight:normal;writing-mode:lr-tb;fill:#000000;fill-opacity:1;fill-rule:nonzero;stroke:none;font-family:Courier New;-inkscape-font-specification:Courier New">»</tspan></text>

</g></g><g
           id="g712"><g
             clip-path="url(#clipPath716)"
             id="g714" /></g></g></g></g></svg>