<?xml version="1.0" encoding="UTF-8" standalone="no"?>
<!-- Created with Inkscape (http://www.inkscape.org/) -->

<svg
   xmlns:dc="http://purl.org/dc/elements/1.1/"
   xmlns:cc="http://creativecommons.org/ns#"
   xmlns:rdf="http://www.w3.org/1999/02/22-rdf-syntax-ns#"
   xmlns:svg="http://www.w3.org/2000/svg"
   xmlns="http://www.w3.org/2000/svg"
   xmlns:sodipodi="http://sodipodi.sourceforge.net/DTD/sodipodi-0.dtd"
   xmlns:inkscape="http://www.inkscape.org/namespaces/inkscape"
   version="1.1"
   width="374.0625"
   height="320.875"
   id="svg2"
   xml:space="preserve"
   inkscape:version="0.48.4 r9939"
   sodipodi:docname="Bild 4-35 Sequenzdiagramm Strategie.svg"><sodipodi:namedview
     pagecolor="#ffffff"
     bordercolor="#666666"
     borderopacity="1"
     objecttolerance="10"
     gridtolerance="10"
     guidetolerance="10"
     inkscape:pageopacity="0"
     inkscape:pageshadow="2"
     inkscape:window-width="640"
     inkscape:window-height="480"
     id="namedview307"
     showgrid="false"
     inkscape:zoom="0.18730159"
     inkscape:cx="121.84375"
     inkscape:cy="242.90625"
     inkscape:window-x="0"
     inkscape:window-y="0"
     inkscape:window-maximized="0"
     inkscape:current-layer="svg2" /><metadata
     id="metadata8"><rdf:RDF><cc:Work
         rdf:about=""><dc:format>image/svg+xml</dc:format><dc:type
           rdf:resource="http://purl.org/dc/dcmitype/StillImage" /></cc:Work></rdf:RDF></metadata><defs
     id="defs6"><clipPath
       id="clipPath16"><path
         d="m 442.37,492.79 86.07,0 0,18 -86.07,0 0,-18 z"
         inkscape:connector-curvature="0"
         id="path18" /></clipPath><clipPath
       id="clipPath24"><path
         d="m 442.37,492.79 86.064,0 0,18 -86.064,0 0,-18 z"
         inkscape:connector-curvature="0"
         id="path26" /></clipPath><clipPath
       id="clipPath36"><path
         d="m 442.37,492.79 86.064,0 0,18 -86.064,0 0,-18 z"
         inkscape:connector-curvature="0"
         id="path38" /></clipPath><clipPath
       id="clipPath48"><path
         d="m 442.37,492.79 86.064,0 0,18 -86.064,0 0,-18 z"
         inkscape:connector-curvature="0"
         id="path50" /></clipPath><clipPath
       id="clipPath56"><path
         d="m 442.37,492.79 86.064,0 0,18 -86.064,0 0,-18 z"
         inkscape:connector-curvature="0"
         id="path58" /></clipPath><clipPath
       id="clipPath68"><path
         d="m 442.37,492.79 86.064,0 0,18 -86.064,0 0,-18 z"
         inkscape:connector-curvature="0"
         id="path70" /></clipPath><clipPath
       id="clipPath80"><path
         d="m 442.37,492.79 86.064,0 0,18 -86.064,0 0,-18 z"
         inkscape:connector-curvature="0"
         id="path82" /></clipPath><clipPath
       id="clipPath92"><path
         d="m 442.37,492.79 86.064,0 0,18 -86.064,0 0,-18 z"
         inkscape:connector-curvature="0"
         id="path94" /></clipPath><clipPath
       id="clipPath110"><path
         d="m 407.21,545.59 62.67,0 0,10.8 -62.67,0 0,-10.8 z"
         inkscape:connector-curvature="0"
         id="path112" /></clipPath><clipPath
       id="clipPath118"><path
         d="m 407.21,545.59 62.664,0 0,10.8 -62.664,0 0,-10.8 z"
         inkscape:connector-curvature="0"
         id="path120" /></clipPath><clipPath
       id="clipPath130"><path
         d="m 407.21,545.59 62.664,0 0,10.8 -62.664,0 0,-10.8 z"
         inkscape:connector-curvature="0"
         id="path132" /></clipPath><clipPath
       id="clipPath142"><path
         d="m 407.21,545.59 62.664,0 0,10.8 -62.664,0 0,-10.8 z"
         inkscape:connector-curvature="0"
         id="path144" /></clipPath><clipPath
       id="clipPath150"><path
         d="m 454.01,459.07 49.95,0 0,12.84 -49.95,0 0,-12.84 z"
         inkscape:connector-curvature="0"
         id="path152" /></clipPath><clipPath
       id="clipPath158"><path
         d="m 454.01,459.07 49.944,0 0,12.84 -49.944,0 0,-12.84 z"
         inkscape:connector-curvature="0"
         id="path160" /></clipPath><clipPath
       id="clipPath170"><path
         d="m 454.01,459.07 49.944,0 0,12.84 -49.944,0 0,-12.84 z"
         inkscape:connector-curvature="0"
         id="path172" /></clipPath><clipPath
       id="clipPath182"><path
         d="m 454.01,459.07 49.944,0 0,12.84 -49.944,0 0,-12.84 z"
         inkscape:connector-curvature="0"
         id="path184" /></clipPath><clipPath
       id="clipPath202"><path
         d="m 569.48,536.35 62.64,0 0,24.12 -62.64,0 0,-24.12 z"
         inkscape:connector-curvature="0"
         id="path204" /></clipPath><clipPath
       id="clipPath210"><path
         d="m 569.47,536.35 62.64,0 0,24.12 -62.64,0 0,-24.12 z"
         inkscape:connector-curvature="0"
         id="path212" /></clipPath><clipPath
       id="clipPath222"><path
         d="m 569.47,536.35 62.64,0 0,24.12 -62.64,0 0,-24.12 z"
         inkscape:connector-curvature="0"
         id="path224" /></clipPath><clipPath
       id="clipPath230"><path
         d="m 569.47,536.35 62.64,0 0,24.12 -62.64,0 0,-24.12 z"
         inkscape:connector-curvature="0"
         id="path232" /></clipPath><clipPath
       id="clipPath242"><path
         d="m 569.47,536.35 62.64,0 0,24.12 -62.64,0 0,-24.12 z"
         inkscape:connector-curvature="0"
         id="path244" /></clipPath><clipPath
       id="clipPath254"><path
         d="m 569.47,536.35 62.64,0 0,24.12 -62.64,0 0,-24.12 z"
         inkscape:connector-curvature="0"
         id="path256" /></clipPath><clipPath
       id="clipPath262"><path
         d="m 643.04,536.35 62.655,0 0,24.36 -62.655,0 0,-24.36 z"
         inkscape:connector-curvature="0"
         id="path264" /></clipPath><clipPath
       id="clipPath270"><path
         d="m 643.03,536.35 62.664,0 0,24.36 -62.664,0 0,-24.36 z"
         inkscape:connector-curvature="0"
         id="path272" /></clipPath><clipPath
       id="clipPath282"><path
         d="m 643.03,536.35 62.664,0 0,24.36 -62.664,0 0,-24.36 z"
         inkscape:connector-curvature="0"
         id="path284" /></clipPath><clipPath
       id="clipPath290"><path
         d="m 643.03,536.35 62.664,0 0,24.36 -62.664,0 0,-24.36 z"
         inkscape:connector-curvature="0"
         id="path292" /></clipPath><clipPath
       id="clipPath302"><path
         d="m 643.03,536.35 62.664,0 0,24.36 -62.664,0 0,-24.36 z"
         inkscape:connector-curvature="0"
         id="path304" /></clipPath><clipPath
       id="clipPath314"><path
         d="m 643.03,536.35 62.664,0 0,24.36 -62.664,0 0,-24.36 z"
         inkscape:connector-curvature="0"
         id="path316" /></clipPath><clipPath
       id="clipPath332"><path
         d="m 494.48,545.35 62.64,0 0,10.68 -62.64,0 0,-10.68 z"
         inkscape:connector-curvature="0"
         id="path334" /></clipPath><clipPath
       id="clipPath340"><path
         d="m 494.47,545.35 62.64,0 0,10.68 -62.64,0 0,-10.68 z"
         inkscape:connector-curvature="0"
         id="path342" /></clipPath><clipPath
       id="clipPath352"><path
         d="m 494.47,545.35 62.64,0 0,10.68 -62.64,0 0,-10.68 z"
         inkscape:connector-curvature="0"
         id="path354" /></clipPath><clipPath
       id="clipPath364"><path
         d="m 494.47,545.35 62.64,0 0,10.68 -62.64,0 0,-10.68 z"
         inkscape:connector-curvature="0"
         id="path366" /></clipPath><clipPath
       id="clipPath378"><path
         d="m 532.64,435.16 57.72,0 0,8.55 -57.72,0 0,-8.55 z"
         inkscape:connector-curvature="0"
         id="path380" /></clipPath><clipPath
       id="clipPath386"><path
         d="m 532.63,435.17 57.72,0 0,8.544 -57.72,0 0,-8.544 z"
         inkscape:connector-curvature="0"
         id="path388" /></clipPath><clipPath
       id="clipPath398"><path
         d="m 532.63,435.17 57.72,0 0,8.544 -57.72,0 0,-8.544 z"
         inkscape:connector-curvature="0"
         id="path400" /></clipPath><clipPath
       id="clipPath410"><path
         d="m 532.63,435.17 57.72,0 0,8.544 -57.72,0 0,-8.544 z"
         inkscape:connector-curvature="0"
         id="path412" /></clipPath><clipPath
       id="clipPath464"><path
         d="m 443.69,394.72 87.27,0 0,18 -87.27,0 0,-18 z"
         inkscape:connector-curvature="0"
         id="path466" /></clipPath><clipPath
       id="clipPath472"><path
         d="m 443.69,394.73 87.264,0 0,18 -87.264,0 0,-18 z"
         inkscape:connector-curvature="0"
         id="path474" /></clipPath><clipPath
       id="clipPath484"><path
         d="m 443.69,394.73 87.264,0 0,18 -87.264,0 0,-18 z"
         inkscape:connector-curvature="0"
         id="path486" /></clipPath><clipPath
       id="clipPath496"><path
         d="m 443.69,394.73 87.264,0 0,18 -87.264,0 0,-18 z"
         inkscape:connector-curvature="0"
         id="path498" /></clipPath><clipPath
       id="clipPath508"><path
         d="m 443.69,394.73 87.264,0 0,18 -87.264,0 0,-18 z"
         inkscape:connector-curvature="0"
         id="path510" /></clipPath><clipPath
       id="clipPath520"><path
         d="m 443.69,394.73 87.264,0 0,18 -87.264,0 0,-18 z"
         inkscape:connector-curvature="0"
         id="path522" /></clipPath><clipPath
       id="clipPath528"><path
         d="m 454.01,360.64 47.55,0 0,12.84 -47.55,0 0,-12.84 z"
         inkscape:connector-curvature="0"
         id="path530" /></clipPath><clipPath
       id="clipPath536"><path
         d="m 454.01,360.65 47.544,0 0,12.84 -47.544,0 0,-12.84 z"
         inkscape:connector-curvature="0"
         id="path538" /></clipPath><clipPath
       id="clipPath548"><path
         d="m 454.01,360.65 47.544,0 0,12.84 -47.544,0 0,-12.84 z"
         inkscape:connector-curvature="0"
         id="path550" /></clipPath><clipPath
       id="clipPath560"><path
         d="m 454.01,360.65 47.544,0 0,12.84 -47.544,0 0,-12.84 z"
         inkscape:connector-curvature="0"
         id="path562" /></clipPath><clipPath
       id="clipPath568"><path
         d="m 536,331.96 57.6,0 0,10.56 -57.6,0 0,-10.56 z"
         inkscape:connector-curvature="0"
         id="path570" /></clipPath><clipPath
       id="clipPath576"><path
         d="m 535.99,331.97 57.6,0 0,10.56 -57.6,0 0,-10.56 z"
         inkscape:connector-curvature="0"
         id="path578" /></clipPath><clipPath
       id="clipPath588"><path
         d="m 535.99,331.97 57.6,0 0,10.56 -57.6,0 0,-10.56 z"
         inkscape:connector-curvature="0"
         id="path590" /></clipPath><clipPath
       id="clipPath596"><path
         d="m 535.99,331.97 57.6,0 0,10.56 -57.6,0 0,-10.56 z"
         inkscape:connector-curvature="0"
         id="path598" /></clipPath><clipPath
       id="clipPath608"><path
         d="m 535.99,331.97 57.6,0 0,10.56 -57.6,0 0,-10.56 z"
         inkscape:connector-curvature="0"
         id="path610" /></clipPath></defs><g
     transform="matrix(1.25,0,0,-1.25,-508.53125,707.96875)"
     id="g10"><g
       id="g12"><g
         clip-path="url(#clipPath16)"
         id="g14"><g
           id="g20"><g
             clip-path="url(#clipPath24)"
             id="g22"><text
   transform="matrix(1,0,0,-1,446.57,503.47)"
   id="text28"><tspan
     x="0 4.0682402 8.50632 10.78164 14.74536"
     y="0"
     id="tspan30"
     style="font-size:8.03999996px;font-variant:normal;font-weight:normal;writing-mode:lr-tb;fill:#000000;fill-opacity:1;fill-rule:nonzero;stroke:none;font-family:Helvetica;-inkscape-font-specification:Helvetica">setze</tspan></text>

</g></g><g
           id="g32"><g
             clip-path="url(#clipPath36)"
             id="g34"><text
   transform="matrix(1,0,0,-1,465.77,503.47)"
   id="text40"><tspan
     x="0 5.28228 7.5576 10.19472 14.6328 16.908119 21.346201 25.784281 27.56916"
     y="0"
     id="tspan42"
     style="font-size:8.03999996px;font-variant:normal;font-weight:normal;writing-mode:lr-tb;fill:#000000;fill-opacity:1;fill-rule:nonzero;stroke:none;font-family:Helvetica;-inkscape-font-specification:Helvetica">Strategie</tspan></text>

</g></g><g
           id="g44"><g
             clip-path="url(#clipPath48)"
             id="g46" /></g><g
           id="g52"><g
             clip-path="url(#clipPath56)"
             id="g54"><text
   transform="matrix(1,0,0,-1,446.57,494.23)"
   id="text60"><tspan
     x="0 2.63712 4.9124398 10.30728 14.74536 19.183439 23.25168 25.8888 30.20628 32.481602 36.919682 42.314522 44.58984 47.226959 51.544441 53.819759 58.257839 62.695919 64.480797"
     y="0"
     id="tspan62"
     style="font-size:8.03999996px;font-variant:normal;font-weight:normal;writing-mode:lr-tb;fill:#000000;fill-opacity:1;fill-rule:nonzero;stroke:none;font-family:Helvetica;-inkscape-font-specification:Helvetica">(:KonkreteStrategie</tspan></text>

</g></g><g
           id="g64"><g
             clip-path="url(#clipPath68)"
             id="g66"><text
   transform="matrix(1,0,0,-1,515.59,494.23)"
   id="text72"><tspan
     x="0"
     y="0"
     id="tspan74"
     style="font-size:8.03999996px;font-variant:normal;font-weight:normal;writing-mode:lr-tb;fill:#000000;fill-opacity:1;fill-rule:nonzero;stroke:none;font-family:Helvetica;-inkscape-font-specification:Helvetica">A</tspan></text>

</g></g><g
           id="g76"><g
             clip-path="url(#clipPath80)"
             id="g78"><text
   transform="matrix(1,0,0,-1,520.99,494.23)"
   id="text84"><tspan
     x="0"
     y="0"
     id="tspan86"
     style="font-size:8.03999996px;font-variant:normal;font-weight:normal;writing-mode:lr-tb;fill:#000000;fill-opacity:1;fill-rule:nonzero;stroke:none;font-family:Helvetica;-inkscape-font-specification:Helvetica">)</tspan></text>

</g></g><g
           id="g88"><g
             clip-path="url(#clipPath92)"
             id="g90" /></g></g></g><g
       id="g96"><path
         d="M 438.65,536 438.2,316.4"
         inkscape:connector-curvature="0"
         id="path98"
         style="fill:none;stroke:#000000;stroke-width:0.75;stroke-linecap:round;stroke-linejoin:round;stroke-miterlimit:10;stroke-opacity:1;stroke-dasharray:5.25, 3;stroke-dashoffset:0" /></g><g
       id="g100"><path
         d="m 525.8,539.8 0.05,-227"
         inkscape:connector-curvature="0"
         id="path102"
         style="fill:none;stroke:#000000;stroke-width:0.75;stroke-linecap:round;stroke-linejoin:round;stroke-miterlimit:10;stroke-opacity:1;stroke-dasharray:5.25, 3;stroke-dashoffset:0" /></g><path
       d="m 407.2,536 62.7,0 0,29.8 -62.7,0 0,-29.8 z"
       inkscape:connector-curvature="0"
       id="path104"
       style="fill:none;stroke:#000000;stroke-width:0.75;stroke-linecap:round;stroke-linejoin:miter;stroke-miterlimit:10;stroke-opacity:1;stroke-dasharray:none" /><g
       id="g106"><g
         clip-path="url(#clipPath110)"
         id="g108"><g
           id="g114"><g
             clip-path="url(#clipPath118)"
             id="g116"><text
   transform="matrix(1,0,0,-1,425.09,547.51)"
   id="text122"><tspan
     x="0"
     y="0"
     id="tspan124"
     style="font-size:9.47999954px;font-variant:normal;font-weight:normal;writing-mode:lr-tb;fill:#000000;fill-opacity:1;fill-rule:nonzero;stroke:none;font-family:Helvetica;-inkscape-font-specification:Helvetica">:</tspan></text>

</g></g><g
           id="g126"><g
             clip-path="url(#clipPath130)"
             id="g128"><text
   transform="matrix(1,0,0,-1,427.73,547.51)"
   id="text134"><tspan
     x="0 6.8445601 8.9870396 11.139 16.40988 21.680759"
     y="0"
     id="tspan136"
     style="font-size:9.47999954px;font-variant:normal;font-weight:normal;writing-mode:lr-tb;fill:#000000;fill-opacity:1;fill-rule:nonzero;stroke:none;font-family:Helvetica;-inkscape-font-specification:Helvetica">Client</tspan></text>

</g></g><g
           id="g138"><g
             clip-path="url(#clipPath142)"
             id="g140" /></g></g></g><g
       id="g146"><g
         clip-path="url(#clipPath150)"
         id="g148"><g
           id="g154"><g
             clip-path="url(#clipPath158)"
             id="g156"><text
   transform="matrix(1,0,0,-1,454.01,464.47)"
   id="text162"><tspan
     x="0 4.4380798 8.8761597 13.31424 15.95136 20.389441 22.664761 24.44964 28.91988"
     y="0"
     id="tspan164"
     style="font-size:8.03999996px;font-variant:normal;font-weight:normal;writing-mode:lr-tb;fill:#000000;fill-opacity:1;fill-rule:nonzero;stroke:none;font-family:Helvetica;-inkscape-font-specification:Helvetica">operation</tspan></text>

</g></g><g
           id="g166"><g
             clip-path="url(#clipPath170)"
             id="g168"><text
   transform="matrix(1,0,0,-1,487.39,464.47)"
   id="text174"><tspan
     x="0 2.6400199"
     y="0"
     id="tspan176"
     style="font-size:8.03999996px;font-variant:normal;font-weight:normal;writing-mode:lr-tb;fill:#000000;fill-opacity:1;fill-rule:nonzero;stroke:none;font-family:Helvetica;-inkscape-font-specification:Helvetica">()</tspan></text>

</g></g><g
           id="g178"><g
             clip-path="url(#clipPath182)"
             id="g180" /></g></g></g><path
       d="m 445.65,463.45 68.45,0 c 0.28,0 0.5,-0.22 0.5,-0.5 0,-0.28 -0.22,-0.5 -0.5,-0.5 l -68.45,0 c -0.28,0 -0.5,0.22 -0.5,0.5 0,0.28 0.22,0.5 0.5,0.5 z m 67.45,2.5 6,-3 -6,-3 0,6 z"
       inkscape:connector-curvature="0"
       id="path186"
       style="fill:#000000;fill-opacity:1;fill-rule:nonzero;stroke:none" /><path
       d="m 494.4,536.25 62.7,0 0,29.75 -62.7,0 0,-29.75 z"
       inkscape:connector-curvature="0"
       id="path188"
       style="fill:#ffffff;fill-opacity:1;fill-rule:evenodd;stroke:none" /><path
       d="m 494.4,536.25 62.7,0 0,29.75 -62.7,0 0,-29.75 z"
       inkscape:connector-curvature="0"
       id="path190"
       style="fill:none;stroke:#000000;stroke-width:0.75;stroke-linecap:round;stroke-linejoin:miter;stroke-miterlimit:10;stroke-opacity:1;stroke-dasharray:none" /><g
       id="g192"><path
         d="M 600.85,536.3 600.9,310.05"
         inkscape:connector-curvature="0"
         id="path194"
         style="fill:none;stroke:#000000;stroke-width:0.75;stroke-linecap:round;stroke-linejoin:round;stroke-miterlimit:10;stroke-opacity:1;stroke-dasharray:5.25, 3;stroke-dashoffset:0" /></g><path
       d="m 569.35,536.25 62.7,0 0,29.75 -62.7,0 0,-29.75 z"
       inkscape:connector-curvature="0"
       id="path196"
       style="fill:none;stroke:#000000;stroke-width:0.75;stroke-linecap:round;stroke-linejoin:miter;stroke-miterlimit:10;stroke-opacity:1;stroke-dasharray:none" /><g
       id="g198"><g
         clip-path="url(#clipPath202)"
         id="g200"><g
           id="g206"><g
             clip-path="url(#clipPath210)"
             id="g208"><text
   transform="matrix(1,0,0,-1,580.39,551.59)"
   id="text214"><tspan
     x="0 2.6354401 8.9870396 14.25792 19.528799 24.335159 27.454081 32.72496 35.360401"
     y="0"
     id="tspan216"
     style="font-size:9.47999954px;font-variant:normal;font-weight:normal;writing-mode:lr-tb;fill:#000000;fill-opacity:1;fill-rule:nonzero;stroke:none;font-family:Helvetica;-inkscape-font-specification:Helvetica">:Konkrete</tspan></text>

</g></g><g
           id="g218"><g
             clip-path="url(#clipPath222)"
             id="g220" /></g><g
           id="g226"><g
             clip-path="url(#clipPath230)"
             id="g228"><text
   transform="matrix(1,0,0,-1,578.59,540.67)"
   id="text234"><tspan
     x="0 6.3516002 8.9870396 12.11544 17.38632 20.021761 25.292641 30.582479 32.73444"
     y="0"
     id="tspan236"
     style="font-size:9.47999954px;font-variant:normal;font-weight:normal;writing-mode:lr-tb;fill:#000000;fill-opacity:1;fill-rule:nonzero;stroke:none;font-family:Helvetica;-inkscape-font-specification:Helvetica">Strategie</tspan></text>

</g></g><g
           id="g238"><g
             clip-path="url(#clipPath242)"
             id="g240"><text
   transform="matrix(1,0,0,-1,616.63,540.67)"
   id="text246"><tspan
     x="0"
     y="0"
     id="tspan248"
     style="font-size:9.47999954px;font-variant:normal;font-weight:normal;writing-mode:lr-tb;fill:#000000;fill-opacity:1;fill-rule:nonzero;stroke:none;font-family:Helvetica;-inkscape-font-specification:Helvetica">A</tspan></text>

</g></g><g
           id="g250"><g
             clip-path="url(#clipPath254)"
             id="g252" /></g></g></g><g
       id="g258"><g
         clip-path="url(#clipPath262)"
         id="g260"><g
           id="g266"><g
             clip-path="url(#clipPath270)"
             id="g268"><text
   transform="matrix(1,0,0,-1,653.98,551.83)"
   id="text274"><tspan
     x="0 2.6354401 8.9870396 14.25792 19.528799 24.335159 27.454081 32.72496 35.360401"
     y="0"
     id="tspan276"
     style="font-size:9.47999954px;font-variant:normal;font-weight:normal;writing-mode:lr-tb;fill:#000000;fill-opacity:1;fill-rule:nonzero;stroke:none;font-family:Helvetica;-inkscape-font-specification:Helvetica">:Konkrete</tspan></text>

</g></g><g
           id="g278"><g
             clip-path="url(#clipPath282)"
             id="g280" /></g><g
           id="g286"><g
             clip-path="url(#clipPath290)"
             id="g288"><text
   transform="matrix(1,0,0,-1,652.15,540.91)"
   id="text294"><tspan
     x="0 6.3516002 8.9870396 12.11544 17.38632 20.021761 25.292641 30.582479 32.73444"
     y="0"
     id="tspan296"
     style="font-size:9.47999954px;font-variant:normal;font-weight:normal;writing-mode:lr-tb;fill:#000000;fill-opacity:1;fill-rule:nonzero;stroke:none;font-family:Helvetica;-inkscape-font-specification:Helvetica">Strategie</tspan></text>

</g></g><g
           id="g298"><g
             clip-path="url(#clipPath302)"
             id="g300"><text
   transform="matrix(1,0,0,-1,690.22,540.91)"
   id="text306"><tspan
     x="0"
     y="0"
     id="tspan308"
     style="font-size:9.47999954px;font-variant:normal;font-weight:normal;writing-mode:lr-tb;fill:#000000;fill-opacity:1;fill-rule:nonzero;stroke:none;font-family:Helvetica;-inkscape-font-specification:Helvetica">B</tspan></text>

</g></g><g
           id="g310"><g
             clip-path="url(#clipPath314)"
             id="g312" /></g></g></g><path
       d="m 445.65,491.75 68.45,0.05 c 0.28,0 0.5,-0.23 0.5,-0.5 0,-0.28 -0.22,-0.5 -0.5,-0.5 l -68.45,-0.05 c -0.28,0 -0.5,0.22 -0.5,0.5 0,0.28 0.22,0.5 0.5,0.5 z m 67.45,2.55 6,-3 -6,-3 0,6 z"
       inkscape:connector-curvature="0"
       id="path318"
       style="fill:#000000;fill-opacity:1;fill-rule:nonzero;stroke:none" /><path
       d="m 431.95,452.2 13.25,0 0,64 -13.25,0 0,-64 z"
       inkscape:connector-curvature="0"
       id="path320"
       style="fill:#ffffff;fill-opacity:1;fill-rule:evenodd;stroke:none" /><path
       d="m 431.95,452.2 13.25,0 0,64 -13.25,0 0,-64 z"
       inkscape:connector-curvature="0"
       id="path322"
       style="fill:#ffffff;fill-opacity:1;fill-rule:evenodd;stroke:none" /><path
       d="m 431.95,452.2 13.25,0 0,64 -13.25,0 0,-64 z"
       inkscape:connector-curvature="0"
       id="path324"
       style="fill:none;stroke:#000000;stroke-width:0.75;stroke-linecap:round;stroke-linejoin:miter;stroke-miterlimit:10;stroke-opacity:1;stroke-dasharray:none" /><path
       d="m 530.8,434.65 57.95,0.05 c 0.28,0 0.5,-0.23 0.5,-0.5 0,-0.28 -0.22,-0.5 -0.5,-0.5 l -57.95,-0.05 c -0.28,0 -0.5,0.22 -0.5,0.5 0,0.28 0.22,0.5 0.5,0.5 z m 56.95,2.55 6,-3 -6,-3 0,6 z"
       inkscape:connector-curvature="0"
       id="path326"
       style="fill:#000000;fill-opacity:1;fill-rule:nonzero;stroke:none" /><g
       id="g328"><g
         clip-path="url(#clipPath332)"
         id="g330"><g
           id="g336"><g
             clip-path="url(#clipPath340)"
             id="g338"><text
   transform="matrix(1,0,0,-1,508.39,547.15)"
   id="text344"><tspan
     x="0"
     y="0"
     id="tspan346"
     style="font-size:9.47999954px;font-variant:normal;font-weight:normal;writing-mode:lr-tb;fill:#000000;fill-opacity:1;fill-rule:nonzero;stroke:none;font-family:Helvetica;-inkscape-font-specification:Helvetica">:</tspan></text>

</g></g><g
           id="g348"><g
             clip-path="url(#clipPath352)"
             id="g350"><text
   transform="matrix(1,0,0,-1,511.03,547.15)"
   id="text356"><tspan
     x="0 6.3516002 11.62248 16.89336 19.528799 24.81864 29.606039"
     y="0"
     id="tspan358"
     style="font-size:9.47999954px;font-variant:normal;font-weight:normal;writing-mode:lr-tb;fill:#000000;fill-opacity:1;fill-rule:nonzero;stroke:none;font-family:Helvetica;-inkscape-font-specification:Helvetica">Kontext</tspan></text>

</g></g><g
           id="g360"><g
             clip-path="url(#clipPath364)"
             id="g362" /></g></g></g><path
       d="m 519.4,479.35 13.25,0 0,13.25 -13.25,0 0,-13.25 z"
       inkscape:connector-curvature="0"
       id="path368"
       style="fill:#ffffff;fill-opacity:1;fill-rule:evenodd;stroke:none" /><path
       d="m 519.4,479.35 13.25,0 0,13.25 -13.25,0 0,-13.25 z"
       inkscape:connector-curvature="0"
       id="path370"
       style="fill:#ffffff;fill-opacity:1;fill-rule:evenodd;stroke:none" /><path
       d="m 519.4,479.35 13.25,0 0,13.25 -13.25,0 0,-13.25 z"
       inkscape:connector-curvature="0"
       id="path372"
       style="fill:none;stroke:#000000;stroke-width:0.75;stroke-linecap:round;stroke-linejoin:miter;stroke-miterlimit:10;stroke-opacity:1;stroke-dasharray:none" /><g
       id="g374"><g
         clip-path="url(#clipPath378)"
         id="g376"><g
           id="g382"><g
             clip-path="url(#clipPath386)"
             id="g384"><text
   transform="matrix(1,0,0,-1,536.71,436.37)"
   id="text390"><tspan
     x="0 4.4380798 6.22296 10.6932 15.1152 17.752319 19.537201 21.82056 26.138041 32.972038 37.410118"
     y="0"
     id="tspan392"
     style="font-size:8.03999996px;font-variant:normal;font-weight:normal;writing-mode:lr-tb;fill:#000000;fill-opacity:1;fill-rule:nonzero;stroke:none;font-family:Helvetica;-inkscape-font-specification:Helvetica">algorithmus</tspan></text>

</g></g><g
           id="g394"><g
             clip-path="url(#clipPath398)"
             id="g396"><text
   transform="matrix(1,0,0,-1,578.23,436.37)"
   id="text402"><tspan
     x="0 2.6400199"
     y="0"
     id="tspan404"
     style="font-size:8.03999996px;font-variant:normal;font-weight:normal;writing-mode:lr-tb;fill:#000000;fill-opacity:1;fill-rule:nonzero;stroke:none;font-family:Helvetica;-inkscape-font-specification:Helvetica">()</tspan></text>

</g></g><g
           id="g406"><g
             clip-path="url(#clipPath410)"
             id="g408" /></g></g></g><path
       d="m 519.4,423.95 13.25,0 0,40.6 -13.25,0 0,-40.6 z"
       inkscape:connector-curvature="0"
       id="path414"
       style="fill:#ffffff;fill-opacity:1;fill-rule:evenodd;stroke:none" /><path
       d="m 519.4,423.95 13.25,0 0,40.6 -13.25,0 0,-40.6 z"
       inkscape:connector-curvature="0"
       id="path416"
       style="fill:#ffffff;fill-opacity:1;fill-rule:evenodd;stroke:none" /><path
       d="m 519.4,423.95 13.25,0 0,40.6 -13.25,0 0,-40.6 z"
       inkscape:connector-curvature="0"
       id="path418"
       style="fill:none;stroke:#000000;stroke-width:0.75;stroke-linecap:round;stroke-linejoin:miter;stroke-miterlimit:10;stroke-opacity:1;stroke-dasharray:none" /><path
       d="m 594.05,423.95 13.25,0 0,11.35 -13.25,0 0,-11.35 z"
       inkscape:connector-curvature="0"
       id="path420"
       style="fill:#ffffff;fill-opacity:1;fill-rule:evenodd;stroke:none" /><path
       d="m 594.05,423.95 13.25,0 0,11.35 -13.25,0 0,-11.35 z"
       inkscape:connector-curvature="0"
       id="path422"
       style="fill:#ffffff;fill-opacity:1;fill-rule:evenodd;stroke:none" /><path
       d="m 594.05,423.95 13.25,0 0,11.35 -13.25,0 0,-11.35 z"
       inkscape:connector-curvature="0"
       id="path424"
       style="fill:none;stroke:#000000;stroke-width:0.75;stroke-linecap:round;stroke-linejoin:miter;stroke-miterlimit:10;stroke-opacity:1;stroke-dasharray:none" /><g
       id="g426"><path
         d="M 674.35,535.45 674.3,312.8"
         inkscape:connector-curvature="0"
         id="path428"
         style="fill:none;stroke:#000000;stroke-width:0.75;stroke-linecap:round;stroke-linejoin:round;stroke-miterlimit:10;stroke-opacity:1;stroke-dasharray:5.25, 3;stroke-dashoffset:0" /></g><path
       d="m 445.7,363.4 68.45,0.05 c 0.28,0 0.5,-0.23 0.5,-0.5 0,-0.28 -0.22,-0.5 -0.5,-0.5 L 445.7,362.4 c -0.28,0 -0.5,0.22 -0.5,0.5 0,0.28 0.22,0.5 0.5,0.5 z m 67.45,2.55 6,-3 -6,-3 0,6 z"
       inkscape:connector-curvature="0"
       id="path430"
       style="fill:#000000;fill-opacity:1;fill-rule:nonzero;stroke:none" /><path
       d="m 445.7,391.75 68.45,0 c 0.28,0 0.5,-0.22 0.5,-0.5 0,-0.28 -0.22,-0.5 -0.5,-0.5 l -68.45,0 c -0.28,0 -0.5,0.22 -0.5,0.5 0,0.28 0.22,0.5 0.5,0.5 z m 67.45,2.5 6,-3 -6,-3 0,6 z"
       inkscape:connector-curvature="0"
       id="path432"
       style="fill:#000000;fill-opacity:1;fill-rule:nonzero;stroke:none" /><path
       d="m 432,352.15 13.25,0 0,64 -13.25,0 0,-64 z"
       inkscape:connector-curvature="0"
       id="path434"
       style="fill:#ffffff;fill-opacity:1;fill-rule:evenodd;stroke:none" /><path
       d="m 432,352.15 13.25,0 0,64 -13.25,0 0,-64 z"
       inkscape:connector-curvature="0"
       id="path436"
       style="fill:#ffffff;fill-opacity:1;fill-rule:evenodd;stroke:none" /><path
       d="m 432,352.15 13.25,0 0,64 -13.25,0 0,-64 z"
       inkscape:connector-curvature="0"
       id="path438"
       style="fill:none;stroke:#000000;stroke-width:0.75;stroke-linecap:round;stroke-linejoin:miter;stroke-miterlimit:10;stroke-opacity:1;stroke-dasharray:none" /><path
       d="m 532.2,334.25 130,-0.05 c 0.28,0 0.5,-0.22 0.5,-0.5 0,-0.27 -0.22,-0.5 -0.5,-0.5 l -130,0.05 c -0.28,0 -0.5,0.22 -0.5,0.5 0,0.28 0.22,0.5 0.5,0.5 z m 129,2.45 6,-3 -6,-3 0,6 z"
       inkscape:connector-curvature="0"
       id="path440"
       style="fill:#000000;fill-opacity:1;fill-rule:nonzero;stroke:none" /><path
       d="m 519.45,379.35 13.25,0 0,13.2 -13.25,0 0,-13.2 z"
       inkscape:connector-curvature="0"
       id="path442"
       style="fill:#ffffff;fill-opacity:1;fill-rule:evenodd;stroke:none" /><path
       d="m 519.45,379.35 13.25,0 0,13.2 -13.25,0 0,-13.2 z"
       inkscape:connector-curvature="0"
       id="path444"
       style="fill:#ffffff;fill-opacity:1;fill-rule:evenodd;stroke:none" /><path
       d="m 519.45,379.35 13.25,0 0,13.2 -13.25,0 0,-13.2 z"
       inkscape:connector-curvature="0"
       id="path446"
       style="fill:none;stroke:#000000;stroke-width:0.75;stroke-linecap:round;stroke-linejoin:miter;stroke-miterlimit:10;stroke-opacity:1;stroke-dasharray:none" /><path
       d="m 519.45,323.9 13.25,0 0,40.65 -13.25,0 0,-40.65 z"
       inkscape:connector-curvature="0"
       id="path448"
       style="fill:#ffffff;fill-opacity:1;fill-rule:evenodd;stroke:none" /><path
       d="m 519.45,323.9 13.25,0 0,40.65 -13.25,0 0,-40.65 z"
       inkscape:connector-curvature="0"
       id="path450"
       style="fill:#ffffff;fill-opacity:1;fill-rule:evenodd;stroke:none" /><path
       d="m 519.45,323.9 13.25,0 0,40.65 -13.25,0 0,-40.65 z"
       inkscape:connector-curvature="0"
       id="path452"
       style="fill:none;stroke:#000000;stroke-width:0.75;stroke-linecap:round;stroke-linejoin:miter;stroke-miterlimit:10;stroke-opacity:1;stroke-dasharray:none" /><path
       d="m 667.6,323.9 13.25,0 0,11.35 -13.25,0 0,-11.35 z"
       inkscape:connector-curvature="0"
       id="path454"
       style="fill:#ffffff;fill-opacity:1;fill-rule:evenodd;stroke:none" /><path
       d="m 667.6,323.9 13.25,0 0,11.35 -13.25,0 0,-11.35 z"
       inkscape:connector-curvature="0"
       id="path456"
       style="fill:#ffffff;fill-opacity:1;fill-rule:evenodd;stroke:none" /><path
       d="m 667.6,323.9 13.25,0 0,11.35 -13.25,0 0,-11.35 z"
       inkscape:connector-curvature="0"
       id="path458"
       style="fill:none;stroke:#000000;stroke-width:0.75;stroke-linecap:round;stroke-linejoin:miter;stroke-miterlimit:10;stroke-opacity:1;stroke-dasharray:none" /><g
       id="g460"><g
         clip-path="url(#clipPath464)"
         id="g462"><g
           id="g468"><g
             clip-path="url(#clipPath472)"
             id="g470"><text
   transform="matrix(1,0,0,-1,447.89,405.41)"
   id="text476"><tspan
     x="0 4.0682402 8.50632 10.78164 14.74536 19.183439 24.465719 26.741039 29.37816 33.816238 36.09156 40.52964 44.96772 46.752602 51.222839"
     y="0"
     id="tspan478"
     style="font-size:8.03999996px;font-variant:normal;font-weight:normal;writing-mode:lr-tb;fill:#000000;fill-opacity:1;fill-rule:nonzero;stroke:none;font-family:Helvetica;-inkscape-font-specification:Helvetica">setzeStrategie </tspan></text>

</g></g><g
           id="g480"><g
             clip-path="url(#clipPath484)"
             id="g482"><text
   transform="matrix(1,0,0,-1,447.89,396.29)"
   id="text488"><tspan
     x="0 2.63712 4.9124398 10.30728 14.74536 19.183439 23.25168 25.8888 30.20628 32.481602 36.919682 42.314522 44.58984 47.226959 51.544441 53.819759 58.257839 62.695919 64.480797"
     y="0"
     id="tspan490"
     style="font-size:8.03999996px;font-variant:normal;font-weight:normal;writing-mode:lr-tb;fill:#000000;fill-opacity:1;fill-rule:nonzero;stroke:none;font-family:Helvetica;-inkscape-font-specification:Helvetica">(:KonkreteStrategie</tspan></text>

</g></g><g
           id="g492"><g
             clip-path="url(#clipPath496)"
             id="g494"><text
   transform="matrix(1,0,0,-1,516.91,396.29)"
   id="text500"><tspan
     x="0"
     y="0"
     id="tspan502"
     style="font-size:8.03999996px;font-variant:normal;font-weight:normal;writing-mode:lr-tb;fill:#000000;fill-opacity:1;fill-rule:nonzero;stroke:none;font-family:Helvetica;-inkscape-font-specification:Helvetica">B</tspan></text>

</g></g><g
           id="g504"><g
             clip-path="url(#clipPath508)"
             id="g506"><text
   transform="matrix(1,0,0,-1,522.31,396.29)"
   id="text512"><tspan
     x="0"
     y="0"
     id="tspan514"
     style="font-size:8.03999996px;font-variant:normal;font-weight:normal;writing-mode:lr-tb;fill:#000000;fill-opacity:1;fill-rule:nonzero;stroke:none;font-family:Helvetica;-inkscape-font-specification:Helvetica">)</tspan></text>

</g></g><g
           id="g516"><g
             clip-path="url(#clipPath520)"
             id="g518" /></g></g></g><g
       id="g524"><g
         clip-path="url(#clipPath528)"
         id="g526"><g
           id="g532"><g
             clip-path="url(#clipPath536)"
             id="g534"><text
   transform="matrix(1,0,0,-1,454.01,366.05)"
   id="text540"><tspan
     x="0 4.4380798 8.8761597 13.31424 15.95136 20.389441 22.664761 24.44964 28.91988"
     y="0"
     id="tspan542"
     style="font-size:8.03999996px;font-variant:normal;font-weight:normal;writing-mode:lr-tb;fill:#000000;fill-opacity:1;fill-rule:nonzero;stroke:none;font-family:Helvetica;-inkscape-font-specification:Helvetica">operation</tspan></text>

</g></g><g
           id="g544"><g
             clip-path="url(#clipPath548)"
             id="g546"><text
   transform="matrix(1,0,0,-1,487.39,366.05)"
   id="text552"><tspan
     x="0 2.6400199"
     y="0"
     id="tspan554"
     style="font-size:8.03999996px;font-variant:normal;font-weight:normal;writing-mode:lr-tb;fill:#000000;fill-opacity:1;fill-rule:nonzero;stroke:none;font-family:Helvetica;-inkscape-font-specification:Helvetica">()</tspan></text>

</g></g><g
           id="g556"><g
             clip-path="url(#clipPath560)"
             id="g558" /></g></g></g><g
       id="g564"><g
         clip-path="url(#clipPath568)"
         id="g566"><g
           id="g572"><g
             clip-path="url(#clipPath576)"
             id="g574"><text
   transform="matrix(1,0,0,-1,540.19,335.09)"
   id="text580"><tspan
     x="0 4.4380798 6.22296 10.6932 15.1152 17.752319 19.537201 21.82056 26.138041 32.972038 37.410118"
     y="0"
     id="tspan582"
     style="font-size:8.03999996px;font-variant:normal;font-weight:normal;writing-mode:lr-tb;fill:#000000;fill-opacity:1;fill-rule:nonzero;stroke:none;font-family:Helvetica;-inkscape-font-specification:Helvetica">algorithmus</tspan></text>

</g></g><g
           id="g584"><g
             clip-path="url(#clipPath588)"
             id="g586" /></g><g
           id="g592"><g
             clip-path="url(#clipPath596)"
             id="g594"><text
   transform="matrix(1,0,0,-1,583.87,335.09)"
   id="text600"><tspan
     x="0 2.6400199"
     y="0"
     id="tspan602"
     style="font-size:8.03999996px;font-variant:normal;font-weight:normal;writing-mode:lr-tb;fill:#000000;fill-opacity:1;fill-rule:nonzero;stroke:none;font-family:Helvetica;-inkscape-font-specification:Helvetica">()</tspan></text>

</g></g><g
           id="g604"><g
             clip-path="url(#clipPath608)"
             id="g606" /></g></g></g><path
       d="m 643,536.25 62.7,0 0,29.75 -62.7,0 0,-29.75 z"
       inkscape:connector-curvature="0"
       id="path612"
       style="fill:none;stroke:#000000;stroke-width:0.75;stroke-linecap:round;stroke-linejoin:miter;stroke-miterlimit:10;stroke-opacity:1;stroke-dasharray:none" /></g></svg>