<?xml version="1.0" encoding="UTF-8" standalone="no"?>
<!-- Created with Inkscape (http://www.inkscape.org/) -->

<svg
   xmlns:dc="http://purl.org/dc/elements/1.1/"
   xmlns:cc="http://creativecommons.org/ns#"
   xmlns:rdf="http://www.w3.org/1999/02/22-rdf-syntax-ns#"
   xmlns:svg="http://www.w3.org/2000/svg"
   xmlns="http://www.w3.org/2000/svg"
   xmlns:sodipodi="http://sodipodi.sourceforge.net/DTD/sodipodi-0.dtd"
   xmlns:inkscape="http://www.inkscape.org/namespaces/inkscape"
   version="1.1"
   width="527.625"
   height="276.1875"
   id="svg2"
   xml:space="preserve"
   inkscape:version="0.48.4 r9939"
   sodipodi:docname="Bild 4-4 Klassendiagramm der Brücke mit dem Implementierer als Interface.svg"><sodipodi:namedview
     pagecolor="#ffffff"
     bordercolor="#666666"
     borderopacity="1"
     objecttolerance="10"
     gridtolerance="10"
     guidetolerance="10"
     inkscape:pageopacity="0"
     inkscape:pageshadow="2"
     inkscape:window-width="640"
     inkscape:window-height="480"
     id="namedview263"
     showgrid="false"
     inkscape:zoom="0.18730159"
     inkscape:cx="581.46875"
     inkscape:cy="43.59375"
     inkscape:window-x="0"
     inkscape:window-y="0"
     inkscape:window-maximized="0"
     inkscape:current-layer="svg2" /><metadata
     id="metadata8"><rdf:RDF><cc:Work
         rdf:about=""><dc:format>image/svg+xml</dc:format><dc:type
           rdf:resource="http://purl.org/dc/dcmitype/StillImage" /></cc:Work></rdf:RDF></metadata><defs
     id="defs6"><clipPath
       id="clipPath18"><path
         d="m 62.641,473.71 180.39,0 0,45 -180.39,0 0,-45 z"
         inkscape:connector-curvature="0"
         id="path20" /></clipPath><clipPath
       id="clipPath26"><path
         d="m 62.64,473.71 180.38,0 0,45 -180.38,0 0,-45 z"
         inkscape:connector-curvature="0"
         id="path28" /></clipPath><clipPath
       id="clipPath38"><path
         d="m 62.64,473.71 180.38,0 0,45 -180.38,0 0,-45 z"
         inkscape:connector-curvature="0"
         id="path40" /></clipPath><clipPath
       id="clipPath46"><path
         d="m 62.64,473.71 180.38,0 0,45 -180.38,0 0,-45 z"
         inkscape:connector-curvature="0"
         id="path48" /></clipPath><clipPath
       id="clipPath54"><path
         d="m 62.64,473.71 180.38,0 0,45 -180.38,0 0,-45 z"
         inkscape:connector-curvature="0"
         id="path56" /></clipPath><clipPath
       id="clipPath66"><path
         d="m 62.64,473.71 180.38,0 0,45 -180.38,0 0,-45 z"
         inkscape:connector-curvature="0"
         id="path68" /></clipPath><clipPath
       id="clipPath74"><path
         d="m 62.64,473.71 180.38,0 0,45 -180.38,0 0,-45 z"
         inkscape:connector-curvature="0"
         id="path76" /></clipPath><clipPath
       id="clipPath86"><path
         d="m 62.64,473.71 180.38,0 0,45 -180.38,0 0,-45 z"
         inkscape:connector-curvature="0"
         id="path88" /></clipPath><clipPath
       id="clipPath96"><path
         d="m 92.041,567.79 135.03,0 0,31.32 -135.03,0 0,-31.32 z"
         inkscape:connector-curvature="0"
         id="path98" /></clipPath><clipPath
       id="clipPath104"><path
         d="m 92.04,567.79 135.02,0 0,31.32 -135.02,0 0,-31.32 z"
         inkscape:connector-curvature="0"
         id="path106" /></clipPath><clipPath
       id="clipPath116"><path
         d="m 92.04,567.79 135.02,0 0,31.32 -135.02,0 0,-31.32 z"
         inkscape:connector-curvature="0"
         id="path118" /></clipPath><clipPath
       id="clipPath124"><path
         d="m 92.04,567.79 135.02,0 0,31.32 -135.02,0 0,-31.32 z"
         inkscape:connector-curvature="0"
         id="path126" /></clipPath><clipPath
       id="clipPath132"><path
         d="m 92.04,567.79 135.02,0 0,31.32 -135.02,0 0,-31.32 z"
         inkscape:connector-curvature="0"
         id="path134" /></clipPath><clipPath
       id="clipPath144"><path
         d="m 92.04,567.79 135.02,0 0,31.32 -135.02,0 0,-31.32 z"
         inkscape:connector-curvature="0"
         id="path146" /></clipPath><clipPath
       id="clipPath154"><path
         d="m 276.75,473.47 183.74,0 0,32.64 -183.74,0 0,-32.64 z"
         inkscape:connector-curvature="0"
         id="path156" /></clipPath><clipPath
       id="clipPath162"><path
         d="m 276.74,473.47 183.74,0 0,32.64 -183.74,0 0,-32.64 z"
         inkscape:connector-curvature="0"
         id="path164" /></clipPath><clipPath
       id="clipPath174"><path
         d="m 276.74,473.47 183.74,0 0,32.64 -183.74,0 0,-32.64 z"
         inkscape:connector-curvature="0"
         id="path176" /></clipPath><clipPath
       id="clipPath182"><path
         d="m 276.74,473.47 183.74,0 0,32.64 -183.74,0 0,-32.64 z"
         inkscape:connector-curvature="0"
         id="path184" /></clipPath><clipPath
       id="clipPath190"><path
         d="m 276.74,473.47 183.74,0 0,32.64 -183.74,0 0,-32.64 z"
         inkscape:connector-curvature="0"
         id="path192" /></clipPath><clipPath
       id="clipPath202"><path
         d="m 276.74,473.47 183.74,0 0,32.64 -183.74,0 0,-32.64 z"
         inkscape:connector-curvature="0"
         id="path204" /></clipPath><clipPath
       id="clipPath214"><path
         d="m 276.74,473.47 183.74,0 0,32.64 -183.74,0 0,-32.64 z"
         inkscape:connector-curvature="0"
         id="path216" /></clipPath><clipPath
       id="clipPath228"><path
         d="m 305.45,570.07 134.88,0 0,53.88 -134.88,0 0,-53.88 z"
         inkscape:connector-curvature="0"
         id="path230" /></clipPath><clipPath
       id="clipPath236"><path
         d="m 305.45,570.07 134.88,0 0,53.88 -134.88,0 0,-53.88 z"
         inkscape:connector-curvature="0"
         id="path238" /></clipPath><clipPath
       id="clipPath248"><path
         d="m 305.45,570.07 134.88,0 0,53.88 -134.88,0 0,-53.88 z"
         inkscape:connector-curvature="0"
         id="path250" /></clipPath><clipPath
       id="clipPath260"><path
         d="m 305.45,570.07 134.88,0 0,53.88 -134.88,0 0,-53.88 z"
         inkscape:connector-curvature="0"
         id="path262" /></clipPath><clipPath
       id="clipPath268"><path
         d="m 305.45,570.07 134.88,0 0,53.88 -134.88,0 0,-53.88 z"
         inkscape:connector-curvature="0"
         id="path270" /></clipPath><clipPath
       id="clipPath280"><path
         d="m 305.45,570.07 134.88,0 0,53.88 -134.88,0 0,-53.88 z"
         inkscape:connector-curvature="0"
         id="path282" /></clipPath><clipPath
       id="clipPath288"><path
         d="m 305.45,570.07 134.88,0 0,53.88 -134.88,0 0,-53.88 z"
         inkscape:connector-curvature="0"
         id="path290" /></clipPath><clipPath
       id="clipPath296"><path
         d="m 305.45,570.07 134.88,0 0,53.88 -134.88,0 0,-53.88 z"
         inkscape:connector-curvature="0"
         id="path298" /></clipPath><clipPath
       id="clipPath304"><path
         d="m 305.45,570.07 134.88,0 0,53.88 -134.88,0 0,-53.88 z"
         inkscape:connector-curvature="0"
         id="path306" /></clipPath><clipPath
       id="clipPath316"><path
         d="m 305.45,570.07 134.88,0 0,53.88 -134.88,0 0,-53.88 z"
         inkscape:connector-curvature="0"
         id="path318" /></clipPath><clipPath
       id="clipPath340"><path
         d="m 143.67,657.07 98.16,0 0,28.575 -98.16,0 0,-28.575 z"
         inkscape:connector-curvature="0"
         id="path342" /></clipPath><clipPath
       id="clipPath348"><path
         d="m 143.66,657.07 98.16,0 0,28.584 -98.16,0 0,-28.584 z"
         inkscape:connector-curvature="0"
         id="path350" /></clipPath><clipPath
       id="clipPath360"><path
         d="m 143.66,657.07 98.16,0 0,28.584 -98.16,0 0,-28.584 z"
         inkscape:connector-curvature="0"
         id="path362" /></clipPath><clipPath
       id="clipPath368"><path
         d="m 143.66,657.07 98.16,0 0,28.584 -98.16,0 0,-28.584 z"
         inkscape:connector-curvature="0"
         id="path370" /></clipPath><clipPath
       id="clipPath380"><path
         d="m 39.961,657.07 98.07,0 0,28.575 -98.07,0 0,-28.575 z"
         inkscape:connector-curvature="0"
         id="path382" /></clipPath><clipPath
       id="clipPath388"><path
         d="m 39.96,657.07 98.064,0 0,28.584 -98.064,0 0,-28.584 z"
         inkscape:connector-curvature="0"
         id="path390" /></clipPath><clipPath
       id="clipPath400"><path
         d="m 39.96,657.07 98.064,0 0,28.584 -98.064,0 0,-28.584 z"
         inkscape:connector-curvature="0"
         id="path402" /></clipPath><clipPath
       id="clipPath408"><path
         d="m 39.96,657.07 98.064,0 0,28.584 -98.064,0 0,-28.584 z"
         inkscape:connector-curvature="0"
         id="path410" /></clipPath><clipPath
       id="clipPath422"><path
         d="m 183.75,619.39 56.28,0 0,20.4 -56.28,0 0,-20.4 z"
         inkscape:connector-curvature="0"
         id="path424" /></clipPath><clipPath
       id="clipPath430"><path
         d="m 183.74,619.39 56.28,0 0,20.4 -56.28,0 0,-20.4 z"
         inkscape:connector-curvature="0"
         id="path432" /></clipPath><clipPath
       id="clipPath442"><path
         d="m 183.74,619.39 56.28,0 0,20.4 -56.28,0 0,-20.4 z"
         inkscape:connector-curvature="0"
         id="path444" /></clipPath><clipPath
       id="clipPath454"><path
         d="m 183.74,619.39 56.28,0 0,20.4 -56.28,0 0,-20.4 z"
         inkscape:connector-curvature="0"
         id="path456" /></clipPath><clipPath
       id="clipPath462"><path
         d="m 183.74,619.39 56.28,0 0,20.4 -56.28,0 0,-20.4 z"
         inkscape:connector-curvature="0"
         id="path464" /></clipPath><clipPath
       id="clipPath472"><path
         d="m 83.281,617.83 56.19,0 0,20.52 -56.19,0 0,-20.52 z"
         inkscape:connector-curvature="0"
         id="path474" /></clipPath><clipPath
       id="clipPath480"><path
         d="m 83.28,617.83 56.184,0 0,20.52 -56.184,0 0,-20.52 z"
         inkscape:connector-curvature="0"
         id="path482" /></clipPath><clipPath
       id="clipPath492"><path
         d="m 83.28,617.83 56.184,0 0,20.52 -56.184,0 0,-20.52 z"
         inkscape:connector-curvature="0"
         id="path494" /></clipPath><clipPath
       id="clipPath504"><path
         d="m 83.28,617.83 56.184,0 0,20.52 -56.184,0 0,-20.52 z"
         inkscape:connector-curvature="0"
         id="path506" /></clipPath><clipPath
       id="clipPath512"><path
         d="m 83.28,617.83 56.184,0 0,20.52 -56.184,0 0,-20.52 z"
         inkscape:connector-curvature="0"
         id="path514" /></clipPath></defs><g
     transform="matrix(1.25,0,0,-1.25,-48.90625,862.59375)"
     id="g10"><path
       d="m 62.2,469.75 181.2,0 0,53 -181.2,0 0,-53 z"
       inkscape:connector-curvature="0"
       id="path12"
       style="fill:none;stroke:#000000;stroke-width:0.75;stroke-linecap:round;stroke-linejoin:miter;stroke-miterlimit:10;stroke-opacity:1;stroke-dasharray:none" /><g
       id="g14"><g
         clip-path="url(#clipPath18)"
         id="g16"><g
           id="g22"><g
             clip-path="url(#clipPath26)"
             id="g24"><text
   transform="matrix(1,0,0,-1,105.5,507.67)"
   id="text30"><tspan
     x="0 8.0279999 15.36 22.032 28.176001 36.576 43.908001 50.580002 54.576 59.243999 65.963997 72.671997 76.667999 80.003998 87.335999"
     y="0"
     id="tspan32"
     style="font-size:12px;font-variant:normal;font-weight:bold;writing-mode:lr-tb;fill:#000000;fill-opacity:1;fill-rule:nonzero;stroke:none;font-family:Helvetica;-inkscape-font-specification:Helvetica-Bold">SpezAbstraktion</tspan></text>

</g></g><g
           id="g34"><g
             clip-path="url(#clipPath38)"
             id="g36" /></g><g
           id="g42"><g
             clip-path="url(#clipPath46)"
             id="g44" /></g><g
           id="g50"><g
             clip-path="url(#clipPath54)"
             id="g52"><text
   transform="matrix(1,0,0,-1,69.84,491.59)"
   id="text58"><tspan
     x="0 6.7080002 13.416 20.124001 24.120001 30.792 34.127998 36.683998 43.391998 50.099998 54.096001"
     y="0"
     id="tspan60"
     style="font-size:12px;font-variant:normal;font-weight:normal;writing-mode:lr-tb;fill:#000000;fill-opacity:1;fill-rule:nonzero;stroke:none;font-family:Helvetica;-inkscape-font-specification:Helvetica">operation()</tspan></text>

</g></g><g
           id="g62"><g
             clip-path="url(#clipPath66)"
             id="g64" /></g><g
           id="g70"><g
             clip-path="url(#clipPath74)"
             id="g72"><text
   transform="matrix(1,0,0,-1,69.84,477.79)"
   id="text78"><tspan
     x="0 6 12.708 19.416 25.296 32.004002 38.712002 44.712002 48.048 52.043999 58.716 64.739998 68.075996 70.739998 77.339996 84.047997 90.047997 100.044 106.716 110.076 116.676 123.384 130.092 136.8 140.79601"
     y="0"
     id="tspan80"
     style="font-size:12px;font-variant:normal;font-weight:normal;writing-mode:lr-tb;fill:#000000;fill-opacity:1;fill-rule:nonzero;stroke:none;font-family:Helvetica;-inkscape-font-specification:Helvetica">spezabstraktionsMethode()</tspan></text>

</g></g><g
           id="g82"><g
             clip-path="url(#clipPath86)"
             id="g84" /></g></g></g><path
       d="m 91.65,563.9 135.75,0 0,39.3 -135.75,0 0,-39.3 z"
       inkscape:connector-curvature="0"
       id="path90"
       style="fill:none;stroke:#000000;stroke-width:0.75;stroke-linecap:round;stroke-linejoin:miter;stroke-miterlimit:10;stroke-opacity:1;stroke-dasharray:none" /><g
       id="g92"><g
         clip-path="url(#clipPath96)"
         id="g94"><g
           id="g100"><g
             clip-path="url(#clipPath104)"
             id="g102"><text
   transform="matrix(1,0,0,-1,126.14,588.07)"
   id="text108"><tspan
     x="0 8.3999996 15.828 22.535999 26.532 31.200001 37.872002 44.604 48.599998 51.936001 59.268002"
     y="0"
     id="tspan110"
     style="font-size:12px;font-variant:normal;font-weight:bold;writing-mode:lr-tb;fill:#000000;fill-opacity:1;fill-rule:nonzero;stroke:none;font-family:Helvetica;-inkscape-font-specification:Helvetica-Bold">Abstraktion</tspan></text>

</g></g><g
           id="g112"><g
             clip-path="url(#clipPath116)"
             id="g114" /></g><g
           id="g120"><g
             clip-path="url(#clipPath124)"
             id="g122" /></g><g
           id="g128"><g
             clip-path="url(#clipPath132)"
             id="g130"><text
   transform="matrix(1,0,0,-1,99.264,571.99)"
   id="text136"><tspan
     x="0 6.7080002 13.416 20.124001 24.120001 30.792 34.127998 36.683998 43.391998 50.099998 54.096001"
     y="0"
     id="tspan138"
     style="font-size:12px;font-variant:normal;font-weight:normal;writing-mode:lr-tb;fill:#000000;fill-opacity:1;fill-rule:nonzero;stroke:none;font-family:Helvetica;-inkscape-font-specification:Helvetica">operation()</tspan></text>

</g></g><g
           id="g140"><g
             clip-path="url(#clipPath144)"
             id="g142" /></g></g></g><path
       d="m 276.35,469.5 184.5,0 0,40.65 -184.5,0 0,-40.65 z"
       inkscape:connector-curvature="0"
       id="path148"
       style="fill:none;stroke:#000000;stroke-width:0.75;stroke-linecap:round;stroke-linejoin:miter;stroke-miterlimit:10;stroke-opacity:1;stroke-dasharray:none" /><g
       id="g150"><g
         clip-path="url(#clipPath154)"
         id="g152"><g
           id="g158"><g
             clip-path="url(#clipPath162)"
             id="g160"><text
   transform="matrix(1,0,0,-1,297.29,495.07)"
   id="text166"><tspan
     x="0 8.6639996 15.996 23.280001 29.988001 34.655998 41.375999 45.372002 52.043999 56.712002 60.084 70.751999 78.084 81.419998 88.152 98.711998 105.42 112.752 116.7 119.94 126.648 131.31599 138.036"
     y="0"
     id="tspan168"
     style="font-size:12px;font-variant:normal;font-weight:bold;writing-mode:lr-tb;fill:#000000;fill-opacity:1;fill-rule:nonzero;stroke:none;font-family:Helvetica;-inkscape-font-specification:Helvetica-Bold">KonkreterImplementierer</tspan></text>

</g></g><g
           id="g170"><g
             clip-path="url(#clipPath174)"
             id="g172" /></g><g
           id="g178"><g
             clip-path="url(#clipPath182)"
             id="g180" /></g><g
           id="g186"><g
             clip-path="url(#clipPath190)"
             id="g188"><text
   transform="matrix(1,0,0,-1,283.97,478.99)"
   id="text194"><tspan
     x="0 6.7080002 13.416 20.124001 24.120001 30.792 34.127998 36.683998 43.391998 50.099998 53.34 63.408001 70.115997"
     y="0"
     id="tspan196"
     style="font-size:12px;font-variant:normal;font-weight:normal;writing-mode:lr-tb;fill:#000000;fill-opacity:1;fill-rule:nonzero;stroke:none;font-family:Helvetica;-inkscape-font-specification:Helvetica">operationImpl</tspan></text>

</g></g><g
           id="g198"><g
             clip-path="url(#clipPath202)"
             id="g200"><text
   transform="matrix(1,0,0,-1,356.81,478.99)"
   id="text206"><tspan
     x="0 3.96"
     y="0"
     id="tspan208"
     style="font-size:12px;font-variant:normal;font-weight:normal;writing-mode:lr-tb;fill:#000000;fill-opacity:1;fill-rule:nonzero;stroke:none;font-family:Helvetica;-inkscape-font-specification:Helvetica">()</tspan></text>

</g></g><g
           id="g210"><g
             clip-path="url(#clipPath214)"
             id="g212" /></g></g></g><path
       d="m 91.65,585.3 135.5,0"
       inkscape:connector-curvature="0"
       id="path218"
       style="fill:none;stroke:#000000;stroke-width:0.75;stroke-linecap:round;stroke-linejoin:round;stroke-miterlimit:10;stroke-opacity:1;stroke-dasharray:none" /><path
       d="m 305.4,594.45 135.75,0.05"
       inkscape:connector-curvature="0"
       id="path220"
       style="fill:none;stroke:#000000;stroke-width:0.75;stroke-linecap:round;stroke-linejoin:round;stroke-miterlimit:10;stroke-opacity:1;stroke-dasharray:none" /><path
       d="m 304.95,566.15 135.75,0 0,61.8 -135.75,0 0,-61.8 z"
       inkscape:connector-curvature="0"
       id="path222"
       style="fill:none;stroke:#000000;stroke-width:0.75;stroke-linecap:round;stroke-linejoin:miter;stroke-miterlimit:8;stroke-opacity:1;stroke-dasharray:none" /><g
       id="g224"><g
         clip-path="url(#clipPath228)"
         id="g226"><g
           id="g232"><g
             clip-path="url(#clipPath236)"
             id="g234"><text
   transform="matrix(1,0,0,-1,333.29,613.63)"
   id="text240"><tspan
     x="0"
     y="0"
     id="tspan242"
     style="font-size:12px;font-variant:normal;font-weight:normal;writing-mode:lr-tb;fill:#000000;fill-opacity:1;fill-rule:nonzero;stroke:none;font-family:Courier New;-inkscape-font-specification:Courier New">«</tspan></text>

</g></g><g
           id="g244"><g
             clip-path="url(#clipPath248)"
             id="g246"><text
   transform="matrix(1,0,0,-1,340.49,613.63)"
   id="text252"><tspan
     x="0 7.1999998 14.4 21.6 28.799999 36 43.200001 50.400002 57.599998 64.800003"
     y="0"
     id="tspan254"
     style="font-size:12px;font-variant:normal;font-weight:normal;writing-mode:lr-tb;fill:#000000;fill-opacity:1;fill-rule:nonzero;stroke:none;font-family:Courier New;-inkscape-font-specification:Courier New">interface»</tspan></text>

</g></g><g
           id="g256"><g
             clip-path="url(#clipPath260)"
             id="g258" /></g><g
           id="g264"><g
             clip-path="url(#clipPath268)"
             id="g266"><text
   transform="matrix(1,0,0,-1,329.93,599.23)"
   id="text272"><tspan
     x="0 3.336 14.028 21.360001 24.695999 31.416 42.084 48.804001 56.136002 60.084 63.419998 70.043999 74.711998 81.431999"
     y="0"
     id="tspan274"
     style="font-size:12px;font-variant:normal;font-weight:bold;writing-mode:lr-tb;fill:#000000;fill-opacity:1;fill-rule:nonzero;stroke:none;font-family:Helvetica;-inkscape-font-specification:Helvetica-Bold">Implementierer</tspan></text>

</g></g><g
           id="g276"><g
             clip-path="url(#clipPath280)"
             id="g278" /></g><g
           id="g284"><g
             clip-path="url(#clipPath288)"
             id="g286" /></g><g
           id="g292"><g
             clip-path="url(#clipPath296)"
             id="g294" /></g><g
           id="g300"><g
             clip-path="url(#clipPath304)"
             id="g302"><text
   transform="matrix(1,0,0,-1,312.65,578.59)"
   id="text308"><tspan
     x="0 6.7080002 13.416 20.124001 24.120001 30.792 34.127998 36.683998 43.391998 50.099998 53.34 63.408001 70.115997 72.779999 76.716003"
     y="0"
     id="tspan310"
     style="font-size:12px;font-variant:normal;font-weight:normal;writing-mode:lr-tb;fill:#000000;fill-opacity:1;fill-rule:nonzero;stroke:none;font-family:Helvetica;-inkscape-font-specification:Helvetica">operationImpl()</tspan></text>

</g></g><g
           id="g312"><g
             clip-path="url(#clipPath316)"
             id="g314" /></g></g></g><path
       d="m 62.2,503.55 180.8,0"
       inkscape:connector-curvature="0"
       id="path320"
       style="fill:none;stroke:#000000;stroke-width:0.75;stroke-linecap:round;stroke-linejoin:round;stroke-miterlimit:8;stroke-opacity:1;stroke-dasharray:none" /><path
       d="m 276.35,491.2 184.5,0"
       inkscape:connector-curvature="0"
       id="path322"
       style="fill:none;stroke:#000000;stroke-width:0.75;stroke-linecap:round;stroke-linejoin:round;stroke-miterlimit:8;stroke-opacity:1;stroke-dasharray:none" /><path
       d="m 372.85,555.25 0.4,-45.85"
       inkscape:connector-curvature="0"
       id="path324"
       style="fill:none;stroke:#000000;stroke-width:0.75;stroke-linecap:round;stroke-linejoin:round;stroke-miterlimit:8;stroke-opacity:1;stroke-dasharray:none" /><path
       d="m 159.68,563.65 -7.53,-10.9 15.05,0 -7.52,10.9 z"
       inkscape:connector-curvature="0"
       id="path326"
       style="fill:#ffffff;fill-opacity:1;fill-rule:evenodd;stroke:none" /><path
       d="m 159.68,563.65 -7.53,-10.9 15.05,0 -7.52,10.9 z"
       inkscape:connector-curvature="0"
       id="path328"
       style="fill:none;stroke:#000000;stroke-width:0.75;stroke-linecap:round;stroke-linejoin:round;stroke-miterlimit:8;stroke-opacity:1;stroke-dasharray:none" /><path
       d="m 159.7,552.45 0.05,-29.7"
       inkscape:connector-curvature="0"
       id="path330"
       style="fill:none;stroke:#000000;stroke-width:0.75;stroke-linecap:round;stroke-linejoin:round;stroke-miterlimit:8;stroke-opacity:1;stroke-dasharray:none" /><path
       d="m 143.3,653.15 98.9,0 0,36.55 -98.9,0 0,-36.55 z"
       inkscape:connector-curvature="0"
       id="path332"
       style="fill:#ffffff;fill-opacity:1;fill-rule:evenodd;stroke:none" /><path
       d="m 143.3,653.15 98.9,0 0,36.55 -98.9,0 0,-36.55 z"
       inkscape:connector-curvature="0"
       id="path334"
       style="fill:none;stroke:#000000;stroke-width:0.75;stroke-linecap:round;stroke-linejoin:miter;stroke-miterlimit:8;stroke-opacity:1;stroke-dasharray:none" /><g
       id="g336"><g
         clip-path="url(#clipPath340)"
         id="g338"><g
           id="g344"><g
             clip-path="url(#clipPath348)"
             id="g346"><text
   transform="matrix(1,0,0,-1,172.7,674.62)"
   id="text352"><tspan
     x="0 8.6639996 12 15.336 22.068001 29.4 33.348"
     y="0"
     id="tspan354"
     style="font-size:12px;font-variant:normal;font-weight:bold;writing-mode:lr-tb;fill:#000000;fill-opacity:1;fill-rule:nonzero;stroke:none;font-family:Helvetica;-inkscape-font-specification:Helvetica-Bold">Client1</tspan></text>

</g></g><g
           id="g356"><g
             clip-path="url(#clipPath360)"
             id="g358" /></g><g
           id="g364"><g
             clip-path="url(#clipPath368)"
             id="g366" /></g></g></g><path
       d="m 39.5,653.15 98.9,0 0,36.55 -98.9,0 0,-36.55 z"
       inkscape:connector-curvature="0"
       id="path372"
       style="fill:#ffffff;fill-opacity:1;fill-rule:evenodd;stroke:none" /><path
       d="m 39.5,653.15 98.9,0 0,36.55 -98.9,0 0,-36.55 z"
       inkscape:connector-curvature="0"
       id="path374"
       style="fill:none;stroke:#000000;stroke-width:0.75;stroke-linecap:round;stroke-linejoin:miter;stroke-miterlimit:8;stroke-opacity:1;stroke-dasharray:none" /><g
       id="g376"><g
         clip-path="url(#clipPath380)"
         id="g378"><g
           id="g384"><g
             clip-path="url(#clipPath388)"
             id="g386"><text
   transform="matrix(1,0,0,-1,69,674.62)"
   id="text392"><tspan
     x="0 8.6639996 12 15.336 22.068001 29.4 33.348"
     y="0"
     id="tspan394"
     style="font-size:12px;font-variant:normal;font-weight:bold;writing-mode:lr-tb;fill:#000000;fill-opacity:1;fill-rule:nonzero;stroke:none;font-family:Helvetica;-inkscape-font-specification:Helvetica-Bold">Client2</tspan></text>

</g></g><g
           id="g396"><g
             clip-path="url(#clipPath400)"
             id="g398" /></g><g
           id="g404"><g
             clip-path="url(#clipPath408)"
             id="g406" /></g></g></g><path
       d="m 175.95,652.6 0.01,-7 c 0,-0.28 -0.23,-0.5 -0.5,-0.5 -0.28,0 -0.5,0.22 -0.5,0.5 l -0.01,7 c 0,0.28 0.22,0.5 0.5,0.5 0.28,0 0.5,-0.22 0.5,-0.5 z m 0.01,-11 0.01,-7 c 0,-0.28 -0.23,-0.5 -0.5,-0.5 -0.28,0 -0.5,0.22 -0.5,0.5 l -0.01,7 c 0,0.28 0.22,0.5 0.5,0.5 0.28,0 0.5,-0.22 0.5,-0.5 z m 0.01,-11 0.01,-7 c 0,-0.28 -0.22,-0.5 -0.5,-0.5 -0.28,0 -0.5,0.22 -0.5,0.5 l -0.01,7 c 0,0.28 0.23,0.5 0.5,0.5 0.28,0 0.5,-0.22 0.5,-0.5 z m 0.01,-11 0.01,-7 c 0,-0.28 -0.22,-0.5 -0.5,-0.5 -0.28,0 -0.5,0.22 -0.5,0.5 l -0.01,7 c 0,0.28 0.23,0.5 0.5,0.5 0.28,0 0.5,-0.22 0.5,-0.5 z m 0.01,-11 0.01,-3.65 c 0,-0.28 -0.23,-0.5 -0.5,-0.5 -0.28,0 -0.5,0.22 -0.5,0.5 l -0.01,3.65 c 0,0.28 0.23,0.5 0.5,0.5 0.28,0 0.5,-0.22 0.5,-0.5 z m 4.94,5.11 -5.43,-9.79 -5.45,9.78 c -0.13,0.24 -0.05,0.55 0.2,0.68 0.24,0.14 0.54,0.05 0.68,-0.19 l 5,-9 -0.87,0 4.99,9.01 c 0.14,0.24 0.44,0.33 0.68,0.19 0.24,-0.13 0.33,-0.44 0.2,-0.68 z"
       inkscape:connector-curvature="0"
       id="path412"
       style="fill:#000000;fill-opacity:1;fill-rule:nonzero;stroke:none" /><path
       d="m 75.9,652.75 0.005,-7 c 0.001,-0.28 -0.223,-0.5 -0.499,-0.5 -0.276,0 -0.5,0.22 -0.501,0.5 l -0.005,7 c 0,0.28 0.223,0.5 0.5,0.5 0.276,0 0.5,-0.22 0.5,-0.5 z m 0.008,-11 0.006,-7 c 0,-0.28 -0.224,-0.5 -0.5,-0.5 -0.276,0 -0.5,0.22 -0.5,0.5 l -0.006,7 c 0,0.28 0.224,0.5 0.5,0.5 0.276,0 0.5,-0.22 0.5,-0.5 z m 0.009,-11 0.005,-7 c 0,-0.28 -0.223,-0.5 -0.499,-0.5 -0.276,0 -0.501,0.22 -0.501,0.5 l -0.005,7 c 0,0.28 0.223,0.5 0.499,0.5 0.277,0 0.501,-0.22 0.501,-0.5 z m 0.008,-11 0.006,-7 c 0,-0.28 -0.224,-0.5 -0.5,-0.5 -0.276,0 -0.5,0.22 -0.5,0.5 l -0.006,7 c 0,0.28 0.224,0.5 0.5,0.5 0.276,0 0.5,-0.22 0.5,-0.5 z m 0.009,-11 0.005,-7 c 0,-0.28 -0.223,-0.5 -0.499,-0.5 -0.277,0 -0.501,0.22 -0.501,0.5 l -0.005,7 c 0,0.28 0.223,0.5 0.499,0.5 0.277,0 0.501,-0.22 0.501,-0.5 z m 0.008,-11 0.006,-7 c 0,-0.28 -0.224,-0.5 -0.5,-0.5 -0.276,0 -0.5,0.22 -0.5,0.5 l -0.006,7 c 0,0.28 0.224,0.5 0.5,0.5 0.276,0 0.5,-0.22 0.5,-0.5 z m 0.009,-11 0.005,-7 c 0,-0.28 -0.223,-0.5 -0.5,-0.5 -0.276,0 -0.5,0.22 -0.5,0.5 l -0.005,7 c 0,0.28 0.223,0.5 0.499,0.5 0.276,0 0.501,-0.22 0.501,-0.5 z m 0.008,-11 0.006,-7 c 0,-0.28 -0.224,-0.5 -0.5,-0.5 -0.276,0 -0.5,0.22 -0.5,0.5 l -0.006,7 c 0,0.28 0.224,0.5 0.5,0.5 0.276,0 0.5,-0.22 0.5,-0.5 z m 0.009,-11 0.005,-7 c 0,-0.28 -0.223,-0.5 -0.5,-0.5 -0.276,0 -0.5,0.22 -0.5,0.5 l -0.005,7 c -0.001,0.28 0.223,0.5 0.499,0.5 0.276,0 0.5,-0.22 0.501,-0.5 z m 0.008,-11 0.005,-7 c 0.001,-0.28 -0.223,-0.5 -0.499,-0.5 -0.276,0 -0.5,0.22 -0.501,0.5 l -0.005,7 c 0,0.28 0.224,0.5 0.5,0.5 0.276,0 0.5,-0.22 0.5,-0.5 z m 0.009,-11 0.005,-7 c 0,-0.28 -0.224,-0.5 -0.5,-0.5 -0.276,0 -0.5,0.22 -0.5,0.5 l -0.005,7 c -0.001,0.28 0.223,0.5 0.499,0.5 0.276,0 0.5,-0.22 0.501,-0.5 z m 0.008,-11 0.005,-7 c 10e-4,-0.28 -0.223,-0.5 -0.499,-0.5 -0.276,0 -0.5,0.22 -0.501,0.5 l -0.005,7 c 0,0.28 0.223,0.5 0.5,0.5 0.276,0 0.5,-0.22 0.5,-0.5 z m 4.936,1.71 -5.43,-9.79 -5.444,9.78 c -0.135,0.24 -0.048,0.55 0.193,0.68 0.242,0.14 0.546,0.05 0.68,-0.19 l 5.007,-9 -0.874,0 4.993,9.01 c 0.134,0.24 0.439,0.33 0.68,0.19 0.242,-0.13 0.329,-0.44 0.195,-0.68 z"
       inkscape:connector-curvature="0"
       id="path414"
       style="fill:#000000;fill-opacity:1;fill-rule:nonzero;stroke:none" /><path
       d="m 183.75,615.75 56.25,0 0,27.75 -56.25,0 0,-27.75 z"
       inkscape:connector-curvature="0"
       id="path416"
       style="fill:#ffffff;fill-opacity:1;fill-rule:evenodd;stroke:none" /><g
       id="g418"><g
         clip-path="url(#clipPath422)"
         id="g420"><g
           id="g426"><g
             clip-path="url(#clipPath430)"
             id="g428"><text
   transform="matrix(1,0,0,-1,190.94,629.47)"
   id="text434"><tspan
     x="0"
     y="0"
     id="tspan436"
     style="font-size:12px;font-variant:normal;font-weight:normal;writing-mode:lr-tb;fill:#000000;fill-opacity:1;fill-rule:nonzero;stroke:none;font-family:Courier New;-inkscape-font-specification:Courier New">«</tspan></text>

</g></g><g
           id="g438"><g
             clip-path="url(#clipPath442)"
             id="g440"><text
   transform="matrix(1,0,0,-1,198.14,629.47)"
   id="text446"><tspan
     x="0 7.1999998 14.4 21.6"
     y="0"
     id="tspan448"
     style="font-size:12px;font-variant:normal;font-weight:normal;writing-mode:lr-tb;fill:#000000;fill-opacity:1;fill-rule:nonzero;stroke:none;font-family:Courier New;-inkscape-font-specification:Courier New">use»</tspan></text>

</g></g><g
           id="g450"><g
             clip-path="url(#clipPath454)"
             id="g452" /></g><g
           id="g458"><g
             clip-path="url(#clipPath462)"
             id="g460" /></g></g></g><path
       d="m 83.25,614.25 56.25,0 0,27.75 -56.25,0 0,-27.75 z"
       inkscape:connector-curvature="0"
       id="path466"
       style="fill:#ffffff;fill-opacity:1;fill-rule:evenodd;stroke:none" /><g
       id="g468"><g
         clip-path="url(#clipPath472)"
         id="g470"><g
           id="g476"><g
             clip-path="url(#clipPath480)"
             id="g478"><text
   transform="matrix(1,0,0,-1,90.48,628.03)"
   id="text484"><tspan
     x="0"
     y="0"
     id="tspan486"
     style="font-size:12px;font-variant:normal;font-weight:normal;writing-mode:lr-tb;fill:#000000;fill-opacity:1;fill-rule:nonzero;stroke:none;font-family:Courier New;-inkscape-font-specification:Courier New">«</tspan></text>

</g></g><g
           id="g488"><g
             clip-path="url(#clipPath492)"
             id="g490"><text
   transform="matrix(1,0,0,-1,97.704,628.03)"
   id="text496"><tspan
     x="0 7.1999998 14.4 21.6"
     y="0"
     id="tspan498"
     style="font-size:12px;font-variant:normal;font-weight:normal;writing-mode:lr-tb;fill:#000000;fill-opacity:1;fill-rule:nonzero;stroke:none;font-family:Courier New;-inkscape-font-specification:Courier New">use»</tspan></text>

</g></g><g
           id="g500"><g
             clip-path="url(#clipPath504)"
             id="g502" /></g><g
           id="g508"><g
             clip-path="url(#clipPath512)"
             id="g510" /></g></g></g><path
       d="m 242.25,579.15 62.25,0"
       inkscape:connector-curvature="0"
       id="path516"
       style="fill:none;stroke:#000000;stroke-width:0.75;stroke-linecap:round;stroke-linejoin:round;stroke-miterlimit:8;stroke-opacity:1;stroke-dasharray:none" /><path
       d="m 372.87,566.15 -7.52,-10.9 15.05,0 -7.53,10.9 z"
       inkscape:connector-curvature="0"
       id="path518"
       style="fill:#ffffff;fill-opacity:1;fill-rule:evenodd;stroke:none" /><path
       d="m 372.87,566.15 -7.52,-10.9 15.05,0 -7.53,10.9 z"
       inkscape:connector-curvature="0"
       id="path520"
       style="fill:none;stroke:#000000;stroke-width:0.75;stroke-linecap:round;stroke-linejoin:round;stroke-miterlimit:8;stroke-opacity:1;stroke-dasharray:none" /><path
       d="m 235.62,583.75 -7.77,-4.72 7.77,-4.73 7.78,4.73 -7.78,4.72 z"
       inkscape:connector-curvature="0"
       id="path522"
       style="fill:#ffffff;fill-opacity:1;fill-rule:evenodd;stroke:none" /><path
       d="m 235.62,583.75 -7.77,-4.72 7.77,-4.73 7.78,4.73 -7.78,4.72 z"
       inkscape:connector-curvature="0"
       id="path524"
       style="fill:none;stroke:#000000;stroke-width:0.75;stroke-linecap:round;stroke-linejoin:round;stroke-miterlimit:8;stroke-opacity:1;stroke-dasharray:none" /></g></svg>