<?xml version="1.0" encoding="UTF-8" standalone="no"?>
<!-- Created with Inkscape (http://www.inkscape.org/) -->

<svg
   xmlns:dc="http://purl.org/dc/elements/1.1/"
   xmlns:cc="http://creativecommons.org/ns#"
   xmlns:rdf="http://www.w3.org/1999/02/22-rdf-syntax-ns#"
   xmlns:svg="http://www.w3.org/2000/svg"
   xmlns="http://www.w3.org/2000/svg"
   xmlns:sodipodi="http://sodipodi.sourceforge.net/DTD/sodipodi-0.dtd"
   xmlns:inkscape="http://www.inkscape.org/namespaces/inkscape"
   version="1.1"
   width="504"
   height="183.28125"
   id="svg2"
   xml:space="preserve"
   inkscape:version="0.48.4 r9939"
   sodipodi:docname="Bild 4-7 Klassendiagramm des Dekorierer-Musters.svg"><sodipodi:namedview
     pagecolor="#ffffff"
     bordercolor="#666666"
     borderopacity="1"
     objecttolerance="10"
     gridtolerance="10"
     guidetolerance="10"
     inkscape:pageopacity="0"
     inkscape:pageshadow="2"
     inkscape:window-width="640"
     inkscape:window-height="480"
     id="namedview181"
     showgrid="false"
     inkscape:zoom="0.18730159"
     inkscape:cx="338.34375"
     inkscape:cy="73.59375"
     inkscape:window-x="0"
     inkscape:window-y="0"
     inkscape:window-maximized="0"
     inkscape:current-layer="svg2" /><metadata
     id="metadata8"><rdf:RDF><cc:Work
         rdf:about=""><dc:format>image/svg+xml</dc:format><dc:type
           rdf:resource="http://purl.org/dc/dcmitype/StillImage" /></cc:Work></rdf:RDF></metadata><defs
     id="defs6"><clipPath
       id="clipPath24"><path
         d="m 417.05,553.75 95.19,0 0,29.4 -95.19,0 0,-29.4 z"
         inkscape:connector-curvature="0"
         id="path26" /></clipPath><clipPath
       id="clipPath32"><path
         d="m 417.05,553.75 95.184,0 0,29.4 -95.184,0 0,-29.4 z"
         inkscape:connector-curvature="0"
         id="path34" /></clipPath><clipPath
       id="clipPath44"><path
         d="m 417.05,553.75 95.184,0 0,29.4 -95.184,0 0,-29.4 z"
         inkscape:connector-curvature="0"
         id="path46" /></clipPath><clipPath
       id="clipPath56"><path
         d="m 492.08,449.47 95.16,0 0,29.52 -95.16,0 0,-29.52 z"
         inkscape:connector-curvature="0"
         id="path58" /></clipPath><clipPath
       id="clipPath64"><path
         d="m 492.07,449.47 95.16,0 0,29.52 -95.16,0 0,-29.52 z"
         inkscape:connector-curvature="0"
         id="path66" /></clipPath><clipPath
       id="clipPath76"><path
         d="m 492.07,449.47 95.16,0 0,29.52 -95.16,0 0,-29.52 z"
         inkscape:connector-curvature="0"
         id="path78" /></clipPath><clipPath
       id="clipPath110"><path
         d="m 449.33,458.11 37.47,0 0,12.96 -37.47,0 0,-12.96 z"
         inkscape:connector-curvature="0"
         id="path112" /></clipPath><clipPath
       id="clipPath118"><path
         d="m 449.33,458.11 37.464,0 0,12.96 -37.464,0 0,-12.96 z"
         inkscape:connector-curvature="0"
         id="path120" /></clipPath><clipPath
       id="clipPath130"><path
         d="m 449.33,458.11 37.464,0 0,12.96 -37.464,0 0,-12.96 z"
         inkscape:connector-curvature="0"
         id="path132" /></clipPath><clipPath
       id="clipPath142"><path
         d="m 234.39,552.91 95.295,0 0,29.52 -95.295,0 0,-29.52 z"
         inkscape:connector-curvature="0"
         id="path144" /></clipPath><clipPath
       id="clipPath150"><path
         d="m 234.38,552.91 95.304,0 0,29.52 -95.304,0 0,-29.52 z"
         inkscape:connector-curvature="0"
         id="path152" /></clipPath><clipPath
       id="clipPath162"><path
         d="m 234.38,552.91 95.304,0 0,29.52 -95.304,0 0,-29.52 z"
         inkscape:connector-curvature="0"
         id="path164" /></clipPath><clipPath
       id="clipPath174"><path
         d="m 234.75,449.47 95.295,0 0,29.52 -95.295,0 0,-29.52 z"
         inkscape:connector-curvature="0"
         id="path176" /></clipPath><clipPath
       id="clipPath182"><path
         d="m 234.74,449.47 95.304,0 0,29.52 -95.304,0 0,-29.52 z"
         inkscape:connector-curvature="0"
         id="path184" /></clipPath><clipPath
       id="clipPath194"><path
         d="m 234.74,449.47 95.304,0 0,29.52 -95.304,0 0,-29.52 z"
         inkscape:connector-curvature="0"
         id="path196" /></clipPath><clipPath
       id="clipPath202"><path
         d="m 234.74,449.47 95.304,0 0,29.52 -95.304,0 0,-29.52 z"
         inkscape:connector-curvature="0"
         id="path204" /></clipPath><clipPath
       id="clipPath214"><path
         d="m 234.74,449.47 95.304,0 0,29.52 -95.304,0 0,-29.52 z"
         inkscape:connector-curvature="0"
         id="path216" /></clipPath><clipPath
       id="clipPath226"><path
         d="m 338.33,449.47 95.16,0 0,29.52 -95.16,0 0,-29.52 z"
         inkscape:connector-curvature="0"
         id="path228" /></clipPath><clipPath
       id="clipPath234"><path
         d="m 338.33,449.47 95.16,0 0,29.52 -95.16,0 0,-29.52 z"
         inkscape:connector-curvature="0"
         id="path236" /></clipPath><clipPath
       id="clipPath246"><path
         d="m 338.33,449.47 95.16,0 0,29.52 -95.16,0 0,-29.52 z"
         inkscape:connector-curvature="0"
         id="path248" /></clipPath><clipPath
       id="clipPath254"><path
         d="m 338.33,449.47 95.16,0 0,29.52 -95.16,0 0,-29.52 z"
         inkscape:connector-curvature="0"
         id="path256" /></clipPath><clipPath
       id="clipPath266"><path
         d="m 338.33,449.47 95.16,0 0,29.52 -95.16,0 0,-29.52 z"
         inkscape:connector-curvature="0"
         id="path268" /></clipPath><clipPath
       id="clipPath274"><path
         d="m 338.33,449.47 95.16,0 0,29.52 -95.16,0 0,-29.52 z"
         inkscape:connector-curvature="0"
         id="path276" /></clipPath><clipPath
       id="clipPath284"><path
         d="m 341.45,563.59 61.68,0 0,17.4 -61.68,0 0,-17.4 z"
         inkscape:connector-curvature="0"
         id="path286" /></clipPath><clipPath
       id="clipPath292"><path
         d="m 341.45,563.59 61.68,0 0,17.4 -61.68,0 0,-17.4 z"
         inkscape:connector-curvature="0"
         id="path294" /></clipPath><clipPath
       id="clipPath304"><path
         d="m 341.45,563.59 61.68,0 0,17.4 -61.68,0 0,-17.4 z"
         inkscape:connector-curvature="0"
         id="path306" /></clipPath><clipPath
       id="clipPath316"><path
         d="m 341.45,563.59 61.68,0 0,17.4 -61.68,0 0,-17.4 z"
         inkscape:connector-curvature="0"
         id="path318" /></clipPath><clipPath
       id="clipPath328"><path
         d="m 341.45,563.59 61.68,0 0,17.4 -61.68,0 0,-17.4 z"
         inkscape:connector-curvature="0"
         id="path330" /></clipPath><clipPath
       id="clipPath338"><path
         d="m 523.64,575.11 37.44,0 0,12.96 -37.44,0 0,-12.96 z"
         inkscape:connector-curvature="0"
         id="path340" /></clipPath><clipPath
       id="clipPath346"><path
         d="m 523.63,575.11 37.44,0 0,12.96 -37.44,0 0,-12.96 z"
         inkscape:connector-curvature="0"
         id="path348" /></clipPath><clipPath
       id="clipPath358"><path
         d="m 523.63,575.11 37.44,0 0,12.96 -37.44,0 0,-12.96 z"
         inkscape:connector-curvature="0"
         id="path360" /></clipPath></defs><g
     transform="matrix(1.25,0,0,-1.25,-292.03125,739.6875)"
     id="g10"><path
       d="m 449.95,537 -42.3,-54"
       inkscape:connector-curvature="0"
       id="path12"
       style="fill:none;stroke:#000000;stroke-width:0.75;stroke-linecap:round;stroke-linejoin:round;stroke-miterlimit:10;stroke-opacity:1;stroke-dasharray:none" /><path
       d="M 416.62,540.9 302.08,483.65"
       inkscape:connector-curvature="0"
       id="path14"
       style="fill:none;stroke:#000000;stroke-width:0.75;stroke-linecap:round;stroke-linejoin:round;stroke-miterlimit:10;stroke-opacity:1;stroke-dasharray:none" /><path
       d="m 416.6,549.75 96,0 0,37.5 -96,0 0,-37.5 z"
       inkscape:connector-curvature="0"
       id="path16"
       style="fill:#ffffff;fill-opacity:1;fill-rule:evenodd;stroke:none" /><path
       d="m 416.6,549.75 96,0 0,37.5 -96,0 0,-37.5 z"
       inkscape:connector-curvature="0"
       id="path18"
       style="fill:none;stroke:#000000;stroke-width:0.75;stroke-linecap:round;stroke-linejoin:miter;stroke-miterlimit:8;stroke-opacity:1;stroke-dasharray:none" /><g
       id="g20"><g
         clip-path="url(#clipPath24)"
         id="g22"><g
           id="g28"><g
             clip-path="url(#clipPath32)"
             id="g30"><text
   transform="matrix(1,0,0,-1,427.97,571.63)"
   id="text36"><tspan
     x="0 8.6639996 15.996 26.664 33.959999 41.292 48.624001 55.296001 62.627998 66.624001"
     y="0"
     id="tspan38"
     style="font-size:12px;font-variant:normal;font-weight:bold;writing-mode:lr-tb;fill:#000000;fill-opacity:1;fill-rule:nonzero;stroke:none;font-family:Helvetica;-inkscape-font-specification:Helvetica-Bold">Komponente</tspan></text>

</g></g><g
           id="g40"><g
             clip-path="url(#clipPath44)"
             id="g42" /></g></g></g><path
       d="m 491.6,445.5 96,0 0,37.5 -96,0 0,-37.5 z"
       inkscape:connector-curvature="0"
       id="path48"
       style="fill:#ffffff;fill-opacity:1;fill-rule:evenodd;stroke:none" /><path
       d="m 491.6,445.5 96,0 0,37.5 -96,0 0,-37.5 z"
       inkscape:connector-curvature="0"
       id="path50"
       style="fill:none;stroke:#000000;stroke-width:0.75;stroke-linecap:round;stroke-linejoin:miter;stroke-miterlimit:8;stroke-opacity:1;stroke-dasharray:none" /><g
       id="g52"><g
         clip-path="url(#clipPath56)"
         id="g54"><g
           id="g60"><g
             clip-path="url(#clipPath64)"
             id="g62"><text
   transform="matrix(1,0,0,-1,509.71,467.59)"
   id="text68"><tspan
     x="0 8.6639996 15.336 22.068001 29.4 34.068001 37.403999 44.136002 48.695999 55.403999"
     y="0"
     id="tspan70"
     style="font-size:12px;font-variant:normal;font-weight:bold;writing-mode:lr-tb;fill:#000000;fill-opacity:1;fill-rule:nonzero;stroke:none;font-family:Helvetica;-inkscape-font-specification:Helvetica-Bold">Dekorierer</tspan></text>

</g></g><g
           id="g72"><g
             clip-path="url(#clipPath76)"
             id="g74" /></g></g></g><path
       d="m 599.07,472.95 -10.87,-6.37 10.87,-6.38 10.88,6.38 -10.88,6.37 z"
       inkscape:connector-curvature="0"
       id="path80"
       style="fill:#ffffff;fill-opacity:1;fill-rule:evenodd;stroke:none" /><path
       d="m 599.07,472.95 -10.87,-6.37 10.87,-6.38 10.88,6.38 -10.88,6.37 z"
       inkscape:connector-curvature="0"
       id="path82"
       style="fill:none;stroke:#000000;stroke-width:0.75;stroke-linecap:round;stroke-linejoin:round;stroke-miterlimit:8;stroke-opacity:1;stroke-dasharray:none" /><path
       d="m 487.07,548.57 16.07,-8.06 -10.92,-9.16 -5.15,17.22 z"
       inkscape:connector-curvature="0"
       id="path84"
       style="fill:#ffffff;fill-opacity:1;fill-rule:evenodd;stroke:none" /><path
       d="m 487.07,548.57 16.07,-8.06 -10.92,-9.16 -5.15,17.22 z"
       inkscape:connector-curvature="0"
       id="path86"
       style="fill:none;stroke:#000000;stroke-width:0.75;stroke-linecap:round;stroke-linejoin:round;stroke-miterlimit:8;stroke-opacity:1;stroke-dasharray:none" /><path
       d="m 610.1,466.5 26.35,-0.05"
       inkscape:connector-curvature="0"
       id="path88"
       style="fill:none;stroke:#000000;stroke-width:0.75;stroke-linecap:round;stroke-linejoin:round;stroke-miterlimit:8;stroke-opacity:1;stroke-dasharray:none" /><path
       d="m 512.6,566.75 123.75,0.05"
       inkscape:connector-curvature="0"
       id="path90"
       style="fill:none;stroke:#000000;stroke-width:0.75;stroke-linecap:round;stroke-linejoin:round;stroke-miterlimit:8;stroke-opacity:1;stroke-dasharray:none" /><path
       d="m 636.4,566.8 0.05,-100.3"
       inkscape:connector-curvature="0"
       id="path92"
       style="fill:none;stroke:#000000;stroke-width:0.75;stroke-linecap:round;stroke-linejoin:round;stroke-miterlimit:8;stroke-opacity:1;stroke-dasharray:none" /><path
       d="m 460.88,549.67 -5.15,-17.22 -10.92,9.16 16.07,8.06 z"
       inkscape:connector-curvature="0"
       id="path94"
       style="fill:#ffffff;fill-opacity:1;fill-rule:evenodd;stroke:none" /><path
       d="m 460.88,549.67 -5.15,-17.22 -10.92,9.16 16.07,8.06 z"
       inkscape:connector-curvature="0"
       id="path96"
       style="fill:none;stroke:#000000;stroke-width:0.75;stroke-linecap:round;stroke-linejoin:round;stroke-miterlimit:8;stroke-opacity:1;stroke-dasharray:none" /><path
       d="m 431.64,549 -10.72,-14.42 -7.13,12.34 17.85,2.08 z"
       inkscape:connector-curvature="0"
       id="path98"
       style="fill:#ffffff;fill-opacity:1;fill-rule:evenodd;stroke:none" /><path
       d="m 431.64,549 -10.72,-14.42 -7.13,12.34 17.85,2.08 z"
       inkscape:connector-curvature="0"
       id="path100"
       style="fill:none;stroke:#000000;stroke-width:0.75;stroke-linecap:round;stroke-linejoin:round;stroke-miterlimit:8;stroke-opacity:1;stroke-dasharray:none" /><path
       d="M 498,535.1 539.6,483"
       inkscape:connector-curvature="0"
       id="path102"
       style="fill:none;stroke:#000000;stroke-width:0.75;stroke-linecap:round;stroke-linejoin:round;stroke-miterlimit:8;stroke-opacity:1;stroke-dasharray:none" /><path
       d="m 449.25,454.5 37.5,0 0,20.25 -37.5,0 0,-20.25 z"
       inkscape:connector-curvature="0"
       id="path104"
       style="fill:#ffffff;fill-opacity:1;fill-rule:evenodd;stroke:none" /><g
       id="g106"><g
         clip-path="url(#clipPath110)"
         id="g108"><g
           id="g114"><g
             clip-path="url(#clipPath118)"
             id="g116"><text
   transform="matrix(1,0,0,-1,456.53,460.03)"
   id="text122"><tspan
     x="0 3 6 9 12 15 18"
     y="0"
     id="tspan124"
     style="font-size:12px;font-variant:normal;font-weight:bold;writing-mode:lr-tb;fill:#000000;fill-opacity:1;fill-rule:nonzero;stroke:none;font-family:Times New Roman;-inkscape-font-specification:Times-Bold">. . . .</tspan></text>

</g></g><g
           id="g126"><g
             clip-path="url(#clipPath130)"
             id="g128" /></g></g></g><path
       d="m 234,549 96,0 0,37.5 -96,0 0,-37.5 z"
       inkscape:connector-curvature="0"
       id="path134"
       style="fill:#ffffff;fill-opacity:1;fill-rule:evenodd;stroke:none" /><path
       d="m 234,549 96,0 0,37.5 -96,0 0,-37.5 z"
       inkscape:connector-curvature="0"
       id="path136"
       style="fill:none;stroke:#000000;stroke-width:0.75;stroke-linecap:round;stroke-linejoin:miter;stroke-miterlimit:8;stroke-opacity:1;stroke-dasharray:none" /><g
       id="g138"><g
         clip-path="url(#clipPath142)"
         id="g140"><g
           id="g146"><g
             clip-path="url(#clipPath150)"
             id="g148"><text
   transform="matrix(1,0,0,-1,265.34,571.03)"
   id="text154"><tspan
     x="0 8.6639996 12 15.336 22.068001 29.4"
     y="0"
     id="tspan156"
     style="font-size:12px;font-variant:normal;font-weight:bold;writing-mode:lr-tb;fill:#000000;fill-opacity:1;fill-rule:nonzero;stroke:none;font-family:Helvetica;-inkscape-font-specification:Helvetica-Bold">Client</tspan></text>

</g></g><g
           id="g158"><g
             clip-path="url(#clipPath162)"
             id="g160" /></g></g></g><path
       d="m 234.35,445.5 96,0 0,37.5 -96,0 0,-37.5 z"
       inkscape:connector-curvature="0"
       id="path166"
       style="fill:#ffffff;fill-opacity:1;fill-rule:evenodd;stroke:none" /><path
       d="m 234.35,445.5 96,0 0,37.5 -96,0 0,-37.5 z"
       inkscape:connector-curvature="0"
       id="path168"
       style="fill:none;stroke:#000000;stroke-width:0.75;stroke-linecap:round;stroke-linejoin:miter;stroke-miterlimit:8;stroke-opacity:1;stroke-dasharray:none" /><g
       id="g170"><g
         clip-path="url(#clipPath174)"
         id="g172"><g
           id="g178"><g
             clip-path="url(#clipPath182)"
             id="g180"><text
   transform="matrix(1,0,0,-1,256.34,467.95)"
   id="text186"><tspan
     x="0 8.6639996 15.996 23.280001 29.988001 34.655998 41.375999 45.372002"
     y="0"
     id="tspan188"
     style="font-size:12px;font-variant:normal;font-weight:bold;writing-mode:lr-tb;fill:#000000;fill-opacity:1;fill-rule:nonzero;stroke:none;font-family:Helvetica;-inkscape-font-specification:Helvetica-Bold">Konkrete</tspan></text>

</g></g><g
           id="g190"><g
             clip-path="url(#clipPath194)"
             id="g192" /></g><g
           id="g198"><g
             clip-path="url(#clipPath202)"
             id="g200"><text
   transform="matrix(1,0,0,-1,242.3,453.79)"
   id="text206"><tspan
     x="0 8.6639996 15.996 26.664 33.959999 41.292 48.624001 55.296001 62.627998 66.624001 73.295998"
     y="0"
     id="tspan208"
     style="font-size:12px;font-variant:normal;font-weight:bold;writing-mode:lr-tb;fill:#000000;fill-opacity:1;fill-rule:nonzero;stroke:none;font-family:Helvetica;-inkscape-font-specification:Helvetica-Bold">Komponente1</tspan></text>

</g></g><g
           id="g210"><g
             clip-path="url(#clipPath214)"
             id="g212" /></g></g></g><path
       d="m 337.85,445.5 96,0 0,37.5 -96,0 0,-37.5 z"
       inkscape:connector-curvature="0"
       id="path218"
       style="fill:#ffffff;fill-opacity:1;fill-rule:evenodd;stroke:none" /><path
       d="m 337.85,445.5 96,0 0,37.5 -96,0 0,-37.5 z"
       inkscape:connector-curvature="0"
       id="path220"
       style="fill:none;stroke:#000000;stroke-width:0.75;stroke-linecap:round;stroke-linejoin:miter;stroke-miterlimit:8;stroke-opacity:1;stroke-dasharray:none" /><g
       id="g222"><g
         clip-path="url(#clipPath226)"
         id="g224"><g
           id="g230"><g
             clip-path="url(#clipPath234)"
             id="g232"><text
   transform="matrix(1,0,0,-1,359.93,467.95)"
   id="text238"><tspan
     x="0 8.6639996 15.996 23.280001 29.988001 34.655998 41.375999 45.372002"
     y="0"
     id="tspan240"
     style="font-size:12px;font-variant:normal;font-weight:bold;writing-mode:lr-tb;fill:#000000;fill-opacity:1;fill-rule:nonzero;stroke:none;font-family:Helvetica;-inkscape-font-specification:Helvetica-Bold">Konkrete</tspan></text>

</g></g><g
           id="g242"><g
             clip-path="url(#clipPath246)"
             id="g244" /></g><g
           id="g250"><g
             clip-path="url(#clipPath254)"
             id="g252"><text
   transform="matrix(1,0,0,-1,345.89,454.15)"
   id="text258"><tspan
     x="0 8.6639996 15.996 26.664 33.959999 41.292 48.624001 55.296001 62.627998 66.624001 73.295998"
     y="0"
     id="tspan260"
     style="font-size:12px;font-variant:normal;font-weight:bold;writing-mode:lr-tb;fill:#000000;fill-opacity:1;fill-rule:nonzero;stroke:none;font-family:Helvetica;-inkscape-font-specification:Helvetica-Bold">Komponente2</tspan></text>

</g></g><g
           id="g262"><g
             clip-path="url(#clipPath266)"
             id="g264" /></g><g
           id="g270"><g
             clip-path="url(#clipPath274)"
             id="g272" /></g></g></g><path
       d="m 330,568.25 3,0.03 c 0.27,0 0.5,-0.22 0.5,-0.5 0,-0.28 -0.22,-0.5 -0.5,-0.5 l -3,-0.03 c -0.27,0 -0.5,0.22 -0.5,0.5 0,0.27 0.22,0.5 0.5,0.5 z m 7,0.06 3,0.03 c 0.27,0 0.5,-0.22 0.5,-0.5 0,-0.28 -0.22,-0.5 -0.5,-0.5 l -3,-0.03 c -0.27,0 -0.5,0.22 -0.5,0.5 0,0.27 0.22,0.5 0.5,0.5 z m 7,0.06 2.99,0.03 c 0.28,0 0.51,-0.22 0.51,-0.5 0,-0.27 -0.22,-0.5 -0.5,-0.5 l -3,-0.03 c -0.27,0 -0.5,0.22 -0.5,0.5 0,0.27 0.22,0.5 0.5,0.5 z m 6.99,0.06 3,0.03 c 0.28,0 0.51,-0.22 0.51,-0.5 0,-0.27 -0.22,-0.5 -0.5,-0.5 l -3,-0.03 c -0.27,0 -0.5,0.22 -0.5,0.5 0,0.27 0.22,0.5 0.49,0.5 z m 7,0.06 3,0.03 c 0.28,0 0.51,-0.22 0.51,-0.5 0,-0.27 -0.22,-0.5 -0.5,-0.5 l -3,-0.03 c -0.27,0 -0.5,0.22 -0.5,0.5 0,0.27 0.22,0.5 0.49,0.5 z m 7,0.06 3,0.03 c 0.28,0 0.51,-0.22 0.51,-0.5 0,-0.27 -0.22,-0.5 -0.5,-0.5 l -3,-0.03 c -0.27,0 -0.5,0.22 -0.5,0.5 0,0.28 0.22,0.5 0.49,0.5 z m 7,0.06 3,0.03 c 0.28,0 0.51,-0.22 0.51,-0.5 0,-0.27 -0.22,-0.5 -0.5,-0.5 l -3,-0.03 c -0.27,0 -0.5,0.22 -0.5,0.5 0,0.28 0.22,0.5 0.49,0.5 z m 7,0.06 3,0.03 c 0.28,0 0.51,-0.22 0.51,-0.5 0,-0.27 -0.22,-0.5 -0.5,-0.5 l -3,-0.03 c -0.27,0 -0.5,0.22 -0.5,0.5 0,0.28 0.22,0.5 0.49,0.5 z m 7,0.07 3,0.02 c 0.28,0 0.51,-0.22 0.51,-0.49 0,-0.28 -0.22,-0.51 -0.5,-0.51 l -3,-0.02 c -0.27,-0.01 -0.5,0.21 -0.5,0.49 0,0.28 0.22,0.5 0.49,0.51 z m 7,0.06 3,0.02 c 0.28,0 0.51,-0.22 0.51,-0.49 0,-0.28 -0.22,-0.51 -0.5,-0.51 l -3,-0.02 c -0.27,-0.01 -0.5,0.22 -0.5,0.49 0,0.28 0.22,0.5 0.49,0.51 z m 7,0.06 3,0.02 c 0.28,0 0.5,-0.22 0.51,-0.49 0,-0.28 -0.22,-0.51 -0.5,-0.51 l -3,-0.02 c -0.27,-0.01 -0.5,0.22 -0.5,0.49 -0.01,0.28 0.22,0.5 0.49,0.51 z m 7,0.06 3,0.02 c 0.28,0.01 0.5,-0.22 0.51,-0.49 0,-0.28 -0.22,-0.5 -0.5,-0.51 l -3,-0.02 c -0.27,-0.01 -0.5,0.22 -0.5,0.49 -0.01,0.28 0.22,0.5 0.49,0.51 z m 7,0.06 0.61,0 c 0.27,0.01 0.5,-0.22 0.5,-0.49 0,-0.28 -0.22,-0.5 -0.5,-0.51 l -0.6,0 c -0.27,0 -0.5,0.22 -0.5,0.49 -0.01,0.28 0.22,0.51 0.49,0.51 z m -5.17,3.38 6.77,-3.87 -6.7,-3.99 c -0.24,-0.14 -0.55,-0.06 -0.69,0.18 -0.14,0.23 -0.06,0.54 0.17,0.68 l 5.97,3.55 0.01,-0.86 -6.03,3.45 c -0.24,0.13 -0.32,0.44 -0.18,0.68 0.13,0.24 0.44,0.32 0.68,0.18 z"
       inkscape:connector-curvature="0"
       id="path278"
       style="fill:#000000;fill-opacity:1;fill-rule:nonzero;stroke:none" /><g
       id="g280"><g
         clip-path="url(#clipPath284)"
         id="g282"><g
           id="g288"><g
             clip-path="url(#clipPath292)"
             id="g290"><text
   transform="matrix(1,0,0,-1,348.65,569.83)"
   id="text296"><tspan
     x="0"
     y="0"
     id="tspan298"
     style="font-size:14.03999996px;font-variant:normal;font-weight:normal;writing-mode:lr-tb;fill:#000000;fill-opacity:1;fill-rule:nonzero;stroke:none;font-family:Courier New;-inkscape-font-specification:Courier New">«</tspan></text>

</g></g><g
           id="g300"><g
             clip-path="url(#clipPath304)"
             id="g302"><text
   transform="matrix(1,0,0,-1,357.05,569.83)"
   id="text308"><tspan
     x="0 8.3999996 16.799999"
     y="0"
     id="tspan310"
     style="font-size:14.03999996px;font-variant:normal;font-weight:normal;writing-mode:lr-tb;fill:#000000;fill-opacity:1;fill-rule:nonzero;stroke:none;font-family:Courier New;-inkscape-font-specification:Courier New">use</tspan></text>

</g></g><g
           id="g312"><g
             clip-path="url(#clipPath316)"
             id="g314"><text
   transform="matrix(1,0,0,-1,382.25,569.83)"
   id="text320"><tspan
     x="0"
     y="0"
     id="tspan322"
     style="font-size:14.03999996px;font-variant:normal;font-weight:normal;writing-mode:lr-tb;fill:#000000;fill-opacity:1;fill-rule:nonzero;stroke:none;font-family:Courier New;-inkscape-font-specification:Courier New">»</tspan></text>

</g></g><g
           id="g324"><g
             clip-path="url(#clipPath328)"
             id="g326" /></g></g></g><path
       d="m 523.5,571.5 37.5,0 0,20.25 -37.5,0 0,-20.25 z"
       inkscape:connector-curvature="0"
       id="path332"
       style="fill:#ffffff;fill-opacity:1;fill-rule:evenodd;stroke:none" /><g
       id="g334"><g
         clip-path="url(#clipPath338)"
         id="g336"><g
           id="g342"><g
             clip-path="url(#clipPath346)"
             id="g344"><text
   transform="matrix(1,0,0,-1,530.71,577.03)"
   id="text350"><tspan
     x="0"
     y="0"
     id="tspan352"
     style="font-size:12px;font-variant:normal;font-weight:bold;writing-mode:lr-tb;fill:#000000;fill-opacity:1;fill-rule:nonzero;stroke:none;font-family:Helvetica;-inkscape-font-specification:Helvetica-Bold">1</tspan></text>

</g></g><g
           id="g354"><g
             clip-path="url(#clipPath358)"
             id="g356" /></g></g></g></g></svg>