<?xml version="1.0" encoding="UTF-8" standalone="no"?>
<!-- Created with Inkscape (http://www.inkscape.org/) -->

<svg
   xmlns:dc="http://purl.org/dc/elements/1.1/"
   xmlns:cc="http://creativecommons.org/ns#"
   xmlns:rdf="http://www.w3.org/1999/02/22-rdf-syntax-ns#"
   xmlns:svg="http://www.w3.org/2000/svg"
   xmlns="http://www.w3.org/2000/svg"
   xmlns:sodipodi="http://sodipodi.sourceforge.net/DTD/sodipodi-0.dtd"
   xmlns:inkscape="http://www.inkscape.org/namespaces/inkscape"
   version="1.1"
   width="661.5625"
   height="463.4375"
   id="svg2"
   xml:space="preserve"
   inkscape:version="0.48.4 r9939"
   sodipodi:docname="Bild 4-33 Sequenzdiagramm für die Anmeldung und Aktualisierung eines Beobachters.svg"><sodipodi:namedview
     pagecolor="#ffffff"
     bordercolor="#666666"
     borderopacity="1"
     objecttolerance="10"
     gridtolerance="10"
     guidetolerance="10"
     inkscape:pageopacity="0"
     inkscape:pageshadow="2"
     inkscape:window-width="640"
     inkscape:window-height="480"
     id="namedview231"
     showgrid="false"
     inkscape:zoom="0.18730159"
     inkscape:cx="475.46875"
     inkscape:cy="164.84375"
     inkscape:window-x="0"
     inkscape:window-y="0"
     inkscape:window-maximized="0"
     inkscape:current-layer="svg2" /><metadata
     id="metadata8"><rdf:RDF><cc:Work
         rdf:about=""><dc:format>image/svg+xml</dc:format><dc:type
           rdf:resource="http://purl.org/dc/dcmitype/StillImage" /></cc:Work></rdf:RDF></metadata><defs
     id="defs6"><clipPath
       id="clipPath34"><path
         d="m 393.05,670.05 114.03,0 0,21.24 -114.03,0 0,-21.24 z"
         inkscape:connector-curvature="0"
         id="path36" /></clipPath><clipPath
       id="clipPath42"><path
         d="m 393.05,670.06 114.02,0 0,21.24 -114.02,0 0,-21.24 z"
         inkscape:connector-curvature="0"
         id="path44" /></clipPath><clipPath
       id="clipPath54"><path
         d="m 393.05,670.06 114.02,0 0,21.24 -114.02,0 0,-21.24 z"
         inkscape:connector-curvature="0"
         id="path56" /></clipPath><clipPath
       id="clipPath62"><path
         d="m 393.05,670.06 114.02,0 0,21.24 -114.02,0 0,-21.24 z"
         inkscape:connector-curvature="0"
         id="path64" /></clipPath><clipPath
       id="clipPath74"><path
         d="m 393.05,670.06 114.02,0 0,21.24 -114.02,0 0,-21.24 z"
         inkscape:connector-curvature="0"
         id="path76" /></clipPath><clipPath
       id="clipPath86"><path
         d="m 393.05,670.06 114.02,0 0,21.24 -114.02,0 0,-21.24 z"
         inkscape:connector-curvature="0"
         id="path88" /></clipPath><clipPath
       id="clipPath98"><path
         d="m 393.05,670.06 114.02,0 0,21.24 -114.02,0 0,-21.24 z"
         inkscape:connector-curvature="0"
         id="path100" /></clipPath><clipPath
       id="clipPath110"><path
         d="m 382.61,492.19 150.99,0 0,19.8 -150.99,0 0,-19.8 z"
         inkscape:connector-curvature="0"
         id="path112" /></clipPath><clipPath
       id="clipPath118"><path
         d="m 382.61,492.19 150.98,0 0,19.8 -150.98,0 0,-19.8 z"
         inkscape:connector-curvature="0"
         id="path120" /></clipPath><clipPath
       id="clipPath130"><path
         d="m 382.61,492.19 150.98,0 0,19.8 -150.98,0 0,-19.8 z"
         inkscape:connector-curvature="0"
         id="path132" /></clipPath><clipPath
       id="clipPath142"><path
         d="m 382.61,492.19 150.98,0 0,19.8 -150.98,0 0,-19.8 z"
         inkscape:connector-curvature="0"
         id="path144" /></clipPath><clipPath
       id="clipPath150"><path
         d="m 382.61,492.19 150.98,0 0,19.8 -150.98,0 0,-19.8 z"
         inkscape:connector-curvature="0"
         id="path152" /></clipPath><clipPath
       id="clipPath162"><path
         d="m 382.61,492.19 150.98,0 0,19.8 -150.98,0 0,-19.8 z"
         inkscape:connector-curvature="0"
         id="path164" /></clipPath><clipPath
       id="clipPath174"><path
         d="m 382.61,492.19 150.98,0 0,19.8 -150.98,0 0,-19.8 z"
         inkscape:connector-curvature="0"
         id="path176" /></clipPath><clipPath
       id="clipPath186"><path
         d="m 382.61,492.19 150.98,0 0,19.8 -150.98,0 0,-19.8 z"
         inkscape:connector-curvature="0"
         id="path188" /></clipPath><clipPath
       id="clipPath196"><path
         d="m 384.65,452.95 117.03,0 0,21.6 -117.03,0 0,-21.6 z"
         inkscape:connector-curvature="0"
         id="path198" /></clipPath><clipPath
       id="clipPath204"><path
         d="m 384.65,452.95 117.02,0 0,21.6 -117.02,0 0,-21.6 z"
         inkscape:connector-curvature="0"
         id="path206" /></clipPath><clipPath
       id="clipPath216"><path
         d="m 384.65,452.95 117.02,0 0,21.6 -117.02,0 0,-21.6 z"
         inkscape:connector-curvature="0"
         id="path218" /></clipPath><clipPath
       id="clipPath228"><path
         d="m 384.65,452.95 117.02,0 0,21.6 -117.02,0 0,-21.6 z"
         inkscape:connector-curvature="0"
         id="path230" /></clipPath><clipPath
       id="clipPath240"><path
         d="m 384.65,452.95 117.02,0 0,21.6 -117.02,0 0,-21.6 z"
         inkscape:connector-curvature="0"
         id="path242" /></clipPath><clipPath
       id="clipPath248"><path
         d="m 241.35,708.69 107.54,0 0,18.36 -107.54,0 0,-18.36 z"
         inkscape:connector-curvature="0"
         id="path250" /></clipPath><clipPath
       id="clipPath256"><path
         d="m 241.34,708.7 107.54,0 0,18.36 -107.54,0 0,-18.36 z"
         inkscape:connector-curvature="0"
         id="path258" /></clipPath><clipPath
       id="clipPath268"><path
         d="m 241.34,708.7 107.54,0 0,18.36 -107.54,0 0,-18.36 z"
         inkscape:connector-curvature="0"
         id="path270" /></clipPath><clipPath
       id="clipPath276"><path
         d="m 545.36,707.37 107.52,0 0,18.24 -107.52,0 0,-18.24 z"
         inkscape:connector-curvature="0"
         id="path278" /></clipPath><clipPath
       id="clipPath284"><path
         d="m 545.35,707.38 107.52,0 0,18.24 -107.52,0 0,-18.24 z"
         inkscape:connector-curvature="0"
         id="path286" /></clipPath><clipPath
       id="clipPath296"><path
         d="m 545.35,707.38 107.52,0 0,18.24 -107.52,0 0,-18.24 z"
         inkscape:connector-curvature="0"
         id="path298" /></clipPath><clipPath
       id="clipPath308"><path
         d="m 545.35,707.38 107.52,0 0,18.24 -107.52,0 0,-18.24 z"
         inkscape:connector-curvature="0"
         id="path310" /></clipPath><clipPath
       id="clipPath338"><path
         d="m 356.57,523.39 181.47,0 0,19.68 -181.47,0 0,-19.68 z"
         inkscape:connector-curvature="0"
         id="path340" /></clipPath><clipPath
       id="clipPath346"><path
         d="m 356.57,523.39 181.46,0 0,19.68 -181.46,0 0,-19.68 z"
         inkscape:connector-curvature="0"
         id="path348" /></clipPath><clipPath
       id="clipPath358"><path
         d="m 356.57,523.39 181.46,0 0,19.68 -181.46,0 0,-19.68 z"
         inkscape:connector-curvature="0"
         id="path360" /></clipPath><clipPath
       id="clipPath370"><path
         d="m 356.57,523.39 181.46,0 0,19.68 -181.46,0 0,-19.68 z"
         inkscape:connector-curvature="0"
         id="path372" /></clipPath><clipPath
       id="clipPath382"><path
         d="m 356.57,523.39 181.46,0 0,19.68 -181.46,0 0,-19.68 z"
         inkscape:connector-curvature="0"
         id="path384" /></clipPath><clipPath
       id="clipPath394"><path
         d="m 356.57,523.39 181.46,0 0,19.68 -181.46,0 0,-19.68 z"
         inkscape:connector-curvature="0"
         id="path396" /></clipPath><clipPath
       id="clipPath416"><path
         d="m 160.59,593.59 110.88,0 0,17.28 -110.88,0 0,-17.28 z"
         inkscape:connector-curvature="0"
         id="path418" /></clipPath><clipPath
       id="clipPath424"><path
         d="m 160.58,593.59 110.88,0 0,17.28 -110.88,0 0,-17.28 z"
         inkscape:connector-curvature="0"
         id="path426" /></clipPath><clipPath
       id="clipPath436"><path
         d="m 160.58,593.59 110.88,0 0,17.28 -110.88,0 0,-17.28 z"
         inkscape:connector-curvature="0"
         id="path438" /></clipPath><clipPath
       id="clipPath448"><path
         d="m 160.58,593.59 110.88,0 0,17.28 -110.88,0 0,-17.28 z"
         inkscape:connector-curvature="0"
         id="path450" /></clipPath></defs><g
     transform="matrix(1.25,0,0,-1.25,-154.90625,928.59375)"
     id="g10"><g
       id="g12"><path
         d="m 599.1,691.3 0,-318.8"
         inkscape:connector-curvature="0"
         id="path14"
         style="fill:none;stroke:#000000;stroke-width:0.75;stroke-linecap:round;stroke-linejoin:round;stroke-miterlimit:10;stroke-opacity:1;stroke-dasharray:5.25, 3;stroke-dashoffset:0" /></g><g
       id="g16"><path
         d="M 295.45,689.2 294,372.5"
         inkscape:connector-curvature="0"
         id="path18"
         style="fill:none;stroke:#000000;stroke-width:0.75;stroke-linecap:round;stroke-linejoin:round;stroke-miterlimit:10;stroke-opacity:1;stroke-dasharray:5.25, 3;stroke-dashoffset:0" /></g><path
       d="m 281.8,383 27,0 0,207.75 -27,0 0,-207.75 z"
       inkscape:connector-curvature="0"
       id="path20"
       style="fill:#ffffff;fill-opacity:1;fill-rule:evenodd;stroke:none" /><path
       d="m 281.8,383 27,0 0,207.75 -27,0 0,-207.75 z"
       inkscape:connector-curvature="0"
       id="path22"
       style="fill:none;stroke:#000000;stroke-width:0.75;stroke-linecap:round;stroke-linejoin:miter;stroke-miterlimit:10;stroke-opacity:1;stroke-dasharray:none" /><path
       d="m 321,490.25 256.5,-0.05 c 0.28,0 0.5,-0.22 0.5,-0.5 0,-0.27 -0.22,-0.5 -0.5,-0.5 L 321,489.25 c -0.28,0 -0.5,0.22 -0.5,0.5 0,0.28 0.22,0.5 0.5,0.5 z m 255.5,4.45 10,-5 -10,-5 0,10 z"
       inkscape:connector-curvature="0"
       id="path24"
       style="fill:#000000;fill-opacity:1;fill-rule:nonzero;stroke:none" /><path
       d="m 586.1,665.35 -268.3,0 c -0.28,0 -0.5,0.22 -0.5,0.5 0,0.28 0.22,0.5 0.5,0.5 l 268.3,0 c 0.28,0 0.5,-0.22 0.5,-0.5 0,-0.28 -0.22,-0.5 -0.5,-0.5 z m -267.3,-4.5 -10,5 10,5 0,-10 z"
       inkscape:connector-curvature="0"
       id="path26"
       style="fill:#000000;fill-opacity:1;fill-rule:nonzero;stroke:none" /><path
       d="m 393,666.45 114,0 0,28.5 -114,0 0,-28.5 z"
       inkscape:connector-curvature="0"
       id="path28"
       style="fill:#ffffff;fill-opacity:1;fill-rule:evenodd;stroke:none" /><g
       id="g30"><g
         clip-path="url(#clipPath34)"
         id="g32"><g
           id="g38"><g
             clip-path="url(#clipPath42)"
             id="g40"><text
   transform="matrix(1,0,0,-1,400.25,678.22)"
   id="text46"><tspan
     x="0 7.8062401 15.61248 27.2376 35.043839 38.160721 45.966961 53.773201"
     y="0"
     id="tspan48"
     style="font-size:14.03999996px;font-variant:normal;font-weight:normal;writing-mode:lr-tb;fill:#000000;fill-opacity:1;fill-rule:nonzero;stroke:none;font-family:Helvetica;-inkscape-font-specification:Helvetica">anmelden</tspan></text>

</g></g><g
           id="g50"><g
             clip-path="url(#clipPath54)"
             id="g52" /></g><g
           id="g58"><g
             clip-path="url(#clipPath62)"
             id="g60"><text
   transform="matrix(1,0,0,-1,465.77,678.22)"
   id="text66"><tspan
     x="0"
     y="0"
     id="tspan68"
     style="font-size:14.03999996px;font-variant:normal;font-weight:normal;writing-mode:lr-tb;fill:#000000;fill-opacity:1;fill-rule:nonzero;stroke:none;font-family:Helvetica;-inkscape-font-specification:Helvetica">(</tspan></text>

</g></g><g
           id="g70"><g
             clip-path="url(#clipPath74)"
             id="g72"><text
   transform="matrix(1,0,0,-1,470.35,678.22)"
   id="text78"><tspan
     x="0 3.94524 11.75148 14.742"
     y="0"
     id="tspan80"
     style="font-size:14.03999996px;font-variant:normal;font-weight:normal;writing-mode:lr-tb;fill:#000000;fill-opacity:1;fill-rule:nonzero;stroke:none;font-family:Helvetica;-inkscape-font-specification:Helvetica">this</tspan></text>

</g></g><g
           id="g82"><g
             clip-path="url(#clipPath86)"
             id="g84"><text
   transform="matrix(1,0,0,-1,492.19,678.22)"
   id="text90"><tspan
     x="0"
     y="0"
     id="tspan92"
     style="font-size:14.03999996px;font-variant:normal;font-weight:normal;writing-mode:lr-tb;fill:#000000;fill-opacity:1;fill-rule:nonzero;stroke:none;font-family:Helvetica;-inkscape-font-specification:Helvetica">)</tspan></text>

</g></g><g
           id="g94"><g
             clip-path="url(#clipPath98)"
             id="g96" /></g></g></g><path
       d="m 281.6,644.25 27.2,0 0,22.2 -27.2,0 0,-22.2 z"
       inkscape:connector-curvature="0"
       id="path102"
       style="fill:#ffffff;fill-opacity:1;fill-rule:evenodd;stroke:none" /><path
       d="m 281.6,644.25 27.2,0 0,22.2 -27.2,0 0,-22.2 z"
       inkscape:connector-curvature="0"
       id="path104"
       style="fill:none;stroke:#000000;stroke-width:0.75;stroke-linecap:round;stroke-linejoin:miter;stroke-miterlimit:10;stroke-opacity:1;stroke-dasharray:none" /><g
       id="g106"><g
         clip-path="url(#clipPath110)"
         id="g108"><g
           id="g114"><g
             clip-path="url(#clipPath118)"
             id="g116"><text
   transform="matrix(1,0,0,-1,389.69,499.03)"
   id="text122"><tspan
     x="0"
     y="0"
     id="tspan124"
     style="font-size:14.03999996px;font-variant:normal;font-weight:normal;writing-mode:lr-tb;fill:#000000;fill-opacity:1;fill-rule:nonzero;stroke:none;font-family:Helvetica;-inkscape-font-specification:Helvetica">a</tspan></text>

</g></g><g
           id="g126"><g
             clip-path="url(#clipPath130)"
             id="g128"><text
   transform="matrix(1,0,0,-1,397.49,499.03)"
   id="text134"><tspan
     x="0 7.06212 11.00736 18.687241 26.493481 29.610359 32.727242 39.78936 42.793919 50.600159 55.275478 63.081718"
     y="0"
     id="tspan136"
     style="font-size:14.03999996px;font-variant:normal;font-weight:normal;writing-mode:lr-tb;fill:#000000;fill-opacity:1;fill-rule:nonzero;stroke:none;font-family:Helvetica;-inkscape-font-specification:Helvetica">ktualisieren</tspan></text>

</g></g><g
           id="g138"><g
             clip-path="url(#clipPath142)"
             id="g140" /></g><g
           id="g146"><g
             clip-path="url(#clipPath150)"
             id="g148"><text
   transform="matrix(1,0,0,-1,472.27,499.03)"
   id="text154"><tspan
     x="0"
     y="0"
     id="tspan156"
     style="font-size:14.03999996px;font-variant:normal;font-weight:normal;writing-mode:lr-tb;fill:#000000;fill-opacity:1;fill-rule:nonzero;stroke:none;font-family:Helvetica;-inkscape-font-specification:Helvetica">(</tspan></text>

</g></g><g
           id="g158"><g
             clip-path="url(#clipPath162)"
             id="g160"><text
   transform="matrix(1,0,0,-1,476.95,499.03)"
   id="text166"><tspan
     x="0 3.94524 11.75148 14.742"
     y="0"
     id="tspan168"
     style="font-size:14.03999996px;font-variant:normal;font-weight:normal;writing-mode:lr-tb;fill:#000000;fill-opacity:1;fill-rule:nonzero;stroke:none;font-family:Helvetica;-inkscape-font-specification:Helvetica">this</tspan></text>

</g></g><g
           id="g170"><g
             clip-path="url(#clipPath174)"
             id="g172"><text
   transform="matrix(1,0,0,-1,498.79,499.03)"
   id="text178"><tspan
     x="0"
     y="0"
     id="tspan180"
     style="font-size:14.03999996px;font-variant:normal;font-weight:normal;writing-mode:lr-tb;fill:#000000;fill-opacity:1;fill-rule:nonzero;stroke:none;font-family:Helvetica;-inkscape-font-specification:Helvetica">)</tspan></text>

</g></g><g
           id="g182"><g
             clip-path="url(#clipPath186)"
             id="g184" /></g></g></g><path
       d="m 350.4,454.8 235.7,0 c 0.28,0 0.5,-0.22 0.5,-0.5 0,-0.28 -0.22,-0.5 -0.5,-0.5 l -235.7,0 c -0.28,0 -0.5,0.22 -0.5,0.5 0,0.28 0.22,0.5 0.5,0.5 z m 1,-5.5 -10,5 10,5 0,-10 z"
       inkscape:connector-curvature="0"
       id="path190"
       style="fill:#000000;fill-opacity:1;fill-rule:nonzero;stroke:none" /><g
       id="g192"><g
         clip-path="url(#clipPath196)"
         id="g194"><g
           id="g200"><g
             clip-path="url(#clipPath204)"
             id="g202"><text
   transform="matrix(1,0,0,-1,391.85,461.47)"
   id="text208"><tspan
     x="0 7.8062401 10.92312 18.729361 27.2376 35.043839 42.105961 46.051201 53.731079 61.537319"
     y="0"
     id="tspan210"
     style="font-size:14.03999996px;font-variant:normal;font-weight:normal;writing-mode:lr-tb;fill:#000000;fill-opacity:1;fill-rule:nonzero;stroke:none;font-family:Helvetica;-inkscape-font-specification:Helvetica">gibZustand</tspan></text>

</g></g><g
           id="g212"><g
             clip-path="url(#clipPath216)"
             id="g214"><text
   transform="matrix(1,0,0,-1,461.21,461.47)"
   id="text220"><tspan
     x="0"
     y="0"
     id="tspan222"
     style="font-size:14.03999996px;font-variant:normal;font-weight:normal;writing-mode:lr-tb;fill:#000000;fill-opacity:1;fill-rule:nonzero;stroke:none;font-family:Helvetica;-inkscape-font-specification:Helvetica">(</tspan></text>

</g></g><g
           id="g224"><g
             clip-path="url(#clipPath228)"
             id="g226"><text
   transform="matrix(1,0,0,-1,465.89,461.47)"
   id="text232"><tspan
     x="0"
     y="0"
     id="tspan234"
     style="font-size:14.03999996px;font-variant:normal;font-weight:normal;writing-mode:lr-tb;fill:#000000;fill-opacity:1;fill-rule:nonzero;stroke:none;font-family:Helvetica;-inkscape-font-specification:Helvetica">)</tspan></text>

</g></g><g
           id="g236"><g
             clip-path="url(#clipPath240)"
             id="g238" /></g></g></g><g
       id="g244"><g
         clip-path="url(#clipPath248)"
         id="g246"><g
           id="g252"><g
             clip-path="url(#clipPath256)"
             id="g254"><text
   transform="matrix(1,0,0,-1,247.46,712.42)"
   id="text260"><tspan
     x="0 4.4368801 15.0822 23.955959 32.861641 41.735401 50.609161 58.653 67.526756 71.963638 80.837402 89.711159"
     y="0"
     id="tspan262"
     style="font-size:15.96000004px;font-variant:normal;font-weight:normal;writing-mode:lr-tb;fill:#000000;fill-opacity:1;fill-rule:nonzero;stroke:none;font-family:Helvetica;-inkscape-font-specification:Helvetica">:Beobachtbar</tspan></text>

</g></g><g
           id="g264"><g
             clip-path="url(#clipPath268)"
             id="g266" /></g></g></g><g
       id="g272"><g
         clip-path="url(#clipPath276)"
         id="g274"><g
           id="g280"><g
             clip-path="url(#clipPath284)"
             id="g282"><text
   transform="matrix(1,0,0,-1,555.91,710.86)"
   id="text288"><tspan
     x="0"
     y="0"
     id="tspan290"
     style="font-size:15.96000004px;font-variant:normal;font-weight:normal;writing-mode:lr-tb;fill:#000000;fill-opacity:1;fill-rule:nonzero;stroke:none;font-family:Helvetica;-inkscape-font-specification:Helvetica">:</tspan></text>

</g></g><g
           id="g292"><g
             clip-path="url(#clipPath296)"
             id="g294"><text
   transform="matrix(1,0,0,-1,560.35,710.86)"
   id="text300"><tspan
     x="0 10.64532 19.519079 28.392839 37.298519 46.172279 54.200161 63.073921 67.510803 76.38456"
     y="0"
     id="tspan302"
     style="font-size:15.96000004px;font-variant:normal;font-weight:normal;writing-mode:lr-tb;fill:#000000;fill-opacity:1;fill-rule:nonzero;stroke:none;font-family:Helvetica;-inkscape-font-specification:Helvetica">Beobachter</tspan></text>

</g></g><g
           id="g304"><g
             clip-path="url(#clipPath308)"
             id="g306" /></g></g></g><path
       d="m 586.1,635.25 30.2,0 0,41.7 -30.2,0 0,-41.7 z"
       inkscape:connector-curvature="0"
       id="path312"
       style="fill:#ffffff;fill-opacity:1;fill-rule:evenodd;stroke:none" /><path
       d="m 586.1,635.25 30.2,0 0,41.7 -30.2,0 0,-41.7 z"
       inkscape:connector-curvature="0"
       id="path314"
       style="fill:#ffffff;fill-opacity:1;fill-rule:evenodd;stroke:none" /><path
       d="m 586.1,635.25 30.2,0 0,41.7 -30.2,0 0,-41.7 z"
       inkscape:connector-curvature="0"
       id="path316"
       style="fill:none;stroke:#000000;stroke-width:0.75;stroke-linecap:round;stroke-linejoin:miter;stroke-miterlimit:10;stroke-opacity:1;stroke-dasharray:none" /><path
       d="m 586.1,396.75 25.7,0 0,94.35 -25.7,0 0,-94.35 z"
       inkscape:connector-curvature="0"
       id="path318"
       style="fill:#ffffff;fill-opacity:1;fill-rule:evenodd;stroke:none" /><path
       d="m 586.1,396.75 25.7,0 0,94.35 -25.7,0 0,-94.35 z"
       inkscape:connector-curvature="0"
       id="path320"
       style="fill:#ffffff;fill-opacity:1;fill-rule:evenodd;stroke:none" /><path
       d="m 586.1,396.75 25.7,0 0,94.35 -25.7,0 0,-94.35 z"
       inkscape:connector-curvature="0"
       id="path322"
       style="fill:none;stroke:#000000;stroke-width:0.75;stroke-linecap:round;stroke-linejoin:miter;stroke-miterlimit:10;stroke-opacity:1;stroke-dasharray:none" /><path
       d="m 545.3,691.3 107.5,0 0,51.2 -107.5,0 0,-51.2 z"
       inkscape:connector-curvature="0"
       id="path324"
       style="fill:none;stroke:#000000;stroke-width:0.75;stroke-linecap:round;stroke-linejoin:miter;stroke-miterlimit:10;stroke-opacity:1;stroke-dasharray:none" /><path
       d="m 241.35,689.85 107.5,0 0,51.2 -107.5,0 0,-51.2 z"
       inkscape:connector-curvature="0"
       id="path326"
       style="fill:none;stroke:#000000;stroke-width:0.75;stroke-linecap:round;stroke-linejoin:miter;stroke-miterlimit:10;stroke-opacity:1;stroke-dasharray:none" /><path
       d="m 309,544.5 40.5,0"
       inkscape:connector-curvature="0"
       id="path328"
       style="fill:none;stroke:#000000;stroke-width:0.75;stroke-linecap:round;stroke-linejoin:round;stroke-miterlimit:10;stroke-opacity:1;stroke-dasharray:none" /><path
       d="m 349.5,524.5 -12,0 c -0.28,0 -0.5,0.22 -0.5,0.5 0,0.28 0.22,0.5 0.5,0.5 l 12,0 c 0.28,0 0.5,-0.22 0.5,-0.5 0,-0.28 -0.22,-0.5 -0.5,-0.5 z m -11,-4.5 -10,5 10,5 0,-10 z"
       inkscape:connector-curvature="0"
       id="path330"
       style="fill:#000000;fill-opacity:1;fill-rule:nonzero;stroke:none" /><path
       d="m 349.5,544.5 0,-19.5"
       inkscape:connector-curvature="0"
       id="path332"
       style="fill:none;stroke:#000000;stroke-width:0.75;stroke-linecap:round;stroke-linejoin:round;stroke-miterlimit:10;stroke-opacity:1;stroke-dasharray:none" /><g
       id="g334"><g
         clip-path="url(#clipPath338)"
         id="g336"><g
           id="g342"><g
             clip-path="url(#clipPath346)"
             id="g344"><text
   transform="matrix(1,0,0,-1,363.77,529.99)"
   id="text350"><tspan
     x="0 7.8062401 15.61248 23.41872 31.22496 38.244961 46.051201 50.726521 53.759159 60.821281 68.50116 72.446404 75.563278 83.369522"
     y="0"
     id="tspan352"
     style="font-size:14.03999996px;font-variant:normal;font-weight:normal;writing-mode:lr-tb;fill:#000000;fill-opacity:1;fill-rule:nonzero;stroke:none;font-family:Helvetica;-inkscape-font-specification:Helvetica">benachrichtige</tspan></text>

</g></g><g
           id="g354"><g
             clip-path="url(#clipPath358)"
             id="g356"><text
   transform="matrix(1,0,0,-1,454.97,529.99)"
   id="text362"><tspan
     x="0"
     y="0"
     id="tspan364"
     style="font-size:14.03999996px;font-variant:normal;font-weight:normal;writing-mode:lr-tb;fill:#000000;fill-opacity:1;fill-rule:nonzero;stroke:none;font-family:Helvetica;-inkscape-font-specification:Helvetica">n</tspan></text>

</g></g><g
           id="g366"><g
             clip-path="url(#clipPath370)"
             id="g368"><text
   transform="matrix(1,0,0,-1,462.77,529.99)"
   id="text374"><tspan
     x="0"
     y="0"
     id="tspan376"
     style="font-size:14.03999996px;font-variant:normal;font-weight:normal;writing-mode:lr-tb;fill:#000000;fill-opacity:1;fill-rule:nonzero;stroke:none;font-family:Helvetica;-inkscape-font-specification:Helvetica">(</tspan></text>

</g></g><g
           id="g378"><g
             clip-path="url(#clipPath382)"
             id="g380"><text
   transform="matrix(1,0,0,-1,467.47,529.99)"
   id="text386"><tspan
     x="0"
     y="0"
     id="tspan388"
     style="font-size:14.03999996px;font-variant:normal;font-weight:normal;writing-mode:lr-tb;fill:#000000;fill-opacity:1;fill-rule:nonzero;stroke:none;font-family:Helvetica;-inkscape-font-specification:Helvetica">)</tspan></text>

</g></g><g
           id="g390"><g
             clip-path="url(#clipPath394)"
             id="g392" /></g></g></g><path
       d="m 139.72,615.25 c -3.65,0 -6.62,-3.81 -6.62,-8.5 0,-4.69 2.97,-8.5 6.62,-8.5 3.66,0 6.63,3.81 6.63,8.5 0,4.69 -2.97,8.5 -6.63,8.5 z"
       inkscape:connector-curvature="0"
       id="path398"
       style="fill:#ffffff;fill-opacity:1;fill-rule:evenodd;stroke:none" /><path
       d="m 139.72,615.25 c -3.65,0 -6.62,-3.81 -6.62,-8.5 0,-4.69 2.97,-8.5 6.62,-8.5 3.66,0 6.63,3.81 6.63,8.5 0,4.69 -2.97,8.5 -6.63,8.5 z"
       inkscape:connector-curvature="0"
       id="path400"
       style="fill:none;stroke:#000000;stroke-width:0.75;stroke-linecap:round;stroke-linejoin:round;stroke-miterlimit:10;stroke-opacity:1;stroke-dasharray:none" /><path
       d="m 139.3,598.25 0,-15.9"
       inkscape:connector-curvature="0"
       id="path402"
       style="fill:none;stroke:#000000;stroke-width:0.75;stroke-linecap:round;stroke-linejoin:round;stroke-miterlimit:10;stroke-opacity:1;stroke-dasharray:none" /><path
       d="m 124.3,566.5 15,14.75"
       inkscape:connector-curvature="0"
       id="path404"
       style="fill:none;stroke:#000000;stroke-width:0.75;stroke-linecap:round;stroke-linejoin:round;stroke-miterlimit:10;stroke-opacity:1;stroke-dasharray:none" /><path
       d="m 139.3,581.25 15,-14.75"
       inkscape:connector-curvature="0"
       id="path406"
       style="fill:none;stroke:#000000;stroke-width:0.75;stroke-linecap:round;stroke-linejoin:round;stroke-miterlimit:10;stroke-opacity:1;stroke-dasharray:none" /><path
       d="m 127.3,595.5 22.95,0"
       inkscape:connector-curvature="0"
       id="path408"
       style="fill:none;stroke:#000000;stroke-width:0.75;stroke-linecap:round;stroke-linejoin:round;stroke-miterlimit:10;stroke-opacity:1;stroke-dasharray:none" /><path
       d="m 158.8,590.85 113.85,0.05 c 0.28,0 0.5,-0.23 0.5,-0.5 0,-0.28 -0.22,-0.5 -0.5,-0.5 L 158.8,589.85 c -0.28,0 -0.5,0.22 -0.5,0.5 0,0.28 0.22,0.5 0.5,0.5 z m 112.85,4.55 10,-5 -10,-5 0,10 z"
       inkscape:connector-curvature="0"
       id="path410"
       style="fill:#000000;fill-opacity:1;fill-rule:nonzero;stroke:none" /><g
       id="g412"><g
         clip-path="url(#clipPath416)"
         id="g414"><g
           id="g420"><g
             clip-path="url(#clipPath424)"
             id="g422"><text
   transform="matrix(1,0,0,-1,167.78,597.79)"
   id="text428"><tspan
     x="0 7.06212 14.86836 18.701281 25.763399 33.569641 42.077881 49.757759 56.819881 60.765121 68.571358 76.251244"
     y="0"
     id="tspan430"
     style="font-size:14.03999996px;font-variant:normal;font-weight:normal;writing-mode:lr-tb;fill:#000000;fill-opacity:1;fill-rule:nonzero;stroke:none;font-family:Helvetica;-inkscape-font-specification:Helvetica">setzeZustand</tspan></text>

</g></g><g
           id="g432"><g
             clip-path="url(#clipPath436)"
             id="g434"><text
   transform="matrix(1,0,0,-1,251.9,597.79)"
   id="text440"><tspan
     x="0 4.6799998"
     y="0"
     id="tspan442"
     style="font-size:14.03999996px;font-variant:normal;font-weight:normal;writing-mode:lr-tb;fill:#000000;fill-opacity:1;fill-rule:nonzero;stroke:none;font-family:Helvetica;-inkscape-font-specification:Helvetica">()</tspan></text>

</g></g><g
           id="g444"><g
             clip-path="url(#clipPath448)"
             id="g446" /></g></g></g><path
       d="m 301.3,392.9 27.2,0 0,133.2 -27.2,0 0,-133.2 z"
       inkscape:connector-curvature="0"
       id="path452"
       style="fill:#ffffff;fill-opacity:1;fill-rule:evenodd;stroke:none" /><path
       d="m 301.3,392.9 27.2,0 0,133.2 -27.2,0 0,-133.2 z"
       inkscape:connector-curvature="0"
       id="path454"
       style="fill:none;stroke:#000000;stroke-width:0.75;stroke-linecap:round;stroke-linejoin:miter;stroke-miterlimit:8;stroke-opacity:1;stroke-dasharray:none" /><path
       d="m 318.9,413.3 22.5,0 0,42 -22.5,0 0,-42 z"
       inkscape:connector-curvature="0"
       id="path456"
       style="fill:#ffffff;fill-opacity:1;fill-rule:evenodd;stroke:none" /><path
       d="m 318.9,413.3 22.5,0 0,42 -22.5,0 0,-42 z"
       inkscape:connector-curvature="0"
       id="path458"
       style="fill:none;stroke:#000000;stroke-width:0.75;stroke-linecap:round;stroke-linejoin:miter;stroke-miterlimit:8;stroke-opacity:1;stroke-dasharray:none" /><path
       d="m 341.4,414.8 7,0 c 0.28,0 0.5,-0.23 0.5,-0.5 0,-0.28 -0.22,-0.5 -0.5,-0.5 l -7,0 c -0.28,0 -0.5,0.22 -0.5,0.5 0,0.28 0.22,0.5 0.5,0.5 z m 11,0 7,0 c 0.28,0 0.5,-0.23 0.5,-0.5 0,-0.28 -0.22,-0.5 -0.5,-0.5 l -7,0 c -0.28,0 -0.5,0.22 -0.5,0.5 0,0.27 0.22,0.5 0.5,0.5 z m 11,0 7,-0.01 c 0.28,0 0.5,-0.22 0.5,-0.5 0,-0.27 -0.22,-0.5 -0.5,-0.5 l -7,0.01 c -0.28,0 -0.5,0.22 -0.5,0.5 0,0.27 0.22,0.5 0.5,0.5 z m 11,-0.01 7,0 c 0.28,0 0.5,-0.22 0.5,-0.5 0,-0.27 -0.22,-0.5 -0.5,-0.5 l -7,0 c -0.28,0 -0.5,0.23 -0.5,0.5 0,0.28 0.22,0.5 0.5,0.5 z m 11,0 7,0 c 0.28,0 0.5,-0.22 0.5,-0.5 0,-0.28 -0.22,-0.5 -0.5,-0.5 l -7,0 c -0.28,0 -0.5,0.23 -0.5,0.5 0,0.28 0.22,0.5 0.5,0.5 z m 11,0 7,0 c 0.28,0 0.5,-0.23 0.5,-0.5 0,-0.28 -0.22,-0.5 -0.5,-0.5 l -7,0 c -0.28,0 -0.5,0.22 -0.5,0.5 0,0.28 0.22,0.5 0.5,0.5 z m 11,0 7,0 c 0.28,0 0.5,-0.23 0.5,-0.5 0,-0.28 -0.22,-0.5 -0.5,-0.5 l -7,0 c -0.28,0 -0.5,0.22 -0.5,0.5 0,0.27 0.22,0.5 0.5,0.5 z m 11,-0.01 7,0 c 0.28,0 0.5,-0.22 0.5,-0.5 0,-0.27 -0.22,-0.5 -0.5,-0.5 l -7,0 c -0.28,0 -0.5,0.23 -0.5,0.5 0,0.28 0.22,0.5 0.5,0.5 z m 11,0 7,0 c 0.28,0 0.5,-0.22 0.5,-0.5 0,-0.28 -0.22,-0.5 -0.5,-0.5 l -7,0 c -0.28,0 -0.5,0.23 -0.5,0.5 0,0.28 0.22,0.5 0.5,0.5 z m 11,0 7,0 c 0.28,0 0.5,-0.23 0.5,-0.5 0,-0.28 -0.22,-0.5 -0.5,-0.5 l -7,0 c -0.28,0 -0.5,0.22 -0.5,0.5 0,0.28 0.22,0.5 0.5,0.5 z m 11,0 7,0 c 0.28,0 0.5,-0.23 0.5,-0.5 0,-0.28 -0.22,-0.5 -0.5,-0.5 l -7,0 c -0.28,0 -0.5,0.22 -0.5,0.5 0,0.27 0.22,0.5 0.5,0.5 z m 11,0 7,-0.01 c 0.28,0 0.5,-0.22 0.5,-0.5 0,-0.27 -0.22,-0.5 -0.5,-0.5 l -7,0.01 c -0.28,0 -0.5,0.22 -0.5,0.5 0,0.27 0.22,0.5 0.5,0.5 z m 11,-0.01 7,0 c 0.28,0 0.5,-0.22 0.5,-0.5 0,-0.27 -0.22,-0.5 -0.5,-0.5 l -7,0 c -0.28,0 -0.5,0.23 -0.5,0.5 0,0.28 0.22,0.5 0.5,0.5 z m 11,0 7,0 c 0.28,0 0.5,-0.22 0.5,-0.5 0,-0.28 -0.22,-0.5 -0.5,-0.5 l -7,0 c -0.28,0 -0.5,0.23 -0.5,0.5 0,0.28 0.22,0.5 0.5,0.5 z m 11,0 7,0 c 0.28,0 0.5,-0.23 0.5,-0.5 0,-0.28 -0.22,-0.5 -0.5,-0.5 l -7,0 c -0.28,0 -0.5,0.22 -0.5,0.5 0,0.28 0.22,0.5 0.5,0.5 z m 11,0 7,0 c 0.28,0 0.5,-0.23 0.5,-0.5 0,-0.28 -0.22,-0.5 -0.5,-0.5 l -7,0 c -0.28,0 -0.5,0.22 -0.5,0.5 0,0.27 0.22,0.5 0.5,0.5 z m 11,-0.01 7,0 c 0.28,0 0.5,-0.22 0.5,-0.5 0,-0.27 -0.22,-0.5 -0.5,-0.5 l -7,0 c -0.28,0 -0.5,0.23 -0.5,0.5 0,0.28 0.22,0.5 0.5,0.5 z m 11,0 7,0 c 0.28,0 0.5,-0.22 0.5,-0.5 0,-0.28 -0.22,-0.5 -0.5,-0.5 l -7,0 c -0.28,0 -0.5,0.23 -0.5,0.5 0,0.28 0.22,0.5 0.5,0.5 z m 11,0 7,0 c 0.28,0 0.5,-0.23 0.5,-0.5 0,-0.28 -0.22,-0.5 -0.5,-0.5 l -7,0 c -0.28,0 -0.5,0.22 -0.5,0.5 0,0.28 0.22,0.5 0.5,0.5 z m 11,0 7,0 c 0.28,0 0.5,-0.23 0.5,-0.5 0,-0.28 -0.22,-0.5 -0.5,-0.5 l -7,0 c -0.28,0 -0.5,0.22 -0.5,0.5 0,0.27 0.22,0.5 0.5,0.5 z m 11,0 7,-0.01 c 0.28,0 0.5,-0.22 0.5,-0.5 0,-0.27 -0.22,-0.5 -0.5,-0.5 l -7,0.01 c -0.28,0 -0.5,0.22 -0.5,0.5 0,0.27 0.22,0.5 0.5,0.5 z m 11,-0.01 7,0 c 0.28,0 0.5,-0.22 0.5,-0.5 0,-0.27 -0.22,-0.5 -0.5,-0.5 l -7,0 c -0.28,0 -0.5,0.23 -0.5,0.5 0,0.28 0.22,0.5 0.5,0.5 z m 11,0 1.1,0 c 0.28,0 0.5,-0.22 0.5,-0.5 0,-0.28 -0.22,-0.5 -0.5,-0.5 l -1.1,0 c -0.28,0 -0.5,0.22 -0.5,0.5 0,0.28 0.22,0.5 0.5,0.5 z m -4.58,4.89 6.46,-5.39 -6.46,-5.38 c -0.21,-0.18 -0.53,-0.15 -0.71,0.06 -0.17,0.21 -0.14,0.53 0.07,0.71 l 6,4.99 0,-0.76 -6,5 c -0.21,0.17 -0.24,0.49 -0.06,0.7 0.17,0.21 0.49,0.24 0.7,0.07 z"
       inkscape:connector-curvature="0"
       id="path460"
       style="fill:#000000;fill-opacity:1;fill-rule:nonzero;stroke:none" /></g></svg>