<?xml version="1.0" encoding="UTF-8" standalone="no"?>
<!-- Created with Inkscape (http://www.inkscape.org/) -->

<svg
   xmlns:dc="http://purl.org/dc/elements/1.1/"
   xmlns:cc="http://creativecommons.org/ns#"
   xmlns:rdf="http://www.w3.org/1999/02/22-rdf-syntax-ns#"
   xmlns:svg="http://www.w3.org/2000/svg"
   xmlns="http://www.w3.org/2000/svg"
   xmlns:sodipodi="http://sodipodi.sourceforge.net/DTD/sodipodi-0.dtd"
   xmlns:inkscape="http://www.inkscape.org/namespaces/inkscape"
   version="1.1"
   width="631.75"
   height="612.4375"
   id="svg2"
   xml:space="preserve"
   inkscape:version="0.48.4 r9939"
   sodipodi:docname="Bild 4-21 Sequenzdiagramm Kompositum-Muster.svg"><sodipodi:namedview
     pagecolor="#ffffff"
     bordercolor="#666666"
     borderopacity="1"
     objecttolerance="10"
     gridtolerance="10"
     guidetolerance="10"
     inkscape:pageopacity="0"
     inkscape:pageshadow="2"
     inkscape:window-width="640"
     inkscape:window-height="480"
     id="namedview300"
     showgrid="false"
     inkscape:zoom="0.18730159"
     inkscape:cx="503.34375"
     inkscape:cy="542.34375"
     inkscape:window-x="0"
     inkscape:window-y="0"
     inkscape:window-maximized="0"
     inkscape:current-layer="svg2" /><metadata
     id="metadata8"><rdf:RDF><cc:Work
         rdf:about=""><dc:format>image/svg+xml</dc:format><dc:type
           rdf:resource="http://purl.org/dc/dcmitype/StillImage" /></cc:Work></rdf:RDF></metadata><defs
     id="defs6"><clipPath
       id="clipPath20"><path
         d="m 108.39,524.95 45.36,0 0,18.36 -45.36,0 0,-18.36 z"
         inkscape:connector-curvature="0"
         id="path22" /></clipPath><clipPath
       id="clipPath28"><path
         d="m 108.38,524.95 45.36,0 0,18.36 -45.36,0 0,-18.36 z"
         inkscape:connector-curvature="0"
         id="path30" /></clipPath><clipPath
       id="clipPath40"><path
         d="m 108.38,524.95 45.36,0 0,18.36 -45.36,0 0,-18.36 z"
         inkscape:connector-curvature="0"
         id="path42" /></clipPath><clipPath
       id="clipPath50"><path
         d="m 207.75,466.03 125.3,0 0,18.36 -125.3,0 0,-18.36 z"
         inkscape:connector-curvature="0"
         id="path52" /></clipPath><clipPath
       id="clipPath58"><path
         d="m 207.74,466.03 125.3,0 0,18.36 -125.3,0 0,-18.36 z"
         inkscape:connector-curvature="0"
         id="path60" /></clipPath><clipPath
       id="clipPath70"><path
         d="m 207.74,466.03 125.3,0 0,18.36 -125.3,0 0,-18.36 z"
         inkscape:connector-curvature="0"
         id="path72" /></clipPath><clipPath
       id="clipPath82"><path
         d="m 207.74,466.03 125.3,0 0,18.36 -125.3,0 0,-18.36 z"
         inkscape:connector-curvature="0"
         id="path84" /></clipPath><clipPath
       id="clipPath94"><path
         d="m 207.74,466.03 125.3,0 0,18.36 -125.3,0 0,-18.36 z"
         inkscape:connector-curvature="0"
         id="path96" /></clipPath><clipPath
       id="clipPath106"><path
         d="m 387.77,466.03 89.19,0 0,18.36 -89.19,0 0,-18.36 z"
         inkscape:connector-curvature="0"
         id="path108" /></clipPath><clipPath
       id="clipPath114"><path
         d="m 387.77,466.03 89.184,0 0,18.36 -89.184,0 0,-18.36 z"
         inkscape:connector-curvature="0"
         id="path116" /></clipPath><clipPath
       id="clipPath126"><path
         d="m 387.77,466.03 89.184,0 0,18.36 -89.184,0 0,-18.36 z"
         inkscape:connector-curvature="0"
         id="path128" /></clipPath><clipPath
       id="clipPath136"><path
         d="m 447.05,524.95 104.79,0 0,18.36 -104.79,0 0,-18.36 z"
         inkscape:connector-curvature="0"
         id="path138" /></clipPath><clipPath
       id="clipPath144"><path
         d="m 447.05,524.95 104.78,0 0,18.36 -104.78,0 0,-18.36 z"
         inkscape:connector-curvature="0"
         id="path146" /></clipPath><clipPath
       id="clipPath156"><path
         d="m 447.05,524.95 104.78,0 0,18.36 -104.78,0 0,-18.36 z"
         inkscape:connector-curvature="0"
         id="path158" /></clipPath><clipPath
       id="clipPath166"><path
         d="m 176.55,222.04 96.72,0 0,33.48 -96.72,0 0,-33.48 z"
         inkscape:connector-curvature="0"
         id="path168" /></clipPath><clipPath
       id="clipPath174"><path
         d="m 176.54,222.05 96.72,0 0,33.48 -96.72,0 0,-33.48 z"
         inkscape:connector-curvature="0"
         id="path176" /></clipPath><clipPath
       id="clipPath186"><path
         d="m 176.54,222.05 96.72,0 0,33.48 -96.72,0 0,-33.48 z"
         inkscape:connector-curvature="0"
         id="path188" /></clipPath><clipPath
       id="clipPath214"><path
         d="m 295.37,524.95 125.28,0 0,18.36 -125.28,0 0,-18.36 z"
         inkscape:connector-curvature="0"
         id="path216" /></clipPath><clipPath
       id="clipPath222"><path
         d="m 295.37,524.95 125.28,0 0,18.36 -125.28,0 0,-18.36 z"
         inkscape:connector-curvature="0"
         id="path224" /></clipPath><clipPath
       id="clipPath234"><path
         d="m 295.37,524.95 125.28,0 0,18.36 -125.28,0 0,-18.36 z"
         inkscape:connector-curvature="0"
         id="path236" /></clipPath><clipPath
       id="clipPath248"><path
         d="m 511.52,468.31 98.76,0 0,18.36 -98.76,0 0,-18.36 z"
         inkscape:connector-curvature="0"
         id="path250" /></clipPath><clipPath
       id="clipPath256"><path
         d="m 511.51,468.31 98.76,0 0,18.36 -98.76,0 0,-18.36 z"
         inkscape:connector-curvature="0"
         id="path258" /></clipPath><clipPath
       id="clipPath268"><path
         d="m 511.51,468.31 98.76,0 0,18.36 -98.76,0 0,-18.36 z"
         inkscape:connector-curvature="0"
         id="path270" /></clipPath><clipPath
       id="clipPath280"><path
         d="m 146.19,404.2 105,0 0,33.6 -105,0 0,-33.6 z"
         inkscape:connector-curvature="0"
         id="path282" /></clipPath><clipPath
       id="clipPath288"><path
         d="m 146.18,404.21 105,0 0,33.6 -105,0 0,-33.6 z"
         inkscape:connector-curvature="0"
         id="path290" /></clipPath><clipPath
       id="clipPath300"><path
         d="m 146.18,404.21 105,0 0,33.6 -105,0 0,-33.6 z"
         inkscape:connector-curvature="0"
         id="path302" /></clipPath><clipPath
       id="clipPath310"><path
         d="m 147.75,356.92 104.88,0 0,33.6 -104.88,0 0,-33.6 z"
         inkscape:connector-curvature="0"
         id="path312" /></clipPath><clipPath
       id="clipPath318"><path
         d="m 147.74,356.93 104.88,0 0,33.6 -104.88,0 0,-33.6 z"
         inkscape:connector-curvature="0"
         id="path320" /></clipPath><clipPath
       id="clipPath330"><path
         d="m 147.74,356.93 104.88,0 0,33.6 -104.88,0 0,-33.6 z"
         inkscape:connector-curvature="0"
         id="path332" /></clipPath><clipPath
       id="clipPath340"><path
         d="m 148.23,315.88 103.44,0 0,33.48 -103.44,0 0,-33.48 z"
         inkscape:connector-curvature="0"
         id="path342" /></clipPath><clipPath
       id="clipPath348"><path
         d="m 148.22,315.89 103.44,0 0,33.48 -103.44,0 0,-33.48 z"
         inkscape:connector-curvature="0"
         id="path350" /></clipPath><clipPath
       id="clipPath360"><path
         d="m 148.22,315.89 103.44,0 0,33.48 -103.44,0 0,-33.48 z"
         inkscape:connector-curvature="0"
         id="path362" /></clipPath><clipPath
       id="clipPath372"><path
         d="m 148.22,315.89 103.44,0 0,33.48 -103.44,0 0,-33.48 z"
         inkscape:connector-curvature="0"
         id="path374" /></clipPath><clipPath
       id="clipPath382"><path
         d="m 164.19,274.72 115.44,0 0,33.48 -115.44,0 0,-33.48 z"
         inkscape:connector-curvature="0"
         id="path384" /></clipPath><clipPath
       id="clipPath390"><path
         d="m 164.18,274.73 115.44,0 0,33.48 -115.44,0 0,-33.48 z"
         inkscape:connector-curvature="0"
         id="path392" /></clipPath><clipPath
       id="clipPath402"><path
         d="m 164.18,274.73 115.44,0 0,33.48 -115.44,0 0,-33.48 z"
         inkscape:connector-curvature="0"
         id="path404" /></clipPath><clipPath
       id="clipPath412"><path
         d="m 284.81,170.91 96.72,0 0,33.6 -96.72,0 0,-33.6 z"
         inkscape:connector-curvature="0"
         id="path414" /></clipPath><clipPath
       id="clipPath420"><path
         d="m 284.81,170.9 96.72,0 0,33.6 -96.72,0 0,-33.6 z"
         inkscape:connector-curvature="0"
         id="path422" /></clipPath><clipPath
       id="clipPath432"><path
         d="m 284.81,170.9 96.72,0 0,33.6 -96.72,0 0,-33.6 z"
         inkscape:connector-curvature="0"
         id="path434" /></clipPath><clipPath
       id="clipPath442"><path
         d="m 373.25,123.87 96.75,0 0,33.48 -96.75,0 0,-33.48 z"
         inkscape:connector-curvature="0"
         id="path444" /></clipPath><clipPath
       id="clipPath450"><path
         d="m 373.25,123.86 96.744,0 0,33.48 -96.744,0 0,-33.48 z"
         inkscape:connector-curvature="0"
         id="path452" /></clipPath><clipPath
       id="clipPath462"><path
         d="m 373.25,123.86 96.744,0 0,33.48 -96.744,0 0,-33.48 z"
         inkscape:connector-curvature="0"
         id="path464" /></clipPath><clipPath
       id="clipPath514"><path
         d="m 284.09,217.48 96.72,0 0,33.6 -96.72,0 0,-33.6 z"
         inkscape:connector-curvature="0"
         id="path516" /></clipPath><clipPath
       id="clipPath522"><path
         d="m 284.09,217.49 96.72,0 0,33.6 -96.72,0 0,-33.6 z"
         inkscape:connector-curvature="0"
         id="path524" /></clipPath><clipPath
       id="clipPath534"><path
         d="m 284.09,217.49 96.72,0 0,33.6 -96.72,0 0,-33.6 z"
         inkscape:connector-curvature="0"
         id="path536" /></clipPath><clipPath
       id="clipPath542"><path
         d="m 284.81,140.91 96.72,0 0,23.88 -96.72,0 0,-23.88 z"
         inkscape:connector-curvature="0"
         id="path544" /></clipPath><clipPath
       id="clipPath550"><path
         d="m 284.81,140.9 96.72,0 0,23.88 -96.72,0 0,-23.88 z"
         inkscape:connector-curvature="0"
         id="path552" /></clipPath><clipPath
       id="clipPath562"><path
         d="m 284.81,140.9 96.72,0 0,23.88 -96.72,0 0,-23.88 z"
         inkscape:connector-curvature="0"
         id="path564" /></clipPath></defs><g
     transform="matrix(1.25,0,0,-1.25,-127.03125,700.09375)"
     id="g10"><g
       id="g12"><path
         d="m 133.8,508.5 -0.05,-438"
         inkscape:connector-curvature="0"
         id="path14"
         style="fill:none;stroke:#000000;stroke-width:0.75;stroke-linecap:round;stroke-linejoin:round;stroke-miterlimit:10;stroke-opacity:1;stroke-dasharray:5.25, 3;stroke-dashoffset:0" /></g><g
       id="g16"><g
         clip-path="url(#clipPath20)"
         id="g18"><g
           id="g24"><g
             clip-path="url(#clipPath28)"
             id="g26"><text
   transform="matrix(1,0,0,-1,108.38,528.55)"
   id="text32"><tspan
     x="0 4.4368801 15.96 19.551001 23.142 32.015759 40.889519"
     y="0"
     id="tspan34"
     style="font-size:15.96000004px;font-variant:normal;font-weight:normal;writing-mode:lr-tb;fill:#000000;fill-opacity:1;fill-rule:nonzero;stroke:none;font-family:Helvetica;-inkscape-font-specification:Helvetica">:Client</tspan></text>

</g></g><g
           id="g36"><g
             clip-path="url(#clipPath40)"
             id="g38" /></g></g></g><path
       d="m 205.45,450.75 129.2,0 0,51.15 -129.2,0 0,-51.15 z"
       inkscape:connector-curvature="0"
       id="path44"
       style="fill:none;stroke:#000000;stroke-width:0.75;stroke-linecap:round;stroke-linejoin:miter;stroke-miterlimit:10;stroke-opacity:1;stroke-dasharray:none" /><g
       id="g46"><g
         clip-path="url(#clipPath50)"
         id="g48"><g
           id="g54"><g
             clip-path="url(#clipPath58)"
             id="g56"><text
   transform="matrix(1,0,0,-1,215.3,469.63)"
   id="text62"><tspan
     x="0 8.04"
     y="0"
     id="tspan64"
     style="font-size:15.96000004px;font-variant:normal;font-weight:normal;writing-mode:lr-tb;fill:#000000;fill-opacity:1;fill-rule:nonzero;stroke:none;font-family:Helvetica;-inkscape-font-specification:Helvetica">k1</tspan></text>

</g></g><g
           id="g66"><g
             clip-path="url(#clipPath70)"
             id="g68"><text
   transform="matrix(1,0,0,-1,232.22,469.63)"
   id="text74"><tspan
     x="0"
     y="0"
     id="tspan76"
     style="font-size:15.96000004px;font-variant:normal;font-weight:normal;writing-mode:lr-tb;fill:#000000;fill-opacity:1;fill-rule:nonzero;stroke:none;font-family:Helvetica;-inkscape-font-specification:Helvetica">:</tspan></text>

</g></g><g
           id="g78"><g
             clip-path="url(#clipPath82)"
             id="g80"><text
   transform="matrix(1,0,0,-1,236.66,469.63)"
   id="text86"><tspan
     x="0 10.64532 19.519079 32.861641 41.735401 50.609161 58.653 62.243999 66.680878 75.554642"
     y="0"
     id="tspan88"
     style="font-size:15.96000004px;font-variant:normal;font-weight:normal;writing-mode:lr-tb;fill:#000000;fill-opacity:1;fill-rule:nonzero;stroke:none;font-family:Helvetica;-inkscape-font-specification:Helvetica">Kompositum</tspan></text>

</g></g><g
           id="g90"><g
             clip-path="url(#clipPath94)"
             id="g92" /></g><path
           d="m 215.3,466.75 110.3,0 0,1.2 -110.3,0 0,-1.2 z"
           inkscape:connector-curvature="0"
           id="path98"
           style="fill:#000000;fill-opacity:1;fill-rule:evenodd;stroke:none" /></g></g><path
       d="m 387.7,450.75 89.25,0 0,51.2 -89.25,0 0,-51.2 z"
       inkscape:connector-curvature="0"
       id="path100"
       style="fill:none;stroke:#000000;stroke-width:0.75;stroke-linecap:round;stroke-linejoin:miter;stroke-miterlimit:10;stroke-opacity:1;stroke-dasharray:none" /><g
       id="g102"><g
         clip-path="url(#clipPath106)"
         id="g104"><g
           id="g110"><g
             clip-path="url(#clipPath114)"
             id="g112"><text
   transform="matrix(1,0,0,-1,405.29,469.63)"
   id="text118"><tspan
     x="0 8.8737602 17.74752 22.184401 32.861641 36.452641 45.326401 49.763279"
     y="0"
     id="tspan120"
     style="font-size:15.96000004px;font-variant:normal;font-weight:normal;writing-mode:lr-tb;fill:#000000;fill-opacity:1;fill-rule:nonzero;stroke:none;font-family:Helvetica;-inkscape-font-specification:Helvetica">b1:Blatt</tspan></text>

</g></g><g
           id="g122"><g
             clip-path="url(#clipPath126)"
             id="g124" /></g><path
           d="m 405.29,466.75 54.24,0 0,1.2 -54.24,0 0,-1.2 z"
           inkscape:connector-curvature="0"
           id="path130"
           style="fill:#000000;fill-opacity:1;fill-rule:evenodd;stroke:none" /></g></g><g
       id="g132"><g
         clip-path="url(#clipPath136)"
         id="g134"><g
           id="g140"><g
             clip-path="url(#clipPath144)"
             id="g142"><text
   transform="matrix(1,0,0,-1,472.39,528.55)"
   id="text148"><tspan
     x="0 8.8737602 17.74752 22.184401 32.861641 36.452641 45.326401 49.763279"
     y="0"
     id="tspan150"
     style="font-size:15.96000004px;font-variant:normal;font-weight:normal;writing-mode:lr-tb;fill:#000000;fill-opacity:1;fill-rule:nonzero;stroke:none;font-family:Helvetica;-inkscape-font-specification:Helvetica">b2:Blatt</tspan></text>

</g></g><g
           id="g152"><g
             clip-path="url(#clipPath156)"
             id="g154" /></g><path
           d="m 472.39,525.67 54.24,0 0,1.2 -54.24,0 0,-1.2 z"
           inkscape:connector-curvature="0"
           id="path160"
           style="fill:#000000;fill-opacity:1;fill-rule:evenodd;stroke:none" /></g></g><g
       id="g162"><g
         clip-path="url(#clipPath166)"
         id="g164"><g
           id="g170"><g
             clip-path="url(#clipPath174)"
             id="g172"><text
   transform="matrix(1,0,0,-1,176.54,242.45)"
   id="text178"><tspan
     x="0 7.8062401 15.61248 23.41872 28.09404 35.90028 39.803398 42.92028 50.726521 58.434479 63.109798"
     y="0"
     id="tspan180"
     style="font-size:14.03999996px;font-variant:normal;font-weight:normal;writing-mode:lr-tb;fill:#000000;fill-opacity:1;fill-rule:nonzero;stroke:none;font-family:Helvetica;-inkscape-font-specification:Helvetica">operation()</tspan></text>

</g></g><g
           id="g182"><g
             clip-path="url(#clipPath186)"
             id="g184" /></g></g></g><path
       d="m 145.1,293.2 193.1,-0.05 c 0.28,0 0.5,-0.22 0.5,-0.5 0,-0.27 -0.22,-0.5 -0.5,-0.5 l -193.1,0.05 c -0.28,0 -0.5,0.22 -0.5,0.5 0,0.28 0.22,0.5 0.5,0.5 z m 192.1,4.45 10,-5 -10,-5 0,10 z"
       inkscape:connector-curvature="0"
       id="path190"
       style="fill:#000000;fill-opacity:1;fill-rule:nonzero;stroke:none" /><path
       d="m 281.95,236.7 131.25,-0.05 c 0.28,0 0.5,-0.22 0.5,-0.5 0,-0.27 -0.22,-0.5 -0.5,-0.5 l -131.25,0.05 c -0.28,0 -0.5,0.22 -0.5,0.5 0,0.28 0.22,0.5 0.5,0.5 z m 130.25,4.45 10,-5 -10,-5 0,10 z"
       inkscape:connector-curvature="0"
       id="path192"
       style="fill:#000000;fill-opacity:1;fill-rule:nonzero;stroke:none" /><path
       d="m 282.55,189.6 193.4,-0.05 c 0.28,0 0.5,-0.22 0.5,-0.5 0,-0.27 -0.22,-0.5 -0.5,-0.5 l -193.4,0.05 c -0.28,0 -0.5,0.22 -0.5,0.5 0,0.28 0.22,0.5 0.5,0.5 z m 192.4,4.45 10,-5 -10,-5 0,10 z"
       inkscape:connector-curvature="0"
       id="path194"
       style="fill:#000000;fill-opacity:1;fill-rule:nonzero;stroke:none" /><path
       d="m 453.75,508.5 90.25,0 0,51.2 -90.25,0 0,-51.2 z"
       inkscape:connector-curvature="0"
       id="path196"
       style="fill:none;stroke:#000000;stroke-width:0.75;stroke-linecap:round;stroke-linejoin:miter;stroke-miterlimit:10;stroke-opacity:1;stroke-dasharray:none" /><path
       d="m 517.4,450.7 89.25,0 0,51.2 -89.25,0 0,-51.2 z"
       inkscape:connector-curvature="0"
       id="path198"
       style="fill:none;stroke:#000000;stroke-width:0.75;stroke-linecap:round;stroke-linejoin:miter;stroke-miterlimit:10;stroke-opacity:1;stroke-dasharray:none" /><path
       d="m 294.5,508.55 129.2,0 0,51.15 -129.2,0 0,-51.15 z"
       inkscape:connector-curvature="0"
       id="path200"
       style="fill:none;stroke:#000000;stroke-width:0.75;stroke-linecap:round;stroke-linejoin:miter;stroke-miterlimit:10;stroke-opacity:1;stroke-dasharray:none" /><g
       id="g202"><path
         d="M 498.85,507.7 498.8,70.5"
         inkscape:connector-curvature="0"
         id="path204"
         style="fill:none;stroke:#000000;stroke-width:0.75;stroke-linecap:round;stroke-linejoin:round;stroke-miterlimit:10;stroke-opacity:1;stroke-dasharray:5.25, 3;stroke-dashoffset:0" /></g><g
       id="g206"><path
         d="M 561.8,450.7 561.75,70.5"
         inkscape:connector-curvature="0"
         id="path208"
         style="fill:none;stroke:#000000;stroke-width:0.75;stroke-linecap:round;stroke-linejoin:round;stroke-miterlimit:10;stroke-opacity:1;stroke-dasharray:5.25, 3;stroke-dashoffset:0" /></g><g
       id="g210"><g
         clip-path="url(#clipPath214)"
         id="g212"><g
           id="g218"><g
             clip-path="url(#clipPath222)"
             id="g220"><text
   transform="matrix(1,0,0,-1,302.93,528.55)"
   id="text226"><tspan
     x="0 8.0278797 16.90164 21.33852 31.983841 40.889519 54.1842 63.057961 71.931717 79.991524 83.58252 88.019402 96.893158"
     y="0"
     id="tspan228"
     style="font-size:15.96000004px;font-variant:normal;font-weight:normal;writing-mode:lr-tb;fill:#000000;fill-opacity:1;fill-rule:nonzero;stroke:none;font-family:Helvetica;-inkscape-font-specification:Helvetica">k2:Kompositum</tspan></text>

</g></g><g
           id="g230"><g
             clip-path="url(#clipPath234)"
             id="g232" /></g><path
           d="m 302.93,525.67 110.28,0 0,1.2 -110.28,0 0,-1.2 z"
           inkscape:connector-curvature="0"
           id="path238"
           style="fill:#000000;fill-opacity:1;fill-rule:evenodd;stroke:none" /></g></g><g
       id="g240"><path
         d="M 359.4,508.55 359.35,70.5"
         inkscape:connector-curvature="0"
         id="path242"
         style="fill:none;stroke:#000000;stroke-width:0.75;stroke-linecap:round;stroke-linejoin:round;stroke-miterlimit:10;stroke-opacity:1;stroke-dasharray:5.25, 3;stroke-dashoffset:0" /></g><g
       id="g244"><g
         clip-path="url(#clipPath248)"
         id="g246"><g
           id="g252"><g
             clip-path="url(#clipPath256)"
             id="g254"><text
   transform="matrix(1,0,0,-1,533.71,471.91)"
   id="text260"><tspan
     x="0 8.8737602 17.74752 22.184401 32.861641 36.452641 45.326401 49.763279"
     y="0"
     id="tspan262"
     style="font-size:15.96000004px;font-variant:normal;font-weight:normal;writing-mode:lr-tb;fill:#000000;fill-opacity:1;fill-rule:nonzero;stroke:none;font-family:Helvetica;-inkscape-font-specification:Helvetica">b3:Blatt</tspan></text>

</g></g><g
           id="g264"><g
             clip-path="url(#clipPath268)"
             id="g266" /></g><path
           d="m 533.71,469.03 54.24,0 0,1.2 -54.24,0 0,-1.2 z"
           inkscape:connector-curvature="0"
           id="path272"
           style="fill:#000000;fill-opacity:1;fill-rule:evenodd;stroke:none" /></g></g><path
       d="m 145.05,421.25 103.25,0.64 c 0.27,0.01 0.5,-0.22 0.5,-0.49 0,-0.28 -0.22,-0.5 -0.5,-0.51 l -103.25,-0.64 c -0.27,0 -0.5,0.22 -0.5,0.5 0,0.27 0.22,0.5 0.5,0.5 z m 102.22,5.14 10.03,-4.94 -9.97,-5.06 -0.06,10 z"
       inkscape:connector-curvature="0"
       id="path274"
       style="fill:#000000;fill-opacity:1;fill-rule:nonzero;stroke:none" /><g
       id="g276"><g
         clip-path="url(#clipPath280)"
         id="g278"><g
           id="g284"><g
             clip-path="url(#clipPath288)"
             id="g286"><text
   transform="matrix(1,0,0,-1,146.18,424.85)"
   id="text292"><tspan
     x="0 7.8062401 10.92312 18.729361 25.791479 33.471359 37.416599 45.222839 53.029079 60.83532 68.641563 76.4478 81.123123 88.774918 96.581161"
     y="0"
     id="tspan294"
     style="font-size:14.03999996px;font-variant:normal;font-weight:normal;writing-mode:lr-tb;fill:#000000;fill-opacity:1;fill-rule:nonzero;stroke:none;font-family:Helvetica;-inkscape-font-specification:Helvetica">hinzufuegen(b1)</tspan></text>

</g></g><g
           id="g296"><g
             clip-path="url(#clipPath300)"
             id="g298" /></g></g></g><path
       d="m 144.65,375.3 103.65,-0.46 c 0.28,0 0.5,-0.23 0.5,-0.5 0,-0.28 -0.23,-0.5 -0.5,-0.5 l -103.65,0.46 c -0.28,0 -0.5,0.23 -0.5,0.5 0,0.28 0.23,0.5 0.5,0.5 z m 102.67,4.04 9.98,-5.04 -10.02,-4.96 0.04,10 z"
       inkscape:connector-curvature="0"
       id="path304"
       style="fill:#000000;fill-opacity:1;fill-rule:nonzero;stroke:none" /><g
       id="g306"><g
         clip-path="url(#clipPath310)"
         id="g308"><g
           id="g314"><g
             clip-path="url(#clipPath318)"
             id="g316"><text
   transform="matrix(1,0,0,-1,147.74,377.57)"
   id="text322"><tspan
     x="0 7.8062401 10.92312 18.729361 25.791479 33.471359 37.416599 45.222839 53.029079 60.83532 68.641563 76.4478 81.123123 88.774918 96.581161"
     y="0"
     id="tspan324"
     style="font-size:14.03999996px;font-variant:normal;font-weight:normal;writing-mode:lr-tb;fill:#000000;fill-opacity:1;fill-rule:nonzero;stroke:none;font-family:Helvetica;-inkscape-font-specification:Helvetica">hinzufuegen(b2)</tspan></text>

</g></g><g
           id="g326"><g
             clip-path="url(#clipPath330)"
             id="g328" /></g></g></g><path
       d="m 143.95,239 104.35,-0.05 c 0.28,0 0.5,-0.22 0.5,-0.5 0,-0.27 -0.22,-0.5 -0.5,-0.5 L 143.95,238 c -0.28,0 -0.5,0.22 -0.5,0.5 0,0.28 0.22,0.5 0.5,0.5 z m 103.35,4.45 10,-5 -10,-5 0,10 z"
       inkscape:connector-curvature="0"
       id="path334"
       style="fill:#000000;fill-opacity:1;fill-rule:nonzero;stroke:none" /><g
       id="g336"><g
         clip-path="url(#clipPath340)"
         id="g338"><g
           id="g344"><g
             clip-path="url(#clipPath348)"
             id="g346"><text
   transform="matrix(1,0,0,-1,148.22,336.29)"
   id="text352"><tspan
     x="0 7.8062401 10.92312 18.729361 25.791479 33.471359 37.416599 45.222839 53.029079 60.83532 68.641563 76.4478 80.982719 88.044838"
     y="0"
     id="tspan354"
     style="font-size:14.03999996px;font-variant:normal;font-weight:normal;writing-mode:lr-tb;fill:#000000;fill-opacity:1;fill-rule:nonzero;stroke:none;font-family:Helvetica;-inkscape-font-specification:Helvetica">hinzufuegen(k2</tspan></text>

</g></g><g
           id="g356"><g
             clip-path="url(#clipPath360)"
             id="g358"><text
   transform="matrix(1,0,0,-1,244.1,336.29)"
   id="text364"><tspan
     x="0"
     y="0"
     id="tspan366"
     style="font-size:14.03999996px;font-variant:normal;font-weight:normal;writing-mode:lr-tb;fill:#000000;fill-opacity:1;fill-rule:nonzero;stroke:none;font-family:Helvetica;-inkscape-font-specification:Helvetica">)</tspan></text>

</g></g><g
           id="g368"><g
             clip-path="url(#clipPath372)"
             id="g370" /></g></g></g><path
       d="m 143.65,333.65 104.65,-0.74 c 0.28,0 0.5,-0.22 0.5,-0.5 0,-0.28 -0.23,-0.5 -0.5,-0.5 l -104.65,0.74 c -0.28,0 -0.5,0.23 -0.5,0.5 0,0.28 0.23,0.5 0.5,0.5 z m 103.69,3.77 9.96,-5.07 -10.03,-4.93 0.07,10 z"
       inkscape:connector-curvature="0"
       id="path376"
       style="fill:#000000;fill-opacity:1;fill-rule:nonzero;stroke:none" /><g
       id="g378"><g
         clip-path="url(#clipPath382)"
         id="g380"><g
           id="g386"><g
             clip-path="url(#clipPath390)"
             id="g388"><text
   transform="matrix(1,0,0,-1,164.18,295.13)"
   id="text394"><tspan
     x="0 7.8062401 10.92312 18.729361 25.791479 33.471359 37.416599 45.222839 53.029079 60.83532 68.641563 76.4478 81.123123 88.774918 96.581161"
     y="0"
     id="tspan396"
     style="font-size:14.03999996px;font-variant:normal;font-weight:normal;writing-mode:lr-tb;fill:#000000;fill-opacity:1;fill-rule:nonzero;stroke:none;font-family:Helvetica;-inkscape-font-specification:Helvetica">hinzufuegen(b3)</tspan></text>

</g></g><g
           id="g398"><g
             clip-path="url(#clipPath402)"
             id="g400" /></g></g></g><path
       d="m 280.65,147.6 57.75,-0.04 c 0.28,0 0.5,-0.23 0.5,-0.5 0,-0.28 -0.22,-0.5 -0.5,-0.5 l -57.75,0.04 c -0.28,0 -0.5,0.22 -0.5,0.5 0,0.28 0.22,0.5 0.5,0.5 z m 56.75,4.46 10,-5.01 -10,-4.99 0,10 z"
       inkscape:connector-curvature="0"
       id="path406"
       style="fill:#000000;fill-opacity:1;fill-rule:nonzero;stroke:none" /><g
       id="g408"><g
         clip-path="url(#clipPath412)"
         id="g410"><g
           id="g416"><g
             clip-path="url(#clipPath420)"
             id="g418"><text
   transform="matrix(1,0,0,-1,284.81,191.54)"
   id="text424"><tspan
     x="0 7.8062401 15.61248 23.41872 28.09404 35.90028 39.803398 42.92028 50.726521 58.434479 63.109798"
     y="0"
     id="tspan426"
     style="font-size:14.03999996px;font-variant:normal;font-weight:normal;writing-mode:lr-tb;fill:#000000;fill-opacity:1;fill-rule:nonzero;stroke:none;font-family:Helvetica;-inkscape-font-specification:Helvetica">operation()</tspan></text>

</g></g><g
           id="g428"><g
             clip-path="url(#clipPath432)"
             id="g430" /></g></g></g><path
       d="m 371.45,140.7 168.4,-0.05 c 0.28,0 0.5,-0.22 0.5,-0.5 0,-0.27 -0.22,-0.5 -0.5,-0.5 l -168.4,0.05 c -0.28,0 -0.5,0.22 -0.5,0.5 0,0.28 0.22,0.5 0.5,0.5 z m 167.4,4.45 10,-5 -10,-5 0,10 z"
       inkscape:connector-curvature="0"
       id="path436"
       style="fill:#000000;fill-opacity:1;fill-rule:nonzero;stroke:none" /><g
       id="g438"><g
         clip-path="url(#clipPath442)"
         id="g440"><g
           id="g446"><g
             clip-path="url(#clipPath450)"
             id="g448"><text
   transform="matrix(1,0,0,-1,373.25,144.26)"
   id="text454"><tspan
     x="0 7.8062401 15.61248 23.41872 28.09404 35.90028 39.803398 42.92028 50.726521 58.434479 63.109798"
     y="0"
     id="tspan456"
     style="font-size:14.03999996px;font-variant:normal;font-weight:normal;writing-mode:lr-tb;fill:#000000;fill-opacity:1;fill-rule:nonzero;stroke:none;font-family:Helvetica;-inkscape-font-specification:Helvetica">operation()</tspan></text>

</g></g><g
           id="g458"><g
             clip-path="url(#clipPath462)"
             id="g460" /></g></g></g><path
       d="m 548.85,115.05 -3,0 c -0.28,0 -0.5,0.22 -0.5,0.5 0,0.28 0.22,0.5 0.5,0.5 l 3,0 c 0.28,0 0.5,-0.22 0.5,-0.5 0,-0.28 -0.22,-0.5 -0.5,-0.5 z m -7,0 -3,0 c -0.28,0 -0.5,0.22 -0.5,0.5 0,0.27 0.22,0.5 0.5,0.5 l 3,0 c 0.28,0 0.5,-0.23 0.5,-0.5 0,-0.28 -0.22,-0.5 -0.5,-0.5 z m -7,0 -3,0 c -0.28,0 -0.5,0.22 -0.5,0.5 0,0.27 0.22,0.5 0.5,0.5 l 3,0 c 0.28,0 0.5,-0.23 0.5,-0.5 0,-0.28 -0.22,-0.5 -0.5,-0.5 z m -7,-0.01 -3,0 c -0.28,0 -0.5,0.23 -0.5,0.5 0,0.28 0.22,0.5 0.5,0.5 l 3,0 c 0.28,0 0.5,-0.22 0.5,-0.5 0,-0.27 -0.22,-0.5 -0.5,-0.5 z m -7,0 -3,0 c -0.28,0 -0.5,0.23 -0.5,0.5 0,0.28 0.22,0.5 0.5,0.5 l 3,0 c 0.28,0 0.5,-0.22 0.5,-0.5 0,-0.27 -0.22,-0.5 -0.5,-0.5 z m -7,0 -3,0 c -0.28,0 -0.5,0.22 -0.5,0.5 0,0.28 0.22,0.5 0.5,0.5 l 3,0 c 0.28,0 0.5,-0.22 0.5,-0.5 0,-0.28 -0.22,-0.5 -0.5,-0.5 z m -7,0 -3,0 c -0.28,0 -0.5,0.22 -0.5,0.5 0,0.27 0.22,0.5 0.5,0.5 l 3,0 c 0.28,0 0.5,-0.23 0.5,-0.5 0,-0.28 -0.22,-0.5 -0.5,-0.5 z m -7,0 -3,0 c -0.28,0 -0.5,0.22 -0.5,0.5 0,0.27 0.22,0.5 0.5,0.5 l 3,0 c 0.28,0 0.5,-0.23 0.5,-0.5 0,-0.28 -0.22,-0.5 -0.5,-0.5 z m -7,-0.01 -3,0 c -0.28,0 -0.5,0.23 -0.5,0.5 0,0.28 0.22,0.5 0.5,0.5 l 3,0 c 0.28,0 0.5,-0.22 0.5,-0.5 0,-0.27 -0.22,-0.5 -0.5,-0.5 z m -7,0 -3,0 c -0.28,0 -0.5,0.23 -0.5,0.5 0,0.28 0.22,0.5 0.5,0.5 l 3,0 c 0.28,0 0.5,-0.22 0.5,-0.5 0,-0.27 -0.22,-0.5 -0.5,-0.5 z m -7,0 -3,0 c -0.28,0 -0.5,0.22 -0.5,0.5 0,0.28 0.22,0.5 0.5,0.5 l 3,0 c 0.28,0 0.5,-0.22 0.5,-0.5 0,-0.28 -0.22,-0.5 -0.5,-0.5 z m -7,0 -3,0 c -0.28,0 -0.5,0.22 -0.5,0.5 0,0.27 0.22,0.5 0.5,0.5 l 3,0 c 0.28,0 0.5,-0.22 0.5,-0.5 0,-0.28 -0.22,-0.5 -0.5,-0.5 z m -7,0 -3,0 c -0.28,0 -0.5,0.22 -0.5,0.5 0,0.27 0.22,0.5 0.5,0.5 l 3,0 c 0.28,0 0.5,-0.23 0.5,-0.5 0,-0.28 -0.22,-0.5 -0.5,-0.5 z m -7,-0.01 -3,0 c -0.28,0 -0.5,0.23 -0.5,0.5 0,0.28 0.22,0.5 0.5,0.5 l 3,0 c 0.28,0.01 0.5,-0.22 0.5,-0.49 0,-0.28 -0.22,-0.5 -0.5,-0.51 z m -7,0 -3,0 c -0.28,0 -0.5,0.23 -0.5,0.5 0,0.28 0.22,0.5 0.5,0.5 l 3,0 c 0.28,0 0.5,-0.22 0.5,-0.5 0,-0.27 -0.22,-0.5 -0.5,-0.5 z m -7,0 -3,0 c -0.28,0 -0.5,0.22 -0.5,0.5 0,0.28 0.22,0.5 0.5,0.5 l 3,0 c 0.28,0 0.5,-0.22 0.5,-0.5 0,-0.27 -0.22,-0.5 -0.5,-0.5 z m -7,0 -3,0 c -0.28,0 -0.5,0.22 -0.5,0.5 0,0.27 0.22,0.5 0.5,0.5 l 3,0 c 0.28,0 0.5,-0.22 0.5,-0.5 0,-0.28 -0.22,-0.5 -0.5,-0.5 z m -7,0 -3,0 c -0.28,0 -0.5,0.22 -0.5,0.5 0,0.27 0.22,0.5 0.5,0.5 l 3,0 c 0.28,0 0.5,-0.23 0.5,-0.5 0,-0.28 -0.22,-0.5 -0.5,-0.5 z m -7,0 -3,-0.01 c -0.28,0 -0.5,0.23 -0.5,0.5 0,0.28 0.22,0.5 0.5,0.5 l 3,0.01 c 0.28,0 0.5,-0.23 0.5,-0.5 0,-0.28 -0.22,-0.5 -0.5,-0.5 z m -7,-0.01 -3,0 c -0.28,0 -0.5,0.23 -0.5,0.5 0,0.28 0.22,0.5 0.5,0.5 l 3,0 c 0.28,0 0.5,-0.22 0.5,-0.5 0,-0.27 -0.22,-0.5 -0.5,-0.5 z m -7,0 -3,0 c -0.28,0 -0.5,0.22 -0.5,0.5 0,0.28 0.22,0.5 0.5,0.5 l 3,0 c 0.28,0 0.5,-0.22 0.5,-0.5 0,-0.27 -0.22,-0.5 -0.5,-0.5 z m -7,0 -3,0 c -0.28,0 -0.5,0.22 -0.5,0.5 0,0.27 0.22,0.5 0.5,0.5 l 3,0 c 0.28,0 0.5,-0.22 0.5,-0.5 0,-0.28 -0.22,-0.5 -0.5,-0.5 z m -7,0 -3,0 c -0.28,0 -0.5,0.22 -0.5,0.5 0,0.27 0.22,0.5 0.5,0.5 l 3,0 c 0.28,0 0.5,-0.23 0.5,-0.5 0,-0.28 -0.22,-0.5 -0.5,-0.5 z m -7,-0.01 -3,0 c -0.28,0 -0.5,0.23 -0.5,0.5 0,0.28 0.22,0.5 0.5,0.5 l 3,0.01 c 0.28,0 0.5,-0.23 0.5,-0.5 0,-0.28 -0.22,-0.5 -0.5,-0.51 z m -7,0 -3,0 c -0.28,0 -0.5,0.23 -0.5,0.5 0,0.28 0.22,0.5 0.5,0.5 l 3,0 c 0.28,0 0.5,-0.22 0.5,-0.5 0,-0.27 -0.22,-0.5 -0.5,-0.5 z m -7,0 -0.4,0 c -0.28,0 -0.5,0.22 -0.5,0.5 0,0.28 0.22,0.5 0.5,0.5 l 0.4,0 c 0.28,0 0.5,-0.22 0.5,-0.5 0,-0.28 -0.22,-0.5 -0.5,-0.5 z m 8.36,-4.93 -9.79,5.43 9.79,5.44 c 0.24,0.13 0.54,0.05 0.68,-0.19 0.13,-0.24 0.04,-0.55 -0.2,-0.68 l -9,-5.01 0,0.88 9,-5 c 0.25,-0.13 0.33,-0.44 0.2,-0.68 -0.14,-0.24 -0.44,-0.33 -0.68,-0.19 z"
       inkscape:connector-curvature="0"
       id="path466"
       style="fill:#000000;fill-opacity:1;fill-rule:nonzero;stroke:none" /><path
       d="m 348.3,108.25 -3,0 c -0.28,0 -0.5,0.22 -0.5,0.5 0,0.27 0.22,0.5 0.5,0.5 l 3,0 c 0.28,0 0.5,-0.22 0.5,-0.5 0,-0.28 -0.22,-0.5 -0.5,-0.5 z m -7,-0.01 -3,0 c -0.28,0 -0.5,0.23 -0.5,0.5 0,0.28 0.22,0.5 0.5,0.5 l 3,0 c 0.28,0.01 0.5,-0.22 0.5,-0.49 0,-0.28 -0.22,-0.5 -0.5,-0.51 z m -7,0 -3,0 c -0.28,0 -0.5,0.22 -0.5,0.5 0,0.27 0.22,0.5 0.5,0.5 l 3,0 c 0.28,0 0.5,-0.22 0.5,-0.5 0,-0.28 -0.22,-0.5 -0.5,-0.5 z m -7,-0.01 -3,0 c -0.28,0 -0.5,0.23 -0.5,0.5 0,0.28 0.22,0.5 0.5,0.5 l 3,0 c 0.28,0 0.5,-0.22 0.5,-0.49 0,-0.28 -0.22,-0.5 -0.5,-0.51 z m -7,0 -3,0 c -0.28,0 -0.5,0.22 -0.5,0.5 0,0.27 0.22,0.5 0.5,0.5 l 3,0 c 0.28,0 0.5,-0.22 0.5,-0.5 0,-0.28 -0.22,-0.5 -0.5,-0.5 z m -7,-0.01 -3,0 c -0.28,0 -0.5,0.23 -0.5,0.5 0,0.28 0.22,0.5 0.5,0.5 l 3,0 c 0.28,0 0.5,-0.22 0.5,-0.5 0,-0.27 -0.22,-0.5 -0.5,-0.5 z m -7,0 -3,0 c -0.28,0 -0.5,0.22 -0.5,0.5 0,0.27 0.22,0.5 0.5,0.5 l 3,0 c 0.28,0 0.5,-0.22 0.5,-0.5 0,-0.28 -0.22,-0.5 -0.5,-0.5 z m -7,-0.01 -3,0 c -0.28,0 -0.5,0.23 -0.5,0.5 0,0.28 0.22,0.5 0.5,0.5 l 3,0 c 0.28,0 0.5,-0.22 0.5,-0.5 0,-0.27 -0.22,-0.5 -0.5,-0.5 z m -7,0 -3,0 c -0.28,0 -0.5,0.22 -0.5,0.5 0,0.27 0.22,0.5 0.5,0.5 l 3,0 c 0.28,0 0.5,-0.22 0.5,-0.5 0,-0.28 -0.22,-0.5 -0.5,-0.5 z m -7,-0.01 -2.85,0 c -0.28,0 -0.5,0.23 -0.5,0.5 0,0.28 0.22,0.5 0.5,0.5 l 2.85,0 c 0.28,0 0.5,-0.22 0.5,-0.5 0,-0.27 -0.22,-0.5 -0.5,-0.5 z m 5.91,-4.93 -9.79,5.43 9.78,5.45 c 0.24,0.13 0.55,0.04 0.68,-0.2 0.14,-0.24 0.05,-0.54 -0.19,-0.68 l -9,-5.01 0,0.88 9.01,-4.99 c 0.24,-0.14 0.32,-0.44 0.19,-0.68 -0.13,-0.25 -0.44,-0.33 -0.68,-0.2 z"
       inkscape:connector-curvature="0"
       id="path468"
       style="fill:#000000;fill-opacity:1;fill-rule:nonzero;stroke:none" /><path
       d="m 270.7,95.5 -3,0.007 c -0.28,10e-4 -0.5,0.225 -0.5,0.502 0,0.276 0.23,0.499 0.5,0.498 l 3,-0.007 c 0.28,-0.001 0.5,-0.225 0.5,-0.501 0,-0.276 -0.23,-0.5 -0.5,-0.499 z m -7,0.017 -3,0.007 c -0.28,0.001 -0.5,0.225 -0.5,0.501 0,0.277 0.23,0.5 0.5,0.499 l 3,-0.007 c 0.28,-10e-4 0.5,-0.225 0.5,-0.501 0,-0.276 -0.23,-0.5 -0.5,-0.499 z m -7,0.017 -3,0.007 c -0.28,0.001 -0.5,0.225 -0.5,0.501 0,0.276 0.23,0.5 0.5,0.499 l 3,-0.007 c 0.28,-0.001 0.5,-0.225 0.5,-0.502 0,-0.276 -0.23,-0.499 -0.5,-0.498 z m -7,0.016 -3,0.008 c -0.28,0 -0.5,0.225 -0.5,0.501 0,0.276 0.23,0.499 0.5,0.499 l 3,-0.008 c 0.28,0 0.5,-0.225 0.5,-0.501 0,-0.276 -0.23,-0.499 -0.5,-0.499 z m -7,0.017 -3,0.007 c -0.28,0.001 -0.5,0.225 -0.5,0.502 0,0.276 0.23,0.499 0.5,0.498 l 3,-0.007 c 0.28,0 0.5,-0.225 0.5,-0.501 0,-0.276 -0.23,-0.499 -0.5,-0.499 z m -7,0.017 -3,0.007 c -0.28,0.001 -0.5,0.225 -0.5,0.501 0,0.277 0.23,0.5 0.5,0.499 l 3,-0.007 c 0.28,-0.001 0.5,-0.225 0.5,-0.501 0,-0.276 -0.23,-0.5 -0.5,-0.499 z m -7,0.017 -3,0.007 c -0.28,10e-4 -0.5,0.225 -0.5,0.501 0,0.276 0.23,0.5 0.5,0.499 l 3,-0.007 c 0.28,-0.001 0.5,-0.225 0.5,-0.502 0,-0.276 -0.23,-0.499 -0.5,-0.498 z m -7,0.016 -3,0.008 c -0.28,0 -0.5,0.225 -0.5,0.501 0,0.276 0.23,0.499 0.5,0.499 l 3,-0.008 c 0.28,0 0.5,-0.225 0.5,-0.501 0,-0.276 -0.23,-0.499 -0.5,-0.499 z m -7,0.017 -3,0.007 c -0.28,10e-4 -0.5,0.225 -0.5,0.502 0,0.276 0.23,0.499 0.5,0.498 l 3,-0.007 c 0.28,0 0.5,-0.225 0.5,-0.501 0,-0.276 -0.23,-0.499 -0.5,-0.499 z m -7,0.017 -3,0.007 c -0.28,0.001 -0.5,0.225 -0.5,0.501 0,0.276 0.23,0.5 0.5,0.499 l 3,-0.007 c 0.28,-10e-4 0.5,-0.225 0.5,-0.501 0,-0.276 -0.23,-0.5 -0.5,-0.499 z m -7,0.017 -3,0.007 c -0.28,0 -0.5,0.225 -0.5,0.501 0,0.276 0.23,0.499 0.5,0.499 l 3,-0.007 c 0.28,-0.001 0.5,-0.225 0.5,-0.501 0,-0.277 -0.23,-0.5 -0.5,-0.499 z m -7,0.016 -3,0.008 c -0.28,0 -0.5,0.225 -0.5,0.501 0,0.276 0.23,0.499 0.5,0.499 l 3,-0.008 c 0.28,0 0.5,-0.225 0.5,-0.501 0,-0.276 -0.22,-0.499 -0.5,-0.499 z m -7,0.017 -3,0.007 c -0.28,0.001 -0.5,0.225 -0.5,0.501 0,0.277 0.23,0.5 0.5,0.499 l 3,-0.007 c 0.28,-10e-4 0.5,-0.225 0.5,-0.501 0,-0.276 -0.22,-0.5 -0.5,-0.499 z m -7,0.017 -3,0.007 c -0.28,0.001 -0.5,0.225 -0.5,0.501 0,0.276 0.23,0.5 0.5,0.499 l 3,-0.007 c 0.28,-0.001 0.5,-0.225 0.5,-0.501 0,-0.277 -0.22,-0.5 -0.5,-0.499 z m -7,0.017 -3,0.007 c -0.28,0 -0.5,0.225 -0.5,0.501 0,0.276 0.23,0.499 0.5,0.499 l 3,-0.007 c 0.28,-0.001 0.5,-0.226 0.5,-0.502 0,-0.276 -0.22,-0.499 -0.5,-0.498 z m -7,0.016 -3,0.007 c -0.28,0.001 -0.5,0.225 -0.5,0.502 0,0.276 0.23,0.499 0.5,0.498 l 3,-0.007 c 0.28,0 0.5,-0.225 0.5,-0.501 0,-0.276 -0.22,-0.499 -0.5,-0.499 z m -7,0.017 -3,0.007 c -0.28,10e-4 -0.5,0.225 -0.5,0.501 0,0.276 0.23,0.5 0.5,0.499 l 3,-0.007 c 0.28,-0.001 0.5,-0.225 0.5,-0.501 0,-0.276 -0.22,-0.5 -0.5,-0.499 z m -7,0.016 -3,0.008 c -0.28,0 -0.5,0.225 -0.5,0.501 0,0.276 0.23,0.499 0.5,0.499 l 3,-0.007 c 0.28,-10e-4 0.5,-0.226 0.5,-0.502 0,-0.276 -0.22,-0.499 -0.5,-0.499 z m 4.14,-4.946 -9.77,5.46 9.8,5.412 c 0.24,0.14 0.55,0.05 0.68,-0.19 0.13,-0.25 0.05,-0.55 -0.2,-0.68 l -9.01,-4.982 0,0.874 8.99,-5.021 c 0.24,-0.135 0.33,-0.44 0.19,-0.681 -0.13,-0.241 -0.43,-0.327 -0.68,-0.192 z"
       inkscape:connector-curvature="0"
       id="path470"
       style="fill:#000000;fill-opacity:1;fill-rule:nonzero;stroke:none" /><path
       d="m 422.2,213.1 -3,0 c -0.28,0 -0.5,0.22 -0.5,0.5 0,0.28 0.22,0.5 0.5,0.5 l 3,0 c 0.28,0 0.5,-0.22 0.5,-0.5 0,-0.28 -0.22,-0.5 -0.5,-0.5 z m -7,0 -3,0 c -0.28,0 -0.5,0.22 -0.5,0.5 0,0.27 0.22,0.5 0.5,0.5 l 3,0 c 0.28,0 0.5,-0.23 0.5,-0.5 0,-0.28 -0.22,-0.5 -0.5,-0.5 z m -7,0 -3,-0.01 c -0.28,0 -0.5,0.23 -0.5,0.5 0,0.28 0.22,0.5 0.5,0.5 l 3,0.01 c 0.28,0 0.5,-0.23 0.5,-0.5 0,-0.28 -0.22,-0.5 -0.5,-0.5 z m -7,-0.01 -3,0 c -0.28,0 -0.5,0.23 -0.5,0.5 0,0.28 0.22,0.5 0.5,0.5 l 3,0 c 0.28,0 0.5,-0.22 0.5,-0.5 0,-0.27 -0.22,-0.5 -0.5,-0.5 z m -7,0 -3,0 c -0.28,0 -0.5,0.22 -0.5,0.5 0,0.28 0.22,0.5 0.5,0.5 l 3,0 c 0.28,0 0.5,-0.22 0.5,-0.5 0,-0.28 -0.22,-0.5 -0.5,-0.5 z m -7,0 -3,0 c -0.28,0 -0.5,0.22 -0.5,0.5 0,0.27 0.22,0.5 0.5,0.5 l 3,0 c 0.28,0 0.5,-0.23 0.5,-0.5 0,-0.28 -0.22,-0.5 -0.5,-0.5 z m -7,0 -3,-0.01 c -0.28,0 -0.5,0.23 -0.5,0.5 0,0.28 0.22,0.5 0.5,0.5 l 3,0.01 c 0.28,0 0.5,-0.23 0.5,-0.5 0,-0.28 -0.22,-0.5 -0.5,-0.5 z m -7,-0.01 -3,0 c -0.28,0 -0.5,0.23 -0.5,0.5 0,0.28 0.22,0.5 0.5,0.5 l 3,0 c 0.28,0 0.5,-0.22 0.5,-0.5 0,-0.27 -0.22,-0.5 -0.5,-0.5 z m -7,0 -3,0 c -0.28,0 -0.5,0.22 -0.5,0.5 0,0.28 0.22,0.5 0.5,0.5 l 3,0 c 0.28,0 0.5,-0.22 0.5,-0.5 0,-0.28 -0.22,-0.5 -0.5,-0.5 z m -7,0 -3,0 c -0.28,0 -0.5,0.22 -0.5,0.5 0,0.27 0.22,0.5 0.5,0.5 l 3,0 c 0.28,0 0.5,-0.23 0.5,-0.5 0,-0.28 -0.22,-0.5 -0.5,-0.5 z m -7,0 -3,-0.01 c -0.28,0 -0.5,0.23 -0.5,0.5 0,0.28 0.22,0.5 0.5,0.5 l 3,0.01 c 0.28,0 0.5,-0.23 0.5,-0.5 0,-0.28 -0.22,-0.5 -0.5,-0.5 z m -7,-0.01 -3,0 c -0.28,0 -0.5,0.23 -0.5,0.5 0,0.28 0.22,0.5 0.5,0.5 l 3,0 c 0.28,0 0.5,-0.22 0.5,-0.5 0,-0.27 -0.22,-0.5 -0.5,-0.5 z m -7,0 -3,0 c -0.28,0 -0.5,0.22 -0.5,0.5 0,0.28 0.22,0.5 0.5,0.5 l 3,0 c 0.28,0 0.5,-0.22 0.5,-0.5 0,-0.28 -0.22,-0.5 -0.5,-0.5 z m -7,0 -3,0 c -0.28,0 -0.5,0.22 -0.5,0.5 0,0.27 0.22,0.5 0.5,0.5 l 3,0 c 0.28,0 0.5,-0.23 0.5,-0.5 0,-0.28 -0.22,-0.5 -0.5,-0.5 z m -7,0 -3,-0.01 c -0.28,0 -0.5,0.23 -0.5,0.5 0,0.28 0.22,0.5 0.5,0.5 l 3,0.01 c 0.28,0 0.5,-0.23 0.5,-0.5 0,-0.28 -0.22,-0.5 -0.5,-0.5 z m -7,-0.01 -3,0 c -0.28,0 -0.5,0.23 -0.5,0.5 0,0.28 0.22,0.5 0.5,0.5 l 3,0 c 0.28,0 0.5,-0.22 0.5,-0.5 0,-0.27 -0.22,-0.5 -0.5,-0.5 z m -7,0 -3,0 c -0.28,0 -0.5,0.22 -0.5,0.5 0,0.28 0.22,0.5 0.5,0.5 l 3,0 c 0.28,0 0.5,-0.22 0.5,-0.5 0,-0.28 -0.22,-0.5 -0.5,-0.5 z m -7,0 -3,0 c -0.28,0 -0.5,0.22 -0.5,0.5 0,0.27 0.22,0.5 0.5,0.5 l 3,0 c 0.28,0 0.5,-0.23 0.5,-0.5 0,-0.28 -0.22,-0.5 -0.5,-0.5 z m -7,0 -3,-0.01 c -0.28,0 -0.5,0.23 -0.5,0.5 0,0.28 0.22,0.5 0.5,0.5 l 3,0.01 c 0.28,0 0.5,-0.23 0.5,-0.5 0,-0.28 -0.22,-0.5 -0.5,-0.5 z m -7,-0.01 -3,0 c -0.28,0 -0.5,0.23 -0.5,0.5 0,0.28 0.22,0.5 0.5,0.5 l 3,0 c 0.28,0 0.5,-0.22 0.5,-0.5 0,-0.27 -0.22,-0.5 -0.5,-0.5 z m 2.36,-4.93 -9.79,5.43 9.79,5.44 c 0.24,0.14 0.54,0.05 0.68,-0.19 0.13,-0.24 0.04,-0.55 -0.2,-0.68 l -9,-5.01 0,0.88 9,-5 c 0.25,-0.13 0.33,-0.44 0.2,-0.68 -0.14,-0.24 -0.44,-0.33 -0.68,-0.19 z"
       inkscape:connector-curvature="0"
       id="path472"
       style="fill:#000000;fill-opacity:1;fill-rule:nonzero;stroke:none" /><path
       d="m 270,315.3 -3,0 c -0.28,0 -0.5,0.22 -0.5,0.5 0,0.27 0.22,0.5 0.5,0.5 l 3,0 c 0.28,0 0.5,-0.22 0.5,-0.5 0,-0.28 -0.22,-0.5 -0.5,-0.5 z m -7,0 -3,0 c -0.28,0 -0.5,0.22 -0.5,0.5 0,0.27 0.22,0.5 0.5,0.5 l 3,0 c 0.28,0 0.5,-0.23 0.5,-0.5 0,-0.28 -0.22,-0.5 -0.5,-0.5 z m -7,-0.01 -3,0 c -0.28,0 -0.5,0.23 -0.5,0.5 0,0.28 0.22,0.5 0.5,0.5 l 3,0 c 0.28,0 0.5,-0.22 0.5,-0.5 0,-0.27 -0.22,-0.5 -0.5,-0.5 z m -7,0 -3,0 c -0.28,0 -0.5,0.22 -0.5,0.5 0,0.28 0.22,0.5 0.5,0.5 l 3,0 c 0.28,0 0.5,-0.22 0.5,-0.5 0,-0.27 -0.22,-0.5 -0.5,-0.5 z m -7,0 -3,0 c -0.28,0 -0.5,0.22 -0.5,0.5 0,0.27 0.22,0.5 0.5,0.5 l 3,0 c 0.28,0 0.5,-0.22 0.5,-0.5 0,-0.28 -0.22,-0.5 -0.5,-0.5 z m -7,0 -3,0 c -0.28,-0.01 -0.5,0.22 -0.5,0.49 0,0.28 0.22,0.51 0.5,0.51 l 3,0 c 0.28,0 0.5,-0.23 0.5,-0.5 0,-0.28 -0.22,-0.5 -0.5,-0.5 z m -7,-0.01 -3,0 c -0.28,0 -0.5,0.23 -0.5,0.5 0,0.28 0.22,0.5 0.5,0.5 l 3,0 c 0.28,0 0.5,-0.22 0.5,-0.5 0,-0.27 -0.22,-0.5 -0.5,-0.5 z m -7,0 -3,0 c -0.28,0 -0.5,0.22 -0.5,0.5 0,0.28 0.22,0.5 0.5,0.5 l 3,0 c 0.28,0 0.5,-0.22 0.5,-0.5 0,-0.28 -0.22,-0.5 -0.5,-0.5 z m -7,0 -3,0 c -0.28,0 -0.5,0.22 -0.5,0.5 0,0.27 0.22,0.5 0.5,0.5 l 3,0 c 0.28,0 0.5,-0.23 0.5,-0.5 0,-0.28 -0.22,-0.5 -0.5,-0.5 z m -7,0 -3,-0.01 c -0.28,0 -0.5,0.23 -0.5,0.5 0,0.28 0.22,0.5 0.5,0.5 l 3,0.01 c 0.28,0 0.5,-0.23 0.5,-0.5 0,-0.28 -0.22,-0.5 -0.5,-0.5 z m -7,-0.01 -3,0 c -0.28,0 -0.5,0.23 -0.5,0.5 0,0.28 0.22,0.5 0.5,0.5 l 3,0 c 0.28,0 0.5,-0.22 0.5,-0.5 0,-0.27 -0.22,-0.5 -0.5,-0.5 z m -7,0 -3,0 c -0.28,0 -0.5,0.22 -0.5,0.5 0,0.27 0.22,0.5 0.5,0.5 l 3,0 c 0.28,0 0.5,-0.22 0.5,-0.5 0,-0.28 -0.22,-0.5 -0.5,-0.5 z m -7,0 -3,0 c -0.28,0 -0.5,0.22 -0.5,0.5 0,0.27 0.22,0.5 0.5,0.5 l 3,0 c 0.28,0 0.5,-0.23 0.5,-0.5 0,-0.28 -0.22,-0.5 -0.5,-0.5 z m -7,-0.01 -3,0 c -0.28,0 -0.5,0.23 -0.5,0.5 0,0.28 0.22,0.5 0.5,0.5 l 3,0 c 0.28,0 0.5,-0.22 0.5,-0.5 0,-0.27 -0.22,-0.5 -0.5,-0.5 z m -7,0 -3,0 c -0.28,0 -0.5,0.22 -0.5,0.5 0,0.28 0.22,0.5 0.5,0.5 l 3,0 c 0.28,0 0.5,-0.22 0.5,-0.5 0,-0.27 -0.22,-0.5 -0.5,-0.5 z m -7,0 -3,0 c -0.28,0 -0.5,0.22 -0.5,0.5 0,0.27 0.22,0.5 0.5,0.5 l 3,0 c 0.28,0 0.5,-0.23 0.5,-0.5 0,-0.28 -0.22,-0.5 -0.5,-0.5 z m -7,0 -3,-0.01 c -0.28,0 -0.5,0.23 -0.5,0.5 0,0.28 0.22,0.5 0.5,0.5 l 3,0.01 c 0.28,0 0.5,-0.23 0.5,-0.5 0,-0.28 -0.22,-0.5 -0.5,-0.5 z m -7,-0.01 -3,0 c -0.28,0 -0.5,0.22 -0.5,0.5 0,0.28 0.22,0.5 0.5,0.5 l 3,0 c 0.28,0 0.5,-0.22 0.5,-0.5 0,-0.27 -0.22,-0.5 -0.5,-0.5 z m 4.81,-4.93 -9.79,5.43 9.78,5.44 c 0.25,0.14 0.55,0.05 0.68,-0.19 0.14,-0.24 0.05,-0.55 -0.19,-0.68 l -9,-5.01 0,0.88 9,-5 c 0.25,-0.13 0.33,-0.44 0.2,-0.68 -0.13,-0.24 -0.44,-0.33 -0.68,-0.19 z"
       inkscape:connector-curvature="0"
       id="path474"
       style="fill:#000000;fill-opacity:1;fill-rule:nonzero;stroke:none" /><path
       d="m 347.2,271.9 -3,0.01 c -0.28,0.01 -0.5,0.23 -0.5,0.51 0,0.27 0.23,0.5 0.5,0.49 l 3,-0.01 c 0.28,0 0.5,-0.23 0.5,-0.5 0,-0.28 -0.23,-0.5 -0.5,-0.5 z m -7,0.03 -3,0.02 c -0.28,0 -0.5,0.23 -0.5,0.5 0,0.28 0.23,0.5 0.5,0.5 l 3,-0.02 c 0.28,0 0.5,-0.22 0.5,-0.5 0,-0.27 -0.23,-0.5 -0.5,-0.5 z m -7,0.04 -3,0.01 c -0.28,0.01 -0.5,0.23 -0.5,0.51 0,0.27 0.23,0.5 0.5,0.49 l 3,-0.01 c 0.28,0 0.5,-0.23 0.5,-0.5 0,-0.28 -0.23,-0.5 -0.5,-0.5 z m -7,0.03 -3,0.02 c -0.28,0 -0.5,0.22 -0.5,0.5 0,0.28 0.23,0.5 0.5,0.5 l 3,-0.02 c 0.28,0 0.5,-0.22 0.5,-0.5 0,-0.28 -0.23,-0.5 -0.5,-0.5 z m -7,0.04 -3,0.01 c -0.28,0 -0.5,0.23 -0.5,0.51 0,0.27 0.23,0.49 0.5,0.49 l 3,-0.01 c 0.28,0 0.5,-0.23 0.5,-0.5 0,-0.28 -0.23,-0.5 -0.5,-0.5 z m -7,0.03 -3,0.02 c -0.28,0 -0.5,0.22 -0.5,0.5 0,0.28 0.23,0.5 0.5,0.5 l 3,-0.02 c 0.28,0 0.5,-0.22 0.5,-0.5 0,-0.28 -0.23,-0.5 -0.5,-0.5 z m -7,0.04 -3,0.01 c -0.28,0 -0.5,0.23 -0.5,0.5 0,0.28 0.23,0.5 0.5,0.5 l 3,-0.01 c 0.28,0 0.5,-0.23 0.5,-0.51 0,-0.27 -0.23,-0.49 -0.5,-0.49 z m -7,0.03 -3,0.02 c -0.28,0 -0.5,0.22 -0.5,0.5 0,0.27 0.23,0.5 0.5,0.5 l 3,-0.02 c 0.28,0 0.5,-0.23 0.5,-0.5 0,-0.28 -0.23,-0.5 -0.5,-0.5 z m -7,0.04 -3,0.01 c -0.28,0 -0.5,0.23 -0.5,0.5 0,0.28 0.23,0.5 0.5,0.5 l 3,-0.01 c 0.28,-0.01 0.5,-0.23 0.5,-0.51 0,-0.27 -0.23,-0.5 -0.5,-0.49 z m -7,0.03 -3,0.01 c -0.28,0.01 -0.5,0.23 -0.5,0.51 0,0.27 0.23,0.5 0.5,0.49 l 3,-0.01 c 0.28,0 0.5,-0.23 0.5,-0.5 0,-0.28 -0.23,-0.5 -0.5,-0.5 z m -7,0.03 -3,0.02 c -0.28,0 -0.5,0.23 -0.5,0.5 0,0.28 0.23,0.5 0.5,0.5 l 3,-0.02 c 0.28,0 0.5,-0.22 0.5,-0.5 0,-0.27 -0.23,-0.5 -0.5,-0.5 z m -7,0.04 -3,0.01 c -0.28,0.01 -0.5,0.23 -0.5,0.51 0,0.27 0.23,0.5 0.5,0.49 l 3,-0.01 c 0.28,0 0.5,-0.23 0.5,-0.5 0,-0.28 -0.23,-0.5 -0.5,-0.5 z m -7,0.03 -3,0.02 c -0.28,0 -0.5,0.22 -0.5,0.5 0,0.28 0.23,0.5 0.5,0.5 l 3,-0.02 c 0.28,0 0.5,-0.22 0.5,-0.5 0,-0.28 -0.23,-0.5 -0.5,-0.5 z m -7,0.04 -3,0.01 c -0.28,0 -0.5,0.23 -0.5,0.5 0,0.28 0.23,0.5 0.5,0.5 l 3,-0.01 c 0.28,0 0.5,-0.23 0.5,-0.5 0,-0.28 -0.23,-0.5 -0.5,-0.5 z m -7,0.03 -3,0.02 c -0.28,0 -0.5,0.22 -0.5,0.5 0,0.28 0.23,0.5 0.5,0.5 l 3,-0.02 c 0.28,0 0.5,-0.22 0.5,-0.5 0,-0.28 -0.23,-0.5 -0.5,-0.5 z m -7,0.04 -3,0.01 c -0.28,0 -0.5,0.23 -0.5,0.5 0,0.28 0.23,0.5 0.5,0.5 l 3,-0.01 c 0.28,0 0.5,-0.23 0.5,-0.51 0,-0.27 -0.23,-0.49 -0.5,-0.49 z m -7,0.03 -3,0.02 c -0.28,0 -0.5,0.22 -0.5,0.5 0,0.27 0.23,0.5 0.5,0.5 l 3,-0.02 c 0.28,0 0.5,-0.23 0.5,-0.5 0,-0.28 -0.23,-0.5 -0.5,-0.5 z m -7,0.04 -3,0.01 c -0.28,0 -0.5,0.23 -0.5,0.5 0,0.28 0.23,0.5 0.5,0.5 l 3,-0.01 c 0.28,-0.01 0.5,-0.23 0.5,-0.51 0,-0.27 -0.23,-0.5 -0.5,-0.49 z m -7,0.03 -3,0.01 c -0.28,0.01 -0.5,0.23 -0.5,0.51 0,0.27 0.23,0.5 0.5,0.49 l 3,-0.01 c 0.28,0 0.5,-0.23 0.5,-0.5 0,-0.28 -0.23,-0.5 -0.5,-0.5 z m -7,0.03 -3,0.02 c -0.28,0 -0.5,0.23 -0.5,0.5 0,0.28 0.23,0.5 0.5,0.5 l 3,-0.02 c 0.28,0 0.5,-0.22 0.5,-0.5 0,-0.27 -0.23,-0.5 -0.5,-0.5 z m -7,0.04 -3,0.01 c -0.28,0 -0.5,0.23 -0.5,0.51 0,0.27 0.23,0.49 0.5,0.49 l 3,-0.01 c 0.28,0 0.5,-0.23 0.5,-0.5 0,-0.28 -0.22,-0.5 -0.5,-0.5 z m -7,0.03 -3,0.02 c -0.28,0 -0.5,0.22 -0.5,0.5 0,0.28 0.23,0.5 0.5,0.5 l 3,-0.02 c 0.28,0 0.5,-0.22 0.5,-0.5 0,-0.28 -0.22,-0.5 -0.5,-0.5 z m -7,0.04 -3,0.01 c -0.28,0 -0.5,0.23 -0.5,0.5 0,0.28 0.23,0.5 0.5,0.5 l 3,-0.01 c 0.28,0 0.5,-0.23 0.5,-0.51 0,-0.27 -0.22,-0.49 -0.5,-0.49 z m -7,0.03 -3,0.02 c -0.28,0 -0.5,0.22 -0.5,0.5 0,0.27 0.23,0.5 0.5,0.5 l 3,-0.02 c 0.28,0 0.5,-0.22 0.5,-0.5 0,-0.28 -0.22,-0.5 -0.5,-0.5 z m -7,0.04 -3,0.01 c -0.28,0 -0.5,0.23 -0.5,0.5 0,0.28 0.23,0.5 0.5,0.5 l 3,-0.01 c 0.28,-0.01 0.5,-0.23 0.5,-0.51 0,-0.27 -0.22,-0.5 -0.5,-0.49 z m -7,0.03 -3,0.01 c -0.28,0.01 -0.5,0.23 -0.5,0.51 0,0.27 0.23,0.5 0.5,0.49 l 3,-0.01 c 0.28,0 0.5,-0.23 0.5,-0.5 0,-0.28 -0.22,-0.5 -0.5,-0.5 z m -7,0.03 -3,0.02 c -0.28,0 -0.5,0.23 -0.5,0.5 0,0.28 0.23,0.5 0.5,0.5 l 3,-0.02 c 0.28,0 0.5,-0.22 0.5,-0.5 0,-0.27 -0.22,-0.5 -0.5,-0.5 z m -7,0.04 -3,0.01 c -0.28,0 -0.5,0.23 -0.5,0.51 0,0.27 0.23,0.49 0.5,0.49 l 3,-0.01 c 0.28,0 0.5,-0.23 0.5,-0.5 0,-0.28 -0.22,-0.5 -0.5,-0.5 z m -7,0.03 -3,0.02 c -0.28,0 -0.5,0.22 -0.5,0.5 0,0.28 0.23,0.5 0.5,0.5 l 3,-0.02 c 0.28,0 0.5,-0.22 0.5,-0.5 0,-0.28 -0.22,-0.5 -0.5,-0.5 z m 3.13,-4.95 -9.76,5.49 9.81,5.38 c 0.25,0.14 0.55,0.05 0.68,-0.19 0.14,-0.25 0.05,-0.55 -0.2,-0.68 l -9.02,-4.96 0,0.88 8.98,-5.05 c 0.24,-0.13 0.33,-0.44 0.19,-0.68 -0.13,-0.24 -0.44,-0.32 -0.68,-0.19 z"
       inkscape:connector-curvature="0"
       id="path476"
       style="fill:#000000;fill-opacity:1;fill-rule:nonzero;stroke:none" /><path
       d="m 347.2,271.65 24.25,0 0,20.25 -24.25,0 0,-20.25 z"
       inkscape:connector-curvature="0"
       id="path478"
       style="fill:#ffffff;fill-opacity:1;fill-rule:evenodd;stroke:none" /><path
       d="m 347.2,271.65 24.25,0 0,20.25 -24.25,0 0,-20.25 z"
       inkscape:connector-curvature="0"
       id="path480"
       style="fill:none;stroke:#000000;stroke-width:0.75;stroke-linecap:round;stroke-linejoin:miter;stroke-miterlimit:10;stroke-opacity:1;stroke-dasharray:none" /><path
       d="m 257.7,355.7 -3,-0.01 c -0.27,0 -0.5,0.22 -0.5,0.5 0,0.27 0.22,0.5 0.5,0.5 l 3,0.01 c 0.27,0 0.5,-0.22 0.5,-0.5 0,-0.27 -0.22,-0.5 -0.5,-0.5 z m -7,-0.03 -3,-0.01 c -0.27,0 -0.5,0.22 -0.5,0.5 0,0.27 0.22,0.5 0.5,0.5 l 3,0.01 c 0.27,0 0.5,-0.22 0.5,-0.5 0,-0.27 -0.22,-0.5 -0.5,-0.5 z m -7,-0.03 -3,-0.01 c -0.27,0 -0.5,0.22 -0.5,0.5 0,0.28 0.22,0.5 0.5,0.5 l 3,0.01 c 0.27,0.01 0.5,-0.22 0.5,-0.49 0,-0.28 -0.22,-0.5 -0.5,-0.51 z m -7,-0.02 -3,-0.02 c -0.27,0 -0.5,0.23 -0.5,0.5 0,0.28 0.22,0.5 0.5,0.5 l 3,0.02 c 0.27,0 0.5,-0.23 0.5,-0.5 0,-0.28 -0.22,-0.5 -0.5,-0.5 z m -7,-0.03 -3,-0.01 c -0.27,0 -0.5,0.22 -0.5,0.5 0,0.27 0.22,0.5 0.5,0.5 l 3,0.01 c 0.27,0 0.5,-0.22 0.5,-0.5 0,-0.28 -0.22,-0.5 -0.5,-0.5 z m -7,-0.03 -3,-0.01 c -0.27,0 -0.5,0.22 -0.5,0.5 0,0.27 0.22,0.5 0.5,0.5 l 3,0.01 c 0.27,0 0.5,-0.22 0.5,-0.5 0,-0.27 -0.22,-0.5 -0.5,-0.5 z m -7,-0.03 -3,-0.01 c -0.27,0 -0.5,0.22 -0.5,0.5 0,0.28 0.22,0.5 0.5,0.5 l 3,0.01 c 0.27,0 0.5,-0.22 0.5,-0.49 0,-0.28 -0.22,-0.51 -0.5,-0.51 z m -7,-0.02 -3,-0.02 c -0.27,0 -0.5,0.23 -0.5,0.5 0,0.28 0.22,0.5 0.5,0.5 l 3,0.02 c 0.27,0 0.5,-0.23 0.5,-0.5 0,-0.28 -0.22,-0.5 -0.5,-0.5 z m -7,-0.03 -3,-0.01 c -0.27,-0.01 -0.5,0.22 -0.5,0.49 0,0.28 0.22,0.5 0.5,0.51 l 3,0.01 c 0.27,0 0.5,-0.22 0.5,-0.5 0,-0.28 -0.22,-0.5 -0.5,-0.5 z m -7,-0.03 -3,-0.01 c -0.27,0 -0.5,0.22 -0.5,0.5 0,0.27 0.22,0.5 0.5,0.5 l 3,0.01 c 0.27,0 0.5,-0.22 0.5,-0.5 0,-0.27 -0.22,-0.5 -0.5,-0.5 z m -7,-0.03 -3,-0.01 c -0.27,0 -0.5,0.22 -0.5,0.5 0,0.27 0.22,0.5 0.5,0.5 l 3,0.01 c 0.27,0 0.5,-0.22 0.5,-0.5 0,-0.27 -0.22,-0.5 -0.5,-0.5 z m -7,-0.03 -3,-0.01 c -0.27,0 -0.5,0.22 -0.5,0.5 0,0.28 0.22,0.5 0.5,0.5 l 3,0.01 c 0.27,0.01 0.5,-0.22 0.5,-0.49 0,-0.28 -0.22,-0.5 -0.5,-0.51 z m -7,-0.02 -3,-0.02 c -0.27,0 -0.5,0.23 -0.5,0.5 0,0.28 0.22,0.5 0.5,0.5 l 3,0.02 c 0.27,0 0.5,-0.23 0.5,-0.5 0,-0.28 -0.22,-0.5 -0.5,-0.5 z m -7,-0.03 -3,-0.01 c -0.27,0 -0.5,0.22 -0.5,0.5 0,0.27 0.22,0.5 0.5,0.5 l 3,0.01 c 0.27,0 0.5,-0.22 0.5,-0.5 0,-0.28 -0.22,-0.5 -0.5,-0.5 z m -7,-0.03 -3,-0.01 c -0.27,0 -0.5,0.22 -0.5,0.5 0,0.27 0.22,0.5 0.5,0.5 l 3,0.01 c 0.27,0 0.5,-0.22 0.5,-0.5 0,-0.27 -0.22,-0.5 -0.5,-0.5 z m -7,-0.03 -3,-0.01 c -0.27,0 -0.5,0.22 -0.5,0.5 0,0.28 0.22,0.5 0.5,0.5 l 3,0.01 c 0.27,0 0.5,-0.22 0.5,-0.49 0,-0.28 -0.22,-0.51 -0.5,-0.51 z m 2.43,-4.92 -9.81,5.39 9.77,5.48 c 0.24,0.14 0.54,0.05 0.68,-0.19 0.13,-0.24 0.05,-0.55 -0.2,-0.68 l -8.98,-5.04 0,0.88 9.02,-4.97 c 0.24,-0.13 0.33,-0.44 0.2,-0.68 -0.14,-0.24 -0.44,-0.33 -0.68,-0.19 z"
       inkscape:connector-curvature="0"
       id="path482"
       style="fill:#000000;fill-opacity:1;fill-rule:nonzero;stroke:none" /><path
       d="m 257.7,403 -3,-0.01 c -0.27,0 -0.5,0.22 -0.5,0.5 0,0.27 0.22,0.5 0.5,0.5 l 3,0.01 c 0.27,0 0.5,-0.22 0.5,-0.5 0,-0.27 -0.22,-0.5 -0.5,-0.5 z m -7,-0.03 -3,-0.01 c -0.27,0 -0.5,0.22 -0.5,0.5 0,0.28 0.22,0.5 0.5,0.5 l 3,0.01 c 0.27,0 0.5,-0.22 0.5,-0.5 0,-0.27 -0.22,-0.5 -0.5,-0.5 z m -7,-0.02 -3,-0.02 c -0.27,0 -0.5,0.23 -0.5,0.5 0,0.28 0.22,0.5 0.5,0.5 l 3,0.02 c 0.27,0 0.5,-0.23 0.5,-0.5 0,-0.28 -0.22,-0.5 -0.5,-0.5 z m -7,-0.03 -3,-0.01 c -0.27,0 -0.5,0.22 -0.5,0.49 0,0.28 0.22,0.51 0.5,0.51 l 3,0.01 c 0.27,0 0.5,-0.22 0.5,-0.5 0,-0.28 -0.22,-0.5 -0.5,-0.5 z m -7,-0.03 -3,-0.01 c -0.27,0 -0.5,0.22 -0.5,0.5 0,0.27 0.22,0.5 0.5,0.5 l 3,0.01 c 0.27,0 0.5,-0.22 0.5,-0.5 0,-0.27 -0.22,-0.5 -0.5,-0.5 z m -7,-0.03 -3,-0.01 c -0.27,0 -0.5,0.22 -0.5,0.5 0,0.28 0.22,0.5 0.5,0.5 l 3,0.01 c 0.27,0 0.5,-0.22 0.5,-0.49 0,-0.28 -0.22,-0.51 -0.5,-0.51 z m -7,-0.02 -3,-0.02 c -0.27,0 -0.5,0.23 -0.5,0.5 0,0.28 0.22,0.5 0.5,0.5 l 3,0.02 c 0.27,0 0.5,-0.23 0.5,-0.5 0,-0.28 -0.22,-0.5 -0.5,-0.5 z m -7,-0.03 -3,-0.01 c -0.27,0 -0.5,0.22 -0.5,0.49 0,0.28 0.22,0.51 0.5,0.51 l 3,0.01 c 0.27,0 0.5,-0.22 0.5,-0.5 0,-0.28 -0.22,-0.5 -0.5,-0.5 z m -7,-0.03 -3,-0.01 c -0.27,0 -0.5,0.22 -0.5,0.5 0,0.27 0.22,0.5 0.5,0.5 l 3,0.01 c 0.27,0 0.5,-0.22 0.5,-0.5 0,-0.27 -0.22,-0.5 -0.5,-0.5 z m -7,-0.03 -3,-0.01 c -0.27,0 -0.5,0.22 -0.5,0.5 0,0.28 0.22,0.5 0.5,0.5 l 3,0.01 c 0.27,0 0.5,-0.22 0.5,-0.49 0,-0.28 -0.22,-0.51 -0.5,-0.51 z m -7,-0.02 -3,-0.02 c -0.27,0 -0.5,0.23 -0.5,0.5 0,0.28 0.22,0.5 0.5,0.5 l 3,0.02 c 0.27,0 0.5,-0.23 0.5,-0.5 0,-0.28 -0.22,-0.5 -0.5,-0.5 z m -7,-0.03 -3,-0.01 c -0.27,0 -0.5,0.22 -0.5,0.49 0,0.28 0.22,0.51 0.5,0.51 l 3,0.01 c 0.27,0 0.5,-0.22 0.5,-0.5 0,-0.28 -0.22,-0.5 -0.5,-0.5 z m -7,-0.03 -3,-0.01 c -0.27,0 -0.5,0.22 -0.5,0.5 0,0.27 0.22,0.5 0.5,0.5 l 3,0.01 c 0.27,0 0.5,-0.22 0.5,-0.5 0,-0.27 -0.22,-0.5 -0.5,-0.5 z m -7,-0.03 -3,-0.01 c -0.27,0 -0.5,0.22 -0.5,0.5 0,0.28 0.22,0.5 0.5,0.5 l 3,0.01 c 0.27,0 0.5,-0.22 0.5,-0.49 0,-0.28 -0.22,-0.51 -0.5,-0.51 z m -7,-0.02 -3,-0.02 c -0.27,0 -0.5,0.23 -0.5,0.5 0,0.28 0.22,0.5 0.5,0.5 l 3,0.02 c 0.27,0 0.5,-0.23 0.5,-0.5 0,-0.28 -0.22,-0.5 -0.5,-0.5 z m -7,-0.03 -3,-0.01 c -0.27,0 -0.5,0.22 -0.5,0.49 0,0.28 0.22,0.51 0.5,0.51 l 3,0.01 c 0.27,0 0.5,-0.22 0.5,-0.5 0,-0.28 -0.22,-0.5 -0.5,-0.5 z m -7,-0.03 -0.8,0 c -0.27,0 -0.5,0.22 -0.5,0.5 0,0.27 0.22,0.5 0.5,0.5 l 0.8,0 c 0.27,0 0.5,-0.22 0.5,-0.5 0,-0.27 -0.22,-0.5 -0.5,-0.5 z m 7.98,-4.9 -9.81,5.39 9.77,5.48 c 0.24,0.13 0.54,0.05 0.68,-0.19 0.13,-0.24 0.05,-0.55 -0.2,-0.68 l -8.98,-5.04 0,0.88 9.02,-4.97 c 0.24,-0.13 0.33,-0.44 0.2,-0.68 -0.14,-0.24 -0.44,-0.33 -0.68,-0.19 z"
       inkscape:connector-curvature="0"
       id="path484"
       style="fill:#000000;fill-opacity:1;fill-rule:nonzero;stroke:none" /><path
       d="m 347.2,108.7 24.25,0 0,38.35 -24.25,0 0,-38.35 z"
       inkscape:connector-curvature="0"
       id="path486"
       style="fill:#ffffff;fill-opacity:1;fill-rule:evenodd;stroke:none" /><path
       d="m 347.2,108.7 24.25,0 0,38.35 -24.25,0 0,-38.35 z"
       inkscape:connector-curvature="0"
       id="path488"
       style="fill:none;stroke:#000000;stroke-width:0.75;stroke-linecap:round;stroke-linejoin:miter;stroke-miterlimit:10;stroke-opacity:1;stroke-dasharray:none" /><path
       d="m 548.85,114.75 27.2,0 0,26.15 -27.2,0 0,-26.15 z"
       inkscape:connector-curvature="0"
       id="path490"
       style="fill:#ffffff;fill-opacity:1;fill-rule:evenodd;stroke:none" /><path
       d="m 548.85,114.75 27.2,0 0,26.15 -27.2,0 0,-26.15 z"
       inkscape:connector-curvature="0"
       id="path492"
       style="fill:#ffffff;fill-opacity:1;fill-rule:evenodd;stroke:none" /><path
       d="m 548.85,114.75 27.2,0 0,26.15 -27.2,0 0,-26.15 z"
       inkscape:connector-curvature="0"
       id="path494"
       style="fill:none;stroke:#000000;stroke-width:0.75;stroke-linecap:round;stroke-linejoin:miter;stroke-miterlimit:10;stroke-opacity:1;stroke-dasharray:none" /><g
       id="g496"><path
         d="M 270,450.7 269.95,99"
         inkscape:connector-curvature="0"
         id="path498"
         style="fill:none;stroke:#000000;stroke-width:0.75;stroke-linecap:round;stroke-linejoin:round;stroke-miterlimit:10;stroke-opacity:1;stroke-dasharray:5.25, 3;stroke-dashoffset:0" /></g><path
       d="m 257.3,95.25 24.25,0 0,143.2 -24.25,0 0,-143.2 z"
       inkscape:connector-curvature="0"
       id="path500"
       style="fill:#ffffff;fill-opacity:1;fill-rule:evenodd;stroke:none" /><path
       d="m 257.3,95.25 24.25,0 0,143.2 -24.25,0 0,-143.2 z"
       inkscape:connector-curvature="0"
       id="path502"
       style="fill:none;stroke:#000000;stroke-width:0.75;stroke-linecap:round;stroke-linejoin:miter;stroke-miterlimit:10;stroke-opacity:1;stroke-dasharray:none" /><path
       d="m 484.95,169.4 27.2,0 0,18.9 -27.2,0 0,-18.9 z"
       inkscape:connector-curvature="0"
       id="path504"
       style="fill:#ffffff;fill-opacity:1;fill-rule:evenodd;stroke:none" /><path
       d="m 484.95,169.4 27.2,0 0,18.9 -27.2,0 0,-18.9 z"
       inkscape:connector-curvature="0"
       id="path506"
       style="fill:#ffffff;fill-opacity:1;fill-rule:evenodd;stroke:none" /><path
       d="m 484.95,169.4 27.2,0 0,18.9 -27.2,0 0,-18.9 z"
       inkscape:connector-curvature="0"
       id="path508"
       style="fill:none;stroke:#000000;stroke-width:0.75;stroke-linecap:round;stroke-linejoin:miter;stroke-miterlimit:10;stroke-opacity:1;stroke-dasharray:none" /><g
       id="g510"><g
         clip-path="url(#clipPath514)"
         id="g512"><g
           id="g518"><g
             clip-path="url(#clipPath522)"
             id="g520"><text
   transform="matrix(1,0,0,-1,284.09,238.13)"
   id="text526"><tspan
     x="0 7.8062401 15.61248 23.41872 28.09404 35.90028 39.803398 42.92028 50.726521 58.434479 63.109798"
     y="0"
     id="tspan528"
     style="font-size:14.03999996px;font-variant:normal;font-weight:normal;writing-mode:lr-tb;fill:#000000;fill-opacity:1;fill-rule:nonzero;stroke:none;font-family:Helvetica;-inkscape-font-specification:Helvetica">operation()</tspan></text>

</g></g><g
           id="g530"><g
             clip-path="url(#clipPath534)"
             id="g532" /></g></g></g><g
       id="g538"><g
         clip-path="url(#clipPath542)"
         id="g540"><g
           id="g546"><g
             clip-path="url(#clipPath550)"
             id="g548"><text
   transform="matrix(1,0,0,-1,284.81,151.7)"
   id="text554"><tspan
     x="0 7.8062401 15.61248 23.41872 28.09404 35.90028 39.803398 42.92028 50.726521 58.434479 63.109798"
     y="0"
     id="tspan556"
     style="font-size:14.03999996px;font-variant:normal;font-weight:normal;writing-mode:lr-tb;fill:#000000;fill-opacity:1;fill-rule:nonzero;stroke:none;font-family:Helvetica;-inkscape-font-specification:Helvetica">operation()</tspan></text>

</g></g><g
           id="g558"><g
             clip-path="url(#clipPath562)"
             id="g560" /></g></g></g><path
       d="m 422.05,213.05 27.2,0 0,23.05 -27.2,0 0,-23.05 z"
       inkscape:connector-curvature="0"
       id="path566"
       style="fill:#ffffff;fill-opacity:1;fill-rule:evenodd;stroke:none" /><path
       d="m 422.05,213.05 27.2,0 0,23.05 -27.2,0 0,-23.05 z"
       inkscape:connector-curvature="0"
       id="path568"
       style="fill:#ffffff;fill-opacity:1;fill-rule:evenodd;stroke:none" /><path
       d="m 422.05,213.05 27.2,0 0,23.05 -27.2,0 0,-23.05 z"
       inkscape:connector-curvature="0"
       id="path570"
       style="fill:none;stroke:#000000;stroke-width:0.75;stroke-linecap:round;stroke-linejoin:miter;stroke-miterlimit:10;stroke-opacity:1;stroke-dasharray:none" /><g
       id="g572"><path
         d="M 435.8,212.7 435.75,70.5"
         inkscape:connector-curvature="0"
         id="path574"
         style="fill:none;stroke:#000000;stroke-width:0.75;stroke-linecap:round;stroke-linejoin:round;stroke-miterlimit:10;stroke-opacity:1;stroke-dasharray:5.25, 3;stroke-dashoffset:0" /></g><path
       d="m 484.95,168.9 -3,0 c -0.28,0 -0.5,0.22 -0.5,0.5 0,0.28 0.22,0.5 0.5,0.5 l 3,0 c 0.28,0 0.5,-0.22 0.5,-0.5 0,-0.28 -0.22,-0.5 -0.5,-0.5 z m -7,0 -3,0 c -0.28,0 -0.5,0.22 -0.5,0.5 0,0.27 0.22,0.5 0.5,0.5 l 3,0 c 0.28,0 0.5,-0.23 0.5,-0.5 0,-0.28 -0.22,-0.5 -0.5,-0.5 z m -7,0 -3,0 c -0.28,0 -0.5,0.22 -0.5,0.5 0,0.27 0.22,0.5 0.5,0.5 l 3,0 c 0.28,0 0.5,-0.23 0.5,-0.5 0,-0.28 -0.22,-0.5 -0.5,-0.5 z m -7,0 -3,-0.01 c -0.28,0 -0.5,0.23 -0.5,0.5 0,0.28 0.22,0.5 0.5,0.5 l 3,0.01 c 0.28,0 0.5,-0.23 0.5,-0.5 0,-0.28 -0.22,-0.5 -0.5,-0.5 z m -7,-0.01 -3,0 c -0.28,0 -0.5,0.23 -0.5,0.5 0,0.28 0.22,0.5 0.5,0.5 l 3,0 c 0.28,0 0.5,-0.22 0.5,-0.5 0,-0.27 -0.22,-0.5 -0.5,-0.5 z m -7,0 -3,0 c -0.28,0 -0.5,0.22 -0.5,0.5 0,0.28 0.22,0.5 0.5,0.5 l 3,0 c 0.28,0 0.5,-0.22 0.5,-0.5 0,-0.27 -0.22,-0.5 -0.5,-0.5 z m -7,0 -3,0 c -0.28,0 -0.5,0.22 -0.5,0.5 0,0.28 0.22,0.5 0.5,0.5 l 3,0 c 0.28,0 0.5,-0.22 0.5,-0.5 0,-0.28 -0.22,-0.5 -0.5,-0.5 z m -7,0 -3,0 c -0.28,0 -0.5,0.22 -0.5,0.5 0,0.27 0.22,0.5 0.5,0.5 l 3,0 c 0.28,0 0.5,-0.23 0.5,-0.5 0,-0.28 -0.22,-0.5 -0.5,-0.5 z m -7,0 -3,0 c -0.28,0 -0.5,0.22 -0.5,0.5 0,0.27 0.22,0.5 0.5,0.5 l 3,0 c 0.28,0 0.5,-0.23 0.5,-0.5 0,-0.28 -0.22,-0.5 -0.5,-0.5 z m -7,0 -3,-0.01 c -0.28,0 -0.5,0.23 -0.5,0.5 0,0.28 0.22,0.5 0.5,0.5 l 3,0.01 c 0.28,0 0.5,-0.23 0.5,-0.5 0,-0.28 -0.22,-0.5 -0.5,-0.5 z m -7,-0.01 -3,0 c -0.28,0 -0.5,0.23 -0.5,0.5 0,0.28 0.22,0.5 0.5,0.5 l 3,0 c 0.28,0 0.5,-0.22 0.5,-0.5 0,-0.27 -0.22,-0.5 -0.5,-0.5 z m -7,0 -3,0 c -0.28,0 -0.5,0.22 -0.5,0.5 0,0.28 0.22,0.5 0.5,0.5 l 3,0 c 0.28,0 0.5,-0.22 0.5,-0.5 0,-0.27 -0.22,-0.5 -0.5,-0.5 z m -7,0 -3,0 c -0.28,0 -0.5,0.22 -0.5,0.5 0,0.28 0.22,0.5 0.5,0.5 l 3,0 c 0.28,0 0.5,-0.22 0.5,-0.5 0,-0.28 -0.22,-0.5 -0.5,-0.5 z m -7,0 -3,0 c -0.28,0 -0.5,0.22 -0.5,0.5 0,0.27 0.22,0.5 0.5,0.5 l 3,0 c 0.28,0 0.5,-0.23 0.5,-0.5 0,-0.28 -0.22,-0.5 -0.5,-0.5 z m -7,0 -3,0 c -0.28,0 -0.5,0.22 -0.5,0.5 0,0.27 0.22,0.5 0.5,0.5 l 3,0 c 0.28,0 0.5,-0.23 0.5,-0.5 0,-0.28 -0.22,-0.5 -0.5,-0.5 z m -7,-0.01 -3,0 c -0.28,0 -0.5,0.23 -0.5,0.5 0,0.28 0.22,0.5 0.5,0.5 l 3,0 c 0.28,0.01 0.5,-0.22 0.5,-0.49 0,-0.28 -0.22,-0.5 -0.5,-0.51 z m -7,0 -3,0 c -0.28,0 -0.5,0.23 -0.5,0.5 0,0.28 0.22,0.5 0.5,0.5 l 3,0 c 0.28,0 0.5,-0.22 0.5,-0.5 0,-0.27 -0.22,-0.5 -0.5,-0.5 z m -7,0 -3,0 c -0.28,0 -0.5,0.22 -0.5,0.5 0,0.28 0.22,0.5 0.5,0.5 l 3,0 c 0.28,0 0.5,-0.22 0.5,-0.5 0,-0.27 -0.22,-0.5 -0.5,-0.5 z m -7,0 -3,0 c -0.28,0 -0.5,0.22 -0.5,0.5 0,0.27 0.22,0.5 0.5,0.5 l 3,0 c 0.28,0 0.5,-0.22 0.5,-0.5 0,-0.28 -0.22,-0.5 -0.5,-0.5 z m -7,0 -3,0 c -0.28,0 -0.5,0.22 -0.5,0.5 0,0.27 0.22,0.5 0.5,0.5 l 3,0 c 0.28,0 0.5,-0.23 0.5,-0.5 0,-0.28 -0.22,-0.5 -0.5,-0.5 z m -7,0 -3,0 c -0.28,0 -0.5,0.22 -0.5,0.5 0,0.27 0.22,0.5 0.5,0.5 l 3,0 c 0.28,0 0.5,-0.23 0.5,-0.5 0,-0.28 -0.22,-0.5 -0.5,-0.5 z m -7,-0.01 -3,0 c -0.28,0 -0.5,0.23 -0.5,0.5 0,0.28 0.22,0.5 0.5,0.5 l 3,0 c 0.28,0 0.5,-0.22 0.5,-0.5 0,-0.27 -0.22,-0.5 -0.5,-0.5 z m -7,0 -3,0 c -0.28,0 -0.5,0.23 -0.5,0.5 0,0.28 0.22,0.5 0.5,0.5 l 3,0 c 0.28,0 0.5,-0.22 0.5,-0.5 0,-0.27 -0.22,-0.5 -0.5,-0.5 z m -7,0 -3,0 c -0.28,0 -0.5,0.22 -0.5,0.5 0,0.28 0.22,0.5 0.5,0.5 l 3,0 c 0.28,0 0.5,-0.22 0.5,-0.5 0,-0.28 -0.22,-0.5 -0.5,-0.5 z m -7,0 -3,0 c -0.28,0 -0.5,0.22 -0.5,0.5 0,0.27 0.22,0.5 0.5,0.5 l 3,0 c 0.28,0 0.5,-0.22 0.5,-0.5 0,-0.28 -0.22,-0.5 -0.5,-0.5 z m -7,0 -3,0 c -0.28,0 -0.5,0.22 -0.5,0.5 0,0.27 0.22,0.5 0.5,0.5 l 3,0 c 0.28,0 0.5,-0.23 0.5,-0.5 0,-0.28 -0.22,-0.5 -0.5,-0.5 z m -7,0 -3,-0.01 c -0.28,0 -0.5,0.23 -0.5,0.5 0,0.28 0.22,0.5 0.5,0.5 l 3,0.01 c 0.28,0 0.5,-0.23 0.5,-0.5 0,-0.28 -0.22,-0.5 -0.5,-0.5 z m -7,-0.01 -3,0 c -0.28,0 -0.5,0.23 -0.5,0.5 0,0.28 0.22,0.5 0.5,0.5 l 3,0 c 0.28,0 0.5,-0.22 0.5,-0.5 0,-0.27 -0.22,-0.5 -0.5,-0.5 z m -7,0 -3,0 c -0.28,0 -0.5,0.22 -0.5,0.5 0,0.28 0.22,0.5 0.5,0.5 l 3,0 c 0.28,0 0.5,-0.22 0.5,-0.5 0,-0.27 -0.22,-0.5 -0.5,-0.5 z m 3.76,-4.93 -9.79,5.43 9.79,5.44 c 0.24,0.13 0.54,0.05 0.68,-0.19 0.13,-0.25 0.04,-0.55 -0.2,-0.68 l -9,-5.01 0,0.88 9,-5 c 0.25,-0.13 0.33,-0.44 0.2,-0.68 -0.14,-0.24 -0.44,-0.33 -0.68,-0.19 z"
       inkscape:connector-curvature="0"
       id="path576"
       style="fill:#000000;fill-opacity:1;fill-rule:nonzero;stroke:none" /><path
       d="m 257.7,403.5 24.25,0 0,18.05 -24.25,0 0,-18.05 z"
       inkscape:connector-curvature="0"
       id="path578"
       style="fill:#ffffff;fill-opacity:1;fill-rule:evenodd;stroke:none" /><path
       d="m 257.7,403.5 24.25,0 0,18.05 -24.25,0 0,-18.05 z"
       inkscape:connector-curvature="0"
       id="path580"
       style="fill:none;stroke:#000000;stroke-width:0.75;stroke-linecap:round;stroke-linejoin:miter;stroke-miterlimit:10;stroke-opacity:1;stroke-dasharray:none" /><path
       d="m 257.3,356.15 24.25,0 0,17.4 -24.25,0 0,-17.4 z"
       inkscape:connector-curvature="0"
       id="path582"
       style="fill:#ffffff;fill-opacity:1;fill-rule:evenodd;stroke:none" /><path
       d="m 257.3,356.15 24.25,0 0,17.4 -24.25,0 0,-17.4 z"
       inkscape:connector-curvature="0"
       id="path584"
       style="fill:none;stroke:#000000;stroke-width:0.75;stroke-linecap:round;stroke-linejoin:miter;stroke-miterlimit:10;stroke-opacity:1;stroke-dasharray:none" /><path
       d="m 257.7,315.15 24.25,0 0,17.3 -24.25,0 0,-17.3 z"
       inkscape:connector-curvature="0"
       id="path586"
       style="fill:#ffffff;fill-opacity:1;fill-rule:evenodd;stroke:none" /><path
       d="m 257.7,315.15 24.25,0 0,17.3 -24.25,0 0,-17.3 z"
       inkscape:connector-curvature="0"
       id="path588"
       style="fill:none;stroke:#000000;stroke-width:0.75;stroke-linecap:round;stroke-linejoin:miter;stroke-miterlimit:10;stroke-opacity:1;stroke-dasharray:none" /><g
       id="g590"><path
         d="m 432.75,450.7 0,-214.5"
         inkscape:connector-curvature="0"
         id="path592"
         style="fill:none;stroke:#000000;stroke-width:0.75;stroke-linecap:round;stroke-linejoin:round;stroke-miterlimit:10;stroke-opacity:1;stroke-dasharray:5.25, 3;stroke-dashoffset:0" /></g><path
       d="m 120.5,84 24.2,0 0,399.75 -24.2,0 0,-399.75 z"
       inkscape:connector-curvature="0"
       id="path594"
       style="fill:#ffffff;fill-opacity:1;fill-rule:evenodd;stroke:none" /><path
       d="m 120.5,84 24.2,0 0,399.75 -24.2,0 0,-399.75 z"
       inkscape:connector-curvature="0"
       id="path596"
       style="fill:none;stroke:#000000;stroke-width:0.75;stroke-linecap:round;stroke-linejoin:miter;stroke-miterlimit:10;stroke-opacity:1;stroke-dasharray:none" /><path
       d="m 102,508.35 66.4,0 0,51.2 -66.4,0 0,-51.2 z"
       inkscape:connector-curvature="0"
       id="path598"
       style="fill:none;stroke:#000000;stroke-width:0.75;stroke-linecap:round;stroke-linejoin:miter;stroke-miterlimit:10;stroke-opacity:1;stroke-dasharray:none" /></g></svg>