<?xml version="1.0" encoding="UTF-8" standalone="no"?>
<!-- Created with Inkscape (http://www.inkscape.org/) -->

<svg
   xmlns:dc="http://purl.org/dc/elements/1.1/"
   xmlns:cc="http://creativecommons.org/ns#"
   xmlns:rdf="http://www.w3.org/1999/02/22-rdf-syntax-ns#"
   xmlns:svg="http://www.w3.org/2000/svg"
   xmlns="http://www.w3.org/2000/svg"
   xmlns:sodipodi="http://sodipodi.sourceforge.net/DTD/sodipodi-0.dtd"
   xmlns:inkscape="http://www.inkscape.org/namespaces/inkscape"
   version="1.1"
   width="522"
   height="209.9375"
   id="svg2"
   xml:space="preserve"
   inkscape:version="0.48.4 r9939"
   sodipodi:docname="Bild 4-24 Klassendiagramm Proxy-Muster.svg"><sodipodi:namedview
     pagecolor="#ffffff"
     bordercolor="#666666"
     borderopacity="1"
     objecttolerance="10"
     gridtolerance="10"
     guidetolerance="10"
     inkscape:pageopacity="0"
     inkscape:pageshadow="2"
     inkscape:window-width="640"
     inkscape:window-height="480"
     id="namedview175"
     showgrid="false"
     inkscape:zoom="0.18730159"
     inkscape:cx="86.53125"
     inkscape:cy="23.53125"
     inkscape:window-x="0"
     inkscape:window-y="0"
     inkscape:window-maximized="0"
     inkscape:current-layer="svg2" /><metadata
     id="metadata8"><rdf:RDF><cc:Work
         rdf:about=""><dc:format>image/svg+xml</dc:format><dc:type
           rdf:resource="http://purl.org/dc/dcmitype/StillImage" /></cc:Work></rdf:RDF></metadata><defs
     id="defs6"><clipPath
       id="clipPath26"><path
         d="m 521.24,628.87 30,0 0,11.28 -30,0 0,-11.28 z"
         inkscape:connector-curvature="0"
         id="path28" /></clipPath><clipPath
       id="clipPath34"><path
         d="m 521.23,628.87 30,0 0,11.28 -30,0 0,-11.28 z"
         inkscape:connector-curvature="0"
         id="path36" /></clipPath><clipPath
       id="clipPath46"><path
         d="m 521.23,628.87 30,0 0,11.28 -30,0 0,-11.28 z"
         inkscape:connector-curvature="0"
         id="path48" /></clipPath><clipPath
       id="clipPath58"><path
         d="m 521.23,628.87 30,0 0,11.28 -30,0 0,-11.28 z"
         inkscape:connector-curvature="0"
         id="path60" /></clipPath><clipPath
       id="clipPath70"><path
         d="m 521.23,628.87 30,0 0,11.28 -30,0 0,-11.28 z"
         inkscape:connector-curvature="0"
         id="path72" /></clipPath><clipPath
       id="clipPath92"><path
         d="m 435.89,619.87 58.59,0 0,13.8 -58.59,0 0,-13.8 z"
         inkscape:connector-curvature="0"
         id="path94" /></clipPath><clipPath
       id="clipPath100"><path
         d="m 435.89,619.87 58.584,0 0,13.8 -58.584,0 0,-13.8 z"
         inkscape:connector-curvature="0"
         id="path102" /></clipPath><clipPath
       id="clipPath112"><path
         d="m 435.89,619.87 58.584,0 0,13.8 -58.584,0 0,-13.8 z"
         inkscape:connector-curvature="0"
         id="path114" /></clipPath><clipPath
       id="clipPath124"><path
         d="m 583.16,583.15 139.58,0 0,65.52 -139.58,0 0,-65.52 z"
         inkscape:connector-curvature="0"
         id="path126" /></clipPath><clipPath
       id="clipPath132"><path
         d="m 583.15,583.15 139.58,0 0,65.52 -139.58,0 0,-65.52 z"
         inkscape:connector-curvature="0"
         id="path134" /></clipPath><clipPath
       id="clipPath144"><path
         d="m 583.15,583.15 139.58,0 0,65.52 -139.58,0 0,-65.52 z"
         inkscape:connector-curvature="0"
         id="path146" /></clipPath><clipPath
       id="clipPath152"><path
         d="m 583.15,583.15 139.58,0 0,65.52 -139.58,0 0,-65.52 z"
         inkscape:connector-curvature="0"
         id="path154" /></clipPath><clipPath
       id="clipPath164"><path
         d="m 583.15,583.15 139.58,0 0,65.52 -139.58,0 0,-65.52 z"
         inkscape:connector-curvature="0"
         id="path166" /></clipPath><clipPath
       id="clipPath176"><path
         d="m 583.15,583.15 139.58,0 0,65.52 -139.58,0 0,-65.52 z"
         inkscape:connector-curvature="0"
         id="path178" /></clipPath><clipPath
       id="clipPath188"><path
         d="m 583.15,583.15 139.58,0 0,65.52 -139.58,0 0,-65.52 z"
         inkscape:connector-curvature="0"
         id="path190" /></clipPath><clipPath
       id="clipPath196"><path
         d="m 583.15,583.15 139.58,0 0,65.52 -139.58,0 0,-65.52 z"
         inkscape:connector-curvature="0"
         id="path198" /></clipPath><clipPath
       id="clipPath204"><path
         d="m 583.15,583.15 139.58,0 0,65.52 -139.58,0 0,-65.52 z"
         inkscape:connector-curvature="0"
         id="path206" /></clipPath><clipPath
       id="clipPath216"><path
         d="m 583.15,583.15 139.58,0 0,65.52 -139.58,0 0,-65.52 z"
         inkscape:connector-curvature="0"
         id="path218" /></clipPath><clipPath
       id="clipPath228"><path
         d="m 606.56,489.55 92.655,0 0,37.8 -92.655,0 0,-37.8 z"
         inkscape:connector-curvature="0"
         id="path230" /></clipPath><clipPath
       id="clipPath236"><path
         d="m 606.55,489.55 92.664,0 0,37.8 -92.664,0 0,-37.8 z"
         inkscape:connector-curvature="0"
         id="path238" /></clipPath><clipPath
       id="clipPath248"><path
         d="m 606.55,489.55 92.664,0 0,37.8 -92.664,0 0,-37.8 z"
         inkscape:connector-curvature="0"
         id="path250" /></clipPath><clipPath
       id="clipPath256"><path
         d="m 606.55,489.55 92.664,0 0,37.8 -92.664,0 0,-37.8 z"
         inkscape:connector-curvature="0"
         id="path258" /></clipPath><clipPath
       id="clipPath264"><path
         d="m 606.55,489.55 92.664,0 0,37.8 -92.664,0 0,-37.8 z"
         inkscape:connector-curvature="0"
         id="path266" /></clipPath><clipPath
       id="clipPath276"><path
         d="m 606.55,489.55 92.664,0 0,37.8 -92.664,0 0,-37.8 z"
         inkscape:connector-curvature="0"
         id="path278" /></clipPath><clipPath
       id="clipPath288"><path
         d="m 759.45,489.55 92.55,0 0,37.8 -92.55,0 0,-37.8 z"
         inkscape:connector-curvature="0"
         id="path290" /></clipPath><clipPath
       id="clipPath296"><path
         d="m 759.46,489.55 92.544,0 0,37.8 -92.544,0 0,-37.8 z"
         inkscape:connector-curvature="0"
         id="path298" /></clipPath><clipPath
       id="clipPath308"><path
         d="m 759.46,489.55 92.544,0 0,37.8 -92.544,0 0,-37.8 z"
         inkscape:connector-curvature="0"
         id="path310" /></clipPath><clipPath
       id="clipPath316"><path
         d="m 759.46,489.55 92.544,0 0,37.8 -92.544,0 0,-37.8 z"
         inkscape:connector-curvature="0"
         id="path318" /></clipPath><clipPath
       id="clipPath324"><path
         d="m 759.46,489.55 92.544,0 0,37.8 -92.544,0 0,-37.8 z"
         inkscape:connector-curvature="0"
         id="path326" /></clipPath><clipPath
       id="clipPath336"><path
         d="m 759.46,489.55 92.544,0 0,37.8 -92.544,0 0,-37.8 z"
         inkscape:connector-curvature="0"
         id="path338" /></clipPath></defs><g
     transform="matrix(1.25,0,0,-1.25,-543.84375,816.40625)"
     id="g10"><g
       id="g12"><path
         d="m 652.8,567.3 0,-35.85"
         inkscape:connector-curvature="0"
         id="path14"
         style="fill:none;stroke:#000000;stroke-width:0.69999999;stroke-linecap:round;stroke-linejoin:round;stroke-miterlimit:10;stroke-opacity:1;stroke-dasharray:4.9, 2.8;stroke-dashoffset:0" /></g><g
       id="g16"><path
         d="m 723,589.35 82.65,-57.9"
         inkscape:connector-curvature="0"
         id="path18"
         style="fill:none;stroke:#000000;stroke-width:0.69999999;stroke-linecap:round;stroke-linejoin:round;stroke-miterlimit:10;stroke-opacity:1;stroke-dasharray:4.9, 2.8;stroke-dashoffset:0" /></g><path
       d="m 494.6,627.5 3,0 c 0.28,0 0.5,-0.22 0.5,-0.5 0,-0.28 -0.22,-0.5 -0.5,-0.5 l -3,0 c -0.28,0 -0.5,0.22 -0.5,0.5 0,0.28 0.22,0.5 0.5,0.5 z m 7,0 3,0 c 0.28,0 0.5,-0.22 0.5,-0.5 0,-0.28 -0.22,-0.5 -0.5,-0.5 l -3,0 c -0.28,0 -0.5,0.22 -0.5,0.5 0,0.28 0.22,0.5 0.5,0.5 z m 7,0 3,0 c 0.28,0 0.5,-0.22 0.5,-0.5 0,-0.28 -0.22,-0.5 -0.5,-0.5 l -3,0 c -0.28,0 -0.5,0.22 -0.5,0.5 0,0.28 0.22,0.5 0.5,0.5 z m 7,0 3,0 c 0.28,0 0.5,-0.22 0.5,-0.5 0,-0.28 -0.22,-0.5 -0.5,-0.5 l -3,0 c -0.28,0 -0.5,0.22 -0.5,0.5 0,0.28 0.22,0.5 0.5,0.5 z m 7,0 3,0 c 0.28,0 0.5,-0.22 0.5,-0.5 0,-0.28 -0.22,-0.5 -0.5,-0.5 l -3,0 c -0.28,0 -0.5,0.22 -0.5,0.5 0,0.28 0.22,0.5 0.5,0.5 z m 7,0 3,0 c 0.28,0 0.5,-0.22 0.5,-0.5 0,-0.28 -0.22,-0.5 -0.5,-0.5 l -3,0 c -0.28,0 -0.5,0.22 -0.5,0.5 0,0.28 0.22,0.5 0.5,0.5 z m 7,0 3,0 c 0.28,0 0.5,-0.22 0.5,-0.5 0,-0.28 -0.22,-0.5 -0.5,-0.5 l -3,0 c -0.28,0 -0.5,0.22 -0.5,0.5 0,0.28 0.22,0.5 0.5,0.5 z m 7,0 3,0 c 0.28,0 0.5,-0.22 0.5,-0.5 0,-0.28 -0.22,-0.5 -0.5,-0.5 l -3,0 c -0.28,0 -0.5,0.22 -0.5,0.5 0,0.28 0.22,0.5 0.5,0.5 z m 7,0 3,0 c 0.28,0 0.5,-0.22 0.5,-0.5 0,-0.28 -0.22,-0.5 -0.5,-0.5 l -3,0 c -0.28,0 -0.5,0.22 -0.5,0.5 0,0.28 0.22,0.5 0.5,0.5 z m 7,0 3,0 c 0.28,0 0.5,-0.22 0.5,-0.5 0,-0.28 -0.22,-0.5 -0.5,-0.5 l -3,0 c -0.28,0 -0.5,0.22 -0.5,0.5 0,0.28 0.22,0.5 0.5,0.5 z m 7,0 3,0 c 0.28,0 0.5,-0.22 0.5,-0.5 0,-0.28 -0.22,-0.5 -0.5,-0.5 l -3,0 c -0.28,0 -0.5,0.22 -0.5,0.5 0,0.28 0.22,0.5 0.5,0.5 z m 7,0 3,0 c 0.28,0 0.5,-0.22 0.5,-0.5 0,-0.28 -0.22,-0.5 -0.5,-0.5 l -3,0 c -0.28,0 -0.5,0.22 -0.5,0.5 0,0.28 0.22,0.5 0.5,0.5 z m 7,0 2.8,0 c 0.28,0 0.5,-0.22 0.5,-0.5 0,-0.28 -0.22,-0.5 -0.5,-0.5 l -2.8,0 c -0.28,0 -0.5,0.22 -0.5,0.5 0,0.28 0.22,0.5 0.5,0.5 z m -2.95,3.43 6.74,-3.93 -6.74,-3.93 c -0.24,-0.14 -0.54,-0.06 -0.68,0.18 -0.14,0.24 -0.06,0.54 0.18,0.68 l 6,3.5 0,-0.86 -6,3.5 c -0.24,0.14 -0.32,0.44 -0.18,0.68 0.14,0.24 0.44,0.32 0.68,0.18 z"
       inkscape:connector-curvature="0"
       id="path20"
       style="fill:#000000;fill-opacity:1;fill-rule:nonzero;stroke:none" /><g
       id="g22"><g
         clip-path="url(#clipPath26)"
         id="g24"><g
           id="g30"><g
             clip-path="url(#clipPath34)"
             id="g32"><text
   transform="matrix(1,0,0,-1,521.23,632.35)"
   id="text38"><tspan
     x="0"
     y="0"
     id="tspan40"
     style="font-size:9.96000004px;font-variant:normal;font-weight:normal;writing-mode:lr-tb;fill:#000000;fill-opacity:1;fill-rule:nonzero;stroke:none;font-family:Courier New;-inkscape-font-specification:Courier New">«</tspan></text>

</g></g><g
           id="g42"><g
             clip-path="url(#clipPath46)"
             id="g44"><text
   transform="matrix(1,0,0,-1,527.23,632.35)"
   id="text50"><tspan
     x="0 6 12"
     y="0"
     id="tspan52"
     style="font-size:9.96000004px;font-variant:normal;font-weight:normal;writing-mode:lr-tb;fill:#000000;fill-opacity:1;fill-rule:nonzero;stroke:none;font-family:Courier New;-inkscape-font-specification:Courier New">use</tspan></text>

</g></g><g
           id="g54"><g
             clip-path="url(#clipPath58)"
             id="g56"><text
   transform="matrix(1,0,0,-1,545.23,632.35)"
   id="text62"><tspan
     x="0"
     y="0"
     id="tspan64"
     style="font-size:9.96000004px;font-variant:normal;font-weight:normal;writing-mode:lr-tb;fill:#000000;fill-opacity:1;fill-rule:nonzero;stroke:none;font-family:Courier New;-inkscape-font-specification:Courier New">»</tspan></text>

</g></g><g
           id="g66"><g
             clip-path="url(#clipPath70)"
             id="g68" /></g></g></g><path
       d="m 670.55,519.5 87.2,0 c 0.28,0 0.5,-0.22 0.5,-0.5 0,-0.28 -0.22,-0.5 -0.5,-0.5 l -87.2,0 c -0.28,0 -0.5,0.22 -0.5,0.5 0,0.28 0.22,0.5 0.5,0.5 z m 78.44,4.94 9.79,-5.44 -9.79,-5.44 c -0.24,-0.13 -0.54,-0.04 -0.68,0.2 -0.13,0.24 -0.04,0.54 0.2,0.68 l 9,5 0,-0.88 -9,5 c -0.24,0.14 -0.33,0.44 -0.2,0.68 0.14,0.24 0.44,0.33 0.68,0.2 z"
       inkscape:connector-curvature="0"
       id="path74"
       style="fill:#000000;fill-opacity:1;fill-rule:nonzero;stroke:none" /><path
       d="m 652.75,579 -5.4,-11.7 10.8,0 -5.4,11.7 z"
       inkscape:connector-curvature="0"
       id="path76"
       style="fill:#ffffff;fill-opacity:1;fill-rule:evenodd;stroke:none" /><path
       d="m 652.75,579 -5.4,-11.7 10.8,0 -5.4,11.7 z"
       inkscape:connector-curvature="0"
       id="path78"
       style="fill:none;stroke:#000000;stroke-width:0.69999999;stroke-linecap:round;stroke-linejoin:round;stroke-miterlimit:10;stroke-opacity:1;stroke-dasharray:none" /><path
       d="m 707.39,599.17 7.23,-10.67 5.58,9.25 -12.81,1.42 z"
       inkscape:connector-curvature="0"
       id="path80"
       style="fill:#ffffff;fill-opacity:1;fill-rule:evenodd;stroke:none" /><path
       d="m 707.39,599.17 7.23,-10.67 5.58,9.25 -12.81,1.42 z"
       inkscape:connector-curvature="0"
       id="path82"
       style="fill:none;stroke:#000000;stroke-width:0.69999999;stroke-linecap:round;stroke-linejoin:round;stroke-miterlimit:10;stroke-opacity:1;stroke-dasharray:none" /><path
       d="m 435.45,615.95 59.35,0 0,21.75 -59.35,0 0,-21.75 z"
       inkscape:connector-curvature="0"
       id="path84"
       style="fill:#ffffff;fill-opacity:1;fill-rule:evenodd;stroke:none" /><path
       d="m 435.45,615.95 59.35,0 0,21.75 -59.35,0 0,-21.75 z"
       inkscape:connector-curvature="0"
       id="path86"
       style="fill:none;stroke:#000000;stroke-width:0.75;stroke-linecap:round;stroke-linejoin:miter;stroke-miterlimit:8;stroke-opacity:1;stroke-dasharray:none" /><g
       id="g88"><g
         clip-path="url(#clipPath92)"
         id="g90"><g
           id="g96"><g
             clip-path="url(#clipPath100)"
             id="g98"><text
   transform="matrix(1,0,0,-1,448.49,622.63)"
   id="text104"><tspan
     x="0 8.6639996 12 15.336 22.068001 29.4"
     y="0"
     id="tspan106"
     style="font-size:12px;font-variant:normal;font-weight:bold;writing-mode:lr-tb;fill:#000000;fill-opacity:1;fill-rule:nonzero;stroke:none;font-family:Helvetica;-inkscape-font-specification:Helvetica-Bold">Client</tspan></text>

</g></g><g
           id="g108"><g
             clip-path="url(#clipPath112)"
             id="g110" /></g></g></g><path
       d="m 582.65,579.15 140.35,0 0,73.6 -140.35,0 0,-73.6 z"
       inkscape:connector-curvature="0"
       id="path116"
       style="fill:#ffffff;fill-opacity:1;fill-rule:evenodd;stroke:none" /><path
       d="m 582.65,579.15 140.35,0 0,73.6 -140.35,0 0,-73.6 z"
       inkscape:connector-curvature="0"
       id="path118"
       style="fill:none;stroke:#000000;stroke-width:0.75;stroke-linecap:round;stroke-linejoin:miter;stroke-miterlimit:8;stroke-opacity:1;stroke-dasharray:none" /><g
       id="g120"><g
         clip-path="url(#clipPath124)"
         id="g122"><g
           id="g128"><g
             clip-path="url(#clipPath132)"
             id="g130"><text
   transform="matrix(1,0,0,-1,613.27,638.35)"
   id="text136"><tspan
     x="0 7.1999998 14.4 21.6 28.799999 36 43.200001 50.400002 57.599998 64.800003 72"
     y="0"
     id="tspan138"
     style="font-size:12px;font-variant:normal;font-weight:normal;writing-mode:lr-tb;fill:#000000;fill-opacity:1;fill-rule:nonzero;stroke:none;font-family:Courier New;-inkscape-font-specification:Courier New">«interface»</tspan></text>

</g></g><g
           id="g140"><g
             clip-path="url(#clipPath144)"
             id="g142" /></g><g
           id="g148"><g
             clip-path="url(#clipPath152)"
             id="g150"><text
   transform="matrix(1,0,0,-1,603.55,624.07)"
   id="text156"><tspan
     x="0 3.336 11.388 18.096001 25.427999 32.759998 36.096001 40.091999 44.015999 50.723999 54.720001 61.391998 64.727997 68.003998 74.711998 83.375999 90.047997"
     y="0"
     id="tspan158"
     style="font-size:12px;font-variant:normal;font-weight:bold;writing-mode:lr-tb;fill:#000000;fill-opacity:1;fill-rule:nonzero;stroke:none;font-family:Helvetica;-inkscape-font-specification:Helvetica-Bold">ISchnittstelleDer</tspan></text>

</g></g><g
           id="g160"><g
             clip-path="url(#clipPath164)"
             id="g162"><text
   transform="matrix(1,0,0,-1,698.38,624.07)"
   id="text168"><tspan
     x="0"
     y="0"
     id="tspan170"
     style="font-size:12px;font-variant:normal;font-weight:bold;writing-mode:lr-tb;fill:#000000;fill-opacity:1;fill-rule:nonzero;stroke:none;font-family:Helvetica;-inkscape-font-specification:Helvetica-Bold">-</tspan></text>

</g></g><g
           id="g172"><g
             clip-path="url(#clipPath176)"
             id="g174"><text
   transform="matrix(1,0,0,-1,613.51,610.27)"
   id="text180"><tspan
     x="0 8.0279999 14.736 22.068001 26.016001 32.723999 40.056 48.720001 52.056 58.751999 65.351997 72.059998"
     y="0"
     id="tspan182"
     style="font-size:12px;font-variant:normal;font-weight:bold;writing-mode:lr-tb;fill:#000000;fill-opacity:1;fill-rule:nonzero;stroke:none;font-family:Helvetica;-inkscape-font-specification:Helvetica-Bold">EchtenKlasse</tspan></text>

</g></g><g
           id="g184"><g
             clip-path="url(#clipPath188)"
             id="g186" /></g><g
           id="g192"><g
             clip-path="url(#clipPath196)"
             id="g194" /></g><g
           id="g200"><g
             clip-path="url(#clipPath204)"
             id="g202"><text
   transform="matrix(1,0,0,-1,590.35,587.11)"
   id="text208"><tspan
     x="0 6.7080002 13.416 20.124001 24.120001 30.792 34.127998 36.683998 43.391998 50.099998 54.096001"
     y="0"
     id="tspan210"
     style="font-size:12px;font-variant:normal;font-weight:normal;writing-mode:lr-tb;fill:#000000;fill-opacity:1;fill-rule:nonzero;stroke:none;font-family:Helvetica;-inkscape-font-specification:Helvetica">operation()</tspan></text>

</g></g><g
           id="g212"><g
             clip-path="url(#clipPath216)"
             id="g214" /></g></g></g><path
       d="m 606.1,485.55 93.4,0 0,45.9 -93.4,0 0,-45.9 z"
       inkscape:connector-curvature="0"
       id="path220"
       style="fill:#ffffff;fill-opacity:1;fill-rule:evenodd;stroke:none" /><path
       d="m 606.1,485.55 93.4,0 0,45.9 -93.4,0 0,-45.9 z"
       inkscape:connector-curvature="0"
       id="path222"
       style="fill:none;stroke:#000000;stroke-width:0.75;stroke-linecap:round;stroke-linejoin:miter;stroke-miterlimit:8;stroke-opacity:1;stroke-dasharray:none" /><g
       id="g224"><g
         clip-path="url(#clipPath228)"
         id="g226"><g
           id="g232"><g
             clip-path="url(#clipPath236)"
             id="g234"><text
   transform="matrix(1,0,0,-1,636.19,516.31)"
   id="text240"><tspan
     x="0 8.0279999 12.696 20.028 26.856001"
     y="0"
     id="tspan242"
     style="font-size:12px;font-variant:normal;font-weight:bold;writing-mode:lr-tb;fill:#000000;fill-opacity:1;fill-rule:nonzero;stroke:none;font-family:Helvetica;-inkscape-font-specification:Helvetica-Bold">Proxy</tspan></text>

</g></g><g
           id="g244"><g
             clip-path="url(#clipPath248)"
             id="g246" /></g><g
           id="g252"><g
             clip-path="url(#clipPath256)"
             id="g254" /></g><g
           id="g260"><g
             clip-path="url(#clipPath264)"
             id="g262"><text
   transform="matrix(1,0,0,-1,613.75,493.27)"
   id="text268"><tspan
     x="0 6.7080002 13.416 20.124001 24.120001 30.792 34.127998 36.683998 43.391998 50.099998 54.096001"
     y="0"
     id="tspan270"
     style="font-size:12px;font-variant:normal;font-weight:normal;writing-mode:lr-tb;fill:#000000;fill-opacity:1;fill-rule:nonzero;stroke:none;font-family:Helvetica;-inkscape-font-specification:Helvetica">operation()</tspan></text>

</g></g><g
           id="g272"><g
             clip-path="url(#clipPath276)"
             id="g274" /></g></g></g><path
       d="m 758.9,485.55 93.4,0 0,45.9 -93.4,0 0,-45.9 z"
       inkscape:connector-curvature="0"
       id="path280"
       style="fill:#ffffff;fill-opacity:1;fill-rule:evenodd;stroke:none" /><path
       d="m 758.9,485.55 93.4,0 0,45.9 -93.4,0 0,-45.9 z"
       inkscape:connector-curvature="0"
       id="path282"
       style="fill:none;stroke:#000000;stroke-width:0.75;stroke-linecap:round;stroke-linejoin:miter;stroke-miterlimit:8;stroke-opacity:1;stroke-dasharray:none" /><g
       id="g284"><g
         clip-path="url(#clipPath288)"
         id="g286"><g
           id="g292"><g
             clip-path="url(#clipPath296)"
             id="g294"><text
   transform="matrix(1,0,0,-1,770.02,516.31)"
   id="text300"><tspan
     x="0 8.0279999 14.736 22.068001 26.016001 32.723999 41.388 44.723999 51.431999 58.032001 64.739998"
     y="0"
     id="tspan302"
     style="font-size:12px;font-variant:normal;font-weight:bold;writing-mode:lr-tb;fill:#000000;fill-opacity:1;fill-rule:nonzero;stroke:none;font-family:Helvetica;-inkscape-font-specification:Helvetica-Bold">EchteKlasse</tspan></text>

</g></g><g
           id="g304"><g
             clip-path="url(#clipPath308)"
             id="g306" /></g><g
           id="g312"><g
             clip-path="url(#clipPath316)"
             id="g314" /></g><g
           id="g320"><g
             clip-path="url(#clipPath324)"
             id="g322"><text
   transform="matrix(1,0,0,-1,766.66,493.27)"
   id="text328"><tspan
     x="0 6.7080002 13.416 20.124001 24.120001 30.792 34.127998 36.683998 43.391998 50.099998 54.096001"
     y="0"
     id="tspan330"
     style="font-size:12px;font-variant:normal;font-weight:normal;writing-mode:lr-tb;fill:#000000;fill-opacity:1;fill-rule:nonzero;stroke:none;font-family:Helvetica;-inkscape-font-specification:Helvetica">operation()</tspan></text>

</g></g><g
           id="g332"><g
             clip-path="url(#clipPath336)"
             id="g334" /></g></g></g><path
       d="m 723.15,589.3 6.51,-11.13 6.18,8.86 -12.69,2.27 z"
       inkscape:connector-curvature="0"
       id="path340"
       style="fill:#ffffff;fill-opacity:1;fill-rule:evenodd;stroke:none" /><path
       d="m 723.15,589.3 6.51,-11.13 6.18,8.86 -12.69,2.27 z"
       inkscape:connector-curvature="0"
       id="path342"
       style="fill:none;stroke:#000000;stroke-width:0.69999999;stroke-linecap:round;stroke-linejoin:round;stroke-miterlimit:8;stroke-opacity:1;stroke-dasharray:none" /><path
       d="m 606.1,508.4 93.4,0"
       inkscape:connector-curvature="0"
       id="path344"
       style="fill:none;stroke:#000000;stroke-width:0.75;stroke-linecap:round;stroke-linejoin:round;stroke-miterlimit:8;stroke-opacity:1;stroke-dasharray:none" /><path
       d="m 582.65,602.4 140.35,0"
       inkscape:connector-curvature="0"
       id="path346"
       style="fill:none;stroke:#000000;stroke-width:0.75;stroke-linecap:round;stroke-linejoin:round;stroke-miterlimit:8;stroke-opacity:1;stroke-dasharray:none" /><path
       d="m 758.8,508.4 93.4,0"
       inkscape:connector-curvature="0"
       id="path348"
       style="fill:none;stroke:#000000;stroke-width:0.75;stroke-linecap:round;stroke-linejoin:round;stroke-miterlimit:8;stroke-opacity:1;stroke-dasharray:none" /></g></svg>