<?xml version="1.0" encoding="UTF-8" standalone="no"?>
<!-- Created with Inkscape (http://www.inkscape.org/) -->

<svg
   xmlns:dc="http://purl.org/dc/elements/1.1/"
   xmlns:cc="http://creativecommons.org/ns#"
   xmlns:rdf="http://www.w3.org/1999/02/22-rdf-syntax-ns#"
   xmlns:svg="http://www.w3.org/2000/svg"
   xmlns="http://www.w3.org/2000/svg"
   xmlns:sodipodi="http://sodipodi.sourceforge.net/DTD/sodipodi-0.dtd"
   xmlns:inkscape="http://www.inkscape.org/namespaces/inkscape"
   version="1.1"
   width="666.16638"
   height="363"
   id="svg2"
   xml:space="preserve"
   inkscape:version="0.48.4 r9939"
   sodipodi:docname="Bild 4-27 Sequenzdiagramm des Schablonenmethode-Musters.svg"><sodipodi:namedview
     pagecolor="#ffffff"
     bordercolor="#666666"
     borderopacity="1"
     objecttolerance="10"
     gridtolerance="10"
     guidetolerance="10"
     inkscape:pageopacity="0"
     inkscape:pageshadow="2"
     inkscape:window-width="640"
     inkscape:window-height="480"
     id="namedview138"
     showgrid="false"
     inkscape:zoom="0.18730159"
     inkscape:cx="134.53125"
     inkscape:cy="273.46875"
     inkscape:window-x="0"
     inkscape:window-y="0"
     inkscape:window-maximized="0"
     inkscape:current-layer="svg2" /><metadata
     id="metadata8"><rdf:RDF><cc:Work
         rdf:about=""><dc:format>image/svg+xml</dc:format><dc:type
           rdf:resource="http://purl.org/dc/dcmitype/StillImage" /></cc:Work></rdf:RDF></metadata><defs
     id="defs6"><clipPath
       id="clipPath20"><path
         d="m 676.77,540.67 135.12,0 0,18.36 -135.12,0 0,-18.36 z"
         inkscape:connector-curvature="0"
         id="path22" /></clipPath><clipPath
       id="clipPath28"><path
         d="m 676.78,540.67 135.12,0 0,18.36 -135.12,0 0,-18.36 z"
         inkscape:connector-curvature="0"
         id="path30" /></clipPath><clipPath
       id="clipPath40"><path
         d="m 676.78,540.67 135.12,0 0,18.36 -135.12,0 0,-18.36 z"
         inkscape:connector-curvature="0"
         id="path42" /></clipPath><clipPath
       id="clipPath52"><path
         d="m 676.78,540.67 135.12,0 0,18.36 -135.12,0 0,-18.36 z"
         inkscape:connector-curvature="0"
         id="path54" /></clipPath><clipPath
       id="clipPath60"><path
         d="m 456.65,484.15 141.63,0 0,16.08 -141.63,0 0,-16.08 z"
         inkscape:connector-curvature="0"
         id="path62" /></clipPath><clipPath
       id="clipPath68"><path
         d="m 456.65,484.15 141.62,0 0,16.08 -141.62,0 0,-16.08 z"
         inkscape:connector-curvature="0"
         id="path70" /></clipPath><clipPath
       id="clipPath80"><path
         d="m 456.65,484.15 141.62,0 0,16.08 -141.62,0 0,-16.08 z"
         inkscape:connector-curvature="0"
         id="path82" /></clipPath><clipPath
       id="clipPath100"><path
         d="m 397.13,540.67 92.19,0 0,18.36 -92.19,0 0,-18.36 z"
         inkscape:connector-curvature="0"
         id="path102" /></clipPath><clipPath
       id="clipPath108"><path
         d="m 397.13,540.67 92.184,0 0,18.36 -92.184,0 0,-18.36 z"
         inkscape:connector-curvature="0"
         id="path110" /></clipPath><clipPath
       id="clipPath120"><path
         d="m 397.13,540.67 92.184,0 0,18.36 -92.184,0 0,-18.36 z"
         inkscape:connector-curvature="0"
         id="path122" /></clipPath><clipPath
       id="clipPath132"><path
         d="m 397.13,540.67 92.184,0 0,18.36 -92.184,0 0,-18.36 z"
         inkscape:connector-curvature="0"
         id="path134" /></clipPath><clipPath
       id="clipPath150"><path
         d="m 802.41,465.67 140.67,0 0,16.08 -140.67,0 0,-16.08 z"
         inkscape:connector-curvature="0"
         id="path152" /></clipPath><clipPath
       id="clipPath158"><path
         d="m 802.42,465.67 140.66,0 0,16.08 -140.66,0 0,-16.08 z"
         inkscape:connector-curvature="0"
         id="path160" /></clipPath><clipPath
       id="clipPath170"><path
         d="m 802.42,465.67 140.66,0 0,16.08 -140.66,0 0,-16.08 z"
         inkscape:connector-curvature="0"
         id="path172" /></clipPath><clipPath
       id="clipPath182"><path
         d="m 802.42,465.67 140.66,0 0,16.08 -140.66,0 0,-16.08 z"
         inkscape:connector-curvature="0"
         id="path184" /></clipPath><clipPath
       id="clipPath194"><path
         d="m 802.42,465.67 140.66,0 0,16.08 -140.66,0 0,-16.08 z"
         inkscape:connector-curvature="0"
         id="path196" /></clipPath><clipPath
       id="clipPath206"><path
         d="m 801.09,373.12 143.67,0 0,14.76 -143.67,0 0,-14.76 z"
         inkscape:connector-curvature="0"
         id="path208" /></clipPath><clipPath
       id="clipPath214"><path
         d="m 801.1,373.13 143.66,0 0,14.76 -143.66,0 0,-14.76 z"
         inkscape:connector-curvature="0"
         id="path216" /></clipPath><clipPath
       id="clipPath226"><path
         d="m 801.1,373.13 143.66,0 0,14.76 -143.66,0 0,-14.76 z"
         inkscape:connector-curvature="0"
         id="path228" /></clipPath><clipPath
       id="clipPath252"><path
         d="m 459.05,324.28 198.05,0 0,16.08 -198.05,0 0,-16.08 z"
         inkscape:connector-curvature="0"
         id="path254" /></clipPath><clipPath
       id="clipPath260"><path
         d="m 459.05,324.29 198.05,0 0,16.08 -198.05,0 0,-16.08 z"
         inkscape:connector-curvature="0"
         id="path262" /></clipPath><clipPath
       id="clipPath272"><path
         d="m 459.05,324.29 198.05,0 0,16.08 -198.05,0 0,-16.08 z"
         inkscape:connector-curvature="0"
         id="path274" /></clipPath></defs><g
     transform="matrix(1.25,0,0,-1.25,-495.84375,719.53125)"
     id="g10"><path
       d="m 453.3,481.2 269.4,-0.05 c 0.28,0 0.5,-0.22 0.5,-0.5 0,-0.27 -0.22,-0.5 -0.5,-0.5 l -269.4,0.05 c -0.28,0 -0.5,0.22 -0.5,0.5 0,0.28 0.22,0.5 0.5,0.5 z m 268.4,4.45 10,-5 -10,-5 0,10 z"
       inkscape:connector-curvature="0"
       id="path12"
       style="fill:#000000;fill-opacity:1;fill-rule:nonzero;stroke:none" /><path
       d="m 671.8,524.1 147.5,0 0,51.15 -147.5,0 0,-51.15 z"
       inkscape:connector-curvature="0"
       id="path14"
       style="fill:none;stroke:#000000;stroke-width:0.75;stroke-linecap:round;stroke-linejoin:miter;stroke-miterlimit:10;stroke-opacity:1;stroke-dasharray:none" /><g
       id="g16"><g
         clip-path="url(#clipPath20)"
         id="g18"><g
           id="g24"><g
             clip-path="url(#clipPath28)"
             id="g26"><text
   transform="matrix(1,0,0,-1,676.78,544.39)"
   id="text32"><tspan
     x="0"
     y="0"
     id="tspan34"
     style="font-size:15.96000004px;font-variant:normal;font-weight:normal;writing-mode:lr-tb;fill:#000000;fill-opacity:1;fill-rule:nonzero;stroke:none;font-family:Helvetica;-inkscape-font-specification:Helvetica">:</tspan></text>

</g></g><g
           id="g36"><g
             clip-path="url(#clipPath40)"
             id="g38"><text
   transform="matrix(1,0,0,-1,681.22,544.39)"
   id="text44"><tspan
     x="0 10.64532 19.519079 28.392839 36.468601 41.783279 50.65704 55.093922 63.967682 74.612999 78.219963 87.093719 95.121597 103.14948"
     y="0"
     id="tspan46"
     style="font-size:15.96000004px;font-variant:normal;font-weight:normal;writing-mode:lr-tb;fill:#000000;fill-opacity:1;fill-rule:nonzero;stroke:none;font-family:Helvetica;-inkscape-font-specification:Helvetica">KonkreteKlasse</tspan></text>

</g></g><g
           id="g48"><g
             clip-path="url(#clipPath52)"
             id="g50" /></g></g></g><g
       id="g56"><g
         clip-path="url(#clipPath60)"
         id="g58"><g
           id="g64"><g
             clip-path="url(#clipPath68)"
             id="g66"><text
   transform="matrix(1,0,0,-1,456.65,487.27)"
   id="text72"><tspan
     x="0 7.06212 14.12424 21.804119 29.610359 37.416599 40.533482 48.339722 56.145962 63.952202 71.758438 83.369522 91.0494 94.994637 102.80088 110.60712 118.27296 126.0792 130.75452"
     y="0"
     id="tspan74"
     style="font-size:14.03999996px;font-variant:normal;font-weight:normal;writing-mode:lr-tb;fill:#000000;fill-opacity:1;fill-rule:nonzero;stroke:none;font-family:Helvetica;-inkscape-font-specification:Helvetica">schablonenmethode()</tspan></text>

</g></g><g
           id="g76"><g
             clip-path="url(#clipPath80)"
             id="g78" /></g></g></g><g
       id="g84"><path
         d="M 744.85,524.2 744.9,285.75"
         inkscape:connector-curvature="0"
         id="path86"
         style="fill:none;stroke:#000000;stroke-width:0.75;stroke-linecap:round;stroke-linejoin:round;stroke-miterlimit:10;stroke-opacity:1;stroke-dasharray:5.25, 3;stroke-dashoffset:0" /></g><path
       d="m 733.2,320.15 22.7,0 0,160.6 -22.7,0 0,-160.6 z"
       inkscape:connector-curvature="0"
       id="path88"
       style="fill:#ffffff;fill-opacity:1;fill-rule:evenodd;stroke:none" /><path
       d="m 733.2,320.15 22.7,0 0,160.6 -22.7,0 0,-160.6 z"
       inkscape:connector-curvature="0"
       id="path90"
       style="fill:#ffffff;fill-opacity:1;fill-rule:evenodd;stroke:none" /><path
       d="m 733.2,320.15 22.7,0 0,160.6 -22.7,0 0,-160.6 z"
       inkscape:connector-curvature="0"
       id="path92"
       style="fill:none;stroke:#000000;stroke-width:0.75;stroke-linecap:round;stroke-linejoin:miter;stroke-miterlimit:10;stroke-opacity:1;stroke-dasharray:none" /><path
       d="m 397.05,524.05 92.25,0 0,51.2 -92.25,0 0,-51.2 z"
       inkscape:connector-curvature="0"
       id="path94"
       style="fill:none;stroke:#000000;stroke-width:0.75;stroke-linecap:round;stroke-linejoin:miter;stroke-miterlimit:10;stroke-opacity:1;stroke-dasharray:none" /><g
       id="g96"><g
         clip-path="url(#clipPath100)"
         id="g98"><g
           id="g104"><g
             clip-path="url(#clipPath108)"
             id="g106"><text
   transform="matrix(1,0,0,-1,420.53,544.39)"
   id="text112"><tspan
     x="0"
     y="0"
     id="tspan114"
     style="font-size:15.96000004px;font-variant:normal;font-weight:normal;writing-mode:lr-tb;fill:#000000;fill-opacity:1;fill-rule:nonzero;stroke:none;font-family:Helvetica;-inkscape-font-specification:Helvetica">:</tspan></text>

</g></g><g
           id="g116"><g
             clip-path="url(#clipPath120)"
             id="g118"><text
   transform="matrix(1,0,0,-1,424.97,544.39)"
   id="text124"><tspan
     x="0 11.52312 15.09816 18.689159 27.56292 36.43668"
     y="0"
     id="tspan126"
     style="font-size:15.96000004px;font-variant:normal;font-weight:normal;writing-mode:lr-tb;fill:#000000;fill-opacity:1;fill-rule:nonzero;stroke:none;font-family:Helvetica;-inkscape-font-specification:Helvetica">Client</tspan></text>

</g></g><g
           id="g128"><g
             clip-path="url(#clipPath132)"
             id="g130" /></g></g></g><g
       id="g136"><path
         d="M 442.55,524.05 442.6,285.6"
         inkscape:connector-curvature="0"
         id="path138"
         style="fill:none;stroke:#000000;stroke-width:0.75;stroke-linecap:round;stroke-linejoin:round;stroke-miterlimit:10;stroke-opacity:1;stroke-dasharray:5.25, 3;stroke-dashoffset:0" /></g><path
       d="m 430.6,292.4 22.7,0 0,225.45 -22.7,0 0,-225.45 z"
       inkscape:connector-curvature="0"
       id="path140"
       style="fill:#ffffff;fill-opacity:1;fill-rule:evenodd;stroke:none" /><path
       d="m 430.6,292.4 22.7,0 0,225.45 -22.7,0 0,-225.45 z"
       inkscape:connector-curvature="0"
       id="path142"
       style="fill:#ffffff;fill-opacity:1;fill-rule:evenodd;stroke:none" /><path
       d="m 430.6,292.4 22.7,0 0,225.45 -22.7,0 0,-225.45 z"
       inkscape:connector-curvature="0"
       id="path144"
       style="fill:none;stroke:#000000;stroke-width:0.75;stroke-linecap:round;stroke-linejoin:miter;stroke-miterlimit:10;stroke-opacity:1;stroke-dasharray:none" /><g
       id="g146"><g
         clip-path="url(#clipPath150)"
         id="g148"><g
           id="g154"><g
             clip-path="url(#clipPath158)"
             id="g156"><text
   transform="matrix(1,0,0,-1,802.42,468.79)"
   id="text162"><tspan
     x="0 7.8062401 10.92312 18.729361 25.679159 32.74128 40.54752 48.35376 56.16 67.785118 75.591362 79.424278 87.230522 95.036758 102.843 110.64924"
     y="0"
     id="tspan164"
     style="font-size:14.03999996px;font-variant:normal;font-weight:normal;writing-mode:lr-tb;fill:#000000;fill-opacity:1;fill-rule:nonzero;stroke:none;font-family:Helvetica;-inkscape-font-specification:Helvetica">einschubmethode1</tspan></text>

</g></g><g
           id="g166"><g
             clip-path="url(#clipPath170)"
             id="g168"><text
   transform="matrix(1,0,0,-1,920.76,468.79)"
   id="text174"><tspan
     x="0"
     y="0"
     id="tspan176"
     style="font-size:14.03999996px;font-variant:normal;font-weight:normal;writing-mode:lr-tb;fill:#000000;fill-opacity:1;fill-rule:nonzero;stroke:none;font-family:Helvetica;-inkscape-font-specification:Helvetica">(</tspan></text>

</g></g><g
           id="g178"><g
             clip-path="url(#clipPath182)"
             id="g180"><text
   transform="matrix(1,0,0,-1,925.44,468.79)"
   id="text186"><tspan
     x="0"
     y="0"
     id="tspan188"
     style="font-size:14.03999996px;font-variant:normal;font-weight:normal;writing-mode:lr-tb;fill:#000000;fill-opacity:1;fill-rule:nonzero;stroke:none;font-family:Helvetica;-inkscape-font-specification:Helvetica">)</tspan></text>

</g></g><g
           id="g190"><g
             clip-path="url(#clipPath194)"
             id="g192" /></g></g></g><path
       d="m 747,334.9 22.75,0 0,20.45 -22.75,0 0,-20.45 z"
       inkscape:connector-curvature="0"
       id="path198"
       style="fill:#ffffff;fill-opacity:1;fill-rule:evenodd;stroke:none" /><path
       d="m 747,334.9 22.75,0 0,20.45 -22.75,0 0,-20.45 z"
       inkscape:connector-curvature="0"
       id="path200"
       style="fill:none;stroke:#000000;stroke-width:0.75;stroke-linecap:round;stroke-linejoin:miter;stroke-miterlimit:10;stroke-opacity:1;stroke-dasharray:none" /><g
       id="g202"><g
         clip-path="url(#clipPath206)"
         id="g204"><g
           id="g210"><g
             clip-path="url(#clipPath214)"
             id="g212"><text
   transform="matrix(1,0,0,-1,801.1,374.93)"
   id="text218"><tspan
     x="0 7.8062401 10.92312 18.729361 25.679159 32.74128 40.54752 48.35376 56.16 67.785118 75.591362 79.424278 87.230522 95.036758 102.843 110.64924 118.30104 122.97636"
     y="0"
     id="tspan220"
     style="font-size:14.03999996px;font-variant:normal;font-weight:normal;writing-mode:lr-tb;fill:#000000;fill-opacity:1;fill-rule:nonzero;stroke:none;font-family:Helvetica;-inkscape-font-specification:Helvetica">einschubmethode2()</tspan></text>

</g></g><g
           id="g222"><g
             clip-path="url(#clipPath226)"
             id="g224" /></g></g></g><path
       d="m 733.9,319.65 -7,0.04 c -0.28,0 -0.5,0.22 -0.5,0.5 0,0.27 0.23,0.5 0.5,0.5 l 7,-0.04 c 0.28,0 0.5,-0.23 0.5,-0.5 0,-0.28 -0.23,-0.5 -0.5,-0.5 z m -11,0.06 -7,0.03 c -0.28,0 -0.5,0.23 -0.5,0.51 0,0.27 0.23,0.49 0.5,0.49 l 7,-0.03 c 0.28,0 0.5,-0.23 0.5,-0.51 0,-0.27 -0.23,-0.49 -0.5,-0.49 z m -11,0.05 -7,0.04 c -0.28,0 -0.5,0.23 -0.5,0.5 0,0.28 0.23,0.5 0.5,0.5 l 7,-0.04 c 0.28,0 0.5,-0.22 0.5,-0.5 0,-0.27 -0.23,-0.5 -0.5,-0.5 z m -11,0.06 -7,0.04 c -0.28,0 -0.5,0.22 -0.5,0.5 0,0.28 0.23,0.5 0.5,0.5 l 7,-0.04 c 0.28,0 0.5,-0.23 0.5,-0.5 0,-0.28 -0.23,-0.5 -0.5,-0.5 z m -11,0.06 -7,0.03 c -0.28,0.01 -0.5,0.23 -0.5,0.51 0,0.27 0.23,0.49 0.5,0.49 l 7,-0.03 c 0.28,0 0.5,-0.23 0.5,-0.51 0,-0.27 -0.23,-0.49 -0.5,-0.49 z m -11,0.05 -7,0.04 c -0.28,0 -0.5,0.23 -0.5,0.5 0,0.28 0.23,0.5 0.5,0.5 l 7,-0.04 c 0.28,0 0.5,-0.22 0.5,-0.5 0,-0.27 -0.23,-0.5 -0.5,-0.5 z m -11,0.06 -7,0.04 c -0.28,0 -0.5,0.22 -0.5,0.5 0,0.28 0.23,0.5 0.5,0.5 l 7,-0.04 c 0.28,0 0.5,-0.23 0.5,-0.5 0,-0.28 -0.23,-0.5 -0.5,-0.5 z m -11,0.06 -7,0.03 c -0.28,0.01 -0.5,0.23 -0.5,0.51 0,0.27 0.23,0.5 0.5,0.49 l 7,-0.03 c 0.28,0 0.5,-0.23 0.5,-0.5 0,-0.28 -0.23,-0.5 -0.5,-0.5 z m -11,0.05 -7,0.04 c -0.28,0 -0.5,0.23 -0.5,0.5 0,0.28 0.23,0.5 0.5,0.5 l 7,-0.04 c 0.28,0 0.5,-0.22 0.5,-0.5 0,-0.27 -0.23,-0.5 -0.5,-0.5 z m -11,0.06 -7,0.04 c -0.28,0 -0.5,0.22 -0.5,0.5 0,0.28 0.23,0.5 0.5,0.5 l 7,-0.04 c 0.28,0 0.5,-0.22 0.5,-0.5 0,-0.28 -0.23,-0.5 -0.5,-0.5 z m -11,0.06 -7,0.03 c -0.28,0.01 -0.5,0.23 -0.5,0.51 0,0.27 0.23,0.5 0.5,0.49 l 7,-0.03 c 0.28,0 0.5,-0.23 0.5,-0.5 0,-0.28 -0.23,-0.5 -0.5,-0.5 z m -11,0.06 -7,0.03 c -0.28,0 -0.5,0.23 -0.5,0.5 0,0.28 0.23,0.5 0.5,0.5 l 7,-0.03 c 0.28,-0.01 0.5,-0.23 0.5,-0.51 0,-0.27 -0.23,-0.5 -0.5,-0.49 z m -11,0.05 -7,0.04 c -0.28,0 -0.5,0.22 -0.5,0.5 0,0.28 0.23,0.5 0.5,0.5 l 7,-0.04 c 0.28,0 0.5,-0.22 0.5,-0.5 0,-0.28 -0.23,-0.5 -0.5,-0.5 z m -11,0.06 -7,0.03 c -0.28,0.01 -0.5,0.23 -0.5,0.51 0,0.27 0.23,0.5 0.5,0.49 l 7,-0.03 c 0.28,0 0.5,-0.23 0.5,-0.5 0,-0.28 -0.23,-0.5 -0.5,-0.5 z m -11,0.06 -7,0.03 c -0.28,0 -0.5,0.23 -0.5,0.5 0,0.28 0.23,0.5 0.5,0.5 l 7,-0.03 c 0.28,-0.01 0.5,-0.23 0.5,-0.51 0,-0.27 -0.22,-0.5 -0.5,-0.49 z m -11,0.05 -7,0.04 c -0.28,0 -0.5,0.22 -0.5,0.5 0,0.28 0.23,0.5 0.5,0.5 l 7,-0.04 c 0.28,0 0.5,-0.22 0.5,-0.5 0,-0.28 -0.22,-0.5 -0.5,-0.5 z m -11,0.06 -7,0.03 c -0.28,0.01 -0.5,0.23 -0.5,0.51 0,0.27 0.23,0.5 0.5,0.49 l 7,-0.03 c 0.28,0 0.5,-0.23 0.5,-0.5 0,-0.28 -0.22,-0.5 -0.5,-0.5 z m -11,0.06 -7,0.03 c -0.28,0 -0.5,0.23 -0.5,0.5 0,0.28 0.23,0.5 0.5,0.5 l 7,-0.03 c 0.28,-0.01 0.5,-0.23 0.5,-0.51 0,-0.27 -0.22,-0.5 -0.5,-0.49 z m -11,0.05 -7,0.04 c -0.28,0 -0.5,0.22 -0.5,0.5 0,0.28 0.23,0.5 0.5,0.5 l 7,-0.04 c 0.28,0 0.5,-0.22 0.5,-0.5 0,-0.28 -0.22,-0.5 -0.5,-0.5 z m -11,0.06 -7,0.03 c -0.28,0.01 -0.5,0.23 -0.5,0.51 0,0.27 0.23,0.5 0.5,0.49 l 7,-0.03 c 0.28,0 0.5,-0.23 0.5,-0.5 0,-0.28 -0.22,-0.5 -0.5,-0.5 z m -11,0.06 -7,0.03 c -0.28,0 -0.5,0.23 -0.5,0.5 0,0.28 0.23,0.5 0.51,0.5 l 6.99,-0.03 c 0.28,-0.01 0.5,-0.23 0.5,-0.51 0,-0.27 -0.22,-0.5 -0.5,-0.49 z m -11,0.05 -7,0.04 c -0.28,0 -0.5,0.22 -0.5,0.5 0,0.28 0.23,0.5 0.51,0.5 l 7,-0.04 c 0.27,0 0.49,-0.22 0.49,-0.5 0,-0.28 -0.22,-0.5 -0.5,-0.5 z m -11,0.06 -7,0.04 c -0.28,0 -0.5,0.22 -0.5,0.5 0,0.27 0.23,0.5 0.51,0.5 l 7,-0.04 c 0.27,0 0.49,-0.23 0.49,-0.5 0,-0.28 -0.22,-0.5 -0.5,-0.5 z m -11,0.06 -7,0.03 c -0.28,0 -0.5,0.23 -0.5,0.5 0,0.28 0.23,0.5 0.51,0.5 l 7,-0.03 c 0.27,-0.01 0.49,-0.23 0.49,-0.51 0,-0.27 -0.22,-0.5 -0.5,-0.49 z m -11,0.05 -7,0.04 c -0.28,0 -0.5,0.22 -0.5,0.5 0,0.28 0.23,0.5 0.51,0.5 l 7,-0.04 c 0.27,0 0.49,-0.22 0.49,-0.5 0,-0.28 -0.22,-0.5 -0.5,-0.5 z m -11,0.06 -4,0.02 c -0.28,0 -0.5,0.23 -0.5,0.5 0,0.28 0.23,0.5 0.5,0.5 l 4.01,-0.02 c 0.27,0 0.49,-0.23 0.49,-0.5 0,-0.28 -0.22,-0.5 -0.5,-0.5 z m 4.73,-4.96 -9.76,5.49 9.82,5.38 c 0.24,0.13 0.54,0.05 0.67,-0.2 0.14,-0.24 0.05,-0.54 -0.19,-0.67 l -9.03,-4.96 0,0.88 8.98,-5.05 c 0.24,-0.14 0.33,-0.44 0.19,-0.68 -0.14,-0.24 -0.44,-0.33 -0.68,-0.19 z"
       inkscape:connector-curvature="0"
       id="path230"
       style="fill:#000000;fill-opacity:1;fill-rule:nonzero;stroke:none" /><path
       d="m 748.9,420 22.75,0 0,21 -22.75,0 0,-21 z"
       inkscape:connector-curvature="0"
       id="path232"
       style="fill:#ffffff;fill-opacity:1;fill-rule:evenodd;stroke:none" /><path
       d="m 748.9,420 22.75,0 0,21 -22.75,0 0,-21 z"
       inkscape:connector-curvature="0"
       id="path234"
       style="fill:none;stroke:#000000;stroke-width:0.75;stroke-linecap:round;stroke-linejoin:miter;stroke-miterlimit:10;stroke-opacity:1;stroke-dasharray:none" /><path
       d="M 756.75,477 798,477"
       inkscape:connector-curvature="0"
       id="path236"
       style="fill:none;stroke:#000000;stroke-width:0.75;stroke-linecap:round;stroke-linejoin:round;stroke-miterlimit:10;stroke-opacity:1;stroke-dasharray:none" /><path
       d="m 798,477 0,-36"
       inkscape:connector-curvature="0"
       id="path238"
       style="fill:none;stroke:#000000;stroke-width:0.75;stroke-linecap:round;stroke-linejoin:round;stroke-miterlimit:10;stroke-opacity:1;stroke-dasharray:none" /><path
       d="m 798.75,440.5 -22.75,0 c -0.28,0 -0.5,0.22 -0.5,0.5 0,0.28 0.22,0.5 0.5,0.5 l 22.75,0 c 0.28,0 0.5,-0.22 0.5,-0.5 0,-0.28 -0.22,-0.5 -0.5,-0.5 z M 777,438 l -6,3 6,3 0,-6 z"
       inkscape:connector-curvature="0"
       id="path240"
       style="fill:#000000;fill-opacity:1;fill-rule:nonzero;stroke:none" /><path
       d="m 756,387 41.25,0"
       inkscape:connector-curvature="0"
       id="path242"
       style="fill:none;stroke:#000000;stroke-width:0.75;stroke-linecap:round;stroke-linejoin:round;stroke-miterlimit:10;stroke-opacity:1;stroke-dasharray:none" /><path
       d="m 797.25,387 0,-31.65"
       inkscape:connector-curvature="0"
       id="path244"
       style="fill:none;stroke:#000000;stroke-width:0.75;stroke-linecap:round;stroke-linejoin:round;stroke-miterlimit:10;stroke-opacity:1;stroke-dasharray:none" /><path
       d="m 798,354.85 -22.75,0 c -0.28,0 -0.5,0.22 -0.5,0.5 0,0.28 0.22,0.5 0.5,0.5 l 22.75,0 c 0.28,0 0.5,-0.22 0.5,-0.5 0,-0.28 -0.22,-0.5 -0.5,-0.5 z m -21.75,-2.5 -6,3 6,3 0,-6 z"
       inkscape:connector-curvature="0"
       id="path246"
       style="fill:#000000;fill-opacity:1;fill-rule:nonzero;stroke:none" /><g
       id="g248"><g
         clip-path="url(#clipPath252)"
         id="g250"><g
           id="g256"><g
             clip-path="url(#clipPath260)"
             id="g258"><text
   transform="matrix(1,0,0,-1,459.05,327.41)"
   id="text264"><tspan
     x="0 7.06212 14.12424 21.804119 29.610359 37.416599 40.533482 48.339722 56.145962 63.952202 71.758438 83.369522 91.0494 94.994637 102.80088 110.60712 118.27296 126.0792 130.75452 135.42984 139.27679 143.22205 147.16728 157.248 164.92789 171.99001 179.79623 182.91312"
     y="0"
     id="tspan266"
     style="font-size:14.03999996px;font-variant:normal;font-weight:normal;writing-mode:lr-tb;fill:#000000;fill-opacity:1;fill-rule:nonzero;stroke:none;font-family:Helvetica;-inkscape-font-specification:Helvetica">schablonenmethode() : Result</tspan></text>

</g></g><g
           id="g268"><g
             clip-path="url(#clipPath272)"
             id="g270" /></g></g></g></g></svg>