<?xml version="1.0" encoding="UTF-8" standalone="no"?>
<!-- Created with Inkscape (http://www.inkscape.org/) -->

<svg
   xmlns:dc="http://purl.org/dc/elements/1.1/"
   xmlns:cc="http://creativecommons.org/ns#"
   xmlns:rdf="http://www.w3.org/1999/02/22-rdf-syntax-ns#"
   xmlns:svg="http://www.w3.org/2000/svg"
   xmlns="http://www.w3.org/2000/svg"
   xmlns:sodipodi="http://sodipodi.sourceforge.net/DTD/sodipodi-0.dtd"
   xmlns:inkscape="http://www.inkscape.org/namespaces/inkscape"
   version="1.1"
   width="158.47598"
   height="265.3125"
   id="svg2"
   xml:space="preserve"
   inkscape:version="0.48.4 r9939"
   sodipodi:docname="Bild 4-44 Objektdiagramm des Rollen-Musters.svg"><sodipodi:namedview
     pagecolor="#ffffff"
     bordercolor="#666666"
     borderopacity="1"
     objecttolerance="10"
     gridtolerance="10"
     guidetolerance="10"
     inkscape:pageopacity="0"
     inkscape:pageshadow="2"
     inkscape:window-width="640"
     inkscape:window-height="480"
     id="namedview69"
     showgrid="false"
     inkscape:zoom="0.18730159"
     inkscape:cx="220.21875"
     inkscape:cy="221.71875"
     inkscape:window-x="0"
     inkscape:window-y="0"
     inkscape:window-maximized="0"
     inkscape:current-layer="svg2" /><metadata
     id="metadata8"><rdf:RDF><cc:Work
         rdf:about=""><dc:format>image/svg+xml</dc:format><dc:type
           rdf:resource="http://purl.org/dc/dcmitype/StillImage" /></cc:Work></rdf:RDF></metadata><defs
     id="defs6"><clipPath
       id="clipPath20"><path
         d="m 332.69,480.19 90,0 0,54.24 -90,0 0,-54.24 z"
         inkscape:connector-curvature="0"
         id="path22" /></clipPath><clipPath
       id="clipPath28"><path
         d="m 332.69,480.19 90,0 0,54.24 -90,0 0,-54.24 z"
         inkscape:connector-curvature="0"
         id="path30" /></clipPath><clipPath
       id="clipPath40"><path
         d="m 332.69,480.19 90,0 0,54.24 -90,0 0,-54.24 z"
         inkscape:connector-curvature="0"
         id="path42" /></clipPath><clipPath
       id="clipPath52"><path
         d="m 332.69,480.19 90,0 0,54.24 -90,0 0,-54.24 z"
         inkscape:connector-curvature="0"
         id="path54" /></clipPath><clipPath
       id="clipPath70"><path
         d="m 328.97,330.88 97.44,0 0,54.24 -97.44,0 0,-54.24 z"
         inkscape:connector-curvature="0"
         id="path72" /></clipPath><clipPath
       id="clipPath78"><path
         d="m 328.97,330.89 97.44,0 0,54.24 -97.44,0 0,-54.24 z"
         inkscape:connector-curvature="0"
         id="path80" /></clipPath><clipPath
       id="clipPath90"><path
         d="m 328.97,330.89 97.44,0 0,54.24 -97.44,0 0,-54.24 z"
         inkscape:connector-curvature="0"
         id="path92" /></clipPath><clipPath
       id="clipPath102"><path
         d="m 328.97,330.89 97.44,0 0,54.24 -97.44,0 0,-54.24 z"
         inkscape:connector-curvature="0"
         id="path104" /></clipPath><clipPath
       id="clipPath114"><path
         d="m 389.45,425.08 106.47,0 0,18.99 -106.47,0 0,-18.99 z"
         inkscape:connector-curvature="0"
         id="path116" /></clipPath><clipPath
       id="clipPath122"><path
         d="m 389.45,425.09 106.46,0 0,18.984 -106.46,0 0,-18.984 z"
         inkscape:connector-curvature="0"
         id="path124" /></clipPath><clipPath
       id="clipPath134"><path
         d="m 389.45,425.09 106.46,0 0,18.984 -106.46,0 0,-18.984 z"
         inkscape:connector-curvature="0"
         id="path136" /></clipPath></defs><g
     transform="matrix(1.25,0,0,-1.25,-410.15625,673.59375)"
     id="g10"><path
       d="m 332.25,476.25 90.75,0 0,62.25 -90.75,0 0,-62.25 z"
       inkscape:connector-curvature="0"
       id="path12"
       style="fill:#ffffff;fill-opacity:1;fill-rule:evenodd;stroke:none" /><path
       d="m 332.25,476.25 90.75,0 0,62.25 -90.75,0 0,-62.25 z"
       inkscape:connector-curvature="0"
       id="path14"
       style="fill:none;stroke:#000000;stroke-width:0.75;stroke-linecap:round;stroke-linejoin:miter;stroke-miterlimit:10;stroke-opacity:1;stroke-dasharray:none" /><g
       id="g16"><g
         clip-path="url(#clipPath20)"
         id="g18"><g
           id="g24"><g
             clip-path="url(#clipPath28)"
             id="g26"><text
   transform="matrix(1,0,0,-1,358.37,523.27)"
   id="text32"><tspan
     x="0 3.336 12 18.708 21.372 23.988001"
     y="0"
     id="tspan34"
     style="font-size:12px;font-variant:normal;font-weight:normal;writing-mode:lr-tb;fill:#000000;fill-opacity:1;fill-rule:nonzero;stroke:none;font-family:Helvetica;-inkscape-font-specification:Helvetica">:Rolle</tspan></text>

</g></g><g
           id="g36"><g
             clip-path="url(#clipPath40)"
             id="g38"><text
   transform="matrix(1,0,0,-1,389.09,523.27)"
   id="text44"><tspan
     x="0"
     y="0"
     id="tspan46"
     style="font-size:12px;font-variant:normal;font-weight:normal;writing-mode:lr-tb;fill:#000000;fill-opacity:1;fill-rule:nonzero;stroke:none;font-family:Helvetica;-inkscape-font-specification:Helvetica">X</tspan></text>

</g></g><g
           id="g48"><g
             clip-path="url(#clipPath52)"
             id="g50" /></g></g></g><path
       d="m 378.38,475.5 -7.88,-7.72 7.88,-7.73 7.87,7.73 -7.87,7.72 z"
       inkscape:connector-curvature="0"
       id="path56"
       style="fill:#ffffff;fill-opacity:1;fill-rule:evenodd;stroke:none" /><path
       d="m 378.38,475.5 -7.88,-7.72 7.88,-7.73 7.87,7.73 -7.87,7.72 z"
       inkscape:connector-curvature="0"
       id="path58"
       style="fill:none;stroke:#000000;stroke-width:0.75;stroke-linecap:round;stroke-linejoin:round;stroke-miterlimit:10;stroke-opacity:1;stroke-dasharray:none" /><path
       d="m 378,460.05 0,-70.8"
       inkscape:connector-curvature="0"
       id="path60"
       style="fill:none;stroke:#000000;stroke-width:0.75;stroke-linecap:round;stroke-linejoin:round;stroke-miterlimit:10;stroke-opacity:1;stroke-dasharray:none" /><path
       d="m 328.5,327 98.25,0 0,62.25 -98.25,0 0,-62.25 z"
       inkscape:connector-curvature="0"
       id="path62"
       style="fill:#ffffff;fill-opacity:1;fill-rule:evenodd;stroke:none" /><path
       d="m 328.5,327 98.25,0 0,62.25 -98.25,0 0,-62.25 z"
       inkscape:connector-curvature="0"
       id="path64"
       style="fill:none;stroke:#000000;stroke-width:0.75;stroke-linecap:round;stroke-linejoin:miter;stroke-miterlimit:8;stroke-opacity:1;stroke-dasharray:none" /><g
       id="g66"><g
         clip-path="url(#clipPath70)"
         id="g68"><g
           id="g74"><g
             clip-path="url(#clipPath78)"
             id="g76"><text
   transform="matrix(1,0,0,-1,346.37,373.97)"
   id="text82"><tspan
     x="0"
     y="0"
     id="tspan84"
     style="font-size:12px;font-variant:normal;font-weight:normal;writing-mode:lr-tb;fill:#000000;fill-opacity:1;fill-rule:nonzero;stroke:none;font-family:Helvetica;-inkscape-font-specification:Helvetica">:</tspan></text>

</g></g><g
           id="g86"><g
             clip-path="url(#clipPath90)"
             id="g88"><text
   transform="matrix(1,0,0,-1,349.73,373.97)"
   id="text94"><tspan
     x="0 8.0279999 14.736 18.732 25.403999 31.403999 34.068001 40.764 46.764 52.764"
     y="0"
     id="tspan96"
     style="font-size:12px;font-variant:normal;font-weight:normal;writing-mode:lr-tb;fill:#000000;fill-opacity:1;fill-rule:nonzero;stroke:none;font-family:Helvetica;-inkscape-font-specification:Helvetica">Kernklasse</tspan></text>

</g></g><g
           id="g98"><g
             clip-path="url(#clipPath102)"
             id="g100" /></g></g></g><path
       d="m 387.75,441.75 -5.25,-8.25 10.5,0 -5.25,8.25 z"
       inkscape:connector-curvature="0"
       id="path106"
       style="fill:#000000;fill-opacity:1;fill-rule:evenodd;stroke:none" /><path
       d="m 387.75,441.75 -5.25,-8.25 10.5,0 -5.25,8.25 z"
       inkscape:connector-curvature="0"
       id="path108"
       style="fill:none;stroke:#000000;stroke-width:0.75;stroke-linecap:round;stroke-linejoin:round;stroke-miterlimit:8;stroke-opacity:1;stroke-dasharray:none" /><g
       id="g110"><g
         clip-path="url(#clipPath114)"
         id="g112"><g
           id="g118"><g
             clip-path="url(#clipPath122)"
             id="g120"><text
   transform="matrix(1,0,0,-1,396.65,432.89)"
   id="text126"><tspan
     x="0 6 12.708 15.372 22.044001 24.708 28.044001 31.416 40.080002 46.751999 49.416 52.080002"
     y="0"
     id="tspan128"
     style="font-size:12px;font-variant:normal;font-weight:normal;writing-mode:lr-tb;fill:#000000;fill-opacity:1;fill-rule:nonzero;stroke:none;font-family:Helvetica;-inkscape-font-specification:Helvetica">spielt Rolle</tspan></text>

</g></g><g
           id="g130"><g
             clip-path="url(#clipPath134)"
             id="g132" /></g></g></g></g></svg>