<?xml version="1.0" encoding="UTF-8" standalone="no"?>
<!-- Created with Inkscape (http://www.inkscape.org/) -->

<svg
   xmlns:dc="http://purl.org/dc/elements/1.1/"
   xmlns:cc="http://creativecommons.org/ns#"
   xmlns:rdf="http://www.w3.org/1999/02/22-rdf-syntax-ns#"
   xmlns:svg="http://www.w3.org/2000/svg"
   xmlns="http://www.w3.org/2000/svg"
   xmlns:sodipodi="http://sodipodi.sourceforge.net/DTD/sodipodi-0.dtd"
   xmlns:inkscape="http://www.inkscape.org/namespaces/inkscape"
   version="1.1"
   width="720.9375"
   height="371.3125"
   id="svg2"
   xml:space="preserve"
   inkscape:version="0.48.4 r9939"
   sodipodi:docname="Bild 4-54 Sequenzdiagramm für das Iterator-Muster.svg"><sodipodi:namedview
     pagecolor="#ffffff"
     bordercolor="#666666"
     borderopacity="1"
     objecttolerance="10"
     gridtolerance="10"
     guidetolerance="10"
     inkscape:pageopacity="0"
     inkscape:pageshadow="2"
     inkscape:window-width="640"
     inkscape:window-height="480"
     id="namedview251"
     showgrid="false"
     inkscape:zoom="0.18730159"
     inkscape:cx="546.09375"
     inkscape:cy="95.71875"
     inkscape:window-x="0"
     inkscape:window-y="0"
     inkscape:window-maximized="0"
     inkscape:current-layer="svg2" /><metadata
     id="metadata8"><rdf:RDF><cc:Work
         rdf:about=""><dc:format>image/svg+xml</dc:format><dc:type
           rdf:resource="http://purl.org/dc/dcmitype/StillImage" /></cc:Work></rdf:RDF></metadata><defs
     id="defs6"><clipPath
       id="clipPath26"><path
         d="m 530.24,691.65 100.68,0 0,27.24 -100.68,0 0,-27.24 z"
         inkscape:connector-curvature="0"
         id="path28" /></clipPath><clipPath
       id="clipPath34"><path
         d="m 530.23,691.66 100.68,0 0,27.24 -100.68,0 0,-27.24 z"
         inkscape:connector-curvature="0"
         id="path36" /></clipPath><clipPath
       id="clipPath42"><path
         d="m 530.23,691.66 100.68,0 0,27.24 -100.68,0 0,-27.24 z"
         inkscape:connector-curvature="0"
         id="path44" /></clipPath><clipPath
       id="clipPath54"><path
         d="m 530.23,691.66 100.68,0 0,27.24 -100.68,0 0,-27.24 z"
         inkscape:connector-curvature="0"
         id="path56" /></clipPath><clipPath
       id="clipPath68"><path
         d="m 76.921,526.75 75.99,0 0,13.8 -75.99,0 0,-13.8 z"
         inkscape:connector-curvature="0"
         id="path70" /></clipPath><clipPath
       id="clipPath76"><path
         d="m 76.92,526.75 75.984,0 0,13.8 -75.984,0 0,-13.8 z"
         inkscape:connector-curvature="0"
         id="path78" /></clipPath><clipPath
       id="clipPath88"><path
         d="m 76.92,526.75 75.984,0 0,13.8 -75.984,0 0,-13.8 z"
         inkscape:connector-curvature="0"
         id="path90" /></clipPath><clipPath
       id="clipPath96"><path
         d="m 332.21,468.19 117,0 0,13.8 -117,0 0,-13.8 z"
         inkscape:connector-curvature="0"
         id="path98" /></clipPath><clipPath
       id="clipPath104"><path
         d="m 332.21,468.19 117,0 0,13.8 -117,0 0,-13.8 z"
         inkscape:connector-curvature="0"
         id="path106" /></clipPath><clipPath
       id="clipPath116"><path
         d="m 332.21,468.19 117,0 0,13.8 -117,0 0,-13.8 z"
         inkscape:connector-curvature="0"
         id="path118" /></clipPath><clipPath
       id="clipPath130"><path
         d="m 414.17,598.27 116.19,0 0,28.44 -116.19,0 0,-28.44 z"
         inkscape:connector-curvature="0"
         id="path132" /></clipPath><clipPath
       id="clipPath138"><path
         d="m 414.17,598.27 116.18,0 0,28.44 -116.18,0 0,-28.44 z"
         inkscape:connector-curvature="0"
         id="path140" /></clipPath><clipPath
       id="clipPath150"><path
         d="m 414.17,598.27 116.18,0 0,28.44 -116.18,0 0,-28.44 z"
         inkscape:connector-curvature="0"
         id="path152" /></clipPath><clipPath
       id="clipPath158"><path
         d="m 414.17,598.27 116.18,0 0,28.44 -116.18,0 0,-28.44 z"
         inkscape:connector-curvature="0"
         id="path160" /></clipPath><clipPath
       id="clipPath170"><path
         d="m 414.17,598.27 116.18,0 0,28.44 -116.18,0 0,-28.44 z"
         inkscape:connector-curvature="0"
         id="path172" /></clipPath><clipPath
       id="clipPath178"><path
         d="m 318.53,530.35 117.12,0 0,13.8 -117.12,0 0,-13.8 z"
         inkscape:connector-curvature="0"
         id="path180" /></clipPath><clipPath
       id="clipPath186"><path
         d="m 318.53,530.35 117.12,0 0,13.8 -117.12,0 0,-13.8 z"
         inkscape:connector-curvature="0"
         id="path188" /></clipPath><clipPath
       id="clipPath198"><path
         d="m 318.53,530.35 117.12,0 0,13.8 -117.12,0 0,-13.8 z"
         inkscape:connector-curvature="0"
         id="path200" /></clipPath><clipPath
       id="clipPath216"><path
         d="m 212.07,505.75 80.175,0 0,13.68 -80.175,0 0,-13.68 z"
         inkscape:connector-curvature="0"
         id="path218" /></clipPath><clipPath
       id="clipPath224"><path
         d="m 212.06,505.75 80.184,0 0,13.68 -80.184,0 0,-13.68 z"
         inkscape:connector-curvature="0"
         id="path226" /></clipPath><clipPath
       id="clipPath236"><path
         d="m 212.06,505.75 80.184,0 0,13.68 -80.184,0 0,-13.68 z"
         inkscape:connector-curvature="0"
         id="path238" /></clipPath><clipPath
       id="clipPath246"><path
         d="m 332.21,637.75 80.16,0 0,13.56 -80.16,0 0,-13.56 z"
         inkscape:connector-curvature="0"
         id="path248" /></clipPath><clipPath
       id="clipPath254"><path
         d="m 332.21,637.75 80.16,0 0,13.56 -80.16,0 0,-13.56 z"
         inkscape:connector-curvature="0"
         id="path256" /></clipPath><clipPath
       id="clipPath266"><path
         d="m 332.21,637.75 80.16,0 0,13.56 -80.16,0 0,-13.56 z"
         inkscape:connector-curvature="0"
         id="path268" /></clipPath><clipPath
       id="clipPath274"><path
         d="m 203.91,553.51 80.175,0 0,13.8 -80.175,0 0,-13.8 z"
         inkscape:connector-curvature="0"
         id="path276" /></clipPath><clipPath
       id="clipPath282"><path
         d="m 203.9,553.51 80.184,0 0,13.8 -80.184,0 0,-13.8 z"
         inkscape:connector-curvature="0"
         id="path284" /></clipPath><clipPath
       id="clipPath294"><path
         d="m 203.9,553.51 80.184,0 0,13.8 -80.184,0 0,-13.8 z"
         inkscape:connector-curvature="0"
         id="path296" /></clipPath><clipPath
       id="clipPath302"><path
         d="m 181.11,607.27 128.18,0 0,27.6 -128.18,0 0,-27.6 z"
         inkscape:connector-curvature="0"
         id="path304" /></clipPath><clipPath
       id="clipPath310"><path
         d="m 181.1,607.27 128.18,0 0,27.6 -128.18,0 0,-27.6 z"
         inkscape:connector-curvature="0"
         id="path312" /></clipPath><clipPath
       id="clipPath322"><path
         d="m 181.1,607.27 128.18,0 0,27.6 -128.18,0 0,-27.6 z"
         inkscape:connector-curvature="0"
         id="path324" /></clipPath><clipPath
       id="clipPath330"><path
         d="m 181.1,607.27 128.18,0 0,27.6 -128.18,0 0,-27.6 z"
         inkscape:connector-curvature="0"
         id="path332" /></clipPath><clipPath
       id="clipPath342"><path
         d="m 181.1,607.27 128.18,0 0,27.6 -128.18,0 0,-27.6 z"
         inkscape:connector-curvature="0"
         id="path344" /></clipPath><clipPath
       id="clipPath350"><path
         d="m 189.63,653.35 117.14,0 0,13.815 -117.14,0 0,-13.815 z"
         inkscape:connector-curvature="0"
         id="path352" /></clipPath><clipPath
       id="clipPath358"><path
         d="m 189.62,653.35 117.14,0 0,13.824 -117.14,0 0,-13.824 z"
         inkscape:connector-curvature="0"
         id="path360" /></clipPath><clipPath
       id="clipPath370"><path
         d="m 189.62,653.35 117.14,0 0,13.824 -117.14,0 0,-13.824 z"
         inkscape:connector-curvature="0"
         id="path372" /></clipPath><clipPath
       id="clipPath388"><path
         d="m 267.75,692.73 100.58,0 0,27.36 -100.58,0 0,-27.36 z"
         inkscape:connector-curvature="0"
         id="path390" /></clipPath><clipPath
       id="clipPath396"><path
         d="m 267.74,692.74 100.58,0 0,27.36 -100.58,0 0,-27.36 z"
         inkscape:connector-curvature="0"
         id="path398" /></clipPath><clipPath
       id="clipPath404"><path
         d="m 267.74,692.74 100.58,0 0,27.36 -100.58,0 0,-27.36 z"
         inkscape:connector-curvature="0"
         id="path406" /></clipPath><clipPath
       id="clipPath416"><path
         d="m 267.74,692.74 100.58,0 0,27.36 -100.58,0 0,-27.36 z"
         inkscape:connector-curvature="0"
         id="path418" /></clipPath><clipPath
       id="clipPath442"><path
         d="m 67.441,556.87 53.91,0 0,19.92 -53.91,0 0,-19.92 z"
         inkscape:connector-curvature="0"
         id="path444" /></clipPath><clipPath
       id="clipPath450"><path
         d="m 67.44,556.87 53.904,0 0,19.92 -53.904,0 0,-19.92 z"
         inkscape:connector-curvature="0"
         id="path452" /></clipPath><clipPath
       id="clipPath462"><path
         d="m 67.44,556.87 53.904,0 0,19.92 -53.904,0 0,-19.92 z"
         inkscape:connector-curvature="0"
         id="path464" /></clipPath><clipPath
       id="clipPath472"><path
         d="m 139.47,696.69 68.16,0 0,15.36 -68.16,0 0,-15.36 z"
         inkscape:connector-curvature="0"
         id="path474" /></clipPath><clipPath
       id="clipPath480"><path
         d="m 139.46,696.7 68.16,0 0,15.36 -68.16,0 0,-15.36 z"
         inkscape:connector-curvature="0"
         id="path482" /></clipPath><clipPath
       id="clipPath492"><path
         d="m 139.46,696.7 68.16,0 0,15.36 -68.16,0 0,-15.36 z"
         inkscape:connector-curvature="0"
         id="path494" /></clipPath></defs><g
     transform="matrix(1.25,0,0,-1.25,-84.28125,905.59375)"
     id="g10"><path
       d="m 67.8,436.8 576,0 0,144 -576,0 0,-144 z"
       inkscape:connector-curvature="0"
       id="path12"
       style="fill:#ffffff;fill-opacity:1;fill-rule:evenodd;stroke:none" /><path
       d="m 67.8,436.8 576,0 0,144 -576,0 0,-144 z"
       inkscape:connector-curvature="0"
       id="path14"
       style="fill:none;stroke:#000000;stroke-width:0.75;stroke-linecap:round;stroke-linejoin:miter;stroke-miterlimit:10;stroke-opacity:1;stroke-dasharray:none" /><g
       id="g16"><path
         d="m 580.8,686.75 0,-258.95"
         inkscape:connector-curvature="0"
         id="path18"
         style="fill:none;stroke:#000000;stroke-width:0.75;stroke-linecap:round;stroke-linejoin:round;stroke-miterlimit:10;stroke-opacity:1;stroke-dasharray:2.25, 3;stroke-dashoffset:0" /></g><path
       d="m 529.8,687.65 101.4,0 0,35.3 -101.4,0 0,-35.3 z"
       inkscape:connector-curvature="0"
       id="path20"
       style="fill:none;stroke:#000000;stroke-width:0.75;stroke-linecap:round;stroke-linejoin:miter;stroke-miterlimit:10;stroke-opacity:1;stroke-dasharray:none" /><g
       id="g22"><g
         clip-path="url(#clipPath26)"
         id="g24"><g
           id="g30"><g
             clip-path="url(#clipPath34)"
             id="g32" /></g><g
           id="g38"><g
             clip-path="url(#clipPath42)"
             id="g40"><text
   transform="matrix(1,0,0,-1,558.19,700.9)"
   id="text46"><tspan
     x="0 3.336 11.388 14.052 20.724001 30.719999 37.416 44.124001"
     y="0"
     id="tspan48"
     style="font-size:12px;font-variant:normal;font-weight:normal;writing-mode:lr-tb;fill:#000000;fill-opacity:1;fill-rule:nonzero;stroke:none;font-family:Helvetica;-inkscape-font-specification:Helvetica">:Element</tspan></text>

</g></g><g
           id="g50"><g
             clip-path="url(#clipPath54)"
             id="g52" /></g></g></g><path
       d="m 570.75,463.8 20.1,0 0,38.3 -20.1,0 0,-38.3 z"
       inkscape:connector-curvature="0"
       id="path58"
       style="fill:#ffffff;fill-opacity:1;fill-rule:evenodd;stroke:none" /><path
       d="m 570.75,463.8 20.1,0 0,38.3 -20.1,0 0,-38.3 z"
       inkscape:connector-curvature="0"
       id="path60"
       style="fill:none;stroke:#000000;stroke-width:0.75;stroke-linecap:round;stroke-linejoin:miter;stroke-miterlimit:10;stroke-opacity:1;stroke-dasharray:none" /><path
       d="m 76.95,523.1 75.95,0 0,21.05 -75.95,0 0,-21.05 z"
       inkscape:connector-curvature="0"
       id="path62"
       style="fill:#ffffff;fill-opacity:1;fill-rule:evenodd;stroke:none" /><g
       id="g64"><g
         clip-path="url(#clipPath68)"
         id="g66"><g
           id="g72"><g
             clip-path="url(#clipPath76)"
             id="g74"><text
   transform="matrix(1,0,0,-1,84.12,529.39)"
   id="text80"><tspan
     x="0 3.336 10.068 16.775999 22.775999 31.440001 38.112 44.015999 47.352001 51.348 55.296001"
     y="0"
     id="tspan82"
     style="font-size:12px;font-variant:normal;font-weight:normal;writing-mode:lr-tb;fill:#000000;fill-opacity:1;fill-rule:nonzero;stroke:none;font-family:Helvetica;-inkscape-font-specification:Helvetica">[hasNext()]</tspan></text>

</g></g><g
           id="g84"><g
             clip-path="url(#clipPath88)"
             id="g86" /></g></g></g><g
       id="g92"><g
         clip-path="url(#clipPath96)"
         id="g94"><g
           id="g100"><g
             clip-path="url(#clipPath104)"
             id="g102"><text
   transform="matrix(1,0,0,-1,339.41,470.95)"
   id="text108"><tspan
     x="0 6.7080002 13.416 20.124001 24.120001 30.792 34.127998 36.683998 43.391998 50.099998 54.096001 58.02 61.355999 64.727997 68.723999 75.396004 81.396004 88.115997 90.779999"
     y="0"
     id="tspan110"
     style="font-size:12px;font-variant:normal;font-weight:normal;writing-mode:lr-tb;fill:#000000;fill-opacity:1;fill-rule:nonzero;stroke:none;font-family:Helvetica;-inkscape-font-specification:Helvetica">operation() :result</tspan></text>

</g></g><g
           id="g112"><g
             clip-path="url(#clipPath116)"
             id="g114" /></g></g></g><g
       id="g120"><path
         d="m 472.8,594.3 0.05,-166.5"
         inkscape:connector-curvature="0"
         id="path122"
         style="fill:none;stroke:#000000;stroke-width:0.75;stroke-linecap:round;stroke-linejoin:round;stroke-miterlimit:10;stroke-opacity:1;stroke-dasharray:2.25, 3;stroke-dashoffset:0" /></g><path
       d="m 413.7,594.3 117,0 0,36.45 -117,0 0,-36.45 z"
       inkscape:connector-curvature="0"
       id="path124"
       style="fill:none;stroke:#000000;stroke-width:0.75;stroke-linecap:round;stroke-linejoin:miter;stroke-miterlimit:10;stroke-opacity:1;stroke-dasharray:none" /><g
       id="g126"><g
         clip-path="url(#clipPath130)"
         id="g128"><g
           id="g134"><g
             clip-path="url(#clipPath138)"
             id="g136"><text
   transform="matrix(1,0,0,-1,464.21,615.67)"
   id="text142"><tspan
     x="0 6 8.6639996 12 15.336 18.708"
     y="0"
     id="tspan144"
     style="font-size:12px;font-variant:normal;font-weight:normal;writing-mode:lr-tb;fill:#000000;fill-opacity:1;fill-rule:nonzero;stroke:none;font-family:Helvetica;-inkscape-font-specification:Helvetica">kit : </tspan></text>

</g></g><g
           id="g146"><g
             clip-path="url(#clipPath150)"
             id="g148" /></g><g
           id="g154"><g
             clip-path="url(#clipPath158)"
             id="g156"><text
   transform="matrix(1,0,0,-1,428.57,601.75)"
   id="text162"><tspan
     x="0 8.0279999 14.736 21.444 27.444 31.403999 38.112 41.352001 48.060001 52.056 55.391998 58.728001 65.447998 69.444 76.008003 79.344002 86.075996"
     y="0"
     id="tspan164"
     style="font-size:12px;font-variant:normal;font-weight:normal;writing-mode:lr-tb;fill:#000000;fill-opacity:1;fill-rule:nonzero;stroke:none;font-family:Helvetica;-inkscape-font-specification:Helvetica">KonkreterIterator</tspan></text>

</g></g><g
           id="g166"><g
             clip-path="url(#clipPath170)"
             id="g168" /></g></g></g><g
       id="g174"><g
         clip-path="url(#clipPath178)"
         id="g176"><g
           id="g182"><g
             clip-path="url(#clipPath186)"
             id="g184"><text
   transform="matrix(1,0,0,-1,325.73,533.11)"
   id="text190"><tspan
     x="0 6.7080002 13.416 19.296 22.632 26.628 30.576 33.911999 37.284 40.619999 48.672001 51.335999 58.007999 68.003998 74.699997 81.407997"
     y="0"
     id="tspan192"
     style="font-size:12px;font-variant:normal;font-weight:normal;writing-mode:lr-tb;fill:#000000;fill-opacity:1;fill-rule:nonzero;stroke:none;font-family:Helvetica;-inkscape-font-specification:Helvetica">next() : Element</tspan></text>

</g></g><g
           id="g194"><g
             clip-path="url(#clipPath198)"
             id="g196" /></g></g></g><path
       d="m 462.6,526.8 20.1,0 0,26.8 -20.1,0 0,-26.8 z"
       inkscape:connector-curvature="0"
       id="path202"
       style="fill:#ffffff;fill-opacity:1;fill-rule:evenodd;stroke:none" /><path
       d="m 462.6,526.8 20.1,0 0,26.8 -20.1,0 0,-26.8 z"
       inkscape:connector-curvature="0"
       id="path204"
       style="fill:none;stroke:#000000;stroke-width:0.75;stroke-linecap:round;stroke-linejoin:miter;stroke-miterlimit:10;stroke-opacity:1;stroke-dasharray:none" /><path
       d="m 184.8,554.1 273.25,0 c 0.28,0 0.5,-0.22 0.5,-0.5 0,-0.28 -0.22,-0.5 -0.5,-0.5 l -273.25,0 c -0.28,0 -0.5,0.22 -0.5,0.5 0,0.28 0.22,0.5 0.5,0.5 z m 272.25,2.5 6,-3 -6,-3 0,6 z"
       inkscape:connector-curvature="0"
       id="path206"
       style="fill:#000000;fill-opacity:1;fill-rule:nonzero;stroke:none" /><path
       d="m 185.55,502.6 380.2,0 c 0.28,0 0.5,-0.22 0.5,-0.5 0,-0.28 -0.22,-0.5 -0.5,-0.5 l -380.2,0 c -0.28,0 -0.5,0.22 -0.5,0.5 0,0.28 0.22,0.5 0.5,0.5 z m 379.2,2.5 6,-3 -6,-3 0,6 z"
       inkscape:connector-curvature="0"
       id="path208"
       style="fill:#000000;fill-opacity:1;fill-rule:nonzero;stroke:none" /><path
       d="m 570.75,463.75 -3,-0.01 c -0.28,0 -0.5,0.23 -0.5,0.5 0,0.28 0.22,0.5 0.5,0.5 l 3,0.01 c 0.28,0 0.5,-0.22 0.5,-0.5 0,-0.28 -0.22,-0.5 -0.5,-0.5 z m -7,-0.01 -3,-0.01 c -0.28,0 -0.5,0.22 -0.5,0.5 0,0.27 0.22,0.5 0.5,0.5 l 3,0.01 c 0.28,0 0.5,-0.23 0.5,-0.5 0,-0.28 -0.22,-0.5 -0.5,-0.5 z m -7,-0.02 -3,-0.01 c -0.28,0 -0.5,0.23 -0.5,0.5 0,0.28 0.22,0.5 0.5,0.5 l 3,0.01 c 0.28,0 0.5,-0.22 0.5,-0.5 0,-0.27 -0.22,-0.5 -0.5,-0.5 z m -7,-0.01 -3,-0.01 c -0.28,0 -0.5,0.22 -0.5,0.5 0,0.28 0.22,0.5 0.5,0.5 l 3,0.01 c 0.27,0 0.5,-0.23 0.5,-0.5 0,-0.28 -0.22,-0.5 -0.5,-0.5 z m -7,-0.02 -3,0 c -0.28,0 -0.5,0.22 -0.5,0.49 0,0.28 0.22,0.51 0.5,0.51 l 3,0 c 0.27,0 0.5,-0.22 0.5,-0.5 0,-0.27 -0.22,-0.5 -0.5,-0.5 z m -7,-0.01 -3,-0.01 c -0.28,0 -0.5,0.22 -0.5,0.5 0,0.28 0.22,0.5 0.5,0.5 l 3,0.01 c 0.27,0 0.5,-0.23 0.5,-0.5 0,-0.28 -0.22,-0.5 -0.5,-0.5 z m -7,-0.02 -3,0 c -0.28,0 -0.5,0.22 -0.5,0.5 0,0.27 0.22,0.5 0.5,0.5 l 3,0 c 0.27,0 0.5,-0.22 0.5,-0.5 0,-0.27 -0.22,-0.5 -0.5,-0.5 z m -7,-0.01 -3,-0.01 c -0.28,0 -0.5,0.23 -0.5,0.5 0,0.28 0.22,0.5 0.5,0.5 l 3,0.01 c 0.27,0 0.5,-0.22 0.5,-0.5 0,-0.28 -0.22,-0.5 -0.5,-0.5 z m -7,-0.02 -3,0 c -0.28,0 -0.5,0.22 -0.5,0.5 0,0.27 0.22,0.5 0.5,0.5 l 3,0 c 0.27,0 0.5,-0.22 0.5,-0.49 0,-0.28 -0.22,-0.51 -0.5,-0.51 z m -7,-0.01 -3,-0.01 c -0.28,0 -0.5,0.23 -0.5,0.5 0,0.28 0.22,0.5 0.5,0.5 l 3,0.01 c 0.27,0 0.5,-0.22 0.5,-0.5 0,-0.28 -0.22,-0.5 -0.5,-0.5 z m -7,-0.01 -3,-0.01 c -0.28,0 -0.5,0.22 -0.5,0.5 0,0.27 0.22,0.5 0.5,0.5 l 3,0.01 c 0.27,0 0.5,-0.23 0.5,-0.5 0,-0.28 -0.22,-0.5 -0.5,-0.5 z m -7,-0.02 -3,-0.01 c -0.28,0 -0.5,0.23 -0.5,0.5 0,0.28 0.22,0.5 0.5,0.5 l 3,0.01 c 0.27,0 0.5,-0.22 0.5,-0.5 0,-0.27 -0.22,-0.5 -0.5,-0.5 z m -7,-0.01 -3,-0.01 c -0.28,0 -0.5,0.22 -0.5,0.5 0,0.28 0.22,0.5 0.5,0.5 l 3,0.01 c 0.27,0 0.5,-0.23 0.5,-0.5 0,-0.28 -0.22,-0.5 -0.5,-0.5 z m -7,-0.02 -3,0 c -0.28,0 -0.5,0.22 -0.5,0.49 0,0.28 0.22,0.51 0.5,0.51 l 3,0 c 0.27,0 0.5,-0.22 0.5,-0.5 0,-0.27 -0.22,-0.5 -0.5,-0.5 z m -7,-0.01 -3,-0.01 c -0.28,0 -0.5,0.22 -0.5,0.5 0,0.28 0.22,0.5 0.5,0.5 l 3,0.01 c 0.27,0 0.5,-0.23 0.5,-0.5 0,-0.28 -0.22,-0.5 -0.5,-0.5 z m -7,-0.02 -3,0 c -0.28,0 -0.5,0.22 -0.5,0.5 0,0.27 0.22,0.5 0.5,0.5 l 3,0 c 0.27,0 0.5,-0.22 0.5,-0.5 0,-0.27 -0.22,-0.5 -0.5,-0.5 z m -7,-0.01 -3,-0.01 c -0.28,0 -0.5,0.23 -0.5,0.5 0,0.28 0.22,0.5 0.5,0.5 l 3,0.01 c 0.27,0 0.5,-0.22 0.5,-0.5 0,-0.28 -0.22,-0.5 -0.5,-0.5 z m -7,-0.02 -3,0 c -0.28,0 -0.5,0.22 -0.5,0.5 0,0.27 0.22,0.5 0.5,0.5 l 3,0 c 0.27,0 0.5,-0.22 0.5,-0.49 0,-0.28 -0.22,-0.51 -0.5,-0.51 z m -7,-0.01 -3,-0.01 c -0.28,0 -0.5,0.23 -0.5,0.5 0,0.28 0.22,0.5 0.5,0.5 l 3,0.01 c 0.27,0 0.5,-0.22 0.5,-0.5 0,-0.28 -0.22,-0.5 -0.5,-0.5 z m -7,-0.01 -3,-0.01 c -0.28,0 -0.5,0.22 -0.5,0.5 0,0.27 0.22,0.5 0.5,0.5 l 3,0.01 c 0.27,0 0.5,-0.23 0.5,-0.5 0,-0.28 -0.22,-0.5 -0.5,-0.5 z m -7,-0.02 -3,-0.01 c -0.28,0 -0.5,0.23 -0.5,0.5 0,0.28 0.22,0.5 0.5,0.5 l 3,0.01 c 0.27,0 0.5,-0.22 0.5,-0.5 0,-0.27 -0.22,-0.5 -0.5,-0.5 z m -7,-0.01 -3,-0.01 c -0.28,0 -0.5,0.22 -0.5,0.5 0,0.28 0.22,0.5 0.5,0.5 l 3,0.01 c 0.27,0 0.5,-0.23 0.5,-0.5 0,-0.28 -0.22,-0.5 -0.5,-0.5 z m -7,-0.02 -3,0 c -0.28,-0.01 -0.5,0.22 -0.5,0.49 0,0.28 0.22,0.5 0.5,0.51 l 3,0 c 0.27,0 0.5,-0.22 0.5,-0.5 0,-0.27 -0.22,-0.5 -0.5,-0.5 z m -7,-0.01 -3,-0.01 c -0.28,0 -0.5,0.22 -0.5,0.5 0,0.28 0.22,0.5 0.5,0.5 l 3,0.01 c 0.27,0 0.5,-0.23 0.5,-0.5 0,-0.28 -0.22,-0.5 -0.5,-0.5 z m -7,-0.02 -3,0 c -0.28,0 -0.5,0.22 -0.5,0.5 0,0.27 0.22,0.5 0.5,0.5 l 3,0 c 0.27,0 0.5,-0.22 0.5,-0.5 0,-0.27 -0.22,-0.5 -0.5,-0.5 z m -7,-0.01 -3,-0.01 c -0.28,0 -0.5,0.22 -0.5,0.5 0,0.28 0.22,0.5 0.5,0.5 l 3,0.01 c 0.27,0 0.5,-0.22 0.5,-0.5 0,-0.28 -0.22,-0.5 -0.5,-0.5 z m -7,-0.02 -3,0 c -0.28,0 -0.5,0.22 -0.5,0.5 0,0.27 0.22,0.5 0.5,0.5 l 3,0 c 0.27,0 0.5,-0.22 0.5,-0.5 0,-0.27 -0.22,-0.5 -0.5,-0.5 z m -7,-0.01 -3,-0.01 c -0.28,0 -0.5,0.23 -0.5,0.5 0,0.28 0.22,0.5 0.5,0.5 l 3,0.01 c 0.27,0 0.5,-0.22 0.5,-0.5 0,-0.28 -0.22,-0.5 -0.5,-0.5 z m -7,-0.02 -3,0 c -0.28,0 -0.5,0.22 -0.5,0.5 0,0.27 0.22,0.5 0.5,0.5 l 3,0 c 0.27,0.01 0.5,-0.22 0.5,-0.49 0,-0.28 -0.22,-0.5 -0.5,-0.51 z m -7,-0.01 -3,-0.01 c -0.28,0 -0.5,0.23 -0.5,0.5 0,0.28 0.22,0.5 0.5,0.5 l 3,0.01 c 0.27,0 0.5,-0.22 0.5,-0.5 0,-0.27 -0.22,-0.5 -0.5,-0.5 z m -7,-0.01 -3,-0.01 c -0.28,0 -0.5,0.22 -0.5,0.5 0,0.27 0.22,0.5 0.5,0.5 l 3,0.01 c 0.27,0 0.5,-0.23 0.5,-0.5 0,-0.28 -0.22,-0.5 -0.5,-0.5 z m -7,-0.02 -3,0 c -0.28,-0.01 -0.5,0.22 -0.5,0.49 0,0.28 0.22,0.5 0.5,0.51 l 3,0 c 0.27,0 0.5,-0.22 0.5,-0.5 0,-0.27 -0.22,-0.5 -0.5,-0.5 z m -7,-0.01 -3,-0.01 c -0.28,0 -0.5,0.22 -0.5,0.5 0,0.28 0.22,0.5 0.5,0.5 l 3,0.01 c 0.27,0 0.5,-0.23 0.5,-0.5 0,-0.28 -0.22,-0.5 -0.5,-0.5 z m -7,-0.02 -3,0 c -0.28,0 -0.5,0.22 -0.5,0.5 0,0.27 0.22,0.5 0.5,0.5 l 3,0 c 0.27,0 0.5,-0.22 0.5,-0.5 0,-0.27 -0.22,-0.5 -0.5,-0.5 z m -7,-0.01 -3,-0.01 c -0.28,0 -0.5,0.22 -0.5,0.5 0,0.28 0.22,0.5 0.5,0.5 l 3,0.01 c 0.27,0 0.5,-0.22 0.5,-0.5 0,-0.28 -0.22,-0.5 -0.5,-0.5 z m -7,-0.02 -3,0 c -0.28,0 -0.5,0.22 -0.5,0.5 0,0.27 0.22,0.5 0.5,0.5 l 3,0 c 0.27,0 0.5,-0.22 0.5,-0.5 0,-0.27 -0.22,-0.5 -0.5,-0.5 z m -7,-0.01 -3,-0.01 c -0.28,0 -0.5,0.23 -0.5,0.5 0,0.28 0.22,0.5 0.5,0.5 l 3,0.01 c 0.27,0 0.5,-0.22 0.5,-0.5 0,-0.28 -0.22,-0.5 -0.5,-0.5 z m -7,-0.02 -3,0 c -0.28,0 -0.5,0.22 -0.5,0.5 0,0.27 0.22,0.5 0.5,0.5 l 3,0 c 0.27,0 0.5,-0.22 0.5,-0.49 0,-0.28 -0.22,-0.51 -0.5,-0.51 z m -7,-0.01 -3,-0.01 c -0.28,0 -0.5,0.23 -0.5,0.5 0,0.28 0.22,0.5 0.5,0.5 l 3,0.01 c 0.27,0 0.5,-0.22 0.5,-0.5 0,-0.28 -0.22,-0.5 -0.5,-0.5 z m -7,-0.01 -3,-0.01 c -0.28,0 -0.5,0.22 -0.5,0.5 0,0.27 0.22,0.5 0.5,0.5 l 3,0.01 c 0.27,0 0.5,-0.23 0.5,-0.5 0,-0.28 -0.22,-0.5 -0.5,-0.5 z m -7,-0.02 -3,-0.01 c -0.28,0 -0.5,0.23 -0.5,0.5 0,0.28 0.22,0.5 0.5,0.5 l 3,0.01 c 0.27,0 0.5,-0.22 0.5,-0.5 0,-0.27 -0.22,-0.5 -0.5,-0.5 z m -7,-0.01 -3,-0.01 c -0.28,0 -0.5,0.22 -0.5,0.5 0,0.28 0.22,0.5 0.5,0.5 l 3,0.01 c 0.27,0 0.5,-0.23 0.5,-0.5 0,-0.28 -0.22,-0.5 -0.5,-0.5 z m -7,-0.02 -3,0 c -0.28,-0.01 -0.5,0.22 -0.5,0.49 0,0.28 0.22,0.5 0.5,0.51 l 3,0 c 0.27,0 0.5,-0.22 0.5,-0.5 0,-0.27 -0.22,-0.5 -0.5,-0.5 z m -7,-0.01 -3,-0.01 c -0.28,0 -0.5,0.22 -0.5,0.5 0,0.28 0.22,0.5 0.5,0.5 l 3,0.01 c 0.27,0 0.5,-0.23 0.5,-0.5 0,-0.28 -0.22,-0.5 -0.5,-0.5 z m -7,-0.02 -3,0 c -0.28,0 -0.5,0.22 -0.5,0.5 0,0.27 0.22,0.5 0.5,0.5 l 3,0 c 0.27,0 0.5,-0.22 0.5,-0.5 0,-0.27 -0.22,-0.5 -0.5,-0.5 z m -7,-0.01 -3,-0.01 c -0.28,0 -0.5,0.22 -0.5,0.5 0,0.28 0.22,0.5 0.5,0.5 l 3,0.01 c 0.27,0 0.5,-0.22 0.5,-0.5 0,-0.28 -0.22,-0.5 -0.5,-0.5 z m -7,-0.02 -3,0 c -0.28,0 -0.5,0.22 -0.5,0.5 0,0.27 0.22,0.5 0.5,0.5 l 3,0 c 0.27,0 0.5,-0.22 0.5,-0.5 0,-0.27 -0.22,-0.5 -0.5,-0.5 z m -7,-0.01 -3,-0.01 c -0.28,0 -0.5,0.23 -0.5,0.5 0,0.28 0.22,0.5 0.5,0.5 l 3,0.01 c 0.27,0 0.5,-0.22 0.5,-0.5 0,-0.28 -0.22,-0.5 -0.5,-0.5 z m -7,-0.02 -3,0 c -0.28,0 -0.5,0.22 -0.5,0.5 0,0.27 0.22,0.5 0.5,0.5 l 3,0 c 0.27,0.01 0.5,-0.22 0.5,-0.49 0,-0.28 -0.22,-0.5 -0.5,-0.51 z m -7,-0.01 -3,-0.01 c -0.28,0 -0.5,0.23 -0.5,0.5 0,0.28 0.22,0.5 0.5,0.5 l 3,0.01 c 0.27,0 0.5,-0.22 0.5,-0.5 0,-0.28 -0.22,-0.5 -0.5,-0.5 z m -7,-0.01 -3,-0.01 c -0.28,0 -0.5,0.22 -0.5,0.5 0,0.27 0.22,0.5 0.5,0.5 l 3,0.01 c 0.27,0 0.5,-0.23 0.5,-0.5 0,-0.28 -0.22,-0.5 -0.5,-0.5 z m -7,-0.02 -3,-0.01 c -0.28,0 -0.5,0.23 -0.5,0.5 0,0.28 0.22,0.5 0.5,0.5 l 3,0.01 c 0.27,0 0.5,-0.22 0.5,-0.5 0,-0.27 -0.22,-0.5 -0.5,-0.5 z m -7,-0.01 -3,-0.01 c -0.28,0 -0.5,0.22 -0.5,0.5 0,0.27 0.22,0.5 0.5,0.5 l 3,0.01 c 0.27,0 0.5,-0.23 0.5,-0.5 0,-0.28 -0.22,-0.5 -0.5,-0.5 z m -7,-0.02 -3,0 c -0.28,-0.01 -0.5,0.22 -0.5,0.49 0,0.28 0.22,0.5 0.5,0.51 l 3,0 c 0.27,0 0.5,-0.22 0.5,-0.5 0,-0.27 -0.22,-0.5 -0.5,-0.5 z m -7,-0.01 -3,-0.01 c -0.28,0 -0.5,0.22 -0.5,0.5 0,0.28 0.22,0.5 0.5,0.5 l 3,0.01 c 0.27,0 0.5,-0.23 0.5,-0.5 0,-0.28 -0.22,-0.5 -0.5,-0.5 z m 2.82,-4.93 -9.8,5.41 9.78,5.46 c 0.24,0.13 0.54,0.05 0.68,-0.19 0.13,-0.24 0.04,-0.55 -0.2,-0.68 l -8.99,-5.02 0,0.87 9.01,-4.98 c 0.24,-0.13 0.33,-0.44 0.2,-0.68 -0.14,-0.24 -0.44,-0.33 -0.68,-0.19 z"
       inkscape:connector-curvature="0"
       id="path210"
       style="fill:#000000;fill-opacity:1;fill-rule:nonzero;stroke:none" /><g
       id="g212"><g
         clip-path="url(#clipPath216)"
         id="g214"><g
           id="g220"><g
             clip-path="url(#clipPath224)"
             id="g222"><text
   transform="matrix(1,0,0,-1,219.26,508.39)"
   id="text228"><tspan
     x="0 6.7080002 13.416 20.124001 24.120001 30.792 34.127998 36.683998 43.391998 50.099998 54.096001"
     y="0"
     id="tspan230"
     style="font-size:12px;font-variant:normal;font-weight:normal;writing-mode:lr-tb;fill:#000000;fill-opacity:1;fill-rule:nonzero;stroke:none;font-family:Helvetica;-inkscape-font-specification:Helvetica">operation()</tspan></text>

</g></g><g
           id="g232"><g
             clip-path="url(#clipPath236)"
             id="g234" /></g></g></g><path
       d="m 463.05,526.3 -3,0 c -0.28,0 -0.5,0.22 -0.5,0.5 0,0.28 0.22,0.5 0.5,0.5 l 3,0 c 0.28,0 0.5,-0.22 0.5,-0.5 0,-0.28 -0.22,-0.5 -0.5,-0.5 z m -7,0 -3,0 c -0.28,0 -0.5,0.22 -0.5,0.5 0,0.27 0.22,0.5 0.5,0.5 l 3,0 c 0.28,0 0.5,-0.22 0.5,-0.5 0,-0.28 -0.22,-0.5 -0.5,-0.5 z m -7,0 -3,0 c -0.28,0 -0.5,0.22 -0.5,0.5 0,0.27 0.22,0.5 0.5,0.5 l 3,0 c 0.28,0 0.5,-0.23 0.5,-0.5 0,-0.28 -0.22,-0.5 -0.5,-0.5 z m -7,0 -3,0 c -0.28,0 -0.5,0.22 -0.5,0.5 0,0.27 0.22,0.5 0.5,0.5 l 3,0 c 0.28,0 0.5,-0.23 0.5,-0.5 0,-0.28 -0.22,-0.5 -0.5,-0.5 z m -7,0 -3,-0.01 c -0.28,0 -0.5,0.23 -0.5,0.5 0,0.28 0.22,0.5 0.5,0.5 l 3,0.01 c 0.28,0 0.5,-0.23 0.5,-0.5 0,-0.28 -0.22,-0.5 -0.5,-0.5 z m -7,-0.01 -3,0 c -0.28,0 -0.5,0.23 -0.5,0.5 0,0.28 0.22,0.5 0.5,0.5 l 3,0 c 0.28,0 0.5,-0.22 0.5,-0.5 0,-0.27 -0.22,-0.5 -0.5,-0.5 z m -7,0 -3,0 c -0.28,0 -0.5,0.23 -0.5,0.5 0,0.28 0.22,0.5 0.5,0.5 l 3,0 c 0.28,0 0.5,-0.22 0.5,-0.5 0,-0.27 -0.22,-0.5 -0.5,-0.5 z m -7,0 -3,0 c -0.28,0 -0.5,0.22 -0.5,0.5 0,0.28 0.22,0.5 0.5,0.5 l 3,0 c 0.28,0 0.5,-0.22 0.5,-0.5 0,-0.27 -0.22,-0.5 -0.5,-0.5 z m -7,0 -3,0 c -0.28,0 -0.5,0.22 -0.5,0.5 0,0.28 0.22,0.5 0.5,0.5 l 3,0 c 0.28,0 0.5,-0.22 0.5,-0.5 0,-0.28 -0.22,-0.5 -0.5,-0.5 z m -7,0 -3,0 c -0.28,0 -0.5,0.22 -0.5,0.5 0,0.27 0.22,0.5 0.5,0.5 l 3,0 c 0.28,0 0.5,-0.22 0.5,-0.5 0,-0.28 -0.22,-0.5 -0.5,-0.5 z m -7,0 -3,0 c -0.28,0 -0.5,0.22 -0.5,0.5 0,0.27 0.22,0.5 0.5,0.5 l 3,0 c 0.28,0 0.5,-0.23 0.5,-0.5 0,-0.28 -0.22,-0.5 -0.5,-0.5 z m -7,0 -3,0 c -0.28,0 -0.5,0.22 -0.5,0.5 0,0.27 0.22,0.5 0.5,0.5 l 3,0 c 0.28,0 0.5,-0.23 0.5,-0.5 0,-0.28 -0.22,-0.5 -0.5,-0.5 z m -7,0 -3,-0.01 c -0.28,0 -0.5,0.23 -0.5,0.5 0,0.28 0.22,0.5 0.5,0.5 l 3,0.01 c 0.28,0 0.5,-0.23 0.5,-0.5 0,-0.28 -0.22,-0.5 -0.5,-0.5 z m -7,-0.01 -3,0 c -0.28,0 -0.5,0.23 -0.5,0.5 0,0.28 0.22,0.5 0.5,0.5 l 3,0 c 0.28,0 0.5,-0.22 0.5,-0.5 0,-0.27 -0.22,-0.5 -0.5,-0.5 z m -7,0 -3,0 c -0.28,0 -0.5,0.23 -0.5,0.5 0,0.28 0.22,0.5 0.5,0.5 l 3,0 c 0.28,0 0.5,-0.22 0.5,-0.5 0,-0.27 -0.22,-0.5 -0.5,-0.5 z m -7,0 -3,0 c -0.28,0 -0.5,0.22 -0.5,0.5 0,0.28 0.22,0.5 0.5,0.5 l 3,0 c 0.28,0 0.5,-0.22 0.5,-0.5 0,-0.27 -0.22,-0.5 -0.5,-0.5 z m -7,0 -3,0 c -0.28,0 -0.5,0.22 -0.5,0.5 0,0.28 0.22,0.5 0.5,0.5 l 3,0 c 0.28,0 0.5,-0.22 0.5,-0.5 0,-0.28 -0.22,-0.5 -0.5,-0.5 z m -7,0 -3,0 c -0.28,0 -0.5,0.22 -0.5,0.5 0,0.27 0.22,0.5 0.5,0.5 l 3,0 c 0.28,0 0.5,-0.22 0.5,-0.5 0,-0.28 -0.22,-0.5 -0.5,-0.5 z m -7,0 -3,0 c -0.28,0 -0.5,0.22 -0.5,0.5 0,0.27 0.22,0.5 0.5,0.5 l 3,0 c 0.28,0 0.5,-0.23 0.5,-0.5 0,-0.28 -0.22,-0.5 -0.5,-0.5 z m -7,0 -3,0 c -0.28,0 -0.5,0.22 -0.5,0.5 0,0.27 0.22,0.5 0.5,0.5 l 3,0 c 0.28,0 0.5,-0.23 0.5,-0.5 0,-0.28 -0.22,-0.5 -0.5,-0.5 z m -7,0 -3,-0.01 c -0.28,0 -0.5,0.23 -0.5,0.5 0,0.28 0.22,0.5 0.5,0.5 l 3,0.01 c 0.28,0 0.5,-0.23 0.5,-0.5 0,-0.28 -0.22,-0.5 -0.5,-0.5 z m -7,-0.01 -3,0 c -0.28,0 -0.5,0.23 -0.5,0.5 0,0.28 0.22,0.5 0.5,0.5 l 3,0 c 0.28,0 0.5,-0.22 0.5,-0.5 0,-0.27 -0.22,-0.5 -0.5,-0.5 z m -7,0 -3,0 c -0.28,0 -0.5,0.23 -0.5,0.5 0,0.28 0.22,0.5 0.5,0.5 l 3,0 c 0.28,0 0.5,-0.22 0.5,-0.5 0,-0.27 -0.22,-0.5 -0.5,-0.5 z m -7,0 -3,0 c -0.28,0 -0.5,0.22 -0.5,0.5 0,0.28 0.22,0.5 0.5,0.5 l 3,0 c 0.28,0 0.5,-0.22 0.5,-0.5 0,-0.27 -0.22,-0.5 -0.5,-0.5 z m -7,0 -3,0 c -0.28,0 -0.5,0.22 -0.5,0.5 0,0.28 0.22,0.5 0.5,0.5 l 3,0 c 0.28,0 0.5,-0.22 0.5,-0.5 0,-0.28 -0.22,-0.5 -0.5,-0.5 z m -7,0 -3,0 c -0.28,0 -0.5,0.22 -0.5,0.5 0,0.27 0.22,0.5 0.5,0.5 l 3,0 c 0.28,0 0.5,-0.22 0.5,-0.5 0,-0.28 -0.22,-0.5 -0.5,-0.5 z m -7,0 -3,0 c -0.28,0 -0.5,0.22 -0.5,0.5 0,0.27 0.22,0.5 0.5,0.5 l 3,0 c 0.28,0 0.5,-0.23 0.5,-0.5 0,-0.28 -0.22,-0.5 -0.5,-0.5 z m -7,0 -3,0 c -0.28,0 -0.5,0.22 -0.5,0.5 0,0.27 0.22,0.5 0.5,0.5 l 3,0 c 0.28,0 0.5,-0.23 0.5,-0.5 0,-0.28 -0.22,-0.5 -0.5,-0.5 z m -7,0 -3,-0.01 c -0.28,0 -0.5,0.23 -0.5,0.5 0,0.28 0.22,0.5 0.5,0.5 l 3,0.01 c 0.28,0 0.5,-0.23 0.5,-0.5 0,-0.28 -0.22,-0.5 -0.5,-0.5 z m -7,-0.01 -3,0 c -0.28,0 -0.5,0.23 -0.5,0.5 0,0.28 0.22,0.5 0.5,0.5 l 3,0 c 0.28,0 0.5,-0.22 0.5,-0.5 0,-0.27 -0.22,-0.5 -0.5,-0.5 z m -7,0 -3,0 c -0.28,0 -0.5,0.23 -0.5,0.5 0,0.28 0.22,0.5 0.5,0.5 l 3,0 c 0.28,0 0.5,-0.22 0.5,-0.5 0,-0.27 -0.22,-0.5 -0.5,-0.5 z m -7,0 -3,0 c -0.28,0 -0.5,0.22 -0.5,0.5 0,0.28 0.22,0.5 0.5,0.5 l 3,0 c 0.28,0 0.5,-0.22 0.5,-0.5 0,-0.27 -0.22,-0.5 -0.5,-0.5 z m -7,0 -3,0 c -0.28,0 -0.5,0.22 -0.5,0.5 0,0.28 0.22,0.5 0.5,0.5 l 3,0 c 0.28,0 0.5,-0.22 0.5,-0.5 0,-0.28 -0.22,-0.5 -0.5,-0.5 z m -7,0 -3,0 c -0.28,0 -0.5,0.22 -0.5,0.5 0,0.27 0.22,0.5 0.5,0.5 l 3,0 c 0.28,0 0.5,-0.22 0.5,-0.5 0,-0.28 -0.22,-0.5 -0.5,-0.5 z m -7,0 -3,0 c -0.28,0 -0.5,0.22 -0.5,0.5 0,0.27 0.22,0.5 0.5,0.5 l 3,0 c 0.28,0 0.5,-0.23 0.5,-0.5 0,-0.28 -0.22,-0.5 -0.5,-0.5 z m -7,0 -3,0 c -0.28,0 -0.5,0.22 -0.5,0.5 0,0.27 0.22,0.5 0.5,0.5 l 3,0 c 0.28,0 0.5,-0.23 0.5,-0.5 0,-0.28 -0.22,-0.5 -0.5,-0.5 z m -7,0 -3,-0.01 c -0.28,0 -0.5,0.23 -0.5,0.5 0,0.28 0.22,0.5 0.5,0.5 l 3,0.01 c 0.28,0 0.5,-0.23 0.5,-0.5 0,-0.28 -0.22,-0.5 -0.5,-0.5 z m -7,-0.01 -3,0 c -0.28,0 -0.5,0.23 -0.5,0.5 0,0.28 0.22,0.5 0.5,0.5 l 3,0 c 0.28,0 0.5,-0.22 0.5,-0.5 0,-0.27 -0.22,-0.5 -0.5,-0.5 z m -7,0 -3,0 c -0.28,0 -0.5,0.23 -0.5,0.5 0,0.28 0.22,0.5 0.5,0.5 l 3,0 c 0.28,0 0.5,-0.22 0.5,-0.5 0,-0.27 -0.22,-0.5 -0.5,-0.5 z m -7,0 -3,0 c -0.28,0 -0.5,0.22 -0.5,0.5 0,0.28 0.22,0.5 0.5,0.5 l 3,0 c 0.28,0 0.5,-0.22 0.5,-0.5 0,-0.28 -0.22,-0.5 -0.5,-0.5 z m 5.51,-4.93 -9.79,5.43 9.79,5.44 c 0.24,0.13 0.54,0.05 0.68,-0.19 0.13,-0.25 0.04,-0.55 -0.2,-0.68 l -9,-5.01 0,0.88 9,-5 c 0.25,-0.13 0.33,-0.44 0.2,-0.68 -0.14,-0.24 -0.44,-0.33 -0.68,-0.19 z"
       inkscape:connector-curvature="0"
       id="path240"
       style="fill:#000000;fill-opacity:1;fill-rule:nonzero;stroke:none" /><g
       id="g242"><g
         clip-path="url(#clipPath246)"
         id="g244"><g
           id="g250"><g
             clip-path="url(#clipPath254)"
             id="g252"><text
   transform="matrix(1,0,0,-1,339.41,641.83)"
   id="text258"><tspan
     x="0 7.1999998 14.4 21.6 28.799999 36 43.200001 50.400002"
     y="0"
     id="tspan260"
     style="font-size:12px;font-variant:normal;font-weight:normal;writing-mode:lr-tb;fill:#000000;fill-opacity:1;fill-rule:nonzero;stroke:none;font-family:Courier New;-inkscape-font-specification:Courier New">«Create»</tspan></text>

</g></g><g
           id="g262"><g
             clip-path="url(#clipPath266)"
             id="g264" /></g></g></g><g
       id="g270"><g
         clip-path="url(#clipPath274)"
         id="g272"><g
           id="g278"><g
             clip-path="url(#clipPath282)"
             id="g280"><text
   transform="matrix(1,0,0,-1,211.1,556.27)"
   id="text286"><tspan
     x="0 6.7080002 13.416 19.296 22.632 26.628"
     y="0"
     id="tspan288"
     style="font-size:12px;font-variant:normal;font-weight:normal;writing-mode:lr-tb;fill:#000000;fill-opacity:1;fill-rule:nonzero;stroke:none;font-family:Helvetica;-inkscape-font-specification:Helvetica">next()</tspan></text>

</g></g><g
           id="g290"><g
             clip-path="url(#clipPath294)"
             id="g292" /></g></g></g><g
       id="g298"><g
         clip-path="url(#clipPath302)"
         id="g300"><g
           id="g306"><g
             clip-path="url(#clipPath310)"
             id="g308"><text
   transform="matrix(1,0,0,-1,197.18,623.83)"
   id="text314"><tspan
     x="0 6.7080002 10.704 16.548 23.256001 29.964001 36.563999 43.271999 46.608002 49.98 56.688 60.683998 67.356003 70.692001 77.435997 81.431999 85.356003 89.351997 92.688004 96.024002"
     y="0"
     id="tspan316"
     style="font-size:12px;font-variant:normal;font-weight:normal;writing-mode:lr-tb;fill:#000000;fill-opacity:1;fill-rule:nonzero;stroke:none;font-family:Helvetica;-inkscape-font-specification:Helvetica">erzeugeIterator() : </tspan></text>

</g></g><g
           id="g318"><g
             clip-path="url(#clipPath322)"
             id="g320" /></g><g
           id="g326"><g
             clip-path="url(#clipPath330)"
             id="g328"><text
   transform="matrix(1,0,0,-1,239.18,610.03)"
   id="text334"><tspan
     x="0 6 8.6639996"
     y="0"
     id="tspan336"
     style="font-size:12px;font-variant:normal;font-weight:normal;writing-mode:lr-tb;fill:#000000;fill-opacity:1;fill-rule:nonzero;stroke:none;font-family:Helvetica;-inkscape-font-specification:Helvetica">kit</tspan></text>

</g></g><g
           id="g338"><g
             clip-path="url(#clipPath342)"
             id="g340" /></g></g></g><g
       id="g346"><g
         clip-path="url(#clipPath350)"
         id="g348"><g
           id="g354"><g
             clip-path="url(#clipPath358)"
             id="g356"><text
   transform="matrix(1,0,0,-1,203.42,656.11)"
   id="text362"><tspan
     x="0 6.7080002 10.704 16.548 23.256001 29.964001 36.563999 43.271999 46.608002 49.98 56.688 60.683998 67.356003 70.692001 77.435997 81.431999 85.356003"
     y="0"
     id="tspan364"
     style="font-size:12px;font-variant:normal;font-weight:normal;writing-mode:lr-tb;fill:#000000;fill-opacity:1;fill-rule:nonzero;stroke:none;font-family:Helvetica;-inkscape-font-specification:Helvetica">erzeugeIterator()</tspan></text>

</g></g><g
           id="g366"><g
             clip-path="url(#clipPath370)"
             id="g368" /></g></g></g><g
       id="g374"><path
         d="M 318.2,686.75 318.25,427.8"
         inkscape:connector-curvature="0"
         id="path376"
         style="fill:none;stroke:#000000;stroke-width:0.75;stroke-linecap:round;stroke-linejoin:round;stroke-miterlimit:10;stroke-opacity:1;stroke-dasharray:2.25, 3;stroke-dashoffset:0" /></g><g
       id="g378"><path
         d="m 175.05,686.75 0,-258.95"
         inkscape:connector-curvature="0"
         id="path380"
         style="fill:none;stroke:#000000;stroke-width:0.75;stroke-linecap:round;stroke-linejoin:round;stroke-miterlimit:10;stroke-opacity:1;stroke-dasharray:2.25, 3;stroke-dashoffset:0" /></g><path
       d="m 267.3,688.8 101.4,0 0,35.3 -101.4,0 0,-35.3 z"
       inkscape:connector-curvature="0"
       id="path382"
       style="fill:none;stroke:#000000;stroke-width:0.75;stroke-linecap:round;stroke-linejoin:miter;stroke-miterlimit:10;stroke-opacity:1;stroke-dasharray:none" /><g
       id="g384"><g
         clip-path="url(#clipPath388)"
         id="g386"><g
           id="g392"><g
             clip-path="url(#clipPath396)"
             id="g394" /></g><g
           id="g400"><g
             clip-path="url(#clipPath404)"
             id="g402"><text
   transform="matrix(1,0,0,-1,283.37,701.98)"
   id="text408"><tspan
     x="0 3.336 12 18.708 22.044001 28.775999 35.484001 41.363998 44.700001 48.695999 55.368 61.368 68.112"
     y="0"
     id="tspan410"
     style="font-size:12px;font-variant:normal;font-weight:normal;writing-mode:lr-tb;fill:#000000;fill-opacity:1;fill-rule:nonzero;stroke:none;font-family:Helvetica;-inkscape-font-specification:Helvetica">:Datenstrukur</tspan></text>

</g></g><g
           id="g412"><g
             clip-path="url(#clipPath416)"
             id="g414" /></g></g></g><path
       d="m 164.7,461 20.1,0 0,92.6 -20.1,0 0,-92.6 z"
       inkscape:connector-curvature="0"
       id="path420"
       style="fill:#ffffff;fill-opacity:1;fill-rule:evenodd;stroke:none" /><path
       d="m 164.7,461 20.1,0 0,92.6 -20.1,0 0,-92.6 z"
       inkscape:connector-curvature="0"
       id="path422"
       style="fill:none;stroke:#000000;stroke-width:0.75;stroke-linecap:round;stroke-linejoin:miter;stroke-miterlimit:10;stroke-opacity:1;stroke-dasharray:none" /><path
       d="m 184.8,644.3 118.15,0 c 0.28,0 0.5,-0.22 0.5,-0.5 0,-0.28 -0.22,-0.5 -0.5,-0.5 l -118.15,0 c -0.28,0 -0.5,0.22 -0.5,0.5 0,0.28 0.22,0.5 0.5,0.5 z m 117.15,2.5 6,-3 -6,-3 0,6 z"
       inkscape:connector-curvature="0"
       id="path424"
       style="fill:#000000;fill-opacity:1;fill-rule:nonzero;stroke:none" /><path
       d="m 328.05,631.25 3,0 c 0.28,0 0.5,-0.22 0.5,-0.5 0,-0.28 -0.22,-0.5 -0.5,-0.5 l -3,0 c -0.28,0 -0.5,0.22 -0.5,0.5 0,0.28 0.22,0.5 0.5,0.5 z m 7,0 3,0 c 0.28,0 0.5,-0.22 0.5,-0.5 0,-0.28 -0.22,-0.5 -0.5,-0.5 l -3,0 c -0.28,0 -0.5,0.22 -0.5,0.5 0,0.28 0.22,0.5 0.5,0.5 z m 7,0 3,0 c 0.28,0 0.5,-0.22 0.5,-0.5 0,-0.28 -0.22,-0.5 -0.5,-0.5 l -3,0 c -0.28,0 -0.5,0.22 -0.5,0.5 0,0.28 0.22,0.5 0.5,0.5 z m 7,0 3,0 c 0.28,0 0.5,-0.22 0.5,-0.5 0,-0.28 -0.22,-0.5 -0.5,-0.5 l -3,0 c -0.28,0 -0.5,0.22 -0.5,0.5 0,0.28 0.22,0.5 0.5,0.5 z m 7,0 3,0 c 0.28,0 0.5,-0.22 0.5,-0.5 0,-0.28 -0.22,-0.5 -0.5,-0.5 l -3,0 c -0.28,0 -0.5,0.22 -0.5,0.5 0,0.28 0.22,0.5 0.5,0.5 z m 7,0 3,0 c 0.28,0 0.5,-0.22 0.5,-0.5 0,-0.28 -0.22,-0.5 -0.5,-0.5 l -3,0 c -0.28,0 -0.5,0.22 -0.5,0.5 0,0.28 0.22,0.5 0.5,0.5 z m 7,0 3,0 c 0.28,0 0.5,-0.22 0.5,-0.5 0,-0.28 -0.22,-0.5 -0.5,-0.5 l -3,0 c -0.28,0 -0.5,0.22 -0.5,0.5 0,0.28 0.22,0.5 0.5,0.5 z m 7,0 3,0 c 0.28,0 0.5,-0.22 0.5,-0.5 0,-0.28 -0.22,-0.5 -0.5,-0.5 l -3,0 c -0.28,0 -0.5,0.22 -0.5,0.5 0,0.28 0.22,0.5 0.5,0.5 z m 7,0 3,0 c 0.28,0 0.5,-0.22 0.5,-0.5 0,-0.28 -0.22,-0.5 -0.5,-0.5 l -3,0 c -0.28,0 -0.5,0.22 -0.5,0.5 0,0.28 0.22,0.5 0.5,0.5 z m 7,0 3,0 c 0.28,0 0.5,-0.22 0.5,-0.5 0,-0.28 -0.22,-0.5 -0.5,-0.5 l -3,0 c -0.28,0 -0.5,0.22 -0.5,0.5 0,0.28 0.22,0.5 0.5,0.5 z m 7,0 3,0 c 0.28,0 0.5,-0.22 0.5,-0.5 0,-0.28 -0.22,-0.5 -0.5,-0.5 l -3,0 c -0.28,0 -0.5,0.22 -0.5,0.5 0,0.28 0.22,0.5 0.5,0.5 z m 7,0 3,0 c 0.28,0 0.5,-0.22 0.5,-0.5 0,-0.28 -0.22,-0.5 -0.5,-0.5 l -3,0 c -0.28,0 -0.5,0.22 -0.5,0.5 0,0.28 0.22,0.5 0.5,0.5 z m -2.11,4.94 9.79,-5.44 -9.79,-5.44 c -0.24,-0.13 -0.54,-0.04 -0.68,0.2 -0.13,0.24 -0.04,0.54 0.2,0.68 l 9,5 0,-0.88 -9,5 c -0.24,0.14 -0.33,0.44 -0.2,0.68 0.14,0.24 0.44,0.33 0.68,0.2 z"
       inkscape:connector-curvature="0"
       id="path426"
       style="fill:#000000;fill-opacity:1;fill-rule:nonzero;stroke:none" /><path
       d="m 164.7,607.8 20.1,0 0,47.45 -20.1,0 0,-47.45 z"
       inkscape:connector-curvature="0"
       id="path428"
       style="fill:#ffffff;fill-opacity:1;fill-rule:evenodd;stroke:none" /><path
       d="m 164.7,607.8 20.1,0 0,47.45 -20.1,0 0,-47.45 z"
       inkscape:connector-curvature="0"
       id="path430"
       style="fill:none;stroke:#000000;stroke-width:0.75;stroke-linecap:round;stroke-linejoin:miter;stroke-miterlimit:10;stroke-opacity:1;stroke-dasharray:none" /><path
       d="m 308.7,607.8 20.1,0 0,37 -20.1,0 0,-37 z"
       inkscape:connector-curvature="0"
       id="path432"
       style="fill:#ffffff;fill-opacity:1;fill-rule:evenodd;stroke:none" /><path
       d="m 308.7,607.8 20.1,0 0,37 -20.1,0 0,-37 z"
       inkscape:connector-curvature="0"
       id="path434"
       style="fill:none;stroke:#000000;stroke-width:0.75;stroke-linecap:round;stroke-linejoin:miter;stroke-miterlimit:10;stroke-opacity:1;stroke-dasharray:none" /><path
       d="m 307.95,607.3 -3,0 c -0.28,0 -0.5,0.22 -0.5,0.5 0,0.28 0.22,0.5 0.5,0.5 l 3,0 c 0.28,0 0.5,-0.22 0.5,-0.5 0,-0.28 -0.22,-0.5 -0.5,-0.5 z m -7,0 -3,0 c -0.28,0 -0.5,0.22 -0.5,0.5 0,0.28 0.22,0.5 0.5,0.5 l 3,0 c 0.28,0 0.5,-0.22 0.5,-0.5 0,-0.28 -0.22,-0.5 -0.5,-0.5 z m -7,0 -3,0 c -0.28,0 -0.5,0.22 -0.5,0.5 0,0.28 0.22,0.5 0.5,0.5 l 3,0 c 0.28,0 0.5,-0.22 0.5,-0.5 0,-0.28 -0.22,-0.5 -0.5,-0.5 z m -7,0 -3,0 c -0.28,0 -0.5,0.22 -0.5,0.5 0,0.28 0.22,0.5 0.5,0.5 l 3,0 c 0.28,0 0.5,-0.22 0.5,-0.5 0,-0.28 -0.22,-0.5 -0.5,-0.5 z m -7,0 -3,0 c -0.28,0 -0.5,0.22 -0.5,0.5 0,0.28 0.22,0.5 0.5,0.5 l 3,0 c 0.28,0 0.5,-0.22 0.5,-0.5 0,-0.28 -0.22,-0.5 -0.5,-0.5 z m -7,0 -3,0 c -0.28,0 -0.5,0.22 -0.5,0.5 0,0.28 0.22,0.5 0.5,0.5 l 3,0 c 0.28,0 0.5,-0.22 0.5,-0.5 0,-0.28 -0.22,-0.5 -0.5,-0.5 z m -7,0 -3,0 c -0.28,0 -0.5,0.22 -0.5,0.5 0,0.28 0.22,0.5 0.5,0.5 l 3,0 c 0.28,0 0.5,-0.22 0.5,-0.5 0,-0.28 -0.22,-0.5 -0.5,-0.5 z m -7,0 -3,0 c -0.28,0 -0.5,0.22 -0.5,0.5 0,0.28 0.22,0.5 0.5,0.5 l 3,0 c 0.28,0 0.5,-0.22 0.5,-0.5 0,-0.28 -0.22,-0.5 -0.5,-0.5 z m -7,0 -3,0 c -0.28,0 -0.5,0.22 -0.5,0.5 0,0.28 0.22,0.5 0.5,0.5 l 3,0 c 0.28,0 0.5,-0.22 0.5,-0.5 0,-0.28 -0.22,-0.5 -0.5,-0.5 z m -7,0 -3,0 c -0.28,0 -0.5,0.22 -0.5,0.5 0,0.28 0.22,0.5 0.5,0.5 l 3,0 c 0.28,0 0.5,-0.22 0.5,-0.5 0,-0.28 -0.22,-0.5 -0.5,-0.5 z m -7,0 -3,0 c -0.28,0 -0.5,0.22 -0.5,0.5 0,0.28 0.22,0.5 0.5,0.5 l 3,0 c 0.28,0 0.5,-0.22 0.5,-0.5 0,-0.28 -0.22,-0.5 -0.5,-0.5 z m -7,0 -3,0 c -0.28,0 -0.5,0.22 -0.5,0.5 0,0.28 0.22,0.5 0.5,0.5 l 3,0 c 0.28,0 0.5,-0.22 0.5,-0.5 0,-0.28 -0.22,-0.5 -0.5,-0.5 z m -7,0 -3,0 c -0.28,0 -0.5,0.22 -0.5,0.5 0,0.28 0.22,0.5 0.5,0.5 l 3,0 c 0.28,0 0.5,-0.22 0.5,-0.5 0,-0.28 -0.22,-0.5 -0.5,-0.5 z m -7,0 -3,0 c -0.28,0 -0.5,0.22 -0.5,0.5 0,0.28 0.22,0.5 0.5,0.5 l 3,0 c 0.28,0 0.5,-0.22 0.5,-0.5 0,-0.28 -0.22,-0.5 -0.5,-0.5 z m -7,0 -3,0 c -0.28,0 -0.5,0.22 -0.5,0.5 0,0.28 0.22,0.5 0.5,0.5 l 3,0 c 0.28,0 0.5,-0.22 0.5,-0.5 0,-0.28 -0.22,-0.5 -0.5,-0.5 z m -7,0 -3,0 c -0.28,0 -0.5,0.22 -0.5,0.5 0,0.28 0.22,0.5 0.5,0.5 l 3,0 c 0.28,0 0.5,-0.22 0.5,-0.5 0,-0.28 -0.22,-0.5 -0.5,-0.5 z m -7,0 -3,0 c -0.28,0 -0.5,0.22 -0.5,0.5 0,0.28 0.22,0.5 0.5,0.5 l 3,0 c 0.28,0 0.5,-0.22 0.5,-0.5 0,-0.28 -0.22,-0.5 -0.5,-0.5 z m -7,0 -2.15,0 c -0.28,0 -0.5,0.22 -0.5,0.5 0,0.28 0.22,0.5 0.5,0.5 l 2.15,0 c 0.28,0 0.5,-0.22 0.5,-0.5 0,-0.28 -0.22,-0.5 -0.5,-0.5 z m 6.61,-4.94 -9.79,5.44 9.79,5.44 c 0.24,0.13 0.54,0.04 0.68,-0.2 0.13,-0.24 0.04,-0.54 -0.2,-0.68 l -9,-5 0,0.88 9,-5 c 0.24,-0.14 0.33,-0.44 0.2,-0.68 -0.14,-0.24 -0.44,-0.33 -0.68,-0.2 z"
       inkscape:connector-curvature="0"
       id="path436"
       style="fill:#000000;fill-opacity:1;fill-rule:nonzero;stroke:none" /><g
       id="g438"><g
         clip-path="url(#clipPath442)"
         id="g440"><g
           id="g446"><g
             clip-path="url(#clipPath450)"
             id="g448"><text
   transform="matrix(1,0,0,-1,74.64,565.63)"
   id="text454"><tspan
     x="0 2.664 9.3360004 16.068001"
     y="0"
     id="tspan456"
     style="font-size:12px;font-variant:normal;font-weight:normal;writing-mode:lr-tb;fill:#000000;fill-opacity:1;fill-rule:nonzero;stroke:none;font-family:Helvetica;-inkscape-font-specification:Helvetica">loop</tspan></text>

</g></g><g
           id="g458"><g
             clip-path="url(#clipPath462)"
             id="g460" /></g></g></g><path
       d="m 139.4,687.68 70.658,0 0,36.417 -70.658,0 0,-36.417 z"
       inkscape:connector-curvature="0"
       id="path466"
       style="fill:none;stroke:#000000;stroke-width:0.75;stroke-linecap:round;stroke-linejoin:round;stroke-miterlimit:10;stroke-opacity:1;stroke-dasharray:none" /><g
       id="g468"><g
         clip-path="url(#clipPath472)"
         id="g470"><g
           id="g476"><g
             clip-path="url(#clipPath480)"
             id="g478"><text
   transform="matrix(1,0,0,-1,156.62,700.9)"
   id="text484"><tspan
     x="0 3.336 12 14.664 17.280001 23.988001 30.695999"
     y="0"
     id="tspan486"
     style="font-size:12px;font-variant:normal;font-weight:normal;writing-mode:lr-tb;fill:#000000;fill-opacity:1;fill-rule:nonzero;stroke:none;font-family:Helvetica;-inkscape-font-specification:Helvetica">:Client</tspan></text>

</g></g><g
           id="g488"><g
             clip-path="url(#clipPath492)"
             id="g490" /></g></g></g><path
       d="M 111.65,559.7 67.9,559.65"
       inkscape:connector-curvature="0"
       id="path496"
       style="fill:none;stroke:#000000;stroke-width:0.75;stroke-linecap:round;stroke-linejoin:round;stroke-miterlimit:10;stroke-opacity:1;stroke-dasharray:none" /><path
       d="m 115.2,580.8 0,-16.55"
       inkscape:connector-curvature="0"
       id="path498"
       style="fill:none;stroke:#000000;stroke-width:0.75;stroke-linecap:round;stroke-linejoin:round;stroke-miterlimit:10;stroke-opacity:1;stroke-dasharray:none" /><path
       d="m 115.2,564.25 -3.55,-4.55"
       inkscape:connector-curvature="0"
       id="path500"
       style="fill:none;stroke:#000000;stroke-width:0.75;stroke-linecap:round;stroke-linejoin:round;stroke-miterlimit:10;stroke-opacity:1;stroke-dasharray:none" /></g></svg>