<?xml version="1.0" encoding="UTF-8" standalone="no"?>
<!-- Created with Inkscape (http://www.inkscape.org/) -->

<svg
   xmlns:dc="http://purl.org/dc/elements/1.1/"
   xmlns:cc="http://creativecommons.org/ns#"
   xmlns:rdf="http://www.w3.org/1999/02/22-rdf-syntax-ns#"
   xmlns:svg="http://www.w3.org/2000/svg"
   xmlns="http://www.w3.org/2000/svg"
   xmlns:sodipodi="http://sodipodi.sourceforge.net/DTD/sodipodi-0.dtd"
   xmlns:inkscape="http://www.inkscape.org/namespaces/inkscape"
   version="1.1"
   width="615.75"
   height="221.25"
   id="svg2"
   xml:space="preserve"
   inkscape:version="0.48.4 r9939"
   sodipodi:docname="Bild 4-14 Beispiel für den Dekorierer.svg"><sodipodi:namedview
     pagecolor="#ffffff"
     bordercolor="#666666"
     borderopacity="1"
     objecttolerance="10"
     gridtolerance="10"
     guidetolerance="10"
     inkscape:pageopacity="0"
     inkscape:pageshadow="2"
     inkscape:window-width="640"
     inkscape:window-height="480"
     id="namedview102"
     showgrid="false"
     inkscape:zoom="0.18730159"
     inkscape:cx="554.90625"
     inkscape:cy="93.28125"
     inkscape:window-x="0"
     inkscape:window-y="0"
     inkscape:window-maximized="0"
     inkscape:current-layer="svg2" /><metadata
     id="metadata8"><rdf:RDF><cc:Work
         rdf:about=""><dc:format>image/svg+xml</dc:format><dc:type
           rdf:resource="http://purl.org/dc/dcmitype/StillImage" /></cc:Work></rdf:RDF></metadata><defs
     id="defs6"><clipPath
       id="clipPath20"><path
         d="m 213.27,551.47 104.18,0 0,50.52 -104.18,0 0,-50.52 z"
         inkscape:connector-curvature="0"
         id="path22" /></clipPath><clipPath
       id="clipPath28"><path
         d="m 213.26,551.47 104.18,0 0,50.52 -104.18,0 0,-50.52 z"
         inkscape:connector-curvature="0"
         id="path30" /></clipPath><clipPath
       id="clipPath36"><path
         d="m 213.26,551.47 104.18,0 0,50.52 -104.18,0 0,-50.52 z"
         inkscape:connector-curvature="0"
         id="path38" /></clipPath><clipPath
       id="clipPath48"><path
         d="m 213.26,551.47 104.18,0 0,50.52 -104.18,0 0,-50.52 z"
         inkscape:connector-curvature="0"
         id="path50" /></clipPath><clipPath
       id="clipPath56"><path
         d="m 213.26,551.47 104.18,0 0,50.52 -104.18,0 0,-50.52 z"
         inkscape:connector-curvature="0"
         id="path58" /></clipPath><clipPath
       id="clipPath68"><path
         d="m 213.26,551.47 104.18,0 0,50.52 -104.18,0 0,-50.52 z"
         inkscape:connector-curvature="0"
         id="path70" /></clipPath><clipPath
       id="clipPath80"><path
         d="m 339.41,433.72 148.47,0 0,31.71 -148.47,0 0,-31.71 z"
         inkscape:connector-curvature="0"
         id="path82" /></clipPath><clipPath
       id="clipPath88"><path
         d="m 339.41,433.73 148.46,0 0,31.704 -148.46,0 0,-31.704 z"
         inkscape:connector-curvature="0"
         id="path90" /></clipPath><clipPath
       id="clipPath100"><path
         d="m 339.41,433.73 148.46,0 0,31.704 -148.46,0 0,-31.704 z"
         inkscape:connector-curvature="0"
         id="path102" /></clipPath><clipPath
       id="clipPath112"><path
         d="m 200.67,433.72 129.02,0 0,31.71 -129.02,0 0,-31.71 z"
         inkscape:connector-curvature="0"
         id="path114" /></clipPath><clipPath
       id="clipPath120"><path
         d="m 200.66,433.73 129.02,0 0,31.704 -129.02,0 0,-31.704 z"
         inkscape:connector-curvature="0"
         id="path122" /></clipPath><clipPath
       id="clipPath132"><path
         d="m 200.66,433.73 129.02,0 0,31.704 -129.02,0 0,-31.704 z"
         inkscape:connector-curvature="0"
         id="path134" /></clipPath><clipPath
       id="clipPath144"><path
         d="m 61.201,433.72 128.91,0 0,31.71 -128.91,0 0,-31.71 z"
         inkscape:connector-curvature="0"
         id="path146" /></clipPath><clipPath
       id="clipPath152"><path
         d="m 61.2,433.73 128.9,0 0,31.704 -128.9,0 0,-31.704 z"
         inkscape:connector-curvature="0"
         id="path154" /></clipPath><clipPath
       id="clipPath164"><path
         d="m 61.2,433.73 128.9,0 0,31.704 -128.9,0 0,-31.704 z"
         inkscape:connector-curvature="0"
         id="path166" /></clipPath><clipPath
       id="clipPath172"><path
         d="m 61.2,433.73 128.9,0 0,31.704 -128.9,0 0,-31.704 z"
         inkscape:connector-curvature="0"
         id="path174" /></clipPath></defs><g
     transform="matrix(1.25,0,0,-1.25,-75.46875,757.96875)"
     id="g10"><path
       d="m 212.85,547.5 105,0 0,58.5 -105,0 0,-58.5 z"
       inkscape:connector-curvature="0"
       id="path12"
       style="fill:#ffffff;fill-opacity:1;fill-rule:evenodd;stroke:none" /><path
       d="m 212.85,547.5 105,0 0,58.5 -105,0 0,-58.5 z"
       inkscape:connector-curvature="0"
       id="path14"
       style="fill:none;stroke:#000000;stroke-width:0.75;stroke-linecap:round;stroke-linejoin:miter;stroke-miterlimit:10;stroke-opacity:1;stroke-dasharray:none" /><g
       id="g16"><g
         clip-path="url(#clipPath20)"
         id="g18"><g
           id="g24"><g
             clip-path="url(#clipPath28)"
             id="g26" /></g><g
           id="g32"><g
             clip-path="url(#clipPath36)"
             id="g34"><text
   transform="matrix(1,0,0,-1,225.38,581.71)"
   id="text40"><tspan
     x="0 9.3360004 16.667999 20.664 27.959999 35.292 39.240002 47.268002 51.264 55.931999 62.604 69.335999"
     y="0"
     id="tspan42"
     style="font-size:12px;font-variant:normal;font-weight:bold;writing-mode:lr-tb;fill:#000000;fill-opacity:1;fill-rule:nonzero;stroke:none;font-family:Helvetica;-inkscape-font-specification:Helvetica-Bold">OutputStream</tspan></text>

</g></g><g
           id="g44"><g
             clip-path="url(#clipPath48)"
             id="g46" /></g><g
           id="g52"><g
             clip-path="url(#clipPath56)"
             id="g54"><text
   transform="matrix(1,0,0,-1,240.02,567.79)"
   id="text60"><tspan
     x="0 3.96 10.668 17.375999 23.375999 26.712 30.708 37.380001 43.403999 46.740002"
     y="0"
     id="tspan62"
     style="font-size:12px;font-variant:normal;font-weight:normal;writing-mode:lr-tb;fill:#000000;fill-opacity:1;fill-rule:nonzero;stroke:none;font-family:Helvetica;-inkscape-font-specification:Helvetica">{abstract}</tspan></text>

</g></g><g
           id="g64"><g
             clip-path="url(#clipPath68)"
             id="g66" /></g></g></g><path
       d="m 339,429.75 149.25,0 0,39.75 -149.25,0 0,-39.75 z"
       inkscape:connector-curvature="0"
       id="path72"
       style="fill:#ffffff;fill-opacity:1;fill-rule:evenodd;stroke:none" /><path
       d="m 339,429.75 149.25,0 0,39.75 -149.25,0 0,-39.75 z"
       inkscape:connector-curvature="0"
       id="path74"
       style="fill:none;stroke:#000000;stroke-width:0.75;stroke-linecap:round;stroke-linejoin:miter;stroke-miterlimit:10;stroke-opacity:1;stroke-dasharray:none" /><g
       id="g76"><g
         clip-path="url(#clipPath80)"
         id="g78"><g
           id="g84"><g
             clip-path="url(#clipPath88)"
             id="g86"><text
   transform="matrix(1,0,0,-1,349.01,453.91)"
   id="text92"><tspan
     x="0 8.6639996 15.996 19.92 23.916 30.587999 35.256001 41.987999 49.32 58.655998 65.987999 69.947998 77.279999 84.612 88.547997 96.575996 100.572 105.24 111.912 118.644"
     y="0"
     id="tspan94"
     style="font-size:12px;font-variant:normal;font-weight:bold;writing-mode:lr-tb;fill:#000000;fill-opacity:1;fill-rule:nonzero;stroke:none;font-family:Helvetica;-inkscape-font-specification:Helvetica-Bold">BufferedOutputStream</tspan></text>

</g></g><g
           id="g96"><g
             clip-path="url(#clipPath100)"
             id="g98" /></g></g></g><path
       d="m 200.25,429.75 129.75,0 0,39.75 -129.75,0 0,-39.75 z"
       inkscape:connector-curvature="0"
       id="path104"
       style="fill:#ffffff;fill-opacity:1;fill-rule:evenodd;stroke:none" /><path
       d="m 200.25,429.75 129.75,0 0,39.75 -129.75,0 0,-39.75 z"
       inkscape:connector-curvature="0"
       id="path106"
       style="fill:none;stroke:#000000;stroke-width:0.75;stroke-linecap:round;stroke-linejoin:miter;stroke-miterlimit:10;stroke-opacity:1;stroke-dasharray:none" /><g
       id="g108"><g
         clip-path="url(#clipPath112)"
         id="g110"><g
           id="g116"><g
             clip-path="url(#clipPath120)"
             id="g118"><text
   transform="matrix(1,0,0,-1,214.82,453.91)"
   id="text124"><tspan
     x="0 7.3319998 10.668 14.004 20.747999 30.084 37.416 41.411999 48.708 56.040001 59.987999 68.015999 72.012001 76.68 83.351997 90.084"
     y="0"
     id="tspan126"
     style="font-size:12px;font-variant:normal;font-weight:bold;writing-mode:lr-tb;fill:#000000;fill-opacity:1;fill-rule:nonzero;stroke:none;font-family:Helvetica;-inkscape-font-specification:Helvetica-Bold">FileOutputStream</tspan></text>

</g></g><g
           id="g128"><g
             clip-path="url(#clipPath132)"
             id="g130" /></g></g></g><path
       d="m 60.75,429.75 129.75,0 0,39.75 -129.75,0 0,-39.75 z"
       inkscape:connector-curvature="0"
       id="path136"
       style="fill:#ffffff;fill-opacity:1;fill-rule:evenodd;stroke:none" /><path
       d="m 60.75,429.75 129.75,0 0,39.75 -129.75,0 0,-39.75 z"
       inkscape:connector-curvature="0"
       id="path138"
       style="fill:none;stroke:#000000;stroke-width:0.75;stroke-linecap:round;stroke-linejoin:miter;stroke-miterlimit:10;stroke-opacity:1;stroke-dasharray:none" /><g
       id="g140"><g
         clip-path="url(#clipPath144)"
         id="g142"><g
           id="g148"><g
             clip-path="url(#clipPath152)"
             id="g150"><text
   transform="matrix(1,0,0,-1,69.36,454.39)"
   id="text156"><tspan
     x="0 8.0279999 11.364 18.695999 25.416 32.748001 42.084 49.416 53.375999 60.708 68.040001 71.975998 80.003998 84 88.667999 95.339996 102.072"
     y="0"
     id="tspan158"
     style="font-size:12px;font-variant:normal;font-weight:bold;writing-mode:lr-tb;fill:#000000;fill-opacity:1;fill-rule:nonzero;stroke:none;font-family:Helvetica;-inkscape-font-specification:Helvetica-Bold">PipedOutputStream</tspan></text>

</g></g><g
           id="g160"><g
             clip-path="url(#clipPath164)"
             id="g162" /></g><g
           id="g168"><g
             clip-path="url(#clipPath172)"
             id="g170" /></g></g></g><path
       d="m 265.35,469.8 0,77.7"
       inkscape:connector-curvature="0"
       id="path176"
       style="fill:none;stroke:#000000;stroke-width:0.75;stroke-linecap:round;stroke-linejoin:round;stroke-miterlimit:10;stroke-opacity:1;stroke-dasharray:none" /><path
       d="m 265.25,546.75 9,-16.5 -18,0 9,16.5 z"
       inkscape:connector-curvature="0"
       id="path178"
       style="fill:#ffffff;fill-opacity:1;fill-rule:evenodd;stroke:none" /><path
       d="m 265.25,546.75 9,-16.5 -18,0 9,16.5 z"
       inkscape:connector-curvature="0"
       id="path180"
       style="fill:none;stroke:#000000;stroke-width:0.75;stroke-linecap:round;stroke-linejoin:round;stroke-miterlimit:10;stroke-opacity:1;stroke-dasharray:none" /><path
       d="m 501.38,456.75 -13.13,-7.12 13.13,-7.13 13.12,7.13 -13.12,7.12 z"
       inkscape:connector-curvature="0"
       id="path182"
       style="fill:#ffffff;fill-opacity:1;fill-rule:evenodd;stroke:none" /><path
       d="m 501.38,456.75 -13.13,-7.12 13.13,-7.13 13.12,7.13 -13.12,7.12 z"
       inkscape:connector-curvature="0"
       id="path184"
       style="fill:none;stroke:#000000;stroke-width:0.75;stroke-linecap:round;stroke-linejoin:round;stroke-miterlimit:10;stroke-opacity:1;stroke-dasharray:none" /><path
       d="m 514.5,449.55 38.1,0"
       inkscape:connector-curvature="0"
       id="path186"
       style="fill:none;stroke:#000000;stroke-width:0.75;stroke-linecap:round;stroke-linejoin:round;stroke-miterlimit:10;stroke-opacity:1;stroke-dasharray:none" /><path
       d="m 317.85,577.5 234.6,0"
       inkscape:connector-curvature="0"
       id="path188"
       style="fill:none;stroke:#000000;stroke-width:0.75;stroke-linecap:round;stroke-linejoin:round;stroke-miterlimit:10;stroke-opacity:1;stroke-dasharray:none" /><path
       d="m 552.6,577.5 0,-127.95"
       inkscape:connector-curvature="0"
       id="path190"
       style="fill:none;stroke:#000000;stroke-width:0.75;stroke-linecap:round;stroke-linejoin:round;stroke-miterlimit:10;stroke-opacity:1;stroke-dasharray:none" /><path
       d="m 376.84,469.82 -81.43,67.16"
       inkscape:connector-curvature="0"
       id="path192"
       style="fill:none;stroke:#000000;stroke-width:0.75;stroke-linecap:round;stroke-linejoin:round;stroke-miterlimit:10;stroke-opacity:1;stroke-dasharray:none" /><path
       d="m 283.69,546.85 18.45,-3.56 -11.45,-13.88 -7,17.44 z"
       inkscape:connector-curvature="0"
       id="path194"
       style="fill:#ffffff;fill-opacity:1;fill-rule:evenodd;stroke:none" /><path
       d="m 283.69,546.85 18.45,-3.56 -11.45,-13.88 -7,17.44 z"
       inkscape:connector-curvature="0"
       id="path196"
       style="fill:none;stroke:#000000;stroke-width:0.75;stroke-linecap:round;stroke-linejoin:round;stroke-miterlimit:10;stroke-opacity:1;stroke-dasharray:none" /><path
       d="m 155.69,469.91 78.87,66.18"
       inkscape:connector-curvature="0"
       id="path198"
       style="fill:none;stroke:#000000;stroke-width:0.75;stroke-linecap:round;stroke-linejoin:round;stroke-miterlimit:10;stroke-opacity:1;stroke-dasharray:none" /><path
       d="m 247.27,546.75 -6.85,-17.5 -11.57,13.79 18.42,3.71 z"
       inkscape:connector-curvature="0"
       id="path200"
       style="fill:#ffffff;fill-opacity:1;fill-rule:evenodd;stroke:none" /><path
       d="m 247.27,546.75 -6.85,-17.5 -11.57,13.79 18.42,3.71 z"
       inkscape:connector-curvature="0"
       id="path202"
       style="fill:none;stroke:#000000;stroke-width:0.75;stroke-linecap:round;stroke-linejoin:round;stroke-miterlimit:10;stroke-opacity:1;stroke-dasharray:none" /></g></svg>