<?xml version="1.0" encoding="UTF-8" standalone="no"?>
<!-- Created with Inkscape (http://www.inkscape.org/) -->

<svg
   xmlns:dc="http://purl.org/dc/elements/1.1/"
   xmlns:cc="http://creativecommons.org/ns#"
   xmlns:rdf="http://www.w3.org/1999/02/22-rdf-syntax-ns#"
   xmlns:svg="http://www.w3.org/2000/svg"
   xmlns="http://www.w3.org/2000/svg"
   xmlns:sodipodi="http://sodipodi.sourceforge.net/DTD/sodipodi-0.dtd"
   xmlns:inkscape="http://www.inkscape.org/namespaces/inkscape"
   version="1.1"
   width="380.625"
   height="277.5"
   id="svg2"
   xml:space="preserve"
   inkscape:version="0.48.4 r9939"
   sodipodi:docname="Bild 4-47 Ein Mitarbeiter hat zu verschiedenen Zeitpunkten t1 und t2 jeweils eine andere Rolle.svg"><sodipodi:namedview
     pagecolor="#ffffff"
     bordercolor="#666666"
     borderopacity="1"
     objecttolerance="10"
     gridtolerance="10"
     guidetolerance="10"
     inkscape:pageopacity="0"
     inkscape:pageshadow="2"
     inkscape:window-width="640"
     inkscape:window-height="480"
     id="namedview126"
     showgrid="false"
     inkscape:zoom="0.18730159"
     inkscape:cx="363.65625"
     inkscape:cy="228.28125"
     inkscape:window-x="0"
     inkscape:window-y="0"
     inkscape:window-maximized="0"
     inkscape:current-layer="svg2" /><metadata
     id="metadata8"><rdf:RDF><cc:Work
         rdf:about=""><dc:format>image/svg+xml</dc:format><dc:type
           rdf:resource="http://purl.org/dc/dcmitype/StillImage" /></cc:Work></rdf:RDF></metadata><defs
     id="defs6"><clipPath
       id="clipPath24"><path
         d="m 214.23,484.75 89.895,0 0,54.24 -89.895,0 0,-54.24 z"
         inkscape:connector-curvature="0"
         id="path26" /></clipPath><clipPath
       id="clipPath32"><path
         d="m 214.22,484.75 89.904,0 0,54.24 -89.904,0 0,-54.24 z"
         inkscape:connector-curvature="0"
         id="path34" /></clipPath><clipPath
       id="clipPath44"><path
         d="m 214.22,484.75 89.904,0 0,54.24 -89.904,0 0,-54.24 z"
         inkscape:connector-curvature="0"
         id="path46" /></clipPath><clipPath
       id="clipPath56"><path
         d="m 214.22,484.75 89.904,0 0,54.24 -89.904,0 0,-54.24 z"
         inkscape:connector-curvature="0"
         id="path58" /></clipPath><clipPath
       id="clipPath76"><path
         d="m 419.69,484.75 97.47,0 0,54.24 -97.47,0 0,-54.24 z"
         inkscape:connector-curvature="0"
         id="path78" /></clipPath><clipPath
       id="clipPath84"><path
         d="m 419.69,484.75 97.464,0 0,54.24 -97.464,0 0,-54.24 z"
         inkscape:connector-curvature="0"
         id="path86" /></clipPath><clipPath
       id="clipPath96"><path
         d="m 419.69,484.75 97.464,0 0,54.24 -97.464,0 0,-54.24 z"
         inkscape:connector-curvature="0"
         id="path98" /></clipPath><clipPath
       id="clipPath108"><path
         d="m 419.69,484.75 97.464,0 0,54.24 -97.464,0 0,-54.24 z"
         inkscape:connector-curvature="0"
         id="path110" /></clipPath><clipPath
       id="clipPath116"><path
         d="m 207.03,417.52 120.74,0 0,21.24 -120.74,0 0,-21.24 z"
         inkscape:connector-curvature="0"
         id="path118" /></clipPath><clipPath
       id="clipPath124"><path
         d="m 207.02,417.53 120.74,0 0,21.24 -120.74,0 0,-21.24 z"
         inkscape:connector-curvature="0"
         id="path126" /></clipPath><clipPath
       id="clipPath136"><path
         d="m 207.02,417.53 120.74,0 0,21.24 -120.74,0 0,-21.24 z"
         inkscape:connector-curvature="0"
         id="path138" /></clipPath><clipPath
       id="clipPath148"><path
         d="m 207.02,417.53 120.74,0 0,21.24 -120.74,0 0,-21.24 z"
         inkscape:connector-curvature="0"
         id="path150" /></clipPath><clipPath
       id="clipPath156"><path
         d="m 207.02,417.53 120.74,0 0,21.24 -120.74,0 0,-21.24 z"
         inkscape:connector-curvature="0"
         id="path158" /></clipPath><clipPath
       id="clipPath168"><path
         d="m 207.02,417.53 120.74,0 0,21.24 -120.74,0 0,-21.24 z"
         inkscape:connector-curvature="0"
         id="path170" /></clipPath><clipPath
       id="clipPath176"><path
         d="m 432.05,416.8 108.03,0 0,21.24 -108.03,0 0,-21.24 z"
         inkscape:connector-curvature="0"
         id="path178" /></clipPath><clipPath
       id="clipPath184"><path
         d="m 432.05,416.81 108.02,0 0,21.24 -108.02,0 0,-21.24 z"
         inkscape:connector-curvature="0"
         id="path186" /></clipPath><clipPath
       id="clipPath196"><path
         d="m 432.05,416.81 108.02,0 0,21.24 -108.02,0 0,-21.24 z"
         inkscape:connector-curvature="0"
         id="path198" /></clipPath><clipPath
       id="clipPath208"><path
         d="m 302.69,325.72 117,0 0,54.24 -117,0 0,-54.24 z"
         inkscape:connector-curvature="0"
         id="path210" /></clipPath><clipPath
       id="clipPath216"><path
         d="m 302.69,325.73 117,0 0,54.24 -117,0 0,-54.24 z"
         inkscape:connector-curvature="0"
         id="path218" /></clipPath><clipPath
       id="clipPath228"><path
         d="m 302.69,325.73 117,0 0,54.24 -117,0 0,-54.24 z"
         inkscape:connector-curvature="0"
         id="path230" /></clipPath><clipPath
       id="clipPath236"><path
         d="m 302.69,325.73 117,0 0,54.24 -117,0 0,-54.24 z"
         inkscape:connector-curvature="0"
         id="path238" /></clipPath><clipPath
       id="clipPath248"><path
         d="m 302.69,325.73 117,0 0,54.24 -117,0 0,-54.24 z"
         inkscape:connector-curvature="0"
         id="path250" /></clipPath></defs><g
     transform="matrix(1.25,0,0,-1.25,-266.71875,679.21875)"
     id="g10"><path
       d="m 473.25,480.75 -105,-123"
       inkscape:connector-curvature="0"
       id="path12"
       style="fill:none;stroke:#000000;stroke-width:0.75;stroke-linecap:round;stroke-linejoin:round;stroke-miterlimit:10;stroke-opacity:1;stroke-dasharray:none" /><path
       d="M 259.5,480.75 367.5,357"
       inkscape:connector-curvature="0"
       id="path14"
       style="fill:none;stroke:#000000;stroke-width:0.75;stroke-linecap:round;stroke-linejoin:round;stroke-miterlimit:10;stroke-opacity:1;stroke-dasharray:none" /><path
       d="m 213.75,480.75 90.75,0 0,62.25 -90.75,0 0,-62.25 z"
       inkscape:connector-curvature="0"
       id="path16"
       style="fill:#ffffff;fill-opacity:1;fill-rule:evenodd;stroke:none" /><path
       d="m 213.75,480.75 90.75,0 0,62.25 -90.75,0 0,-62.25 z"
       inkscape:connector-curvature="0"
       id="path18"
       style="fill:none;stroke:#000000;stroke-width:0.75;stroke-linecap:round;stroke-linejoin:miter;stroke-miterlimit:8;stroke-opacity:1;stroke-dasharray:none" /><g
       id="g20"><g
         clip-path="url(#clipPath24)"
         id="g22"><g
           id="g28"><g
             clip-path="url(#clipPath32)"
             id="g30"><text
   transform="matrix(1,0,0,-1,236.9,527.83)"
   id="text36"><tspan
     x="0"
     y="0"
     id="tspan38"
     style="font-size:12px;font-variant:normal;font-weight:normal;writing-mode:lr-tb;fill:#000000;fill-opacity:1;fill-rule:nonzero;stroke:none;font-family:Helvetica;-inkscape-font-specification:Helvetica">:</tspan></text>

</g></g><g
           id="g40"><g
             clip-path="url(#clipPath44)"
             id="g42"><text
   transform="matrix(1,0,0,-1,240.26,527.83)"
   id="text48"><tspan
     x="0 8.0279999 14.736 18.732 24.732 31.403999 38.015999"
     y="0"
     id="tspan50"
     style="font-size:12px;font-variant:normal;font-weight:normal;writing-mode:lr-tb;fill:#000000;fill-opacity:1;fill-rule:nonzero;stroke:none;font-family:Helvetica;-inkscape-font-specification:Helvetica">Verkauf</tspan></text>

</g></g><g
           id="g52"><g
             clip-path="url(#clipPath56)"
             id="g54" /></g></g></g><path
       d="m 472.37,480.74 -14.61,-5.53 -2.38,-15.45 14.62,5.53 2.37,15.45 z"
       inkscape:connector-curvature="0"
       id="path60"
       style="fill:#ffffff;fill-opacity:1;fill-rule:evenodd;stroke:none" /><path
       d="m 472.37,480.74 -14.61,-5.53 -2.38,-15.45 14.62,5.53 2.37,15.45 z"
       inkscape:connector-curvature="0"
       id="path62"
       style="fill:none;stroke:#000000;stroke-width:0.75;stroke-linecap:round;stroke-linejoin:round;stroke-miterlimit:8;stroke-opacity:1;stroke-dasharray:none" /><path
       d="m 258.83,480.04 3.58,-15.21 15.01,-4.37 -3.58,15.21 -15.01,4.37 z"
       inkscape:connector-curvature="0"
       id="path64"
       style="fill:#ffffff;fill-opacity:1;fill-rule:evenodd;stroke:none" /><path
       d="m 258.83,480.04 3.58,-15.21 15.01,-4.37 -3.58,15.21 -15.01,4.37 z"
       inkscape:connector-curvature="0"
       id="path66"
       style="fill:none;stroke:#000000;stroke-width:0.75;stroke-linecap:round;stroke-linejoin:round;stroke-miterlimit:8;stroke-opacity:1;stroke-dasharray:none" /><path
       d="m 419.25,480.75 98.25,0 0,62.25 -98.25,0 0,-62.25 z"
       inkscape:connector-curvature="0"
       id="path68"
       style="fill:#ffffff;fill-opacity:1;fill-rule:evenodd;stroke:none" /><path
       d="m 419.25,480.75 98.25,0 0,62.25 -98.25,0 0,-62.25 z"
       inkscape:connector-curvature="0"
       id="path70"
       style="fill:none;stroke:#000000;stroke-width:0.75;stroke-linecap:round;stroke-linejoin:miter;stroke-miterlimit:8;stroke-opacity:1;stroke-dasharray:none" /><g
       id="g72"><g
         clip-path="url(#clipPath76)"
         id="g74"><g
           id="g80"><g
             clip-path="url(#clipPath84)"
             id="g82"><text
   transform="matrix(1,0,0,-1,434.81,527.83)"
   id="text88"><tspan
     x="0"
     y="0"
     id="tspan90"
     style="font-size:12px;font-variant:normal;font-weight:normal;writing-mode:lr-tb;fill:#000000;fill-opacity:1;fill-rule:nonzero;stroke:none;font-family:Helvetica;-inkscape-font-specification:Helvetica">:</tspan></text>

</g></g><g
           id="g92"><g
             clip-path="url(#clipPath96)"
             id="g94"><text
   transform="matrix(1,0,0,-1,438.17,527.83)"
   id="text100"><tspan
     x="0 8.0279999 14.736 18.072001 26.615999 29.280001 35.279999 41.279999 43.896 50.604 57.312"
     y="0"
     id="tspan102"
     style="font-size:12px;font-variant:normal;font-weight:normal;writing-mode:lr-tb;fill:#000000;fill-opacity:1;fill-rule:nonzero;stroke:none;font-family:Helvetica;-inkscape-font-specification:Helvetica">Entwicklung</tspan></text>

</g></g><g
           id="g104"><g
             clip-path="url(#clipPath108)"
             id="g106" /></g></g></g><g
       id="g112"><g
         clip-path="url(#clipPath116)"
         id="g114"><g
           id="g120"><g
             clip-path="url(#clipPath124)"
             id="g122"><text
   transform="matrix(1,0,0,-1,214.22,427.61)"
   id="text128"><tspan
     x="0 3.96 7.296 14.628 21.348 24.011999 27.348 34.056 40.764 47.472 53.472 56.712002"
     y="0"
     id="tspan130"
     style="font-size:12px;font-variant:normal;font-weight:normal;writing-mode:lr-tb;fill:#000000;fill-opacity:1;fill-rule:nonzero;stroke:none;font-family:Helvetica;-inkscape-font-specification:Helvetica">{ Zeitpunkt </tspan></text>

</g></g><g
           id="g132"><g
             clip-path="url(#clipPath136)"
             id="g134"><text
   transform="matrix(1,0,0,-1,274.34,427.61)"
   id="text140"><tspan
     x="0 3.3599999"
     y="0"
     id="tspan142"
     style="font-size:12px;font-variant:normal;font-weight:normal;writing-mode:lr-tb;fill:#000000;fill-opacity:1;fill-rule:nonzero;stroke:none;font-family:Helvetica;-inkscape-font-specification:Helvetica">t1</tspan></text>

</g></g><g
           id="g144"><g
             clip-path="url(#clipPath148)"
             id="g146" /></g><g
           id="g152"><g
             clip-path="url(#clipPath156)"
             id="g154"><text
   transform="matrix(1,0,0,-1,287.81,427.61)"
   id="text160"><tspan
     x="0"
     y="0"
     id="tspan162"
     style="font-size:12px;font-variant:normal;font-weight:normal;writing-mode:lr-tb;fill:#000000;fill-opacity:1;fill-rule:nonzero;stroke:none;font-family:Helvetica;-inkscape-font-specification:Helvetica">}</tspan></text>

</g></g><g
           id="g164"><g
             clip-path="url(#clipPath168)"
             id="g166" /></g></g></g><g
       id="g172"><g
         clip-path="url(#clipPath176)"
         id="g174"><g
           id="g180"><g
             clip-path="url(#clipPath184)"
             id="g182"><text
   transform="matrix(1,0,0,-1,439.25,426.89)"
   id="text188"><tspan
     x="0 3.96 7.296 14.628 21.348 24.011999 27.348 34.056 40.764 47.472 53.472 56.712002 60.048 63.419998 70.127998 73.463997"
     y="0"
     id="tspan190"
     style="font-size:12px;font-variant:normal;font-weight:normal;writing-mode:lr-tb;fill:#000000;fill-opacity:1;fill-rule:nonzero;stroke:none;font-family:Helvetica;-inkscape-font-specification:Helvetica">{ Zeitpunkt t2 }</tspan></text>

</g></g><g
           id="g192"><g
             clip-path="url(#clipPath196)"
             id="g194" /></g></g></g><path
       d="m 302.25,321.75 117.75,0 0,62.25 -117.75,0 0,-62.25 z"
       inkscape:connector-curvature="0"
       id="path200"
       style="fill:#ffffff;fill-opacity:1;fill-rule:evenodd;stroke:none" /><path
       d="m 302.25,321.75 117.75,0 0,62.25 -117.75,0 0,-62.25 z"
       inkscape:connector-curvature="0"
       id="path202"
       style="fill:none;stroke:#000000;stroke-width:0.75;stroke-linecap:round;stroke-linejoin:miter;stroke-miterlimit:8;stroke-opacity:1;stroke-dasharray:none" /><g
       id="g204"><g
         clip-path="url(#clipPath208)"
         id="g206"><g
           id="g212"><g
             clip-path="url(#clipPath216)"
             id="g214"><text
   transform="matrix(1,0,0,-1,339.77,368.93)"
   id="text220"><tspan
     x="0 10.068 16.775999 23.483999 26.148001 28.764 35.472 39.467999"
     y="0"
     id="tspan222"
     style="font-size:12px;font-variant:normal;font-weight:normal;writing-mode:lr-tb;fill:#000000;fill-opacity:1;fill-rule:nonzero;stroke:none;font-family:Helvetica;-inkscape-font-specification:Helvetica">mueller:</tspan></text>

</g></g><g
           id="g224"><g
             clip-path="url(#clipPath228)"
             id="g226" /></g><g
           id="g232"><g
             clip-path="url(#clipPath236)"
             id="g234"><text
   transform="matrix(1,0,0,-1,332.81,355.01)"
   id="text240"><tspan
     x="0 9.96 12.624 15.96 22.667999 26.664 33.335999 40.056 42.720001 46.056 52.764"
     y="0"
     id="tspan242"
     style="font-size:12px;font-variant:normal;font-weight:normal;writing-mode:lr-tb;fill:#000000;fill-opacity:1;fill-rule:nonzero;stroke:none;font-family:Helvetica;-inkscape-font-specification:Helvetica">Mitarbeiter</tspan></text>

</g></g><g
           id="g244"><g
             clip-path="url(#clipPath248)"
             id="g246" /></g></g></g></g></svg>