<?xml version="1.0" encoding="UTF-8" standalone="no"?>
<!-- Created with Inkscape (http://www.inkscape.org/) -->

<svg
   xmlns:dc="http://purl.org/dc/elements/1.1/"
   xmlns:cc="http://creativecommons.org/ns#"
   xmlns:rdf="http://www.w3.org/1999/02/22-rdf-syntax-ns#"
   xmlns:svg="http://www.w3.org/2000/svg"
   xmlns="http://www.w3.org/2000/svg"
   xmlns:sodipodi="http://sodipodi.sourceforge.net/DTD/sodipodi-0.dtd"
   xmlns:inkscape="http://www.inkscape.org/namespaces/inkscape"
   version="1.1"
   width="201.4375"
   height="238.75"
   id="svg2"
   xml:space="preserve"
   inkscape:version="0.48.4 r9939"
   sodipodi:docname="Bild 4-52 Trennung von Iterator und der zu durchquerenden Datenstruktur.svg"><sodipodi:namedview
     pagecolor="#ffffff"
     bordercolor="#666666"
     borderopacity="1"
     objecttolerance="10"
     gridtolerance="10"
     guidetolerance="10"
     inkscape:pageopacity="0"
     inkscape:pageshadow="2"
     inkscape:window-width="640"
     inkscape:window-height="480"
     id="namedview129"
     showgrid="false"
     inkscape:zoom="0.18730159"
     inkscape:cx="333.65625"
     inkscape:cy="-87.96875"
     inkscape:window-x="0"
     inkscape:window-y="0"
     inkscape:window-maximized="0"
     inkscape:current-layer="svg2" /><metadata
     id="metadata8"><rdf:RDF><cc:Work
         rdf:about=""><dc:format>image/svg+xml</dc:format><dc:type
           rdf:resource="http://purl.org/dc/dcmitype/StillImage" /></cc:Work></rdf:RDF></metadata><defs
     id="defs6"><clipPath
       id="clipPath18"><path
         d="m 238.23,578.71 159.62,0 0,46.68 -159.62,0 0,-46.68 z"
         inkscape:connector-curvature="0"
         id="path20" /></clipPath><clipPath
       id="clipPath26"><path
         d="m 238.22,578.71 159.62,0 0,46.68 -159.62,0 0,-46.68 z"
         inkscape:connector-curvature="0"
         id="path28" /></clipPath><clipPath
       id="clipPath38"><path
         d="m 238.22,578.71 159.62,0 0,46.68 -159.62,0 0,-46.68 z"
         inkscape:connector-curvature="0"
         id="path40" /></clipPath><clipPath
       id="clipPath46"><path
         d="m 238.22,578.71 159.62,0 0,46.68 -159.62,0 0,-46.68 z"
         inkscape:connector-curvature="0"
         id="path48" /></clipPath><clipPath
       id="clipPath54"><path
         d="m 238.22,578.71 159.62,0 0,46.68 -159.62,0 0,-46.68 z"
         inkscape:connector-curvature="0"
         id="path56" /></clipPath><clipPath
       id="clipPath62"><path
         d="m 238.22,578.71 159.62,0 0,46.68 -159.62,0 0,-46.68 z"
         inkscape:connector-curvature="0"
         id="path64" /></clipPath><clipPath
       id="clipPath72"><path
         d="m 238.23,715.29 159.62,0 0,45.72 -159.62,0 0,-45.72 z"
         inkscape:connector-curvature="0"
         id="path74" /></clipPath><clipPath
       id="clipPath80"><path
         d="m 238.22,715.3 159.62,0 0,45.72 -159.62,0 0,-45.72 z"
         inkscape:connector-curvature="0"
         id="path82" /></clipPath><clipPath
       id="clipPath92"><path
         d="m 238.22,715.3 159.62,0 0,45.72 -159.62,0 0,-45.72 z"
         inkscape:connector-curvature="0"
         id="path94" /></clipPath><clipPath
       id="clipPath100"><path
         d="m 238.22,715.3 159.62,0 0,45.72 -159.62,0 0,-45.72 z"
         inkscape:connector-curvature="0"
         id="path102" /></clipPath><clipPath
       id="clipPath108"><path
         d="m 238.22,715.3 159.62,0 0,45.72 -159.62,0 0,-45.72 z"
         inkscape:connector-curvature="0"
         id="path110" /></clipPath><clipPath
       id="clipPath120"><path
         d="m 238.22,715.3 159.62,0 0,45.72 -159.62,0 0,-45.72 z"
         inkscape:connector-curvature="0"
         id="path122" /></clipPath><clipPath
       id="clipPath132"><path
         d="m 238.22,715.3 159.62,0 0,45.72 -159.62,0 0,-45.72 z"
         inkscape:connector-curvature="0"
         id="path134" /></clipPath><clipPath
       id="clipPath140"><path
         d="m 238.22,715.3 159.62,0 0,45.72 -159.62,0 0,-45.72 z"
         inkscape:connector-curvature="0"
         id="path142" /></clipPath><clipPath
       id="clipPath152"><path
         d="m 238.22,715.3 159.62,0 0,45.72 -159.62,0 0,-45.72 z"
         inkscape:connector-curvature="0"
         id="path154" /></clipPath><clipPath
       id="clipPath160"><path
         d="m 238.22,715.3 159.62,0 0,45.72 -159.62,0 0,-45.72 z"
         inkscape:connector-curvature="0"
         id="path162" /></clipPath><clipPath
       id="clipPath172"><path
         d="m 238.22,715.3 159.62,0 0,45.72 -159.62,0 0,-45.72 z"
         inkscape:connector-curvature="0"
         id="path174" /></clipPath><clipPath
       id="clipPath184"><path
         d="m 238.22,715.3 159.62,0 0,45.72 -159.62,0 0,-45.72 z"
         inkscape:connector-curvature="0"
         id="path186" /></clipPath><clipPath
       id="clipPath192"><path
         d="m 238.22,715.3 159.62,0 0,45.72 -159.62,0 0,-45.72 z"
         inkscape:connector-curvature="0"
         id="path194" /></clipPath><clipPath
       id="clipPath204"><path
         d="m 238.22,715.3 159.62,0 0,45.72 -159.62,0 0,-45.72 z"
         inkscape:connector-curvature="0"
         id="path206" /></clipPath><clipPath
       id="clipPath212"><path
         d="m 238.22,715.3 159.62,0 0,45.72 -159.62,0 0,-45.72 z"
         inkscape:connector-curvature="0"
         id="path214" /></clipPath><clipPath
       id="clipPath224"><path
         d="m 238.22,715.3 159.62,0 0,45.72 -159.62,0 0,-45.72 z"
         inkscape:connector-curvature="0"
         id="path226" /></clipPath><clipPath
       id="clipPath232"><path
         d="m 238.22,715.3 159.62,0 0,45.72 -159.62,0 0,-45.72 z"
         inkscape:connector-curvature="0"
         id="path234" /></clipPath><clipPath
       id="clipPath240"><path
         d="m 238.22,715.3 159.62,0 0,45.72 -159.62,0 0,-45.72 z"
         inkscape:connector-curvature="0"
         id="path242" /></clipPath><clipPath
       id="clipPath248"><path
         d="m 238.22,715.3 159.62,0 0,45.72 -159.62,0 0,-45.72 z"
         inkscape:connector-curvature="0"
         id="path250" /></clipPath></defs><g
     transform="matrix(1.25,0,0,-1.25,-296.71875,956.71875)"
     id="g10"><path
       d="m 237.75,574.75 160.4,0 0,54.7 -160.4,0 0,-54.7 z"
       inkscape:connector-curvature="0"
       id="path12"
       style="fill:none;stroke:#000000;stroke-width:0.75;stroke-linecap:round;stroke-linejoin:miter;stroke-miterlimit:10;stroke-opacity:1;stroke-dasharray:none" /><g
       id="g14"><g
         clip-path="url(#clipPath18)"
         id="g16"><g
           id="g22"><g
             clip-path="url(#clipPath26)"
             id="g24"><text
   transform="matrix(1,0,0,-1,278.66,614.35)"
   id="text30"><tspan
     x="0 8.6639996 15.336 19.332001 26.028 33.360001 40.032001 44.028 48.695999 56.028 62.736 66.732002 74.015999"
     y="0"
     id="tspan32"
     style="font-size:12px;font-variant:normal;font-weight:bold;writing-mode:lr-tb;fill:#000000;fill-opacity:1;fill-rule:nonzero;stroke:none;font-family:Helvetica;-inkscape-font-specification:Helvetica-Bold">Datenstruktur</tspan></text>

</g></g><g
           id="g34"><g
             clip-path="url(#clipPath38)"
             id="g36" /></g><g
           id="g42"><g
             clip-path="url(#clipPath46)"
             id="g44" /></g><g
           id="g50"><g
             clip-path="url(#clipPath54)"
             id="g52" /></g><g
           id="g58"><g
             clip-path="url(#clipPath62)"
             id="g60" /></g></g></g><path
       d="m 237.75,711.35 160.4,0 0,53.65 -160.4,0 0,-53.65 z"
       inkscape:connector-curvature="0"
       id="path66"
       style="fill:none;stroke:#000000;stroke-width:0.75;stroke-linecap:round;stroke-linejoin:miter;stroke-miterlimit:10;stroke-opacity:1;stroke-dasharray:none" /><g
       id="g68"><g
         clip-path="url(#clipPath72)"
         id="g70"><g
           id="g76"><g
             clip-path="url(#clipPath80)"
             id="g78"><text
   transform="matrix(1,0,0,-1,297.29,749.98)"
   id="text84"><tspan
     x="0 3.336 7.3319998 14.004 18.708 25.416 29.412001 36.695999"
     y="0"
     id="tspan86"
     style="font-size:12px;font-variant:normal;font-weight:bold;writing-mode:lr-tb;fill:#000000;fill-opacity:1;fill-rule:nonzero;stroke:none;font-family:Helvetica;-inkscape-font-specification:Helvetica-Bold">Iterator</tspan></text>

</g></g><g
           id="g88"><g
             clip-path="url(#clipPath92)"
             id="g90" /></g><g
           id="g96"><g
             clip-path="url(#clipPath100)"
             id="g98" /></g><g
           id="g104"><g
             clip-path="url(#clipPath108)"
             id="g106"><text
   transform="matrix(1,0,0,-1,245.42,733.9)"
   id="text112"><tspan
     x="0 6.96"
     y="0"
     id="tspan114"
     style="font-size:12px;font-variant:normal;font-weight:normal;writing-mode:lr-tb;fill:#000000;fill-opacity:1;fill-rule:nonzero;stroke:none;font-family:Helvetica;-inkscape-font-specification:Helvetica">+ </tspan></text>

</g></g><g
           id="g116"><g
             clip-path="url(#clipPath120)"
             id="g118"><text
   transform="matrix(1,0,0,-1,255.74,733.9)"
   id="text124"><tspan
     x="0 6.7080002 13.416 19.416 28.08 34.751999 40.655998 43.992001 47.987999"
     y="0"
     id="tspan126"
     style="font-size:12px;font-variant:normal;font-weight:normal;writing-mode:lr-tb;fill:#000000;fill-opacity:1;fill-rule:nonzero;stroke:none;font-family:Helvetica;-inkscape-font-specification:Helvetica">hasNext()</tspan></text>

</g></g><g
           id="g128"><g
             clip-path="url(#clipPath132)"
             id="g130" /></g><g
           id="g136"><g
             clip-path="url(#clipPath140)"
             id="g138"><text
   transform="matrix(1,0,0,-1,311.09,733.9)"
   id="text144"><tspan
     x="0 3.336 6.7080002 13.416 20.124001 26.832001 29.496 36.071999 42.779999"
     y="0"
     id="tspan146"
     style="font-size:12px;font-variant:normal;font-weight:normal;writing-mode:lr-tb;fill:#000000;fill-opacity:1;fill-rule:nonzero;stroke:none;font-family:Helvetica;-inkscape-font-specification:Helvetica">: boolean</tspan></text>

</g></g><g
           id="g148"><g
             clip-path="url(#clipPath152)"
             id="g150" /></g><g
           id="g156"><g
             clip-path="url(#clipPath160)"
             id="g158"><text
   transform="matrix(1,0,0,-1,245.42,720.1)"
   id="text164"><tspan
     x="0 6.96"
     y="0"
     id="tspan166"
     style="font-size:12px;font-variant:normal;font-weight:normal;writing-mode:lr-tb;fill:#000000;fill-opacity:1;fill-rule:nonzero;stroke:none;font-family:Helvetica;-inkscape-font-specification:Helvetica">+ </tspan></text>

</g></g><g
           id="g168"><g
             clip-path="url(#clipPath172)"
             id="g170"><text
   transform="matrix(1,0,0,-1,255.74,720.1)"
   id="text176"><tspan
     x="0 6.7080002 13.416 19.296"
     y="0"
     id="tspan178"
     style="font-size:12px;font-variant:normal;font-weight:normal;writing-mode:lr-tb;fill:#000000;fill-opacity:1;fill-rule:nonzero;stroke:none;font-family:Helvetica;-inkscape-font-specification:Helvetica">next</tspan></text>

</g></g><g
           id="g180"><g
             clip-path="url(#clipPath184)"
             id="g182" /></g><g
           id="g188"><g
             clip-path="url(#clipPath192)"
             id="g190"><text
   transform="matrix(1,0,0,-1,281.81,720.1)"
   id="text196"><tspan
     x="0 3.96"
     y="0"
     id="tspan198"
     style="font-size:12px;font-variant:normal;font-weight:normal;writing-mode:lr-tb;fill:#000000;fill-opacity:1;fill-rule:nonzero;stroke:none;font-family:Helvetica;-inkscape-font-specification:Helvetica">()</tspan></text>

</g></g><g
           id="g200"><g
             clip-path="url(#clipPath204)"
             id="g202" /></g><g
           id="g208"><g
             clip-path="url(#clipPath212)"
             id="g210"><text
   transform="matrix(1,0,0,-1,293.09,720.1)"
   id="text216"><tspan
     x="0 3.336 6.7080002 16.044001 22.775999 25.440001 32.112 38.112"
     y="0"
     id="tspan218"
     style="font-size:12px;font-variant:normal;font-weight:normal;writing-mode:lr-tb;fill:#000000;fill-opacity:1;fill-rule:nonzero;stroke:none;font-family:Helvetica;-inkscape-font-specification:Helvetica">: Object</tspan></text>

</g></g><g
           id="g220"><g
             clip-path="url(#clipPath224)"
             id="g222" /></g><g
           id="g228"><g
             clip-path="url(#clipPath232)"
             id="g230" /></g><g
           id="g236"><g
             clip-path="url(#clipPath240)"
             id="g238" /></g><g
           id="g244"><g
             clip-path="url(#clipPath248)"
             id="g246" /></g></g></g><path
       d="m 318.65,711.25 0,-80.5 c 0,-0.28 -0.22,-0.5 -0.5,-0.5 -0.28,0 -0.5,0.22 -0.5,0.5 l 0,80.5 c 0,0.28 0.22,0.5 0.5,0.5 0.28,0 0.5,-0.22 0.5,-0.5 z m 4.94,-71.74 -5.44,-9.79 -5.44,9.79 c -0.13,0.24 -0.04,0.54 0.2,0.68 0.24,0.13 0.54,0.04 0.68,-0.2 l 5,-9 -0.88,0 5,9 c 0.14,0.24 0.44,0.33 0.68,0.2 0.24,-0.14 0.33,-0.44 0.2,-0.68 z"
       inkscape:connector-curvature="0"
       id="path252"
       style="fill:#000000;fill-opacity:1;fill-rule:nonzero;stroke:none" /><path
       d="m 237.75,612.5 160.4,0"
       inkscape:connector-curvature="0"
       id="path254"
       style="fill:none;stroke:#000000;stroke-width:0.75;stroke-linecap:round;stroke-linejoin:round;stroke-miterlimit:10;stroke-opacity:1;stroke-dasharray:none" /><path
       d="m 237.75,746.95 160.4,0"
       inkscape:connector-curvature="0"
       id="path256"
       style="fill:none;stroke:#000000;stroke-width:0.75;stroke-linecap:round;stroke-linejoin:round;stroke-miterlimit:10;stroke-opacity:1;stroke-dasharray:none" /></g></svg>