<?xml version="1.0" encoding="UTF-8" standalone="no"?>
<!-- Created with Inkscape (http://www.inkscape.org/) -->

<svg
   xmlns:dc="http://purl.org/dc/elements/1.1/"
   xmlns:cc="http://creativecommons.org/ns#"
   xmlns:rdf="http://www.w3.org/1999/02/22-rdf-syntax-ns#"
   xmlns:svg="http://www.w3.org/2000/svg"
   xmlns="http://www.w3.org/2000/svg"
   xmlns:sodipodi="http://sodipodi.sourceforge.net/DTD/sodipodi-0.dtd"
   xmlns:inkscape="http://www.inkscape.org/namespaces/inkscape"
   version="1.1"
   width="473.0625"
   height="319.25"
   id="svg2"
   xml:space="preserve"
   inkscape:version="0.48.4 r9939"
   sodipodi:docname="Bild 4-19 Klassendiagramm Kompositum.svg"><sodipodi:namedview
     pagecolor="#ffffff"
     bordercolor="#666666"
     borderopacity="1"
     objecttolerance="10"
     gridtolerance="10"
     guidetolerance="10"
     inkscape:pageopacity="0"
     inkscape:pageshadow="2"
     inkscape:window-width="640"
     inkscape:window-height="480"
     id="namedview223"
     showgrid="false"
     inkscape:zoom="0.18730159"
     inkscape:cx="438.90625"
     inkscape:cy="180.71875"
     inkscape:window-x="0"
     inkscape:window-y="0"
     inkscape:window-maximized="0"
     inkscape:current-layer="svg2" /><metadata
     id="metadata8"><rdf:RDF><cc:Work
         rdf:about=""><dc:format>image/svg+xml</dc:format><dc:type
           rdf:resource="http://purl.org/dc/dcmitype/StillImage" /></cc:Work></rdf:RDF></metadata><defs
     id="defs6"><clipPath
       id="clipPath16"><path
         d="m 306.77,557.11 15.96,0 0,4.68 -15.96,0 0,-4.68 z"
         inkscape:connector-curvature="0"
         id="path18" /></clipPath><clipPath
       id="clipPath24"><path
         d="m 306.77,557.11 15.96,0 0,4.68 -15.96,0 0,-4.68 z"
         inkscape:connector-curvature="0"
         id="path26" /></clipPath><clipPath
       id="clipPath34"><path
         d="m 229.83,511.75 161.18,0 0,98.64 -161.18,0 0,-98.64 z"
         inkscape:connector-curvature="0"
         id="path36" /></clipPath><clipPath
       id="clipPath42"><path
         d="m 229.82,511.75 161.18,0 0,98.64 -161.18,0 0,-98.64 z"
         inkscape:connector-curvature="0"
         id="path44" /></clipPath><clipPath
       id="clipPath54"><path
         d="m 229.82,511.75 161.18,0 0,98.64 -161.18,0 0,-98.64 z"
         inkscape:connector-curvature="0"
         id="path56" /></clipPath><clipPath
       id="clipPath62"><path
         d="m 229.82,511.75 161.18,0 0,98.64 -161.18,0 0,-98.64 z"
         inkscape:connector-curvature="0"
         id="path64" /></clipPath><clipPath
       id="clipPath74"><path
         d="m 229.82,511.75 161.18,0 0,98.64 -161.18,0 0,-98.64 z"
         inkscape:connector-curvature="0"
         id="path76" /></clipPath><clipPath
       id="clipPath82"><path
         d="m 229.82,511.75 161.18,0 0,98.64 -161.18,0 0,-98.64 z"
         inkscape:connector-curvature="0"
         id="path84" /></clipPath><clipPath
       id="clipPath90"><path
         d="m 229.82,511.75 161.18,0 0,98.64 -161.18,0 0,-98.64 z"
         inkscape:connector-curvature="0"
         id="path92" /></clipPath><clipPath
       id="clipPath102"><path
         d="m 229.82,511.75 161.18,0 0,98.64 -161.18,0 0,-98.64 z"
         inkscape:connector-curvature="0"
         id="path104" /></clipPath><clipPath
       id="clipPath110"><path
         d="m 229.82,511.75 161.18,0 0,98.64 -161.18,0 0,-98.64 z"
         inkscape:connector-curvature="0"
         id="path112" /></clipPath><clipPath
       id="clipPath122"><path
         d="m 229.82,511.75 161.18,0 0,98.64 -161.18,0 0,-98.64 z"
         inkscape:connector-curvature="0"
         id="path124" /></clipPath><clipPath
       id="clipPath130"><path
         d="m 229.82,511.75 161.18,0 0,98.64 -161.18,0 0,-98.64 z"
         inkscape:connector-curvature="0"
         id="path132" /></clipPath><clipPath
       id="clipPath142"><path
         d="m 229.82,511.75 161.18,0 0,98.64 -161.18,0 0,-98.64 z"
         inkscape:connector-curvature="0"
         id="path144" /></clipPath><clipPath
       id="clipPath150"><path
         d="m 229.82,511.75 161.18,0 0,98.64 -161.18,0 0,-98.64 z"
         inkscape:connector-curvature="0"
         id="path152" /></clipPath><clipPath
       id="clipPath162"><path
         d="m 229.82,511.75 161.18,0 0,98.64 -161.18,0 0,-98.64 z"
         inkscape:connector-curvature="0"
         id="path164" /></clipPath><clipPath
       id="clipPath176"><path
         d="m 453.65,582.43 77.31,0 0,27.96 -77.31,0 0,-27.96 z"
         inkscape:connector-curvature="0"
         id="path178" /></clipPath><clipPath
       id="clipPath184"><path
         d="m 453.65,582.43 77.304,0 0,27.96 -77.304,0 0,-27.96 z"
         inkscape:connector-curvature="0"
         id="path186" /></clipPath><clipPath
       id="clipPath196"><path
         d="m 453.65,582.43 77.304,0 0,27.96 -77.304,0 0,-27.96 z"
         inkscape:connector-curvature="0"
         id="path198" /></clipPath><clipPath
       id="clipPath206"><path
         d="m 153.99,405.4 96.24,0 0,43.83 -96.24,0 0,-43.83 z"
         inkscape:connector-curvature="0"
         id="path208" /></clipPath><clipPath
       id="clipPath214"><path
         d="m 153.98,405.41 96.24,0 0,43.824 -96.24,0 0,-43.824 z"
         inkscape:connector-curvature="0"
         id="path216" /></clipPath><clipPath
       id="clipPath226"><path
         d="m 153.98,405.41 96.24,0 0,43.824 -96.24,0 0,-43.824 z"
         inkscape:connector-curvature="0"
         id="path228" /></clipPath><clipPath
       id="clipPath234"><path
         d="m 153.98,405.41 96.24,0 0,43.824 -96.24,0 0,-43.824 z"
         inkscape:connector-curvature="0"
         id="path236" /></clipPath><clipPath
       id="clipPath242"><path
         d="m 153.98,405.41 96.24,0 0,43.824 -96.24,0 0,-43.824 z"
         inkscape:connector-curvature="0"
         id="path244" /></clipPath><clipPath
       id="clipPath254"><path
         d="m 153.98,405.41 96.24,0 0,43.824 -96.24,0 0,-43.824 z"
         inkscape:connector-curvature="0"
         id="path256" /></clipPath><clipPath
       id="clipPath266"><path
         d="m 344.93,363.76 161.19,0 0,85.47 -161.19,0 0,-85.47 z"
         inkscape:connector-curvature="0"
         id="path268" /></clipPath><clipPath
       id="clipPath274"><path
         d="m 344.93,363.77 161.18,0 0,85.464 -161.18,0 0,-85.464 z"
         inkscape:connector-curvature="0"
         id="path276" /></clipPath><clipPath
       id="clipPath286"><path
         d="m 344.93,363.77 161.18,0 0,85.464 -161.18,0 0,-85.464 z"
         inkscape:connector-curvature="0"
         id="path288" /></clipPath><clipPath
       id="clipPath298"><path
         d="m 344.93,363.77 161.18,0 0,85.464 -161.18,0 0,-85.464 z"
         inkscape:connector-curvature="0"
         id="path300" /></clipPath><clipPath
       id="clipPath306"><path
         d="m 344.93,363.77 161.18,0 0,85.464 -161.18,0 0,-85.464 z"
         inkscape:connector-curvature="0"
         id="path308" /></clipPath><clipPath
       id="clipPath314"><path
         d="m 344.93,363.77 161.18,0 0,85.464 -161.18,0 0,-85.464 z"
         inkscape:connector-curvature="0"
         id="path316" /></clipPath><clipPath
       id="clipPath326"><path
         d="m 344.93,363.77 161.18,0 0,85.464 -161.18,0 0,-85.464 z"
         inkscape:connector-curvature="0"
         id="path328" /></clipPath><clipPath
       id="clipPath334"><path
         d="m 344.93,363.77 161.18,0 0,85.464 -161.18,0 0,-85.464 z"
         inkscape:connector-curvature="0"
         id="path336" /></clipPath><clipPath
       id="clipPath346"><path
         d="m 344.93,363.77 161.18,0 0,85.464 -161.18,0 0,-85.464 z"
         inkscape:connector-curvature="0"
         id="path348" /></clipPath><clipPath
       id="clipPath354"><path
         d="m 344.93,363.77 161.18,0 0,85.464 -161.18,0 0,-85.464 z"
         inkscape:connector-curvature="0"
         id="path356" /></clipPath><clipPath
       id="clipPath366"><path
         d="m 344.93,363.77 161.18,0 0,85.464 -161.18,0 0,-85.464 z"
         inkscape:connector-curvature="0"
         id="path368" /></clipPath><clipPath
       id="clipPath374"><path
         d="m 344.93,363.77 161.18,0 0,85.464 -161.18,0 0,-85.464 z"
         inkscape:connector-curvature="0"
         id="path376" /></clipPath><clipPath
       id="clipPath386"><path
         d="m 344.93,363.77 161.18,0 0,85.464 -161.18,0 0,-85.464 z"
         inkscape:connector-curvature="0"
         id="path388" /></clipPath><clipPath
       id="clipPath422"><path
         d="m 389.93,528.55 21.12,0 0,13.68 -21.12,0 0,-13.68 z"
         inkscape:connector-curvature="0"
         id="path424" /></clipPath><clipPath
       id="clipPath430"><path
         d="m 389.93,528.55 21.12,0 0,13.68 -21.12,0 0,-13.68 z"
         inkscape:connector-curvature="0"
         id="path432" /></clipPath><clipPath
       id="clipPath442"><path
         d="m 389.93,528.55 21.12,0 0,13.68 -21.12,0 0,-13.68 z"
         inkscape:connector-curvature="0"
         id="path444" /></clipPath></defs><g
     transform="matrix(1.25,0,0,-1.25,-191.46875,768.53125)"
     id="g10"><g
       id="g12"><g
         clip-path="url(#clipPath16)"
         id="g14"><g
           id="g20"><g
             clip-path="url(#clipPath24)"
             id="g22" /></g></g></g><path
       d="m 229.35,507.75 162,0 0,106.7 -162,0 0,-106.7 z"
       inkscape:connector-curvature="0"
       id="path28"
       style="fill:none;stroke:#000000;stroke-width:0.75;stroke-linecap:round;stroke-linejoin:miter;stroke-miterlimit:10;stroke-opacity:1;stroke-dasharray:none" /><g
       id="g30"><g
         clip-path="url(#clipPath34)"
         id="g32"><g
           id="g38"><g
             clip-path="url(#clipPath42)"
             id="g40"><text
   transform="matrix(1,0,0,-1,289.85,599.35)"
   id="text46"><tspan
     x="0 8.6639996 15.996 23.280001 27.275999 33.948002"
     y="0"
     id="tspan48"
     style="font-size:12px;font-variant:normal;font-weight:bold;writing-mode:lr-tb;fill:#000000;fill-opacity:1;fill-rule:nonzero;stroke:none;font-family:Helvetica;-inkscape-font-specification:Helvetica-Bold">Knoten</tspan></text>

</g></g><g
           id="g50"><g
             clip-path="url(#clipPath54)"
             id="g52" /></g><g
           id="g58"><g
             clip-path="url(#clipPath62)"
             id="g60"><text
   transform="matrix(1,0,0,-1,274.46,586.27)"
   id="text66"><tspan
     x="0 7.1999998 14.4 21.6 28.799999 36 43.200001 50.400002 57.599998 64.800003"
     y="0"
     id="tspan68"
     style="font-size:12px;font-variant:normal;font-weight:normal;writing-mode:lr-tb;fill:#000000;fill-opacity:1;fill-rule:nonzero;stroke:none;font-family:Courier New;-inkscape-font-specification:Courier New">{abstract}</tspan></text>

</g></g><g
           id="g70"><g
             clip-path="url(#clipPath74)"
             id="g72" /></g><g
           id="g78"><g
             clip-path="url(#clipPath82)"
             id="g80" /></g><g
           id="g86"><g
             clip-path="url(#clipPath90)"
             id="g88"><text
   transform="matrix(1,0,0,-1,237.02,558.43)"
   id="text94"><tspan
     x="0 6.96 10.296 17.028 23.736 30.444 34.439999 41.112 44.448002 47.112 53.723999 60.431999 64.428001"
     y="0"
     id="tspan96"
     style="font-size:12px;font-variant:normal;font-weight:normal;writing-mode:lr-tb;fill:#000000;fill-opacity:1;fill-rule:nonzero;stroke:none;font-family:Helvetica;-inkscape-font-specification:Helvetica">+ operation()</tspan></text>

</g></g><g
           id="g98"><g
             clip-path="url(#clipPath102)"
             id="g100" /></g><g
           id="g106"><g
             clip-path="url(#clipPath110)"
             id="g108"><text
   transform="matrix(1,0,0,-1,237.02,544.63)"
   id="text114"><tspan
     x="0 6.96 10.296 17.028 19.691999 26.364 32.268002 38.976002 42.444 49.043999 55.751999 62.352001 69.059998 75.767998 79.764 87.767998 94.367996 101.076 104.412 111.036 117.744"
     y="0"
     id="tspan116"
     style="font-size:12px;font-variant:normal;font-weight:normal;writing-mode:lr-tb;fill:#000000;fill-opacity:1;fill-rule:nonzero;stroke:none;font-family:Helvetica;-inkscape-font-specification:Helvetica">+ hinzufuegen(Knoten)</tspan></text>

</g></g><g
           id="g118"><g
             clip-path="url(#clipPath122)"
             id="g120" /></g><g
           id="g126"><g
             clip-path="url(#clipPath130)"
             id="g128"><text
   transform="matrix(1,0,0,-1,237.02,530.83)"
   id="text134"><tspan
     x="0 6.96 10.296 17.028 23.736 26.976 30.444 37.152 41.147999 47.712002 54.419998 61.127998 65.124001 73.008003 79.716003 86.424004 89.664001 96.372002 103.08"
     y="0"
     id="tspan136"
     style="font-size:12px;font-variant:normal;font-weight:normal;writing-mode:lr-tb;fill:#000000;fill-opacity:1;fill-rule:nonzero;stroke:none;font-family:Helvetica;-inkscape-font-specification:Helvetica">+ entfernen(Knoten)</tspan></text>

</g></g><g
           id="g138"><g
             clip-path="url(#clipPath142)"
             id="g140" /></g><g
           id="g146"><g
             clip-path="url(#clipPath150)"
             id="g148"><text
   transform="matrix(1,0,0,-1,237.02,517.03)"
   id="text154"><tspan
     x="0 6.96 10.296 16.92 19.584 26.256001 34.307999 36.972 43.644001 50.375999 58.403999 65.112 71.82 75.059998 81.767998 88.475998 92.472 96.396004 99.732002 107.676 114.384 120.984 124.32 131.052 137.75999 141.09599"
     y="0"
     id="tspan156"
     style="font-size:12px;font-variant:normal;font-weight:normal;writing-mode:lr-tb;fill:#000000;fill-opacity:1;fill-rule:nonzero;stroke:none;font-family:Helvetica;-inkscape-font-specification:Helvetica">+ gibKindKnoten():Knoten[]</tspan></text>

</g></g><g
           id="g158"><g
             clip-path="url(#clipPath162)"
             id="g160" /></g></g></g><path
       d="m 229.35,578.5 162,0"
       inkscape:connector-curvature="0"
       id="path166"
       style="fill:none;stroke:#000000;stroke-width:0.75;stroke-linecap:round;stroke-linejoin:round;stroke-miterlimit:10;stroke-opacity:1;stroke-dasharray:none" /><path
       d="m 453.2,578.5 78.05,0 0,35.95 -78.05,0 0,-35.95 z"
       inkscape:connector-curvature="0"
       id="path168"
       style="fill:#ffffff;fill-opacity:1;fill-rule:evenodd;stroke:none" /><path
       d="m 453.2,578.5 78.05,0 0,35.95 -78.05,0 0,-35.95 z"
       inkscape:connector-curvature="0"
       id="path170"
       style="fill:none;stroke:#000000;stroke-width:0.75;stroke-linecap:round;stroke-linejoin:miter;stroke-miterlimit:8;stroke-opacity:1;stroke-dasharray:none" /><g
       id="g172"><g
         clip-path="url(#clipPath176)"
         id="g174"><g
           id="g180"><g
             clip-path="url(#clipPath184)"
             id="g182"><text
   transform="matrix(1,0,0,-1,475.63,598.99)"
   id="text188"><tspan
     x="0 8.6639996 12 15.336 22.068001 29.4"
     y="0"
     id="tspan190"
     style="font-size:12px;font-variant:normal;font-weight:bold;writing-mode:lr-tb;fill:#000000;fill-opacity:1;fill-rule:nonzero;stroke:none;font-family:Helvetica;-inkscape-font-specification:Helvetica-Bold">Client</tspan></text>

</g></g><g
           id="g192"><g
             clip-path="url(#clipPath196)"
             id="g194" /></g></g></g><path
       d="m 153.55,401.5 97.1,0 0,51.8 -97.1,0 0,-51.8 z"
       inkscape:connector-curvature="0"
       id="path200"
       style="fill:none;stroke:#000000;stroke-width:0.75;stroke-linecap:round;stroke-linejoin:miter;stroke-miterlimit:8;stroke-opacity:1;stroke-dasharray:none" /><g
       id="g202"><g
         clip-path="url(#clipPath206)"
         id="g204"><g
           id="g210"><g
             clip-path="url(#clipPath214)"
             id="g212"><text
   transform="matrix(1,0,0,-1,188.78,438.17)"
   id="text218"><tspan
     x="0 8.6639996 12 18.708 22.704"
     y="0"
     id="tspan220"
     style="font-size:12px;font-variant:normal;font-weight:bold;writing-mode:lr-tb;fill:#000000;fill-opacity:1;fill-rule:nonzero;stroke:none;font-family:Helvetica;-inkscape-font-specification:Helvetica-Bold">Blatt</tspan></text>

</g></g><g
           id="g222"><g
             clip-path="url(#clipPath226)"
             id="g224" /></g><g
           id="g230"><g
             clip-path="url(#clipPath234)"
             id="g232" /></g><g
           id="g238"><g
             clip-path="url(#clipPath242)"
             id="g240"><text
   transform="matrix(1,0,0,-1,161.18,410.81)"
   id="text246"><tspan
     x="0 6.96 10.296 17.028 23.736 30.444 34.439999 41.112 44.448002 47.112 53.723999 60.431999 64.428001"
     y="0"
     id="tspan248"
     style="font-size:12px;font-variant:normal;font-weight:normal;writing-mode:lr-tb;fill:#000000;fill-opacity:1;fill-rule:nonzero;stroke:none;font-family:Helvetica;-inkscape-font-specification:Helvetica">+ operation()</tspan></text>

</g></g><g
           id="g250"><g
             clip-path="url(#clipPath254)"
             id="g252" /></g></g></g><path
       d="m 153.55,431.45 97.1,0"
       inkscape:connector-curvature="0"
       id="path258"
       style="fill:none;stroke:#000000;stroke-width:0.75;stroke-linecap:round;stroke-linejoin:round;stroke-miterlimit:8;stroke-opacity:1;stroke-dasharray:none" /><path
       d="m 344.45,359.8 162,0 0,93.5 -162,0 0,-93.5 z"
       inkscape:connector-curvature="0"
       id="path260"
       style="fill:none;stroke:#000000;stroke-width:0.75;stroke-linecap:round;stroke-linejoin:miter;stroke-miterlimit:8;stroke-opacity:1;stroke-dasharray:none" /><g
       id="g262"><g
         clip-path="url(#clipPath266)"
         id="g264"><g
           id="g270"><g
             clip-path="url(#clipPath274)"
             id="g272"><text
   transform="matrix(1,0,0,-1,388.85,438.17)"
   id="text278"><tspan
     x="0"
     y="0"
     id="tspan280"
     style="font-size:12px;font-variant:normal;font-weight:bold;writing-mode:lr-tb;fill:#000000;fill-opacity:1;fill-rule:nonzero;stroke:none;font-family:Helvetica;-inkscape-font-specification:Helvetica-Bold">K</tspan></text>

</g></g><g
           id="g282"><g
             clip-path="url(#clipPath286)"
             id="g284"><text
   transform="matrix(1,0,0,-1,397.49,438.17)"
   id="text290"><tspan
     x="0 7.3319998 18 25.332001 32.664001 39.335999 42.708 46.703999 53.987999"
     y="0"
     id="tspan292"
     style="font-size:12px;font-variant:normal;font-weight:bold;writing-mode:lr-tb;fill:#000000;fill-opacity:1;fill-rule:nonzero;stroke:none;font-family:Helvetica;-inkscape-font-specification:Helvetica-Bold">ompositum</tspan></text>

</g></g><g
           id="g294"><g
             clip-path="url(#clipPath298)"
             id="g296" /></g><g
           id="g302"><g
             clip-path="url(#clipPath306)"
             id="g304" /></g><g
           id="g310"><g
             clip-path="url(#clipPath314)"
             id="g312"><text
   transform="matrix(1,0,0,-1,352.13,410.81)"
   id="text318"><tspan
     x="0 6.96 10.296 17.028 23.736 30.444 34.439999 41.112 44.448002 47.112 53.723999 60.431999 64.428001"
     y="0"
     id="tspan320"
     style="font-size:12px;font-variant:normal;font-weight:normal;writing-mode:lr-tb;fill:#000000;fill-opacity:1;fill-rule:nonzero;stroke:none;font-family:Helvetica;-inkscape-font-specification:Helvetica">+ operation()</tspan></text>

</g></g><g
           id="g322"><g
             clip-path="url(#clipPath326)"
             id="g324" /></g><g
           id="g330"><g
             clip-path="url(#clipPath334)"
             id="g332"><text
   transform="matrix(1,0,0,-1,352.13,397.01)"
   id="text338"><tspan
     x="0 6.96 10.296 17.028 19.691999 26.364 32.268002 38.976002 42.444 49.043999 55.751999 62.352001 69.059998 75.767998 79.764 87.767998 94.367996 101.076 104.412 111.036 117.744"
     y="0"
     id="tspan340"
     style="font-size:12px;font-variant:normal;font-weight:normal;writing-mode:lr-tb;fill:#000000;fill-opacity:1;fill-rule:nonzero;stroke:none;font-family:Helvetica;-inkscape-font-specification:Helvetica">+ hinzufuegen(Knoten)</tspan></text>

</g></g><g
           id="g342"><g
             clip-path="url(#clipPath346)"
             id="g344" /></g><g
           id="g350"><g
             clip-path="url(#clipPath354)"
             id="g352"><text
   transform="matrix(1,0,0,-1,352.13,383.21)"
   id="text358"><tspan
     x="0 6.96 10.296 17.028 23.736 26.976 30.444 37.152 41.147999 47.712002 54.419998 61.127998 65.124001 73.008003 79.716003 86.424004 89.664001 96.372002 103.08"
     y="0"
     id="tspan360"
     style="font-size:12px;font-variant:normal;font-weight:normal;writing-mode:lr-tb;fill:#000000;fill-opacity:1;fill-rule:nonzero;stroke:none;font-family:Helvetica;-inkscape-font-specification:Helvetica">+ entfernen(Knoten)</tspan></text>

</g></g><g
           id="g362"><g
             clip-path="url(#clipPath366)"
             id="g364" /></g><g
           id="g370"><g
             clip-path="url(#clipPath374)"
             id="g372"><text
   transform="matrix(1,0,0,-1,352.13,369.29)"
   id="text378"><tspan
     x="0 6.96 10.296 16.92 19.584 26.256001 34.307999 36.972 43.644001 50.375999 58.403999 65.112 71.82 75.059998 81.767998 88.475998 92.472 96.396004 99.732002 107.676 114.384 120.984 124.32 131.052 137.75999 141.09599"
     y="0"
     id="tspan380"
     style="font-size:12px;font-variant:normal;font-weight:normal;writing-mode:lr-tb;fill:#000000;fill-opacity:1;fill-rule:nonzero;stroke:none;font-family:Helvetica;-inkscape-font-specification:Helvetica">+ gibKindKnoten():Knoten[]</tspan></text>

</g></g><g
           id="g382"><g
             clip-path="url(#clipPath386)"
             id="g384" /></g></g></g><path
       d="m 344.45,431.45 162,0"
       inkscape:connector-curvature="0"
       id="path390"
       style="fill:none;stroke:#000000;stroke-width:0.75;stroke-linecap:round;stroke-linejoin:round;stroke-miterlimit:8;stroke-opacity:1;stroke-dasharray:none" /><path
       d="m 452.9,595.6 -60.6,0 c -0.28,0 -0.5,0.22 -0.5,0.5 0,0.28 0.22,0.5 0.5,0.5 l 60.6,0 c 0.28,0 0.5,-0.22 0.5,-0.5 0,-0.28 -0.22,-0.5 -0.5,-0.5 z m -54.85,-3.43 -6.74,3.93 6.74,3.93 c 0.24,0.14 0.54,0.06 0.68,-0.18 0.14,-0.24 0.06,-0.54 -0.18,-0.68 l -6,-3.5 0,0.86 6,-3.5 c 0.24,-0.14 0.32,-0.44 0.18,-0.68 -0.14,-0.24 -0.44,-0.32 -0.68,-0.18 z"
       inkscape:connector-curvature="0"
       id="path392"
       style="fill:#000000;fill-opacity:1;fill-rule:nonzero;stroke:none" /><path
       d="m 315.85,507.75 4.55,-11.65 -10.25,0 5.7,11.65 z"
       inkscape:connector-curvature="0"
       id="path394"
       style="fill:#ffffff;fill-opacity:1;fill-rule:evenodd;stroke:none" /><path
       d="m 315.85,507.75 4.55,-11.65 -10.25,0 5.7,11.65 z"
       inkscape:connector-curvature="0"
       id="path396"
       style="fill:none;stroke:#000000;stroke-width:0.75;stroke-linecap:round;stroke-linejoin:round;stroke-miterlimit:8;stroke-opacity:1;stroke-dasharray:none" /><path
       d="m 280.5,507.75 4.55,-11.65 -10.25,0 5.7,11.65 z"
       inkscape:connector-curvature="0"
       id="path398"
       style="fill:#ffffff;fill-opacity:1;fill-rule:evenodd;stroke:none" /><path
       d="m 280.5,507.75 4.55,-11.65 -10.25,0 5.7,11.65 z"
       inkscape:connector-curvature="0"
       id="path400"
       style="fill:none;stroke:#000000;stroke-width:0.75;stroke-linecap:round;stroke-linejoin:round;stroke-miterlimit:8;stroke-opacity:1;stroke-dasharray:none" /><path
       d="m 315.45,496.05 0,-81.25"
       inkscape:connector-curvature="0"
       id="path402"
       style="fill:none;stroke:#000000;stroke-width:0.75;stroke-linecap:round;stroke-linejoin:round;stroke-miterlimit:8;stroke-opacity:1;stroke-dasharray:none" /><path
       d="m 279.9,496.05 0,-81.25"
       inkscape:connector-curvature="0"
       id="path404"
       style="fill:none;stroke:#000000;stroke-width:0.75;stroke-linecap:round;stroke-linejoin:round;stroke-miterlimit:8;stroke-opacity:1;stroke-dasharray:none" /><path
       d="m 315.3,414.75 29.15,0"
       inkscape:connector-curvature="0"
       id="path406"
       style="fill:none;stroke:#000000;stroke-width:0.75;stroke-linecap:round;stroke-linejoin:round;stroke-miterlimit:8;stroke-opacity:1;stroke-dasharray:none" /><path
       d="m 250.75,414.75 29.15,0"
       inkscape:connector-curvature="0"
       id="path408"
       style="fill:none;stroke:#000000;stroke-width:0.75;stroke-linecap:round;stroke-linejoin:round;stroke-miterlimit:8;stroke-opacity:1;stroke-dasharray:none" /><path
       d="m 425.83,465.25 -4.78,-5.82 4.78,-5.83 4.77,5.83 -4.77,5.82 z"
       inkscape:connector-curvature="0"
       id="path410"
       style="fill:#ffffff;fill-opacity:1;fill-rule:evenodd;stroke:none" /><path
       d="m 425.83,465.25 -4.78,-5.82 4.78,-5.83 4.77,5.83 -4.77,5.82 z"
       inkscape:connector-curvature="0"
       id="path412"
       style="fill:none;stroke:#000000;stroke-width:0.75;stroke-linecap:round;stroke-linejoin:round;stroke-miterlimit:8;stroke-opacity:1;stroke-dasharray:none" /><path
       d="m 425.8,465.45 0,66.85"
       inkscape:connector-curvature="0"
       id="path414"
       style="fill:none;stroke:#000000;stroke-width:0.75;stroke-linecap:round;stroke-linejoin:round;stroke-miterlimit:8;stroke-opacity:1;stroke-dasharray:none" /><path
       d="m 391.35,532.3 34.45,-0.05"
       inkscape:connector-curvature="0"
       id="path416"
       style="fill:none;stroke:#000000;stroke-width:0.75;stroke-linecap:round;stroke-linejoin:round;stroke-miterlimit:8;stroke-opacity:1;stroke-dasharray:none" /><g
       id="g418"><g
         clip-path="url(#clipPath422)"
         id="g420"><g
           id="g426"><g
             clip-path="url(#clipPath430)"
             id="g428"><text
   transform="matrix(1,0,0,-1,397.13,531.19)"
   id="text434"><tspan
     x="0"
     y="0"
     id="tspan436"
     style="font-size:12px;font-variant:normal;font-weight:normal;writing-mode:lr-tb;fill:#000000;fill-opacity:1;fill-rule:nonzero;stroke:none;font-family:Helvetica;-inkscape-font-specification:Helvetica">*</tspan></text>

</g></g><g
           id="g438"><g
             clip-path="url(#clipPath442)"
             id="g440" /></g></g></g></g></svg>