<?xml version="1.0" encoding="UTF-8" standalone="no"?>
<!-- Created with Inkscape (http://www.inkscape.org/) -->

<svg
   xmlns:dc="http://purl.org/dc/elements/1.1/"
   xmlns:cc="http://creativecommons.org/ns#"
   xmlns:rdf="http://www.w3.org/1999/02/22-rdf-syntax-ns#"
   xmlns:svg="http://www.w3.org/2000/svg"
   xmlns="http://www.w3.org/2000/svg"
   xmlns:sodipodi="http://sodipodi.sourceforge.net/DTD/sodipodi-0.dtd"
   xmlns:inkscape="http://www.inkscape.org/namespaces/inkscape"
   version="1.1"
   width="498.28125"
   height="165"
   id="svg2"
   xml:space="preserve"
   inkscape:version="0.48.4 r9939"
   sodipodi:docname="Bild 4-42 Zustandsdiagramm für die Alarmanlage.svg"><sodipodi:namedview
     pagecolor="#ffffff"
     bordercolor="#666666"
     borderopacity="1"
     objecttolerance="10"
     gridtolerance="10"
     guidetolerance="10"
     inkscape:pageopacity="0"
     inkscape:pageshadow="2"
     inkscape:window-width="640"
     inkscape:window-height="480"
     id="namedview181"
     showgrid="false"
     inkscape:zoom="0.18730159"
     inkscape:cx="287.15625"
     inkscape:cy="55.78125"
     inkscape:window-x="0"
     inkscape:window-y="0"
     inkscape:window-maximized="0"
     inkscape:current-layer="svg2" /><metadata
     id="metadata8"><rdf:RDF><cc:Work
         rdf:about=""><dc:format>image/svg+xml</dc:format><dc:type
           rdf:resource="http://purl.org/dc/dcmitype/StillImage" /></cc:Work></rdf:RDF></metadata><defs
     id="defs6"><clipPath
       id="clipPath20"><path
         d="m 375.17,549.55 149.91,0 0,35.4 -149.91,0 0,-35.4 z"
         inkscape:connector-curvature="0"
         id="path22" /></clipPath><clipPath
       id="clipPath28"><path
         d="m 375.17,549.55 149.9,0 0,35.4 -149.9,0 0,-35.4 z"
         inkscape:connector-curvature="0"
         id="path30" /></clipPath><clipPath
       id="clipPath36"><path
         d="m 375.17,549.55 149.9,0 0,35.4 -149.9,0 0,-35.4 z"
         inkscape:connector-curvature="0"
         id="path38" /></clipPath><clipPath
       id="clipPath48"><path
         d="m 375.17,549.55 149.9,0 0,35.4 -149.9,0 0,-35.4 z"
         inkscape:connector-curvature="0"
         id="path50" /></clipPath><clipPath
       id="clipPath60"><path
         d="m 375.17,549.55 149.9,0 0,35.4 -149.9,0 0,-35.4 z"
         inkscape:connector-curvature="0"
         id="path62" /></clipPath><clipPath
       id="clipPath72"><path
         d="m 374.69,465.19 150.75,0 0,36.36 -150.75,0 0,-36.36 z"
         inkscape:connector-curvature="0"
         id="path74" /></clipPath><clipPath
       id="clipPath80"><path
         d="m 374.69,465.19 150.74,0 0,36.36 -150.74,0 0,-36.36 z"
         inkscape:connector-curvature="0"
         id="path82" /></clipPath><clipPath
       id="clipPath88"><path
         d="m 374.69,465.19 150.74,0 0,36.36 -150.74,0 0,-36.36 z"
         inkscape:connector-curvature="0"
         id="path90" /></clipPath><clipPath
       id="clipPath100"><path
         d="m 374.69,465.19 150.74,0 0,36.36 -150.74,0 0,-36.36 z"
         inkscape:connector-curvature="0"
         id="path102" /></clipPath><clipPath
       id="clipPath112"><path
         d="m 374.69,465.19 150.74,0 0,36.36 -150.74,0 0,-36.36 z"
         inkscape:connector-curvature="0"
         id="path114" /></clipPath><clipPath
       id="clipPath124"><path
         d="m 374.69,465.19 150.74,0 0,36.36 -150.74,0 0,-36.36 z"
         inkscape:connector-curvature="0"
         id="path126" /></clipPath><clipPath
       id="clipPath134"><path
         d="m 557.72,556.15 114.61,0 0,26.88 -114.61,0 0,-26.88 z"
         inkscape:connector-curvature="0"
         id="path136" /></clipPath><clipPath
       id="clipPath142"><path
         d="m 557.71,556.15 114.62,0 0,26.88 -114.62,0 0,-26.88 z"
         inkscape:connector-curvature="0"
         id="path144" /></clipPath><clipPath
       id="clipPath154"><path
         d="m 557.71,556.15 114.62,0 0,26.88 -114.62,0 0,-26.88 z"
         inkscape:connector-curvature="0"
         id="path156" /></clipPath><clipPath
       id="clipPath162"><path
         d="m 557.71,556.15 114.62,0 0,26.88 -114.62,0 0,-26.88 z"
         inkscape:connector-curvature="0"
         id="path164" /></clipPath><clipPath
       id="clipPath174"><path
         d="m 557.71,556.15 114.62,0 0,26.88 -114.62,0 0,-26.88 z"
         inkscape:connector-curvature="0"
         id="path176" /></clipPath><clipPath
       id="clipPath186"><path
         d="m 557.71,556.15 114.62,0 0,26.88 -114.62,0 0,-26.88 z"
         inkscape:connector-curvature="0"
         id="path188" /></clipPath><clipPath
       id="clipPath196"><path
         d="m 482.36,518.11 122.16,0 0,14.52 -122.16,0 0,-14.52 z"
         inkscape:connector-curvature="0"
         id="path198" /></clipPath><clipPath
       id="clipPath204"><path
         d="m 482.35,518.11 122.16,0 0,14.52 -122.16,0 0,-14.52 z"
         inkscape:connector-curvature="0"
         id="path206" /></clipPath><clipPath
       id="clipPath216"><path
         d="m 482.35,518.11 122.16,0 0,14.52 -122.16,0 0,-14.52 z"
         inkscape:connector-curvature="0"
         id="path218" /></clipPath><clipPath
       id="clipPath228"><path
         d="m 482.35,518.11 122.16,0 0,14.52 -122.16,0 0,-14.52 z"
         inkscape:connector-curvature="0"
         id="path230" /></clipPath><clipPath
       id="clipPath240"><path
         d="m 482.35,518.11 122.16,0 0,14.52 -122.16,0 0,-14.52 z"
         inkscape:connector-curvature="0"
         id="path242" /></clipPath><clipPath
       id="clipPath252"><path
         d="m 482.35,518.11 122.16,0 0,14.52 -122.16,0 0,-14.52 z"
         inkscape:connector-curvature="0"
         id="path254" /></clipPath><clipPath
       id="clipPath262"><path
         d="m 292.97,517.99 131.64,0 0,14.52 -131.64,0 0,-14.52 z"
         inkscape:connector-curvature="0"
         id="path264" /></clipPath><clipPath
       id="clipPath270"><path
         d="m 292.97,517.99 131.64,0 0,14.52 -131.64,0 0,-14.52 z"
         inkscape:connector-curvature="0"
         id="path272" /></clipPath><clipPath
       id="clipPath282"><path
         d="m 292.97,517.99 131.64,0 0,14.52 -131.64,0 0,-14.52 z"
         inkscape:connector-curvature="0"
         id="path284" /></clipPath><clipPath
       id="clipPath294"><path
         d="m 292.97,517.99 131.64,0 0,14.52 -131.64,0 0,-14.52 z"
         inkscape:connector-curvature="0"
         id="path296" /></clipPath><clipPath
       id="clipPath306"><path
         d="m 292.97,517.99 131.64,0 0,14.52 -131.64,0 0,-14.52 z"
         inkscape:connector-curvature="0"
         id="path308" /></clipPath><clipPath
       id="clipPath326"><path
         d="m 558.68,471.55 114.61,0 0,18.72 -114.61,0 0,-18.72 z"
         inkscape:connector-curvature="0"
         id="path328" /></clipPath><clipPath
       id="clipPath334"><path
         d="m 558.67,471.55 114.62,0 0,18.72 -114.62,0 0,-18.72 z"
         inkscape:connector-curvature="0"
         id="path336" /></clipPath><clipPath
       id="clipPath346"><path
         d="m 558.67,471.55 114.62,0 0,18.72 -114.62,0 0,-18.72 z"
         inkscape:connector-curvature="0"
         id="path348" /></clipPath></defs><g
     transform="matrix(1.25,0,0,-1.25,-343.21875,739.21875)"
     id="g10"><path
       d="m 380.62,591 c -4.34,0 -7.87,-3.53 -7.87,-7.87 l 0,-31.5 c 0,-4.35 3.53,-7.88 7.87,-7.88 l 138.76,0 c 4.34,0 7.87,3.53 7.87,7.88 l 0,31.5 c 0,4.34 -3.53,7.87 -7.87,7.87 l -138.76,0 z"
       inkscape:connector-curvature="0"
       id="path12"
       style="fill:#ffffff;fill-opacity:1;fill-rule:evenodd;stroke:none" /><path
       d="m 380.62,591 c -4.34,0 -7.87,-3.53 -7.87,-7.87 l 0,-31.5 c 0,-4.35 3.53,-7.88 7.87,-7.88 l 138.76,0 c 4.34,0 7.87,3.53 7.87,7.88 l 0,31.5 c 0,4.34 -3.53,7.87 -7.87,7.87 l -138.76,0 z"
       inkscape:connector-curvature="0"
       id="path14"
       style="fill:none;stroke:#000000;stroke-width:0.75;stroke-linecap:round;stroke-linejoin:round;stroke-miterlimit:10;stroke-opacity:1;stroke-dasharray:none" /><g
       id="g16"><g
         clip-path="url(#clipPath20)"
         id="g18"><g
           id="g24"><g
             clip-path="url(#clipPath28)"
             id="g26" /></g><g
           id="g32"><g
             clip-path="url(#clipPath36)"
             id="g34"><text
   transform="matrix(1,0,0,-1,399.41,564.43)"
   id="text40"><tspan
     x="0 8.3999996 11.868 18.576 23.243999 33.911999 40.644001 47.976002 51.312 58.032001 65.363998"
     y="0"
     id="tspan42"
     style="font-size:12px;font-variant:normal;font-weight:bold;writing-mode:lr-tb;fill:#000000;fill-opacity:1;fill-rule:nonzero;stroke:none;font-family:Helvetica;-inkscape-font-specification:Helvetica-Bold">Alarmanlage</tspan></text>

</g></g><g
           id="g44"><g
             clip-path="url(#clipPath48)"
             id="g46"><text
   transform="matrix(1,0,0,-1,471.67,564.43)"
   id="text52"><tspan
     x="0 8.2799997 14.988 18.983999 22.416"
     y="0"
     id="tspan54"
     style="font-size:12px;font-variant:normal;font-weight:bold;writing-mode:lr-tb;fill:#000000;fill-opacity:1;fill-rule:nonzero;stroke:none;font-family:Helvetica;-inkscape-font-specification:Helvetica-Bold">Aktiv</tspan></text>

</g></g><g
           id="g56"><g
             clip-path="url(#clipPath60)"
             id="g58" /></g></g></g><path
       d="m 378.66,507 c -3.27,0 -5.91,-2.64 -5.91,-5.91 l 0,-35.43 c 0,-3.27 2.64,-5.91 5.91,-5.91 l 142.68,0 c 3.27,0 5.91,2.64 5.91,5.91 l 0,35.43 c 0,3.27 -2.64,5.91 -5.91,5.91 l -142.68,0 z"
       inkscape:connector-curvature="0"
       id="path64"
       style="fill:#ffffff;fill-opacity:1;fill-rule:evenodd;stroke:none" /><path
       d="m 378.66,507 c -3.27,0 -5.91,-2.64 -5.91,-5.91 l 0,-35.43 c 0,-3.27 2.64,-5.91 5.91,-5.91 l 142.68,0 c 3.27,0 5.91,2.64 5.91,5.91 l 0,35.43 c 0,3.27 -2.64,5.91 -5.91,5.91 l -142.68,0 z"
       inkscape:connector-curvature="0"
       id="path66"
       style="fill:none;stroke:#000000;stroke-width:0.75;stroke-linecap:round;stroke-linejoin:round;stroke-miterlimit:10;stroke-opacity:1;stroke-dasharray:none" /><g
       id="g68"><g
         clip-path="url(#clipPath72)"
         id="g70"><g
           id="g76"><g
             clip-path="url(#clipPath80)"
             id="g78" /></g><g
           id="g84"><g
             clip-path="url(#clipPath88)"
             id="g86"><text
   transform="matrix(1,0,0,-1,395.09,480.79)"
   id="text92"><tspan
     x="0 8.3999996 11.868 18.576 23.243999 33.911999 40.644001 47.976002 51.312 58.032001 65.363998 72.036003 75.419998"
     y="0"
     id="tspan94"
     style="font-size:12px;font-variant:normal;font-weight:bold;writing-mode:lr-tb;fill:#000000;fill-opacity:1;fill-rule:nonzero;stroke:none;font-family:Helvetica;-inkscape-font-specification:Helvetica-Bold">AlarmanlageIn</tspan></text>

</g></g><g
           id="g96"><g
             clip-path="url(#clipPath100)"
             id="g98"><text
   transform="matrix(1,0,0,-1,477.91,480.79)"
   id="text104"><tspan
     x="0"
     y="0"
     id="tspan106"
     style="font-size:12px;font-variant:normal;font-weight:bold;writing-mode:lr-tb;fill:#000000;fill-opacity:1;fill-rule:nonzero;stroke:none;font-family:Helvetica;-inkscape-font-specification:Helvetica-Bold">a</tspan></text>

</g></g><g
           id="g108"><g
             clip-path="url(#clipPath112)"
             id="g110"><text
   transform="matrix(1,0,0,-1,484.51,480.79)"
   id="text116"><tspan
     x="0 6.7080002 10.704 14.04"
     y="0"
     id="tspan118"
     style="font-size:12px;font-variant:normal;font-weight:bold;writing-mode:lr-tb;fill:#000000;fill-opacity:1;fill-rule:nonzero;stroke:none;font-family:Helvetica;-inkscape-font-specification:Helvetica-Bold">ktiv</tspan></text>

</g></g><g
           id="g120"><g
             clip-path="url(#clipPath124)"
             id="g122" /></g></g></g><path
       d="m 557.6,552.55 114.65,0 0,34.1 -114.65,0 0,-34.1 z"
       inkscape:connector-curvature="0"
       id="path128"
       style="fill:#ffffff;fill-opacity:1;fill-rule:evenodd;stroke:none" /><g
       id="g130"><g
         clip-path="url(#clipPath134)"
         id="g132"><g
           id="g138"><g
             clip-path="url(#clipPath142)"
             id="g140"><text
   transform="matrix(1,0,0,-1,564.91,571.99)"
   id="text146"><tspan
     x="0 8.0279999 14.736 18.732 24.732 31.403999 38.124001 41.363998 48.071999 52.068001 58.068001 64.739998 71.351997 78.059998"
     y="0"
     id="tspan148"
     style="font-size:12px;font-variant:normal;font-weight:normal;writing-mode:lr-tb;fill:#000000;fill-opacity:1;fill-rule:nonzero;stroke:none;font-family:Helvetica;-inkscape-font-specification:Helvetica">Person erkannt</tspan></text>

</g></g><g
           id="g150"><g
             clip-path="url(#clipPath154)"
             id="g152" /></g><g
           id="g158"><g
             clip-path="url(#clipPath162)"
             id="g160"><text
   transform="matrix(1,0,0,-1,649.75,571.99)"
   id="text166"><tspan
     x="0 3.3599999"
     y="0"
     id="tspan168"
     style="font-size:12px;font-variant:normal;font-weight:normal;writing-mode:lr-tb;fill:#000000;fill-opacity:1;fill-rule:nonzero;stroke:none;font-family:Helvetica;-inkscape-font-specification:Helvetica">/ </tspan></text>

</g></g><g
           id="g170"><g
             clip-path="url(#clipPath174)"
             id="g172"><text
   transform="matrix(1,0,0,-1,564.91,558.19)"
   id="text178"><tspan
     x="0 6.7080002 12.708 19.416 25.416 28.752001 31.416 37.416 43.416 50.015999 56.723999 60.720001 64.056 72.059998 74.723999 81.431999 85.428001"
     y="0"
     id="tspan180"
     style="font-size:12px;font-variant:normal;font-weight:normal;writing-mode:lr-tb;fill:#000000;fill-opacity:1;fill-rule:nonzero;stroke:none;font-family:Helvetica;-inkscape-font-specification:Helvetica">akustischer Alarm</tspan></text>

</g></g><g
           id="g182"><g
             clip-path="url(#clipPath186)"
             id="g184" /></g></g></g><path
       d="m 482.3,514.55 122.15,0 0,21.75 -122.15,0 0,-21.75 z"
       inkscape:connector-curvature="0"
       id="path190"
       style="fill:#ffffff;fill-opacity:1;fill-rule:evenodd;stroke:none" /><g
       id="g192"><g
         clip-path="url(#clipPath196)"
         id="g194"><g
           id="g200"><g
             clip-path="url(#clipPath204)"
             id="g202"><text
   transform="matrix(1,0,0,-1,492.31,521.59)"
   id="text208"><tspan
     x="0 8.0279999 14.736 17.4 24.072001 30.695999"
     y="0"
     id="tspan210"
     style="font-size:12px;font-variant:normal;font-weight:normal;writing-mode:lr-tb;fill:#000000;fill-opacity:1;fill-rule:nonzero;stroke:none;font-family:Helvetica;-inkscape-font-specification:Helvetica">Anlage</tspan></text>

</g></g><g
           id="g212"><g
             clip-path="url(#clipPath216)"
             id="g214"><text
   transform="matrix(1,0,0,-1,529.75,521.59)"
   id="text220"><tspan
     x="0"
     y="0"
     id="tspan222"
     style="font-size:12px;font-variant:normal;font-weight:normal;writing-mode:lr-tb;fill:#000000;fill-opacity:1;fill-rule:nonzero;stroke:none;font-family:Helvetica;-inkscape-font-specification:Helvetica">n</tspan></text>

</g></g><g
           id="g224"><g
             clip-path="url(#clipPath228)"
             id="g226"><text
   transform="matrix(1,0,0,-1,536.47,521.59)"
   id="text232"><tspan
     x="0 6.7080002 12.588 15.924 18.587999 24.468 27.132 33.804001"
     y="0"
     id="tspan234"
     style="font-size:12px;font-variant:normal;font-weight:normal;writing-mode:lr-tb;fill:#000000;fill-opacity:1;fill-rule:nonzero;stroke:none;font-family:Helvetica;-inkscape-font-specification:Helvetica">aktivier</tspan></text>

</g></g><g
           id="g236"><g
             clip-path="url(#clipPath240)"
             id="g238"><text
   transform="matrix(1,0,0,-1,574.27,521.59)"
   id="text244"><tspan
     x="0 6.7199998 13.44"
     y="0"
     id="tspan246"
     style="font-size:12px;font-variant:normal;font-weight:normal;writing-mode:lr-tb;fill:#000000;fill-opacity:1;fill-rule:nonzero;stroke:none;font-family:Helvetica;-inkscape-font-specification:Helvetica">ung</tspan></text>

</g></g><g
           id="g248"><g
             clip-path="url(#clipPath252)"
             id="g250" /></g></g></g><path
       d="m 292.9,514.45 131.75,0 0,21.75 -131.75,0 0,-21.75 z"
       inkscape:connector-curvature="0"
       id="path256"
       style="fill:#ffffff;fill-opacity:1;fill-rule:evenodd;stroke:none" /><g
       id="g258"><g
         clip-path="url(#clipPath262)"
         id="g260"><g
           id="g266"><g
             clip-path="url(#clipPath270)"
             id="g268"><text
   transform="matrix(1,0,0,-1,300.17,521.47)"
   id="text274"><tspan
     x="0 8.0279999 14.736 17.4 24.072001 30.695999"
     y="0"
     id="tspan276"
     style="font-size:12px;font-variant:normal;font-weight:normal;writing-mode:lr-tb;fill:#000000;fill-opacity:1;fill-rule:nonzero;stroke:none;font-family:Helvetica;-inkscape-font-specification:Helvetica">Anlage</tspan></text>

</g></g><g
           id="g278"><g
             clip-path="url(#clipPath282)"
             id="g280"><text
   transform="matrix(1,0,0,-1,337.61,521.47)"
   id="text286"><tspan
     x="0 6.7080002 13.308"
     y="0"
     id="tspan288"
     style="font-size:12px;font-variant:normal;font-weight:normal;writing-mode:lr-tb;fill:#000000;fill-opacity:1;fill-rule:nonzero;stroke:none;font-family:Helvetica;-inkscape-font-specification:Helvetica">nde</tspan></text>

</g></g><g
           id="g290"><g
             clip-path="url(#clipPath294)"
             id="g292"><text
   transform="matrix(1,0,0,-1,357.65,521.47)"
   id="text298"><tspan
     x="0 6.7080002 12.708 16.044001 18.708 24.587999 27.252001 33.924 37.919998 44.591999 51.335999"
     y="0"
     id="tspan300"
     style="font-size:12px;font-variant:normal;font-weight:normal;writing-mode:lr-tb;fill:#000000;fill-opacity:1;fill-rule:nonzero;stroke:none;font-family:Helvetica;-inkscape-font-specification:Helvetica">aktivierung</tspan></text>

</g></g><g
           id="g302"><g
             clip-path="url(#clipPath306)"
             id="g304" /></g></g></g><path
       d="m 420.05,543.75 0,-36.25 c 0,-0.28 -0.22,-0.5 -0.5,-0.5 -0.28,0 -0.5,0.22 -0.5,0.5 l 0,36.25 c 0,0.28 0.22,0.5 0.5,0.5 0.28,0 0.5,-0.22 0.5,-0.5 z m 4.88,-30.57 -5.38,-6.46 -5.38,6.46 c -0.18,0.21 -0.15,0.53 0.06,0.7 0.21,0.18 0.53,0.15 0.7,-0.06 l 5,-6 -0.76,0 5,6 c 0.17,0.21 0.49,0.24 0.7,0.06 0.21,-0.17 0.24,-0.49 0.06,-0.7 z"
       inkscape:connector-curvature="0"
       id="path310"
       style="fill:#000000;fill-opacity:1;fill-rule:nonzero;stroke:none" /><path
       d="m 485.75,506.9 0,36.25 c 0,0.28 0.22,0.5 0.5,0.5 0.28,0 0.5,-0.22 0.5,-0.5 l 0,-36.25 c 0,-0.28 -0.22,-0.5 -0.5,-0.5 -0.28,0 -0.5,0.22 -0.5,0.5 z m -4.88,30.57 5.38,6.46 5.38,-6.46 c 0.18,-0.21 0.15,-0.53 -0.06,-0.7 -0.21,-0.18 -0.53,-0.15 -0.7,0.06 l -5,6 0.76,0 -5,-6 c -0.17,-0.21 -0.49,-0.24 -0.7,-0.06 -0.21,0.17 -0.24,0.49 -0.06,0.7 z"
       inkscape:connector-curvature="0"
       id="path312"
       style="fill:#000000;fill-opacity:1;fill-rule:nonzero;stroke:none" /><path
       d="m 284.17,491.05 c -5.09,0 -9.22,-4.13 -9.22,-9.22 0,-5.1 4.13,-9.23 9.22,-9.23 5.1,0 9.23,4.13 9.23,9.23 0,5.09 -4.13,9.22 -9.23,9.22 z"
       inkscape:connector-curvature="0"
       id="path314"
       style="fill:#000000;fill-opacity:1;fill-rule:evenodd;stroke:none" /><path
       d="m 284.17,491.05 c -5.09,0 -9.22,-4.13 -9.22,-9.22 0,-5.1 4.13,-9.23 9.22,-9.23 5.1,0 9.23,4.13 9.23,9.23 0,5.09 -4.13,9.22 -9.23,9.22 z"
       inkscape:connector-curvature="0"
       id="path316"
       style="fill:none;stroke:#000000;stroke-width:0.75;stroke-linecap:round;stroke-linejoin:round;stroke-miterlimit:10;stroke-opacity:1;stroke-dasharray:none" /><path
       d="m 280.6,481.9 91.55,0 c 0.28,0 0.5,-0.22 0.5,-0.5 0,-0.28 -0.22,-0.5 -0.5,-0.5 l -91.55,0 c -0.28,0 -0.5,0.22 -0.5,0.5 0,0.28 0.22,0.5 0.5,0.5 z m 85.87,4.88 6.46,-5.38 -6.46,-5.38 c -0.21,-0.18 -0.53,-0.15 -0.7,0.06 -0.18,0.21 -0.15,0.53 0.06,0.7 l 6,5 0,-0.76 -6,5 c -0.21,0.17 -0.24,0.49 -0.06,0.7 0.17,0.21 0.49,0.24 0.7,0.06 z"
       inkscape:connector-curvature="0"
       id="path318"
       style="fill:#000000;fill-opacity:1;fill-rule:nonzero;stroke:none" /><path
       d="m 558.55,467.9 114.65,0 0,26 -114.65,0 0,-26 z"
       inkscape:connector-curvature="0"
       id="path320"
       style="fill:#ffffff;fill-opacity:1;fill-rule:evenodd;stroke:none" /><g
       id="g322"><g
         clip-path="url(#clipPath326)"
         id="g324"><g
           id="g330"><g
             clip-path="url(#clipPath334)"
             id="g332"><text
   transform="matrix(1,0,0,-1,565.87,479.11)"
   id="text338"><tspan
     x="0 8.0279999 14.736 18.732 24.732 31.403999 38.124001 41.363998 48.071999 52.068001 58.068001 64.739998 71.351997 78.059998"
     y="0"
     id="tspan340"
     style="font-size:12px;font-variant:normal;font-weight:normal;writing-mode:lr-tb;fill:#000000;fill-opacity:1;fill-rule:nonzero;stroke:none;font-family:Helvetica;-inkscape-font-specification:Helvetica">Person erkannt</tspan></text>

</g></g><g
           id="g342"><g
             clip-path="url(#clipPath346)"
             id="g344" /></g></g></g><path
       d="M 556.75,491.45 556.6,474.2"
       inkscape:connector-curvature="0"
       id="path350"
       style="fill:none;stroke:#000000;stroke-width:0.75;stroke-linecap:round;stroke-linejoin:round;stroke-miterlimit:10;stroke-opacity:1;stroke-dasharray:none" /><path
       d="m 527.35,491.45 29.25,0"
       inkscape:connector-curvature="0"
       id="path352"
       style="fill:none;stroke:#000000;stroke-width:0.75;stroke-linecap:round;stroke-linejoin:round;stroke-miterlimit:10;stroke-opacity:1;stroke-dasharray:none" /><path
       d="m 556.8,473.5 -29.2,0 c -0.28,0 -0.5,0.22 -0.5,0.5 0,0.28 0.22,0.5 0.5,0.5 l 29.2,0 c 0.28,0 0.5,-0.22 0.5,-0.5 0,-0.28 -0.22,-0.5 -0.5,-0.5 z m -23.52,-4.88 -6.46,5.38 6.46,5.38 c 0.21,0.18 0.53,0.15 0.7,-0.06 0.18,-0.21 0.15,-0.53 -0.06,-0.7 l -6,-5 0,0.76 6,-5 c 0.21,-0.17 0.24,-0.49 0.06,-0.7 -0.17,-0.21 -0.49,-0.24 -0.7,-0.06 z"
       inkscape:connector-curvature="0"
       id="path354"
       style="fill:#000000;fill-opacity:1;fill-rule:nonzero;stroke:none" /><path
       d="M 556.65,578.25 556.5,561"
       inkscape:connector-curvature="0"
       id="path356"
       style="fill:none;stroke:#000000;stroke-width:0.75;stroke-linecap:round;stroke-linejoin:round;stroke-miterlimit:10;stroke-opacity:1;stroke-dasharray:none" /><path
       d="m 527.25,578.25 29.25,0"
       inkscape:connector-curvature="0"
       id="path358"
       style="fill:none;stroke:#000000;stroke-width:0.75;stroke-linecap:round;stroke-linejoin:round;stroke-miterlimit:10;stroke-opacity:1;stroke-dasharray:none" /><path
       d="m 556.7,560.65 -29.2,0 c -0.28,0 -0.5,0.22 -0.5,0.5 0,0.28 0.22,0.5 0.5,0.5 l 29.2,0 c 0.28,0 0.5,-0.22 0.5,-0.5 0,-0.28 -0.22,-0.5 -0.5,-0.5 z m -23.52,-4.88 -6.46,5.38 6.46,5.38 c 0.21,0.18 0.53,0.15 0.7,-0.06 0.18,-0.21 0.15,-0.53 -0.06,-0.7 l -6,-5 0,0.76 6,-5 c 0.21,-0.17 0.24,-0.49 0.06,-0.7 -0.17,-0.21 -0.49,-0.24 -0.7,-0.06 z"
       inkscape:connector-curvature="0"
       id="path360"
       style="fill:#000000;fill-opacity:1;fill-rule:nonzero;stroke:none" /></g></svg>