<?xml version="1.0" encoding="UTF-8" standalone="no"?>
<!-- Created with Inkscape (http://www.inkscape.org/) -->

<svg
   xmlns:dc="http://purl.org/dc/elements/1.1/"
   xmlns:cc="http://creativecommons.org/ns#"
   xmlns:rdf="http://www.w3.org/1999/02/22-rdf-syntax-ns#"
   xmlns:svg="http://www.w3.org/2000/svg"
   xmlns="http://www.w3.org/2000/svg"
   xmlns:sodipodi="http://sodipodi.sourceforge.net/DTD/sodipodi-0.dtd"
   xmlns:inkscape="http://www.inkscape.org/namespaces/inkscape"
   version="1.1"
   width="602.3125"
   height="389"
   id="svg2"
   xml:space="preserve"
   inkscape:version="0.48.4 r9939"
   sodipodi:docname="Bild 4-26 Beispiel für ein Klassendiagramm der Schablonenmethode.svg"><sodipodi:namedview
     pagecolor="#ffffff"
     bordercolor="#666666"
     borderopacity="1"
     objecttolerance="10"
     gridtolerance="10"
     guidetolerance="10"
     inkscape:pageopacity="0"
     inkscape:pageshadow="2"
     inkscape:window-width="640"
     inkscape:window-height="480"
     id="namedview245"
     showgrid="false"
     inkscape:zoom="0.18730159"
     inkscape:cx="287.71875"
     inkscape:cy="181.34375"
     inkscape:window-x="0"
     inkscape:window-y="0"
     inkscape:window-maximized="0"
     inkscape:current-layer="svg2" /><metadata
     id="metadata8"><rdf:RDF><cc:Work
         rdf:about=""><dc:format>image/svg+xml</dc:format><dc:type
           rdf:resource="http://purl.org/dc/dcmitype/StillImage" /></cc:Work></rdf:RDF></metadata><defs
     id="defs6"><clipPath
       id="clipPath18"><path
         d="m 595.64,533.11 134.9,0 0,69.96 -134.9,0 0,-69.96 z"
         inkscape:connector-curvature="0"
         id="path20" /></clipPath><clipPath
       id="clipPath26"><path
         d="m 595.63,533.11 134.9,0 0,69.96 -134.9,0 0,-69.96 z"
         inkscape:connector-curvature="0"
         id="path28" /></clipPath><clipPath
       id="clipPath38"><path
         d="m 595.63,533.11 134.9,0 0,69.96 -134.9,0 0,-69.96 z"
         inkscape:connector-curvature="0"
         id="path40" /></clipPath><clipPath
       id="clipPath46"><path
         d="m 595.63,533.11 134.9,0 0,69.96 -134.9,0 0,-69.96 z"
         inkscape:connector-curvature="0"
         id="path48" /></clipPath><clipPath
       id="clipPath58"><path
         d="m 595.63,533.11 134.9,0 0,69.96 -134.9,0 0,-69.96 z"
         inkscape:connector-curvature="0"
         id="path60" /></clipPath><clipPath
       id="clipPath66"><path
         d="m 595.63,533.11 134.9,0 0,69.96 -134.9,0 0,-69.96 z"
         inkscape:connector-curvature="0"
         id="path68" /></clipPath><clipPath
       id="clipPath78"><path
         d="m 595.63,533.11 134.9,0 0,69.96 -134.9,0 0,-69.96 z"
         inkscape:connector-curvature="0"
         id="path80" /></clipPath><clipPath
       id="clipPath86"><path
         d="m 595.63,533.11 134.9,0 0,69.96 -134.9,0 0,-69.96 z"
         inkscape:connector-curvature="0"
         id="path88" /></clipPath><clipPath
       id="clipPath98"><path
         d="m 595.63,533.11 134.9,0 0,69.96 -134.9,0 0,-69.96 z"
         inkscape:connector-curvature="0"
         id="path100" /></clipPath><clipPath
       id="clipPath106"><path
         d="m 595.63,533.11 134.9,0 0,69.96 -134.9,0 0,-69.96 z"
         inkscape:connector-curvature="0"
         id="path108" /></clipPath><clipPath
       id="clipPath118"><path
         d="m 595.63,533.11 134.9,0 0,69.96 -134.9,0 0,-69.96 z"
         inkscape:connector-curvature="0"
         id="path120" /></clipPath><clipPath
       id="clipPath130"><path
         d="m 274.95,363.16 274.49,0 0,72.36 -274.49,0 0,-72.36 z"
         inkscape:connector-curvature="0"
         id="path132" /></clipPath><clipPath
       id="clipPath138"><path
         d="m 274.94,363.17 274.49,0 0,72.36 -274.49,0 0,-72.36 z"
         inkscape:connector-curvature="0"
         id="path140" /></clipPath><clipPath
       id="clipPath150"><path
         d="m 274.94,363.17 274.49,0 0,72.36 -274.49,0 0,-72.36 z"
         inkscape:connector-curvature="0"
         id="path152" /></clipPath><clipPath
       id="clipPath158"><path
         d="m 274.94,363.17 274.49,0 0,72.36 -274.49,0 0,-72.36 z"
         inkscape:connector-curvature="0"
         id="path160" /></clipPath><clipPath
       id="clipPath166"><path
         d="m 274.94,363.17 274.49,0 0,72.36 -274.49,0 0,-72.36 z"
         inkscape:connector-curvature="0"
         id="path168" /></clipPath><clipPath
       id="clipPath178"><path
         d="m 274.94,363.17 274.49,0 0,72.36 -274.49,0 0,-72.36 z"
         inkscape:connector-curvature="0"
         id="path180" /></clipPath><clipPath
       id="clipPath190"><path
         d="m 274.94,363.17 274.49,0 0,72.36 -274.49,0 0,-72.36 z"
         inkscape:connector-curvature="0"
         id="path192" /></clipPath><clipPath
       id="clipPath198"><path
         d="m 274.94,363.17 274.49,0 0,72.36 -274.49,0 0,-72.36 z"
         inkscape:connector-curvature="0"
         id="path200" /></clipPath><clipPath
       id="clipPath210"><path
         d="m 274.94,363.17 274.49,0 0,72.36 -274.49,0 0,-72.36 z"
         inkscape:connector-curvature="0"
         id="path212" /></clipPath><clipPath
       id="clipPath222"><path
         d="m 274.94,363.17 274.49,0 0,72.36 -274.49,0 0,-72.36 z"
         inkscape:connector-curvature="0"
         id="path224" /></clipPath><clipPath
       id="clipPath242"><path
         d="m 274.95,517.75 274.49,0 0,147.96 -274.49,0 0,-147.96 z"
         inkscape:connector-curvature="0"
         id="path244" /></clipPath><clipPath
       id="clipPath250"><path
         d="m 274.94,517.75 274.49,0 0,147.96 -274.49,0 0,-147.96 z"
         inkscape:connector-curvature="0"
         id="path252" /></clipPath><clipPath
       id="clipPath262"><path
         d="m 274.94,517.75 274.49,0 0,147.96 -274.49,0 0,-147.96 z"
         inkscape:connector-curvature="0"
         id="path264" /></clipPath><clipPath
       id="clipPath270"><path
         d="m 274.94,517.75 274.49,0 0,147.96 -274.49,0 0,-147.96 z"
         inkscape:connector-curvature="0"
         id="path272" /></clipPath><clipPath
       id="clipPath282"><path
         d="m 274.94,517.75 274.49,0 0,147.96 -274.49,0 0,-147.96 z"
         inkscape:connector-curvature="0"
         id="path284" /></clipPath><clipPath
       id="clipPath290"><path
         d="m 274.94,517.75 274.49,0 0,147.96 -274.49,0 0,-147.96 z"
         inkscape:connector-curvature="0"
         id="path292" /></clipPath><clipPath
       id="clipPath298"><path
         d="m 274.94,517.75 274.49,0 0,147.96 -274.49,0 0,-147.96 z"
         inkscape:connector-curvature="0"
         id="path300" /></clipPath><clipPath
       id="clipPath310"><path
         d="m 274.94,517.75 274.49,0 0,147.96 -274.49,0 0,-147.96 z"
         inkscape:connector-curvature="0"
         id="path312" /></clipPath><clipPath
       id="clipPath322"><path
         d="m 274.94,517.75 274.49,0 0,147.96 -274.49,0 0,-147.96 z"
         inkscape:connector-curvature="0"
         id="path324" /></clipPath><clipPath
       id="clipPath330"><path
         d="m 274.94,517.75 274.49,0 0,147.96 -274.49,0 0,-147.96 z"
         inkscape:connector-curvature="0"
         id="path332" /></clipPath><clipPath
       id="clipPath342"><path
         d="m 274.94,517.75 274.49,0 0,147.96 -274.49,0 0,-147.96 z"
         inkscape:connector-curvature="0"
         id="path344" /></clipPath><clipPath
       id="clipPath350"><path
         d="m 274.94,517.75 274.49,0 0,147.96 -274.49,0 0,-147.96 z"
         inkscape:connector-curvature="0"
         id="path352" /></clipPath><clipPath
       id="clipPath358"><path
         d="m 274.94,517.75 274.49,0 0,147.96 -274.49,0 0,-147.96 z"
         inkscape:connector-curvature="0"
         id="path360" /></clipPath><clipPath
       id="clipPath370"><path
         d="m 274.94,517.75 274.49,0 0,147.96 -274.49,0 0,-147.96 z"
         inkscape:connector-curvature="0"
         id="path372" /></clipPath><clipPath
       id="clipPath382"><path
         d="m 274.94,517.75 274.49,0 0,147.96 -274.49,0 0,-147.96 z"
         inkscape:connector-curvature="0"
         id="path384" /></clipPath><clipPath
       id="clipPath390"><path
         d="m 274.94,517.75 274.49,0 0,147.96 -274.49,0 0,-147.96 z"
         inkscape:connector-curvature="0"
         id="path392" /></clipPath><clipPath
       id="clipPath402"><path
         d="m 274.94,517.75 274.49,0 0,147.96 -274.49,0 0,-147.96 z"
         inkscape:connector-curvature="0"
         id="path404" /></clipPath><clipPath
       id="clipPath410"><path
         d="m 274.94,517.75 274.49,0 0,147.96 -274.49,0 0,-147.96 z"
         inkscape:connector-curvature="0"
         id="path412" /></clipPath><clipPath
       id="clipPath422"><path
         d="m 274.94,517.75 274.49,0 0,147.96 -274.49,0 0,-147.96 z"
         inkscape:connector-curvature="0"
         id="path424" /></clipPath><clipPath
       id="clipPath430"><path
         d="m 274.94,517.75 274.49,0 0,147.96 -274.49,0 0,-147.96 z"
         inkscape:connector-curvature="0"
         id="path432" /></clipPath><clipPath
       id="clipPath442"><path
         d="m 274.94,517.75 274.49,0 0,147.96 -274.49,0 0,-147.96 z"
         inkscape:connector-curvature="0"
         id="path444" /></clipPath><clipPath
       id="clipPath450"><path
         d="m 274.94,517.75 274.49,0 0,147.96 -274.49,0 0,-147.96 z"
         inkscape:connector-curvature="0"
         id="path452" /></clipPath><clipPath
       id="clipPath462"><path
         d="m 274.94,517.75 274.49,0 0,147.96 -274.49,0 0,-147.96 z"
         inkscape:connector-curvature="0"
         id="path464" /></clipPath><clipPath
       id="clipPath470"><path
         d="m 274.94,517.75 274.49,0 0,147.96 -274.49,0 0,-147.96 z"
         inkscape:connector-curvature="0"
         id="path472" /></clipPath></defs><g
     transform="matrix(1.25,0,0,-1.25,-342.65625,837.65625)"
     id="g10"><path
       d="m 595.5,529.55 135,0 0,77.2 -135,0 0,-77.2 z"
       inkscape:connector-curvature="0"
       id="path12"
       style="fill:#ffffff;fill-opacity:1;fill-rule:evenodd;stroke:none" /><g
       id="g14"><g
         clip-path="url(#clipPath18)"
         id="g16"><g
           id="g22"><g
             clip-path="url(#clipPath26)"
             id="g24"><text
   transform="matrix(1,0,0,-1,602.71,592.03)"
   id="text30"><tspan
     x="0 3.9960001 10.668 14.004 17.388 20.724001 27.455999 34.056 37.391998"
     y="0"
     id="tspan32"
     style="font-size:12px;font-variant:normal;font-weight:normal;writing-mode:lr-tb;fill:#000000;fill-opacity:1;fill-rule:nonzero;stroke:none;font-family:Helvetica;-inkscape-font-specification:Helvetica">ruft auf:</tspan></text>

</g></g><g
           id="g34"><g
             clip-path="url(#clipPath38)"
             id="g36" /></g><g
           id="g42"><g
             clip-path="url(#clipPath46)"
             id="g44"><text
   transform="matrix(1,0,0,-1,602.71,578.23)"
   id="text50"><tspan
     x="0 3.3599999 6.7199998"
     y="0"
     id="tspan52"
     style="font-size:12px;font-variant:normal;font-weight:normal;writing-mode:lr-tb;fill:#000000;fill-opacity:1;fill-rule:nonzero;stroke:none;font-family:Helvetica;-inkscape-font-specification:Helvetica">...</tspan></text>

</g></g><g
           id="g54"><g
             clip-path="url(#clipPath58)"
             id="g56" /></g><g
           id="g62"><g
             clip-path="url(#clipPath66)"
             id="g64"><text
   transform="matrix(1,0,0,-1,602.71,564.43)"
   id="text70"><tspan
     x="0 6.7080002 9.3719997 16.044001 22.044001 28.044001 34.776001 41.375999 48.084 58.043999 64.751999 68.087997 74.711998 81.419998 88.127998 94.727997 101.436 105.432 109.356"
     y="0"
     id="tspan72"
     style="font-size:12px;font-variant:normal;font-weight:normal;writing-mode:lr-tb;fill:#000000;fill-opacity:1;fill-rule:nonzero;stroke:none;font-family:Helvetica;-inkscape-font-specification:Helvetica">einschubmethode1();</tspan></text>

</g></g><g
           id="g74"><g
             clip-path="url(#clipPath78)"
             id="g76" /></g><g
           id="g82"><g
             clip-path="url(#clipPath86)"
             id="g84"><text
   transform="matrix(1,0,0,-1,602.71,550.63)"
   id="text90"><tspan
     x="0 3.3599999 6.7199998"
     y="0"
     id="tspan92"
     style="font-size:12px;font-variant:normal;font-weight:normal;writing-mode:lr-tb;fill:#000000;fill-opacity:1;fill-rule:nonzero;stroke:none;font-family:Helvetica;-inkscape-font-specification:Helvetica">...</tspan></text>

</g></g><g
           id="g94"><g
             clip-path="url(#clipPath98)"
             id="g96" /></g><g
           id="g102"><g
             clip-path="url(#clipPath106)"
             id="g104"><text
   transform="matrix(1,0,0,-1,602.71,536.83)"
   id="text110"><tspan
     x="0 6.7080002 9.3719997 16.044001 22.044001 28.044001 34.776001 41.375999 48.084 58.043999 64.751999 68.087997 74.711998 81.419998 88.127998 94.727997 101.436 105.432 109.356"
     y="0"
     id="tspan112"
     style="font-size:12px;font-variant:normal;font-weight:normal;writing-mode:lr-tb;fill:#000000;fill-opacity:1;fill-rule:nonzero;stroke:none;font-family:Helvetica;-inkscape-font-specification:Helvetica">einschubmethode2();</tspan></text>

</g></g><g
           id="g114"><g
             clip-path="url(#clipPath118)"
             id="g116" /></g></g></g><path
       d="m 274.5,359.3 275.25,0 0,80.25 -275.25,0 0,-80.25 z"
       inkscape:connector-curvature="0"
       id="path122"
       style="fill:#ffffff;fill-opacity:1;fill-rule:evenodd;stroke:none" /><path
       d="m 274.5,359.3 275.25,0 0,80.25 -275.25,0 0,-80.25 z"
       inkscape:connector-curvature="0"
       id="path124"
       style="fill:none;stroke:#000000;stroke-width:0.75;stroke-linecap:round;stroke-linejoin:miter;stroke-miterlimit:10;stroke-opacity:1;stroke-dasharray:none" /><g
       id="g126"><g
         clip-path="url(#clipPath130)"
         id="g128"><g
           id="g134"><g
             clip-path="url(#clipPath138)"
             id="g136"><text
   transform="matrix(1,0,0,-1,351.77,420.77)"
   id="text142"><tspan
     x="0 11.52312 21.274679 30.9624 39.836159 46.044601 55.062 60.376678 69.250443 80.77356 85.210442 94.164001 103.03776 111.91152"
     y="0"
     id="tspan144"
     style="font-size:15.96000004px;font-variant:normal;font-weight:bold;writing-mode:lr-tb;fill:#000000;fill-opacity:1;fill-rule:nonzero;stroke:none;font-family:Helvetica;-inkscape-font-specification:Helvetica-Bold">KonkreteKlasse</tspan></text>

</g></g><g
           id="g146"><g
             clip-path="url(#clipPath150)"
             id="g148" /></g><g
           id="g154"><g
             clip-path="url(#clipPath158)"
             id="g156" /></g><g
           id="g162"><g
             clip-path="url(#clipPath166)"
             id="g164"><text
   transform="matrix(1,0,0,-1,282.17,387.41)"
   id="text170"><tspan
     x="0 8.8800001"
     y="0"
     id="tspan172"
     style="font-size:15.96000004px;font-variant:normal;font-weight:normal;writing-mode:lr-tb;fill:#000000;fill-opacity:1;fill-rule:nonzero;stroke:none;font-family:Helvetica;-inkscape-font-specification:Helvetica"># </tspan></text>

</g></g><g
           id="g174"><g
             clip-path="url(#clipPath178)"
             id="g176"><text
   transform="matrix(1,0,0,-1,295.49,387.41)"
   id="text182"><tspan
     x="0 8.8737602 12.46476 21.33852 29.3664 37.394279 46.26804 55.1418 64.015556 77.310242 86.215919 90.652802 99.526558 108.51204 117.3858 126.25956 135.13332 140.448"
     y="0"
     id="tspan184"
     style="font-size:15.96000004px;font-variant:normal;font-weight:normal;writing-mode:lr-tb;fill:#000000;fill-opacity:1;fill-rule:nonzero;stroke:none;font-family:Helvetica;-inkscape-font-specification:Helvetica">einschubmethode1()</tspan></text>

</g></g><g
           id="g186"><g
             clip-path="url(#clipPath190)"
             id="g188" /></g><g
           id="g194"><g
             clip-path="url(#clipPath198)"
             id="g196"><text
   transform="matrix(1,0,0,-1,282.17,369.05)"
   id="text202"><tspan
     x="0 8.8800001"
     y="0"
     id="tspan204"
     style="font-size:15.96000004px;font-variant:normal;font-weight:normal;writing-mode:lr-tb;fill:#000000;fill-opacity:1;fill-rule:nonzero;stroke:none;font-family:Helvetica;-inkscape-font-specification:Helvetica"># </tspan></text>

</g></g><g
           id="g206"><g
             clip-path="url(#clipPath210)"
             id="g208"><text
   transform="matrix(1,0,0,-1,295.49,369.05)"
   id="text214"><tspan
     x="0 8.8737602 12.46476 21.33852 29.3664 37.394279 46.26804 55.1418 64.015556 77.310242 86.215919 90.652802 99.526558 108.51204 117.3858 126.25956 135.13332 140.448"
     y="0"
     id="tspan216"
     style="font-size:15.96000004px;font-variant:normal;font-weight:normal;writing-mode:lr-tb;fill:#000000;fill-opacity:1;fill-rule:nonzero;stroke:none;font-family:Helvetica;-inkscape-font-specification:Helvetica">einschubmethode2()</tspan></text>

</g></g><g
           id="g218"><g
             clip-path="url(#clipPath222)"
             id="g220" /></g></g></g><path
       d="m 412.35,439.5 0,56.25"
       inkscape:connector-curvature="0"
       id="path226"
       style="fill:none;stroke:#000000;stroke-width:0.75;stroke-linecap:round;stroke-linejoin:round;stroke-miterlimit:10;stroke-opacity:1;stroke-dasharray:none" /><path
       d="m 412.27,513 -9.37,-18.75 18.75,0 -9.38,18.75 z"
       inkscape:connector-curvature="0"
       id="path228"
       style="fill:#ffffff;fill-opacity:1;fill-rule:evenodd;stroke:none" /><path
       d="m 412.27,513 -9.37,-18.75 18.75,0 -9.38,18.75 z"
       inkscape:connector-curvature="0"
       id="path230"
       style="fill:none;stroke:#000000;stroke-width:0.75;stroke-linecap:round;stroke-linejoin:round;stroke-miterlimit:10;stroke-opacity:1;stroke-dasharray:none" /><path
       d="M 274.5,408.95 549.75,408.9"
       inkscape:connector-curvature="0"
       id="path232"
       style="fill:none;stroke:#000000;stroke-width:0.75;stroke-linecap:round;stroke-linejoin:round;stroke-miterlimit:10;stroke-opacity:1;stroke-dasharray:none" /><path
       d="m 274.5,513.75 275.25,0 0,156 -275.25,0 0,-156 z"
       inkscape:connector-curvature="0"
       id="path234"
       style="fill:#ffffff;fill-opacity:1;fill-rule:evenodd;stroke:none" /><path
       d="m 274.5,513.75 275.25,0 0,156 -275.25,0 0,-156 z"
       inkscape:connector-curvature="0"
       id="path236"
       style="fill:none;stroke:#000000;stroke-width:0.75;stroke-linecap:round;stroke-linejoin:miter;stroke-miterlimit:8;stroke-opacity:1;stroke-dasharray:none" /><g
       id="g238"><g
         clip-path="url(#clipPath242)"
         id="g240"><g
           id="g246"><g
             clip-path="url(#clipPath250)"
             id="g248"><text
   transform="matrix(1,0,0,-1,349.49,650.95)"
   id="text254"><tspan
     x="0 11.28372 21.11508 30.100559 35.415241 41.62368 50.609161 59.482922 64.7976 73.671356 85.194481 89.711159 98.584923 107.45868 116.46012"
     y="0"
     id="tspan256"
     style="font-size:15.96000004px;font-variant:normal;font-weight:bold;writing-mode:lr-tb;fill:#000000;fill-opacity:1;fill-rule:nonzero;stroke:none;font-family:Helvetica;-inkscape-font-specification:Helvetica-Bold">AbstrakteKlasse</tspan></text>

</g></g><g
           id="g258"><g
             clip-path="url(#clipPath262)"
             id="g260" /></g><g
           id="g266"><g
             clip-path="url(#clipPath270)"
             id="g268"><text
   transform="matrix(1,0,0,-1,382.61,634.39)"
   id="text274"><tspan
     x="0 4.6893601 12.4956 20.30184 27.32184 31.22496 35.90028 43.70652 50.642281 54.587521"
     y="0"
     id="tspan276"
     style="font-size:14.03999996px;font-variant:normal;font-weight:normal;writing-mode:lr-tb;fill:#000000;fill-opacity:1;fill-rule:nonzero;stroke:none;font-family:Helvetica;-inkscape-font-specification:Helvetica">{abstract}</tspan></text>

</g></g><g
           id="g278"><g
             clip-path="url(#clipPath282)"
             id="g280" /></g><g
           id="g286"><g
             clip-path="url(#clipPath290)"
             id="g288" /></g><g
           id="g294"><g
             clip-path="url(#clipPath298)"
             id="g296"><text
   transform="matrix(1,0,0,-1,282.17,600.31)"
   id="text302"><tspan
     x="0 9.3600397"
     y="0"
     id="tspan304"
     style="font-size:15.96000004px;font-variant:normal;font-weight:normal;writing-mode:lr-tb;fill:#000000;fill-opacity:1;fill-rule:nonzero;stroke:none;font-family:Helvetica;-inkscape-font-specification:Helvetica">+ </tspan></text>

</g></g><g
           id="g306"><g
             clip-path="url(#clipPath310)"
             id="g308"><text
   transform="matrix(1,0,0,-1,295.97,600.31)"
   id="text314"><tspan
     x="0 8.0278797 16.055759 24.92952 33.80328 42.67704 46.284 55.157761 64.031517 72.905281 81.779037 95.105637 103.9794 108.41628 117.29004 126.1638 135.03757 143.91132 149.226"
     y="0"
     id="tspan316"
     style="font-size:15.96000004px;font-variant:normal;font-weight:normal;writing-mode:lr-tb;fill:#000000;fill-opacity:1;fill-rule:nonzero;stroke:none;font-family:Helvetica;-inkscape-font-specification:Helvetica">schablonenmethode()</tspan></text>

</g></g><g
           id="g318"><g
             clip-path="url(#clipPath322)"
             id="g320" /></g><g
           id="g326"><g
             clip-path="url(#clipPath330)"
             id="g328"><text
   transform="matrix(1,0,0,-1,459.53,600.31)"
   id="text334"><tspan
     x="0 5.2827601 8.8737602 17.74752 26.621281 31.16988"
     y="0"
     id="tspan336"
     style="font-size:15.96000004px;font-variant:normal;font-weight:normal;writing-mode:lr-tb;fill:#000000;fill-opacity:1;fill-rule:nonzero;stroke:none;font-family:Helvetica;-inkscape-font-specification:Helvetica">{leaf}</tspan></text>

</g></g><g
           id="g338"><g
             clip-path="url(#clipPath342)"
             id="g340" /></g><g
           id="g346"><g
             clip-path="url(#clipPath350)"
             id="g348" /></g><g
           id="g354"><g
             clip-path="url(#clipPath358)"
             id="g356"><text
   transform="matrix(1,0,0,-1,282.17,563.59)"
   id="text362"><tspan
     x="0 8.8800001"
     y="0"
     id="tspan364"
     style="font-size:15.96000004px;font-variant:normal;font-weight:normal;writing-mode:lr-tb;fill:#000000;fill-opacity:1;fill-rule:nonzero;stroke:none;font-family:Helvetica;-inkscape-font-specification:Helvetica"># </tspan></text>

</g></g><g
           id="g366"><g
             clip-path="url(#clipPath370)"
             id="g368"><text
   transform="matrix(1,0,0,-1,295.49,563.59)"
   id="text374"><tspan
     x="0 8.8737602 12.46476 21.33852 29.3664 37.394279 46.26804 55.1418 64.015556 77.310242 86.215919 90.652802 99.526558 108.51204 117.3858 126.25956 135.13332 140.448"
     y="0"
     id="tspan376"
     style="font-size:15.96000004px;font-variant:normal;font-weight:normal;writing-mode:lr-tb;fill:#000000;fill-opacity:1;fill-rule:nonzero;stroke:none;font-family:Helvetica;-inkscape-font-specification:Helvetica">einschubmethode1()</tspan></text>

</g></g><g
           id="g378"><g
             clip-path="url(#clipPath382)"
             id="g380" /></g><g
           id="g386"><g
             clip-path="url(#clipPath390)"
             id="g388"><text
   transform="matrix(1,0,0,-1,450.29,563.59)"
   id="text394"><tspan
     x="0 5.2827601 14.15652 23.030279 31.07412 35.511002 40.905479 49.77924 57.807121 62.243999"
     y="0"
     id="tspan396"
     style="font-size:15.96000004px;font-variant:normal;font-weight:normal;writing-mode:lr-tb;fill:#000000;fill-opacity:1;fill-rule:nonzero;stroke:none;font-family:Helvetica;-inkscape-font-specification:Helvetica">{abstract}</tspan></text>

</g></g><g
           id="g398"><g
             clip-path="url(#clipPath402)"
             id="g400" /></g><g
           id="g406"><g
             clip-path="url(#clipPath410)"
             id="g408"><text
   transform="matrix(1,0,0,-1,282.17,545.11)"
   id="text414"><tspan
     x="0"
     y="0"
     id="tspan416"
     style="font-size:15.96000004px;font-variant:normal;font-weight:normal;writing-mode:lr-tb;fill:#000000;fill-opacity:1;fill-rule:nonzero;stroke:none;font-family:Helvetica;-inkscape-font-specification:Helvetica">#</tspan></text>

</g></g><g
           id="g418"><g
             clip-path="url(#clipPath422)"
             id="g420" /></g><g
           id="g426"><g
             clip-path="url(#clipPath430)"
             id="g428"><text
   transform="matrix(1,0,0,-1,295.49,545.11)"
   id="text434"><tspan
     x="0 8.8737602 12.46476 21.33852 29.3664 37.394279 46.26804 55.1418 64.015556 77.310242 86.215919 90.652802 99.526558 108.51204 117.3858 126.25956 135.13332 140.448"
     y="0"
     id="tspan436"
     style="font-size:15.96000004px;font-variant:normal;font-weight:normal;writing-mode:lr-tb;fill:#000000;fill-opacity:1;fill-rule:nonzero;stroke:none;font-family:Helvetica;-inkscape-font-specification:Helvetica">einschubmethode2()</tspan></text>

</g></g><g
           id="g438"><g
             clip-path="url(#clipPath442)"
             id="g440" /></g><g
           id="g446"><g
             clip-path="url(#clipPath450)"
             id="g448"><text
   transform="matrix(1,0,0,-1,450.29,545.11)"
   id="text454"><tspan
     x="0 5.2827601 14.15652 23.030279 31.07412 35.511002 40.905479 49.77924 57.807121 62.243999"
     y="0"
     id="tspan456"
     style="font-size:15.96000004px;font-variant:normal;font-weight:normal;writing-mode:lr-tb;fill:#000000;fill-opacity:1;fill-rule:nonzero;stroke:none;font-family:Helvetica;-inkscape-font-specification:Helvetica">{abstract}</tspan></text>

</g></g><g
           id="g458"><g
             clip-path="url(#clipPath462)"
             id="g460" /></g><g
           id="g466"><g
             clip-path="url(#clipPath470)"
             id="g468" /></g></g></g><path
       d="m 274.5,622.2 275.25,0"
       inkscape:connector-curvature="0"
       id="path474"
       style="fill:none;stroke:#000000;stroke-width:0.75;stroke-linecap:round;stroke-linejoin:round;stroke-miterlimit:8;stroke-opacity:1;stroke-dasharray:none" /><path
       d="m 718,606.75 0,-21.05 37.6,0 -37.6,21.05 z"
       inkscape:connector-curvature="0"
       id="path476"
       style="fill:none;stroke:#000000;stroke-width:0.75;stroke-linecap:round;stroke-linejoin:round;stroke-miterlimit:8;stroke-opacity:1;stroke-dasharray:none" /><path
       d="m 755.6,585.7 0,-56.15"
       inkscape:connector-curvature="0"
       id="path478"
       style="fill:none;stroke:#000000;stroke-width:0.75;stroke-linecap:round;stroke-linejoin:round;stroke-miterlimit:8;stroke-opacity:1;stroke-dasharray:none" /><path
       d="m 755.6,529.55 -169.1,0"
       inkscape:connector-curvature="0"
       id="path480"
       style="fill:none;stroke:#000000;stroke-width:0.75;stroke-linecap:round;stroke-linejoin:round;stroke-miterlimit:8;stroke-opacity:1;stroke-dasharray:none" /><path
       d="m 586.5,529.55 0,77.2"
       inkscape:connector-curvature="0"
       id="path482"
       style="fill:none;stroke:#000000;stroke-width:0.75;stroke-linecap:round;stroke-linejoin:round;stroke-miterlimit:8;stroke-opacity:1;stroke-dasharray:none" /><path
       d="m 718,606.75 -131.5,0"
       inkscape:connector-curvature="0"
       id="path484"
       style="fill:none;stroke:#000000;stroke-width:0.75;stroke-linecap:round;stroke-linejoin:round;stroke-miterlimit:8;stroke-opacity:1;stroke-dasharray:none" /><g
       id="g486"><path
         d="m 532.5,606.75 54,-9"
         inkscape:connector-curvature="0"
         id="path488"
         style="fill:none;stroke:#000000;stroke-width:0.75;stroke-linecap:round;stroke-linejoin:round;stroke-miterlimit:8;stroke-opacity:1;stroke-dasharray:2.25, 3;stroke-dashoffset:0" /></g></g></svg>