<?xml version="1.0" encoding="UTF-8" standalone="no"?>
<!-- Created with Inkscape (http://www.inkscape.org/) -->

<svg
   xmlns:dc="http://purl.org/dc/elements/1.1/"
   xmlns:cc="http://creativecommons.org/ns#"
   xmlns:rdf="http://www.w3.org/1999/02/22-rdf-syntax-ns#"
   xmlns:svg="http://www.w3.org/2000/svg"
   xmlns="http://www.w3.org/2000/svg"
   xmlns:sodipodi="http://sodipodi.sourceforge.net/DTD/sodipodi-0.dtd"
   xmlns:inkscape="http://www.inkscape.org/namespaces/inkscape"
   version="1.1"
   width="523.75"
   height="133.4375"
   id="svg2"
   xml:space="preserve"
   inkscape:version="0.48.4 r9939"
   sodipodi:docname="Bild 4-59 Klassendiagramm für das Singleton-Muster.svg"><sodipodi:namedview
     pagecolor="#ffffff"
     bordercolor="#666666"
     borderopacity="1"
     objecttolerance="10"
     gridtolerance="10"
     guidetolerance="10"
     inkscape:pageopacity="0"
     inkscape:pageshadow="2"
     inkscape:window-width="640"
     inkscape:window-height="480"
     id="namedview136"
     showgrid="false"
     inkscape:zoom="0.18730159"
     inkscape:cx="591.15625"
     inkscape:cy="23.59375"
     inkscape:window-x="0"
     inkscape:window-y="0"
     inkscape:window-maximized="0"
     inkscape:current-layer="svg2" /><metadata
     id="metadata8"><rdf:RDF><cc:Work
         rdf:about=""><dc:format>image/svg+xml</dc:format><dc:type
           rdf:resource="http://purl.org/dc/dcmitype/StillImage" /></cc:Work></rdf:RDF></metadata><defs
     id="defs6"><clipPath
       id="clipPath20"><path
         d="m 314.69,489.43 135,0 0,98.04 -135,0 0,-98.04 z"
         inkscape:connector-curvature="0"
         id="path22" /></clipPath><clipPath
       id="clipPath28"><path
         d="m 314.69,489.43 135,0 0,98.04 -135,0 0,-98.04 z"
         inkscape:connector-curvature="0"
         id="path30" /></clipPath><clipPath
       id="clipPath40"><path
         d="m 314.69,489.43 135,0 0,98.04 -135,0 0,-98.04 z"
         inkscape:connector-curvature="0"
         id="path42" /></clipPath><clipPath
       id="clipPath48"><path
         d="m 314.69,489.43 135,0 0,98.04 -135,0 0,-98.04 z"
         inkscape:connector-curvature="0"
         id="path50" /></clipPath><clipPath
       id="clipPath56"><path
         d="m 314.69,489.43 135,0 0,98.04 -135,0 0,-98.04 z"
         inkscape:connector-curvature="0"
         id="path58" /></clipPath><clipPath
       id="clipPath68"><path
         d="m 314.69,489.43 135,0 0,98.04 -135,0 0,-98.04 z"
         inkscape:connector-curvature="0"
         id="path70" /></clipPath><clipPath
       id="clipPath76"><path
         d="m 314.69,489.43 135,0 0,98.04 -135,0 0,-98.04 z"
         inkscape:connector-curvature="0"
         id="path78" /></clipPath><clipPath
       id="clipPath88"><path
         d="m 314.69,489.43 135,0 0,98.04 -135,0 0,-98.04 z"
         inkscape:connector-curvature="0"
         id="path90" /></clipPath><clipPath
       id="clipPath98"><path
         d="m 314.69,489.43 135,0 0,98.04 -135,0 0,-98.04 z"
         inkscape:connector-curvature="0"
         id="path100" /></clipPath><clipPath
       id="clipPath106"><path
         d="m 314.69,489.43 135,0 0,98.04 -135,0 0,-98.04 z"
         inkscape:connector-curvature="0"
         id="path108" /></clipPath><clipPath
       id="clipPath118"><path
         d="m 314.69,489.43 135,0 0,98.04 -135,0 0,-98.04 z"
         inkscape:connector-curvature="0"
         id="path120" /></clipPath><clipPath
       id="clipPath130"><path
         d="m 314.69,489.43 135,0 0,98.04 -135,0 0,-98.04 z"
         inkscape:connector-curvature="0"
         id="path132" /></clipPath><clipPath
       id="clipPath140"><path
         d="m 314.69,489.43 135,0 0,98.04 -135,0 0,-98.04 z"
         inkscape:connector-curvature="0"
         id="path142" /></clipPath><clipPath
       id="clipPath152"><path
         d="m 314.69,489.43 135,0 0,98.04 -135,0 0,-98.04 z"
         inkscape:connector-curvature="0"
         id="path154" /></clipPath><clipPath
       id="clipPath160"><path
         d="m 314.69,489.43 135,0 0,98.04 -135,0 0,-98.04 z"
         inkscape:connector-curvature="0"
         id="path162" /></clipPath><clipPath
       id="clipPath168"><path
         d="m 314.69,489.43 135,0 0,98.04 -135,0 0,-98.04 z"
         inkscape:connector-curvature="0"
         id="path170" /></clipPath><clipPath
       id="clipPath180"><path
         d="m 314.69,489.43 135,0 0,98.04 -135,0 0,-98.04 z"
         inkscape:connector-curvature="0"
         id="path182" /></clipPath><clipPath
       id="clipPath188"><path
         d="m 314.69,489.43 135,0 0,98.04 -135,0 0,-98.04 z"
         inkscape:connector-curvature="0"
         id="path190" /></clipPath><clipPath
       id="clipPath200"><path
         d="m 314.69,489.43 135,0 0,98.04 -135,0 0,-98.04 z"
         inkscape:connector-curvature="0"
         id="path202" /></clipPath><clipPath
       id="clipPath214"><path
         d="m 32.161,503.11 135.03,0 0,70.08 -135.03,0 0,-70.08 z"
         inkscape:connector-curvature="0"
         id="path216" /></clipPath><clipPath
       id="clipPath222"><path
         d="m 32.16,503.11 135.02,0 0,70.08 -135.02,0 0,-70.08 z"
         inkscape:connector-curvature="0"
         id="path224" /></clipPath><clipPath
       id="clipPath234"><path
         d="m 32.16,503.11 135.02,0 0,70.08 -135.02,0 0,-70.08 z"
         inkscape:connector-curvature="0"
         id="path236" /></clipPath><clipPath
       id="clipPath248"><path
         d="m 207.03,552.55 60,0 0,18.84 -60,0 0,-18.84 z"
         inkscape:connector-curvature="0"
         id="path250" /></clipPath><clipPath
       id="clipPath256"><path
         d="m 207.02,552.55 60,0 0,18.84 -60,0 0,-18.84 z"
         inkscape:connector-curvature="0"
         id="path258" /></clipPath><clipPath
       id="clipPath268"><path
         d="m 207.02,552.55 60,0 0,18.84 -60,0 0,-18.84 z"
         inkscape:connector-curvature="0"
         id="path270" /></clipPath></defs><g
     transform="matrix(1.25,0,0,-1.25,-39.21875,739.84375)"
     id="g10"><path
       d="m 314.25,485.5 135.75,0 0,106 -135.75,0 0,-106 z"
       inkscape:connector-curvature="0"
       id="path12"
       style="fill:#ffffff;fill-opacity:1;fill-rule:evenodd;stroke:none" /><path
       d="m 314.25,485.5 135.75,0 0,106 -135.75,0 0,-106 z"
       inkscape:connector-curvature="0"
       id="path14"
       style="fill:none;stroke:#000000;stroke-width:0.75;stroke-linecap:round;stroke-linejoin:miter;stroke-miterlimit:10;stroke-opacity:1;stroke-dasharray:none" /><g
       id="g16"><g
         clip-path="url(#clipPath20)"
         id="g18"><g
           id="g24"><g
             clip-path="url(#clipPath28)"
             id="g26"><text
   transform="matrix(1,0,0,-1,354.77,576.43)"
   id="text32"><tspan
     x="0 8.0279999 11.364 18.695999 26.028 29.364 36.096001 40.091999 47.375999"
     y="0"
     id="tspan34"
     style="font-size:12px;font-variant:normal;font-weight:bold;writing-mode:lr-tb;fill:#000000;fill-opacity:1;fill-rule:nonzero;stroke:none;font-family:Helvetica;-inkscape-font-specification:Helvetica-Bold">Singleton</tspan></text>

</g></g><g
           id="g36"><g
             clip-path="url(#clipPath40)"
             id="g38" /></g><g
           id="g44"><g
             clip-path="url(#clipPath48)"
             id="g46" /></g><g
           id="g52"><g
             clip-path="url(#clipPath56)"
             id="g54"><text
   transform="matrix(1,0,0,-1,321.89,548.83)"
   id="text60"><tspan
     x="0"
     y="0"
     id="tspan62"
     style="font-size:12px;font-variant:normal;font-weight:normal;writing-mode:lr-tb;fill:#000000;fill-opacity:1;fill-rule:nonzero;stroke:none;font-family:Helvetica;-inkscape-font-specification:Helvetica">-</tspan></text>

</g></g><g
           id="g64"><g
             clip-path="url(#clipPath68)"
             id="g66" /></g><g
           id="g72"><g
             clip-path="url(#clipPath76)"
             id="g74"><text
   transform="matrix(1,0,0,-1,332.57,548.83)"
   id="text80"><tspan
     x="0 2.664 9.3360004 15.336 18.708 25.416 32.124001 38.004002 44.712002 48.048 51.419998 59.448002 61.967999 68.676003 75.276001 77.940002 84.612 87.984001 94.692001"
     y="0"
     id="tspan82"
     style="font-size:12px;font-variant:normal;font-weight:normal;writing-mode:lr-tb;fill:#000000;fill-opacity:1;fill-rule:nonzero;stroke:none;font-family:Helvetica;-inkscape-font-specification:Helvetica">instance: Singleton</tspan></text>

</g></g><g
           id="g84"><g
             clip-path="url(#clipPath88)"
             id="g86" /></g><path
           d="m 321.89,546.67 112.08,0 0,0.84 -112.08,0 0,-0.84 z"
           inkscape:connector-curvature="0"
           id="path92"
           style="fill:#000000;fill-opacity:1;fill-rule:evenodd;stroke:none" /><g
           id="g94"><g
             clip-path="url(#clipPath98)"
             id="g96" /></g><g
           id="g102"><g
             clip-path="url(#clipPath106)"
             id="g104"><text
   transform="matrix(1,0,0,-1,321.89,521.23)"
   id="text110"><tspan
     x="0 6.96"
     y="0"
     id="tspan112"
     style="font-size:12px;font-variant:normal;font-weight:normal;writing-mode:lr-tb;fill:#000000;fill-opacity:1;fill-rule:nonzero;stroke:none;font-family:Helvetica;-inkscape-font-specification:Helvetica">+ </tspan></text>

</g></g><g
           id="g114"><g
             clip-path="url(#clipPath118)"
             id="g116"><text
   transform="matrix(1,0,0,-1,332.21,521.23)"
   id="text122"><tspan
     x="0 6.5999999 13.308 16.643999 20.016001 26.724001 32.723999 36.060001 42.792 49.5 55.380001 62.088001 66.084"
     y="0"
     id="tspan124"
     style="font-size:12px;font-variant:normal;font-weight:normal;writing-mode:lr-tb;fill:#000000;fill-opacity:1;fill-rule:nonzero;stroke:none;font-family:Helvetica;-inkscape-font-specification:Helvetica">getInstance()</tspan></text>

</g></g><g
           id="g126"><g
             clip-path="url(#clipPath130)"
             id="g128" /></g><path
           d="m 332.21,519.07 70.08,0 0,0.84 -70.08,0 0,-0.84 z"
           inkscape:connector-curvature="0"
           id="path134"
           style="fill:#000000;fill-opacity:1;fill-rule:evenodd;stroke:none" /><g
           id="g136"><g
             clip-path="url(#clipPath140)"
             id="g138"><text
   transform="matrix(1,0,0,-1,321.89,507.43)"
   id="text144"><tspan
     x="0"
     y="0"
     id="tspan146"
     style="font-size:12px;font-variant:normal;font-weight:normal;writing-mode:lr-tb;fill:#000000;fill-opacity:1;fill-rule:nonzero;stroke:none;font-family:Helvetica;-inkscape-font-specification:Helvetica">-</tspan></text>

</g></g><g
           id="g148"><g
             clip-path="url(#clipPath152)"
             id="g150" /></g><g
           id="g156"><g
             clip-path="url(#clipPath160)"
             id="g158" /></g><g
           id="g164"><g
             clip-path="url(#clipPath168)"
             id="g166"><text
   transform="matrix(1,0,0,-1,332.57,507.43)"
   id="text172"><tspan
     x="0 8.0279999 10.692 17.364 23.988001 26.652 33.324001 36.695999 43.403999 50.112 54.108002"
     y="0"
     id="tspan174"
     style="font-size:12px;font-variant:normal;font-weight:normal;writing-mode:lr-tb;fill:#000000;fill-opacity:1;fill-rule:nonzero;stroke:none;font-family:Helvetica;-inkscape-font-specification:Helvetica">Singleton()</tspan></text>

</g></g><g
           id="g176"><g
             clip-path="url(#clipPath180)"
             id="g178" /></g><g
           id="g184"><g
             clip-path="url(#clipPath188)"
             id="g186"><text
   transform="matrix(1,0,0,-1,321.89,493.63)"
   id="text192"><tspan
     x="0 6.96 10.296 17.028 23.736 30.444 34.439999 41.112 44.448002 47.112 53.723999 60.431999 64.428001"
     y="0"
     id="tspan194"
     style="font-size:12px;font-variant:normal;font-weight:normal;writing-mode:lr-tb;fill:#000000;fill-opacity:1;fill-rule:nonzero;stroke:none;font-family:Helvetica;-inkscape-font-specification:Helvetica">+ operation()</tspan></text>

</g></g><g
           id="g196"><g
             clip-path="url(#clipPath200)"
             id="g198" /></g></g></g><path
       d="m 139.35,538.7 7,0 c 0.28,0 0.5,-0.22 0.5,-0.5 0,-0.28 -0.22,-0.5 -0.5,-0.5 l -7,0 c -0.28,0 -0.5,0.22 -0.5,0.5 0,0.28 0.22,0.5 0.5,0.5 z m 11,0 7,0 c 0.28,0 0.5,-0.22 0.5,-0.5 0,-0.28 -0.22,-0.5 -0.5,-0.5 l -7,0 c -0.28,0 -0.5,0.22 -0.5,0.5 0,0.28 0.22,0.5 0.5,0.5 z m 11,0 7,0 c 0.28,0 0.5,-0.22 0.5,-0.5 0,-0.28 -0.22,-0.5 -0.5,-0.5 l -7,0 c -0.28,0 -0.5,0.22 -0.5,0.5 0,0.28 0.22,0.5 0.5,0.5 z m 11,0 7,0 c 0.28,0 0.5,-0.22 0.5,-0.5 0,-0.28 -0.22,-0.5 -0.5,-0.5 l -7,0 c -0.28,0 -0.5,0.22 -0.5,0.5 0,0.28 0.22,0.5 0.5,0.5 z m 11,0 7,0 c 0.28,0 0.5,-0.22 0.5,-0.5 0,-0.28 -0.22,-0.5 -0.5,-0.5 l -7,0 c -0.28,0 -0.5,0.22 -0.5,0.5 0,0.28 0.22,0.5 0.5,0.5 z m 11,0 7,0 c 0.28,0 0.5,-0.22 0.5,-0.5 0,-0.28 -0.22,-0.5 -0.5,-0.5 l -7,0 c -0.28,0 -0.5,0.22 -0.5,0.5 0,0.28 0.22,0.5 0.5,0.5 z m 11,0 7,0 c 0.28,0 0.5,-0.22 0.5,-0.5 0,-0.28 -0.22,-0.5 -0.5,-0.5 l -7,0 c -0.28,0 -0.5,0.22 -0.5,0.5 0,0.28 0.22,0.5 0.5,0.5 z m 11,0 7,0 c 0.28,0 0.5,-0.22 0.5,-0.5 0,-0.28 -0.22,-0.5 -0.5,-0.5 l -7,0 c -0.28,0 -0.5,0.22 -0.5,0.5 0,0.28 0.22,0.5 0.5,0.5 z m 11,0 7,0 c 0.28,0 0.5,-0.22 0.5,-0.5 0,-0.28 -0.22,-0.5 -0.5,-0.5 l -7,0 c -0.28,0 -0.5,0.22 -0.5,0.5 0,0.28 0.22,0.5 0.5,0.5 z m 11,0 7,0 c 0.28,0 0.5,-0.22 0.5,-0.5 0,-0.28 -0.22,-0.5 -0.5,-0.5 l -7,0 c -0.28,0 -0.5,0.22 -0.5,0.5 0,0.28 0.22,0.5 0.5,0.5 z m 11,0 7,0 c 0.28,0 0.5,-0.22 0.5,-0.5 0,-0.28 -0.22,-0.5 -0.5,-0.5 l -7,0 c -0.28,0 -0.5,0.22 -0.5,0.5 0,0.28 0.22,0.5 0.5,0.5 z m 11,0 7,0 c 0.28,0 0.5,-0.22 0.5,-0.5 0,-0.28 -0.22,-0.5 -0.5,-0.5 l -7,0 c -0.28,0 -0.5,0.22 -0.5,0.5 0,0.28 0.22,0.5 0.5,0.5 z m 11,0 7,0 c 0.28,0 0.5,-0.22 0.5,-0.5 0,-0.28 -0.22,-0.5 -0.5,-0.5 l -7,0 c -0.28,0 -0.5,0.22 -0.5,0.5 0,0.28 0.22,0.5 0.5,0.5 z m 11,0 7,0 c 0.28,0 0.5,-0.22 0.5,-0.5 0,-0.28 -0.22,-0.5 -0.5,-0.5 l -7,0 c -0.28,0 -0.5,0.22 -0.5,0.5 0,0.28 0.22,0.5 0.5,0.5 z m 11,0 7,0 c 0.28,0 0.5,-0.22 0.5,-0.5 0,-0.28 -0.22,-0.5 -0.5,-0.5 l -7,0 c -0.28,0 -0.5,0.22 -0.5,0.5 0,0.28 0.22,0.5 0.5,0.5 z m 11,0 6.25,0 c 0.28,0 0.5,-0.22 0.5,-0.5 0,-0.28 -0.22,-0.5 -0.5,-0.5 l -6.25,0 c -0.28,0 -0.5,0.22 -0.5,0.5 0,0.28 0.22,0.5 0.5,0.5 z m -2.51,4.94 9.79,-5.44 -9.79,-5.44 c -0.24,-0.13 -0.54,-0.04 -0.68,0.2 -0.13,0.24 -0.04,0.54 0.2,0.68 l 9,5 0,-0.88 -9,5 c -0.24,0.14 -0.33,0.44 -0.2,0.68 0.14,0.24 0.44,0.33 0.68,0.2 z"
       inkscape:connector-curvature="0"
       id="path204"
       style="fill:#000000;fill-opacity:1;fill-rule:nonzero;stroke:none" /><path
       d="m 31.75,499.2 135.75,0 0,78 -135.75,0 0,-78 z"
       inkscape:connector-curvature="0"
       id="path206"
       style="fill:#ffffff;fill-opacity:1;fill-rule:evenodd;stroke:none" /><path
       d="m 31.75,499.2 135.75,0 0,78 -135.75,0 0,-78 z"
       inkscape:connector-curvature="0"
       id="path208"
       style="fill:none;stroke:#000000;stroke-width:0.75;stroke-linecap:round;stroke-linejoin:miter;stroke-miterlimit:10;stroke-opacity:1;stroke-dasharray:none" /><g
       id="g210"><g
         clip-path="url(#clipPath214)"
         id="g212"><g
           id="g218"><g
             clip-path="url(#clipPath222)"
             id="g220"><text
   transform="matrix(1,0,0,-1,82.92,561.79)"
   id="text226"><tspan
     x="0 8.6639996 12 15.336 22.068001 29.4"
     y="0"
     id="tspan228"
     style="font-size:12px;font-variant:normal;font-weight:bold;writing-mode:lr-tb;fill:#000000;fill-opacity:1;fill-rule:nonzero;stroke:none;font-family:Helvetica;-inkscape-font-specification:Helvetica-Bold">Client</tspan></text>

</g></g><g
           id="g230"><g
             clip-path="url(#clipPath234)"
             id="g232" /></g></g></g><path
       d="m 314.25,567.5 135.75,0"
       inkscape:connector-curvature="0"
       id="path238"
       style="fill:none;stroke:#000000;stroke-width:0.75;stroke-linecap:round;stroke-linejoin:round;stroke-miterlimit:10;stroke-opacity:1;stroke-dasharray:none" /><path
       d="m 314.25,538.5 135.75,0"
       inkscape:connector-curvature="0"
       id="path240"
       style="fill:none;stroke:#000000;stroke-width:0.75;stroke-linecap:round;stroke-linejoin:round;stroke-miterlimit:10;stroke-opacity:1;stroke-dasharray:none" /><path
       d="m 207,549 60,0 0,26 -60,0 0,-26 z"
       inkscape:connector-curvature="0"
       id="path242"
       style="fill:#ffffff;fill-opacity:1;fill-rule:evenodd;stroke:none" /><g
       id="g244"><g
         clip-path="url(#clipPath248)"
         id="g246"><g
           id="g252"><g
             clip-path="url(#clipPath256)"
             id="g254"><text
   transform="matrix(1,0,0,-1,214.22,560.35)"
   id="text260"><tspan
     x="0 8.3999996 16.799999 25.200001 33.599998"
     y="0"
     id="tspan262"
     style="font-size:14.03999996px;font-variant:normal;font-weight:normal;writing-mode:lr-tb;fill:#000000;fill-opacity:1;fill-rule:nonzero;stroke:none;font-family:Courier New;-inkscape-font-specification:Courier New">«use»</tspan></text>

</g></g><g
           id="g264"><g
             clip-path="url(#clipPath268)"
             id="g266" /></g></g></g></g></svg>