<?xml version="1.0" encoding="UTF-8" standalone="no"?>
<!-- Created with Inkscape (http://www.inkscape.org/) -->

<svg
   xmlns:dc="http://purl.org/dc/elements/1.1/"
   xmlns:cc="http://creativecommons.org/ns#"
   xmlns:rdf="http://www.w3.org/1999/02/22-rdf-syntax-ns#"
   xmlns:svg="http://www.w3.org/2000/svg"
   xmlns="http://www.w3.org/2000/svg"
   xmlns:sodipodi="http://sodipodi.sourceforge.net/DTD/sodipodi-0.dtd"
   xmlns:inkscape="http://www.inkscape.org/namespaces/inkscape"
   version="1.1"
   width="546.5625"
   height="396.875"
   id="svg2"
   xml:space="preserve"
   inkscape:version="0.48.4 r9939"
   sodipodi:docname="Bild 4-3 Sequenzdiagramm des Adapter-Musters.svg"><sodipodi:namedview
     pagecolor="#ffffff"
     bordercolor="#666666"
     borderopacity="1"
     objecttolerance="10"
     gridtolerance="10"
     guidetolerance="10"
     inkscape:pageopacity="0"
     inkscape:pageshadow="2"
     inkscape:window-width="640"
     inkscape:window-height="480"
     id="namedview219"
     showgrid="false"
     inkscape:zoom="0.18730159"
     inkscape:cx="124.59375"
     inkscape:cy="326.96875"
     inkscape:window-x="0"
     inkscape:window-y="0"
     inkscape:window-maximized="0"
     inkscape:current-layer="svg2" /><metadata
     id="metadata8"><rdf:RDF><cc:Work
         rdf:about=""><dc:format>image/svg+xml</dc:format><dc:type
           rdf:resource="http://purl.org/dc/dcmitype/StillImage" /></cc:Work></rdf:RDF></metadata><defs
     id="defs6"><clipPath
       id="clipPath22"><path
         d="m 597.68,338.68 147.97,0 0,13.68 -147.97,0 0,-13.68 z"
         inkscape:connector-curvature="0"
         id="path24" /></clipPath><clipPath
       id="clipPath30"><path
         d="m 597.67,338.69 147.98,0 0,13.68 -147.98,0 0,-13.68 z"
         inkscape:connector-curvature="0"
         id="path32" /></clipPath><clipPath
       id="clipPath42"><path
         d="m 597.67,338.69 147.98,0 0,13.68 -147.98,0 0,-13.68 z"
         inkscape:connector-curvature="0"
         id="path44" /></clipPath><clipPath
       id="clipPath54"><path
         d="m 597.67,338.69 147.98,0 0,13.68 -147.98,0 0,-13.68 z"
         inkscape:connector-curvature="0"
         id="path56" /></clipPath><clipPath
       id="clipPath66"><path
         d="m 597.67,338.69 147.98,0 0,13.68 -147.98,0 0,-13.68 z"
         inkscape:connector-curvature="0"
         id="path68" /></clipPath><clipPath
       id="clipPath74"><path
         d="m 597.67,338.69 147.98,0 0,13.68 -147.98,0 0,-13.68 z"
         inkscape:connector-curvature="0"
         id="path76" /></clipPath><clipPath
       id="clipPath86"><path
         d="m 597.67,338.69 147.98,0 0,13.68 -147.98,0 0,-13.68 z"
         inkscape:connector-curvature="0"
         id="path88" /></clipPath><clipPath
       id="clipPath98"><path
         d="m 597.67,338.69 147.98,0 0,13.68 -147.98,0 0,-13.68 z"
         inkscape:connector-curvature="0"
         id="path100" /></clipPath><clipPath
       id="clipPath106"><path
         d="m 609.08,423.16 136.58,0 0,13.8 -136.58,0 0,-13.8 z"
         inkscape:connector-curvature="0"
         id="path108" /></clipPath><clipPath
       id="clipPath114"><path
         d="m 609.07,423.17 136.58,0 0,13.8 -136.58,0 0,-13.8 z"
         inkscape:connector-curvature="0"
         id="path116" /></clipPath><clipPath
       id="clipPath126"><path
         d="m 609.07,423.17 136.58,0 0,13.8 -136.58,0 0,-13.8 z"
         inkscape:connector-curvature="0"
         id="path128" /></clipPath><clipPath
       id="clipPath138"><path
         d="m 609.07,423.17 136.58,0 0,13.8 -136.58,0 0,-13.8 z"
         inkscape:connector-curvature="0"
         id="path140" /></clipPath><clipPath
       id="clipPath150"><path
         d="m 609.07,423.17 136.58,0 0,13.8 -136.58,0 0,-13.8 z"
         inkscape:connector-curvature="0"
         id="path152" /></clipPath><clipPath
       id="clipPath158"><path
         d="m 473.12,281.32 126.72,0 0,13.8 -126.72,0 0,-13.8 z"
         inkscape:connector-curvature="0"
         id="path160" /></clipPath><clipPath
       id="clipPath166"><path
         d="m 473.11,281.33 126.72,0 0,13.8 -126.72,0 0,-13.8 z"
         inkscape:connector-curvature="0"
         id="path168" /></clipPath><clipPath
       id="clipPath178"><path
         d="m 473.11,281.33 126.72,0 0,13.8 -126.72,0 0,-13.8 z"
         inkscape:connector-curvature="0"
         id="path180" /></clipPath><clipPath
       id="clipPath190"><path
         d="m 473.11,281.33 126.72,0 0,13.8 -126.72,0 0,-13.8 z"
         inkscape:connector-curvature="0"
         id="path192" /></clipPath><clipPath
       id="clipPath202"><path
         d="m 473.11,281.33 126.72,0 0,13.8 -126.72,0 0,-13.8 z"
         inkscape:connector-curvature="0"
         id="path204" /></clipPath><clipPath
       id="clipPath214"><path
         d="m 473.11,281.33 126.72,0 0,13.8 -126.72,0 0,-13.8 z"
         inkscape:connector-curvature="0"
         id="path216" /></clipPath><clipPath
       id="clipPath234"><path
         d="m 404.33,527.23 107.91,0 0,16.08 -107.91,0 0,-16.08 z"
         inkscape:connector-curvature="0"
         id="path236" /></clipPath><clipPath
       id="clipPath242"><path
         d="m 404.33,527.23 107.9,0 0,16.08 -107.9,0 0,-16.08 z"
         inkscape:connector-curvature="0"
         id="path244" /></clipPath><clipPath
       id="clipPath254"><path
         d="m 404.33,527.23 107.9,0 0,16.08 -107.9,0 0,-16.08 z"
         inkscape:connector-curvature="0"
         id="path256" /></clipPath><clipPath
       id="clipPath264"><path
         d="m 564.68,527.23 78.48,0 0,16.08 -78.48,0 0,-16.08 z"
         inkscape:connector-curvature="0"
         id="path266" /></clipPath><clipPath
       id="clipPath272"><path
         d="m 564.67,527.23 78.48,0 0,16.08 -78.48,0 0,-16.08 z"
         inkscape:connector-curvature="0"
         id="path274" /></clipPath><clipPath
       id="clipPath284"><path
         d="m 564.67,527.23 78.48,0 0,16.08 -78.48,0 0,-16.08 z"
         inkscape:connector-curvature="0"
         id="path286" /></clipPath><clipPath
       id="clipPath294"><path
         d="m 682.65,522.07 159.63,0 0,22.8 -159.63,0 0,-22.8 z"
         inkscape:connector-curvature="0"
         id="path296" /></clipPath><clipPath
       id="clipPath302"><path
         d="m 682.66,522.07 159.62,0 0,22.8 -159.62,0 0,-22.8 z"
         inkscape:connector-curvature="0"
         id="path304" /></clipPath><clipPath
       id="clipPath314"><path
         d="m 682.66,522.07 159.62,0 0,22.8 -159.62,0 0,-22.8 z"
         inkscape:connector-curvature="0"
         id="path316" /></clipPath><clipPath
       id="clipPath326"><path
         d="m 682.66,522.07 159.62,0 0,22.8 -159.62,0 0,-22.8 z"
         inkscape:connector-curvature="0"
         id="path328" /></clipPath><clipPath
       id="clipPath338"><path
         d="m 682.66,522.07 159.62,0 0,22.8 -159.62,0 0,-22.8 z"
         inkscape:connector-curvature="0"
         id="path340" /></clipPath><clipPath
       id="clipPath350"><path
         d="m 682.66,522.07 159.62,0 0,22.8 -159.62,0 0,-22.8 z"
         inkscape:connector-curvature="0"
         id="path352" /></clipPath><clipPath
       id="clipPath362"><path
         d="m 682.66,522.07 159.62,0 0,22.8 -159.62,0 0,-22.8 z"
         inkscape:connector-curvature="0"
         id="path364" /></clipPath><clipPath
       id="clipPath386"><path
         d="m 473.12,450.79 112.56,0 0,15.96 -112.56,0 0,-15.96 z"
         inkscape:connector-curvature="0"
         id="path388" /></clipPath><clipPath
       id="clipPath394"><path
         d="m 473.11,450.79 112.56,0 0,15.96 -112.56,0 0,-15.96 z"
         inkscape:connector-curvature="0"
         id="path396" /></clipPath><clipPath
       id="clipPath406"><path
         d="m 473.11,450.79 112.56,0 0,15.96 -112.56,0 0,-15.96 z"
         inkscape:connector-curvature="0"
         id="path408" /></clipPath><clipPath
       id="clipPath418"><path
         d="m 473.11,450.79 112.56,0 0,15.96 -112.56,0 0,-15.96 z"
         inkscape:connector-curvature="0"
         id="path420" /></clipPath><clipPath
       id="clipPath430"><path
         d="m 473.11,450.79 112.56,0 0,15.96 -112.56,0 0,-15.96 z"
         inkscape:connector-curvature="0"
         id="path432" /></clipPath></defs><g
     transform="matrix(1.25,0,0,-1.25,-505.78125,699.90625)"
     id="g10"><path
       d="m 472.5,451.25 104.2,0 c 0.28,0 0.5,-0.22 0.5,-0.5 0,-0.28 -0.22,-0.5 -0.5,-0.5 l -104.2,0 c -0.28,0 -0.5,0.22 -0.5,0.5 0,0.28 0.22,0.5 0.5,0.5 z m 103.2,4.5 10,-5 -10,-5 0,10 z"
       inkscape:connector-curvature="0"
       id="path12"
       style="fill:#000000;fill-opacity:1;fill-rule:nonzero;stroke:none" /><path
       d="m 609,420.45 127.55,-0.05 c 0.28,0 0.5,-0.22 0.5,-0.5 0,-0.27 -0.22,-0.5 -0.5,-0.5 L 609,419.45 c -0.28,0 -0.5,0.22 -0.5,0.5 0,0.28 0.22,0.5 0.5,0.5 z m 126.55,4.45 10,-5 -10,-5 0,10 z"
       inkscape:connector-curvature="0"
       id="path14"
       style="fill:#000000;fill-opacity:1;fill-rule:nonzero;stroke:none" /><path
       d="m 746.95,332.5 -7,0 c -0.28,0 -0.5,0.22 -0.5,0.5 0,0.27 0.22,0.5 0.5,0.5 l 7,0 c 0.28,0 0.5,-0.22 0.5,-0.5 0,-0.28 -0.22,-0.5 -0.5,-0.5 z m -11,0 -7,-0.01 c -0.28,0 -0.5,0.23 -0.5,0.5 0,0.28 0.22,0.5 0.5,0.5 l 7,0.01 c 0.28,0 0.5,-0.23 0.5,-0.5 0,-0.28 -0.22,-0.5 -0.5,-0.5 z m -11,-0.01 -7,0 c -0.28,0 -0.5,0.22 -0.5,0.5 0,0.28 0.22,0.5 0.5,0.5 l 7,0 c 0.28,0 0.5,-0.22 0.5,-0.5 0,-0.27 -0.22,-0.5 -0.5,-0.5 z m -11,0 -7,0 c -0.28,0 -0.5,0.22 -0.5,0.5 0,0.27 0.22,0.5 0.5,0.5 l 7,0 c 0.28,0 0.5,-0.23 0.5,-0.5 0,-0.28 -0.22,-0.5 -0.5,-0.5 z m -11,-0.01 -7,0 c -0.28,0 -0.5,0.23 -0.5,0.5 0,0.28 0.22,0.5 0.5,0.5 l 7,0 c 0.28,0 0.5,-0.22 0.5,-0.5 0,-0.27 -0.22,-0.5 -0.5,-0.5 z m -11,0 -7,0 c -0.28,0 -0.5,0.22 -0.5,0.5 0,0.27 0.22,0.5 0.5,0.5 l 7,0 c 0.28,0 0.5,-0.22 0.5,-0.5 0,-0.28 -0.22,-0.5 -0.5,-0.5 z m -11,0 -7,-0.01 c -0.28,0 -0.5,0.23 -0.5,0.5 0,0.28 0.22,0.5 0.5,0.5 l 7,0.01 c 0.28,0 0.5,-0.23 0.5,-0.5 0,-0.28 -0.22,-0.5 -0.5,-0.5 z m -11,-0.01 -7,0 c -0.28,0 -0.5,0.22 -0.5,0.5 0,0.28 0.22,0.5 0.5,0.5 l 7,0 c 0.28,0 0.5,-0.22 0.5,-0.5 0,-0.27 -0.22,-0.5 -0.5,-0.5 z m -11,0 -7,0 c -0.28,0 -0.5,0.22 -0.5,0.5 0,0.27 0.22,0.5 0.5,0.5 l 7,0 c 0.28,0 0.5,-0.23 0.5,-0.5 0,-0.28 -0.22,-0.5 -0.5,-0.5 z m -11,-0.01 -7,0 c -0.28,0 -0.5,0.23 -0.5,0.5 0,0.28 0.22,0.5 0.5,0.5 l 7,0 c 0.28,0 0.5,-0.22 0.5,-0.5 0,-0.27 -0.22,-0.5 -0.5,-0.5 z m -11,0 -7,0 c -0.28,0 -0.5,0.22 -0.5,0.5 0,0.27 0.22,0.5 0.5,0.5 l 7,0 c 0.28,0 0.5,-0.22 0.5,-0.5 0,-0.28 -0.22,-0.5 -0.5,-0.5 z m -11,0 -7,-0.01 c -0.28,0 -0.5,0.23 -0.5,0.5 0,0.28 0.22,0.5 0.5,0.5 l 7,0.01 c 0.28,0 0.5,-0.23 0.5,-0.5 0,-0.28 -0.22,-0.5 -0.5,-0.5 z m -11,-0.01 -3.15,0 c -0.28,0 -0.5,0.22 -0.5,0.5 0,0.28 0.22,0.5 0.5,0.5 l 3.15,0 c 0.28,0 0.5,-0.22 0.5,-0.5 0,-0.27 -0.22,-0.5 -0.5,-0.5 z m 5.61,-4.93 -9.79,5.43 9.78,5.44 c 0.25,0.14 0.55,0.05 0.68,-0.19 0.14,-0.24 0.05,-0.55 -0.19,-0.68 l -9,-5.01 0,0.88 9,-5 c 0.25,-0.13 0.33,-0.44 0.2,-0.68 -0.14,-0.24 -0.44,-0.33 -0.68,-0.19 z"
       inkscape:connector-curvature="0"
       id="path16"
       style="fill:#000000;fill-opacity:1;fill-rule:nonzero;stroke:none" /><g
       id="g18"><g
         clip-path="url(#clipPath22)"
         id="g20"><g
           id="g26"><g
             clip-path="url(#clipPath30)"
             id="g28"><text
   transform="matrix(1,0,0,-1,616.63,341.33)"
   id="text34"><tspan
     x="0 6.7080002 13.416 20.124001 24.120001 30.792 34.127998 36.683998 43.391998"
     y="0"
     id="tspan36"
     style="font-size:12px;font-variant:normal;font-weight:normal;writing-mode:lr-tb;fill:#000000;fill-opacity:1;fill-rule:nonzero;stroke:none;font-family:Helvetica;-inkscape-font-specification:Helvetica">operation</tspan></text>

</g></g><g
           id="g38"><g
             clip-path="url(#clipPath42)"
             id="g40"><text
   transform="matrix(1,0,0,-1,666.82,341.33)"
   id="text46"><tspan
     x="0"
     y="0"
     id="tspan48"
     style="font-size:12px;font-variant:normal;font-weight:normal;writing-mode:lr-tb;fill:#000000;fill-opacity:1;fill-rule:nonzero;stroke:none;font-family:Helvetica;-inkscape-font-specification:Helvetica">B</tspan></text>

</g></g><g
           id="g50"><g
             clip-path="url(#clipPath54)"
             id="g52"><text
   transform="matrix(1,0,0,-1,674.86,341.33)"
   id="text58"><tspan
     x="0 3.96"
     y="0"
     id="tspan60"
     style="font-size:12px;font-variant:normal;font-weight:normal;writing-mode:lr-tb;fill:#000000;fill-opacity:1;fill-rule:nonzero;stroke:none;font-family:Helvetica;-inkscape-font-specification:Helvetica">()</tspan></text>

</g></g><g
           id="g62"><g
             clip-path="url(#clipPath66)"
             id="g64" /></g><g
           id="g70"><g
             clip-path="url(#clipPath74)"
             id="g72"><text
   transform="matrix(1,0,0,-1,686.14,341.33)"
   id="text78"><tspan
     x="0 3.3599999"
     y="0"
     id="tspan80"
     style="font-size:12px;font-variant:normal;font-weight:normal;writing-mode:lr-tb;fill:#000000;fill-opacity:1;fill-rule:nonzero;stroke:none;font-family:Helvetica;-inkscape-font-specification:Helvetica">: </tspan></text>

</g></g><g
           id="g82"><g
             clip-path="url(#clipPath86)"
             id="g84"><text
   transform="matrix(1,0,0,-1,692.86,341.33)"
   id="text90"><tspan
     x="0 8.6639996 15.336 21.24 27.948 30.612"
     y="0"
     id="tspan92"
     style="font-size:12px;font-variant:normal;font-weight:normal;writing-mode:lr-tb;fill:#000000;fill-opacity:1;fill-rule:nonzero;stroke:none;font-family:Helvetica;-inkscape-font-specification:Helvetica">Result</tspan></text>

</g></g><g
           id="g94"><g
             clip-path="url(#clipPath98)"
             id="g96" /></g></g></g><g
       id="g102"><g
         clip-path="url(#clipPath106)"
         id="g104"><g
           id="g110"><g
             clip-path="url(#clipPath114)"
             id="g112"><text
   transform="matrix(1,0,0,-1,644.35,425.93)"
   id="text118"><tspan
     x="0 6.7080002 13.416 20.124001 24.120001 30.792 34.127998 36.683998 43.391998"
     y="0"
     id="tspan120"
     style="font-size:12px;font-variant:normal;font-weight:normal;writing-mode:lr-tb;fill:#000000;fill-opacity:1;fill-rule:nonzero;stroke:none;font-family:Helvetica;-inkscape-font-specification:Helvetica">operation</tspan></text>

</g></g><g
           id="g122"><g
             clip-path="url(#clipPath126)"
             id="g124"><text
   transform="matrix(1,0,0,-1,694.54,425.93)"
   id="text130"><tspan
     x="0"
     y="0"
     id="tspan132"
     style="font-size:12px;font-variant:normal;font-weight:normal;writing-mode:lr-tb;fill:#000000;fill-opacity:1;fill-rule:nonzero;stroke:none;font-family:Helvetica;-inkscape-font-specification:Helvetica">B</tspan></text>

</g></g><g
           id="g134"><g
             clip-path="url(#clipPath138)"
             id="g136"><text
   transform="matrix(1,0,0,-1,702.58,425.93)"
   id="text142"><tspan
     x="0 3.96"
     y="0"
     id="tspan144"
     style="font-size:12px;font-variant:normal;font-weight:normal;writing-mode:lr-tb;fill:#000000;fill-opacity:1;fill-rule:nonzero;stroke:none;font-family:Helvetica;-inkscape-font-specification:Helvetica">()</tspan></text>

</g></g><g
           id="g146"><g
             clip-path="url(#clipPath150)"
             id="g148" /></g></g></g><g
       id="g154"><g
         clip-path="url(#clipPath158)"
         id="g156"><g
           id="g162"><g
             clip-path="url(#clipPath166)"
             id="g164"><text
   transform="matrix(1,0,0,-1,479.71,284.09)"
   id="text170"><tspan
     x="0"
     y="0"
     id="tspan172"
     style="font-size:12px;font-variant:normal;font-weight:normal;writing-mode:lr-tb;fill:#000000;fill-opacity:1;fill-rule:nonzero;stroke:none;font-family:Helvetica;-inkscape-font-specification:Helvetica">o</tspan></text>

</g></g><g
           id="g174"><g
             clip-path="url(#clipPath178)"
             id="g176"><text
   transform="matrix(1,0,0,-1,486.43,284.09)"
   id="text182"><tspan
     x="0 6.7080002 13.416 17.412001 24.084 27.42 29.976 36.683998 43.391998"
     y="0"
     id="tspan184"
     style="font-size:12px;font-variant:normal;font-weight:normal;writing-mode:lr-tb;fill:#000000;fill-opacity:1;fill-rule:nonzero;stroke:none;font-family:Helvetica;-inkscape-font-specification:Helvetica">perationA</tspan></text>

</g></g><g
           id="g186"><g
             clip-path="url(#clipPath190)"
             id="g188"><text
   transform="matrix(1,0,0,-1,537.91,284.09)"
   id="text194"><tspan
     x="0 3.9960001 7.9200001 14.628 17.868"
     y="0"
     id="tspan196"
     style="font-size:12px;font-variant:normal;font-weight:normal;writing-mode:lr-tb;fill:#000000;fill-opacity:1;fill-rule:nonzero;stroke:none;font-family:Helvetica;-inkscape-font-specification:Helvetica">() : </tspan></text>

</g></g><g
           id="g198"><g
             clip-path="url(#clipPath202)"
             id="g200"><text
   transform="matrix(1,0,0,-1,559.15,284.09)"
   id="text206"><tspan
     x="0 8.6639996 15.336 21.336 28.068001 30.732"
     y="0"
     id="tspan208"
     style="font-size:12px;font-variant:normal;font-weight:normal;writing-mode:lr-tb;fill:#000000;fill-opacity:1;fill-rule:nonzero;stroke:none;font-family:Helvetica;-inkscape-font-specification:Helvetica">Result</tspan></text>

</g></g><g
           id="g210"><g
             clip-path="url(#clipPath214)"
             id="g212" /></g></g></g><g
       id="g218"><path
         d="m 461.7,508.45 0,-260.65"
         inkscape:connector-curvature="0"
         id="path220"
         style="fill:none;stroke:#000000;stroke-width:0.75;stroke-linecap:round;stroke-linejoin:round;stroke-miterlimit:10;stroke-opacity:1;stroke-dasharray:5.25, 3;stroke-dashoffset:0" /></g><g
       id="g222"><path
         d="m 597.55,508.45 0,-256.45"
         inkscape:connector-curvature="0"
         id="path224"
         style="fill:none;stroke:#000000;stroke-width:0.75;stroke-linecap:round;stroke-linejoin:round;stroke-miterlimit:10;stroke-opacity:1;stroke-dasharray:5.25, 3;stroke-dashoffset:0" /></g><g
       id="g226"><path
         d="m 757.5,508.45 0,-265.65"
         inkscape:connector-curvature="0"
         id="path228"
         style="fill:none;stroke:#000000;stroke-width:0.75;stroke-linecap:round;stroke-linejoin:round;stroke-miterlimit:10;stroke-opacity:1;stroke-dasharray:5.25, 3;stroke-dashoffset:0" /></g><g
       id="g230"><g
         clip-path="url(#clipPath234)"
         id="g232"><g
           id="g238"><g
             clip-path="url(#clipPath242)"
             id="g240"><text
   transform="matrix(1,0,0,-1,438.41,530.35)"
   id="text246"><tspan
     x="0 3.94524 14.02596 17.142839 20.25972 28.06596 35.8722"
     y="0"
     id="tspan248"
     style="font-size:14.03999996px;font-variant:normal;font-weight:normal;writing-mode:lr-tb;fill:#000000;fill-opacity:1;fill-rule:nonzero;stroke:none;font-family:Helvetica;-inkscape-font-specification:Helvetica">:Client</tspan></text>

</g></g><g
           id="g250"><g
             clip-path="url(#clipPath254)"
             id="g252" /></g></g></g><path
       d="m 541,508.35 107.45,0 0,51.15 -107.45,0 0,-51.15 z"
       inkscape:connector-curvature="0"
       id="path258"
       style="fill:none;stroke:#000000;stroke-width:0.75;stroke-linecap:round;stroke-linejoin:miter;stroke-miterlimit:10;stroke-opacity:1;stroke-dasharray:none" /><g
       id="g260"><g
         clip-path="url(#clipPath264)"
         id="g262"><g
           id="g268"><g
             clip-path="url(#clipPath272)"
             id="g270"><text
   transform="matrix(1,0,0,-1,564.67,530.35)"
   id="text276"><tspan
     x="0 3.94524 13.30992 21.116159 28.9224 36.588242 40.533482 48.339722"
     y="0"
     id="tspan278"
     style="font-size:14.03999996px;font-variant:normal;font-weight:normal;writing-mode:lr-tb;fill:#000000;fill-opacity:1;fill-rule:nonzero;stroke:none;font-family:Helvetica;-inkscape-font-specification:Helvetica">:Adapter</tspan></text>

</g></g><g
           id="g280"><g
             clip-path="url(#clipPath284)"
             id="g282" /></g></g></g><path
       d="m 682.55,511.3 158.95,0 0,47.4 -158.95,0 0,-47.4 z"
       inkscape:connector-curvature="0"
       id="path288"
       style="fill:none;stroke:#000000;stroke-width:0.75;stroke-linecap:round;stroke-linejoin:miter;stroke-miterlimit:10;stroke-opacity:1;stroke-dasharray:none" /><g
       id="g290"><g
         clip-path="url(#clipPath294)"
         id="g292"><g
           id="g298"><g
             clip-path="url(#clipPath302)"
             id="g300"><text
   transform="matrix(1,0,0,-1,689.74,531.79)"
   id="text306"><tspan
     x="0"
     y="0"
     id="tspan308"
     style="font-size:14.03999996px;font-variant:normal;font-weight:normal;writing-mode:lr-tb;fill:#000000;fill-opacity:1;fill-rule:nonzero;stroke:none;font-family:Helvetica;-inkscape-font-specification:Helvetica">:</tspan></text>

</g></g><g
           id="g310"><g
             clip-path="url(#clipPath314)"
             id="g312"><text
   transform="matrix(1,0,0,-1,693.7,531.79)"
   id="text318"><tspan
     x="0 8.5222797 16.32852 25.693199 33.499439 41.305679 48.957481 52.902721 56.0196 63.82584"
     y="0"
     id="tspan320"
     style="font-size:14.03999996px;font-variant:normal;font-weight:normal;writing-mode:lr-tb;fill:#000000;fill-opacity:1;fill-rule:nonzero;stroke:none;font-family:Helvetica;-inkscape-font-specification:Helvetica">ZuAdaptier</tspan></text>

</g></g><g
           id="g322"><g
             clip-path="url(#clipPath326)"
             id="g324"><text
   transform="matrix(1,0,0,-1,762.22,531.79)"
   id="text330"><tspan
     x="0"
     y="0"
     id="tspan332"
     style="font-size:14.03999996px;font-variant:normal;font-weight:normal;writing-mode:lr-tb;fill:#000000;fill-opacity:1;fill-rule:nonzero;stroke:none;font-family:Helvetica;-inkscape-font-specification:Helvetica">e</tspan></text>

</g></g><g
           id="g334"><g
             clip-path="url(#clipPath338)"
             id="g336"><text
   transform="matrix(1,0,0,-1,770.02,531.79)"
   id="text342"><tspan
     x="0 7.8000002 15.6"
     y="0"
     id="tspan344"
     style="font-size:14.03999996px;font-variant:normal;font-weight:normal;writing-mode:lr-tb;fill:#000000;fill-opacity:1;fill-rule:nonzero;stroke:none;font-family:Helvetica;-inkscape-font-specification:Helvetica">nde</tspan></text>

</g></g><g
           id="g346"><g
             clip-path="url(#clipPath350)"
             id="g348"><text
   transform="matrix(1,0,0,-1,793.42,531.79)"
   id="text354"><tspan
     x="0 9.2383204 12.24288 20.04912 27.11124 34.075081"
     y="0"
     id="tspan356"
     style="font-size:14.03999996px;font-variant:normal;font-weight:normal;writing-mode:lr-tb;fill:#000000;fill-opacity:1;fill-rule:nonzero;stroke:none;font-family:Helvetica;-inkscape-font-specification:Helvetica">Klasse</tspan></text>

</g></g><g
           id="g358"><g
             clip-path="url(#clipPath362)"
             id="g360" /></g></g></g><path
       d="m 450.35,270 22.7,0 0,215.7 -22.7,0 0,-215.7 z"
       inkscape:connector-curvature="0"
       id="path366"
       style="fill:#ffffff;fill-opacity:1;fill-rule:evenodd;stroke:none" /><path
       d="m 450.35,270 22.7,0 0,215.7 -22.7,0 0,-215.7 z"
       inkscape:connector-curvature="0"
       id="path368"
       style="fill:none;stroke:#000000;stroke-width:0.75;stroke-linecap:round;stroke-linejoin:miter;stroke-miterlimit:10;stroke-opacity:1;stroke-dasharray:none" /><path
       d="m 586.3,419.95 22.75,0 0,37.45 -22.75,0 0,-37.45 z"
       inkscape:connector-curvature="0"
       id="path370"
       style="fill:#ffffff;fill-opacity:1;fill-rule:evenodd;stroke:none" /><path
       d="m 586.3,419.95 22.75,0 0,37.45 -22.75,0 0,-37.45 z"
       inkscape:connector-curvature="0"
       id="path372"
       style="fill:none;stroke:#000000;stroke-width:0.75;stroke-linecap:round;stroke-linejoin:miter;stroke-miterlimit:10;stroke-opacity:1;stroke-dasharray:none" /><path
       d="m 746.15,333 22.7,0 0,92.1 -22.7,0 0,-92.1 z"
       inkscape:connector-curvature="0"
       id="path374"
       style="fill:#ffffff;fill-opacity:1;fill-rule:evenodd;stroke:none" /><path
       d="m 746.15,333 22.7,0 0,92.1 -22.7,0 0,-92.1 z"
       inkscape:connector-curvature="0"
       id="path376"
       style="fill:none;stroke:#000000;stroke-width:0.75;stroke-linecap:round;stroke-linejoin:miter;stroke-miterlimit:10;stroke-opacity:1;stroke-dasharray:none" /><path
       d="m 586.3,297.75 22.75,0 0,34.75 -22.75,0 0,-34.75 z"
       inkscape:connector-curvature="0"
       id="path378"
       style="fill:#ffffff;fill-opacity:1;fill-rule:evenodd;stroke:none" /><path
       d="m 586.3,297.75 22.75,0 0,34.75 -22.75,0 0,-34.75 z"
       inkscape:connector-curvature="0"
       id="path380"
       style="fill:none;stroke:#000000;stroke-width:0.75;stroke-linecap:round;stroke-linejoin:miter;stroke-miterlimit:10;stroke-opacity:1;stroke-dasharray:none" /><g
       id="g382"><g
         clip-path="url(#clipPath386)"
         id="g384"><g
           id="g390"><g
             clip-path="url(#clipPath394)"
             id="g392"><text
   transform="matrix(1,0,0,-1,496.39,455.59)"
   id="text398"><tspan
     x="0"
     y="0"
     id="tspan400"
     style="font-size:12px;font-variant:normal;font-weight:normal;writing-mode:lr-tb;fill:#000000;fill-opacity:1;fill-rule:nonzero;stroke:none;font-family:Helvetica;-inkscape-font-specification:Helvetica">o</tspan></text>

</g></g><g
           id="g402"><g
             clip-path="url(#clipPath406)"
             id="g404"><text
   transform="matrix(1,0,0,-1,503.11,455.59)"
   id="text410"><tspan
     x="0 6.7080002 13.416 17.412001 24.084 27.42 29.976 36.683998 43.391998"
     y="0"
     id="tspan412"
     style="font-size:12px;font-variant:normal;font-weight:normal;writing-mode:lr-tb;fill:#000000;fill-opacity:1;fill-rule:nonzero;stroke:none;font-family:Helvetica;-inkscape-font-specification:Helvetica">perationA</tspan></text>

</g></g><g
           id="g414"><g
             clip-path="url(#clipPath418)"
             id="g416"><text
   transform="matrix(1,0,0,-1,554.59,455.59)"
   id="text422"><tspan
     x="0 3.96"
     y="0"
     id="tspan424"
     style="font-size:12px;font-variant:normal;font-weight:normal;writing-mode:lr-tb;fill:#000000;fill-opacity:1;fill-rule:nonzero;stroke:none;font-family:Helvetica;-inkscape-font-specification:Helvetica">()</tspan></text>

</g></g><g
           id="g426"><g
             clip-path="url(#clipPath430)"
             id="g428" /></g></g></g><path
       d="m 405,508.35 107.5,0 0,51.2 -107.5,0 0,-51.2 z"
       inkscape:connector-curvature="0"
       id="path434"
       style="fill:none;stroke:#000000;stroke-width:0.75;stroke-linecap:round;stroke-linejoin:miter;stroke-miterlimit:10;stroke-opacity:1;stroke-dasharray:none" /><path
       d="m 584.25,297.25 -7,0 c -0.28,0 -0.5,0.22 -0.5,0.5 0,0.28 0.22,0.5 0.5,0.5 l 7,0 c 0.28,0 0.5,-0.22 0.5,-0.5 0,-0.28 -0.22,-0.5 -0.5,-0.5 z m -11,0 -7,0 c -0.28,0 -0.5,0.22 -0.5,0.5 0,0.28 0.22,0.5 0.5,0.5 l 7,0 c 0.28,0 0.5,-0.22 0.5,-0.5 0,-0.28 -0.22,-0.5 -0.5,-0.5 z m -11,0 -7,0 c -0.28,0 -0.5,0.22 -0.5,0.5 0,0.28 0.22,0.5 0.5,0.5 l 7,0 c 0.28,0 0.5,-0.22 0.5,-0.5 0,-0.28 -0.22,-0.5 -0.5,-0.5 z m -11,0 -7,0 c -0.28,0 -0.5,0.22 -0.5,0.5 0,0.28 0.22,0.5 0.5,0.5 l 7,0 c 0.28,0 0.5,-0.22 0.5,-0.5 0,-0.28 -0.22,-0.5 -0.5,-0.5 z m -11,0 -7,0 c -0.28,0 -0.5,0.22 -0.5,0.5 0,0.28 0.22,0.5 0.5,0.5 l 7,0 c 0.28,0 0.5,-0.22 0.5,-0.5 0,-0.28 -0.22,-0.5 -0.5,-0.5 z m -11,0 -7,0 c -0.28,0 -0.5,0.22 -0.5,0.5 0,0.28 0.22,0.5 0.5,0.5 l 7,0 c 0.28,0 0.5,-0.22 0.5,-0.5 0,-0.28 -0.22,-0.5 -0.5,-0.5 z m -11,0 -7,0 c -0.28,0 -0.5,0.22 -0.5,0.5 0,0.28 0.22,0.5 0.5,0.5 l 7,0 c 0.28,0 0.5,-0.22 0.5,-0.5 0,-0.28 -0.22,-0.5 -0.5,-0.5 z m -11,0 -7,0 c -0.28,0 -0.5,0.22 -0.5,0.5 0,0.28 0.22,0.5 0.5,0.5 l 7,0 c 0.28,0 0.5,-0.22 0.5,-0.5 0,-0.28 -0.22,-0.5 -0.5,-0.5 z m -11,0 -7,0 c -0.28,0 -0.5,0.22 -0.5,0.5 0,0.28 0.22,0.5 0.5,0.5 l 7,0 c 0.28,0 0.5,-0.22 0.5,-0.5 0,-0.28 -0.22,-0.5 -0.5,-0.5 z m -11,0 -7,0 c -0.28,0 -0.5,0.22 -0.5,0.5 0,0.28 0.22,0.5 0.5,0.5 l 7,0 c 0.28,0 0.5,-0.22 0.5,-0.5 0,-0.28 -0.22,-0.5 -0.5,-0.5 z m -11,0 -1.25,0 c -0.28,0 -0.5,0.22 -0.5,0.5 0,0.28 0.22,0.5 0.5,0.5 l 1.25,0 c 0.28,0 0.5,-0.22 0.5,-0.5 0,-0.28 -0.22,-0.5 -0.5,-0.5 z m 7.51,-4.94 -9.79,5.44 9.79,5.44 c 0.24,0.13 0.54,0.04 0.68,-0.2 0.13,-0.24 0.04,-0.54 -0.2,-0.68 l -9,-5 0,0.88 9,-5 c 0.24,-0.14 0.33,-0.44 0.2,-0.68 -0.14,-0.24 -0.44,-0.33 -0.68,-0.2 z"
       inkscape:connector-curvature="0"
       id="path436"
       style="fill:#000000;fill-opacity:1;fill-rule:nonzero;stroke:none" /></g></svg>