<?xml version="1.0" encoding="UTF-8" standalone="no"?>
<!-- Created with Inkscape (http://www.inkscape.org/) -->

<svg
   xmlns:dc="http://purl.org/dc/elements/1.1/"
   xmlns:cc="http://creativecommons.org/ns#"
   xmlns:rdf="http://www.w3.org/1999/02/22-rdf-syntax-ns#"
   xmlns:svg="http://www.w3.org/2000/svg"
   xmlns="http://www.w3.org/2000/svg"
   xmlns:sodipodi="http://sodipodi.sourceforge.net/DTD/sodipodi-0.dtd"
   xmlns:inkscape="http://www.inkscape.org/namespaces/inkscape"
   version="1.1"
   width="573.3125"
   height="348.5625"
   id="svg2"
   xml:space="preserve"
   inkscape:version="0.48.4 r9939"
   sodipodi:docname="Bild 4-39 Sequenzdiagramm des Vermittler-Musters .svg"><sodipodi:namedview
     pagecolor="#ffffff"
     bordercolor="#666666"
     borderopacity="1"
     objecttolerance="10"
     gridtolerance="10"
     guidetolerance="10"
     inkscape:pageopacity="0"
     inkscape:pageshadow="2"
     inkscape:window-width="640"
     inkscape:window-height="480"
     id="namedview256"
     showgrid="false"
     inkscape:zoom="0.18730159"
     inkscape:cx="540.03125"
     inkscape:cy="87.46875"
     inkscape:window-x="0"
     inkscape:window-y="0"
     inkscape:window-maximized="0"
     inkscape:current-layer="svg2" /><metadata
     id="metadata8"><rdf:RDF><cc:Work
         rdf:about=""><dc:format>image/svg+xml</dc:format><dc:type
           rdf:resource="http://purl.org/dc/dcmitype/StillImage" /></cc:Work></rdf:RDF></metadata><defs
     id="defs6"><clipPath
       id="clipPath20"><path
         d="m 193.95,602.95 168.02,0 0,19.08 -168.02,0 0,-19.08 z"
         inkscape:connector-curvature="0"
         id="path22" /></clipPath><clipPath
       id="clipPath28"><path
         d="m 193.94,602.95 168.02,0 0,19.08 -168.02,0 0,-19.08 z"
         inkscape:connector-curvature="0"
         id="path30" /></clipPath><clipPath
       id="clipPath40"><path
         d="m 193.94,602.95 168.02,0 0,19.08 -168.02,0 0,-19.08 z"
         inkscape:connector-curvature="0"
         id="path42" /></clipPath><clipPath
       id="clipPath48"><path
         d="m 193.94,602.95 168.02,0 0,19.08 -168.02,0 0,-19.08 z"
         inkscape:connector-curvature="0"
         id="path50" /></clipPath><clipPath
       id="clipPath68"><path
         d="m 72.481,683.37 91.23,0 0,16.08 -91.23,0 0,-16.08 z"
         inkscape:connector-curvature="0"
         id="path70" /></clipPath><clipPath
       id="clipPath76"><path
         d="m 72.48,683.38 91.224,0 0,16.08 -91.224,0 0,-16.08 z"
         inkscape:connector-curvature="0"
         id="path78" /></clipPath><clipPath
       id="clipPath88"><path
         d="m 72.48,683.38 91.224,0 0,16.08 -91.224,0 0,-16.08 z"
         inkscape:connector-curvature="0"
         id="path90" /></clipPath><clipPath
       id="clipPath102"><path
         d="m 141.15,627.79 65.4,0 0,13.8 -65.4,0 0,-13.8 z"
         inkscape:connector-curvature="0"
         id="path104" /></clipPath><clipPath
       id="clipPath110"><path
         d="m 141.14,627.79 65.4,0 0,13.8 -65.4,0 0,-13.8 z"
         inkscape:connector-curvature="0"
         id="path112" /></clipPath><clipPath
       id="clipPath122"><path
         d="m 141.14,627.79 65.4,0 0,13.8 -65.4,0 0,-13.8 z"
         inkscape:connector-curvature="0"
         id="path124" /></clipPath><clipPath
       id="clipPath134"><path
         d="m 141.14,627.79 65.4,0 0,13.8 -65.4,0 0,-13.8 z"
         inkscape:connector-curvature="0"
         id="path136" /></clipPath><clipPath
       id="clipPath142"><path
         d="m 235.59,609.31 5.4,0 0,13.8 -5.4,0 0,-13.8 z"
         inkscape:connector-curvature="0"
         id="path144" /></clipPath><clipPath
       id="clipPath150"><path
         d="m 235.58,609.31 5.4,0 0,13.8 -5.4,0 0,-13.8 z"
         inkscape:connector-curvature="0"
         id="path152" /></clipPath><clipPath
       id="clipPath158"><path
         d="m 244.95,589.27 216.74,0 0,13.8 -216.74,0 0,-13.8 z"
         inkscape:connector-curvature="0"
         id="path160" /></clipPath><clipPath
       id="clipPath166"><path
         d="m 244.94,589.27 216.74,0 0,13.8 -216.74,0 0,-13.8 z"
         inkscape:connector-curvature="0"
         id="path168" /></clipPath><clipPath
       id="clipPath178"><path
         d="m 244.94,589.27 216.74,0 0,13.8 -216.74,0 0,-13.8 z"
         inkscape:connector-curvature="0"
         id="path180" /></clipPath><clipPath
       id="clipPath194"><path
         d="m 141.15,519.55 70.8,0 0,13.8 -70.8,0 0,-13.8 z"
         inkscape:connector-curvature="0"
         id="path196" /></clipPath><clipPath
       id="clipPath202"><path
         d="m 141.14,519.55 70.8,0 0,13.8 -70.8,0 0,-13.8 z"
         inkscape:connector-curvature="0"
         id="path204" /></clipPath><clipPath
       id="clipPath214"><path
         d="m 141.14,519.55 70.8,0 0,13.8 -70.8,0 0,-13.8 z"
         inkscape:connector-curvature="0"
         id="path216" /></clipPath><clipPath
       id="clipPath226"><path
         d="m 141.14,519.55 70.8,0 0,13.8 -70.8,0 0,-13.8 z"
         inkscape:connector-curvature="0"
         id="path228" /></clipPath><clipPath
       id="clipPath234"><path
         d="m 296.69,500.23 146.16,0 0,13.8 -146.16,0 0,-13.8 z"
         inkscape:connector-curvature="0"
         id="path236" /></clipPath><clipPath
       id="clipPath242"><path
         d="m 296.69,500.23 146.16,0 0,13.8 -146.16,0 0,-13.8 z"
         inkscape:connector-curvature="0"
         id="path244" /></clipPath><clipPath
       id="clipPath254"><path
         d="m 296.69,500.23 146.16,0 0,13.8 -146.16,0 0,-13.8 z"
         inkscape:connector-curvature="0"
         id="path256" /></clipPath><clipPath
       id="clipPath266"><path
         d="m 296.69,500.23 146.16,0 0,13.8 -146.16,0 0,-13.8 z"
         inkscape:connector-curvature="0"
         id="path268" /></clipPath><clipPath
       id="clipPath278"><path
         d="m 296.69,500.23 146.16,0 0,13.8 -146.16,0 0,-13.8 z"
         inkscape:connector-curvature="0"
         id="path280" /></clipPath><clipPath
       id="clipPath286"><path
         d="m 244.95,481.03 114.73,0 0,13.68 -114.73,0 0,-13.68 z"
         inkscape:connector-curvature="0"
         id="path288" /></clipPath><clipPath
       id="clipPath294"><path
         d="m 244.94,481.03 114.74,0 0,13.68 -114.74,0 0,-13.68 z"
         inkscape:connector-curvature="0"
         id="path296" /></clipPath><clipPath
       id="clipPath306"><path
         d="m 244.94,481.03 114.74,0 0,13.68 -114.74,0 0,-13.68 z"
         inkscape:connector-curvature="0"
         id="path308" /></clipPath><clipPath
       id="clipPath314"><path
         d="m 190.11,675.45 91.095,0 0,36.72 -91.095,0 0,-36.72 z"
         inkscape:connector-curvature="0"
         id="path316" /></clipPath><clipPath
       id="clipPath322"><path
         d="m 190.1,675.46 91.104,0 0,36.72 -91.104,0 0,-36.72 z"
         inkscape:connector-curvature="0"
         id="path324" /></clipPath><clipPath
       id="clipPath334"><path
         d="m 190.1,675.46 91.104,0 0,36.72 -91.104,0 0,-36.72 z"
         inkscape:connector-curvature="0"
         id="path336" /></clipPath><clipPath
       id="clipPath346"><path
         d="m 190.1,675.46 91.104,0 0,36.72 -91.104,0 0,-36.72 z"
         inkscape:connector-curvature="0"
         id="path348" /></clipPath><clipPath
       id="clipPath358"><path
         d="m 190.1,675.46 91.104,0 0,36.72 -91.104,0 0,-36.72 z"
         inkscape:connector-curvature="0"
         id="path360" /></clipPath><clipPath
       id="clipPath366"><path
         d="m 315.65,677.97 89.4,0 0,33.48 -89.4,0 0,-33.48 z"
         inkscape:connector-curvature="0"
         id="path368" /></clipPath><clipPath
       id="clipPath374"><path
         d="m 315.65,677.98 89.4,0 0,33.48 -89.4,0 0,-33.48 z"
         inkscape:connector-curvature="0"
         id="path376" /></clipPath><clipPath
       id="clipPath386"><path
         d="m 315.65,677.98 89.4,0 0,33.48 -89.4,0 0,-33.48 z"
         inkscape:connector-curvature="0"
         id="path388" /></clipPath><clipPath
       id="clipPath398"><path
         d="m 315.65,677.98 89.4,0 0,33.48 -89.4,0 0,-33.48 z"
         inkscape:connector-curvature="0"
         id="path400" /></clipPath><clipPath
       id="clipPath410"><path
         d="m 315.65,677.98 89.4,0 0,33.48 -89.4,0 0,-33.48 z"
         inkscape:connector-curvature="0"
         id="path412" /></clipPath><clipPath
       id="clipPath418"><path
         d="m 439.61,676.29 91.11,0 0,35.88 -91.11,0 0,-35.88 z"
         inkscape:connector-curvature="0"
         id="path420" /></clipPath><clipPath
       id="clipPath426"><path
         d="m 439.61,676.3 91.104,0 0,35.88 -91.104,0 0,-35.88 z"
         inkscape:connector-curvature="0"
         id="path428" /></clipPath><clipPath
       id="clipPath438"><path
         d="m 439.61,676.3 91.104,0 0,35.88 -91.104,0 0,-35.88 z"
         inkscape:connector-curvature="0"
         id="path440" /></clipPath><clipPath
       id="clipPath450"><path
         d="m 439.61,676.3 91.104,0 0,35.88 -91.104,0 0,-35.88 z"
         inkscape:connector-curvature="0"
         id="path452" /></clipPath><clipPath
       id="clipPath462"><path
         d="m 439.61,676.3 91.104,0 0,35.88 -91.104,0 0,-35.88 z"
         inkscape:connector-curvature="0"
         id="path464" /></clipPath></defs><g
     transform="matrix(1.25,0,0,-1.25,-90.34375,891.09375)"
     id="g10"><path
       d="m 193.5,599 168.85,0 0,27.05 -168.85,0 0,-27.05 z"
       inkscape:connector-curvature="0"
       id="path12"
       style="fill:#ffffff;fill-opacity:1;fill-rule:evenodd;stroke:none" /><path
       d="m 193.5,599 168.85,0 0,27.05 -168.85,0 0,-27.05 z"
       inkscape:connector-curvature="0"
       id="path14"
       style="fill:none;stroke:#ffffff;stroke-width:0.75;stroke-linecap:round;stroke-linejoin:miter;stroke-miterlimit:10;stroke-opacity:1;stroke-dasharray:none" /><g
       id="g16"><g
         clip-path="url(#clipPath20)"
         id="g18"><g
           id="g24"><g
             clip-path="url(#clipPath28)"
             id="g26"><text
   transform="matrix(1,0,0,-1,201.14,610.99)"
   id="text32"><tspan
     x="0 6.7080002 13.416 20.016001 26.724001 33.431999 37.428001 44.099998 50.82 57.419998 65.447998 72.047997 75.515999 82.115997 88.716003 92.052002 96.047997 102.72 106.104 112.704 119.304 123.3 126.636 133.308 135.972 141.972"
     y="0"
     id="tspan34"
     style="font-size:12px;font-variant:normal;font-weight:normal;writing-mode:lr-tb;fill:#000000;fill-opacity:1;fill-rule:nonzero;stroke:none;font-family:Helvetica;-inkscape-font-specification:Helvetica">aenderungAufgetreten(this)</tspan></text>

</g></g><g
           id="g36"><g
             clip-path="url(#clipPath40)"
             id="g38" /></g><g
           id="g44"><g
             clip-path="url(#clipPath48)"
             id="g46" /></g></g></g><g
       id="g52"><path
         d="m 118.05,669.4 0,-235.15"
         inkscape:connector-curvature="0"
         id="path54"
         style="fill:none;stroke:#000000;stroke-width:0.44999999;stroke-linecap:round;stroke-linejoin:round;stroke-miterlimit:10;stroke-opacity:1;stroke-dasharray:3.15, 1.8;stroke-dashoffset:0" /></g><g
       id="g56"><path
         d="m 235.8,669.4 0,-235.15"
         inkscape:connector-curvature="0"
         id="path58"
         style="fill:none;stroke:#000000;stroke-width:0.44999999;stroke-linecap:round;stroke-linejoin:round;stroke-miterlimit:10;stroke-opacity:1;stroke-dasharray:3.15, 1.8;stroke-dashoffset:0" /></g><g
       id="g60"><path
         d="m 360.45,669.4 0,-235.15"
         inkscape:connector-curvature="0"
         id="path62"
         style="fill:none;stroke:#000000;stroke-width:0.44999999;stroke-linecap:round;stroke-linejoin:round;stroke-miterlimit:10;stroke-opacity:1;stroke-dasharray:3.15, 1.8;stroke-dashoffset:0" /></g><g
       id="g64"><g
         clip-path="url(#clipPath68)"
         id="g66"><g
           id="g72"><g
             clip-path="url(#clipPath76)"
             id="g74"><text
   transform="matrix(1,0,0,-1,99.624,687.46)"
   id="text80"><tspan
     x="0 3.5999999 12.95424 15.82848 18.702721 25.9056 33.108479"
     y="0"
     id="tspan82"
     style="font-size:12.96000004px;font-variant:normal;font-weight:normal;writing-mode:lr-tb;fill:#000000;fill-opacity:1;fill-rule:nonzero;stroke:none;font-family:Helvetica;-inkscape-font-specification:Helvetica">:Client</tspan></text>

</g></g><g
           id="g84"><g
             clip-path="url(#clipPath88)"
             id="g86" /></g></g></g><path
       d="m 314.8,669.4 91.15,0 0,43.25 -91.15,0 0,-43.25 z"
       inkscape:connector-curvature="0"
       id="path92"
       style="fill:none;stroke:#000000;stroke-width:0.44999999;stroke-linecap:round;stroke-linejoin:miter;stroke-miterlimit:10;stroke-opacity:1;stroke-dasharray:none" /><path
       d="m 350.7,606.85 19.3,0 0,19.25 -19.3,0 0,-19.25 z"
       inkscape:connector-curvature="0"
       id="path94"
       style="fill:none;stroke:#000000;stroke-width:0.44999999;stroke-linecap:round;stroke-linejoin:miter;stroke-miterlimit:10;stroke-opacity:1;stroke-dasharray:none" /><path
       d="m 226.2,587.55 19.25,0 0,19.3 -19.25,0 0,-19.3 z"
       inkscape:connector-curvature="0"
       id="path96"
       style="fill:#ffffff;fill-opacity:1;fill-rule:evenodd;stroke:none" /><g
       id="g98"><g
         clip-path="url(#clipPath102)"
         id="g100"><g
           id="g106"><g
             clip-path="url(#clipPath110)"
             id="g108"><text
   transform="matrix(1,0,0,-1,141.14,630.55)"
   id="text114"><tspan
     x="0 6.7080002 13.416 20.016001 26.724001 33.431999 37.428001 44.099998 50.82"
     y="0"
     id="tspan116"
     style="font-size:12px;font-variant:normal;font-weight:normal;writing-mode:lr-tb;fill:#000000;fill-opacity:1;fill-rule:nonzero;stroke:none;font-family:Helvetica;-inkscape-font-specification:Helvetica">aenderung</tspan></text>

</g></g><g
           id="g118"><g
             clip-path="url(#clipPath122)"
             id="g120"><text
   transform="matrix(1,0,0,-1,198.62,630.55)"
   id="text126"><tspan
     x="0 3.96"
     y="0"
     id="tspan128"
     style="font-size:12px;font-variant:normal;font-weight:normal;writing-mode:lr-tb;fill:#000000;fill-opacity:1;fill-rule:nonzero;stroke:none;font-family:Helvetica;-inkscape-font-specification:Helvetica">()</tspan></text>

</g></g><g
           id="g130"><g
             clip-path="url(#clipPath134)"
             id="g132" /></g></g></g><g
       id="g138"><g
         clip-path="url(#clipPath142)"
         id="g140"><g
           id="g146"><g
             clip-path="url(#clipPath150)"
             id="g148" /></g></g></g><g
       id="g154"><g
         clip-path="url(#clipPath158)"
         id="g156"><g
           id="g162"><g
             clip-path="url(#clipPath166)"
             id="g164"><text
   transform="matrix(1,0,0,-1,321.89,592.03)"
   id="text170"><tspan
     x="0 10.068 16.775999 20.016001 26.724001 33.431999 40.032001 46.740002 54.768002 58.764"
     y="0"
     id="tspan172"
     style="font-size:12px;font-variant:normal;font-weight:normal;writing-mode:lr-tb;fill:#000000;fill-opacity:1;fill-rule:nonzero;stroke:none;font-family:Helvetica;-inkscape-font-specification:Helvetica">methodeB()</tspan></text>

</g></g><g
           id="g174"><g
             clip-path="url(#clipPath178)"
             id="g176" /></g></g></g><g
       id="g182"><path
         d="m 485.4,669.4 0,-235.15"
         inkscape:connector-curvature="0"
         id="path184"
         style="fill:none;stroke:#000000;stroke-width:0.44999999;stroke-linecap:round;stroke-linejoin:round;stroke-miterlimit:10;stroke-opacity:1;stroke-dasharray:3.15, 1.8;stroke-dashoffset:0" /></g><path
       d="m 475.7,568.3 19.3,0 0,19.25 -19.3,0 0,-19.25 z"
       inkscape:connector-curvature="0"
       id="path186"
       style="fill:#ffffff;fill-opacity:1;fill-rule:evenodd;stroke:none" /><path
       d="m 475.7,568.3 19.3,0 0,19.25 -19.3,0 0,-19.25 z"
       inkscape:connector-curvature="0"
       id="path188"
       style="fill:none;stroke:#000000;stroke-width:0.44999999;stroke-linecap:round;stroke-linejoin:miter;stroke-miterlimit:10;stroke-opacity:1;stroke-dasharray:none" /><g
       id="g190"><g
         clip-path="url(#clipPath194)"
         id="g192"><g
           id="g198"><g
             clip-path="url(#clipPath202)"
             id="g200"><text
   transform="matrix(1,0,0,-1,141.14,522.31)"
   id="text206"><tspan
     x="0 6.7080002 13.416 20.016001 26.724001 33.431999 37.428001 44.099998 50.82 57.419998"
     y="0"
     id="tspan208"
     style="font-size:12px;font-variant:normal;font-weight:normal;writing-mode:lr-tb;fill:#000000;fill-opacity:1;fill-rule:nonzero;stroke:none;font-family:Helvetica;-inkscape-font-specification:Helvetica">aenderung </tspan></text>

</g></g><g
           id="g210"><g
             clip-path="url(#clipPath214)"
             id="g212"><text
   transform="matrix(1,0,0,-1,201.98,522.31)"
   id="text218"><tspan
     x="0 3.96"
     y="0"
     id="tspan220"
     style="font-size:12px;font-variant:normal;font-weight:normal;writing-mode:lr-tb;fill:#000000;fill-opacity:1;fill-rule:nonzero;stroke:none;font-family:Helvetica;-inkscape-font-specification:Helvetica">()</tspan></text>

</g></g><g
           id="g222"><g
             clip-path="url(#clipPath226)"
             id="g224" /></g></g></g><g
       id="g230"><g
         clip-path="url(#clipPath234)"
         id="g232"><g
           id="g238"><g
             clip-path="url(#clipPath242)"
             id="g240"><text
   transform="matrix(1,0,0,-1,296.69,502.99)"
   id="text246"><tspan
     x="0 6.7080002 13.416 20.016001 26.724001 33.431999 37.428001 44.099998 50.82 57.419998 65.447998 72.047997 75.515999 82.115997 88.716003 92.052002 96.047997 102.72 106.104 112.704 119.304"
     y="0"
     id="tspan248"
     style="font-size:12px;font-variant:normal;font-weight:normal;writing-mode:lr-tb;fill:#000000;fill-opacity:1;fill-rule:nonzero;stroke:none;font-family:Helvetica;-inkscape-font-specification:Helvetica">aenderungAufgetreten(</tspan></text>

</g></g><g
           id="g250"><g
             clip-path="url(#clipPath254)"
             id="g252"><text
   transform="matrix(1,0,0,-1,420.05,502.99)"
   id="text258"><tspan
     x="0 3.336 10.068 12.732"
     y="0"
     id="tspan260"
     style="font-size:12px;font-variant:normal;font-weight:normal;writing-mode:lr-tb;fill:#000000;fill-opacity:1;fill-rule:nonzero;stroke:none;font-family:Helvetica;-inkscape-font-specification:Helvetica">this</tspan></text>

</g></g><g
           id="g262"><g
             clip-path="url(#clipPath266)"
             id="g264"><text
   transform="matrix(1,0,0,-1,438.77,502.99)"
   id="text270"><tspan
     x="0"
     y="0"
     id="tspan272"
     style="font-size:12px;font-variant:normal;font-weight:normal;writing-mode:lr-tb;fill:#000000;fill-opacity:1;fill-rule:nonzero;stroke:none;font-family:Helvetica;-inkscape-font-specification:Helvetica">)</tspan></text>

</g></g><g
           id="g274"><g
             clip-path="url(#clipPath278)"
             id="g276" /></g></g></g><g
       id="g282"><g
         clip-path="url(#clipPath286)"
         id="g284"><g
           id="g290"><g
             clip-path="url(#clipPath294)"
             id="g292"><text
   transform="matrix(1,0,0,-1,270.86,483.67)"
   id="text298"><tspan
     x="0 10.068 16.775999 20.016001 26.724001 33.431999 40.032001 46.740002 54.768002 58.764"
     y="0"
     id="tspan300"
     style="font-size:12px;font-variant:normal;font-weight:normal;writing-mode:lr-tb;fill:#000000;fill-opacity:1;fill-rule:nonzero;stroke:none;font-family:Helvetica;-inkscape-font-specification:Helvetica">methodeA()</tspan></text>

</g></g><g
           id="g302"><g
             clip-path="url(#clipPath306)"
             id="g304" /></g></g></g><g
       id="g310"><g
         clip-path="url(#clipPath314)"
         id="g312"><g
           id="g318"><g
             clip-path="url(#clipPath322)"
             id="g320"><text
   transform="matrix(1,0,0,-1,203.54,700.06)"
   id="text326"><tspan
     x="0 3.5999999 12.24144 19.444321 26.6472 33.124321 37.437119 44.639999 48.343681 55.546558"
     y="0"
     id="tspan328"
     style="font-size:12.96000004px;font-variant:normal;font-weight:normal;writing-mode:lr-tb;fill:#000000;fill-opacity:1;fill-rule:nonzero;stroke:none;font-family:Helvetica;-inkscape-font-specification:Helvetica">:Konkreter</tspan></text>

</g></g><g
           id="g330"><g
             clip-path="url(#clipPath334)"
             id="g332"><text
   transform="matrix(1,0,0,-1,263.42,700.06)"
   id="text338"><tspan
     x="0"
     y="0"
     id="tspan340"
     style="font-size:12.96000004px;font-variant:normal;font-weight:normal;writing-mode:lr-tb;fill:#000000;fill-opacity:1;fill-rule:nonzero;stroke:none;font-family:Helvetica;-inkscape-font-specification:Helvetica">-</tspan></text>

</g></g><g
           id="g342"><g
             clip-path="url(#clipPath346)"
             id="g344"><text
   transform="matrix(1,0,0,-1,207.86,685.06)"
   id="text350"><tspan
     x="0 8.6400003 15.84144 20.1528 30.94416 33.816959 37.41552 41.01408 43.886879 51.230881"
     y="0"
     id="tspan352"
     style="font-size:12.96000004px;font-variant:normal;font-weight:normal;writing-mode:lr-tb;fill:#000000;fill-opacity:1;fill-rule:nonzero;stroke:none;font-family:Helvetica;-inkscape-font-specification:Helvetica">Vermittler</tspan></text>

</g></g><g
           id="g354"><g
             clip-path="url(#clipPath358)"
             id="g356" /></g></g></g><g
       id="g362"><g
         clip-path="url(#clipPath366)"
         id="g364"><g
           id="g370"><g
             clip-path="url(#clipPath374)"
             id="g372"><text
   transform="matrix(1,0,0,-1,328.13,699.34)"
   id="text378"><tspan
     x="0 3.5999999 12.24144 19.444321 26.6472 33.124321 37.437119 44.639999 48.343681 55.546558"
     y="0"
     id="tspan380"
     style="font-size:12.96000004px;font-variant:normal;font-weight:normal;writing-mode:lr-tb;fill:#000000;fill-opacity:1;fill-rule:nonzero;stroke:none;font-family:Helvetica;-inkscape-font-specification:Helvetica">:Konkreter</tspan></text>

</g></g><g
           id="g382"><g
             clip-path="url(#clipPath386)"
             id="g384"><text
   transform="matrix(1,0,0,-1,388.01,699.34)"
   id="text390"><tspan
     x="0"
     y="0"
     id="tspan392"
     style="font-size:12.96000004px;font-variant:normal;font-weight:normal;writing-mode:lr-tb;fill:#000000;fill-opacity:1;fill-rule:nonzero;stroke:none;font-family:Helvetica;-inkscape-font-specification:Helvetica">-</tspan></text>

</g></g><g
           id="g394"><g
             clip-path="url(#clipPath398)"
             id="g396"><text
   transform="matrix(1,0,0,-1,334.25,684.34)"
   id="text402"><tspan
     x="0 8.6443195 15.85008 18.7272 21.604321 28.81008 36.015839 43.312321"
     y="0"
     id="tspan404"
     style="font-size:12.96000004px;font-variant:normal;font-weight:normal;writing-mode:lr-tb;fill:#000000;fill-opacity:1;fill-rule:nonzero;stroke:none;font-family:Helvetica;-inkscape-font-specification:Helvetica">KollegeA</tspan></text>

</g></g><g
           id="g406"><g
             clip-path="url(#clipPath410)"
             id="g408" /></g></g></g><g
       id="g414"><g
         clip-path="url(#clipPath418)"
         id="g416"><g
           id="g422"><g
             clip-path="url(#clipPath426)"
             id="g424"><text
   transform="matrix(1,0,0,-1,453.05,700.06)"
   id="text430"><tspan
     x="0 3.5999999 12.24144 19.444321 26.6472 33.124321 37.437119 44.639999 48.343681 55.546558"
     y="0"
     id="tspan432"
     style="font-size:12.96000004px;font-variant:normal;font-weight:normal;writing-mode:lr-tb;fill:#000000;fill-opacity:1;fill-rule:nonzero;stroke:none;font-family:Helvetica;-inkscape-font-specification:Helvetica">:Konkreter</tspan></text>

</g></g><g
           id="g434"><g
             clip-path="url(#clipPath438)"
             id="g436"><text
   transform="matrix(1,0,0,-1,512.95,700.06)"
   id="text442"><tspan
     x="0"
     y="0"
     id="tspan444"
     style="font-size:12.96000004px;font-variant:normal;font-weight:normal;writing-mode:lr-tb;fill:#000000;fill-opacity:1;fill-rule:nonzero;stroke:none;font-family:Helvetica;-inkscape-font-specification:Helvetica">-</tspan></text>

</g></g><g
           id="g446"><g
             clip-path="url(#clipPath450)"
             id="g448"><text
   transform="matrix(1,0,0,-1,459.17,685.06)"
   id="text454"><tspan
     x="0 8.6443195 15.85008 18.7272 21.604321 28.81008 36.015839 43.312321"
     y="0"
     id="tspan456"
     style="font-size:12.96000004px;font-variant:normal;font-weight:normal;writing-mode:lr-tb;fill:#000000;fill-opacity:1;fill-rule:nonzero;stroke:none;font-family:Helvetica;-inkscape-font-specification:Helvetica">KollegeB</tspan></text>

</g></g><g
           id="g458"><g
             clip-path="url(#clipPath462)"
             id="g460" /></g></g></g><path
       d="m 127,626.7 215.45,0.05 c 0.28,0 0.5,-0.23 0.5,-0.5 0,-0.28 -0.22,-0.5 -0.5,-0.5 L 127,625.7 c -0.28,0 -0.5,0.22 -0.5,0.5 0,0.28 0.22,0.5 0.5,0.5 z m 214.45,4.55 10,-5 -10,-5 0,10 z"
       inkscape:connector-curvature="0"
       id="path466"
       style="fill:#000000;fill-opacity:1;fill-rule:nonzero;stroke:none" /><path
       d="m 244.95,588.5 221.25,0 c 0.28,0 0.5,-0.22 0.5,-0.5 0,-0.28 -0.22,-0.5 -0.5,-0.5 l -221.25,0 c -0.28,0 -0.5,0.22 -0.5,0.5 0,0.28 0.22,0.5 0.5,0.5 z m 220.25,4.5 10,-5 -10,-5 0,10 z"
       inkscape:connector-curvature="0"
       id="path468"
       style="fill:#000000;fill-opacity:1;fill-rule:nonzero;stroke:none" /><path
       d="m 126.6,518.65 340.1,0 c 0.28,0 0.5,-0.22 0.5,-0.5 0,-0.28 -0.22,-0.5 -0.5,-0.5 l -340.1,0 c -0.28,0 -0.5,0.22 -0.5,0.5 0,0.28 0.22,0.5 0.5,0.5 z m 339.1,4.5 10,-5 -10,-5 0,10 z"
       inkscape:connector-curvature="0"
       id="path470"
       style="fill:#000000;fill-opacity:1;fill-rule:nonzero;stroke:none" /><path
       d="m 475.7,498.75 -225.25,0 c -0.28,0 -0.5,0.22 -0.5,0.5 0,0.28 0.22,0.5 0.5,0.5 l 225.25,0 c 0.28,0 0.5,-0.22 0.5,-0.5 0,-0.28 -0.22,-0.5 -0.5,-0.5 z m -224.25,-4.5 -6,5 6,5 0,-10 z"
       inkscape:connector-curvature="0"
       id="path472"
       style="fill:#000000;fill-opacity:1;fill-rule:nonzero;stroke:none" /><path
       d="m 244.95,480.25 96.75,0 c 0.28,0 0.5,-0.22 0.5,-0.5 0,-0.28 -0.22,-0.5 -0.5,-0.5 l -96.75,0 c -0.28,0 -0.5,0.22 -0.5,0.5 0,0.28 0.22,0.5 0.5,0.5 z m 95.75,4.5 10,-5 -10,-5 0,10 z"
       inkscape:connector-curvature="0"
       id="path474"
       style="fill:#000000;fill-opacity:1;fill-rule:nonzero;stroke:none" /><path
       d="m 350.7,607 -100.75,0 c -0.28,0 -0.5,0.22 -0.5,0.5 0,0.28 0.22,0.5 0.5,0.5 l 100.75,0 c 0.28,0 0.5,-0.22 0.5,-0.5 0,-0.28 -0.22,-0.5 -0.5,-0.5 z m -99.75,-4.5 -6,5 6,5 0,-10 z"
       inkscape:connector-curvature="0"
       id="path476"
       style="fill:#000000;fill-opacity:1;fill-rule:nonzero;stroke:none" /><path
       d="m 350.7,460.75 19.3,0 0,19.25 -19.3,0 0,-19.25 z"
       inkscape:connector-curvature="0"
       id="path478"
       style="fill:#ffffff;fill-opacity:1;fill-rule:evenodd;stroke:none" /><path
       d="m 350.7,460.75 19.3,0 0,19.25 -19.3,0 0,-19.25 z"
       inkscape:connector-curvature="0"
       id="path480"
       style="fill:none;stroke:#000000;stroke-width:0.44999999;stroke-linecap:round;stroke-linejoin:miter;stroke-miterlimit:10;stroke-opacity:1;stroke-dasharray:none" /><path
       d="m 108.3,607.7 19.25,0 0,20.05 -19.25,0 0,-20.05 z"
       inkscape:connector-curvature="0"
       id="path482"
       style="fill:#ffffff;fill-opacity:1;fill-rule:evenodd;stroke:none" /><path
       d="m 108.3,607.7 19.25,0 0,20.05 -19.25,0 0,-20.05 z"
       inkscape:connector-curvature="0"
       id="path484"
       style="fill:none;stroke:#000000;stroke-width:0.44999999;stroke-linecap:round;stroke-linejoin:miter;stroke-miterlimit:10;stroke-opacity:1;stroke-dasharray:none" /><path
       d="m 108.3,497.4 19.25,0 0,21.6 -19.25,0 0,-21.6 z"
       inkscape:connector-curvature="0"
       id="path486"
       style="fill:#ffffff;fill-opacity:1;fill-rule:evenodd;stroke:none" /><path
       d="m 108.3,497.4 19.25,0 0,21.6 -19.25,0 0,-21.6 z"
       inkscape:connector-curvature="0"
       id="path488"
       style="fill:none;stroke:#000000;stroke-width:0.44999999;stroke-linecap:round;stroke-linejoin:miter;stroke-miterlimit:10;stroke-opacity:1;stroke-dasharray:none" /><path
       d="m 72.5,669.4 91.2,0 0,43.25 -91.2,0 0,-43.25 z"
       inkscape:connector-curvature="0"
       id="path490"
       style="fill:none;stroke:#000000;stroke-width:0.44999999;stroke-linecap:round;stroke-linejoin:miter;stroke-miterlimit:10;stroke-opacity:1;stroke-dasharray:none" /><path
       d="m 190.05,669.4 91.15,0 0,43.25 -91.15,0 0,-43.25 z"
       inkscape:connector-curvature="0"
       id="path492"
       style="fill:none;stroke:#000000;stroke-width:0.44999999;stroke-linecap:round;stroke-linejoin:miter;stroke-miterlimit:10;stroke-opacity:1;stroke-dasharray:none" /><path
       d="m 439.55,669.4 91.15,0 0,43.25 -91.15,0 0,-43.25 z"
       inkscape:connector-curvature="0"
       id="path494"
       style="fill:none;stroke:#000000;stroke-width:0.44999999;stroke-linecap:round;stroke-linejoin:miter;stroke-miterlimit:10;stroke-opacity:1;stroke-dasharray:none" /><path
       d="m 226.2,576.05 19.25,0 0,30.8 -19.25,0 0,-30.8 z"
       inkscape:connector-curvature="0"
       id="path496"
       style="fill:#ffffff;fill-opacity:1;fill-rule:evenodd;stroke:none" /><path
       d="m 226.2,576.05 19.25,0 0,30.8 -19.25,0 0,-30.8 z"
       inkscape:connector-curvature="0"
       id="path498"
       style="fill:none;stroke:#000000;stroke-width:0.44999999;stroke-linecap:round;stroke-linejoin:miter;stroke-miterlimit:10;stroke-opacity:1;stroke-dasharray:none" /><path
       d="m 226.2,468.6 19.25,0 0,30.65 -19.25,0 0,-30.65 z"
       inkscape:connector-curvature="0"
       id="path500"
       style="fill:#ffffff;fill-opacity:1;fill-rule:evenodd;stroke:none" /><path
       d="m 226.2,468.6 19.25,0 0,30.65 -19.25,0 0,-30.65 z"
       inkscape:connector-curvature="0"
       id="path502"
       style="fill:none;stroke:#000000;stroke-width:0.44999999;stroke-linecap:round;stroke-linejoin:miter;stroke-miterlimit:10;stroke-opacity:1;stroke-dasharray:none" /><path
       d="m 475.7,499.25 19.3,0 0,20 -19.3,0 0,-20 z"
       inkscape:connector-curvature="0"
       id="path504"
       style="fill:#ffffff;fill-opacity:1;fill-rule:evenodd;stroke:none" /><path
       d="m 475.7,499.25 19.3,0 0,20 -19.3,0 0,-20 z"
       inkscape:connector-curvature="0"
       id="path506"
       style="fill:none;stroke:#000000;stroke-width:0.44999999;stroke-linecap:round;stroke-linejoin:miter;stroke-miterlimit:10;stroke-opacity:1;stroke-dasharray:none" /><path
       d="m 350.7,606.85 19.3,0 0,19.25 -19.3,0 0,-19.25 z"
       inkscape:connector-curvature="0"
       id="path508"
       style="fill:#ffffff;fill-opacity:1;fill-rule:evenodd;stroke:none" /><path
       d="m 350.7,606.85 19.3,0 0,19.25 -19.3,0 0,-19.25 z"
       inkscape:connector-curvature="0"
       id="path510"
       style="fill:none;stroke:#000000;stroke-width:0.44999999;stroke-linecap:round;stroke-linejoin:miter;stroke-miterlimit:10;stroke-opacity:1;stroke-dasharray:none" /></g></svg>