<?xml version="1.0" encoding="UTF-8" standalone="no"?>
<!-- Created with Inkscape (http://www.inkscape.org/) -->

<svg
   xmlns:dc="http://purl.org/dc/elements/1.1/"
   xmlns:cc="http://creativecommons.org/ns#"
   xmlns:rdf="http://www.w3.org/1999/02/22-rdf-syntax-ns#"
   xmlns:svg="http://www.w3.org/2000/svg"
   xmlns="http://www.w3.org/2000/svg"
   xmlns:sodipodi="http://sodipodi.sourceforge.net/DTD/sodipodi-0.dtd"
   xmlns:inkscape="http://www.inkscape.org/namespaces/inkscape"
   version="1.1"
   width="518.6875"
   height="173.4375"
   id="svg2"
   xml:space="preserve"
   inkscape:version="0.48.4 r9939"
   sodipodi:docname="Bild 4-1 Klassendiagramm Klassen-Adapter.svg"><sodipodi:namedview
     pagecolor="#ffffff"
     bordercolor="#666666"
     borderopacity="1"
     objecttolerance="10"
     gridtolerance="10"
     guidetolerance="10"
     inkscape:pageopacity="0"
     inkscape:pageshadow="2"
     inkscape:window-width="640"
     inkscape:window-height="480"
     id="namedview234"
     showgrid="false"
     inkscape:zoom="0.18730159"
     inkscape:cx="118.71875"
     inkscape:cy="77.34375"
     inkscape:window-x="0"
     inkscape:window-y="0"
     inkscape:window-maximized="0"
     inkscape:current-layer="svg2" /><metadata
     id="metadata8"><rdf:RDF><cc:Work
         rdf:about=""><dc:format>image/svg+xml</dc:format><dc:type
           rdf:resource="http://purl.org/dc/dcmitype/StillImage" /></cc:Work></rdf:RDF></metadata><defs
     id="defs6"><clipPath
       id="clipPath22"><path
         d="m 418.73,548.11 54.03,0 0,19.68 -54.03,0 0,-19.68 z"
         inkscape:connector-curvature="0"
         id="path24" /></clipPath><clipPath
       id="clipPath30"><path
         d="m 418.73,548.11 54.024,0 0,19.68 -54.024,0 0,-19.68 z"
         inkscape:connector-curvature="0"
         id="path32" /></clipPath><clipPath
       id="clipPath42"><path
         d="m 418.73,548.11 54.024,0 0,19.68 -54.024,0 0,-19.68 z"
         inkscape:connector-curvature="0"
         id="path44" /></clipPath><clipPath
       id="clipPath50"><path
         d="m 554,522.07 92.16,0 0,18 -92.16,0 0,-18 z"
         inkscape:connector-curvature="0"
         id="path52" /></clipPath><clipPath
       id="clipPath58"><path
         d="m 553.99,522.07 92.16,0 0,18 -92.16,0 0,-18 z"
         inkscape:connector-curvature="0"
         id="path60" /></clipPath><clipPath
       id="clipPath70"><path
         d="m 553.99,522.07 92.16,0 0,18 -92.16,0 0,-18 z"
         inkscape:connector-curvature="0"
         id="path72" /></clipPath><clipPath
       id="clipPath82"><path
         d="m 553.99,522.07 92.16,0 0,18 -92.16,0 0,-18 z"
         inkscape:connector-curvature="0"
         id="path84" /></clipPath><clipPath
       id="clipPath94"><path
         d="m 558.92,548.35 91.8,0 0,29.04 -91.8,0 0,-29.04 z"
         inkscape:connector-curvature="0"
         id="path96" /></clipPath><clipPath
       id="clipPath102"><path
         d="m 558.91,548.35 91.8,0 0,29.04 -91.8,0 0,-29.04 z"
         inkscape:connector-curvature="0"
         id="path104" /></clipPath><clipPath
       id="clipPath114"><path
         d="m 558.91,548.35 91.8,0 0,29.04 -91.8,0 0,-29.04 z"
         inkscape:connector-curvature="0"
         id="path116" /></clipPath><clipPath
       id="clipPath122"><path
         d="m 558.91,548.35 91.8,0 0,29.04 -91.8,0 0,-29.04 z"
         inkscape:connector-curvature="0"
         id="path124" /></clipPath><clipPath
       id="clipPath134"><path
         d="m 558.91,548.35 91.8,0 0,29.04 -91.8,0 0,-29.04 z"
         inkscape:connector-curvature="0"
         id="path136" /></clipPath><clipPath
       id="clipPath146"><path
         d="m 558.91,548.35 91.8,0 0,29.04 -91.8,0 0,-29.04 z"
         inkscape:connector-curvature="0"
         id="path148" /></clipPath><clipPath
       id="clipPath154"><path
         d="m 558.91,548.35 91.8,0 0,29.04 -91.8,0 0,-29.04 z"
         inkscape:connector-curvature="0"
         id="path156" /></clipPath><clipPath
       id="clipPath164"><path
         d="m 554,440.71 98.88,0 0,18 -98.88,0 0,-18 z"
         inkscape:connector-curvature="0"
         id="path166" /></clipPath><clipPath
       id="clipPath172"><path
         d="m 553.99,440.71 98.88,0 0,18 -98.88,0 0,-18 z"
         inkscape:connector-curvature="0"
         id="path174" /></clipPath><clipPath
       id="clipPath184"><path
         d="m 553.99,440.71 98.88,0 0,18 -98.88,0 0,-18 z"
         inkscape:connector-curvature="0"
         id="path186" /></clipPath><clipPath
       id="clipPath196"><path
         d="m 553.99,440.71 98.88,0 0,18 -98.88,0 0,-18 z"
         inkscape:connector-curvature="0"
         id="path198" /></clipPath><clipPath
       id="clipPath208"><path
         d="m 554,460.51 98.88,0 0,13.44 -98.88,0 0,-13.44 z"
         inkscape:connector-curvature="0"
         id="path210" /></clipPath><clipPath
       id="clipPath216"><path
         d="m 553.99,460.51 98.88,0 0,13.44 -98.88,0 0,-13.44 z"
         inkscape:connector-curvature="0"
         id="path218" /></clipPath><clipPath
       id="clipPath228"><path
         d="m 553.99,460.51 98.88,0 0,13.44 -98.88,0 0,-13.44 z"
         inkscape:connector-curvature="0"
         id="path230" /></clipPath><clipPath
       id="clipPath236"><path
         d="m 707.01,538.63 101.88,0 0,19.08 -101.88,0 0,-19.08 z"
         inkscape:connector-curvature="0"
         id="path238" /></clipPath><clipPath
       id="clipPath244"><path
         d="m 707.02,538.63 101.88,0 0,19.08 -101.88,0 0,-19.08 z"
         inkscape:connector-curvature="0"
         id="path246" /></clipPath><clipPath
       id="clipPath256"><path
         d="m 707.02,538.63 101.88,0 0,19.08 -101.88,0 0,-19.08 z"
         inkscape:connector-curvature="0"
         id="path258" /></clipPath><clipPath
       id="clipPath268"><path
         d="m 707.02,538.63 101.88,0 0,19.08 -101.88,0 0,-19.08 z"
         inkscape:connector-curvature="0"
         id="path270" /></clipPath><clipPath
       id="clipPath296"><path
         d="m 488.36,562.39 65.16,0 0,16.68 -65.16,0 0,-16.68 z"
         inkscape:connector-curvature="0"
         id="path298" /></clipPath><clipPath
       id="clipPath304"><path
         d="m 488.35,562.39 65.16,0 0,16.68 -65.16,0 0,-16.68 z"
         inkscape:connector-curvature="0"
         id="path306" /></clipPath><clipPath
       id="clipPath316"><path
         d="m 488.35,562.39 65.16,0 0,16.68 -65.16,0 0,-16.68 z"
         inkscape:connector-curvature="0"
         id="path318" /></clipPath><clipPath
       id="clipPath328"><path
         d="m 488.35,562.39 65.16,0 0,16.68 -65.16,0 0,-16.68 z"
         inkscape:connector-curvature="0"
         id="path330" /></clipPath><clipPath
       id="clipPath336"><path
         d="m 488.35,562.39 65.16,0 0,16.68 -65.16,0 0,-16.68 z"
         inkscape:connector-curvature="0"
         id="path338" /></clipPath><clipPath
       id="clipPath344"><path
         d="m 687.69,562.03 134.04,0 0,16.08 -134.04,0 0,-16.08 z"
         inkscape:connector-curvature="0"
         id="path346" /></clipPath><clipPath
       id="clipPath352"><path
         d="m 687.7,562.03 134.04,0 0,16.08 -134.04,0 0,-16.08 z"
         inkscape:connector-curvature="0"
         id="path354" /></clipPath><clipPath
       id="clipPath364"><path
         d="m 687.7,562.03 134.04,0 0,16.08 -134.04,0 0,-16.08 z"
         inkscape:connector-curvature="0"
         id="path366" /></clipPath><clipPath
       id="clipPath376"><path
         d="m 687.7,562.03 134.04,0 0,16.08 -134.04,0 0,-16.08 z"
         inkscape:connector-curvature="0"
         id="path378" /></clipPath><clipPath
       id="clipPath388"><path
         d="m 687.7,562.03 134.04,0 0,16.08 -134.04,0 0,-16.08 z"
         inkscape:connector-curvature="0"
         id="path390" /></clipPath><clipPath
       id="clipPath400"><path
         d="m 687.7,562.03 134.04,0 0,16.08 -134.04,0 0,-16.08 z"
         inkscape:connector-curvature="0"
         id="path402" /></clipPath><clipPath
       id="clipPath420"><path
         d="m 432.17,445.99 94.47,0 0,27.6 -94.47,0 0,-27.6 z"
         inkscape:connector-curvature="0"
         id="path422" /></clipPath><clipPath
       id="clipPath428"><path
         d="m 432.17,445.99 94.464,0 0,27.6 -94.464,0 0,-27.6 z"
         inkscape:connector-curvature="0"
         id="path430" /></clipPath><clipPath
       id="clipPath440"><path
         d="m 432.17,445.99 94.464,0 0,27.6 -94.464,0 0,-27.6 z"
         inkscape:connector-curvature="0"
         id="path442" /></clipPath><clipPath
       id="clipPath448"><path
         d="m 432.17,445.99 94.464,0 0,27.6 -94.464,0 0,-27.6 z"
         inkscape:connector-curvature="0"
         id="path450" /></clipPath><clipPath
       id="clipPath460"><path
         d="m 432.17,445.99 94.464,0 0,27.6 -94.464,0 0,-27.6 z"
         inkscape:connector-curvature="0"
         id="path462" /></clipPath></defs><g
     transform="matrix(1.25,0,0,-1.25,-511.65625,726.09375)"
     id="g10"><path
       d="m 409.7,535.5 72,0 0,45 -72,0 0,-45 z"
       inkscape:connector-curvature="0"
       id="path12"
       style="fill:#ffffff;fill-opacity:1;fill-rule:evenodd;stroke:none" /><path
       d="m 409.7,535.5 72,0 0,45 -72,0 0,-45 z"
       inkscape:connector-curvature="0"
       id="path14"
       style="fill:none;stroke:#000000;stroke-width:0.75;stroke-linecap:round;stroke-linejoin:miter;stroke-miterlimit:10;stroke-opacity:1;stroke-dasharray:none" /><path
       d="m 418.7,544.5 54,0 0,27 -54,0 0,-27 z"
       inkscape:connector-curvature="0"
       id="path16"
       style="fill:#ffffff;fill-opacity:1;fill-rule:evenodd;stroke:none" /><g
       id="g18"><g
         clip-path="url(#clipPath22)"
         id="g20"><g
           id="g26"><g
             clip-path="url(#clipPath30)"
             id="g28"><text
   transform="matrix(1,0,0,-1,425.93,556.27)"
   id="text34"><tspan
     x="0 8.6639996 12 15.336 22.068001 29.4"
     y="0"
     id="tspan36"
     style="font-size:12px;font-variant:normal;font-weight:bold;writing-mode:lr-tb;fill:#000000;fill-opacity:1;fill-rule:nonzero;stroke:none;font-family:Helvetica;-inkscape-font-specification:Helvetica-Bold">Client</tspan></text>

</g></g><g
           id="g38"><g
             clip-path="url(#clipPath42)"
             id="g40" /></g></g></g><g
       id="g46"><g
         clip-path="url(#clipPath50)"
         id="g48"><g
           id="g54"><g
             clip-path="url(#clipPath58)"
             id="g56"><text
   transform="matrix(1,0,0,-1,559.63,529.03)"
   id="text62"><tspan
     x="0"
     y="0"
     id="tspan64"
     style="font-size:12px;font-variant:normal;font-weight:normal;writing-mode:lr-tb;fill:#000000;fill-opacity:1;fill-rule:nonzero;stroke:none;font-family:Helvetica;-inkscape-font-specification:Helvetica">o</tspan></text>

</g></g><g
           id="g66"><g
             clip-path="url(#clipPath70)"
             id="g68"><text
   transform="matrix(1,0,0,-1,566.35,529.03)"
   id="text74"><tspan
     x="0 6.7080002 13.416 17.412001 24.084 27.42 29.976 36.683998 43.391998 51.419998 55.416"
     y="0"
     id="tspan76"
     style="font-size:12px;font-variant:normal;font-weight:normal;writing-mode:lr-tb;fill:#000000;fill-opacity:1;fill-rule:nonzero;stroke:none;font-family:Helvetica;-inkscape-font-specification:Helvetica">perationA()</tspan></text>

</g></g><g
           id="g78"><g
             clip-path="url(#clipPath82)"
             id="g80" /></g></g></g><path
       d="m 553.9,523.5 99,0 0,57 -99,0 0,-57 z"
       inkscape:connector-curvature="0"
       id="path86"
       style="fill:none;stroke:#000000;stroke-width:0.75;stroke-linecap:round;stroke-linejoin:miter;stroke-miterlimit:10;stroke-opacity:1;stroke-dasharray:none" /><path
       d="m 553.9,543.95 99,-0.05"
       inkscape:connector-curvature="0"
       id="path88"
       style="fill:none;stroke:#000000;stroke-width:0.75;stroke-linecap:round;stroke-linejoin:round;stroke-miterlimit:10;stroke-opacity:1;stroke-dasharray:none" /><g
       id="g90"><g
         clip-path="url(#clipPath94)"
         id="g92"><g
           id="g98"><g
             clip-path="url(#clipPath102)"
             id="g100"><text
   transform="matrix(1,0,0,-1,565.15,567.07)"
   id="text106"><tspan
     x="0 7.1999998 14.4 21.6 28.799999 36 43.200001 50.400002 57.599998 64.800003 72"
     y="0"
     id="tspan108"
     style="font-size:12px;font-variant:normal;font-weight:normal;writing-mode:lr-tb;fill:#000000;fill-opacity:1;fill-rule:nonzero;stroke:none;font-family:Courier New;-inkscape-font-specification:Courier New">«interface»</tspan></text>

</g></g><g
           id="g110"><g
             clip-path="url(#clipPath114)"
             id="g112" /></g><g
           id="g118"><g
             clip-path="url(#clipPath122)"
             id="g120"><text
   transform="matrix(1,0,0,-1,592.75,552.79)"
   id="text126"><tspan
     x="0"
     y="0"
     id="tspan128"
     style="font-size:12px;font-variant:normal;font-weight:bold;writing-mode:lr-tb;fill:#000000;fill-opacity:1;fill-rule:nonzero;stroke:none;font-family:Helvetica;-inkscape-font-specification:Helvetica-Bold">I</tspan></text>

</g></g><g
           id="g130"><g
             clip-path="url(#clipPath134)"
             id="g132"><text
   transform="matrix(1,0,0,-1,596.11,552.79)"
   id="text138"><tspan
     x="0 7.3319998 10.668 17.388"
     y="0"
     id="tspan140"
     style="font-size:12px;font-variant:normal;font-weight:bold;writing-mode:lr-tb;fill:#000000;fill-opacity:1;fill-rule:nonzero;stroke:none;font-family:Helvetica;-inkscape-font-specification:Helvetica-Bold">Ziel</tspan></text>

</g></g><g
           id="g142"><g
             clip-path="url(#clipPath146)"
             id="g144" /></g><g
           id="g150"><g
             clip-path="url(#clipPath154)"
             id="g152" /></g></g></g><path
       d="m 481.9,560 3,0 c 0.28,0 0.5,-0.23 0.5,-0.5 0,-0.28 -0.22,-0.5 -0.5,-0.5 l -3,0 c -0.28,0 -0.5,0.22 -0.5,0.5 0,0.28 0.22,0.5 0.5,0.5 z m 7,0 3,-0.01 c 0.28,0 0.5,-0.22 0.5,-0.5 0,-0.27 -0.22,-0.5 -0.5,-0.5 l -3,0.01 c -0.28,0 -0.5,0.22 -0.5,0.5 0,0.27 0.22,0.5 0.5,0.5 z m 7,-0.01 3,0 c 0.28,0 0.5,-0.23 0.5,-0.5 0,-0.28 -0.22,-0.5 -0.5,-0.5 l -3,0 c -0.28,0 -0.5,0.22 -0.5,0.5 0,0.28 0.22,0.5 0.5,0.5 z m 7,0 3,-0.01 c 0.28,0 0.5,-0.22 0.5,-0.5 0,-0.27 -0.22,-0.5 -0.5,-0.5 l -3,0.01 c -0.28,0 -0.5,0.22 -0.5,0.5 0,0.27 0.22,0.5 0.5,0.5 z m 7,-0.01 3,0 c 0.28,0 0.5,-0.23 0.5,-0.5 0,-0.28 -0.22,-0.5 -0.5,-0.5 l -3,0 c -0.28,0 -0.5,0.23 -0.5,0.5 0,0.28 0.22,0.5 0.5,0.5 z m 7,0 3,-0.01 c 0.28,0 0.5,-0.22 0.5,-0.5 0,-0.27 -0.22,-0.5 -0.5,-0.5 l -3,0.01 c -0.28,0 -0.5,0.22 -0.5,0.5 0,0.27 0.22,0.5 0.5,0.5 z m 7,-0.01 3,0 c 0.28,0 0.5,-0.22 0.5,-0.5 0,-0.28 -0.22,-0.5 -0.5,-0.5 l -3,0 c -0.28,0 -0.5,0.23 -0.5,0.5 0,0.28 0.22,0.5 0.5,0.5 z m 7,0 3,-0.01 c 0.28,0 0.5,-0.22 0.5,-0.5 0,-0.27 -0.22,-0.5 -0.5,-0.5 l -3,0.01 c -0.28,0 -0.5,0.22 -0.5,0.5 0,0.27 0.22,0.5 0.5,0.5 z m 7,-0.01 3,0 c 0.28,0 0.5,-0.22 0.5,-0.5 0,-0.28 -0.22,-0.5 -0.5,-0.5 l -3,0 c -0.28,0 -0.5,0.23 -0.5,0.5 0,0.28 0.22,0.5 0.5,0.5 z m 7,0 3,0 c 0.28,0 0.5,-0.23 0.5,-0.51 0,-0.27 -0.22,-0.49 -0.5,-0.49 l -3,0 c -0.28,0 -0.5,0.22 -0.5,0.5 0,0.27 0.22,0.5 0.5,0.5 z m 7,-0.01 1.5,0 c 0.28,0 0.5,-0.22 0.5,-0.5 0,-0.28 -0.22,-0.5 -0.5,-0.5 l -1.5,0 c -0.28,0 -0.5,0.23 -0.5,0.5 0,0.28 0.22,0.5 0.5,0.5 z m -4.18,4.89 6.46,-5.39 -6.46,-5.38 c -0.22,-0.18 -0.53,-0.15 -0.71,0.07 -0.17,0.21 -0.15,0.52 0.07,0.7 l 6,5 0,-0.77 -6,5 c -0.21,0.18 -0.24,0.49 -0.06,0.71 0.18,0.21 0.49,0.24 0.7,0.06 z"
       inkscape:connector-curvature="0"
       id="path158"
       style="fill:#000000;fill-opacity:1;fill-rule:nonzero;stroke:none" /><g
       id="g160"><g
         clip-path="url(#clipPath164)"
         id="g162"><g
           id="g168"><g
             clip-path="url(#clipPath172)"
             id="g170"><text
   transform="matrix(1,0,0,-1,559.63,447.67)"
   id="text176"><tspan
     x="0"
     y="0"
     id="tspan178"
     style="font-size:12px;font-variant:normal;font-weight:normal;writing-mode:lr-tb;fill:#000000;fill-opacity:1;fill-rule:nonzero;stroke:none;font-family:Helvetica;-inkscape-font-specification:Helvetica">o</tspan></text>

</g></g><g
           id="g180"><g
             clip-path="url(#clipPath184)"
             id="g182"><text
   transform="matrix(1,0,0,-1,566.35,447.67)"
   id="text188"><tspan
     x="0 6.7080002 13.416 17.412001 24.084 27.42 29.976 36.683998 43.391998 51.419998 55.416"
     y="0"
     id="tspan190"
     style="font-size:12px;font-variant:normal;font-weight:normal;writing-mode:lr-tb;fill:#000000;fill-opacity:1;fill-rule:nonzero;stroke:none;font-family:Helvetica;-inkscape-font-specification:Helvetica">perationA()</tspan></text>

</g></g><g
           id="g192"><g
             clip-path="url(#clipPath196)"
             id="g194" /></g></g></g><path
       d="m 553.9,442.5 99,0 0,36 -99,0 0,-36 z"
       inkscape:connector-curvature="0"
       id="path200"
       style="fill:none;stroke:#000000;stroke-width:0.75;stroke-linecap:round;stroke-linejoin:miter;stroke-miterlimit:8;stroke-opacity:1;stroke-dasharray:none" /><path
       d="m 553.9,460.5 99,-0.05"
       inkscape:connector-curvature="0"
       id="path202"
       style="fill:none;stroke:#000000;stroke-width:0.75;stroke-linecap:round;stroke-linejoin:round;stroke-miterlimit:8;stroke-opacity:1;stroke-dasharray:none" /><g
       id="g204"><g
         clip-path="url(#clipPath208)"
         id="g206"><g
           id="g212"><g
             clip-path="url(#clipPath216)"
             id="g214"><text
   transform="matrix(1,0,0,-1,580.75,462.91)"
   id="text220"><tspan
     x="0 8.3999996 15.828 22.535999 29.868 33.816002 40.523998"
     y="0"
     id="tspan222"
     style="font-size:12px;font-variant:normal;font-weight:bold;writing-mode:lr-tb;fill:#000000;fill-opacity:1;fill-rule:nonzero;stroke:none;font-family:Helvetica;-inkscape-font-specification:Helvetica-Bold">Adapter</tspan></text>

</g></g><g
           id="g224"><g
             clip-path="url(#clipPath228)"
             id="g226" /></g></g></g><g
       id="g232"><g
         clip-path="url(#clipPath236)"
         id="g234"><g
           id="g240"><g
             clip-path="url(#clipPath244)"
             id="g242"><text
   transform="matrix(1,0,0,-1,712.66,546.67)"
   id="text248"><tspan
     x="0"
     y="0"
     id="tspan250"
     style="font-size:12px;font-variant:normal;font-weight:normal;writing-mode:lr-tb;fill:#000000;fill-opacity:1;fill-rule:nonzero;stroke:none;font-family:Helvetica;-inkscape-font-specification:Helvetica">o</tspan></text>

</g></g><g
           id="g252"><g
             clip-path="url(#clipPath256)"
             id="g254"><text
   transform="matrix(1,0,0,-1,719.38,546.67)"
   id="text260"><tspan
     x="0 6.7080002 13.416 17.412001 24.084 27.42 29.976 36.683998 43.391998 51.419998 55.416"
     y="0"
     id="tspan262"
     style="font-size:12px;font-variant:normal;font-weight:normal;writing-mode:lr-tb;fill:#000000;fill-opacity:1;fill-rule:nonzero;stroke:none;font-family:Helvetica;-inkscape-font-specification:Helvetica">perationB()</tspan></text>

</g></g><g
           id="g264"><g
             clip-path="url(#clipPath268)"
             id="g266" /></g></g></g><path
       d="m 687.45,542.25 136.3,0 0,38.25 -136.3,0 0,-38.25 z"
       inkscape:connector-curvature="0"
       id="path272"
       style="fill:none;stroke:#000000;stroke-width:0.75;stroke-linecap:round;stroke-linejoin:miter;stroke-miterlimit:8;stroke-opacity:1;stroke-dasharray:none" /><path
       d="m 687.6,560.5 136.3,-0.05"
       inkscape:connector-curvature="0"
       id="path274"
       style="fill:none;stroke:#000000;stroke-width:0.75;stroke-linecap:round;stroke-linejoin:round;stroke-miterlimit:8;stroke-opacity:1;stroke-dasharray:none" /><path
       d="m 603.4,523.5 -9,-18 18,0 -9,18 z"
       inkscape:connector-curvature="0"
       id="path276"
       style="fill:#ffffff;fill-opacity:1;fill-rule:evenodd;stroke:none" /><path
       d="m 603.4,523.5 -9,-18 18,0 -9,18 z"
       inkscape:connector-curvature="0"
       id="path278"
       style="fill:none;stroke:#000000;stroke-width:0.75;stroke-linecap:round;stroke-linejoin:round;stroke-miterlimit:8;stroke-opacity:1;stroke-dasharray:none" /><g
       id="g280"><path
         d="m 603.4,478.5 0.05,27"
         inkscape:connector-curvature="0"
         id="path282"
         style="fill:none;stroke:#000000;stroke-width:0.75;stroke-linecap:round;stroke-linejoin:round;stroke-miterlimit:8;stroke-opacity:1;stroke-dasharray:2.25, 3;stroke-dashoffset:0" /></g><path
       d="m 758.05,542.15 -9,-18 18,0 -9,18 z"
       inkscape:connector-curvature="0"
       id="path284"
       style="fill:#ffffff;fill-opacity:1;fill-rule:evenodd;stroke:none" /><path
       d="m 758.05,542.15 -9,-18 18,0 -9,18 z"
       inkscape:connector-curvature="0"
       id="path286"
       style="fill:none;stroke:#000000;stroke-width:0.75;stroke-linecap:round;stroke-linejoin:round;stroke-miterlimit:8;stroke-opacity:1;stroke-dasharray:none" /><path
       d="m 758,453.55 0.05,70.6"
       inkscape:connector-curvature="0"
       id="path288"
       style="fill:none;stroke:#000000;stroke-width:0.75;stroke-linecap:round;stroke-linejoin:round;stroke-miterlimit:8;stroke-opacity:1;stroke-dasharray:none" /><path
       d="M 758.1,453.45 652.9,453.5"
       inkscape:connector-curvature="0"
       id="path290"
       style="fill:none;stroke:#000000;stroke-width:0.75;stroke-linecap:round;stroke-linejoin:round;stroke-miterlimit:8;stroke-opacity:1;stroke-dasharray:none" /><g
       id="g292"><g
         clip-path="url(#clipPath296)"
         id="g294"><g
           id="g300"><g
             clip-path="url(#clipPath304)"
             id="g302"><text
   transform="matrix(1,0,0,-1,495.55,568.75)"
   id="text308"><tspan
     x="0"
     y="0"
     id="tspan310"
     style="font-size:12px;font-variant:normal;font-weight:normal;writing-mode:lr-tb;fill:#000000;fill-opacity:1;fill-rule:nonzero;stroke:none;font-family:Courier New;-inkscape-font-specification:Courier New">«</tspan></text>

</g></g><g
           id="g312"><g
             clip-path="url(#clipPath316)"
             id="g314"><text
   transform="matrix(1,0,0,-1,502.75,568.75)"
   id="text320"><tspan
     x="0 7.1999998 14.4 21.6"
     y="0"
     id="tspan322"
     style="font-size:12px;font-variant:normal;font-weight:normal;writing-mode:lr-tb;fill:#000000;fill-opacity:1;fill-rule:nonzero;stroke:none;font-family:Courier New;-inkscape-font-specification:Courier New">use»</tspan></text>

</g></g><g
           id="g324"><g
             clip-path="url(#clipPath328)"
             id="g326" /></g><g
           id="g332"><g
             clip-path="url(#clipPath336)"
             id="g334" /></g></g></g><g
       id="g340"><g
         clip-path="url(#clipPath344)"
         id="g342"><g
           id="g348"><g
             clip-path="url(#clipPath352)"
             id="g350"><text
   transform="matrix(1,0,0,-1,689.74,566.59)"
   id="text356"><tspan
     x="0 7.3319998 14.748 23.148001 30.48 37.152 44.616001 48.612 51.948002 58.619999"
     y="0"
     id="tspan358"
     style="font-size:12px;font-variant:normal;font-weight:bold;writing-mode:lr-tb;fill:#000000;fill-opacity:1;fill-rule:nonzero;stroke:none;font-family:Helvetica;-inkscape-font-specification:Helvetica-Bold">ZuAdaptier</tspan></text>

</g></g><g
           id="g360"><g
             clip-path="url(#clipPath364)"
             id="g362"><text
   transform="matrix(1,0,0,-1,753.1,566.59)"
   id="text368"><tspan
     x="0"
     y="0"
     id="tspan370"
     style="font-size:12px;font-variant:normal;font-weight:bold;writing-mode:lr-tb;fill:#000000;fill-opacity:1;fill-rule:nonzero;stroke:none;font-family:Helvetica;-inkscape-font-specification:Helvetica-Bold">e</tspan></text>

</g></g><g
           id="g372"><g
             clip-path="url(#clipPath376)"
             id="g374"><text
   transform="matrix(1,0,0,-1,759.82,566.59)"
   id="text380"><tspan
     x="0 7.3200002 14.64"
     y="0"
     id="tspan382"
     style="font-size:12px;font-variant:normal;font-weight:bold;writing-mode:lr-tb;fill:#000000;fill-opacity:1;fill-rule:nonzero;stroke:none;font-family:Helvetica;-inkscape-font-specification:Helvetica-Bold">nde</tspan></text>

</g></g><g
           id="g384"><g
             clip-path="url(#clipPath388)"
             id="g386"><text
   transform="matrix(1,0,0,-1,781.18,566.59)"
   id="text392"><tspan
     x="0 8.6639996 12 18.6 25.200001 31.908001"
     y="0"
     id="tspan394"
     style="font-size:12px;font-variant:normal;font-weight:bold;writing-mode:lr-tb;fill:#000000;fill-opacity:1;fill-rule:nonzero;stroke:none;font-family:Helvetica;-inkscape-font-specification:Helvetica-Bold">Klasse</tspan></text>

</g></g><g
           id="g396"><g
             clip-path="url(#clipPath400)"
             id="g398" /></g></g></g><path
       d="m 506.15,480 0,-10.15 21,0 -21,10.15 z"
       inkscape:connector-curvature="0"
       id="path404"
       style="fill:#ffffff;fill-opacity:1;fill-rule:evenodd;stroke:none" /><path
       d="m 506.15,480 0,-10.15 21,0 -21,10.15 z"
       inkscape:connector-curvature="0"
       id="path406"
       style="fill:none;stroke:#000000;stroke-width:0.75;stroke-linecap:round;stroke-linejoin:round;stroke-miterlimit:8;stroke-opacity:1;stroke-dasharray:none" /><path
       d="m 527.15,469.85 0,-27.15"
       inkscape:connector-curvature="0"
       id="path408"
       style="fill:none;stroke:#000000;stroke-width:0.75;stroke-linecap:round;stroke-linejoin:round;stroke-miterlimit:8;stroke-opacity:1;stroke-dasharray:none" /><path
       d="m 527.15,442.7 -94.5,0"
       inkscape:connector-curvature="0"
       id="path410"
       style="fill:none;stroke:#000000;stroke-width:0.75;stroke-linecap:round;stroke-linejoin:round;stroke-miterlimit:8;stroke-opacity:1;stroke-dasharray:none" /><path
       d="m 432.65,442.7 0,37.3"
       inkscape:connector-curvature="0"
       id="path412"
       style="fill:none;stroke:#000000;stroke-width:0.75;stroke-linecap:round;stroke-linejoin:round;stroke-miterlimit:8;stroke-opacity:1;stroke-dasharray:none" /><path
       d="m 506.15,480 -73.5,0"
       inkscape:connector-curvature="0"
       id="path414"
       style="fill:none;stroke:#000000;stroke-width:0.75;stroke-linecap:round;stroke-linejoin:round;stroke-miterlimit:8;stroke-opacity:1;stroke-dasharray:none" /><g
       id="g416"><g
         clip-path="url(#clipPath420)"
         id="g418"><g
           id="g424"><g
             clip-path="url(#clipPath428)"
             id="g426"><text
   transform="matrix(1,0,0,-1,439.37,462.55)"
   id="text432"><tspan
     x="0 3.9960001 10.668 14.004 17.388 20.724001 27.455999 34.056 37.391998"
     y="0"
     id="tspan434"
     style="font-size:12px;font-variant:normal;font-weight:normal;writing-mode:lr-tb;fill:#000000;fill-opacity:1;fill-rule:nonzero;stroke:none;font-family:Helvetica;-inkscape-font-specification:Helvetica">ruft auf:</tspan></text>

</g></g><g
           id="g436"><g
             clip-path="url(#clipPath440)"
             id="g438" /></g><g
           id="g444"><g
             clip-path="url(#clipPath448)"
             id="g446"><text
   transform="matrix(1,0,0,-1,439.37,448.63)"
   id="text452"><tspan
     x="0 3.336 10.068 12.732 18.732 22.068001 28.775999 35.375999 42.084 46.080002 52.751999 56.088001 58.751999 65.363998 72.071999"
     y="0"
     id="tspan454"
     style="font-size:12px;font-variant:normal;font-weight:normal;writing-mode:lr-tb;fill:#000000;fill-opacity:1;fill-rule:nonzero;stroke:none;font-family:Helvetica;-inkscape-font-specification:Helvetica">this.operationB</tspan></text>

</g></g><g
           id="g456"><g
             clip-path="url(#clipPath460)"
             id="g458" /></g></g></g><g
       id="g464"><path
         d="m 553.9,456.7 -26.5,0.05"
         inkscape:connector-curvature="0"
         id="path466"
         style="fill:none;stroke:#000000;stroke-width:0.75;stroke-linecap:round;stroke-linejoin:round;stroke-miterlimit:8;stroke-opacity:1;stroke-dasharray:5.25, 3;stroke-dashoffset:0" /></g></g></svg>