<?xml version="1.0" encoding="UTF-8" standalone="no"?>
<!-- Created with Inkscape (http://www.inkscape.org/) -->

<svg
   xmlns:dc="http://purl.org/dc/elements/1.1/"
   xmlns:cc="http://creativecommons.org/ns#"
   xmlns:rdf="http://www.w3.org/1999/02/22-rdf-syntax-ns#"
   xmlns:svg="http://www.w3.org/2000/svg"
   xmlns="http://www.w3.org/2000/svg"
   xmlns:sodipodi="http://sodipodi.sourceforge.net/DTD/sodipodi-0.dtd"
   xmlns:inkscape="http://www.inkscape.org/namespaces/inkscape"
   version="1.1"
   width="465"
   height="252.1875"
   id="svg2"
   xml:space="preserve"
   inkscape:version="0.48.4 r9939"
   sodipodi:docname="Bild 4-48 Klassendiagramm mit mehreren Rollen für eine Kernklasse.svg"><sodipodi:namedview
     pagecolor="#ffffff"
     bordercolor="#666666"
     borderopacity="1"
     objecttolerance="10"
     gridtolerance="10"
     guidetolerance="10"
     inkscape:pageopacity="0"
     inkscape:pageshadow="2"
     inkscape:window-width="640"
     inkscape:window-height="480"
     id="namedview212"
     showgrid="false"
     inkscape:zoom="0.18730159"
     inkscape:cx="367.40625"
     inkscape:cy="169.21875"
     inkscape:window-x="0"
     inkscape:window-y="0"
     inkscape:window-maximized="0"
     inkscape:current-layer="svg2" /><metadata
     id="metadata8"><rdf:RDF><cc:Work
         rdf:about=""><dc:format>image/svg+xml</dc:format><dc:type
           rdf:resource="http://purl.org/dc/dcmitype/StillImage" /></cc:Work></rdf:RDF></metadata><defs
     id="defs6"><clipPath
       id="clipPath20"><path
         d="m 211.23,489.91 109.45,0 0,76.08 -109.45,0 0,-76.08 z"
         inkscape:connector-curvature="0"
         id="path22" /></clipPath><clipPath
       id="clipPath28"><path
         d="m 211.22,489.91 109.46,0 0,76.08 -109.46,0 0,-76.08 z"
         inkscape:connector-curvature="0"
         id="path30" /></clipPath><clipPath
       id="clipPath40"><path
         d="m 211.22,489.91 109.46,0 0,76.08 -109.46,0 0,-76.08 z"
         inkscape:connector-curvature="0"
         id="path42" /></clipPath><clipPath
       id="clipPath48"><path
         d="m 211.22,489.91 109.46,0 0,76.08 -109.46,0 0,-76.08 z"
         inkscape:connector-curvature="0"
         id="path50" /></clipPath><clipPath
       id="clipPath56"><path
         d="m 211.22,489.91 109.46,0 0,76.08 -109.46,0 0,-76.08 z"
         inkscape:connector-curvature="0"
         id="path58" /></clipPath><clipPath
       id="clipPath68"><path
         d="m 211.22,489.91 109.46,0 0,76.08 -109.46,0 0,-76.08 z"
         inkscape:connector-curvature="0"
         id="path70" /></clipPath><clipPath
       id="clipPath80"><path
         d="m 211.22,489.91 109.46,0 0,76.08 -109.46,0 0,-76.08 z"
         inkscape:connector-curvature="0"
         id="path82" /></clipPath><clipPath
       id="clipPath88"><path
         d="m 211.22,489.91 109.46,0 0,76.08 -109.46,0 0,-76.08 z"
         inkscape:connector-curvature="0"
         id="path90" /></clipPath><clipPath
       id="clipPath100"><path
         d="m 211.22,489.91 109.46,0 0,76.08 -109.46,0 0,-76.08 z"
         inkscape:connector-curvature="0"
         id="path102" /></clipPath><clipPath
       id="clipPath108"><path
         d="m 211.22,489.91 109.46,0 0,76.08 -109.46,0 0,-76.08 z"
         inkscape:connector-curvature="0"
         id="path110" /></clipPath><clipPath
       id="clipPath120"><path
         d="m 211.22,489.91 109.46,0 0,76.08 -109.46,0 0,-76.08 z"
         inkscape:connector-curvature="0"
         id="path122" /></clipPath><clipPath
       id="clipPath132"><path
         d="m 335.69,489.91 114,0 0,76.08 -114,0 0,-76.08 z"
         inkscape:connector-curvature="0"
         id="path134" /></clipPath><clipPath
       id="clipPath140"><path
         d="m 335.69,489.91 114,0 0,76.08 -114,0 0,-76.08 z"
         inkscape:connector-curvature="0"
         id="path142" /></clipPath><clipPath
       id="clipPath152"><path
         d="m 335.69,489.91 114,0 0,76.08 -114,0 0,-76.08 z"
         inkscape:connector-curvature="0"
         id="path154" /></clipPath><clipPath
       id="clipPath160"><path
         d="m 335.69,489.91 114,0 0,76.08 -114,0 0,-76.08 z"
         inkscape:connector-curvature="0"
         id="path162" /></clipPath><clipPath
       id="clipPath168"><path
         d="m 335.69,489.91 114,0 0,76.08 -114,0 0,-76.08 z"
         inkscape:connector-curvature="0"
         id="path170" /></clipPath><clipPath
       id="clipPath180"><path
         d="m 335.69,489.91 114,0 0,76.08 -114,0 0,-76.08 z"
         inkscape:connector-curvature="0"
         id="path182" /></clipPath><clipPath
       id="clipPath192"><path
         d="m 335.69,489.91 114,0 0,76.08 -114,0 0,-76.08 z"
         inkscape:connector-curvature="0"
         id="path194" /></clipPath><clipPath
       id="clipPath200"><path
         d="m 335.69,489.91 114,0 0,76.08 -114,0 0,-76.08 z"
         inkscape:connector-curvature="0"
         id="path202" /></clipPath><clipPath
       id="clipPath212"><path
         d="m 335.69,489.91 114,0 0,76.08 -114,0 0,-76.08 z"
         inkscape:connector-curvature="0"
         id="path214" /></clipPath><clipPath
       id="clipPath220"><path
         d="m 335.69,489.91 114,0 0,76.08 -114,0 0,-76.08 z"
         inkscape:connector-curvature="0"
         id="path222" /></clipPath><clipPath
       id="clipPath232"><path
         d="m 335.69,489.91 114,0 0,76.08 -114,0 0,-76.08 z"
         inkscape:connector-curvature="0"
         id="path234" /></clipPath><clipPath
       id="clipPath244"><path
         d="m 466.25,489.91 115.47,0 0,76.08 -115.47,0 0,-76.08 z"
         inkscape:connector-curvature="0"
         id="path246" /></clipPath><clipPath
       id="clipPath252"><path
         d="m 466.25,489.91 115.46,0 0,76.08 -115.46,0 0,-76.08 z"
         inkscape:connector-curvature="0"
         id="path254" /></clipPath><clipPath
       id="clipPath264"><path
         d="m 466.25,489.91 115.46,0 0,76.08 -115.46,0 0,-76.08 z"
         inkscape:connector-curvature="0"
         id="path266" /></clipPath><clipPath
       id="clipPath272"><path
         d="m 466.25,489.91 115.46,0 0,76.08 -115.46,0 0,-76.08 z"
         inkscape:connector-curvature="0"
         id="path274" /></clipPath><clipPath
       id="clipPath280"><path
         d="m 466.25,489.91 115.46,0 0,76.08 -115.46,0 0,-76.08 z"
         inkscape:connector-curvature="0"
         id="path282" /></clipPath><clipPath
       id="clipPath292"><path
         d="m 466.25,489.91 115.46,0 0,76.08 -115.46,0 0,-76.08 z"
         inkscape:connector-curvature="0"
         id="path294" /></clipPath><clipPath
       id="clipPath304"><path
         d="m 466.25,489.91 115.46,0 0,76.08 -115.46,0 0,-76.08 z"
         inkscape:connector-curvature="0"
         id="path306" /></clipPath><clipPath
       id="clipPath312"><path
         d="m 466.25,489.91 115.46,0 0,76.08 -115.46,0 0,-76.08 z"
         inkscape:connector-curvature="0"
         id="path314" /></clipPath><clipPath
       id="clipPath320"><path
         d="m 466.25,489.91 115.46,0 0,76.08 -115.46,0 0,-76.08 z"
         inkscape:connector-curvature="0"
         id="path322" /></clipPath><clipPath
       id="clipPath332"><path
         d="m 466.25,489.91 115.46,0 0,76.08 -115.46,0 0,-76.08 z"
         inkscape:connector-curvature="0"
         id="path334" /></clipPath><clipPath
       id="clipPath340"><path
         d="m 466.25,489.91 115.46,0 0,76.08 -115.46,0 0,-76.08 z"
         inkscape:connector-curvature="0"
         id="path342" /></clipPath><clipPath
       id="clipPath352"><path
         d="m 466.25,489.91 115.46,0 0,76.08 -115.46,0 0,-76.08 z"
         inkscape:connector-curvature="0"
         id="path354" /></clipPath><clipPath
       id="clipPath364"><path
         d="m 466.25,489.91 115.46,0 0,76.08 -115.46,0 0,-76.08 z"
         inkscape:connector-curvature="0"
         id="path366" /></clipPath><clipPath
       id="clipPath382"><path
         d="m 343.61,372.88 97.44,0 0,54.24 -97.44,0 0,-54.24 z"
         inkscape:connector-curvature="0"
         id="path384" /></clipPath><clipPath
       id="clipPath390"><path
         d="m 343.61,372.89 97.44,0 0,54.24 -97.44,0 0,-54.24 z"
         inkscape:connector-curvature="0"
         id="path392" /></clipPath><clipPath
       id="clipPath402"><path
         d="m 343.61,372.89 97.44,0 0,54.24 -97.44,0 0,-54.24 z"
         inkscape:connector-curvature="0"
         id="path404" /></clipPath></defs><g
     transform="matrix(1.25,0,0,-1.25,-262.96875,712.96875)"
     id="g10"><path
       d="m 210.75,486 110.25,0 0,84 -110.25,0 0,-84 z"
       inkscape:connector-curvature="0"
       id="path12"
       style="fill:#ffffff;fill-opacity:1;fill-rule:evenodd;stroke:none" /><path
       d="m 210.75,486 110.25,0 0,84 -110.25,0 0,-84 z"
       inkscape:connector-curvature="0"
       id="path14"
       style="fill:none;stroke:#000000;stroke-width:0.75;stroke-linecap:round;stroke-linejoin:miter;stroke-miterlimit:10;stroke-opacity:1;stroke-dasharray:none" /><g
       id="g16"><g
         clip-path="url(#clipPath20)"
         id="g18"><g
           id="g24"><g
             clip-path="url(#clipPath28)"
             id="g26"><text
   transform="matrix(1,0,0,-1,246.98,554.95)"
   id="text32"><tspan
     x="0 8.6639996 15.996 19.332001 22.667999 29.507999"
     y="0"
     id="tspan34"
     style="font-size:12px;font-variant:normal;font-weight:bold;writing-mode:lr-tb;fill:#000000;fill-opacity:1;fill-rule:nonzero;stroke:none;font-family:Helvetica;-inkscape-font-specification:Helvetica-Bold">RolleA</tspan></text>

</g></g><g
           id="g36"><g
             clip-path="url(#clipPath40)"
             id="g38" /></g><g
           id="g44"><g
             clip-path="url(#clipPath48)"
             id="g46" /></g><g
           id="g52"><g
             clip-path="url(#clipPath56)"
             id="g54"><text
   transform="matrix(1,0,0,-1,218.42,527.35)"
   id="text60"><tspan
     x="0 6.96"
     y="0"
     id="tspan62"
     style="font-size:12px;font-variant:normal;font-weight:normal;writing-mode:lr-tb;fill:#000000;fill-opacity:1;fill-rule:nonzero;stroke:none;font-family:Helvetica;-inkscape-font-specification:Helvetica">+ </tspan></text>

</g></g><g
           id="g64"><g
             clip-path="url(#clipPath68)"
             id="g66"><text
   transform="matrix(1,0,0,-1,228.74,527.35)"
   id="text72"><tspan
     x="0 6.5999999 13.308 16.643999 24.695999 31.403999 35.400002 42.071999 51.408001 58.152 60.816002 67.487999 73.391998 76.727997 80.723999"
     y="0"
     id="tspan74"
     style="font-size:12px;font-variant:normal;font-weight:normal;writing-mode:lr-tb;fill:#000000;fill-opacity:1;fill-rule:nonzero;stroke:none;font-family:Helvetica;-inkscape-font-specification:Helvetica">getKernObjekt()</tspan></text>

</g></g><g
           id="g76"><g
             clip-path="url(#clipPath80)"
             id="g78" /></g><g
           id="g84"><g
             clip-path="url(#clipPath88)"
             id="g86"><text
   transform="matrix(1,0,0,-1,231.98,513.55)"
   id="text92"><tspan
     x="0 3.336 6.7080002 14.736 21.444 25.440001 32.112 40.152 42.672001 49.380001 55.380001 61.380001"
     y="0"
     id="tspan94"
     style="font-size:12px;font-variant:normal;font-weight:normal;writing-mode:lr-tb;fill:#000000;fill-opacity:1;fill-rule:nonzero;stroke:none;font-family:Helvetica;-inkscape-font-specification:Helvetica">: KernKlasse</tspan></text>

</g></g><g
           id="g96"><g
             clip-path="url(#clipPath100)"
             id="g98" /></g><g
           id="g104"><g
             clip-path="url(#clipPath108)"
             id="g106"><text
   transform="matrix(1,0,0,-1,218.42,499.75)"
   id="text112"><tspan
     x="0 6.96 10.296 17.028 23.736 30.444 34.439999 41.112 44.448002 47.112 53.723999 60.431999 68.459999 72.456001"
     y="0"
     id="tspan114"
     style="font-size:12px;font-variant:normal;font-weight:normal;writing-mode:lr-tb;fill:#000000;fill-opacity:1;fill-rule:nonzero;stroke:none;font-family:Helvetica;-inkscape-font-specification:Helvetica">+ operationA()</tspan></text>

</g></g><g
           id="g116"><g
             clip-path="url(#clipPath120)"
             id="g118" /></g></g></g><path
       d="m 335.25,486 114.75,0 0,84 -114.75,0 0,-84 z"
       inkscape:connector-curvature="0"
       id="path124"
       style="fill:#ffffff;fill-opacity:1;fill-rule:evenodd;stroke:none" /><path
       d="m 335.25,486 114.75,0 0,84 -114.75,0 0,-84 z"
       inkscape:connector-curvature="0"
       id="path126"
       style="fill:none;stroke:#000000;stroke-width:0.75;stroke-linecap:round;stroke-linejoin:miter;stroke-miterlimit:10;stroke-opacity:1;stroke-dasharray:none" /><g
       id="g128"><g
         clip-path="url(#clipPath132)"
         id="g130"><g
           id="g136"><g
             clip-path="url(#clipPath140)"
             id="g138"><text
   transform="matrix(1,0,0,-1,373.61,554.95)"
   id="text144"><tspan
     x="0 8.6639996 15.996 19.332001 22.667999 29.388"
     y="0"
     id="tspan146"
     style="font-size:12px;font-variant:normal;font-weight:bold;writing-mode:lr-tb;fill:#000000;fill-opacity:1;fill-rule:nonzero;stroke:none;font-family:Helvetica;-inkscape-font-specification:Helvetica-Bold">RolleB</tspan></text>

</g></g><g
           id="g148"><g
             clip-path="url(#clipPath152)"
             id="g150" /></g><g
           id="g156"><g
             clip-path="url(#clipPath160)"
             id="g158" /></g><g
           id="g164"><g
             clip-path="url(#clipPath168)"
             id="g166"><text
   transform="matrix(1,0,0,-1,342.89,527.35)"
   id="text172"><tspan
     x="0 6.96"
     y="0"
     id="tspan174"
     style="font-size:12px;font-variant:normal;font-weight:normal;writing-mode:lr-tb;fill:#000000;fill-opacity:1;fill-rule:nonzero;stroke:none;font-family:Helvetica;-inkscape-font-specification:Helvetica">+ </tspan></text>

</g></g><g
           id="g176"><g
             clip-path="url(#clipPath180)"
             id="g178"><text
   transform="matrix(1,0,0,-1,353.21,527.35)"
   id="text184"><tspan
     x="0 6.5999999 13.308 16.643999 24.695999 31.403999 35.400002 42.071999 51.408001 58.152 60.816002 67.487999 73.391998 76.727997 80.723999"
     y="0"
     id="tspan186"
     style="font-size:12px;font-variant:normal;font-weight:normal;writing-mode:lr-tb;fill:#000000;fill-opacity:1;fill-rule:nonzero;stroke:none;font-family:Helvetica;-inkscape-font-specification:Helvetica">getKernObjekt()</tspan></text>

</g></g><g
           id="g188"><g
             clip-path="url(#clipPath192)"
             id="g190" /></g><g
           id="g196"><g
             clip-path="url(#clipPath200)"
             id="g198"><text
   transform="matrix(1,0,0,-1,358.61,513.55)"
   id="text204"><tspan
     x="0 3.336 6.7080002 14.736 21.444 25.440001 32.112 40.152 42.672001 49.380001 55.380001 61.380001"
     y="0"
     id="tspan206"
     style="font-size:12px;font-variant:normal;font-weight:normal;writing-mode:lr-tb;fill:#000000;fill-opacity:1;fill-rule:nonzero;stroke:none;font-family:Helvetica;-inkscape-font-specification:Helvetica">: KernKlasse</tspan></text>

</g></g><g
           id="g208"><g
             clip-path="url(#clipPath212)"
             id="g210" /></g><g
           id="g216"><g
             clip-path="url(#clipPath220)"
             id="g218"><text
   transform="matrix(1,0,0,-1,342.89,499.75)"
   id="text224"><tspan
     x="0 6.96 10.296 17.028 23.736 30.444 34.439999 41.112 44.448002 47.112 53.723999 60.431999 68.459999 72.456001"
     y="0"
     id="tspan226"
     style="font-size:12px;font-variant:normal;font-weight:normal;writing-mode:lr-tb;fill:#000000;fill-opacity:1;fill-rule:nonzero;stroke:none;font-family:Helvetica;-inkscape-font-specification:Helvetica">+ operationB()</tspan></text>

</g></g><g
           id="g228"><g
             clip-path="url(#clipPath232)"
             id="g230" /></g></g></g><path
       d="m 465.75,486 116.25,0 0,84 -116.25,0 0,-84 z"
       inkscape:connector-curvature="0"
       id="path236"
       style="fill:#ffffff;fill-opacity:1;fill-rule:evenodd;stroke:none" /><path
       d="m 465.75,486 116.25,0 0,84 -116.25,0 0,-84 z"
       inkscape:connector-curvature="0"
       id="path238"
       style="fill:none;stroke:#000000;stroke-width:0.75;stroke-linecap:round;stroke-linejoin:miter;stroke-miterlimit:10;stroke-opacity:1;stroke-dasharray:none" /><g
       id="g240"><g
         clip-path="url(#clipPath244)"
         id="g242"><g
           id="g248"><g
             clip-path="url(#clipPath252)"
             id="g250"><text
   transform="matrix(1,0,0,-1,505.03,554.95)"
   id="text256"><tspan
     x="0 8.6639996 15.996 19.332001 22.667999 29.388"
     y="0"
     id="tspan258"
     style="font-size:12px;font-variant:normal;font-weight:bold;writing-mode:lr-tb;fill:#000000;fill-opacity:1;fill-rule:nonzero;stroke:none;font-family:Helvetica;-inkscape-font-specification:Helvetica-Bold">RolleC</tspan></text>

</g></g><g
           id="g260"><g
             clip-path="url(#clipPath264)"
             id="g262" /></g><g
           id="g268"><g
             clip-path="url(#clipPath272)"
             id="g270" /></g><g
           id="g276"><g
             clip-path="url(#clipPath280)"
             id="g278"><text
   transform="matrix(1,0,0,-1,473.47,527.35)"
   id="text284"><tspan
     x="0 6.96"
     y="0"
     id="tspan286"
     style="font-size:12px;font-variant:normal;font-weight:normal;writing-mode:lr-tb;fill:#000000;fill-opacity:1;fill-rule:nonzero;stroke:none;font-family:Helvetica;-inkscape-font-specification:Helvetica">+ </tspan></text>

</g></g><g
           id="g288"><g
             clip-path="url(#clipPath292)"
             id="g290"><text
   transform="matrix(1,0,0,-1,483.79,527.35)"
   id="text296"><tspan
     x="0 6.5999999 13.308 16.643999 24.695999 31.403999 35.400002 42.071999 51.408001 58.152 60.816002 67.487999 73.391998 76.727997 80.723999"
     y="0"
     id="tspan298"
     style="font-size:12px;font-variant:normal;font-weight:normal;writing-mode:lr-tb;fill:#000000;fill-opacity:1;fill-rule:nonzero;stroke:none;font-family:Helvetica;-inkscape-font-specification:Helvetica">getKernObjekt()</tspan></text>

</g></g><g
           id="g300"><g
             clip-path="url(#clipPath304)"
             id="g302" /></g><g
           id="g308"><g
             clip-path="url(#clipPath312)"
             id="g310" /></g><g
           id="g316"><g
             clip-path="url(#clipPath320)"
             id="g318"><text
   transform="matrix(1,0,0,-1,491.71,513.55)"
   id="text324"><tspan
     x="0 3.336 6.7080002 14.736 21.444 25.440001 32.004002 40.032001 42.695999 49.368 55.368 61.368"
     y="0"
     id="tspan326"
     style="font-size:12px;font-variant:normal;font-weight:normal;writing-mode:lr-tb;fill:#000000;fill-opacity:1;fill-rule:nonzero;stroke:none;font-family:Helvetica;-inkscape-font-specification:Helvetica">: KernKlasse</tspan></text>

</g></g><g
           id="g328"><g
             clip-path="url(#clipPath332)"
             id="g330" /></g><g
           id="g336"><g
             clip-path="url(#clipPath340)"
             id="g338"><text
   transform="matrix(1,0,0,-1,473.47,499.75)"
   id="text344"><tspan
     x="0 6.96 10.296 17.028 23.736 30.444 34.439999 41.112 44.448002 47.112 53.723999 60.431999"
     y="0"
     id="tspan346"
     style="font-size:12px;font-variant:normal;font-weight:normal;writing-mode:lr-tb;fill:#000000;fill-opacity:1;fill-rule:nonzero;stroke:none;font-family:Helvetica;-inkscape-font-specification:Helvetica">+ operationC</tspan></text>

</g></g><g
           id="g348"><g
             clip-path="url(#clipPath352)"
             id="g350"><text
   transform="matrix(1,0,0,-1,542.59,499.75)"
   id="text356"><tspan
     x="0 3.96"
     y="0"
     id="tspan358"
     style="font-size:12px;font-variant:normal;font-weight:normal;writing-mode:lr-tb;fill:#000000;fill-opacity:1;fill-rule:nonzero;stroke:none;font-family:Helvetica;-inkscape-font-specification:Helvetica">()</tspan></text>

</g></g><g
           id="g360"><g
             clip-path="url(#clipPath364)"
             id="g362" /></g></g></g><path
       d="M 310.5,475.5 357,431.25"
       inkscape:connector-curvature="0"
       id="path368"
       style="fill:none;stroke:#000000;stroke-width:0.75;stroke-linecap:round;stroke-linejoin:round;stroke-miterlimit:10;stroke-opacity:1;stroke-dasharray:none" /><path
       d="m 392.55,486 0,-54.75"
       inkscape:connector-curvature="0"
       id="path370"
       style="fill:none;stroke:#000000;stroke-width:0.75;stroke-linecap:round;stroke-linejoin:round;stroke-miterlimit:10;stroke-opacity:1;stroke-dasharray:none" /><path
       d="M 477.15,476.4 423,431.25"
       inkscape:connector-curvature="0"
       id="path372"
       style="fill:none;stroke:#000000;stroke-width:0.75;stroke-linecap:round;stroke-linejoin:round;stroke-miterlimit:10;stroke-opacity:1;stroke-dasharray:none" /><path
       d="m 343.2,369 98.25,0 0,62.25 -98.25,0 0,-62.25 z"
       inkscape:connector-curvature="0"
       id="path374"
       style="fill:#ffffff;fill-opacity:1;fill-rule:evenodd;stroke:none" /><path
       d="m 343.2,369 98.25,0 0,62.25 -98.25,0 0,-62.25 z"
       inkscape:connector-curvature="0"
       id="path376"
       style="fill:none;stroke:#000000;stroke-width:0.75;stroke-linecap:round;stroke-linejoin:miter;stroke-miterlimit:8;stroke-opacity:1;stroke-dasharray:none" /><g
       id="g378"><g
         clip-path="url(#clipPath382)"
         id="g380"><g
           id="g386"><g
             clip-path="url(#clipPath390)"
             id="g388"><text
   transform="matrix(1,0,0,-1,359.33,415.61)"
   id="text394"><tspan
     x="0 8.6639996 15.336 20.004 27.336 36 39.335999 46.068001 52.776001 59.375999"
     y="0"
     id="tspan396"
     style="font-size:12px;font-variant:normal;font-weight:bold;writing-mode:lr-tb;fill:#000000;fill-opacity:1;fill-rule:nonzero;stroke:none;font-family:Helvetica;-inkscape-font-specification:Helvetica-Bold">KernKlasse</tspan></text>

</g></g><g
           id="g398"><g
             clip-path="url(#clipPath402)"
             id="g400" /></g></g></g><path
       d="M 210.75,546 321,546"
       inkscape:connector-curvature="0"
       id="path406"
       style="fill:none;stroke:#000000;stroke-width:0.75;stroke-linecap:round;stroke-linejoin:round;stroke-miterlimit:8;stroke-opacity:1;stroke-dasharray:none" /><path
       d="m 335.1,546 114.75,0"
       inkscape:connector-curvature="0"
       id="path408"
       style="fill:none;stroke:#000000;stroke-width:0.75;stroke-linecap:round;stroke-linejoin:round;stroke-miterlimit:8;stroke-opacity:1;stroke-dasharray:none" /><path
       d="M 465.75,546 582,546"
       inkscape:connector-curvature="0"
       id="path410"
       style="fill:none;stroke:#000000;stroke-width:0.75;stroke-linecap:round;stroke-linejoin:round;stroke-miterlimit:8;stroke-opacity:1;stroke-dasharray:none" /><path
       d="m 392.63,485.85 -4.88,-6.37 4.88,-6.38 4.87,6.38 -4.87,6.37 z"
       inkscape:connector-curvature="0"
       id="path412"
       style="fill:#ffffff;fill-opacity:1;fill-rule:evenodd;stroke:none" /><path
       d="m 392.63,485.85 -4.88,-6.37 4.88,-6.38 4.87,6.38 -4.87,6.37 z"
       inkscape:connector-curvature="0"
       id="path414"
       style="fill:none;stroke:#000000;stroke-width:0.75;stroke-linecap:round;stroke-linejoin:round;stroke-miterlimit:8;stroke-opacity:1;stroke-dasharray:none" /><path
       d="m 485.39,485.71 -7.89,-1.47 -0.64,-8 7.89,1.47 0.64,8 z"
       inkscape:connector-curvature="0"
       id="path416"
       style="fill:#ffffff;fill-opacity:1;fill-rule:evenodd;stroke:none" /><path
       d="m 485.39,485.71 -7.89,-1.47 -0.64,-8 7.89,1.47 0.64,8 z"
       inkscape:connector-curvature="0"
       id="path418"
       style="fill:none;stroke:#000000;stroke-width:0.75;stroke-linecap:round;stroke-linejoin:round;stroke-miterlimit:8;stroke-opacity:1;stroke-dasharray:none" /><path
       d="m 301.98,485.56 0.36,-8.02 7.83,-1.75 -0.36,8.02 -7.83,1.75 z"
       inkscape:connector-curvature="0"
       id="path420"
       style="fill:#ffffff;fill-opacity:1;fill-rule:evenodd;stroke:none" /><path
       d="m 301.98,485.56 0.36,-8.02 7.83,-1.75 -0.36,8.02 -7.83,1.75 z"
       inkscape:connector-curvature="0"
       id="path422"
       style="fill:none;stroke:#000000;stroke-width:0.75;stroke-linecap:round;stroke-linejoin:round;stroke-miterlimit:8;stroke-opacity:1;stroke-dasharray:none" /></g></svg>