<?xml version="1.0" encoding="UTF-8" standalone="no"?>
<!-- Created with Inkscape (http://www.inkscape.org/) -->

<svg
   xmlns:dc="http://purl.org/dc/elements/1.1/"
   xmlns:cc="http://creativecommons.org/ns#"
   xmlns:rdf="http://www.w3.org/1999/02/22-rdf-syntax-ns#"
   xmlns:svg="http://www.w3.org/2000/svg"
   xmlns="http://www.w3.org/2000/svg"
   xmlns:sodipodi="http://sodipodi.sourceforge.net/DTD/sodipodi-0.dtd"
   xmlns:inkscape="http://www.inkscape.org/namespaces/inkscape"
   version="1.1"
   width="675.9375"
   height="365.9375"
   id="svg2"
   xml:space="preserve"
   inkscape:version="0.48.4 r9939"
   sodipodi:docname="Bild 4-29 Klassendiagramm des Befehlsmusters.svg"><sodipodi:namedview
     pagecolor="#ffffff"
     bordercolor="#666666"
     borderopacity="1"
     objecttolerance="10"
     gridtolerance="10"
     guidetolerance="10"
     inkscape:pageopacity="0"
     inkscape:pageshadow="2"
     inkscape:window-width="640"
     inkscape:window-height="480"
     id="namedview334"
     showgrid="false"
     inkscape:zoom="0.18730159"
     inkscape:cx="582.09375"
     inkscape:cy="218.28125"
     inkscape:window-x="0"
     inkscape:window-y="0"
     inkscape:window-maximized="0"
     inkscape:current-layer="svg2" /><metadata
     id="metadata8"><rdf:RDF><cc:Work
         rdf:about=""><dc:format>image/svg+xml</dc:format><dc:type
           rdf:resource="http://purl.org/dc/dcmitype/StillImage" /></cc:Work></rdf:RDF></metadata><defs
     id="defs6"><clipPath
       id="clipPath30"><path
         d="m 133.59,540.55 84,0 0,13.8 -84,0 0,-13.8 z"
         inkscape:connector-curvature="0"
         id="path32" /></clipPath><clipPath
       id="clipPath38"><path
         d="m 133.58,540.55 84,0 0,13.8 -84,0 0,-13.8 z"
         inkscape:connector-curvature="0"
         id="path40" /></clipPath><clipPath
       id="clipPath50"><path
         d="m 133.58,540.55 84,0 0,13.8 -84,0 0,-13.8 z"
         inkscape:connector-curvature="0"
         id="path52" /></clipPath><clipPath
       id="clipPath58"><path
         d="m 133.58,540.55 84,0 0,13.8 -84,0 0,-13.8 z"
         inkscape:connector-curvature="0"
         id="path60" /></clipPath><clipPath
       id="clipPath66"><path
         d="m 133.58,540.55 84,0 0,13.8 -84,0 0,-13.8 z"
         inkscape:connector-curvature="0"
         id="path68" /></clipPath><clipPath
       id="clipPath80"><path
         d="m 216.39,450.19 96.015,0 0,52.8 -96.015,0 0,-52.8 z"
         inkscape:connector-curvature="0"
         id="path82" /></clipPath><clipPath
       id="clipPath88"><path
         d="m 216.38,450.19 96.024,0 0,52.8 -96.024,0 0,-52.8 z"
         inkscape:connector-curvature="0"
         id="path90" /></clipPath><clipPath
       id="clipPath100"><path
         d="m 216.38,450.19 96.024,0 0,52.8 -96.024,0 0,-52.8 z"
         inkscape:connector-curvature="0"
         id="path102" /></clipPath><clipPath
       id="clipPath108"><path
         d="m 216.38,450.19 96.024,0 0,52.8 -96.024,0 0,-52.8 z"
         inkscape:connector-curvature="0"
         id="path110" /></clipPath><clipPath
       id="clipPath116"><path
         d="m 216.38,450.19 96.024,0 0,52.8 -96.024,0 0,-52.8 z"
         inkscape:connector-curvature="0"
         id="path118" /></clipPath><clipPath
       id="clipPath124"><path
         d="m 216.38,450.19 96.024,0 0,52.8 -96.024,0 0,-52.8 z"
         inkscape:connector-curvature="0"
         id="path126" /></clipPath><clipPath
       id="clipPath136"><path
         d="m 216.38,450.19 96.024,0 0,52.8 -96.024,0 0,-52.8 z"
         inkscape:connector-curvature="0"
         id="path138" /></clipPath><clipPath
       id="clipPath144"><path
         d="m 266.55,418.24 84.015,0 0,13.8 -84.015,0 0,-13.8 z"
         inkscape:connector-curvature="0"
         id="path146" /></clipPath><clipPath
       id="clipPath152"><path
         d="m 266.54,418.25 84.024,0 0,13.8 -84.024,0 0,-13.8 z"
         inkscape:connector-curvature="0"
         id="path154" /></clipPath><clipPath
       id="clipPath164"><path
         d="m 266.54,418.25 84.024,0 0,13.8 -84.024,0 0,-13.8 z"
         inkscape:connector-curvature="0"
         id="path166" /></clipPath><clipPath
       id="clipPath176"><path
         d="m 266.54,418.25 84.024,0 0,13.8 -84.024,0 0,-13.8 z"
         inkscape:connector-curvature="0"
         id="path178" /></clipPath><clipPath
       id="clipPath188"><path
         d="m 266.54,418.25 84.024,0 0,13.8 -84.024,0 0,-13.8 z"
         inkscape:connector-curvature="0"
         id="path190" /></clipPath><clipPath
       id="clipPath196"><path
         d="m 266.54,418.25 84.024,0 0,13.8 -84.024,0 0,-13.8 z"
         inkscape:connector-curvature="0"
         id="path198" /></clipPath><clipPath
       id="clipPath204"><path
         d="m 266.54,418.25 84.024,0 0,13.8 -84.024,0 0,-13.8 z"
         inkscape:connector-curvature="0"
         id="path206" /></clipPath><clipPath
       id="clipPath218"><path
         d="m 260.43,564.91 95.895,0 0,52.8 -95.895,0 0,-52.8 z"
         inkscape:connector-curvature="0"
         id="path220" /></clipPath><clipPath
       id="clipPath226"><path
         d="m 260.42,564.91 95.904,0 0,52.8 -95.904,0 0,-52.8 z"
         inkscape:connector-curvature="0"
         id="path228" /></clipPath><clipPath
       id="clipPath238"><path
         d="m 260.42,564.91 95.904,0 0,52.8 -95.904,0 0,-52.8 z"
         inkscape:connector-curvature="0"
         id="path240" /></clipPath><clipPath
       id="clipPath246"><path
         d="m 260.42,564.91 95.904,0 0,52.8 -95.904,0 0,-52.8 z"
         inkscape:connector-curvature="0"
         id="path248" /></clipPath><clipPath
       id="clipPath254"><path
         d="m 260.42,564.91 95.904,0 0,52.8 -95.904,0 0,-52.8 z"
         inkscape:connector-curvature="0"
         id="path256" /></clipPath><clipPath
       id="clipPath266"><path
         d="m 260.42,564.91 95.904,0 0,52.8 -95.904,0 0,-52.8 z"
         inkscape:connector-curvature="0"
         id="path268" /></clipPath><clipPath
       id="clipPath278"><path
         d="m 260.42,564.91 95.904,0 0,52.8 -95.904,0 0,-52.8 z"
         inkscape:connector-curvature="0"
         id="path280" /></clipPath><clipPath
       id="clipPath290"><path
         d="m 260.42,564.91 95.904,0 0,52.8 -95.904,0 0,-52.8 z"
         inkscape:connector-curvature="0"
         id="path292" /></clipPath><clipPath
       id="clipPath312"><path
         d="m 39.361,432.16 96.03,0 0,52.83 -96.03,0 0,-52.83 z"
         inkscape:connector-curvature="0"
         id="path314" /></clipPath><clipPath
       id="clipPath320"><path
         d="m 39.36,432.17 96.024,0 0,52.824 -96.024,0 0,-52.824 z"
         inkscape:connector-curvature="0"
         id="path322" /></clipPath><clipPath
       id="clipPath332"><path
         d="m 39.36,432.17 96.024,0 0,52.824 -96.024,0 0,-52.824 z"
         inkscape:connector-curvature="0"
         id="path334" /></clipPath><clipPath
       id="clipPath344"><path
         d="m 448.25,559.75 111.75,0 0,53.4 -111.75,0 0,-53.4 z"
         inkscape:connector-curvature="0"
         id="path346" /></clipPath><clipPath
       id="clipPath352"><path
         d="m 448.25,559.75 111.74,0 0,53.4 -111.74,0 0,-53.4 z"
         inkscape:connector-curvature="0"
         id="path354" /></clipPath><clipPath
       id="clipPath364"><path
         d="m 448.25,559.75 111.74,0 0,53.4 -111.74,0 0,-53.4 z"
         inkscape:connector-curvature="0"
         id="path366" /></clipPath><clipPath
       id="clipPath376"><path
         d="m 448.25,559.75 111.74,0 0,53.4 -111.74,0 0,-53.4 z"
         inkscape:connector-curvature="0"
         id="path378" /></clipPath><clipPath
       id="clipPath388"><path
         d="m 448.25,559.75 111.74,0 0,53.4 -111.74,0 0,-53.4 z"
         inkscape:connector-curvature="0"
         id="path390" /></clipPath><clipPath
       id="clipPath400"><path
         d="m 448.25,559.75 111.74,0 0,53.4 -111.74,0 0,-53.4 z"
         inkscape:connector-curvature="0"
         id="path402" /></clipPath><clipPath
       id="clipPath408"><path
         d="m 448.25,559.75 111.74,0 0,53.4 -111.74,0 0,-53.4 z"
         inkscape:connector-curvature="0"
         id="path410" /></clipPath><clipPath
       id="clipPath420"><path
         d="m 448.25,559.75 111.74,0 0,53.4 -111.74,0 0,-53.4 z"
         inkscape:connector-curvature="0"
         id="path422" /></clipPath><clipPath
       id="clipPath428"><path
         d="m 448.25,559.75 111.74,0 0,53.4 -111.74,0 0,-53.4 z"
         inkscape:connector-curvature="0"
         id="path430" /></clipPath><clipPath
       id="clipPath436"><path
         d="m 448.25,559.75 111.74,0 0,53.4 -111.74,0 0,-53.4 z"
         inkscape:connector-curvature="0"
         id="path438" /></clipPath><clipPath
       id="clipPath448"><path
         d="m 448.25,559.75 111.74,0 0,53.4 -111.74,0 0,-53.4 z"
         inkscape:connector-curvature="0"
         id="path450" /></clipPath><clipPath
       id="clipPath460"><path
         d="m 448.25,559.75 111.74,0 0,53.4 -111.74,0 0,-53.4 z"
         inkscape:connector-curvature="0"
         id="path462" /></clipPath><clipPath
       id="clipPath472"><path
         d="m 451.97,428.44 95.91,0 0,56.55 -95.91,0 0,-56.55 z"
         inkscape:connector-curvature="0"
         id="path474" /></clipPath><clipPath
       id="clipPath480"><path
         d="m 451.97,428.45 95.904,0 0,56.544 -95.904,0 0,-56.544 z"
         inkscape:connector-curvature="0"
         id="path482" /></clipPath><clipPath
       id="clipPath492"><path
         d="m 451.97,428.45 95.904,0 0,56.544 -95.904,0 0,-56.544 z"
         inkscape:connector-curvature="0"
         id="path494" /></clipPath><clipPath
       id="clipPath504"><path
         d="m 451.97,428.45 95.904,0 0,56.544 -95.904,0 0,-56.544 z"
         inkscape:connector-curvature="0"
         id="path506" /></clipPath><clipPath
       id="clipPath516"><path
         d="m 451.97,428.45 95.904,0 0,56.544 -95.904,0 0,-56.544 z"
         inkscape:connector-curvature="0"
         id="path518" /></clipPath><clipPath
       id="clipPath524"><path
         d="m 451.97,428.45 95.904,0 0,56.544 -95.904,0 0,-56.544 z"
         inkscape:connector-curvature="0"
         id="path526" /></clipPath><clipPath
       id="clipPath532"><path
         d="m 451.97,428.45 95.904,0 0,56.544 -95.904,0 0,-56.544 z"
         inkscape:connector-curvature="0"
         id="path534" /></clipPath><clipPath
       id="clipPath544"><path
         d="m 451.97,428.45 95.904,0 0,56.544 -95.904,0 0,-56.544 z"
         inkscape:connector-curvature="0"
         id="path546" /></clipPath><clipPath
       id="clipPath566"><path
         d="m 405.77,335.08 184.47,0 0,47.16 -184.47,0 0,-47.16 z"
         inkscape:connector-curvature="0"
         id="path568" /></clipPath><clipPath
       id="clipPath574"><path
         d="m 405.77,335.09 184.46,0 0,47.16 -184.46,0 0,-47.16 z"
         inkscape:connector-curvature="0"
         id="path576" /></clipPath><clipPath
       id="clipPath586"><path
         d="m 405.77,335.09 184.46,0 0,47.16 -184.46,0 0,-47.16 z"
         inkscape:connector-curvature="0"
         id="path588" /></clipPath><clipPath
       id="clipPath594"><path
         d="m 405.77,335.09 184.46,0 0,47.16 -184.46,0 0,-47.16 z"
         inkscape:connector-curvature="0"
         id="path596" /></clipPath><clipPath
       id="clipPath606"><path
         d="m 405.77,335.09 184.46,0 0,47.16 -184.46,0 0,-47.16 z"
         inkscape:connector-curvature="0"
         id="path608" /></clipPath><clipPath
       id="clipPath614"><path
         d="m 405.77,335.09 184.46,0 0,47.16 -184.46,0 0,-47.16 z"
         inkscape:connector-curvature="0"
         id="path616" /></clipPath><clipPath
       id="clipPath626"><path
         d="m 405.77,335.09 184.46,0 0,47.16 -184.46,0 0,-47.16 z"
         inkscape:connector-curvature="0"
         id="path628" /></clipPath><clipPath
       id="clipPath634"><path
         d="m 405.77,335.09 184.46,0 0,47.16 -184.46,0 0,-47.16 z"
         inkscape:connector-curvature="0"
         id="path636" /></clipPath><clipPath
       id="clipPath646"><path
         d="m 405.77,335.09 184.46,0 0,47.16 -184.46,0 0,-47.16 z"
         inkscape:connector-curvature="0"
         id="path648" /></clipPath><clipPath
       id="clipPath654"><path
         d="m 405.77,335.09 184.46,0 0,47.16 -184.46,0 0,-47.16 z"
         inkscape:connector-curvature="0"
         id="path656" /></clipPath><clipPath
       id="clipPath662"><path
         d="m 405.77,335.09 184.46,0 0,47.16 -184.46,0 0,-47.16 z"
         inkscape:connector-curvature="0"
         id="path664" /></clipPath></defs><g
     transform="matrix(1.25,0,0,-1.25,-48.28125,777.65625)"
     id="g10"><path
       d="m 541.4,406.95 0,-21.05 37.6,0 -37.6,21.05 z"
       inkscape:connector-curvature="0"
       id="path12"
       style="fill:#ffffff;fill-opacity:1;fill-rule:evenodd;stroke:none" /><path
       d="m 541.4,406.95 0,-21.05 37.6,0 -37.6,21.05 z"
       inkscape:connector-curvature="0"
       id="path14"
       style="fill:none;stroke:#000000;stroke-width:0.75;stroke-linecap:round;stroke-linejoin:round;stroke-miterlimit:10;stroke-opacity:1;stroke-dasharray:none" /><path
       d="m 579,385.9 0,-56.15"
       inkscape:connector-curvature="0"
       id="path16"
       style="fill:none;stroke:#000000;stroke-width:0.75;stroke-linecap:round;stroke-linejoin:round;stroke-miterlimit:10;stroke-opacity:1;stroke-dasharray:none" /><path
       d="m 579,329.75 -169.1,0"
       inkscape:connector-curvature="0"
       id="path18"
       style="fill:none;stroke:#000000;stroke-width:0.75;stroke-linecap:round;stroke-linejoin:round;stroke-miterlimit:10;stroke-opacity:1;stroke-dasharray:none" /><path
       d="m 409.9,329.75 0,77.2"
       inkscape:connector-curvature="0"
       id="path20"
       style="fill:none;stroke:#000000;stroke-width:0.75;stroke-linecap:round;stroke-linejoin:round;stroke-miterlimit:10;stroke-opacity:1;stroke-dasharray:none" /><path
       d="m 541.4,406.95 -131.5,0"
       inkscape:connector-curvature="0"
       id="path22"
       style="fill:none;stroke:#000000;stroke-width:0.75;stroke-linecap:round;stroke-linejoin:round;stroke-miterlimit:10;stroke-opacity:1;stroke-dasharray:none" /><path
       d="m 129.44,490.09 5.48,4.35 c 0.22,0.18 0.53,0.14 0.7,-0.08 0.18,-0.21 0.14,-0.53 -0.08,-0.7 l -5.48,-4.35 c -0.22,-0.17 -0.53,-0.14 -0.7,0.08 -0.17,0.22 -0.14,0.53 0.08,0.7 z m 8.61,6.84 5.49,4.35 c 0.21,0.17 0.53,0.14 0.7,-0.08 0.17,-0.21 0.14,-0.53 -0.08,-0.7 l -5.48,-4.35 c -0.22,-0.17 -0.53,-0.14 -0.71,0.08 -0.17,0.21 -0.13,0.53 0.08,0.7 z m 8.62,6.84 5.48,4.35 c 0.22,0.17 0.53,0.14 0.71,-0.08 0.17,-0.22 0.13,-0.53 -0.09,-0.7 l -5.48,-4.35 c -0.21,-0.18 -0.53,-0.14 -0.7,0.08 -0.17,0.21 -0.14,0.53 0.08,0.7 z m 8.62,6.84 5.48,4.35 c 0.21,0.17 0.53,0.14 0.7,-0.08 0.17,-0.22 0.14,-0.53 -0.08,-0.7 l -5.48,-4.35 c -0.22,-0.18 -0.53,-0.14 -0.7,0.08 -0.18,0.21 -0.14,0.53 0.08,0.7 z m 8.61,6.84 5.48,4.35 c 0.22,0.17 0.53,0.14 0.71,-0.08 0.17,-0.22 0.13,-0.53 -0.08,-0.7 l -5.49,-4.36 c -0.21,-0.17 -0.53,-0.13 -0.7,0.09 -0.17,0.21 -0.13,0.53 0.08,0.7 z m 8.62,6.84 5.48,4.35 c 0.22,0.17 0.53,0.13 0.7,-0.08 0.17,-0.22 0.14,-0.53 -0.08,-0.7 l -5.48,-4.36 c -0.22,-0.17 -0.53,-0.13 -0.7,0.08 -0.18,0.22 -0.14,0.54 0.08,0.71 z m 8.61,6.84 5.49,4.35 c 0.21,0.17 0.53,0.13 0.7,-0.08 0.17,-0.22 0.13,-0.53 -0.08,-0.71 l -5.49,-4.35 c -0.21,-0.17 -0.53,-0.13 -0.7,0.08 -0.17,0.22 -0.13,0.53 0.08,0.71 z m 8.62,6.83 5.48,4.36 c 0.22,0.17 0.53,0.13 0.7,-0.08 0.18,-0.22 0.14,-0.53 -0.08,-0.71 l -5.48,-4.35 c -0.22,-0.17 -0.53,-0.13 -0.7,0.08 -0.17,0.22 -0.14,0.53 0.08,0.7 z m 8.61,6.84 5.49,4.36 c 0.21,0.17 0.53,0.13 0.7,-0.08 0.17,-0.22 0.13,-0.54 -0.08,-0.71 l -5.48,-4.35 c -0.22,-0.17 -0.54,-0.13 -0.71,0.08 -0.17,0.22 -0.13,0.53 0.08,0.7 z m 8.62,6.84 5.48,4.35 c 0.22,0.18 0.53,0.14 0.7,-0.08 0.18,-0.21 0.14,-0.53 -0.08,-0.7 l -5.48,-4.35 c -0.22,-0.17 -0.53,-0.14 -0.7,0.08 -0.17,0.22 -0.14,0.53 0.08,0.7 z m 8.61,6.84 5.49,4.35 c 0.21,0.18 0.53,0.14 0.7,-0.08 0.17,-0.21 0.14,-0.53 -0.08,-0.7 l -5.48,-4.35 c -0.22,-0.17 -0.53,-0.14 -0.71,0.08 -0.17,0.22 -0.13,0.53 0.08,0.7 z m 8.62,6.84 5.48,4.35 c 0.22,0.17 0.53,0.14 0.71,-0.08 0.17,-0.21 0.13,-0.53 -0.09,-0.7 l -5.48,-4.35 c -0.21,-0.17 -0.53,-0.14 -0.7,0.08 -0.17,0.21 -0.14,0.53 0.08,0.7 z m 8.62,6.84 5.48,4.35 c 0.22,0.17 0.53,0.14 0.7,-0.08 0.17,-0.22 0.14,-0.53 -0.08,-0.7 l -5.48,-4.35 c -0.22,-0.18 -0.53,-0.14 -0.7,0.08 -0.18,0.21 -0.14,0.53 0.08,0.7 z m 8.61,6.84 5.48,4.35 c 0.22,0.17 0.54,0.14 0.71,-0.08 0.17,-0.22 0.13,-0.53 -0.08,-0.7 l -5.49,-4.35 c -0.21,-0.18 -0.53,-0.14 -0.7,0.08 -0.17,0.21 -0.13,0.53 0.08,0.7 z m 8.62,6.84 5.48,4.35 c 0.22,0.17 0.53,0.14 0.7,-0.08 0.17,-0.22 0.14,-0.53 -0.08,-0.7 l -5.48,-4.36 c -0.22,-0.17 -0.53,-0.13 -0.7,0.09 -0.18,0.21 -0.14,0.53 0.08,0.7 z m -1.67,4.98 11.05,1.83 -4.29,-10.35 c -0.1,-0.25 -0.39,-0.37 -0.65,-0.27 -0.25,0.11 -0.37,0.4 -0.27,0.66 l 3.94,9.51 0.55,-0.69 -10.16,-1.68 c -0.28,-0.04 -0.53,0.14 -0.58,0.42 -0.04,0.27 0.14,0.53 0.41,0.57 z"
       inkscape:connector-curvature="0"
       id="path24"
       style="fill:#000000;fill-opacity:1;fill-rule:nonzero;stroke:none" /><g
       id="g26"><g
         clip-path="url(#clipPath30)"
         id="g28"><g
           id="g34"><g
             clip-path="url(#clipPath38)"
             id="g36"><text
   transform="matrix(1,0,0,-1,140.66,542.35)"
   id="text42"><tspan
     x="0 8.3999996 16.799999 25.200001 33.599998"
     y="0"
     id="tspan44"
     style="font-size:14.03999996px;font-variant:normal;font-weight:normal;writing-mode:lr-tb;fill:#000000;fill-opacity:1;fill-rule:nonzero;stroke:none;font-family:Courier New;-inkscape-font-specification:Courier New">«use»</tspan></text>

</g></g><g
           id="g46"><g
             clip-path="url(#clipPath50)"
             id="g48" /></g><g
           id="g54"><g
             clip-path="url(#clipPath58)"
             id="g56" /></g><g
           id="g62"><g
             clip-path="url(#clipPath66)"
             id="g64" /></g></g></g><path
       d="m 453,471.85 -139.45,0.05 c -0.28,0 -0.5,0.22 -0.5,0.5 0,0.28 0.22,0.5 0.5,0.5 L 453,472.85 c 0.28,0 0.5,-0.22 0.5,-0.5 0,-0.28 -0.22,-0.5 -0.5,-0.5 z m -133.77,-4.84 -6.46,5.39 6.46,5.38 c 0.21,0.18 0.53,0.15 0.71,-0.06 0.17,-0.21 0.14,-0.53 -0.07,-0.71 l -6,-4.99 0,0.76 6,-5 c 0.21,-0.18 0.24,-0.49 0.06,-0.7 -0.17,-0.22 -0.49,-0.24 -0.7,-0.07 z"
       inkscape:connector-curvature="0"
       id="path70"
       style="fill:#000000;fill-opacity:1;fill-rule:nonzero;stroke:none" /><path
       d="m 216,446.25 96.75,0 0,60.75 -96.75,0 0,-60.75 z"
       inkscape:connector-curvature="0"
       id="path72"
       style="fill:#ffffff;fill-opacity:1;fill-rule:evenodd;stroke:none" /><path
       d="m 216,446.25 96.75,0 0,60.75 -96.75,0 0,-60.75 z"
       inkscape:connector-curvature="0"
       id="path74"
       style="fill:none;stroke:#000000;stroke-width:0.75;stroke-linecap:round;stroke-linejoin:miter;stroke-miterlimit:8;stroke-opacity:1;stroke-dasharray:none" /><g
       id="g76"><g
         clip-path="url(#clipPath80)"
         id="g78"><g
           id="g84"><g
             clip-path="url(#clipPath88)"
             id="g86"><text
   transform="matrix(1,0,0,-1,223.94,490.03)"
   id="text92"><tspan
     x="0 9.3646803 21.846239 30.354481 35.0298 42.83604 50.642281 59.15052 67.672798 75.479042"
     y="0"
     id="tspan94"
     style="font-size:14.03999996px;font-variant:normal;font-weight:bold;writing-mode:lr-tb;fill:#000000;fill-opacity:1;fill-rule:nonzero;stroke:none;font-family:Helvetica;-inkscape-font-specification:Helvetica-Bold">Empfaenger</tspan></text>

</g></g><g
           id="g96"><g
             clip-path="url(#clipPath100)"
             id="g98" /></g><g
           id="g104"><g
             clip-path="url(#clipPath108)"
             id="g106" /></g><g
           id="g112"><g
             clip-path="url(#clipPath116)"
             id="g114" /></g><g
           id="g120"><g
             clip-path="url(#clipPath124)"
             id="g122"><text
   transform="matrix(1,0,0,-1,223.58,458.95)"
   id="text128"><tspan
     x="0 8.1993599 15.96348 23.0256 26.97084 30.087721 37.767601 45.573841 50.249161"
     y="0"
     id="tspan130"
     style="font-size:14.03999996px;font-variant:normal;font-weight:normal;writing-mode:lr-tb;fill:#000000;fill-opacity:1;fill-rule:nonzero;stroke:none;font-family:Helvetica;-inkscape-font-specification:Helvetica">+aktion()</tspan></text>

</g></g><g
           id="g132"><g
             clip-path="url(#clipPath136)"
             id="g134" /></g></g></g><g
       id="g140"><g
         clip-path="url(#clipPath144)"
         id="g142"><g
           id="g148"><g
             clip-path="url(#clipPath152)"
             id="g150"><text
   transform="matrix(1,0,0,-1,273.74,420.05)"
   id="text156"><tspan
     x="0"
     y="0"
     id="tspan158"
     style="font-size:14.03999996px;font-variant:normal;font-weight:normal;writing-mode:lr-tb;fill:#000000;fill-opacity:1;fill-rule:nonzero;stroke:none;font-family:Courier New;-inkscape-font-specification:Courier New">«</tspan></text>

</g></g><g
           id="g160"><g
             clip-path="url(#clipPath164)"
             id="g162"><text
   transform="matrix(1,0,0,-1,282.17,420.05)"
   id="text168"><tspan
     x="0 8.3999996 16.799999 25.200001 33.599998 42"
     y="0"
     id="tspan170"
     style="font-size:14.03999996px;font-variant:normal;font-weight:normal;writing-mode:lr-tb;fill:#000000;fill-opacity:1;fill-rule:nonzero;stroke:none;font-family:Courier New;-inkscape-font-specification:Courier New">Create</tspan></text>

</g></g><g
           id="g172"><g
             clip-path="url(#clipPath176)"
             id="g174"><text
   transform="matrix(1,0,0,-1,332.57,420.05)"
   id="text180"><tspan
     x="0"
     y="0"
     id="tspan182"
     style="font-size:14.03999996px;font-variant:normal;font-weight:normal;writing-mode:lr-tb;fill:#000000;fill-opacity:1;fill-rule:nonzero;stroke:none;font-family:Courier New;-inkscape-font-specification:Courier New">»</tspan></text>

</g></g><g
           id="g184"><g
             clip-path="url(#clipPath188)"
             id="g186" /></g><g
           id="g192"><g
             clip-path="url(#clipPath196)"
             id="g194" /></g><g
           id="g200"><g
             clip-path="url(#clipPath204)"
             id="g202" /></g></g></g><path
       d="m 216,477.35 96.75,-0.05"
       inkscape:connector-curvature="0"
       id="path208"
       style="fill:none;stroke:#000000;stroke-width:0.75;stroke-linecap:round;stroke-linejoin:round;stroke-miterlimit:8;stroke-opacity:1;stroke-dasharray:none" /><path
       d="m 259.95,561 96.75,0 0,60.75 -96.75,0 0,-60.75 z"
       inkscape:connector-curvature="0"
       id="path210"
       style="fill:#ffffff;fill-opacity:1;fill-rule:evenodd;stroke:none" /><path
       d="m 259.95,561 96.75,0 0,60.75 -96.75,0 0,-60.75 z"
       inkscape:connector-curvature="0"
       id="path212"
       style="fill:none;stroke:#000000;stroke-width:0.75;stroke-linecap:round;stroke-linejoin:miter;stroke-miterlimit:8;stroke-opacity:1;stroke-dasharray:none" /><g
       id="g214"><g
         clip-path="url(#clipPath218)"
         id="g216"><g
           id="g222"><g
             clip-path="url(#clipPath226)"
             id="g224"><text
   transform="matrix(1,0,0,-1,280.85,604.75)"
   id="text230"><tspan
     x="0 9.95436 18.476641 23.15196 28.65564 37.177921 41.853241 49.659481"
     y="0"
     id="tspan232"
     style="font-size:14.03999996px;font-variant:normal;font-weight:bold;writing-mode:lr-tb;fill:#000000;fill-opacity:1;fill-rule:nonzero;stroke:none;font-family:Helvetica;-inkscape-font-specification:Helvetica-Bold">Aufrufer</tspan></text>

</g></g><g
           id="g234"><g
             clip-path="url(#clipPath238)"
             id="g236" /></g><g
           id="g242"><g
             clip-path="url(#clipPath246)"
             id="g244" /></g><g
           id="g250"><g
             clip-path="url(#clipPath254)"
             id="g252"><text
   transform="matrix(1,0,0,-1,269.66,572.59)"
   id="text258"><tspan
     x="0"
     y="0"
     id="tspan260"
     style="font-size:14.03999996px;font-variant:normal;font-weight:normal;writing-mode:lr-tb;fill:#000000;fill-opacity:1;fill-rule:nonzero;stroke:none;font-family:Helvetica;-inkscape-font-specification:Helvetica">+</tspan></text>

</g></g><g
           id="g262"><g
             clip-path="url(#clipPath266)"
             id="g264"><text
   transform="matrix(1,0,0,-1,277.82,572.59)"
   id="text270"><tspan
     x="0 7.8062401 14.86836 18.813601 21.930479 28.76796 31.88484 39.691078 44.366402 52.172642"
     y="0"
     id="tspan272"
     style="font-size:14.03999996px;font-variant:normal;font-weight:normal;writing-mode:lr-tb;fill:#000000;fill-opacity:1;fill-rule:nonzero;stroke:none;font-family:Helvetica;-inkscape-font-specification:Helvetica">aktivieren</tspan></text>

</g></g><g
           id="g274"><g
             clip-path="url(#clipPath278)"
             id="g276"><text
   transform="matrix(1,0,0,-1,337.85,572.59)"
   id="text282"><tspan
     x="0 4.6799998"
     y="0"
     id="tspan284"
     style="font-size:14.03999996px;font-variant:normal;font-weight:normal;writing-mode:lr-tb;fill:#000000;fill-opacity:1;fill-rule:nonzero;stroke:none;font-family:Helvetica;-inkscape-font-specification:Helvetica">()</tspan></text>

</g></g><g
           id="g286"><g
             clip-path="url(#clipPath290)"
             id="g288" /></g></g></g><path
       d="M 260.25,592.85 357,592.8"
       inkscape:connector-curvature="0"
       id="path294"
       style="fill:none;stroke:#000000;stroke-width:0.75;stroke-linecap:round;stroke-linejoin:round;stroke-miterlimit:8;stroke-opacity:1;stroke-dasharray:none" /><path
       d="m 135.8,476.7 79.75,0.05 c 0.28,0 0.5,-0.22 0.5,-0.5 0,-0.28 -0.22,-0.5 -0.5,-0.5 L 135.8,475.7 c -0.28,0 -0.5,0.22 -0.5,0.5 0,0.28 0.22,0.5 0.5,0.5 z m 74.07,4.93 6.46,-5.38 -6.46,-5.39 c -0.21,-0.18 -0.52,-0.15 -0.7,0.07 -0.18,0.21 -0.15,0.52 0.06,0.7 l 6,5 0,-0.77 -6,5 c -0.22,0.18 -0.24,0.49 -0.07,0.71 0.18,0.21 0.49,0.24 0.71,0.06 z"
       inkscape:connector-curvature="0"
       id="path296"
       style="fill:#000000;fill-opacity:1;fill-rule:nonzero;stroke:none" /><path
       d="m 357,597.15 90.75,-0.05"
       inkscape:connector-curvature="0"
       id="path298"
       style="fill:none;stroke:#000000;stroke-width:0.75;stroke-linecap:round;stroke-linejoin:round;stroke-miterlimit:8;stroke-opacity:1;stroke-dasharray:none" /><path
       d="m 499.42,555.75 7.88,-12 -15.75,0 7.87,12 z"
       inkscape:connector-curvature="0"
       id="path300"
       style="fill:#ffffff;fill-opacity:1;fill-rule:evenodd;stroke:none" /><path
       d="m 499.42,555.75 7.88,-12 -15.75,0 7.87,12 z"
       inkscape:connector-curvature="0"
       id="path302"
       style="fill:none;stroke:#000000;stroke-width:0.75;stroke-linecap:round;stroke-linejoin:round;stroke-miterlimit:8;stroke-opacity:1;stroke-dasharray:none" /><path
       d="m 39,428.25 96.75,0 0,60.75 -96.75,0 0,-60.75 z"
       inkscape:connector-curvature="0"
       id="path304"
       style="fill:#ffffff;fill-opacity:1;fill-rule:evenodd;stroke:none" /><path
       d="m 39,428.25 96.75,0 0,60.75 -96.75,0 0,-60.75 z"
       inkscape:connector-curvature="0"
       id="path306"
       style="fill:none;stroke:#000000;stroke-width:0.75;stroke-linecap:round;stroke-linejoin:miter;stroke-miterlimit:8;stroke-opacity:1;stroke-dasharray:none" /><g
       id="g308"><g
         clip-path="url(#clipPath312)"
         id="g310"><g
           id="g316"><g
             clip-path="url(#clipPath320)"
             id="g318"><text
   transform="matrix(1,0,0,-1,67.92,471.67)"
   id="text324"><tspan
     x="0 10.08072 14.02596 17.971201 25.777439 34.285679"
     y="0"
     id="tspan326"
     style="font-size:14.03999996px;font-variant:normal;font-weight:bold;writing-mode:lr-tb;fill:#000000;fill-opacity:1;fill-rule:nonzero;stroke:none;font-family:Helvetica;-inkscape-font-specification:Helvetica-Bold">Client</tspan></text>

</g></g><g
           id="g328"><g
             clip-path="url(#clipPath332)"
             id="g330" /></g></g></g><path
       d="m 447.75,555.75 112.6,0 0,61.5 -112.6,0 0,-61.5 z"
       inkscape:connector-curvature="0"
       id="path336"
       style="fill:#ffffff;fill-opacity:1;fill-rule:evenodd;stroke:none" /><path
       d="m 447.75,555.75 112.6,0 0,61.5 -112.6,0 0,-61.5 z"
       inkscape:connector-curvature="0"
       id="path338"
       style="fill:none;stroke:#000000;stroke-width:0.75;stroke-linecap:round;stroke-linejoin:miter;stroke-miterlimit:8;stroke-opacity:1;stroke-dasharray:none" /><g
       id="g340"><g
         clip-path="url(#clipPath344)"
         id="g342"><g
           id="g348"><g
             clip-path="url(#clipPath352)"
             id="g350"><text
   transform="matrix(1,0,0,-1,457.97,601.15)"
   id="text356"><tspan
     x="0"
     y="0"
     id="tspan358"
     style="font-size:14.03999996px;font-variant:normal;font-weight:normal;writing-mode:lr-tb;fill:#000000;fill-opacity:1;fill-rule:nonzero;stroke:none;font-family:Courier New;-inkscape-font-specification:Courier New">«</tspan></text>

</g></g><g
           id="g360"><g
             clip-path="url(#clipPath364)"
             id="g362"><text
   transform="matrix(1,0,0,-1,466.37,601.15)"
   id="text368"><tspan
     x="0"
     y="0"
     id="tspan370"
     style="font-size:14.03999996px;font-variant:normal;font-weight:normal;writing-mode:lr-tb;fill:#000000;fill-opacity:1;fill-rule:nonzero;stroke:none;font-family:Courier New;-inkscape-font-specification:Courier New">i</tspan></text>

</g></g><g
           id="g372"><g
             clip-path="url(#clipPath376)"
             id="g374"><text
   transform="matrix(1,0,0,-1,474.79,601.15)"
   id="text380"><tspan
     x="0 8.3999996 16.799999 25.200001 33.599998 42 50.400002 58.799999"
     y="0"
     id="tspan382"
     style="font-size:14.03999996px;font-variant:normal;font-weight:normal;writing-mode:lr-tb;fill:#000000;fill-opacity:1;fill-rule:nonzero;stroke:none;font-family:Courier New;-inkscape-font-specification:Courier New">nterface</tspan></text>

</g></g><g
           id="g384"><g
             clip-path="url(#clipPath388)"
             id="g386"><text
   transform="matrix(1,0,0,-1,541.99,601.15)"
   id="text392"><tspan
     x="0"
     y="0"
     id="tspan394"
     style="font-size:14.03999996px;font-variant:normal;font-weight:normal;writing-mode:lr-tb;fill:#000000;fill-opacity:1;fill-rule:nonzero;stroke:none;font-family:Courier New;-inkscape-font-specification:Courier New">»</tspan></text>

</g></g><g
           id="g396"><g
             clip-path="url(#clipPath400)"
             id="g398" /></g><g
           id="g404"><g
             clip-path="url(#clipPath408)"
             id="g406"><text
   transform="matrix(1,0,0,-1,480.79,584.35)"
   id="text412"><tspan
     x="0 3.94524 14.02596 21.832199 26.507521 34.313759 42.821999"
     y="0"
     id="tspan414"
     style="font-size:14.03999996px;font-variant:normal;font-weight:bold;writing-mode:lr-tb;fill:#000000;fill-opacity:1;fill-rule:nonzero;stroke:none;font-family:Helvetica;-inkscape-font-specification:Helvetica-Bold">IBefehl</tspan></text>

</g></g><g
           id="g416"><g
             clip-path="url(#clipPath420)"
             id="g418" /></g><g
           id="g424"><g
             clip-path="url(#clipPath428)"
             id="g426" /></g><g
           id="g432"><g
             clip-path="url(#clipPath436)"
             id="g434"><text
   transform="matrix(1,0,0,-1,455.45,565.87)"
   id="text440"><tspan
     x="0"
     y="0"
     id="tspan442"
     style="font-size:14.03999996px;font-style:oblique;font-variant:normal;font-weight:normal;writing-mode:lr-tb;fill:#000000;fill-opacity:1;fill-rule:nonzero;stroke:none;font-family:Helvetica;-inkscape-font-specification:Helvetica-Oblique">+</tspan></text>

</g></g><g
           id="g444"><g
             clip-path="url(#clipPath448)"
             id="g446"><text
   transform="matrix(1,0,0,-1,463.61,565.87)"
   id="text452"><tspan
     x="0 3.94524 11.75148 19.55772 27.36396 32.03928 39.84552 49.210201 56.862 63.924122 68.599442"
     y="0"
     id="tspan454"
     style="font-size:14.03999996px;font-variant:normal;font-weight:normal;writing-mode:lr-tb;fill:#000000;fill-opacity:1;fill-rule:nonzero;stroke:none;font-family:Helvetica;-inkscape-font-specification:Helvetica">fuehreAus()</tspan></text>

</g></g><g
           id="g456"><g
             clip-path="url(#clipPath460)"
             id="g458" /></g></g></g><path
       d="m 451.5,424.5 96.75,0 0,64.5 -96.75,0 0,-64.5 z"
       inkscape:connector-curvature="0"
       id="path464"
       style="fill:#ffffff;fill-opacity:1;fill-rule:evenodd;stroke:none" /><path
       d="m 451.5,424.5 96.75,0 0,64.5 -96.75,0 0,-64.5 z"
       inkscape:connector-curvature="0"
       id="path466"
       style="fill:none;stroke:#000000;stroke-width:0.75;stroke-linecap:round;stroke-linejoin:miter;stroke-miterlimit:8;stroke-opacity:1;stroke-dasharray:none" /><g
       id="g468"><g
         clip-path="url(#clipPath472)"
         id="g470"><g
           id="g476"><g
             clip-path="url(#clipPath480)"
             id="g478"><text
   transform="matrix(1,0,0,-1,464.57,472.03)"
   id="text484"><tspan
     x="0 10.08072 18.603001 27.12528 34.931519 40.4352 48.24144 52.916759 60.723"
     y="0"
     id="tspan486"
     style="font-size:14.03999996px;font-variant:normal;font-weight:bold;writing-mode:lr-tb;fill:#000000;fill-opacity:1;fill-rule:nonzero;stroke:none;font-family:Helvetica;-inkscape-font-specification:Helvetica-Bold">Konkreter</tspan></text>

</g></g><g
           id="g488"><g
             clip-path="url(#clipPath492)"
             id="g490"><text
   transform="matrix(1,0,0,-1,530.83,472.03)"
   id="text496"><tspan
     x="0"
     y="0"
     id="tspan498"
     style="font-size:14.03999996px;font-variant:normal;font-weight:bold;writing-mode:lr-tb;fill:#000000;fill-opacity:1;fill-rule:nonzero;stroke:none;font-family:Helvetica;-inkscape-font-specification:Helvetica-Bold">-</tspan></text>

</g></g><g
           id="g500"><g
             clip-path="url(#clipPath504)"
             id="g502"><text
   transform="matrix(1,0,0,-1,478.51,455.95)"
   id="text508"><tspan
     x="0 10.08072 17.886959 22.562281 30.368521 38.876759"
     y="0"
     id="tspan510"
     style="font-size:14.03999996px;font-variant:normal;font-weight:bold;writing-mode:lr-tb;fill:#000000;fill-opacity:1;fill-rule:nonzero;stroke:none;font-family:Helvetica;-inkscape-font-specification:Helvetica-Bold">Befehl</tspan></text>

</g></g><g
           id="g512"><g
             clip-path="url(#clipPath516)"
             id="g514" /></g><g
           id="g520"><g
             clip-path="url(#clipPath524)"
             id="g522" /></g><g
           id="g528"><g
             clip-path="url(#clipPath532)"
             id="g530"><text
   transform="matrix(1,0,0,-1,459.17,437.33)"
   id="text536"><tspan
     x="0 8.1993599 12.10248 19.90872 27.71496 35.521198 40.196522 48.002762 57.367439 65.033279 72.095398 76.770721"
     y="0"
     id="tspan538"
     style="font-size:14.03999996px;font-variant:normal;font-weight:normal;writing-mode:lr-tb;fill:#000000;fill-opacity:1;fill-rule:nonzero;stroke:none;font-family:Helvetica;-inkscape-font-specification:Helvetica">+fuehreAus()</tspan></text>

</g></g><g
           id="g540"><g
             clip-path="url(#clipPath544)"
             id="g542" /></g></g></g><path
       d="m 453,453 96,0"
       inkscape:connector-curvature="0"
       id="path548"
       style="fill:none;stroke:#000000;stroke-width:0.75;stroke-linecap:round;stroke-linejoin:round;stroke-miterlimit:8;stroke-opacity:1;stroke-dasharray:none" /><path
       d="m 499.5,543.75 0,-54.75"
       inkscape:connector-curvature="0"
       id="path550"
       style="fill:none;stroke:#000000;stroke-width:0.75;stroke-linecap:round;stroke-linejoin:round;stroke-miterlimit:8;stroke-opacity:1;stroke-dasharray:none" /><path
       d="m 364.7,601.5 -7.7,-4.33 7.7,-4.32 7.7,4.32 -7.7,4.33 z"
       inkscape:connector-curvature="0"
       id="path552"
       style="fill:#ffffff;fill-opacity:1;fill-rule:evenodd;stroke:none" /><path
       d="m 364.7,601.5 -7.7,-4.33 7.7,-4.32 7.7,4.32 -7.7,4.33 z"
       inkscape:connector-curvature="0"
       id="path554"
       style="fill:none;stroke:#000000;stroke-width:0.75;stroke-linecap:round;stroke-linejoin:round;stroke-miterlimit:8;stroke-opacity:1;stroke-dasharray:none" /><path
       d="m 135,436.25 7,0 c 0.28,0 0.5,-0.22 0.5,-0.5 0,-0.28 -0.22,-0.5 -0.5,-0.5 l -7,0 c -0.28,0 -0.5,0.22 -0.5,0.5 0,0.28 0.22,0.5 0.5,0.5 z m 11,0 7,0 c 0.28,0 0.5,-0.22 0.5,-0.5 0,-0.28 -0.22,-0.5 -0.5,-0.5 l -7,0 c -0.28,0 -0.5,0.22 -0.5,0.5 0,0.28 0.22,0.5 0.5,0.5 z m 11,0 7,0 c 0.28,0 0.5,-0.22 0.5,-0.5 0,-0.28 -0.22,-0.5 -0.5,-0.5 l -7,0 c -0.28,0 -0.5,0.22 -0.5,0.5 0,0.28 0.22,0.5 0.5,0.5 z m 11,0 7,0 c 0.28,0 0.5,-0.22 0.5,-0.5 0,-0.28 -0.22,-0.5 -0.5,-0.5 l -7,0 c -0.28,0 -0.5,0.22 -0.5,0.5 0,0.28 0.22,0.5 0.5,0.5 z m 11,0 7,0 c 0.28,0 0.5,-0.22 0.5,-0.5 0,-0.28 -0.22,-0.5 -0.5,-0.5 l -7,0 c -0.28,0 -0.5,0.22 -0.5,0.5 0,0.28 0.22,0.5 0.5,0.5 z m 11,0 7,0 c 0.28,0 0.5,-0.22 0.5,-0.5 0,-0.28 -0.22,-0.5 -0.5,-0.5 l -7,0 c -0.28,0 -0.5,0.22 -0.5,0.5 0,0.28 0.22,0.5 0.5,0.5 z m 11,0 7,0 c 0.28,0 0.5,-0.22 0.5,-0.5 0,-0.28 -0.22,-0.5 -0.5,-0.5 l -7,0 c -0.28,0 -0.5,0.22 -0.5,0.5 0,0.28 0.22,0.5 0.5,0.5 z m 11,0 7,0 c 0.28,0 0.5,-0.22 0.5,-0.5 0,-0.28 -0.22,-0.5 -0.5,-0.5 l -7,0 c -0.28,0 -0.5,0.22 -0.5,0.5 0,0.28 0.22,0.5 0.5,0.5 z m 11,0 7,0 c 0.28,0 0.5,-0.22 0.5,-0.5 0,-0.28 -0.22,-0.5 -0.5,-0.5 l -7,0 c -0.28,0 -0.5,0.22 -0.5,0.5 0,0.28 0.22,0.5 0.5,0.5 z m 11,0 7,0 c 0.28,0 0.5,-0.22 0.5,-0.5 0,-0.28 -0.22,-0.5 -0.5,-0.5 l -7,0 c -0.28,0 -0.5,0.22 -0.5,0.5 0,0.28 0.22,0.5 0.5,0.5 z m 11,0 7,0 c 0.28,0 0.5,-0.22 0.5,-0.5 0,-0.28 -0.22,-0.5 -0.5,-0.5 l -7,0 c -0.28,0 -0.5,0.22 -0.5,0.5 0,0.28 0.22,0.5 0.5,0.5 z m 11,0 7,0 c 0.28,0 0.5,-0.22 0.5,-0.5 0,-0.28 -0.22,-0.5 -0.5,-0.5 l -7,0 c -0.28,0 -0.5,0.22 -0.5,0.5 0,0.28 0.22,0.5 0.5,0.5 z m 11,0 7,0 c 0.28,0 0.5,-0.22 0.5,-0.5 0,-0.28 -0.22,-0.5 -0.5,-0.5 l -7,0 c -0.28,0 -0.5,0.22 -0.5,0.5 0,0.28 0.22,0.5 0.5,0.5 z m 11,0 7,0 c 0.28,0 0.5,-0.22 0.5,-0.5 0,-0.28 -0.22,-0.5 -0.5,-0.5 l -7,0 c -0.28,0 -0.5,0.22 -0.5,0.5 0,0.28 0.22,0.5 0.5,0.5 z m 11,0 7,0 c 0.28,0 0.5,-0.22 0.5,-0.5 0,-0.28 -0.22,-0.5 -0.5,-0.5 l -7,0 c -0.28,0 -0.5,0.22 -0.5,0.5 0,0.28 0.22,0.5 0.5,0.5 z m 11,0 7,0 c 0.28,0 0.5,-0.22 0.5,-0.5 0,-0.28 -0.22,-0.5 -0.5,-0.5 l -7,0 c -0.28,0 -0.5,0.22 -0.5,0.5 0,0.28 0.22,0.5 0.5,0.5 z m 11,0 7,0 c 0.28,0 0.5,-0.22 0.5,-0.5 0,-0.28 -0.22,-0.5 -0.5,-0.5 l -7,0 c -0.28,0 -0.5,0.22 -0.5,0.5 0,0.28 0.22,0.5 0.5,0.5 z m 11,0 7,0 c 0.28,0 0.5,-0.22 0.5,-0.5 0,-0.28 -0.22,-0.5 -0.5,-0.5 l -7,0 c -0.28,0 -0.5,0.22 -0.5,0.5 0,0.28 0.22,0.5 0.5,0.5 z m 11,0 7,0 c 0.28,0 0.5,-0.22 0.5,-0.5 0,-0.28 -0.22,-0.5 -0.5,-0.5 l -7,0 c -0.28,0 -0.5,0.22 -0.5,0.5 0,0.28 0.22,0.5 0.5,0.5 z m 11,0 7,0 c 0.28,0 0.5,-0.22 0.5,-0.5 0,-0.28 -0.22,-0.5 -0.5,-0.5 l -7,0 c -0.28,0 -0.5,0.22 -0.5,0.5 0,0.28 0.22,0.5 0.5,0.5 z m 11,0 7,0 c 0.28,0 0.5,-0.22 0.5,-0.5 0,-0.28 -0.22,-0.5 -0.5,-0.5 l -7,0 c -0.28,0 -0.5,0.22 -0.5,0.5 0,0.28 0.22,0.5 0.5,0.5 z m 11,0 7,0 c 0.28,0 0.5,-0.22 0.5,-0.5 0,-0.28 -0.22,-0.5 -0.5,-0.5 l -7,0 c -0.28,0 -0.5,0.22 -0.5,0.5 0,0.28 0.22,0.5 0.5,0.5 z m 11,0 7,0 c 0.28,0 0.5,-0.22 0.5,-0.5 0,-0.28 -0.22,-0.5 -0.5,-0.5 l -7,0 c -0.28,0 -0.5,0.22 -0.5,0.5 0,0.28 0.22,0.5 0.5,0.5 z m 11,0 7,0 c 0.28,0 0.5,-0.22 0.5,-0.5 0,-0.28 -0.22,-0.5 -0.5,-0.5 l -7,0 c -0.28,0 -0.5,0.22 -0.5,0.5 0,0.28 0.22,0.5 0.5,0.5 z m 11,0 7,0 c 0.28,0 0.5,-0.22 0.5,-0.5 0,-0.28 -0.22,-0.5 -0.5,-0.5 l -7,0 c -0.28,0 -0.5,0.22 -0.5,0.5 0,0.28 0.22,0.5 0.5,0.5 z m 11,0 7,0 c 0.28,0 0.5,-0.22 0.5,-0.5 0,-0.28 -0.22,-0.5 -0.5,-0.5 l -7,0 c -0.28,0 -0.5,0.22 -0.5,0.5 0,0.28 0.22,0.5 0.5,0.5 z m 11,0 7,0 c 0.28,0 0.5,-0.22 0.5,-0.5 0,-0.28 -0.22,-0.5 -0.5,-0.5 l -7,0 c -0.28,0 -0.5,0.22 -0.5,0.5 0,0.28 0.22,0.5 0.5,0.5 z m 11,0 7,0 c 0.28,0 0.5,-0.22 0.5,-0.5 0,-0.28 -0.22,-0.5 -0.5,-0.5 l -7,0 c -0.28,0 -0.5,0.22 -0.5,0.5 0,0.28 0.22,0.5 0.5,0.5 z m 11,0 5.76,0 c 0.27,0 0.5,-0.22 0.5,-0.5 0,-0.28 -0.23,-0.5 -0.5,-0.5 l -5.76,0 c -0.28,0 -0.5,0.22 -0.5,0.5 0,0.28 0.22,0.5 0.5,0.5 z m -3.01,4.94 9.79,-5.44 -9.79,-5.44 c -0.24,-0.13 -0.54,-0.04 -0.68,0.2 -0.13,0.24 -0.04,0.54 0.2,0.68 l 9,5 0,-0.88 -9,5 c -0.24,0.14 -0.33,0.44 -0.2,0.68 0.14,0.24 0.44,0.33 0.68,0.2 z"
       inkscape:connector-curvature="0"
       id="path556"
       style="fill:#000000;fill-opacity:1;fill-rule:nonzero;stroke:none" /><g
       id="g558"><path
         d="m 480,424 0,-17.05"
         inkscape:connector-curvature="0"
         id="path560"
         style="fill:none;stroke:#000000;stroke-width:0.75;stroke-linecap:round;stroke-linejoin:round;stroke-miterlimit:8;stroke-opacity:1;stroke-dasharray:2.25, 3;stroke-dashoffset:0" /></g><g
       id="g562"><g
         clip-path="url(#clipPath566)"
         id="g564"><g
           id="g570"><g
             clip-path="url(#clipPath574)"
             id="g572"><text
   transform="matrix(1,0,0,-1,412.97,368.81)"
   id="text578"><tspan
     x="0 8.3999996 16.799999 25.200001 33.599998 42 50.400002 58.799999 67.199997 75.599998 84"
     y="0"
     id="tspan580"
     style="font-size:14.03999996px;font-variant:normal;font-weight:normal;writing-mode:lr-tb;fill:#000000;fill-opacity:1;fill-rule:nonzero;stroke:none;font-family:Courier New;-inkscape-font-specification:Courier New">fuehreAus()</tspan></text>

</g></g><g
           id="g582"><g
             clip-path="url(#clipPath586)"
             id="g584" /></g><g
           id="g590"><g
             clip-path="url(#clipPath594)"
             id="g592"><text
   transform="matrix(1,0,0,-1,509.35,368.81)"
   id="text598"><tspan
     x="0 4.6753201 12.48156 16.31448 20.25972"
     y="0"
     id="tspan600"
     style="font-size:14.03999996px;font-variant:normal;font-weight:normal;writing-mode:lr-tb;fill:#000000;fill-opacity:1;fill-rule:nonzero;stroke:none;font-family:Helvetica;-inkscape-font-specification:Helvetica">ruft </tspan></text>

</g></g><g
           id="g602"><g
             clip-path="url(#clipPath606)"
             id="g604" /></g><g
           id="g610"><g
             clip-path="url(#clipPath614)"
             id="g612"><text
   transform="matrix(1,0,0,-1,537.43,368.81)"
   id="text618"><tspan
     x="0 7.8062401 15.61248 19.4454"
     y="0"
     id="tspan620"
     style="font-size:14.03999996px;font-variant:normal;font-weight:normal;writing-mode:lr-tb;fill:#000000;fill-opacity:1;fill-rule:nonzero;stroke:none;font-family:Helvetica;-inkscape-font-specification:Helvetica">auf:</tspan></text>

</g></g><g
           id="g622"><g
             clip-path="url(#clipPath626)"
             id="g624" /></g><g
           id="g630"><g
             clip-path="url(#clipPath634)"
             id="g632"><text
   transform="matrix(1,0,0,-1,412.97,352.85)"
   id="text638"><tspan
     x="0 8.3999996 16.799999 25.200001 33.599998 42 50.400002 58.799999 67.199997 75.599998 84 92.400002 100.8 109.2 117.6 126 134.39999 142.8 151.2 159.60001"
     y="0"
     id="tspan640"
     style="font-size:14.03999996px;font-variant:normal;font-weight:normal;writing-mode:lr-tb;fill:#000000;fill-opacity:1;fill-rule:nonzero;stroke:none;font-family:Courier New;-inkscape-font-specification:Courier New">:Empfaenger.aktion()</tspan></text>

</g></g><g
           id="g642"><g
             clip-path="url(#clipPath646)"
             id="g644" /></g><g
           id="g650"><g
             clip-path="url(#clipPath654)"
             id="g652" /></g><g
           id="g658"><g
             clip-path="url(#clipPath662)"
             id="g660" /></g></g></g><path
       d="m 447.75,579.75 104.25,0"
       inkscape:connector-curvature="0"
       id="path666"
       style="fill:none;stroke:#000000;stroke-width:0.75;stroke-linecap:round;stroke-linejoin:round;stroke-miterlimit:8;stroke-opacity:1;stroke-dasharray:none" /></g></svg>