<?xml version="1.0" encoding="UTF-8" standalone="no"?>
<!-- Created with Inkscape (http://www.inkscape.org/) -->

<svg
   xmlns:dc="http://purl.org/dc/elements/1.1/"
   xmlns:cc="http://creativecommons.org/ns#"
   xmlns:rdf="http://www.w3.org/1999/02/22-rdf-syntax-ns#"
   xmlns:svg="http://www.w3.org/2000/svg"
   xmlns="http://www.w3.org/2000/svg"
   xmlns:sodipodi="http://sodipodi.sourceforge.net/DTD/sodipodi-0.dtd"
   xmlns:inkscape="http://www.inkscape.org/namespaces/inkscape"
   version="1.1"
   width="751.6875"
   height="358.125"
   id="svg2"
   xml:space="preserve"
   inkscape:version="0.48.4 r9939"
   sodipodi:docname="Bild 4-41 Sequenzdiagramm des Entwurfsmusters Zustand.svg"><sodipodi:namedview
     pagecolor="#ffffff"
     bordercolor="#666666"
     borderopacity="1"
     objecttolerance="10"
     gridtolerance="10"
     guidetolerance="10"
     inkscape:pageopacity="0"
     inkscape:pageshadow="2"
     inkscape:window-width="640"
     inkscape:window-height="480"
     id="namedview221"
     showgrid="false"
     inkscape:zoom="0.18730159"
     inkscape:cx="353.90625"
     inkscape:cy="268.09375"
     inkscape:window-x="0"
     inkscape:window-y="0"
     inkscape:window-maximized="0"
     inkscape:current-layer="svg2" /><metadata
     id="metadata8"><rdf:RDF><cc:Work
         rdf:about=""><dc:format>image/svg+xml</dc:format><dc:type
           rdf:resource="http://purl.org/dc/dcmitype/StillImage" /></cc:Work></rdf:RDF></metadata><defs
     id="defs6"><clipPath
       id="clipPath32"><path
         d="m 221.55,540.91 107.65,0 0,18.48 -107.65,0 0,-18.48 z"
         inkscape:connector-curvature="0"
         id="path34" /></clipPath><clipPath
       id="clipPath40"><path
         d="m 221.54,540.91 107.66,0 0,18.48 -107.66,0 0,-18.48 z"
         inkscape:connector-curvature="0"
         id="path42" /></clipPath><clipPath
       id="clipPath52"><path
         d="m 221.54,540.91 107.66,0 0,18.48 -107.66,0 0,-18.48 z"
         inkscape:connector-curvature="0"
         id="path54" /></clipPath><clipPath
       id="clipPath62"><path
         d="m 358.01,540.91 107.52,0 0,18.48 -107.52,0 0,-18.48 z"
         inkscape:connector-curvature="0"
         id="path64" /></clipPath><clipPath
       id="clipPath70"><path
         d="m 358.01,540.91 107.52,0 0,18.48 -107.52,0 0,-18.48 z"
         inkscape:connector-curvature="0"
         id="path72" /></clipPath><clipPath
       id="clipPath82"><path
         d="m 358.01,540.91 107.52,0 0,18.48 -107.52,0 0,-18.48 z"
         inkscape:connector-curvature="0"
         id="path84" /></clipPath><clipPath
       id="clipPath90"><path
         d="m 470,540.79 174,0 0,18.36 -174,0 0,-18.36 z"
         inkscape:connector-curvature="0"
         id="path92" /></clipPath><clipPath
       id="clipPath98"><path
         d="m 469.99,540.79 174,0 0,18.36 -174,0 0,-18.36 z"
         inkscape:connector-curvature="0"
         id="path100" /></clipPath><clipPath
       id="clipPath110"><path
         d="m 469.99,540.79 174,0 0,18.36 -174,0 0,-18.36 z"
         inkscape:connector-curvature="0"
         id="path112" /></clipPath><clipPath
       id="clipPath122"><path
         d="m 469.99,540.79 174,0 0,18.36 -174,0 0,-18.36 z"
         inkscape:connector-curvature="0"
         id="path124" /></clipPath><clipPath
       id="clipPath134"><path
         d="m 469.99,540.79 174,0 0,18.36 -174,0 0,-18.36 z"
         inkscape:connector-curvature="0"
         id="path136" /></clipPath><clipPath
       id="clipPath146"><path
         d="m 469.99,540.79 174,0 0,18.36 -174,0 0,-18.36 z"
         inkscape:connector-curvature="0"
         id="path148" /></clipPath><clipPath
       id="clipPath162"><path
         d="m 307.01,491.47 70.32,0 0,13.8 -70.32,0 0,-13.8 z"
         inkscape:connector-curvature="0"
         id="path164" /></clipPath><clipPath
       id="clipPath170"><path
         d="m 307.01,491.47 70.32,0 0,13.8 -70.32,0 0,-13.8 z"
         inkscape:connector-curvature="0"
         id="path172" /></clipPath><clipPath
       id="clipPath182"><path
         d="m 307.01,491.47 70.32,0 0,13.8 -70.32,0 0,-13.8 z"
         inkscape:connector-curvature="0"
         id="path184" /></clipPath><clipPath
       id="clipPath190"><path
         d="m 462.41,470.71 66.27,0 0,13.8 -66.27,0 0,-13.8 z"
         inkscape:connector-curvature="0"
         id="path192" /></clipPath><clipPath
       id="clipPath198"><path
         d="m 462.41,470.71 66.264,0 0,13.8 -66.264,0 0,-13.8 z"
         inkscape:connector-curvature="0"
         id="path200" /></clipPath><clipPath
       id="clipPath210"><path
         d="m 462.41,470.71 66.264,0 0,13.8 -66.264,0 0,-13.8 z"
         inkscape:connector-curvature="0"
         id="path212" /></clipPath><clipPath
       id="clipPath222"><path
         d="m 650.48,540.79 171.73,0 0,18.36 -171.73,0 0,-18.36 z"
         inkscape:connector-curvature="0"
         id="path224" /></clipPath><clipPath
       id="clipPath230"><path
         d="m 650.47,540.79 171.74,0 0,18.36 -171.74,0 0,-18.36 z"
         inkscape:connector-curvature="0"
         id="path232" /></clipPath><clipPath
       id="clipPath242"><path
         d="m 650.47,540.79 171.74,0 0,18.36 -171.74,0 0,-18.36 z"
         inkscape:connector-curvature="0"
         id="path244" /></clipPath><clipPath
       id="clipPath254"><path
         d="m 650.47,540.79 171.74,0 0,18.36 -171.74,0 0,-18.36 z"
         inkscape:connector-curvature="0"
         id="path256" /></clipPath><clipPath
       id="clipPath266"><path
         d="m 650.47,540.79 171.74,0 0,18.36 -171.74,0 0,-18.36 z"
         inkscape:connector-curvature="0"
         id="path268" /></clipPath><clipPath
       id="clipPath278"><path
         d="m 650.47,540.79 171.74,0 0,18.36 -171.74,0 0,-18.36 z"
         inkscape:connector-curvature="0"
         id="path280" /></clipPath><clipPath
       id="clipPath294"><path
         d="m 306.29,390.04 70.32,0 0,13.8 -70.32,0 0,-13.8 z"
         inkscape:connector-curvature="0"
         id="path296" /></clipPath><clipPath
       id="clipPath302"><path
         d="m 306.29,390.05 70.32,0 0,13.8 -70.32,0 0,-13.8 z"
         inkscape:connector-curvature="0"
         id="path304" /></clipPath><clipPath
       id="clipPath314"><path
         d="m 306.29,390.05 70.32,0 0,13.8 -70.32,0 0,-13.8 z"
         inkscape:connector-curvature="0"
         id="path316" /></clipPath><clipPath
       id="clipPath326"><path
         d="m 462.41,366.52 66.27,0 0,13.8 -66.27,0 0,-13.8 z"
         inkscape:connector-curvature="0"
         id="path328" /></clipPath><clipPath
       id="clipPath334"><path
         d="m 462.41,366.53 66.264,0 0,13.8 -66.264,0 0,-13.8 z"
         inkscape:connector-curvature="0"
         id="path336" /></clipPath><clipPath
       id="clipPath346"><path
         d="m 462.41,366.53 66.264,0 0,13.8 -66.264,0 0,-13.8 z"
         inkscape:connector-curvature="0"
         id="path348" /></clipPath><clipPath
       id="clipPath354"><path
         d="m 448.13,434.32 107.07,0 0,14.67 -107.07,0 0,-14.67 z"
         inkscape:connector-curvature="0"
         id="path356" /></clipPath><clipPath
       id="clipPath362"><path
         d="m 448.13,434.33 107.06,0 0,14.664 -107.06,0 0,-14.664 z"
         inkscape:connector-curvature="0"
         id="path364" /></clipPath><clipPath
       id="clipPath374"><path
         d="m 448.13,434.33 107.06,0 0,14.664 -107.06,0 0,-14.664 z"
         inkscape:connector-curvature="0"
         id="path376" /></clipPath><clipPath
       id="clipPath382"><path
         d="m 448.13,434.33 107.06,0 0,14.664 -107.06,0 0,-14.664 z"
         inkscape:connector-curvature="0"
         id="path384" /></clipPath><clipPath
       id="clipPath394"><path
         d="m 448.13,434.33 107.06,0 0,14.664 -107.06,0 0,-14.664 z"
         inkscape:connector-curvature="0"
         id="path396" /></clipPath><clipPath
       id="clipPath406"><path
         d="m 448.13,434.33 107.06,0 0,14.664 -107.06,0 0,-14.664 z"
         inkscape:connector-curvature="0"
         id="path408" /></clipPath><clipPath
       id="clipPath418"><path
         d="m 448.13,434.33 107.06,0 0,14.664 -107.06,0 0,-14.664 z"
         inkscape:connector-curvature="0"
         id="path420" /></clipPath></defs><g
     transform="matrix(1.25,0,0,-1.25,-276.46875,720.03125)"
     id="g10"><g
       id="g12"><path
         d="M 557.45,524.45 557.5,289.9"
         inkscape:connector-curvature="0"
         id="path14"
         style="fill:none;stroke:#000000;stroke-width:0.75;stroke-linecap:round;stroke-linejoin:round;stroke-miterlimit:10;stroke-opacity:1;stroke-dasharray:5.25, 3;stroke-dashoffset:0" /></g><path
       d="M 422.25,469.85 537,469.8 c 0.28,0 0.5,-0.22 0.5,-0.5 0,-0.27 -0.22,-0.5 -0.5,-0.5 l -114.75,0.05 c -0.28,0 -0.5,0.22 -0.5,0.5 0,0.28 0.22,0.5 0.5,0.5 z m 113.75,4.45 10,-5 -10,-5 0,10 z"
       inkscape:connector-curvature="0"
       id="path16"
       style="fill:#000000;fill-opacity:1;fill-rule:nonzero;stroke:none" /><path
       d="m 422.25,449.5 23.3,-0.05"
       inkscape:connector-curvature="0"
       id="path18"
       style="fill:none;stroke:#000000;stroke-width:0.75;stroke-linecap:round;stroke-linejoin:round;stroke-miterlimit:10;stroke-opacity:1;stroke-dasharray:none" /><g
       id="g20"><path
         d="M 275.55,524.45 275.6,289.9"
         inkscape:connector-curvature="0"
         id="path22"
         style="fill:none;stroke:#000000;stroke-width:0.75;stroke-linecap:round;stroke-linejoin:round;stroke-miterlimit:10;stroke-opacity:1;stroke-dasharray:5.25, 3;stroke-dashoffset:0" /></g><g
       id="g24"><path
         d="M 411.75,524.45 411.45,289.9"
         inkscape:connector-curvature="0"
         id="path26"
         style="fill:none;stroke:#000000;stroke-width:0.75;stroke-linecap:round;stroke-linejoin:round;stroke-miterlimit:10;stroke-opacity:1;stroke-dasharray:5.25, 3;stroke-dashoffset:0" /></g><g
       id="g28"><g
         clip-path="url(#clipPath32)"
         id="g30"><g
           id="g36"><g
             clip-path="url(#clipPath40)"
             id="g38"><text
   transform="matrix(1,0,0,-1,252.62,544.75)"
   id="text44"><tspan
     x="0 4.4368801 15.96 19.551001 23.142 32.015759 40.889519"
     y="0"
     id="tspan46"
     style="font-size:15.96000004px;font-variant:normal;font-weight:normal;writing-mode:lr-tb;fill:#000000;fill-opacity:1;fill-rule:nonzero;stroke:none;font-family:Helvetica;-inkscape-font-specification:Helvetica">:Client</tspan></text>

</g></g><g
           id="g48"><g
             clip-path="url(#clipPath52)"
             id="g50" /></g></g></g><path
       d="m 357.95,524.45 107.6,0 0,51.1 -107.6,0 0,-51.1 z"
       inkscape:connector-curvature="0"
       id="path56"
       style="fill:none;stroke:#000000;stroke-width:0.75;stroke-linecap:round;stroke-linejoin:miter;stroke-miterlimit:8;stroke-opacity:1;stroke-dasharray:none" /><g
       id="g58"><g
         clip-path="url(#clipPath62)"
         id="g60"><g
           id="g66"><g
             clip-path="url(#clipPath70)"
             id="g68"><text
   transform="matrix(1,0,0,-1,382.49,544.75)"
   id="text74"><tspan
     x="0 4.4368801 15.0822 23.955959 32.861641 37.298519 46.172279 54.104401"
     y="0"
     id="tspan76"
     style="font-size:15.96000004px;font-variant:normal;font-weight:normal;writing-mode:lr-tb;fill:#000000;fill-opacity:1;fill-rule:nonzero;stroke:none;font-family:Helvetica;-inkscape-font-specification:Helvetica">:Kontext</tspan></text>

</g></g><g
           id="g78"><g
             clip-path="url(#clipPath82)"
             id="g80" /></g></g></g><g
       id="g86"><g
         clip-path="url(#clipPath90)"
         id="g88"><g
           id="g94"><g
             clip-path="url(#clipPath98)"
             id="g96"><text
   transform="matrix(1,0,0,-1,481.87,544.39)"
   id="text102"><tspan
     x="0"
     y="0"
     id="tspan104"
     style="font-size:15.96000004px;font-variant:normal;font-weight:normal;writing-mode:lr-tb;fill:#000000;fill-opacity:1;fill-rule:nonzero;stroke:none;font-family:Helvetica;-inkscape-font-specification:Helvetica">x</tspan></text>

</g></g><g
           id="g106"><g
             clip-path="url(#clipPath110)"
             id="g108"><text
   transform="matrix(1,0,0,-1,489.79,544.39)"
   id="text114"><tspan
     x="0"
     y="0"
     id="tspan116"
     style="font-size:15.96000004px;font-variant:normal;font-weight:normal;writing-mode:lr-tb;fill:#000000;fill-opacity:1;fill-rule:nonzero;stroke:none;font-family:Helvetica;-inkscape-font-specification:Helvetica">:</tspan></text>

</g></g><g
           id="g118"><g
             clip-path="url(#clipPath122)"
             id="g120"><text
   transform="matrix(1,0,0,-1,494.23,544.39)"
   id="text126"><tspan
     x="0 10.64532 19.519079 28.392839 36.468601 41.783279 50.65704 55.093922 64.047478"
     y="0"
     id="tspan128"
     style="font-size:15.96000004px;font-variant:normal;font-weight:normal;writing-mode:lr-tb;fill:#000000;fill-opacity:1;fill-rule:nonzero;stroke:none;font-family:Helvetica;-inkscape-font-specification:Helvetica">Konkreter</tspan></text>

</g></g><g
           id="g130"><g
             clip-path="url(#clipPath134)"
             id="g132"><text
   transform="matrix(1,0,0,-1,563.59,544.39)"
   id="text138"><tspan
     x="0 9.7515602 18.62532 26.60532 31.0422 40.059601 48.933361 57.807121"
     y="0"
     id="tspan140"
     style="font-size:15.96000004px;font-variant:normal;font-weight:normal;writing-mode:lr-tb;fill:#000000;fill-opacity:1;fill-rule:nonzero;stroke:none;font-family:Helvetica;-inkscape-font-specification:Helvetica">ZustandX</tspan></text>

</g></g><g
           id="g142"><g
             clip-path="url(#clipPath146)"
             id="g144" /></g></g></g><path
       d="m 263.75,319.3 22.75,0 0,189.95 -22.75,0 0,-189.95 z"
       inkscape:connector-curvature="0"
       id="path150"
       style="fill:#ffffff;fill-opacity:1;fill-rule:evenodd;stroke:none" /><path
       d="m 263.75,319.3 22.75,0 0,189.95 -22.75,0 0,-189.95 z"
       inkscape:connector-curvature="0"
       id="path152"
       style="fill:none;stroke:#000000;stroke-width:0.75;stroke-linecap:round;stroke-linejoin:miter;stroke-miterlimit:8;stroke-opacity:1;stroke-dasharray:none" /><path
       d="m 400.15,408.85 22.75,0 0,81.6 -22.75,0 0,-81.6 z"
       inkscape:connector-curvature="0"
       id="path154"
       style="fill:#ffffff;fill-opacity:1;fill-rule:evenodd;stroke:none" /><path
       d="m 400.15,408.85 22.75,0 0,81.6 -22.75,0 0,-81.6 z"
       inkscape:connector-curvature="0"
       id="path156"
       style="fill:none;stroke:#000000;stroke-width:0.75;stroke-linecap:round;stroke-linejoin:miter;stroke-miterlimit:8;stroke-opacity:1;stroke-dasharray:none" /><g
       id="g158"><g
         clip-path="url(#clipPath162)"
         id="g160"><g
           id="g166"><g
             clip-path="url(#clipPath170)"
             id="g168"><text
   transform="matrix(1,0,0,-1,307.01,494.23)"
   id="text174"><tspan
     x="0 6.7080002 13.416 20.124001 24.120001 30.792 34.127998 36.683998 43.391998 50.099998 54.096001"
     y="0"
     id="tspan176"
     style="font-size:12px;font-variant:normal;font-weight:normal;writing-mode:lr-tb;fill:#000000;fill-opacity:1;fill-rule:nonzero;stroke:none;font-family:Helvetica;-inkscape-font-specification:Helvetica">operation()</tspan></text>

</g></g><g
           id="g178"><g
             clip-path="url(#clipPath182)"
             id="g180" /></g></g></g><g
       id="g186"><g
         clip-path="url(#clipPath190)"
         id="g188"><g
           id="g194"><g
             clip-path="url(#clipPath198)"
             id="g196"><text
   transform="matrix(1,0,0,-1,462.41,473.47)"
   id="text202"><tspan
     x="0 6.7080002 13.416 20.124001 24.120001 30.792 34.127998 36.683998 43.391998 50.099998 54.096001"
     y="0"
     id="tspan204"
     style="font-size:12px;font-variant:normal;font-weight:normal;writing-mode:lr-tb;fill:#000000;fill-opacity:1;fill-rule:nonzero;stroke:none;font-family:Helvetica;-inkscape-font-specification:Helvetica">operation()</tspan></text>

</g></g><g
           id="g206"><g
             clip-path="url(#clipPath210)"
             id="g208" /></g></g></g><path
       d="m 545.95,457.55 22.75,0 0,12 -22.75,0 0,-12 z"
       inkscape:connector-curvature="0"
       id="path214"
       style="fill:#ffffff;fill-opacity:1;fill-rule:evenodd;stroke:none" /><path
       d="m 545.95,457.55 22.75,0 0,12 -22.75,0 0,-12 z"
       inkscape:connector-curvature="0"
       id="path216"
       style="fill:none;stroke:#000000;stroke-width:0.75;stroke-linecap:round;stroke-linejoin:miter;stroke-miterlimit:8;stroke-opacity:1;stroke-dasharray:none" /><g
       id="g218"><g
         clip-path="url(#clipPath222)"
         id="g220"><g
           id="g226"><g
             clip-path="url(#clipPath230)"
             id="g228"><text
   transform="matrix(1,0,0,-1,661.3,544.39)"
   id="text234"><tspan
     x="0"
     y="0"
     id="tspan236"
     style="font-size:15.96000004px;font-variant:normal;font-weight:normal;writing-mode:lr-tb;fill:#000000;fill-opacity:1;fill-rule:nonzero;stroke:none;font-family:Helvetica;-inkscape-font-specification:Helvetica">y</tspan></text>

</g></g><g
           id="g238"><g
             clip-path="url(#clipPath242)"
             id="g240"><text
   transform="matrix(1,0,0,-1,669.22,544.39)"
   id="text246"><tspan
     x="0"
     y="0"
     id="tspan248"
     style="font-size:15.96000004px;font-variant:normal;font-weight:normal;writing-mode:lr-tb;fill:#000000;fill-opacity:1;fill-rule:nonzero;stroke:none;font-family:Helvetica;-inkscape-font-specification:Helvetica">:</tspan></text>

</g></g><g
           id="g250"><g
             clip-path="url(#clipPath254)"
             id="g252"><text
   transform="matrix(1,0,0,-1,673.66,544.39)"
   id="text258"><tspan
     x="0 10.64532 19.519079 28.392839 36.468601 41.783279 50.65704 55.093922 64.047478"
     y="0"
     id="tspan260"
     style="font-size:15.96000004px;font-variant:normal;font-weight:normal;writing-mode:lr-tb;fill:#000000;fill-opacity:1;fill-rule:nonzero;stroke:none;font-family:Helvetica;-inkscape-font-specification:Helvetica">Konkreter</tspan></text>

</g></g><g
           id="g262"><g
             clip-path="url(#clipPath266)"
             id="g264"><text
   transform="matrix(1,0,0,-1,743.02,544.39)"
   id="text270"><tspan
     x="0 9.7515602 18.62532 26.60532 31.0422 40.059601 48.933361 57.918839"
     y="0"
     id="tspan272"
     style="font-size:15.96000004px;font-variant:normal;font-weight:normal;writing-mode:lr-tb;fill:#000000;fill-opacity:1;fill-rule:nonzero;stroke:none;font-family:Helvetica;-inkscape-font-specification:Helvetica">ZustandY</tspan></text>

</g></g><g
           id="g274"><g
             clip-path="url(#clipPath278)"
             id="g276" /></g></g></g><g
       id="g282"><path
         d="M 736.35,524.45 736.4,289.9"
         inkscape:connector-curvature="0"
         id="path284"
         style="fill:none;stroke:#000000;stroke-width:0.75;stroke-linecap:round;stroke-linejoin:round;stroke-miterlimit:8;stroke-opacity:1;stroke-dasharray:5.25, 3;stroke-dashoffset:0" /></g><path
       d="m 724.85,345.2 22.75,0 0,20.2 -22.75,0 0,-20.2 z"
       inkscape:connector-curvature="0"
       id="path286"
       style="fill:#ffffff;fill-opacity:1;fill-rule:evenodd;stroke:none" /><path
       d="m 724.85,345.2 22.75,0 0,20.2 -22.75,0 0,-20.2 z"
       inkscape:connector-curvature="0"
       id="path288"
       style="fill:none;stroke:#000000;stroke-width:0.75;stroke-linecap:round;stroke-linejoin:miter;stroke-miterlimit:8;stroke-opacity:1;stroke-dasharray:none" /><g
       id="g290"><g
         clip-path="url(#clipPath294)"
         id="g292"><g
           id="g298"><g
             clip-path="url(#clipPath302)"
             id="g300"><text
   transform="matrix(1,0,0,-1,306.29,392.81)"
   id="text306"><tspan
     x="0 6.7080002 13.416 20.124001 24.120001 30.792 34.127998 36.683998 43.391998 50.099998 54.096001"
     y="0"
     id="tspan308"
     style="font-size:12px;font-variant:normal;font-weight:normal;writing-mode:lr-tb;fill:#000000;fill-opacity:1;fill-rule:nonzero;stroke:none;font-family:Helvetica;-inkscape-font-specification:Helvetica">operation()</tspan></text>

</g></g><g
           id="g310"><g
             clip-path="url(#clipPath314)"
             id="g312" /></g></g></g><path
       d="m 400.15,319.3 22.75,0 0,69.45 -22.75,0 0,-69.45 z"
       inkscape:connector-curvature="0"
       id="path318"
       style="fill:#ffffff;fill-opacity:1;fill-rule:evenodd;stroke:none" /><path
       d="m 400.15,319.3 22.75,0 0,69.45 -22.75,0 0,-69.45 z"
       inkscape:connector-curvature="0"
       id="path320"
       style="fill:none;stroke:#000000;stroke-width:0.75;stroke-linecap:round;stroke-linejoin:miter;stroke-miterlimit:8;stroke-opacity:1;stroke-dasharray:none" /><g
       id="g322"><g
         clip-path="url(#clipPath326)"
         id="g324"><g
           id="g330"><g
             clip-path="url(#clipPath334)"
             id="g332"><text
   transform="matrix(1,0,0,-1,462.41,369.29)"
   id="text338"><tspan
     x="0 6.7080002 13.416 20.124001 24.120001 30.792 34.127998 36.683998 43.391998 50.099998 54.096001"
     y="0"
     id="tspan340"
     style="font-size:12px;font-variant:normal;font-weight:normal;writing-mode:lr-tb;fill:#000000;fill-opacity:1;fill-rule:nonzero;stroke:none;font-family:Helvetica;-inkscape-font-specification:Helvetica">operation()</tspan></text>

</g></g><g
           id="g342"><g
             clip-path="url(#clipPath346)"
             id="g344" /></g></g></g><g
       id="g350"><g
         clip-path="url(#clipPath354)"
         id="g352"><g
           id="g358"><g
             clip-path="url(#clipPath362)"
             id="g360"><text
   transform="matrix(1,0,0,-1,448.13,437.93)"
   id="text366"><tspan
     x="0 6.7080002 13.416 20.016001 26.724001 33.431999 37.428001 44.099998 51.431999 58.139999 64.139999 67.379997 74.087997 80.688004"
     y="0"
     id="tspan368"
     style="font-size:12px;font-variant:normal;font-weight:normal;writing-mode:lr-tb;fill:#000000;fill-opacity:1;fill-rule:nonzero;stroke:none;font-family:Helvetica;-inkscape-font-specification:Helvetica">aendereZustand</tspan></text>

</g></g><g
           id="g370"><g
             clip-path="url(#clipPath374)"
             id="g372" /></g><g
           id="g378"><g
             clip-path="url(#clipPath382)"
             id="g380"><text
   transform="matrix(1,0,0,-1,538.99,437.93)"
   id="text386"><tspan
     x="0"
     y="0"
     id="tspan388"
     style="font-size:12px;font-variant:normal;font-weight:normal;writing-mode:lr-tb;fill:#000000;fill-opacity:1;fill-rule:nonzero;stroke:none;font-family:Helvetica;-inkscape-font-specification:Helvetica">(</tspan></text>

</g></g><g
           id="g390"><g
             clip-path="url(#clipPath394)"
             id="g392"><text
   transform="matrix(1,0,0,-1,542.95,437.93)"
   id="text398"><tspan
     x="0"
     y="0"
     id="tspan400"
     style="font-size:12px;font-variant:normal;font-weight:normal;writing-mode:lr-tb;fill:#000000;fill-opacity:1;fill-rule:nonzero;stroke:none;font-family:Helvetica;-inkscape-font-specification:Helvetica">y</tspan></text>

</g></g><g
           id="g402"><g
             clip-path="url(#clipPath406)"
             id="g404"><text
   transform="matrix(1,0,0,-1,548.83,437.93)"
   id="text410"><tspan
     x="0"
     y="0"
     id="tspan412"
     style="font-size:12px;font-variant:normal;font-weight:normal;writing-mode:lr-tb;fill:#000000;fill-opacity:1;fill-rule:nonzero;stroke:none;font-family:Helvetica;-inkscape-font-specification:Helvetica">)</tspan></text>

</g></g><g
           id="g414"><g
             clip-path="url(#clipPath418)"
             id="g416" /></g></g></g><path
       d="m 411.1,423.15 22.75,0 0,16.05 -22.75,0 0,-16.05 z"
       inkscape:connector-curvature="0"
       id="path422"
       style="fill:#ffffff;fill-opacity:1;fill-rule:evenodd;stroke:none" /><path
       d="m 411.1,423.15 22.75,0 0,16.05 -22.75,0 0,-16.05 z"
       inkscape:connector-curvature="0"
       id="path424"
       style="fill:none;stroke:#000000;stroke-width:0.75;stroke-linecap:round;stroke-linejoin:miter;stroke-miterlimit:8;stroke-opacity:1;stroke-dasharray:none" /><path
       d="m 286.5,490.55 104.25,-0.05 c 0.28,0 0.5,-0.22 0.5,-0.5 0,-0.27 -0.22,-0.5 -0.5,-0.5 l -104.25,0.05 c -0.28,0 -0.5,0.22 -0.5,0.5 0,0.28 0.22,0.5 0.5,0.5 z m 103.25,4.45 10,-5 -10,-5 0,10 z"
       inkscape:connector-curvature="0"
       id="path426"
       style="fill:#000000;fill-opacity:1;fill-rule:nonzero;stroke:none" /><path
       d="m 286.5,389.15 104.25,-0.05 c 0.28,0 0.5,-0.22 0.5,-0.5 0,-0.27 -0.22,-0.5 -0.5,-0.5 l -104.25,0.05 c -0.28,0 -0.5,0.22 -0.5,0.5 0,0.28 0.22,0.5 0.5,0.5 z m 103.25,4.45 10,-5 -10,-5 0,10 z"
       inkscape:connector-curvature="0"
       id="path428"
       style="fill:#000000;fill-opacity:1;fill-rule:nonzero;stroke:none" /><path
       d="m 445.5,438.45 -3,-0.01 c -0.27,0 -0.5,0.22 -0.5,0.5 0,0.27 0.22,0.5 0.5,0.5 l 3,0.01 c 0.27,0 0.5,-0.22 0.5,-0.5 0,-0.27 -0.22,-0.5 -0.5,-0.5 z m -1.98,-4.51 -10.02,4.96 9.98,5.04 0.04,-10 z"
       inkscape:connector-curvature="0"
       id="path430"
       style="fill:#000000;fill-opacity:1;fill-rule:nonzero;stroke:none" /><path
       d="m 445.5,449 0.05,-9.8"
       inkscape:connector-curvature="0"
       id="path432"
       style="fill:none;stroke:#000000;stroke-width:0.75;stroke-linecap:round;stroke-linejoin:round;stroke-miterlimit:8;stroke-opacity:1;stroke-dasharray:none" /><path
       d="m 422.9,365.75 292.95,-0.05 c 0.28,0 0.5,-0.22 0.5,-0.5 0,-0.27 -0.22,-0.5 -0.5,-0.5 l -292.95,0.05 c -0.28,0 -0.5,0.22 -0.5,0.5 0,0.28 0.22,0.5 0.5,0.5 z m 291.95,4.45 10,-5 -10,-5 0,10 z"
       inkscape:connector-curvature="0"
       id="path434"
       style="fill:#000000;fill-opacity:1;fill-rule:nonzero;stroke:none" /><path
       d="m 221.55,524.45 107.6,0 0,51.1 -107.6,0 0,-51.1 z"
       inkscape:connector-curvature="0"
       id="path436"
       style="fill:none;stroke:#000000;stroke-width:0.75;stroke-linecap:round;stroke-linejoin:miter;stroke-miterlimit:8;stroke-opacity:1;stroke-dasharray:none" /><path
       d="m 469.95,524.55 174.05,0 0,51.1 -174.05,0 0,-51.1 z"
       inkscape:connector-curvature="0"
       id="path438"
       style="fill:none;stroke:#000000;stroke-width:0.75;stroke-linecap:round;stroke-linejoin:miter;stroke-miterlimit:8;stroke-opacity:1;stroke-dasharray:none" /><path
       d="m 650.35,524.45 171.8,0 0,51.1 -171.8,0 0,-51.1 z"
       inkscape:connector-curvature="0"
       id="path440"
       style="fill:none;stroke:#000000;stroke-width:0.75;stroke-linecap:round;stroke-linejoin:miter;stroke-miterlimit:8;stroke-opacity:1;stroke-dasharray:none" /></g></svg>