<?xml version="1.0" encoding="UTF-8" standalone="no"?>
<!-- Created with Inkscape (http://www.inkscape.org/) -->

<svg
   xmlns:dc="http://purl.org/dc/elements/1.1/"
   xmlns:cc="http://creativecommons.org/ns#"
   xmlns:rdf="http://www.w3.org/1999/02/22-rdf-syntax-ns#"
   xmlns:svg="http://www.w3.org/2000/svg"
   xmlns="http://www.w3.org/2000/svg"
   xmlns:sodipodi="http://sodipodi.sourceforge.net/DTD/sodipodi-0.dtd"
   xmlns:inkscape="http://www.inkscape.org/namespaces/inkscape"
   version="1.1"
   width="559.125"
   height="181.25"
   id="svg2"
   xml:space="preserve"
   inkscape:version="0.48.4 r9939"
   sodipodi:docname="Bild 4-38 Klassendiagramm des Vermittler-Musters.svg"><sodipodi:namedview
     pagecolor="#ffffff"
     bordercolor="#666666"
     borderopacity="1"
     objecttolerance="10"
     gridtolerance="10"
     guidetolerance="10"
     inkscape:pageopacity="0"
     inkscape:pageshadow="2"
     inkscape:window-width="640"
     inkscape:window-height="480"
     id="namedview268"
     showgrid="false"
     inkscape:zoom="0.18730159"
     inkscape:cx="535.6875"
     inkscape:cy="-439.9375"
     inkscape:window-x="0"
     inkscape:window-y="0"
     inkscape:window-maximized="0"
     inkscape:current-layer="svg2" /><metadata
     id="metadata8"><rdf:RDF><cc:Work
         rdf:about=""><dc:format>image/svg+xml</dc:format><dc:type
           rdf:resource="http://purl.org/dc/dcmitype/StillImage" /></cc:Work></rdf:RDF></metadata><defs
     id="defs6"><clipPath
       id="clipPath18"><path
         d="m 76.081,963.84 142.95,0 0,27.36 -142.95,0 0,-27.36 z"
         inkscape:connector-curvature="0"
         id="path20" /></clipPath><clipPath
       id="clipPath26"><path
         d="m 76.08,963.84 142.94,0 0,27.36 -142.94,0 0,-27.36 z"
         inkscape:connector-curvature="0"
         id="path28" /></clipPath><clipPath
       id="clipPath38"><path
         d="m 76.08,963.84 142.94,0 0,27.36 -142.94,0 0,-27.36 z"
         inkscape:connector-curvature="0"
         id="path40" /></clipPath><clipPath
       id="clipPath46"><path
         d="m 76.08,963.84 142.94,0 0,27.36 -142.94,0 0,-27.36 z"
         inkscape:connector-curvature="0"
         id="path48" /></clipPath><clipPath
       id="clipPath58"><path
         d="m 76.08,963.84 142.94,0 0,27.36 -142.94,0 0,-27.36 z"
         inkscape:connector-curvature="0"
         id="path60" /></clipPath><clipPath
       id="clipPath70"><path
         d="m 76.08,963.84 142.94,0 0,27.36 -142.94,0 0,-27.36 z"
         inkscape:connector-curvature="0"
         id="path72" /></clipPath><clipPath
       id="clipPath82"><path
         d="m 76.08,963.84 142.94,0 0,27.36 -142.94,0 0,-27.36 z"
         inkscape:connector-curvature="0"
         id="path84" /></clipPath><clipPath
       id="clipPath90"><path
         d="m 79.201,953.52 141.99,0 0,10.32 -141.99,0 0,-10.32 z"
         inkscape:connector-curvature="0"
         id="path92" /></clipPath><clipPath
       id="clipPath98"><path
         d="m 79.2,953.52 141.98,0 0,10.32 -141.98,0 0,-10.32 z"
         inkscape:connector-curvature="0"
         id="path100" /></clipPath><clipPath
       id="clipPath110"><path
         d="m 79.2,953.52 141.98,0 0,10.32 -141.98,0 0,-10.32 z"
         inkscape:connector-curvature="0"
         id="path112" /></clipPath><clipPath
       id="clipPath124"><path
         d="m 305.93,963.84 96.48,0 0,27.36 -96.48,0 0,-27.36 z"
         inkscape:connector-curvature="0"
         id="path126" /></clipPath><clipPath
       id="clipPath132"><path
         d="m 305.93,963.84 96.48,0 0,27.36 -96.48,0 0,-27.36 z"
         inkscape:connector-curvature="0"
         id="path134" /></clipPath><clipPath
       id="clipPath144"><path
         d="m 305.93,963.84 96.48,0 0,27.36 -96.48,0 0,-27.36 z"
         inkscape:connector-curvature="0"
         id="path146" /></clipPath><clipPath
       id="clipPath152"><path
         d="m 305.93,963.84 96.48,0 0,27.36 -96.48,0 0,-27.36 z"
         inkscape:connector-curvature="0"
         id="path154" /></clipPath><clipPath
       id="clipPath164"><path
         d="m 305.93,963.84 96.48,0 0,27.36 -96.48,0 0,-27.36 z"
         inkscape:connector-curvature="0"
         id="path166" /></clipPath><clipPath
       id="clipPath174"><path
         d="m 309.65,942.24 49.08,0 0,20.76 -49.08,0 0,-20.76 z"
         inkscape:connector-curvature="0"
         id="path176" /></clipPath><clipPath
       id="clipPath182"><path
         d="m 309.65,942.24 49.08,0 0,20.76 -49.08,0 0,-20.76 z"
         inkscape:connector-curvature="0"
         id="path184" /></clipPath><clipPath
       id="clipPath194"><path
         d="m 309.65,942.24 49.08,0 0,20.76 -49.08,0 0,-20.76 z"
         inkscape:connector-curvature="0"
         id="path196" /></clipPath><clipPath
       id="clipPath206"><path
         d="m 309.65,942.24 49.08,0 0,20.76 -49.08,0 0,-20.76 z"
         inkscape:connector-curvature="0"
         id="path208" /></clipPath><clipPath
       id="clipPath218"><path
         d="m 420.89,931.56 102.27,0 0,37.08 -102.27,0 0,-37.08 z"
         inkscape:connector-curvature="0"
         id="path220" /></clipPath><clipPath
       id="clipPath226"><path
         d="m 420.89,931.56 102.26,0 0,37.08 -102.26,0 0,-37.08 z"
         inkscape:connector-curvature="0"
         id="path228" /></clipPath><clipPath
       id="clipPath238"><path
         d="m 420.89,931.56 102.26,0 0,37.08 -102.26,0 0,-37.08 z"
         inkscape:connector-curvature="0"
         id="path240" /></clipPath><clipPath
       id="clipPath250"><path
         d="m 420.89,931.56 102.26,0 0,37.08 -102.26,0 0,-37.08 z"
         inkscape:connector-curvature="0"
         id="path252" /></clipPath><clipPath
       id="clipPath258"><path
         d="m 420.89,931.56 102.26,0 0,37.08 -102.26,0 0,-37.08 z"
         inkscape:connector-curvature="0"
         id="path260" /></clipPath><clipPath
       id="clipPath266"><path
         d="m 420.89,931.56 102.26,0 0,37.08 -102.26,0 0,-37.08 z"
         inkscape:connector-curvature="0"
         id="path268" /></clipPath><clipPath
       id="clipPath278"><path
         d="m 420.89,931.56 102.26,0 0,37.08 -102.26,0 0,-37.08 z"
         inkscape:connector-curvature="0"
         id="path280" /></clipPath><clipPath
       id="clipPath290"><path
         d="m 420.89,931.56 102.26,0 0,37.08 -102.26,0 0,-37.08 z"
         inkscape:connector-curvature="0"
         id="path292" /></clipPath><clipPath
       id="clipPath302"><path
         d="m 420.89,931.56 102.26,0 0,37.08 -102.26,0 0,-37.08 z"
         inkscape:connector-curvature="0"
         id="path304" /></clipPath><clipPath
       id="clipPath312"><path
         d="m 362.57,888.57 81.48,0 0,20.79 -81.48,0 0,-20.79 z"
         inkscape:connector-curvature="0"
         id="path314" /></clipPath><clipPath
       id="clipPath320"><path
         d="m 362.57,888.58 81.48,0 0,20.784 -81.48,0 0,-20.784 z"
         inkscape:connector-curvature="0"
         id="path322" /></clipPath><clipPath
       id="clipPath332"><path
         d="m 362.57,888.58 81.48,0 0,20.784 -81.48,0 0,-20.784 z"
         inkscape:connector-curvature="0"
         id="path334" /></clipPath><clipPath
       id="clipPath344"><path
         d="m 362.57,888.58 81.48,0 0,20.784 -81.48,0 0,-20.784 z"
         inkscape:connector-curvature="0"
         id="path346" /></clipPath><clipPath
       id="clipPath354"><path
         d="m 362.21,870.81 47.04,0 0,20.64 -47.04,0 0,-20.64 z"
         inkscape:connector-curvature="0"
         id="path356" /></clipPath><clipPath
       id="clipPath362"><path
         d="m 362.21,870.82 47.04,0 0,20.64 -47.04,0 0,-20.64 z"
         inkscape:connector-curvature="0"
         id="path364" /></clipPath><clipPath
       id="clipPath374"><path
         d="m 362.21,870.82 47.04,0 0,20.64 -47.04,0 0,-20.64 z"
         inkscape:connector-curvature="0"
         id="path376" /></clipPath><clipPath
       id="clipPath384"><path
         d="m 261.75,888.57 81.495,0 0,20.79 -81.495,0 0,-20.79 z"
         inkscape:connector-curvature="0"
         id="path386" /></clipPath><clipPath
       id="clipPath392"><path
         d="m 261.74,888.58 81.504,0 0,20.784 -81.504,0 0,-20.784 z"
         inkscape:connector-curvature="0"
         id="path394" /></clipPath><clipPath
       id="clipPath404"><path
         d="m 261.74,888.58 81.504,0 0,20.784 -81.504,0 0,-20.784 z"
         inkscape:connector-curvature="0"
         id="path406" /></clipPath><clipPath
       id="clipPath414"><path
         d="m 261.39,871.05 47.055,0 0,20.64 -47.055,0 0,-20.64 z"
         inkscape:connector-curvature="0"
         id="path416" /></clipPath><clipPath
       id="clipPath422"><path
         d="m 261.38,871.06 47.064,0 0,20.64 -47.064,0 0,-20.64 z"
         inkscape:connector-curvature="0"
         id="path424" /></clipPath><clipPath
       id="clipPath434"><path
         d="m 261.38,871.06 47.064,0 0,20.64 -47.064,0 0,-20.64 z"
         inkscape:connector-curvature="0"
         id="path436" /></clipPath><clipPath
       id="clipPath452"><path
         d="m 97.951,888.57 84.48,0 0,20.79 -84.48,0 0,-20.79 z"
         inkscape:connector-curvature="0"
         id="path454" /></clipPath><clipPath
       id="clipPath460"><path
         d="m 97.944,888.58 84.48,0 0,20.784 -84.48,0 0,-20.784 z"
         inkscape:connector-curvature="0"
         id="path462" /></clipPath><clipPath
       id="clipPath472"><path
         d="m 97.944,888.58 84.48,0 0,20.784 -84.48,0 0,-20.784 z"
         inkscape:connector-curvature="0"
         id="path474" /></clipPath><clipPath
       id="clipPath480"><path
         d="m 79.081,869.85 135.15,0 0,24.12 -135.15,0 0,-24.12 z"
         inkscape:connector-curvature="0"
         id="path482" /></clipPath><clipPath
       id="clipPath488"><path
         d="m 79.08,869.86 135.14,0 0,24.12 -135.14,0 0,-24.12 z"
         inkscape:connector-curvature="0"
         id="path490" /></clipPath><clipPath
       id="clipPath500"><path
         d="m 79.08,869.86 135.14,0 0,24.12 -135.14,0 0,-24.12 z"
         inkscape:connector-curvature="0"
         id="path502" /></clipPath><clipPath
       id="clipPath512"><path
         d="m 79.08,869.86 135.14,0 0,24.12 -135.14,0 0,-24.12 z"
         inkscape:connector-curvature="0"
         id="path514" /></clipPath></defs><g
     transform="matrix(1.25,0,0,-1.25,-94.6875,1251.1875)"
     id="g10"><path
       d="m 147.6,932.15 0,-21.6"
       inkscape:connector-curvature="0"
       id="path12"
       style="fill:none;stroke:#000000;stroke-width:0.60000002;stroke-linecap:round;stroke-linejoin:round;stroke-miterlimit:10;stroke-opacity:1;stroke-dasharray:none" /><g
       id="g14"><g
         clip-path="url(#clipPath18)"
         id="g16"><g
           id="g22"><g
             clip-path="url(#clipPath26)"
             id="g24"><text
   transform="matrix(1,0,0,-1,126.5,983.04)"
   id="text30"><tspan
     x="0 6.0029998 11.034 14.535 22.535999 25.065001 28.062 31.059 33.561001 38.618999"
     y="0"
     id="tspan32"
     style="font-size:9px;font-variant:normal;font-weight:bold;writing-mode:lr-tb;fill:#000000;fill-opacity:1;fill-rule:nonzero;stroke:none;font-family:Helvetica;-inkscape-font-specification:Helvetica-Bold">Vermittler</tspan></text>

</g></g><g
           id="g34"><g
             clip-path="url(#clipPath38)"
             id="g36" /></g><g
           id="g42"><g
             clip-path="url(#clipPath46)"
             id="g44"><text
   transform="matrix(1,0,0,-1,120.5,973.92)"
   id="text50"><tspan
     x="0"
     y="0"
     id="tspan52"
     style="font-size:9px;font-variant:normal;font-weight:normal;writing-mode:lr-tb;fill:#000000;fill-opacity:1;fill-rule:nonzero;stroke:none;font-family:Courier New;-inkscape-font-specification:Courier New">{</tspan></text>

</g></g><g
           id="g54"><g
             clip-path="url(#clipPath58)"
             id="g56"><text
   transform="matrix(1,0,0,-1,125.9,973.92)"
   id="text62"><tspan
     x="0 5.4000001 10.8 16.200001 21.6 27 32.400002 37.799999"
     y="0"
     id="tspan64"
     style="font-size:9px;font-variant:normal;font-weight:normal;writing-mode:lr-tb;fill:#000000;fill-opacity:1;fill-rule:nonzero;stroke:none;font-family:Courier New;-inkscape-font-specification:Courier New">abstract</tspan></text>

</g></g><g
           id="g66"><g
             clip-path="url(#clipPath70)"
             id="g68"><text
   transform="matrix(1,0,0,-1,169.1,973.92)"
   id="text74"><tspan
     x="0"
     y="0"
     id="tspan76"
     style="font-size:9px;font-variant:normal;font-weight:normal;writing-mode:lr-tb;fill:#000000;fill-opacity:1;fill-rule:nonzero;stroke:none;font-family:Courier New;-inkscape-font-specification:Courier New">}</tspan></text>

</g></g><g
           id="g78"><g
             clip-path="url(#clipPath82)"
             id="g80" /></g></g></g><g
       id="g86"><g
         clip-path="url(#clipPath90)"
         id="g88"><g
           id="g94"><g
             clip-path="url(#clipPath98)"
             id="g96"><text
   transform="matrix(1,0,0,-1,79.2,955.68)"
   id="text102"><tspan
     x="0 5.0310001 10.062 15.093 20.124001 25.155001 28.035 33.066002 38.097 43.127998 49.005001 54.035999 56.537998 61.587002 66.617996 69.120003 72.017998 77.049004 79.551003 84.599998 89.523003 92.025002 95.022003 101.025 106.074 107.991 110.025 115.056 119.979 125.01 127.512 132.084"
     y="0"
     id="tspan104"
     style="font-size:9px;font-style:oblique;font-variant:normal;font-weight:normal;writing-mode:lr-tb;fill:#000000;fill-opacity:1;fill-rule:nonzero;stroke:none;font-family:Helvetica;-inkscape-font-specification:Helvetica-Oblique">aenderungAufgetreten (Kollege k)</tspan></text>

</g></g><g
           id="g106"><g
             clip-path="url(#clipPath110)"
             id="g108" /></g></g></g><path
       d="m 76.05,895.65 143.15,0 0,17.3 -143.15,0 0,-17.3 z"
       inkscape:connector-curvature="0"
       id="path114"
       style="fill:#ffffff;fill-opacity:1;fill-rule:evenodd;stroke:none" /><path
       d="m 76.05,895.65 143.15,0 0,17.3 -143.15,0 0,-17.3 z"
       inkscape:connector-curvature="0"
       id="path116"
       style="fill:none;stroke:#000000;stroke-width:0.60000002;stroke-linecap:round;stroke-linejoin:miter;stroke-miterlimit:8;stroke-opacity:1;stroke-dasharray:none" /><path
       d="m 305.9,966.85 96.5,0 0,33.4 -96.5,0 0,-33.4 z"
       inkscape:connector-curvature="0"
       id="path118"
       style="fill:none;stroke:#000000;stroke-width:0.60000002;stroke-linecap:round;stroke-linejoin:miter;stroke-miterlimit:8;stroke-opacity:1;stroke-dasharray:none" /><g
       id="g120"><g
         clip-path="url(#clipPath124)"
         id="g122"><g
           id="g128"><g
             clip-path="url(#clipPath132)"
             id="g130"><text
   transform="matrix(1,0,0,-1,337.85,983.04)"
   id="text136"><tspan
     x="0 6.4980001 11.997 14.499 17.028 22.059 27.558001"
     y="0"
     id="tspan138"
     style="font-size:9px;font-variant:normal;font-weight:bold;writing-mode:lr-tb;fill:#000000;fill-opacity:1;fill-rule:nonzero;stroke:none;font-family:Helvetica;-inkscape-font-specification:Helvetica-Bold">Kollege</tspan></text>

</g></g><g
           id="g140"><g
             clip-path="url(#clipPath144)"
             id="g142" /></g><g
           id="g148"><g
             clip-path="url(#clipPath152)"
             id="g150"><text
   transform="matrix(1,0,0,-1,327.17,973.92)"
   id="text156"><tspan
     x="0 5.4000001 10.8 16.200001 21.6 27 32.400002 37.799999 43.200001 48.599998"
     y="0"
     id="tspan158"
     style="font-size:9px;font-variant:normal;font-weight:normal;writing-mode:lr-tb;fill:#000000;fill-opacity:1;fill-rule:nonzero;stroke:none;font-family:Courier New;-inkscape-font-specification:Courier New">{abstract}</tspan></text>

</g></g><g
           id="g160"><g
             clip-path="url(#clipPath164)"
             id="g162" /></g></g></g><path
       d="m 305.9,949.55 96.5,0 0,17.3 -96.5,0 0,-17.3 z"
       inkscape:connector-curvature="0"
       id="path168"
       style="fill:none;stroke:#000000;stroke-width:0.60000002;stroke-linecap:round;stroke-linejoin:miter;stroke-miterlimit:8;stroke-opacity:1;stroke-dasharray:none" /><g
       id="g170"><g
         clip-path="url(#clipPath174)"
         id="g172"><g
           id="g178"><g
             clip-path="url(#clipPath182)"
             id="g180"><text
   transform="matrix(1,0,0,-1,309.65,954.84)"
   id="text186"><tspan
     x="0 5.0310001 10.062 15.093 20.124001 25.155001 28.035 33.066002 38.097"
     y="0"
     id="tspan188"
     style="font-size:9px;font-variant:normal;font-weight:normal;writing-mode:lr-tb;fill:#000000;fill-opacity:1;fill-rule:nonzero;stroke:none;font-family:Helvetica;-inkscape-font-specification:Helvetica">aenderung</tspan></text>

</g></g><g
           id="g190"><g
             clip-path="url(#clipPath194)"
             id="g192"><text
   transform="matrix(1,0,0,-1,352.85,954.84)"
   id="text198"><tspan
     x="0 3"
     y="0"
     id="tspan200"
     style="font-size:9px;font-variant:normal;font-weight:normal;writing-mode:lr-tb;fill:#000000;fill-opacity:1;fill-rule:nonzero;stroke:none;font-family:Helvetica;-inkscape-font-specification:Helvetica">()</tspan></text>

</g></g><g
           id="g202"><g
             clip-path="url(#clipPath206)"
             id="g204" /></g></g></g><path
       d="m 418.8,926.6 0,52.2 90.95,0 13,-6.53 0,-45.67 -103.95,0 z"
       inkscape:connector-curvature="0"
       id="path210"
       style="fill:none;stroke:#000000;stroke-width:0.60000002;stroke-linecap:round;stroke-linejoin:round;stroke-miterlimit:8;stroke-opacity:1;stroke-dasharray:none" /><path
       d="m 509.75,978.8 3.36,-6.33 c 1.31,1.02 4.77,1.02 9.64,-0.22"
       inkscape:connector-curvature="0"
       id="path212"
       style="fill:none;stroke:#000000;stroke-width:0.60000002;stroke-linecap:round;stroke-linejoin:round;stroke-miterlimit:8;stroke-opacity:1;stroke-dasharray:none" /><g
       id="g214"><g
         clip-path="url(#clipPath218)"
         id="g216"><g
           id="g222"><g
             clip-path="url(#clipPath226)"
             id="g224"><text
   transform="matrix(1,0,0,-1,420.89,960.24)"
   id="text230"><tspan
     x="0 2.997 8.0279999 10.53 13.059 15.561 20.610001 25.533001"
     y="0"
     id="tspan232"
     style="font-size:9px;font-variant:normal;font-weight:normal;writing-mode:lr-tb;fill:#000000;fill-opacity:1;fill-rule:nonzero;stroke:none;font-family:Helvetica;-inkscape-font-specification:Helvetica">ruft auf</tspan></text>

</g></g><g
           id="g234"><g
             clip-path="url(#clipPath238)"
             id="g236"><text
   transform="matrix(1,0,0,-1,448.97,960.24)"
   id="text242"><tspan
     x="0"
     y="0"
     id="tspan244"
     style="font-size:9px;font-variant:normal;font-weight:normal;writing-mode:lr-tb;fill:#000000;fill-opacity:1;fill-rule:nonzero;stroke:none;font-family:Helvetica;-inkscape-font-specification:Helvetica">:</tspan></text>

</g></g><g
           id="g246"><g
             clip-path="url(#clipPath250)"
             id="g248" /></g><g
           id="g254"><g
             clip-path="url(#clipPath258)"
             id="g256" /></g><g
           id="g262"><g
             clip-path="url(#clipPath266)"
             id="g264"><text
   transform="matrix(1,0,0,-1,420.89,951.48)"
   id="text270"><tspan
     x="0 4.8000002 9.6000004 14.4 19.200001 24 28.799999 33.599998 38.400002 43.200001 48 52.799999 57.599998 62.400002 67.199997 72 76.800003 81.599998 86.400002 91.199997"
     y="0"
     id="tspan272"
     style="font-size:8.03999996px;font-variant:normal;font-weight:normal;writing-mode:lr-tb;fill:#000000;fill-opacity:1;fill-rule:nonzero;stroke:none;font-family:Courier New;-inkscape-font-specification:Courier New">vermittler.aenderung</tspan></text>

</g></g><g
           id="g274"><g
             clip-path="url(#clipPath278)"
             id="g276"><text
   transform="matrix(1,0,0,-1,516.91,951.48)"
   id="text282"><tspan
     x="0"
     y="0"
     id="tspan284"
     style="font-size:8.03999996px;font-variant:normal;font-weight:normal;writing-mode:lr-tb;fill:#000000;fill-opacity:1;fill-rule:nonzero;stroke:none;font-family:Courier New;-inkscape-font-specification:Courier New">-</tspan></text>

</g></g><g
           id="g286"><g
             clip-path="url(#clipPath290)"
             id="g288"><text
   transform="matrix(1,0,0,-1,420.89,942.84)"
   id="text294"><tspan
     x="0 4.8000002 9.6000004 14.4 19.200001 24 28.799999 33.599998 38.400002 43.200001 48 52.799999 57.599998 62.400002 67.199997 72 76.800003 81.599998"
     y="0"
     id="tspan296"
     style="font-size:8.03999996px;font-variant:normal;font-weight:normal;writing-mode:lr-tb;fill:#000000;fill-opacity:1;fill-rule:nonzero;stroke:none;font-family:Courier New;-inkscape-font-specification:Courier New">Aufgetreten (this)</tspan></text>

</g></g><g
           id="g298"><g
             clip-path="url(#clipPath302)"
             id="g300" /></g></g></g><path
       d="m 356.25,895.65 96.5,0 0,17.3 -96.5,0 0,-17.3 z"
       inkscape:connector-curvature="0"
       id="path306"
       style="fill:none;stroke:#000000;stroke-width:0.60000002;stroke-linecap:round;stroke-linejoin:miter;stroke-miterlimit:8;stroke-opacity:1;stroke-dasharray:none" /><g
       id="g308"><g
         clip-path="url(#clipPath312)"
         id="g310"><g
           id="g316"><g
             clip-path="url(#clipPath320)"
             id="g318"><text
   transform="matrix(1,0,0,-1,362.57,900.84)"
   id="text324"><tspan
     x="0 6.48"
     y="0"
     id="tspan326"
     style="font-size:9px;font-variant:normal;font-weight:bold;writing-mode:lr-tb;fill:#000000;fill-opacity:1;fill-rule:nonzero;stroke:none;font-family:Helvetica;-inkscape-font-specification:Helvetica-Bold">Ko</tspan></text>

</g></g><g
           id="g328"><g
             clip-path="url(#clipPath332)"
             id="g330"><text
   transform="matrix(1,0,0,-1,374.57,900.84)"
   id="text336"><tspan
     x="0 5.4990001 10.548 14.049 19.052999 22.049999 27.099001 30.6 37.062 42.561001 45.09 47.591999 52.533001 58.032001 63.081001"
     y="0"
     id="tspan338"
     style="font-size:9px;font-variant:normal;font-weight:bold;writing-mode:lr-tb;fill:#000000;fill-opacity:1;fill-rule:nonzero;stroke:none;font-family:Helvetica;-inkscape-font-specification:Helvetica-Bold">nkreterKollegeB</tspan></text>

</g></g><g
           id="g340"><g
             clip-path="url(#clipPath344)"
             id="g342" /></g></g></g><path
       d="m 356.25,878.45 96.5,0 0,17.3 -96.5,0 0,-17.3 z"
       inkscape:connector-curvature="0"
       id="path348"
       style="fill:none;stroke:#000000;stroke-width:0.60000002;stroke-linecap:round;stroke-linejoin:miter;stroke-miterlimit:8;stroke-opacity:1;stroke-dasharray:none" /><g
       id="g350"><g
         clip-path="url(#clipPath354)"
         id="g352"><g
           id="g358"><g
             clip-path="url(#clipPath362)"
             id="g360"><text
   transform="matrix(1,0,0,-1,362.21,883.18)"
   id="text366"><tspan
     x="0 7.5510001 12.582 15.084 20.025 25.056 30.087 35.118 41.120998 44.118"
     y="0"
     id="tspan368"
     style="font-size:9px;font-variant:normal;font-weight:normal;writing-mode:lr-tb;fill:#000000;fill-opacity:1;fill-rule:nonzero;stroke:none;font-family:Helvetica;-inkscape-font-specification:Helvetica">methodeB()</tspan></text>

</g></g><g
           id="g370"><g
             clip-path="url(#clipPath374)"
             id="g372" /></g></g></g><path
       d="m 255.4,895.65 96.5,0 0,17.3 -96.5,0 0,-17.3 z"
       inkscape:connector-curvature="0"
       id="path378"
       style="fill:none;stroke:#000000;stroke-width:0.60000002;stroke-linecap:round;stroke-linejoin:miter;stroke-miterlimit:8;stroke-opacity:1;stroke-dasharray:none" /><g
       id="g380"><g
         clip-path="url(#clipPath384)"
         id="g382"><g
           id="g388"><g
             clip-path="url(#clipPath392)"
             id="g390"><text
   transform="matrix(1,0,0,-1,261.74,900.84)"
   id="text396"><tspan
     x="0 6.4980001 11.997 17.496 22.554001 26.055 31.059 34.056 39.105 42.605999 49.068001 54.567001 57.096001 59.598 64.539001 70.038002 75.086998"
     y="0"
     id="tspan398"
     style="font-size:9px;font-variant:normal;font-weight:bold;writing-mode:lr-tb;fill:#000000;fill-opacity:1;fill-rule:nonzero;stroke:none;font-family:Helvetica;-inkscape-font-specification:Helvetica-Bold">KonkreterKollegeA</tspan></text>

</g></g><g
           id="g400"><g
             clip-path="url(#clipPath404)"
             id="g402" /></g></g></g><path
       d="m 255.4,878.35 96.5,0 0,17.3 -96.5,0 0,-17.3 z"
       inkscape:connector-curvature="0"
       id="path408"
       style="fill:none;stroke:#000000;stroke-width:0.60000002;stroke-linecap:round;stroke-linejoin:miter;stroke-miterlimit:8;stroke-opacity:1;stroke-dasharray:none" /><g
       id="g410"><g
         clip-path="url(#clipPath414)"
         id="g412"><g
           id="g418"><g
             clip-path="url(#clipPath422)"
             id="g420"><text
   transform="matrix(1,0,0,-1,261.38,883.42)"
   id="text426"><tspan
     x="0 7.5510001 12.582 15.084 20.025 25.056 30.087 35.118 41.120998 44.118"
     y="0"
     id="tspan428"
     style="font-size:9px;font-variant:normal;font-weight:normal;writing-mode:lr-tb;fill:#000000;fill-opacity:1;fill-rule:nonzero;stroke:none;font-family:Helvetica;-inkscape-font-specification:Helvetica">methodeA()</tspan></text>

</g></g><g
           id="g430"><g
             clip-path="url(#clipPath434)"
             id="g432" /></g></g></g><path
       d="m 76.05,878.35 143.3,0 0,17.3 -143.3,0 0,-17.3 z"
       inkscape:connector-curvature="0"
       id="path438"
       style="fill:none;stroke:#000000;stroke-width:0.60000002;stroke-linecap:round;stroke-linejoin:miter;stroke-miterlimit:8;stroke-opacity:1;stroke-dasharray:none" /><path
       d="m 404.5,856.25 -256.65,0"
       inkscape:connector-curvature="0"
       id="path440"
       style="fill:none;stroke:#000000;stroke-width:0.60000002;stroke-linecap:round;stroke-linejoin:round;stroke-miterlimit:8;stroke-opacity:1;stroke-dasharray:none" /><path
       d="m 147.85,856.25 0,21.9"
       inkscape:connector-curvature="0"
       id="path442"
       style="fill:none;stroke:#000000;stroke-width:0.60000002;stroke-linecap:round;stroke-linejoin:round;stroke-miterlimit:8;stroke-opacity:1;stroke-dasharray:none" /><path
       d="m 76.05,967.25 143,0 0,33.4 -143,0 0,-33.4 z"
       inkscape:connector-curvature="0"
       id="path444"
       style="fill:none;stroke:#000000;stroke-width:0.60000002;stroke-linecap:round;stroke-linejoin:miter;stroke-miterlimit:8;stroke-opacity:1;stroke-dasharray:none" /><path
       d="m 76.1,949.85 143,0 0,17.3 -143,0 0,-17.3 z"
       inkscape:connector-curvature="0"
       id="path446"
       style="fill:none;stroke:#000000;stroke-width:0.60000002;stroke-linecap:round;stroke-linejoin:miter;stroke-miterlimit:8;stroke-opacity:1;stroke-dasharray:none" /><g
       id="g448"><g
         clip-path="url(#clipPath452)"
         id="g450"><g
           id="g456"><g
             clip-path="url(#clipPath460)"
             id="g458"><text
   transform="matrix(1,0,0,-1,97.944,900.84)"
   id="text464"><tspan
     x="0 6.4980001 11.997 17.496 22.554001 26.055 31.059 34.056 39.105 42.605999 48.609001 53.612999 57.113998 65.133003 67.635002 70.632004 73.628998 76.050003 81.081001"
     y="0"
     id="tspan466"
     style="font-size:9px;font-variant:normal;font-weight:bold;writing-mode:lr-tb;fill:#000000;fill-opacity:1;fill-rule:nonzero;stroke:none;font-family:Helvetica;-inkscape-font-specification:Helvetica-Bold">KonkreterVermittler</tspan></text>

</g></g><g
           id="g468"><g
             clip-path="url(#clipPath472)"
             id="g470" /></g></g></g><g
       id="g476"><g
         clip-path="url(#clipPath480)"
         id="g478"><g
           id="g484"><g
             clip-path="url(#clipPath488)"
             id="g486"><text
   transform="matrix(1,0,0,-1,79.08,885.82)"
   id="text492"><tspan
     x="0 5.0310001 10.062 15.093 20.124001 25.155001 28.035 33.066002 38.097 43.127998 49.005001 54.035999 56.537998 61.587002 66.617996 69.120003 72.017998 77.049004 79.551003 84.599998 89.523003"
     y="0"
     id="tspan494"
     style="font-size:9px;font-variant:normal;font-weight:normal;writing-mode:lr-tb;fill:#000000;fill-opacity:1;fill-rule:nonzero;stroke:none;font-family:Helvetica;-inkscape-font-specification:Helvetica">aenderungAufgetreten </tspan></text>

</g></g><g
           id="g496"><g
             clip-path="url(#clipPath500)"
             id="g498"><text
   transform="matrix(1,0,0,-1,171.26,885.82)"
   id="text504"><tspan
     x="0 2.997 9 14.031 15.948 17.982 23.013 27.936001 32.966999 35.469002 40.041"
     y="0"
     id="tspan506"
     style="font-size:9px;font-style:oblique;font-variant:normal;font-weight:normal;writing-mode:lr-tb;fill:#000000;fill-opacity:1;fill-rule:nonzero;stroke:none;font-family:Helvetica;-inkscape-font-specification:Helvetica-Oblique">(Kollege k)</tspan></text>

</g></g><g
           id="g508"><g
             clip-path="url(#clipPath512)"
             id="g510" /></g></g></g><g
       id="g516"><path
         d="m 358.7,956.55 60.1,0"
         inkscape:connector-curvature="0"
         id="path518"
         style="fill:none;stroke:#000000;stroke-width:0.60000002;stroke-linecap:round;stroke-linejoin:round;stroke-miterlimit:8;stroke-opacity:1;stroke-dasharray:4.2, 2.4;stroke-dashoffset:0" /></g><path
       d="m 303.1,856.5 0,20.2 c 0,0.28 0.22,0.5 0.5,0.5 0.28,0 0.5,-0.22 0.5,-0.5 l 0,-20.2 c 0,-0.28 -0.22,-0.5 -0.5,-0.5 -0.28,0 -0.5,0.22 -0.5,0.5 z m -4.94,11.44 5.44,9.79 5.44,-9.79 c 0.13,-0.24 0.04,-0.54 -0.2,-0.68 -0.24,-0.13 -0.54,-0.04 -0.68,0.2 l -5,9 0.88,0 -5,-9 c -0.14,-0.24 -0.44,-0.33 -0.68,-0.2 -0.24,0.14 -0.33,0.44 -0.2,0.68 z"
       inkscape:connector-curvature="0"
       id="path520"
       style="fill:#000000;fill-opacity:1;fill-rule:nonzero;stroke:none" /><path
       d="m 404.05,856.5 0,20.2 c 0,0.28 0.22,0.5 0.5,0.5 0.28,0 0.5,-0.22 0.5,-0.5 l 0,-20.2 c 0,-0.28 -0.22,-0.5 -0.5,-0.5 -0.28,0 -0.5,0.22 -0.5,0.5 z m -4.94,11.44 5.44,9.79 5.44,-9.79 c 0.13,-0.24 0.04,-0.54 -0.2,-0.68 -0.24,-0.13 -0.54,-0.04 -0.68,0.2 l -5,9 0.88,0 -5,-9 c -0.14,-0.24 -0.44,-0.33 -0.68,-0.2 -0.24,0.14 -0.33,0.44 -0.2,0.68 z"
       inkscape:connector-curvature="0"
       id="path522"
       style="fill:#000000;fill-opacity:1;fill-rule:nonzero;stroke:none" /><path
       d="m 305.9,983.1 -84.7,0 c -0.28,0 -0.5,0.22 -0.5,0.5 0,0.28 0.22,0.5 0.5,0.5 l 84.7,0 c 0.28,0 0.5,-0.22 0.5,-0.5 0,-0.28 -0.22,-0.5 -0.5,-0.5 z m -75.94,-4.94 -9.79,5.44 9.79,5.44 c 0.24,0.13 0.54,0.04 0.68,-0.2 0.13,-0.24 0.04,-0.54 -0.2,-0.68 l -9,-5 0,0.88 9,-5 c 0.24,-0.14 0.33,-0.44 0.2,-0.68 -0.14,-0.24 -0.44,-0.33 -0.68,-0.2 z"
       inkscape:connector-curvature="0"
       id="path524"
       style="fill:#000000;fill-opacity:1;fill-rule:nonzero;stroke:none" /><path
       d="m 147.65,949.75 -8.75,-17.6 17.5,0 -8.75,17.6 z"
       inkscape:connector-curvature="0"
       id="path526"
       style="fill:none;stroke:#000000;stroke-width:0.60000002;stroke-linecap:round;stroke-linejoin:round;stroke-miterlimit:8;stroke-opacity:1;stroke-dasharray:none" /><path
       d="m 320,949.5 -8.75,-17.6 17.5,0 -8.75,17.6 z"
       inkscape:connector-curvature="0"
       id="path528"
       style="fill:none;stroke:#000000;stroke-width:0.60000002;stroke-linecap:round;stroke-linejoin:round;stroke-miterlimit:8;stroke-opacity:1;stroke-dasharray:none" /><path
       d="m 320.1,931.5 0,-18"
       inkscape:connector-curvature="0"
       id="path530"
       style="fill:none;stroke:#000000;stroke-width:0.60000002;stroke-linecap:round;stroke-linejoin:round;stroke-miterlimit:8;stroke-opacity:1;stroke-dasharray:none" /><path
       d="m 388.2,949.5 -8.75,-17.6 17.5,0 -8.75,17.6 z"
       inkscape:connector-curvature="0"
       id="path532"
       style="fill:none;stroke:#000000;stroke-width:0.60000002;stroke-linecap:round;stroke-linejoin:round;stroke-miterlimit:8;stroke-opacity:1;stroke-dasharray:none" /><path
       d="m 388.15,931.5 0,-18"
       inkscape:connector-curvature="0"
       id="path534"
       style="fill:none;stroke:#000000;stroke-width:0.60000002;stroke-linecap:round;stroke-linejoin:round;stroke-miterlimit:8;stroke-opacity:1;stroke-dasharray:none" /></g></svg>