<?xml version="1.0" encoding="UTF-8" standalone="no"?>
<!-- Created with Inkscape (http://www.inkscape.org/) -->

<svg
   xmlns:dc="http://purl.org/dc/elements/1.1/"
   xmlns:cc="http://creativecommons.org/ns#"
   xmlns:rdf="http://www.w3.org/1999/02/22-rdf-syntax-ns#"
   xmlns:svg="http://www.w3.org/2000/svg"
   xmlns="http://www.w3.org/2000/svg"
   xmlns:sodipodi="http://sodipodi.sourceforge.net/DTD/sodipodi-0.dtd"
   xmlns:inkscape="http://www.inkscape.org/namespaces/inkscape"
   version="1.1"
   width="574.6875"
   height="430.9375"
   id="svg2"
   xml:space="preserve"
   inkscape:version="0.48.4 r9939"
   sodipodi:docname="Bild 4-53 Klassendiagramm des Iterator-Musters.svg"><sodipodi:namedview
     pagecolor="#ffffff"
     bordercolor="#666666"
     borderopacity="1"
     objecttolerance="10"
     gridtolerance="10"
     guidetolerance="10"
     inkscape:pageopacity="0"
     inkscape:pageshadow="2"
     inkscape:window-width="640"
     inkscape:window-height="480"
     id="namedview408"
     showgrid="false"
     inkscape:zoom="0.18730159"
     inkscape:cx="572.71875"
     inkscape:cy="292.65625"
     inkscape:window-x="0"
     inkscape:window-y="0"
     inkscape:window-maximized="0"
     inkscape:current-layer="svg2" /><metadata
     id="metadata8"><rdf:RDF><cc:Work
         rdf:about=""><dc:format>image/svg+xml</dc:format><dc:type
           rdf:resource="http://purl.org/dc/dcmitype/StillImage" /></cc:Work></rdf:RDF></metadata><defs
     id="defs6"><clipPath
       id="clipPath18"><path
         d="m 262.59,454.15 89.895,0 0,19.68 -89.895,0 0,-19.68 z"
         inkscape:connector-curvature="0"
         id="path20" /></clipPath><clipPath
       id="clipPath26"><path
         d="m 262.58,454.15 89.904,0 0,19.68 -89.904,0 0,-19.68 z"
         inkscape:connector-curvature="0"
         id="path28" /></clipPath><clipPath
       id="clipPath38"><path
         d="m 262.58,454.15 89.904,0 0,19.68 -89.904,0 0,-19.68 z"
         inkscape:connector-curvature="0"
         id="path40" /></clipPath><clipPath
       id="clipPath48"><path
         d="m 135.39,341.8 26.88,0 0,10.8 -26.88,0 0,-10.8 z"
         inkscape:connector-curvature="0"
         id="path50" /></clipPath><clipPath
       id="clipPath56"><path
         d="m 135.38,341.81 26.88,0 0,10.8 -26.88,0 0,-10.8 z"
         inkscape:connector-curvature="0"
         id="path58" /></clipPath><clipPath
       id="clipPath68"><path
         d="m 135.38,341.81 26.88,0 0,10.8 -26.88,0 0,-10.8 z"
         inkscape:connector-curvature="0"
         id="path70" /></clipPath><clipPath
       id="clipPath80"><path
         d="m 379.97,541.99 125.19,0 0,68.16 -125.19,0 0,-68.16 z"
         inkscape:connector-curvature="0"
         id="path82" /></clipPath><clipPath
       id="clipPath88"><path
         d="m 379.97,541.99 125.18,0 0,68.16 -125.18,0 0,-68.16 z"
         inkscape:connector-curvature="0"
         id="path90" /></clipPath><clipPath
       id="clipPath100"><path
         d="m 379.97,541.99 125.18,0 0,68.16 -125.18,0 0,-68.16 z"
         inkscape:connector-curvature="0"
         id="path102" /></clipPath><clipPath
       id="clipPath112"><path
         d="m 379.97,541.99 125.18,0 0,68.16 -125.18,0 0,-68.16 z"
         inkscape:connector-curvature="0"
         id="path114" /></clipPath><clipPath
       id="clipPath120"><path
         d="m 379.97,541.99 125.18,0 0,68.16 -125.18,0 0,-68.16 z"
         inkscape:connector-curvature="0"
         id="path122" /></clipPath><clipPath
       id="clipPath132"><path
         d="m 379.97,541.99 125.18,0 0,68.16 -125.18,0 0,-68.16 z"
         inkscape:connector-curvature="0"
         id="path134" /></clipPath><clipPath
       id="clipPath144"><path
         d="m 379.97,541.99 125.18,0 0,68.16 -125.18,0 0,-68.16 z"
         inkscape:connector-curvature="0"
         id="path146" /></clipPath><clipPath
       id="clipPath152"><path
         d="m 379.97,541.99 125.18,0 0,68.16 -125.18,0 0,-68.16 z"
         inkscape:connector-curvature="0"
         id="path154" /></clipPath><clipPath
       id="clipPath160"><path
         d="m 379.97,541.99 125.18,0 0,68.16 -125.18,0 0,-68.16 z"
         inkscape:connector-curvature="0"
         id="path162" /></clipPath><clipPath
       id="clipPath172"><path
         d="m 379.97,541.99 125.18,0 0,68.16 -125.18,0 0,-68.16 z"
         inkscape:connector-curvature="0"
         id="path174" /></clipPath><clipPath
       id="clipPath184"><path
         d="m 379.97,541.99 125.18,0 0,68.16 -125.18,0 0,-68.16 z"
         inkscape:connector-curvature="0"
         id="path186" /></clipPath><clipPath
       id="clipPath192"><path
         d="m 379.97,541.99 125.18,0 0,68.16 -125.18,0 0,-68.16 z"
         inkscape:connector-curvature="0"
         id="path194" /></clipPath><clipPath
       id="clipPath204"><path
         d="m 379.97,541.99 125.18,0 0,68.16 -125.18,0 0,-68.16 z"
         inkscape:connector-curvature="0"
         id="path206" /></clipPath><clipPath
       id="clipPath212"><path
         d="m 379.97,541.99 125.18,0 0,68.16 -125.18,0 0,-68.16 z"
         inkscape:connector-curvature="0"
         id="path214" /></clipPath><clipPath
       id="clipPath224"><path
         d="m 379.97,541.99 125.18,0 0,68.16 -125.18,0 0,-68.16 z"
         inkscape:connector-curvature="0"
         id="path226" /></clipPath><clipPath
       id="clipPath236"><path
         d="m 379.97,541.99 125.18,0 0,68.16 -125.18,0 0,-68.16 z"
         inkscape:connector-curvature="0"
         id="path238" /></clipPath><clipPath
       id="clipPath244"><path
         d="m 379.97,541.99 125.18,0 0,68.16 -125.18,0 0,-68.16 z"
         inkscape:connector-curvature="0"
         id="path246" /></clipPath><clipPath
       id="clipPath256"><path
         d="m 379.97,541.99 125.18,0 0,68.16 -125.18,0 0,-68.16 z"
         inkscape:connector-curvature="0"
         id="path258" /></clipPath><clipPath
       id="clipPath268"><path
         d="m 379.97,541.99 125.18,0 0,68.16 -125.18,0 0,-68.16 z"
         inkscape:connector-curvature="0"
         id="path270" /></clipPath><clipPath
       id="clipPath280"><path
         d="m 379.97,541.99 125.18,0 0,68.16 -125.18,0 0,-68.16 z"
         inkscape:connector-curvature="0"
         id="path282" /></clipPath><clipPath
       id="clipPath292"><path
         d="m 379.97,401.08 125.19,0 0,68.07 -125.19,0 0,-68.07 z"
         inkscape:connector-curvature="0"
         id="path294" /></clipPath><clipPath
       id="clipPath300"><path
         d="m 379.97,401.09 125.18,0 0,68.064 -125.18,0 0,-68.064 z"
         inkscape:connector-curvature="0"
         id="path302" /></clipPath><clipPath
       id="clipPath312"><path
         d="m 379.97,401.09 125.18,0 0,68.064 -125.18,0 0,-68.064 z"
         inkscape:connector-curvature="0"
         id="path314" /></clipPath><clipPath
       id="clipPath324"><path
         d="m 379.97,401.09 125.18,0 0,68.064 -125.18,0 0,-68.064 z"
         inkscape:connector-curvature="0"
         id="path326" /></clipPath><clipPath
       id="clipPath332"><path
         d="m 379.97,401.09 125.18,0 0,68.064 -125.18,0 0,-68.064 z"
         inkscape:connector-curvature="0"
         id="path334" /></clipPath><clipPath
       id="clipPath340"><path
         d="m 379.97,401.09 125.18,0 0,68.064 -125.18,0 0,-68.064 z"
         inkscape:connector-curvature="0"
         id="path342" /></clipPath><clipPath
       id="clipPath352"><path
         d="m 379.97,401.09 125.18,0 0,68.064 -125.18,0 0,-68.064 z"
         inkscape:connector-curvature="0"
         id="path354" /></clipPath><clipPath
       id="clipPath364"><path
         d="m 379.97,401.09 125.18,0 0,68.064 -125.18,0 0,-68.064 z"
         inkscape:connector-curvature="0"
         id="path366" /></clipPath><clipPath
       id="clipPath372"><path
         d="m 379.97,401.09 125.18,0 0,68.064 -125.18,0 0,-68.064 z"
         inkscape:connector-curvature="0"
         id="path374" /></clipPath><clipPath
       id="clipPath384"><path
         d="m 379.97,401.09 125.18,0 0,68.064 -125.18,0 0,-68.064 z"
         inkscape:connector-curvature="0"
         id="path386" /></clipPath><clipPath
       id="clipPath392"><path
         d="m 379.97,401.09 125.18,0 0,68.064 -125.18,0 0,-68.064 z"
         inkscape:connector-curvature="0"
         id="path394" /></clipPath><clipPath
       id="clipPath404"><path
         d="m 379.97,401.09 125.18,0 0,68.064 -125.18,0 0,-68.064 z"
         inkscape:connector-curvature="0"
         id="path406" /></clipPath><clipPath
       id="clipPath416"><path
         d="m 379.97,401.09 125.18,0 0,68.064 -125.18,0 0,-68.064 z"
         inkscape:connector-curvature="0"
         id="path418" /></clipPath><clipPath
       id="clipPath424"><path
         d="m 379.97,401.09 125.18,0 0,68.064 -125.18,0 0,-68.064 z"
         inkscape:connector-curvature="0"
         id="path426" /></clipPath><clipPath
       id="clipPath436"><path
         d="m 379.97,401.09 125.18,0 0,68.064 -125.18,0 0,-68.064 z"
         inkscape:connector-curvature="0"
         id="path438" /></clipPath><clipPath
       id="clipPath448"><path
         d="m 379.97,401.09 125.18,0 0,68.064 -125.18,0 0,-68.064 z"
         inkscape:connector-curvature="0"
         id="path450" /></clipPath><clipPath
       id="clipPath460"><path
         d="m 379.97,401.09 125.18,0 0,68.064 -125.18,0 0,-68.064 z"
         inkscape:connector-curvature="0"
         id="path462" /></clipPath><clipPath
       id="clipPath484"><path
         d="m 47.041,411.88 182.67,0 0,57.27 -182.67,0 0,-57.27 z"
         inkscape:connector-curvature="0"
         id="path486" /></clipPath><clipPath
       id="clipPath492"><path
         d="m 47.04,411.89 182.66,0 0,57.264 -182.66,0 0,-57.264 z"
         inkscape:connector-curvature="0"
         id="path494" /></clipPath><clipPath
       id="clipPath504"><path
         d="m 47.04,411.89 182.66,0 0,57.264 -182.66,0 0,-57.264 z"
         inkscape:connector-curvature="0"
         id="path506" /></clipPath><clipPath
       id="clipPath512"><path
         d="m 47.04,411.89 182.66,0 0,57.264 -182.66,0 0,-57.264 z"
         inkscape:connector-curvature="0"
         id="path514" /></clipPath><clipPath
       id="clipPath520"><path
         d="m 47.04,411.89 182.66,0 0,57.264 -182.66,0 0,-57.264 z"
         inkscape:connector-curvature="0"
         id="path522" /></clipPath><clipPath
       id="clipPath532"><path
         d="m 47.04,411.89 182.66,0 0,57.264 -182.66,0 0,-57.264 z"
         inkscape:connector-curvature="0"
         id="path534" /></clipPath><clipPath
       id="clipPath544"><path
         d="m 47.04,411.89 182.66,0 0,57.264 -182.66,0 0,-57.264 z"
         inkscape:connector-curvature="0"
         id="path546" /></clipPath><clipPath
       id="clipPath552"><path
         d="m 47.04,411.89 182.66,0 0,57.264 -182.66,0 0,-57.264 z"
         inkscape:connector-curvature="0"
         id="path554" /></clipPath><clipPath
       id="clipPath564"><path
         d="m 47.04,411.89 182.66,0 0,57.264 -182.66,0 0,-57.264 z"
         inkscape:connector-curvature="0"
         id="path566" /></clipPath><clipPath
       id="clipPath572"><path
         d="m 47.04,411.89 182.66,0 0,57.264 -182.66,0 0,-57.264 z"
         inkscape:connector-curvature="0"
         id="path574" /></clipPath><clipPath
       id="clipPath600"><path
         d="m 46.921,274.12 182.79,0 0,57.24 -182.79,0 0,-57.24 z"
         inkscape:connector-curvature="0"
         id="path602" /></clipPath><clipPath
       id="clipPath608"><path
         d="m 46.92,274.13 182.78,0 0,57.24 -182.78,0 0,-57.24 z"
         inkscape:connector-curvature="0"
         id="path610" /></clipPath><clipPath
       id="clipPath620"><path
         d="m 46.92,274.13 182.78,0 0,57.24 -182.78,0 0,-57.24 z"
         inkscape:connector-curvature="0"
         id="path622" /></clipPath><clipPath
       id="clipPath628"><path
         d="m 46.92,274.13 182.78,0 0,57.24 -182.78,0 0,-57.24 z"
         inkscape:connector-curvature="0"
         id="path630" /></clipPath><clipPath
       id="clipPath636"><path
         d="m 46.92,274.13 182.78,0 0,57.24 -182.78,0 0,-57.24 z"
         inkscape:connector-curvature="0"
         id="path638" /></clipPath><clipPath
       id="clipPath648"><path
         d="m 46.92,274.13 182.78,0 0,57.24 -182.78,0 0,-57.24 z"
         inkscape:connector-curvature="0"
         id="path650" /></clipPath><clipPath
       id="clipPath656"><path
         d="m 46.92,274.13 182.78,0 0,57.24 -182.78,0 0,-57.24 z"
         inkscape:connector-curvature="0"
         id="path658" /></clipPath><clipPath
       id="clipPath670"><path
         d="m 46.921,552.91 182.67,0 0,57.24 -182.67,0 0,-57.24 z"
         inkscape:connector-curvature="0"
         id="path672" /></clipPath><clipPath
       id="clipPath678"><path
         d="m 46.92,552.91 182.66,0 0,57.24 -182.66,0 0,-57.24 z"
         inkscape:connector-curvature="0"
         id="path680" /></clipPath><clipPath
       id="clipPath690"><path
         d="m 46.92,552.91 182.66,0 0,57.24 -182.66,0 0,-57.24 z"
         inkscape:connector-curvature="0"
         id="path692" /></clipPath><clipPath
       id="clipPath698"><path
         d="m 46.92,552.91 182.66,0 0,57.24 -182.66,0 0,-57.24 z"
         inkscape:connector-curvature="0"
         id="path700" /></clipPath><clipPath
       id="clipPath710"><path
         d="m 46.92,552.91 182.66,0 0,57.24 -182.66,0 0,-57.24 z"
         inkscape:connector-curvature="0"
         id="path712" /></clipPath><clipPath
       id="clipPath718"><path
         d="m 46.92,552.91 182.66,0 0,57.24 -182.66,0 0,-57.24 z"
         inkscape:connector-curvature="0"
         id="path720" /></clipPath><clipPath
       id="clipPath726"><path
         d="m 46.92,552.91 182.66,0 0,57.24 -182.66,0 0,-57.24 z"
         inkscape:connector-curvature="0"
         id="path728" /></clipPath><clipPath
       id="clipPath738"><path
         d="m 46.92,552.91 182.66,0 0,57.24 -182.66,0 0,-57.24 z"
         inkscape:connector-curvature="0"
         id="path740" /></clipPath><clipPath
       id="clipPath750"><path
         d="m 46.92,552.91 182.66,0 0,57.24 -182.66,0 0,-57.24 z"
         inkscape:connector-curvature="0"
         id="path752" /></clipPath><clipPath
       id="clipPath758"><path
         d="m 46.92,552.91 182.66,0 0,57.24 -182.66,0 0,-57.24 z"
         inkscape:connector-curvature="0"
         id="path760" /></clipPath><clipPath
       id="clipPath770"><path
         d="m 46.92,552.91 182.66,0 0,57.24 -182.66,0 0,-57.24 z"
         inkscape:connector-curvature="0"
         id="path772" /></clipPath><clipPath
       id="clipPath784"><path
         d="m 265.23,561.19 80.175,0 0,34.8 -80.175,0 0,-34.8 z"
         inkscape:connector-curvature="0"
         id="path786" /></clipPath><clipPath
       id="clipPath792"><path
         d="m 265.22,561.19 80.184,0 0,34.8 -80.184,0 0,-34.8 z"
         inkscape:connector-curvature="0"
         id="path794" /></clipPath><clipPath
       id="clipPath804"><path
         d="m 265.22,561.19 80.184,0 0,34.8 -80.184,0 0,-34.8 z"
         inkscape:connector-curvature="0"
         id="path806" /></clipPath></defs><g
     transform="matrix(1.25,0,0,-1.25,-57.65625,768.28125)"
     id="g10"><path
       d="m 262.5,450.5 90,0 0,27 -90,0 0,-27 z"
       inkscape:connector-curvature="0"
       id="path12"
       style="fill:#ffffff;fill-opacity:1;fill-rule:evenodd;stroke:none" /><g
       id="g14"><g
         clip-path="url(#clipPath18)"
         id="g16"><g
           id="g22"><g
             clip-path="url(#clipPath26)"
             id="g24"><text
   transform="matrix(1,0,0,-1,269.66,464.23)"
   id="text30"><tspan
     x="0 7.1999998 14.4 21.6 28.799999 36 43.200001 50.400002"
     y="0"
     id="tspan32"
     style="font-size:12px;font-variant:normal;font-weight:normal;writing-mode:lr-tb;fill:#000000;fill-opacity:1;fill-rule:nonzero;stroke:none;font-family:Courier New;-inkscape-font-specification:Courier New">«Create»</tspan></text>

</g></g><g
           id="g34"><g
             clip-path="url(#clipPath38)"
             id="g36" /></g></g></g><path
       d="m 135.3,338.25 27,0 0,18 -27,0 0,-18 z"
       inkscape:connector-curvature="0"
       id="path42"
       style="fill:#ffffff;fill-opacity:1;fill-rule:evenodd;stroke:none" /><g
       id="g44"><g
         clip-path="url(#clipPath48)"
         id="g46"><g
           id="g52"><g
             clip-path="url(#clipPath56)"
             id="g54"><text
   transform="matrix(1,0,0,-1,142.58,335.93)"
   id="text60"><tspan
     x="0"
     y="0"
     id="tspan62"
     style="font-size:18px;font-variant:normal;font-weight:normal;writing-mode:lr-tb;fill:#000000;fill-opacity:1;fill-rule:nonzero;stroke:none;font-family:Helvetica;-inkscape-font-specification:Helvetica">*</tspan></text>

</g></g><g
           id="g64"><g
             clip-path="url(#clipPath68)"
             id="g66" /></g></g></g><path
       d="m 379.5,538.05 126,0 0,76.2 -126,0 0,-76.2 z"
       inkscape:connector-curvature="0"
       id="path72"
       style="fill:#ffffff;fill-opacity:1;fill-rule:evenodd;stroke:none" /><path
       d="m 379.5,538.05 126,0 0,76.2 -126,0 0,-76.2 z"
       inkscape:connector-curvature="0"
       id="path74"
       style="fill:none;stroke:#000000;stroke-width:0.75;stroke-linecap:round;stroke-linejoin:miter;stroke-miterlimit:10;stroke-opacity:1;stroke-dasharray:none" /><g
       id="g76"><g
         clip-path="url(#clipPath80)"
         id="g78"><g
           id="g84"><g
             clip-path="url(#clipPath88)"
             id="g86"><text
   transform="matrix(1,0,0,-1,403.01,599.83)"
   id="text92"><tspan
     x="0"
     y="0"
     id="tspan94"
     style="font-size:12px;font-variant:normal;font-weight:normal;writing-mode:lr-tb;fill:#000000;fill-opacity:1;fill-rule:nonzero;stroke:none;font-family:Courier New;-inkscape-font-specification:Courier New">«</tspan></text>

</g></g><g
           id="g96"><g
             clip-path="url(#clipPath100)"
             id="g98"><text
   transform="matrix(1,0,0,-1,410.21,599.83)"
   id="text104"><tspan
     x="0 7.1999998 14.4 21.6 28.799999 36 43.200001 50.400002 57.599998 64.800003"
     y="0"
     id="tspan106"
     style="font-size:12px;font-variant:normal;font-weight:normal;writing-mode:lr-tb;fill:#000000;fill-opacity:1;fill-rule:nonzero;stroke:none;font-family:Courier New;-inkscape-font-specification:Courier New">interface»</tspan></text>

</g></g><g
           id="g108"><g
             clip-path="url(#clipPath112)"
             id="g110" /></g><g
           id="g116"><g
             clip-path="url(#clipPath120)"
             id="g118"><text
   transform="matrix(1,0,0,-1,420.29,585.55)"
   id="text124"><tspan
     x="0 3.3599999 6.7199998"
     y="0"
     id="tspan126"
     style="font-size:12px;font-variant:normal;font-weight:bold;writing-mode:lr-tb;fill:#000000;fill-opacity:1;fill-rule:nonzero;stroke:none;font-family:Helvetica;-inkscape-font-specification:Helvetica-Bold">IIt</tspan></text>

</g></g><g
           id="g128"><g
             clip-path="url(#clipPath132)"
             id="g130"><text
   transform="matrix(1,0,0,-1,430.97,585.55)"
   id="text136"><tspan
     x="0 6.7080002 11.376 18.096001 22.091999 29.375999"
     y="0"
     id="tspan138"
     style="font-size:12px;font-variant:normal;font-weight:bold;writing-mode:lr-tb;fill:#000000;fill-opacity:1;fill-rule:nonzero;stroke:none;font-family:Helvetica;-inkscape-font-specification:Helvetica-Bold">erator</tspan></text>

</g></g><g
           id="g140"><g
             clip-path="url(#clipPath144)"
             id="g142" /></g><g
           id="g148"><g
             clip-path="url(#clipPath152)"
             id="g150" /></g><g
           id="g156"><g
             clip-path="url(#clipPath160)"
             id="g158"><text
   transform="matrix(1,0,0,-1,387.17,558.79)"
   id="text164"><tspan
     x="0 6.47996"
     y="0"
     id="tspan166"
     style="font-size:11.03999996px;font-variant:normal;font-weight:normal;writing-mode:lr-tb;fill:#000000;fill-opacity:1;fill-rule:nonzero;stroke:none;font-family:Helvetica;-inkscape-font-specification:Helvetica">+ </tspan></text>

</g></g><g
           id="g168"><g
             clip-path="url(#clipPath172)"
             id="g170"><text
   transform="matrix(1,0,0,-1,396.77,558.79)"
   id="text176"><tspan
     x="0 6.1382399 12.24336 17.64192 20.755199 24.35424"
     y="0"
     id="tspan178"
     style="font-size:11.03999996px;font-variant:normal;font-weight:normal;writing-mode:lr-tb;fill:#000000;fill-opacity:1;fill-rule:nonzero;stroke:none;font-family:Helvetica;-inkscape-font-specification:Helvetica">next()</tspan></text>

</g></g><g
           id="g180"><g
             clip-path="url(#clipPath184)"
             id="g182" /></g><g
           id="g188"><g
             clip-path="url(#clipPath192)"
             id="g190"><text
   transform="matrix(1,0,0,-1,427.85,558.79)"
   id="text196"><tspan
     x="0 3.1132801 6.2265601 13.54608 15.94176 22.08 31.27632 37.414558 43.420319"
     y="0"
     id="tspan198"
     style="font-size:11.03999996px;font-variant:normal;font-weight:normal;writing-mode:lr-tb;fill:#000000;fill-opacity:1;fill-rule:nonzero;stroke:none;font-family:Helvetica;-inkscape-font-specification:Helvetica">: Element</tspan></text>

</g></g><g
           id="g200"><g
             clip-path="url(#clipPath204)"
             id="g202" /></g><g
           id="g208"><g
             clip-path="url(#clipPath212)"
             id="g210"><text
   transform="matrix(1,0,0,-1,387.17,546.19)"
   id="text216"><tspan
     x="0 6.47996"
     y="0"
     id="tspan218"
     style="font-size:11.03999996px;font-variant:normal;font-weight:normal;writing-mode:lr-tb;fill:#000000;fill-opacity:1;fill-rule:nonzero;stroke:none;font-family:Helvetica;-inkscape-font-specification:Helvetica">+ </tspan></text>

</g></g><g
           id="g220"><g
             clip-path="url(#clipPath224)"
             id="g222"><text
   transform="matrix(1,0,0,-1,396.77,546.19)"
   id="text228"><tspan
     x="0 6.1382399 12.24336 17.763359 25.679041 31.81728 37.19376 40.307041 43.906078"
     y="0"
     id="tspan230"
     style="font-size:11.03999996px;font-variant:normal;font-weight:normal;writing-mode:lr-tb;fill:#000000;fill-opacity:1;fill-rule:nonzero;stroke:none;font-family:Helvetica;-inkscape-font-specification:Helvetica">hasNext()</tspan></text>

</g></g><g
           id="g232"><g
             clip-path="url(#clipPath236)"
             id="g234" /></g><g
           id="g240"><g
             clip-path="url(#clipPath244)"
             id="g242"><text
   transform="matrix(1,0,0,-1,447.41,546.19)"
   id="text248"><tspan
     x="0 3.1200199"
     y="0"
     id="tspan250"
     style="font-size:11.03999996px;font-variant:normal;font-weight:normal;writing-mode:lr-tb;fill:#000000;fill-opacity:1;fill-rule:nonzero;stroke:none;font-family:Helvetica;-inkscape-font-specification:Helvetica">: </tspan></text>

</g></g><g
           id="g252"><g
             clip-path="url(#clipPath256)"
             id="g254"><text
   transform="matrix(1,0,0,-1,453.65,546.19)"
   id="text260"><tspan
     x="0"
     y="0"
     id="tspan262"
     style="font-size:11.03999996px;font-variant:normal;font-weight:normal;writing-mode:lr-tb;fill:#000000;fill-opacity:1;fill-rule:nonzero;stroke:none;font-family:Helvetica;-inkscape-font-specification:Helvetica">b</tspan></text>

</g></g><g
           id="g264"><g
             clip-path="url(#clipPath268)"
             id="g266"><text
   transform="matrix(1,0,0,-1,459.77,546.19)"
   id="text272"><tspan
     x="0 6.1382399 12.24336 14.63904 20.777281 26.882401"
     y="0"
     id="tspan274"
     style="font-size:11.03999996px;font-variant:normal;font-weight:normal;writing-mode:lr-tb;fill:#000000;fill-opacity:1;fill-rule:nonzero;stroke:none;font-family:Helvetica;-inkscape-font-specification:Helvetica">oolean</tspan></text>

</g></g><g
           id="g276"><g
             clip-path="url(#clipPath280)"
             id="g278" /></g></g></g><path
       d="m 379.5,397.15 126,0 0,76.1 -126,0 0,-76.1 z"
       inkscape:connector-curvature="0"
       id="path284"
       style="fill:#ffffff;fill-opacity:1;fill-rule:evenodd;stroke:none" /><path
       d="m 379.5,397.15 126,0 0,76.1 -126,0 0,-76.1 z"
       inkscape:connector-curvature="0"
       id="path286"
       style="fill:none;stroke:#000000;stroke-width:0.75;stroke-linecap:round;stroke-linejoin:miter;stroke-miterlimit:10;stroke-opacity:1;stroke-dasharray:none" /><g
       id="g288"><g
         clip-path="url(#clipPath292)"
         id="g290"><g
           id="g296"><g
             clip-path="url(#clipPath300)"
             id="g298"><text
   transform="matrix(1,0,0,-1,393.53,458.11)"
   id="text304"><tspan
     x="0 8.6639996 15.996 23.280001 29.988001 34.655998 41.375999 45.372002 52.043999"
     y="0"
     id="tspan306"
     style="font-size:12px;font-variant:normal;font-weight:bold;writing-mode:lr-tb;fill:#000000;fill-opacity:1;fill-rule:nonzero;stroke:none;font-family:Helvetica;-inkscape-font-specification:Helvetica-Bold">Konkreter</tspan></text>

</g></g><g
           id="g308"><g
             clip-path="url(#clipPath312)"
             id="g310"><text
   transform="matrix(1,0,0,-1,450.29,458.11)"
   id="text316"><tspan
     x="0 3.336 7.3319998 14.004 18.708 25.416 29.412001 36.695999"
     y="0"
     id="tspan318"
     style="font-size:12px;font-variant:normal;font-weight:bold;writing-mode:lr-tb;fill:#000000;fill-opacity:1;fill-rule:nonzero;stroke:none;font-family:Helvetica;-inkscape-font-specification:Helvetica-Bold">Iterator</tspan></text>

</g></g><g
           id="g320"><g
             clip-path="url(#clipPath324)"
             id="g322" /></g><g
           id="g328"><g
             clip-path="url(#clipPath332)"
             id="g330" /></g><g
           id="g336"><g
             clip-path="url(#clipPath340)"
             id="g338"><text
   transform="matrix(1,0,0,-1,387.17,431.33)"
   id="text344"><tspan
     x="0 6.47996"
     y="0"
     id="tspan346"
     style="font-size:11.03999996px;font-variant:normal;font-weight:normal;writing-mode:lr-tb;fill:#000000;fill-opacity:1;fill-rule:nonzero;stroke:none;font-family:Helvetica;-inkscape-font-specification:Helvetica">+ </tspan></text>

</g></g><g
           id="g348"><g
             clip-path="url(#clipPath352)"
             id="g350"><text
   transform="matrix(1,0,0,-1,396.77,431.33)"
   id="text356"><tspan
     x="0 6.1382399 12.24336 17.64192 20.755199 24.35424"
     y="0"
     id="tspan358"
     style="font-size:11.03999996px;font-variant:normal;font-weight:normal;writing-mode:lr-tb;fill:#000000;fill-opacity:1;fill-rule:nonzero;stroke:none;font-family:Helvetica;-inkscape-font-specification:Helvetica">next()</tspan></text>

</g></g><g
           id="g360"><g
             clip-path="url(#clipPath364)"
             id="g362" /></g><g
           id="g368"><g
             clip-path="url(#clipPath372)"
             id="g370"><text
   transform="matrix(1,0,0,-1,427.85,431.33)"
   id="text376"><tspan
     x="0 3.1132801 6.2265601 13.54608 15.94176 22.08 31.27632 37.414558 43.420319"
     y="0"
     id="tspan378"
     style="font-size:11.03999996px;font-variant:normal;font-weight:normal;writing-mode:lr-tb;fill:#000000;fill-opacity:1;fill-rule:nonzero;stroke:none;font-family:Helvetica;-inkscape-font-specification:Helvetica">: Element</tspan></text>

</g></g><g
           id="g380"><g
             clip-path="url(#clipPath384)"
             id="g382" /></g><g
           id="g388"><g
             clip-path="url(#clipPath392)"
             id="g390"><text
   transform="matrix(1,0,0,-1,387.17,418.61)"
   id="text396"><tspan
     x="0 6.47996"
     y="0"
     id="tspan398"
     style="font-size:11.03999996px;font-variant:normal;font-weight:normal;writing-mode:lr-tb;fill:#000000;fill-opacity:1;fill-rule:nonzero;stroke:none;font-family:Helvetica;-inkscape-font-specification:Helvetica">+ </tspan></text>

</g></g><g
           id="g400"><g
             clip-path="url(#clipPath404)"
             id="g402"><text
   transform="matrix(1,0,0,-1,396.77,418.61)"
   id="text408"><tspan
     x="0 6.1382399 12.24336 17.763359 25.679041 31.81728 37.19376 40.307041 43.906078"
     y="0"
     id="tspan410"
     style="font-size:11.03999996px;font-variant:normal;font-weight:normal;writing-mode:lr-tb;fill:#000000;fill-opacity:1;fill-rule:nonzero;stroke:none;font-family:Helvetica;-inkscape-font-specification:Helvetica">hasNext()</tspan></text>

</g></g><g
           id="g412"><g
             clip-path="url(#clipPath416)"
             id="g414" /></g><g
           id="g420"><g
             clip-path="url(#clipPath424)"
             id="g422"><text
   transform="matrix(1,0,0,-1,447.41,418.61)"
   id="text428"><tspan
     x="0 3.1200199"
     y="0"
     id="tspan430"
     style="font-size:11.03999996px;font-variant:normal;font-weight:normal;writing-mode:lr-tb;fill:#000000;fill-opacity:1;fill-rule:nonzero;stroke:none;font-family:Helvetica;-inkscape-font-specification:Helvetica">: </tspan></text>

</g></g><g
           id="g432"><g
             clip-path="url(#clipPath436)"
             id="g434"><text
   transform="matrix(1,0,0,-1,453.65,418.61)"
   id="text440"><tspan
     x="0"
     y="0"
     id="tspan442"
     style="font-size:11.03999996px;font-variant:normal;font-weight:normal;writing-mode:lr-tb;fill:#000000;fill-opacity:1;fill-rule:nonzero;stroke:none;font-family:Helvetica;-inkscape-font-specification:Helvetica">b</tspan></text>

</g></g><g
           id="g444"><g
             clip-path="url(#clipPath448)"
             id="g446"><text
   transform="matrix(1,0,0,-1,459.77,418.61)"
   id="text452"><tspan
     x="0 6.1382399 12.24336 14.63904 20.777281 26.882401"
     y="0"
     id="tspan454"
     style="font-size:11.03999996px;font-variant:normal;font-weight:normal;writing-mode:lr-tb;fill:#000000;fill-opacity:1;fill-rule:nonzero;stroke:none;font-family:Helvetica;-inkscape-font-specification:Helvetica">oolean</tspan></text>

</g></g><g
           id="g456"><g
             clip-path="url(#clipPath460)"
             id="g458" /></g></g></g><path
       d="m 442.5,538.05 7.5,-15.75 -15,0 7.5,15.75 z"
       inkscape:connector-curvature="0"
       id="path464"
       style="fill:#ffffff;fill-opacity:1;fill-rule:evenodd;stroke:none" /><path
       d="m 442.5,538.05 7.5,-15.75 -15,0 7.5,15.75 z"
       inkscape:connector-curvature="0"
       id="path466"
       style="fill:none;stroke:#000000;stroke-width:0.75;stroke-linecap:round;stroke-linejoin:round;stroke-miterlimit:10;stroke-opacity:1;stroke-dasharray:none" /><g
       id="g468"><path
         d="m 442.5,522.3 0,-49.05"
         inkscape:connector-curvature="0"
         id="path470"
         style="fill:none;stroke:#000000;stroke-width:0.75;stroke-linecap:round;stroke-linejoin:round;stroke-miterlimit:10;stroke-opacity:1;stroke-dasharray:5.25, 3;stroke-dashoffset:0" /></g><path
       d="m 379.45,576.6 126,0"
       inkscape:connector-curvature="0"
       id="path472"
       style="fill:none;stroke:#000000;stroke-width:0.75;stroke-linecap:round;stroke-linejoin:round;stroke-miterlimit:10;stroke-opacity:1;stroke-dasharray:none" /><path
       d="m 379.65,449 125.85,0"
       inkscape:connector-curvature="0"
       id="path474"
       style="fill:none;stroke:#000000;stroke-width:0.75;stroke-linecap:round;stroke-linejoin:round;stroke-miterlimit:10;stroke-opacity:1;stroke-dasharray:none" /><path
       d="m 46.6,408 183.5,0 0,65.25 -183.5,0 0,-65.25 z"
       inkscape:connector-curvature="0"
       id="path476"
       style="fill:#ffffff;fill-opacity:1;fill-rule:evenodd;stroke:none" /><path
       d="m 46.6,408 183.5,0 0,65.25 -183.5,0 0,-65.25 z"
       inkscape:connector-curvature="0"
       id="path478"
       style="fill:none;stroke:#000000;stroke-width:0.75;stroke-linecap:round;stroke-linejoin:miter;stroke-miterlimit:8;stroke-opacity:1;stroke-dasharray:none" /><g
       id="g480"><g
         clip-path="url(#clipPath484)"
         id="g482"><g
           id="g488"><g
             clip-path="url(#clipPath492)"
             id="g490"><text
   transform="matrix(1,0,0,-1,99.024,458.11)"
   id="text496"><tspan
     x="0 8.6639996 15.336 19.332001 26.028 33.360001 40.032001 44.028 48.695999 56.028 62.736 66.732002 74.015999"
     y="0"
     id="tspan498"
     style="font-size:12px;font-variant:normal;font-weight:bold;writing-mode:lr-tb;fill:#000000;fill-opacity:1;fill-rule:nonzero;stroke:none;font-family:Helvetica;-inkscape-font-specification:Helvetica-Bold">Datenstruktur</tspan></text>

</g></g><g
           id="g500"><g
             clip-path="url(#clipPath504)"
             id="g502" /></g><g
           id="g508"><g
             clip-path="url(#clipPath512)"
             id="g510" /></g><g
           id="g516"><g
             clip-path="url(#clipPath520)"
             id="g518"><text
   transform="matrix(1,0,0,-1,54.24,430.49)"
   id="text524"><tspan
     x="0 6.96 10.296 17.028 21.024 26.868 33.576 40.284 46.883999 53.591999 56.928001 60.299999 67.008003 71.003998 77.676003 81.012001 87.755997"
     y="0"
     id="tspan526"
     style="font-size:12px;font-variant:normal;font-weight:normal;writing-mode:lr-tb;fill:#000000;fill-opacity:1;fill-rule:nonzero;stroke:none;font-family:Helvetica;-inkscape-font-specification:Helvetica">+ erzeugeIterator</tspan></text>

</g></g><g
           id="g528"><g
             clip-path="url(#clipPath532)"
             id="g530"><text
   transform="matrix(1,0,0,-1,146.06,430.49)"
   id="text536"><tspan
     x="0 3.96"
     y="0"
     id="tspan538"
     style="font-size:12px;font-variant:normal;font-weight:normal;writing-mode:lr-tb;fill:#000000;fill-opacity:1;fill-rule:nonzero;stroke:none;font-family:Helvetica;-inkscape-font-specification:Helvetica">()</tspan></text>

</g></g><g
           id="g540"><g
             clip-path="url(#clipPath544)"
             id="g542" /></g><g
           id="g548"><g
             clip-path="url(#clipPath552)"
             id="g550"><text
   transform="matrix(1,0,0,-1,157.34,430.49)"
   id="text556"><tspan
     x="0 3.336 6.7080002 10.044 13.416 16.656 23.364 27.360001 34.032001 37.368 44.112"
     y="0"
     id="tspan558"
     style="font-size:12px;font-variant:normal;font-weight:normal;writing-mode:lr-tb;fill:#000000;fill-opacity:1;fill-rule:nonzero;stroke:none;font-family:Helvetica;-inkscape-font-specification:Helvetica">: IIterator</tspan></text>

</g></g><g
           id="g560"><g
             clip-path="url(#clipPath564)"
             id="g562" /></g><g
           id="g568"><g
             clip-path="url(#clipPath572)"
             id="g570" /></g></g></g><path
       d="m 138.15,548.65 7.5,-15.75 -15,0 7.5,15.75 z"
       inkscape:connector-curvature="0"
       id="path576"
       style="fill:#ffffff;fill-opacity:1;fill-rule:evenodd;stroke:none" /><path
       d="m 138.15,548.65 7.5,-15.75 -15,0 7.5,15.75 z"
       inkscape:connector-curvature="0"
       id="path578"
       style="fill:none;stroke:#000000;stroke-width:0.75;stroke-linecap:round;stroke-linejoin:round;stroke-miterlimit:8;stroke-opacity:1;stroke-dasharray:none" /><g
       id="g580"><path
         d="m 138.25,532.9 0,-59.65"
         inkscape:connector-curvature="0"
         id="path582"
         style="fill:none;stroke:#000000;stroke-width:0.75;stroke-linecap:round;stroke-linejoin:round;stroke-miterlimit:8;stroke-opacity:1;stroke-dasharray:5.25, 3;stroke-dashoffset:0" /></g><path
       d="m 46.65,449 183.45,0"
       inkscape:connector-curvature="0"
       id="path584"
       style="fill:none;stroke:#000000;stroke-width:0.75;stroke-linecap:round;stroke-linejoin:round;stroke-miterlimit:8;stroke-opacity:1;stroke-dasharray:none" /><path
       d="m 138.35,384.9 0,-48.7"
       inkscape:connector-curvature="0"
       id="path586"
       style="fill:none;stroke:#000000;stroke-width:0.75;stroke-linecap:round;stroke-linejoin:round;stroke-miterlimit:8;stroke-opacity:1;stroke-dasharray:none" /><path
       d="m 138.27,408 -6.72,-11.55 6.72,-11.55 6.73,11.55 -6.73,11.55 z"
       inkscape:connector-curvature="0"
       id="path588"
       style="fill:#ffffff;fill-opacity:1;fill-rule:evenodd;stroke:none" /><path
       d="m 138.27,408 -6.72,-11.55 6.72,-11.55 6.73,11.55 -6.73,11.55 z"
       inkscape:connector-curvature="0"
       id="path590"
       style="fill:none;stroke:#000000;stroke-width:0.75;stroke-linecap:round;stroke-linejoin:round;stroke-miterlimit:8;stroke-opacity:1;stroke-dasharray:none" /><path
       d="m 46.5,270.25 183.6,0 0,65.25 -183.6,0 0,-65.25 z"
       inkscape:connector-curvature="0"
       id="path592"
       style="fill:#ffffff;fill-opacity:1;fill-rule:evenodd;stroke:none" /><path
       d="m 46.5,270.25 183.6,0 0,65.25 -183.6,0 0,-65.25 z"
       inkscape:connector-curvature="0"
       id="path594"
       style="fill:none;stroke:#000000;stroke-width:0.75;stroke-linecap:round;stroke-linejoin:miter;stroke-miterlimit:8;stroke-opacity:1;stroke-dasharray:none" /><g
       id="g596"><g
         clip-path="url(#clipPath600)"
         id="g598"><g
           id="g604"><g
             clip-path="url(#clipPath608)"
             id="g606"><text
   transform="matrix(1,0,0,-1,114.98,320.33)"
   id="text612"><tspan
     x="0 8.0279999 11.364 18.096001 28.764 35.484001 42.816002"
     y="0"
     id="tspan614"
     style="font-size:12px;font-variant:normal;font-weight:bold;writing-mode:lr-tb;fill:#000000;fill-opacity:1;fill-rule:nonzero;stroke:none;font-family:Helvetica;-inkscape-font-specification:Helvetica-Bold">Element</tspan></text>

</g></g><g
           id="g616"><g
             clip-path="url(#clipPath620)"
             id="g618" /></g><g
           id="g624"><g
             clip-path="url(#clipPath628)"
             id="g626" /></g><g
           id="g632"><g
             clip-path="url(#clipPath636)"
             id="g634"><text
   transform="matrix(1,0,0,-1,54.12,292.85)"
   id="text640"><tspan
     x="0 6.96 10.296 17.028 23.736 30.444 34.439999 41.112 44.448002 47.112 53.723999 60.431999 64.428001"
     y="0"
     id="tspan642"
     style="font-size:12px;font-variant:normal;font-weight:normal;writing-mode:lr-tb;fill:#000000;fill-opacity:1;fill-rule:nonzero;stroke:none;font-family:Helvetica;-inkscape-font-specification:Helvetica">+ operation()</tspan></text>

</g></g><g
           id="g644"><g
             clip-path="url(#clipPath648)"
             id="g646" /></g><g
           id="g652"><g
             clip-path="url(#clipPath656)"
             id="g654" /></g></g></g><path
       d="m 46.5,311.2 183.35,0"
       inkscape:connector-curvature="0"
       id="path660"
       style="fill:none;stroke:#000000;stroke-width:0.75;stroke-linecap:round;stroke-linejoin:round;stroke-miterlimit:8;stroke-opacity:1;stroke-dasharray:none" /><path
       d="m 46.5,549 183.5,0 0,65.25 -183.5,0 0,-65.25 z"
       inkscape:connector-curvature="0"
       id="path662"
       style="fill:#ffffff;fill-opacity:1;fill-rule:evenodd;stroke:none" /><path
       d="m 46.5,549 183.5,0 0,65.25 -183.5,0 0,-65.25 z"
       inkscape:connector-curvature="0"
       id="path664"
       style="fill:none;stroke:#000000;stroke-width:0.75;stroke-linecap:round;stroke-linejoin:miter;stroke-miterlimit:8;stroke-opacity:1;stroke-dasharray:none" /><g
       id="g666"><g
         clip-path="url(#clipPath670)"
         id="g668"><g
           id="g674"><g
             clip-path="url(#clipPath678)"
             id="g676"><text
   transform="matrix(1,0,0,-1,98.664,599.83)"
   id="text682"><tspan
     x="0 7.1999998 14.4 21.6 28.799999 36 43.200001 50.400002 57.599998 64.800003 72"
     y="0"
     id="tspan684"
     style="font-size:12px;font-variant:normal;font-weight:normal;writing-mode:lr-tb;fill:#000000;fill-opacity:1;fill-rule:nonzero;stroke:none;font-family:Courier New;-inkscape-font-specification:Courier New">«interface»</tspan></text>

</g></g><g
           id="g686"><g
             clip-path="url(#clipPath690)"
             id="g688" /></g><g
           id="g694"><g
             clip-path="url(#clipPath698)"
             id="g696"><text
   transform="matrix(1,0,0,-1,97.224,585.55)"
   id="text702"><tspan
     x="0 3.336 12 18.708 22.704 29.375999 36.708 43.416 47.411999 52.080002 59.411999 66.084 70.080002 77.375999"
     y="0"
     id="tspan704"
     style="font-size:12px;font-variant:normal;font-weight:bold;writing-mode:lr-tb;fill:#000000;fill-opacity:1;fill-rule:nonzero;stroke:none;font-family:Helvetica;-inkscape-font-specification:Helvetica-Bold">IDatenstruktur</tspan></text>

</g></g><g
           id="g706"><g
             clip-path="url(#clipPath710)"
             id="g708" /></g><g
           id="g714"><g
             clip-path="url(#clipPath718)"
             id="g716" /></g><g
           id="g722"><g
             clip-path="url(#clipPath726)"
             id="g724"><text
   transform="matrix(1,0,0,-1,54.12,557.95)"
   id="text730"><tspan
     x="0 6.96 10.296 17.028 21.024 26.868 33.576 40.284 46.883999 53.591999 56.928001 60.299999 67.008003 71.003998 77.676003 81.012001 87.755997"
     y="0"
     id="tspan732"
     style="font-size:12px;font-variant:normal;font-weight:normal;writing-mode:lr-tb;fill:#000000;fill-opacity:1;fill-rule:nonzero;stroke:none;font-family:Helvetica;-inkscape-font-specification:Helvetica">+ erzeugeIterator</tspan></text>

</g></g><g
           id="g734"><g
             clip-path="url(#clipPath738)"
             id="g736"><text
   transform="matrix(1,0,0,-1,145.94,557.95)"
   id="text742"><tspan
     x="0 3.96"
     y="0"
     id="tspan744"
     style="font-size:12px;font-variant:normal;font-weight:normal;writing-mode:lr-tb;fill:#000000;fill-opacity:1;fill-rule:nonzero;stroke:none;font-family:Helvetica;-inkscape-font-specification:Helvetica">()</tspan></text>

</g></g><g
           id="g746"><g
             clip-path="url(#clipPath750)"
             id="g748" /></g><g
           id="g754"><g
             clip-path="url(#clipPath758)"
             id="g756"><text
   transform="matrix(1,0,0,-1,157.22,557.95)"
   id="text762"><tspan
     x="0 3.336 6.7080002 10.044 13.416 16.656 23.364 27.360001 34.032001 37.368 44.112"
     y="0"
     id="tspan764"
     style="font-size:12px;font-variant:normal;font-weight:normal;writing-mode:lr-tb;fill:#000000;fill-opacity:1;fill-rule:nonzero;stroke:none;font-family:Helvetica;-inkscape-font-specification:Helvetica">: IIterator</tspan></text>

</g></g><g
           id="g766"><g
             clip-path="url(#clipPath770)"
             id="g768" /></g></g></g><path
       d="M 46.5,576.65 230,576.6"
       inkscape:connector-curvature="0"
       id="path774"
       style="fill:none;stroke:#000000;stroke-width:0.75;stroke-linecap:round;stroke-linejoin:round;stroke-miterlimit:8;stroke-opacity:1;stroke-dasharray:none" /><path
       d="m 264.75,557.25 81,0 0,42.75 -81,0 0,-42.75 z"
       inkscape:connector-curvature="0"
       id="path776"
       style="fill:#ffffff;fill-opacity:1;fill-rule:evenodd;stroke:none" /><path
       d="m 264.75,557.25 81,0 0,42.75 -81,0 0,-42.75 z"
       inkscape:connector-curvature="0"
       id="path778"
       style="fill:none;stroke:#000000;stroke-width:0.75;stroke-linecap:round;stroke-linejoin:miter;stroke-miterlimit:8;stroke-opacity:1;stroke-dasharray:none" /><g
       id="g780"><g
         clip-path="url(#clipPath784)"
         id="g782"><g
           id="g788"><g
             clip-path="url(#clipPath792)"
             id="g790"><text
   transform="matrix(1,0,0,-1,288.65,584.59)"
   id="text796"><tspan
     x="0 8.6639996 12 15.336 22.068001 29.4"
     y="0"
     id="tspan798"
     style="font-size:12px;font-variant:normal;font-weight:bold;writing-mode:lr-tb;fill:#000000;fill-opacity:1;fill-rule:nonzero;stroke:none;font-family:Helvetica;-inkscape-font-specification:Helvetica-Bold">Client</tspan></text>

</g></g><g
           id="g800"><g
             clip-path="url(#clipPath804)"
             id="g802" /></g></g></g><path
       d="m 345.75,580.85 31.7,0 c 0.28,0 0.5,-0.22 0.5,-0.5 0,-0.28 -0.22,-0.5 -0.5,-0.5 l -31.7,0 c -0.28,0 -0.5,0.22 -0.5,0.5 0,0.28 0.22,0.5 0.5,0.5 z m 22.94,4.94 9.79,-5.44 -9.79,-5.44 c -0.24,-0.13 -0.54,-0.04 -0.68,0.2 -0.13,0.24 -0.04,0.54 0.2,0.68 l 9,5 0,-0.88 -9,5 c -0.24,0.14 -0.33,0.44 -0.2,0.68 0.14,0.24 0.44,0.33 0.68,0.2 z"
       inkscape:connector-curvature="0"
       id="path808"
       style="fill:#000000;fill-opacity:1;fill-rule:nonzero;stroke:none" /><path
       d="m 264.75,579.85 -33.5,0 c -0.28,0 -0.5,0.22 -0.5,0.5 0,0.28 0.22,0.5 0.5,0.5 l 33.5,0 c 0.28,0 0.5,-0.22 0.5,-0.5 0,-0.28 -0.22,-0.5 -0.5,-0.5 z m -24.74,-4.94 -9.79,5.44 9.79,5.44 c 0.24,0.13 0.54,0.04 0.68,-0.2 0.13,-0.24 0.04,-0.54 -0.2,-0.68 l -9,-5 0,0.88 9,-5 c 0.24,-0.14 0.33,-0.44 0.2,-0.68 -0.14,-0.24 -0.44,-0.33 -0.68,-0.2 z"
       inkscape:connector-curvature="0"
       id="path810"
       style="fill:#000000;fill-opacity:1;fill-rule:nonzero;stroke:none" /><path
       d="m 379.5,422.6 -148.25,0 c -0.28,0 -0.5,0.22 -0.5,0.5 0,0.28 0.22,0.5 0.5,0.5 l 148.25,0 c 0.28,0 0.5,-0.22 0.5,-0.5 0,-0.28 -0.22,-0.5 -0.5,-0.5 z m -139.49,-4.94 -9.79,5.44 9.79,5.44 c 0.24,0.13 0.54,0.04 0.68,-0.2 0.13,-0.24 0.04,-0.54 -0.2,-0.68 l -9,-5 0,0.88 9,-5 c 0.24,-0.14 0.33,-0.44 0.2,-0.68 -0.14,-0.24 -0.44,-0.33 -0.68,-0.2 z"
       inkscape:connector-curvature="0"
       id="path812"
       style="fill:#000000;fill-opacity:1;fill-rule:nonzero;stroke:none" /><path
       d="m 230.1,458.75 3,0 c 0.28,0 0.5,-0.23 0.5,-0.5 0,-0.28 -0.22,-0.5 -0.5,-0.5 l -3,0 c -0.28,0 -0.5,0.22 -0.5,0.5 0,0.28 0.22,0.5 0.5,0.5 z m 7,-0.01 3,0 c 0.28,0 0.5,-0.23 0.5,-0.5 0,-0.28 -0.22,-0.5 -0.5,-0.5 l -3,0 c -0.28,0 -0.5,0.23 -0.5,0.5 0,0.28 0.22,0.5 0.5,0.5 z m 7,-0.01 3,0 c 0.28,0 0.5,-0.23 0.5,-0.5 0,-0.28 -0.22,-0.5 -0.5,-0.5 l -3,0 c -0.28,0 -0.5,0.23 -0.5,0.5 0,0.28 0.22,0.5 0.5,0.5 z m 7,-0.01 3,0 c 0.28,0 0.5,-0.23 0.5,-0.5 0,-0.28 -0.22,-0.5 -0.5,-0.5 l -3,0 c -0.28,0 -0.5,0.23 -0.5,0.5 0,0.28 0.22,0.5 0.5,0.5 z m 7,-0.01 3,0 c 0.28,0 0.5,-0.23 0.5,-0.5 0,-0.28 -0.22,-0.5 -0.5,-0.5 l -3,0 c -0.28,0 -0.5,0.23 -0.5,0.5 0,0.28 0.22,0.5 0.5,0.5 z m 7,-0.01 3,0 c 0.28,0 0.5,-0.22 0.5,-0.5 0,-0.28 -0.22,-0.5 -0.5,-0.5 l -3,0 c -0.28,0 -0.5,0.23 -0.5,0.5 0,0.28 0.22,0.5 0.5,0.5 z m 7,-0.01 3,0 c 0.28,0 0.5,-0.22 0.5,-0.5 0,-0.28 -0.22,-0.5 -0.5,-0.5 l -3,0 c -0.28,0 -0.5,0.23 -0.5,0.51 0,0.27 0.22,0.49 0.5,0.49 z m 7,0 3,-0.01 c 0.28,0 0.5,-0.22 0.5,-0.5 0,-0.28 -0.22,-0.5 -0.5,-0.5 l -3,0.01 c -0.28,0 -0.5,0.22 -0.5,0.5 0,0.27 0.22,0.5 0.5,0.5 z m 7,-0.01 3,-0.01 c 0.28,0 0.5,-0.22 0.5,-0.5 0,-0.27 -0.22,-0.5 -0.5,-0.5 l -3,0.01 c -0.28,0 -0.5,0.22 -0.5,0.5 0,0.27 0.22,0.5 0.5,0.5 z m 7,-0.01 3,-0.01 c 0.28,0 0.5,-0.22 0.5,-0.5 0,-0.27 -0.22,-0.5 -0.5,-0.5 l -3,0.01 c -0.28,0 -0.5,0.22 -0.5,0.5 0,0.27 0.22,0.5 0.5,0.5 z m 7,-0.01 3,-0.01 c 0.28,0 0.5,-0.22 0.5,-0.5 0,-0.27 -0.22,-0.5 -0.5,-0.5 l -3,0.01 c -0.28,0 -0.5,0.22 -0.5,0.5 0,0.27 0.22,0.5 0.5,0.5 z m 7,-0.01 3,-0.01 c 0.28,0 0.5,-0.22 0.5,-0.5 0,-0.27 -0.22,-0.5 -0.5,-0.5 l -3,0.01 c -0.28,0 -0.5,0.22 -0.5,0.5 0,0.27 0.22,0.5 0.5,0.5 z m 7,-0.01 3,-0.01 c 0.28,0 0.5,-0.22 0.5,-0.5 0,-0.27 -0.22,-0.5 -0.5,-0.5 l -3,0.01 c -0.28,0 -0.5,0.22 -0.5,0.5 0,0.28 0.22,0.5 0.5,0.5 z m 7,-0.01 3,0 c 0.28,0 0.5,-0.23 0.5,-0.51 0,-0.27 -0.22,-0.5 -0.5,-0.49 l -3,0 c -0.28,0 -0.5,0.22 -0.5,0.5 0,0.28 0.22,0.5 0.5,0.5 z m 7,-0.01 3,0 c 0.28,0 0.5,-0.23 0.5,-0.5 0,-0.28 -0.22,-0.5 -0.5,-0.5 l -3,0 c -0.28,0 -0.5,0.22 -0.5,0.5 0,0.28 0.22,0.5 0.5,0.5 z m 7,-0.01 3,0 c 0.28,0 0.5,-0.23 0.5,-0.5 0,-0.28 -0.22,-0.5 -0.5,-0.5 l -3,0 c -0.28,0 -0.5,0.23 -0.5,0.5 0,0.28 0.22,0.5 0.5,0.5 z m 7,-0.01 3,0 c 0.28,0 0.5,-0.23 0.5,-0.5 0,-0.28 -0.22,-0.5 -0.5,-0.5 l -3,0 c -0.28,0 -0.5,0.23 -0.5,0.5 0,0.28 0.22,0.5 0.5,0.5 z m 7,-0.01 3,0 c 0.28,0 0.5,-0.23 0.5,-0.5 0,-0.28 -0.22,-0.5 -0.5,-0.5 l -3,0 c -0.28,0 -0.5,0.23 -0.5,0.5 0,0.28 0.22,0.5 0.5,0.5 z m 7,-0.01 3,0 c 0.28,0 0.5,-0.23 0.5,-0.5 0,-0.28 -0.22,-0.5 -0.5,-0.5 l -3,0 c -0.28,0 -0.5,0.23 -0.5,0.5 0,0.28 0.22,0.5 0.5,0.5 z m 7,-0.01 3,0 c 0.28,0 0.5,-0.23 0.5,-0.5 0,-0.28 -0.22,-0.5 -0.5,-0.5 l -3,0 c -0.28,0 -0.5,0.23 -0.5,0.5 0,0.28 0.22,0.5 0.5,0.5 z m 7,-0.01 3,0 c 0.28,0 0.5,-0.22 0.5,-0.5 0,-0.28 -0.22,-0.5 -0.5,-0.5 l -3,0 c -0.28,0 -0.5,0.23 -0.5,0.5 0,0.28 0.22,0.5 0.5,0.5 z m 7,-0.01 1.3,0 c 0.28,0 0.5,-0.22 0.5,-0.5 0,-0.27 -0.22,-0.5 -0.5,-0.5 l -1.3,0 c -0.28,0 -0.5,0.23 -0.5,0.51 0,0.27 0.22,0.49 0.5,0.49 z m -4.37,4.89 6.45,-5.39 -6.47,-5.37 c -0.21,-0.18 -0.52,-0.15 -0.7,0.06 -0.18,0.21 -0.15,0.53 0.06,0.71 l 6.01,4.99 0,-0.77 -5.99,5.01 c -0.22,0.17 -0.24,0.49 -0.07,0.7 0.18,0.21 0.5,0.24 0.71,0.06 z"
       inkscape:connector-curvature="0"
       id="path814"
       style="fill:#000000;fill-opacity:1;fill-rule:nonzero;stroke:none" /></g></svg>