<?xml version="1.0" encoding="UTF-8" standalone="no"?>
<!-- Created with Inkscape (http://www.inkscape.org/) -->

<svg
   xmlns:dc="http://purl.org/dc/elements/1.1/"
   xmlns:cc="http://creativecommons.org/ns#"
   xmlns:rdf="http://www.w3.org/1999/02/22-rdf-syntax-ns#"
   xmlns:svg="http://www.w3.org/2000/svg"
   xmlns="http://www.w3.org/2000/svg"
   xmlns:sodipodi="http://sodipodi.sourceforge.net/DTD/sodipodi-0.dtd"
   xmlns:inkscape="http://www.inkscape.org/namespaces/inkscape"
   version="1.1"
   width="545.1875"
   height="171.3125"
   id="svg2"
   xml:space="preserve"
   inkscape:version="0.48.4 r9939"
   sodipodi:docname="Bild 4-2 Klassendiagramm Objekt-Adapter.svg"><sodipodi:namedview
     pagecolor="#ffffff"
     bordercolor="#666666"
     borderopacity="1"
     objecttolerance="10"
     gridtolerance="10"
     guidetolerance="10"
     inkscape:pageopacity="0"
     inkscape:pageshadow="2"
     inkscape:window-width="640"
     inkscape:window-height="480"
     id="namedview214"
     showgrid="false"
     inkscape:zoom="0.18730159"
     inkscape:cx="43.59375"
     inkscape:cy="78.96875"
     inkscape:window-x="0"
     inkscape:window-y="0"
     inkscape:window-maximized="0"
     inkscape:current-layer="svg2" /><metadata
     id="metadata8"><rdf:RDF><cc:Work
         rdf:about=""><dc:format>image/svg+xml</dc:format><dc:type
           rdf:resource="http://purl.org/dc/dcmitype/StillImage" /></cc:Work></rdf:RDF></metadata><defs
     id="defs6"><clipPath
       id="clipPath22"><path
         d="m 479.36,545.11 56.52,0 0,19.68 -56.52,0 0,-19.68 z"
         inkscape:connector-curvature="0"
         id="path24" /></clipPath><clipPath
       id="clipPath30"><path
         d="m 479.35,545.11 56.52,0 0,19.68 -56.52,0 0,-19.68 z"
         inkscape:connector-curvature="0"
         id="path32" /></clipPath><clipPath
       id="clipPath42"><path
         d="m 479.35,545.11 56.52,0 0,19.68 -56.52,0 0,-19.68 z"
         inkscape:connector-curvature="0"
         id="path44" /></clipPath><clipPath
       id="clipPath58"><path
         d="m 546.08,552.55 63,0 0,22.8 -63,0 0,-22.8 z"
         inkscape:connector-curvature="0"
         id="path60" /></clipPath><clipPath
       id="clipPath66"><path
         d="m 546.07,552.55 63,0 0,22.8 -63,0 0,-22.8 z"
         inkscape:connector-curvature="0"
         id="path68" /></clipPath><clipPath
       id="clipPath78"><path
         d="m 546.07,552.55 63,0 0,22.8 -63,0 0,-22.8 z"
         inkscape:connector-curvature="0"
         id="path80" /></clipPath><clipPath
       id="clipPath90"><path
         d="m 546.07,552.55 63,0 0,22.8 -63,0 0,-22.8 z"
         inkscape:connector-curvature="0"
         id="path92" /></clipPath><clipPath
       id="clipPath98"><path
         d="m 546.07,552.55 63,0 0,22.8 -63,0 0,-22.8 z"
         inkscape:connector-curvature="0"
         id="path100" /></clipPath><clipPath
       id="clipPath118"><path
         d="m 466.73,444.43 103.59,0 0,27.72 -103.59,0 0,-27.72 z"
         inkscape:connector-curvature="0"
         id="path120" /></clipPath><clipPath
       id="clipPath126"><path
         d="m 466.73,444.43 103.58,0 0,27.72 -103.58,0 0,-27.72 z"
         inkscape:connector-curvature="0"
         id="path128" /></clipPath><clipPath
       id="clipPath138"><path
         d="m 466.73,444.43 103.58,0 0,27.72 -103.58,0 0,-27.72 z"
         inkscape:connector-curvature="0"
         id="path140" /></clipPath><clipPath
       id="clipPath146"><path
         d="m 466.73,444.43 103.58,0 0,27.72 -103.58,0 0,-27.72 z"
         inkscape:connector-curvature="0"
         id="path148" /></clipPath><clipPath
       id="clipPath158"><path
         d="m 466.73,444.43 103.58,0 0,27.72 -103.58,0 0,-27.72 z"
         inkscape:connector-curvature="0"
         id="path160" /></clipPath><clipPath
       id="clipPath182"><path
         d="m 611.72,445.15 117.49,0 0,36.72 -117.49,0 0,-36.72 z"
         inkscape:connector-curvature="0"
         id="path184" /></clipPath><clipPath
       id="clipPath190"><path
         d="m 611.71,445.15 117.5,0 0,36.72 -117.5,0 0,-36.72 z"
         inkscape:connector-curvature="0"
         id="path192" /></clipPath><clipPath
       id="clipPath202"><path
         d="m 611.71,445.15 117.5,0 0,36.72 -117.5,0 0,-36.72 z"
         inkscape:connector-curvature="0"
         id="path204" /></clipPath><clipPath
       id="clipPath210"><path
         d="m 611.71,445.15 117.5,0 0,36.72 -117.5,0 0,-36.72 z"
         inkscape:connector-curvature="0"
         id="path212" /></clipPath><clipPath
       id="clipPath218"><path
         d="m 611.71,445.15 117.5,0 0,36.72 -117.5,0 0,-36.72 z"
         inkscape:connector-curvature="0"
         id="path220" /></clipPath><clipPath
       id="clipPath230"><path
         d="m 611.71,445.15 117.5,0 0,36.72 -117.5,0 0,-36.72 z"
         inkscape:connector-curvature="0"
         id="path232" /></clipPath><clipPath
       id="clipPath244"><path
         d="m 611.72,523.03 117.49,0 0,50.4 -117.49,0 0,-50.4 z"
         inkscape:connector-curvature="0"
         id="path246" /></clipPath><clipPath
       id="clipPath252"><path
         d="m 611.71,523.03 117.5,0 0,50.4 -117.5,0 0,-50.4 z"
         inkscape:connector-curvature="0"
         id="path254" /></clipPath><clipPath
       id="clipPath264"><path
         d="m 611.71,523.03 117.5,0 0,50.4 -117.5,0 0,-50.4 z"
         inkscape:connector-curvature="0"
         id="path266" /></clipPath><clipPath
       id="clipPath276"><path
         d="m 611.71,523.03 117.5,0 0,50.4 -117.5,0 0,-50.4 z"
         inkscape:connector-curvature="0"
         id="path278" /></clipPath><clipPath
       id="clipPath288"><path
         d="m 611.71,523.03 117.5,0 0,50.4 -117.5,0 0,-50.4 z"
         inkscape:connector-curvature="0"
         id="path290" /></clipPath><clipPath
       id="clipPath296"><path
         d="m 611.71,523.03 117.5,0 0,50.4 -117.5,0 0,-50.4 z"
         inkscape:connector-curvature="0"
         id="path298" /></clipPath><clipPath
       id="clipPath308"><path
         d="m 611.71,523.03 117.5,0 0,50.4 -117.5,0 0,-50.4 z"
         inkscape:connector-curvature="0"
         id="path310" /></clipPath><clipPath
       id="clipPath320"><path
         d="m 611.71,523.03 117.5,0 0,50.4 -117.5,0 0,-50.4 z"
         inkscape:connector-curvature="0"
         id="path322" /></clipPath><clipPath
       id="clipPath328"><path
         d="m 611.71,523.03 117.5,0 0,50.4 -117.5,0 0,-50.4 z"
         inkscape:connector-curvature="0"
         id="path330" /></clipPath><clipPath
       id="clipPath336"><path
         d="m 611.71,523.03 117.5,0 0,50.4 -117.5,0 0,-50.4 z"
         inkscape:connector-curvature="0"
         id="path338" /></clipPath><clipPath
       id="clipPath348"><path
         d="m 611.71,523.03 117.5,0 0,50.4 -117.5,0 0,-50.4 z"
         inkscape:connector-curvature="0"
         id="path350" /></clipPath><clipPath
       id="clipPath362"><path
         d="m 755.37,445.15 149.55,0 0,36.72 -149.55,0 0,-36.72 z"
         inkscape:connector-curvature="0"
         id="path364" /></clipPath><clipPath
       id="clipPath370"><path
         d="m 755.38,445.15 149.54,0 0,36.72 -149.54,0 0,-36.72 z"
         inkscape:connector-curvature="0"
         id="path372" /></clipPath><clipPath
       id="clipPath382"><path
         d="m 755.38,445.15 149.54,0 0,36.72 -149.54,0 0,-36.72 z"
         inkscape:connector-curvature="0"
         id="path384" /></clipPath><clipPath
       id="clipPath390"><path
         d="m 755.38,445.15 149.54,0 0,36.72 -149.54,0 0,-36.72 z"
         inkscape:connector-curvature="0"
         id="path392" /></clipPath><clipPath
       id="clipPath398"><path
         d="m 755.38,445.15 149.54,0 0,36.72 -149.54,0 0,-36.72 z"
         inkscape:connector-curvature="0"
         id="path400" /></clipPath><clipPath
       id="clipPath410"><path
         d="m 755.38,445.15 149.54,0 0,36.72 -149.54,0 0,-36.72 z"
         inkscape:connector-curvature="0"
         id="path412" /></clipPath><clipPath
       id="clipPath422"><path
         d="m 755.38,445.15 149.54,0 0,36.72 -149.54,0 0,-36.72 z"
         inkscape:connector-curvature="0"
         id="path424" /></clipPath></defs><g
     transform="matrix(1.25,0,0,-1.25,-586.78125,722.34375)"
     id="g10"><path
       d="m 469.8,532.5 75.45,0 0,45 -75.45,0 0,-45 z"
       inkscape:connector-curvature="0"
       id="path12"
       style="fill:#ffffff;fill-opacity:1;fill-rule:evenodd;stroke:none" /><path
       d="m 469.8,532.5 75.45,0 0,45 -75.45,0 0,-45 z"
       inkscape:connector-curvature="0"
       id="path14"
       style="fill:none;stroke:#000000;stroke-width:0.75;stroke-linecap:round;stroke-linejoin:miter;stroke-miterlimit:10;stroke-opacity:1;stroke-dasharray:none" /><path
       d="m 479.25,541.5 56.55,0 0,27 -56.55,0 0,-27 z"
       inkscape:connector-curvature="0"
       id="path16"
       style="fill:#ffffff;fill-opacity:1;fill-rule:evenodd;stroke:none" /><g
       id="g18"><g
         clip-path="url(#clipPath22)"
         id="g20"><g
           id="g26"><g
             clip-path="url(#clipPath30)"
             id="g28"><text
   transform="matrix(1,0,0,-1,486.55,553.27)"
   id="text34"><tspan
     x="0 8.6639996 12 15.336 22.068001 29.4"
     y="0"
     id="tspan36"
     style="font-size:12px;font-variant:normal;font-weight:bold;writing-mode:lr-tb;fill:#000000;fill-opacity:1;fill-rule:nonzero;stroke:none;font-family:Helvetica;-inkscape-font-specification:Helvetica-Bold">Client</tspan></text>

</g></g><g
           id="g38"><g
             clip-path="url(#clipPath42)"
             id="g40" /></g></g></g><path
       d="m 545.55,560 3,0 c 0.28,0 0.5,-0.22 0.5,-0.5 0,-0.28 -0.22,-0.5 -0.5,-0.5 l -3,0 c -0.28,0 -0.5,0.22 -0.5,0.5 0,0.28 0.22,0.5 0.5,0.5 z m 7,0 3,0 c 0.28,0 0.5,-0.22 0.5,-0.5 0,-0.28 -0.22,-0.5 -0.5,-0.5 l -3,0 c -0.28,0 -0.5,0.22 -0.5,0.5 0,0.28 0.22,0.5 0.5,0.5 z m 7,0 3,0 c 0.28,0 0.5,-0.22 0.5,-0.5 0,-0.28 -0.22,-0.5 -0.5,-0.5 l -3,0 c -0.28,0 -0.5,0.22 -0.5,0.5 0,0.28 0.22,0.5 0.5,0.5 z m 7,0 3,0 c 0.28,0 0.5,-0.22 0.5,-0.5 0,-0.28 -0.22,-0.5 -0.5,-0.5 l -3,0 c -0.28,0 -0.5,0.22 -0.5,0.5 0,0.28 0.22,0.5 0.5,0.5 z m 7,0 3,0 c 0.28,0 0.5,-0.22 0.5,-0.5 0,-0.28 -0.22,-0.5 -0.5,-0.5 l -3,0 c -0.28,0 -0.5,0.22 -0.5,0.5 0,0.28 0.22,0.5 0.5,0.5 z m 7,0 3,0 c 0.28,0 0.5,-0.22 0.5,-0.5 0,-0.28 -0.22,-0.5 -0.5,-0.5 l -3,0 c -0.28,0 -0.5,0.22 -0.5,0.5 0,0.28 0.22,0.5 0.5,0.5 z m 7,0 3,0 c 0.28,0 0.5,-0.22 0.5,-0.5 0,-0.28 -0.22,-0.5 -0.5,-0.5 l -3,0 c -0.28,0 -0.5,0.22 -0.5,0.5 0,0.28 0.22,0.5 0.5,0.5 z m 7,0 3,0 c 0.28,0 0.5,-0.22 0.5,-0.5 0,-0.28 -0.22,-0.5 -0.5,-0.5 l -3,0 c -0.28,0 -0.5,0.22 -0.5,0.5 0,0.28 0.22,0.5 0.5,0.5 z m 7,0 3,0 c 0.28,0 0.5,-0.22 0.5,-0.5 0,-0.28 -0.22,-0.5 -0.5,-0.5 l -3,0 c -0.28,0 -0.5,0.22 -0.5,0.5 0,0.28 0.22,0.5 0.5,0.5 z m 7,0 1.95,0 c 0.28,0 0.5,-0.22 0.5,-0.5 0,-0.28 -0.22,-0.5 -0.5,-0.5 l -1.95,0 c -0.28,0 -0.5,0.22 -0.5,0.5 0,0.28 0.22,0.5 0.5,0.5 z m -3.73,4.88 6.46,-5.38 -6.46,-5.38 c -0.21,-0.18 -0.53,-0.15 -0.7,0.06 -0.18,0.21 -0.15,0.53 0.06,0.7 l 6,5 0,-0.76 -6,5 c -0.21,0.17 -0.24,0.49 -0.06,0.7 0.17,0.21 0.49,0.24 0.7,0.06 z"
       inkscape:connector-curvature="0"
       id="path46"
       style="fill:#000000;fill-opacity:1;fill-rule:nonzero;stroke:none" /><path
       d="m 738.32,466.5 -8.67,-6.75 8.67,-6.75 8.68,6.75 -8.68,6.75 z"
       inkscape:connector-curvature="0"
       id="path48"
       style="fill:#ffffff;fill-opacity:1;fill-rule:evenodd;stroke:none" /><path
       d="m 738.32,466.5 -8.67,-6.75 8.67,-6.75 8.68,6.75 -8.68,6.75 z"
       inkscape:connector-curvature="0"
       id="path50"
       style="fill:none;stroke:#000000;stroke-width:0.75;stroke-linecap:round;stroke-linejoin:round;stroke-miterlimit:10;stroke-opacity:1;stroke-dasharray:none" /><path
       d="m 747,459.7 7.85,0"
       inkscape:connector-curvature="0"
       id="path52"
       style="fill:none;stroke:#000000;stroke-width:0.75;stroke-linecap:round;stroke-linejoin:round;stroke-miterlimit:10;stroke-opacity:1;stroke-dasharray:none" /><g
       id="g54"><g
         clip-path="url(#clipPath58)"
         id="g56"><g
           id="g62"><g
             clip-path="url(#clipPath66)"
             id="g64"><text
   transform="matrix(1,0,0,-1,553.27,565.03)"
   id="text70"><tspan
     x="0"
     y="0"
     id="tspan72"
     style="font-size:12px;font-variant:normal;font-weight:normal;writing-mode:lr-tb;fill:#000000;fill-opacity:1;fill-rule:nonzero;stroke:none;font-family:Courier New;-inkscape-font-specification:Courier New">«</tspan></text>

</g></g><g
           id="g74"><g
             clip-path="url(#clipPath78)"
             id="g76"><text
   transform="matrix(1,0,0,-1,560.47,565.03)"
   id="text82"><tspan
     x="0 7.1999998 14.4 21.6"
     y="0"
     id="tspan84"
     style="font-size:12px;font-variant:normal;font-weight:normal;writing-mode:lr-tb;fill:#000000;fill-opacity:1;fill-rule:nonzero;stroke:none;font-family:Courier New;-inkscape-font-specification:Courier New">use»</tspan></text>

</g></g><g
           id="g86"><g
             clip-path="url(#clipPath90)"
             id="g88" /></g><g
           id="g94"><g
             clip-path="url(#clipPath98)"
             id="g96" /></g></g></g><path
       d="m 544.4,478.5 0,-10.15 21,0 -21,10.15 z"
       inkscape:connector-curvature="0"
       id="path102"
       style="fill:#ffffff;fill-opacity:1;fill-rule:evenodd;stroke:none" /><path
       d="m 544.4,478.5 0,-10.15 21,0 -21,10.15 z"
       inkscape:connector-curvature="0"
       id="path104"
       style="fill:none;stroke:#000000;stroke-width:0.75;stroke-linecap:round;stroke-linejoin:round;stroke-miterlimit:10;stroke-opacity:1;stroke-dasharray:none" /><path
       d="m 565.4,468.35 0,-27.15"
       inkscape:connector-curvature="0"
       id="path106"
       style="fill:none;stroke:#000000;stroke-width:0.75;stroke-linecap:round;stroke-linejoin:round;stroke-miterlimit:10;stroke-opacity:1;stroke-dasharray:none" /><path
       d="m 565.4,441.2 -94.5,0"
       inkscape:connector-curvature="0"
       id="path108"
       style="fill:none;stroke:#000000;stroke-width:0.75;stroke-linecap:round;stroke-linejoin:round;stroke-miterlimit:10;stroke-opacity:1;stroke-dasharray:none" /><path
       d="m 470.9,441.2 0,37.3"
       inkscape:connector-curvature="0"
       id="path110"
       style="fill:none;stroke:#000000;stroke-width:0.75;stroke-linecap:round;stroke-linejoin:round;stroke-miterlimit:10;stroke-opacity:1;stroke-dasharray:none" /><path
       d="m 544.4,478.5 -73.5,0"
       inkscape:connector-curvature="0"
       id="path112"
       style="fill:none;stroke:#000000;stroke-width:0.75;stroke-linecap:round;stroke-linejoin:round;stroke-miterlimit:10;stroke-opacity:1;stroke-dasharray:none" /><g
       id="g114"><g
         clip-path="url(#clipPath118)"
         id="g116"><g
           id="g122"><g
             clip-path="url(#clipPath126)"
             id="g124"><text
   transform="matrix(1,0,0,-1,473.95,461.11)"
   id="text130"><tspan
     x="0 3.9960001 10.668 14.004 17.388 20.724001 27.455999 34.056 37.391998"
     y="0"
     id="tspan132"
     style="font-size:12px;font-variant:normal;font-weight:normal;writing-mode:lr-tb;fill:#000000;fill-opacity:1;fill-rule:nonzero;stroke:none;font-family:Helvetica;-inkscape-font-specification:Helvetica">ruft auf:</tspan></text>

</g></g><g
           id="g134"><g
             clip-path="url(#clipPath138)"
             id="g136" /></g><g
           id="g142"><g
             clip-path="url(#clipPath146)"
             id="g144"><text
   transform="matrix(1,0,0,-1,473.95,447.31)"
   id="text150"><tspan
     x="0 3.336 10.068 12.732 18.732 22.068001 28.775999 35.375999 42.084 46.080002 52.751999 56.088001 58.751999 65.363998 72.071999"
     y="0"
     id="tspan152"
     style="font-size:12px;font-variant:normal;font-weight:normal;writing-mode:lr-tb;fill:#000000;fill-opacity:1;fill-rule:nonzero;stroke:none;font-family:Helvetica;-inkscape-font-specification:Helvetica">this.operationB</tspan></text>

</g></g><g
           id="g154"><g
             clip-path="url(#clipPath158)"
             id="g156" /></g></g></g><g
       id="g162"><path
         d="m 612.5,455.2 -48.35,0.05"
         inkscape:connector-curvature="0"
         id="path164"
         style="fill:none;stroke:#000000;stroke-width:0.75;stroke-linecap:round;stroke-linejoin:round;stroke-miterlimit:10;stroke-opacity:1;stroke-dasharray:5.25, 3;stroke-dashoffset:0" /></g><path
       d="m 670.35,518.9 -7.85,-15 15.7,0 -7.85,15 z"
       inkscape:connector-curvature="0"
       id="path166"
       style="fill:#ffffff;fill-opacity:1;fill-rule:evenodd;stroke:none" /><path
       d="m 670.35,518.9 -7.85,-15 15.7,0 -7.85,15 z"
       inkscape:connector-curvature="0"
       id="path168"
       style="fill:none;stroke:#000000;stroke-width:0.75;stroke-linecap:round;stroke-linejoin:round;stroke-miterlimit:10;stroke-opacity:1;stroke-dasharray:none" /><g
       id="g170"><path
         d="m 670.35,485.95 0,17.95"
         inkscape:connector-curvature="0"
         id="path172"
         style="fill:none;stroke:#000000;stroke-width:0.75;stroke-linecap:round;stroke-linejoin:round;stroke-miterlimit:10;stroke-opacity:1;stroke-dasharray:2.25, 3;stroke-dashoffset:0" /></g><path
       d="m 611.2,441.2 118.3,0 0,44.75 -118.3,0 0,-44.75 z"
       inkscape:connector-curvature="0"
       id="path174"
       style="fill:#ffffff;fill-opacity:1;fill-rule:evenodd;stroke:none" /><path
       d="m 611.2,441.2 118.3,0 0,44.75 -118.3,0 0,-44.75 z"
       inkscape:connector-curvature="0"
       id="path176"
       style="fill:none;stroke:#000000;stroke-width:0.75;stroke-linecap:round;stroke-linejoin:miter;stroke-miterlimit:8;stroke-opacity:1;stroke-dasharray:none" /><g
       id="g178"><g
         clip-path="url(#clipPath182)"
         id="g180"><g
           id="g186"><g
             clip-path="url(#clipPath190)"
             id="g188"><text
   transform="matrix(1,0,0,-1,647.83,470.83)"
   id="text194"><tspan
     x="0 8.3999996 15.828 22.535999 29.868 33.816002 40.523998"
     y="0"
     id="tspan196"
     style="font-size:12px;font-variant:normal;font-weight:bold;writing-mode:lr-tb;fill:#000000;fill-opacity:1;fill-rule:nonzero;stroke:none;font-family:Helvetica;-inkscape-font-specification:Helvetica-Bold">Adapter</tspan></text>

</g></g><g
           id="g198"><g
             clip-path="url(#clipPath202)"
             id="g200" /></g><g
           id="g206"><g
             clip-path="url(#clipPath210)"
             id="g208" /></g><g
           id="g214"><g
             clip-path="url(#clipPath218)"
             id="g216"><text
   transform="matrix(1,0,0,-1,618.91,447.91)"
   id="text222"><tspan
     x="0 6.7080002 13.416 20.124001 24.120001 30.792 34.127998 36.683998 43.391998 50.099998 58.127998 62.124001"
     y="0"
     id="tspan224"
     style="font-size:12px;font-variant:normal;font-weight:normal;writing-mode:lr-tb;fill:#000000;fill-opacity:1;fill-rule:nonzero;stroke:none;font-family:Helvetica;-inkscape-font-specification:Helvetica">operationA()</tspan></text>

</g></g><g
           id="g226"><g
             clip-path="url(#clipPath230)"
             id="g228" /></g></g></g><path
       d="m 611.2,463.1 118.15,-0.05"
       inkscape:connector-curvature="0"
       id="path234"
       style="fill:none;stroke:#000000;stroke-width:0.75;stroke-linecap:round;stroke-linejoin:round;stroke-miterlimit:8;stroke-opacity:1;stroke-dasharray:none" /><path
       d="m 611.2,519.15 118.3,0 0,58.35 -118.3,0 0,-58.35 z"
       inkscape:connector-curvature="0"
       id="path236"
       style="fill:#ffffff;fill-opacity:1;fill-rule:evenodd;stroke:none" /><path
       d="m 611.2,519.15 118.3,0 0,58.35 -118.3,0 0,-58.35 z"
       inkscape:connector-curvature="0"
       id="path238"
       style="fill:none;stroke:#000000;stroke-width:0.75;stroke-linecap:round;stroke-linejoin:miter;stroke-miterlimit:8;stroke-opacity:1;stroke-dasharray:none" /><g
       id="g240"><g
         clip-path="url(#clipPath244)"
         id="g242"><g
           id="g248"><g
             clip-path="url(#clipPath252)"
             id="g250"><text
   transform="matrix(1,0,0,-1,630.91,563.11)"
   id="text256"><tspan
     x="0"
     y="0"
     id="tspan258"
     style="font-size:12px;font-variant:normal;font-weight:normal;writing-mode:lr-tb;fill:#000000;fill-opacity:1;fill-rule:nonzero;stroke:none;font-family:Courier New;-inkscape-font-specification:Courier New">«</tspan></text>

</g></g><g
           id="g260"><g
             clip-path="url(#clipPath264)"
             id="g262"><text
   transform="matrix(1,0,0,-1,638.11,563.11)"
   id="text268"><tspan
     x="0 7.1999998 14.4 21.6 28.799999 36 43.200001 50.400002 57.599998"
     y="0"
     id="tspan270"
     style="font-size:12px;font-variant:normal;font-weight:normal;writing-mode:lr-tb;fill:#000000;fill-opacity:1;fill-rule:nonzero;stroke:none;font-family:Courier New;-inkscape-font-specification:Courier New">interface</tspan></text>

</g></g><g
           id="g272"><g
             clip-path="url(#clipPath276)"
             id="g274"><text
   transform="matrix(1,0,0,-1,702.94,563.11)"
   id="text280"><tspan
     x="0"
     y="0"
     id="tspan282"
     style="font-size:12px;font-variant:normal;font-weight:normal;writing-mode:lr-tb;fill:#000000;fill-opacity:1;fill-rule:nonzero;stroke:none;font-family:Courier New;-inkscape-font-specification:Courier New">»</tspan></text>

</g></g><g
           id="g284"><g
             clip-path="url(#clipPath288)"
             id="g286" /></g><g
           id="g292"><g
             clip-path="url(#clipPath296)"
             id="g294"><text
   transform="matrix(1,0,0,-1,658.54,548.83)"
   id="text300"><tspan
     x="0"
     y="0"
     id="tspan302"
     style="font-size:12px;font-variant:normal;font-weight:bold;writing-mode:lr-tb;fill:#000000;fill-opacity:1;fill-rule:nonzero;stroke:none;font-family:Helvetica;-inkscape-font-specification:Helvetica-Bold">I</tspan></text>

</g></g><g
           id="g304"><g
             clip-path="url(#clipPath308)"
             id="g306"><text
   transform="matrix(1,0,0,-1,661.9,548.83)"
   id="text312"><tspan
     x="0 7.3319998 10.668 17.388"
     y="0"
     id="tspan314"
     style="font-size:12px;font-variant:normal;font-weight:bold;writing-mode:lr-tb;fill:#000000;fill-opacity:1;fill-rule:nonzero;stroke:none;font-family:Helvetica;-inkscape-font-specification:Helvetica-Bold">Ziel</tspan></text>

</g></g><g
           id="g316"><g
             clip-path="url(#clipPath320)"
             id="g318" /></g><g
           id="g324"><g
             clip-path="url(#clipPath328)"
             id="g326" /></g><g
           id="g332"><g
             clip-path="url(#clipPath336)"
             id="g334"><text
   transform="matrix(1,0,0,-1,618.91,525.79)"
   id="text340"><tspan
     x="0 6.7080002 13.416 20.124001 24.120001 30.792 34.127998 36.683998 43.391998 50.099998 58.127998 62.124001"
     y="0"
     id="tspan342"
     style="font-size:12px;font-variant:normal;font-weight:normal;writing-mode:lr-tb;fill:#000000;fill-opacity:1;fill-rule:nonzero;stroke:none;font-family:Helvetica;-inkscape-font-specification:Helvetica">operationA()</tspan></text>

</g></g><g
           id="g344"><g
             clip-path="url(#clipPath348)"
             id="g346" /></g></g></g><path
       d="m 611.2,540.75 118.3,0"
       inkscape:connector-curvature="0"
       id="path352"
       style="fill:none;stroke:#000000;stroke-width:0.75;stroke-linecap:round;stroke-linejoin:round;stroke-miterlimit:8;stroke-opacity:1;stroke-dasharray:none" /><path
       d="m 754.85,441.2 150.35,0 0,44.75 -150.35,0 0,-44.75 z"
       inkscape:connector-curvature="0"
       id="path354"
       style="fill:#ffffff;fill-opacity:1;fill-rule:evenodd;stroke:none" /><path
       d="m 754.85,441.2 150.35,0 0,44.75 -150.35,0 0,-44.75 z"
       inkscape:connector-curvature="0"
       id="path356"
       style="fill:none;stroke:#000000;stroke-width:0.75;stroke-linecap:round;stroke-linejoin:miter;stroke-miterlimit:8;stroke-opacity:1;stroke-dasharray:none" /><g
       id="g358"><g
         clip-path="url(#clipPath362)"
         id="g360"><g
           id="g366"><g
             clip-path="url(#clipPath370)"
             id="g368"><text
   transform="matrix(1,0,0,-1,765.22,470.83)"
   id="text374"><tspan
     x="0 7.3319998 14.748 23.148001 30.48 37.152 44.616001 48.612 51.948002 58.619999 63.324001 70.031998 77.363998 84.695999 91.367996 100.032 103.368 109.992 116.592 123.3"
     y="0"
     id="tspan376"
     style="font-size:12px;font-variant:normal;font-weight:bold;writing-mode:lr-tb;fill:#000000;fill-opacity:1;fill-rule:nonzero;stroke:none;font-family:Helvetica;-inkscape-font-specification:Helvetica-Bold">ZuAdaptierendeKlasse</tspan></text>

</g></g><g
           id="g378"><g
             clip-path="url(#clipPath382)"
             id="g380" /></g><g
           id="g386"><g
             clip-path="url(#clipPath390)"
             id="g388" /></g><g
           id="g394"><g
             clip-path="url(#clipPath398)"
             id="g396"><text
   transform="matrix(1,0,0,-1,762.58,447.91)"
   id="text402"><tspan
     x="0 6.7080002 13.416 20.124001 24.120001 30.792 34.127998 36.683998 43.391998 50.099998"
     y="0"
     id="tspan404"
     style="font-size:12px;font-variant:normal;font-weight:normal;writing-mode:lr-tb;fill:#000000;fill-opacity:1;fill-rule:nonzero;stroke:none;font-family:Helvetica;-inkscape-font-specification:Helvetica">operationB</tspan></text>

</g></g><g
           id="g406"><g
             clip-path="url(#clipPath410)"
             id="g408"><text
   transform="matrix(1,0,0,-1,820.78,447.91)"
   id="text414"><tspan
     x="0 3.96"
     y="0"
     id="tspan416"
     style="font-size:12px;font-variant:normal;font-weight:normal;writing-mode:lr-tb;fill:#000000;fill-opacity:1;fill-rule:nonzero;stroke:none;font-family:Helvetica;-inkscape-font-specification:Helvetica">()</tspan></text>

</g></g><g
           id="g418"><g
             clip-path="url(#clipPath422)"
             id="g420" /></g></g></g><path
       d="M 754.85,463.1 905,463.05"
       inkscape:connector-curvature="0"
       id="path426"
       style="fill:none;stroke:#000000;stroke-width:0.75;stroke-linecap:round;stroke-linejoin:round;stroke-miterlimit:8;stroke-opacity:1;stroke-dasharray:none" /></g></svg>