<?xml version="1.0" encoding="UTF-8" standalone="no"?>
<!-- Created with Inkscape (http://www.inkscape.org/) -->

<svg
   xmlns:dc="http://purl.org/dc/elements/1.1/"
   xmlns:cc="http://creativecommons.org/ns#"
   xmlns:rdf="http://www.w3.org/1999/02/22-rdf-syntax-ns#"
   xmlns:svg="http://www.w3.org/2000/svg"
   xmlns="http://www.w3.org/2000/svg"
   xmlns:sodipodi="http://sodipodi.sourceforge.net/DTD/sodipodi-0.dtd"
   xmlns:inkscape="http://www.inkscape.org/namespaces/inkscape"
   version="1.1"
   width="545.25"
   height="171.5625"
   id="svg2"
   xml:space="preserve"
   inkscape:version="0.48.4 r9939"
   sodipodi:docname="Kapitelbild.svg"><sodipodi:namedview
     pagecolor="#ffffff"
     bordercolor="#666666"
     borderopacity="1"
     objecttolerance="10"
     gridtolerance="10"
     guidetolerance="10"
     inkscape:pageopacity="0"
     inkscape:pageshadow="2"
     inkscape:window-width="640"
     inkscape:window-height="480"
     id="namedview219"
     showgrid="false"
     inkscape:zoom="0.18730159"
     inkscape:cx="43.59375"
     inkscape:cy="79.21875"
     inkscape:window-x="0"
     inkscape:window-y="0"
     inkscape:window-maximized="0"
     inkscape:current-layer="svg2" /><metadata
     id="metadata8"><rdf:RDF><cc:Work
         rdf:about=""><dc:format>image/svg+xml</dc:format><dc:type
           rdf:resource="http://purl.org/dc/dcmitype/StillImage" /></cc:Work></rdf:RDF></metadata><defs
     id="defs6"><clipPath
       id="clipPath22"><path
         d="m 479.36,545.11 56.52,0 0,19.68 -56.52,0 0,-19.68 z"
         inkscape:connector-curvature="0"
         id="path24" /></clipPath><clipPath
       id="clipPath30"><path
         d="m 479.35,545.11 56.52,0 0,19.68 -56.52,0 0,-19.68 z"
         inkscape:connector-curvature="0"
         id="path32" /></clipPath><clipPath
       id="clipPath42"><path
         d="m 479.35,545.11 56.52,0 0,19.68 -56.52,0 0,-19.68 z"
         inkscape:connector-curvature="0"
         id="path44" /></clipPath><clipPath
       id="clipPath50"><path
         d="m 612.56,523.51 103.7,0 0,17.88 -103.7,0 0,-17.88 z"
         inkscape:connector-curvature="0"
         id="path52" /></clipPath><clipPath
       id="clipPath58"><path
         d="m 612.55,523.51 103.7,0 0,17.88 -103.7,0 0,-17.88 z"
         inkscape:connector-curvature="0"
         id="path60" /></clipPath><clipPath
       id="clipPath70"><path
         d="m 612.55,523.51 103.7,0 0,17.88 -103.7,0 0,-17.88 z"
         inkscape:connector-curvature="0"
         id="path72" /></clipPath><clipPath
       id="clipPath82"><path
         d="m 612.55,523.51 103.7,0 0,17.88 -103.7,0 0,-17.88 z"
         inkscape:connector-curvature="0"
         id="path84" /></clipPath><clipPath
       id="clipPath94"><path
         d="m 612.56,559.51 100.7,0 0,15.72 -100.7,0 0,-15.72 z"
         inkscape:connector-curvature="0"
         id="path96" /></clipPath><clipPath
       id="clipPath102"><path
         d="m 612.55,559.51 100.7,0 0,15.72 -100.7,0 0,-15.72 z"
         inkscape:connector-curvature="0"
         id="path104" /></clipPath><clipPath
       id="clipPath114"><path
         d="m 612.55,559.51 100.7,0 0,15.72 -100.7,0 0,-15.72 z"
         inkscape:connector-curvature="0"
         id="path116" /></clipPath><clipPath
       id="clipPath126"><path
         d="m 612.55,559.51 100.7,0 0,15.72 -100.7,0 0,-15.72 z"
         inkscape:connector-curvature="0"
         id="path128" /></clipPath><clipPath
       id="clipPath138"><path
         d="m 612.55,559.51 100.7,0 0,15.72 -100.7,0 0,-15.72 z"
         inkscape:connector-curvature="0"
         id="path140" /></clipPath><clipPath
       id="clipPath146"><path
         d="m 612.56,545.23 102.26,0 0,15 -102.26,0 0,-15 z"
         inkscape:connector-curvature="0"
         id="path148" /></clipPath><clipPath
       id="clipPath154"><path
         d="m 612.55,545.23 102.26,0 0,15 -102.26,0 0,-15 z"
         inkscape:connector-curvature="0"
         id="path156" /></clipPath><clipPath
       id="clipPath166"><path
         d="m 612.55,545.23 102.26,0 0,15 -102.26,0 0,-15 z"
         inkscape:connector-curvature="0"
         id="path168" /></clipPath><clipPath
       id="clipPath178"><path
         d="m 612.55,545.23 102.26,0 0,15 -102.26,0 0,-15 z"
         inkscape:connector-curvature="0"
         id="path180" /></clipPath><clipPath
       id="clipPath188"><path
         d="m 612.56,440.95 103.7,0 0,17.28 -103.7,0 0,-17.28 z"
         inkscape:connector-curvature="0"
         id="path190" /></clipPath><clipPath
       id="clipPath196"><path
         d="m 612.55,440.95 103.7,0 0,17.28 -103.7,0 0,-17.28 z"
         inkscape:connector-curvature="0"
         id="path198" /></clipPath><clipPath
       id="clipPath208"><path
         d="m 612.55,440.95 103.7,0 0,17.28 -103.7,0 0,-17.28 z"
         inkscape:connector-curvature="0"
         id="path210" /></clipPath><clipPath
       id="clipPath220"><path
         d="m 612.55,440.95 103.7,0 0,17.28 -103.7,0 0,-17.28 z"
         inkscape:connector-curvature="0"
         id="path222" /></clipPath><clipPath
       id="clipPath232"><path
         d="m 612.56,458.23 102.26,0 0,13.44 -102.26,0 0,-13.44 z"
         inkscape:connector-curvature="0"
         id="path234" /></clipPath><clipPath
       id="clipPath240"><path
         d="m 612.55,458.23 102.26,0 0,13.44 -102.26,0 0,-13.44 z"
         inkscape:connector-curvature="0"
         id="path242" /></clipPath><clipPath
       id="clipPath252"><path
         d="m 612.55,458.23 102.26,0 0,13.44 -102.26,0 0,-13.44 z"
         inkscape:connector-curvature="0"
         id="path254" /></clipPath><clipPath
       id="clipPath260"><path
         d="m 770.85,442.51 102.27,0 0,17.88 -102.27,0 0,-17.88 z"
         inkscape:connector-curvature="0"
         id="path262" /></clipPath><clipPath
       id="clipPath268"><path
         d="m 770.86,442.51 102.26,0 0,17.88 -102.26,0 0,-17.88 z"
         inkscape:connector-curvature="0"
         id="path270" /></clipPath><clipPath
       id="clipPath280"><path
         d="m 770.86,442.51 102.26,0 0,17.88 -102.26,0 0,-17.88 z"
         inkscape:connector-curvature="0"
         id="path282" /></clipPath><clipPath
       id="clipPath292"><path
         d="m 770.86,442.51 102.26,0 0,17.88 -102.26,0 0,-17.88 z"
         inkscape:connector-curvature="0"
         id="path294" /></clipPath><clipPath
       id="clipPath304"><path
         d="m 768.57,458.95 136.71,0 0,18 -136.71,0 0,-18 z"
         inkscape:connector-curvature="0"
         id="path306" /></clipPath><clipPath
       id="clipPath312"><path
         d="m 768.58,458.95 136.7,0 0,18 -136.7,0 0,-18 z"
         inkscape:connector-curvature="0"
         id="path314" /></clipPath><clipPath
       id="clipPath324"><path
         d="m 768.58,458.95 136.7,0 0,18 -136.7,0 0,-18 z"
         inkscape:connector-curvature="0"
         id="path326" /></clipPath><clipPath
       id="clipPath336"><path
         d="m 768.58,458.95 136.7,0 0,18 -136.7,0 0,-18 z"
         inkscape:connector-curvature="0"
         id="path338" /></clipPath><clipPath
       id="clipPath348"><path
         d="m 768.58,458.95 136.7,0 0,18 -136.7,0 0,-18 z"
         inkscape:connector-curvature="0"
         id="path350" /></clipPath><clipPath
       id="clipPath360"><path
         d="m 768.58,458.95 136.7,0 0,18 -136.7,0 0,-18 z"
         inkscape:connector-curvature="0"
         id="path362" /></clipPath><clipPath
       id="clipPath372"><path
         d="m 768.58,458.95 136.7,0 0,18 -136.7,0 0,-18 z"
         inkscape:connector-curvature="0"
         id="path374" /></clipPath><clipPath
       id="clipPath394"><path
         d="m 546.08,552.55 63,0 0,22.8 -63,0 0,-22.8 z"
         inkscape:connector-curvature="0"
         id="path396" /></clipPath><clipPath
       id="clipPath402"><path
         d="m 546.07,552.55 63,0 0,22.8 -63,0 0,-22.8 z"
         inkscape:connector-curvature="0"
         id="path404" /></clipPath><clipPath
       id="clipPath414"><path
         d="m 546.07,552.55 63,0 0,22.8 -63,0 0,-22.8 z"
         inkscape:connector-curvature="0"
         id="path416" /></clipPath><clipPath
       id="clipPath426"><path
         d="m 546.07,552.55 63,0 0,22.8 -63,0 0,-22.8 z"
         inkscape:connector-curvature="0"
         id="path428" /></clipPath><clipPath
       id="clipPath434"><path
         d="m 546.07,552.55 63,0 0,22.8 -63,0 0,-22.8 z"
         inkscape:connector-curvature="0"
         id="path436" /></clipPath></defs><g
     transform="matrix(1.25,0,0,-1.25,-586.78125,722.34375)"
     id="g10"><path
       d="m 469.8,532.5 75.45,0 0,45 -75.45,0 0,-45 z"
       inkscape:connector-curvature="0"
       id="path12"
       style="fill:#ffffff;fill-opacity:1;fill-rule:evenodd;stroke:none" /><path
       d="m 469.8,532.5 75.45,0 0,45 -75.45,0 0,-45 z"
       inkscape:connector-curvature="0"
       id="path14"
       style="fill:none;stroke:#000000;stroke-width:0.75;stroke-linecap:round;stroke-linejoin:miter;stroke-miterlimit:10;stroke-opacity:1;stroke-dasharray:none" /><path
       d="m 479.25,541.5 56.55,0 0,27 -56.55,0 0,-27 z"
       inkscape:connector-curvature="0"
       id="path16"
       style="fill:#ffffff;fill-opacity:1;fill-rule:evenodd;stroke:none" /><g
       id="g18"><g
         clip-path="url(#clipPath22)"
         id="g20"><g
           id="g26"><g
             clip-path="url(#clipPath30)"
             id="g28"><text
   transform="matrix(1,0,0,-1,486.55,553.27)"
   id="text34"><tspan
     x="0 8.6639996 12 15.336 22.068001 29.4"
     y="0"
     id="tspan36"
     style="font-size:12px;font-variant:normal;font-weight:bold;writing-mode:lr-tb;fill:#000000;fill-opacity:1;fill-rule:nonzero;stroke:none;font-family:Helvetica;-inkscape-font-specification:Helvetica-Bold">Client</tspan></text>

</g></g><g
           id="g38"><g
             clip-path="url(#clipPath42)"
             id="g40" /></g></g></g><g
       id="g46"><g
         clip-path="url(#clipPath50)"
         id="g48"><g
           id="g54"><g
             clip-path="url(#clipPath58)"
             id="g56"><text
   transform="matrix(1,0,0,-1,618.19,530.23)"
   id="text62"><tspan
     x="0"
     y="0"
     id="tspan64"
     style="font-size:12px;font-variant:normal;font-weight:normal;writing-mode:lr-tb;fill:#000000;fill-opacity:1;fill-rule:nonzero;stroke:none;font-family:Helvetica;-inkscape-font-specification:Helvetica">o</tspan></text>

</g></g><g
           id="g66"><g
             clip-path="url(#clipPath70)"
             id="g68"><text
   transform="matrix(1,0,0,-1,624.91,530.23)"
   id="text74"><tspan
     x="0 6.7080002 13.416 17.412001 24.084 27.42 29.976 36.683998 43.391998 51.419998 55.416"
     y="0"
     id="tspan76"
     style="font-size:12px;font-variant:normal;font-weight:normal;writing-mode:lr-tb;fill:#000000;fill-opacity:1;fill-rule:nonzero;stroke:none;font-family:Helvetica;-inkscape-font-specification:Helvetica">perationA()</tspan></text>

</g></g><g
           id="g78"><g
             clip-path="url(#clipPath82)"
             id="g80" /></g></g></g><path
       d="m 612.5,523.5 103.75,0 0,54 -103.75,0 0,-54 z"
       inkscape:connector-curvature="0"
       id="path86"
       style="fill:none;stroke:#000000;stroke-width:0.75;stroke-linecap:round;stroke-linejoin:miter;stroke-miterlimit:10;stroke-opacity:1;stroke-dasharray:none" /><path
       d="m 612.5,541.5 103.75,-0.05"
       inkscape:connector-curvature="0"
       id="path88"
       style="fill:none;stroke:#000000;stroke-width:0.75;stroke-linecap:round;stroke-linejoin:round;stroke-miterlimit:10;stroke-opacity:1;stroke-dasharray:none" /><g
       id="g90"><g
         clip-path="url(#clipPath94)"
         id="g92"><g
           id="g98"><g
             clip-path="url(#clipPath102)"
             id="g100"><text
   transform="matrix(1,0,0,-1,623.35,565.75)"
   id="text106"><tspan
     x="0"
     y="0"
     id="tspan108"
     style="font-size:12px;font-variant:normal;font-weight:normal;writing-mode:lr-tb;fill:#000000;fill-opacity:1;fill-rule:nonzero;stroke:none;font-family:Courier New;-inkscape-font-specification:Courier New">«</tspan></text>

</g></g><g
           id="g110"><g
             clip-path="url(#clipPath114)"
             id="g112"><text
   transform="matrix(1,0,0,-1,630.55,565.75)"
   id="text118"><tspan
     x="0 7.1999998 14.4 21.6 28.799999 36 43.200001 50.400002 57.599998"
     y="0"
     id="tspan120"
     style="font-size:12px;font-variant:normal;font-weight:normal;writing-mode:lr-tb;fill:#000000;fill-opacity:1;fill-rule:nonzero;stroke:none;font-family:Courier New;-inkscape-font-specification:Courier New">interface</tspan></text>

</g></g><g
           id="g122"><g
             clip-path="url(#clipPath126)"
             id="g124"><text
   transform="matrix(1,0,0,-1,695.38,565.75)"
   id="text130"><tspan
     x="0"
     y="0"
     id="tspan132"
     style="font-size:12px;font-variant:normal;font-weight:normal;writing-mode:lr-tb;fill:#000000;fill-opacity:1;fill-rule:nonzero;stroke:none;font-family:Courier New;-inkscape-font-specification:Courier New">»</tspan></text>

</g></g><g
           id="g134"><g
             clip-path="url(#clipPath138)"
             id="g136" /></g></g></g><g
       id="g142"><g
         clip-path="url(#clipPath146)"
         id="g144"><g
           id="g150"><g
             clip-path="url(#clipPath154)"
             id="g152"><text
   transform="matrix(1,0,0,-1,651.67,548.83)"
   id="text158"><tspan
     x="0"
     y="0"
     id="tspan160"
     style="font-size:12px;font-variant:normal;font-weight:bold;writing-mode:lr-tb;fill:#000000;fill-opacity:1;fill-rule:nonzero;stroke:none;font-family:Helvetica;-inkscape-font-specification:Helvetica-Bold">I</tspan></text>

</g></g><g
           id="g162"><g
             clip-path="url(#clipPath166)"
             id="g164"><text
   transform="matrix(1,0,0,-1,655.06,548.83)"
   id="text170"><tspan
     x="0 7.3319998 10.668 17.388"
     y="0"
     id="tspan172"
     style="font-size:12px;font-variant:normal;font-weight:bold;writing-mode:lr-tb;fill:#000000;fill-opacity:1;fill-rule:nonzero;stroke:none;font-family:Helvetica;-inkscape-font-specification:Helvetica-Bold">Ziel</tspan></text>

</g></g><g
           id="g174"><g
             clip-path="url(#clipPath178)"
             id="g176" /></g></g></g><path
       d="m 545.54,560 3,0.03 c 0.28,0.01 0.51,-0.21 0.51,-0.49 0,-0.28 -0.22,-0.5 -0.49,-0.51 l -3,-0.03 c -0.28,0 -0.51,0.22 -0.51,0.49 0,0.28 0.22,0.51 0.49,0.51 z m 7,0.08 3,0.03 c 0.28,0.01 0.51,-0.22 0.51,-0.49 0,-0.28 -0.22,-0.5 -0.5,-0.51 l -3,-0.03 c -0.27,0 -0.5,0.22 -0.5,0.49 0,0.28 0.22,0.51 0.49,0.51 z m 7,0.08 3,0.03 c 0.28,0 0.51,-0.22 0.51,-0.49 0,-0.28 -0.22,-0.51 -0.5,-0.51 l -3,-0.03 c -0.27,-0.01 -0.5,0.22 -0.5,0.49 0,0.28 0.22,0.5 0.49,0.51 z m 7,0.08 3,0.03 c 0.28,0 0.51,-0.22 0.51,-0.5 0,-0.27 -0.22,-0.5 -0.5,-0.5 l -3,-0.03 c -0.27,-0.01 -0.5,0.21 -0.5,0.49 0,0.28 0.22,0.5 0.49,0.51 z m 7,0.07 3,0.04 c 0.28,0 0.5,-0.22 0.51,-0.5 0,-0.27 -0.22,-0.5 -0.5,-0.5 l -3,-0.04 c -0.27,0 -0.5,0.22 -0.5,0.5 -0.01,0.27 0.22,0.5 0.49,0.5 z m 7,0.08 3,0.04 c 0.28,0 0.5,-0.22 0.51,-0.5 0,-0.27 -0.22,-0.5 -0.5,-0.5 l -3,-0.04 c -0.27,0 -0.5,0.22 -0.5,0.5 -0.01,0.27 0.22,0.5 0.49,0.5 z m 7,0.08 3,0.03 c 0.28,0.01 0.5,-0.21 0.51,-0.49 0,-0.28 -0.22,-0.5 -0.5,-0.51 l -3,-0.03 c -0.27,0 -0.5,0.22 -0.5,0.49 -0.01,0.28 0.22,0.51 0.49,0.51 z m 7,0.08 3,0.03 c 0.28,0.01 0.5,-0.22 0.51,-0.49 0,-0.28 -0.22,-0.5 -0.5,-0.51 l -3,-0.03 c -0.27,0 -0.5,0.22 -0.5,0.49 -0.01,0.28 0.21,0.51 0.49,0.51 z m 7,0.08 3,0.03 c 0.28,0 0.5,-0.22 0.51,-0.49 0,-0.28 -0.22,-0.51 -0.5,-0.51 l -3,-0.03 c -0.27,-0.01 -0.5,0.22 -0.5,0.49 -0.01,0.28 0.21,0.5 0.49,0.51 z m 7,0.08 1.95,0.02 c 0.28,0 0.51,-0.22 0.51,-0.5 0,-0.27 -0.22,-0.5 -0.49,-0.5 l -1.96,-0.02 c -0.27,-0.01 -0.5,0.21 -0.5,0.49 -0.01,0.28 0.21,0.5 0.49,0.51 z m -3.78,4.84 6.52,-5.31 -6.4,-5.46 c -0.21,-0.18 -0.53,-0.15 -0.7,0.06 -0.18,0.21 -0.16,0.52 0.05,0.7 l 5.95,5.07 0,-0.77 -6.05,4.93 c -0.22,0.18 -0.25,0.49 -0.07,0.71 0.17,0.21 0.49,0.24 0.7,0.07 z"
       inkscape:connector-curvature="0"
       id="path182"
       style="fill:#000000;fill-opacity:1;fill-rule:nonzero;stroke:none" /><g
       id="g184"><g
         clip-path="url(#clipPath188)"
         id="g186"><g
           id="g192"><g
             clip-path="url(#clipPath196)"
             id="g194"><text
   transform="matrix(1,0,0,-1,618.19,447.19)"
   id="text200"><tspan
     x="0"
     y="0"
     id="tspan202"
     style="font-size:12px;font-variant:normal;font-weight:normal;writing-mode:lr-tb;fill:#000000;fill-opacity:1;fill-rule:nonzero;stroke:none;font-family:Helvetica;-inkscape-font-specification:Helvetica">o</tspan></text>

</g></g><g
           id="g204"><g
             clip-path="url(#clipPath208)"
             id="g206"><text
   transform="matrix(1,0,0,-1,624.91,447.19)"
   id="text212"><tspan
     x="0 6.7080002 13.416 17.412001 24.084 27.42 29.976 36.683998 43.391998 51.419998 55.416"
     y="0"
     id="tspan214"
     style="font-size:12px;font-variant:normal;font-weight:normal;writing-mode:lr-tb;fill:#000000;fill-opacity:1;fill-rule:nonzero;stroke:none;font-family:Helvetica;-inkscape-font-specification:Helvetica">perationA()</tspan></text>

</g></g><g
           id="g216"><g
             clip-path="url(#clipPath220)"
             id="g218" /></g></g></g><path
       d="m 612.5,441 103.75,0 0,34.5 -103.75,0 0,-34.5 z"
       inkscape:connector-curvature="0"
       id="path224"
       style="fill:none;stroke:#000000;stroke-width:0.75;stroke-linecap:round;stroke-linejoin:miter;stroke-miterlimit:8;stroke-opacity:1;stroke-dasharray:none" /><path
       d="M 612.5,458.25 716.25,458.2"
       inkscape:connector-curvature="0"
       id="path226"
       style="fill:none;stroke:#000000;stroke-width:0.75;stroke-linecap:round;stroke-linejoin:round;stroke-miterlimit:8;stroke-opacity:1;stroke-dasharray:none" /><g
       id="g228"><g
         clip-path="url(#clipPath232)"
         id="g230"><g
           id="g236"><g
             clip-path="url(#clipPath240)"
             id="g238"><text
   transform="matrix(1,0,0,-1,640.99,460.63)"
   id="text244"><tspan
     x="0 8.3999996 15.828 22.535999 29.868 33.816002 40.523998"
     y="0"
     id="tspan246"
     style="font-size:12px;font-variant:normal;font-weight:bold;writing-mode:lr-tb;fill:#000000;fill-opacity:1;fill-rule:nonzero;stroke:none;font-family:Helvetica;-inkscape-font-specification:Helvetica-Bold">Adapter</tspan></text>

</g></g><g
           id="g248"><g
             clip-path="url(#clipPath252)"
             id="g250" /></g></g></g><g
       id="g256"><g
         clip-path="url(#clipPath260)"
         id="g258"><g
           id="g264"><g
             clip-path="url(#clipPath268)"
             id="g266"><text
   transform="matrix(1,0,0,-1,776.5,449.23)"
   id="text272"><tspan
     x="0"
     y="0"
     id="tspan274"
     style="font-size:12px;font-variant:normal;font-weight:normal;writing-mode:lr-tb;fill:#000000;fill-opacity:1;fill-rule:nonzero;stroke:none;font-family:Helvetica;-inkscape-font-specification:Helvetica">o</tspan></text>

</g></g><g
           id="g276"><g
             clip-path="url(#clipPath280)"
             id="g278"><text
   transform="matrix(1,0,0,-1,783.22,449.23)"
   id="text284"><tspan
     x="0 6.7080002 13.416 17.412001 24.084 27.42 29.976 36.683998 43.391998 51.419998 55.416"
     y="0"
     id="tspan286"
     style="font-size:12px;font-variant:normal;font-weight:normal;writing-mode:lr-tb;fill:#000000;fill-opacity:1;fill-rule:nonzero;stroke:none;font-family:Helvetica;-inkscape-font-specification:Helvetica">perationB()</tspan></text>

</g></g><g
           id="g288"><g
             clip-path="url(#clipPath292)"
             id="g290" /></g></g></g><path
       d="m 770.75,442.5 134.5,0 0,36 -134.5,0 0,-36 z"
       inkscape:connector-curvature="0"
       id="path296"
       style="fill:none;stroke:#000000;stroke-width:0.75;stroke-linecap:round;stroke-linejoin:miter;stroke-miterlimit:8;stroke-opacity:1;stroke-dasharray:none" /><path
       d="m 770.75,460.5 134.5,-0.05"
       inkscape:connector-curvature="0"
       id="path298"
       style="fill:none;stroke:#000000;stroke-width:0.75;stroke-linecap:round;stroke-linejoin:round;stroke-miterlimit:8;stroke-opacity:1;stroke-dasharray:none" /><g
       id="g300"><g
         clip-path="url(#clipPath304)"
         id="g302"><g
           id="g308"><g
             clip-path="url(#clipPath312)"
             id="g310"><text
   transform="matrix(1,0,0,-1,774.58,465.91)"
   id="text316"><tspan
     x="0"
     y="0"
     id="tspan318"
     style="font-size:12px;font-variant:normal;font-weight:normal;writing-mode:lr-tb;fill:#000000;fill-opacity:1;fill-rule:nonzero;stroke:none;font-family:Helvetica;-inkscape-font-specification:Helvetica">:</tspan></text>

</g></g><g
           id="g320"><g
             clip-path="url(#clipPath324)"
             id="g322"><text
   transform="matrix(1,0,0,-1,777.94,465.91)"
   id="text328"><tspan
     x="0 7.3319998 14.004 22.068001 28.667999 35.375999 42.084 45.419998 48.084 54.792"
     y="0"
     id="tspan330"
     style="font-size:12px;font-variant:normal;font-weight:normal;writing-mode:lr-tb;fill:#000000;fill-opacity:1;fill-rule:nonzero;stroke:none;font-family:Helvetica;-inkscape-font-specification:Helvetica">ZuAdaptier</tspan></text>

</g></g><g
           id="g332"><g
             clip-path="url(#clipPath336)"
             id="g334"><text
   transform="matrix(1,0,0,-1,836.74,465.91)"
   id="text340"><tspan
     x="0"
     y="0"
     id="tspan342"
     style="font-size:12px;font-variant:normal;font-weight:normal;writing-mode:lr-tb;fill:#000000;fill-opacity:1;fill-rule:nonzero;stroke:none;font-family:Helvetica;-inkscape-font-specification:Helvetica">e</tspan></text>

</g></g><g
           id="g344"><g
             clip-path="url(#clipPath348)"
             id="g346"><text
   transform="matrix(1,0,0,-1,843.36,465.91)"
   id="text352"><tspan
     x="0 6.7080002 13.308"
     y="0"
     id="tspan354"
     style="font-size:12px;font-variant:normal;font-weight:normal;writing-mode:lr-tb;fill:#000000;fill-opacity:1;fill-rule:nonzero;stroke:none;font-family:Helvetica;-inkscape-font-specification:Helvetica">nde</tspan></text>

</g></g><g
           id="g356"><g
             clip-path="url(#clipPath360)"
             id="g358"><text
   transform="matrix(1,0,0,-1,863.4,465.91)"
   id="text364"><tspan
     x="0 8.0279999 10.692 17.364 23.364 29.268"
     y="0"
     id="tspan366"
     style="font-size:12px;font-variant:normal;font-weight:normal;writing-mode:lr-tb;fill:#000000;fill-opacity:1;fill-rule:nonzero;stroke:none;font-family:Helvetica;-inkscape-font-specification:Helvetica">Klasse</tspan></text>

</g></g><g
           id="g368"><g
             clip-path="url(#clipPath372)"
             id="g370" /></g></g></g><path
       d="m 725.57,466.5 -8.67,-6.75 8.67,-6.75 8.68,6.75 -8.68,6.75 z"
       inkscape:connector-curvature="0"
       id="path376"
       style="fill:#ffffff;fill-opacity:1;fill-rule:evenodd;stroke:none" /><path
       d="m 725.57,466.5 -8.67,-6.75 8.67,-6.75 8.68,6.75 -8.68,6.75 z"
       inkscape:connector-curvature="0"
       id="path378"
       style="fill:none;stroke:#000000;stroke-width:0.75;stroke-linecap:round;stroke-linejoin:round;stroke-miterlimit:8;stroke-opacity:1;stroke-dasharray:none" /><path
       d="m 733.25,459.75 38.5,-0.05"
       inkscape:connector-curvature="0"
       id="path380"
       style="fill:none;stroke:#000000;stroke-width:0.75;stroke-linecap:round;stroke-linejoin:round;stroke-miterlimit:8;stroke-opacity:1;stroke-dasharray:none" /><path
       d="m 666.32,523.5 -9.42,-18 18.85,0 -9.43,18 z"
       inkscape:connector-curvature="0"
       id="path382"
       style="fill:#ffffff;fill-opacity:1;fill-rule:evenodd;stroke:none" /><path
       d="m 666.32,523.5 -9.42,-18 18.85,0 -9.43,18 z"
       inkscape:connector-curvature="0"
       id="path384"
       style="fill:none;stroke:#000000;stroke-width:0.75;stroke-linecap:round;stroke-linejoin:round;stroke-miterlimit:8;stroke-opacity:1;stroke-dasharray:none" /><g
       id="g386"><path
         d="m 666.35,478.5 0.05,27"
         inkscape:connector-curvature="0"
         id="path388"
         style="fill:none;stroke:#000000;stroke-width:0.75;stroke-linecap:round;stroke-linejoin:round;stroke-miterlimit:8;stroke-opacity:1;stroke-dasharray:2.25, 3;stroke-dashoffset:0" /></g><g
       id="g390"><g
         clip-path="url(#clipPath394)"
         id="g392"><g
           id="g398"><g
             clip-path="url(#clipPath402)"
             id="g400"><text
   transform="matrix(1,0,0,-1,553.27,565.03)"
   id="text406"><tspan
     x="0"
     y="0"
     id="tspan408"
     style="font-size:12px;font-variant:normal;font-weight:normal;writing-mode:lr-tb;fill:#000000;fill-opacity:1;fill-rule:nonzero;stroke:none;font-family:Courier New;-inkscape-font-specification:Courier New">«</tspan></text>

</g></g><g
           id="g410"><g
             clip-path="url(#clipPath414)"
             id="g412"><text
   transform="matrix(1,0,0,-1,560.47,565.03)"
   id="text418"><tspan
     x="0 7.1999998 14.4 21.6"
     y="0"
     id="tspan420"
     style="font-size:12px;font-variant:normal;font-weight:normal;writing-mode:lr-tb;fill:#000000;fill-opacity:1;fill-rule:nonzero;stroke:none;font-family:Courier New;-inkscape-font-specification:Courier New">use»</tspan></text>

</g></g><g
           id="g422"><g
             clip-path="url(#clipPath426)"
             id="g424" /></g><g
           id="g430"><g
             clip-path="url(#clipPath434)"
             id="g432" /></g></g></g></g></svg>