<?xml version="1.0" encoding="UTF-8" standalone="no"?>
<!-- Created with Inkscape (http://www.inkscape.org/) -->

<svg
   xmlns:dc="http://purl.org/dc/elements/1.1/"
   xmlns:cc="http://creativecommons.org/ns#"
   xmlns:rdf="http://www.w3.org/1999/02/22-rdf-syntax-ns#"
   xmlns:svg="http://www.w3.org/2000/svg"
   xmlns="http://www.w3.org/2000/svg"
   xmlns:sodipodi="http://sodipodi.sourceforge.net/DTD/sodipodi-0.dtd"
   xmlns:inkscape="http://www.inkscape.org/namespaces/inkscape"
   version="1.1"
   width="420.625"
   height="285.25"
   id="svg2"
   xml:space="preserve"
   inkscape:version="0.48.4 r9939"
   sodipodi:docname="Bild 5-36 Kompontentendiagramm SOA-Beispielimplementierung.svg"><sodipodi:namedview
     pagecolor="#ffffff"
     bordercolor="#666666"
     borderopacity="1"
     objecttolerance="10"
     gridtolerance="10"
     guidetolerance="10"
     inkscape:pageopacity="0"
     inkscape:pageshadow="2"
     inkscape:window-width="640"
     inkscape:window-height="480"
     id="namedview294"
     showgrid="false"
     inkscape:zoom="0.18730159"
     inkscape:cx="142.40625"
     inkscape:cy="66.28125"
     inkscape:window-x="0"
     inkscape:window-y="0"
     inkscape:window-maximized="0"
     inkscape:current-layer="svg2" /><metadata
     id="metadata8"><rdf:RDF><cc:Work
         rdf:about=""><dc:format>image/svg+xml</dc:format><dc:type
           rdf:resource="http://purl.org/dc/dcmitype/StillImage" /></cc:Work></rdf:RDF></metadata><defs
     id="defs6"><clipPath
       id="clipPath44"><path
         d="m 448.01,533.95 72.99,0 0,18.6 -72.99,0 0,-18.6 z"
         inkscape:connector-curvature="0"
         id="path46" /></clipPath><clipPath
       id="clipPath52"><path
         d="m 448.01,533.95 72.984,0 0,18.6 -72.984,0 0,-18.6 z"
         inkscape:connector-curvature="0"
         id="path54" /></clipPath><clipPath
       id="clipPath64"><path
         d="m 448.01,533.95 72.984,0 0,18.6 -72.984,0 0,-18.6 z"
         inkscape:connector-curvature="0"
         id="path66" /></clipPath><clipPath
       id="clipPath76"><path
         d="m 448.01,533.95 72.984,0 0,18.6 -72.984,0 0,-18.6 z"
         inkscape:connector-curvature="0"
         id="path78" /></clipPath><clipPath
       id="clipPath84"><path
         d="m 534.8,531.91 84.72,0 0,20.64 -84.72,0 0,-20.64 z"
         inkscape:connector-curvature="0"
         id="path86" /></clipPath><clipPath
       id="clipPath92"><path
         d="m 534.79,531.91 84.72,0 0,20.64 -84.72,0 0,-20.64 z"
         inkscape:connector-curvature="0"
         id="path94" /></clipPath><clipPath
       id="clipPath104"><path
         d="m 534.79,531.91 84.72,0 0,20.64 -84.72,0 0,-20.64 z"
         inkscape:connector-curvature="0"
         id="path106" /></clipPath><clipPath
       id="clipPath112"><path
         d="m 534.79,531.91 84.72,0 0,20.64 -84.72,0 0,-20.64 z"
         inkscape:connector-curvature="0"
         id="path114" /></clipPath><clipPath
       id="clipPath124"><path
         d="m 534.79,531.91 84.72,0 0,20.64 -84.72,0 0,-20.64 z"
         inkscape:connector-curvature="0"
         id="path126" /></clipPath><clipPath
       id="clipPath134"><path
         d="m 531.8,459.31 67.32,0 0,24 -67.32,0 0,-24 z"
         inkscape:connector-curvature="0"
         id="path136" /></clipPath><clipPath
       id="clipPath142"><path
         d="m 531.79,459.31 67.32,0 0,24 -67.32,0 0,-24 z"
         inkscape:connector-curvature="0"
         id="path144" /></clipPath><clipPath
       id="clipPath150"><path
         d="m 531.79,459.31 67.32,0 0,24 -67.32,0 0,-24 z"
         inkscape:connector-curvature="0"
         id="path152" /></clipPath><clipPath
       id="clipPath162"><path
         d="m 531.79,459.31 67.32,0 0,24 -67.32,0 0,-24 z"
         inkscape:connector-curvature="0"
         id="path164" /></clipPath><clipPath
       id="clipPath172"><path
         d="m 516.32,636.55 103.68,0 0,10.8 -103.68,0 0,-10.8 z"
         inkscape:connector-curvature="0"
         id="path174" /></clipPath><clipPath
       id="clipPath180"><path
         d="m 516.31,636.55 103.68,0 0,10.8 -103.68,0 0,-10.8 z"
         inkscape:connector-curvature="0"
         id="path182" /></clipPath><clipPath
       id="clipPath192"><path
         d="m 516.31,636.55 103.68,0 0,10.8 -103.68,0 0,-10.8 z"
         inkscape:connector-curvature="0"
         id="path194" /></clipPath><clipPath
       id="clipPath204"><path
         d="m 516.31,636.55 103.68,0 0,10.8 -103.68,0 0,-10.8 z"
         inkscape:connector-curvature="0"
         id="path206" /></clipPath><clipPath
       id="clipPath216"><path
         d="m 516.31,636.55 103.68,0 0,10.8 -103.68,0 0,-10.8 z"
         inkscape:connector-curvature="0"
         id="path218" /></clipPath><clipPath
       id="clipPath224"><path
         d="m 387.05,533.95 55.56,0 0,23.04 -55.56,0 0,-23.04 z"
         inkscape:connector-curvature="0"
         id="path226" /></clipPath><clipPath
       id="clipPath232"><path
         d="m 387.05,533.95 55.56,0 0,23.04 -55.56,0 0,-23.04 z"
         inkscape:connector-curvature="0"
         id="path234" /></clipPath><clipPath
       id="clipPath244"><path
         d="m 387.05,533.95 55.56,0 0,23.04 -55.56,0 0,-23.04 z"
         inkscape:connector-curvature="0"
         id="path246" /></clipPath><clipPath
       id="clipPath256"><path
         d="m 387.05,533.95 55.56,0 0,23.04 -55.56,0 0,-23.04 z"
         inkscape:connector-curvature="0"
         id="path258" /></clipPath><clipPath
       id="clipPath422"><path
         d="m 627.68,454.99 59.055,0 0,25.8 -59.055,0 0,-25.8 z"
         inkscape:connector-curvature="0"
         id="path424" /></clipPath><clipPath
       id="clipPath430"><path
         d="m 627.67,454.99 59.064,0 0,25.8 -59.064,0 0,-25.8 z"
         inkscape:connector-curvature="0"
         id="path432" /></clipPath><clipPath
       id="clipPath438"><path
         d="m 627.67,454.99 59.064,0 0,25.8 -59.064,0 0,-25.8 z"
         inkscape:connector-curvature="0"
         id="path440" /></clipPath><clipPath
       id="clipPath450"><path
         d="m 627.67,454.99 59.064,0 0,25.8 -59.064,0 0,-25.8 z"
         inkscape:connector-curvature="0"
         id="path452" /></clipPath><clipPath
       id="clipPath462"><path
         d="m 627.67,454.99 59.064,0 0,25.8 -59.064,0 0,-25.8 z"
         inkscape:connector-curvature="0"
         id="path464" /></clipPath><clipPath
       id="clipPath474"><path
         d="m 676.89,464.95 51.84,0 0,16.68 -51.84,0 0,-16.68 z"
         inkscape:connector-curvature="0"
         id="path476" /></clipPath><clipPath
       id="clipPath482"><path
         d="m 676.9,464.95 51.84,0 0,16.68 -51.84,0 0,-16.68 z"
         inkscape:connector-curvature="0"
         id="path484" /></clipPath><clipPath
       id="clipPath490"><path
         d="m 676.9,464.95 51.84,0 0,16.68 -51.84,0 0,-16.68 z"
         inkscape:connector-curvature="0"
         id="path492" /></clipPath><clipPath
       id="clipPath502"><path
         d="m 676.9,464.95 51.84,0 0,16.68 -51.84,0 0,-16.68 z"
         inkscape:connector-curvature="0"
         id="path504" /></clipPath><clipPath
       id="clipPath534"><path
         d="m 630.68,533.95 95.895,0 0,18.6 -95.895,0 0,-18.6 z"
         inkscape:connector-curvature="0"
         id="path536" /></clipPath><clipPath
       id="clipPath542"><path
         d="m 630.67,533.95 95.904,0 0,18.6 -95.904,0 0,-18.6 z"
         inkscape:connector-curvature="0"
         id="path544" /></clipPath><clipPath
       id="clipPath554"><path
         d="m 630.67,533.95 95.904,0 0,18.6 -95.904,0 0,-18.6 z"
         inkscape:connector-curvature="0"
         id="path556" /></clipPath><clipPath
       id="clipPath562"><path
         d="m 630.67,533.95 95.904,0 0,18.6 -95.904,0 0,-18.6 z"
         inkscape:connector-curvature="0"
         id="path564" /></clipPath><clipPath
       id="clipPath574"><path
         d="m 630.67,533.95 95.904,0 0,18.6 -95.904,0 0,-18.6 z"
         inkscape:connector-curvature="0"
         id="path576" /></clipPath></defs><g
     transform="matrix(1.25,0,0,-1.25,-487.96875,848.96875)"
     id="g10"><path
       d="m 578.85,528.35 0,-13"
       inkscape:connector-curvature="0"
       id="path12"
       style="fill:none;stroke:#000000;stroke-width:0.75;stroke-linecap:round;stroke-linejoin:round;stroke-miterlimit:10;stroke-opacity:1;stroke-dasharray:none" /><path
       d="m 579.25,515.35 c -3.37,0 -6.1,-2.8 -6.1,-6.25 0,-3.45 2.73,-6.25 6.1,-6.25 3.37,0 6.1,2.8 6.1,6.25 0,3.45 -2.73,6.25 -6.1,6.25 z"
       inkscape:connector-curvature="0"
       id="path14"
       style="fill:#ffffff;fill-opacity:1;fill-rule:evenodd;stroke:none" /><path
       d="m 579.25,515.35 c -3.37,0 -6.1,-2.8 -6.1,-6.25 0,-3.45 2.73,-6.25 6.1,-6.25 3.37,0 6.1,2.8 6.1,6.25 0,3.45 -2.73,6.25 -6.1,6.25 z"
       inkscape:connector-curvature="0"
       id="path16"
       style="fill:none;stroke:#000000;stroke-width:0.75;stroke-linecap:round;stroke-linejoin:round;stroke-miterlimit:10;stroke-opacity:1;stroke-dasharray:none" /><path
       d="m 571.65,502.65 16.8,0 0,6.8 -16.8,0 0,-6.8 z"
       inkscape:connector-curvature="0"
       id="path18"
       style="fill:#ffffff;fill-opacity:1;fill-rule:evenodd;stroke:none" /><path
       d="m 571.65,502.65 16.8,0 0,6.8 -16.8,0 0,-6.8 z"
       inkscape:connector-curvature="0"
       id="path20"
       style="fill:none;stroke:#ffffff;stroke-width:0.75;stroke-linecap:round;stroke-linejoin:miter;stroke-miterlimit:8;stroke-opacity:1;stroke-dasharray:none" /><path
       d="m 579,491.3 0,15.45"
       inkscape:connector-curvature="0"
       id="path22"
       style="fill:none;stroke:#000000;stroke-width:0.75;stroke-linecap:round;stroke-linejoin:round;stroke-miterlimit:8;stroke-opacity:1;stroke-dasharray:none" /><path
       d="m 579.17,513.6 c -1.97,0 -3.57,-1.69 -3.57,-3.78 0,-2.08 1.6,-3.77 3.57,-3.77 1.98,0 3.58,1.69 3.58,3.77 0,2.09 -1.6,3.78 -3.58,3.78 z"
       inkscape:connector-curvature="0"
       id="path24"
       style="fill:#ffffff;fill-opacity:1;fill-rule:evenodd;stroke:none" /><path
       d="m 579.17,513.6 c -1.97,0 -3.57,-1.69 -3.57,-3.78 0,-2.08 1.6,-3.77 3.57,-3.77 1.98,0 3.58,1.69 3.58,3.77 0,2.09 -1.6,3.78 -3.58,3.78 z"
       inkscape:connector-curvature="0"
       id="path26"
       style="fill:none;stroke:#000000;stroke-width:0.75;stroke-linecap:round;stroke-linejoin:round;stroke-miterlimit:8;stroke-opacity:1;stroke-dasharray:none" /><path
       d="m 531.9,451.65 87.6,0 0,49.2 -87.6,0 0,-49.2 z"
       inkscape:connector-curvature="0"
       id="path28"
       style="fill:#ffffff;fill-opacity:1;fill-rule:evenodd;stroke:none" /><path
       d="m 531.9,451.65 87.6,0 0,49.2 -87.6,0 0,-49.2 z"
       inkscape:connector-curvature="0"
       id="path30"
       style="fill:none;stroke:#000000;stroke-width:0.75;stroke-linecap:round;stroke-linejoin:miter;stroke-miterlimit:8;stroke-opacity:1;stroke-dasharray:none" /><path
       d="m 448,525.9 75.6,0 0,52.05 -75.6,0 0,-52.05 z"
       inkscape:connector-curvature="0"
       id="path32"
       style="fill:#ffffff;fill-opacity:1;fill-rule:evenodd;stroke:none" /><path
       d="m 448,525.9 75.6,0 0,52.05 -75.6,0 0,-52.05 z"
       inkscape:connector-curvature="0"
       id="path34"
       style="fill:none;stroke:#000000;stroke-width:0.75;stroke-linecap:round;stroke-linejoin:miter;stroke-miterlimit:8;stroke-opacity:1;stroke-dasharray:none" /><path
       d="m 531.9,525.75 87.75,0 0,52.45 -87.75,0 0,-52.45 z"
       inkscape:connector-curvature="0"
       id="path36"
       style="fill:#ffffff;fill-opacity:1;fill-rule:evenodd;stroke:none" /><path
       d="m 531.9,525.75 87.75,0 0,52.45 -87.75,0 0,-52.45 z"
       inkscape:connector-curvature="0"
       id="path38"
       style="fill:none;stroke:#000000;stroke-width:0.75;stroke-linecap:round;stroke-linejoin:miter;stroke-miterlimit:8;stroke-opacity:1;stroke-dasharray:none" /><g
       id="g40"><g
         clip-path="url(#clipPath44)"
         id="g42"><g
           id="g48"><g
             clip-path="url(#clipPath52)"
             id="g50"><text
   transform="matrix(1,0,0,-1,455.21,545.35)"
   id="text56"><tspan
     x="0 4.9124398 9.3826799 14.29512 17.42268 21.47484 25.91292 30.712799 35.62524"
     y="0"
     id="tspan58"
     style="font-size:8.03999996px;font-variant:normal;font-weight:bold;writing-mode:lr-tb;fill:#000000;fill-opacity:1;fill-rule:nonzero;stroke:none;font-family:Helvetica;-inkscape-font-specification:Helvetica-Bold">Fahrzeug </tspan></text>

</g></g><g
           id="g60"><g
             clip-path="url(#clipPath64)"
             id="g62"><text
   transform="matrix(1,0,0,-1,455.21,536.23)"
   id="text68"><tspan
     x="0 3.1275599 7.5576 11.99568 16.43376 19.561319 23.99136 26.26668 30.70476 33.832321 38.26236"
     y="0"
     id="tspan70"
     style="font-size:8.03999996px;font-variant:normal;font-weight:bold;writing-mode:lr-tb;fill:#000000;fill-opacity:1;fill-rule:nonzero;stroke:none;font-family:Helvetica;-inkscape-font-specification:Helvetica-Bold">reservieren</tspan></text>

</g></g><g
           id="g72"><g
             clip-path="url(#clipPath76)"
             id="g74" /></g></g></g><g
       id="g80"><g
         clip-path="url(#clipPath84)"
         id="g82"><g
           id="g88"><g
             clip-path="url(#clipPath92)"
             id="g90"><text
   transform="matrix(1,0,0,-1,541.99,545.35)"
   id="text96"><tspan
     x="0 4.9124398 9.3826799 14.29512 17.42268 21.47484 25.91292 30.712799 35.62524"
     y="0"
     id="tspan98"
     style="font-size:8.03999996px;font-variant:normal;font-weight:bold;writing-mode:lr-tb;fill:#000000;fill-opacity:1;fill-rule:nonzero;stroke:none;font-family:Helvetica;-inkscape-font-specification:Helvetica-Bold">Fahrzeug </tspan></text>

</g></g><g
           id="g100"><g
             clip-path="url(#clipPath104)"
             id="g102" /></g><g
           id="g108"><g
             clip-path="url(#clipPath112)"
             id="g110"><text
   transform="matrix(1,0,0,-1,541.99,535.87)"
   id="text116"><tspan
     x="0 4.4380798 9.3505201 14.26296 19.1754 21.466801 25.904881"
     y="0"
     id="tspan118"
     style="font-size:8.03999996px;font-variant:normal;font-weight:bold;writing-mode:lr-tb;fill:#000000;fill-opacity:1;fill-rule:nonzero;stroke:none;font-family:Helvetica;-inkscape-font-specification:Helvetica-Bold">abholen</tspan></text>

</g></g><g
           id="g120"><g
             clip-path="url(#clipPath124)"
             id="g122" /></g></g></g><path
       d="m 390.75,525.9 47,0 0,52.3 -47,0 0,-52.3 z"
       inkscape:connector-curvature="0"
       id="path128"
       style="fill:none;stroke:#000000;stroke-width:0.75;stroke-linecap:round;stroke-linejoin:miter;stroke-miterlimit:8;stroke-opacity:1;stroke-dasharray:none" /><g
       id="g130"><g
         clip-path="url(#clipPath134)"
         id="g132"><g
           id="g138"><g
             clip-path="url(#clipPath142)"
             id="g140" /></g><g
           id="g146"><g
             clip-path="url(#clipPath150)"
             id="g148"><text
   transform="matrix(1,0,0,-1,546.31,466.51)"
   id="text154"><tspan
     x="0 5.5234799 7.9194002 10.55652 15.22776 19.424641 23.86272 26.49984 30.93792"
     y="0"
     id="tspan156"
     style="font-size:8.03999996px;font-variant:normal;font-weight:bold;writing-mode:lr-tb;fill:#000000;fill-opacity:1;fill-rule:nonzero;stroke:none;font-family:Helvetica;-inkscape-font-specification:Helvetica-Bold">Altsystem</tspan></text>

</g></g><g
           id="g158"><g
             clip-path="url(#clipPath162)"
             id="g160" /></g></g></g><path
       d="m 518.35,626.35 95.9,0 0,52.45 -95.9,0 0,-52.45 z"
       inkscape:connector-curvature="0"
       id="path166"
       style="fill:none;stroke:#000000;stroke-width:0.75;stroke-linecap:round;stroke-linejoin:miter;stroke-miterlimit:8;stroke-opacity:1;stroke-dasharray:none" /><g
       id="g168"><g
         clip-path="url(#clipPath172)"
         id="g170"><g
           id="g176"><g
             clip-path="url(#clipPath180)"
             id="g178"><text
   transform="matrix(1,0,0,-1,530.35,639.67)"
   id="text184"><tspan
     x="0 4.9124398 9.3826799 14.29512 17.42268 21.47484 25.91292 30.712799 35.62524"
     y="0"
     id="tspan186"
     style="font-size:8.03999996px;font-variant:normal;font-weight:bold;writing-mode:lr-tb;fill:#000000;fill-opacity:1;fill-rule:nonzero;stroke:none;font-family:Helvetica;-inkscape-font-specification:Helvetica-Bold">Fahrzeug </tspan></text>

</g></g><g
           id="g188"><g
             clip-path="url(#clipPath192)"
             id="g190"><text
   transform="matrix(1,0,0,-1,568.27,639.67)"
   id="text196"><tspan
     x="0 4.4400401 8.8800802"
     y="0"
     id="tspan198"
     style="font-size:8.03999996px;font-variant:normal;font-weight:bold;writing-mode:lr-tb;fill:#000000;fill-opacity:1;fill-rule:nonzero;stroke:none;font-family:Helvetica;-inkscape-font-specification:Helvetica-Bold">ver</tspan></text>

</g></g><g
           id="g200"><g
             clip-path="url(#clipPath204)"
             id="g202"><text
   transform="matrix(1,0,0,-1,580.15,639.67)"
   id="text208"><tspan
     x="0 7.1957998 9.4711199 13.9092 16.54632 20.9844"
     y="0"
     id="tspan210"
     style="font-size:8.03999996px;font-variant:normal;font-weight:bold;writing-mode:lr-tb;fill:#000000;fill-opacity:1;fill-rule:nonzero;stroke:none;font-family:Helvetica;-inkscape-font-specification:Helvetica-Bold">mieten</tspan></text>

</g></g><g
           id="g212"><g
             clip-path="url(#clipPath216)"
             id="g214" /></g></g></g><g
       id="g220"><g
         clip-path="url(#clipPath224)"
         id="g222"><g
           id="g228"><g
             clip-path="url(#clipPath232)"
             id="g230"><text
   transform="matrix(1,0,0,-1,394.25,549.79)"
   id="text236"><tspan
     x="0 4.9124398 9.3826799 14.29512 17.42268 21.47484 25.91292 30.712799 35.62524 40.095482"
     y="0"
     id="tspan238"
     style="font-size:8.03999996px;font-variant:normal;font-weight:bold;writing-mode:lr-tb;fill:#000000;fill-opacity:1;fill-rule:nonzero;stroke:none;font-family:Helvetica;-inkscape-font-specification:Helvetica-Bold">Fahrzeuge </tspan></text>

</g></g><g
           id="g240"><g
             clip-path="url(#clipPath244)"
             id="g242"><text
   transform="matrix(1,0,0,-1,394.25,540.07)"
   id="text248"><tspan
     x="0 4.4380798 9.3505201 11.99568 14.271 16.54632 20.9844 23.621519 28.059601"
     y="0"
     id="tspan250"
     style="font-size:8.03999996px;font-variant:normal;font-weight:bold;writing-mode:lr-tb;fill:#000000;fill-opacity:1;fill-rule:nonzero;stroke:none;font-family:Helvetica;-inkscape-font-specification:Helvetica-Bold">auflisten</tspan></text>

</g></g><g
           id="g252"><g
             clip-path="url(#clipPath256)"
             id="g254" /></g></g></g><path
       d="m 412.7,616.55 0,-13"
       inkscape:connector-curvature="0"
       id="path260"
       style="fill:none;stroke:#000000;stroke-width:0.75;stroke-linecap:round;stroke-linejoin:round;stroke-miterlimit:8;stroke-opacity:1;stroke-dasharray:none" /><path
       d="m 413.1,603.55 c -3.37,0 -6.1,-2.8 -6.1,-6.25 0,-3.45 2.73,-6.25 6.1,-6.25 3.37,0 6.1,2.8 6.1,6.25 0,3.45 -2.73,6.25 -6.1,6.25 z"
       inkscape:connector-curvature="0"
       id="path262"
       style="fill:#ffffff;fill-opacity:1;fill-rule:evenodd;stroke:none" /><path
       d="m 413.1,603.55 c -3.37,0 -6.1,-2.8 -6.1,-6.25 0,-3.45 2.73,-6.25 6.1,-6.25 3.37,0 6.1,2.8 6.1,6.25 0,3.45 -2.73,6.25 -6.1,6.25 z"
       inkscape:connector-curvature="0"
       id="path264"
       style="fill:none;stroke:#000000;stroke-width:0.75;stroke-linecap:round;stroke-linejoin:round;stroke-miterlimit:8;stroke-opacity:1;stroke-dasharray:none" /><path
       d="m 405.5,590.85 16.8,0 0,6.8 -16.8,0 0,-6.8 z"
       inkscape:connector-curvature="0"
       id="path266"
       style="fill:#ffffff;fill-opacity:1;fill-rule:evenodd;stroke:none" /><path
       d="m 405.5,590.85 16.8,0 0,6.8 -16.8,0 0,-6.8 z"
       inkscape:connector-curvature="0"
       id="path268"
       style="fill:none;stroke:#ffffff;stroke-width:0.75;stroke-linecap:round;stroke-linejoin:miter;stroke-miterlimit:8;stroke-opacity:1;stroke-dasharray:none" /><path
       d="m 412.85,578.2 0,16.35"
       inkscape:connector-curvature="0"
       id="path270"
       style="fill:none;stroke:#000000;stroke-width:0.75;stroke-linecap:round;stroke-linejoin:round;stroke-miterlimit:8;stroke-opacity:1;stroke-dasharray:none" /><path
       d="m 413.02,601.8 c -1.97,0 -3.57,-1.79 -3.57,-4 0,-2.21 1.6,-4 3.57,-4 1.98,0 3.58,1.79 3.58,4 0,2.21 -1.6,4 -3.58,4 z"
       inkscape:connector-curvature="0"
       id="path272"
       style="fill:#ffffff;fill-opacity:1;fill-rule:evenodd;stroke:none" /><path
       d="m 413.02,601.8 c -1.97,0 -3.57,-1.79 -3.57,-4 0,-2.21 1.6,-4 3.57,-4 1.98,0 3.58,1.79 3.58,4 0,2.21 -1.6,4 -3.58,4 z"
       inkscape:connector-curvature="0"
       id="path274"
       style="fill:none;stroke:#000000;stroke-width:0.75;stroke-linecap:round;stroke-linejoin:round;stroke-miterlimit:8;stroke-opacity:1;stroke-dasharray:none" /><path
       d="m 481.75,615.25 0,-13"
       inkscape:connector-curvature="0"
       id="path276"
       style="fill:none;stroke:#000000;stroke-width:0.75;stroke-linecap:round;stroke-linejoin:round;stroke-miterlimit:8;stroke-opacity:1;stroke-dasharray:none" /><path
       d="m 482.15,602.25 c -3.37,0 -6.1,-2.8 -6.1,-6.25 0,-3.45 2.73,-6.25 6.1,-6.25 3.37,0 6.1,2.8 6.1,6.25 0,3.45 -2.73,6.25 -6.1,6.25 z"
       inkscape:connector-curvature="0"
       id="path278"
       style="fill:#ffffff;fill-opacity:1;fill-rule:evenodd;stroke:none" /><path
       d="m 482.15,602.25 c -3.37,0 -6.1,-2.8 -6.1,-6.25 0,-3.45 2.73,-6.25 6.1,-6.25 3.37,0 6.1,2.8 6.1,6.25 0,3.45 -2.73,6.25 -6.1,6.25 z"
       inkscape:connector-curvature="0"
       id="path280"
       style="fill:none;stroke:#000000;stroke-width:0.75;stroke-linecap:round;stroke-linejoin:round;stroke-miterlimit:8;stroke-opacity:1;stroke-dasharray:none" /><path
       d="m 474.55,589.55 16.8,0 0,6.8 -16.8,0 0,-6.8 z"
       inkscape:connector-curvature="0"
       id="path282"
       style="fill:#ffffff;fill-opacity:1;fill-rule:evenodd;stroke:none" /><path
       d="m 474.55,589.55 16.8,0 0,6.8 -16.8,0 0,-6.8 z"
       inkscape:connector-curvature="0"
       id="path284"
       style="fill:none;stroke:#ffffff;stroke-width:0.75;stroke-linecap:round;stroke-linejoin:miter;stroke-miterlimit:8;stroke-opacity:1;stroke-dasharray:none" /><path
       d="m 481.9,578.2 0,15.45"
       inkscape:connector-curvature="0"
       id="path286"
       style="fill:none;stroke:#000000;stroke-width:0.75;stroke-linecap:round;stroke-linejoin:round;stroke-miterlimit:8;stroke-opacity:1;stroke-dasharray:none" /><path
       d="m 482.08,600.5 c -1.98,0 -3.58,-1.69 -3.58,-3.77 0,-2.09 1.6,-3.78 3.58,-3.78 1.97,0 3.57,1.69 3.57,3.78 0,2.08 -1.6,3.77 -3.57,3.77 z"
       inkscape:connector-curvature="0"
       id="path288"
       style="fill:#ffffff;fill-opacity:1;fill-rule:evenodd;stroke:none" /><path
       d="m 482.08,600.5 c -1.98,0 -3.58,-1.69 -3.58,-3.77 0,-2.09 1.6,-3.78 3.58,-3.78 1.97,0 3.57,1.69 3.57,3.78 0,2.08 -1.6,3.77 -3.57,3.77 z"
       inkscape:connector-curvature="0"
       id="path290"
       style="fill:none;stroke:#000000;stroke-width:0.75;stroke-linecap:round;stroke-linejoin:round;stroke-miterlimit:8;stroke-opacity:1;stroke-dasharray:none" /><path
       d="m 577.35,614.75 0,-13"
       inkscape:connector-curvature="0"
       id="path292"
       style="fill:none;stroke:#000000;stroke-width:0.75;stroke-linecap:round;stroke-linejoin:round;stroke-miterlimit:8;stroke-opacity:1;stroke-dasharray:none" /><path
       d="m 577.75,601.75 c -3.37,0 -6.1,-2.8 -6.1,-6.25 0,-3.45 2.73,-6.25 6.1,-6.25 3.37,0 6.1,2.8 6.1,6.25 0,3.45 -2.73,6.25 -6.1,6.25 z"
       inkscape:connector-curvature="0"
       id="path294"
       style="fill:#ffffff;fill-opacity:1;fill-rule:evenodd;stroke:none" /><path
       d="m 577.75,601.75 c -3.37,0 -6.1,-2.8 -6.1,-6.25 0,-3.45 2.73,-6.25 6.1,-6.25 3.37,0 6.1,2.8 6.1,6.25 0,3.45 -2.73,6.25 -6.1,6.25 z"
       inkscape:connector-curvature="0"
       id="path296"
       style="fill:none;stroke:#000000;stroke-width:0.75;stroke-linecap:round;stroke-linejoin:round;stroke-miterlimit:8;stroke-opacity:1;stroke-dasharray:none" /><path
       d="m 570.15,589.05 16.8,0 0,6.8 -16.8,0 0,-6.8 z"
       inkscape:connector-curvature="0"
       id="path298"
       style="fill:#ffffff;fill-opacity:1;fill-rule:evenodd;stroke:none" /><path
       d="m 570.15,589.05 16.8,0 0,6.8 -16.8,0 0,-6.8 z"
       inkscape:connector-curvature="0"
       id="path300"
       style="fill:none;stroke:#ffffff;stroke-width:0.75;stroke-linecap:round;stroke-linejoin:miter;stroke-miterlimit:8;stroke-opacity:1;stroke-dasharray:none" /><path
       d="m 577.5,578.05 0,15.2"
       inkscape:connector-curvature="0"
       id="path302"
       style="fill:none;stroke:#000000;stroke-width:0.75;stroke-linecap:round;stroke-linejoin:round;stroke-miterlimit:8;stroke-opacity:1;stroke-dasharray:none" /><path
       d="m 577.67,600 c -1.97,0 -3.57,-1.67 -3.57,-3.72 0,-2.06 1.6,-3.73 3.57,-3.73 1.98,0 3.58,1.67 3.58,3.73 0,2.05 -1.6,3.72 -3.58,3.72 z"
       inkscape:connector-curvature="0"
       id="path304"
       style="fill:#ffffff;fill-opacity:1;fill-rule:evenodd;stroke:none" /><path
       d="m 577.67,600 c -1.97,0 -3.57,-1.67 -3.57,-3.72 0,-2.06 1.6,-3.73 3.57,-3.73 1.98,0 3.58,1.67 3.58,3.73 0,2.05 -1.6,3.72 -3.58,3.72 z"
       inkscape:connector-curvature="0"
       id="path306"
       style="fill:none;stroke:#000000;stroke-width:0.75;stroke-linecap:round;stroke-linejoin:round;stroke-miterlimit:8;stroke-opacity:1;stroke-dasharray:none" /><path
       d="m 678.85,615.1 0,-13"
       inkscape:connector-curvature="0"
       id="path308"
       style="fill:none;stroke:#000000;stroke-width:0.75;stroke-linecap:round;stroke-linejoin:round;stroke-miterlimit:8;stroke-opacity:1;stroke-dasharray:none" /><path
       d="m 679.25,602.1 c -3.37,0 -6.1,-2.8 -6.1,-6.25 0,-3.45 2.73,-6.25 6.1,-6.25 3.37,0 6.1,2.8 6.1,6.25 0,3.45 -2.73,6.25 -6.1,6.25 z"
       inkscape:connector-curvature="0"
       id="path310"
       style="fill:#ffffff;fill-opacity:1;fill-rule:evenodd;stroke:none" /><path
       d="m 679.25,602.1 c -3.37,0 -6.1,-2.8 -6.1,-6.25 0,-3.45 2.73,-6.25 6.1,-6.25 3.37,0 6.1,2.8 6.1,6.25 0,3.45 -2.73,6.25 -6.1,6.25 z"
       inkscape:connector-curvature="0"
       id="path312"
       style="fill:none;stroke:#000000;stroke-width:0.75;stroke-linecap:round;stroke-linejoin:round;stroke-miterlimit:8;stroke-opacity:1;stroke-dasharray:none" /><path
       d="m 671.65,589.4 16.8,0 0,6.8 -16.8,0 0,-6.8 z"
       inkscape:connector-curvature="0"
       id="path314"
       style="fill:#ffffff;fill-opacity:1;fill-rule:evenodd;stroke:none" /><path
       d="m 671.65,589.4 16.8,0 0,6.8 -16.8,0 0,-6.8 z"
       inkscape:connector-curvature="0"
       id="path316"
       style="fill:none;stroke:#ffffff;stroke-width:0.75;stroke-linecap:round;stroke-linejoin:miter;stroke-miterlimit:8;stroke-opacity:1;stroke-dasharray:none" /><path
       d="m 679,578.05 0,15.45"
       inkscape:connector-curvature="0"
       id="path318"
       style="fill:none;stroke:#000000;stroke-width:0.75;stroke-linecap:round;stroke-linejoin:round;stroke-miterlimit:8;stroke-opacity:1;stroke-dasharray:none" /><path
       d="m 679.17,600.35 c -1.97,0 -3.57,-1.69 -3.57,-3.77 0,-2.09 1.6,-3.78 3.57,-3.78 1.98,0 3.58,1.69 3.58,3.78 0,2.08 -1.6,3.77 -3.58,3.77 z"
       inkscape:connector-curvature="0"
       id="path320"
       style="fill:#ffffff;fill-opacity:1;fill-rule:evenodd;stroke:none" /><path
       d="m 679.17,600.35 c -1.97,0 -3.57,-1.69 -3.57,-3.77 0,-2.09 1.6,-3.78 3.57,-3.78 1.98,0 3.58,1.69 3.58,3.78 0,2.08 -1.6,3.77 -3.58,3.77 z"
       inkscape:connector-curvature="0"
       id="path322"
       style="fill:none;stroke:#000000;stroke-width:0.75;stroke-linecap:round;stroke-linejoin:round;stroke-miterlimit:8;stroke-opacity:1;stroke-dasharray:none" /><path
       d="M 412.7,616.55 518.35,666.2"
       inkscape:connector-curvature="0"
       id="path324"
       style="fill:none;stroke:#000000;stroke-width:0.75;stroke-linecap:round;stroke-linejoin:round;stroke-miterlimit:8;stroke-opacity:1;stroke-dasharray:none" /><path
       d="M 614.25,657.55 679,614.75"
       inkscape:connector-curvature="0"
       id="path326"
       style="fill:none;stroke:#000000;stroke-width:0.75;stroke-linecap:round;stroke-linejoin:round;stroke-miterlimit:8;stroke-opacity:1;stroke-dasharray:none" /><path
       d="M 577.35,626.35 577.5,609.5"
       inkscape:connector-curvature="0"
       id="path328"
       style="fill:none;stroke:#000000;stroke-width:0.75;stroke-linecap:round;stroke-linejoin:round;stroke-miterlimit:8;stroke-opacity:1;stroke-dasharray:none" /><path
       d="m 481.75,615.1 36.6,17.85"
       inkscape:connector-curvature="0"
       id="path330"
       style="fill:none;stroke:#000000;stroke-width:0.75;stroke-linecap:round;stroke-linejoin:round;stroke-miterlimit:8;stroke-opacity:1;stroke-dasharray:none" /><path
       d="m 598.2,662.7 10.6,0 0,11.15 -10.6,0 0,-11.15 z"
       inkscape:connector-curvature="0"
       id="path332"
       style="fill:none;stroke:#000000;stroke-width:0.75;stroke-linecap:round;stroke-linejoin:miter;stroke-miterlimit:8;stroke-opacity:1;stroke-dasharray:none" /><path
       d="m 595.15,669.4 6.05,0 0,2.2 -6.05,0 0,-2.2 z"
       inkscape:connector-curvature="0"
       id="path334"
       style="fill:#ffffff;fill-opacity:1;fill-rule:evenodd;stroke:none" /><path
       d="m 595.15,669.4 6.05,0 0,2.2 -6.05,0 0,-2.2 z"
       inkscape:connector-curvature="0"
       id="path336"
       style="fill:none;stroke:#000000;stroke-width:0.75;stroke-linecap:round;stroke-linejoin:miter;stroke-miterlimit:8;stroke-opacity:1;stroke-dasharray:none" /><path
       d="m 595.15,664.95 6.05,0 0,2.2 -6.05,0 0,-2.2 z"
       inkscape:connector-curvature="0"
       id="path338"
       style="fill:#ffffff;fill-opacity:1;fill-rule:evenodd;stroke:none" /><path
       d="m 595.15,664.95 6.05,0 0,2.2 -6.05,0 0,-2.2 z"
       inkscape:connector-curvature="0"
       id="path340"
       style="fill:none;stroke:#000000;stroke-width:0.75;stroke-linecap:round;stroke-linejoin:miter;stroke-miterlimit:8;stroke-opacity:1;stroke-dasharray:none" /><path
       d="m 422.25,564.05 10.6,0 0,11.15 -10.6,0 0,-11.15 z"
       inkscape:connector-curvature="0"
       id="path342"
       style="fill:none;stroke:#000000;stroke-width:0.75;stroke-linecap:round;stroke-linejoin:miter;stroke-miterlimit:8;stroke-opacity:1;stroke-dasharray:none" /><path
       d="m 419.2,570.75 6.05,0 0,2.2 -6.05,0 0,-2.2 z"
       inkscape:connector-curvature="0"
       id="path344"
       style="fill:#ffffff;fill-opacity:1;fill-rule:evenodd;stroke:none" /><path
       d="m 419.2,570.75 6.05,0 0,2.2 -6.05,0 0,-2.2 z"
       inkscape:connector-curvature="0"
       id="path346"
       style="fill:none;stroke:#000000;stroke-width:0.75;stroke-linecap:round;stroke-linejoin:miter;stroke-miterlimit:8;stroke-opacity:1;stroke-dasharray:none" /><path
       d="m 419.2,566.3 6.05,0 0,2.2 -6.05,0 0,-2.2 z"
       inkscape:connector-curvature="0"
       id="path348"
       style="fill:#ffffff;fill-opacity:1;fill-rule:evenodd;stroke:none" /><path
       d="m 419.2,566.3 6.05,0 0,2.2 -6.05,0 0,-2.2 z"
       inkscape:connector-curvature="0"
       id="path350"
       style="fill:none;stroke:#000000;stroke-width:0.75;stroke-linecap:round;stroke-linejoin:miter;stroke-miterlimit:8;stroke-opacity:1;stroke-dasharray:none" /><path
       d="m 507.75,562.55 10.6,0 0,11.15 -10.6,0 0,-11.15 z"
       inkscape:connector-curvature="0"
       id="path352"
       style="fill:none;stroke:#000000;stroke-width:0.75;stroke-linecap:round;stroke-linejoin:miter;stroke-miterlimit:8;stroke-opacity:1;stroke-dasharray:none" /><path
       d="m 504.7,569.25 6.05,0 0,2.2 -6.05,0 0,-2.2 z"
       inkscape:connector-curvature="0"
       id="path354"
       style="fill:#ffffff;fill-opacity:1;fill-rule:evenodd;stroke:none" /><path
       d="m 504.7,569.25 6.05,0 0,2.2 -6.05,0 0,-2.2 z"
       inkscape:connector-curvature="0"
       id="path356"
       style="fill:none;stroke:#000000;stroke-width:0.75;stroke-linecap:round;stroke-linejoin:miter;stroke-miterlimit:8;stroke-opacity:1;stroke-dasharray:none" /><path
       d="m 504.7,564.8 6.05,0 0,2.2 -6.05,0 0,-2.2 z"
       inkscape:connector-curvature="0"
       id="path358"
       style="fill:#ffffff;fill-opacity:1;fill-rule:evenodd;stroke:none" /><path
       d="m 504.7,564.8 6.05,0 0,2.2 -6.05,0 0,-2.2 z"
       inkscape:connector-curvature="0"
       id="path360"
       style="fill:none;stroke:#000000;stroke-width:0.75;stroke-linecap:round;stroke-linejoin:miter;stroke-miterlimit:8;stroke-opacity:1;stroke-dasharray:none" /><path
       d="m 603.65,563.05 10.6,0 0,11.15 -10.6,0 0,-11.15 z"
       inkscape:connector-curvature="0"
       id="path362"
       style="fill:none;stroke:#000000;stroke-width:0.75;stroke-linecap:round;stroke-linejoin:miter;stroke-miterlimit:8;stroke-opacity:1;stroke-dasharray:none" /><path
       d="m 600.6,569.75 6.05,0 0,2.2 -6.05,0 0,-2.2 z"
       inkscape:connector-curvature="0"
       id="path364"
       style="fill:#ffffff;fill-opacity:1;fill-rule:evenodd;stroke:none" /><path
       d="m 600.6,569.75 6.05,0 0,2.2 -6.05,0 0,-2.2 z"
       inkscape:connector-curvature="0"
       id="path366"
       style="fill:none;stroke:#000000;stroke-width:0.75;stroke-linecap:round;stroke-linejoin:miter;stroke-miterlimit:8;stroke-opacity:1;stroke-dasharray:none" /><path
       d="m 600.6,565.3 6.05,0 0,2.2 -6.05,0 0,-2.2 z"
       inkscape:connector-curvature="0"
       id="path368"
       style="fill:#ffffff;fill-opacity:1;fill-rule:evenodd;stroke:none" /><path
       d="m 600.6,565.3 6.05,0 0,2.2 -6.05,0 0,-2.2 z"
       inkscape:connector-curvature="0"
       id="path370"
       style="fill:none;stroke:#000000;stroke-width:0.75;stroke-linecap:round;stroke-linejoin:miter;stroke-miterlimit:8;stroke-opacity:1;stroke-dasharray:none" /><path
       d="m 605.25,485.4 10.6,0 0,11.15 -10.6,0 0,-11.15 z"
       inkscape:connector-curvature="0"
       id="path372"
       style="fill:none;stroke:#000000;stroke-width:0.75;stroke-linecap:round;stroke-linejoin:miter;stroke-miterlimit:8;stroke-opacity:1;stroke-dasharray:none" /><path
       d="m 602.2,492.1 6.05,0 0,2.2 -6.05,0 0,-2.2 z"
       inkscape:connector-curvature="0"
       id="path374"
       style="fill:#ffffff;fill-opacity:1;fill-rule:evenodd;stroke:none" /><path
       d="m 602.2,492.1 6.05,0 0,2.2 -6.05,0 0,-2.2 z"
       inkscape:connector-curvature="0"
       id="path376"
       style="fill:none;stroke:#000000;stroke-width:0.75;stroke-linecap:round;stroke-linejoin:miter;stroke-miterlimit:8;stroke-opacity:1;stroke-dasharray:none" /><path
       d="m 602.2,487.65 6.05,0 0,2.2 -6.05,0 0,-2.2 z"
       inkscape:connector-curvature="0"
       id="path378"
       style="fill:#ffffff;fill-opacity:1;fill-rule:evenodd;stroke:none" /><path
       d="m 602.2,487.65 6.05,0 0,2.2 -6.05,0 0,-2.2 z"
       inkscape:connector-curvature="0"
       id="path380"
       style="fill:none;stroke:#000000;stroke-width:0.75;stroke-linecap:round;stroke-linejoin:miter;stroke-miterlimit:8;stroke-opacity:1;stroke-dasharray:none" /><path
       d="m 702.4,528.35 0,-13"
       inkscape:connector-curvature="0"
       id="path382"
       style="fill:none;stroke:#000000;stroke-width:0.75;stroke-linecap:round;stroke-linejoin:round;stroke-miterlimit:8;stroke-opacity:1;stroke-dasharray:none" /><path
       d="m 702.8,515.35 c -3.37,0 -6.1,-2.8 -6.1,-6.25 0,-3.45 2.73,-6.25 6.1,-6.25 3.37,0 6.1,2.8 6.1,6.25 0,3.45 -2.73,6.25 -6.1,6.25 z"
       inkscape:connector-curvature="0"
       id="path384"
       style="fill:#ffffff;fill-opacity:1;fill-rule:evenodd;stroke:none" /><path
       d="m 702.8,515.35 c -3.37,0 -6.1,-2.8 -6.1,-6.25 0,-3.45 2.73,-6.25 6.1,-6.25 3.37,0 6.1,2.8 6.1,6.25 0,3.45 -2.73,6.25 -6.1,6.25 z"
       inkscape:connector-curvature="0"
       id="path386"
       style="fill:none;stroke:#000000;stroke-width:0.75;stroke-linecap:round;stroke-linejoin:round;stroke-miterlimit:8;stroke-opacity:1;stroke-dasharray:none" /><path
       d="m 695.2,502.65 16.8,0 0,6.8 -16.8,0 0,-6.8 z"
       inkscape:connector-curvature="0"
       id="path388"
       style="fill:#ffffff;fill-opacity:1;fill-rule:evenodd;stroke:none" /><path
       d="m 695.2,502.65 16.8,0 0,6.8 -16.8,0 0,-6.8 z"
       inkscape:connector-curvature="0"
       id="path390"
       style="fill:none;stroke:#ffffff;stroke-width:0.75;stroke-linecap:round;stroke-linejoin:miter;stroke-miterlimit:8;stroke-opacity:1;stroke-dasharray:none" /><path
       d="m 702.55,491.3 0,15.45"
       inkscape:connector-curvature="0"
       id="path392"
       style="fill:none;stroke:#000000;stroke-width:0.75;stroke-linecap:round;stroke-linejoin:round;stroke-miterlimit:8;stroke-opacity:1;stroke-dasharray:none" /><path
       d="m 702.72,513.6 c -1.97,0 -3.57,-1.69 -3.57,-3.78 0,-2.08 1.6,-3.77 3.57,-3.77 1.98,0 3.58,1.69 3.58,3.77 0,2.09 -1.6,3.78 -3.58,3.78 z"
       inkscape:connector-curvature="0"
       id="path394"
       style="fill:#ffffff;fill-opacity:1;fill-rule:evenodd;stroke:none" /><path
       d="m 702.72,513.6 c -1.97,0 -3.57,-1.69 -3.57,-3.78 0,-2.08 1.6,-3.77 3.57,-3.77 1.98,0 3.58,1.69 3.58,3.77 0,2.09 -1.6,3.78 -3.58,3.78 z"
       inkscape:connector-curvature="0"
       id="path396"
       style="fill:none;stroke:#000000;stroke-width:0.75;stroke-linecap:round;stroke-linejoin:round;stroke-miterlimit:8;stroke-opacity:1;stroke-dasharray:none" /><path
       d="m 648.25,529.05 0,-13"
       inkscape:connector-curvature="0"
       id="path398"
       style="fill:none;stroke:#000000;stroke-width:0.75;stroke-linecap:round;stroke-linejoin:round;stroke-miterlimit:8;stroke-opacity:1;stroke-dasharray:none" /><path
       d="m 648.65,516.05 c -3.37,0 -6.1,-2.8 -6.1,-6.25 0,-3.45 2.73,-6.25 6.1,-6.25 3.37,0 6.1,2.8 6.1,6.25 0,3.45 -2.73,6.25 -6.1,6.25 z"
       inkscape:connector-curvature="0"
       id="path400"
       style="fill:#ffffff;fill-opacity:1;fill-rule:evenodd;stroke:none" /><path
       d="m 648.65,516.05 c -3.37,0 -6.1,-2.8 -6.1,-6.25 0,-3.45 2.73,-6.25 6.1,-6.25 3.37,0 6.1,2.8 6.1,6.25 0,3.45 -2.73,6.25 -6.1,6.25 z"
       inkscape:connector-curvature="0"
       id="path402"
       style="fill:none;stroke:#000000;stroke-width:0.75;stroke-linecap:round;stroke-linejoin:round;stroke-miterlimit:8;stroke-opacity:1;stroke-dasharray:none" /><path
       d="m 641.05,503.35 16.8,0 0,6.8 -16.8,0 0,-6.8 z"
       inkscape:connector-curvature="0"
       id="path404"
       style="fill:#ffffff;fill-opacity:1;fill-rule:evenodd;stroke:none" /><path
       d="m 641.05,503.35 16.8,0 0,6.8 -16.8,0 0,-6.8 z"
       inkscape:connector-curvature="0"
       id="path406"
       style="fill:none;stroke:#ffffff;stroke-width:0.75;stroke-linecap:round;stroke-linejoin:miter;stroke-miterlimit:8;stroke-opacity:1;stroke-dasharray:none" /><path
       d="m 648.4,492 0,15.45"
       inkscape:connector-curvature="0"
       id="path408"
       style="fill:none;stroke:#000000;stroke-width:0.75;stroke-linecap:round;stroke-linejoin:round;stroke-miterlimit:8;stroke-opacity:1;stroke-dasharray:none" /><path
       d="m 648.57,514.3 c -1.97,0 -3.57,-1.69 -3.57,-3.77 0,-2.09 1.6,-3.78 3.57,-3.78 1.98,0 3.58,1.69 3.58,3.78 0,2.08 -1.6,3.77 -3.58,3.77 z"
       inkscape:connector-curvature="0"
       id="path410"
       style="fill:#ffffff;fill-opacity:1;fill-rule:evenodd;stroke:none" /><path
       d="m 648.57,514.3 c -1.97,0 -3.57,-1.69 -3.57,-3.77 0,-2.09 1.6,-3.78 3.57,-3.78 1.98,0 3.58,1.69 3.58,3.78 0,2.08 -1.6,3.77 -3.58,3.77 z"
       inkscape:connector-curvature="0"
       id="path412"
       style="fill:none;stroke:#000000;stroke-width:0.75;stroke-linecap:round;stroke-linejoin:round;stroke-miterlimit:8;stroke-opacity:1;stroke-dasharray:none" /><path
       d="m 630.55,451.4 47,0 0,49.2 -47,0 0,-49.2 z"
       inkscape:connector-curvature="0"
       id="path414"
       style="fill:#ffffff;fill-opacity:1;fill-rule:evenodd;stroke:none" /><path
       d="m 630.55,451.4 47,0 0,49.2 -47,0 0,-49.2 z"
       inkscape:connector-curvature="0"
       id="path416"
       style="fill:none;stroke:#000000;stroke-width:0.75;stroke-linecap:round;stroke-linejoin:miter;stroke-miterlimit:8;stroke-opacity:1;stroke-dasharray:none" /><g
       id="g418"><g
         clip-path="url(#clipPath422)"
         id="g420"><g
           id="g426"><g
             clip-path="url(#clipPath430)"
             id="g428" /></g><g
           id="g434"><g
             clip-path="url(#clipPath438)"
             id="g436"><text
   transform="matrix(1,0,0,-1,634.87,466.75)"
   id="text442"><tspan
     x="0 4.9124398 9.3826799 14.29512 17.42268 21.47484 25.91292 30.712799 35.62524"
     y="0"
     id="tspan444"
     style="font-size:8.03999996px;font-variant:normal;font-weight:bold;writing-mode:lr-tb;fill:#000000;fill-opacity:1;fill-rule:nonzero;stroke:none;font-family:Helvetica;-inkscape-font-specification:Helvetica-Bold">Fahrzeug </tspan></text>

</g></g><g
           id="g446"><g
             clip-path="url(#clipPath450)"
             id="g448"><text
   transform="matrix(1,0,0,-1,634.87,457.03)"
   id="text454"><tspan
     x="0 2.63712 5.7646799 10.19472 12.47004 17.382481 21.85272 26.76516 31.18716"
     y="0"
     id="tspan456"
     style="font-size:8.03999996px;font-variant:normal;font-weight:bold;writing-mode:lr-tb;fill:#000000;fill-opacity:1;fill-rule:nonzero;stroke:none;font-family:Helvetica;-inkscape-font-specification:Helvetica-Bold">freigeben</tspan></text>

</g></g><g
           id="g458"><g
             clip-path="url(#clipPath462)"
             id="g460" /></g></g></g><path
       d="m 679.5,451.35 47,0 0,49.2 -47,0 0,-49.2 z"
       inkscape:connector-curvature="0"
       id="path466"
       style="fill:#ffffff;fill-opacity:1;fill-rule:evenodd;stroke:none" /><path
       d="m 679.5,451.35 47,0 0,49.2 -47,0 0,-49.2 z"
       inkscape:connector-curvature="0"
       id="path468"
       style="fill:none;stroke:#000000;stroke-width:0.75;stroke-linecap:round;stroke-linejoin:miter;stroke-miterlimit:8;stroke-opacity:1;stroke-dasharray:none" /><g
       id="g470"><g
         clip-path="url(#clipPath474)"
         id="g472"><g
           id="g478"><g
             clip-path="url(#clipPath482)"
             id="g480" /></g><g
           id="g486"><g
             clip-path="url(#clipPath490)"
             id="g488"><text
   transform="matrix(1,0,0,-1,685.3,467.11)"
   id="text494"><tspan
     x="0 5.75664 10.19472 14.26296 18.70104 23.61348 25.896839 30.334921"
     y="0"
     id="tspan496"
     style="font-size:8.03999996px;font-variant:normal;font-weight:bold;writing-mode:lr-tb;fill:#000000;fill-opacity:1;fill-rule:nonzero;stroke:none;font-family:Helvetica;-inkscape-font-specification:Helvetica-Bold">Bezahlen</tspan></text>

</g></g><g
           id="g498"><g
             clip-path="url(#clipPath502)"
             id="g500" /></g></g></g><path
       d="m 711.85,484.5 10.6,0 0,11.15 -10.6,0 0,-11.15 z"
       inkscape:connector-curvature="0"
       id="path506"
       style="fill:none;stroke:#000000;stroke-width:0.75;stroke-linecap:round;stroke-linejoin:miter;stroke-miterlimit:8;stroke-opacity:1;stroke-dasharray:none" /><path
       d="m 708.8,491.2 6.0499,0 0,2.2 -6.0499,0 0,-2.2 z"
       inkscape:connector-curvature="0"
       id="path508"
       style="fill:#ffffff;fill-opacity:1;fill-rule:evenodd;stroke:none" /><path
       d="m 708.8,491.2 6.0499,0 0,2.2 -6.0499,0 0,-2.2 z"
       inkscape:connector-curvature="0"
       id="path510"
       style="fill:none;stroke:#000000;stroke-width:0.75;stroke-linecap:round;stroke-linejoin:miter;stroke-miterlimit:8;stroke-opacity:1;stroke-dasharray:none" /><path
       d="m 708.8,486.75 6.0499,0 0,2.2 -6.0499,0 0,-2.2 z"
       inkscape:connector-curvature="0"
       id="path512"
       style="fill:#ffffff;fill-opacity:1;fill-rule:evenodd;stroke:none" /><path
       d="m 708.8,486.75 6.0499,0 0,2.2 -6.0499,0 0,-2.2 z"
       inkscape:connector-curvature="0"
       id="path514"
       style="fill:none;stroke:#000000;stroke-width:0.75;stroke-linecap:round;stroke-linejoin:miter;stroke-miterlimit:8;stroke-opacity:1;stroke-dasharray:none" /><path
       d="m 663.25,484.5 10.6,0 0,11.15 -10.6,0 0,-11.15 z"
       inkscape:connector-curvature="0"
       id="path516"
       style="fill:none;stroke:#000000;stroke-width:0.75;stroke-linecap:round;stroke-linejoin:miter;stroke-miterlimit:8;stroke-opacity:1;stroke-dasharray:none" /><path
       d="m 660.2,491.2 6.05,0 0,2.2 -6.05,0 0,-2.2 z"
       inkscape:connector-curvature="0"
       id="path518"
       style="fill:#ffffff;fill-opacity:1;fill-rule:evenodd;stroke:none" /><path
       d="m 660.2,491.2 6.05,0 0,2.2 -6.05,0 0,-2.2 z"
       inkscape:connector-curvature="0"
       id="path520"
       style="fill:none;stroke:#000000;stroke-width:0.75;stroke-linecap:round;stroke-linejoin:miter;stroke-miterlimit:8;stroke-opacity:1;stroke-dasharray:none" /><path
       d="m 660.2,486.75 6.05,0 0,2.2 -6.05,0 0,-2.2 z"
       inkscape:connector-curvature="0"
       id="path522"
       style="fill:#ffffff;fill-opacity:1;fill-rule:evenodd;stroke:none" /><path
       d="m 660.2,486.75 6.05,0 0,2.2 -6.05,0 0,-2.2 z"
       inkscape:connector-curvature="0"
       id="path524"
       style="fill:none;stroke:#000000;stroke-width:0.75;stroke-linecap:round;stroke-linejoin:miter;stroke-miterlimit:8;stroke-opacity:1;stroke-dasharray:none" /><path
       d="m 630.6,525.75 95.9,0 0,52.45 -95.9,0 0,-52.45 z"
       inkscape:connector-curvature="0"
       id="path526"
       style="fill:#ffffff;fill-opacity:1;fill-rule:evenodd;stroke:none" /><path
       d="m 630.6,525.75 95.9,0 0,52.45 -95.9,0 0,-52.45 z"
       inkscape:connector-curvature="0"
       id="path528"
       style="fill:none;stroke:#000000;stroke-width:0.75;stroke-linecap:round;stroke-linejoin:miter;stroke-miterlimit:8;stroke-opacity:1;stroke-dasharray:none" /><g
       id="g530"><g
         clip-path="url(#clipPath534)"
         id="g532"><g
           id="g538"><g
             clip-path="url(#clipPath542)"
             id="g540"><text
   transform="matrix(1,0,0,-1,637.87,545.35)"
   id="text546"><tspan
     x="0 4.9124398 9.3826799 14.29512 17.42268 21.47484 25.91292 30.712799 35.62524"
     y="0"
     id="tspan548"
     style="font-size:8.03999996px;font-variant:normal;font-weight:bold;writing-mode:lr-tb;fill:#000000;fill-opacity:1;fill-rule:nonzero;stroke:none;font-family:Helvetica;-inkscape-font-specification:Helvetica-Bold">Fahrzeug </tspan></text>

</g></g><g
           id="g550"><g
             clip-path="url(#clipPath554)"
             id="g552" /></g><g
           id="g558"><g
             clip-path="url(#clipPath562)"
             id="g560"><text
   transform="matrix(1,0,0,-1,637.87,536.23)"
   id="text566"><tspan
     x="0 4.0682402 8.9806805 12.10824 17.020679 21.490919 25.904881 30.81732 35.142841 40.055279 44.52552"
     y="0"
     id="tspan568"
     style="font-size:8.03999996px;font-variant:normal;font-weight:bold;writing-mode:lr-tb;fill:#000000;fill-opacity:1;fill-rule:nonzero;stroke:none;font-family:Helvetica;-inkscape-font-specification:Helvetica-Bold">zurückgeben</tspan></text>

</g></g><g
           id="g570"><g
             clip-path="url(#clipPath574)"
             id="g572" /></g></g></g><path
       d="m 711,562.55 10.6,0 0,11.15 -10.6,0 0,-11.15 z"
       inkscape:connector-curvature="0"
       id="path578"
       style="fill:none;stroke:#000000;stroke-width:0.75;stroke-linecap:round;stroke-linejoin:miter;stroke-miterlimit:8;stroke-opacity:1;stroke-dasharray:none" /><path
       d="m 707.95,569.25 6.05,0 0,2.2 -6.05,0 0,-2.2 z"
       inkscape:connector-curvature="0"
       id="path580"
       style="fill:#ffffff;fill-opacity:1;fill-rule:evenodd;stroke:none" /><path
       d="m 707.95,569.25 6.05,0 0,2.2 -6.05,0 0,-2.2 z"
       inkscape:connector-curvature="0"
       id="path582"
       style="fill:none;stroke:#000000;stroke-width:0.75;stroke-linecap:round;stroke-linejoin:miter;stroke-miterlimit:8;stroke-opacity:1;stroke-dasharray:none" /><path
       d="m 707.95,564.8 6.05,0 0,2.2 -6.05,0 0,-2.2 z"
       inkscape:connector-curvature="0"
       id="path584"
       style="fill:#ffffff;fill-opacity:1;fill-rule:evenodd;stroke:none" /><path
       d="m 707.95,564.8 6.05,0 0,2.2 -6.05,0 0,-2.2 z"
       inkscape:connector-curvature="0"
       id="path586"
       style="fill:none;stroke:#000000;stroke-width:0.75;stroke-linecap:round;stroke-linejoin:miter;stroke-miterlimit:8;stroke-opacity:1;stroke-dasharray:none" /></g></svg>