<?xml version="1.0" encoding="UTF-8" standalone="no"?>
<!-- Created with Inkscape (http://www.inkscape.org/) -->

<svg
   xmlns:dc="http://purl.org/dc/elements/1.1/"
   xmlns:cc="http://creativecommons.org/ns#"
   xmlns:rdf="http://www.w3.org/1999/02/22-rdf-syntax-ns#"
   xmlns:svg="http://www.w3.org/2000/svg"
   xmlns="http://www.w3.org/2000/svg"
   xmlns:sodipodi="http://sodipodi.sourceforge.net/DTD/sodipodi-0.dtd"
   xmlns:inkscape="http://www.inkscape.org/namespaces/inkscape"
   version="1.1"
   width="508.625"
   height="252.6875"
   id="svg2"
   xml:space="preserve"
   inkscape:version="0.48.4 r9939"
   sodipodi:docname="Bild 5-16 Sequenzdiagramm für das Pull-Prinzip .svg"><sodipodi:namedview
     pagecolor="#ffffff"
     bordercolor="#666666"
     borderopacity="1"
     objecttolerance="10"
     gridtolerance="10"
     guidetolerance="10"
     inkscape:pageopacity="0"
     inkscape:pageshadow="2"
     inkscape:window-width="640"
     inkscape:window-height="480"
     id="namedview249"
     showgrid="false"
     inkscape:zoom="0.18730159"
     inkscape:cx="509.59375"
     inkscape:cy="29.65625"
     inkscape:window-x="0"
     inkscape:window-y="0"
     inkscape:window-maximized="0"
     inkscape:current-layer="svg2" /><metadata
     id="metadata8"><rdf:RDF><cc:Work
         rdf:about=""><dc:format>image/svg+xml</dc:format><dc:type
           rdf:resource="http://purl.org/dc/dcmitype/StillImage" /></cc:Work></rdf:RDF></metadata><defs
     id="defs6"><clipPath
       id="clipPath36"><path
         d="m 96.991,660.79 55.08,0 0,21.255 -55.08,0 0,-21.255 z"
         inkscape:connector-curvature="0"
         id="path38" /></clipPath><clipPath
       id="clipPath44"><path
         d="m 96.984,660.79 55.08,0 0,21.264 -55.08,0 0,-21.264 z"
         inkscape:connector-curvature="0"
         id="path46" /></clipPath><clipPath
       id="clipPath52"><path
         d="m 96.984,660.79 55.08,0 0,21.264 -55.08,0 0,-21.264 z"
         inkscape:connector-curvature="0"
         id="path54" /></clipPath><clipPath
       id="clipPath64"><path
         d="m 96.984,660.79 55.08,0 0,21.264 -55.08,0 0,-21.264 z"
         inkscape:connector-curvature="0"
         id="path66" /></clipPath><clipPath
       id="clipPath76"><path
         d="m 96.984,660.79 55.08,0 0,21.264 -55.08,0 0,-21.264 z"
         inkscape:connector-curvature="0"
         id="path78" /></clipPath><clipPath
       id="clipPath88"><path
         d="m 214.95,660.79 55.08,0 0,21.255 -55.08,0 0,-21.255 z"
         inkscape:connector-curvature="0"
         id="path90" /></clipPath><clipPath
       id="clipPath96"><path
         d="m 214.94,660.79 55.08,0 0,21.264 -55.08,0 0,-21.264 z"
         inkscape:connector-curvature="0"
         id="path98" /></clipPath><clipPath
       id="clipPath104"><path
         d="m 214.94,660.79 55.08,0 0,21.264 -55.08,0 0,-21.264 z"
         inkscape:connector-curvature="0"
         id="path106" /></clipPath><clipPath
       id="clipPath116"><path
         d="m 214.94,660.79 55.08,0 0,21.264 -55.08,0 0,-21.264 z"
         inkscape:connector-curvature="0"
         id="path118" /></clipPath><clipPath
       id="clipPath128"><path
         d="m 214.94,660.79 55.08,0 0,21.264 -55.08,0 0,-21.264 z"
         inkscape:connector-curvature="0"
         id="path130" /></clipPath><clipPath
       id="clipPath140"><path
         d="m 331.25,660.79 55.08,0 0,21.255 -55.08,0 0,-21.255 z"
         inkscape:connector-curvature="0"
         id="path142" /></clipPath><clipPath
       id="clipPath148"><path
         d="m 331.25,660.79 55.08,0 0,21.264 -55.08,0 0,-21.264 z"
         inkscape:connector-curvature="0"
         id="path150" /></clipPath><clipPath
       id="clipPath156"><path
         d="m 331.25,660.79 55.08,0 0,21.264 -55.08,0 0,-21.264 z"
         inkscape:connector-curvature="0"
         id="path158" /></clipPath><clipPath
       id="clipPath168"><path
         d="m 331.25,660.79 55.08,0 0,21.264 -55.08,0 0,-21.264 z"
         inkscape:connector-curvature="0"
         id="path170" /></clipPath><clipPath
       id="clipPath180"><path
         d="m 331.25,660.79 55.08,0 0,21.264 -55.08,0 0,-21.264 z"
         inkscape:connector-curvature="0"
         id="path182" /></clipPath><clipPath
       id="clipPath212"><path
         d="m 377.93,540.55 18.12,0 0,9.6 -18.12,0 0,-9.6 z"
         inkscape:connector-curvature="0"
         id="path214" /></clipPath><clipPath
       id="clipPath220"><path
         d="m 377.93,540.55 18.12,0 0,9.6 -18.12,0 0,-9.6 z"
         inkscape:connector-curvature="0"
         id="path222" /></clipPath><clipPath
       id="clipPath232"><path
         d="m 377.93,540.55 18.12,0 0,9.6 -18.12,0 0,-9.6 z"
         inkscape:connector-curvature="0"
         id="path234" /></clipPath><clipPath
       id="clipPath244"><path
         d="m 377.93,540.55 18.12,0 0,9.6 -18.12,0 0,-9.6 z"
         inkscape:connector-curvature="0"
         id="path246" /></clipPath><clipPath
       id="clipPath256"><path
         d="m 377.93,540.55 18.12,0 0,9.6 -18.12,0 0,-9.6 z"
         inkscape:connector-curvature="0"
         id="path258" /></clipPath><clipPath
       id="clipPath264"><path
         d="m 173.07,615.19 27.96,0 0,12 -27.96,0 0,-12 z"
         inkscape:connector-curvature="0"
         id="path266" /></clipPath><clipPath
       id="clipPath272"><path
         d="m 173.06,615.19 27.96,0 0,12 -27.96,0 0,-12 z"
         inkscape:connector-curvature="0"
         id="path274" /></clipPath><clipPath
       id="clipPath284"><path
         d="m 173.06,615.19 27.96,0 0,12 -27.96,0 0,-12 z"
         inkscape:connector-curvature="0"
         id="path286" /></clipPath><clipPath
       id="clipPath292"><path
         d="m 285.89,618.19 27.96,0 0,12 -27.96,0 0,-12 z"
         inkscape:connector-curvature="0"
         id="path294" /></clipPath><clipPath
       id="clipPath300"><path
         d="m 285.89,618.19 27.96,0 0,12 -27.96,0 0,-12 z"
         inkscape:connector-curvature="0"
         id="path302" /></clipPath><clipPath
       id="clipPath312"><path
         d="m 285.89,618.19 27.96,0 0,12 -27.96,0 0,-12 z"
         inkscape:connector-curvature="0"
         id="path314" /></clipPath><clipPath
       id="clipPath336"><path
         d="m 260.91,581.59 24.855,0 0,9.6 -24.855,0 0,-9.6 z"
         inkscape:connector-curvature="0"
         id="path338" /></clipPath><clipPath
       id="clipPath344"><path
         d="m 260.9,581.59 24.864,0 0,9.6 -24.864,0 0,-9.6 z"
         inkscape:connector-curvature="0"
         id="path346" /></clipPath><clipPath
       id="clipPath356"><path
         d="m 260.9,581.59 24.864,0 0,9.6 -24.864,0 0,-9.6 z"
         inkscape:connector-curvature="0"
         id="path358" /></clipPath><clipPath
       id="clipPath368"><path
         d="m 260.9,581.59 24.864,0 0,9.6 -24.864,0 0,-9.6 z"
         inkscape:connector-curvature="0"
         id="path370" /></clipPath><clipPath
       id="clipPath400"><path
         d="m 449.69,660.79 49.95,0 0,21.255 -49.95,0 0,-21.255 z"
         inkscape:connector-curvature="0"
         id="path402" /></clipPath><clipPath
       id="clipPath408"><path
         d="m 449.69,660.79 49.944,0 0,21.264 -49.944,0 0,-21.264 z"
         inkscape:connector-curvature="0"
         id="path410" /></clipPath><clipPath
       id="clipPath416"><path
         d="m 449.69,660.79 49.944,0 0,21.264 -49.944,0 0,-21.264 z"
         inkscape:connector-curvature="0"
         id="path418" /></clipPath><clipPath
       id="clipPath428"><path
         d="m 449.69,660.79 49.944,0 0,21.264 -49.944,0 0,-21.264 z"
         inkscape:connector-curvature="0"
         id="path430" /></clipPath><clipPath
       id="clipPath440"><path
         d="m 449.69,660.79 49.944,0 0,21.264 -49.944,0 0,-21.264 z"
         inkscape:connector-curvature="0"
         id="path442" /></clipPath><clipPath
       id="clipPath452"><path
         d="m 408.41,622.63 27.96,0 0,12 -27.96,0 0,-12 z"
         inkscape:connector-curvature="0"
         id="path454" /></clipPath><clipPath
       id="clipPath460"><path
         d="m 408.41,622.63 27.96,0 0,12 -27.96,0 0,-12 z"
         inkscape:connector-curvature="0"
         id="path462" /></clipPath><clipPath
       id="clipPath472"><path
         d="m 408.41,622.63 27.96,0 0,12 -27.96,0 0,-12 z"
         inkscape:connector-curvature="0"
         id="path474" /></clipPath></defs><g
     transform="matrix(1.25,0,0,-1.25,-120.78125,853.03125)"
     id="g10"><path
       d="m 359.4,554.6 4.55,0 0,9.4 -4.55,0 0,-9.4 z"
       inkscape:connector-curvature="0"
       id="path12"
       style="fill:#ffffff;fill-opacity:1;fill-rule:evenodd;stroke:none" /><path
       d="m 359.4,554.6 4.55,0 0,9.4 -4.55,0 0,-9.4 z"
       inkscape:connector-curvature="0"
       id="path14"
       style="fill:none;stroke:#000000;stroke-width:0.75;stroke-linecap:round;stroke-linejoin:miter;stroke-miterlimit:10;stroke-opacity:1;stroke-dasharray:none" /><path
       d="m 359.4,526.8 4.55,0 0,9.4 -4.55,0 0,-9.4 z"
       inkscape:connector-curvature="0"
       id="path16"
       style="fill:#ffffff;fill-opacity:1;fill-rule:evenodd;stroke:none" /><path
       d="m 359.4,526.8 4.55,0 0,9.4 -4.55,0 0,-9.4 z"
       inkscape:connector-curvature="0"
       id="path18"
       style="fill:none;stroke:#000000;stroke-width:0.75;stroke-linecap:round;stroke-linejoin:miter;stroke-miterlimit:10;stroke-opacity:1;stroke-dasharray:none" /><path
       d="m 242.9,596 4.55,0 0,9.4 -4.55,0 0,-9.4 z"
       inkscape:connector-curvature="0"
       id="path20"
       style="fill:#ffffff;fill-opacity:1;fill-rule:evenodd;stroke:none" /><path
       d="m 242.9,596 4.55,0 0,9.4 -4.55,0 0,-9.4 z"
       inkscape:connector-curvature="0"
       id="path22"
       style="fill:none;stroke:#000000;stroke-width:0.75;stroke-linecap:round;stroke-linejoin:miter;stroke-miterlimit:10;stroke-opacity:1;stroke-dasharray:none" /><path
       d="m 242.9,568.2 4.55,0 0,9.4 -4.55,0 0,-9.4 z"
       inkscape:connector-curvature="0"
       id="path24"
       style="fill:#ffffff;fill-opacity:1;fill-rule:evenodd;stroke:none" /><path
       d="m 242.9,568.2 4.55,0 0,9.4 -4.55,0 0,-9.4 z"
       inkscape:connector-curvature="0"
       id="path26"
       style="fill:none;stroke:#000000;stroke-width:0.75;stroke-linecap:round;stroke-linejoin:miter;stroke-miterlimit:10;stroke-opacity:1;stroke-dasharray:none" /><path
       d="m 97,660.65 55.05,0 0,21.4 -55.05,0 0,-21.4 z"
       inkscape:connector-curvature="0"
       id="path28"
       style="fill:#ffffff;fill-opacity:1;fill-rule:evenodd;stroke:none" /><path
       d="m 97,660.65 55.05,0 0,21.4 -55.05,0 0,-21.4 z"
       inkscape:connector-curvature="0"
       id="path30"
       style="fill:none;stroke:#000000;stroke-width:0.75;stroke-linecap:round;stroke-linejoin:miter;stroke-miterlimit:10;stroke-opacity:1;stroke-dasharray:none" /><g
       id="g32"><g
         clip-path="url(#clipPath36)"
         id="g34"><g
           id="g40"><g
             clip-path="url(#clipPath44)"
             id="g42" /></g><g
           id="g48"><g
             clip-path="url(#clipPath52)"
             id="g50"><text
   transform="matrix(1,0,0,-1,108.38,668.74)"
   id="text56"><tspan
     x="0"
     y="0"
     id="tspan58"
     style="font-size:12px;font-variant:normal;font-weight:normal;writing-mode:lr-tb;fill:#000000;fill-opacity:1;fill-rule:nonzero;stroke:none;font-family:Helvetica;-inkscape-font-specification:Helvetica">:</tspan></text>

</g></g><g
           id="g60"><g
             clip-path="url(#clipPath64)"
             id="g62"><text
   transform="matrix(1,0,0,-1,111.74,668.74)"
   id="text68"><tspan
     x="0 7.7887201 13.32648 18.8244 20.98572 23.256599"
     y="0"
     id="tspan70"
     style="font-size:9.96000004px;font-variant:normal;font-weight:normal;writing-mode:lr-tb;fill:#000000;fill-opacity:1;fill-rule:nonzero;stroke:none;font-family:Helvetica;-inkscape-font-specification:Helvetica">Quelle</tspan></text>

</g></g><g
           id="g72"><g
             clip-path="url(#clipPath76)"
             id="g74" /></g></g></g><path
       d="m 215.1,660.65 55.15,0 0,21.4 -55.15,0 0,-21.4 z"
       inkscape:connector-curvature="0"
       id="path80"
       style="fill:#ffffff;fill-opacity:1;fill-rule:evenodd;stroke:none" /><path
       d="m 215.1,660.65 55.15,0 0,21.4 -55.15,0 0,-21.4 z"
       inkscape:connector-curvature="0"
       id="path82"
       style="fill:none;stroke:#000000;stroke-width:0.75;stroke-linecap:round;stroke-linejoin:miter;stroke-miterlimit:10;stroke-opacity:1;stroke-dasharray:none" /><g
       id="g84"><g
         clip-path="url(#clipPath88)"
         id="g86"><g
           id="g92"><g
             clip-path="url(#clipPath96)"
             id="g94" /></g><g
           id="g100"><g
             clip-path="url(#clipPath104)"
             id="g102"><text
   transform="matrix(1,0,0,-1,226.94,668.74)"
   id="text108"><tspan
     x="0"
     y="0"
     id="tspan110"
     style="font-size:12px;font-variant:normal;font-weight:normal;writing-mode:lr-tb;fill:#000000;fill-opacity:1;fill-rule:nonzero;stroke:none;font-family:Helvetica;-inkscape-font-specification:Helvetica">:</tspan></text>

</g></g><g
           id="g112"><g
             clip-path="url(#clipPath116)"
             id="g114"><text
   transform="matrix(1,0,0,-1,230.3,668.74)"
   id="text120"><tspan
     x="0 6.1054802 8.2667999 10.42812 13.197 18.73476 22.051439"
     y="0"
     id="tspan122"
     style="font-size:9.96000004px;font-variant:normal;font-weight:normal;writing-mode:lr-tb;fill:#000000;fill-opacity:1;fill-rule:nonzero;stroke:none;font-family:Helvetica;-inkscape-font-specification:Helvetica">Filter1</tspan></text>

</g></g><g
           id="g124"><g
             clip-path="url(#clipPath128)"
             id="g126" /></g></g></g><path
       d="m 331.15,660.65 55.15,0 0,21.4 -55.15,0 0,-21.4 z"
       inkscape:connector-curvature="0"
       id="path132"
       style="fill:#ffffff;fill-opacity:1;fill-rule:evenodd;stroke:none" /><path
       d="m 331.15,660.65 55.15,0 0,21.4 -55.15,0 0,-21.4 z"
       inkscape:connector-curvature="0"
       id="path134"
       style="fill:none;stroke:#000000;stroke-width:0.75;stroke-linecap:round;stroke-linejoin:miter;stroke-miterlimit:10;stroke-opacity:1;stroke-dasharray:none" /><g
       id="g136"><g
         clip-path="url(#clipPath140)"
         id="g138"><g
           id="g144"><g
             clip-path="url(#clipPath148)"
             id="g146" /></g><g
           id="g152"><g
             clip-path="url(#clipPath156)"
             id="g154"><text
   transform="matrix(1,0,0,-1,343.25,668.74)"
   id="text160"><tspan
     x="0"
     y="0"
     id="tspan162"
     style="font-size:12px;font-variant:normal;font-weight:normal;writing-mode:lr-tb;fill:#000000;fill-opacity:1;fill-rule:nonzero;stroke:none;font-family:Helvetica;-inkscape-font-specification:Helvetica">:</tspan></text>

</g></g><g
           id="g164"><g
             clip-path="url(#clipPath168)"
             id="g166"><text
   transform="matrix(1,0,0,-1,346.61,668.74)"
   id="text172"><tspan
     x="0 6.1054802 8.2667999 10.42812 13.197 18.73476 22.051439"
     y="0"
     id="tspan174"
     style="font-size:9.96000004px;font-variant:normal;font-weight:normal;writing-mode:lr-tb;fill:#000000;fill-opacity:1;fill-rule:nonzero;stroke:none;font-family:Helvetica;-inkscape-font-specification:Helvetica">Filter2</tspan></text>

</g></g><g
           id="g176"><g
             clip-path="url(#clipPath180)"
             id="g178" /></g></g></g><g
       id="g184"><path
         d="M 124.45,660.8 124.5,487"
         inkscape:connector-curvature="0"
         id="path186"
         style="fill:none;stroke:#000000;stroke-width:0.75;stroke-linecap:round;stroke-linejoin:round;stroke-miterlimit:10;stroke-opacity:1;stroke-dasharray:2.25, 3;stroke-dashoffset:0" /></g><g
       id="g188"><path
         d="m 242.8,660.1 0.35,-179.45"
         inkscape:connector-curvature="0"
         id="path190"
         style="fill:none;stroke:#000000;stroke-width:0.75;stroke-linecap:round;stroke-linejoin:round;stroke-miterlimit:10;stroke-opacity:1;stroke-dasharray:2.25, 3;stroke-dashoffset:0" /></g><path
       d="m 238.05,552.15 9.4,0 0,84.4 -9.4,0 0,-84.4 z"
       inkscape:connector-curvature="0"
       id="path192"
       style="fill:#ffffff;fill-opacity:1;fill-rule:evenodd;stroke:none" /><path
       d="m 238.05,552.15 9.4,0 0,84.4 -9.4,0 0,-84.4 z"
       inkscape:connector-curvature="0"
       id="path194"
       style="fill:none;stroke:#000000;stroke-width:0.75;stroke-linecap:round;stroke-linejoin:miter;stroke-miterlimit:10;stroke-opacity:1;stroke-dasharray:none" /><g
       id="g196"><path
         d="m 358.75,660.8 0,-180.15"
         inkscape:connector-curvature="0"
         id="path198"
         style="fill:none;stroke:#000000;stroke-width:0.75;stroke-linecap:round;stroke-linejoin:round;stroke-miterlimit:10;stroke-opacity:1;stroke-dasharray:2.25, 3;stroke-dashoffset:0" /></g><path
       d="m 354.6,515.05 9.35,0 0,129.95 -9.35,0 0,-129.95 z"
       inkscape:connector-curvature="0"
       id="path200"
       style="fill:#ffffff;fill-opacity:1;fill-rule:evenodd;stroke:none" /><path
       d="m 354.6,515.05 9.35,0 0,129.95 -9.35,0 0,-129.95 z"
       inkscape:connector-curvature="0"
       id="path202"
       style="fill:none;stroke:#000000;stroke-width:0.75;stroke-linecap:round;stroke-linejoin:miter;stroke-miterlimit:10;stroke-opacity:1;stroke-dasharray:none" /><path
       d="m 119.2,506.15 10.15,0 0,148.1 -10.15,0 0,-148.1 z"
       inkscape:connector-curvature="0"
       id="path204"
       style="fill:#ffffff;fill-opacity:1;fill-rule:evenodd;stroke:none" /><path
       d="m 119.2,506.15 10.15,0 0,148.1 -10.15,0 0,-148.1 z"
       inkscape:connector-curvature="0"
       id="path206"
       style="fill:none;stroke:#000000;stroke-width:0.75;stroke-linecap:round;stroke-linejoin:miter;stroke-miterlimit:10;stroke-opacity:1;stroke-dasharray:none" /><g
       id="g208"><g
         clip-path="url(#clipPath212)"
         id="g210"><g
           id="g216"><g
             clip-path="url(#clipPath220)"
             id="g218"><text
   transform="matrix(1,0,0,-1,377.93,542.71)"
   id="text224"><tspan
     x="0"
     y="0"
     id="tspan226"
     style="font-size:8.03999996px;font-variant:normal;font-weight:normal;writing-mode:lr-tb;fill:#000000;fill-opacity:1;fill-rule:nonzero;stroke:none;font-family:Helvetica;-inkscape-font-specification:Helvetica">f</tspan></text>

</g></g><g
           id="g228"><g
             clip-path="url(#clipPath232)"
             id="g230"><text
   transform="matrix(1,0,0,-1,380.21,542.71)"
   id="text236"><tspan
     x="0"
     y="0"
     id="tspan238"
     style="font-size:8.03999996px;font-variant:normal;font-weight:normal;writing-mode:lr-tb;fill:#000000;fill-opacity:1;fill-rule:nonzero;stroke:none;font-family:Helvetica;-inkscape-font-specification:Helvetica">2</tspan></text>

</g></g><g
           id="g240"><g
             clip-path="url(#clipPath244)"
             id="g242"><text
   transform="matrix(1,0,0,-1,384.65,542.71)"
   id="text248"><tspan
     x="0 2.6400199"
     y="0"
     id="tspan250"
     style="font-size:8.03999996px;font-variant:normal;font-weight:normal;writing-mode:lr-tb;fill:#000000;fill-opacity:1;fill-rule:nonzero;stroke:none;font-family:Helvetica;-inkscape-font-specification:Helvetica">()</tspan></text>

</g></g><g
           id="g252"><g
             clip-path="url(#clipPath256)"
             id="g254" /></g></g></g><g
       id="g260"><g
         clip-path="url(#clipPath264)"
         id="g262"><g
           id="g268"><g
             clip-path="url(#clipPath272)"
             id="g270"><text
   transform="matrix(1,0,0,-1,173.06,617.95)"
   id="text276"><tspan
     x="0 3.34656 8.8843203 14.38224 19.92 23.236679"
     y="0"
     id="tspan278"
     style="font-size:9.96000004px;font-variant:normal;font-weight:normal;writing-mode:lr-tb;fill:#000000;fill-opacity:1;fill-rule:nonzero;stroke:none;font-family:Helvetica;-inkscape-font-specification:Helvetica">read()</tspan></text>

</g></g><g
           id="g280"><g
             clip-path="url(#clipPath284)"
             id="g282" /></g></g></g><g
       id="g288"><g
         clip-path="url(#clipPath292)"
         id="g290"><g
           id="g296"><g
             clip-path="url(#clipPath300)"
             id="g298"><text
   transform="matrix(1,0,0,-1,285.89,620.95)"
   id="text304"><tspan
     x="0 3.34656 8.8843203 14.38224 19.92 23.236679"
     y="0"
     id="tspan306"
     style="font-size:9.96000004px;font-variant:normal;font-weight:normal;writing-mode:lr-tb;fill:#000000;fill-opacity:1;fill-rule:nonzero;stroke:none;font-family:Helvetica;-inkscape-font-specification:Helvetica">read()</tspan></text>

</g></g><g
           id="g308"><g
             clip-path="url(#clipPath312)"
             id="g310" /></g></g></g><path
       d="m 243.15,586.75 9.35,0 0,9.4 -9.35,0 0,-9.4 z"
       inkscape:connector-curvature="0"
       id="path316"
       style="fill:#ffffff;fill-opacity:1;fill-rule:evenodd;stroke:none" /><path
       d="m 243.15,586.75 9.35,0 0,9.4 -9.35,0 0,-9.4 z"
       inkscape:connector-curvature="0"
       id="path318"
       style="fill:none;stroke:#000000;stroke-width:0.75;stroke-linecap:round;stroke-linejoin:miter;stroke-miterlimit:10;stroke-opacity:1;stroke-dasharray:none" /><path
       d="m 247.35,600.85 23.55,0 0,-9.3 -10.75,0"
       inkscape:connector-curvature="0"
       id="path320"
       style="fill:none;stroke:#000000;stroke-width:0.75;stroke-linecap:round;stroke-linejoin:round;stroke-miterlimit:10;stroke-opacity:1;stroke-dasharray:none" /><path
       d="m 260.55,595.55 -8.05,-4.1 8.05,-3.95 0,8.05 z"
       inkscape:connector-curvature="0"
       id="path322"
       style="fill:#000000;fill-opacity:1;fill-rule:evenodd;stroke:none" /><path
       d="m 243.15,577.5 9.35,0 0,9.4 -9.35,0 0,-9.4 z"
       inkscape:connector-curvature="0"
       id="path324"
       style="fill:#ffffff;fill-opacity:1;fill-rule:evenodd;stroke:none" /><path
       d="m 243.15,577.5 9.35,0 0,9.4 -9.35,0 0,-9.4 z"
       inkscape:connector-curvature="0"
       id="path326"
       style="fill:none;stroke:#000000;stroke-width:0.75;stroke-linecap:round;stroke-linejoin:miter;stroke-miterlimit:8;stroke-opacity:1;stroke-dasharray:none" /><path
       d="m 242.9,577.5 9.35,0 0,18.65 -9.35,0 0,-18.65 z"
       inkscape:connector-curvature="0"
       id="path328"
       style="fill:#ffffff;fill-opacity:1;fill-rule:evenodd;stroke:none" /><path
       d="m 242.9,577.5 9.35,0 0,18.65 -9.35,0 0,-18.65 z"
       inkscape:connector-curvature="0"
       id="path330"
       style="fill:none;stroke:#000000;stroke-width:0.75;stroke-linecap:round;stroke-linejoin:miter;stroke-miterlimit:8;stroke-opacity:1;stroke-dasharray:none" /><g
       id="g332"><g
         clip-path="url(#clipPath336)"
         id="g334"><g
           id="g340"><g
             clip-path="url(#clipPath344)"
             id="g342"><text
   transform="matrix(1,0,0,-1,260.9,583.75)"
   id="text348"><tspan
     x="0 2.28002"
     y="0"
     id="tspan350"
     style="font-size:8.03999996px;font-variant:normal;font-weight:normal;writing-mode:lr-tb;fill:#000000;fill-opacity:1;fill-rule:nonzero;stroke:none;font-family:Helvetica;-inkscape-font-specification:Helvetica">f1</tspan></text>

</g></g><g
           id="g352"><g
             clip-path="url(#clipPath356)"
             id="g354"><text
   transform="matrix(1,0,0,-1,267.62,583.75)"
   id="text360"><tspan
     x="0 2.6400199"
     y="0"
     id="tspan362"
     style="font-size:8.03999996px;font-variant:normal;font-weight:normal;writing-mode:lr-tb;fill:#000000;fill-opacity:1;fill-rule:nonzero;stroke:none;font-family:Helvetica;-inkscape-font-specification:Helvetica">()</tspan></text>

</g></g><g
           id="g364"><g
             clip-path="url(#clipPath368)"
             id="g366" /></g></g></g><path
       d="m 359.65,536.05 9.35,0 0,9.4 -9.35,0 0,-9.4 z"
       inkscape:connector-curvature="0"
       id="path372"
       style="fill:#ffffff;fill-opacity:1;fill-rule:evenodd;stroke:none" /><path
       d="m 359.65,536.05 9.35,0 0,9.4 -9.35,0 0,-9.4 z"
       inkscape:connector-curvature="0"
       id="path374"
       style="fill:none;stroke:#000000;stroke-width:0.75;stroke-linecap:round;stroke-linejoin:miter;stroke-miterlimit:8;stroke-opacity:1;stroke-dasharray:none" /><path
       d="m 359.65,545.35 9.35,0 0,9.4 -9.35,0 0,-9.4 z"
       inkscape:connector-curvature="0"
       id="path376"
       style="fill:#ffffff;fill-opacity:1;fill-rule:evenodd;stroke:none" /><path
       d="m 359.65,545.35 9.35,0 0,9.4 -9.35,0 0,-9.4 z"
       inkscape:connector-curvature="0"
       id="path378"
       style="fill:none;stroke:#000000;stroke-width:0.75;stroke-linecap:round;stroke-linejoin:miter;stroke-miterlimit:8;stroke-opacity:1;stroke-dasharray:none" /><path
       d="m 363.85,559.45 23.55,0 0,-9.3 -10.75,0"
       inkscape:connector-curvature="0"
       id="path380"
       style="fill:none;stroke:#000000;stroke-width:0.75;stroke-linecap:round;stroke-linejoin:round;stroke-miterlimit:8;stroke-opacity:1;stroke-dasharray:none" /><path
       d="m 377.05,554.1 -8.05,-3.95 8.05,-4.05 0,8 z"
       inkscape:connector-curvature="0"
       id="path382"
       style="fill:#000000;fill-opacity:1;fill-rule:evenodd;stroke:none" /><path
       d="m 359.75,535.95 9.4,0 0,18.65 -9.4,0 0,-18.65 z"
       inkscape:connector-curvature="0"
       id="path384"
       style="fill:#ffffff;fill-opacity:1;fill-rule:evenodd;stroke:none" /><path
       d="m 359.75,535.95 9.4,0 0,18.65 -9.4,0 0,-18.65 z"
       inkscape:connector-curvature="0"
       id="path386"
       style="fill:none;stroke:#000000;stroke-width:0.75;stroke-linecap:round;stroke-linejoin:miter;stroke-miterlimit:8;stroke-opacity:1;stroke-dasharray:none" /><g
       id="g388"><path
         d="m 477.15,661.3 0,-176.7"
         inkscape:connector-curvature="0"
         id="path390"
         style="fill:none;stroke:#000000;stroke-width:0.75;stroke-linecap:round;stroke-linejoin:round;stroke-miterlimit:8;stroke-opacity:1;stroke-dasharray:2.25, 3;stroke-dashoffset:0" /></g><path
       d="m 446.25,660.65 56.9,0 0,21.4 -56.9,0 0,-21.4 z"
       inkscape:connector-curvature="0"
       id="path392"
       style="fill:#ffffff;fill-opacity:1;fill-rule:evenodd;stroke:none" /><path
       d="m 446.25,660.65 56.9,0 0,21.4 -56.9,0 0,-21.4 z"
       inkscape:connector-curvature="0"
       id="path394"
       style="fill:none;stroke:#000000;stroke-width:0.75;stroke-linecap:round;stroke-linejoin:miter;stroke-miterlimit:8;stroke-opacity:1;stroke-dasharray:none" /><g
       id="g396"><g
         clip-path="url(#clipPath400)"
         id="g398"><g
           id="g404"><g
             clip-path="url(#clipPath408)"
             id="g406" /></g><g
           id="g412"><g
             clip-path="url(#clipPath416)"
             id="g414"><text
   transform="matrix(1,0,0,-1,458.81,668.74)"
   id="text420"><tspan
     x="0"
     y="0"
     id="tspan422"
     style="font-size:12px;font-variant:normal;font-weight:normal;writing-mode:lr-tb;fill:#000000;fill-opacity:1;fill-rule:nonzero;stroke:none;font-family:Helvetica;-inkscape-font-specification:Helvetica">:</tspan></text>

</g></g><g
           id="g424"><g
             clip-path="url(#clipPath428)"
             id="g426"><text
   transform="matrix(1,0,0,-1,462.17,668.74)"
   id="text432"><tspan
     x="0 6.6034799 12.14124 17.63916 22.788481"
     y="0"
     id="tspan434"
     style="font-size:9.96000004px;font-variant:normal;font-weight:normal;writing-mode:lr-tb;fill:#000000;fill-opacity:1;fill-rule:nonzero;stroke:none;font-family:Helvetica;-inkscape-font-specification:Helvetica">Senke</tspan></text>

</g></g><g
           id="g436"><g
             clip-path="url(#clipPath440)"
             id="g438" /></g></g></g><path
       d="m 472.15,506.4 9.4,0 0,147.85 -9.4,0 0,-147.85 z"
       inkscape:connector-curvature="0"
       id="path444"
       style="fill:#ffffff;fill-opacity:1;fill-rule:evenodd;stroke:none" /><path
       d="m 472.15,506.4 9.4,0 0,147.85 -9.4,0 0,-147.85 z"
       inkscape:connector-curvature="0"
       id="path446"
       style="fill:none;stroke:#000000;stroke-width:0.75;stroke-linecap:round;stroke-linejoin:miter;stroke-miterlimit:8;stroke-opacity:1;stroke-dasharray:none" /><g
       id="g448"><g
         clip-path="url(#clipPath452)"
         id="g450"><g
           id="g456"><g
             clip-path="url(#clipPath460)"
             id="g458"><text
   transform="matrix(1,0,0,-1,408.41,625.39)"
   id="text464"><tspan
     x="0 3.34656 8.8843203 14.38224 19.92 23.236679"
     y="0"
     id="tspan466"
     style="font-size:9.96000004px;font-variant:normal;font-weight:normal;writing-mode:lr-tb;fill:#000000;fill-opacity:1;fill-rule:nonzero;stroke:none;font-family:Helvetica;-inkscape-font-specification:Helvetica">read()</tspan></text>

</g></g><g
           id="g468"><g
             clip-path="url(#clipPath472)"
             id="g470" /></g></g></g><path
       d="m 365.25,524.75 7,0 c 0.28,0 0.5,-0.22 0.5,-0.5 0,-0.28 -0.22,-0.5 -0.5,-0.5 l -7,0 c -0.28,0 -0.5,0.22 -0.5,0.5 0,0.28 0.22,0.5 0.5,0.5 z m 11,0 7,0 c 0.28,0 0.5,-0.22 0.5,-0.5 0,-0.28 -0.22,-0.5 -0.5,-0.5 l -7,0 c -0.28,0 -0.5,0.22 -0.5,0.5 0,0.28 0.22,0.5 0.5,0.5 z m 11,0 7,0 c 0.28,0 0.5,-0.22 0.5,-0.5 0,-0.28 -0.22,-0.5 -0.5,-0.5 l -7,0 c -0.28,0 -0.5,0.22 -0.5,0.5 0,0.28 0.22,0.5 0.5,0.5 z m 11,0 7,0 c 0.28,0 0.5,-0.22 0.5,-0.5 0,-0.28 -0.22,-0.5 -0.5,-0.5 l -7,0 c -0.28,0 -0.5,0.22 -0.5,0.5 0,0.28 0.22,0.5 0.5,0.5 z m 11,0 7,0 c 0.28,0 0.5,-0.22 0.5,-0.5 0,-0.28 -0.22,-0.5 -0.5,-0.5 l -7,0 c -0.28,0 -0.5,0.22 -0.5,0.5 0,0.28 0.22,0.5 0.5,0.5 z m 11,0 7,0 c 0.28,0 0.5,-0.22 0.5,-0.5 0,-0.28 -0.22,-0.5 -0.5,-0.5 l -7,0 c -0.28,0 -0.5,0.22 -0.5,0.5 0,0.28 0.22,0.5 0.5,0.5 z m 11,0 7,0 c 0.28,0 0.5,-0.22 0.5,-0.5 0,-0.28 -0.22,-0.5 -0.5,-0.5 l -7,0 c -0.28,0 -0.5,0.22 -0.5,0.5 0,0.28 0.22,0.5 0.5,0.5 z m 11,0 7,0 c 0.28,0 0.5,-0.22 0.5,-0.5 0,-0.28 -0.22,-0.5 -0.5,-0.5 l -7,0 c -0.28,0 -0.5,0.22 -0.5,0.5 0,0.28 0.22,0.5 0.5,0.5 z m 11,0 7,0 c 0.28,0 0.5,-0.22 0.5,-0.5 0,-0.28 -0.22,-0.5 -0.5,-0.5 l -7,0 c -0.28,0 -0.5,0.22 -0.5,0.5 0,0.28 0.22,0.5 0.5,0.5 z m 11,0 5.5,0 c 0.28,0 0.5,-0.22 0.5,-0.5 0,-0.28 -0.22,-0.5 -0.5,-0.5 l -5.5,0 c -0.28,0 -0.5,0.22 -0.5,0.5 0,0.28 0.22,0.5 0.5,0.5 z m -0.18,4.88 6.46,-5.38 -6.46,-5.38 c -0.21,-0.18 -0.53,-0.15 -0.7,0.06 -0.18,0.21 -0.15,0.53 0.06,0.7 l 6,5 0,-0.76 -6,5 c -0.21,0.17 -0.24,0.49 -0.06,0.7 0.17,0.21 0.49,0.24 0.7,0.06 z"
       inkscape:connector-curvature="0"
       id="path476"
       style="fill:#000000;fill-opacity:1;fill-rule:nonzero;stroke:none" /><path
       d="m 130.5,606.5 7,0 c 0.28,0 0.5,-0.22 0.5,-0.5 0,-0.28 -0.22,-0.5 -0.5,-0.5 l -7,0 c -0.28,0 -0.5,0.22 -0.5,0.5 0,0.28 0.22,0.5 0.5,0.5 z m 11,0 7,0 c 0.28,0 0.5,-0.22 0.5,-0.5 0,-0.28 -0.22,-0.5 -0.5,-0.5 l -7,0 c -0.28,0 -0.5,0.22 -0.5,0.5 0,0.28 0.22,0.5 0.5,0.5 z m 11,0 7,0 c 0.28,0 0.5,-0.22 0.5,-0.5 0,-0.28 -0.22,-0.5 -0.5,-0.5 l -7,0 c -0.28,0 -0.5,0.22 -0.5,0.5 0,0.28 0.22,0.5 0.5,0.5 z m 11,0 7,0 c 0.28,0 0.5,-0.22 0.5,-0.5 0,-0.28 -0.22,-0.5 -0.5,-0.5 l -7,0 c -0.28,0 -0.5,0.22 -0.5,0.5 0,0.28 0.22,0.5 0.5,0.5 z m 11,0 7,0 c 0.28,0 0.5,-0.22 0.5,-0.5 0,-0.28 -0.22,-0.5 -0.5,-0.5 l -7,0 c -0.28,0 -0.5,0.22 -0.5,0.5 0,0.28 0.22,0.5 0.5,0.5 z m 11,0 7,0 c 0.28,0 0.5,-0.22 0.5,-0.5 0,-0.28 -0.22,-0.5 -0.5,-0.5 l -7,0 c -0.28,0 -0.5,0.22 -0.5,0.5 0,0.28 0.22,0.5 0.5,0.5 z m 11,0 7,0 c 0.28,0 0.5,-0.22 0.5,-0.5 0,-0.28 -0.22,-0.5 -0.5,-0.5 l -7,0 c -0.28,0 -0.5,0.22 -0.5,0.5 0,0.28 0.22,0.5 0.5,0.5 z m 11,0 7,0 c 0.28,0 0.5,-0.22 0.5,-0.5 0,-0.28 -0.22,-0.5 -0.5,-0.5 l -7,0 c -0.28,0 -0.5,0.22 -0.5,0.5 0,0.28 0.22,0.5 0.5,0.5 z m 11,0 7,0 c 0.28,0 0.5,-0.22 0.5,-0.5 0,-0.28 -0.22,-0.5 -0.5,-0.5 l -7,0 c -0.28,0 -0.5,0.22 -0.5,0.5 0,0.28 0.22,0.5 0.5,0.5 z m 11,0 5.5,0 c 0.28,0 0.5,-0.22 0.5,-0.5 0,-0.28 -0.22,-0.5 -0.5,-0.5 l -5.5,0 c -0.28,0 -0.5,0.22 -0.5,0.5 0,0.28 0.22,0.5 0.5,0.5 z m -0.18,4.88 6.46,-5.38 -6.46,-5.38 c -0.21,-0.18 -0.53,-0.15 -0.7,0.06 -0.18,0.21 -0.15,0.53 0.06,0.7 l 6,5 0,-0.76 -6,5 c -0.21,0.17 -0.24,0.49 -0.06,0.7 0.17,0.21 0.49,0.24 0.7,0.06 z"
       inkscape:connector-curvature="0"
       id="path478"
       style="fill:#000000;fill-opacity:1;fill-rule:nonzero;stroke:none" /><path
       d="m 247.5,562.25 7,0 c 0.28,0 0.5,-0.22 0.5,-0.5 0,-0.28 -0.22,-0.5 -0.5,-0.5 l -7,0 c -0.28,0 -0.5,0.22 -0.5,0.5 0,0.28 0.22,0.5 0.5,0.5 z m 11,0 7,0 c 0.28,0 0.5,-0.22 0.5,-0.5 0,-0.28 -0.22,-0.5 -0.5,-0.5 l -7,0 c -0.28,0 -0.5,0.22 -0.5,0.5 0,0.28 0.22,0.5 0.5,0.5 z m 11,0 7,0 c 0.28,0 0.5,-0.22 0.5,-0.5 0,-0.28 -0.22,-0.5 -0.5,-0.5 l -7,0 c -0.28,0 -0.5,0.22 -0.5,0.5 0,0.28 0.22,0.5 0.5,0.5 z m 11,0 7,0 c 0.28,0 0.5,-0.22 0.5,-0.5 0,-0.28 -0.22,-0.5 -0.5,-0.5 l -7,0 c -0.28,0 -0.5,0.22 -0.5,0.5 0,0.28 0.22,0.5 0.5,0.5 z m 11,0 7,0 c 0.28,0 0.5,-0.22 0.5,-0.5 0,-0.28 -0.22,-0.5 -0.5,-0.5 l -7,0 c -0.28,0 -0.5,0.22 -0.5,0.5 0,0.28 0.22,0.5 0.5,0.5 z m 11,0 7,0 c 0.28,0 0.5,-0.22 0.5,-0.5 0,-0.28 -0.22,-0.5 -0.5,-0.5 l -7,0 c -0.28,0 -0.5,0.22 -0.5,0.5 0,0.28 0.22,0.5 0.5,0.5 z m 11,0 7,0 c 0.28,0 0.5,-0.22 0.5,-0.5 0,-0.28 -0.22,-0.5 -0.5,-0.5 l -7,0 c -0.28,0 -0.5,0.22 -0.5,0.5 0,0.28 0.22,0.5 0.5,0.5 z m 11,0 7,0 c 0.28,0 0.5,-0.22 0.5,-0.5 0,-0.28 -0.22,-0.5 -0.5,-0.5 l -7,0 c -0.28,0 -0.5,0.22 -0.5,0.5 0,0.28 0.22,0.5 0.5,0.5 z m 11,0 7,0 c 0.28,0 0.5,-0.22 0.5,-0.5 0,-0.28 -0.22,-0.5 -0.5,-0.5 l -7,0 c -0.28,0 -0.5,0.22 -0.5,0.5 0,0.28 0.22,0.5 0.5,0.5 z m 11,0 5.5,0 c 0.28,0 0.5,-0.22 0.5,-0.5 0,-0.28 -0.22,-0.5 -0.5,-0.5 l -5.5,0 c -0.28,0 -0.5,0.22 -0.5,0.5 0,0.28 0.22,0.5 0.5,0.5 z m -0.18,4.88 6.46,-5.38 -6.46,-5.38 c -0.21,-0.18 -0.53,-0.15 -0.7,0.06 -0.18,0.21 -0.15,0.53 0.06,0.7 l 6,5 0,-0.76 -6,5 c -0.21,0.17 -0.24,0.49 -0.06,0.7 0.17,0.21 0.49,0.24 0.7,0.06 z"
       inkscape:connector-curvature="0"
       id="path480"
       style="fill:#000000;fill-opacity:1;fill-rule:nonzero;stroke:none" /><path
       d="m 449.7,682.05 0,-20.75"
       inkscape:connector-curvature="0"
       id="path482"
       style="fill:none;stroke:#000000;stroke-width:0.75;stroke-linecap:round;stroke-linejoin:round;stroke-miterlimit:8;stroke-opacity:1;stroke-dasharray:none" /><path
       d="m 499.6,681.4 0,-20.75"
       inkscape:connector-curvature="0"
       id="path484"
       style="fill:none;stroke:#000000;stroke-width:0.75;stroke-linecap:round;stroke-linejoin:round;stroke-miterlimit:8;stroke-opacity:1;stroke-dasharray:none" /><path
       d="m 371.55,636.7 100,0"
       inkscape:connector-curvature="0"
       id="path486"
       style="fill:none;stroke:#000000;stroke-width:0.75;stroke-linecap:round;stroke-linejoin:round;stroke-miterlimit:8;stroke-opacity:1;stroke-dasharray:none" /><path
       d="m 371.9,640.65 -7.95,-3.95 7.95,-4.1 0,8.05 z"
       inkscape:connector-curvature="0"
       id="path488"
       style="fill:#000000;fill-opacity:1;fill-rule:evenodd;stroke:none" /><path
       d="m 255.4,631.95 99.2,0"
       inkscape:connector-curvature="0"
       id="path490"
       style="fill:none;stroke:#000000;stroke-width:0.75;stroke-linecap:round;stroke-linejoin:round;stroke-miterlimit:8;stroke-opacity:1;stroke-dasharray:none" /><path
       d="m 255.75,635.55 -8.4,-3.67 8.4,-3.58 0,7.25 z"
       inkscape:connector-curvature="0"
       id="path492"
       style="fill:#000000;fill-opacity:1;fill-rule:evenodd;stroke:none" /><path
       d="m 136.9,628.2 101.15,0"
       inkscape:connector-curvature="0"
       id="path494"
       style="fill:none;stroke:#000000;stroke-width:0.75;stroke-linecap:round;stroke-linejoin:round;stroke-miterlimit:8;stroke-opacity:1;stroke-dasharray:none" /><path
       d="m 137.25,631.8 -8.4,-3.67 8.4,-3.58 0,7.25 z"
       inkscape:connector-curvature="0"
       id="path496"
       style="fill:#000000;fill-opacity:1;fill-rule:evenodd;stroke:none" /></g></svg>