<?xml version="1.0" encoding="UTF-8" standalone="no"?>
<!-- Created with Inkscape (http://www.inkscape.org/) -->

<svg
   xmlns:dc="http://purl.org/dc/elements/1.1/"
   xmlns:cc="http://creativecommons.org/ns#"
   xmlns:rdf="http://www.w3.org/1999/02/22-rdf-syntax-ns#"
   xmlns:svg="http://www.w3.org/2000/svg"
   xmlns="http://www.w3.org/2000/svg"
   xmlns:sodipodi="http://sodipodi.sourceforge.net/DTD/sodipodi-0.dtd"
   xmlns:inkscape="http://www.inkscape.org/namespaces/inkscape"
   version="1.1"
   width="269.0625"
   height="166.5"
   id="svg2"
   xml:space="preserve"
   inkscape:version="0.48.4 r9939"
   sodipodi:docname="Bild 5-28 Erzeugung von Stub und Skeleton.svg"><sodipodi:namedview
     pagecolor="#ffffff"
     bordercolor="#666666"
     borderopacity="1"
     objecttolerance="10"
     gridtolerance="10"
     guidetolerance="10"
     inkscape:pageopacity="0"
     inkscape:pageshadow="2"
     inkscape:window-width="640"
     inkscape:window-height="480"
     id="namedview103"
     showgrid="false"
     inkscape:zoom="0.18730159"
     inkscape:cx="-20.71875"
     inkscape:cy="81.65625"
     inkscape:window-x="0"
     inkscape:window-y="0"
     inkscape:window-maximized="0"
     inkscape:current-layer="svg2" /><metadata
     id="metadata8"><rdf:RDF><cc:Work
         rdf:about=""><dc:format>image/svg+xml</dc:format><dc:type
           rdf:resource="http://purl.org/dc/dcmitype/StillImage" /></cc:Work></rdf:RDF></metadata><defs
     id="defs6"><clipPath
       id="clipPath20"><path
         d="m 521.72,442.99 93.24,0 0,17.64 -93.24,0 0,-17.64 z"
         inkscape:connector-curvature="0"
         id="path22" /></clipPath><clipPath
       id="clipPath28"><path
         d="m 521.71,442.99 93.24,0 0,17.64 -93.24,0 0,-17.64 z"
         inkscape:connector-curvature="0"
         id="path30" /></clipPath><clipPath
       id="clipPath40"><path
         d="m 521.71,442.99 93.24,0 0,17.64 -93.24,0 0,-17.64 z"
         inkscape:connector-curvature="0"
         id="path42" /></clipPath><clipPath
       id="clipPath48"><path
         d="m 521.71,442.99 93.24,0 0,17.64 -93.24,0 0,-17.64 z"
         inkscape:connector-curvature="0"
         id="path50" /></clipPath><clipPath
       id="clipPath60"><path
         d="m 639.32,443.35 96.135,0 0,17.64 -96.135,0 0,-17.64 z"
         inkscape:connector-curvature="0"
         id="path62" /></clipPath><clipPath
       id="clipPath68"><path
         d="m 639.31,443.35 96.144,0 0,17.64 -96.144,0 0,-17.64 z"
         inkscape:connector-curvature="0"
         id="path70" /></clipPath><clipPath
       id="clipPath80"><path
         d="m 639.31,443.35 96.144,0 0,17.64 -96.144,0 0,-17.64 z"
         inkscape:connector-curvature="0"
         id="path82" /></clipPath><clipPath
       id="clipPath88"><path
         d="m 639.31,443.35 96.144,0 0,17.64 -96.144,0 0,-17.64 z"
         inkscape:connector-curvature="0"
         id="path90" /></clipPath><clipPath
       id="clipPath96"><path
         d="m 639.31,443.35 96.144,0 0,17.64 -96.144,0 0,-17.64 z"
         inkscape:connector-curvature="0"
         id="path98" /></clipPath><clipPath
       id="clipPath108"><path
         d="m 581.72,549.79 93.255,0 0,17.64 -93.255,0 0,-17.64 z"
         inkscape:connector-curvature="0"
         id="path110" /></clipPath><clipPath
       id="clipPath116"><path
         d="m 581.71,549.79 93.264,0 0,17.64 -93.264,0 0,-17.64 z"
         inkscape:connector-curvature="0"
         id="path118" /></clipPath><clipPath
       id="clipPath128"><path
         d="m 581.71,549.79 93.264,0 0,17.64 -93.264,0 0,-17.64 z"
         inkscape:connector-curvature="0"
         id="path130" /></clipPath><clipPath
       id="clipPath144"><path
         d="m 585.92,492.31 85.575,0 0,21.24 -85.575,0 0,-21.24 z"
         inkscape:connector-curvature="0"
         id="path146" /></clipPath><clipPath
       id="clipPath152"><path
         d="m 585.91,492.31 85.584,0 0,21.24 -85.584,0 0,-21.24 z"
         inkscape:connector-curvature="0"
         id="path154" /></clipPath><clipPath
       id="clipPath164"><path
         d="m 585.91,492.31 85.584,0 0,21.24 -85.584,0 0,-21.24 z"
         inkscape:connector-curvature="0"
         id="path166" /></clipPath><clipPath
       id="clipPath176"><path
         d="m 585.91,492.31 85.584,0 0,21.24 -85.584,0 0,-21.24 z"
         inkscape:connector-curvature="0"
         id="path178" /></clipPath><clipPath
       id="clipPath188"><path
         d="m 585.91,492.31 85.584,0 0,21.24 -85.584,0 0,-21.24 z"
         inkscape:connector-curvature="0"
         id="path190" /></clipPath><clipPath
       id="clipPath200"><path
         d="m 585.91,492.31 85.584,0 0,21.24 -85.584,0 0,-21.24 z"
         inkscape:connector-curvature="0"
         id="path202" /></clipPath></defs><g
     transform="matrix(1.25,0,0,-1.25,-651.09375,714.84375)"
     id="g10"><path
       d="m 521.25,439.05 94.05,0 0,25.65 -94.05,0 0,-25.65 z"
       inkscape:connector-curvature="0"
       id="path12"
       style="fill:#ffffff;fill-opacity:1;fill-rule:evenodd;stroke:none" /><path
       d="m 521.25,439.05 94.05,0 0,25.65 -94.05,0 0,-25.65 z"
       inkscape:connector-curvature="0"
       id="path14"
       style="fill:none;stroke:#000000;stroke-width:0.75;stroke-linecap:round;stroke-linejoin:miter;stroke-miterlimit:10;stroke-opacity:1;stroke-dasharray:none" /><g
       id="g16"><g
         clip-path="url(#clipPath20)"
         id="g18"><g
           id="g24"><g
             clip-path="url(#clipPath28)"
             id="g26"><text
   transform="matrix(1,0,0,-1,555.91,449.59)"
   id="text32"><tspan
     x="0 8.0279999 11.364 18.096001"
     y="0"
     id="tspan34"
     style="font-size:12px;font-variant:normal;font-weight:normal;writing-mode:lr-tb;fill:#000000;fill-opacity:1;fill-rule:nonzero;stroke:none;font-family:Helvetica;-inkscape-font-specification:Helvetica">Stub</tspan></text>

</g></g><g
           id="g36"><g
             clip-path="url(#clipPath40)"
             id="g38" /></g><g
           id="g44"><g
             clip-path="url(#clipPath48)"
             id="g46" /></g></g></g><path
       d="m 638.85,439.35 96.9,0 0,25.65 -96.9,0 0,-25.65 z"
       inkscape:connector-curvature="0"
       id="path52"
       style="fill:#ffffff;fill-opacity:1;fill-rule:evenodd;stroke:none" /><path
       d="m 638.85,439.35 96.9,0 0,25.65 -96.9,0 0,-25.65 z"
       inkscape:connector-curvature="0"
       id="path54"
       style="fill:none;stroke:#000000;stroke-width:0.75;stroke-linecap:round;stroke-linejoin:miter;stroke-miterlimit:10;stroke-opacity:1;stroke-dasharray:none" /><g
       id="g56"><g
         clip-path="url(#clipPath60)"
         id="g58"><g
           id="g64"><g
             clip-path="url(#clipPath68)"
             id="g66"><text
   transform="matrix(1,0,0,-1,664.06,449.95)"
   id="text72"><tspan
     x="0 8.0279999 14.028 20.736 23.4 30.072001 33.444 40.043999"
     y="0"
     id="tspan74"
     style="font-size:12px;font-variant:normal;font-weight:normal;writing-mode:lr-tb;fill:#000000;fill-opacity:1;fill-rule:nonzero;stroke:none;font-family:Helvetica;-inkscape-font-specification:Helvetica">Skeleton</tspan></text>

</g></g><g
           id="g76"><g
             clip-path="url(#clipPath80)"
             id="g78" /></g><g
           id="g84"><g
             clip-path="url(#clipPath88)"
             id="g86" /></g><g
           id="g92"><g
             clip-path="url(#clipPath96)"
             id="g94" /></g></g></g><path
       d="m 581.25,545.85 94.05,0 0,25.65 -94.05,0 0,-25.65 z"
       inkscape:connector-curvature="0"
       id="path100"
       style="fill:#ffffff;fill-opacity:1;fill-rule:evenodd;stroke:none" /><path
       d="m 581.25,545.85 94.05,0 0,25.65 -94.05,0 0,-25.65 z"
       inkscape:connector-curvature="0"
       id="path102"
       style="fill:none;stroke:#000000;stroke-width:0.75;stroke-linecap:round;stroke-linejoin:miter;stroke-miterlimit:10;stroke-opacity:1;stroke-dasharray:none" /><g
       id="g104"><g
         clip-path="url(#clipPath108)"
         id="g106"><g
           id="g112"><g
             clip-path="url(#clipPath116)"
             id="g114"><text
   transform="matrix(1,0,0,-1,618.91,556.27)"
   id="text120"><tspan
     x="0 3.336 12"
     y="0"
     id="tspan122"
     style="font-size:12px;font-variant:normal;font-weight:normal;writing-mode:lr-tb;fill:#000000;fill-opacity:1;fill-rule:nonzero;stroke:none;font-family:Helvetica;-inkscape-font-specification:Helvetica">IDL</tspan></text>

</g></g><g
           id="g124"><g
             clip-path="url(#clipPath128)"
             id="g126" /></g></g></g><path
       d="m 628.8,545.85 -0.04,-14.35 c 0,-0.28 -0.22,-0.5 -0.5,-0.5 -0.27,0 -0.5,0.23 -0.5,0.5 l 0.04,14.35 c 0,0.28 0.23,0.5 0.5,0.5 0.28,0 0.5,-0.23 0.5,-0.5 z m 2.47,-13.36 -3.02,-5.99 -2.98,6.01 6,-0.02 z"
       inkscape:connector-curvature="0"
       id="path132"
       style="fill:#000000;fill-opacity:1;fill-rule:nonzero;stroke:none" /><path
       d="m 597.33,489.02 -24.91,-21.44 c -0.21,-0.18 -0.53,-0.15 -0.71,0.06 -0.18,0.2 -0.16,0.52 0.05,0.7 l 24.91,21.44 c 0.21,0.18 0.53,0.16 0.71,-0.05 0.18,-0.21 0.16,-0.53 -0.05,-0.71 z m -22.53,-22.68 -6.5,-1.64 2.59,6.19 3.91,-4.55 z"
       inkscape:connector-curvature="0"
       id="path134"
       style="fill:#000000;fill-opacity:1;fill-rule:nonzero;stroke:none" /><path
       d="m 659.83,489.78 24.04,-21.11 c 0.21,-0.18 0.23,-0.49 0.05,-0.7 -0.18,-0.21 -0.5,-0.23 -0.71,-0.05 l -24.04,21.1 c -0.21,0.19 -0.23,0.5 -0.05,0.71 0.19,0.21 0.5,0.23 0.71,0.05 z m 24.94,-18.57 2.53,-6.21 -6.49,1.7 3.96,4.51 z"
       inkscape:connector-curvature="0"
       id="path136"
       style="fill:#000000;fill-opacity:1;fill-rule:nonzero;stroke:none" /><path
       d="m 585.8,488.75 85.7,0 0,28.45 -85.7,0 0,-28.45 z"
       inkscape:connector-curvature="0"
       id="path138"
       style="fill:#ffffff;fill-opacity:1;fill-rule:evenodd;stroke:none" /><g
       id="g140"><g
         clip-path="url(#clipPath144)"
         id="g142"><g
           id="g148"><g
             clip-path="url(#clipPath152)"
             id="g150"><text
   transform="matrix(1,0,0,-1,593.11,502.51)"
   id="text156"><tspan
     x="0"
     y="0"
     id="tspan158"
     style="font-size:12px;font-variant:normal;font-weight:normal;writing-mode:lr-tb;fill:#000000;fill-opacity:1;fill-rule:nonzero;stroke:none;font-family:Helvetica;-inkscape-font-specification:Helvetica">I</tspan></text>

</g></g><g
           id="g160"><g
             clip-path="url(#clipPath164)"
             id="g162"><text
   transform="matrix(1,0,0,-1,596.47,502.51)"
   id="text168"><tspan
     x="0 8.6400003"
     y="0"
     id="tspan170"
     style="font-size:12px;font-variant:normal;font-weight:normal;writing-mode:lr-tb;fill:#000000;fill-opacity:1;fill-rule:nonzero;stroke:none;font-family:Helvetica;-inkscape-font-specification:Helvetica">DL</tspan></text>

</g></g><g
           id="g172"><g
             clip-path="url(#clipPath176)"
             id="g174"><text
   transform="matrix(1,0,0,-1,611.83,502.51)"
   id="text180"><tspan
     x="0"
     y="0"
     id="tspan182"
     style="font-size:12px;font-variant:normal;font-weight:normal;writing-mode:lr-tb;fill:#000000;fill-opacity:1;fill-rule:nonzero;stroke:none;font-family:Helvetica;-inkscape-font-specification:Helvetica">-</tspan></text>

</g></g><g
           id="g184"><g
             clip-path="url(#clipPath188)"
             id="g186"><text
   transform="matrix(1,0,0,-1,615.79,502.51)"
   id="text192"><tspan
     x="0 8.6639996 15.336 25.427999 32.136002 34.799999 37.416 44.124001"
     y="0"
     id="tspan194"
     style="font-size:12px;font-variant:normal;font-weight:normal;writing-mode:lr-tb;fill:#000000;fill-opacity:1;fill-rule:nonzero;stroke:none;font-family:Helvetica;-inkscape-font-specification:Helvetica">Compiler</tspan></text>

</g></g><g
           id="g196"><g
             clip-path="url(#clipPath200)"
             id="g198" /></g></g></g><path
       d="m 628.25,526.5 c -24.41,0 -44.2,-9.73 -44.2,-21.72 0,-12 19.79,-21.73 44.2,-21.73 24.41,0 44.2,9.73 44.2,21.73 0,11.99 -19.79,21.72 -44.2,21.72 z"
       inkscape:connector-curvature="0"
       id="path204"
       style="fill:none;stroke:#000000;stroke-width:0.75;stroke-linecap:round;stroke-linejoin:round;stroke-miterlimit:10;stroke-opacity:1;stroke-dasharray:none" /></g></svg>