<?xml version="1.0" encoding="UTF-8" standalone="no"?>
<!-- Created with Inkscape (http://www.inkscape.org/) -->

<svg
   xmlns:dc="http://purl.org/dc/elements/1.1/"
   xmlns:cc="http://creativecommons.org/ns#"
   xmlns:rdf="http://www.w3.org/1999/02/22-rdf-syntax-ns#"
   xmlns:svg="http://www.w3.org/2000/svg"
   xmlns="http://www.w3.org/2000/svg"
   xmlns:sodipodi="http://sodipodi.sourceforge.net/DTD/sodipodi-0.dtd"
   xmlns:inkscape="http://www.inkscape.org/namespaces/inkscape"
   version="1.1"
   width="638.1875"
   height="243.8125"
   id="svg2"
   xml:space="preserve"
   inkscape:version="0.48.4 r9939"
   sodipodi:docname="Bild 5-22 Klassendiagramm einer Plug-in-Architektur mit einem einzigen Interface.svg"><sodipodi:namedview
     pagecolor="#ffffff"
     bordercolor="#666666"
     borderopacity="1"
     objecttolerance="10"
     gridtolerance="10"
     guidetolerance="10"
     inkscape:pageopacity="0"
     inkscape:pageshadow="2"
     inkscape:window-width="640"
     inkscape:window-height="480"
     id="namedview439"
     showgrid="false"
     inkscape:zoom="0.18730159"
     inkscape:cx="460.28125"
     inkscape:cy="174.46875"
     inkscape:window-x="0"
     inkscape:window-y="0"
     inkscape:window-maximized="0"
     inkscape:current-layer="svg2" /><metadata
     id="metadata8"><rdf:RDF><cc:Work
         rdf:about=""><dc:format>image/svg+xml</dc:format><dc:type
           rdf:resource="http://purl.org/dc/dcmitype/StillImage" /></cc:Work></rdf:RDF></metadata><defs
     id="defs6"><clipPath
       id="clipPath28"><path
         d="m 167.91,526.39 87.12,0 0,19.68 -87.12,0 0,-19.68 z"
         inkscape:connector-curvature="0"
         id="path30" /></clipPath><clipPath
       id="clipPath36"><path
         d="m 167.9,526.39 87.12,0 0,19.68 -87.12,0 0,-19.68 z"
         inkscape:connector-curvature="0"
         id="path38" /></clipPath><clipPath
       id="clipPath48"><path
         d="m 167.9,526.39 87.12,0 0,19.68 -87.12,0 0,-19.68 z"
         inkscape:connector-curvature="0"
         id="path50" /></clipPath><clipPath
       id="clipPath58"><path
         d="m 309.89,487.27 60.84,0 0,20.52 -60.84,0 0,-20.52 z"
         inkscape:connector-curvature="0"
         id="path60" /></clipPath><clipPath
       id="clipPath66"><path
         d="m 309.89,487.27 60.84,0 0,20.52 -60.84,0 0,-20.52 z"
         inkscape:connector-curvature="0"
         id="path68" /></clipPath><clipPath
       id="clipPath78"><path
         d="m 309.89,487.27 60.84,0 0,20.52 -60.84,0 0,-20.52 z"
         inkscape:connector-curvature="0"
         id="path80" /></clipPath><clipPath
       id="clipPath90"><path
         d="m 309.89,487.27 60.84,0 0,20.52 -60.84,0 0,-20.52 z"
         inkscape:connector-curvature="0"
         id="path92" /></clipPath><clipPath
       id="clipPath98"><path
         d="m 309.89,487.27 60.84,0 0,20.52 -60.84,0 0,-20.52 z"
         inkscape:connector-curvature="0"
         id="path100" /></clipPath><clipPath
       id="clipPath112"><path
         d="m 155.19,432.04 112.32,0 0,22.47 -112.32,0 0,-22.47 z"
         inkscape:connector-curvature="0"
         id="path114" /></clipPath><clipPath
       id="clipPath120"><path
         d="m 155.18,432.05 112.32,0 0,22.464 -112.32,0 0,-22.464 z"
         inkscape:connector-curvature="0"
         id="path122" /></clipPath><clipPath
       id="clipPath132"><path
         d="m 155.18,432.05 112.32,0 0,22.464 -112.32,0 0,-22.464 z"
         inkscape:connector-curvature="0"
         id="path134" /></clipPath><clipPath
       id="clipPath144"><path
         d="m 155.18,432.05 112.32,0 0,22.464 -112.32,0 0,-22.464 z"
         inkscape:connector-curvature="0"
         id="path146" /></clipPath><clipPath
       id="clipPath156"><path
         d="m 155.18,432.05 112.32,0 0,22.464 -112.32,0 0,-22.464 z"
         inkscape:connector-curvature="0"
         id="path158" /></clipPath><clipPath
       id="clipPath168"><path
         d="m 155.18,432.05 112.32,0 0,22.464 -112.32,0 0,-22.464 z"
         inkscape:connector-curvature="0"
         id="path170" /></clipPath><clipPath
       id="clipPath180"><path
         d="m 155.18,432.05 112.32,0 0,22.464 -112.32,0 0,-22.464 z"
         inkscape:connector-curvature="0"
         id="path182" /></clipPath><clipPath
       id="clipPath192"><path
         d="m 155.18,432.05 112.32,0 0,22.464 -112.32,0 0,-22.464 z"
         inkscape:connector-curvature="0"
         id="path194" /></clipPath><clipPath
       id="clipPath210"><path
         d="m 407.81,505.87 103.83,0 0,17.88 -103.83,0 0,-17.88 z"
         inkscape:connector-curvature="0"
         id="path212" /></clipPath><clipPath
       id="clipPath218"><path
         d="m 407.81,505.87 103.82,0 0,17.88 -103.82,0 0,-17.88 z"
         inkscape:connector-curvature="0"
         id="path220" /></clipPath><clipPath
       id="clipPath230"><path
         d="m 407.81,505.87 103.82,0 0,17.88 -103.82,0 0,-17.88 z"
         inkscape:connector-curvature="0"
         id="path232" /></clipPath><clipPath
       id="clipPath242"><path
         d="m 407.81,505.87 103.82,0 0,17.88 -103.82,0 0,-17.88 z"
         inkscape:connector-curvature="0"
         id="path244" /></clipPath><clipPath
       id="clipPath250"><path
         d="m 407.81,541.87 100.83,0 0,15.72 -100.83,0 0,-15.72 z"
         inkscape:connector-curvature="0"
         id="path252" /></clipPath><clipPath
       id="clipPath258"><path
         d="m 407.81,541.87 100.82,0 0,15.72 -100.82,0 0,-15.72 z"
         inkscape:connector-curvature="0"
         id="path260" /></clipPath><clipPath
       id="clipPath270"><path
         d="m 407.81,541.87 100.82,0 0,15.72 -100.82,0 0,-15.72 z"
         inkscape:connector-curvature="0"
         id="path272" /></clipPath><clipPath
       id="clipPath282"><path
         d="m 407.81,541.87 100.82,0 0,15.72 -100.82,0 0,-15.72 z"
         inkscape:connector-curvature="0"
         id="path284" /></clipPath><clipPath
       id="clipPath294"><path
         d="m 407.81,541.87 100.82,0 0,15.72 -100.82,0 0,-15.72 z"
         inkscape:connector-curvature="0"
         id="path296" /></clipPath><clipPath
       id="clipPath302"><path
         d="m 407.81,522.31 110.19,0 0,20.28 -110.19,0 0,-20.28 z"
         inkscape:connector-curvature="0"
         id="path304" /></clipPath><clipPath
       id="clipPath310"><path
         d="m 407.81,522.31 110.18,0 0,20.28 -110.18,0 0,-20.28 z"
         inkscape:connector-curvature="0"
         id="path312" /></clipPath><clipPath
       id="clipPath322"><path
         d="m 407.81,522.31 110.18,0 0,20.28 -110.18,0 0,-20.28 z"
         inkscape:connector-curvature="0"
         id="path324" /></clipPath><clipPath
       id="clipPath334"><path
         d="m 407.81,522.31 110.18,0 0,20.28 -110.18,0 0,-20.28 z"
         inkscape:connector-curvature="0"
         id="path336" /></clipPath><clipPath
       id="clipPath346"><path
         d="m 407.81,522.31 110.18,0 0,20.28 -110.18,0 0,-20.28 z"
         inkscape:connector-curvature="0"
         id="path348" /></clipPath><clipPath
       id="clipPath358"><path
         d="m 407.81,522.31 110.18,0 0,20.28 -110.18,0 0,-20.28 z"
         inkscape:connector-curvature="0"
         id="path360" /></clipPath><clipPath
       id="clipPath370"><path
         d="m 405.05,385.24 110.67,0 0,13.92 -110.67,0 0,-13.92 z"
         inkscape:connector-curvature="0"
         id="path372" /></clipPath><clipPath
       id="clipPath378"><path
         d="m 405.05,385.25 110.66,0 0,13.92 -110.66,0 0,-13.92 z"
         inkscape:connector-curvature="0"
         id="path380" /></clipPath><clipPath
       id="clipPath390"><path
         d="m 405.05,385.25 110.66,0 0,13.92 -110.66,0 0,-13.92 z"
         inkscape:connector-curvature="0"
         id="path392" /></clipPath><clipPath
       id="clipPath402"><path
         d="m 405.05,385.25 110.66,0 0,13.92 -110.66,0 0,-13.92 z"
         inkscape:connector-curvature="0"
         id="path404" /></clipPath><clipPath
       id="clipPath414"><path
         d="m 405.05,385.25 110.66,0 0,13.92 -110.66,0 0,-13.92 z"
         inkscape:connector-curvature="0"
         id="path416" /></clipPath><clipPath
       id="clipPath426"><path
         d="m 405.05,385.25 110.66,0 0,13.92 -110.66,0 0,-13.92 z"
         inkscape:connector-curvature="0"
         id="path428" /></clipPath><clipPath
       id="clipPath438"><path
         d="m 405.05,385.25 110.66,0 0,13.92 -110.66,0 0,-13.92 z"
         inkscape:connector-curvature="0"
         id="path440" /></clipPath><clipPath
       id="clipPath450"><path
         d="m 405.05,385.25 110.66,0 0,13.92 -110.66,0 0,-13.92 z"
         inkscape:connector-curvature="0"
         id="path452" /></clipPath><clipPath
       id="clipPath460"><path
         d="m 408.17,367.48 103.71,0 0,17.28 -103.71,0 0,-17.28 z"
         inkscape:connector-curvature="0"
         id="path462" /></clipPath><clipPath
       id="clipPath468"><path
         d="m 408.17,367.49 103.7,0 0,17.28 -103.7,0 0,-17.28 z"
         inkscape:connector-curvature="0"
         id="path470" /></clipPath><clipPath
       id="clipPath476"><path
         d="m 408.17,367.49 103.7,0 0,17.28 -103.7,0 0,-17.28 z"
         inkscape:connector-curvature="0"
         id="path478" /></clipPath><clipPath
       id="clipPath488"><path
         d="m 408.17,367.49 103.7,0 0,17.28 -103.7,0 0,-17.28 z"
         inkscape:connector-curvature="0"
         id="path490" /></clipPath><clipPath
       id="clipPath500"><path
         d="m 408.17,367.49 103.7,0 0,17.28 -103.7,0 0,-17.28 z"
         inkscape:connector-curvature="0"
         id="path502" /></clipPath><clipPath
       id="clipPath508"><path
         d="m 408.17,367.49 103.7,0 0,17.28 -103.7,0 0,-17.28 z"
         inkscape:connector-curvature="0"
         id="path510" /></clipPath><clipPath
       id="clipPath520"><path
         d="m 408.17,367.49 103.7,0 0,17.28 -103.7,0 0,-17.28 z"
         inkscape:connector-curvature="0"
         id="path522" /></clipPath><clipPath
       id="clipPath530"><path
         d="m 281.21,385.36 110.04,0 0,13.92 -110.04,0 0,-13.92 z"
         inkscape:connector-curvature="0"
         id="path532" /></clipPath><clipPath
       id="clipPath538"><path
         d="m 281.21,385.37 110.04,0 0,13.92 -110.04,0 0,-13.92 z"
         inkscape:connector-curvature="0"
         id="path540" /></clipPath><clipPath
       id="clipPath550"><path
         d="m 281.21,385.37 110.04,0 0,13.92 -110.04,0 0,-13.92 z"
         inkscape:connector-curvature="0"
         id="path552" /></clipPath><clipPath
       id="clipPath562"><path
         d="m 281.21,385.37 110.04,0 0,13.92 -110.04,0 0,-13.92 z"
         inkscape:connector-curvature="0"
         id="path564" /></clipPath><clipPath
       id="clipPath574"><path
         d="m 281.21,385.37 110.04,0 0,13.92 -110.04,0 0,-13.92 z"
         inkscape:connector-curvature="0"
         id="path576" /></clipPath><clipPath
       id="clipPath586"><path
         d="m 281.21,385.37 110.04,0 0,13.92 -110.04,0 0,-13.92 z"
         inkscape:connector-curvature="0"
         id="path588" /></clipPath><clipPath
       id="clipPath598"><path
         d="m 281.21,385.37 110.04,0 0,13.92 -110.04,0 0,-13.92 z"
         inkscape:connector-curvature="0"
         id="path600" /></clipPath><clipPath
       id="clipPath606"><path
         d="m 287.57,368.56 103.68,0 0,17.16 -103.68,0 0,-17.16 z"
         inkscape:connector-curvature="0"
         id="path608" /></clipPath><clipPath
       id="clipPath614"><path
         d="m 287.57,368.57 103.68,0 0,17.16 -103.68,0 0,-17.16 z"
         inkscape:connector-curvature="0"
         id="path616" /></clipPath><clipPath
       id="clipPath622"><path
         d="m 287.57,368.57 103.68,0 0,17.16 -103.68,0 0,-17.16 z"
         inkscape:connector-curvature="0"
         id="path624" /></clipPath><clipPath
       id="clipPath634"><path
         d="m 287.57,368.57 103.68,0 0,17.16 -103.68,0 0,-17.16 z"
         inkscape:connector-curvature="0"
         id="path636" /></clipPath><clipPath
       id="clipPath646"><path
         d="m 287.57,368.57 103.68,0 0,17.16 -103.68,0 0,-17.16 z"
         inkscape:connector-curvature="0"
         id="path648" /></clipPath><clipPath
       id="clipPath658"><path
         d="m 536.24,367.96 103.8,0 0,17.16 -103.8,0 0,-17.16 z"
         inkscape:connector-curvature="0"
         id="path660" /></clipPath><clipPath
       id="clipPath666"><path
         d="m 536.23,367.97 103.8,0 0,17.16 -103.8,0 0,-17.16 z"
         inkscape:connector-curvature="0"
         id="path668" /></clipPath><clipPath
       id="clipPath674"><path
         d="m 536.23,367.97 103.8,0 0,17.16 -103.8,0 0,-17.16 z"
         inkscape:connector-curvature="0"
         id="path676" /></clipPath><clipPath
       id="clipPath686"><path
         d="m 536.23,367.97 103.8,0 0,17.16 -103.8,0 0,-17.16 z"
         inkscape:connector-curvature="0"
         id="path688" /></clipPath><clipPath
       id="clipPath698"><path
         d="m 536.23,367.97 103.8,0 0,17.16 -103.8,0 0,-17.16 z"
         inkscape:connector-curvature="0"
         id="path700" /></clipPath><clipPath
       id="clipPath708"><path
         d="m 533.48,385.24 111.36,0 0,13.68 -111.36,0 0,-13.68 z"
         inkscape:connector-curvature="0"
         id="path710" /></clipPath><clipPath
       id="clipPath716"><path
         d="m 533.47,385.25 111.36,0 0,13.68 -111.36,0 0,-13.68 z"
         inkscape:connector-curvature="0"
         id="path718" /></clipPath><clipPath
       id="clipPath728"><path
         d="m 533.47,385.25 111.36,0 0,13.68 -111.36,0 0,-13.68 z"
         inkscape:connector-curvature="0"
         id="path730" /></clipPath><clipPath
       id="clipPath740"><path
         d="m 533.47,385.25 111.36,0 0,13.68 -111.36,0 0,-13.68 z"
         inkscape:connector-curvature="0"
         id="path742" /></clipPath><clipPath
       id="clipPath752"><path
         d="m 533.47,385.25 111.36,0 0,13.68 -111.36,0 0,-13.68 z"
         inkscape:connector-curvature="0"
         id="path754" /></clipPath><clipPath
       id="clipPath764"><path
         d="m 494.84,488.59 19.8,0 0,7.32 -19.8,0 0,-7.32 z"
         inkscape:connector-curvature="0"
         id="path766" /></clipPath><clipPath
       id="clipPath772"><path
         d="m 494.83,488.59 19.8,0 0,7.32 -19.8,0 0,-7.32 z"
         inkscape:connector-curvature="0"
         id="path774" /></clipPath><clipPath
       id="clipPath784"><path
         d="m 450.41,486.31 19.83,0 0,7.32 -19.83,0 0,-7.32 z"
         inkscape:connector-curvature="0"
         id="path786" /></clipPath><clipPath
       id="clipPath792"><path
         d="m 450.41,486.31 19.824,0 0,7.32 -19.824,0 0,-7.32 z"
         inkscape:connector-curvature="0"
         id="path794" /></clipPath><clipPath
       id="clipPath804"><path
         d="m 396.53,488.23 19.8,0 0,7.32 -19.8,0 0,-7.32 z"
         inkscape:connector-curvature="0"
         id="path806" /></clipPath><clipPath
       id="clipPath812"><path
         d="m 396.53,488.23 19.8,0 0,7.32 -19.8,0 0,-7.32 z"
         inkscape:connector-curvature="0"
         id="path814" /></clipPath><clipPath
       id="clipPath826"><path
         d="m 287.21,537.79 22.68,0 0,13.8 -22.68,0 0,-13.8 z"
         inkscape:connector-curvature="0"
         id="path828" /></clipPath><clipPath
       id="clipPath834"><path
         d="m 287.21,537.79 22.68,0 0,13.8 -22.68,0 0,-13.8 z"
         inkscape:connector-curvature="0"
         id="path836" /></clipPath><clipPath
       id="clipPath846"><path
         d="m 287.21,537.79 22.68,0 0,13.8 -22.68,0 0,-13.8 z"
         inkscape:connector-curvature="0"
         id="path848" /></clipPath><clipPath
       id="clipPath854"><path
         d="m 374.09,535.15 46.32,0 0,16.44 -46.32,0 0,-16.44 z"
         inkscape:connector-curvature="0"
         id="path856" /></clipPath><clipPath
       id="clipPath862"><path
         d="m 374.09,535.15 46.32,0 0,16.44 -46.32,0 0,-16.44 z"
         inkscape:connector-curvature="0"
         id="path864" /></clipPath><clipPath
       id="clipPath874"><path
         d="m 374.09,535.15 46.32,0 0,16.44 -46.32,0 0,-16.44 z"
         inkscape:connector-curvature="0"
         id="path876" /></clipPath></defs><g
     transform="matrix(1.25,0,0,-1.25,-170.09375,699.34375)"
     id="g10"><g
       id="g12"><path
         d="m 460.49,399.56 0.47,100.03"
         inkscape:connector-curvature="0"
         id="path14"
         style="fill:none;stroke:#000000;stroke-width:0.75;stroke-linecap:round;stroke-linejoin:round;stroke-miterlimit:10;stroke-opacity:1;stroke-dasharray:2.25, 3;stroke-dashoffset:0" /></g><path
       d="m 211.4,513.75 0,-63.6"
       inkscape:connector-curvature="0"
       id="path16"
       style="fill:none;stroke:#000000;stroke-width:0.75;stroke-linecap:round;stroke-linejoin:round;stroke-miterlimit:10;stroke-opacity:1;stroke-dasharray:none" /><path
       d="m 153.3,513.75 116.2,0 0,45 -116.2,0 0,-45 z"
       inkscape:connector-curvature="0"
       id="path18"
       style="fill:#ffffff;fill-opacity:1;fill-rule:evenodd;stroke:none" /><path
       d="m 153.3,513.75 116.2,0 0,45 -116.2,0 0,-45 z"
       inkscape:connector-curvature="0"
       id="path20"
       style="fill:none;stroke:#000000;stroke-width:0.75;stroke-linecap:round;stroke-linejoin:miter;stroke-miterlimit:8;stroke-opacity:1;stroke-dasharray:none" /><path
       d="m 167.85,522.75 87.15,0 0,27 -87.15,0 0,-27 z"
       inkscape:connector-curvature="0"
       id="path22"
       style="fill:#ffffff;fill-opacity:1;fill-rule:evenodd;stroke:none" /><g
       id="g24"><g
         clip-path="url(#clipPath28)"
         id="g26"><g
           id="g32"><g
             clip-path="url(#clipPath36)"
             id="g34"><text
   transform="matrix(1,0,0,-1,178.82,534.55)"
   id="text40"><tspan
     x="0 8.3999996 15.828 23.16 26.496 29.832001 36.576 43.284 47.279999 50.616001 57.948002"
     y="0"
     id="tspan42"
     style="font-size:12px;font-variant:normal;font-weight:bold;writing-mode:lr-tb;fill:#000000;fill-opacity:1;fill-rule:nonzero;stroke:none;font-family:Helvetica;-inkscape-font-specification:Helvetica-Bold">Applikation</tspan></text>

</g></g><g
           id="g44"><g
             clip-path="url(#clipPath48)"
             id="g46" /></g></g></g><path
       d="m 285.89,441.7 2.37,1.83 c 0.22,0.17 0.54,0.13 0.71,-0.08 0.16,-0.22 0.12,-0.54 -0.09,-0.71 l -2.37,-1.83 c -0.22,-0.17 -0.54,-0.13 -0.71,0.08 -0.16,0.22 -0.12,0.54 0.09,0.71 z m 5.53,4.29 2.37,1.84 c 0.22,0.17 0.54,0.13 0.71,-0.09 0.16,-0.22 0.12,-0.53 -0.09,-0.7 l -2.37,-1.84 c -0.22,-0.17 -0.54,-0.13 -0.7,0.09 -0.17,0.21 -0.13,0.53 0.08,0.7 z m 5.53,4.29 2.37,1.84 c 0.22,0.17 0.54,0.13 0.71,-0.09 0.16,-0.22 0.12,-0.53 -0.09,-0.7 l -2.37,-1.84 c -0.22,-0.17 -0.54,-0.13 -0.7,0.09 -0.17,0.22 -0.13,0.53 0.08,0.7 z m 5.53,4.29 2.37,1.84 c 0.22,0.17 0.54,0.13 0.71,-0.09 0.16,-0.22 0.12,-0.53 -0.09,-0.7 l -2.37,-1.84 c -0.22,-0.17 -0.54,-0.13 -0.7,0.09 -0.17,0.22 -0.13,0.53 0.08,0.7 z m 5.53,4.29 2.37,1.84 c 0.22,0.17 0.54,0.13 0.71,-0.09 0.16,-0.22 0.12,-0.53 -0.09,-0.7 l -2.37,-1.84 c -0.22,-0.17 -0.54,-0.13 -0.7,0.09 -0.17,0.22 -0.13,0.53 0.08,0.7 z m 5.53,4.29 2.37,1.84 c 0.22,0.17 0.54,0.13 0.71,-0.09 0.16,-0.21 0.12,-0.53 -0.09,-0.7 l -2.37,-1.84 c -0.22,-0.17 -0.54,-0.13 -0.7,0.09 -0.17,0.22 -0.13,0.53 0.08,0.7 z m 5.53,4.3 2.37,1.83 c 0.22,0.17 0.54,0.13 0.71,-0.08 0.16,-0.22 0.12,-0.54 -0.09,-0.71 l -2.37,-1.83 c -0.22,-0.17 -0.54,-0.13 -0.7,0.08 -0.17,0.22 -0.13,0.54 0.08,0.71 z m 5.53,4.29 2.37,1.84 c 0.22,0.17 0.54,0.13 0.71,-0.09 0.16,-0.22 0.13,-0.53 -0.09,-0.7 l -2.37,-1.84 c -0.22,-0.17 -0.54,-0.13 -0.7,0.09 -0.17,0.21 -0.13,0.53 0.08,0.7 z m 5.53,4.29 2.37,1.84 c 0.22,0.17 0.54,0.13 0.71,-0.09 0.16,-0.22 0.13,-0.53 -0.09,-0.7 l -2.37,-1.84 c -0.22,-0.17 -0.54,-0.13 -0.7,0.09 -0.17,0.22 -0.13,0.53 0.08,0.7 z m 5.53,4.29 2.37,1.84 c 0.22,0.17 0.54,0.13 0.71,-0.09 0.16,-0.22 0.13,-0.53 -0.09,-0.7 l -2.37,-1.84 c -0.22,-0.17 -0.54,-0.13 -0.7,0.09 -0.17,0.22 -0.13,0.53 0.08,0.7 z m 5.53,4.29 2.37,1.84 c 0.22,0.17 0.54,0.13 0.71,-0.09 0.16,-0.22 0.13,-0.53 -0.09,-0.7 l -2.37,-1.84 c -0.22,-0.17 -0.54,-0.13 -0.7,0.09 -0.17,0.22 -0.13,0.53 0.08,0.7 z m 5.53,4.29 2.37,1.84 c 0.22,0.17 0.54,0.13 0.71,-0.09 0.17,-0.21 0.13,-0.53 -0.09,-0.7 l -2.37,-1.84 c -0.22,-0.17 -0.54,-0.13 -0.7,0.09 -0.17,0.22 -0.13,0.53 0.08,0.7 z m 5.53,4.3 2.37,1.83 c 0.22,0.17 0.54,0.13 0.71,-0.08 0.17,-0.22 0.13,-0.54 -0.09,-0.71 l -2.37,-1.83 c -0.22,-0.17 -0.53,-0.13 -0.7,0.08 -0.17,0.22 -0.13,0.54 0.08,0.71 z m 5.53,4.29 2.37,1.84 c 0.22,0.17 0.54,0.13 0.71,-0.09 0.17,-0.22 0.13,-0.53 -0.09,-0.7 l -2.37,-1.84 c -0.22,-0.17 -0.53,-0.13 -0.7,0.09 -0.17,0.21 -0.13,0.53 0.08,0.7 z m 5.53,4.29 2.37,1.84 c 0.22,0.17 0.54,0.13 0.71,-0.09 0.17,-0.22 0.13,-0.53 -0.09,-0.7 l -2.37,-1.84 c -0.22,-0.17 -0.53,-0.13 -0.7,0.09 -0.17,0.22 -0.13,0.53 0.08,0.7 z m 5.53,4.29 2.37,1.84 c 0.22,0.17 0.54,0.13 0.71,-0.09 0.17,-0.22 0.13,-0.53 -0.09,-0.7 l -2.37,-1.84 c -0.22,-0.17 -0.53,-0.13 -0.7,0.09 -0.17,0.22 -0.13,0.53 0.08,0.7 z m 5.53,4.29 2.37,1.84 c 0.22,0.17 0.54,0.13 0.71,-0.09 0.17,-0.22 0.13,-0.53 -0.09,-0.7 l -2.37,-1.84 c -0.22,-0.17 -0.53,-0.13 -0.7,0.09 -0.17,0.22 -0.13,0.53 0.08,0.7 z m 5.53,4.29 2.37,1.84 c 0.22,0.17 0.54,0.13 0.71,-0.09 0.17,-0.21 0.13,-0.53 -0.09,-0.7 l -2.37,-1.84 c -0.22,-0.17 -0.53,-0.13 -0.7,0.09 -0.17,0.22 -0.13,0.53 0.08,0.7 z m 5.53,4.3 2.37,1.83 c 0.22,0.17 0.54,0.13 0.71,-0.08 0.17,-0.22 0.13,-0.54 -0.09,-0.71 l -2.37,-1.83 c -0.22,-0.17 -0.53,-0.13 -0.7,0.08 -0.17,0.22 -0.13,0.54 0.08,0.71 z m 5.53,4.29 2.37,1.84 c 0.22,0.17 0.54,0.13 0.71,-0.09 0.17,-0.22 0.13,-0.53 -0.09,-0.7 l -2.37,-1.84 c -0.22,-0.17 -0.53,-0.13 -0.7,0.09 -0.17,0.21 -0.13,0.53 0.08,0.7 z m 5.53,4.29 2.38,1.84 c 0.21,0.17 0.53,0.13 0.7,-0.09 0.17,-0.22 0.13,-0.53 -0.09,-0.7 l -2.37,-1.84 c -0.22,-0.17 -0.53,-0.13 -0.7,0.09 -0.17,0.22 -0.13,0.53 0.08,0.7 z m 5.54,4.29 1.73,1.35 c 0.22,0.17 0.54,0.13 0.71,-0.09 0.16,-0.22 0.13,-0.53 -0.09,-0.7 l -1.74,-1.35 c -0.22,-0.17 -0.53,-0.13 -0.7,0.09 -0.17,0.22 -0.13,0.53 0.09,0.7 z m -5.75,1.73 8.41,-0.3 -1.81,-8.21 c -0.06,-0.27 -0.32,-0.44 -0.59,-0.38 -0.27,0.06 -0.44,0.32 -0.38,0.59 l 1.67,7.63 0.47,-0.61 -7.8,0.28 c -0.28,0.01 -0.49,0.24 -0.49,0.51 0.01,0.28 0.25,0.49 0.52,0.49 z"
       inkscape:connector-curvature="0"
       id="path52"
       style="fill:#000000;fill-opacity:1;fill-rule:nonzero;stroke:none" /><g
       id="g54"><g
         clip-path="url(#clipPath58)"
         id="g56"><g
           id="g62"><g
             clip-path="url(#clipPath66)"
             id="g64"><text
   transform="matrix(1,0,0,-1,317.09,497.47)"
   id="text70"><tspan
     x="0"
     y="0"
     id="tspan72"
     style="font-size:12px;font-variant:normal;font-weight:normal;writing-mode:lr-tb;fill:#000000;fill-opacity:1;fill-rule:nonzero;stroke:none;font-family:Courier New;-inkscape-font-specification:Courier New">«</tspan></text>

</g></g><g
           id="g74"><g
             clip-path="url(#clipPath78)"
             id="g76"><text
   transform="matrix(1,0,0,-1,324.29,497.47)"
   id="text82"><tspan
     x="0 7.1999998 14.4 21.6"
     y="0"
     id="tspan84"
     style="font-size:12px;font-variant:normal;font-weight:normal;writing-mode:lr-tb;fill:#000000;fill-opacity:1;fill-rule:nonzero;stroke:none;font-family:Courier New;-inkscape-font-specification:Courier New">use»</tspan></text>

</g></g><g
           id="g86"><g
             clip-path="url(#clipPath90)"
             id="g88" /></g><g
           id="g94"><g
             clip-path="url(#clipPath98)"
             id="g96" /></g></g></g><path
       d="m 136.45,418.55 149.75,0 0,49.45 -149.75,0 0,-49.45 z"
       inkscape:connector-curvature="0"
       id="path102"
       style="fill:#ffffff;fill-opacity:1;fill-rule:evenodd;stroke:none" /><path
       d="m 136.45,418.55 149.75,0 0,49.45 -149.75,0 0,-49.45 z"
       inkscape:connector-curvature="0"
       id="path104"
       style="fill:none;stroke:#000000;stroke-width:0.75;stroke-linecap:round;stroke-linejoin:miter;stroke-miterlimit:8;stroke-opacity:1;stroke-dasharray:none" /><path
       d="m 155.15,428.45 112.35,0 0,29.7 -112.35,0 0,-29.7 z"
       inkscape:connector-curvature="0"
       id="path106"
       style="fill:#ffffff;fill-opacity:1;fill-rule:evenodd;stroke:none" /><g
       id="g108"><g
         clip-path="url(#clipPath112)"
         id="g110"><g
           id="g116"><g
             clip-path="url(#clipPath120)"
             id="g118"><text
   transform="matrix(1,0,0,-1,162.38,442.99)"
   id="text124"><tspan
     x="0 8.0279999 11.364 18.695999"
     y="0"
     id="tspan126"
     style="font-size:12px;font-variant:normal;font-weight:bold;writing-mode:lr-tb;fill:#000000;fill-opacity:1;fill-rule:nonzero;stroke:none;font-family:Helvetica;-inkscape-font-specification:Helvetica-Bold">Plug</tspan></text>

</g></g><g
           id="g128"><g
             clip-path="url(#clipPath132)"
             id="g130"><text
   transform="matrix(1,0,0,-1,188.42,442.99)"
   id="text136"><tspan
     x="0"
     y="0"
     id="tspan138"
     style="font-size:12px;font-variant:normal;font-weight:bold;writing-mode:lr-tb;fill:#000000;fill-opacity:1;fill-rule:nonzero;stroke:none;font-family:Helvetica;-inkscape-font-specification:Helvetica-Bold">-</tspan></text>

</g></g><g
           id="g140"><g
             clip-path="url(#clipPath144)"
             id="g142"><text
   transform="matrix(1,0,0,-1,192.38,442.99)"
   id="text148"><tspan
     x="0"
     y="0"
     id="tspan150"
     style="font-size:12px;font-variant:normal;font-weight:bold;writing-mode:lr-tb;fill:#000000;fill-opacity:1;fill-rule:nonzero;stroke:none;font-family:Helvetica;-inkscape-font-specification:Helvetica-Bold">i</tspan></text>

</g></g><g
           id="g152"><g
             clip-path="url(#clipPath156)"
             id="g154"><text
   transform="matrix(1,0,0,-1,195.74,442.99)"
   id="text160"><tspan
     x="0"
     y="0"
     id="tspan162"
     style="font-size:12px;font-variant:normal;font-weight:bold;writing-mode:lr-tb;fill:#000000;fill-opacity:1;fill-rule:nonzero;stroke:none;font-family:Helvetica;-inkscape-font-specification:Helvetica-Bold">n</tspan></text>

</g></g><g
           id="g164"><g
             clip-path="url(#clipPath168)"
             id="g166"><text
   transform="matrix(1,0,0,-1,203.06,442.99)"
   id="text172"><tspan
     x="0"
     y="0"
     id="tspan174"
     style="font-size:12px;font-variant:normal;font-weight:bold;writing-mode:lr-tb;fill:#000000;fill-opacity:1;fill-rule:nonzero;stroke:none;font-family:Helvetica;-inkscape-font-specification:Helvetica-Bold">-</tspan></text>

</g></g><g
           id="g176"><g
             clip-path="url(#clipPath180)"
             id="g178"><text
   transform="matrix(1,0,0,-1,207.02,442.99)"
   id="text184"><tspan
     x="0 9.96 16.667999 24 30.672001 38.004002 44.736"
     y="0"
     id="tspan186"
     style="font-size:12px;font-variant:normal;font-weight:bold;writing-mode:lr-tb;fill:#000000;fill-opacity:1;fill-rule:nonzero;stroke:none;font-family:Helvetica;-inkscape-font-specification:Helvetica-Bold">Manager</tspan></text>

</g></g><g
           id="g188"><g
             clip-path="url(#clipPath192)"
             id="g190" /></g></g></g><g
       id="g196"><path
         d="m 329.85,399.35 78.25,96.7"
         inkscape:connector-curvature="0"
         id="path198"
         style="fill:none;stroke:#000000;stroke-width:0.75;stroke-linecap:round;stroke-linejoin:round;stroke-miterlimit:8;stroke-opacity:1;stroke-dasharray:2.25, 3;stroke-dashoffset:0" /></g><g
       id="g200"><path
         d="M 579.4,399.25 499.4,502"
         inkscape:connector-curvature="0"
         id="path202"
         style="fill:none;stroke:#000000;stroke-width:0.75;stroke-linecap:round;stroke-linejoin:round;stroke-miterlimit:8;stroke-opacity:1;stroke-dasharray:2.25, 3;stroke-dashoffset:0" /></g><path
       d="m 405.95,505.1 110.2,0 0,54 -110.2,0 0,-54 z"
       inkscape:connector-curvature="0"
       id="path204"
       style="fill:none;stroke:#000000;stroke-width:0.75;stroke-linecap:round;stroke-linejoin:miter;stroke-miterlimit:8;stroke-opacity:1;stroke-dasharray:none" /><g
       id="g206"><g
         clip-path="url(#clipPath210)"
         id="g208"><g
           id="g214"><g
             clip-path="url(#clipPath218)"
             id="g216"><text
   transform="matrix(1,0,0,-1,433.49,512.59)"
   id="text222"><tspan
     x="0"
     y="0"
     id="tspan224"
     style="font-size:12px;font-variant:normal;font-weight:normal;writing-mode:lr-tb;fill:#000000;fill-opacity:1;fill-rule:nonzero;stroke:none;font-family:Helvetica;-inkscape-font-specification:Helvetica">o</tspan></text>

</g></g><g
           id="g226"><g
             clip-path="url(#clipPath230)"
             id="g228"><text
   transform="matrix(1,0,0,-1,440.21,512.59)"
   id="text234"><tspan
     x="0 6.7080002 13.416 17.412001 24.084 27.42 29.976 36.683998 43.391998 47.388"
     y="0"
     id="tspan236"
     style="font-size:12px;font-variant:normal;font-weight:normal;writing-mode:lr-tb;fill:#000000;fill-opacity:1;fill-rule:nonzero;stroke:none;font-family:Helvetica;-inkscape-font-specification:Helvetica">peration()</tspan></text>

</g></g><g
           id="g238"><g
             clip-path="url(#clipPath242)"
             id="g240" /></g></g></g><g
       id="g246"><g
         clip-path="url(#clipPath250)"
         id="g248"><g
           id="g254"><g
             clip-path="url(#clipPath258)"
             id="g256"><text
   transform="matrix(1,0,0,-1,418.61,548.11)"
   id="text262"><tspan
     x="0"
     y="0"
     id="tspan264"
     style="font-size:12px;font-variant:normal;font-weight:normal;writing-mode:lr-tb;fill:#000000;fill-opacity:1;fill-rule:nonzero;stroke:none;font-family:Courier New;-inkscape-font-specification:Courier New">«</tspan></text>

</g></g><g
           id="g266"><g
             clip-path="url(#clipPath270)"
             id="g268"><text
   transform="matrix(1,0,0,-1,425.81,548.11)"
   id="text274"><tspan
     x="0 7.1999998 14.4 21.6 28.799999 36 43.200001 50.400002 57.599998"
     y="0"
     id="tspan276"
     style="font-size:12px;font-variant:normal;font-weight:normal;writing-mode:lr-tb;fill:#000000;fill-opacity:1;fill-rule:nonzero;stroke:none;font-family:Courier New;-inkscape-font-specification:Courier New">interface</tspan></text>

</g></g><g
           id="g278"><g
             clip-path="url(#clipPath282)"
             id="g280"><text
   transform="matrix(1,0,0,-1,490.63,548.11)"
   id="text286"><tspan
     x="0"
     y="0"
     id="tspan288"
     style="font-size:12px;font-variant:normal;font-weight:normal;writing-mode:lr-tb;fill:#000000;fill-opacity:1;fill-rule:nonzero;stroke:none;font-family:Courier New;-inkscape-font-specification:Courier New">»</tspan></text>

</g></g><g
           id="g290"><g
             clip-path="url(#clipPath294)"
             id="g292" /></g></g></g><g
       id="g298"><g
         clip-path="url(#clipPath302)"
         id="g300"><g
           id="g306"><g
             clip-path="url(#clipPath310)"
             id="g308"><text
   transform="matrix(1,0,0,-1,440.81,531.19)"
   id="text314"><tspan
     x="0"
     y="0"
     id="tspan316"
     style="font-size:12px;font-variant:normal;font-weight:bold;writing-mode:lr-tb;fill:#000000;fill-opacity:1;fill-rule:nonzero;stroke:none;font-family:Helvetica;-inkscape-font-specification:Helvetica-Bold">I</tspan></text>

</g></g><g
           id="g318"><g
             clip-path="url(#clipPath322)"
             id="g320"><text
   transform="matrix(1,0,0,-1,444.17,531.19)"
   id="text326"><tspan
     x="0 8.0279999 11.364 18.695999"
     y="0"
     id="tspan328"
     style="font-size:12px;font-variant:normal;font-weight:bold;writing-mode:lr-tb;fill:#000000;fill-opacity:1;fill-rule:nonzero;stroke:none;font-family:Helvetica;-inkscape-font-specification:Helvetica-Bold">Plug</tspan></text>

</g></g><g
           id="g330"><g
             clip-path="url(#clipPath334)"
             id="g332"><text
   transform="matrix(1,0,0,-1,470.23,531.19)"
   id="text338"><tspan
     x="0"
     y="0"
     id="tspan340"
     style="font-size:12px;font-variant:normal;font-weight:bold;writing-mode:lr-tb;fill:#000000;fill-opacity:1;fill-rule:nonzero;stroke:none;font-family:Helvetica;-inkscape-font-specification:Helvetica-Bold">-</tspan></text>

</g></g><g
           id="g342"><g
             clip-path="url(#clipPath346)"
             id="g344"><text
   transform="matrix(1,0,0,-1,474.19,531.19)"
   id="text350"><tspan
     x="0 3.3599999"
     y="0"
     id="tspan352"
     style="font-size:12px;font-variant:normal;font-weight:bold;writing-mode:lr-tb;fill:#000000;fill-opacity:1;fill-rule:nonzero;stroke:none;font-family:Helvetica;-inkscape-font-specification:Helvetica-Bold">in</tspan></text>

</g></g><g
           id="g354"><g
             clip-path="url(#clipPath358)"
             id="g356" /></g></g></g><path
       d="m 405.95,525.9 110.2,0"
       inkscape:connector-curvature="0"
       id="path362"
       style="fill:none;stroke:#000000;stroke-width:0.75;stroke-linecap:round;stroke-linejoin:round;stroke-miterlimit:8;stroke-opacity:1;stroke-dasharray:none" /><path
       d="m 405.05,364.8 110.65,0 0,34.5 -110.65,0 0,-34.5 z"
       inkscape:connector-curvature="0"
       id="path364"
       style="fill:none;stroke:#000000;stroke-width:0.75;stroke-linecap:round;stroke-linejoin:miter;stroke-miterlimit:8;stroke-opacity:1;stroke-dasharray:none" /><g
       id="g366"><g
         clip-path="url(#clipPath370)"
         id="g368"><g
           id="g374"><g
             clip-path="url(#clipPath378)"
             id="g376"><text
   transform="matrix(1,0,0,-1,435.65,388.13)"
   id="text382"><tspan
     x="0"
     y="0"
     id="tspan384"
     style="font-size:12px;font-variant:normal;font-weight:bold;writing-mode:lr-tb;fill:#000000;fill-opacity:1;fill-rule:nonzero;stroke:none;font-family:Helvetica;-inkscape-font-specification:Helvetica-Bold">P</tspan></text>

</g></g><g
           id="g386"><g
             clip-path="url(#clipPath390)"
             id="g388"><text
   transform="matrix(1,0,0,-1,443.69,388.13)"
   id="text394"><tspan
     x="0 3.336 10.668"
     y="0"
     id="tspan396"
     style="font-size:12px;font-variant:normal;font-weight:bold;writing-mode:lr-tb;fill:#000000;fill-opacity:1;fill-rule:nonzero;stroke:none;font-family:Helvetica;-inkscape-font-specification:Helvetica-Bold">lug</tspan></text>

</g></g><g
           id="g398"><g
             clip-path="url(#clipPath402)"
             id="g400"><text
   transform="matrix(1,0,0,-1,461.69,388.13)"
   id="text406"><tspan
     x="0"
     y="0"
     id="tspan408"
     style="font-size:12px;font-variant:normal;font-weight:bold;writing-mode:lr-tb;fill:#000000;fill-opacity:1;fill-rule:nonzero;stroke:none;font-family:Helvetica;-inkscape-font-specification:Helvetica-Bold">-</tspan></text>

</g></g><g
           id="g410"><g
             clip-path="url(#clipPath414)"
             id="g412"><text
   transform="matrix(1,0,0,-1,465.65,388.13)"
   id="text418"><tspan
     x="0"
     y="0"
     id="tspan420"
     style="font-size:12px;font-variant:normal;font-weight:bold;writing-mode:lr-tb;fill:#000000;fill-opacity:1;fill-rule:nonzero;stroke:none;font-family:Helvetica;-inkscape-font-specification:Helvetica-Bold">i</tspan></text>

</g></g><g
           id="g422"><g
             clip-path="url(#clipPath426)"
             id="g424"><text
   transform="matrix(1,0,0,-1,469.03,388.13)"
   id="text430"><tspan
     x="0"
     y="0"
     id="tspan432"
     style="font-size:12px;font-variant:normal;font-weight:bold;writing-mode:lr-tb;fill:#000000;fill-opacity:1;fill-rule:nonzero;stroke:none;font-family:Helvetica;-inkscape-font-specification:Helvetica-Bold">n</tspan></text>

</g></g><g
           id="g434"><g
             clip-path="url(#clipPath438)"
             id="g436"><text
   transform="matrix(1,0,0,-1,476.35,388.13)"
   id="text442"><tspan
     x="0"
     y="0"
     id="tspan444"
     style="font-size:12px;font-variant:normal;font-weight:bold;writing-mode:lr-tb;fill:#000000;fill-opacity:1;fill-rule:nonzero;stroke:none;font-family:Helvetica;-inkscape-font-specification:Helvetica-Bold">B</tspan></text>

</g></g><g
           id="g446"><g
             clip-path="url(#clipPath450)"
             id="g448" /></g></g></g><path
       d="m 405.7,385.25 110,0"
       inkscape:connector-curvature="0"
       id="path454"
       style="fill:none;stroke:#000000;stroke-width:0.75;stroke-linecap:round;stroke-linejoin:round;stroke-miterlimit:8;stroke-opacity:1;stroke-dasharray:none" /><g
       id="g456"><g
         clip-path="url(#clipPath460)"
         id="g458"><g
           id="g464"><g
             clip-path="url(#clipPath468)"
             id="g466" /></g><g
           id="g472"><g
             clip-path="url(#clipPath476)"
             id="g474"><text
   transform="matrix(1,0,0,-1,432.17,370.25)"
   id="text480"><tspan
     x="0"
     y="0"
     id="tspan482"
     style="font-size:12px;font-variant:normal;font-weight:normal;writing-mode:lr-tb;fill:#000000;fill-opacity:1;fill-rule:nonzero;stroke:none;font-family:Helvetica;-inkscape-font-specification:Helvetica">o</tspan></text>

</g></g><g
           id="g484"><g
             clip-path="url(#clipPath488)"
             id="g486"><text
   transform="matrix(1,0,0,-1,438.89,370.25)"
   id="text492"><tspan
     x="0 6.7080002 13.416 17.412001 24.084 27.42 29.976 36.683998"
     y="0"
     id="tspan494"
     style="font-size:12px;font-variant:normal;font-weight:normal;writing-mode:lr-tb;fill:#000000;fill-opacity:1;fill-rule:nonzero;stroke:none;font-family:Helvetica;-inkscape-font-specification:Helvetica">peration</tspan></text>

</g></g><g
           id="g496"><g
             clip-path="url(#clipPath500)"
             id="g498" /></g><g
           id="g504"><g
             clip-path="url(#clipPath508)"
             id="g506"><text
   transform="matrix(1,0,0,-1,485.71,370.25)"
   id="text512"><tspan
     x="0 3.96"
     y="0"
     id="tspan514"
     style="font-size:12px;font-variant:normal;font-weight:normal;writing-mode:lr-tb;fill:#000000;fill-opacity:1;fill-rule:nonzero;stroke:none;font-family:Helvetica;-inkscape-font-specification:Helvetica">()</tspan></text>

</g></g><g
           id="g516"><g
             clip-path="url(#clipPath520)"
             id="g518" /></g></g></g><path
       d="m 285.55,364.85 103.75,0 0,34.5 -103.75,0 0,-34.5 z"
       inkscape:connector-curvature="0"
       id="path524"
       style="fill:none;stroke:#000000;stroke-width:0.75;stroke-linecap:round;stroke-linejoin:miter;stroke-miterlimit:8;stroke-opacity:1;stroke-dasharray:none" /><g
       id="g526"><g
         clip-path="url(#clipPath530)"
         id="g528"><g
           id="g534"><g
             clip-path="url(#clipPath538)"
             id="g536"><text
   transform="matrix(1,0,0,-1,311.57,388.25)"
   id="text542"><tspan
     x="0 8.0279999 11.364 18.695999"
     y="0"
     id="tspan544"
     style="font-size:12px;font-variant:normal;font-weight:bold;writing-mode:lr-tb;fill:#000000;fill-opacity:1;fill-rule:nonzero;stroke:none;font-family:Helvetica;-inkscape-font-specification:Helvetica-Bold">Plug</tspan></text>

</g></g><g
           id="g546"><g
             clip-path="url(#clipPath550)"
             id="g548"><text
   transform="matrix(1,0,0,-1,337.61,388.25)"
   id="text554"><tspan
     x="0"
     y="0"
     id="tspan556"
     style="font-size:12px;font-variant:normal;font-weight:bold;writing-mode:lr-tb;fill:#000000;fill-opacity:1;fill-rule:nonzero;stroke:none;font-family:Helvetica;-inkscape-font-specification:Helvetica-Bold">-</tspan></text>

</g></g><g
           id="g558"><g
             clip-path="url(#clipPath562)"
             id="g560"><text
   transform="matrix(1,0,0,-1,341.57,388.25)"
   id="text566"><tspan
     x="0"
     y="0"
     id="tspan568"
     style="font-size:12px;font-variant:normal;font-weight:bold;writing-mode:lr-tb;fill:#000000;fill-opacity:1;fill-rule:nonzero;stroke:none;font-family:Helvetica;-inkscape-font-specification:Helvetica-Bold">i</tspan></text>

</g></g><g
           id="g570"><g
             clip-path="url(#clipPath574)"
             id="g572"><text
   transform="matrix(1,0,0,-1,344.93,388.25)"
   id="text578"><tspan
     x="0"
     y="0"
     id="tspan580"
     style="font-size:12px;font-variant:normal;font-weight:bold;writing-mode:lr-tb;fill:#000000;fill-opacity:1;fill-rule:nonzero;stroke:none;font-family:Helvetica;-inkscape-font-specification:Helvetica-Bold">n</tspan></text>

</g></g><g
           id="g582"><g
             clip-path="url(#clipPath586)"
             id="g584"><text
   transform="matrix(1,0,0,-1,352.37,388.25)"
   id="text590"><tspan
     x="0"
     y="0"
     id="tspan592"
     style="font-size:12px;font-variant:normal;font-weight:bold;writing-mode:lr-tb;fill:#000000;fill-opacity:1;fill-rule:nonzero;stroke:none;font-family:Helvetica;-inkscape-font-specification:Helvetica-Bold">A</tspan></text>

</g></g><g
           id="g594"><g
             clip-path="url(#clipPath598)"
             id="g596" /></g></g></g><g
       id="g602"><g
         clip-path="url(#clipPath606)"
         id="g604"><g
           id="g610"><g
             clip-path="url(#clipPath614)"
             id="g612" /></g><g
           id="g618"><g
             clip-path="url(#clipPath622)"
             id="g620"><text
   transform="matrix(1,0,0,-1,313.25,371.33)"
   id="text626"><tspan
     x="0"
     y="0"
     id="tspan628"
     style="font-size:12px;font-variant:normal;font-weight:normal;writing-mode:lr-tb;fill:#000000;fill-opacity:1;fill-rule:nonzero;stroke:none;font-family:Helvetica;-inkscape-font-specification:Helvetica">o</tspan></text>

</g></g><g
           id="g630"><g
             clip-path="url(#clipPath634)"
             id="g632"><text
   transform="matrix(1,0,0,-1,319.97,371.33)"
   id="text638"><tspan
     x="0 6.7080002 13.416 17.412001 24.084 27.42 29.976 36.683998 43.391998 47.388"
     y="0"
     id="tspan640"
     style="font-size:12px;font-variant:normal;font-weight:normal;writing-mode:lr-tb;fill:#000000;fill-opacity:1;fill-rule:nonzero;stroke:none;font-family:Helvetica;-inkscape-font-specification:Helvetica">peration()</tspan></text>

</g></g><g
           id="g642"><g
             clip-path="url(#clipPath646)"
             id="g644" /></g></g></g><path
       d="m 285.8,385.4 103.75,-0.05"
       inkscape:connector-curvature="0"
       id="path650"
       style="fill:none;stroke:#000000;stroke-width:0.75;stroke-linecap:round;stroke-linejoin:round;stroke-miterlimit:8;stroke-opacity:1;stroke-dasharray:none" /><path
       d="m 533.45,364.8 112.8,0 0,34.5 -112.8,0 0,-34.5 z"
       inkscape:connector-curvature="0"
       id="path652"
       style="fill:none;stroke:#000000;stroke-width:0.75;stroke-linecap:round;stroke-linejoin:miter;stroke-miterlimit:8;stroke-opacity:1;stroke-dasharray:none" /><g
       id="g654"><g
         clip-path="url(#clipPath658)"
         id="g656"><g
           id="g662"><g
             clip-path="url(#clipPath666)"
             id="g664" /></g><g
           id="g670"><g
             clip-path="url(#clipPath674)"
             id="g672"><text
   transform="matrix(1,0,0,-1,561.91,370.73)"
   id="text678"><tspan
     x="0"
     y="0"
     id="tspan680"
     style="font-size:12px;font-variant:normal;font-weight:normal;writing-mode:lr-tb;fill:#000000;fill-opacity:1;fill-rule:nonzero;stroke:none;font-family:Helvetica;-inkscape-font-specification:Helvetica">o</tspan></text>

</g></g><g
           id="g682"><g
             clip-path="url(#clipPath686)"
             id="g684"><text
   transform="matrix(1,0,0,-1,568.63,370.73)"
   id="text690"><tspan
     x="0 6.7080002 13.416 17.412001 24.084 27.42 29.976 36.683998 43.391998 47.388"
     y="0"
     id="tspan692"
     style="font-size:12px;font-variant:normal;font-weight:normal;writing-mode:lr-tb;fill:#000000;fill-opacity:1;fill-rule:nonzero;stroke:none;font-family:Helvetica;-inkscape-font-specification:Helvetica">peration()</tspan></text>

</g></g><g
           id="g694"><g
             clip-path="url(#clipPath698)"
             id="g696" /></g></g></g><path
       d="m 533.45,385.35 111.3,-0.1"
       inkscape:connector-curvature="0"
       id="path702"
       style="fill:none;stroke:#000000;stroke-width:0.75;stroke-linecap:round;stroke-linejoin:round;stroke-miterlimit:8;stroke-opacity:1;stroke-dasharray:none" /><g
       id="g704"><g
         clip-path="url(#clipPath708)"
         id="g706"><g
           id="g712"><g
             clip-path="url(#clipPath716)"
             id="g714"><text
   transform="matrix(1,0,0,-1,564.43,387.89)"
   id="text720"><tspan
     x="0 8.0279999 11.364 18.695999"
     y="0"
     id="tspan722"
     style="font-size:12px;font-variant:normal;font-weight:bold;writing-mode:lr-tb;fill:#000000;fill-opacity:1;fill-rule:nonzero;stroke:none;font-family:Helvetica;-inkscape-font-specification:Helvetica-Bold">Plug</tspan></text>

</g></g><g
           id="g724"><g
             clip-path="url(#clipPath728)"
             id="g726"><text
   transform="matrix(1,0,0,-1,590.47,387.89)"
   id="text732"><tspan
     x="0"
     y="0"
     id="tspan734"
     style="font-size:12px;font-variant:normal;font-weight:bold;writing-mode:lr-tb;fill:#000000;fill-opacity:1;fill-rule:nonzero;stroke:none;font-family:Helvetica;-inkscape-font-specification:Helvetica-Bold">-</tspan></text>

</g></g><g
           id="g736"><g
             clip-path="url(#clipPath740)"
             id="g738"><text
   transform="matrix(1,0,0,-1,594.43,387.89)"
   id="text744"><tspan
     x="0 3.336 10.668"
     y="0"
     id="tspan746"
     style="font-size:12px;font-variant:normal;font-weight:bold;writing-mode:lr-tb;fill:#000000;fill-opacity:1;fill-rule:nonzero;stroke:none;font-family:Helvetica;-inkscape-font-specification:Helvetica-Bold">inC</tspan></text>

</g></g><g
           id="g748"><g
             clip-path="url(#clipPath752)"
             id="g750" /></g></g></g><path
       d="m 498.15,505.15 23.6,-10.91 -21.31,-14.98 -2.29,25.89 z"
       inkscape:connector-curvature="0"
       id="path756"
       style="fill:#ffffff;fill-opacity:1;fill-rule:evenodd;stroke:none" /><path
       d="m 498.15,505.15 23.6,-10.91 -21.31,-14.98 -2.29,25.89 z"
       inkscape:connector-curvature="0"
       id="path758"
       style="fill:none;stroke:#000000;stroke-width:0.75;stroke-linecap:round;stroke-linejoin:round;stroke-miterlimit:8;stroke-opacity:1;stroke-dasharray:none" /><g
       id="g760"><g
         clip-path="url(#clipPath764)"
         id="g762"><g
           id="g768"><g
             clip-path="url(#clipPath772)"
             id="g770" /></g></g></g><path
       d="m 460.17,504.9 13.03,-22.5 -26.05,0 13.02,22.5 z"
       inkscape:connector-curvature="0"
       id="path776"
       style="fill:#ffffff;fill-opacity:1;fill-rule:evenodd;stroke:none" /><path
       d="m 460.17,504.9 13.03,-22.5 -26.05,0 13.02,22.5 z"
       inkscape:connector-curvature="0"
       id="path778"
       style="fill:none;stroke:#000000;stroke-width:0.75;stroke-linecap:round;stroke-linejoin:round;stroke-miterlimit:8;stroke-opacity:1;stroke-dasharray:none" /><g
       id="g780"><g
         clip-path="url(#clipPath784)"
         id="g782"><g
           id="g788"><g
             clip-path="url(#clipPath792)"
             id="g790" /></g></g></g><path
       d="m 412.74,504.79 -2.12,-25.91 -21.41,14.85 23.53,11.06 z"
       inkscape:connector-curvature="0"
       id="path796"
       style="fill:#ffffff;fill-opacity:1;fill-rule:evenodd;stroke:none" /><path
       d="m 412.74,504.79 -2.12,-25.91 -21.41,14.85 23.53,11.06 z"
       inkscape:connector-curvature="0"
       id="path798"
       style="fill:none;stroke:#000000;stroke-width:0.75;stroke-linecap:round;stroke-linejoin:round;stroke-miterlimit:8;stroke-opacity:1;stroke-dasharray:none" /><g
       id="g800"><g
         clip-path="url(#clipPath804)"
         id="g802"><g
           id="g808"><g
             clip-path="url(#clipPath812)"
             id="g810" /></g></g></g><path
       d="m 279.82,544.25 -10.27,-7.97 10.27,-7.98 10.28,7.98 -10.28,7.97 z"
       inkscape:connector-curvature="0"
       id="path816"
       style="fill:#ffffff;fill-opacity:1;fill-rule:evenodd;stroke:none" /><path
       d="m 279.82,544.25 -10.27,-7.97 10.27,-7.98 10.28,7.98 -10.28,7.97 z"
       inkscape:connector-curvature="0"
       id="path818"
       style="fill:none;stroke:#000000;stroke-width:0.75;stroke-linecap:round;stroke-linejoin:round;stroke-miterlimit:8;stroke-opacity:1;stroke-dasharray:none" /><path
       d="m 290.1,536.4 115.85,0"
       inkscape:connector-curvature="0"
       id="path820"
       style="fill:none;stroke:#000000;stroke-width:0.75;stroke-linecap:round;stroke-linejoin:round;stroke-miterlimit:8;stroke-opacity:1;stroke-dasharray:none" /><g
       id="g822"><g
         clip-path="url(#clipPath826)"
         id="g824"><g
           id="g830"><g
             clip-path="url(#clipPath834)"
             id="g832"><text
   transform="matrix(1,0,0,-1,294.41,540.55)"
   id="text838"><tspan
     x="0"
     y="0"
     id="tspan840"
     style="font-size:12px;font-variant:normal;font-weight:normal;writing-mode:lr-tb;fill:#000000;fill-opacity:1;fill-rule:nonzero;stroke:none;font-family:Helvetica;-inkscape-font-specification:Helvetica">1</tspan></text>

</g></g><g
           id="g842"><g
             clip-path="url(#clipPath846)"
             id="g844" /></g></g></g><g
       id="g850"><g
         clip-path="url(#clipPath854)"
         id="g852"><g
           id="g858"><g
             clip-path="url(#clipPath862)"
             id="g860"><text
   transform="matrix(1,0,0,-1,381.29,540.55)"
   id="text866"><tspan
     x="0 6.7080002 10.044 13.416"
     y="0"
     id="tspan868"
     style="font-size:12px;font-variant:normal;font-weight:normal;writing-mode:lr-tb;fill:#000000;fill-opacity:1;fill-rule:nonzero;stroke:none;font-family:Helvetica;-inkscape-font-specification:Helvetica">1..*</tspan></text>

</g></g><g
           id="g870"><g
             clip-path="url(#clipPath874)"
             id="g872" /></g></g></g></g></svg>