<?xml version="1.0" encoding="UTF-8" standalone="no"?>
<!-- Created with Inkscape (http://www.inkscape.org/) -->

<svg
   xmlns:dc="http://purl.org/dc/elements/1.1/"
   xmlns:cc="http://creativecommons.org/ns#"
   xmlns:rdf="http://www.w3.org/1999/02/22-rdf-syntax-ns#"
   xmlns:svg="http://www.w3.org/2000/svg"
   xmlns="http://www.w3.org/2000/svg"
   xmlns:sodipodi="http://sodipodi.sourceforge.net/DTD/sodipodi-0.dtd"
   xmlns:inkscape="http://www.inkscape.org/namespaces/inkscape"
   version="1.1"
   width="298.00211"
   height="123.5"
   id="svg2"
   xml:space="preserve"
   inkscape:version="0.48.4 r9939"
   sodipodi:docname="Bild 5-33 Protokollabläufe eines Web Service.svg"><sodipodi:namedview
     pagecolor="#ffffff"
     bordercolor="#666666"
     borderopacity="1"
     objecttolerance="10"
     gridtolerance="10"
     guidetolerance="10"
     inkscape:pageopacity="0"
     inkscape:pageshadow="2"
     inkscape:window-width="640"
     inkscape:window-height="480"
     id="namedview258"
     showgrid="false"
     inkscape:zoom="0.18730159"
     inkscape:cx="158.34585"
     inkscape:cy="17.09375"
     inkscape:window-x="0"
     inkscape:window-y="0"
     inkscape:window-maximized="0"
     inkscape:current-layer="svg2" /><metadata
     id="metadata8"><rdf:RDF><cc:Work
         rdf:about=""><dc:format>image/svg+xml</dc:format><dc:type
           rdf:resource="http://purl.org/dc/dcmitype/StillImage" /></cc:Work></rdf:RDF></metadata><defs
     id="defs6"><clipPath
       id="clipPath16"><path
         d="m 386.57,566.59 64.2,0 0,11.76 -64.2,0 0,-11.76 z"
         inkscape:connector-curvature="0"
         id="path18" /></clipPath><clipPath
       id="clipPath24"><path
         d="m 386.57,566.59 64.2,0 0,11.76 -64.2,0 0,-11.76 z"
         inkscape:connector-curvature="0"
         id="path26" /></clipPath><clipPath
       id="clipPath36"><path
         d="m 386.57,566.59 64.2,0 0,11.76 -64.2,0 0,-11.76 z"
         inkscape:connector-curvature="0"
         id="path38" /></clipPath><clipPath
       id="clipPath46"><path
         d="m 557.48,567.31 63,0 0,11.88 -63,0 0,-11.88 z"
         inkscape:connector-curvature="0"
         id="path48" /></clipPath><clipPath
       id="clipPath54"><path
         d="m 557.47,567.31 63,0 0,11.88 -63,0 0,-11.88 z"
         inkscape:connector-curvature="0"
         id="path56" /></clipPath><clipPath
       id="clipPath66"><path
         d="m 557.47,567.31 63,0 0,11.88 -63,0 0,-11.88 z"
         inkscape:connector-curvature="0"
         id="path68" /></clipPath><clipPath
       id="clipPath74"><path
         d="m 476,498.79 54.84,0 0,14.16 -54.84,0 0,-14.16 z"
         inkscape:connector-curvature="0"
         id="path76" /></clipPath><clipPath
       id="clipPath82"><path
         d="m 475.99,498.79 54.84,0 0,14.16 -54.84,0 0,-14.16 z"
         inkscape:connector-curvature="0"
         id="path84" /></clipPath><clipPath
       id="clipPath94"><path
         d="m 475.99,498.79 54.84,0 0,14.16 -54.84,0 0,-14.16 z"
         inkscape:connector-curvature="0"
         id="path96" /></clipPath><clipPath
       id="clipPath106"><path
         d="m 475.99,498.79 54.84,0 0,14.16 -54.84,0 0,-14.16 z"
         inkscape:connector-curvature="0"
         id="path108" /></clipPath><clipPath
       id="clipPath118"><path
         d="m 475.99,498.79 54.84,0 0,14.16 -54.84,0 0,-14.16 z"
         inkscape:connector-curvature="0"
         id="path120" /></clipPath><clipPath
       id="clipPath126"><path
         d="m 475.99,498.79 54.84,0 0,14.16 -54.84,0 0,-14.16 z"
         inkscape:connector-curvature="0"
         id="path128" /></clipPath><clipPath
       id="clipPath138"><path
         d="m 475.99,498.79 54.84,0 0,14.16 -54.84,0 0,-14.16 z"
         inkscape:connector-curvature="0"
         id="path140" /></clipPath><clipPath
       id="clipPath150"><path
         d="m 475.99,498.79 54.84,0 0,14.16 -54.84,0 0,-14.16 z"
         inkscape:connector-curvature="0"
         id="path152" /></clipPath><clipPath
       id="clipPath172"><path
         d="m 369.65,514.03 81.12,0 0,21.24 -81.12,0 0,-21.24 z"
         inkscape:connector-curvature="0"
         id="path174" /></clipPath><clipPath
       id="clipPath180"><path
         d="m 369.65,514.03 81.12,0 0,21.24 -81.12,0 0,-21.24 z"
         inkscape:connector-curvature="0"
         id="path182" /></clipPath><clipPath
       id="clipPath192"><path
         d="m 369.65,514.03 81.12,0 0,21.24 -81.12,0 0,-21.24 z"
         inkscape:connector-curvature="0"
         id="path194" /></clipPath><clipPath
       id="clipPath204"><path
         d="m 369.65,514.03 81.12,0 0,21.24 -81.12,0 0,-21.24 z"
         inkscape:connector-curvature="0"
         id="path206" /></clipPath><clipPath
       id="clipPath216"><path
         d="m 369.65,514.03 81.12,0 0,21.24 -81.12,0 0,-21.24 z"
         inkscape:connector-curvature="0"
         id="path218" /></clipPath><clipPath
       id="clipPath224"><path
         d="m 369.65,514.03 81.12,0 0,21.24 -81.12,0 0,-21.24 z"
         inkscape:connector-curvature="0"
         id="path226" /></clipPath><clipPath
       id="clipPath236"><path
         d="m 369.65,514.03 81.12,0 0,21.24 -81.12,0 0,-21.24 z"
         inkscape:connector-curvature="0"
         id="path238" /></clipPath><clipPath
       id="clipPath248"><path
         d="m 369.65,514.03 81.12,0 0,21.24 -81.12,0 0,-21.24 z"
         inkscape:connector-curvature="0"
         id="path250" /></clipPath><clipPath
       id="clipPath260"><path
         d="m 369.65,514.03 81.12,0 0,21.24 -81.12,0 0,-21.24 z"
         inkscape:connector-curvature="0"
         id="path262" /></clipPath><clipPath
       id="clipPath268"><path
         d="m 466.73,579.55 93.27,0 0,8.28 -93.27,0 0,-8.28 z"
         inkscape:connector-curvature="0"
         id="path270" /></clipPath><clipPath
       id="clipPath276"><path
         d="m 466.73,579.55 93.264,0 0,8.28 -93.264,0 0,-8.28 z"
         inkscape:connector-curvature="0"
         id="path278" /></clipPath><clipPath
       id="clipPath288"><path
         d="m 466.73,579.55 93.264,0 0,8.28 -93.264,0 0,-8.28 z"
         inkscape:connector-curvature="0"
         id="path290" /></clipPath><clipPath
       id="clipPath300"><path
         d="m 466.73,579.55 93.264,0 0,8.28 -93.264,0 0,-8.28 z"
         inkscape:connector-curvature="0"
         id="path302" /></clipPath><clipPath
       id="clipPath312"><path
         d="m 466.73,579.55 93.264,0 0,8.28 -93.264,0 0,-8.28 z"
         inkscape:connector-curvature="0"
         id="path314" /></clipPath><clipPath
       id="clipPath320"><path
         d="m 466.73,579.55 93.264,0 0,8.28 -93.264,0 0,-8.28 z"
         inkscape:connector-curvature="0"
         id="path322" /></clipPath><clipPath
       id="clipPath332"><path
         d="m 466.73,579.55 93.264,0 0,8.28 -93.264,0 0,-8.28 z"
         inkscape:connector-curvature="0"
         id="path334" /></clipPath><clipPath
       id="clipPath340"><path
         d="m 539.36,492.55 81,0 0,14.4 -81,0 0,-14.4 z"
         inkscape:connector-curvature="0"
         id="path342" /></clipPath><clipPath
       id="clipPath348"><path
         d="m 539.35,492.55 81,0 0,14.4 -81,0 0,-14.4 z"
         inkscape:connector-curvature="0"
         id="path350" /></clipPath><clipPath
       id="clipPath360"><path
         d="m 539.35,492.55 81,0 0,14.4 -81,0 0,-14.4 z"
         inkscape:connector-curvature="0"
         id="path362" /></clipPath><clipPath
       id="clipPath372"><path
         d="m 539.35,492.55 81,0 0,14.4 -81,0 0,-14.4 z"
         inkscape:connector-curvature="0"
         id="path374" /></clipPath><clipPath
       id="clipPath380"><path
         d="m 539.35,492.55 81,0 0,14.4 -81,0 0,-14.4 z"
         inkscape:connector-curvature="0"
         id="path382" /></clipPath><clipPath
       id="clipPath392"><path
         d="m 539.35,492.55 81,0 0,14.4 -81,0 0,-14.4 z"
         inkscape:connector-curvature="0"
         id="path394" /></clipPath><clipPath
       id="clipPath400"><path
         d="m 496.16,540.55 92.52,0 0,8.16 -92.52,0 0,-8.16 z"
         inkscape:connector-curvature="0"
         id="path402" /></clipPath><clipPath
       id="clipPath408"><path
         d="m 496.15,540.55 92.52,0 0,8.16 -92.52,0 0,-8.16 z"
         inkscape:connector-curvature="0"
         id="path410" /></clipPath><clipPath
       id="clipPath420"><path
         d="m 496.15,540.55 92.52,0 0,8.16 -92.52,0 0,-8.16 z"
         inkscape:connector-curvature="0"
         id="path422" /></clipPath><clipPath
       id="clipPath428"><path
         d="m 496.15,540.55 92.52,0 0,8.16 -92.52,0 0,-8.16 z"
         inkscape:connector-curvature="0"
         id="path430" /></clipPath><clipPath
       id="clipPath440"><path
         d="m 496.15,540.55 92.52,0 0,8.16 -92.52,0 0,-8.16 z"
         inkscape:connector-curvature="0"
         id="path442" /></clipPath><clipPath
       id="clipPath448"><path
         d="m 465.17,563.95 90.63,0 0,8.28 -90.63,0 0,-8.28 z"
         inkscape:connector-curvature="0"
         id="path450" /></clipPath><clipPath
       id="clipPath456"><path
         d="m 465.17,563.95 90.624,0 0,8.28 -90.624,0 0,-8.28 z"
         inkscape:connector-curvature="0"
         id="path458" /></clipPath><clipPath
       id="clipPath468"><path
         d="m 465.17,563.95 90.624,0 0,8.28 -90.624,0 0,-8.28 z"
         inkscape:connector-curvature="0"
         id="path470" /></clipPath><clipPath
       id="clipPath480"><path
         d="m 465.17,563.95 90.624,0 0,8.28 -90.624,0 0,-8.28 z"
         inkscape:connector-curvature="0"
         id="path482" /></clipPath><clipPath
       id="clipPath492"><path
         d="m 465.17,563.95 90.624,0 0,8.28 -90.624,0 0,-8.28 z"
         inkscape:connector-curvature="0"
         id="path494" /></clipPath><clipPath
       id="clipPath500"><path
         d="m 465.17,563.95 90.624,0 0,8.28 -90.624,0 0,-8.28 z"
         inkscape:connector-curvature="0"
         id="path502" /></clipPath><clipPath
       id="clipPath512"><path
         d="m 465.17,563.95 90.624,0 0,8.28 -90.624,0 0,-8.28 z"
         inkscape:connector-curvature="0"
         id="path514" /></clipPath></defs><g
     transform="matrix(1.25,0,0,-1.25,-472.02915,736.40625)"
     id="g10"><g
       id="g12"><g
         clip-path="url(#clipPath16)"
         id="g14"><g
           id="g20"><g
             clip-path="url(#clipPath24)"
             id="g22"><text
   transform="matrix(1,0,0,-1,396.29,572.47)"
   id="text28"><tspan
     x="0 3.96 7.3140001 9.5939999 12.834 14.502 17.868 21.222 24.576 28.176001 31.889999 33.557999 36.924 38.958 42.312"
     y="0"
     id="tspan30"
     style="font-size:6px;font-variant:normal;font-weight:bold;writing-mode:lr-tb;fill:#000000;fill-opacity:1;fill-rule:nonzero;stroke:none;font-family:Helvetica;-inkscape-font-specification:Helvetica-Bold">Serviceanbieter</tspan></text>

</g></g><g
           id="g32"><g
             clip-path="url(#clipPath36)"
             id="g34" /></g></g></g><path
       d="m 562.15,559.5 53.5,0 0,28.85 -53.5,0 0,-28.85 z"
       inkscape:connector-curvature="0"
       id="path40"
       style="fill:none;stroke:#000000;stroke-width:0.75;stroke-linecap:round;stroke-linejoin:miter;stroke-miterlimit:10;stroke-opacity:1;stroke-dasharray:none" /><g
       id="g42"><g
         clip-path="url(#clipPath46)"
         id="g44"><g
           id="g50"><g
             clip-path="url(#clipPath54)"
             id="g52"><text
   transform="matrix(1,0,0,-1,569.23,573.43)"
   id="text58"><tspan
     x="0 3.96 7.3140001 9.5939999 12.834 14.502 17.868 21.222 24.936001 28.535999 30.57 33.57 36.924"
     y="0"
     id="tspan60"
     style="font-size:6px;font-variant:normal;font-weight:bold;writing-mode:lr-tb;fill:#000000;fill-opacity:1;fill-rule:nonzero;stroke:none;font-family:Helvetica;-inkscape-font-specification:Helvetica-Bold">Servicenutzer</tspan></text>

</g></g><g
           id="g62"><g
             clip-path="url(#clipPath66)"
             id="g64" /></g></g></g><g
       id="g70"><g
         clip-path="url(#clipPath74)"
         id="g72"><g
           id="g78"><g
             clip-path="url(#clipPath82)"
             id="g80"><text
   transform="matrix(1,0,0,-1,491.71,507.55)"
   id="text86"><tspan
     x="0"
     y="0"
     id="tspan88"
     style="font-size:6px;font-variant:normal;font-weight:bold;writing-mode:lr-tb;fill:#000000;fill-opacity:1;fill-rule:nonzero;stroke:none;font-family:Helvetica;-inkscape-font-specification:Helvetica-Bold">S</tspan></text>

</g></g><g
           id="g90"><g
             clip-path="url(#clipPath94)"
             id="g92"><text
   transform="matrix(1,0,0,-1,495.67,507.55)"
   id="text98"><tspan
     x="0 3.3540001 5.6339998 8.8739996 10.542 13.908"
     y="0"
     id="tspan100"
     style="font-size:6px;font-variant:normal;font-weight:bold;writing-mode:lr-tb;fill:#000000;fill-opacity:1;fill-rule:nonzero;stroke:none;font-family:Helvetica;-inkscape-font-specification:Helvetica-Bold">ervice</tspan></text>

</g></g><g
           id="g102"><g
             clip-path="url(#clipPath106)"
             id="g104"><text
   transform="matrix(1,0,0,-1,512.95,507.55)"
   id="text110"><tspan
     x="0"
     y="0"
     id="tspan112"
     style="font-size:6px;font-variant:normal;font-weight:bold;writing-mode:lr-tb;fill:#000000;fill-opacity:1;fill-rule:nonzero;stroke:none;font-family:Helvetica;-inkscape-font-specification:Helvetica-Bold">-</tspan></text>

</g></g><g
           id="g114"><g
             clip-path="url(#clipPath118)"
             id="g116" /></g><g
           id="g122"><g
             clip-path="url(#clipPath126)"
             id="g124"><text
   transform="matrix(1,0,0,-1,487.03,500.59)"
   id="text130"><tspan
     x="0"
     y="0"
     id="tspan132"
     style="font-size:6px;font-variant:normal;font-weight:bold;writing-mode:lr-tb;fill:#000000;fill-opacity:1;fill-rule:nonzero;stroke:none;font-family:Helvetica;-inkscape-font-specification:Helvetica-Bold">v</tspan></text>

</g></g><g
           id="g134"><g
             clip-path="url(#clipPath138)"
             id="g136"><text
   transform="matrix(1,0,0,-1,490.27,500.59)"
   id="text142"><tspan
     x="0 3.3540001 5.6339998 8.6339998 11.988 13.656 17.021999 20.736 24.336 26.004"
     y="0"
     id="tspan144"
     style="font-size:6px;font-variant:normal;font-weight:bold;writing-mode:lr-tb;fill:#000000;fill-opacity:1;fill-rule:nonzero;stroke:none;font-family:Helvetica;-inkscape-font-specification:Helvetica-Bold">erzeichnis</tspan></text>

</g></g><g
           id="g146"><g
             clip-path="url(#clipPath150)"
             id="g148" /></g></g></g><path
       d="m 478,490.7 53.5,0 0,28.85 -53.5,0 0,-28.85 z"
       inkscape:connector-curvature="0"
       id="path154"
       style="fill:none;stroke:#000000;stroke-width:0.75;stroke-linecap:round;stroke-linejoin:miter;stroke-miterlimit:10;stroke-opacity:1;stroke-dasharray:none" /><path
       d="m 391.55,559.9 53.5,0 0,28.85 -53.5,0 0,-28.85 z"
       inkscape:connector-curvature="0"
       id="path156"
       style="fill:none;stroke:#000000;stroke-width:0.75;stroke-linecap:round;stroke-linejoin:miter;stroke-miterlimit:10;stroke-opacity:1;stroke-dasharray:none" /><path
       d="m 445.05,564.5 108.1,0 c 0.28,0 0.5,-0.22 0.5,-0.5 0,-0.28 -0.22,-0.5 -0.5,-0.5 l -108.1,0 c -0.28,0 -0.5,0.22 -0.5,0.5 0,0.28 0.22,0.5 0.5,0.5 z m 107.1,1.5 10,-2 -10,-2 0,4 z"
       inkscape:connector-curvature="0"
       id="path158"
       style="fill:#000000;fill-opacity:1;fill-rule:nonzero;stroke:none" /><path
       d="m 531.17,495.58 66.63,58.37 c 0.21,0.18 0.52,0.16 0.71,-0.05 0.18,-0.21 0.16,-0.52 -0.05,-0.71 l -66.63,-58.37 c -0.21,-0.18 -0.52,-0.16 -0.71,0.05 -0.18,0.21 -0.16,0.52 0.05,0.71 z m 64.89,58.84 8.84,5.08 -6.2,-8.09 -2.64,3.01 z"
       inkscape:connector-curvature="0"
       id="path160"
       style="fill:#000000;fill-opacity:1;fill-rule:nonzero;stroke:none" /><path
       d="m 562.15,580.3 -108.1,-0.05 c -0.28,0 -0.5,0.23 -0.5,0.5 0,0.28 0.22,0.5 0.5,0.5 l 108.1,0.05 c 0.28,0 0.5,-0.22 0.5,-0.5 0,-0.28 -0.22,-0.5 -0.5,-0.5 z m -107.1,-1.55 -10,2 10,2 0,-4 z"
       inkscape:connector-curvature="0"
       id="path162"
       style="fill:#000000;fill-opacity:1;fill-rule:nonzero;stroke:none" /><path
       d="m 588.58,559.12 -49.93,-42.98 c -0.21,-0.18 -0.53,-0.15 -0.71,0.06 -0.18,0.2 -0.15,0.52 0.05,0.7 l 49.93,42.98 c 0.21,0.18 0.53,0.16 0.71,-0.05 0.18,-0.21 0.16,-0.53 -0.05,-0.71 z m -48.2,-43.46 -8.88,-5.01 6.27,8.04 2.61,-3.03 z"
       inkscape:connector-curvature="0"
       id="path164"
       style="fill:#000000;fill-opacity:1;fill-rule:nonzero;stroke:none" /><path
       d="m 417.69,559.86 52.05,-48.93 c 0.2,-0.19 0.21,-0.51 0.02,-0.71 -0.19,-0.2 -0.51,-0.21 -0.71,-0.02 l -52.04,48.94 c -0.2,0.18 -0.21,0.5 -0.02,0.7 0.18,0.2 0.5,0.21 0.7,0.02 z m 52.34,-47.15 5.92,-8.31 -8.66,5.39 2.74,2.92 z"
       inkscape:connector-curvature="0"
       id="path166"
       style="fill:#000000;fill-opacity:1;fill-rule:nonzero;stroke:none" /><g
       id="g168"><g
         clip-path="url(#clipPath172)"
         id="g170"><g
           id="g176"><g
             clip-path="url(#clipPath180)"
             id="g178"><text
   transform="matrix(1,0,0,-1,376.97,529.87)"
   id="text184"><tspan
     x="0 3.3540001 5.0219998"
     y="0"
     id="tspan186"
     style="font-size:6px;font-variant:normal;font-weight:bold;writing-mode:lr-tb;fill:#000000;fill-opacity:1;fill-rule:nonzero;stroke:none;font-family:Helvetica;-inkscape-font-specification:Helvetica-Bold">1. </tspan></text>

</g></g><g
           id="g188"><g
             clip-path="url(#clipPath192)"
             id="g190"><text
   transform="matrix(1,0,0,-1,383.69,529.87)"
   id="text196"><tspan
     x="0 3.96 7.3140001 9.5939999 13.308 15.342 17.375999 20.73 24.33 26.364 28.032 29.718 33.071999 36.672001 40.271999 43.872002 47.585999 49.254002 52.98 56.334 59.688"
     y="0"
     id="tspan198"
     style="font-size:6px;font-variant:normal;font-weight:bold;writing-mode:lr-tb;fill:#000000;fill-opacity:1;fill-rule:nonzero;stroke:none;font-family:Helvetica;-inkscape-font-specification:Helvetica-Bold">Veröffentlichung des </tspan></text>

</g></g><g
           id="g200"><g
             clip-path="url(#clipPath204)"
             id="g202"><text
   transform="matrix(1,0,0,-1,399.53,522.91)"
   id="text208"><tspan
     x="0 3.96 7.3140001 9.5939999 12.834 14.502 17.868"
     y="0"
     id="tspan210"
     style="font-size:6px;font-variant:normal;font-weight:bold;writing-mode:lr-tb;fill:#000000;fill-opacity:1;fill-rule:nonzero;stroke:none;font-family:Helvetica;-inkscape-font-specification:Helvetica-Bold">Service</tspan></text>

</g></g><g
           id="g212"><g
             clip-path="url(#clipPath216)"
             id="g214" /></g><g
           id="g220"><g
             clip-path="url(#clipPath224)"
             id="g222"><text
   transform="matrix(1,0,0,-1,390.29,515.59)"
   id="text228"><tspan
     x="0"
     y="0"
     id="tspan230"
     style="font-size:6px;font-variant:normal;font-weight:bold;writing-mode:lr-tb;fill:#000000;fill-opacity:1;fill-rule:nonzero;stroke:none;font-family:Helvetica;-inkscape-font-specification:Helvetica-Bold">(</tspan></text>

</g></g><g
           id="g232"><g
             clip-path="url(#clipPath236)"
             id="g234"><text
   transform="matrix(1,0,0,-1,392.33,515.59)"
   id="text240"><tspan
     x="0 5.6399999 9.6000004 13.932 17.634001 19.302"
     y="0"
     id="tspan242"
     style="font-size:6px;font-variant:normal;font-weight:bold;writing-mode:lr-tb;fill:#000000;fill-opacity:1;fill-rule:nonzero;stroke:none;font-family:Helvetica;-inkscape-font-specification:Helvetica-Bold">WSDL, </tspan></text>

</g></g><g
           id="g244"><g
             clip-path="url(#clipPath248)"
             id="g246"><text
   transform="matrix(1,0,0,-1,413.33,515.59)"
   id="text252"><tspan
     x="0 4.3319998 8.6400003 12.972 14.52"
     y="0"
     id="tspan254"
     style="font-size:6px;font-variant:normal;font-weight:bold;writing-mode:lr-tb;fill:#000000;fill-opacity:1;fill-rule:nonzero;stroke:none;font-family:Helvetica;-inkscape-font-specification:Helvetica-Bold">UDDI)</tspan></text>

</g></g><g
           id="g256"><g
             clip-path="url(#clipPath260)"
             id="g258" /></g></g></g><g
       id="g264"><g
         clip-path="url(#clipPath268)"
         id="g266"><g
           id="g272"><g
             clip-path="url(#clipPath276)"
             id="g274"><text
   transform="matrix(1,0,0,-1,473.95,582.07)"
   id="text280"><tspan
     x="0 3.3540001 5.0219998"
     y="0"
     id="tspan282"
     style="font-size:6px;font-variant:normal;font-weight:bold;writing-mode:lr-tb;fill:#000000;fill-opacity:1;fill-rule:nonzero;stroke:none;font-family:Helvetica;-inkscape-font-specification:Helvetica-Bold">4. </tspan></text>

</g></g><g
           id="g284"><g
             clip-path="url(#clipPath288)"
             id="g286"><text
   transform="matrix(1,0,0,-1,480.67,582.07)"
   id="text292"><tspan
     x="0 3.96 7.3140001 9.5939999 12.834 14.502 17.868 21.222"
     y="0"
     id="tspan294"
     style="font-size:6px;font-variant:normal;font-weight:bold;writing-mode:lr-tb;fill:#000000;fill-opacity:1;fill-rule:nonzero;stroke:none;font-family:Helvetica;-inkscape-font-specification:Helvetica-Bold">Servicea</tspan></text>

</g></g><g
           id="g296"><g
             clip-path="url(#clipPath300)"
             id="g298"><text
   transform="matrix(1,0,0,-1,505.27,582.07)"
   id="text304"><tspan
     x="0 3.5999999 5.6339998 8.0279999 11.628"
     y="0"
     id="tspan306"
     style="font-size:6px;font-variant:normal;font-weight:bold;writing-mode:lr-tb;fill:#000000;fill-opacity:1;fill-rule:nonzero;stroke:none;font-family:Helvetica;-inkscape-font-specification:Helvetica-Bold">ufruf</tspan></text>

</g></g><g
           id="g308"><g
             clip-path="url(#clipPath312)"
             id="g310" /></g><g
           id="g316"><g
             clip-path="url(#clipPath320)"
             id="g318"><text
   transform="matrix(1,0,0,-1,520.63,582.07)"
   id="text324"><tspan
     x="0 2.0339999 5.994 10.662 14.874 18.834"
     y="0"
     id="tspan326"
     style="font-size:6px;font-variant:normal;font-weight:bold;writing-mode:lr-tb;fill:#000000;fill-opacity:1;fill-rule:nonzero;stroke:none;font-family:Helvetica;-inkscape-font-specification:Helvetica-Bold">(SOAP)</tspan></text>

</g></g><g
           id="g328"><g
             clip-path="url(#clipPath332)"
             id="g330" /></g></g></g><g
       id="g336"><g
         clip-path="url(#clipPath340)"
         id="g338"><g
           id="g344"><g
             clip-path="url(#clipPath348)"
             id="g346"><text
   transform="matrix(1,0,0,-1,546.55,501.55)"
   id="text352"><tspan
     x="0 3.3540001 5.0219998"
     y="0"
     id="tspan354"
     style="font-size:6px;font-variant:normal;font-weight:bold;writing-mode:lr-tb;fill:#000000;fill-opacity:1;fill-rule:nonzero;stroke:none;font-family:Helvetica;-inkscape-font-specification:Helvetica-Bold">3. </tspan></text>

</g></g><g
           id="g356"><g
             clip-path="url(#clipPath360)"
             id="g358"><text
   transform="matrix(1,0,0,-1,553.27,501.55)"
   id="text364"><tspan
     x="0 3.96 7.3140001 9.5939999 14.262 17.628 19.296 22.662001 24.33 27.695999 31.296 33.330002 34.998001 38.970001 42.324001 44.604 47.844002 49.512001 52.877998"
     y="0"
     id="tspan366"
     style="font-size:6px;font-variant:normal;font-weight:bold;writing-mode:lr-tb;fill:#000000;fill-opacity:1;fill-rule:nonzero;stroke:none;font-family:Helvetica;-inkscape-font-specification:Helvetica-Bold">Verweis auf Service</tspan></text>

</g></g><g
           id="g368"><g
             clip-path="url(#clipPath372)"
             id="g370" /></g><g
           id="g376"><g
             clip-path="url(#clipPath380)"
             id="g378"><text
   transform="matrix(1,0,0,-1,546.55,494.23)"
   id="text384"><tspan
     x="0 2.0339999 7.6739998 11.634 15.966 19.667999"
     y="0"
     id="tspan386"
     style="font-size:6px;font-variant:normal;font-weight:bold;writing-mode:lr-tb;fill:#000000;fill-opacity:1;fill-rule:nonzero;stroke:none;font-family:Helvetica;-inkscape-font-specification:Helvetica-Bold">(WSDL)</tspan></text>

</g></g><g
           id="g388"><g
             clip-path="url(#clipPath392)"
             id="g390" /></g></g></g><g
       id="g396"><g
         clip-path="url(#clipPath400)"
         id="g398"><g
           id="g404"><g
             clip-path="url(#clipPath408)"
             id="g406"><text
   transform="matrix(1,0,0,-1,503.35,542.83)"
   id="text412"><tspan
     x="0 3.3540001 5.0219998 6.7080002 10.668 14.268 17.622 21.222 24.576 28.176001 30.209999 32.490002 35.844002 39.557999"
     y="0"
     id="tspan414"
     style="font-size:6px;font-variant:normal;font-weight:bold;writing-mode:lr-tb;fill:#000000;fill-opacity:1;fill-rule:nonzero;stroke:none;font-family:Helvetica;-inkscape-font-specification:Helvetica-Bold">2. Suchanfrage</tspan></text>

</g></g><g
           id="g416"><g
             clip-path="url(#clipPath420)"
             id="g418" /></g><g
           id="g424"><g
             clip-path="url(#clipPath428)"
             id="g426"><text
   transform="matrix(1,0,0,-1,547.99,542.83)"
   id="text432"><tspan
     x="0 2.0339999 6.3660002 10.674 15.006 16.554001"
     y="0"
     id="tspan434"
     style="font-size:6px;font-variant:normal;font-weight:bold;writing-mode:lr-tb;fill:#000000;fill-opacity:1;fill-rule:nonzero;stroke:none;font-family:Helvetica;-inkscape-font-specification:Helvetica-Bold">(UDDI)</tspan></text>

</g></g><g
           id="g436"><g
             clip-path="url(#clipPath440)"
             id="g438" /></g></g></g><g
       id="g444"><g
         clip-path="url(#clipPath448)"
         id="g446"><g
           id="g452"><g
             clip-path="url(#clipPath456)"
             id="g454"><text
   transform="matrix(1,0,0,-1,472.39,566.47)"
   id="text460"><tspan
     x="0 3.3540001 5.0219998"
     y="0"
     id="tspan462"
     style="font-size:6px;font-variant:normal;font-weight:bold;writing-mode:lr-tb;fill:#000000;fill-opacity:1;fill-rule:nonzero;stroke:none;font-family:Helvetica;-inkscape-font-specification:Helvetica-Bold">5. </tspan></text>

</g></g><g
           id="g464"><g
             clip-path="url(#clipPath468)"
             id="g466"><text
   transform="matrix(1,0,0,-1,479.11,566.47)"
   id="text472"><tspan
     x="0 3.96 7.3140001 9.5939999 12.834 14.502 17.868 21.222"
     y="0"
     id="tspan474"
     style="font-size:6px;font-variant:normal;font-weight:bold;writing-mode:lr-tb;fill:#000000;fill-opacity:1;fill-rule:nonzero;stroke:none;font-family:Helvetica;-inkscape-font-specification:Helvetica-Bold">Servicea</tspan></text>

</g></g><g
           id="g476"><g
             clip-path="url(#clipPath480)"
             id="g478"><text
   transform="matrix(1,0,0,-1,503.71,566.47)"
   id="text484"><tspan
     x="0 3.5999999 5.6339998 10.302 14.028 16.308001"
     y="0"
     id="tspan486"
     style="font-size:6px;font-variant:normal;font-weight:bold;writing-mode:lr-tb;fill:#000000;fill-opacity:1;fill-rule:nonzero;stroke:none;font-family:Helvetica;-inkscape-font-specification:Helvetica-Bold">ntwort</tspan></text>

</g></g><g
           id="g488"><g
             clip-path="url(#clipPath492)"
             id="g490" /></g><g
           id="g496"><g
             clip-path="url(#clipPath500)"
             id="g498"><text
   transform="matrix(1,0,0,-1,523.75,566.47)"
   id="text504"><tspan
     x="0 2.0339999 5.994 10.662 14.874 18.834"
     y="0"
     id="tspan506"
     style="font-size:6px;font-variant:normal;font-weight:bold;writing-mode:lr-tb;fill:#000000;fill-opacity:1;fill-rule:nonzero;stroke:none;font-family:Helvetica;-inkscape-font-specification:Helvetica-Bold">(SOAP)</tspan></text>

</g></g><g
           id="g508"><g
             clip-path="url(#clipPath512)"
             id="g510" /></g></g></g></g></svg>