<?xml version="1.0" encoding="UTF-8" standalone="no"?>
<!-- Created with Inkscape (http://www.inkscape.org/) -->

<svg
   xmlns:dc="http://purl.org/dc/elements/1.1/"
   xmlns:cc="http://creativecommons.org/ns#"
   xmlns:rdf="http://www.w3.org/1999/02/22-rdf-syntax-ns#"
   xmlns:svg="http://www.w3.org/2000/svg"
   xmlns="http://www.w3.org/2000/svg"
   xmlns:sodipodi="http://sodipodi.sourceforge.net/DTD/sodipodi-0.dtd"
   xmlns:inkscape="http://www.inkscape.org/namespaces/inkscape"
   version="1.1"
   width="579.88763"
   height="312.0498"
   id="svg2"
   xml:space="preserve"
   inkscape:version="0.48.4 r9939"
   sodipodi:docname="Bild 5-12 Prinzipieller Aufbau des OSI-Schichtenmodells.svg"><sodipodi:namedview
     pagecolor="#ffffff"
     bordercolor="#666666"
     borderopacity="1"
     objecttolerance="10"
     gridtolerance="10"
     guidetolerance="10"
     inkscape:pageopacity="0"
     inkscape:pageshadow="2"
     inkscape:window-width="640"
     inkscape:window-height="480"
     id="namedview332"
     showgrid="false"
     inkscape:zoom="0.18730159"
     inkscape:cx="498.9375"
     inkscape:cy="61.9375"
     inkscape:window-x="0"
     inkscape:window-y="0"
     inkscape:window-maximized="0"
     inkscape:current-layer="svg2" /><metadata
     id="metadata8"><rdf:RDF><cc:Work
         rdf:about=""><dc:format>image/svg+xml</dc:format><dc:type
           rdf:resource="http://purl.org/dc/dcmitype/StillImage" /></cc:Work></rdf:RDF></metadata><defs
     id="defs6"><clipPath
       id="clipPath84"><path
         d="m 105.63,457.75 270.02,0 0,15.72 -270.02,0 0,-15.72 z"
         inkscape:connector-curvature="0"
         id="path86" /></clipPath><clipPath
       id="clipPath92"><path
         d="m 105.62,457.75 270.02,0 0,15.72 -270.02,0 0,-15.72 z"
         inkscape:connector-curvature="0"
         id="path94" /></clipPath><clipPath
       id="clipPath104"><path
         d="m 105.62,457.75 270.02,0 0,15.72 -270.02,0 0,-15.72 z"
         inkscape:connector-curvature="0"
         id="path106" /></clipPath><clipPath
       id="clipPath112"><path
         d="m 105.62,457.75 270.02,0 0,15.72 -270.02,0 0,-15.72 z"
         inkscape:connector-curvature="0"
         id="path114" /></clipPath><clipPath
       id="clipPath124"><path
         d="m 105.62,457.75 270.02,0 0,15.72 -270.02,0 0,-15.72 z"
         inkscape:connector-curvature="0"
         id="path126" /></clipPath><clipPath
       id="clipPath132"><path
         d="m 123.63,690.33 66.84,0 0,16.2 -66.84,0 0,-16.2 z"
         inkscape:connector-curvature="0"
         id="path134" /></clipPath><clipPath
       id="clipPath140"><path
         d="m 123.62,690.34 66.84,0 0,16.2 -66.84,0 0,-16.2 z"
         inkscape:connector-curvature="0"
         id="path142" /></clipPath><clipPath
       id="clipPath152"><path
         d="m 123.62,690.34 66.84,0 0,16.2 -66.84,0 0,-16.2 z"
         inkscape:connector-curvature="0"
         id="path154" /></clipPath><clipPath
       id="clipPath164"><path
         d="m 123.62,690.34 66.84,0 0,16.2 -66.84,0 0,-16.2 z"
         inkscape:connector-curvature="0"
         id="path166" /></clipPath><clipPath
       id="clipPath176"><path
         d="m 123.62,690.34 66.84,0 0,16.2 -66.84,0 0,-16.2 z"
         inkscape:connector-curvature="0"
         id="path178" /></clipPath><clipPath
       id="clipPath184"><path
         d="m 291.65,689.61 66.84,0 0,16.2 -66.84,0 0,-16.2 z"
         inkscape:connector-curvature="0"
         id="path186" /></clipPath><clipPath
       id="clipPath192"><path
         d="m 291.65,689.62 66.84,0 0,16.2 -66.84,0 0,-16.2 z"
         inkscape:connector-curvature="0"
         id="path194" /></clipPath><clipPath
       id="clipPath204"><path
         d="m 291.65,689.62 66.84,0 0,16.2 -66.84,0 0,-16.2 z"
         inkscape:connector-curvature="0"
         id="path206" /></clipPath><clipPath
       id="clipPath216"><path
         d="m 291.65,689.62 66.84,0 0,16.2 -66.84,0 0,-16.2 z"
         inkscape:connector-curvature="0"
         id="path218" /></clipPath><clipPath
       id="clipPath224"><path
         d="m 213.63,596.71 47.64,0 0,12 -47.64,0 0,-12 z"
         inkscape:connector-curvature="0"
         id="path226" /></clipPath><clipPath
       id="clipPath232"><path
         d="m 213.62,596.71 47.64,0 0,12 -47.64,0 0,-12 z"
         inkscape:connector-curvature="0"
         id="path234" /></clipPath><clipPath
       id="clipPath244"><path
         d="m 213.62,596.71 47.64,0 0,12 -47.64,0 0,-12 z"
         inkscape:connector-curvature="0"
         id="path246" /></clipPath><clipPath
       id="clipPath256"><path
         d="m 213.62,596.71 47.64,0 0,12 -47.64,0 0,-12 z"
         inkscape:connector-curvature="0"
         id="path258" /></clipPath><clipPath
       id="clipPath264"><path
         d="m 213.63,580.99 60.96,0 0,15.72 -60.96,0 0,-15.72 z"
         inkscape:connector-curvature="0"
         id="path266" /></clipPath><clipPath
       id="clipPath272"><path
         d="m 213.62,580.99 60.96,0 0,15.72 -60.96,0 0,-15.72 z"
         inkscape:connector-curvature="0"
         id="path274" /></clipPath><clipPath
       id="clipPath284"><path
         d="m 213.62,580.99 60.96,0 0,15.72 -60.96,0 0,-15.72 z"
         inkscape:connector-curvature="0"
         id="path286" /></clipPath><clipPath
       id="clipPath292"><path
         d="m 291.65,627.43 228.27,0 0,15.72 -228.27,0 0,-15.72 z"
         inkscape:connector-curvature="0"
         id="path294" /></clipPath><clipPath
       id="clipPath300"><path
         d="m 291.65,627.43 228.26,0 0,15.72 -228.26,0 0,-15.72 z"
         inkscape:connector-curvature="0"
         id="path302" /></clipPath><clipPath
       id="clipPath308"><path
         d="m 291.65,627.43 228.26,0 0,15.72 -228.26,0 0,-15.72 z"
         inkscape:connector-curvature="0"
         id="path310" /></clipPath><clipPath
       id="clipPath320"><path
         d="m 291.65,627.43 228.26,0 0,15.72 -228.26,0 0,-15.72 z"
         inkscape:connector-curvature="0"
         id="path322" /></clipPath><clipPath
       id="clipPath332"><path
         d="m 291.65,627.43 228.26,0 0,15.72 -228.26,0 0,-15.72 z"
         inkscape:connector-curvature="0"
         id="path334" /></clipPath><clipPath
       id="clipPath344"><path
         d="m 291.65,627.43 228.26,0 0,15.72 -228.26,0 0,-15.72 z"
         inkscape:connector-curvature="0"
         id="path346" /></clipPath><clipPath
       id="clipPath352"><path
         d="m 291.65,603.31 228.15,0 0,15.72 -228.15,0 0,-15.72 z"
         inkscape:connector-curvature="0"
         id="path354" /></clipPath><clipPath
       id="clipPath360"><path
         d="m 291.65,603.31 228.14,0 0,15.72 -228.14,0 0,-15.72 z"
         inkscape:connector-curvature="0"
         id="path362" /></clipPath><clipPath
       id="clipPath368"><path
         d="m 291.65,603.31 228.14,0 0,15.72 -228.14,0 0,-15.72 z"
         inkscape:connector-curvature="0"
         id="path370" /></clipPath><clipPath
       id="clipPath380"><path
         d="m 291.65,603.31 228.14,0 0,15.72 -228.14,0 0,-15.72 z"
         inkscape:connector-curvature="0"
         id="path382" /></clipPath><clipPath
       id="clipPath392"><path
         d="m 291.65,603.31 228.14,0 0,15.72 -228.14,0 0,-15.72 z"
         inkscape:connector-curvature="0"
         id="path394" /></clipPath><clipPath
       id="clipPath400"><path
         d="m 291.65,578.95 279.15,0 0,15.84 -279.15,0 0,-15.84 z"
         inkscape:connector-curvature="0"
         id="path402" /></clipPath><clipPath
       id="clipPath408"><path
         d="m 291.65,578.95 279.14,0 0,15.84 -279.14,0 0,-15.84 z"
         inkscape:connector-curvature="0"
         id="path410" /></clipPath><clipPath
       id="clipPath420"><path
         d="m 291.65,578.95 279.14,0 0,15.84 -279.14,0 0,-15.84 z"
         inkscape:connector-curvature="0"
         id="path422" /></clipPath><clipPath
       id="clipPath428"><path
         d="m 291.77,554.83 228.15,0 0,15.72 -228.15,0 0,-15.72 z"
         inkscape:connector-curvature="0"
         id="path430" /></clipPath><clipPath
       id="clipPath436"><path
         d="m 291.77,554.83 228.14,0 0,15.72 -228.14,0 0,-15.72 z"
         inkscape:connector-curvature="0"
         id="path438" /></clipPath><clipPath
       id="clipPath444"><path
         d="m 291.77,554.83 228.14,0 0,15.72 -228.14,0 0,-15.72 z"
         inkscape:connector-curvature="0"
         id="path446" /></clipPath><clipPath
       id="clipPath456"><path
         d="m 291.77,554.83 228.14,0 0,15.72 -228.14,0 0,-15.72 z"
         inkscape:connector-curvature="0"
         id="path458" /></clipPath><clipPath
       id="clipPath464"><path
         d="m 291.65,531.67 232.23,0 0,15.72 -232.23,0 0,-15.72 z"
         inkscape:connector-curvature="0"
         id="path466" /></clipPath><clipPath
       id="clipPath472"><path
         d="m 291.65,531.67 232.22,0 0,15.72 -232.22,0 0,-15.72 z"
         inkscape:connector-curvature="0"
         id="path474" /></clipPath><clipPath
       id="clipPath480"><path
         d="m 291.65,531.67 232.22,0 0,15.72 -232.22,0 0,-15.72 z"
         inkscape:connector-curvature="0"
         id="path482" /></clipPath><clipPath
       id="clipPath492"><path
         d="m 291.65,531.67 232.22,0 0,15.72 -232.22,0 0,-15.72 z"
         inkscape:connector-curvature="0"
         id="path494" /></clipPath><clipPath
       id="clipPath500"><path
         d="m 291.77,507.31 232.11,0 0,15.84 -232.11,0 0,-15.84 z"
         inkscape:connector-curvature="0"
         id="path502" /></clipPath><clipPath
       id="clipPath508"><path
         d="m 291.77,507.31 232.1,0 0,15.84 -232.1,0 0,-15.84 z"
         inkscape:connector-curvature="0"
         id="path510" /></clipPath><clipPath
       id="clipPath516"><path
         d="m 291.77,507.31 232.1,0 0,15.84 -232.1,0 0,-15.84 z"
         inkscape:connector-curvature="0"
         id="path518" /></clipPath><clipPath
       id="clipPath528"><path
         d="m 291.77,507.31 232.1,0 0,15.84 -232.1,0 0,-15.84 z"
         inkscape:connector-curvature="0"
         id="path530" /></clipPath><clipPath
       id="clipPath540"><path
         d="m 291.77,507.31 232.1,0 0,15.84 -232.1,0 0,-15.84 z"
         inkscape:connector-curvature="0"
         id="path542" /></clipPath><clipPath
       id="clipPath552"><path
         d="m 291.77,507.31 232.1,0 0,15.84 -232.1,0 0,-15.84 z"
         inkscape:connector-curvature="0"
         id="path554" /></clipPath><clipPath
       id="clipPath560"><path
         d="m 291.77,482.35 239.55,0 0,17.4 -239.55,0 0,-17.4 z"
         inkscape:connector-curvature="0"
         id="path562" /></clipPath><clipPath
       id="clipPath568"><path
         d="m 291.77,482.35 239.54,0 0,17.4 -239.54,0 0,-17.4 z"
         inkscape:connector-curvature="0"
         id="path570" /></clipPath><clipPath
       id="clipPath576"><path
         d="m 291.77,482.35 239.54,0 0,17.4 -239.54,0 0,-17.4 z"
         inkscape:connector-curvature="0"
         id="path578" /></clipPath><clipPath
       id="clipPath588"><path
         d="m 291.77,482.35 239.54,0 0,17.4 -239.54,0 0,-17.4 z"
         inkscape:connector-curvature="0"
         id="path590" /></clipPath><clipPath
       id="clipPath596"><path
         d="m 200.19,653.83 82.335,0 0,28.695 -82.335,0 0,-28.695 z"
         inkscape:connector-curvature="0"
         id="path598" /></clipPath><clipPath
       id="clipPath604"><path
         d="m 200.18,653.83 82.344,0 0,28.704 -82.344,0 0,-28.704 z"
         inkscape:connector-curvature="0"
         id="path606" /></clipPath><clipPath
       id="clipPath616"><path
         d="m 200.18,653.83 82.344,0 0,28.704 -82.344,0 0,-28.704 z"
         inkscape:connector-curvature="0"
         id="path618" /></clipPath><clipPath
       id="clipPath628"><path
         d="m 200.18,653.83 82.344,0 0,28.704 -82.344,0 0,-28.704 z"
         inkscape:connector-curvature="0"
         id="path630" /></clipPath><clipPath
       id="clipPath636"><path
         d="m 200.18,653.83 82.344,0 0,28.704 -82.344,0 0,-28.704 z"
         inkscape:connector-curvature="0"
         id="path638" /></clipPath><clipPath
       id="clipPath648"><path
         d="m 200.18,653.83 82.344,0 0,28.704 -82.344,0 0,-28.704 z"
         inkscape:connector-curvature="0"
         id="path650" /></clipPath></defs><g
     transform="matrix(1.25,0,0,-1.25,-131.4375,880.1123)"
     id="g10"><path
       d="m 123.65,622.95 66.05,0 0,24.05 -66.05,0 0,-24.05 z"
       inkscape:connector-curvature="0"
       id="path12"
       style="fill:#ffffff;fill-opacity:1;fill-rule:evenodd;stroke:none" /><path
       d="m 123.65,622.95 66.05,0 0,24.05 -66.05,0 0,-24.05 z"
       inkscape:connector-curvature="0"
       id="path14"
       style="fill:none;stroke:#000000;stroke-width:1;stroke-linecap:round;stroke-linejoin:miter;stroke-miterlimit:10;stroke-opacity:1;stroke-dasharray:none" /><path
       d="m 123.65,598.95 66.05,0 0,24.05 -66.05,0 0,-24.05 z"
       inkscape:connector-curvature="0"
       id="path16"
       style="fill:#ffffff;fill-opacity:1;fill-rule:evenodd;stroke:none" /><path
       d="m 123.65,598.95 66.05,0 0,24.05 -66.05,0 0,-24.05 z"
       inkscape:connector-curvature="0"
       id="path18"
       style="fill:none;stroke:#000000;stroke-width:1;stroke-linecap:round;stroke-linejoin:miter;stroke-miterlimit:10;stroke-opacity:1;stroke-dasharray:none" /><path
       d="m 123.65,574.95 66.05,0 0,24.05 -66.05,0 0,-24.05 z"
       inkscape:connector-curvature="0"
       id="path20"
       style="fill:#ffffff;fill-opacity:1;fill-rule:evenodd;stroke:none" /><path
       d="m 123.65,574.95 66.05,0 0,24.05 -66.05,0 0,-24.05 z"
       inkscape:connector-curvature="0"
       id="path22"
       style="fill:none;stroke:#000000;stroke-width:1;stroke-linecap:round;stroke-linejoin:miter;stroke-miterlimit:10;stroke-opacity:1;stroke-dasharray:none" /><path
       d="m 123.65,550.95 66.05,0 0,24.05 -66.05,0 0,-24.05 z"
       inkscape:connector-curvature="0"
       id="path24"
       style="fill:#ffffff;fill-opacity:1;fill-rule:evenodd;stroke:none" /><path
       d="m 123.65,550.95 66.05,0 0,24.05 -66.05,0 0,-24.05 z"
       inkscape:connector-curvature="0"
       id="path26"
       style="fill:none;stroke:#000000;stroke-width:1;stroke-linecap:round;stroke-linejoin:miter;stroke-miterlimit:10;stroke-opacity:1;stroke-dasharray:none" /><path
       d="m 123.65,526.95 66.05,0 0,24.05 -66.05,0 0,-24.05 z"
       inkscape:connector-curvature="0"
       id="path28"
       style="fill:#ffffff;fill-opacity:1;fill-rule:evenodd;stroke:none" /><path
       d="m 123.65,526.95 66.05,0 0,24.05 -66.05,0 0,-24.05 z"
       inkscape:connector-curvature="0"
       id="path30"
       style="fill:none;stroke:#000000;stroke-width:1;stroke-linecap:round;stroke-linejoin:miter;stroke-miterlimit:10;stroke-opacity:1;stroke-dasharray:none" /><path
       d="m 123.65,502.95 66.05,0 0,24.05 -66.05,0 0,-24.05 z"
       inkscape:connector-curvature="0"
       id="path32"
       style="fill:#ffffff;fill-opacity:1;fill-rule:evenodd;stroke:none" /><path
       d="m 123.65,502.95 66.05,0 0,24.05 -66.05,0 0,-24.05 z"
       inkscape:connector-curvature="0"
       id="path34"
       style="fill:none;stroke:#000000;stroke-width:1;stroke-linecap:round;stroke-linejoin:miter;stroke-miterlimit:10;stroke-opacity:1;stroke-dasharray:none" /><path
       d="m 123.65,478.95 66.05,0 0,24.05 -66.05,0 0,-24.05 z"
       inkscape:connector-curvature="0"
       id="path36"
       style="fill:#ffffff;fill-opacity:1;fill-rule:evenodd;stroke:none" /><path
       d="m 123.65,478.95 66.05,0 0,24.05 -66.05,0 0,-24.05 z"
       inkscape:connector-curvature="0"
       id="path38"
       style="fill:none;stroke:#000000;stroke-width:1;stroke-linecap:round;stroke-linejoin:miter;stroke-miterlimit:10;stroke-opacity:1;stroke-dasharray:none" /><path
       d="m 291.65,622.95 66.05,0 0,24.05 -66.05,0 0,-24.05 z"
       inkscape:connector-curvature="0"
       id="path40"
       style="fill:#ffffff;fill-opacity:1;fill-rule:evenodd;stroke:none" /><path
       d="m 291.65,622.95 66.05,0 0,24.05 -66.05,0 0,-24.05 z"
       inkscape:connector-curvature="0"
       id="path42"
       style="fill:none;stroke:#000000;stroke-width:1;stroke-linecap:round;stroke-linejoin:miter;stroke-miterlimit:10;stroke-opacity:1;stroke-dasharray:none" /><path
       d="m 291.65,598.95 66.05,0 0,24.05 -66.05,0 0,-24.05 z"
       inkscape:connector-curvature="0"
       id="path44"
       style="fill:#ffffff;fill-opacity:1;fill-rule:evenodd;stroke:none" /><path
       d="m 291.65,598.95 66.05,0 0,24.05 -66.05,0 0,-24.05 z"
       inkscape:connector-curvature="0"
       id="path46"
       style="fill:none;stroke:#000000;stroke-width:1;stroke-linecap:round;stroke-linejoin:miter;stroke-miterlimit:10;stroke-opacity:1;stroke-dasharray:none" /><path
       d="m 291.65,574.95 66.05,0 0,24.05 -66.05,0 0,-24.05 z"
       inkscape:connector-curvature="0"
       id="path48"
       style="fill:#ffffff;fill-opacity:1;fill-rule:evenodd;stroke:none" /><path
       d="m 291.65,574.95 66.05,0 0,24.05 -66.05,0 0,-24.05 z"
       inkscape:connector-curvature="0"
       id="path50"
       style="fill:none;stroke:#000000;stroke-width:1;stroke-linecap:round;stroke-linejoin:miter;stroke-miterlimit:10;stroke-opacity:1;stroke-dasharray:none" /><path
       d="m 291.65,550.95 66.05,0 0,24.05 -66.05,0 0,-24.05 z"
       inkscape:connector-curvature="0"
       id="path52"
       style="fill:#ffffff;fill-opacity:1;fill-rule:evenodd;stroke:none" /><path
       d="m 291.65,550.95 66.05,0 0,24.05 -66.05,0 0,-24.05 z"
       inkscape:connector-curvature="0"
       id="path54"
       style="fill:none;stroke:#000000;stroke-width:1;stroke-linecap:round;stroke-linejoin:miter;stroke-miterlimit:10;stroke-opacity:1;stroke-dasharray:none" /><path
       d="m 291.65,526.95 66.05,0 0,24.05 -66.05,0 0,-24.05 z"
       inkscape:connector-curvature="0"
       id="path56"
       style="fill:#ffffff;fill-opacity:1;fill-rule:evenodd;stroke:none" /><path
       d="m 291.65,526.95 66.05,0 0,24.05 -66.05,0 0,-24.05 z"
       inkscape:connector-curvature="0"
       id="path58"
       style="fill:none;stroke:#000000;stroke-width:1;stroke-linecap:round;stroke-linejoin:miter;stroke-miterlimit:10;stroke-opacity:1;stroke-dasharray:none" /><path
       d="m 291.65,502.95 66.05,0 0,24.05 -66.05,0 0,-24.05 z"
       inkscape:connector-curvature="0"
       id="path60"
       style="fill:#ffffff;fill-opacity:1;fill-rule:evenodd;stroke:none" /><path
       d="m 291.65,502.95 66.05,0 0,24.05 -66.05,0 0,-24.05 z"
       inkscape:connector-curvature="0"
       id="path62"
       style="fill:none;stroke:#000000;stroke-width:1;stroke-linecap:round;stroke-linejoin:miter;stroke-miterlimit:10;stroke-opacity:1;stroke-dasharray:none" /><path
       d="m 291.65,478.95 66.05,0 0,24.05 -66.05,0 0,-24.05 z"
       inkscape:connector-curvature="0"
       id="path64"
       style="fill:#ffffff;fill-opacity:1;fill-rule:evenodd;stroke:none" /><path
       d="m 291.65,478.95 66.05,0 0,24.05 -66.05,0 0,-24.05 z"
       inkscape:connector-curvature="0"
       id="path66"
       style="fill:none;stroke:#000000;stroke-width:1;stroke-linecap:round;stroke-linejoin:miter;stroke-miterlimit:10;stroke-opacity:1;stroke-dasharray:none" /><path
       d="m 105.65,454.95 270.05,0 0,24.05 -270.05,0 0,-24.05 z"
       inkscape:connector-curvature="0"
       id="path68"
       style="fill:#ffffff;fill-opacity:1;fill-rule:evenodd;stroke:none" /><path
       d="m 105.65,454.95 270.05,0 0,24.05 -270.05,0 0,-24.05 z"
       inkscape:connector-curvature="0"
       id="path70"
       style="fill:none;stroke:#000000;stroke-width:1;stroke-linecap:round;stroke-linejoin:miter;stroke-miterlimit:10;stroke-opacity:1;stroke-dasharray:none" /><path
       d="m 131.66,593 c -1.11,0 -2.01,-0.9 -2.01,-2.01 l 0,-8.03 c 0,-1.11 0.9,-2.01 2.01,-2.01 l 50.03,0 c 1.11,0 2.01,0.9 2.01,2.01 l 0,8.03 c 0,1.11 -0.9,2.01 -2.01,2.01 l -50.03,0 z"
       inkscape:connector-curvature="0"
       id="path72"
       style="fill:#f2f2f2;fill-opacity:1;fill-rule:evenodd;stroke:none" /><path
       d="m 131.66,593 c -1.11,0 -2.01,-0.9 -2.01,-2.01 l 0,-8.03 c 0,-1.11 0.9,-2.01 2.01,-2.01 l 50.03,0 c 1.11,0 2.01,0.9 2.01,2.01 l 0,8.03 c 0,1.11 -0.9,2.01 -2.01,2.01 l -50.03,0 z"
       inkscape:connector-curvature="0"
       id="path74"
       style="fill:none;stroke:#c0c0c0;stroke-width:1;stroke-linecap:round;stroke-linejoin:round;stroke-miterlimit:10;stroke-opacity:1;stroke-dasharray:none" /><path
       d="m 299.66,593 c -1.11,0 -2.01,-0.9 -2.01,-2.01 l 0,-8.03 c 0,-1.11 0.9,-2.01 2.01,-2.01 l 50.03,0 c 1.11,0 2.01,0.9 2.01,2.01 l 0,8.03 c 0,1.11 -0.9,2.01 -2.01,2.01 l -50.03,0 z"
       inkscape:connector-curvature="0"
       id="path76"
       style="fill:#f2f2f2;fill-opacity:1;fill-rule:evenodd;stroke:none" /><path
       d="m 299.66,593 c -1.11,0 -2.01,-0.9 -2.01,-2.01 l 0,-8.03 c 0,-1.11 0.9,-2.01 2.01,-2.01 l 50.03,0 c 1.11,0 2.01,0.9 2.01,2.01 l 0,8.03 c 0,1.11 -0.9,2.01 -2.01,2.01 l -50.03,0 z"
       inkscape:connector-curvature="0"
       id="path78"
       style="fill:none;stroke:#c0c0c0;stroke-width:1;stroke-linecap:round;stroke-linejoin:round;stroke-miterlimit:10;stroke-opacity:1;stroke-dasharray:none" /><g
       id="g80"><g
         clip-path="url(#clipPath84)"
         id="g82"><g
           id="g88"><g
             clip-path="url(#clipPath92)"
             id="g90"><text
   transform="matrix(1,0,0,-1,187.94,462.31)"
   id="text96"><tspan
     x="0 6.7080002 13.416 19.296 25.296 27.959999 33.959999 39.959999 46.632 53.363998"
     y="0"
     id="tspan98"
     style="font-size:12px;font-variant:normal;font-weight:normal;writing-mode:lr-tb;fill:#000000;fill-opacity:1;fill-rule:nonzero;stroke:none;font-family:Helvetica;-inkscape-font-specification:Helvetica">physisches</tspan></text>

</g></g><g
           id="g100"><g
             clip-path="url(#clipPath104)"
             id="g102" /></g><g
           id="g108"><g
             clip-path="url(#clipPath112)"
             id="g110"><text
   transform="matrix(1,0,0,-1,250.7,462.31)"
   id="text116"><tspan
     x="0 9.96 16.667999 23.375999 26.040001 32.616001"
     y="0"
     id="tspan118"
     style="font-size:12px;font-variant:normal;font-weight:normal;writing-mode:lr-tb;fill:#000000;fill-opacity:1;fill-rule:nonzero;stroke:none;font-family:Helvetica;-inkscape-font-specification:Helvetica">Medium</tspan></text>

</g></g><g
           id="g120"><g
             clip-path="url(#clipPath124)"
             id="g122" /></g></g></g><g
       id="g128"><g
         clip-path="url(#clipPath132)"
         id="g130"><g
           id="g136"><g
             clip-path="url(#clipPath140)"
             id="g138"><text
   transform="matrix(1,0,0,-1,127.34,695.5)"
   id="text144"><tspan
     x="0 8.0279999 14.736 21.444"
     y="0"
     id="tspan146"
     style="font-size:12px;font-variant:normal;font-weight:normal;writing-mode:lr-tb;fill:#000000;fill-opacity:1;fill-rule:nonzero;stroke:none;font-family:Helvetica;-inkscape-font-specification:Helvetica">Ends</tspan></text>

</g></g><g
           id="g148"><g
             clip-path="url(#clipPath152)"
             id="g150"><text
   transform="matrix(1,0,0,-1,154.82,695.5)"
   id="text156"><tspan
     x="0 5.8800001 11.88 15.216 21.948 31.908001"
     y="0"
     id="tspan158"
     style="font-size:12px;font-variant:normal;font-weight:normal;writing-mode:lr-tb;fill:#000000;fill-opacity:1;fill-rule:nonzero;stroke:none;font-family:Helvetica;-inkscape-font-specification:Helvetica">ystem </tspan></text>

</g></g><g
           id="g160"><g
             clip-path="url(#clipPath164)"
             id="g162"><text
   transform="matrix(1,0,0,-1,153.02,681.7)"
   id="text168"><tspan
     x="0"
     y="0"
     id="tspan170"
     style="font-size:12px;font-variant:normal;font-weight:normal;writing-mode:lr-tb;fill:#000000;fill-opacity:1;fill-rule:nonzero;stroke:none;font-family:Helvetica;-inkscape-font-specification:Helvetica">A</tspan></text>

</g></g><g
           id="g172"><g
             clip-path="url(#clipPath176)"
             id="g174" /></g></g></g><g
       id="g180"><g
         clip-path="url(#clipPath184)"
         id="g182"><g
           id="g188"><g
             clip-path="url(#clipPath192)"
             id="g190"><text
   transform="matrix(1,0,0,-1,295.37,694.78)"
   id="text196"><tspan
     x="0 8.0279999 14.736 21.444 27.444 33.324001 39.324001 42.66 49.391998 59.352001"
     y="0"
     id="tspan198"
     style="font-size:12px;font-variant:normal;font-weight:normal;writing-mode:lr-tb;fill:#000000;fill-opacity:1;fill-rule:nonzero;stroke:none;font-family:Helvetica;-inkscape-font-specification:Helvetica">Endsystem </tspan></text>

</g></g><g
           id="g200"><g
             clip-path="url(#clipPath204)"
             id="g202"><text
   transform="matrix(1,0,0,-1,321.05,681.1)"
   id="text208"><tspan
     x="0"
     y="0"
     id="tspan210"
     style="font-size:12px;font-variant:normal;font-weight:normal;writing-mode:lr-tb;fill:#000000;fill-opacity:1;fill-rule:nonzero;stroke:none;font-family:Helvetica;-inkscape-font-specification:Helvetica">B</tspan></text>

</g></g><g
           id="g212"><g
             clip-path="url(#clipPath216)"
             id="g214" /></g></g></g><g
       id="g220"><g
         clip-path="url(#clipPath224)"
         id="g222"><g
           id="g228"><g
             clip-path="url(#clipPath232)"
             id="g230"><text
   transform="matrix(1,0,0,-1,213.62,597.67)"
   id="text236"><tspan
     x="0 8.0279999 14.736 18.732 22.068001 28.74 35.484001"
     y="0"
     id="tspan238"
     style="font-size:12px;font-variant:normal;font-weight:normal;writing-mode:lr-tb;fill:#000000;fill-opacity:1;fill-rule:nonzero;stroke:none;font-family:Helvetica;-inkscape-font-specification:Helvetica">Partner</tspan></text>

</g></g><g
           id="g240"><g
             clip-path="url(#clipPath244)"
             id="g242"><text
   transform="matrix(1,0,0,-1,253.1,597.67)"
   id="text248"><tspan
     x="0"
     y="0"
     id="tspan250"
     style="font-size:12px;font-variant:normal;font-weight:normal;writing-mode:lr-tb;fill:#000000;fill-opacity:1;fill-rule:nonzero;stroke:none;font-family:Helvetica;-inkscape-font-specification:Helvetica">-</tspan></text>

</g></g><g
           id="g252"><g
             clip-path="url(#clipPath256)"
             id="g254" /></g></g></g><g
       id="g260"><g
         clip-path="url(#clipPath264)"
         id="g262"><g
           id="g268"><g
             clip-path="url(#clipPath272)"
             id="g270"><text
   transform="matrix(1,0,0,-1,213.62,585.55)"
   id="text276"><tspan
     x="0 2.664 9.3360004 15.336 18.708 25.416 32.124001 38.004002 44.712002"
     y="0"
     id="tspan278"
     style="font-size:12px;font-variant:normal;font-weight:normal;writing-mode:lr-tb;fill:#000000;fill-opacity:1;fill-rule:nonzero;stroke:none;font-family:Helvetica;-inkscape-font-specification:Helvetica">instanzen</tspan></text>

</g></g><g
           id="g280"><g
             clip-path="url(#clipPath284)"
             id="g282" /></g></g></g><g
       id="g288"><g
         clip-path="url(#clipPath292)"
         id="g290"><g
           id="g296"><g
             clip-path="url(#clipPath300)"
             id="g298" /></g><g
           id="g304"><g
             clip-path="url(#clipPath308)"
             id="g306"><text
   transform="matrix(1,0,0,-1,383.81,631.99)"
   id="text312"><tspan
     x="0 8.0279999 14.736 23.256001 29.964001 36.672001 43.380001 50.088001 56.796001"
     y="0"
     id="tspan314"
     style="font-size:12px;font-variant:normal;font-weight:normal;writing-mode:lr-tb;fill:#000000;fill-opacity:1;fill-rule:nonzero;stroke:none;font-family:Helvetica;-inkscape-font-specification:Helvetica">Anwendung</tspan></text>

</g></g><g
           id="g316"><g
             clip-path="url(#clipPath320)"
             id="g318"><text
   transform="matrix(1,0,0,-1,447.29,631.99)"
   id="text324"><tspan
     x="0"
     y="0"
     id="tspan326"
     style="font-size:12px;font-variant:normal;font-weight:normal;writing-mode:lr-tb;fill:#000000;fill-opacity:1;fill-rule:nonzero;stroke:none;font-family:Helvetica;-inkscape-font-specification:Helvetica">s</tspan></text>

</g></g><g
           id="g328"><g
             clip-path="url(#clipPath332)"
             id="g330"><text
   transform="matrix(1,0,0,-1,453.29,631.99)"
   id="text336"><tspan
     x="0 6 12 18.708 21.372 27.372 34.043999"
     y="0"
     id="tspan338"
     style="font-size:12px;font-variant:normal;font-weight:normal;writing-mode:lr-tb;fill:#000000;fill-opacity:1;fill-rule:nonzero;stroke:none;font-family:Helvetica;-inkscape-font-specification:Helvetica">schicht</tspan></text>

</g></g><g
           id="g340"><g
             clip-path="url(#clipPath344)"
             id="g342" /></g></g></g><g
       id="g348"><g
         clip-path="url(#clipPath352)"
         id="g350"><g
           id="g356"><g
             clip-path="url(#clipPath360)"
             id="g358" /></g><g
           id="g364"><g
             clip-path="url(#clipPath368)"
             id="g366"><text
   transform="matrix(1,0,0,-1,383.81,607.87)"
   id="text372"><tspan
     x="0 8.6639996 15.336 19.332001 25.332001 28.667999 35.388 38.051998 40.667999 47.375999 54.084 60.683998 66.683998"
     y="0"
     id="tspan374"
     style="font-size:12px;font-variant:normal;font-weight:normal;writing-mode:lr-tb;fill:#000000;fill-opacity:1;fill-rule:nonzero;stroke:none;font-family:Helvetica;-inkscape-font-specification:Helvetica">Darstellungss</tspan></text>

</g></g><g
           id="g376"><g
             clip-path="url(#clipPath380)"
             id="g378"><text
   transform="matrix(1,0,0,-1,456.53,607.87)"
   id="text384"><tspan
     x="0 6 12.708 15.372 21.372 28.044001"
     y="0"
     id="tspan386"
     style="font-size:12px;font-variant:normal;font-weight:normal;writing-mode:lr-tb;fill:#000000;fill-opacity:1;fill-rule:nonzero;stroke:none;font-family:Helvetica;-inkscape-font-specification:Helvetica">chicht</tspan></text>

</g></g><g
           id="g388"><g
             clip-path="url(#clipPath392)"
             id="g390" /></g></g></g><g
       id="g396"><g
         clip-path="url(#clipPath400)"
         id="g398"><g
           id="g404"><g
             clip-path="url(#clipPath408)"
             id="g406"><text
   transform="matrix(1,0,0,-1,383.81,583.75)"
   id="text412"><tspan
     x="0 8.0279999 14.736 24.695999 34.764 41.363998 48.071999 50.736 56.736 63.408001 66.779999 69.444 76.019997 82.727997 88.727997 94.727997 98.064003 104.688 111.396 118.104 121.944 128.65199 135.36 141.96001 147.96001 153.96001 159.96001 166.668 169.332 175.332 182.004"
     y="0"
     id="tspan414"
     style="font-size:12px;font-variant:normal;font-weight:normal;writing-mode:lr-tb;fill:#000000;fill-opacity:1;fill-rule:nonzero;stroke:none;font-family:Helvetica;-inkscape-font-specification:Helvetica">Kommunikationssteuerungsschicht</tspan></text>

</g></g><g
           id="g416"><g
             clip-path="url(#clipPath420)"
             id="g418" /></g></g></g><g
       id="g424"><g
         clip-path="url(#clipPath428)"
         id="g426"><g
           id="g432"><g
             clip-path="url(#clipPath436)"
             id="g434" /></g><g
           id="g440"><g
             clip-path="url(#clipPath444)"
             id="g442"><text
   transform="matrix(1,0,0,-1,383.93,559.51)"
   id="text448"><tspan
     x="0 7.428 11.424 18.096001 24.816 30.695999 37.403999 44.112 48.108002 51.444 57.444 63.444 70.139999 72.804001 78.660004 85.367996"
     y="0"
     id="tspan450"
     style="font-size:12px;font-variant:normal;font-weight:normal;writing-mode:lr-tb;fill:#000000;fill-opacity:1;fill-rule:nonzero;stroke:none;font-family:Helvetica;-inkscape-font-specification:Helvetica">Transportschicht</tspan></text>

</g></g><g
           id="g452"><g
             clip-path="url(#clipPath456)"
             id="g454" /></g></g></g><g
       id="g460"><g
         clip-path="url(#clipPath464)"
         id="g462"><g
           id="g468"><g
             clip-path="url(#clipPath472)"
             id="g470" /></g><g
           id="g476"><g
             clip-path="url(#clipPath480)"
             id="g478"><text
   transform="matrix(1,0,0,-1,383.81,536.23)"
   id="text484"><tspan
     x="0 8.0279999 14.736 18.732 28.764 31.427999 34.764 38.099998 40.764 47.363998 54.071999 60.672001 66.671997 72.671997 78.671997 85.379997 88.043999 94.043999 100.716"
     y="0"
     id="tspan486"
     style="font-size:12px;font-variant:normal;font-weight:normal;writing-mode:lr-tb;fill:#000000;fill-opacity:1;fill-rule:nonzero;stroke:none;font-family:Helvetica;-inkscape-font-specification:Helvetica">Vermittlungsschicht</tspan></text>

</g></g><g
           id="g488"><g
             clip-path="url(#clipPath492)"
             id="g490" /></g></g></g><g
       id="g496"><g
         clip-path="url(#clipPath500)"
         id="g498"><g
           id="g504"><g
             clip-path="url(#clipPath508)"
             id="g506" /></g><g
           id="g512"><g
             clip-path="url(#clipPath516)"
             id="g514"><text
   transform="matrix(1,0,0,-1,383.93,512.11)"
   id="text520"><tspan
     x="0 8.0279999 10.692 16.691999 23.364 30.096001 34.091999 40.764 47.484001"
     y="0"
     id="tspan522"
     style="font-size:12px;font-variant:normal;font-weight:normal;writing-mode:lr-tb;fill:#000000;fill-opacity:1;fill-rule:nonzero;stroke:none;font-family:Helvetica;-inkscape-font-specification:Helvetica">Sicherung</tspan></text>

</g></g><g
           id="g524"><g
             clip-path="url(#clipPath528)"
             id="g526"><text
   transform="matrix(1,0,0,-1,438.05,512.11)"
   id="text532"><tspan
     x="0"
     y="0"
     id="tspan534"
     style="font-size:12px;font-variant:normal;font-weight:normal;writing-mode:lr-tb;fill:#000000;fill-opacity:1;fill-rule:nonzero;stroke:none;font-family:Helvetica;-inkscape-font-specification:Helvetica">s</tspan></text>

</g></g><g
           id="g536"><g
             clip-path="url(#clipPath540)"
             id="g538"><text
   transform="matrix(1,0,0,-1,444.05,512.11)"
   id="text544"><tspan
     x="0 6 12 18.708 21.372 27.372 34.043999"
     y="0"
     id="tspan546"
     style="font-size:12px;font-variant:normal;font-weight:normal;writing-mode:lr-tb;fill:#000000;fill-opacity:1;fill-rule:nonzero;stroke:none;font-family:Helvetica;-inkscape-font-specification:Helvetica">schicht</tspan></text>

</g></g><g
           id="g548"><g
             clip-path="url(#clipPath552)"
             id="g550" /></g></g></g><g
       id="g556"><g
         clip-path="url(#clipPath560)"
         id="g558"><g
           id="g564"><g
             clip-path="url(#clipPath568)"
             id="g566" /></g><g
           id="g572"><g
             clip-path="url(#clipPath576)"
             id="g574"><text
   transform="matrix(1,0,0,-1,383.93,488.59)"
   id="text580"><tspan
     x="0 8.0279999 10.692 14.028 20.736 27.444 34.152 38.147999 41.484001 45.431999 52.139999 58.740002 65.339996 72.047997 78.648003 84.648003 90.648003 96.648003 103.356 106.02 112.02 118.692"
     y="0"
     id="tspan582"
     style="font-size:12px;font-variant:normal;font-weight:normal;writing-mode:lr-tb;fill:#000000;fill-opacity:1;fill-rule:nonzero;stroke:none;font-family:Helvetica;-inkscape-font-specification:Helvetica">Bitübertragungsschicht</tspan></text>

</g></g><g
           id="g584"><g
             clip-path="url(#clipPath588)"
             id="g586" /></g></g></g><g
       id="g592"><g
         clip-path="url(#clipPath596)"
         id="g594"><g
           id="g600"><g
             clip-path="url(#clipPath604)"
             id="g602"><text
   transform="matrix(1,0,0,-1,204.62,671.5)"
   id="text608"><tspan
     x="0 8.0279999 14.736 23.256001 29.964001 36.672001 43.380001 50.088001 56.796001 63.396"
     y="0"
     id="tspan610"
     style="font-size:12px;font-variant:normal;font-weight:normal;writing-mode:lr-tb;fill:#000000;fill-opacity:1;fill-rule:nonzero;stroke:none;font-family:Helvetica;-inkscape-font-specification:Helvetica">Anwendungs</tspan></text>

</g></g><g
           id="g612"><g
             clip-path="url(#clipPath616)"
             id="g614"><text
   transform="matrix(1,0,0,-1,274.1,671.5)"
   id="text620"><tspan
     x="0"
     y="0"
     id="tspan622"
     style="font-size:12px;font-variant:normal;font-weight:normal;writing-mode:lr-tb;fill:#000000;fill-opacity:1;fill-rule:nonzero;stroke:none;font-family:Helvetica;-inkscape-font-specification:Helvetica">-</tspan></text>

</g></g><g
           id="g624"><g
             clip-path="url(#clipPath628)"
             id="g626" /></g><g
           id="g632"><g
             clip-path="url(#clipPath636)"
             id="g634"><text
   transform="matrix(1,0,0,-1,216.98,657.67)"
   id="text640"><tspan
     x="0 6.7080002 10.704 17.375999 23.268 29.976 35.976002 41.976002"
     y="0"
     id="tspan642"
     style="font-size:12px;font-variant:normal;font-weight:normal;writing-mode:lr-tb;fill:#000000;fill-opacity:1;fill-rule:nonzero;stroke:none;font-family:Helvetica;-inkscape-font-specification:Helvetica">prozesse</tspan></text>

</g></g><g
           id="g644"><g
             clip-path="url(#clipPath648)"
             id="g646" /></g></g></g><path
       d="m 207.65,593 -30,-6"
       inkscape:connector-curvature="0"
       id="path652"
       style="fill:none;stroke:#000000;stroke-width:1;stroke-linecap:butt;stroke-linejoin:round;stroke-miterlimit:10;stroke-opacity:1;stroke-dasharray:none" /><path
       d="m 267.65,593 36,-6"
       inkscape:connector-curvature="0"
       id="path654"
       style="fill:none;stroke:#000000;stroke-width:1;stroke-linecap:butt;stroke-linejoin:round;stroke-miterlimit:10;stroke-opacity:1;stroke-dasharray:none" /><path
       d="m 315.55,666.35 14.15,0"
       inkscape:connector-curvature="0"
       id="path656"
       style="fill:none;stroke:#000000;stroke-width:0.75;stroke-linecap:round;stroke-linejoin:round;stroke-miterlimit:10;stroke-opacity:1;stroke-dasharray:none" /><path
       d="m 148.8,666.55 13.35,0"
       inkscape:connector-curvature="0"
       id="path658"
       style="fill:none;stroke:#000000;stroke-width:0.75;stroke-linecap:round;stroke-linejoin:round;stroke-miterlimit:10;stroke-opacity:1;stroke-dasharray:none" /><path
       d="m 127.98,678.8 c -2.31,0 -4.18,-1.87 -4.18,-4.17 l 0,-16.7 c 0,-2.31 1.87,-4.18 4.18,-4.18 l 57.69,0 c 2.31,0 4.18,1.87 4.18,4.18 l 0,16.7 c 0,2.3 -1.87,4.17 -4.18,4.17 l -57.69,0 z"
       inkscape:connector-curvature="0"
       id="path660"
       style="fill:none;stroke:#000000;stroke-width:0.75;stroke-linecap:round;stroke-linejoin:round;stroke-miterlimit:10;stroke-opacity:1;stroke-dasharray:none" /><path
       d="m 295.93,678.9 c -2.31,0 -4.18,-1.87 -4.18,-4.18 l 0,-16.69 c 0,-2.31 1.87,-4.18 4.18,-4.18 l 57.69,0 c 2.31,0 4.18,1.87 4.18,4.18 l 0,16.69 c 0,2.31 -1.87,4.18 -4.18,4.18 l -57.69,0 z"
       inkscape:connector-curvature="0"
       id="path662"
       style="fill:none;stroke:#000000;stroke-width:0.75;stroke-linecap:round;stroke-linejoin:round;stroke-miterlimit:10;stroke-opacity:1;stroke-dasharray:none" /></g></svg>