<?xml version="1.0" encoding="UTF-8" standalone="no"?>
<!-- Created with Inkscape (http://www.inkscape.org/) -->

<svg
   xmlns:dc="http://purl.org/dc/elements/1.1/"
   xmlns:cc="http://creativecommons.org/ns#"
   xmlns:rdf="http://www.w3.org/1999/02/22-rdf-syntax-ns#"
   xmlns:svg="http://www.w3.org/2000/svg"
   xmlns="http://www.w3.org/2000/svg"
   xmlns:sodipodi="http://sodipodi.sourceforge.net/DTD/sodipodi-0.dtd"
   xmlns:inkscape="http://www.inkscape.org/namespaces/inkscape"
   version="1.1"
   width="434.431"
   height="215.0625"
   id="svg2"
   xml:space="preserve"
   inkscape:version="0.48.4 r9939"
   sodipodi:docname="Bild 5-9 Thin Client.svg"><sodipodi:namedview
     pagecolor="#ffffff"
     bordercolor="#666666"
     borderopacity="1"
     objecttolerance="10"
     gridtolerance="10"
     guidetolerance="10"
     inkscape:pageopacity="0"
     inkscape:pageshadow="2"
     inkscape:window-width="640"
     inkscape:window-height="480"
     id="namedview161"
     showgrid="false"
     inkscape:zoom="0.18730159"
     inkscape:cx="185.625"
     inkscape:cy="286.96875"
     inkscape:window-x="0"
     inkscape:window-y="0"
     inkscape:window-maximized="0"
     inkscape:current-layer="svg2" /><metadata
     id="metadata8"><rdf:RDF><cc:Work
         rdf:about=""><dc:format>image/svg+xml</dc:format><dc:type
           rdf:resource="http://purl.org/dc/dcmitype/StillImage" /></cc:Work></rdf:RDF></metadata><defs
     id="defs6"><clipPath
       id="clipPath18"><path
         d="m 365.69,406.24 200.79,0 0,35.19 -200.79,0 0,-35.19 z"
         inkscape:connector-curvature="0"
         id="path20" /></clipPath><clipPath
       id="clipPath26"><path
         d="m 365.69,406.25 200.78,0 0,35.184 -200.78,0 0,-35.184 z"
         inkscape:connector-curvature="0"
         id="path28" /></clipPath><clipPath
       id="clipPath34"><path
         d="m 365.69,406.25 200.78,0 0,35.184 -200.78,0 0,-35.184 z"
         inkscape:connector-curvature="0"
         id="path36" /></clipPath><clipPath
       id="clipPath46"><path
         d="m 365.69,406.25 200.78,0 0,35.184 -200.78,0 0,-35.184 z"
         inkscape:connector-curvature="0"
         id="path48" /></clipPath><clipPath
       id="clipPath58"><path
         d="m 365.69,406.25 200.78,0 0,35.184 -200.78,0 0,-35.184 z"
         inkscape:connector-curvature="0"
         id="path60" /></clipPath><clipPath
       id="clipPath70"><path
         d="m 365.69,406.25 200.78,0 0,35.184 -200.78,0 0,-35.184 z"
         inkscape:connector-curvature="0"
         id="path72" /></clipPath><clipPath
       id="clipPath82"><path
         d="m 365.69,406.25 200.78,0 0,35.184 -200.78,0 0,-35.184 z"
         inkscape:connector-curvature="0"
         id="path84" /></clipPath><clipPath
       id="clipPath92"><path
         d="m 365.69,363.16 200.79,0 0,35.16 -200.79,0 0,-35.16 z"
         inkscape:connector-curvature="0"
         id="path94" /></clipPath><clipPath
       id="clipPath100"><path
         d="m 365.69,363.17 200.78,0 0,35.16 -200.78,0 0,-35.16 z"
         inkscape:connector-curvature="0"
         id="path102" /></clipPath><clipPath
       id="clipPath108"><path
         d="m 365.69,363.17 200.78,0 0,35.16 -200.78,0 0,-35.16 z"
         inkscape:connector-curvature="0"
         id="path110" /></clipPath><clipPath
       id="clipPath120"><path
         d="m 365.69,363.17 200.78,0 0,35.16 -200.78,0 0,-35.16 z"
         inkscape:connector-curvature="0"
         id="path122" /></clipPath><clipPath
       id="clipPath128"><path
         d="m 365.69,363.17 200.78,0 0,35.16 -200.78,0 0,-35.16 z"
         inkscape:connector-curvature="0"
         id="path130" /></clipPath><clipPath
       id="clipPath138"><path
         d="m 365.69,320.08 200.79,0 0,35.28 -200.79,0 0,-35.28 z"
         inkscape:connector-curvature="0"
         id="path140" /></clipPath><clipPath
       id="clipPath146"><path
         d="m 365.69,320.09 200.78,0 0,35.28 -200.78,0 0,-35.28 z"
         inkscape:connector-curvature="0"
         id="path148" /></clipPath><clipPath
       id="clipPath154"><path
         d="m 365.69,320.09 200.78,0 0,35.28 -200.78,0 0,-35.28 z"
         inkscape:connector-curvature="0"
         id="path156" /></clipPath><clipPath
       id="clipPath166"><path
         d="m 365.69,320.09 200.78,0 0,35.28 -200.78,0 0,-35.28 z"
         inkscape:connector-curvature="0"
         id="path168" /></clipPath><clipPath
       id="clipPath182"><path
         d="m 581.96,410.32 134.78,0 0,24.96 -134.78,0 0,-24.96 z"
         inkscape:connector-curvature="0"
         id="path184" /></clipPath><clipPath
       id="clipPath190"><path
         d="m 581.95,410.33 134.78,0 0,24.96 -134.78,0 0,-24.96 z"
         inkscape:connector-curvature="0"
         id="path192" /></clipPath><clipPath
       id="clipPath202"><path
         d="m 581.95,410.33 134.78,0 0,24.96 -134.78,0 0,-24.96 z"
         inkscape:connector-curvature="0"
         id="path204" /></clipPath><clipPath
       id="clipPath214"><path
         d="m 581.95,410.33 134.78,0 0,24.96 -134.78,0 0,-24.96 z"
         inkscape:connector-curvature="0"
         id="path216" /></clipPath><clipPath
       id="clipPath226"><path
         d="m 581.95,410.33 134.78,0 0,24.96 -134.78,0 0,-24.96 z"
         inkscape:connector-curvature="0"
         id="path228" /></clipPath><clipPath
       id="clipPath234"><path
         d="m 583.16,329.56 137.78,0 0,21.84 -137.78,0 0,-21.84 z"
         inkscape:connector-curvature="0"
         id="path236" /></clipPath><clipPath
       id="clipPath242"><path
         d="m 583.15,329.57 137.78,0 0,21.84 -137.78,0 0,-21.84 z"
         inkscape:connector-curvature="0"
         id="path244" /></clipPath><clipPath
       id="clipPath254"><path
         d="m 583.15,329.57 137.78,0 0,21.84 -137.78,0 0,-21.84 z"
         inkscape:connector-curvature="0"
         id="path256" /></clipPath><clipPath
       id="clipPath266"><path
         d="m 583.15,329.57 137.78,0 0,21.84 -137.78,0 0,-21.84 z"
         inkscape:connector-curvature="0"
         id="path268" /></clipPath><clipPath
       id="clipPath278"><path
         d="m 583.15,329.57 137.78,0 0,21.84 -137.78,0 0,-21.84 z"
         inkscape:connector-curvature="0"
         id="path280" /></clipPath><clipPath
       id="clipPath290"><path
         d="m 365.69,279.16 200.79,0 0,33.24 -200.79,0 0,-33.24 z"
         inkscape:connector-curvature="0"
         id="path292" /></clipPath><clipPath
       id="clipPath298"><path
         d="m 365.69,279.17 200.78,0 0,33.24 -200.78,0 0,-33.24 z"
         inkscape:connector-curvature="0"
         id="path300" /></clipPath><clipPath
       id="clipPath306"><path
         d="m 365.69,279.17 200.78,0 0,33.24 -200.78,0 0,-33.24 z"
         inkscape:connector-curvature="0"
         id="path308" /></clipPath><clipPath
       id="clipPath318"><path
         d="m 365.69,279.17 200.78,0 0,33.24 -200.78,0 0,-33.24 z"
         inkscape:connector-curvature="0"
         id="path320" /></clipPath></defs><g
     transform="matrix(1.25,0,0,-1.25,-444.75,558.09375)"
     id="g10"><path
       d="m 365.25,402.3 201.6,0 0,43.2 -201.6,0 0,-43.2 z"
       inkscape:connector-curvature="0"
       id="path12"
       style="fill:none;stroke:#000000;stroke-width:0.75;stroke-linecap:round;stroke-linejoin:miter;stroke-miterlimit:10;stroke-opacity:1;stroke-dasharray:none" /><g
       id="g14"><g
         clip-path="url(#clipPath18)"
         id="g16"><g
           id="g22"><g
             clip-path="url(#clipPath26)"
             id="g24" /></g><g
           id="g30"><g
             clip-path="url(#clipPath34)"
             id="g32"><text
   transform="matrix(1,0,0,-1,431.45,419.33)"
   id="text38"><tspan
     x="0 3.9600201 7.9200401"
     y="0"
     id="tspan40"
     style="font-size:14.03999996px;font-variant:normal;font-weight:normal;writing-mode:lr-tb;fill:#000000;fill-opacity:1;fill-rule:nonzero;stroke:none;font-family:Helvetica;-inkscape-font-specification:Helvetica">I/O</tspan></text>

</g></g><g
           id="g42"><g
             clip-path="url(#clipPath46)"
             id="g44"><text
   transform="matrix(1,0,0,-1,450.17,419.33)"
   id="text50"><tspan
     x="0"
     y="0"
     id="tspan52"
     style="font-size:14.03999996px;font-variant:normal;font-weight:normal;writing-mode:lr-tb;fill:#000000;fill-opacity:1;fill-rule:nonzero;stroke:none;font-family:Helvetica;-inkscape-font-specification:Helvetica">-</tspan></text>

</g></g><g
           id="g54"><g
             clip-path="url(#clipPath58)"
             id="g56"><text
   transform="matrix(1,0,0,-1,454.85,419.33)"
   id="text62"><tspan
     x="0"
     y="0"
     id="tspan64"
     style="font-size:14.03999996px;font-variant:normal;font-weight:normal;writing-mode:lr-tb;fill:#000000;fill-opacity:1;fill-rule:nonzero;stroke:none;font-family:Helvetica;-inkscape-font-specification:Helvetica">S</tspan></text>

</g></g><g
           id="g66"><g
             clip-path="url(#clipPath70)"
             id="g68"><text
   transform="matrix(1,0,0,-1,464.21,419.33)"
   id="text74"><tspan
     x="0 6.96384 14.77008 17.886959 24.94908 32.62896"
     y="0"
     id="tspan76"
     style="font-size:14.03999996px;font-variant:normal;font-weight:normal;writing-mode:lr-tb;fill:#000000;fill-opacity:1;fill-rule:nonzero;stroke:none;font-family:Helvetica;-inkscape-font-specification:Helvetica">chicht</tspan></text>

</g></g><g
           id="g78"><g
             clip-path="url(#clipPath82)"
             id="g80" /></g></g></g><path
       d="m 365.25,359.25 201.6,0 0,43.2 -201.6,0 0,-43.2 z"
       inkscape:connector-curvature="0"
       id="path86"
       style="fill:none;stroke:#000000;stroke-width:0.75;stroke-linecap:round;stroke-linejoin:miter;stroke-miterlimit:10;stroke-opacity:1;stroke-dasharray:none" /><g
       id="g88"><g
         clip-path="url(#clipPath92)"
         id="g90"><g
           id="g96"><g
             clip-path="url(#clipPath100)"
             id="g98" /></g><g
           id="g104"><g
             clip-path="url(#clipPath108)"
             id="g106"><text
   transform="matrix(1,0,0,-1,391.37,374.45)"
   id="text112"><tspan
     x="0 10.64532 19.519079 24.833759 33.70752 39.022202 47.895962 56.769718 60.31284 64.781639 73.655403 82.640877 91.514641 99.542519 107.5704 115.59828 124.47204 128.06303 136.09093 144.96468"
     y="0"
     id="tspan114"
     style="font-size:15.96000004px;font-variant:normal;font-weight:normal;writing-mode:lr-tb;fill:#000000;fill-opacity:1;fill-rule:nonzero;stroke:none;font-family:Helvetica;-inkscape-font-specification:Helvetica">Verarbeitungsschicht</tspan></text>

</g></g><g
           id="g116"><g
             clip-path="url(#clipPath120)"
             id="g118" /></g><g
           id="g124"><g
             clip-path="url(#clipPath128)"
             id="g126" /></g></g></g><path
       d="m 365.25,316.2 201.6,0 0,43.2 -201.6,0 0,-43.2 z"
       inkscape:connector-curvature="0"
       id="path132"
       style="fill:none;stroke:#000000;stroke-width:0.75;stroke-linecap:round;stroke-linejoin:miter;stroke-miterlimit:10;stroke-opacity:1;stroke-dasharray:none" /><g
       id="g134"><g
         clip-path="url(#clipPath138)"
         id="g136"><g
           id="g142"><g
             clip-path="url(#clipPath146)"
             id="g144" /></g><g
           id="g150"><g
             clip-path="url(#clipPath154)"
             id="g152"><text
   transform="matrix(1,0,0,-1,394.01,331.49)"
   id="text158"><tspan
     x="0 11.52312 20.396879 24.833759 33.70752 42.58128 50.625118 59.498878 68.372643 73.687317 77.230438 81.66732 86.104202 94.164001 102.19188 110.21976 119.09352 122.68452 130.7124 139.58617"
     y="0"
     id="tspan160"
     style="font-size:15.96000004px;font-variant:normal;font-weight:normal;writing-mode:lr-tb;fill:#000000;fill-opacity:1;fill-rule:nonzero;stroke:none;font-family:Helvetica;-inkscape-font-specification:Helvetica">Datenzugriffsschicht</tspan></text>

</g></g><g
           id="g162"><g
             clip-path="url(#clipPath166)"
             id="g164" /></g></g></g><path
       d="m 566.1,446.1 c 3.98,0 7.2,-1.61 7.2,-3.6 l 0,-14.4 c 0,-1.99 3.22,-3.6 7.2,-3.6 -3.98,0 -7.2,-1.61 -7.2,-3.6 l 0,-14.4 c 0,-1.99 -3.22,-3.6 -7.2,-3.6"
       inkscape:connector-curvature="0"
       id="path170"
       style="fill:none;stroke:#000000;stroke-width:0.75;stroke-linecap:round;stroke-linejoin:round;stroke-miterlimit:10;stroke-opacity:1;stroke-dasharray:none" /><path
       d="m 566.85,402.15 c 3.77,0 6.82,-4.75 6.82,-10.61 l 0,-38.68 c 0,-5.86 3.06,-10.61 6.83,-10.61 -3.77,0 -6.83,-4.75 -6.83,-10.61 l 0,-46.23 c 0,-5.86 -3.05,-10.61 -6.82,-10.61"
       inkscape:connector-curvature="0"
       id="path172"
       style="fill:none;stroke:#000000;stroke-width:0.75;stroke-linecap:round;stroke-linejoin:round;stroke-miterlimit:10;stroke-opacity:1;stroke-dasharray:none" /><g
       id="g174"><path
         d="m 357.3,403.65 223.2,0"
         inkscape:connector-curvature="0"
         id="path176"
         style="fill:none;stroke:#000000;stroke-width:3;stroke-linecap:butt;stroke-linejoin:round;stroke-miterlimit:10;stroke-opacity:1;stroke-dasharray:12, 9;stroke-dashoffset:0" /></g><g
       id="g178"><g
         clip-path="url(#clipPath182)"
         id="g180"><g
           id="g186"><g
             clip-path="url(#clipPath190)"
             id="g188"><text
   transform="matrix(1,0,0,-1,589.15,420.65)"
   id="text194"><tspan
     x="0 11.52312 15.09816 18.689159 27.56292 36.43668"
     y="0"
     id="tspan196"
     style="font-size:15.96000004px;font-variant:normal;font-weight:normal;writing-mode:lr-tb;fill:#000000;fill-opacity:1;fill-rule:nonzero;stroke:none;font-family:Helvetica;-inkscape-font-specification:Helvetica">Client</tspan></text>

</g></g><g
           id="g198"><g
             clip-path="url(#clipPath202)"
             id="g200"><text
   transform="matrix(1,0,0,-1,630.07,420.65)"
   id="text206"><tspan
     x="0"
     y="0"
     id="tspan208"
     style="font-size:15.96000004px;font-variant:normal;font-weight:normal;writing-mode:lr-tb;fill:#000000;fill-opacity:1;fill-rule:nonzero;stroke:none;font-family:Helvetica;-inkscape-font-specification:Helvetica">-</tspan></text>

</g></g><g
           id="g210"><g
             clip-path="url(#clipPath214)"
             id="g212"><text
   transform="matrix(1,0,0,-1,635.35,420.65)"
   id="text218"><tspan
     x="0 11.52312 20.396879 28.424761 37.298519 46.172279 55.04604"
     y="0"
     id="tspan220"
     style="font-size:15.96000004px;font-variant:normal;font-weight:normal;writing-mode:lr-tb;fill:#000000;fill-opacity:1;fill-rule:nonzero;stroke:none;font-family:Helvetica;-inkscape-font-specification:Helvetica">Rechner</tspan></text>

</g></g><g
           id="g222"><g
             clip-path="url(#clipPath226)"
             id="g224" /></g></g></g><g
       id="g230"><g
         clip-path="url(#clipPath234)"
         id="g232"><g
           id="g238"><g
             clip-path="url(#clipPath242)"
             id="g240"><text
   transform="matrix(1,0,0,-1,590.35,336.65)"
   id="text246"><tspan
     x="0 10.64532 19.519079 24.833759 32.861641 41.735401"
     y="0"
     id="tspan248"
     style="font-size:15.96000004px;font-variant:normal;font-weight:normal;writing-mode:lr-tb;fill:#000000;fill-opacity:1;fill-rule:nonzero;stroke:none;font-family:Helvetica;-inkscape-font-specification:Helvetica">Server</tspan></text>

</g></g><g
           id="g250"><g
             clip-path="url(#clipPath254)"
             id="g252"><text
   transform="matrix(1,0,0,-1,637.39,336.65)"
   id="text258"><tspan
     x="0"
     y="0"
     id="tspan260"
     style="font-size:15.96000004px;font-variant:normal;font-weight:normal;writing-mode:lr-tb;fill:#000000;fill-opacity:1;fill-rule:nonzero;stroke:none;font-family:Helvetica;-inkscape-font-specification:Helvetica">-</tspan></text>

</g></g><g
           id="g262"><g
             clip-path="url(#clipPath266)"
             id="g264"><text
   transform="matrix(1,0,0,-1,642.67,336.65)"
   id="text270"><tspan
     x="0 11.61888 20.49264 28.520519 37.394279 46.26804 55.1418"
     y="0"
     id="tspan272"
     style="font-size:15.96000004px;font-variant:normal;font-weight:normal;writing-mode:lr-tb;fill:#000000;fill-opacity:1;fill-rule:nonzero;stroke:none;font-family:Helvetica;-inkscape-font-specification:Helvetica">Rechner</tspan></text>

</g></g><g
           id="g274"><g
             clip-path="url(#clipPath278)"
             id="g276" /></g></g></g><path
       d="m 365.25,275.25 201.6,0 0,41.25 -201.6,0 0,-41.25 z"
       inkscape:connector-curvature="0"
       id="path282"
       style="fill:#ffffff;fill-opacity:1;fill-rule:evenodd;stroke:none" /><path
       d="m 365.25,275.25 201.6,0 0,41.25 -201.6,0 0,-41.25 z"
       inkscape:connector-curvature="0"
       id="path284"
       style="fill:none;stroke:#000000;stroke-width:0.75;stroke-linecap:round;stroke-linejoin:miter;stroke-miterlimit:8;stroke-opacity:1;stroke-dasharray:none" /><g
       id="g286"><g
         clip-path="url(#clipPath290)"
         id="g288"><g
           id="g294"><g
             clip-path="url(#clipPath298)"
             id="g296" /></g><g
           id="g302"><g
             clip-path="url(#clipPath306)"
             id="g304"><text
   transform="matrix(1,0,0,-1,418.49,288.65)"
   id="text310"><tspan
     x="0 11.52 20.39064 24.8244 33.695042 42.565681 51.436321 60.338879 63.926762 68.360519 77.231163 86.101799"
     y="0"
     id="tspan312"
     style="font-size:15.96000004px;font-variant:normal;font-weight:normal;writing-mode:lr-tb;fill:#000000;fill-opacity:1;fill-rule:nonzero;stroke:none;font-family:Helvetica;-inkscape-font-specification:Helvetica">Datenhaltung</tspan></text>

</g></g><g
           id="g314"><g
             clip-path="url(#clipPath318)"
             id="g316" /></g></g></g></g></svg>