<?xml version="1.0" encoding="UTF-8" standalone="no"?>
<!-- Created with Inkscape (http://www.inkscape.org/) -->

<svg
   xmlns:dc="http://purl.org/dc/elements/1.1/"
   xmlns:cc="http://creativecommons.org/ns#"
   xmlns:rdf="http://www.w3.org/1999/02/22-rdf-syntax-ns#"
   xmlns:svg="http://www.w3.org/2000/svg"
   xmlns="http://www.w3.org/2000/svg"
   xmlns:sodipodi="http://sodipodi.sourceforge.net/DTD/sodipodi-0.dtd"
   xmlns:inkscape="http://www.inkscape.org/namespaces/inkscape"
   version="1.1"
   width="261.375"
   height="108.375"
   id="svg2"
   xml:space="preserve"
   inkscape:version="0.48.4 r9939"
   sodipodi:docname="Bild 5-43 Klassendiagramm Strategie-Muster im MVC.svg"><sodipodi:namedview
     pagecolor="#ffffff"
     bordercolor="#666666"
     borderopacity="1"
     objecttolerance="10"
     gridtolerance="10"
     guidetolerance="10"
     inkscape:pageopacity="0"
     inkscape:pageshadow="2"
     inkscape:window-width="640"
     inkscape:window-height="480"
     id="namedview225"
     showgrid="false"
     inkscape:zoom="0.18730159"
     inkscape:cx="131.625"
     inkscape:cy="13.125"
     inkscape:window-x="0"
     inkscape:window-y="0"
     inkscape:window-maximized="0"
     inkscape:current-layer="svg2" /><metadata
     id="metadata8"><rdf:RDF><cc:Work
         rdf:about=""><dc:format>image/svg+xml</dc:format><dc:type
           rdf:resource="http://purl.org/dc/dcmitype/StillImage" /></cc:Work></rdf:RDF></metadata><defs
     id="defs6"><clipPath
       id="clipPath66"><path
         d="m 397.49,570.19 53.52,0 0,7.92 -53.52,0 0,-7.92 z"
         inkscape:connector-curvature="0"
         id="path68" /></clipPath><clipPath
       id="clipPath74"><path
         d="m 397.49,570.19 53.52,0 0,7.92 -53.52,0 0,-7.92 z"
         inkscape:connector-curvature="0"
         id="path76" /></clipPath><clipPath
       id="clipPath86"><path
         d="m 397.49,570.19 53.52,0 0,7.92 -53.52,0 0,-7.92 z"
         inkscape:connector-curvature="0"
         id="path88" /></clipPath><clipPath
       id="clipPath94"><path
         d="m 496.64,564.43 61.8,0 0,14.76 -61.8,0 0,-14.76 z"
         inkscape:connector-curvature="0"
         id="path96" /></clipPath><clipPath
       id="clipPath102"><path
         d="m 496.63,564.43 61.8,0 0,14.76 -61.8,0 0,-14.76 z"
         inkscape:connector-curvature="0"
         id="path104" /></clipPath><clipPath
       id="clipPath114"><path
         d="m 496.63,564.43 61.8,0 0,14.76 -61.8,0 0,-14.76 z"
         inkscape:connector-curvature="0"
         id="path116" /></clipPath><clipPath
       id="clipPath126"><path
         d="m 496.63,564.43 61.8,0 0,14.76 -61.8,0 0,-14.76 z"
         inkscape:connector-curvature="0"
         id="path128" /></clipPath><clipPath
       id="clipPath138"><path
         d="m 496.63,564.43 61.8,0 0,14.76 -61.8,0 0,-14.76 z"
         inkscape:connector-curvature="0"
         id="path140" /></clipPath><clipPath
       id="clipPath146"><path
         d="m 496.63,564.43 61.8,0 0,14.76 -61.8,0 0,-14.76 z"
         inkscape:connector-curvature="0"
         id="path148" /></clipPath><clipPath
       id="clipPath158"><path
         d="m 496.63,564.43 61.8,0 0,14.76 -61.8,0 0,-14.76 z"
         inkscape:connector-curvature="0"
         id="path160" /></clipPath><clipPath
       id="clipPath170"><path
         d="m 496.63,564.43 61.8,0 0,14.76 -61.8,0 0,-14.76 z"
         inkscape:connector-curvature="0"
         id="path172" /></clipPath><clipPath
       id="clipPath178"><path
         d="m 435.05,507.55 53.55,0 0,8.04 -53.55,0 0,-8.04 z"
         inkscape:connector-curvature="0"
         id="path180" /></clipPath><clipPath
       id="clipPath186"><path
         d="m 435.05,507.55 53.544,0 0,8.04 -53.544,0 0,-8.04 z"
         inkscape:connector-curvature="0"
         id="path188" /></clipPath><clipPath
       id="clipPath198"><path
         d="m 435.05,507.55 53.544,0 0,8.04 -53.544,0 0,-8.04 z"
         inkscape:connector-curvature="0"
         id="path200" /></clipPath><clipPath
       id="clipPath206"><path
         d="m 495.8,507.55 53.52,0 0,8.04 -53.52,0 0,-8.04 z"
         inkscape:connector-curvature="0"
         id="path208" /></clipPath><clipPath
       id="clipPath214"><path
         d="m 495.79,507.55 53.52,0 0,8.04 -53.52,0 0,-8.04 z"
         inkscape:connector-curvature="0"
         id="path216" /></clipPath><clipPath
       id="clipPath226"><path
         d="m 495.79,507.55 53.52,0 0,8.04 -53.52,0 0,-8.04 z"
         inkscape:connector-curvature="0"
         id="path228" /></clipPath><clipPath
       id="clipPath234"><path
         d="m 552.8,507.55 53.52,0 0,8.04 -53.52,0 0,-8.04 z"
         inkscape:connector-curvature="0"
         id="path236" /></clipPath><clipPath
       id="clipPath242"><path
         d="m 552.79,507.55 53.52,0 0,8.04 -53.52,0 0,-8.04 z"
         inkscape:connector-curvature="0"
         id="path244" /></clipPath><clipPath
       id="clipPath254"><path
         d="m 552.79,507.55 53.52,0 0,8.04 -53.52,0 0,-8.04 z"
         inkscape:connector-curvature="0"
         id="path256" /></clipPath><clipPath
       id="clipPath262"><path
         d="m 496.28,547.75 66.72,0 0,8.04 -66.72,0 0,-8.04 z"
         inkscape:connector-curvature="0"
         id="path264" /></clipPath><clipPath
       id="clipPath270"><path
         d="m 496.27,547.75 66.72,0 0,8.04 -66.72,0 0,-8.04 z"
         inkscape:connector-curvature="0"
         id="path272" /></clipPath><clipPath
       id="clipPath282"><path
         d="m 496.27,547.75 66.72,0 0,8.04 -66.72,0 0,-8.04 z"
         inkscape:connector-curvature="0"
         id="path284" /></clipPath><clipPath
       id="clipPath290"><path
         d="m 433.85,493.63 66.75,0 0,7.92 -66.75,0 0,-7.92 z"
         inkscape:connector-curvature="0"
         id="path292" /></clipPath><clipPath
       id="clipPath298"><path
         d="m 433.85,493.63 66.744,0 0,7.92 -66.744,0 0,-7.92 z"
         inkscape:connector-curvature="0"
         id="path300" /></clipPath><clipPath
       id="clipPath310"><path
         d="m 433.85,493.63 66.744,0 0,7.92 -66.744,0 0,-7.92 z"
         inkscape:connector-curvature="0"
         id="path312" /></clipPath><clipPath
       id="clipPath318"><path
         d="m 395.45,558.31 62.04,0 0,7.92 -62.04,0 0,-7.92 z"
         inkscape:connector-curvature="0"
         id="path320" /></clipPath><clipPath
       id="clipPath326"><path
         d="m 395.45,558.31 62.04,0 0,7.92 -62.04,0 0,-7.92 z"
         inkscape:connector-curvature="0"
         id="path328" /></clipPath><clipPath
       id="clipPath338"><path
         d="m 395.45,558.31 62.04,0 0,7.92 -62.04,0 0,-7.92 z"
         inkscape:connector-curvature="0"
         id="path340" /></clipPath><clipPath
       id="clipPath350"><path
         d="m 395.45,558.31 62.04,0 0,7.92 -62.04,0 0,-7.92 z"
         inkscape:connector-curvature="0"
         id="path352" /></clipPath><clipPath
       id="clipPath358"><path
         d="m 470.72,569.95 42,0 0,7.92 -42,0 0,-7.92 z"
         inkscape:connector-curvature="0"
         id="path360" /></clipPath><clipPath
       id="clipPath366"><path
         d="m 470.71,569.95 42,0 0,7.92 -42,0 0,-7.92 z"
         inkscape:connector-curvature="0"
         id="path368" /></clipPath><clipPath
       id="clipPath378"><path
         d="m 470.71,569.95 42,0 0,7.92 -42,0 0,-7.92 z"
         inkscape:connector-curvature="0"
         id="path380" /></clipPath><clipPath
       id="clipPath390"><path
         d="m 470.71,569.95 42,0 0,7.92 -42,0 0,-7.92 z"
         inkscape:connector-curvature="0"
         id="path392" /></clipPath><clipPath
       id="clipPath398"><path
         d="m 494.24,493.63 66.72,0 0,7.92 -66.72,0 0,-7.92 z"
         inkscape:connector-curvature="0"
         id="path400" /></clipPath><clipPath
       id="clipPath406"><path
         d="m 494.23,493.63 66.72,0 0,7.92 -66.72,0 0,-7.92 z"
         inkscape:connector-curvature="0"
         id="path408" /></clipPath><clipPath
       id="clipPath418"><path
         d="m 494.23,493.63 66.72,0 0,7.92 -66.72,0 0,-7.92 z"
         inkscape:connector-curvature="0"
         id="path420" /></clipPath><clipPath
       id="clipPath426"><path
         d="m 551.72,493.63 66.72,0 0,7.92 -66.72,0 0,-7.92 z"
         inkscape:connector-curvature="0"
         id="path428" /></clipPath><clipPath
       id="clipPath434"><path
         d="m 551.71,493.63 66.72,0 0,7.92 -66.72,0 0,-7.92 z"
         inkscape:connector-curvature="0"
         id="path436" /></clipPath><clipPath
       id="clipPath446"><path
         d="m 551.71,493.63 66.72,0 0,7.92 -66.72,0 0,-7.92 z"
         inkscape:connector-curvature="0"
         id="path448" /></clipPath></defs><g
     transform="matrix(1.25,0,0,-1.25,-498.75,725.25)"
     id="g10"><path
       d="m 399.25,557.85 49.6,0 0,21.85 -49.6,0 0,-21.85 z"
       inkscape:connector-curvature="0"
       id="path12"
       style="fill:none;stroke:#000000;stroke-width:0.5;stroke-linecap:round;stroke-linejoin:miter;stroke-miterlimit:10;stroke-opacity:1;stroke-dasharray:none" /><path
       d="m 501.6,543.7 52.55,0 0,36.25 -52.55,0 0,-36.25 z"
       inkscape:connector-curvature="0"
       id="path14"
       style="fill:none;stroke:#000000;stroke-width:0.5;stroke-linecap:round;stroke-linejoin:miter;stroke-miterlimit:10;stroke-opacity:1;stroke-dasharray:none" /><path
       d="m 556.25,493.75 51.6,0 0,22.5 -51.6,0 0,-22.5 z"
       inkscape:connector-curvature="0"
       id="path16"
       style="fill:none;stroke:#000000;stroke-width:0.5;stroke-linecap:round;stroke-linejoin:miter;stroke-miterlimit:10;stroke-opacity:1;stroke-dasharray:none" /><path
       d="m 499,493.75 51.25,0 0,22.5 -51.25,0 0,-22.5 z"
       inkscape:connector-curvature="0"
       id="path18"
       style="fill:none;stroke:#000000;stroke-width:0.5;stroke-linecap:round;stroke-linejoin:miter;stroke-miterlimit:10;stroke-opacity:1;stroke-dasharray:none" /><path
       d="m 438.55,493.75 51.5,0 0,22.5 -51.5,0 0,-22.5 z"
       inkscape:connector-curvature="0"
       id="path20"
       style="fill:none;stroke:#000000;stroke-width:0.5;stroke-linecap:round;stroke-linejoin:miter;stroke-miterlimit:10;stroke-opacity:1;stroke-dasharray:none" /><path
       d="m 527.33,543.45 -3.58,-7.15 7.15,0 -3.57,7.15 z"
       inkscape:connector-curvature="0"
       id="path22"
       style="fill:#ffffff;fill-opacity:1;fill-rule:evenodd;stroke:none" /><path
       d="m 527.33,543.45 -3.58,-7.15 7.15,0 -3.57,7.15 z"
       inkscape:connector-curvature="0"
       id="path24"
       style="fill:none;stroke:#000000;stroke-width:0.5;stroke-linecap:round;stroke-linejoin:round;stroke-miterlimit:10;stroke-opacity:1;stroke-dasharray:none" /><path
       d="m 547.6,543.4 2.53,-7.58 5.05,5.06 -7.58,2.52 z"
       inkscape:connector-curvature="0"
       id="path26"
       style="fill:#ffffff;fill-opacity:1;fill-rule:evenodd;stroke:none" /><path
       d="m 547.6,543.4 2.53,-7.58 5.05,5.06 -7.58,2.52 z"
       inkscape:connector-curvature="0"
       id="path28"
       style="fill:none;stroke:#000000;stroke-width:0.5;stroke-linecap:round;stroke-linejoin:round;stroke-miterlimit:10;stroke-opacity:1;stroke-dasharray:none" /><path
       d="m 501.9,543.65 -7.58,-2.52 5.06,-5.06 2.52,7.58 z"
       inkscape:connector-curvature="0"
       id="path30"
       style="fill:#ffffff;fill-opacity:1;fill-rule:evenodd;stroke:none" /><path
       d="m 501.9,543.65 -7.58,-2.52 5.06,-5.06 2.52,7.58 z"
       inkscape:connector-curvature="0"
       id="path32"
       style="fill:none;stroke:#000000;stroke-width:0.5;stroke-linecap:round;stroke-linejoin:round;stroke-miterlimit:10;stroke-opacity:1;stroke-dasharray:none" /><g
       id="g34"><path
         d="m 527.3,536.3 0.05,-19.8"
         inkscape:connector-curvature="0"
         id="path36"
         style="fill:none;stroke:#000000;stroke-width:0.5;stroke-linecap:round;stroke-linejoin:round;stroke-miterlimit:10;stroke-opacity:1;stroke-dasharray:1.5, 2;stroke-dashoffset:0" /></g><g
       id="g38"><path
         d="m 496.55,538.5 -21.1,-22.2"
         inkscape:connector-curvature="0"
         id="path40"
         style="fill:none;stroke:#000000;stroke-width:0.5;stroke-linecap:round;stroke-linejoin:round;stroke-miterlimit:10;stroke-opacity:1;stroke-dasharray:1.5, 2;stroke-dashoffset:0" /></g><g
       id="g42"><path
         d="m 552.8,538.4 21.75,-22"
         inkscape:connector-curvature="0"
         id="path44"
         style="fill:none;stroke:#000000;stroke-width:0.5;stroke-linecap:round;stroke-linejoin:round;stroke-miterlimit:10;stroke-opacity:1;stroke-dasharray:1.5, 2;stroke-dashoffset:0" /></g><path
       d="m 453.88,572.55 -4.28,-3.02 4.28,-3.03 4.27,3.03 -4.27,3.02 z"
       inkscape:connector-curvature="0"
       id="path46"
       style="fill:#ffffff;fill-opacity:1;fill-rule:evenodd;stroke:none" /><path
       d="m 453.88,572.55 -4.28,-3.02 4.28,-3.03 4.27,3.03 -4.27,3.02 z"
       inkscape:connector-curvature="0"
       id="path48"
       style="fill:none;stroke:#000000;stroke-width:0.5;stroke-linecap:round;stroke-linejoin:round;stroke-miterlimit:10;stroke-opacity:1;stroke-dasharray:none" /><path
       d="m 458.55,569.5 42.85,0"
       inkscape:connector-curvature="0"
       id="path50"
       style="fill:none;stroke:#000000;stroke-width:0.5;stroke-linecap:round;stroke-linejoin:round;stroke-miterlimit:10;stroke-opacity:1;stroke-dasharray:none" /><path
       d="m 399.25,567.7 49.6,0"
       inkscape:connector-curvature="0"
       id="path52"
       style="fill:none;stroke:#000000;stroke-width:0.5;stroke-linecap:round;stroke-linejoin:round;stroke-miterlimit:10;stroke-opacity:1;stroke-dasharray:none" /><path
       d="m 501.6,559.6 52.55,0"
       inkscape:connector-curvature="0"
       id="path54"
       style="fill:none;stroke:#000000;stroke-width:0.5;stroke-linecap:round;stroke-linejoin:round;stroke-miterlimit:10;stroke-opacity:1;stroke-dasharray:none" /><path
       d="m 438.55,503.35 51.5,0"
       inkscape:connector-curvature="0"
       id="path56"
       style="fill:none;stroke:#000000;stroke-width:0.5;stroke-linecap:round;stroke-linejoin:round;stroke-miterlimit:10;stroke-opacity:1;stroke-dasharray:none" /><path
       d="m 499,503.35 51.25,0"
       inkscape:connector-curvature="0"
       id="path58"
       style="fill:none;stroke:#000000;stroke-width:0.5;stroke-linecap:round;stroke-linejoin:round;stroke-miterlimit:10;stroke-opacity:1;stroke-dasharray:none" /><path
       d="m 556.25,503.35 51.6,0"
       inkscape:connector-curvature="0"
       id="path60"
       style="fill:none;stroke:#000000;stroke-width:0.5;stroke-linecap:round;stroke-linejoin:round;stroke-miterlimit:10;stroke-opacity:1;stroke-dasharray:none" /><g
       id="g62"><g
         clip-path="url(#clipPath66)"
         id="g64"><g
           id="g70"><g
             clip-path="url(#clipPath74)"
             id="g72"><text
   transform="matrix(1,0,0,-1,417.41,572.23)"
   id="text78"><tspan
     x="0 3.96 5.6279998 8.9940004"
     y="0"
     id="tspan80"
     style="font-size:6px;font-variant:normal;font-weight:bold;writing-mode:lr-tb;fill:#000000;fill-opacity:1;fill-rule:nonzero;stroke:none;font-family:Helvetica;-inkscape-font-specification:Helvetica-Bold">View</tspan></text>

</g></g><g
           id="g82"><g
             clip-path="url(#clipPath86)"
             id="g84" /></g></g></g><g
       id="g90"><g
         clip-path="url(#clipPath94)"
         id="g92"><g
           id="g98"><g
             clip-path="url(#clipPath102)"
             id="g100"><text
   transform="matrix(1,0,0,-1,507.67,574.15)"
   id="text106"><tspan
     x="0"
     y="0"
     id="tspan108"
     style="font-size:6px;font-variant:normal;font-weight:normal;writing-mode:lr-tb;fill:#000000;fill-opacity:1;fill-rule:nonzero;stroke:none;font-family:Courier New;-inkscape-font-specification:Courier New">«</tspan></text>

</g></g><g
           id="g110"><g
             clip-path="url(#clipPath114)"
             id="g112"><text
   transform="matrix(1,0,0,-1,511.27,574.15)"
   id="text118"><tspan
     x="0 3.5999999 7.1999998 10.8 14.4 18 21.6 25.200001 28.799999"
     y="0"
     id="tspan120"
     style="font-size:6px;font-variant:normal;font-weight:normal;writing-mode:lr-tb;fill:#000000;fill-opacity:1;fill-rule:nonzero;stroke:none;font-family:Courier New;-inkscape-font-specification:Courier New">interface</tspan></text>

</g></g><g
           id="g122"><g
             clip-path="url(#clipPath126)"
             id="g124"><text
   transform="matrix(1,0,0,-1,543.67,574.15)"
   id="text130"><tspan
     x="0"
     y="0"
     id="tspan132"
     style="font-size:6px;font-variant:normal;font-weight:normal;writing-mode:lr-tb;fill:#000000;fill-opacity:1;fill-rule:nonzero;stroke:none;font-family:Courier New;-inkscape-font-specification:Courier New">»</tspan></text>

</g></g><g
           id="g134"><g
             clip-path="url(#clipPath138)"
             id="g136" /></g><g
           id="g142"><g
             clip-path="url(#clipPath146)"
             id="g144"><text
   transform="matrix(1,0,0,-1,514.63,566.59)"
   id="text150"><tspan
     x="0"
     y="0"
     id="tspan152"
     style="font-size:6px;font-variant:normal;font-weight:bold;writing-mode:lr-tb;fill:#000000;fill-opacity:1;fill-rule:nonzero;stroke:none;font-family:Helvetica;-inkscape-font-specification:Helvetica-Bold">I</tspan></text>

</g></g><g
           id="g154"><g
             clip-path="url(#clipPath158)"
             id="g156"><text
   transform="matrix(1,0,0,-1,516.19,566.59)"
   id="text162"><tspan
     x="0 3.96 5.994 8.2740002 11.628 13.662 17.016001 20.73"
     y="0"
     id="tspan164"
     style="font-size:6px;font-variant:normal;font-weight:bold;writing-mode:lr-tb;fill:#000000;fill-opacity:1;fill-rule:nonzero;stroke:none;font-family:Helvetica;-inkscape-font-specification:Helvetica-Bold">Strategy</tspan></text>

</g></g><g
           id="g166"><g
             clip-path="url(#clipPath170)"
             id="g168" /></g></g></g><g
       id="g174"><g
         clip-path="url(#clipPath178)"
         id="g176"><g
           id="g182"><g
             clip-path="url(#clipPath186)"
             id="g184"><text
   transform="matrix(1,0,0,-1,445.73,509.83)"
   id="text190"><tspan
     x="0 4.3319998 8.0340004 11.634 13.668 15.948 19.662001 21.33 23.016001 26.370001 28.65"
     y="0"
     id="tspan192"
     style="font-size:6px;font-variant:normal;font-weight:bold;writing-mode:lr-tb;fill:#000000;fill-opacity:1;fill-rule:nonzero;stroke:none;font-family:Helvetica;-inkscape-font-specification:Helvetica-Bold">Controller1</tspan></text>

</g></g><g
           id="g194"><g
             clip-path="url(#clipPath198)"
             id="g196" /></g></g></g><g
       id="g202"><g
         clip-path="url(#clipPath206)"
         id="g204"><g
           id="g210"><g
             clip-path="url(#clipPath214)"
             id="g212"><text
   transform="matrix(1,0,0,-1,506.47,509.83)"
   id="text218"><tspan
     x="0 4.3319998 8.0340004 11.634 13.668 15.948 19.662001 21.33 23.016001 26.370001 28.65"
     y="0"
     id="tspan220"
     style="font-size:6px;font-variant:normal;font-weight:bold;writing-mode:lr-tb;fill:#000000;fill-opacity:1;fill-rule:nonzero;stroke:none;font-family:Helvetica;-inkscape-font-specification:Helvetica-Bold">Controller2</tspan></text>

</g></g><g
           id="g222"><g
             clip-path="url(#clipPath226)"
             id="g224" /></g></g></g><g
       id="g230"><g
         clip-path="url(#clipPath234)"
         id="g232"><g
           id="g238"><g
             clip-path="url(#clipPath242)"
             id="g240"><text
   transform="matrix(1,0,0,-1,563.47,509.83)"
   id="text246"><tspan
     x="0 4.3319998 8.0340004 11.634 13.668 15.948 19.662001 21.33 23.016001 26.370001 28.65"
     y="0"
     id="tspan248"
     style="font-size:6px;font-variant:normal;font-weight:bold;writing-mode:lr-tb;fill:#000000;fill-opacity:1;fill-rule:nonzero;stroke:none;font-family:Helvetica;-inkscape-font-specification:Helvetica-Bold">Controller3</tspan></text>

</g></g><g
           id="g250"><g
             clip-path="url(#clipPath254)"
             id="g252" /></g></g></g><g
       id="g258"><g
         clip-path="url(#clipPath262)"
         id="g260"><g
           id="g266"><g
             clip-path="url(#clipPath270)"
             id="g268"><text
   transform="matrix(1,0,0,-1,503.47,551.23)"
   id="text274"><tspan
     x="0 2.9937601 4.43016 7.0711198 8.2656002 11.02752 13.78944 15.46776 16.551359 17.987761 20.628719 24.942961 27.70488 30.10392 31.78224"
     y="0"
     id="tspan276"
     style="font-size:5.03999996px;font-variant:normal;font-weight:normal;writing-mode:lr-tb;fill:#000000;fill-opacity:1;fill-rule:nonzero;stroke:none;font-family:Helvetica;-inkscape-font-specification:Helvetica">+ algorithmus()</tspan></text>

</g></g><g
           id="g278"><g
             clip-path="url(#clipPath282)"
             id="g280" /></g></g></g><g
       id="g286"><g
         clip-path="url(#clipPath290)"
         id="g288"><g
           id="g294"><g
             clip-path="url(#clipPath298)"
             id="g296"><text
   transform="matrix(1,0,0,-1,441.05,496.87)"
   id="text302"><tspan
     x="0 2.9937601 4.43016 7.0711198 8.2656002 11.02752 13.78944 15.46776 16.551359 17.987761 20.628719 24.942961 27.70488 30.10392 31.78224"
     y="0"
     id="tspan304"
     style="font-size:5.03999996px;font-variant:normal;font-weight:normal;writing-mode:lr-tb;fill:#000000;fill-opacity:1;fill-rule:nonzero;stroke:none;font-family:Helvetica;-inkscape-font-specification:Helvetica">+ algorithmus()</tspan></text>

</g></g><g
           id="g306"><g
             clip-path="url(#clipPath310)"
             id="g308" /></g></g></g><g
       id="g314"><g
         clip-path="url(#clipPath318)"
         id="g316"><g
           id="g322"><g
             clip-path="url(#clipPath326)"
             id="g324"><text
   transform="matrix(1,0,0,-1,402.65,561.55)"
   id="text330"><tspan
     x="0 2.9999599"
     y="0"
     id="tspan332"
     style="font-size:5.03999996px;font-variant:normal;font-weight:normal;writing-mode:lr-tb;fill:#000000;fill-opacity:1;fill-rule:nonzero;stroke:none;font-family:Helvetica;-inkscape-font-specification:Helvetica">+ </tspan></text>

</g></g><g
           id="g334"><g
             clip-path="url(#clipPath338)"
             id="g336"><text
   transform="matrix(1,0,0,-1,407.09,561.55)"
   id="text342"><tspan
     x="0 2.76192 5.52384 8.2857599 9.9640799 12.726 14.04648 15.24096 18.00288 20.764799 22.443119"
     y="0"
     id="tspan344"
     style="font-size:5.03999996px;font-variant:normal;font-weight:normal;writing-mode:lr-tb;fill:#000000;fill-opacity:1;fill-rule:nonzero;stroke:none;font-family:Helvetica;-inkscape-font-specification:Helvetica">operation()</tspan></text>

</g></g><g
           id="g346"><g
             clip-path="url(#clipPath350)"
             id="g348" /></g></g></g><g
       id="g354"><g
         clip-path="url(#clipPath358)"
         id="g356"><g
           id="g362"><g
             clip-path="url(#clipPath366)"
             id="g364"><text
   transform="matrix(1,0,0,-1,477.91,573.19)"
   id="text370"><tspan
     x="0"
     y="0"
     id="tspan372"
     style="font-size:5.03999996px;font-variant:normal;font-weight:normal;writing-mode:lr-tb;fill:#000000;fill-opacity:1;fill-rule:nonzero;stroke:none;font-family:Helvetica;-inkscape-font-specification:Helvetica">-</tspan></text>

</g></g><g
           id="g374"><g
             clip-path="url(#clipPath378)"
             id="g376"><text
   transform="matrix(1,0,0,-1,479.59,573.19)"
   id="text382"><tspan
     x="0 2.52 5.28192 8.0438404 9.4802399 11.15856 13.92048 14.99904 16.19352 18.955441"
     y="0"
     id="tspan384"
     style="font-size:5.03999996px;font-variant:normal;font-weight:normal;writing-mode:lr-tb;fill:#000000;fill-opacity:1;fill-rule:nonzero;stroke:none;font-family:Helvetica;-inkscape-font-specification:Helvetica">controller</tspan></text>

</g></g><g
           id="g386"><g
             clip-path="url(#clipPath390)"
             id="g388" /></g></g></g><g
       id="g394"><g
         clip-path="url(#clipPath398)"
         id="g396"><g
           id="g402"><g
             clip-path="url(#clipPath406)"
             id="g404"><text
   transform="matrix(1,0,0,-1,501.43,496.87)"
   id="text410"><tspan
     x="0 2.9937601 4.43016 7.0711198 8.2656002 11.02752 13.78944 15.46776 16.551359 17.987761 20.628719 24.942961 27.70488 30.10392 31.78224"
     y="0"
     id="tspan412"
     style="font-size:5.03999996px;font-variant:normal;font-weight:normal;writing-mode:lr-tb;fill:#000000;fill-opacity:1;fill-rule:nonzero;stroke:none;font-family:Helvetica;-inkscape-font-specification:Helvetica">+ algorithmus()</tspan></text>

</g></g><g
           id="g414"><g
             clip-path="url(#clipPath418)"
             id="g416" /></g></g></g><g
       id="g422"><g
         clip-path="url(#clipPath426)"
         id="g424"><g
           id="g430"><g
             clip-path="url(#clipPath434)"
             id="g432"><text
   transform="matrix(1,0,0,-1,558.91,496.87)"
   id="text438"><tspan
     x="0 2.9937601 4.43016 7.0711198 8.2656002 11.02752 13.78944 15.46776 16.551359 17.987761 20.628719 24.942961 27.70488 30.10392 31.78224"
     y="0"
     id="tspan440"
     style="font-size:5.03999996px;font-variant:normal;font-weight:normal;writing-mode:lr-tb;fill:#000000;fill-opacity:1;fill-rule:nonzero;stroke:none;font-family:Helvetica;-inkscape-font-specification:Helvetica">+ algorithmus()</tspan></text>

</g></g><g
           id="g442"><g
             clip-path="url(#clipPath446)"
             id="g444" /></g></g></g></g></svg>