<?xml version="1.0" encoding="UTF-8" standalone="no"?>
<!-- Created with Inkscape (http://www.inkscape.org/) -->

<svg
   xmlns:dc="http://purl.org/dc/elements/1.1/"
   xmlns:cc="http://creativecommons.org/ns#"
   xmlns:rdf="http://www.w3.org/1999/02/22-rdf-syntax-ns#"
   xmlns:svg="http://www.w3.org/2000/svg"
   xmlns="http://www.w3.org/2000/svg"
   xmlns:sodipodi="http://sodipodi.sourceforge.net/DTD/sodipodi-0.dtd"
   xmlns:inkscape="http://www.inkscape.org/namespaces/inkscape"
   version="1.1"
   width="281.49377"
   height="192.81876"
   id="svg2"
   xml:space="preserve"
   inkscape:version="0.48.4 r9939"
   sodipodi:docname="Bild 5-37 Interaktionen der Komponenten der MVC-Architektur .svg"><sodipodi:namedview
     pagecolor="#ffffff"
     bordercolor="#666666"
     borderopacity="1"
     objecttolerance="10"
     gridtolerance="10"
     guidetolerance="10"
     inkscape:pageopacity="0"
     inkscape:pageshadow="2"
     inkscape:window-width="640"
     inkscape:window-height="480"
     id="namedview204"
     showgrid="false"
     inkscape:zoom="0.18730159"
     inkscape:cx="150.90627"
     inkscape:cy="91.35"
     inkscape:window-x="0"
     inkscape:window-y="0"
     inkscape:window-maximized="0"
     inkscape:current-layer="svg2" /><metadata
     id="metadata8"><rdf:RDF><cc:Work
         rdf:about=""><dc:format>image/svg+xml</dc:format><dc:type
           rdf:resource="http://purl.org/dc/dcmitype/StillImage" /></cc:Work></rdf:RDF></metadata><defs
     id="defs6"><clipPath
       id="clipPath68"><path
         d="m 455.57,541.27 111.27,0 0,18.96 -111.27,0 0,-18.96 z"
         inkscape:connector-curvature="0"
         id="path70" /></clipPath><clipPath
       id="clipPath76"><path
         d="m 455.57,541.27 111.26,0 0,18.96 -111.26,0 0,-18.96 z"
         inkscape:connector-curvature="0"
         id="path78" /></clipPath><clipPath
       id="clipPath88"><path
         d="m 455.57,541.27 111.26,0 0,18.96 -111.26,0 0,-18.96 z"
         inkscape:connector-curvature="0"
         id="path90" /></clipPath><clipPath
       id="clipPath100"><path
         d="m 455.57,541.27 111.26,0 0,18.96 -111.26,0 0,-18.96 z"
         inkscape:connector-curvature="0"
         id="path102" /></clipPath><clipPath
       id="clipPath112"><path
         d="m 455.57,541.27 111.26,0 0,18.96 -111.26,0 0,-18.96 z"
         inkscape:connector-curvature="0"
         id="path114" /></clipPath><clipPath
       id="clipPath120"><path
         d="m 455.57,541.27 111.26,0 0,18.96 -111.26,0 0,-18.96 z"
         inkscape:connector-curvature="0"
         id="path122" /></clipPath><clipPath
       id="clipPath128"><path
         d="m 455.57,541.27 111.26,0 0,18.96 -111.26,0 0,-18.96 z"
         inkscape:connector-curvature="0"
         id="path130" /></clipPath><clipPath
       id="clipPath140"><path
         d="m 455.57,541.27 111.26,0 0,18.96 -111.26,0 0,-18.96 z"
         inkscape:connector-curvature="0"
         id="path142" /></clipPath><clipPath
       id="clipPath148"><path
         d="m 471.92,514.87 72,0 0,18.36 -72,0 0,-18.36 z"
         inkscape:connector-curvature="0"
         id="path150" /></clipPath><clipPath
       id="clipPath156"><path
         d="m 471.91,514.87 72,0 0,18.36 -72,0 0,-18.36 z"
         inkscape:connector-curvature="0"
         id="path158" /></clipPath><clipPath
       id="clipPath168"><path
         d="m 471.91,514.87 72,0 0,18.36 -72,0 0,-18.36 z"
         inkscape:connector-curvature="0"
         id="path170" /></clipPath><clipPath
       id="clipPath176"><path
         d="m 471.91,514.87 72,0 0,18.36 -72,0 0,-18.36 z"
         inkscape:connector-curvature="0"
         id="path178" /></clipPath><clipPath
       id="clipPath188"><path
         d="m 471.91,514.87 72,0 0,18.36 -72,0 0,-18.36 z"
         inkscape:connector-curvature="0"
         id="path190" /></clipPath><clipPath
       id="clipPath196"><path
         d="m 508.04,488.95 71.88,0 0,18.84 -71.88,0 0,-18.84 z"
         inkscape:connector-curvature="0"
         id="path198" /></clipPath><clipPath
       id="clipPath204"><path
         d="m 508.03,488.95 71.88,0 0,18.84 -71.88,0 0,-18.84 z"
         inkscape:connector-curvature="0"
         id="path206" /></clipPath><clipPath
       id="clipPath216"><path
         d="m 508.03,488.95 71.88,0 0,18.84 -71.88,0 0,-18.84 z"
         inkscape:connector-curvature="0"
         id="path218" /></clipPath><clipPath
       id="clipPath228"><path
         d="m 508.03,488.95 71.88,0 0,18.84 -71.88,0 0,-18.84 z"
         inkscape:connector-curvature="0"
         id="path230" /></clipPath><clipPath
       id="clipPath236"><path
         d="m 435.05,486.55 71.91,0 0,17.16 -71.91,0 0,-17.16 z"
         inkscape:connector-curvature="0"
         id="path238" /></clipPath><clipPath
       id="clipPath244"><path
         d="m 435.05,486.55 71.904,0 0,17.16 -71.904,0 0,-17.16 z"
         inkscape:connector-curvature="0"
         id="path246" /></clipPath><clipPath
       id="clipPath256"><path
         d="m 435.05,486.55 71.904,0 0,17.16 -71.904,0 0,-17.16 z"
         inkscape:connector-curvature="0"
         id="path258" /></clipPath><clipPath
       id="clipPath268"><path
         d="m 435.05,486.55 71.904,0 0,17.16 -71.904,0 0,-17.16 z"
         inkscape:connector-curvature="0"
         id="path270" /></clipPath><clipPath
       id="clipPath276"><path
         d="m 382.61,467.95 72,0 0,18.48 -72,0 0,-18.48 z"
         inkscape:connector-curvature="0"
         id="path278" /></clipPath><clipPath
       id="clipPath284"><path
         d="m 382.61,467.95 72,0 0,18.48 -72,0 0,-18.48 z"
         inkscape:connector-curvature="0"
         id="path286" /></clipPath><clipPath
       id="clipPath296"><path
         d="m 382.61,467.95 72,0 0,18.48 -72,0 0,-18.48 z"
         inkscape:connector-curvature="0"
         id="path298" /></clipPath><clipPath
       id="clipPath308"><path
         d="m 382.61,467.95 72,0 0,18.48 -72,0 0,-18.48 z"
         inkscape:connector-curvature="0"
         id="path310" /></clipPath><clipPath
       id="clipPath316"><path
         d="m 416.69,516.91 35.64,0 0,10.56 -35.64,0 0,-10.56 z"
         inkscape:connector-curvature="0"
         id="path318" /></clipPath><clipPath
       id="clipPath324"><path
         d="m 416.69,516.91 35.64,0 0,10.56 -35.64,0 0,-10.56 z"
         inkscape:connector-curvature="0"
         id="path326" /></clipPath><clipPath
       id="clipPath336"><path
         d="m 416.69,516.91 35.64,0 0,10.56 -35.64,0 0,-10.56 z"
         inkscape:connector-curvature="0"
         id="path338" /></clipPath><clipPath
       id="clipPath344"><path
         d="m 548.24,517.63 57.96,0 0,11.64 -57.96,0 0,-11.64 z"
         inkscape:connector-curvature="0"
         id="path346" /></clipPath><clipPath
       id="clipPath352"><path
         d="m 548.23,517.63 57.96,0 0,11.64 -57.96,0 0,-11.64 z"
         inkscape:connector-curvature="0"
         id="path354" /></clipPath><clipPath
       id="clipPath364"><path
         d="m 548.23,517.63 57.96,0 0,11.64 -57.96,0 0,-11.64 z"
         inkscape:connector-curvature="0"
         id="path366" /></clipPath><clipPath
       id="clipPath372"><path
         d="m 485.48,466.63 45.96,0 0,9 -45.96,0 0,-9 z"
         inkscape:connector-curvature="0"
         id="path374" /></clipPath><clipPath
       id="clipPath380"><path
         d="m 485.47,466.63 45.96,0 0,9 -45.96,0 0,-9 z"
         inkscape:connector-curvature="0"
         id="path382" /></clipPath><clipPath
       id="clipPath392"><path
         d="m 485.47,466.63 45.96,0 0,9 -45.96,0 0,-9 z"
         inkscape:connector-curvature="0"
         id="path394" /></clipPath></defs><g
     transform="matrix(1.25,0,0,-1.25,-479.46873,731.46875)"
     id="g10"><path
       d="m 409.7,525.16 c -11.23,-1.02 -19.75,-9.36 -19.75,-19.33 -0.01,-6.89 4.14,-13.28 10.88,-16.76 l -0.11,0.22 c -3.83,-3.59 -5.96,-8.32 -5.96,-13.22 0,-10.69 9.89,-19.35 22.09,-19.35 0.85,0 1.71,0.05 2.57,0.14 l -0.12,-0.13 c 6.97,-10.72 19.92,-17.33 33.94,-17.33 7.1,0 14.07,1.7 20.15,4.93 l -0.06,-0.03 c 6.34,-8.36 17.01,-13.38 28.44,-13.38 15.06,0.01 28.37,8.69 32.73,21.4 l 0.03,-0.17 c 4.66,-2.55 10.03,-3.91 15.52,-3.91 16.09,0.01 29.18,11.39 29.31,25.51 l -0.05,0.07 c 16.9,2.12 29.46,14.83 29.46,29.82 0,6.65 -2.5,13.1 -7.1,18.37 l -0.07,0.01 c 1.43,2.96 2.18,6.14 2.18,9.37 0,10.72 -8.16,20.12 -19.91,22.94 l 0.09,0.04 c -2.11,10.26 -12.31,17.73 -24.22,17.73 -7.23,0.01 -14.09,-2.78 -18.77,-7.62 l 0.04,-0.03 c -4.18,4.83 -10.68,7.65 -17.58,7.65 -8.38,0.01 -16.05,-4.16 -19.79,-10.75 l 0.08,-0.32 c -5.05,4.38 -11.86,6.82 -18.96,6.82 -9.99,0.01 -19.16,-4.84 -23.86,-12.6 l -0.08,-0.16 c -5.25,2.7 -11.21,4.12 -17.29,4.12 -18.9,0 -34.21,-13.45 -34.21,-30.04 -0.01,-1.35 0.1,-2.71 0.31,-4.05 l 0.07,0.04 z"
       inkscape:connector-curvature="0"
       id="path12"
       style="fill:#808080;fill-opacity:1;fill-rule:evenodd;stroke:none" /><path
       d="m 403.7,531.16 c -11.23,-1.02 -19.75,-9.36 -19.75,-19.33 -0.01,-6.89 4.14,-13.28 10.88,-16.76 l -0.11,0.22 c -3.83,-3.59 -5.96,-8.32 -5.96,-13.22 0,-10.69 9.89,-19.35 22.09,-19.35 0.85,0 1.71,0.05 2.57,0.14 l -0.12,-0.13 c 6.97,-10.72 19.92,-17.33 33.94,-17.33 7.1,0 14.07,1.7 20.15,4.93 l -0.06,-0.03 c 6.34,-8.36 17.01,-13.38 28.44,-13.38 15.06,0.01 28.37,8.69 32.73,21.4 l 0.03,-0.17 c 4.66,-2.55 10.03,-3.91 15.52,-3.91 16.09,0.01 29.18,11.39 29.31,25.51 l -0.05,0.07 c 16.9,2.12 29.46,14.83 29.46,29.82 0,6.65 -2.5,13.1 -7.1,18.37 l -0.07,0.01 c 1.43,2.96 2.18,6.14 2.18,9.37 0,10.72 -8.16,20.12 -19.91,22.94 l 0.09,0.04 c -2.11,10.26 -12.31,17.73 -24.22,17.73 -7.23,0.01 -14.09,-2.78 -18.77,-7.62 l 0.04,-0.03 c -4.18,4.83 -10.68,7.65 -17.58,7.65 -8.38,0.01 -16.05,-4.16 -19.79,-10.75 l 0.08,-0.32 c -5.05,4.38 -11.86,6.82 -18.96,6.82 -9.99,0.01 -19.16,-4.84 -23.86,-12.6 l -0.08,-0.16 c -5.25,2.7 -11.21,4.12 -17.29,4.12 -18.9,0 -34.21,-13.45 -34.21,-30.04 -0.01,-1.35 0.1,-2.71 0.31,-4.05 l 0.07,0.04 z"
       inkscape:connector-curvature="0"
       id="path14"
       style="fill:#ffffff;fill-opacity:1;fill-rule:evenodd;stroke:none" /><path
       d="m 403.7,531.16 c -11.23,-1.02 -19.75,-9.36 -19.75,-19.33 -0.01,-6.89 4.14,-13.28 10.88,-16.76 l -0.11,0.22 c -3.83,-3.59 -5.96,-8.32 -5.96,-13.22 0,-10.69 9.89,-19.35 22.09,-19.35 0.85,0 1.71,0.05 2.57,0.14 l -0.12,-0.13 c 6.97,-10.72 19.92,-17.33 33.94,-17.33 7.1,0 14.07,1.7 20.15,4.93 l -0.06,-0.03 c 6.34,-8.36 17.01,-13.38 28.44,-13.38 15.06,0.01 28.37,8.69 32.73,21.4 l 0.03,-0.17 c 4.66,-2.55 10.03,-3.91 15.52,-3.91 16.09,0.01 29.18,11.39 29.31,25.51 l -0.05,0.07 c 16.9,2.12 29.46,14.83 29.46,29.82 0,6.65 -2.5,13.1 -7.1,18.37 l -0.07,0.01 c 1.43,2.96 2.18,6.14 2.18,9.37 0,10.72 -8.16,20.12 -19.91,22.94 l 0.09,0.04 c -2.11,10.26 -12.31,17.73 -24.22,17.73 -7.23,0.01 -14.09,-2.78 -18.77,-7.62 l 0.04,-0.03 c -4.18,4.83 -10.68,7.65 -17.58,7.65 -8.38,0.01 -16.05,-4.16 -19.79,-10.75 l 0.08,-0.32 c -5.05,4.38 -11.86,6.82 -18.96,6.82 -9.99,0.01 -19.16,-4.84 -23.86,-12.6 l -0.08,-0.16 c -5.25,2.7 -11.21,4.12 -17.29,4.12 -18.9,0 -34.21,-13.45 -34.21,-30.04 -0.01,-1.35 0.1,-2.71 0.31,-4.05 l 0.07,0.04 z"
       inkscape:connector-curvature="0"
       id="path16"
       style="fill:none;stroke:#000000;stroke-width:0.75;stroke-linecap:round;stroke-linejoin:round;stroke-miterlimit:10;stroke-opacity:1;stroke-dasharray:none" /><path
       d="m 394.83,495.07 c 3.38,-1.75 7.22,-2.67 11.13,-2.67 0.56,0.01 1.14,0.02 1.71,0.06"
       inkscape:connector-curvature="0"
       id="path18"
       style="fill:none;stroke:#000000;stroke-width:0.75;stroke-linecap:round;stroke-linejoin:round;stroke-miterlimit:10;stroke-opacity:1;stroke-dasharray:none" /><path
       d="m 413.42,462.86 c 1.93,0.19 3.81,0.61 5.62,1.24"
       inkscape:connector-curvature="0"
       id="path20"
       style="fill:none;stroke:#000000;stroke-width:0.75;stroke-linecap:round;stroke-linejoin:round;stroke-miterlimit:10;stroke-opacity:1;stroke-dasharray:none" /><path
       d="m 463.94,455.99 c 0.89,-2 2.03,-3.9 3.39,-5.69"
       inkscape:connector-curvature="0"
       id="path22"
       style="fill:none;stroke:#000000;stroke-width:0.75;stroke-linecap:round;stroke-linejoin:round;stroke-miterlimit:10;stroke-opacity:1;stroke-dasharray:none" /><path
       d="m 528.5,458.32 c 0.7,2.03 1.15,4.12 1.35,6.23"
       inkscape:connector-curvature="0"
       id="path24"
       style="fill:none;stroke:#000000;stroke-width:0.75;stroke-linecap:round;stroke-linejoin:round;stroke-miterlimit:10;stroke-opacity:1;stroke-dasharray:none" /><path
       d="m 573.36,479.75 c 0,0.07 0.01,0.14 0.01,0.21 0,9.84 -6.41,18.81 -16.48,23.11"
       inkscape:connector-curvature="0"
       id="path26"
       style="fill:none;stroke:#000000;stroke-width:0.75;stroke-linecap:round;stroke-linejoin:round;stroke-miterlimit:10;stroke-opacity:1;stroke-dasharray:none" /><path
       d="m 588.26,519.27 c 3.18,2.38 5.68,5.38 7.34,8.75"
       inkscape:connector-curvature="0"
       id="path28"
       style="fill:none;stroke:#000000;stroke-width:0.75;stroke-linecap:round;stroke-linejoin:round;stroke-miterlimit:10;stroke-opacity:1;stroke-dasharray:none" /><path
       d="m 578.34,556.24 c 0,0.1 0.01,0.2 0.01,0.31 0,1.28 -0.13,2.56 -0.39,3.82"
       inkscape:connector-curvature="0"
       id="path30"
       style="fill:none;stroke:#000000;stroke-width:0.75;stroke-linecap:round;stroke-linejoin:round;stroke-miterlimit:10;stroke-opacity:1;stroke-dasharray:none" /><path
       d="m 534.97,570.48 c -1.53,-1.58 -2.8,-3.36 -3.75,-5.26"
       inkscape:connector-curvature="0"
       id="path32"
       style="fill:none;stroke:#000000;stroke-width:0.75;stroke-linecap:round;stroke-linejoin:round;stroke-miterlimit:10;stroke-opacity:1;stroke-dasharray:none" /><path
       d="m 497.64,567.35 c -0.82,-1.45 -1.43,-2.97 -1.82,-4.55"
       inkscape:connector-curvature="0"
       id="path34"
       style="fill:none;stroke:#000000;stroke-width:0.75;stroke-linecap:round;stroke-linejoin:round;stroke-miterlimit:10;stroke-opacity:1;stroke-dasharray:none" /><path
       d="m 461.41,556.68 c -1.99,1.7 -4.2,3.18 -6.59,4.41"
       inkscape:connector-curvature="0"
       id="path36"
       style="fill:none;stroke:#000000;stroke-width:0.75;stroke-linecap:round;stroke-linejoin:round;stroke-miterlimit:10;stroke-opacity:1;stroke-dasharray:none" /><path
       d="m 403.63,531.12 c 0.24,-1.56 0.62,-3.11 1.15,-4.63"
       inkscape:connector-curvature="0"
       id="path38"
       style="fill:none;stroke:#000000;stroke-width:0.75;stroke-linecap:round;stroke-linejoin:round;stroke-miterlimit:10;stroke-opacity:1;stroke-dasharray:none" /><path
       d="m 434.7,533.4 c -10.52,0 -19.05,-4.15 -19.05,-9.27 0,-5.13 8.53,-9.28 19.05,-9.28 10.52,0 19.05,4.15 19.05,9.28 0,5.12 -8.53,9.27 -19.05,9.27 z"
       inkscape:connector-curvature="0"
       id="path40"
       style="fill:#dddddd;fill-opacity:1;fill-rule:evenodd;stroke:none" /><path
       d="m 434.7,533.4 c -10.52,0 -19.05,-4.15 -19.05,-9.27 0,-5.13 8.53,-9.28 19.05,-9.28 10.52,0 19.05,4.15 19.05,9.28 0,5.12 -8.53,9.27 -19.05,9.27 z"
       inkscape:connector-curvature="0"
       id="path42"
       style="fill:none;stroke:#000000;stroke-width:1;stroke-linecap:round;stroke-linejoin:round;stroke-miterlimit:10;stroke-opacity:1;stroke-dasharray:none" /><path
       d="m 577.15,534.5 c -10.52,0 -19.05,-4.15 -19.05,-9.28 0,-5.12 8.53,-9.27 19.05,-9.27 10.52,0 19.05,4.15 19.05,9.27 0,5.13 -8.53,9.28 -19.05,9.28 z"
       inkscape:connector-curvature="0"
       id="path44"
       style="fill:#dddddd;fill-opacity:1;fill-rule:evenodd;stroke:none" /><path
       d="m 577.15,534.5 c -10.52,0 -19.05,-4.15 -19.05,-9.28 0,-5.12 8.53,-9.27 19.05,-9.27 10.52,0 19.05,4.15 19.05,9.27 0,5.13 -8.53,9.28 -19.05,9.28 z"
       inkscape:connector-curvature="0"
       id="path46"
       style="fill:none;stroke:#000000;stroke-width:1;stroke-linecap:round;stroke-linejoin:round;stroke-miterlimit:10;stroke-opacity:1;stroke-dasharray:none" /><path
       d="m 508.2,481.1 c -10.52,0 -19.05,-4.15 -19.05,-9.27 0,-5.13 8.53,-9.28 19.05,-9.28 10.52,0 19.05,4.15 19.05,9.28 0,5.12 -8.53,9.27 -19.05,9.27 z"
       inkscape:connector-curvature="0"
       id="path48"
       style="fill:#dddddd;fill-opacity:1;fill-rule:evenodd;stroke:none" /><path
       d="m 508.2,481.1 c -10.52,0 -19.05,-4.15 -19.05,-9.27 0,-5.13 8.53,-9.28 19.05,-9.28 10.52,0 19.05,4.15 19.05,9.28 0,5.12 -8.53,9.27 -19.05,9.27 z"
       inkscape:connector-curvature="0"
       id="path50"
       style="fill:none;stroke:#000000;stroke-width:1;stroke-linecap:round;stroke-linejoin:round;stroke-miterlimit:10;stroke-opacity:1;stroke-dasharray:none" /><path
       d="m 531.98,474.33 1.04,0.08 2.44,0.29 2.4,0.39 2.35,0.48 2.32,0.57 2.26,0.68 2.21,0.76 2.15,0.85 2.11,0.92 2.03,1.02 1.97,1.09 1.9,1.17 1.84,1.25 1.76,1.31 1.69,1.38 1.6,1.46 1.52,1.51 1.44,1.58 1.35,1.63 1.25,1.68 1.17,1.74 1.07,1.79 0.96,1.84 0.87,1.88 0.76,1.93 0.65,1.96 0.54,2.01 0.42,2.03 0.3,2.08 0.19,2.1 0.06,2.12 c 0.01,0.28 0.24,0.49 0.52,0.48 0.27,0 0.49,-0.23 0.48,-0.51 l -0.06,-2.18 -0.2,-2.16 -0.31,-2.13 -0.43,-2.09 -0.56,-2.06 -0.67,-2.02 -0.78,-1.98 -0.89,-1.92 -0.99,-1.89 -1.1,-1.84 -1.19,-1.78 -1.29,-1.72 -1.39,-1.67 -1.47,-1.61 -1.55,-1.54 -1.64,-1.49 -1.72,-1.41 -1.8,-1.34 -1.88,-1.27 -1.93,-1.19 -2.01,-1.11 -2.08,-1.04 -2.14,-0.95 -2.2,-0.86 -2.24,-0.77 -2.31,-0.69 -2.35,-0.58 -2.4,-0.49 -2.45,-0.39 -2.48,-0.3 -1.03,-0.08 c -0.28,-0.02 -0.52,0.19 -0.54,0.46 -0.02,0.28 0.19,0.52 0.46,0.54 z m 0.04,-0.5 2.13,-2.9 -6.13,2.72 5.86,3.27 -1.86,-3.09 z"
       inkscape:connector-curvature="0"
       id="path52"
       style="fill:#000000;fill-opacity:1;fill-rule:nonzero;stroke:none" /><path
       d="m 492,476.55 -2.78,0.05 -2.77,0.14 -2.73,0.24 -2.68,0.33 -2.64,0.43 -2.58,0.52 -2.53,0.59 -2.47,0.68 -2.42,0.77 -2.35,0.83 -2.29,0.93 -2.2,0.99 -2.14,1.05 -2.07,1.14 -1.98,1.2 -1.9,1.26 -1.81,1.32 -1.72,1.39 -1.62,1.45 -1.53,1.49 -1.43,1.56 -1.31,1.6 -1.22,1.65 -1.1,1.71 -0.98,1.73 -0.87,1.79 -0.74,1.82 -0.61,1.87 -0.49,1.89 -0.33,1.8 c -0.05,0.27 0.13,0.53 0.4,0.58 0.27,0.05 0.54,-0.13 0.58,-0.4 l 0.32,-1.73 0.47,-1.83 0.59,-1.8 0.71,-1.76 0.84,-1.74 0.96,-1.68 1.06,-1.66 1.18,-1.6 1.28,-1.56 1.39,-1.52 1.49,-1.46 1.59,-1.42 1.68,-1.36 1.78,-1.3 1.86,-1.23 1.94,-1.18 2.03,-1.12 2.1,-1.04 2.18,-0.98 2.24,-0.9 2.33,-0.83 2.37,-0.75 2.44,-0.67 2.5,-0.59 2.55,-0.51 2.59,-0.42 2.65,-0.33 2.69,-0.24 2.73,-0.14 2.79,-0.06 c 0.27,0 0.49,-0.23 0.49,-0.5 -0.01,-0.28 -0.24,-0.5 -0.51,-0.49 z m -53.8,34.31 -2.84,-2.22 2.54,6.21 3.44,-5.76 -3.14,1.77 z"
       inkscape:connector-curvature="0"
       id="path54"
       style="fill:#000000;fill-opacity:1;fill-rule:nonzero;stroke:none" /><path
       d="m 485.13,469.56 -2.33,0.13 -3.12,0.29 -3.07,0.4 -3.01,0.52 -2.96,0.62 -2.89,0.74 -2.83,0.82 -2.76,0.93 -2.69,1.02 -2.61,1.11 -2.53,1.2 -2.45,1.3 -2.36,1.37 -2.26,1.45 -2.17,1.54 -2.07,1.61 -1.96,1.68 -1.85,1.75 -1.75,1.82 -1.62,1.88 -1.51,1.95 -1.38,2 -1.26,2.06 -1.12,2.11 -0.99,2.16 -0.84,2.21 -0.71,2.25 -0.55,2.3 -0.41,2.34 -0.24,2.36 -0.08,2.4 c -0.01,0.28 0.21,0.51 0.49,0.51 0.27,0.01 0.5,-0.2 0.51,-0.48 l 0.07,-2.33 0.24,-2.29 0.39,-2.28 0.53,-2.23 0.69,-2.19 0.82,-2.15 0.96,-2.11 1.09,-2.06 1.23,-2.01 1.35,-1.96 1.47,-1.91 1.59,-1.84 1.72,-1.79 1.82,-1.71 1.92,-1.65 2.03,-1.59 2.13,-1.51 2.23,-1.43 2.32,-1.35 2.41,-1.27 2.49,-1.19 2.57,-1.1 2.65,-1.01 2.73,-0.91 2.8,-0.82 2.85,-0.72 2.92,-0.61 2.97,-0.51 3.04,-0.4 3.08,-0.29 2.33,-0.13 c 0.27,-0.02 0.48,-0.26 0.47,-0.53 -0.02,-0.28 -0.25,-0.49 -0.53,-0.47 z m 0.03,0.5 -1.92,3.05 5.92,-3.16 -6.08,-2.84 2.08,2.95 z"
       inkscape:connector-curvature="0"
       id="path56"
       style="fill:#000000;fill-opacity:1;fill-rule:nonzero;stroke:none" /><path
       d="m 435.22,533.86 8.74,3.51 4.36,1.72 4.37,1.68 4.37,1.62 4.37,1.55 4.36,1.48 4.36,1.38 4.36,1.27 4.35,1.16 4.36,1.01 4.34,0.88 4.34,0.71 2.17,0.28 2.17,0.24 2.16,0.2 2.17,0.15 2.16,0.1 2.16,0.04 2.16,0 2.15,-0.06 2.16,-0.12 2.15,-0.15 2.15,-0.21 2.14,-0.25 4.29,-0.64 4.28,-0.8 4.27,-0.95 4.28,-1.08 4.26,-1.21 4.25,-1.31 4.26,-1.41 4.24,-1.49 4.25,-1.56 4.24,-1.61 4.24,-1.65 4.76,-1.9 c 0.26,-0.1 0.39,-0.39 0.28,-0.65 -0.1,-0.26 -0.39,-0.38 -0.65,-0.28 l -4.75,1.89 -4.24,1.65 -4.23,1.61 -4.23,1.55 -4.23,1.49 -4.23,1.4 -4.24,1.31 -4.23,1.2 -4.24,1.07 -4.24,0.95 -4.25,0.79 -4.25,0.63 -2.13,0.25 -2.12,0.21 -2.13,0.16 -2.13,0.11 -2.14,0.06 -2.13,0.01 -2.13,-0.05 -2.14,-0.1 -2.14,-0.15 -2.15,-0.19 -2.15,-0.24 -2.14,-0.28 -4.3,-0.7 -4.32,-0.87 -4.32,-1.01 -4.33,-1.15 -4.34,-1.26 -4.34,-1.38 -4.35,-1.47 -4.36,-1.55 -4.35,-1.62 -4.36,-1.68 -4.36,-1.71 -8.74,-3.5 c -0.26,-0.11 -0.55,0.02 -0.65,0.27 -0.1,0.26 0.02,0.55 0.28,0.65 z m 134.02,2.11 -0.75,3.53 4.46,-5 -6.68,-0.57 2.97,2.04 z"
       inkscape:connector-curvature="0"
       id="path58"
       style="fill:#000000;fill-opacity:1;fill-rule:nonzero;stroke:none" /><path
       d="m 455.63,526.87 4.88,1.69 6.77,2.25 3.38,1.08 3.38,1.04 3.38,0.97 3.36,0.92 3.37,0.84 3.35,0.76 3.35,0.66 3.33,0.56 3.33,0.46 3.3,0.33 3.3,0.2 3.28,0.07 3.28,-0.08 3.24,-0.22 3.24,-0.35 3.22,-0.47 3.2,-0.58 3.2,-0.68 3.18,-0.77 3.18,-0.86 3.16,-0.92 3.16,-1 3.14,-1.05 3.15,-1.1 6.27,-2.29 6.27,-2.37 c 0.26,-0.1 0.39,-0.38 0.29,-0.64 -0.1,-0.26 -0.38,-0.39 -0.64,-0.29 l -6.26,2.37 -6.25,2.28 -3.14,1.09 -3.14,1.04 -3.13,1 -3.15,0.92 -3.14,0.85 -3.16,0.76 -3.16,0.68 -3.18,0.57 -3.18,0.47 -3.2,0.34 -3.2,0.22 -3.22,0.08 -3.25,-0.07 -3.25,-0.19 -3.28,-0.34 -3.29,-0.44 -3.31,-0.56 -3.32,-0.66 -3.33,-0.76 -3.34,-0.82 -3.36,-0.92 -3.36,-0.97 -3.37,-1.03 -3.36,-1.07 -6.76,-2.26 -4.89,-1.68 c -0.26,-0.09 -0.54,0.05 -0.63,0.31 -0.09,0.26 0.05,0.54 0.31,0.63 z m 6.88,-2.31 -7.66,1.52 5.1,5.91 c 0.18,0.21 0.49,0.23 0.7,0.05 0.21,-0.18 0.23,-0.49 0.05,-0.7 l -4.53,-5.26 -0.28,0.81 6.81,-1.35 c 0.27,-0.06 0.45,-0.32 0.39,-0.59 -0.05,-0.27 -0.31,-0.45 -0.58,-0.39 z"
       inkscape:connector-curvature="0"
       id="path60"
       style="fill:#000000;fill-opacity:1;fill-rule:nonzero;stroke:none" /><path
       d="m 411.95,565.72 0.06,-1.47 0.16,-1.41 0.01,-0.04 c 0.05,-0.27 -0.12,-0.53 -0.39,-0.58 -0.28,-0.06 -0.54,0.12 -0.59,0.39 l -0.02,0.12 -0.17,1.48 -0.06,1.46 c -0.01,0.28 0.2,0.51 0.48,0.52 0.28,0.02 0.51,-0.2 0.52,-0.47 z m 1.23,-6.72 0.07,-0.22 0.53,-1.25 0.59,-1.2 0,0 -0.01,0.03 c 0.14,-0.23 0.06,-0.54 -0.18,-0.68 -0.24,-0.14 -0.54,-0.07 -0.68,0.17 l -0.02,0.04 -0.62,1.25 -0.56,1.32 -0.07,0.22 c -0.09,0.26 0.05,0.55 0.31,0.64 0.26,0.09 0.55,-0.05 0.64,-0.32 z m 3.42,-5.78 0.72,-0.72 0.84,-0.67 0.68,-0.43 c 0.23,-0.15 0.3,-0.45 0.15,-0.69 -0.15,-0.23 -0.45,-0.3 -0.69,-0.15 l -0.77,0.49 -0.91,0.74 -0.72,0.72 c -0.2,0.19 -0.2,0.51 0,0.71 0.19,0.19 0.51,0.19 0.7,0 z m 5.87,-2.71 0.1,-0.01 1,-0.28 c 0.02,0 0.05,-0.01 0.07,-0.02 l 0.92,-0.42 0.84,-0.52 c 0.23,-0.15 0.3,-0.46 0.15,-0.69 -0.14,-0.24 -0.45,-0.31 -0.69,-0.16 l -0.71,0.46 -0.92,0.42 0.07,-0.03 -0.87,0.25 -0.1,0.01 c -0.27,0.04 -0.46,0.3 -0.42,0.57 0.03,0.27 0.29,0.46 0.56,0.42 z m 5.88,-4.21 0.56,-0.79 0.69,-1.18 0.34,-0.66 c 0.12,-0.24 0.02,-0.54 -0.23,-0.67 -0.24,-0.12 -0.54,-0.02 -0.67,0.22 l -0.3,0.61 -0.65,1.1 -0.56,0.79 c -0.16,0.23 -0.11,0.54 0.12,0.7 0.22,0.16 0.54,0.11 0.7,-0.12 z m 2.94,-6.49 0.07,-0.25 c 0.07,-0.27 -0.09,-0.54 -0.36,-0.61 -0.27,-0.07 -0.54,0.09 -0.61,0.36 l -0.07,0.26 c -0.06,0.26 0.1,0.54 0.36,0.6 0.27,0.07 0.54,-0.09 0.61,-0.36 z m 2.39,1.08 -2.03,-6.39 -3.9,5.45 5.93,0.94 z"
       inkscape:connector-curvature="0"
       id="path62"
       style="fill:#000000;fill-opacity:1;fill-rule:nonzero;stroke:none" /><g
       id="g64"><g
         clip-path="url(#clipPath68)"
         id="g66"><g
           id="g72"><g
             clip-path="url(#clipPath76)"
             id="g74"><text
   transform="matrix(1,0,0,-1,485.95,553.75)"
   id="text80"><tspan
     x="0"
     y="0"
     id="tspan82"
     style="font-size:6.96000004px;font-variant:normal;font-weight:normal;writing-mode:lr-tb;fill:#000000;fill-opacity:1;fill-rule:nonzero;stroke:none;font-family:Helvetica;-inkscape-font-specification:Helvetica">1</tspan></text>

</g></g><g
           id="g84"><g
             clip-path="url(#clipPath88)"
             id="g86"><text
   transform="matrix(1,0,0,-1,489.79,553.75)"
   id="text92"><tspan
     x="0 1.91998 3.8399601"
     y="0"
     id="tspan94"
     style="font-size:6.96000004px;font-variant:normal;font-weight:normal;writing-mode:lr-tb;fill:#000000;fill-opacity:1;fill-rule:nonzero;stroke:none;font-family:Helvetica;-inkscape-font-specification:Helvetica">: E</tspan></text>

</g></g><g
           id="g96"><g
             clip-path="url(#clipPath100)"
             id="g98"><text
   transform="matrix(1,0,0,-1,498.31,553.75)"
   id="text104"><tspan
     x="0 1.54512 5.51232 9.3542404 13.30752 17.149441 20.99136 24.944639 26.87952 30.70752 34.660801 38.1408"
     y="0"
     id="tspan106"
     style="font-size:6.96000004px;font-variant:normal;font-weight:normal;writing-mode:lr-tb;fill:#000000;fill-opacity:1;fill-rule:nonzero;stroke:none;font-family:Helvetica;-inkscape-font-specification:Helvetica">ingaben des </tspan></text>

</g></g><g
           id="g108"><g
             clip-path="url(#clipPath112)"
             id="g110" /></g><g
           id="g116"><g
             clip-path="url(#clipPath120)"
             id="g118" /></g><g
           id="g124"><g
             clip-path="url(#clipPath128)"
             id="g126"><text
   transform="matrix(1,0,0,-1,495.43,543.43)"
   id="text132"><tspan
     x="0 4.6701598 8.5120802 12.354 16.195921 18.228239 21.708241 25.550159 27.944401"
     y="0"
     id="tspan134"
     style="font-size:6.96000004px;font-variant:normal;font-weight:normal;writing-mode:lr-tb;fill:#000000;fill-opacity:1;fill-rule:nonzero;stroke:none;font-family:Helvetica;-inkscape-font-specification:Helvetica">Benutzers</tspan></text>

</g></g><g
           id="g136"><g
             clip-path="url(#clipPath140)"
             id="g138" /></g></g></g><g
       id="g144"><g
         clip-path="url(#clipPath148)"
         id="g146"><g
           id="g152"><g
             clip-path="url(#clipPath156)"
             id="g154"><text
   transform="matrix(1,0,0,-1,482.83,526.75)"
   id="text160"><tspan
     x="0 3.8419199 5.7768002 7.6838398 12.354 16.30728 20.1492 24.10248 26.385361 30.22728 34.180561 38.02248 40.054798 43.896721 47.73864 50.132881"
     y="0"
     id="tspan162"
     style="font-size:6.96000004px;font-variant:normal;font-weight:normal;writing-mode:lr-tb;fill:#000000;fill-opacity:1;fill-rule:nonzero;stroke:none;font-family:Helvetica;-inkscape-font-specification:Helvetica">3: Änderung der </tspan></text>

</g></g><g
           id="g164"><g
             clip-path="url(#clipPath168)"
             id="g166" /></g><g
           id="g172"><g
             clip-path="url(#clipPath176)"
             id="g174"><text
   transform="matrix(1,0,0,-1,496.39,518.59)"
   id="text180"><tspan
     x="0 4.6701598 8.5120802 11.99208 13.5372 17.0172 20.886959"
     y="0"
     id="tspan182"
     style="font-size:6.96000004px;font-variant:normal;font-weight:normal;writing-mode:lr-tb;fill:#000000;fill-opacity:1;fill-rule:nonzero;stroke:none;font-family:Helvetica;-inkscape-font-specification:Helvetica">Ansicht</tspan></text>

</g></g><g
           id="g184"><g
             clip-path="url(#clipPath188)"
             id="g186" /></g></g></g><g
       id="g192"><g
         clip-path="url(#clipPath196)"
         id="g194"><g
           id="g200"><g
             clip-path="url(#clipPath204)"
             id="g202"><text
   transform="matrix(1,0,0,-1,518.95,501.31)"
   id="text208"><tspan
     x="0 3.8419199 5.7768002 7.6838398 12.354 16.30728 20.1492 24.10248 26.385361 30.22728 34.180561 38.02248 40.054798 43.896721 47.73864 50.132881"
     y="0"
     id="tspan210"
     style="font-size:6.96000004px;font-variant:normal;font-weight:normal;writing-mode:lr-tb;fill:#000000;fill-opacity:1;fill-rule:nonzero;stroke:none;font-family:Helvetica;-inkscape-font-specification:Helvetica">2: Änderung der </tspan></text>

</g></g><g
           id="g212"><g
             clip-path="url(#clipPath216)"
             id="g214"><text
   transform="matrix(1,0,0,-1,534.67,493.15)"
   id="text220"><tspan
     x="0 5.0251198 8.8948803 10.80192 14.7552"
     y="0"
     id="tspan222"
     style="font-size:6.96000004px;font-variant:normal;font-weight:normal;writing-mode:lr-tb;fill:#000000;fill-opacity:1;fill-rule:nonzero;stroke:none;font-family:Helvetica;-inkscape-font-specification:Helvetica">Daten</tspan></text>

</g></g><g
           id="g224"><g
             clip-path="url(#clipPath228)"
             id="g226" /></g></g></g><g
       id="g232"><g
         clip-path="url(#clipPath236)"
         id="g234"><g
           id="g240"><g
             clip-path="url(#clipPath244)"
             id="g242"><text
   transform="matrix(1,0,0,-1,448.49,497.23)"
   id="text248"><tspan
     x="0 3.8419199 5.7768002 7.6838398 12.70896 16.676161 20.51808 24.471359 26.40624 31.43136 35.273281 37.305599 41.147518 44.989441"
     y="0"
     id="tspan250"
     style="font-size:6.96000004px;font-variant:normal;font-weight:normal;writing-mode:lr-tb;fill:#000000;fill-opacity:1;fill-rule:nonzero;stroke:none;font-family:Helvetica;-inkscape-font-specification:Helvetica">4: Neue Daten </tspan></text>

</g></g><g
           id="g252"><g
             clip-path="url(#clipPath256)"
             id="g254"><text
   transform="matrix(1,0,0,-1,454.49,489.19)"
   id="text260"><tspan
     x="0 3.48 7.3219199 9.6048002 13.55808 17.4 21.353279 25.1952 29.148479"
     y="0"
     id="tspan262"
     style="font-size:6.96000004px;font-variant:normal;font-weight:normal;writing-mode:lr-tb;fill:#000000;fill-opacity:1;fill-rule:nonzero;stroke:none;font-family:Helvetica;-inkscape-font-specification:Helvetica">vorhanden</tspan></text>

</g></g><g
           id="g264"><g
             clip-path="url(#clipPath268)"
             id="g266" /></g></g></g><g
       id="g272"><g
         clip-path="url(#clipPath276)"
         id="g274"><g
           id="g280"><g
             clip-path="url(#clipPath284)"
             id="g282"><text
   transform="matrix(1,0,0,-1,395.45,479.95)"
   id="text288"><tspan
     x="0 3.8419199 5.7768002 7.6838398 12.354 16.195921 18.228239 22.07016 24.464399 28.30632 32.259602 34.54248 38.495762 42.337681 46.1796"
     y="0"
     id="tspan290"
     style="font-size:6.96000004px;font-variant:normal;font-weight:normal;writing-mode:lr-tb;fill:#000000;fill-opacity:1;fill-rule:nonzero;stroke:none;font-family:Helvetica;-inkscape-font-specification:Helvetica">5: Anforderung </tspan></text>

</g></g><g
           id="g292"><g
             clip-path="url(#clipPath296)"
             id="g294"><text
   transform="matrix(1,0,0,-1,399.29,471.79)"
   id="text300"><tspan
     x="0 3.8419199 7.6838398 11.63712 15.47904 17.761921 19.794241 24.819361 28.689119 30.70752 34.549438"
     y="0"
     id="tspan302"
     style="font-size:6.96000004px;font-variant:normal;font-weight:normal;writing-mode:lr-tb;fill:#000000;fill-opacity:1;fill-rule:nonzero;stroke:none;font-family:Helvetica;-inkscape-font-specification:Helvetica">neuer Daten</tspan></text>

</g></g><g
           id="g304"><g
             clip-path="url(#clipPath308)"
             id="g306" /></g></g></g><g
       id="g312"><g
         clip-path="url(#clipPath316)"
         id="g314"><g
           id="g320"><g
             clip-path="url(#clipPath324)"
             id="g322"><text
   transform="matrix(1,0,0,-1,425.81,520.15)"
   id="text328"><tspan
     x="0 5.3948398 7.1797199 11.64996"
     y="0"
     id="tspan330"
     style="font-size:8.03999996px;font-variant:normal;font-weight:normal;writing-mode:lr-tb;fill:#000000;fill-opacity:1;fill-rule:nonzero;stroke:none;font-family:Helvetica;-inkscape-font-specification:Helvetica">View</tspan></text>

</g></g><g
           id="g332"><g
             clip-path="url(#clipPath336)"
             id="g334" /></g></g></g><g
       id="g340"><g
         clip-path="url(#clipPath344)"
         id="g342"><g
           id="g348"><g
             clip-path="url(#clipPath352)"
             id="g350"><text
   transform="matrix(1,0,0,-1,559.87,521.83)"
   id="text356"><tspan
     x="0 5.75664 10.19472 14.6328 16.908119 19.54524 23.98332 25.7682 27.5772 32.015282"
     y="0"
     id="tspan358"
     style="font-size:8.03999996px;font-variant:normal;font-weight:normal;writing-mode:lr-tb;fill:#000000;fill-opacity:1;fill-rule:nonzero;stroke:none;font-family:Helvetica;-inkscape-font-specification:Helvetica">Controller</tspan></text>

</g></g><g
           id="g360"><g
             clip-path="url(#clipPath364)"
             id="g362" /></g></g></g><g
       id="g368"><g
         clip-path="url(#clipPath372)"
         id="g370"><g
           id="g376"><g
             clip-path="url(#clipPath380)"
             id="g378"><text
   transform="matrix(1,0,0,-1,497.47,468.31)"
   id="text384"><tspan
     x="0 6.6008401 11.03892 15.477 19.915079"
     y="0"
     id="tspan386"
     style="font-size:8.03999996px;font-variant:normal;font-weight:normal;writing-mode:lr-tb;fill:#000000;fill-opacity:1;fill-rule:nonzero;stroke:none;font-family:Helvetica;-inkscape-font-specification:Helvetica">Model</tspan></text>

</g></g><g
           id="g388"><g
             clip-path="url(#clipPath392)"
             id="g390" /></g></g></g><path
       d="m 411.13,584.8 c -0.99,0 -1.78,-0.79 -1.78,-1.77 0,-0.99 0.79,-1.78 1.78,-1.78 0.98,0 1.77,0.79 1.77,1.78 0,0.98 -0.79,1.77 -1.77,1.77 z"
       inkscape:connector-curvature="0"
       id="path396"
       style="fill:#ffffff;fill-opacity:1;fill-rule:evenodd;stroke:none" /><path
       d="m 411.13,584.8 c -0.99,0 -1.78,-0.79 -1.78,-1.77 0,-0.99 0.79,-1.78 1.78,-1.78 0.98,0 1.77,0.79 1.77,1.78 0,0.98 -0.79,1.77 -1.77,1.77 z"
       inkscape:connector-curvature="0"
       id="path398"
       style="fill:none;stroke:#000000;stroke-width:0.75;stroke-linecap:round;stroke-linejoin:round;stroke-miterlimit:10;stroke-opacity:1;stroke-dasharray:none" /><path
       d="m 411.2,581.25 0,-7.55"
       inkscape:connector-curvature="0"
       id="path400"
       style="fill:none;stroke:#000000;stroke-width:0.75;stroke-linecap:round;stroke-linejoin:round;stroke-miterlimit:10;stroke-opacity:1;stroke-dasharray:none" /><path
       d="m 411.2,573.7 -3.15,-6"
       inkscape:connector-curvature="0"
       id="path402"
       style="fill:none;stroke:#000000;stroke-width:0.75;stroke-linecap:round;stroke-linejoin:round;stroke-miterlimit:10;stroke-opacity:1;stroke-dasharray:none" /><path
       d="m 411.2,573.7 3,-6"
       inkscape:connector-curvature="0"
       id="path404"
       style="fill:none;stroke:#000000;stroke-width:0.75;stroke-linecap:round;stroke-linejoin:round;stroke-miterlimit:10;stroke-opacity:1;stroke-dasharray:none" /><path
       d="m 408.05,579.7 6.15,0"
       inkscape:connector-curvature="0"
       id="path406"
       style="fill:none;stroke:#000000;stroke-width:0.75;stroke-linecap:round;stroke-linejoin:round;stroke-miterlimit:10;stroke-opacity:1;stroke-dasharray:none" /></g></svg>