<?xml version="1.0" encoding="UTF-8" standalone="no"?>
<!-- Created with Inkscape (http://www.inkscape.org/) -->

<svg
   xmlns:dc="http://purl.org/dc/elements/1.1/"
   xmlns:cc="http://creativecommons.org/ns#"
   xmlns:rdf="http://www.w3.org/1999/02/22-rdf-syntax-ns#"
   xmlns:svg="http://www.w3.org/2000/svg"
   xmlns="http://www.w3.org/2000/svg"
   xmlns:sodipodi="http://sodipodi.sourceforge.net/DTD/sodipodi-0.dtd"
   xmlns:inkscape="http://www.inkscape.org/namespaces/inkscape"
   version="1.1"
   width="908.4375"
   height="535.9375"
   id="svg2"
   xml:space="preserve"
   inkscape:version="0.48.4 r9939"
   sodipodi:docname="Bild 5-20 Sequenzielle Phasen eines Compilers.svg"><sodipodi:namedview
     pagecolor="#ffffff"
     bordercolor="#666666"
     borderopacity="1"
     objecttolerance="10"
     gridtolerance="10"
     guidetolerance="10"
     inkscape:pageopacity="0"
     inkscape:pageshadow="2"
     inkscape:window-width="640"
     inkscape:window-height="480"
     id="namedview313"
     showgrid="false"
     inkscape:zoom="0.18730159"
     inkscape:cx="616.3125"
     inkscape:cy="307.75"
     inkscape:window-x="0"
     inkscape:window-y="0"
     inkscape:window-maximized="0"
     inkscape:current-layer="svg2" /><metadata
     id="metadata8"><rdf:RDF><cc:Work
         rdf:about=""><dc:format>image/svg+xml</dc:format><dc:type
           rdf:resource="http://purl.org/dc/dcmitype/StillImage" /></cc:Work></rdf:RDF></metadata><defs
     id="defs6"><clipPath
       id="clipPath16"><path
         d="m 372.05,614.59 213.03,0 0,18.36 -213.03,0 0,-18.36 z"
         inkscape:connector-curvature="0"
         id="path18" /></clipPath><clipPath
       id="clipPath24"><path
         d="m 372.05,614.59 213.02,0 0,18.36 -213.02,0 0,-18.36 z"
         inkscape:connector-curvature="0"
         id="path26" /></clipPath><clipPath
       id="clipPath36"><path
         d="m 372.05,614.59 213.02,0 0,18.36 -213.02,0 0,-18.36 z"
         inkscape:connector-curvature="0"
         id="path38" /></clipPath><clipPath
       id="clipPath46"><path
         d="m 247.47,589.39 247.85,0 0,18.36 -247.85,0 0,-18.36 z"
         inkscape:connector-curvature="0"
         id="path48" /></clipPath><clipPath
       id="clipPath54"><path
         d="m 247.46,589.39 247.85,0 0,18.36 -247.85,0 0,-18.36 z"
         inkscape:connector-curvature="0"
         id="path56" /></clipPath><clipPath
       id="clipPath66"><path
         d="m 247.46,589.39 247.85,0 0,18.36 -247.85,0 0,-18.36 z"
         inkscape:connector-curvature="0"
         id="path68" /></clipPath><clipPath
       id="clipPath76"><path
         d="m 247.47,639.67 247.85,0 0,18.36 -247.85,0 0,-18.36 z"
         inkscape:connector-curvature="0"
         id="path78" /></clipPath><clipPath
       id="clipPath84"><path
         d="m 247.46,639.67 247.85,0 0,18.36 -247.85,0 0,-18.36 z"
         inkscape:connector-curvature="0"
         id="path86" /></clipPath><clipPath
       id="clipPath96"><path
         d="m 247.46,639.67 247.85,0 0,18.36 -247.85,0 0,-18.36 z"
         inkscape:connector-curvature="0"
         id="path98" /></clipPath><clipPath
       id="clipPath104"><path
         d="m 372.05,563.59 213.03,0 0,18.36 -213.03,0 0,-18.36 z"
         inkscape:connector-curvature="0"
         id="path106" /></clipPath><clipPath
       id="clipPath112"><path
         d="m 372.05,563.59 213.02,0 0,18.36 -213.02,0 0,-18.36 z"
         inkscape:connector-curvature="0"
         id="path114" /></clipPath><clipPath
       id="clipPath124"><path
         d="m 372.05,563.59 213.02,0 0,18.36 -213.02,0 0,-18.36 z"
         inkscape:connector-curvature="0"
         id="path126" /></clipPath><clipPath
       id="clipPath136"><path
         d="m 372.05,563.59 213.02,0 0,18.36 -213.02,0 0,-18.36 z"
         inkscape:connector-curvature="0"
         id="path138" /></clipPath><clipPath
       id="clipPath148"><path
         d="m 247.47,538.39 247.85,0 0,18.36 -247.85,0 0,-18.36 z"
         inkscape:connector-curvature="0"
         id="path150" /></clipPath><clipPath
       id="clipPath156"><path
         d="m 247.46,538.39 247.85,0 0,18.36 -247.85,0 0,-18.36 z"
         inkscape:connector-curvature="0"
         id="path158" /></clipPath><clipPath
       id="clipPath168"><path
         d="m 247.46,538.39 247.85,0 0,18.36 -247.85,0 0,-18.36 z"
         inkscape:connector-curvature="0"
         id="path170" /></clipPath><clipPath
       id="clipPath176"><path
         d="m 372.77,512.59 213.03,0 0,18.36 -213.03,0 0,-18.36 z"
         inkscape:connector-curvature="0"
         id="path178" /></clipPath><clipPath
       id="clipPath184"><path
         d="m 372.77,512.59 213.02,0 0,18.36 -213.02,0 0,-18.36 z"
         inkscape:connector-curvature="0"
         id="path186" /></clipPath><clipPath
       id="clipPath196"><path
         d="m 372.77,512.59 213.02,0 0,18.36 -213.02,0 0,-18.36 z"
         inkscape:connector-curvature="0"
         id="path198" /></clipPath><clipPath
       id="clipPath208"><path
         d="m 247.47,487.39 247.85,0 0,18.36 -247.85,0 0,-18.36 z"
         inkscape:connector-curvature="0"
         id="path210" /></clipPath><clipPath
       id="clipPath216"><path
         d="m 247.46,487.39 247.85,0 0,18.36 -247.85,0 0,-18.36 z"
         inkscape:connector-curvature="0"
         id="path218" /></clipPath><clipPath
       id="clipPath228"><path
         d="m 247.46,487.39 247.85,0 0,18.36 -247.85,0 0,-18.36 z"
         inkscape:connector-curvature="0"
         id="path230" /></clipPath><clipPath
       id="clipPath236"><path
         d="m 372.05,461.59 213.03,0 0,18.36 -213.03,0 0,-18.36 z"
         inkscape:connector-curvature="0"
         id="path238" /></clipPath><clipPath
       id="clipPath244"><path
         d="m 372.05,461.59 213.02,0 0,18.36 -213.02,0 0,-18.36 z"
         inkscape:connector-curvature="0"
         id="path246" /></clipPath><clipPath
       id="clipPath256"><path
         d="m 372.05,461.59 213.02,0 0,18.36 -213.02,0 0,-18.36 z"
         inkscape:connector-curvature="0"
         id="path258" /></clipPath><clipPath
       id="clipPath268"><path
         d="m 247.95,436.48 247.49,0 0,18.27 -247.49,0 0,-18.27 z"
         inkscape:connector-curvature="0"
         id="path270" /></clipPath><clipPath
       id="clipPath276"><path
         d="m 247.94,436.49 247.49,0 0,18.264 -247.49,0 0,-18.264 z"
         inkscape:connector-curvature="0"
         id="path278" /></clipPath><clipPath
       id="clipPath288"><path
         d="m 247.94,436.49 247.49,0 0,18.264 -247.49,0 0,-18.264 z"
         inkscape:connector-curvature="0"
         id="path290" /></clipPath><clipPath
       id="clipPath296"><path
         d="m 372.05,410.56 213.03,0 0,18.36 -213.03,0 0,-18.36 z"
         inkscape:connector-curvature="0"
         id="path298" /></clipPath><clipPath
       id="clipPath304"><path
         d="m 372.05,410.57 213.02,0 0,18.36 -213.02,0 0,-18.36 z"
         inkscape:connector-curvature="0"
         id="path306" /></clipPath><clipPath
       id="clipPath316"><path
         d="m 372.05,410.57 213.02,0 0,18.36 -213.02,0 0,-18.36 z"
         inkscape:connector-curvature="0"
         id="path318" /></clipPath><clipPath
       id="clipPath328"><path
         d="m 247.47,386.08 247.85,0 0,18.36 -247.85,0 0,-18.36 z"
         inkscape:connector-curvature="0"
         id="path330" /></clipPath><clipPath
       id="clipPath336"><path
         d="m 247.46,386.09 247.85,0 0,18.36 -247.85,0 0,-18.36 z"
         inkscape:connector-curvature="0"
         id="path338" /></clipPath><clipPath
       id="clipPath348"><path
         d="m 247.46,386.09 247.85,0 0,18.36 -247.85,0 0,-18.36 z"
         inkscape:connector-curvature="0"
         id="path350" /></clipPath><clipPath
       id="clipPath360"><path
         d="m 247.46,386.09 247.85,0 0,18.36 -247.85,0 0,-18.36 z"
         inkscape:connector-curvature="0"
         id="path362" /></clipPath><clipPath
       id="clipPath368"><path
         d="m 373.61,360.4 212.91,0 0,18.24 -212.91,0 0,-18.24 z"
         inkscape:connector-curvature="0"
         id="path370" /></clipPath><clipPath
       id="clipPath376"><path
         d="m 373.61,360.41 212.9,0 0,18.24 -212.9,0 0,-18.24 z"
         inkscape:connector-curvature="0"
         id="path378" /></clipPath><clipPath
       id="clipPath388"><path
         d="m 373.61,360.41 212.9,0 0,18.24 -212.9,0 0,-18.24 z"
         inkscape:connector-curvature="0"
         id="path390" /></clipPath><clipPath
       id="clipPath400"><path
         d="m 373.61,360.41 212.9,0 0,18.24 -212.9,0 0,-18.24 z"
         inkscape:connector-curvature="0"
         id="path402" /></clipPath><clipPath
       id="clipPath412"><path
         d="m 247.47,335.08 247.85,0 0,18.36 -247.85,0 0,-18.36 z"
         inkscape:connector-curvature="0"
         id="path414" /></clipPath><clipPath
       id="clipPath420"><path
         d="m 247.46,335.09 247.85,0 0,18.36 -247.85,0 0,-18.36 z"
         inkscape:connector-curvature="0"
         id="path422" /></clipPath><clipPath
       id="clipPath432"><path
         d="m 247.46,335.09 247.85,0 0,18.36 -247.85,0 0,-18.36 z"
         inkscape:connector-curvature="0"
         id="path434" /></clipPath><clipPath
       id="clipPath444"><path
         d="m 247.46,335.09 247.85,0 0,18.36 -247.85,0 0,-18.36 z"
         inkscape:connector-curvature="0"
         id="path446" /></clipPath><clipPath
       id="clipPath456"><path
         d="m 247.46,335.09 247.85,0 0,18.36 -247.85,0 0,-18.36 z"
         inkscape:connector-curvature="0"
         id="path458" /></clipPath><clipPath
       id="clipPath466"><path
         d="m 11.281,262.12 233.91,0 0,18.24 -233.91,0 0,-18.24 z"
         inkscape:connector-curvature="0"
         id="path468" /></clipPath><clipPath
       id="clipPath474"><path
         d="m 11.28,262.13 233.9,0 0,18.24 -233.9,0 0,-18.24 z"
         inkscape:connector-curvature="0"
         id="path476" /></clipPath><clipPath
       id="clipPath486"><path
         d="m 11.28,262.13 233.9,0 0,18.24 -233.9,0 0,-18.24 z"
         inkscape:connector-curvature="0"
         id="path488" /></clipPath><clipPath
       id="clipPath496"><path
         d="m 244.59,261.4 263.93,0 0,18.24 -263.93,0 0,-18.24 z"
         inkscape:connector-curvature="0"
         id="path498" /></clipPath><clipPath
       id="clipPath504"><path
         d="m 244.58,261.41 263.93,0 0,18.24 -263.93,0 0,-18.24 z"
         inkscape:connector-curvature="0"
         id="path506" /></clipPath><clipPath
       id="clipPath516"><path
         d="m 244.58,261.41 263.93,0 0,18.24 -263.93,0 0,-18.24 z"
         inkscape:connector-curvature="0"
         id="path518" /></clipPath><clipPath
       id="clipPath528"><path
         d="m 244.58,261.41 263.93,0 0,18.24 -263.93,0 0,-18.24 z"
         inkscape:connector-curvature="0"
         id="path530" /></clipPath><clipPath
       id="clipPath536"><path
         d="m 244.58,261.41 263.93,0 0,18.24 -263.93,0 0,-18.24 z"
         inkscape:connector-curvature="0"
         id="path538" /></clipPath><clipPath
       id="clipPath546"><path
         d="m 504.8,262.12 233.3,0 0,18.24 -233.3,0 0,-18.24 z"
         inkscape:connector-curvature="0"
         id="path548" /></clipPath><clipPath
       id="clipPath554"><path
         d="m 504.79,262.13 233.3,0 0,18.24 -233.3,0 0,-18.24 z"
         inkscape:connector-curvature="0"
         id="path556" /></clipPath><clipPath
       id="clipPath566"><path
         d="m 504.79,262.13 233.3,0 0,18.24 -233.3,0 0,-18.24 z"
         inkscape:connector-curvature="0"
         id="path568" /></clipPath><clipPath
       id="clipPath574"><path
         d="m 504.79,262.13 233.3,0 0,18.24 -233.3,0 0,-18.24 z"
         inkscape:connector-curvature="0"
         id="path576" /></clipPath><clipPath
       id="clipPath600"><path
         d="m 371.57,664.87 248.55,0 0,18.255 -248.55,0 0,-18.255 z"
         inkscape:connector-curvature="0"
         id="path602" /></clipPath><clipPath
       id="clipPath608"><path
         d="m 371.57,664.87 248.54,0 0,18.264 -248.54,0 0,-18.264 z"
         inkscape:connector-curvature="0"
         id="path610" /></clipPath><clipPath
       id="clipPath620"><path
         d="m 371.57,664.87 248.54,0 0,18.264 -248.54,0 0,-18.264 z"
         inkscape:connector-curvature="0"
         id="path622" /></clipPath></defs><g
     transform="matrix(1.25,0,0,-1.25,-14.0625,858.1875)"
     id="g10"><g
       id="g12"><g
         clip-path="url(#clipPath16)"
         id="g14"><g
           id="g20"><g
             clip-path="url(#clipPath24)"
             id="g22"><text
   transform="matrix(1,0,0,-1,379.25,619.99)"
   id="text28"><tspan
     x="0 9.3599997 17.16156 24.96312 29.63376 37.435322 45.236881 48.349079 52.205399 60.006962 63.947521 71.749077 76.307404 80.247963 91.166397 98.967957 106.64316 109.75536 112.86756 116.72388 124.52544 131.35825"
     y="0"
     id="tspan30"
     style="font-size:14.03999996px;font-variant:normal;font-weight:normal;writing-mode:lr-tb;fill:#000000;fill-opacity:1;fill-rule:nonzero;stroke:none;font-family:Helvetica;-inkscape-font-specification:Helvetica">Bearbeiteter Quelltext</tspan></text>

</g></g><g
           id="g32"><g
             clip-path="url(#clipPath36)"
             id="g34" /></g></g></g><path
       d="m 247,585.45 248.6,0 0,26.35 -248.6,0 0,-26.35 z"
       inkscape:connector-curvature="0"
       id="path40"
       style="fill:none;stroke:#000000;stroke-width:0.75;stroke-linecap:round;stroke-linejoin:miter;stroke-miterlimit:10;stroke-opacity:1;stroke-dasharray:none" /><g
       id="g42"><g
         clip-path="url(#clipPath46)"
         id="g44"><g
           id="g50"><g
             clip-path="url(#clipPath54)"
             id="g52"><text
   transform="matrix(1,0,0,-1,254.66,593.11)"
   id="text58"><tspan
     x="0 8.8737602 17.74752 25.72752 29.270639 37.298519 46.172279 49.763279 53.354279 61.38216 69.410042 78.283798 87.157562 91.594437 102.27168 111.14544 120.0192 123.6102 131.41464 139.44252"
     y="0"
     id="tspan60"
     style="font-size:15.96000004px;font-variant:normal;font-weight:normal;writing-mode:lr-tb;fill:#000000;fill-opacity:1;fill-rule:nonzero;stroke:none;font-family:Helvetica;-inkscape-font-specification:Helvetica">Lexikalische Analyse</tspan></text>

</g></g><g
           id="g62"><g
             clip-path="url(#clipPath66)"
             id="g64" /></g></g></g><path
       d="m 247,635.7 248.6,0 0,26.35 -248.6,0 0,-26.35 z"
       inkscape:connector-curvature="0"
       id="path70"
       style="fill:none;stroke:#000000;stroke-width:0.75;stroke-linecap:round;stroke-linejoin:miter;stroke-miterlimit:10;stroke-opacity:1;stroke-dasharray:none" /><g
       id="g72"><g
         clip-path="url(#clipPath76)"
         id="g74"><g
           id="g80"><g
             clip-path="url(#clipPath84)"
             id="g82"><text
   transform="matrix(1,0,0,-1,254.66,643.39)"
   id="text88"><tspan
     x="0 10.64532 15.96 24.833759 33.70752 39.022202 47.895962 55.875961 64.781639 72.809517 80.837402 89.711159"
     y="0"
     id="tspan90"
     style="font-size:15.96000004px;font-variant:normal;font-weight:normal;writing-mode:lr-tb;fill:#000000;fill-opacity:1;fill-rule:nonzero;stroke:none;font-family:Helvetica;-inkscape-font-specification:Helvetica">Präprozessor</tspan></text>

</g></g><g
           id="g92"><g
             clip-path="url(#clipPath96)"
             id="g94" /></g></g></g><g
       id="g100"><g
         clip-path="url(#clipPath104)"
         id="g102"><g
           id="g108"><g
             clip-path="url(#clipPath112)"
             id="g110"><text
   transform="matrix(1,0,0,-1,379.25,568.99)"
   id="text116"><tspan
     x="0 13.30992 21.116159 25.665119 29.610359 37.416599 41.965561 45.910801 53.717041 61.523281 66.072243 70.017479 79.382156 87.1884 91.863724 99.543602 106.60572 114.41196 122.09184"
     y="0"
     id="tspan118"
     style="font-size:14.03999996px;font-variant:normal;font-weight:normal;writing-mode:lr-tb;fill:#000000;fill-opacity:1;fill-rule:nonzero;stroke:none;font-family:Helvetica;-inkscape-font-specification:Helvetica">Wörter der Sprache </tspan></text>

</g></g><g
           id="g120"><g
             clip-path="url(#clipPath124)"
             id="g122"><text
   transform="matrix(1,0,0,-1,379.25,552.79)"
   id="text128"><tspan
     x="0 4.6753201 13.1976 21.003839 28.06596 35.8722 43.552078 50.614201 54.559441 59.23476 67.041 78.680161"
     y="0"
     id="tspan130"
     style="font-size:14.03999996px;font-variant:normal;font-weight:normal;writing-mode:lr-tb;fill:#000000;fill-opacity:1;fill-rule:nonzero;stroke:none;font-family:Helvetica;-inkscape-font-specification:Helvetica">(Tokenstrom)</tspan></text>

</g></g><g
           id="g132"><g
             clip-path="url(#clipPath136)"
             id="g134" /></g></g></g><path
       d="m 247,534.45 248.6,0 0,26.35 -248.6,0 0,-26.35 z"
       inkscape:connector-curvature="0"
       id="path140"
       style="fill:#ffffff;fill-opacity:1;fill-rule:evenodd;stroke:none" /><path
       d="m 247,534.45 248.6,0 0,26.35 -248.6,0 0,-26.35 z"
       inkscape:connector-curvature="0"
       id="path142"
       style="fill:none;stroke:#000000;stroke-width:0.75;stroke-linecap:round;stroke-linejoin:miter;stroke-miterlimit:10;stroke-opacity:1;stroke-dasharray:none" /><g
       id="g144"><g
         clip-path="url(#clipPath148)"
         id="g146"><g
           id="g152"><g
             clip-path="url(#clipPath156)"
             id="g154"><text
   transform="matrix(1,0,0,-1,254.66,542.11)"
   id="text160"><tspan
     x="0 10.78896 18.593399 27.467159 31.904039 40.777802 48.82164 53.258518 56.849522 64.877403 72.905281 81.779037 90.652802 95.089684 105.76692 114.64068 123.51444 127.10544 134.90988 142.93776"
     y="0"
     id="tspan162"
     style="font-size:15.96000004px;font-variant:normal;font-weight:normal;writing-mode:lr-tb;fill:#000000;fill-opacity:1;fill-rule:nonzero;stroke:none;font-family:Helvetica;-inkscape-font-specification:Helvetica">Syntaktische Analyse</tspan></text>

</g></g><g
           id="g164"><g
             clip-path="url(#clipPath168)"
             id="g166" /></g></g></g><g
       id="g172"><g
         clip-path="url(#clipPath176)"
         id="g174"><g
           id="g180"><g
             clip-path="url(#clipPath184)"
             id="g182"><text
   transform="matrix(1,0,0,-1,379.97,517.99)"
   id="text188"><tspan
     x="0 9.3646803 16.20216 24.0084 27.95364 35.858158 42.695641 50.501881 58.308121 66.114357"
     y="0"
     id="tspan190"
     style="font-size:14.03999996px;font-variant:normal;font-weight:normal;writing-mode:lr-tb;fill:#000000;fill-opacity:1;fill-rule:nonzero;stroke:none;font-family:Helvetica;-inkscape-font-specification:Helvetica">Syntaxbaum</tspan></text>

</g></g><g
           id="g192"><g
             clip-path="url(#clipPath196)"
             id="g194" /></g></g></g><path
       d="m 247,483.45 248.6,0 0,26.35 -248.6,0 0,-26.35 z"
       inkscape:connector-curvature="0"
       id="path200"
       style="fill:#ffffff;fill-opacity:1;fill-rule:evenodd;stroke:none" /><path
       d="m 247,483.45 248.6,0 0,26.35 -248.6,0 0,-26.35 z"
       inkscape:connector-curvature="0"
       id="path202"
       style="fill:none;stroke:#000000;stroke-width:0.75;stroke-linecap:round;stroke-linejoin:miter;stroke-miterlimit:10;stroke-opacity:1;stroke-dasharray:none" /><g
       id="g204"><g
         clip-path="url(#clipPath208)"
         id="g206"><g
           id="g212"><g
             clip-path="url(#clipPath216)"
             id="g214"><text
   transform="matrix(1,0,0,-1,254.66,491.11)"
   id="text220"><tspan
     x="0 10.64532 19.519079 32.861641 41.735401 50.609161 55.04604 58.653 66.680878 74.708763 83.58252 92.456284 96.893158 107.5704 116.44416 125.31792 128.90892 136.71336 144.74124"
     y="0"
     id="tspan222"
     style="font-size:15.96000004px;font-variant:normal;font-weight:normal;writing-mode:lr-tb;fill:#000000;fill-opacity:1;fill-rule:nonzero;stroke:none;font-family:Helvetica;-inkscape-font-specification:Helvetica">Semantische Analyse</tspan></text>

</g></g><g
           id="g224"><g
             clip-path="url(#clipPath228)"
             id="g226" /></g></g></g><g
       id="g232"><g
         clip-path="url(#clipPath236)"
         id="g234"><g
           id="g240"><g
             clip-path="url(#clipPath244)"
             id="g242"><text
   transform="matrix(1,0,0,-1,379.25,466.99)"
   id="text248"><tspan
     x="0 9.3646803 17.170919 24.97716 32.783401 37.458721 45.264961 48.24144 55.303558 63.109798 70.916039 75.591362 79.424278 87.230522 91.905838 95.851082 105.21576 112.05324 119.85948 123.80472 131.61096 138.44844 146.25468 154.06091 161.86716"
     y="0"
     id="tspan250"
     style="font-size:14.03999996px;font-variant:normal;font-weight:normal;writing-mode:lr-tb;fill:#000000;fill-opacity:1;fill-rule:nonzero;stroke:none;font-family:Helvetica;-inkscape-font-specification:Helvetica">Angereicherter Syntaxbaum</tspan></text>

</g></g><g
           id="g252"><g
             clip-path="url(#clipPath256)"
             id="g254" /></g></g></g><path
       d="m 247.5,432.55 248.25,0 0,26.25 -248.25,0 0,-26.25 z"
       inkscape:connector-curvature="0"
       id="path260"
       style="fill:#ffffff;fill-opacity:1;fill-rule:evenodd;stroke:none" /><path
       d="m 247.5,432.55 248.25,0 0,26.25 -248.25,0 0,-26.25 z"
       inkscape:connector-curvature="0"
       id="path262"
       style="fill:none;stroke:#000000;stroke-width:0.75;stroke-linecap:round;stroke-linejoin:miter;stroke-miterlimit:10;stroke-opacity:1;stroke-dasharray:none" /><g
       id="g264"><g
         clip-path="url(#clipPath268)"
         id="g266"><g
           id="g272"><g
             clip-path="url(#clipPath276)"
             id="g274"><text
   transform="matrix(1,0,0,-1,255.14,439.99)"
   id="text280"><tspan
     x="0 12.35304 21.226801 30.100559 39.102001 44.416679 47.959801 56.833561 62.148239 71.022003 79.89576 88.769524 93.206398 101.25024 110.124 119.10948 123.54636 133.37772 144.77316 148.36417 156.39204 164.41992 173.29369 182.16743 191.0412 199.08504 207.9588 216.83257"
     y="0"
     id="tspan282"
     style="font-size:15.96000004px;font-variant:normal;font-weight:normal;writing-mode:lr-tb;fill:#000000;fill-opacity:1;fill-rule:nonzero;stroke:none;font-family:Helvetica;-inkscape-font-specification:Helvetica">Generierung von Zwischencode</tspan></text>

</g></g><g
           id="g284"><g
             clip-path="url(#clipPath288)"
             id="g286" /></g></g></g><g
       id="g292"><g
         clip-path="url(#clipPath296)"
         id="g294"><g
           id="g300"><g
             clip-path="url(#clipPath304)"
             id="g302"><text
   transform="matrix(1,0,0,-1,379.25,415.97)"
   id="text308"><tspan
     x="0 8.6205597 18.574921 21.691799 28.75392 35.81604 43.62228 51.42852 59.09436 66.156479 73.962723 81.768959"
     y="0"
     id="tspan310"
     style="font-size:14.03999996px;font-variant:normal;font-weight:normal;writing-mode:lr-tb;fill:#000000;fill-opacity:1;fill-rule:nonzero;stroke:none;font-family:Helvetica;-inkscape-font-specification:Helvetica">Zwischencode</tspan></text>

</g></g><g
           id="g312"><g
             clip-path="url(#clipPath316)"
             id="g314" /></g></g></g><path
       d="m 247,382.2 248.6,0 0,26.35 -248.6,0 0,-26.35 z"
       inkscape:connector-curvature="0"
       id="path320"
       style="fill:#ffffff;fill-opacity:1;fill-rule:evenodd;stroke:none" /><path
       d="m 247,382.2 248.6,0 0,26.35 -248.6,0 0,-26.35 z"
       inkscape:connector-curvature="0"
       id="path322"
       style="fill:none;stroke:#000000;stroke-width:0.75;stroke-linecap:round;stroke-linejoin:miter;stroke-miterlimit:10;stroke-opacity:1;stroke-dasharray:none" /><g
       id="g324"><g
         clip-path="url(#clipPath328)"
         id="g326"><g
           id="g332"><g
             clip-path="url(#clipPath336)"
             id="g334"><text
   transform="matrix(1,0,0,-1,254.66,389.81)"
   id="text340"><tspan
     x="0 12.35304 21.226801 25.663679 29.254681 42.549358 46.156319 55.030079 60.344761"
     y="0"
     id="tspan342"
     style="font-size:15.96000004px;font-variant:normal;font-weight:normal;writing-mode:lr-tb;fill:#000000;fill-opacity:1;fill-rule:nonzero;stroke:none;font-family:Helvetica;-inkscape-font-specification:Helvetica">Optimieru</tspan></text>

</g></g><g
           id="g344"><g
             clip-path="url(#clipPath348)"
             id="g346"><text
   transform="matrix(1,0,0,-1,323.93,389.81)"
   id="text352"><tspan
     x="0 8.8800001"
     y="0"
     id="tspan354"
     style="font-size:15.96000004px;font-variant:normal;font-weight:normal;writing-mode:lr-tb;fill:#000000;fill-opacity:1;fill-rule:nonzero;stroke:none;font-family:Helvetica;-inkscape-font-specification:Helvetica">ng</tspan></text>

</g></g><g
           id="g356"><g
             clip-path="url(#clipPath360)"
             id="g358" /></g></g></g><g
       id="g364"><g
         clip-path="url(#clipPath368)"
         id="g366"><g
           id="g372"><g
             clip-path="url(#clipPath376)"
             id="g374"><text
   transform="matrix(1,0,0,-1,380.69,365.57)"
   id="text380"><tspan
     x="0"
     y="0"
     id="tspan382"
     style="font-size:14.03999996px;font-variant:normal;font-weight:normal;writing-mode:lr-tb;fill:#000000;fill-opacity:1;fill-rule:nonzero;stroke:none;font-family:Helvetica;-inkscape-font-specification:Helvetica">O</tspan></text>

</g></g><g
           id="g384"><g
             clip-path="url(#clipPath388)"
             id="g386"><text
   transform="matrix(1,0,0,-1,391.61,365.57)"
   id="text392"><tspan
     x="0 7.8062401 11.75148 14.86836 26.507521 29.624399 37.430641 41.993641 45.938881 53.745121 58.294079 62.239319 70.761597 80.715958 83.83284 90.894958 97.957077 105.63696 113.4432 121.24944 128.29752 136.10376 143.91"
     y="0"
     id="tspan394"
     style="font-size:14.03999996px;font-variant:normal;font-weight:normal;writing-mode:lr-tb;fill:#000000;fill-opacity:1;fill-rule:nonzero;stroke:none;font-family:Helvetica;-inkscape-font-specification:Helvetica">ptimierter Zwischencode</tspan></text>

</g></g><g
           id="g396"><g
             clip-path="url(#clipPath400)"
             id="g398" /></g></g></g><path
       d="m 247,331.2 248.6,0 0,26.35 -248.6,0 0,-26.35 z"
       inkscape:connector-curvature="0"
       id="path404"
       style="fill:#ffffff;fill-opacity:1;fill-rule:evenodd;stroke:none" /><path
       d="m 247,331.2 248.6,0 0,26.35 -248.6,0 0,-26.35 z"
       inkscape:connector-curvature="0"
       id="path406"
       style="fill:none;stroke:#000000;stroke-width:0.75;stroke-linecap:round;stroke-linejoin:miter;stroke-miterlimit:10;stroke-opacity:1;stroke-dasharray:none" /><g
       id="g408"><g
         clip-path="url(#clipPath412)"
         id="g410"><g
           id="g416"><g
             clip-path="url(#clipPath420)"
             id="g418"><text
   transform="matrix(1,0,0,-1,254.66,338.81)"
   id="text424"><tspan
     x="0 11.52 20.39064 29.26128"
     y="0"
     id="tspan426"
     style="font-size:15.96000004px;font-variant:normal;font-weight:normal;writing-mode:lr-tb;fill:#000000;fill-opacity:1;fill-rule:nonzero;stroke:none;font-family:Helvetica;-inkscape-font-specification:Helvetica">Code</tspan></text>

</g></g><g
           id="g428"><g
             clip-path="url(#clipPath432)"
             id="g430"><text
   transform="matrix(1,0,0,-1,292.85,338.81)"
   id="text436"><tspan
     x="0"
     y="0"
     id="tspan438"
     style="font-size:15.96000004px;font-variant:normal;font-weight:normal;writing-mode:lr-tb;fill:#000000;fill-opacity:1;fill-rule:nonzero;stroke:none;font-family:Helvetica;-inkscape-font-specification:Helvetica">-</tspan></text>

</g></g><g
           id="g440"><g
             clip-path="url(#clipPath444)"
             id="g442"><text
   transform="matrix(1,0,0,-1,298.25,338.81)"
   id="text448"><tspan
     x="0 12.35304 21.226801 30.100559 39.102001 44.416679 47.959801 56.833561 62.148239 71.13372 80.007477"
     y="0"
     id="tspan450"
     style="font-size:15.96000004px;font-variant:normal;font-weight:normal;writing-mode:lr-tb;fill:#000000;fill-opacity:1;fill-rule:nonzero;stroke:none;font-family:Helvetica;-inkscape-font-specification:Helvetica">Generierung</tspan></text>

</g></g><g
           id="g452"><g
             clip-path="url(#clipPath456)"
             id="g454" /></g></g></g><path
       d="m 11.25,258.55 234,0 0,25.5 -234,0 0,-25.5 z"
       inkscape:connector-curvature="0"
       id="path460"
       style="fill:#ffffff;fill-opacity:1;fill-rule:evenodd;stroke:none" /><g
       id="g462"><g
         clip-path="url(#clipPath466)"
         id="g464"><g
           id="g470"><g
             clip-path="url(#clipPath474)"
             id="g472"><text
   transform="matrix(1,0,0,-1,18.48,265.61)"
   id="text478"><tspan
     x="0 13.29468 22.16844 30.228239 38.256119 47.129879 50.720879 59.594639 68.468399 77.342163 85.386002 94.259758 103.13352 112.00728 116.44416 120.88104 129.75481 135.06947 139.50636 143.94324 152.817 157.25388 166.12764 169.7346 174.17148 182.19936 191.07312"
     y="0"
     id="tspan480"
     style="font-size:15.96000004px;font-variant:normal;font-weight:normal;writing-mode:lr-tb;fill:#000000;fill-opacity:1;fill-rule:nonzero;stroke:none;font-family:Helvetica;-inkscape-font-specification:Helvetica">Maschinencode für Intel x86</tspan></text>

</g></g><g
           id="g482"><g
             clip-path="url(#clipPath486)"
             id="g484" /></g></g></g><path
       d="m 244.5,257.8 264,0 0,25.5 -264,0 0,-25.5 z"
       inkscape:connector-curvature="0"
       id="path490"
       style="fill:#ffffff;fill-opacity:1;fill-rule:evenodd;stroke:none" /><g
       id="g492"><g
         clip-path="url(#clipPath496)"
         id="g494"><g
           id="g500"><g
             clip-path="url(#clipPath504)"
             id="g502"><text
   transform="matrix(1,0,0,-1,251.66,264.89)"
   id="text508"><tspan
     x="0 13.29468 22.16844 30.228239 38.256119 47.129879 50.720879 59.594639 68.468399 77.342163 85.386002 94.259758 103.13352 112.00728 116.44416 120.88104 129.75481 135.06947 139.50636 152.80104 161.6748 166.11168 174.98544 180.41183 189.2856 192.8766 201.75037 206.18724 215.061 223.93475 231.97861 240.00648 247.92264"
     y="0"
     id="tspan510"
     style="font-size:15.96000004px;font-variant:normal;font-weight:normal;writing-mode:lr-tb;fill:#000000;fill-opacity:1;fill-rule:nonzero;stroke:none;font-family:Helvetica;-inkscape-font-specification:Helvetica">Maschinencode für Motorola 68xxx </tspan></text>

</g></g><g
           id="g512"><g
             clip-path="url(#clipPath516)"
             id="g514"><text
   transform="matrix(1,0,0,-1,251.66,246.53)"
   id="text520"><tspan
     x="0 8.8737602 17.74752 26.621281 35.495041 43.538879 51.566761"
     y="0"
     id="tspan522"
     style="font-size:15.96000004px;font-variant:normal;font-weight:normal;writing-mode:lr-tb;fill:#000000;fill-opacity:1;fill-rule:nonzero;stroke:none;font-family:Helvetica;-inkscape-font-specification:Helvetica">6868xxx</tspan></text>

</g></g><g
           id="g524"><g
             clip-path="url(#clipPath528)"
             id="g526" /></g><g
           id="g532"><g
             clip-path="url(#clipPath536)"
             id="g534" /></g></g></g><path
       d="m 504.75,258.55 233.25,0 0,25.5 -233.25,0 0,-25.5 z"
       inkscape:connector-curvature="0"
       id="path540"
       style="fill:#ffffff;fill-opacity:1;fill-rule:evenodd;stroke:none" /><g
       id="g542"><g
         clip-path="url(#clipPath546)"
         id="g544"><g
           id="g550"><g
             clip-path="url(#clipPath554)"
             id="g552"><text
   transform="matrix(1,0,0,-1,511.99,265.61)"
   id="text558"><tspan
     x="0 13.29468 22.16844 30.228239 38.256119 47.129879 50.720879 59.594639 68.468399 77.342163 85.386002 94.259758 103.13352 112.00728 116.44416 120.88104 129.75481 135.06947 139.50636 150.15169 159.16908 170.56451 179.55 184.86469 195.50999"
     y="0"
     id="tspan560"
     style="font-size:15.96000004px;font-variant:normal;font-weight:normal;writing-mode:lr-tb;fill:#000000;fill-opacity:1;fill-rule:nonzero;stroke:none;font-family:Helvetica;-inkscape-font-specification:Helvetica">Maschinencode für PowerPC</tspan></text>

</g></g><g
           id="g562"><g
             clip-path="url(#clipPath566)"
             id="g564" /></g><g
           id="g570"><g
             clip-path="url(#clipPath574)"
             id="g572" /></g></g></g><path
       d="m 372.5,635.8 0,-19.45 c 0,-0.28 -0.22,-0.5 -0.5,-0.5 -0.28,0 -0.5,0.22 -0.5,0.5 l 0,19.45 c 0,0.28 0.22,0.5 0.5,0.5 0.28,0 0.5,-0.22 0.5,-0.5 z m 2.5,-18.45 -3,-6 -3,6 6,0 z"
       inkscape:connector-curvature="0"
       id="path578"
       style="fill:#000000;fill-opacity:1;fill-rule:nonzero;stroke:none" /><path
       d="m 372.5,686.05 0,-19.45 c 0,-0.28 -0.22,-0.5 -0.5,-0.5 -0.28,0 -0.5,0.22 -0.5,0.5 l 0,19.45 c 0,0.28 0.22,0.5 0.5,0.5 0.28,0 0.5,-0.22 0.5,-0.5 z m 2.5,-18.45 -3,-6 -3,6 6,0 z"
       inkscape:connector-curvature="0"
       id="path580"
       style="fill:#000000;fill-opacity:1;fill-rule:nonzero;stroke:none" /><path
       d="m 372.5,586.3 0,-19.45 c 0,-0.28 -0.22,-0.5 -0.5,-0.5 -0.28,0 -0.5,0.22 -0.5,0.5 l 0,19.45 c 0,0.28 0.22,0.5 0.5,0.5 0.28,0 0.5,-0.22 0.5,-0.5 z m 2.5,-18.45 -3,-6 -3,6 6,0 z"
       inkscape:connector-curvature="0"
       id="path582"
       style="fill:#000000;fill-opacity:1;fill-rule:nonzero;stroke:none" /><path
       d="m 372.5,534.55 0,-19.45 c 0,-0.28 -0.22,-0.5 -0.5,-0.5 -0.28,0 -0.5,0.22 -0.5,0.5 l 0,19.45 c 0,0.28 0.22,0.5 0.5,0.5 0.28,0 0.5,-0.22 0.5,-0.5 z m 2.5,-18.45 -3,-6 -3,6 6,0 z"
       inkscape:connector-curvature="0"
       id="path584"
       style="fill:#000000;fill-opacity:1;fill-rule:nonzero;stroke:none" /><path
       d="m 372.5,483.55 0,-19.45 c 0,-0.28 -0.22,-0.5 -0.5,-0.5 -0.28,0 -0.5,0.22 -0.5,0.5 l 0,19.45 c 0,0.28 0.22,0.5 0.5,0.5 0.28,0 0.5,-0.22 0.5,-0.5 z m 2.5,-18.45 -3,-6 -3,6 6,0 z"
       inkscape:connector-curvature="0"
       id="path586"
       style="fill:#000000;fill-opacity:1;fill-rule:nonzero;stroke:none" /><path
       d="m 372.5,432.55 0,-19.45 c 0,-0.28 -0.22,-0.5 -0.5,-0.5 -0.28,0 -0.5,0.22 -0.5,0.5 l 0,19.45 c 0,0.28 0.22,0.5 0.5,0.5 0.28,0 0.5,-0.22 0.5,-0.5 z m 2.5,-18.45 -3,-6 -3,6 6,0 z"
       inkscape:connector-curvature="0"
       id="path588"
       style="fill:#000000;fill-opacity:1;fill-rule:nonzero;stroke:none" /><path
       d="m 372.5,331.3 0,-46.45 c 0,-0.28 -0.22,-0.5 -0.5,-0.5 -0.28,0 -0.5,0.22 -0.5,0.5 l 0,46.45 c 0,0.28 0.22,0.5 0.5,0.5 0.28,0 0.5,-0.22 0.5,-0.5 z m 2.5,-45.45 -3,-6 -3,6 6,0 z"
       inkscape:connector-curvature="0"
       id="path590"
       style="fill:#000000;fill-opacity:1;fill-rule:nonzero;stroke:none" /><path
       d="m 371.37,330.29 192.39,-46.53 c 0.27,-0.06 0.43,-0.33 0.37,-0.6 -0.07,-0.27 -0.34,-0.44 -0.61,-0.37 l -192.39,46.52 c -0.27,0.07 -0.43,0.34 -0.37,0.61 0.07,0.27 0.34,0.43 0.61,0.37 z m 192,-43.86 5.13,-4.33 -6.54,-1.51 1.41,5.84 z"
       inkscape:connector-curvature="0"
       id="path592"
       style="fill:#000000;fill-opacity:1;fill-rule:nonzero;stroke:none" /><path
       d="M 371.37,329.31 181.23,283.53 c -0.27,-0.06 -0.54,0.11 -0.61,0.37 -0.06,0.27 0.11,0.54 0.37,0.61 l 190.14,45.78 c 0.27,0.06 0.54,-0.1 0.61,-0.37 0.06,-0.27 -0.1,-0.54 -0.37,-0.61 z m -188.58,-47.97 -6.54,1.51 5.13,4.32 1.41,-5.83 z"
       inkscape:connector-curvature="0"
       id="path594"
       style="fill:#000000;fill-opacity:1;fill-rule:nonzero;stroke:none" /><g
       id="g596"><g
         clip-path="url(#clipPath600)"
         id="g598"><g
           id="g604"><g
             clip-path="url(#clipPath608)"
             id="g606"><text
   transform="matrix(1,0,0,-1,378.77,670.06)"
   id="text612"><tspan
     x="0 10.92312 18.729361 26.535601 29.652479 32.76936 36.700562 44.506802 51.34428"
     y="0"
     id="tspan614"
     style="font-size:14.03999996px;font-variant:normal;font-weight:normal;writing-mode:lr-tb;fill:#000000;fill-opacity:1;fill-rule:nonzero;stroke:none;font-family:Helvetica;-inkscape-font-specification:Helvetica">Quelltext</tspan></text>

</g></g><g
           id="g616"><g
             clip-path="url(#clipPath620)"
             id="g618" /></g></g></g><path
       d="m 372.5,383.05 0,-20.2 c 0,-0.28 -0.22,-0.5 -0.5,-0.5 -0.28,0 -0.5,0.22 -0.5,0.5 l 0,20.2 c 0,0.28 0.22,0.5 0.5,0.5 0.28,0 0.5,-0.22 0.5,-0.5 z m 2.5,-19.2 -3,-6 -3,6 6,0 z"
       inkscape:connector-curvature="0"
       id="path624"
       style="fill:#000000;fill-opacity:1;fill-rule:nonzero;stroke:none" /></g></svg>