<?xml version="1.0" encoding="UTF-8" standalone="no"?>
<!-- Created with Inkscape (http://www.inkscape.org/) -->

<svg
   xmlns:dc="http://purl.org/dc/elements/1.1/"
   xmlns:cc="http://creativecommons.org/ns#"
   xmlns:rdf="http://www.w3.org/1999/02/22-rdf-syntax-ns#"
   xmlns:svg="http://www.w3.org/2000/svg"
   xmlns="http://www.w3.org/2000/svg"
   xmlns:sodipodi="http://sodipodi.sourceforge.net/DTD/sodipodi-0.dtd"
   xmlns:inkscape="http://www.inkscape.org/namespaces/inkscape"
   version="1.1"
   width="209.75"
   height="160.0625"
   id="svg2"
   xml:space="preserve"
   inkscape:version="0.48.4 r9939"
   sodipodi:docname="Bild 5-42 Klassendiagramm Kompositum-Muster im MVC.svg"><sodipodi:namedview
     pagecolor="#ffffff"
     bordercolor="#666666"
     borderopacity="1"
     objecttolerance="10"
     gridtolerance="10"
     guidetolerance="10"
     inkscape:pageopacity="0"
     inkscape:pageshadow="2"
     inkscape:window-width="640"
     inkscape:window-height="480"
     id="namedview347"
     showgrid="false"
     inkscape:zoom="0.18730159"
     inkscape:cx="99"
     inkscape:cy="72.6875"
     inkscape:window-x="0"
     inkscape:window-y="0"
     inkscape:window-maximized="0"
     inkscape:current-layer="svg2" /><metadata
     id="metadata8"><rdf:RDF><cc:Work
         rdf:about=""><dc:format>image/svg+xml</dc:format><dc:type
           rdf:resource="http://purl.org/dc/dcmitype/StillImage" /></cc:Work></rdf:RDF></metadata><defs
     id="defs6"><clipPath
       id="clipPath58"><path
         d="m 433.97,556.63 86.91,0 0,16.08 -86.91,0 0,-16.08 z"
         inkscape:connector-curvature="0"
         id="path60" /></clipPath><clipPath
       id="clipPath66"><path
         d="m 433.97,556.63 86.904,0 0,16.08 -86.904,0 0,-16.08 z"
         inkscape:connector-curvature="0"
         id="path68" /></clipPath><clipPath
       id="clipPath78"><path
         d="m 433.97,556.63 86.904,0 0,16.08 -86.904,0 0,-16.08 z"
         inkscape:connector-curvature="0"
         id="path80" /></clipPath><clipPath
       id="clipPath86"><path
         d="m 433.97,556.63 86.904,0 0,16.08 -86.904,0 0,-16.08 z"
         inkscape:connector-curvature="0"
         id="path88" /></clipPath><clipPath
       id="clipPath98"><path
         d="m 433.97,556.63 86.904,0 0,16.08 -86.904,0 0,-16.08 z"
         inkscape:connector-curvature="0"
         id="path100" /></clipPath><clipPath
       id="clipPath110"><path
         d="m 433.97,556.63 86.904,0 0,16.08 -86.904,0 0,-16.08 z"
         inkscape:connector-curvature="0"
         id="path112" /></clipPath><clipPath
       id="clipPath122"><path
         d="m 433.97,556.63 86.904,0 0,16.08 -86.904,0 0,-16.08 z"
         inkscape:connector-curvature="0"
         id="path124" /></clipPath><clipPath
       id="clipPath130"><path
         d="m 507.08,481.99 85.8,0 0,8.88 -85.8,0 0,-8.88 z"
         inkscape:connector-curvature="0"
         id="path132" /></clipPath><clipPath
       id="clipPath138"><path
         d="m 507.07,481.99 85.8,0 0,8.88 -85.8,0 0,-8.88 z"
         inkscape:connector-curvature="0"
         id="path140" /></clipPath><clipPath
       id="clipPath150"><path
         d="m 507.07,481.99 85.8,0 0,8.88 -85.8,0 0,-8.88 z"
         inkscape:connector-curvature="0"
         id="path152" /></clipPath><clipPath
       id="clipPath158"><path
         d="m 427.25,483.19 28.68,0 0,7.2 -28.68,0 0,-7.2 z"
         inkscape:connector-curvature="0"
         id="path160" /></clipPath><clipPath
       id="clipPath166"><path
         d="m 427.25,483.19 28.68,0 0,7.2 -28.68,0 0,-7.2 z"
         inkscape:connector-curvature="0"
         id="path168" /></clipPath><clipPath
       id="clipPath178"><path
         d="m 427.25,483.19 28.68,0 0,7.2 -28.68,0 0,-7.2 z"
         inkscape:connector-curvature="0"
         id="path180" /></clipPath><clipPath
       id="clipPath186"><path
         d="m 468.68,482.47 24.84,0 0,8.16 -24.84,0 0,-8.16 z"
         inkscape:connector-curvature="0"
         id="path188" /></clipPath><clipPath
       id="clipPath194"><path
         d="m 468.67,482.47 24.84,0 0,8.16 -24.84,0 0,-8.16 z"
         inkscape:connector-curvature="0"
         id="path196" /></clipPath><clipPath
       id="clipPath206"><path
         d="m 468.67,482.47 24.84,0 0,8.16 -24.84,0 0,-8.16 z"
         inkscape:connector-curvature="0"
         id="path208" /></clipPath><clipPath
       id="clipPath214"><path
         d="m 429.41,526.03 94.23,0 0,24.96 -94.23,0 0,-24.96 z"
         inkscape:connector-curvature="0"
         id="path216" /></clipPath><clipPath
       id="clipPath222"><path
         d="m 429.41,526.03 94.224,0 0,24.96 -94.224,0 0,-24.96 z"
         inkscape:connector-curvature="0"
         id="path224" /></clipPath><clipPath
       id="clipPath234"><path
         d="m 429.41,526.03 94.224,0 0,24.96 -94.224,0 0,-24.96 z"
         inkscape:connector-curvature="0"
         id="path236" /></clipPath><clipPath
       id="clipPath246"><path
         d="m 429.41,526.03 94.224,0 0,24.96 -94.224,0 0,-24.96 z"
         inkscape:connector-curvature="0"
         id="path248" /></clipPath><clipPath
       id="clipPath254"><path
         d="m 429.41,526.03 94.224,0 0,24.96 -94.224,0 0,-24.96 z"
         inkscape:connector-curvature="0"
         id="path256" /></clipPath><clipPath
       id="clipPath266"><path
         d="m 429.41,526.03 94.224,0 0,24.96 -94.224,0 0,-24.96 z"
         inkscape:connector-curvature="0"
         id="path268" /></clipPath><clipPath
       id="clipPath278"><path
         d="m 429.41,526.03 94.224,0 0,24.96 -94.224,0 0,-24.96 z"
         inkscape:connector-curvature="0"
         id="path280" /></clipPath><clipPath
       id="clipPath290"><path
         d="m 429.41,526.03 94.224,0 0,24.96 -94.224,0 0,-24.96 z"
         inkscape:connector-curvature="0"
         id="path292" /></clipPath><clipPath
       id="clipPath302"><path
         d="m 429.41,526.03 94.224,0 0,24.96 -94.224,0 0,-24.96 z"
         inkscape:connector-curvature="0"
         id="path304" /></clipPath><clipPath
       id="clipPath310"><path
         d="m 429.41,526.03 94.224,0 0,24.96 -94.224,0 0,-24.96 z"
         inkscape:connector-curvature="0"
         id="path312" /></clipPath><clipPath
       id="clipPath322"><path
         d="m 429.41,526.03 94.224,0 0,24.96 -94.224,0 0,-24.96 z"
         inkscape:connector-curvature="0"
         id="path324" /></clipPath><clipPath
       id="clipPath330"><path
         d="m 429.41,526.03 94.224,0 0,24.96 -94.224,0 0,-24.96 z"
         inkscape:connector-curvature="0"
         id="path332" /></clipPath><clipPath
       id="clipPath342"><path
         d="m 429.41,526.03 94.224,0 0,24.96 -94.224,0 0,-24.96 z"
         inkscape:connector-curvature="0"
         id="path344" /></clipPath><clipPath
       id="clipPath350"><path
         d="m 429.41,526.03 94.224,0 0,24.96 -94.224,0 0,-24.96 z"
         inkscape:connector-curvature="0"
         id="path352" /></clipPath><clipPath
       id="clipPath362"><path
         d="m 429.41,526.03 94.224,0 0,24.96 -94.224,0 0,-24.96 z"
         inkscape:connector-curvature="0"
         id="path364" /></clipPath><clipPath
       id="clipPath374"><path
         d="m 429.41,526.03 94.224,0 0,24.96 -94.224,0 0,-24.96 z"
         inkscape:connector-curvature="0"
         id="path376" /></clipPath><clipPath
       id="clipPath382"><path
         d="m 500.84,446.47 92.64,0 0,24.96 -92.64,0 0,-24.96 z"
         inkscape:connector-curvature="0"
         id="path384" /></clipPath><clipPath
       id="clipPath390"><path
         d="m 500.83,446.47 92.64,0 0,24.96 -92.64,0 0,-24.96 z"
         inkscape:connector-curvature="0"
         id="path392" /></clipPath><clipPath
       id="clipPath402"><path
         d="m 500.83,446.47 92.64,0 0,24.96 -92.64,0 0,-24.96 z"
         inkscape:connector-curvature="0"
         id="path404" /></clipPath><clipPath
       id="clipPath414"><path
         d="m 500.83,446.47 92.64,0 0,24.96 -92.64,0 0,-24.96 z"
         inkscape:connector-curvature="0"
         id="path416" /></clipPath><clipPath
       id="clipPath422"><path
         d="m 500.83,446.47 92.64,0 0,24.96 -92.64,0 0,-24.96 z"
         inkscape:connector-curvature="0"
         id="path424" /></clipPath><clipPath
       id="clipPath434"><path
         d="m 500.83,446.47 92.64,0 0,24.96 -92.64,0 0,-24.96 z"
         inkscape:connector-curvature="0"
         id="path436" /></clipPath><clipPath
       id="clipPath446"><path
         d="m 500.83,446.47 92.64,0 0,24.96 -92.64,0 0,-24.96 z"
         inkscape:connector-curvature="0"
         id="path448" /></clipPath><clipPath
       id="clipPath454"><path
         d="m 500.83,446.47 92.64,0 0,24.96 -92.64,0 0,-24.96 z"
         inkscape:connector-curvature="0"
         id="path456" /></clipPath><clipPath
       id="clipPath466"><path
         d="m 500.83,446.47 92.64,0 0,24.96 -92.64,0 0,-24.96 z"
         inkscape:connector-curvature="0"
         id="path468" /></clipPath><clipPath
       id="clipPath478"><path
         d="m 500.83,446.47 92.64,0 0,24.96 -92.64,0 0,-24.96 z"
         inkscape:connector-curvature="0"
         id="path480" /></clipPath><clipPath
       id="clipPath486"><path
         d="m 500.83,446.47 92.64,0 0,24.96 -92.64,0 0,-24.96 z"
         inkscape:connector-curvature="0"
         id="path488" /></clipPath><clipPath
       id="clipPath498"><path
         d="m 500.83,446.47 92.64,0 0,24.96 -92.64,0 0,-24.96 z"
         inkscape:connector-curvature="0"
         id="path500" /></clipPath><clipPath
       id="clipPath506"><path
         d="m 500.83,446.47 92.64,0 0,24.96 -92.64,0 0,-24.96 z"
         inkscape:connector-curvature="0"
         id="path508" /></clipPath><clipPath
       id="clipPath518"><path
         d="m 500.83,446.47 92.64,0 0,24.96 -92.64,0 0,-24.96 z"
         inkscape:connector-curvature="0"
         id="path520" /></clipPath><clipPath
       id="clipPath526"><path
         d="m 500.83,446.47 92.64,0 0,24.96 -92.64,0 0,-24.96 z"
         inkscape:connector-curvature="0"
         id="path528" /></clipPath><clipPath
       id="clipPath538"><path
         d="m 500.83,446.47 92.64,0 0,24.96 -92.64,0 0,-24.96 z"
         inkscape:connector-curvature="0"
         id="path540" /></clipPath><clipPath
       id="clipPath550"><path
         d="m 500.83,446.47 92.64,0 0,24.96 -92.64,0 0,-24.96 z"
         inkscape:connector-curvature="0"
         id="path552" /></clipPath><clipPath
       id="clipPath558"><path
         d="m 500.83,446.47 92.64,0 0,24.96 -92.64,0 0,-24.96 z"
         inkscape:connector-curvature="0"
         id="path560" /></clipPath><clipPath
       id="clipPath570"><path
         d="m 500.83,446.47 92.64,0 0,24.96 -92.64,0 0,-24.96 z"
         inkscape:connector-curvature="0"
         id="path572" /></clipPath><clipPath
       id="clipPath578"><path
         d="m 500.84,470.83 108.36,0 0,9.36 -108.36,0 0,-9.36 z"
         inkscape:connector-curvature="0"
         id="path580" /></clipPath><clipPath
       id="clipPath586"><path
         d="m 500.83,470.83 108.36,0 0,9.36 -108.36,0 0,-9.36 z"
         inkscape:connector-curvature="0"
         id="path588" /></clipPath><clipPath
       id="clipPath598"><path
         d="m 500.83,470.83 108.36,0 0,9.36 -108.36,0 0,-9.36 z"
         inkscape:connector-curvature="0"
         id="path600" /></clipPath><clipPath
       id="clipPath606"><path
         d="m 426.77,473.23 31.68,0 0,7.44 -31.68,0 0,-7.44 z"
         inkscape:connector-curvature="0"
         id="path608" /></clipPath><clipPath
       id="clipPath614"><path
         d="m 426.77,473.23 31.68,0 0,7.44 -31.68,0 0,-7.44 z"
         inkscape:connector-curvature="0"
         id="path616" /></clipPath><clipPath
       id="clipPath626"><path
         d="m 426.77,473.23 31.68,0 0,7.44 -31.68,0 0,-7.44 z"
         inkscape:connector-curvature="0"
         id="path628" /></clipPath><clipPath
       id="clipPath634"><path
         d="m 466.13,473.35 30.75,0 0,7.2 -30.75,0 0,-7.2 z"
         inkscape:connector-curvature="0"
         id="path636" /></clipPath><clipPath
       id="clipPath642"><path
         d="m 466.13,473.35 30.744,0 0,7.2 -30.744,0 0,-7.2 z"
         inkscape:connector-curvature="0"
         id="path644" /></clipPath><clipPath
       id="clipPath654"><path
         d="m 466.13,473.35 30.744,0 0,7.2 -30.744,0 0,-7.2 z"
         inkscape:connector-curvature="0"
         id="path656" /></clipPath><clipPath
       id="clipPath662"><path
         d="m 524.84,549.79 14.76,0 0,9.36 -14.76,0 0,-9.36 z"
         inkscape:connector-curvature="0"
         id="path664" /></clipPath><clipPath
       id="clipPath670"><path
         d="m 524.83,549.79 14.76,0 0,9.36 -14.76,0 0,-9.36 z"
         inkscape:connector-curvature="0"
         id="path672" /></clipPath><clipPath
       id="clipPath682"><path
         d="m 524.83,549.79 14.76,0 0,9.36 -14.76,0 0,-9.36 z"
         inkscape:connector-curvature="0"
         id="path684" /></clipPath><clipPath
       id="clipPath690"><path
         d="m 524.83,549.79 14.76,0 0,9.36 -14.76,0 0,-9.36 z"
         inkscape:connector-curvature="0"
         id="path692" /></clipPath></defs><g
     transform="matrix(1.25,0,0,-1.25,-531.375,717.375)"
     id="g10"><path
       d="m 433.85,525.3 87.45,0 0,48.35 -87.45,0 0,-48.35 z"
       inkscape:connector-curvature="0"
       id="path12"
       style="fill:none;stroke:#000000;stroke-width:0.5;stroke-linecap:round;stroke-linejoin:miter;stroke-miterlimit:10;stroke-opacity:1;stroke-dasharray:none" /><path
       d="m 506.8,446.1 85.85,0 0,45.65 -85.85,0 0,-45.65 z"
       inkscape:connector-curvature="0"
       id="path14"
       style="fill:none;stroke:#000000;stroke-width:0.5;stroke-linecap:round;stroke-linejoin:miter;stroke-miterlimit:10;stroke-opacity:1;stroke-dasharray:none" /><path
       d="m 425.35,472.45 32.85,0 0,19.3 -32.85,0 0,-19.3 z"
       inkscape:connector-curvature="0"
       id="path16"
       style="fill:none;stroke:#000000;stroke-width:0.5;stroke-linecap:round;stroke-linejoin:miter;stroke-miterlimit:10;stroke-opacity:1;stroke-dasharray:none" /><path
       d="m 464.8,472.45 32.85,0 0,19.3 -32.85,0 0,-19.3 z"
       inkscape:connector-curvature="0"
       id="path18"
       style="fill:none;stroke:#000000;stroke-width:0.5;stroke-linecap:round;stroke-linejoin:miter;stroke-miterlimit:10;stroke-opacity:1;stroke-dasharray:none" /><path
       d="m 549.25,497.5 -3.57,5.3 -3.58,-5.3 3.58,-5.3 3.57,5.3 z"
       inkscape:connector-curvature="0"
       id="path20"
       style="fill:#ffffff;fill-opacity:1;fill-rule:evenodd;stroke:none" /><path
       d="m 549.25,497.5 -3.57,5.3 -3.58,-5.3 3.58,-5.3 3.57,5.3 z"
       inkscape:connector-curvature="0"
       id="path22"
       style="fill:none;stroke:#000000;stroke-width:0.5;stroke-linecap:round;stroke-linejoin:round;stroke-miterlimit:10;stroke-opacity:1;stroke-dasharray:none" /><path
       d="m 521.65,551.55 0,-0.1 24.05,0 0,-49.25"
       inkscape:connector-curvature="0"
       id="path24"
       style="fill:none;stroke:#000000;stroke-width:0.5;stroke-linecap:round;stroke-linejoin:round;stroke-miterlimit:10;stroke-opacity:1;stroke-dasharray:none" /><path
       d="m 441.78,525.3 -3.58,-7.15 7.15,0 -3.57,7.15 z"
       inkscape:connector-curvature="0"
       id="path26"
       style="fill:#ffffff;fill-opacity:1;fill-rule:evenodd;stroke:none" /><path
       d="m 441.78,525.3 -3.58,-7.15 7.15,0 -3.57,7.15 z"
       inkscape:connector-curvature="0"
       id="path28"
       style="fill:none;stroke:#000000;stroke-width:0.5;stroke-linecap:round;stroke-linejoin:round;stroke-miterlimit:10;stroke-opacity:1;stroke-dasharray:none" /><path
       d="m 481.72,525.3 -3.57,-7.15 7.15,0 -3.58,7.15 z"
       inkscape:connector-curvature="0"
       id="path30"
       style="fill:#ffffff;fill-opacity:1;fill-rule:evenodd;stroke:none" /><path
       d="m 481.72,525.3 -3.57,-7.15 7.15,0 -3.58,7.15 z"
       inkscape:connector-curvature="0"
       id="path32"
       style="fill:none;stroke:#000000;stroke-width:0.5;stroke-linecap:round;stroke-linejoin:round;stroke-miterlimit:10;stroke-opacity:1;stroke-dasharray:none" /><path
       d="m 518.77,525.3 -3.57,-7.15 7.15,0 -3.58,7.15 z"
       inkscape:connector-curvature="0"
       id="path34"
       style="fill:#ffffff;fill-opacity:1;fill-rule:evenodd;stroke:none" /><path
       d="m 518.77,525.3 -3.57,-7.15 7.15,0 -3.58,7.15 z"
       inkscape:connector-curvature="0"
       id="path36"
       style="fill:none;stroke:#000000;stroke-width:0.5;stroke-linecap:round;stroke-linejoin:round;stroke-miterlimit:10;stroke-opacity:1;stroke-dasharray:none" /><path
       d="m 441.7,518.15 0,-26.35"
       inkscape:connector-curvature="0"
       id="path38"
       style="fill:none;stroke:#000000;stroke-width:0.5;stroke-linecap:round;stroke-linejoin:round;stroke-miterlimit:10;stroke-opacity:1;stroke-dasharray:none" /><path
       d="m 481.55,518.15 0,-26.35"
       inkscape:connector-curvature="0"
       id="path40"
       style="fill:none;stroke:#000000;stroke-width:0.5;stroke-linecap:round;stroke-linejoin:round;stroke-miterlimit:10;stroke-opacity:1;stroke-dasharray:none" /><path
       d="m 518.7,518.15 0,-26.35"
       inkscape:connector-curvature="0"
       id="path42"
       style="fill:none;stroke:#000000;stroke-width:0.5;stroke-linecap:round;stroke-linejoin:round;stroke-miterlimit:10;stroke-opacity:1;stroke-dasharray:none" /><path
       d="m 433.85,552.15 87.45,0"
       inkscape:connector-curvature="0"
       id="path44"
       style="fill:none;stroke:#000000;stroke-width:0.5;stroke-linecap:round;stroke-linejoin:round;stroke-miterlimit:10;stroke-opacity:1;stroke-dasharray:none" /><path
       d="m 506.8,481.8 85.85,0"
       inkscape:connector-curvature="0"
       id="path46"
       style="fill:none;stroke:#000000;stroke-width:0.5;stroke-linecap:round;stroke-linejoin:round;stroke-miterlimit:10;stroke-opacity:1;stroke-dasharray:none" /><path
       d="m 506.8,472.45 85.85,0"
       inkscape:connector-curvature="0"
       id="path48"
       style="fill:none;stroke:#000000;stroke-width:0.5;stroke-linecap:round;stroke-linejoin:round;stroke-miterlimit:10;stroke-opacity:1;stroke-dasharray:none" /><path
       d="m 464.7,481.8 32.85,0"
       inkscape:connector-curvature="0"
       id="path50"
       style="fill:none;stroke:#000000;stroke-width:0.5;stroke-linecap:round;stroke-linejoin:round;stroke-miterlimit:10;stroke-opacity:1;stroke-dasharray:none" /><path
       d="m 425.35,481.8 32.85,0"
       inkscape:connector-curvature="0"
       id="path52"
       style="fill:none;stroke:#000000;stroke-width:0.5;stroke-linecap:round;stroke-linejoin:round;stroke-miterlimit:10;stroke-opacity:1;stroke-dasharray:none" /><g
       id="g54"><g
         clip-path="url(#clipPath58)"
         id="g56"><g
           id="g62"><g
             clip-path="url(#clipPath66)"
             id="g64"><text
   transform="matrix(1,0,0,-1,453.89,567.31)"
   id="text70"><tspan
     x="0 3.96 5.6279998 8.9940004 13.662 17.993999 21.708 26.988001 30.702 34.416 38.015999 41.369999 44.970001"
     y="0"
     id="tspan72"
     style="font-size:6px;font-variant:normal;font-weight:bold;writing-mode:lr-tb;fill:#000000;fill-opacity:1;fill-rule:nonzero;stroke:none;font-family:Helvetica;-inkscape-font-specification:Helvetica-Bold">ViewComponent</tspan></text>

</g></g><g
           id="g74"><g
             clip-path="url(#clipPath78)"
             id="g76" /></g><g
           id="g82"><g
             clip-path="url(#clipPath86)"
             id="g84"><text
   transform="matrix(1,0,0,-1,464.81,559.99)"
   id="text90"><tspan
     x="0"
     y="0"
     id="tspan92"
     style="font-size:6px;font-variant:normal;font-weight:normal;writing-mode:lr-tb;fill:#000000;fill-opacity:1;fill-rule:nonzero;stroke:none;font-family:Helvetica;-inkscape-font-specification:Helvetica">{</tspan></text>

</g></g><g
           id="g94"><g
             clip-path="url(#clipPath98)"
             id="g96"><text
   transform="matrix(1,0,0,-1,466.87,559.99)"
   id="text102"><tspan
     x="0 3.3540001 6.7080002 9.7080002 11.376 13.422 16.775999 19.775999"
     y="0"
     id="tspan104"
     style="font-size:6px;font-variant:normal;font-weight:normal;writing-mode:lr-tb;fill:#000000;fill-opacity:1;fill-rule:nonzero;stroke:none;font-family:Helvetica;-inkscape-font-specification:Helvetica">abstract</tspan></text>

</g></g><g
           id="g106"><g
             clip-path="url(#clipPath110)"
             id="g108"><text
   transform="matrix(1,0,0,-1,488.23,559.99)"
   id="text114"><tspan
     x="0"
     y="0"
     id="tspan116"
     style="font-size:6px;font-variant:normal;font-weight:normal;writing-mode:lr-tb;fill:#000000;fill-opacity:1;fill-rule:nonzero;stroke:none;font-family:Helvetica;-inkscape-font-specification:Helvetica">}</tspan></text>

</g></g><g
           id="g118"><g
             clip-path="url(#clipPath122)"
             id="g120" /></g></g></g><g
       id="g126"><g
         clip-path="url(#clipPath130)"
         id="g128"><g
           id="g134"><g
             clip-path="url(#clipPath138)"
             id="g136"><text
   transform="matrix(1,0,0,-1,535.15,485.11)"
   id="text142"><tspan
     x="0 3.96 5.6279998 8.9940004 13.662 17.634001 20.988001 24.587999 27.941999"
     y="0"
     id="tspan144"
     style="font-size:6px;font-variant:normal;font-weight:bold;writing-mode:lr-tb;fill:#000000;fill-opacity:1;fill-rule:nonzero;stroke:none;font-family:Helvetica;-inkscape-font-specification:Helvetica-Bold">ViewPanel</tspan></text>

</g></g><g
           id="g146"><g
             clip-path="url(#clipPath150)"
             id="g148" /></g></g></g><g
       id="g154"><g
         clip-path="url(#clipPath158)"
         id="g156"><g
           id="g162"><g
             clip-path="url(#clipPath166)"
             id="g164"><text
   transform="matrix(1,0,0,-1,430.25,484.99)"
   id="text170"><tspan
     x="0 4.3319998 7.9200001 9.9540005 11.988 15.702 19.302"
     y="0"
     id="tspan172"
     style="font-size:6px;font-variant:normal;font-weight:bold;writing-mode:lr-tb;fill:#000000;fill-opacity:1;fill-rule:nonzero;stroke:none;font-family:Helvetica;-inkscape-font-specification:Helvetica-Bold">Button1</tspan></text>

</g></g><g
           id="g174"><g
             clip-path="url(#clipPath178)"
             id="g176" /></g></g></g><g
       id="g182"><g
         clip-path="url(#clipPath186)"
         id="g184"><g
           id="g190"><g
             clip-path="url(#clipPath194)"
             id="g192"><text
   transform="matrix(1,0,0,-1,469.75,484.87)"
   id="text198"><tspan
     x="0 4.3319998 7.9200001 9.9540005 11.988 15.702 19.302"
     y="0"
     id="tspan200"
     style="font-size:6px;font-variant:normal;font-weight:bold;writing-mode:lr-tb;fill:#000000;fill-opacity:1;fill-rule:nonzero;stroke:none;font-family:Helvetica;-inkscape-font-specification:Helvetica-Bold">Button2</tspan></text>

</g></g><g
           id="g202"><g
             clip-path="url(#clipPath206)"
             id="g204" /></g></g></g><g
       id="g210"><g
         clip-path="url(#clipPath214)"
         id="g212"><g
           id="g218"><g
             clip-path="url(#clipPath222)"
             id="g220"><text
   transform="matrix(1,0,0,-1,436.61,546.55)"
   id="text226"><tspan
     x="0 2.9999599"
     y="0"
     id="tspan228"
     style="font-size:5.03999996px;font-variant:normal;font-weight:normal;writing-mode:lr-tb;fill:#000000;fill-opacity:1;fill-rule:nonzero;stroke:none;font-family:Helvetica;-inkscape-font-specification:Helvetica">+ </tspan></text>

</g></g><g
           id="g230"><g
             clip-path="url(#clipPath234)"
             id="g232"><text
   transform="matrix(1,0,0,-1,441.05,546.55)"
   id="text238"><tspan
     x="0 2.76192 5.52384 8.2857599 9.9640799 12.726 14.1624 15.24096 18.00288 20.764799 22.443119"
     y="0"
     id="tspan240"
     style="font-size:5.03999996px;font-style:oblique;font-variant:normal;font-weight:normal;writing-mode:lr-tb;fill:#000000;fill-opacity:1;fill-rule:nonzero;stroke:none;font-family:Helvetica;-inkscape-font-specification:Helvetica-Oblique">operation()</tspan></text>

</g></g><g
           id="g242"><g
             clip-path="url(#clipPath246)"
             id="g244" /></g><g
           id="g250"><g
             clip-path="url(#clipPath254)"
             id="g252"><text
   transform="matrix(1,0,0,-1,436.61,540.67)"
   id="text258"><tspan
     x="0 2.9937601 4.31424"
     y="0"
     id="tspan260"
     style="font-size:5.03999996px;font-variant:normal;font-weight:normal;writing-mode:lr-tb;fill:#000000;fill-opacity:1;fill-rule:nonzero;stroke:none;font-family:Helvetica;-inkscape-font-specification:Helvetica">+ f</tspan></text>

</g></g><g
           id="g262"><g
             clip-path="url(#clipPath266)"
             id="g264"><text
   transform="matrix(1,0,0,-1,442.49,540.67)"
   id="text270"><tspan
     x="0 2.76004"
     y="0"
     id="tspan272"
     style="font-size:5.03999996px;font-variant:normal;font-weight:normal;writing-mode:lr-tb;fill:#000000;fill-opacity:1;fill-rule:nonzero;stroke:none;font-family:Helvetica;-inkscape-font-specification:Helvetica">ue</tspan></text>

</g></g><g
           id="g274"><g
             clip-path="url(#clipPath278)"
             id="g276"><text
   transform="matrix(1,0,0,-1,448.01,540.67)"
   id="text282"><tspan
     x="0 2.76192 5.52384 9.1224003 10.31688 13.0788 15.5988 18.239759"
     y="0"
     id="tspan284"
     style="font-size:5.03999996px;font-variant:normal;font-weight:normal;writing-mode:lr-tb;fill:#000000;fill-opacity:1;fill-rule:nonzero;stroke:none;font-family:Helvetica;-inkscape-font-specification:Helvetica">geHinzu </tspan></text>

</g></g><g
           id="g286"><g
             clip-path="url(#clipPath290)"
             id="g288"><text
   transform="matrix(1,0,0,-1,467.71,540.67)"
   id="text294"><tspan
     x="0 1.6783201 4.4402399 5.8766398 7.1971202 10.5588 11.75328 14.5152 17.9928 21.59136 24.353279 28.667521 31.42944 34.19136 36.953281 39.715199 42.477119 43.913521"
     y="0"
     id="tspan296"
     style="font-size:5.03999996px;font-variant:normal;font-weight:normal;writing-mode:lr-tb;fill:#000000;fill-opacity:1;fill-rule:nonzero;stroke:none;font-family:Helvetica;-inkscape-font-specification:Helvetica">(o: ViewComponent)</tspan></text>

</g></g><g
           id="g298"><g
             clip-path="url(#clipPath302)"
             id="g300" /></g><g
           id="g306"><g
             clip-path="url(#clipPath310)"
             id="g308"><text
   transform="matrix(1,0,0,-1,436.61,534.91)"
   id="text314"><tspan
     x="0 2.9937601 4.43016 7.19208 9.9540005 11.27448 12.83184 15.4728 17.151119 19.91304 22.674959 24.111361 25.78968 28.5516 29.988001 31.308479 34.670158 35.864639 38.62656 42.10416 45.702721 48.464642 52.778881 55.540798 58.302719 61.06464 63.826561 66.588478 68.024879"
     y="0"
     id="tspan316"
     style="font-size:5.03999996px;font-variant:normal;font-weight:normal;writing-mode:lr-tb;fill:#000000;fill-opacity:1;fill-rule:nonzero;stroke:none;font-family:Helvetica;-inkscape-font-specification:Helvetica">+ entferne (o: ViewComponent)</tspan></text>

</g></g><g
           id="g318"><g
             clip-path="url(#clipPath322)"
             id="g320" /></g><g
           id="g326"><g
             clip-path="url(#clipPath330)"
             id="g328"><text
   transform="matrix(1,0,0,-1,436.61,529.03)"
   id="text334"><tspan
     x="0"
     y="0"
     id="tspan336"
     style="font-size:5.03999996px;font-variant:normal;font-weight:normal;writing-mode:lr-tb;fill:#000000;fill-opacity:1;fill-rule:nonzero;stroke:none;font-family:Helvetica;-inkscape-font-specification:Helvetica">+</tspan></text>

</g></g><g
           id="g338"><g
             clip-path="url(#clipPath342)"
             id="g340" /></g><g
           id="g346"><g
             clip-path="url(#clipPath350)"
             id="g348"><text
   transform="matrix(1,0,0,-1,441.05,529.03)"
   id="text354"><tspan
     x="0 2.64096 3.8354399 6.5973601 9.9590397 11.15352 13.91544 16.5564"
     y="0"
     id="tspan356"
     style="font-size:5.03999996px;font-variant:normal;font-weight:normal;writing-mode:lr-tb;fill:#000000;fill-opacity:1;fill-rule:nonzero;stroke:none;font-family:Helvetica;-inkscape-font-specification:Helvetica">gibKind </tspan></text>

</g></g><g
           id="g358"><g
             clip-path="url(#clipPath362)"
             id="g360"><text
   transform="matrix(1,0,0,-1,459.05,529.03)"
   id="text366"><tspan
     x="0 1.6783201 2.8728001 5.5137601 6.95016"
     y="0"
     id="tspan368"
     style="font-size:5.03999996px;font-variant:normal;font-weight:normal;writing-mode:lr-tb;fill:#000000;fill-opacity:1;fill-rule:nonzero;stroke:none;font-family:Helvetica;-inkscape-font-specification:Helvetica">(int)</tspan></text>

</g></g><g
           id="g370"><g
             clip-path="url(#clipPath374)"
             id="g372" /></g></g></g><g
       id="g378"><g
         clip-path="url(#clipPath382)"
         id="g380"><g
           id="g386"><g
             clip-path="url(#clipPath390)"
             id="g388"><text
   transform="matrix(1,0,0,-1,508.03,466.87)"
   id="text394"><tspan
     x="0 2.9937601 4.43016"
     y="0"
     id="tspan396"
     style="font-size:5.03999996px;font-variant:normal;font-weight:normal;writing-mode:lr-tb;fill:#000000;fill-opacity:1;fill-rule:nonzero;stroke:none;font-family:Helvetica;-inkscape-font-specification:Helvetica">+ o</tspan></text>

</g></g><g
           id="g398"><g
             clip-path="url(#clipPath402)"
             id="g400"><text
   transform="matrix(1,0,0,-1,515.23,466.87)"
   id="text406"><tspan
     x="0 2.76192 5.52384 7.2021599 9.9640799 11.28456 12.47904 15.24096 18.00288 19.6812"
     y="0"
     id="tspan408"
     style="font-size:5.03999996px;font-variant:normal;font-weight:normal;writing-mode:lr-tb;fill:#000000;fill-opacity:1;fill-rule:nonzero;stroke:none;font-family:Helvetica;-inkscape-font-specification:Helvetica">peration()</tspan></text>

</g></g><g
           id="g410"><g
             clip-path="url(#clipPath414)"
             id="g412" /></g><g
           id="g418"><g
             clip-path="url(#clipPath422)"
             id="g420"><text
   transform="matrix(1,0,0,-1,508.03,461.11)"
   id="text426"><tspan
     x="0 2.9937601 4.31424 5.8716002 8.6335201"
     y="0"
     id="tspan428"
     style="font-size:5.03999996px;font-variant:normal;font-weight:normal;writing-mode:lr-tb;fill:#000000;fill-opacity:1;fill-rule:nonzero;stroke:none;font-family:Helvetica;-inkscape-font-specification:Helvetica">+ fue</tspan></text>

</g></g><g
           id="g430"><g
             clip-path="url(#clipPath434)"
             id="g432"><text
   transform="matrix(1,0,0,-1,519.43,461.11)"
   id="text438"><tspan
     x="0 2.76192 5.52384 9.1224003 10.31688 13.0788 15.5988"
     y="0"
     id="tspan440"
     style="font-size:5.03999996px;font-variant:normal;font-weight:normal;writing-mode:lr-tb;fill:#000000;fill-opacity:1;fill-rule:nonzero;stroke:none;font-family:Helvetica;-inkscape-font-specification:Helvetica">geHinzu</tspan></text>

</g></g><g
           id="g442"><g
             clip-path="url(#clipPath446)"
             id="g444" /></g><g
           id="g450"><g
             clip-path="url(#clipPath454)"
             id="g452"><text
   transform="matrix(1,0,0,-1,539.11,461.11)"
   id="text458"><tspan
     x="0 1.6783201 4.4402399 5.8766398 7.1971202 10.5588 11.75328 14.5152 17.9928 21.59136 24.353279 28.667521 31.42944"
     y="0"
     id="tspan460"
     style="font-size:5.03999996px;font-variant:normal;font-weight:normal;writing-mode:lr-tb;fill:#000000;fill-opacity:1;fill-rule:nonzero;stroke:none;font-family:Helvetica;-inkscape-font-specification:Helvetica">(o: ViewCompo</tspan></text>

</g></g><g
           id="g462"><g
             clip-path="url(#clipPath466)"
             id="g464"><text
   transform="matrix(1,0,0,-1,573.31,461.11)"
   id="text470"><tspan
     x="0 2.76192 5.52384 8.2857599 9.7221603"
     y="0"
     id="tspan472"
     style="font-size:5.03999996px;font-variant:normal;font-weight:normal;writing-mode:lr-tb;fill:#000000;fill-opacity:1;fill-rule:nonzero;stroke:none;font-family:Helvetica;-inkscape-font-specification:Helvetica">nent)</tspan></text>

</g></g><g
           id="g474"><g
             clip-path="url(#clipPath478)"
             id="g476" /></g><g
           id="g482"><g
             clip-path="url(#clipPath486)"
             id="g484"><text
   transform="matrix(1,0,0,-1,508.03,455.35)"
   id="text490"><tspan
     x="0 2.9937601 4.43016 7.19208 9.9540005 11.27448 12.83184 15.4728 17.151119 19.91304"
     y="0"
     id="tspan492"
     style="font-size:5.03999996px;font-variant:normal;font-weight:normal;writing-mode:lr-tb;fill:#000000;fill-opacity:1;fill-rule:nonzero;stroke:none;font-family:Helvetica;-inkscape-font-specification:Helvetica">+ entferne</tspan></text>

</g></g><g
           id="g494"><g
             clip-path="url(#clipPath498)"
             id="g496" /></g><g
           id="g502"><g
             clip-path="url(#clipPath506)"
             id="g504"><text
   transform="matrix(1,0,0,-1,532.15,455.35)"
   id="text510"><tspan
     x="0 1.6783201 4.4402399 5.8766398 7.1971202 10.5588 11.75328 14.5152 17.9928 21.59136 24.353279 28.667521 31.42944 34.19136 36.953281 39.715199 42.477119 43.913521"
     y="0"
     id="tspan512"
     style="font-size:5.03999996px;font-variant:normal;font-weight:normal;writing-mode:lr-tb;fill:#000000;fill-opacity:1;fill-rule:nonzero;stroke:none;font-family:Helvetica;-inkscape-font-specification:Helvetica">(o: ViewComponent)</tspan></text>

</g></g><g
           id="g514"><g
             clip-path="url(#clipPath518)"
             id="g516" /></g><g
           id="g522"><g
             clip-path="url(#clipPath526)"
             id="g524"><text
   transform="matrix(1,0,0,-1,508.03,449.47)"
   id="text530"><tspan
     x="0 2.9937601 4.43016"
     y="0"
     id="tspan532"
     style="font-size:5.03999996px;font-variant:normal;font-weight:normal;writing-mode:lr-tb;fill:#000000;fill-opacity:1;fill-rule:nonzero;stroke:none;font-family:Helvetica;-inkscape-font-specification:Helvetica">+ g</tspan></text>

</g></g><g
           id="g534"><g
             clip-path="url(#clipPath538)"
             id="g536"><text
   transform="matrix(1,0,0,-1,515.11,449.47)"
   id="text542"><tspan
     x="0 1.1944799 3.9563999 7.3180799 8.5125599 11.27448"
     y="0"
     id="tspan544"
     style="font-size:5.03999996px;font-variant:normal;font-weight:normal;writing-mode:lr-tb;fill:#000000;fill-opacity:1;fill-rule:nonzero;stroke:none;font-family:Helvetica;-inkscape-font-specification:Helvetica">ibKind</tspan></text>

</g></g><g
           id="g546"><g
             clip-path="url(#clipPath550)"
             id="g548" /></g><g
           id="g554"><g
             clip-path="url(#clipPath558)"
             id="g556"><text
   transform="matrix(1,0,0,-1,530.47,449.47)"
   id="text562"><tspan
     x="0 1.6783201 2.8728001 5.5137601 6.95016"
     y="0"
     id="tspan564"
     style="font-size:5.03999996px;font-variant:normal;font-weight:normal;writing-mode:lr-tb;fill:#000000;fill-opacity:1;fill-rule:nonzero;stroke:none;font-family:Helvetica;-inkscape-font-specification:Helvetica">(int)</tspan></text>

</g></g><g
           id="g566"><g
             clip-path="url(#clipPath570)"
             id="g568" /></g></g></g><g
       id="g574"><g
         clip-path="url(#clipPath578)"
         id="g576"><g
           id="g582"><g
             clip-path="url(#clipPath586)"
             id="g584"><text
   transform="matrix(1,0,0,-1,508.03,475.63)"
   id="text590"><tspan
     x="0 2.9937601 4.43016 8.0287199 10.66968 14.98392 17.74584 20.507759 23.26968 26.031601 28.79352 30.229919 32.62896 34.065361 35.501759 38.742481 39.936958 42.698879 46.176479 49.77504 52.536961 56.8512 59.613121 62.375038 65.136963 67.89888 70.660797 72.097198 73.5336 76.295517 77.731918 79.16832 81.930237"
     y="0"
     id="tspan592"
     style="font-size:5.03999996px;font-variant:normal;font-weight:normal;writing-mode:lr-tb;fill:#000000;fill-opacity:1;fill-rule:nonzero;stroke:none;font-family:Helvetica;-inkscape-font-specification:Helvetica">+ Components: ViewComponent[0..n]</tspan></text>

</g></g><g
           id="g594"><g
             clip-path="url(#clipPath598)"
             id="g596" /></g></g></g><g
       id="g602"><g
         clip-path="url(#clipPath606)"
         id="g604"><g
           id="g610"><g
             clip-path="url(#clipPath614)"
             id="g612"><text
   transform="matrix(1,0,0,-1,426.77,475.99)"
   id="text618"><tspan
     x="0 2.9937601 4.43016 7.19208 9.9540005 12.71592 14.39424 17.15616 18.476641 19.67112 22.433041 25.19496 26.87328"
     y="0"
     id="tspan620"
     style="font-size:5.03999996px;font-variant:normal;font-weight:normal;writing-mode:lr-tb;fill:#000000;fill-opacity:1;fill-rule:nonzero;stroke:none;font-family:Helvetica;-inkscape-font-specification:Helvetica">+ operation()</tspan></text>

</g></g><g
           id="g622"><g
             clip-path="url(#clipPath626)"
             id="g624" /></g></g></g><g
       id="g630"><g
         clip-path="url(#clipPath634)"
         id="g632"><g
           id="g638"><g
             clip-path="url(#clipPath642)"
             id="g640"><text
   transform="matrix(1,0,0,-1,466.13,475.87)"
   id="text646"><tspan
     x="0 2.9937601 4.43016 7.19208 9.9540005 12.71592 14.39424 17.15616 18.476641 19.67112 22.433041 25.19496 26.87328"
     y="0"
     id="tspan648"
     style="font-size:5.03999996px;font-variant:normal;font-weight:normal;writing-mode:lr-tb;fill:#000000;fill-opacity:1;fill-rule:nonzero;stroke:none;font-family:Helvetica;-inkscape-font-specification:Helvetica">+ operation()</tspan></text>

</g></g><g
           id="g650"><g
             clip-path="url(#clipPath654)"
             id="g652" /></g></g></g><g
       id="g658"><g
         clip-path="url(#clipPath662)"
         id="g660"><g
           id="g666"><g
             clip-path="url(#clipPath670)"
             id="g668"><text
   transform="matrix(1,0,0,-1,532.03,551.83)"
   id="text674"><tspan
     x="0"
     y="0"
     id="tspan676"
     style="font-size:8.03999996px;font-variant:normal;font-weight:normal;writing-mode:lr-tb;fill:#000000;fill-opacity:1;fill-rule:nonzero;stroke:none;font-family:Helvetica;-inkscape-font-specification:Helvetica">*</tspan></text>

</g></g><g
           id="g678"><g
             clip-path="url(#clipPath682)"
             id="g680" /></g><g
           id="g686"><g
             clip-path="url(#clipPath690)"
             id="g688" /></g></g></g></g></svg>