<?xml version="1.0" encoding="UTF-8" standalone="no"?>
<!-- Created with Inkscape (http://www.inkscape.org/) -->

<svg
   xmlns:dc="http://purl.org/dc/elements/1.1/"
   xmlns:cc="http://creativecommons.org/ns#"
   xmlns:rdf="http://www.w3.org/1999/02/22-rdf-syntax-ns#"
   xmlns:svg="http://www.w3.org/2000/svg"
   xmlns="http://www.w3.org/2000/svg"
   xmlns:sodipodi="http://sodipodi.sourceforge.net/DTD/sodipodi-0.dtd"
   xmlns:inkscape="http://www.inkscape.org/namespaces/inkscape"
   version="1.1"
   width="318.8125"
   height="156.625"
   id="svg2"
   xml:space="preserve"
   inkscape:version="0.48.4 r9939"
   sodipodi:docname="Bild 5-14 Aufbau einer Pipeline beim Muster Pipes and Filters.svg"><sodipodi:namedview
     pagecolor="#ffffff"
     bordercolor="#666666"
     borderopacity="1"
     objecttolerance="10"
     gridtolerance="10"
     guidetolerance="10"
     inkscape:pageopacity="0"
     inkscape:pageshadow="2"
     inkscape:window-width="640"
     inkscape:window-height="480"
     id="namedview121"
     showgrid="false"
     inkscape:zoom="0.18730159"
     inkscape:cx="157.96875"
     inkscape:cy="80.71875"
     inkscape:window-x="0"
     inkscape:window-y="0"
     inkscape:window-maximized="0"
     inkscape:current-layer="svg2" /><metadata
     id="metadata8"><rdf:RDF><cc:Work
         rdf:about=""><dc:format>image/svg+xml</dc:format><dc:type
           rdf:resource="http://purl.org/dc/dcmitype/StillImage" /></cc:Work></rdf:RDF></metadata><defs
     id="defs6"><clipPath
       id="clipPath22"><path
         d="m 378.77,547.75 81.24,0 0,12.6 -81.24,0 0,-12.6 z"
         inkscape:connector-curvature="0"
         id="path24" /></clipPath><clipPath
       id="clipPath30"><path
         d="m 378.77,547.75 81.24,0 0,12.6 -81.24,0 0,-12.6 z"
         inkscape:connector-curvature="0"
         id="path32" /></clipPath><clipPath
       id="clipPath42"><path
         d="m 378.77,547.75 81.24,0 0,12.6 -81.24,0 0,-12.6 z"
         inkscape:connector-curvature="0"
         id="path44" /></clipPath><clipPath
       id="clipPath54"><path
         d="m 440.69,521.59 52.83,0 0,12.6 -52.83,0 0,-12.6 z"
         inkscape:connector-curvature="0"
         id="path56" /></clipPath><clipPath
       id="clipPath62"><path
         d="m 440.69,521.59 52.824,0 0,12.6 -52.824,0 0,-12.6 z"
         inkscape:connector-curvature="0"
         id="path64" /></clipPath><clipPath
       id="clipPath74"><path
         d="m 440.69,521.59 52.824,0 0,12.6 -52.824,0 0,-12.6 z"
         inkscape:connector-curvature="0"
         id="path76" /></clipPath><clipPath
       id="clipPath86"><path
         d="m 513.2,469.39 52.68,0 0,12.6 -52.68,0 0,-12.6 z"
         inkscape:connector-curvature="0"
         id="path88" /></clipPath><clipPath
       id="clipPath94"><path
         d="m 513.19,469.39 52.68,0 0,12.6 -52.68,0 0,-12.6 z"
         inkscape:connector-curvature="0"
         id="path96" /></clipPath><clipPath
       id="clipPath106"><path
         d="m 513.19,469.39 52.68,0 0,12.6 -52.68,0 0,-12.6 z"
         inkscape:connector-curvature="0"
         id="path108" /></clipPath><clipPath
       id="clipPath118"><path
         d="m 478.04,495.43 52.8,0 0,12.6 -52.8,0 0,-12.6 z"
         inkscape:connector-curvature="0"
         id="path120" /></clipPath><clipPath
       id="clipPath126"><path
         d="m 478.03,495.43 52.8,0 0,12.6 -52.8,0 0,-12.6 z"
         inkscape:connector-curvature="0"
         id="path128" /></clipPath><clipPath
       id="clipPath138"><path
         d="m 478.03,495.43 52.8,0 0,12.6 -52.8,0 0,-12.6 z"
         inkscape:connector-curvature="0"
         id="path140" /></clipPath><clipPath
       id="clipPath146"><path
         d="m 407.21,456.07 70.47,0 0,17.28 -70.47,0 0,-17.28 z"
         inkscape:connector-curvature="0"
         id="path148" /></clipPath><clipPath
       id="clipPath154"><path
         d="m 407.21,456.07 70.464,0 0,17.28 -70.464,0 0,-17.28 z"
         inkscape:connector-curvature="0"
         id="path156" /></clipPath><clipPath
       id="clipPath166"><path
         d="m 407.21,456.07 70.464,0 0,17.28 -70.464,0 0,-17.28 z"
         inkscape:connector-curvature="0"
         id="path168" /></clipPath><clipPath
       id="clipPath186"><path
         d="m 379.13,547.75 81.24,0 0,12.6 -81.24,0 0,-12.6 z"
         inkscape:connector-curvature="0"
         id="path188" /></clipPath><clipPath
       id="clipPath194"><path
         d="m 379.13,547.75 81.24,0 0,12.6 -81.24,0 0,-12.6 z"
         inkscape:connector-curvature="0"
         id="path196" /></clipPath><clipPath
       id="clipPath206"><path
         d="m 379.13,547.75 81.24,0 0,12.6 -81.24,0 0,-12.6 z"
         inkscape:connector-curvature="0"
         id="path208" /></clipPath><clipPath
       id="clipPath218"><path
         d="m 551,443.71 81.24,0 0,12.6 -81.24,0 0,-12.6 z"
         inkscape:connector-curvature="0"
         id="path220" /></clipPath><clipPath
       id="clipPath226"><path
         d="m 550.99,443.71 81.24,0 0,12.6 -81.24,0 0,-12.6 z"
         inkscape:connector-curvature="0"
         id="path228" /></clipPath><clipPath
       id="clipPath238"><path
         d="m 550.99,443.71 81.24,0 0,12.6 -81.24,0 0,-12.6 z"
         inkscape:connector-curvature="0"
         id="path240" /></clipPath></defs><g
     transform="matrix(1.25,0,0,-1.25,-472.40625,705.90625)"
     id="g10"><path
       d="m 409.68,531.97 109.31,-77.02 -1.15,-1.64 -109.32,77.02 1.16,1.64 z m 109.64,-74.81 3.18,-5.91 -6.63,1 3.45,4.91 z"
       inkscape:connector-curvature="0"
       id="path12"
       style="fill:#000000;fill-opacity:1;fill-rule:nonzero;stroke:none" /><path
       d="m 378.3,543.75 82.05,0 0,20.6 -82.05,0 0,-20.6 z"
       inkscape:connector-curvature="0"
       id="path14"
       style="fill:#ffffff;fill-opacity:1;fill-rule:evenodd;stroke:none" /><path
       d="m 378.3,543.75 82.05,0 0,20.6 -82.05,0 0,-20.6 z"
       inkscape:connector-curvature="0"
       id="path16"
       style="fill:none;stroke:#000000;stroke-width:0.75;stroke-linecap:round;stroke-linejoin:miter;stroke-miterlimit:10;stroke-opacity:1;stroke-dasharray:none" /><g
       id="g18"><g
         clip-path="url(#clipPath22)"
         id="g20"><g
           id="g26"><g
             clip-path="url(#clipPath30)"
             id="g28"><text
   transform="matrix(1,0,0,-1,387.29,549.31)"
   id="text34"><tspan
     x="0 8.6639996 15.336 18.708 25.416 32.124001 38.723999 45.431999 52.139999 54.804001 57.419998"
     y="0"
     id="tspan36"
     style="font-size:12px;font-variant:normal;font-weight:normal;writing-mode:lr-tb;fill:#000000;fill-opacity:1;fill-rule:nonzero;stroke:none;font-family:Helvetica;-inkscape-font-specification:Helvetica">Datenquelle</tspan></text>

</g></g><g
           id="g38"><g
             clip-path="url(#clipPath42)"
             id="g40" /></g></g></g><path
       d="m 440.3,517.65 53.5,0 0,20.6 -53.5,0 0,-20.6 z"
       inkscape:connector-curvature="0"
       id="path46"
       style="fill:#ffffff;fill-opacity:1;fill-rule:evenodd;stroke:none" /><path
       d="m 440.3,517.65 53.5,0 0,20.6 -53.5,0 0,-20.6 z"
       inkscape:connector-curvature="0"
       id="path48"
       style="fill:none;stroke:#000000;stroke-width:0.75;stroke-linecap:round;stroke-linejoin:miter;stroke-miterlimit:10;stroke-opacity:1;stroke-dasharray:none" /><g
       id="g50"><g
         clip-path="url(#clipPath54)"
         id="g52"><g
           id="g58"><g
             clip-path="url(#clipPath62)"
             id="g60"><text
   transform="matrix(1,0,0,-1,455.09,523.15)"
   id="text66"><tspan
     x="0 8.0279999 10.692 17.364"
     y="0"
     id="tspan68"
     style="font-size:12px;font-variant:normal;font-weight:normal;writing-mode:lr-tb;fill:#000000;fill-opacity:1;fill-rule:nonzero;stroke:none;font-family:Helvetica;-inkscape-font-specification:Helvetica">Pipe</tspan></text>

</g></g><g
           id="g70"><g
             clip-path="url(#clipPath74)"
             id="g72" /></g></g></g><path
       d="m 512.75,465.45 53.5,0 0,20.6 -53.5,0 0,-20.6 z"
       inkscape:connector-curvature="0"
       id="path78"
       style="fill:#ffffff;fill-opacity:1;fill-rule:evenodd;stroke:none" /><path
       d="m 512.75,465.45 53.5,0 0,20.6 -53.5,0 0,-20.6 z"
       inkscape:connector-curvature="0"
       id="path80"
       style="fill:none;stroke:#000000;stroke-width:0.75;stroke-linecap:round;stroke-linejoin:miter;stroke-miterlimit:10;stroke-opacity:1;stroke-dasharray:none" /><g
       id="g82"><g
         clip-path="url(#clipPath86)"
         id="g84"><g
           id="g90"><g
             clip-path="url(#clipPath94)"
             id="g92"><text
   transform="matrix(1,0,0,-1,527.59,470.95)"
   id="text98"><tspan
     x="0 8.0279999 10.692 17.364"
     y="0"
     id="tspan100"
     style="font-size:12px;font-variant:normal;font-weight:normal;writing-mode:lr-tb;fill:#000000;fill-opacity:1;fill-rule:nonzero;stroke:none;font-family:Helvetica;-inkscape-font-specification:Helvetica">Pipe</tspan></text>

</g></g><g
           id="g102"><g
             clip-path="url(#clipPath106)"
             id="g104" /></g></g></g><path
       d="m 477.6,491.5 53.5,0 0,20.6 -53.5,0 0,-20.6 z"
       inkscape:connector-curvature="0"
       id="path110"
       style="fill:#ffffff;fill-opacity:1;fill-rule:evenodd;stroke:none" /><path
       d="m 477.6,491.5 53.5,0 0,20.6 -53.5,0 0,-20.6 z"
       inkscape:connector-curvature="0"
       id="path112"
       style="fill:none;stroke:#000000;stroke-width:0.75;stroke-linecap:round;stroke-linejoin:miter;stroke-miterlimit:10;stroke-opacity:1;stroke-dasharray:none" /><g
       id="g114"><g
         clip-path="url(#clipPath118)"
         id="g116"><g
           id="g122"><g
             clip-path="url(#clipPath126)"
             id="g124"><text
   transform="matrix(1,0,0,-1,491.11,496.99)"
   id="text130"><tspan
     x="0 7.3319998 9.9960003 12.6 15.936 22.667999"
     y="0"
     id="tspan132"
     style="font-size:12px;font-variant:normal;font-weight:normal;writing-mode:lr-tb;fill:#000000;fill-opacity:1;fill-rule:nonzero;stroke:none;font-family:Helvetica;-inkscape-font-specification:Helvetica">Filter</tspan></text>

</g></g><g
           id="g134"><g
             clip-path="url(#clipPath138)"
             id="g136" /></g></g></g><g
       id="g142"><g
         clip-path="url(#clipPath146)"
         id="g144"><g
           id="g150"><g
             clip-path="url(#clipPath154)"
             id="g152"><text
   transform="matrix(1,0,0,-1,414.41,462.19)"
   id="text158"><tspan
     x="0 8.0279999 10.692 17.364 24.096001 26.76 29.375999 36.084"
     y="0"
     id="tspan160"
     style="font-size:12px;font-variant:normal;font-weight:normal;writing-mode:lr-tb;fill:#000000;fill-opacity:1;fill-rule:nonzero;stroke:none;font-family:Helvetica;-inkscape-font-specification:Helvetica">Pipeline</tspan></text>

</g></g><g
           id="g162"><g
             clip-path="url(#clipPath166)"
             id="g164" /></g></g></g><path
       d="m 457.1,554.85 0,-0.05 -0.5,0.5 11.25,0 c 0.28,0 0.5,-0.22 0.5,-0.5 l 0,-11.55 c 0,-0.28 -0.22,-0.5 -0.5,-0.5 -0.28,0 -0.5,0.22 -0.5,0.5 l 0,11.55 0.5,-0.5 -11.25,0 c -0.28,0 -0.5,0.22 -0.5,0.5 l 0,0.05 c 0,0.28 0.22,0.5 0.5,0.5 0.28,0 0.5,-0.22 0.5,-0.5 z m 13.75,-10.6 -3,-6 -3,6 6,0 z"
       inkscape:connector-curvature="0"
       id="path170"
       style="fill:#000000;fill-opacity:1;fill-rule:nonzero;stroke:none" /><path
       d="m 494.3,528.7 0,-0.3 -0.5,0.5 12.6,0 c 0.28,0 0.5,-0.22 0.5,-0.5 l 0,-11.3 c 0,-0.28 -0.22,-0.5 -0.5,-0.5 -0.28,0 -0.5,0.22 -0.5,0.5 l 0,11.3 0.5,-0.5 -12.6,0 c -0.28,0 -0.5,0.22 -0.5,0.5 l 0,0.3 c 0,0.28 0.22,0.5 0.5,0.5 0.28,0 0.5,-0.22 0.5,-0.5 z m 15.1,-10.6 -3,-6 -3,6 6,0 z"
       inkscape:connector-curvature="0"
       id="path172"
       style="fill:#000000;fill-opacity:1;fill-rule:nonzero;stroke:none" /><path
       d="m 531.6,502.65 0,-0.3 -0.5,0.5 12.6,0 c 0.28,0 0.5,-0.22 0.5,-0.5 l 0,-11.3 c 0,-0.28 -0.22,-0.5 -0.5,-0.5 -0.28,0 -0.5,0.22 -0.5,0.5 l 0,11.3 0.5,-0.5 -12.6,0 c -0.28,0 -0.5,0.22 -0.5,0.5 l 0,0.3 c 0,0.28 0.22,0.5 0.5,0.5 0.28,0 0.5,-0.22 0.5,-0.5 z m 15.1,-10.6 -3,-6 -3,6 6,0 z"
       inkscape:connector-curvature="0"
       id="path174"
       style="fill:#000000;fill-opacity:1;fill-rule:nonzero;stroke:none" /><path
       d="m 566.75,477.05 0,-0.3 -0.5,0.5 12.6,0 c 0.28,0 0.5,-0.22 0.5,-0.5 l 0,-11.3 c 0,-0.28 -0.22,-0.5 -0.5,-0.5 -0.28,0 -0.5,0.22 -0.5,0.5 l 0,11.3 0.5,-0.5 -12.6,0 c -0.28,0 -0.5,0.22 -0.5,0.5 l 0,0.3 c 0,0.28 0.22,0.5 0.5,0.5 0.28,0 0.5,-0.22 0.5,-0.5 z m 15.1,-10.6 -3,-6 -3,6 6,0 z"
       inkscape:connector-curvature="0"
       id="path176"
       style="fill:#000000;fill-opacity:1;fill-rule:nonzero;stroke:none" /><path
       d="m 378.65,543.75 82.05,0 0,20.6 -82.05,0 0,-20.6 z"
       inkscape:connector-curvature="0"
       id="path178"
       style="fill:#ffffff;fill-opacity:1;fill-rule:evenodd;stroke:none" /><path
       d="m 378.65,543.75 82.05,0 0,20.6 -82.05,0 0,-20.6 z"
       inkscape:connector-curvature="0"
       id="path180"
       style="fill:none;stroke:#000000;stroke-width:0.75;stroke-linecap:round;stroke-linejoin:miter;stroke-miterlimit:10;stroke-opacity:1;stroke-dasharray:none" /><g
       id="g182"><g
         clip-path="url(#clipPath186)"
         id="g184"><g
           id="g190"><g
             clip-path="url(#clipPath194)"
             id="g192"><text
   transform="matrix(1,0,0,-1,387.65,549.31)"
   id="text198"><tspan
     x="0 8.6639996 15.336 18.708 25.416 32.124001 38.723999 45.431999 52.139999 54.804001 57.419998"
     y="0"
     id="tspan200"
     style="font-size:12px;font-variant:normal;font-weight:normal;writing-mode:lr-tb;fill:#000000;fill-opacity:1;fill-rule:nonzero;stroke:none;font-family:Helvetica;-inkscape-font-specification:Helvetica">Datenquelle</tspan></text>

</g></g><g
           id="g202"><g
             clip-path="url(#clipPath206)"
             id="g204" /></g></g></g><path
       d="m 550.55,439.8 82.05,0 0,20.6 -82.05,0 0,-20.6 z"
       inkscape:connector-curvature="0"
       id="path210"
       style="fill:#ffffff;fill-opacity:1;fill-rule:evenodd;stroke:none" /><path
       d="m 550.55,439.8 82.05,0 0,20.6 -82.05,0 0,-20.6 z"
       inkscape:connector-curvature="0"
       id="path212"
       style="fill:none;stroke:#000000;stroke-width:0.75;stroke-linecap:round;stroke-linejoin:miter;stroke-miterlimit:10;stroke-opacity:1;stroke-dasharray:none" /><g
       id="g214"><g
         clip-path="url(#clipPath218)"
         id="g216"><g
           id="g222"><g
             clip-path="url(#clipPath226)"
             id="g224"><text
   transform="matrix(1,0,0,-1,559.51,445.27)"
   id="text230"><tspan
     x="0 8.6639996 15.336 18.708 25.416 32.124001 38.004002 44.712002 51.419998 57.419998"
     y="0"
     id="tspan232"
     style="font-size:12px;font-variant:normal;font-weight:normal;writing-mode:lr-tb;fill:#000000;fill-opacity:1;fill-rule:nonzero;stroke:none;font-family:Helvetica;-inkscape-font-specification:Helvetica">Datensenke</tspan></text>

</g></g><g
           id="g234"><g
             clip-path="url(#clipPath238)"
             id="g236" /></g></g></g></g></svg>