<?xml version="1.0" encoding="UTF-8" standalone="no"?>
<!-- Created with Inkscape (http://www.inkscape.org/) -->

<svg
   xmlns:dc="http://purl.org/dc/elements/1.1/"
   xmlns:cc="http://creativecommons.org/ns#"
   xmlns:rdf="http://www.w3.org/1999/02/22-rdf-syntax-ns#"
   xmlns:svg="http://www.w3.org/2000/svg"
   xmlns="http://www.w3.org/2000/svg"
   xmlns:sodipodi="http://sodipodi.sourceforge.net/DTD/sodipodi-0.dtd"
   xmlns:inkscape="http://www.inkscape.org/namespaces/inkscape"
   version="1.1"
   width="346.5"
   height="193.3125"
   id="svg2"
   xml:space="preserve"
   inkscape:version="0.48.4 r9939"
   sodipodi:docname="Bild 5-27 Struktur von CORBA.svg"><sodipodi:namedview
     pagecolor="#ffffff"
     bordercolor="#666666"
     borderopacity="1"
     objecttolerance="10"
     gridtolerance="10"
     guidetolerance="10"
     inkscape:pageopacity="0"
     inkscape:pageshadow="2"
     inkscape:window-width="640"
     inkscape:window-height="480"
     id="namedview150"
     showgrid="false"
     inkscape:zoom="0.18730159"
     inkscape:cx="14.71875"
     inkscape:cy="106.40625"
     inkscape:window-x="0"
     inkscape:window-y="0"
     inkscape:window-maximized="0"
     inkscape:current-layer="svg2" /><metadata
     id="metadata8"><rdf:RDF><cc:Work
         rdf:about=""><dc:format>image/svg+xml</dc:format><dc:type
           rdf:resource="http://purl.org/dc/dcmitype/StillImage" /></cc:Work></rdf:RDF></metadata><defs
     id="defs6"><clipPath
       id="clipPath20"><path
         d="m 496.28,445.99 269.9,0 0,17.64 -269.9,0 0,-17.64 z"
         inkscape:connector-curvature="0"
         id="path22" /></clipPath><clipPath
       id="clipPath28"><path
         d="m 496.27,445.99 269.9,0 0,17.64 -269.9,0 0,-17.64 z"
         inkscape:connector-curvature="0"
         id="path30" /></clipPath><clipPath
       id="clipPath40"><path
         d="m 496.28,471.67 93.24,0 0,17.64 -93.24,0 0,-17.64 z"
         inkscape:connector-curvature="0"
         id="path42" /></clipPath><clipPath
       id="clipPath48"><path
         d="m 496.27,471.67 93.24,0 0,17.64 -93.24,0 0,-17.64 z"
         inkscape:connector-curvature="0"
         id="path50" /></clipPath><clipPath
       id="clipPath56"><path
         d="m 496.27,471.67 93.24,0 0,17.64 -93.24,0 0,-17.64 z"
         inkscape:connector-curvature="0"
         id="path58" /></clipPath><clipPath
       id="clipPath68"><path
         d="m 667.65,471.67 98.52,0 0,20.52 -98.52,0 0,-20.52 z"
         inkscape:connector-curvature="0"
         id="path70" /></clipPath><clipPath
       id="clipPath76"><path
         d="m 667.66,471.67 98.52,0 0,20.52 -98.52,0 0,-20.52 z"
         inkscape:connector-curvature="0"
         id="path78" /></clipPath><clipPath
       id="clipPath84"><path
         d="m 667.66,471.67 98.52,0 0,20.52 -98.52,0 0,-20.52 z"
         inkscape:connector-curvature="0"
         id="path86" /></clipPath><clipPath
       id="clipPath100"><path
         d="m 493.04,542.59 99.6,0 0,15.48 -99.6,0 0,-15.48 z"
         inkscape:connector-curvature="0"
         id="path102" /></clipPath><clipPath
       id="clipPath108"><path
         d="m 493.03,542.59 99.6,0 0,15.48 -99.6,0 0,-15.48 z"
         inkscape:connector-curvature="0"
         id="path110" /></clipPath><clipPath
       id="clipPath120"><path
         d="m 493.03,542.59 99.6,0 0,15.48 -99.6,0 0,-15.48 z"
         inkscape:connector-curvature="0"
         id="path122" /></clipPath><clipPath
       id="clipPath128"><path
         d="m 664.05,542.59 105.36,0 0,15.48 -105.36,0 0,-15.48 z"
         inkscape:connector-curvature="0"
         id="path130" /></clipPath><clipPath
       id="clipPath136"><path
         d="m 664.06,542.59 105.36,0 0,15.48 -105.36,0 0,-15.48 z"
         inkscape:connector-curvature="0"
         id="path138" /></clipPath><clipPath
       id="clipPath148"><path
         d="m 664.06,542.59 105.36,0 0,15.48 -105.36,0 0,-15.48 z"
         inkscape:connector-curvature="0"
         id="path150" /></clipPath><clipPath
       id="clipPath160"><path
         d="m 495.8,445.63 270.74,0 0,15.6 -270.74,0 0,-15.6 z"
         inkscape:connector-curvature="0"
         id="path162" /></clipPath><clipPath
       id="clipPath168"><path
         d="m 495.79,445.63 270.74,0 0,15.6 -270.74,0 0,-15.6 z"
         inkscape:connector-curvature="0"
         id="path170" /></clipPath><clipPath
       id="clipPath180"><path
         d="m 495.79,445.63 270.74,0 0,15.6 -270.74,0 0,-15.6 z"
         inkscape:connector-curvature="0"
         id="path182" /></clipPath><clipPath
       id="clipPath188"><path
         d="m 495.8,471.31 94.08,0 0,15.48 -94.08,0 0,-15.48 z"
         inkscape:connector-curvature="0"
         id="path190" /></clipPath><clipPath
       id="clipPath196"><path
         d="m 495.79,471.31 94.08,0 0,15.48 -94.08,0 0,-15.48 z"
         inkscape:connector-curvature="0"
         id="path198" /></clipPath><clipPath
       id="clipPath208"><path
         d="m 495.79,471.31 94.08,0 0,15.48 -94.08,0 0,-15.48 z"
         inkscape:connector-curvature="0"
         id="path210" /></clipPath><clipPath
       id="clipPath216"><path
         d="m 667.17,471.31 99.36,0 0,18.48 -99.36,0 0,-18.48 z"
         inkscape:connector-curvature="0"
         id="path218" /></clipPath><clipPath
       id="clipPath224"><path
         d="m 667.18,471.31 99.36,0 0,18.48 -99.36,0 0,-18.48 z"
         inkscape:connector-curvature="0"
         id="path226" /></clipPath><clipPath
       id="clipPath236"><path
         d="m 667.18,471.31 99.36,0 0,18.48 -99.36,0 0,-18.48 z"
         inkscape:connector-curvature="0"
         id="path238" /></clipPath><clipPath
       id="clipPath248"><path
         d="m 495.8,419.92 133.92,0 0,15.6 -133.92,0 0,-15.6 z"
         inkscape:connector-curvature="0"
         id="path250" /></clipPath><clipPath
       id="clipPath256"><path
         d="m 495.79,419.93 133.92,0 0,15.6 -133.92,0 0,-15.6 z"
         inkscape:connector-curvature="0"
         id="path258" /></clipPath><clipPath
       id="clipPath268"><path
         d="m 495.79,419.93 133.92,0 0,15.6 -133.92,0 0,-15.6 z"
         inkscape:connector-curvature="0"
         id="path270" /></clipPath><clipPath
       id="clipPath276"><path
         d="m 629.72,419.92 136.82,0 0,15.6 -136.82,0 0,-15.6 z"
         inkscape:connector-curvature="0"
         id="path278" /></clipPath><clipPath
       id="clipPath284"><path
         d="m 629.71,419.93 136.82,0 0,15.6 -136.82,0 0,-15.6 z"
         inkscape:connector-curvature="0"
         id="path286" /></clipPath><clipPath
       id="clipPath296"><path
         d="m 629.71,419.93 136.82,0 0,15.6 -136.82,0 0,-15.6 z"
         inkscape:connector-curvature="0"
         id="path298" /></clipPath></defs><g
     transform="matrix(1.25,0,0,-1.25,-615.65625,716.90625)"
     id="g10"><path
       d="m 495.75,442.05 270.75,0 0,25.65 -270.75,0 0,-25.65 z"
       inkscape:connector-curvature="0"
       id="path12"
       style="fill:#ffffff;fill-opacity:1;fill-rule:evenodd;stroke:none" /><path
       d="m 495.75,442.05 270.75,0 0,25.65 -270.75,0 0,-25.65 z"
       inkscape:connector-curvature="0"
       id="path14"
       style="fill:none;stroke:#000000;stroke-width:0.75;stroke-linecap:round;stroke-linejoin:miter;stroke-miterlimit:10;stroke-opacity:1;stroke-dasharray:none" /><g
       id="g16"><g
         clip-path="url(#clipPath20)"
         id="g18"><g
           id="g24"><g
             clip-path="url(#clipPath28)"
             id="g26" /></g></g></g><path
       d="m 495.75,467.7 94.05,0 0,25.65 -94.05,0 0,-25.65 z"
       inkscape:connector-curvature="0"
       id="path32"
       style="fill:#ffffff;fill-opacity:1;fill-rule:evenodd;stroke:none" /><path
       d="m 495.75,467.7 94.05,0 0,25.65 -94.05,0 0,-25.65 z"
       inkscape:connector-curvature="0"
       id="path34"
       style="fill:none;stroke:#000000;stroke-width:0.75;stroke-linecap:round;stroke-linejoin:miter;stroke-miterlimit:10;stroke-opacity:1;stroke-dasharray:none" /><g
       id="g36"><g
         clip-path="url(#clipPath40)"
         id="g38"><g
           id="g44"><g
             clip-path="url(#clipPath48)"
             id="g46" /></g><g
           id="g52"><g
             clip-path="url(#clipPath56)"
             id="g54" /></g></g></g><path
       d="m 667.1,467.75 99.4,0 0,28.5 -99.4,0 0,-28.5 z"
       inkscape:connector-curvature="0"
       id="path60"
       style="fill:#ffffff;fill-opacity:1;fill-rule:evenodd;stroke:none" /><path
       d="m 667.1,467.75 99.4,0 0,28.5 -99.4,0 0,-28.5 z"
       inkscape:connector-curvature="0"
       id="path62"
       style="fill:none;stroke:#000000;stroke-width:0.75;stroke-linecap:round;stroke-linejoin:miter;stroke-miterlimit:10;stroke-opacity:1;stroke-dasharray:none" /><g
       id="g64"><g
         clip-path="url(#clipPath68)"
         id="g66"><g
           id="g72"><g
             clip-path="url(#clipPath76)"
             id="g74" /></g><g
           id="g80"><g
             clip-path="url(#clipPath84)"
             id="g82" /></g></g></g><path
       d="m 542.77,567.45 c -27.54,0 -49.87,-7.66 -49.87,-17.1 0,-9.44 22.33,-17.1 49.87,-17.1 27.55,0 49.88,7.66 49.88,17.1 0,9.44 -22.33,17.1 -49.88,17.1 z"
       inkscape:connector-curvature="0"
       id="path88"
       style="fill:#ffffff;fill-opacity:1;fill-rule:evenodd;stroke:none" /><path
       d="m 542.77,567.45 c -27.54,0 -49.87,-7.66 -49.87,-17.1 0,-9.44 22.33,-17.1 49.87,-17.1 27.55,0 49.88,7.66 49.88,17.1 0,9.44 -22.33,17.1 -49.88,17.1 z"
       inkscape:connector-curvature="0"
       id="path90"
       style="fill:none;stroke:#000000;stroke-width:0.75;stroke-linecap:round;stroke-linejoin:round;stroke-miterlimit:10;stroke-opacity:1;stroke-dasharray:none" /><path
       d="m 716.63,567.45 c -29.13,0 -52.73,-7.66 -52.73,-17.1 0,-9.44 23.6,-17.1 52.73,-17.1 29.12,0 52.72,7.66 52.72,17.1 0,9.44 -23.6,17.1 -52.72,17.1 z"
       inkscape:connector-curvature="0"
       id="path92"
       style="fill:#ffffff;fill-opacity:1;fill-rule:evenodd;stroke:none" /><path
       d="m 716.63,567.45 c -29.13,0 -52.73,-7.66 -52.73,-17.1 0,-9.44 23.6,-17.1 52.73,-17.1 29.12,0 52.72,7.66 52.72,17.1 0,9.44 -23.6,17.1 -52.72,17.1 z"
       inkscape:connector-curvature="0"
       id="path94"
       style="fill:none;stroke:#000000;stroke-width:0.75;stroke-linecap:round;stroke-linejoin:round;stroke-miterlimit:10;stroke-opacity:1;stroke-dasharray:none" /><g
       id="g96"><g
         clip-path="url(#clipPath100)"
         id="g98"><g
           id="g104"><g
             clip-path="url(#clipPath108)"
             id="g106"><text
   transform="matrix(1,0,0,-1,527.47,546.91)"
   id="text112"><tspan
     x="0 8.6639996 11.28 13.944 20.615999 27.348"
     y="0"
     id="tspan114"
     style="font-size:12px;font-variant:normal;font-weight:normal;writing-mode:lr-tb;fill:#000000;fill-opacity:1;fill-rule:nonzero;stroke:none;font-family:Helvetica;-inkscape-font-specification:Helvetica">Client</tspan></text>

</g></g><g
           id="g116"><g
             clip-path="url(#clipPath120)"
             id="g118" /></g></g></g><g
       id="g124"><g
         clip-path="url(#clipPath128)"
         id="g126"><g
           id="g132"><g
             clip-path="url(#clipPath136)"
             id="g134"><text
   transform="matrix(1,0,0,-1,699.46,546.91)"
   id="text140"><tspan
     x="0 9.3360004 16.068001 18.732 25.403999 31.403999"
     y="0"
     id="tspan142"
     style="font-size:12px;font-variant:normal;font-weight:normal;writing-mode:lr-tb;fill:#000000;fill-opacity:1;fill-rule:nonzero;stroke:none;font-family:Helvetica;-inkscape-font-specification:Helvetica">Objekt</tspan></text>

</g></g><g
           id="g144"><g
             clip-path="url(#clipPath148)"
             id="g146" /></g></g></g><path
       d="m 543.31,528.25 0.03,-29.9 c 0,-0.28 -0.22,-0.5 -0.5,-0.5 -0.27,0 -0.5,0.22 -0.5,0.5 l -0.03,29.9 c 0,0.28 0.22,0.5 0.5,0.5 0.27,0 0.5,-0.22 0.5,-0.5 z m -3.5,-1 2.99,6 3.01,-6 -6,0 z m 6.03,-27.9 -2.99,-6 -3.01,6 6,0 z"
       inkscape:connector-curvature="0"
       id="path152"
       style="fill:#000000;fill-opacity:1;fill-rule:nonzero;stroke:none" /><path
       d="m 717.17,528.25 0.11,-27 c 0,-0.27 -0.22,-0.5 -0.5,-0.5 -0.27,0 -0.5,0.22 -0.5,0.5 l -0.11,27 c 0,0.27 0.22,0.5 0.5,0.5 0.27,0 0.5,-0.22 0.5,-0.5 z m -3.5,-1.01 2.98,6.01 3.02,-5.99 -6,-0.02 z m 6.11,-24.98 -2.98,-6.01 -3.02,5.99 6,0.02 z"
       inkscape:connector-curvature="0"
       id="path154"
       style="fill:#000000;fill-opacity:1;fill-rule:nonzero;stroke:none" /><g
       id="g156"><g
         clip-path="url(#clipPath160)"
         id="g158"><g
           id="g164"><g
             clip-path="url(#clipPath168)"
             id="g166"><text
   transform="matrix(1,0,0,-1,618.07,450.19)"
   id="text172"><tspan
     x="0 9.3360004 18"
     y="0"
     id="tspan174"
     style="font-size:12px;font-variant:normal;font-weight:normal;writing-mode:lr-tb;fill:#000000;fill-opacity:1;fill-rule:nonzero;stroke:none;font-family:Helvetica;-inkscape-font-specification:Helvetica">ORB</tspan></text>

</g></g><g
           id="g176"><g
             clip-path="url(#clipPath180)"
             id="g178" /></g></g></g><g
       id="g184"><g
         clip-path="url(#clipPath188)"
         id="g186"><g
           id="g192"><g
             clip-path="url(#clipPath196)"
             id="g194"><text
   transform="matrix(1,0,0,-1,530.47,475.63)"
   id="text200"><tspan
     x="0 8.0279999 11.364 18.096001"
     y="0"
     id="tspan202"
     style="font-size:12px;font-variant:normal;font-weight:normal;writing-mode:lr-tb;fill:#000000;fill-opacity:1;fill-rule:nonzero;stroke:none;font-family:Helvetica;-inkscape-font-specification:Helvetica">Stub</tspan></text>

</g></g><g
           id="g204"><g
             clip-path="url(#clipPath208)"
             id="g206" /></g></g></g><g
       id="g212"><g
         clip-path="url(#clipPath216)"
         id="g214"><g
           id="g220"><g
             clip-path="url(#clipPath224)"
             id="g222"><text
   transform="matrix(1,0,0,-1,693.46,478.75)"
   id="text228"><tspan
     x="0 8.0279999 14.028 20.736 23.4 30.072001 33.444 40.043999"
     y="0"
     id="tspan230"
     style="font-size:12px;font-variant:normal;font-weight:normal;writing-mode:lr-tb;fill:#000000;fill-opacity:1;fill-rule:nonzero;stroke:none;font-family:Helvetica;-inkscape-font-specification:Helvetica">Skeleton</tspan></text>

</g></g><g
           id="g232"><g
             clip-path="url(#clipPath236)"
             id="g234" /></g></g></g><g
       id="g240"><path
         d="m 631.1,573.15 0.05,-153.9"
         inkscape:connector-curvature="0"
         id="path242"
         style="fill:none;stroke:#000000;stroke-width:0.75;stroke-linecap:round;stroke-linejoin:round;stroke-miterlimit:10;stroke-opacity:1;stroke-dasharray:0, 1.5;stroke-dashoffset:0" /></g><g
       id="g244"><g
         clip-path="url(#clipPath248)"
         id="g246"><g
           id="g252"><g
             clip-path="url(#clipPath256)"
             id="g254"><text
   transform="matrix(1,0,0,-1,547.39,424.49)"
   id="text260"><tspan
     x="0 8.6639996 11.28 13.944 20.615999 27.348"
     y="0"
     id="tspan262"
     style="font-size:12px;font-variant:normal;font-weight:normal;writing-mode:lr-tb;fill:#000000;fill-opacity:1;fill-rule:nonzero;stroke:none;font-family:Helvetica;-inkscape-font-specification:Helvetica">Client</tspan></text>

</g></g><g
           id="g264"><g
             clip-path="url(#clipPath268)"
             id="g266" /></g></g></g><g
       id="g272"><g
         clip-path="url(#clipPath276)"
         id="g274"><g
           id="g280"><g
             clip-path="url(#clipPath284)"
             id="g282"><text
   transform="matrix(1,0,0,-1,680.38,424.49)"
   id="text288"><tspan
     x="0 8.0279999 14.736 18.732 24.576 31.284"
     y="0"
     id="tspan290"
     style="font-size:12px;font-variant:normal;font-weight:normal;writing-mode:lr-tb;fill:#000000;fill-opacity:1;fill-rule:nonzero;stroke:none;font-family:Helvetica;-inkscape-font-specification:Helvetica">Server</tspan></text>

</g></g><g
           id="g292"><g
             clip-path="url(#clipPath296)"
             id="g294" /></g></g></g></g></svg>