<?xml version="1.0" encoding="UTF-8" standalone="no"?>
<!-- Created with Inkscape (http://www.inkscape.org/) -->

<svg
   xmlns:dc="http://purl.org/dc/elements/1.1/"
   xmlns:cc="http://creativecommons.org/ns#"
   xmlns:rdf="http://www.w3.org/1999/02/22-rdf-syntax-ns#"
   xmlns:svg="http://www.w3.org/2000/svg"
   xmlns="http://www.w3.org/2000/svg"
   xmlns:sodipodi="http://sodipodi.sourceforge.net/DTD/sodipodi-0.dtd"
   xmlns:inkscape="http://www.inkscape.org/namespaces/inkscape"
   version="1.1"
   width="371.1875"
   height="225.9375"
   id="svg2"
   xml:space="preserve"
   inkscape:version="0.48.4 r9939"
   sodipodi:docname="Bild 5-21 Konzept einer Plug-in-Architektur.svg"><sodipodi:namedview
     pagecolor="#ffffff"
     bordercolor="#666666"
     borderopacity="1"
     objecttolerance="10"
     gridtolerance="10"
     guidetolerance="10"
     inkscape:pageopacity="0"
     inkscape:pageshadow="2"
     inkscape:window-width="640"
     inkscape:window-height="480"
     id="namedview255"
     showgrid="false"
     inkscape:zoom="0.18730159"
     inkscape:cx="191.3125"
     inkscape:cy="-63.875"
     inkscape:window-x="0"
     inkscape:window-y="0"
     inkscape:window-maximized="0"
     inkscape:current-layer="svg2" /><metadata
     id="metadata8"><rdf:RDF><cc:Work
         rdf:about=""><dc:format>image/svg+xml</dc:format><dc:type
           rdf:resource="http://purl.org/dc/dcmitype/StillImage" /></cc:Work></rdf:RDF></metadata><defs
     id="defs6"><clipPath
       id="clipPath20"><path
         d="m 448.61,676.53 154.35,0 0,55.2 -154.35,0 0,-55.2 z"
         inkscape:connector-curvature="0"
         id="path22" /></clipPath><clipPath
       id="clipPath28"><path
         d="m 448.61,676.54 154.34,0 0,55.2 -154.34,0 0,-55.2 z"
         inkscape:connector-curvature="0"
         id="path30" /></clipPath><clipPath
       id="clipPath40"><path
         d="m 448.61,676.54 154.34,0 0,55.2 -154.34,0 0,-55.2 z"
         inkscape:connector-curvature="0"
         id="path42" /></clipPath><clipPath
       id="clipPath48"><path
         d="m 448.61,676.54 154.34,0 0,55.2 -154.34,0 0,-55.2 z"
         inkscape:connector-curvature="0"
         id="path50" /></clipPath><clipPath
       id="clipPath56"><path
         d="m 448.61,676.54 154.34,0 0,55.2 -154.34,0 0,-55.2 z"
         inkscape:connector-curvature="0"
         id="path58" /></clipPath><clipPath
       id="clipPath64"><path
         d="m 448.61,676.54 154.34,0 0,55.2 -154.34,0 0,-55.2 z"
         inkscape:connector-curvature="0"
         id="path66" /></clipPath><clipPath
       id="clipPath76"><path
         d="m 448.61,676.54 154.34,0 0,55.2 -154.34,0 0,-55.2 z"
         inkscape:connector-curvature="0"
         id="path78" /></clipPath><clipPath
       id="clipPath88"><path
         d="m 448.61,676.54 154.34,0 0,55.2 -154.34,0 0,-55.2 z"
         inkscape:connector-curvature="0"
         id="path90" /></clipPath><clipPath
       id="clipPath100"><path
         d="m 448.61,676.54 154.34,0 0,55.2 -154.34,0 0,-55.2 z"
         inkscape:connector-curvature="0"
         id="path102" /></clipPath><clipPath
       id="clipPath112"><path
         d="m 448.61,676.54 154.34,0 0,55.2 -154.34,0 0,-55.2 z"
         inkscape:connector-curvature="0"
         id="path114" /></clipPath><clipPath
       id="clipPath124"><path
         d="m 448.61,676.54 154.34,0 0,55.2 -154.34,0 0,-55.2 z"
         inkscape:connector-curvature="0"
         id="path126" /></clipPath><clipPath
       id="clipPath138"><path
         d="m 351.77,601.39 155.31,0 0,41.4 -155.31,0 0,-41.4 z"
         inkscape:connector-curvature="0"
         id="path140" /></clipPath><clipPath
       id="clipPath146"><path
         d="m 351.77,601.39 155.3,0 0,41.4 -155.3,0 0,-41.4 z"
         inkscape:connector-curvature="0"
         id="path148" /></clipPath><clipPath
       id="clipPath158"><path
         d="m 351.77,601.39 155.3,0 0,41.4 -155.3,0 0,-41.4 z"
         inkscape:connector-curvature="0"
         id="path160" /></clipPath><clipPath
       id="clipPath170"><path
         d="m 351.77,601.39 155.3,0 0,41.4 -155.3,0 0,-41.4 z"
         inkscape:connector-curvature="0"
         id="path172" /></clipPath><clipPath
       id="clipPath182"><path
         d="m 351.77,601.39 155.3,0 0,41.4 -155.3,0 0,-41.4 z"
         inkscape:connector-curvature="0"
         id="path184" /></clipPath><clipPath
       id="clipPath190"><path
         d="m 351.77,601.39 155.3,0 0,41.4 -155.3,0 0,-41.4 z"
         inkscape:connector-curvature="0"
         id="path192" /></clipPath><clipPath
       id="clipPath198"><path
         d="m 351.77,601.39 155.3,0 0,41.4 -155.3,0 0,-41.4 z"
         inkscape:connector-curvature="0"
         id="path200" /></clipPath><clipPath
       id="clipPath210"><path
         d="m 351.77,601.39 155.3,0 0,41.4 -155.3,0 0,-41.4 z"
         inkscape:connector-curvature="0"
         id="path212" /></clipPath><clipPath
       id="clipPath222"><path
         d="m 351.77,601.39 155.3,0 0,41.4 -155.3,0 0,-41.4 z"
         inkscape:connector-curvature="0"
         id="path224" /></clipPath><clipPath
       id="clipPath234"><path
         d="m 351.77,601.39 155.3,0 0,41.4 -155.3,0 0,-41.4 z"
         inkscape:connector-curvature="0"
         id="path236" /></clipPath><clipPath
       id="clipPath246"><path
         d="m 351.77,601.39 155.3,0 0,41.4 -155.3,0 0,-41.4 z"
         inkscape:connector-curvature="0"
         id="path248" /></clipPath><clipPath
       id="clipPath258"><path
         d="m 351.77,601.39 155.3,0 0,41.4 -155.3,0 0,-41.4 z"
         inkscape:connector-curvature="0"
         id="path260" /></clipPath><clipPath
       id="clipPath272"><path
         d="m 351.77,559.15 62.88,0 0,14.64 -62.88,0 0,-14.64 z"
         inkscape:connector-curvature="0"
         id="path274" /></clipPath><clipPath
       id="clipPath280"><path
         d="m 351.77,559.15 62.88,0 0,14.64 -62.88,0 0,-14.64 z"
         inkscape:connector-curvature="0"
         id="path282" /></clipPath><clipPath
       id="clipPath292"><path
         d="m 351.77,559.15 62.88,0 0,14.64 -62.88,0 0,-14.64 z"
         inkscape:connector-curvature="0"
         id="path294" /></clipPath><clipPath
       id="clipPath304"><path
         d="m 351.77,559.15 62.88,0 0,14.64 -62.88,0 0,-14.64 z"
         inkscape:connector-curvature="0"
         id="path306" /></clipPath><clipPath
       id="clipPath316"><path
         d="m 351.77,559.15 62.88,0 0,14.64 -62.88,0 0,-14.64 z"
         inkscape:connector-curvature="0"
         id="path318" /></clipPath><clipPath
       id="clipPath328"><path
         d="m 444.17,559.15 62.91,0 0,14.64 -62.91,0 0,-14.64 z"
         inkscape:connector-curvature="0"
         id="path330" /></clipPath><clipPath
       id="clipPath336"><path
         d="m 444.17,559.15 62.904,0 0,14.64 -62.904,0 0,-14.64 z"
         inkscape:connector-curvature="0"
         id="path338" /></clipPath><clipPath
       id="clipPath348"><path
         d="m 444.17,559.15 62.904,0 0,14.64 -62.904,0 0,-14.64 z"
         inkscape:connector-curvature="0"
         id="path350" /></clipPath><clipPath
       id="clipPath360"><path
         d="m 444.17,559.15 62.904,0 0,14.64 -62.904,0 0,-14.64 z"
         inkscape:connector-curvature="0"
         id="path362" /></clipPath><clipPath
       id="clipPath372"><path
         d="m 444.17,559.15 62.904,0 0,14.64 -62.904,0 0,-14.64 z"
         inkscape:connector-curvature="0"
         id="path374" /></clipPath><clipPath
       id="clipPath386"><path
         d="m 514.64,628.15 62.76,0 0,14.64 -62.76,0 0,-14.64 z"
         inkscape:connector-curvature="0"
         id="path388" /></clipPath><clipPath
       id="clipPath394"><path
         d="m 514.63,628.15 62.76,0 0,14.64 -62.76,0 0,-14.64 z"
         inkscape:connector-curvature="0"
         id="path396" /></clipPath><clipPath
       id="clipPath406"><path
         d="m 514.63,628.15 62.76,0 0,14.64 -62.76,0 0,-14.64 z"
         inkscape:connector-curvature="0"
         id="path408" /></clipPath><clipPath
       id="clipPath418"><path
         d="m 514.63,628.15 62.76,0 0,14.64 -62.76,0 0,-14.64 z"
         inkscape:connector-curvature="0"
         id="path420" /></clipPath><clipPath
       id="clipPath430"><path
         d="m 514.63,628.15 62.76,0 0,14.64 -62.76,0 0,-14.64 z"
         inkscape:connector-curvature="0"
         id="path432" /></clipPath><clipPath
       id="clipPath442"><path
         d="m 584.96,628.15 62.76,0 0,14.64 -62.76,0 0,-14.64 z"
         inkscape:connector-curvature="0"
         id="path444" /></clipPath><clipPath
       id="clipPath450"><path
         d="m 584.95,628.15 62.76,0 0,14.64 -62.76,0 0,-14.64 z"
         inkscape:connector-curvature="0"
         id="path452" /></clipPath><clipPath
       id="clipPath462"><path
         d="m 584.95,628.15 62.76,0 0,14.64 -62.76,0 0,-14.64 z"
         inkscape:connector-curvature="0"
         id="path464" /></clipPath><clipPath
       id="clipPath474"><path
         d="m 584.95,628.15 62.76,0 0,14.64 -62.76,0 0,-14.64 z"
         inkscape:connector-curvature="0"
         id="path476" /></clipPath><clipPath
       id="clipPath486"><path
         d="m 584.95,628.15 62.76,0 0,14.64 -62.76,0 0,-14.64 z"
         inkscape:connector-curvature="0"
         id="path488" /></clipPath></defs><g
     transform="matrix(1.25,0,0,-1.25,-439.0625,919.8125)"
     id="g10"><path
       d="m 448.35,672.7 154.85,0 0,62.9 -154.85,0 0,-62.9 z"
       inkscape:connector-curvature="0"
       id="path12"
       style="fill:#ffffff;fill-opacity:1;fill-rule:evenodd;stroke:none" /><path
       d="m 448.35,672.7 154.85,0 0,62.9 -154.85,0 0,-62.9 z"
       inkscape:connector-curvature="0"
       id="path14"
       style="fill:none;stroke:#000000;stroke-width:0.5;stroke-linecap:round;stroke-linejoin:miter;stroke-miterlimit:10;stroke-opacity:1;stroke-dasharray:none" /><g
       id="g16"><g
         clip-path="url(#clipPath20)"
         id="g18"><g
           id="g24"><g
             clip-path="url(#clipPath28)"
             id="g26"><text
   transform="matrix(1,0,0,-1,496.39,720.7)"
   id="text32"><tspan
     x="0 8.0279999 14.736 21.444 24.108 26.724001 32.723999 39.431999 42.768002 45.431999 52.032001"
     y="0"
     id="tspan34"
     style="font-size:12px;font-variant:normal;font-weight:normal;writing-mode:lr-tb;fill:#000000;fill-opacity:1;fill-rule:nonzero;stroke:none;font-family:Helvetica;-inkscape-font-specification:Helvetica">Applikation</tspan></text>

</g></g><g
           id="g36"><g
             clip-path="url(#clipPath40)"
             id="g38" /></g><g
           id="g44"><g
             clip-path="url(#clipPath48)"
             id="g46" /></g><g
           id="g52"><g
             clip-path="url(#clipPath56)"
             id="g54" /></g><g
           id="g60"><g
             clip-path="url(#clipPath64)"
             id="g62"><text
   transform="matrix(1,0,0,-1,481.39,679.3)"
   id="text68"><tspan
     x="0 8.0279999 10.692 17.364"
     y="0"
     id="tspan70"
     style="font-size:12px;font-variant:normal;font-weight:normal;writing-mode:lr-tb;fill:#000000;fill-opacity:1;fill-rule:nonzero;stroke:none;font-family:Helvetica;-inkscape-font-specification:Helvetica">Plug</tspan></text>

</g></g><g
           id="g72"><g
             clip-path="url(#clipPath76)"
             id="g74"><text
   transform="matrix(1,0,0,-1,505.39,679.3)"
   id="text80"><tspan
     x="0"
     y="0"
     id="tspan82"
     style="font-size:12px;font-variant:normal;font-weight:normal;writing-mode:lr-tb;fill:#000000;fill-opacity:1;fill-rule:nonzero;stroke:none;font-family:Helvetica;-inkscape-font-specification:Helvetica">-</tspan></text>

</g></g><g
           id="g84"><g
             clip-path="url(#clipPath88)"
             id="g86"><text
   transform="matrix(1,0,0,-1,509.35,679.3)"
   id="text92"><tspan
     x="0 2.6400001"
     y="0"
     id="tspan94"
     style="font-size:12px;font-variant:normal;font-weight:normal;writing-mode:lr-tb;fill:#000000;fill-opacity:1;fill-rule:nonzero;stroke:none;font-family:Helvetica;-inkscape-font-specification:Helvetica">in</tspan></text>

</g></g><g
           id="g96"><g
             clip-path="url(#clipPath100)"
             id="g98"><text
   transform="matrix(1,0,0,-1,518.71,679.3)"
   id="text104"><tspan
     x="0"
     y="0"
     id="tspan106"
     style="font-size:12px;font-variant:normal;font-weight:normal;writing-mode:lr-tb;fill:#000000;fill-opacity:1;fill-rule:nonzero;stroke:none;font-family:Helvetica;-inkscape-font-specification:Helvetica">-</tspan></text>

</g></g><g
           id="g108"><g
             clip-path="url(#clipPath112)"
             id="g110"><text
   transform="matrix(1,0,0,-1,522.67,679.3)"
   id="text116"><tspan
     x="0 9.96 16.667999 23.375999 30.084 36.683998 43.391998"
     y="0"
     id="tspan118"
     style="font-size:12px;font-variant:normal;font-weight:normal;writing-mode:lr-tb;fill:#000000;fill-opacity:1;fill-rule:nonzero;stroke:none;font-family:Helvetica;-inkscape-font-specification:Helvetica">Manager</tspan></text>

</g></g><g
           id="g120"><g
             clip-path="url(#clipPath124)"
             id="g122" /></g></g></g><path
       d="m 448.35,695.15 154.85,0"
       inkscape:connector-curvature="0"
       id="path128"
       style="fill:none;stroke:#000000;stroke-width:0.5;stroke-linecap:round;stroke-linejoin:round;stroke-miterlimit:10;stroke-opacity:1;stroke-dasharray:none" /><path
       d="m 351.5,597.6 155.75,0 0,49.1 -155.75,0 0,-49.1 z"
       inkscape:connector-curvature="0"
       id="path130"
       style="fill:#ffffff;fill-opacity:1;fill-rule:evenodd;stroke:none" /><path
       d="m 351.5,597.6 155.75,0 0,49.1 -155.75,0 0,-49.1 z"
       inkscape:connector-curvature="0"
       id="path132"
       style="fill:none;stroke:#000000;stroke-width:0.5;stroke-linecap:round;stroke-linejoin:miter;stroke-miterlimit:8;stroke-opacity:1;stroke-dasharray:none" /><g
       id="g134"><g
         clip-path="url(#clipPath138)"
         id="g136"><g
           id="g142"><g
             clip-path="url(#clipPath146)"
             id="g144"><text
   transform="matrix(1,0,0,-1,405.05,631.75)"
   id="text150"><tspan
     x="0 8.0279999 10.692 17.364"
     y="0"
     id="tspan152"
     style="font-size:12px;font-variant:normal;font-weight:normal;writing-mode:lr-tb;fill:#000000;fill-opacity:1;fill-rule:nonzero;stroke:none;font-family:Helvetica;-inkscape-font-specification:Helvetica">Plug</tspan></text>

</g></g><g
           id="g154"><g
             clip-path="url(#clipPath158)"
             id="g156"><text
   transform="matrix(1,0,0,-1,429.05,631.75)"
   id="text162"><tspan
     x="0"
     y="0"
     id="tspan164"
     style="font-size:12px;font-variant:normal;font-weight:normal;writing-mode:lr-tb;fill:#000000;fill-opacity:1;fill-rule:nonzero;stroke:none;font-family:Helvetica;-inkscape-font-specification:Helvetica">-</tspan></text>

</g></g><g
           id="g166"><g
             clip-path="url(#clipPath170)"
             id="g168"><text
   transform="matrix(1,0,0,-1,433.01,631.75)"
   id="text174"><tspan
     x="0 2.664 9.3360004 12.708"
     y="0"
     id="tspan176"
     style="font-size:12px;font-variant:normal;font-weight:normal;writing-mode:lr-tb;fill:#000000;fill-opacity:1;fill-rule:nonzero;stroke:none;font-family:Helvetica;-inkscape-font-specification:Helvetica">in A</tspan></text>

</g></g><g
           id="g178"><g
             clip-path="url(#clipPath182)"
             id="g180" /></g><g
           id="g186"><g
             clip-path="url(#clipPath190)"
             id="g188" /></g><g
           id="g194"><g
             clip-path="url(#clipPath198)"
             id="g196"><text
   transform="matrix(1,0,0,-1,385.01,604.15)"
   id="text202"><tspan
     x="0 8.0279999 10.692 17.364"
     y="0"
     id="tspan204"
     style="font-size:12px;font-variant:normal;font-weight:normal;writing-mode:lr-tb;fill:#000000;fill-opacity:1;fill-rule:nonzero;stroke:none;font-family:Helvetica;-inkscape-font-specification:Helvetica">Plug</tspan></text>

</g></g><g
           id="g206"><g
             clip-path="url(#clipPath210)"
             id="g208"><text
   transform="matrix(1,0,0,-1,409.01,604.15)"
   id="text214"><tspan
     x="0"
     y="0"
     id="tspan216"
     style="font-size:12px;font-variant:normal;font-weight:normal;writing-mode:lr-tb;fill:#000000;fill-opacity:1;fill-rule:nonzero;stroke:none;font-family:Helvetica;-inkscape-font-specification:Helvetica">-</tspan></text>

</g></g><g
           id="g218"><g
             clip-path="url(#clipPath222)"
             id="g220"><text
   transform="matrix(1,0,0,-1,412.97,604.15)"
   id="text226"><tspan
     x="0 2.6400001"
     y="0"
     id="tspan228"
     style="font-size:12px;font-variant:normal;font-weight:normal;writing-mode:lr-tb;fill:#000000;fill-opacity:1;fill-rule:nonzero;stroke:none;font-family:Helvetica;-inkscape-font-specification:Helvetica">in</tspan></text>

</g></g><g
           id="g230"><g
             clip-path="url(#clipPath234)"
             id="g232"><text
   transform="matrix(1,0,0,-1,422.33,604.15)"
   id="text238"><tspan
     x="0"
     y="0"
     id="tspan240"
     style="font-size:12px;font-variant:normal;font-weight:normal;writing-mode:lr-tb;fill:#000000;fill-opacity:1;fill-rule:nonzero;stroke:none;font-family:Helvetica;-inkscape-font-specification:Helvetica">-</tspan></text>

</g></g><g
           id="g242"><g
             clip-path="url(#clipPath246)"
             id="g244"><text
   transform="matrix(1,0,0,-1,426.29,604.15)"
   id="text250"><tspan
     x="0 9.96 16.667999 23.375999 30.084 36.683998 43.391998"
     y="0"
     id="tspan252"
     style="font-size:12px;font-variant:normal;font-weight:normal;writing-mode:lr-tb;fill:#000000;fill-opacity:1;fill-rule:nonzero;stroke:none;font-family:Helvetica;-inkscape-font-specification:Helvetica">Manager</tspan></text>

</g></g><g
           id="g254"><g
             clip-path="url(#clipPath258)"
             id="g256" /></g></g></g><path
       d="m 351.5,620 155.75,0"
       inkscape:connector-curvature="0"
       id="path262"
       style="fill:none;stroke:#000000;stroke-width:0.5;stroke-linecap:round;stroke-linejoin:round;stroke-miterlimit:8;stroke-opacity:1;stroke-dasharray:none" /><path
       d="m 351.5,555.35 63.35,0 0,22.4 -63.35,0 0,-22.4 z"
       inkscape:connector-curvature="0"
       id="path264"
       style="fill:#ffffff;fill-opacity:1;fill-rule:evenodd;stroke:none" /><path
       d="m 351.5,555.35 63.35,0 0,22.4 -63.35,0 0,-22.4 z"
       inkscape:connector-curvature="0"
       id="path266"
       style="fill:none;stroke:#000000;stroke-width:0.5;stroke-linecap:round;stroke-linejoin:miter;stroke-miterlimit:8;stroke-opacity:1;stroke-dasharray:none" /><g
       id="g268"><g
         clip-path="url(#clipPath272)"
         id="g270"><g
           id="g276"><g
             clip-path="url(#clipPath280)"
             id="g278"><text
   transform="matrix(1,0,0,-1,354.89,562.63)"
   id="text284"><tspan
     x="0 8.0279999 10.692 17.364"
     y="0"
     id="tspan286"
     style="font-size:12px;font-variant:normal;font-weight:normal;writing-mode:lr-tb;fill:#000000;fill-opacity:1;fill-rule:nonzero;stroke:none;font-family:Helvetica;-inkscape-font-specification:Helvetica">Plug</tspan></text>

</g></g><g
           id="g288"><g
             clip-path="url(#clipPath292)"
             id="g290"><text
   transform="matrix(1,0,0,-1,378.89,562.63)"
   id="text296"><tspan
     x="0"
     y="0"
     id="tspan298"
     style="font-size:12px;font-variant:normal;font-weight:normal;writing-mode:lr-tb;fill:#000000;fill-opacity:1;fill-rule:nonzero;stroke:none;font-family:Helvetica;-inkscape-font-specification:Helvetica">-</tspan></text>

</g></g><g
           id="g300"><g
             clip-path="url(#clipPath304)"
             id="g302"><text
   transform="matrix(1,0,0,-1,382.85,562.63)"
   id="text308"><tspan
     x="0 2.664 9.3360004 12.708 20.736"
     y="0"
     id="tspan310"
     style="font-size:12px;font-variant:normal;font-weight:normal;writing-mode:lr-tb;fill:#000000;fill-opacity:1;fill-rule:nonzero;stroke:none;font-family:Helvetica;-inkscape-font-specification:Helvetica">in AA</tspan></text>

</g></g><g
           id="g312"><g
             clip-path="url(#clipPath316)"
             id="g314" /></g></g></g><path
       d="m 443.9,555.35 63.35,0 0,22.4 -63.35,0 0,-22.4 z"
       inkscape:connector-curvature="0"
       id="path320"
       style="fill:#ffffff;fill-opacity:1;fill-rule:evenodd;stroke:none" /><path
       d="m 443.9,555.35 63.35,0 0,22.4 -63.35,0 0,-22.4 z"
       inkscape:connector-curvature="0"
       id="path322"
       style="fill:none;stroke:#000000;stroke-width:0.5;stroke-linecap:round;stroke-linejoin:miter;stroke-miterlimit:8;stroke-opacity:1;stroke-dasharray:none" /><g
       id="g324"><g
         clip-path="url(#clipPath328)"
         id="g326"><g
           id="g332"><g
             clip-path="url(#clipPath336)"
             id="g334"><text
   transform="matrix(1,0,0,-1,447.29,562.63)"
   id="text340"><tspan
     x="0 8.0279999 10.692 17.364"
     y="0"
     id="tspan342"
     style="font-size:12px;font-variant:normal;font-weight:normal;writing-mode:lr-tb;fill:#000000;fill-opacity:1;fill-rule:nonzero;stroke:none;font-family:Helvetica;-inkscape-font-specification:Helvetica">Plug</tspan></text>

</g></g><g
           id="g344"><g
             clip-path="url(#clipPath348)"
             id="g346"><text
   transform="matrix(1,0,0,-1,471.31,562.63)"
   id="text352"><tspan
     x="0"
     y="0"
     id="tspan354"
     style="font-size:12px;font-variant:normal;font-weight:normal;writing-mode:lr-tb;fill:#000000;fill-opacity:1;fill-rule:nonzero;stroke:none;font-family:Helvetica;-inkscape-font-specification:Helvetica">-</tspan></text>

</g></g><g
           id="g356"><g
             clip-path="url(#clipPath360)"
             id="g358"><text
   transform="matrix(1,0,0,-1,475.27,562.63)"
   id="text364"><tspan
     x="0 2.664 9.3360004 12.708 20.736"
     y="0"
     id="tspan366"
     style="font-size:12px;font-variant:normal;font-weight:normal;writing-mode:lr-tb;fill:#000000;fill-opacity:1;fill-rule:nonzero;stroke:none;font-family:Helvetica;-inkscape-font-specification:Helvetica">in AB</tspan></text>

</g></g><g
           id="g368"><g
             clip-path="url(#clipPath372)"
             id="g370" /></g></g></g><path
       d="m 475.65,577.75 -46.2,19.85"
       inkscape:connector-curvature="0"
       id="path376"
       style="fill:none;stroke:#000000;stroke-width:0.5;stroke-linecap:round;stroke-linejoin:round;stroke-miterlimit:8;stroke-opacity:1;stroke-dasharray:none" /><path
       d="m 514.25,624.3 63.35,0 0,22.4 -63.35,0 0,-22.4 z"
       inkscape:connector-curvature="0"
       id="path378"
       style="fill:#ffffff;fill-opacity:1;fill-rule:evenodd;stroke:none" /><path
       d="m 514.25,624.3 63.35,0 0,22.4 -63.35,0 0,-22.4 z"
       inkscape:connector-curvature="0"
       id="path380"
       style="fill:none;stroke:#000000;stroke-width:0.5;stroke-linecap:round;stroke-linejoin:miter;stroke-miterlimit:8;stroke-opacity:1;stroke-dasharray:none" /><g
       id="g382"><g
         clip-path="url(#clipPath386)"
         id="g384"><g
           id="g390"><g
             clip-path="url(#clipPath394)"
             id="g392"><text
   transform="matrix(1,0,0,-1,518.35,631.63)"
   id="text398"><tspan
     x="0 8.0279999 10.692 17.364"
     y="0"
     id="tspan400"
     style="font-size:12px;font-variant:normal;font-weight:normal;writing-mode:lr-tb;fill:#000000;fill-opacity:1;fill-rule:nonzero;stroke:none;font-family:Helvetica;-inkscape-font-specification:Helvetica">Plug</tspan></text>

</g></g><g
           id="g402"><g
             clip-path="url(#clipPath406)"
             id="g404"><text
   transform="matrix(1,0,0,-1,542.35,631.63)"
   id="text410"><tspan
     x="0"
     y="0"
     id="tspan412"
     style="font-size:12px;font-variant:normal;font-weight:normal;writing-mode:lr-tb;fill:#000000;fill-opacity:1;fill-rule:nonzero;stroke:none;font-family:Helvetica;-inkscape-font-specification:Helvetica">-</tspan></text>

</g></g><g
           id="g414"><g
             clip-path="url(#clipPath418)"
             id="g416"><text
   transform="matrix(1,0,0,-1,546.31,631.63)"
   id="text422"><tspan
     x="0 2.664 9.3360004 12.708 20.736"
     y="0"
     id="tspan424"
     style="font-size:12px;font-variant:normal;font-weight:normal;writing-mode:lr-tb;fill:#000000;fill-opacity:1;fill-rule:nonzero;stroke:none;font-family:Helvetica;-inkscape-font-specification:Helvetica">in B1</tspan></text>

</g></g><g
           id="g426"><g
             clip-path="url(#clipPath430)"
             id="g428" /></g></g></g><path
       d="m 584.6,624.3 63.35,0 0,22.4 -63.35,0 0,-22.4 z"
       inkscape:connector-curvature="0"
       id="path434"
       style="fill:#ffffff;fill-opacity:1;fill-rule:evenodd;stroke:none" /><path
       d="m 584.6,624.3 63.35,0 0,22.4 -63.35,0 0,-22.4 z"
       inkscape:connector-curvature="0"
       id="path436"
       style="fill:none;stroke:#000000;stroke-width:0.5;stroke-linecap:round;stroke-linejoin:miter;stroke-miterlimit:8;stroke-opacity:1;stroke-dasharray:none" /><g
       id="g438"><g
         clip-path="url(#clipPath442)"
         id="g440"><g
           id="g446"><g
             clip-path="url(#clipPath450)"
             id="g448"><text
   transform="matrix(1,0,0,-1,588.67,631.63)"
   id="text454"><tspan
     x="0 8.0279999 10.692 17.364"
     y="0"
     id="tspan456"
     style="font-size:12px;font-variant:normal;font-weight:normal;writing-mode:lr-tb;fill:#000000;fill-opacity:1;fill-rule:nonzero;stroke:none;font-family:Helvetica;-inkscape-font-specification:Helvetica">Plug</tspan></text>

</g></g><g
           id="g458"><g
             clip-path="url(#clipPath462)"
             id="g460"><text
   transform="matrix(1,0,0,-1,612.67,631.63)"
   id="text466"><tspan
     x="0"
     y="0"
     id="tspan468"
     style="font-size:12px;font-variant:normal;font-weight:normal;writing-mode:lr-tb;fill:#000000;fill-opacity:1;fill-rule:nonzero;stroke:none;font-family:Helvetica;-inkscape-font-specification:Helvetica">-</tspan></text>

</g></g><g
           id="g470"><g
             clip-path="url(#clipPath474)"
             id="g472"><text
   transform="matrix(1,0,0,-1,616.63,631.63)"
   id="text478"><tspan
     x="0 2.664 9.3360004 12.708 20.736"
     y="0"
     id="tspan480"
     style="font-size:12px;font-variant:normal;font-weight:normal;writing-mode:lr-tb;fill:#000000;fill-opacity:1;fill-rule:nonzero;stroke:none;font-family:Helvetica;-inkscape-font-specification:Helvetica">in B1</tspan></text>

</g></g><g
           id="g482"><g
             clip-path="url(#clipPath486)"
             id="g484" /></g></g></g><path
       d="m 546,646.7 13.9,26"
       inkscape:connector-curvature="0"
       id="path490"
       style="fill:none;stroke:#000000;stroke-width:0.5;stroke-linecap:round;stroke-linejoin:round;stroke-miterlimit:8;stroke-opacity:1;stroke-dasharray:none" /><path
       d="m 491.47,676.6 c -1.97,0 -3.57,-1.6 -3.57,-3.57 0,-1.98 1.6,-3.58 3.57,-3.58 1.98,0 3.58,1.6 3.58,3.58 0,1.97 -1.6,3.57 -3.58,3.57 z"
       inkscape:connector-curvature="0"
       id="path492"
       style="fill:#000000;fill-opacity:1;fill-rule:evenodd;stroke:none" /><path
       d="m 491.47,676.6 c -1.97,0 -3.57,-1.6 -3.57,-3.57 0,-1.98 1.6,-3.58 3.57,-3.58 1.98,0 3.58,1.6 3.58,3.58 0,1.97 -1.6,3.57 -3.58,3.57 z"
       inkscape:connector-curvature="0"
       id="path494"
       style="fill:none;stroke:#000000;stroke-width:0.75;stroke-linecap:round;stroke-linejoin:round;stroke-miterlimit:8;stroke-opacity:1;stroke-dasharray:none" /><path
       d="m 559.92,676.6 c -1.97,0 -3.57,-1.6 -3.57,-3.57 0,-1.98 1.6,-3.58 3.57,-3.58 1.98,0 3.58,1.6 3.58,3.58 0,1.97 -1.6,3.57 -3.58,3.57 z"
       inkscape:connector-curvature="0"
       id="path496"
       style="fill:#000000;fill-opacity:1;fill-rule:evenodd;stroke:none" /><path
       d="m 559.92,676.6 c -1.97,0 -3.57,-1.6 -3.57,-3.57 0,-1.98 1.6,-3.58 3.57,-3.58 1.98,0 3.58,1.6 3.58,3.58 0,1.97 -1.6,3.57 -3.58,3.57 z"
       inkscape:connector-curvature="0"
       id="path498"
       style="fill:none;stroke:#000000;stroke-width:0.75;stroke-linecap:round;stroke-linejoin:round;stroke-miterlimit:8;stroke-opacity:1;stroke-dasharray:none" /><path
       d="m 429.58,601.4 c -1.98,0 -3.58,-1.6 -3.58,-3.57 0,-1.98 1.6,-3.58 3.58,-3.58 1.97,0 3.57,1.6 3.57,3.58 0,1.97 -1.6,3.57 -3.57,3.57 z"
       inkscape:connector-curvature="0"
       id="path500"
       style="fill:#000000;fill-opacity:1;fill-rule:evenodd;stroke:none" /><path
       d="m 429.58,601.4 c -1.98,0 -3.58,-1.6 -3.58,-3.57 0,-1.98 1.6,-3.58 3.58,-3.58 1.97,0 3.57,1.6 3.57,3.58 0,1.97 -1.6,3.57 -3.57,3.57 z"
       inkscape:connector-curvature="0"
       id="path502"
       style="fill:none;stroke:#000000;stroke-width:0.75;stroke-linecap:round;stroke-linejoin:round;stroke-miterlimit:8;stroke-opacity:1;stroke-dasharray:none" /><path
       d="m 616.35,646.7 -56.45,26"
       inkscape:connector-curvature="0"
       id="path504"
       style="fill:none;stroke:#000000;stroke-width:0.5;stroke-linecap:round;stroke-linejoin:round;stroke-miterlimit:8;stroke-opacity:1;stroke-dasharray:none" /><path
       d="m 429.45,646.7 61.95,26"
       inkscape:connector-curvature="0"
       id="path506"
       style="fill:none;stroke:#000000;stroke-width:0.5;stroke-linecap:round;stroke-linejoin:round;stroke-miterlimit:8;stroke-opacity:1;stroke-dasharray:none" /><path
       d="m 383.25,577.75 46.2,19.85"
       inkscape:connector-curvature="0"
       id="path508"
       style="fill:none;stroke:#000000;stroke-width:0.5;stroke-linecap:round;stroke-linejoin:round;stroke-miterlimit:8;stroke-opacity:1;stroke-dasharray:none" /></g></svg>