<?xml version="1.0" encoding="UTF-8" standalone="no"?>
<!-- Created with Inkscape (http://www.inkscape.org/) -->

<svg
   xmlns:dc="http://purl.org/dc/elements/1.1/"
   xmlns:cc="http://creativecommons.org/ns#"
   xmlns:rdf="http://www.w3.org/1999/02/22-rdf-syntax-ns#"
   xmlns:svg="http://www.w3.org/2000/svg"
   xmlns="http://www.w3.org/2000/svg"
   xmlns:sodipodi="http://sodipodi.sourceforge.net/DTD/sodipodi-0.dtd"
   xmlns:inkscape="http://www.inkscape.org/namespaces/inkscape"
   version="1.1"
   width="209.0625"
   height="187.25497"
   id="svg2"
   xml:space="preserve"
   inkscape:version="0.48.4 r9939"
   sodipodi:docname="Bild 5-1 Schichtenmodell.svg"><sodipodi:namedview
     pagecolor="#ffffff"
     bordercolor="#666666"
     borderopacity="1"
     objecttolerance="10"
     gridtolerance="10"
     guidetolerance="10"
     inkscape:pageopacity="0"
     inkscape:pageshadow="2"
     inkscape:window-width="640"
     inkscape:window-height="480"
     id="namedview137"
     showgrid="false"
     inkscape:zoom="0.18730159"
     inkscape:cx="138.65625"
     inkscape:cy="84.12998"
     inkscape:window-x="0"
     inkscape:window-y="0"
     inkscape:window-maximized="0"
     inkscape:current-layer="svg2" /><metadata
     id="metadata8"><rdf:RDF><cc:Work
         rdf:about=""><dc:format>image/svg+xml</dc:format><dc:type
           rdf:resource="http://purl.org/dc/dcmitype/StillImage" /></cc:Work></rdf:RDF></metadata><defs
     id="defs6"><clipPath
       id="clipPath20"><path
         d="m 394.25,458.47 165.63,0 0,24.96 -165.63,0 0,-24.96 z"
         inkscape:connector-curvature="0"
         id="path22" /></clipPath><clipPath
       id="clipPath28"><path
         d="m 394.25,458.47 165.62,0 0,24.96 -165.62,0 0,-24.96 z"
         inkscape:connector-curvature="0"
         id="path30" /></clipPath><clipPath
       id="clipPath36"><path
         d="m 394.25,458.47 165.62,0 0,24.96 -165.62,0 0,-24.96 z"
         inkscape:connector-curvature="0"
         id="path38" /></clipPath><clipPath
       id="clipPath48"><path
         d="m 394.25,458.47 165.62,0 0,24.96 -165.62,0 0,-24.96 z"
         inkscape:connector-curvature="0"
         id="path50" /></clipPath><clipPath
       id="clipPath60"><path
         d="m 394.25,458.47 165.62,0 0,24.96 -165.62,0 0,-24.96 z"
         inkscape:connector-curvature="0"
         id="path62" /></clipPath><clipPath
       id="clipPath72"><path
         d="m 394.25,458.47 165.62,0 0,24.96 -165.62,0 0,-24.96 z"
         inkscape:connector-curvature="0"
         id="path74" /></clipPath><clipPath
       id="clipPath84"><path
         d="m 394.25,491.47 165.63,0 0,24.96 -165.63,0 0,-24.96 z"
         inkscape:connector-curvature="0"
         id="path86" /></clipPath><clipPath
       id="clipPath92"><path
         d="m 394.25,491.47 165.62,0 0,24.96 -165.62,0 0,-24.96 z"
         inkscape:connector-curvature="0"
         id="path94" /></clipPath><clipPath
       id="clipPath100"><path
         d="m 394.25,491.47 165.62,0 0,24.96 -165.62,0 0,-24.96 z"
         inkscape:connector-curvature="0"
         id="path102" /></clipPath><clipPath
       id="clipPath112"><path
         d="m 394.25,491.47 165.62,0 0,24.96 -165.62,0 0,-24.96 z"
         inkscape:connector-curvature="0"
         id="path114" /></clipPath><clipPath
       id="clipPath124"><path
         d="m 394.25,524.47 165.63,0 0,24.96 -165.63,0 0,-24.96 z"
         inkscape:connector-curvature="0"
         id="path126" /></clipPath><clipPath
       id="clipPath132"><path
         d="m 394.25,524.47 165.62,0 0,24.96 -165.62,0 0,-24.96 z"
         inkscape:connector-curvature="0"
         id="path134" /></clipPath><clipPath
       id="clipPath140"><path
         d="m 394.25,524.47 165.62,0 0,24.96 -165.62,0 0,-24.96 z"
         inkscape:connector-curvature="0"
         id="path142" /></clipPath><clipPath
       id="clipPath152"><path
         d="m 394.25,524.47 165.62,0 0,24.96 -165.62,0 0,-24.96 z"
         inkscape:connector-curvature="0"
         id="path154" /></clipPath><clipPath
       id="clipPath162"><path
         d="m 459.05,561.55 45.03,0 0,19.8 -45.03,0 0,-19.8 z"
         inkscape:connector-curvature="0"
         id="path164" /></clipPath><clipPath
       id="clipPath170"><path
         d="m 459.05,561.55 45.024,0 0,19.8 -45.024,0 0,-19.8 z"
         inkscape:connector-curvature="0"
         id="path172" /></clipPath><clipPath
       id="clipPath182"><path
         d="m 459.05,561.55 45.024,0 0,19.8 -45.024,0 0,-19.8 z"
         inkscape:connector-curvature="0"
         id="path184" /></clipPath><clipPath
       id="clipPath192"><path
         d="m 456.77,563.11 45.03,0 0,19.68 -45.03,0 0,-19.68 z"
         inkscape:connector-curvature="0"
         id="path194" /></clipPath><clipPath
       id="clipPath200"><path
         d="m 456.77,563.11 45.024,0 0,19.68 -45.024,0 0,-19.68 z"
         inkscape:connector-curvature="0"
         id="path202" /></clipPath><clipPath
       id="clipPath212"><path
         d="m 456.77,563.11 45.024,0 0,19.68 -45.024,0 0,-19.68 z"
         inkscape:connector-curvature="0"
         id="path214" /></clipPath><clipPath
       id="clipPath222"><path
         d="m 456.77,563.11 45.03,0 0,19.68 -45.03,0 0,-19.68 z"
         inkscape:connector-curvature="0"
         id="path224" /></clipPath><clipPath
       id="clipPath230"><path
         d="m 456.77,563.11 45.024,0 0,19.68 -45.024,0 0,-19.68 z"
         inkscape:connector-curvature="0"
         id="path232" /></clipPath><clipPath
       id="clipPath242"><path
         d="m 456.77,563.11 45.024,0 0,19.68 -45.024,0 0,-19.68 z"
         inkscape:connector-curvature="0"
         id="path244" /></clipPath><clipPath
       id="clipPath250"><path
         d="m 456.77,435.52 45.03,0 0,19.83 -45.03,0 0,-19.83 z"
         inkscape:connector-curvature="0"
         id="path252" /></clipPath><clipPath
       id="clipPath258"><path
         d="m 456.77,435.53 45.024,0 0,19.824 -45.024,0 0,-19.824 z"
         inkscape:connector-curvature="0"
         id="path260" /></clipPath><clipPath
       id="clipPath270"><path
         d="m 456.77,435.53 45.024,0 0,19.824 -45.024,0 0,-19.824 z"
         inkscape:connector-curvature="0"
         id="path272" /></clipPath></defs><g
     transform="matrix(1.25,0,0,-1.25,-491.71875,733.125)"
     id="g10"><path
       d="m 393.75,454.5 166.5,0 0,33 -166.5,0 0,-33 z"
       inkscape:connector-curvature="0"
       id="path12"
       style="fill:#ffffff;fill-opacity:1;fill-rule:evenodd;stroke:none" /><path
       d="m 393.75,454.5 166.5,0 0,33 -166.5,0 0,-33 z"
       inkscape:connector-curvature="0"
       id="path14"
       style="fill:none;stroke:#000000;stroke-width:0.75;stroke-linecap:round;stroke-linejoin:miter;stroke-miterlimit:10;stroke-opacity:1;stroke-dasharray:none" /><g
       id="g16"><g
         clip-path="url(#clipPath20)"
         id="g18"><g
           id="g24"><g
             clip-path="url(#clipPath28)"
             id="g26" /></g><g
           id="g32"><g
             clip-path="url(#clipPath36)"
             id="g34"><text
   transform="matrix(1,0,0,-1,447.05,466.51)"
   id="text40"><tspan
     x="0 8.0279999 14.028 20.736 23.4 29.4 36.071999 39.444 42.683998"
     y="0"
     id="tspan42"
     style="font-size:12px;font-variant:normal;font-weight:normal;writing-mode:lr-tb;fill:#000000;fill-opacity:1;fill-rule:nonzero;stroke:none;font-family:Helvetica;-inkscape-font-specification:Helvetica">Schicht n</tspan></text>

</g></g><g
           id="g44"><g
             clip-path="url(#clipPath48)"
             id="g46"><text
   transform="matrix(1,0,0,-1,496.51,466.51)"
   id="text52"><tspan
     x="0"
     y="0"
     id="tspan54"
     style="font-size:12px;font-variant:normal;font-weight:normal;writing-mode:lr-tb;fill:#000000;fill-opacity:1;fill-rule:nonzero;stroke:none;font-family:Helvetica;-inkscape-font-specification:Helvetica">-</tspan></text>

</g></g><g
           id="g56"><g
             clip-path="url(#clipPath60)"
             id="g58"><text
   transform="matrix(1,0,0,-1,500.47,466.51)"
   id="text64"><tspan
     x="0"
     y="0"
     id="tspan66"
     style="font-size:12px;font-variant:normal;font-weight:normal;writing-mode:lr-tb;fill:#000000;fill-opacity:1;fill-rule:nonzero;stroke:none;font-family:Helvetica;-inkscape-font-specification:Helvetica">1</tspan></text>

</g></g><g
           id="g68"><g
             clip-path="url(#clipPath72)"
             id="g70" /></g></g></g><path
       d="m 393.75,487.5 166.5,0 0,33 -166.5,0 0,-33 z"
       inkscape:connector-curvature="0"
       id="path76"
       style="fill:#ffffff;fill-opacity:1;fill-rule:evenodd;stroke:none" /><path
       d="m 393.75,487.5 166.5,0 0,33 -166.5,0 0,-33 z"
       inkscape:connector-curvature="0"
       id="path78"
       style="fill:none;stroke:#000000;stroke-width:0.75;stroke-linecap:round;stroke-linejoin:miter;stroke-miterlimit:10;stroke-opacity:1;stroke-dasharray:none" /><g
       id="g80"><g
         clip-path="url(#clipPath84)"
         id="g82"><g
           id="g88"><g
             clip-path="url(#clipPath92)"
             id="g90" /></g><g
           id="g96"><g
             clip-path="url(#clipPath100)"
             id="g98"><text
   transform="matrix(1,0,0,-1,452.45,499.51)"
   id="text104"><tspan
     x="0 8.0279999 14.028 20.736 23.4 29.4 36.071999 39.444 42.683998"
     y="0"
     id="tspan106"
     style="font-size:12px;font-variant:normal;font-weight:normal;writing-mode:lr-tb;fill:#000000;fill-opacity:1;fill-rule:nonzero;stroke:none;font-family:Helvetica;-inkscape-font-specification:Helvetica">Schicht n</tspan></text>

</g></g><g
           id="g108"><g
             clip-path="url(#clipPath112)"
             id="g110" /></g></g></g><path
       d="m 393.75,520.5 166.5,0 0,33 -166.5,0 0,-33 z"
       inkscape:connector-curvature="0"
       id="path116"
       style="fill:#ffffff;fill-opacity:1;fill-rule:evenodd;stroke:none" /><path
       d="m 393.75,520.5 166.5,0 0,33 -166.5,0 0,-33 z"
       inkscape:connector-curvature="0"
       id="path118"
       style="fill:none;stroke:#000000;stroke-width:0.75;stroke-linecap:round;stroke-linejoin:miter;stroke-miterlimit:10;stroke-opacity:1;stroke-dasharray:none" /><g
       id="g120"><g
         clip-path="url(#clipPath124)"
         id="g122"><g
           id="g128"><g
             clip-path="url(#clipPath132)"
             id="g130" /></g><g
           id="g136"><g
             clip-path="url(#clipPath140)"
             id="g138"><text
   transform="matrix(1,0,0,-1,445.61,532.51)"
   id="text144"><tspan
     x="0 8.0279999 14.028 20.736 23.4 29.4 36.071999 39.444 42.683998 49.391998 56.352001"
     y="0"
     id="tspan146"
     style="font-size:12px;font-variant:normal;font-weight:normal;writing-mode:lr-tb;fill:#000000;fill-opacity:1;fill-rule:nonzero;stroke:none;font-family:Helvetica;-inkscape-font-specification:Helvetica">Schicht n+1</tspan></text>

</g></g><g
           id="g148"><g
             clip-path="url(#clipPath152)"
             id="g150" /></g></g></g><path
       d="m 459,558 45,0 0,27 -45,0 0,-27 z"
       inkscape:connector-curvature="0"
       id="path156"
       style="fill:#ffffff;fill-opacity:1;fill-rule:evenodd;stroke:none" /><g
       id="g158"><g
         clip-path="url(#clipPath162)"
         id="g160"><g
           id="g166"><g
             clip-path="url(#clipPath170)"
             id="g168"><text
   transform="matrix(1,0,0,-1,466.25,562.99)"
   id="text174"><tspan
     x="0 5.0100002 10.02 15.09012 20.01996"
     y="0"
     id="tspan176"
     style="font-size:20.04000092px;font-variant:normal;font-weight:normal;writing-mode:lr-tb;fill:#000000;fill-opacity:1;fill-rule:nonzero;stroke:none;font-family:Times New Roman;-inkscape-font-specification:Times-Roman">. . .</tspan></text>

</g></g><g
           id="g178"><g
             clip-path="url(#clipPath182)"
             id="g180" /></g></g></g><path
       d="m 456.75,559.5 45,0 0,27 -45,0 0,-27 z"
       inkscape:connector-curvature="0"
       id="path186"
       style="fill:#ffffff;fill-opacity:1;fill-rule:evenodd;stroke:none" /><g
       id="g188"><g
         clip-path="url(#clipPath192)"
         id="g190"><g
           id="g196"><g
             clip-path="url(#clipPath200)"
             id="g198"><text
   transform="matrix(1,0,0,-1,463.97,564.43)"
   id="text204"><tspan
     x="0 5.0100002 10.02 15.09012 20.01996"
     y="0"
     id="tspan206"
     style="font-size:20.04000092px;font-variant:normal;font-weight:normal;writing-mode:lr-tb;fill:#000000;fill-opacity:1;fill-rule:nonzero;stroke:none;font-family:Times New Roman;-inkscape-font-specification:Times-Roman">. . .</tspan></text>

</g></g><g
           id="g208"><g
             clip-path="url(#clipPath212)"
             id="g210" /></g></g></g><path
       d="m 456.75,559.5 45,0 0,27 -45,0 0,-27 z"
       inkscape:connector-curvature="0"
       id="path216"
       style="fill:#ffffff;fill-opacity:1;fill-rule:evenodd;stroke:none" /><g
       id="g218"><g
         clip-path="url(#clipPath222)"
         id="g220"><g
           id="g226"><g
             clip-path="url(#clipPath230)"
             id="g228"><text
   transform="matrix(1,0,0,-1,463.97,564.43)"
   id="text234"><tspan
     x="0 5.0100002 10.02 15.09012 20.01996"
     y="0"
     id="tspan236"
     style="font-size:20.04000092px;font-variant:normal;font-weight:normal;writing-mode:lr-tb;fill:#000000;fill-opacity:1;fill-rule:nonzero;stroke:none;font-family:Times New Roman;-inkscape-font-specification:Times-Roman">. . .</tspan></text>

</g></g><g
           id="g238"><g
             clip-path="url(#clipPath242)"
             id="g240" /></g></g></g><g
       id="g246"><g
         clip-path="url(#clipPath250)"
         id="g248"><g
           id="g254"><g
             clip-path="url(#clipPath258)"
             id="g256"><text
   transform="matrix(1,0,0,-1,463.97,436.97)"
   id="text262"><tspan
     x="0 5.0100002 10.02 15.09012 20.01996"
     y="0"
     id="tspan264"
     style="font-size:20.04000092px;font-variant:normal;font-weight:normal;writing-mode:lr-tb;fill:#000000;fill-opacity:1;fill-rule:nonzero;stroke:none;font-family:Times New Roman;-inkscape-font-specification:Times-Roman">. . .</tspan></text>

</g></g><g
           id="g266"><g
             clip-path="url(#clipPath270)"
             id="g268" /></g></g></g></g></svg>