<?xml version="1.0" encoding="UTF-8" standalone="no"?>
<!-- Created with Inkscape (http://www.inkscape.org/) -->

<svg
   xmlns:dc="http://purl.org/dc/elements/1.1/"
   xmlns:cc="http://creativecommons.org/ns#"
   xmlns:rdf="http://www.w3.org/1999/02/22-rdf-syntax-ns#"
   xmlns:svg="http://www.w3.org/2000/svg"
   xmlns="http://www.w3.org/2000/svg"
   xmlns:sodipodi="http://sodipodi.sourceforge.net/DTD/sodipodi-0.dtd"
   xmlns:inkscape="http://www.inkscape.org/namespaces/inkscape"
   version="1.1"
   width="516.70837"
   height="279.15625"
   id="svg2"
   xml:space="preserve"
   inkscape:version="0.48.4 r9939"
   sodipodi:docname="Bild 5-34 JAX-WS Sequenzdiagramm.svg"><sodipodi:namedview
     pagecolor="#ffffff"
     bordercolor="#666666"
     borderopacity="1"
     objecttolerance="10"
     gridtolerance="10"
     guidetolerance="10"
     inkscape:pageopacity="0"
     inkscape:pageshadow="2"
     inkscape:window-width="640"
     inkscape:window-height="480"
     id="namedview206"
     showgrid="false"
     inkscape:zoom="0.18730159"
     inkscape:cx="140.5"
     inkscape:cy="67.28125"
     inkscape:window-x="0"
     inkscape:window-y="0"
     inkscape:window-maximized="0"
     inkscape:current-layer="svg2" /><metadata
     id="metadata8"><rdf:RDF><cc:Work
         rdf:about=""><dc:format>image/svg+xml</dc:format><dc:type
           rdf:resource="http://purl.org/dc/dcmitype/StillImage" /></cc:Work></rdf:RDF></metadata><defs
     id="defs6"><clipPath
       id="clipPath18"><path
         d="m 392.45,652.03 92.19,0 0,20.895 -92.19,0 0,-20.895 z"
         inkscape:connector-curvature="0"
         id="path20" /></clipPath><clipPath
       id="clipPath26"><path
         d="m 392.45,652.03 92.184,0 0,20.904 -92.184,0 0,-20.904 z"
         inkscape:connector-curvature="0"
         id="path28" /></clipPath><clipPath
       id="clipPath34"><path
         d="m 392.45,652.03 92.184,0 0,20.904 -92.184,0 0,-20.904 z"
         inkscape:connector-curvature="0"
         id="path36" /></clipPath><clipPath
       id="clipPath46"><path
         d="m 392.45,652.03 92.184,0 0,20.904 -92.184,0 0,-20.904 z"
         inkscape:connector-curvature="0"
         id="path48" /></clipPath><clipPath
       id="clipPath58"><path
         d="m 392.45,652.03 92.184,0 0,20.904 -92.184,0 0,-20.904 z"
         inkscape:connector-curvature="0"
         id="path60" /></clipPath><clipPath
       id="clipPath68"><path
         d="m 706.17,652.03 80.52,0 0,20.895 -80.52,0 0,-20.895 z"
         inkscape:connector-curvature="0"
         id="path70" /></clipPath><clipPath
       id="clipPath76"><path
         d="m 706.18,652.03 80.52,0 0,20.904 -80.52,0 0,-20.904 z"
         inkscape:connector-curvature="0"
         id="path78" /></clipPath><clipPath
       id="clipPath84"><path
         d="m 706.18,652.03 80.52,0 0,20.904 -80.52,0 0,-20.904 z"
         inkscape:connector-curvature="0"
         id="path86" /></clipPath><clipPath
       id="clipPath96"><path
         d="m 706.18,652.03 80.52,0 0,20.904 -80.52,0 0,-20.904 z"
         inkscape:connector-curvature="0"
         id="path98" /></clipPath><clipPath
       id="clipPath108"><path
         d="m 706.18,652.03 80.52,0 0,20.904 -80.52,0 0,-20.904 z"
         inkscape:connector-curvature="0"
         id="path110" /></clipPath><clipPath
       id="clipPath118"><path
         d="m 599.24,548.23 63.615,0 0,21 -63.615,0 0,-21 z"
         inkscape:connector-curvature="0"
         id="path120" /></clipPath><clipPath
       id="clipPath126"><path
         d="m 599.23,548.23 63.624,0 0,21 -63.624,0 0,-21 z"
         inkscape:connector-curvature="0"
         id="path128" /></clipPath><clipPath
       id="clipPath134"><path
         d="m 599.23,548.23 63.624,0 0,21 -63.624,0 0,-21 z"
         inkscape:connector-curvature="0"
         id="path136" /></clipPath><clipPath
       id="clipPath146"><path
         d="m 599.23,548.23 63.624,0 0,21 -63.624,0 0,-21 z"
         inkscape:connector-curvature="0"
         id="path148" /></clipPath><clipPath
       id="clipPath180"><path
         d="m 452.33,610.99 69.27,0 0,13.68 -69.27,0 0,-13.68 z"
         inkscape:connector-curvature="0"
         id="path182" /></clipPath><clipPath
       id="clipPath188"><path
         d="m 452.33,610.99 69.264,0 0,13.68 -69.264,0 0,-13.68 z"
         inkscape:connector-curvature="0"
         id="path190" /></clipPath><clipPath
       id="clipPath200"><path
         d="m 452.33,610.99 69.264,0 0,13.68 -69.264,0 0,-13.68 z"
         inkscape:connector-curvature="0"
         id="path202" /></clipPath><clipPath
       id="clipPath212"><path
         d="m 452.33,610.99 69.264,0 0,13.68 -69.264,0 0,-13.68 z"
         inkscape:connector-curvature="0"
         id="path214" /></clipPath><clipPath
       id="clipPath224"><path
         d="m 447.89,589.63 211.13,0 0,13.68 -211.13,0 0,-13.68 z"
         inkscape:connector-curvature="0"
         id="path226" /></clipPath><clipPath
       id="clipPath232"><path
         d="m 447.89,589.63 211.13,0 0,13.68 -211.13,0 0,-13.68 z"
         inkscape:connector-curvature="0"
         id="path234" /></clipPath><clipPath
       id="clipPath244"><path
         d="m 447.89,589.63 211.13,0 0,13.68 -211.13,0 0,-13.68 z"
         inkscape:connector-curvature="0"
         id="path246" /></clipPath><clipPath
       id="clipPath266"><path
         d="m 760.29,583.15 69.24,0 0,20.16 -69.24,0 0,-20.16 z"
         inkscape:connector-curvature="0"
         id="path268" /></clipPath><clipPath
       id="clipPath274"><path
         d="m 760.3,583.15 69.24,0 0,20.16 -69.24,0 0,-20.16 z"
         inkscape:connector-curvature="0"
         id="path276" /></clipPath><clipPath
       id="clipPath286"><path
         d="m 760.3,583.15 69.24,0 0,20.16 -69.24,0 0,-20.16 z"
         inkscape:connector-curvature="0"
         id="path288" /></clipPath><clipPath
       id="clipPath298"><path
         d="m 760.3,583.15 69.24,0 0,20.16 -69.24,0 0,-20.16 z"
         inkscape:connector-curvature="0"
         id="path300" /></clipPath><clipPath
       id="clipPath310"><path
         d="m 760.3,583.15 69.24,0 0,20.16 -69.24,0 0,-20.16 z"
         inkscape:connector-curvature="0"
         id="path312" /></clipPath><clipPath
       id="clipPath320"><path
         d="m 670.89,555.55 69.24,0 0,13.68 -69.24,0 0,-13.68 z"
         inkscape:connector-curvature="0"
         id="path322" /></clipPath><clipPath
       id="clipPath328"><path
         d="m 670.9,555.55 69.24,0 0,13.68 -69.24,0 0,-13.68 z"
         inkscape:connector-curvature="0"
         id="path330" /></clipPath><clipPath
       id="clipPath340"><path
         d="m 670.9,555.55 69.24,0 0,13.68 -69.24,0 0,-13.68 z"
         inkscape:connector-curvature="0"
         id="path342" /></clipPath><clipPath
       id="clipPath354"><path
         d="m 651.32,527.83 69.255,0 0,13.68 -69.255,0 0,-13.68 z"
         inkscape:connector-curvature="0"
         id="path356" /></clipPath><clipPath
       id="clipPath362"><path
         d="m 651.31,527.83 69.264,0 0,13.68 -69.264,0 0,-13.68 z"
         inkscape:connector-curvature="0"
         id="path364" /></clipPath><clipPath
       id="clipPath374"><path
         d="m 651.31,527.83 69.264,0 0,13.68 -69.264,0 0,-13.68 z"
         inkscape:connector-curvature="0"
         id="path376" /></clipPath><clipPath
       id="clipPath384"><path
         d="m 447.89,517.15 69.27,0 0,13.68 -69.27,0 0,-13.68 z"
         inkscape:connector-curvature="0"
         id="path386" /></clipPath><clipPath
       id="clipPath392"><path
         d="m 447.89,517.15 69.264,0 0,13.68 -69.264,0 0,-13.68 z"
         inkscape:connector-curvature="0"
         id="path394" /></clipPath><clipPath
       id="clipPath404"><path
         d="m 447.89,517.15 69.264,0 0,13.68 -69.264,0 0,-13.68 z"
         inkscape:connector-curvature="0"
         id="path406" /></clipPath></defs><g
     transform="matrix(1.25,0,0,-1.25,-489.875,841.875)"
     id="g10"><path
       d="m 392.4,652 92.25,0 0,21 -92.25,0 0,-21 z"
       inkscape:connector-curvature="0"
       id="path12"
       style="fill:none;stroke:#000000;stroke-width:1;stroke-linecap:round;stroke-linejoin:miter;stroke-miterlimit:10;stroke-opacity:1;stroke-dasharray:none" /><g
       id="g14"><g
         clip-path="url(#clipPath18)"
         id="g16"><g
           id="g22"><g
             clip-path="url(#clipPath26)"
             id="g24" /></g><g
           id="g30"><g
             clip-path="url(#clipPath34)"
             id="g32"><text
   transform="matrix(1,0,0,-1,407.45,660.67)"
   id="text38"><tspan
     x="0"
     y="0"
     id="tspan40"
     style="font-size:8.03999996px;font-variant:normal;font-weight:bold;writing-mode:lr-tb;fill:#000000;fill-opacity:1;fill-rule:nonzero;stroke:none;font-family:Helvetica;-inkscape-font-specification:Helvetica-Bold">:</tspan></text>

</g></g><g
           id="g42"><g
             clip-path="url(#clipPath46)"
             id="g44"><text
   transform="matrix(1,0,0,-1,410.21,660.67)"
   id="text50"><tspan
     x="0 5.3948398 9.8329201 12.96048 17.26992 19.54524 23.98332 28.4214 32.859482 37.771919 42.684361 44.96772 49.4058 52.042919 56.480999"
     y="0"
     id="tspan52"
     style="font-size:8.03999996px;font-variant:normal;font-weight:bold;writing-mode:lr-tb;fill:#000000;fill-opacity:1;fill-rule:nonzero;stroke:none;font-family:Helvetica;-inkscape-font-specification:Helvetica-Bold">Serviceanbieter</tspan></text>

</g></g><g
           id="g54"><g
             clip-path="url(#clipPath58)"
             id="g56" /></g></g></g><path
       d="m 706.1,652 80.55,0 0,21 -80.55,0 0,-21 z"
       inkscape:connector-curvature="0"
       id="path62"
       style="fill:none;stroke:#000000;stroke-width:1;stroke-linecap:round;stroke-linejoin:miter;stroke-miterlimit:10;stroke-opacity:1;stroke-dasharray:none" /><g
       id="g64"><g
         clip-path="url(#clipPath68)"
         id="g66"><g
           id="g72"><g
             clip-path="url(#clipPath76)"
             id="g74" /></g><g
           id="g80"><g
             clip-path="url(#clipPath84)"
             id="g82"><text
   transform="matrix(1,0,0,-1,718.9,660.67)"
   id="text88"><tspan
     x="0"
     y="0"
     id="tspan90"
     style="font-size:8.03999996px;font-variant:normal;font-weight:bold;writing-mode:lr-tb;fill:#000000;fill-opacity:1;fill-rule:nonzero;stroke:none;font-family:Helvetica;-inkscape-font-specification:Helvetica-Bold">:</tspan></text>

</g></g><g
           id="g92"><g
             clip-path="url(#clipPath96)"
             id="g94"><text
   transform="matrix(1,0,0,-1,721.66,660.67)"
   id="text100"><tspan
     x="0 5.3948398 9.8329201 12.96048 17.26992 19.54524 23.98332 28.4214 33.333839 38.246281 40.778881 44.847118 49.285198"
     y="0"
     id="tspan102"
     style="font-size:8.03999996px;font-variant:normal;font-weight:bold;writing-mode:lr-tb;fill:#000000;fill-opacity:1;fill-rule:nonzero;stroke:none;font-family:Helvetica;-inkscape-font-specification:Helvetica-Bold">Servicenutzer</tspan></text>

</g></g><g
           id="g104"><g
             clip-path="url(#clipPath108)"
             id="g106" /></g></g></g><path
       d="m 599.15,548.25 63.6,0 0,21 -63.6,0 0,-21 z"
       inkscape:connector-curvature="0"
       id="path112"
       style="fill:none;stroke:#000000;stroke-width:1;stroke-linecap:round;stroke-linejoin:miter;stroke-miterlimit:10;stroke-opacity:1;stroke-dasharray:none" /><g
       id="g114"><g
         clip-path="url(#clipPath118)"
         id="g116"><g
           id="g122"><g
             clip-path="url(#clipPath126)"
             id="g124" /></g><g
           id="g130"><g
             clip-path="url(#clipPath134)"
             id="g132"><text
   transform="matrix(1,0,0,-1,608.35,556.87)"
   id="text138"><tspan
     x="0 2.74968 8.1445198 12.5826 15.71016 20.1402 24.578279 27.5772 32.972038 35.609161 40.521599"
     y="0"
     id="tspan140"
     style="font-size:8.03999996px;font-variant:normal;font-weight:bold;writing-mode:lr-tb;fill:#000000;fill-opacity:1;fill-rule:nonzero;stroke:none;font-family:Helvetica;-inkscape-font-specification:Helvetica-Bold">:ServerStub</tspan></text>

</g></g><g
           id="g142"><g
             clip-path="url(#clipPath146)"
             id="g144" /></g></g></g><g
       id="g150"><path
         d="m 422,652 0,-191.9"
         inkscape:connector-curvature="0"
         id="path152"
         style="fill:none;stroke:#000000;stroke-width:0.75;stroke-linecap:round;stroke-linejoin:round;stroke-miterlimit:10;stroke-opacity:1;stroke-dasharray:2.25, 3;stroke-dashoffset:0" /></g><g
       id="g154"><path
         d="m 734.3,652 0,-201.45"
         inkscape:connector-curvature="0"
         id="path156"
         style="fill:none;stroke:#000000;stroke-width:0.75;stroke-linecap:round;stroke-linejoin:round;stroke-miterlimit:10;stroke-opacity:1;stroke-dasharray:2.25, 3;stroke-dashoffset:0" /></g><g
       id="g158"><path
         d="m 630.75,548.25 0,-97.7"
         inkscape:connector-curvature="0"
         id="path160"
         style="fill:none;stroke:#000000;stroke-width:0.75;stroke-linecap:round;stroke-linejoin:round;stroke-miterlimit:10;stroke-opacity:1;stroke-dasharray:2.25, 3;stroke-dashoffset:0" /></g><path
       d="m 416.2,488.6 13.8,0 0,151.4 -13.8,0 0,-151.4 z"
       inkscape:connector-curvature="0"
       id="path162"
       style="fill:#ffffff;fill-opacity:1;fill-rule:evenodd;stroke:none" /><path
       d="m 416.2,488.6 13.8,0 0,151.4 -13.8,0 0,-151.4 z"
       inkscape:connector-curvature="0"
       id="path164"
       style="fill:none;stroke:#000000;stroke-width:1;stroke-linecap:round;stroke-linejoin:miter;stroke-miterlimit:10;stroke-opacity:1;stroke-dasharray:none" /><path
       d="m 422,608.6 13.8,0 0,20 -13.8,0 0,-20 z"
       inkscape:connector-curvature="0"
       id="path166"
       style="fill:#ffffff;fill-opacity:1;fill-rule:evenodd;stroke:none" /><path
       d="m 422,608.6 13.8,0 0,20 -13.8,0 0,-20 z"
       inkscape:connector-curvature="0"
       id="path168"
       style="fill:none;stroke:#000000;stroke-width:1;stroke-linecap:round;stroke-linejoin:miter;stroke-miterlimit:10;stroke-opacity:1;stroke-dasharray:none" /><path
       d="m 435.8,624.7 12,0"
       inkscape:connector-curvature="0"
       id="path170"
       style="fill:none;stroke:#000000;stroke-width:0.75;stroke-linecap:round;stroke-linejoin:round;stroke-miterlimit:10;stroke-opacity:1;stroke-dasharray:none" /><path
       d="m 440.8,616.33 7,-0.03 c 0.28,0 0.5,-0.23 0.5,-0.5 0,-0.28 -0.23,-0.5 -0.5,-0.5 l -7,0.03 c -0.28,0 -0.5,0.23 -0.5,0.5 0,0.28 0.23,0.5 0.5,0.5 z m 0.99,-3.5 -5.99,3.02 6.01,2.98 -0.02,-6 z"
       inkscape:connector-curvature="0"
       id="path172"
       style="fill:#000000;fill-opacity:1;fill-rule:nonzero;stroke:none" /><path
       d="m 447.8,615.85 0.05,8.85"
       inkscape:connector-curvature="0"
       id="path174"
       style="fill:none;stroke:#000000;stroke-width:0.75;stroke-linecap:round;stroke-linejoin:round;stroke-miterlimit:10;stroke-opacity:1;stroke-dasharray:none" /><g
       id="g176"><g
         clip-path="url(#clipPath180)"
         id="g178"><g
           id="g184"><g
             clip-path="url(#clipPath188)"
             id="g186"><text
   transform="matrix(1,0,0,-1,452.33,617.23)"
   id="text192"><tspan
     x="0 5.3948398 9.8329201 12.47004 16.43376 20.87184"
     y="0"
     id="tspan194"
     style="font-size:8.03999996px;font-variant:normal;font-weight:normal;writing-mode:lr-tb;fill:#000000;fill-opacity:1;fill-rule:nonzero;stroke:none;font-family:Helvetica;-inkscape-font-specification:Helvetica">Server</tspan></text>

</g></g><g
           id="g196"><g
             clip-path="url(#clipPath200)"
             id="g198"><text
   transform="matrix(1,0,0,-1,475.87,617.23)"
   id="text204"><tspan
     x="0 5.3948398 7.6701598 12.10824 14.74536 17.020679 21.458759 25.896839 28.53396"
     y="0"
     id="tspan206"
     style="font-size:8.03999996px;font-variant:normal;font-weight:normal;writing-mode:lr-tb;fill:#000000;fill-opacity:1;fill-rule:nonzero;stroke:none;font-family:Helvetica;-inkscape-font-specification:Helvetica">Starten()</tspan></text>

</g></g><g
           id="g208"><g
             clip-path="url(#clipPath212)"
             id="g210" /></g></g></g><path
       d="m 437.5,592.95 288.8,0 c 0.28,0 0.5,-0.22 0.5,-0.5 0,-0.28 -0.22,-0.5 -0.5,-0.5 l -288.8,0 c -0.28,0 -0.5,0.22 -0.5,0.5 0,0.28 0.22,0.5 0.5,0.5 z m 1,-3.5 -6,3 6,3 0,-6 z"
       inkscape:connector-curvature="0"
       id="path216"
       style="fill:#000000;fill-opacity:1;fill-rule:nonzero;stroke:none" /><path
       d="m 432.3,583.7 0,0 c 0.28,0 0.5,-0.22 0.5,-0.5 0,-0.28 -0.22,-0.5 -0.5,-0.5 l 0,0 c -0.28,0 -0.5,0.22 -0.5,0.5 0,0.28 0.22,0.5 0.5,0.5 z m 2,0 0,0 c 0.28,0 0.5,-0.22 0.5,-0.5 0,-0.28 -0.22,-0.5 -0.5,-0.5 l 0,0 c -0.28,0 -0.5,0.22 -0.5,0.5 0,0.28 0.22,0.5 0.5,0.5 z m 2,0 0,0 c 0.28,0 0.5,-0.22 0.5,-0.5 0,-0.28 -0.22,-0.5 -0.5,-0.5 l 0,0 c -0.27,0 -0.5,0.22 -0.5,0.5 0,0.28 0.23,0.5 0.5,0.5 z m 2,0 0,0 c 0.28,0 0.5,-0.22 0.5,-0.5 0,-0.28 -0.22,-0.5 -0.5,-0.5 l 0,0 c -0.27,0 -0.5,0.22 -0.5,0.5 0,0.28 0.23,0.5 0.5,0.5 z m 2,0 0,0 c 0.28,0 0.5,-0.23 0.5,-0.5 0,-0.28 -0.22,-0.5 -0.5,-0.5 l 0,0 c -0.27,0 -0.5,0.22 -0.5,0.5 0,0.27 0.23,0.5 0.5,0.5 z m 2,0 0.01,0 c 0.27,0 0.5,-0.23 0.5,-0.5 0,-0.28 -0.23,-0.5 -0.5,-0.5 l -0.01,0 c -0.27,0 -0.5,0.22 -0.5,0.5 0,0.27 0.23,0.5 0.5,0.5 z m 2.01,0 0,0 c 0.27,0 0.5,-0.23 0.5,-0.5 0,-0.28 -0.23,-0.5 -0.5,-0.5 l 0,0 c -0.28,0 -0.5,0.22 -0.5,0.5 0,0.27 0.22,0.5 0.5,0.5 z m 2,0 0,0 c 0.27,0 0.5,-0.23 0.5,-0.5 0,-0.28 -0.23,-0.5 -0.5,-0.5 l 0,0 c -0.28,0 -0.5,0.22 -0.5,0.5 0,0.27 0.22,0.5 0.5,0.5 z m 2,0 0,0 c 0.27,0 0.5,-0.23 0.5,-0.5 0,-0.28 -0.23,-0.5 -0.5,-0.5 l 0,0 c -0.28,0 -0.5,0.22 -0.5,0.5 0,0.27 0.22,0.5 0.5,0.5 z m 2,0 0,0 c 0.28,0 0.5,-0.23 0.5,-0.5 0,-0.28 -0.22,-0.5 -0.5,-0.5 l 0,0 c -0.28,0 -0.5,0.22 -0.5,0.5 0,0.27 0.22,0.5 0.5,0.5 z m 2,0 0,0 c 0.28,0 0.5,-0.23 0.5,-0.5 0,-0.28 -0.22,-0.5 -0.5,-0.5 l 0,0 c -0.28,0 -0.5,0.22 -0.5,0.5 0,0.27 0.22,0.5 0.5,0.5 z m 2,0 0,0 c 0.28,0 0.5,-0.23 0.5,-0.5 0,-0.28 -0.22,-0.5 -0.5,-0.5 l 0,0 c -0.28,0 -0.5,0.22 -0.5,0.5 0,0.27 0.22,0.5 0.5,0.5 z m 2,0 0,0 c 0.28,0 0.5,-0.23 0.5,-0.5 0,-0.28 -0.22,-0.5 -0.5,-0.5 l 0,0 c -0.27,0 -0.5,0.22 -0.5,0.5 0,0.27 0.23,0.5 0.5,0.5 z m 2,0 0,0 c 0.28,0 0.5,-0.23 0.5,-0.5 0,-0.28 -0.22,-0.5 -0.5,-0.5 l 0,0 c -0.27,0 -0.5,0.22 -0.5,0.5 0,0.27 0.23,0.5 0.5,0.5 z m 2,0 0,0 c 0.28,0 0.5,-0.23 0.5,-0.5 0,-0.28 -0.22,-0.5 -0.5,-0.5 l 0,0 c -0.27,0 -0.5,0.22 -0.5,0.5 0,0.27 0.23,0.5 0.5,0.5 z m 2,0 0.01,0 c 0.27,0 0.5,-0.23 0.5,-0.5 0,-0.28 -0.23,-0.5 -0.5,-0.5 l -0.01,0 c -0.27,0 -0.5,0.22 -0.5,0.5 0,0.27 0.23,0.5 0.5,0.5 z m 2.01,-0.01 0,0 c 0.27,0 0.5,-0.22 0.5,-0.5 0,-0.27 -0.23,-0.5 -0.5,-0.5 l 0,0 c -0.28,0 -0.5,0.23 -0.5,0.5 0,0.28 0.22,0.5 0.5,0.5 z m 2,0 0,0 c 0.27,0 0.5,-0.22 0.5,-0.5 0,-0.27 -0.23,-0.5 -0.5,-0.5 l 0,0 c -0.28,0 -0.5,0.23 -0.5,0.5 0,0.28 0.22,0.5 0.5,0.5 z m 2,0 0,0 c 0.27,0 0.5,-0.22 0.5,-0.5 0,-0.27 -0.23,-0.5 -0.5,-0.5 l 0,0 c -0.28,0 -0.5,0.23 -0.5,0.5 0,0.28 0.22,0.5 0.5,0.5 z m 2,0 0,0 c 0.28,0 0.5,-0.22 0.5,-0.5 0,-0.27 -0.22,-0.5 -0.5,-0.5 l 0,0 c -0.28,0 -0.5,0.23 -0.5,0.5 0,0.28 0.22,0.5 0.5,0.5 z m 2,0 0,0 c 0.28,0 0.5,-0.22 0.5,-0.5 0,-0.27 -0.22,-0.5 -0.5,-0.5 l 0,0 c -0.28,0 -0.5,0.23 -0.5,0.5 0,0.28 0.22,0.5 0.5,0.5 z m 2,0 0,0 c 0.28,0 0.5,-0.22 0.5,-0.5 0,-0.27 -0.22,-0.5 -0.5,-0.5 l 0,0 c -0.28,0 -0.5,0.23 -0.5,0.5 0,0.28 0.22,0.5 0.5,0.5 z m 2,0 0,0 c 0.28,0 0.5,-0.22 0.5,-0.5 0,-0.27 -0.22,-0.5 -0.5,-0.5 l 0,0 c -0.27,0 -0.5,0.23 -0.5,0.5 0,0.28 0.23,0.5 0.5,0.5 z m 2,0 0,0 c 0.28,0 0.5,-0.22 0.5,-0.5 0,-0.27 -0.22,-0.5 -0.5,-0.5 l 0,0 c -0.27,0 -0.5,0.23 -0.5,0.5 0,0.28 0.23,0.5 0.5,0.5 z m 2,0 0,0 c 0.28,0 0.5,-0.22 0.5,-0.5 0,-0.27 -0.22,-0.5 -0.5,-0.5 l 0,0 c -0.27,0 -0.5,0.23 -0.5,0.5 0,0.28 0.23,0.5 0.5,0.5 z m 2,0 0.01,0 c 0.27,0 0.5,-0.22 0.5,-0.5 0,-0.27 -0.23,-0.5 -0.5,-0.5 l -0.01,0 c -0.27,0 -0.5,0.23 -0.5,0.5 0,0.28 0.23,0.5 0.5,0.5 z m 2.01,0 0,0 c 0.27,0 0.5,-0.22 0.5,-0.5 0,-0.27 -0.23,-0.5 -0.5,-0.5 l 0,0 c -0.28,0 -0.5,0.23 -0.5,0.5 0,0.28 0.22,0.5 0.5,0.5 z m 2,0 0,0 c 0.27,0 0.5,-0.22 0.5,-0.5 0,-0.27 -0.23,-0.5 -0.5,-0.5 l 0,0 c -0.28,0 -0.5,0.23 -0.5,0.5 0,0.28 0.22,0.5 0.5,0.5 z m 2,0 0,0 c 0.27,0 0.5,-0.22 0.5,-0.5 0,-0.28 -0.23,-0.5 -0.5,-0.5 l 0,0 c -0.28,0 -0.5,0.22 -0.5,0.5 0,0.28 0.22,0.5 0.5,0.5 z m 2,0 0,0 c 0.28,0 0.5,-0.22 0.5,-0.5 0,-0.28 -0.22,-0.5 -0.5,-0.5 l 0,0 c -0.28,0 -0.5,0.22 -0.5,0.5 0,0.28 0.22,0.5 0.5,0.5 z m 2,0 0,0 c 0.28,0 0.5,-0.22 0.5,-0.5 0,-0.28 -0.22,-0.5 -0.5,-0.5 l 0,0 c -0.28,0 -0.5,0.22 -0.5,0.5 0,0.28 0.22,0.5 0.5,0.5 z m 2,0 0,0 c 0.28,0 0.5,-0.22 0.5,-0.5 0,-0.28 -0.22,-0.5 -0.5,-0.5 l 0,0 c -0.28,0 -0.5,0.22 -0.5,0.5 0,0.28 0.22,0.5 0.5,0.5 z m 2,0 0,0 c 0.28,0 0.5,-0.22 0.5,-0.5 0,-0.28 -0.22,-0.5 -0.5,-0.5 l 0,0 c -0.27,0 -0.5,0.22 -0.5,0.5 0,0.28 0.23,0.5 0.5,0.5 z m 2,0 0,0 c 0.28,0 0.5,-0.22 0.5,-0.5 0,-0.28 -0.22,-0.5 -0.5,-0.5 l 0,0 c -0.27,0 -0.5,0.22 -0.5,0.5 0,0.28 0.23,0.5 0.5,0.5 z m 2,0 0,0 c 0.28,0 0.5,-0.22 0.5,-0.5 0,-0.28 -0.22,-0.5 -0.5,-0.5 l 0,0 c -0.27,0 -0.5,0.22 -0.5,0.5 0,0.28 0.23,0.5 0.5,0.5 z m 2,0 0.01,0 c 0.27,0 0.5,-0.23 0.5,-0.5 0,-0.28 -0.23,-0.5 -0.5,-0.5 l -0.01,0 c -0.27,0 -0.5,0.22 -0.5,0.5 0,0.27 0.23,0.5 0.5,0.5 z m 2.01,0 0,0 c 0.27,0 0.5,-0.23 0.5,-0.5 0,-0.28 -0.23,-0.5 -0.5,-0.5 l 0,0 c -0.28,0 -0.5,0.22 -0.5,0.5 0,0.27 0.22,0.5 0.5,0.5 z m 2,0 0,0 c 0.27,0 0.5,-0.23 0.5,-0.5 0,-0.28 -0.23,-0.5 -0.5,-0.5 l 0,0 c -0.28,0 -0.5,0.22 -0.5,0.5 0,0.27 0.22,0.5 0.5,0.5 z m 2,0 0,0 c 0.27,0 0.5,-0.23 0.5,-0.5 0,-0.28 -0.23,-0.5 -0.5,-0.5 l 0,0 c -0.28,0 -0.5,0.22 -0.5,0.5 0,0.27 0.22,0.5 0.5,0.5 z m 2,0 0,0 c 0.28,0 0.5,-0.23 0.5,-0.5 0,-0.28 -0.22,-0.5 -0.5,-0.5 l 0,0 c -0.28,0 -0.5,0.22 -0.5,0.5 0,0.27 0.22,0.5 0.5,0.5 z m 2,0 0,0 c 0.28,0 0.5,-0.23 0.5,-0.5 0,-0.28 -0.22,-0.5 -0.5,-0.5 l 0,0 c -0.28,0 -0.5,0.22 -0.5,0.5 0,0.27 0.22,0.5 0.5,0.5 z m 2,0 0,0 c 0.28,0 0.5,-0.23 0.5,-0.5 0,-0.28 -0.22,-0.5 -0.5,-0.5 l 0,0 c -0.28,0 -0.5,0.22 -0.5,0.5 0,0.27 0.22,0.5 0.5,0.5 z m 2,0 0,0 c 0.28,0 0.5,-0.23 0.5,-0.5 0,-0.28 -0.22,-0.5 -0.5,-0.5 l 0,0 c -0.27,0 -0.5,0.22 -0.5,0.5 0,0.27 0.23,0.5 0.5,0.5 z m 2,0 0,0 c 0.28,0 0.5,-0.23 0.5,-0.5 0,-0.28 -0.22,-0.5 -0.5,-0.5 l 0,0 c -0.27,0 -0.5,0.22 -0.5,0.5 0,0.27 0.23,0.5 0.5,0.5 z m 2,0 0,0 c 0.28,0 0.5,-0.23 0.5,-0.5 0,-0.28 -0.22,-0.5 -0.5,-0.5 l 0,0 c -0.27,0 -0.5,0.22 -0.5,0.5 0,0.27 0.23,0.5 0.5,0.5 z m 2,0 0.01,0 c 0.27,0 0.5,-0.23 0.5,-0.5 0,-0.28 -0.23,-0.5 -0.5,-0.5 l -0.01,0 c -0.27,0 -0.5,0.22 -0.5,0.5 0,0.27 0.23,0.5 0.5,0.5 z m 2.01,-0.01 0,0 c 0.27,0 0.5,-0.22 0.5,-0.5 0,-0.27 -0.23,-0.5 -0.5,-0.5 l 0,0 c -0.28,0 -0.5,0.23 -0.5,0.5 0,0.28 0.22,0.5 0.5,0.5 z m 2,0 0,0 c 0.27,0 0.5,-0.22 0.5,-0.5 0,-0.27 -0.23,-0.5 -0.5,-0.5 l 0,0 c -0.28,0 -0.5,0.23 -0.5,0.5 0,0.28 0.22,0.5 0.5,0.5 z m 2,0 0,0 c 0.27,0 0.5,-0.22 0.5,-0.5 0,-0.27 -0.23,-0.5 -0.5,-0.5 l 0,0 c -0.28,0 -0.5,0.23 -0.5,0.5 0,0.28 0.22,0.5 0.5,0.5 z m 2,0 0,0 c 0.28,0 0.5,-0.22 0.5,-0.5 0,-0.27 -0.22,-0.5 -0.5,-0.5 l 0,0 c -0.28,0 -0.5,0.23 -0.5,0.5 0,0.28 0.22,0.5 0.5,0.5 z m 2,0 0,0 c 0.28,0 0.5,-0.22 0.5,-0.5 0,-0.27 -0.22,-0.5 -0.5,-0.5 l 0,0 c -0.28,0 -0.5,0.23 -0.5,0.5 0,0.28 0.22,0.5 0.5,0.5 z m 2,0 0,0 c 0.28,0 0.5,-0.22 0.5,-0.5 0,-0.27 -0.22,-0.5 -0.5,-0.5 l 0,0 c -0.28,0 -0.5,0.23 -0.5,0.5 0,0.28 0.22,0.5 0.5,0.5 z m 2,0 0,0 c 0.28,0 0.5,-0.22 0.5,-0.5 0,-0.27 -0.22,-0.5 -0.5,-0.5 l 0,0 c -0.28,0 -0.5,0.23 -0.5,0.5 0,0.28 0.22,0.5 0.5,0.5 z m 2,0 0,0 c 0.28,0 0.5,-0.22 0.5,-0.5 0,-0.27 -0.22,-0.5 -0.5,-0.5 l 0,0 c -0.27,0 -0.5,0.23 -0.5,0.5 0,0.28 0.23,0.5 0.5,0.5 z m 2,0 0,0 c 0.28,0 0.5,-0.22 0.5,-0.5 0,-0.27 -0.22,-0.5 -0.5,-0.5 l 0,0 c -0.27,0 -0.5,0.23 -0.5,0.5 0,0.28 0.23,0.5 0.5,0.5 z m 2,0 0,0 c 0.28,0 0.5,-0.22 0.5,-0.5 0,-0.27 -0.22,-0.5 -0.5,-0.5 l 0,0 c -0.27,0 -0.5,0.23 -0.5,0.5 0,0.28 0.23,0.5 0.5,0.5 z m 2,0 0.01,0 c 0.27,0 0.5,-0.22 0.5,-0.5 0,-0.27 -0.23,-0.5 -0.5,-0.5 l -0.01,0 c -0.27,0 -0.5,0.23 -0.5,0.5 0,0.28 0.23,0.5 0.5,0.5 z m 2.01,0 0,0 c 0.27,0 0.5,-0.22 0.5,-0.5 0,-0.28 -0.23,-0.5 -0.5,-0.5 l 0,0 c -0.28,0 -0.5,0.22 -0.5,0.5 0,0.28 0.22,0.5 0.5,0.5 z m 2,0 0,0 c 0.27,0 0.5,-0.22 0.5,-0.5 0,-0.28 -0.23,-0.5 -0.5,-0.5 l 0,0 c -0.28,0 -0.5,0.22 -0.5,0.5 0,0.28 0.22,0.5 0.5,0.5 z m 2,0 0,0 c 0.27,0 0.5,-0.22 0.5,-0.5 0,-0.28 -0.23,-0.5 -0.5,-0.5 l 0,0 c -0.28,0 -0.5,0.22 -0.5,0.5 0,0.28 0.22,0.5 0.5,0.5 z m 2,0 0,0 c 0.28,0 0.5,-0.22 0.5,-0.5 0,-0.28 -0.22,-0.5 -0.5,-0.5 l 0,0 c -0.28,0 -0.5,0.22 -0.5,0.5 0,0.28 0.22,0.5 0.5,0.5 z m 2,0 0,0 c 0.28,0 0.5,-0.22 0.5,-0.5 0,-0.28 -0.22,-0.5 -0.5,-0.5 l 0,0 c -0.28,0 -0.5,0.22 -0.5,0.5 0,0.28 0.22,0.5 0.5,0.5 z m 2,0 0,0 c 0.28,0 0.5,-0.22 0.5,-0.5 0,-0.28 -0.22,-0.5 -0.5,-0.5 l 0,0 c -0.28,0 -0.5,0.22 -0.5,0.5 0,0.28 0.22,0.5 0.5,0.5 z m 2,0 0,0 c 0.28,0 0.5,-0.22 0.5,-0.5 0,-0.28 -0.22,-0.5 -0.5,-0.5 l 0,0 c -0.27,0 -0.5,0.22 -0.5,0.5 0,0.28 0.23,0.5 0.5,0.5 z m 2,0 0,0 c 0.28,0 0.5,-0.23 0.5,-0.5 0,-0.28 -0.22,-0.5 -0.5,-0.5 l 0,0 c -0.27,0 -0.5,0.22 -0.5,0.5 0,0.27 0.23,0.5 0.5,0.5 z m 2,0 0,0 c 0.28,0 0.5,-0.23 0.5,-0.5 0,-0.28 -0.22,-0.5 -0.5,-0.5 l 0,0 c -0.27,0 -0.5,0.22 -0.5,0.5 0,0.27 0.23,0.5 0.5,0.5 z m 2,0 0.01,0 c 0.27,0 0.5,-0.23 0.5,-0.5 0,-0.28 -0.23,-0.5 -0.5,-0.5 l -0.01,0 c -0.27,0 -0.5,0.22 -0.5,0.5 0,0.27 0.23,0.5 0.5,0.5 z m 2.01,0 0,0 c 0.27,0 0.5,-0.23 0.5,-0.5 0,-0.28 -0.23,-0.5 -0.5,-0.5 l 0,0 c -0.28,0 -0.5,0.22 -0.5,0.5 0,0.27 0.22,0.5 0.5,0.5 z m 2,0 0,0 c 0.27,0 0.5,-0.23 0.5,-0.5 0,-0.28 -0.23,-0.5 -0.5,-0.5 l 0,0 c -0.28,0 -0.5,0.22 -0.5,0.5 0,0.27 0.22,0.5 0.5,0.5 z m 2,0 0,0 c 0.27,0 0.5,-0.23 0.5,-0.5 0,-0.28 -0.23,-0.5 -0.5,-0.5 l 0,0 c -0.28,0 -0.5,0.22 -0.5,0.5 0,0.27 0.22,0.5 0.5,0.5 z m 2,0 0,0 c 0.28,0 0.5,-0.23 0.5,-0.5 0,-0.28 -0.22,-0.5 -0.5,-0.5 l 0,0 c -0.28,0 -0.5,0.22 -0.5,0.5 0,0.27 0.22,0.5 0.5,0.5 z m 2,0 0,0 c 0.28,0 0.5,-0.23 0.5,-0.5 0,-0.28 -0.22,-0.5 -0.5,-0.5 l 0,0 c -0.28,0 -0.5,0.22 -0.5,0.5 0,0.27 0.22,0.5 0.5,0.5 z m 2,0 0,0 c 0.28,0 0.5,-0.23 0.5,-0.5 0,-0.28 -0.22,-0.5 -0.5,-0.5 l 0,0 c -0.28,0 -0.5,0.22 -0.5,0.5 0,0.27 0.22,0.5 0.5,0.5 z m 2,0 0,0 c 0.28,0 0.5,-0.23 0.5,-0.5 0,-0.28 -0.22,-0.5 -0.5,-0.5 l 0,0 c -0.27,0 -0.5,0.22 -0.5,0.5 0,0.27 0.23,0.5 0.5,0.5 z m 2,0 0,0 c 0.28,0 0.5,-0.23 0.5,-0.5 0,-0.28 -0.22,-0.5 -0.5,-0.5 l 0,0 c -0.27,0 -0.5,0.22 -0.5,0.5 0,0.27 0.23,0.5 0.5,0.5 z m 2,-0.01 0,0 c 0.28,0 0.5,-0.22 0.5,-0.5 0,-0.27 -0.22,-0.5 -0.5,-0.5 l 0,0 c -0.27,0 -0.5,0.23 -0.5,0.5 0,0.28 0.23,0.5 0.5,0.5 z m 2.01,0 0,0 c 0.27,0 0.5,-0.22 0.5,-0.5 0,-0.27 -0.23,-0.5 -0.5,-0.5 l 0,0 c -0.28,0 -0.51,0.23 -0.51,0.5 0,0.28 0.23,0.5 0.51,0.5 z m 2,0 0,0 c 0.27,0 0.5,-0.22 0.5,-0.5 0,-0.27 -0.23,-0.5 -0.5,-0.5 l 0,0 c -0.28,0 -0.5,0.23 -0.5,0.5 0,0.28 0.22,0.5 0.5,0.5 z m 2,0 0,0 c 0.27,0 0.5,-0.22 0.5,-0.5 0,-0.27 -0.23,-0.5 -0.5,-0.5 l 0,0 c -0.28,0 -0.5,0.23 -0.5,0.5 0,0.28 0.22,0.5 0.5,0.5 z m 2,0 0,0 c 0.28,0 0.5,-0.22 0.5,-0.5 0,-0.27 -0.22,-0.5 -0.5,-0.5 l 0,0 c -0.28,0 -0.5,0.23 -0.5,0.5 0,0.28 0.22,0.5 0.5,0.5 z m 2,0 0,0 c 0.28,0 0.5,-0.22 0.5,-0.5 0,-0.27 -0.22,-0.5 -0.5,-0.5 l 0,0 c -0.28,0 -0.5,0.23 -0.5,0.5 0,0.28 0.22,0.5 0.5,0.5 z m 2,0 0,0 c 0.28,0 0.5,-0.22 0.5,-0.5 0,-0.27 -0.22,-0.5 -0.5,-0.5 l 0,0 c -0.28,0 -0.5,0.23 -0.5,0.5 0,0.28 0.22,0.5 0.5,0.5 z m 2,0 0,0 c 0.28,0 0.5,-0.22 0.5,-0.5 0,-0.27 -0.22,-0.5 -0.5,-0.5 l 0,0 c -0.27,0 -0.5,0.23 -0.5,0.5 0,0.28 0.23,0.5 0.5,0.5 z m 2,0 0,0 c 0.28,0 0.5,-0.22 0.5,-0.5 0,-0.27 -0.22,-0.5 -0.5,-0.5 l 0,0 c -0.27,0 -0.5,0.23 -0.5,0.5 0,0.28 0.23,0.5 0.5,0.5 z m 2,0 0,0 c 0.28,0 0.5,-0.22 0.5,-0.5 0,-0.27 -0.22,-0.5 -0.5,-0.5 l 0,0 c -0.27,0 -0.5,0.23 -0.5,0.5 0,0.28 0.23,0.5 0.5,0.5 z m 2,0 0.01,0 c 0.27,0 0.5,-0.22 0.5,-0.5 0,-0.27 -0.23,-0.5 -0.5,-0.5 l -0.01,0 c -0.27,0 -0.5,0.23 -0.5,0.5 0,0.28 0.23,0.5 0.5,0.5 z m 2.01,0 0,0 c 0.27,0 0.5,-0.22 0.5,-0.5 0,-0.28 -0.23,-0.5 -0.5,-0.5 l 0,0 c -0.28,0 -0.5,0.22 -0.5,0.5 0,0.28 0.22,0.5 0.5,0.5 z m 2,0 0,0 c 0.27,0 0.5,-0.22 0.5,-0.5 0,-0.28 -0.23,-0.5 -0.5,-0.5 l 0,0 c -0.28,0 -0.5,0.22 -0.5,0.5 0,0.28 0.22,0.5 0.5,0.5 z m 2,0 0,0 c 0.27,0 0.5,-0.22 0.5,-0.5 0,-0.28 -0.23,-0.5 -0.5,-0.5 l 0,0 c -0.28,0 -0.5,0.22 -0.5,0.5 0,0.28 0.22,0.5 0.5,0.5 z m 2,0 0,0 c 0.28,0 0.5,-0.22 0.5,-0.5 0,-0.28 -0.22,-0.5 -0.5,-0.5 l 0,0 c -0.28,0 -0.5,0.22 -0.5,0.5 0,0.28 0.22,0.5 0.5,0.5 z m 2,0 0,0 c 0.28,0 0.5,-0.22 0.5,-0.5 0,-0.28 -0.22,-0.5 -0.5,-0.5 l 0,0 c -0.28,0 -0.5,0.22 -0.5,0.5 0,0.28 0.22,0.5 0.5,0.5 z m 2,0 0,0 c 0.28,0 0.5,-0.22 0.5,-0.5 0,-0.28 -0.22,-0.5 -0.5,-0.5 l 0,0 c -0.28,0 -0.5,0.22 -0.5,0.5 0,0.28 0.22,0.5 0.5,0.5 z m 2,0 0,0 c 0.28,0 0.5,-0.23 0.5,-0.5 0,-0.28 -0.22,-0.5 -0.5,-0.5 l 0,0 c -0.27,0 -0.5,0.22 -0.5,0.5 0,0.27 0.23,0.5 0.5,0.5 z m 2,0 0,0 c 0.28,0 0.5,-0.23 0.5,-0.5 0,-0.28 -0.22,-0.5 -0.5,-0.5 l 0,0 c -0.27,0 -0.5,0.22 -0.5,0.5 0,0.27 0.23,0.5 0.5,0.5 z m 2,0 0,0 c 0.28,0 0.5,-0.23 0.5,-0.5 0,-0.28 -0.22,-0.5 -0.5,-0.5 l 0,0 c -0.27,0 -0.5,0.22 -0.5,0.5 0,0.27 0.23,0.5 0.5,0.5 z m 2,0 0.01,0 c 0.27,0 0.5,-0.23 0.5,-0.5 0,-0.28 -0.23,-0.5 -0.5,-0.5 l -0.01,0 c -0.27,0 -0.5,0.22 -0.5,0.5 0,0.27 0.23,0.5 0.5,0.5 z m 2.01,0 0,0 c 0.27,0 0.5,-0.23 0.5,-0.5 0,-0.28 -0.23,-0.5 -0.5,-0.5 l 0,0 c -0.28,0 -0.5,0.22 -0.5,0.5 0,0.27 0.22,0.5 0.5,0.5 z m 2,0 0,0 c 0.27,0 0.5,-0.23 0.5,-0.5 0,-0.28 -0.23,-0.5 -0.5,-0.5 l 0,0 c -0.28,0 -0.5,0.22 -0.5,0.5 0,0.27 0.22,0.5 0.5,0.5 z m 2,0 0,0 c 0.27,0 0.5,-0.23 0.5,-0.5 0,-0.28 -0.23,-0.5 -0.5,-0.5 l 0,0 c -0.28,0 -0.5,0.22 -0.5,0.5 0,0.27 0.22,0.5 0.5,0.5 z m 2,0 0,0 c 0.28,0 0.5,-0.23 0.5,-0.5 0,-0.28 -0.22,-0.5 -0.5,-0.5 l 0,0 c -0.28,0 -0.5,0.22 -0.5,0.5 0,0.27 0.22,0.5 0.5,0.5 z m 2,0 0,0 c 0.28,0 0.5,-0.23 0.5,-0.5 0,-0.28 -0.22,-0.5 -0.5,-0.5 l 0,0 c -0.28,0 -0.5,0.22 -0.5,0.5 0,0.27 0.22,0.5 0.5,0.5 z m 2,0 0,0 c 0.28,0 0.5,-0.23 0.5,-0.5 0,-0.28 -0.22,-0.5 -0.5,-0.5 l 0,0 c -0.28,0 -0.5,0.22 -0.5,0.5 0,0.27 0.22,0.5 0.5,0.5 z m 2,0 0,0 c 0.28,0 0.5,-0.23 0.5,-0.5 0,-0.28 -0.22,-0.5 -0.5,-0.5 l 0,0 c -0.27,0 -0.5,0.22 -0.5,0.5 0,0.27 0.23,0.5 0.5,0.5 z m 2,-0.01 0,0 c 0.28,0 0.5,-0.22 0.5,-0.5 0,-0.27 -0.22,-0.5 -0.5,-0.5 l 0,0 c -0.27,0 -0.5,0.23 -0.5,0.5 0,0.28 0.23,0.5 0.5,0.5 z m 2,0 0,0 c 0.28,0 0.5,-0.22 0.5,-0.5 0,-0.27 -0.22,-0.5 -0.5,-0.5 l 0,0 c -0.27,0 -0.5,0.23 -0.5,0.5 0,0.28 0.23,0.5 0.5,0.5 z m 2.01,0 0,0 c 0.27,0 0.5,-0.22 0.5,-0.5 0,-0.27 -0.23,-0.5 -0.5,-0.5 l 0,0 c -0.28,0 -0.51,0.23 -0.51,0.5 0,0.28 0.23,0.5 0.51,0.5 z m 2,0 0,0 c 0.27,0 0.5,-0.22 0.5,-0.5 0,-0.27 -0.23,-0.5 -0.5,-0.5 l 0,0 c -0.28,0 -0.5,0.23 -0.5,0.5 0,0.28 0.22,0.5 0.5,0.5 z m 2,0 0,0 c 0.27,0 0.5,-0.22 0.5,-0.5 0,-0.27 -0.23,-0.5 -0.5,-0.5 l 0,0 c -0.28,0 -0.5,0.23 -0.5,0.5 0,0.28 0.22,0.5 0.5,0.5 z m 2,0 0,0 c 0.28,0 0.5,-0.22 0.5,-0.5 0,-0.27 -0.22,-0.5 -0.5,-0.5 l 0,0 c -0.28,0 -0.5,0.23 -0.5,0.5 0,0.28 0.22,0.5 0.5,0.5 z m 2,0 0,0 c 0.28,0 0.5,-0.22 0.5,-0.5 0,-0.27 -0.22,-0.5 -0.5,-0.5 l 0,0 c -0.28,0 -0.5,0.23 -0.5,0.5 0,0.28 0.22,0.5 0.5,0.5 z m 2,0 0,0 c 0.28,0 0.5,-0.22 0.5,-0.5 0,-0.27 -0.22,-0.5 -0.5,-0.5 l 0,0 c -0.28,0 -0.5,0.23 -0.5,0.5 0,0.28 0.22,0.5 0.5,0.5 z m 2,0 0,0 c 0.28,0 0.5,-0.22 0.5,-0.5 0,-0.27 -0.22,-0.5 -0.5,-0.5 l 0,0 c -0.27,0 -0.5,0.23 -0.5,0.5 0,0.28 0.23,0.5 0.5,0.5 z m 2,0 0,0 c 0.28,0 0.5,-0.22 0.5,-0.5 0,-0.27 -0.22,-0.5 -0.5,-0.5 l 0,0 c -0.27,0 -0.5,0.23 -0.5,0.5 0,0.28 0.23,0.5 0.5,0.5 z m 2,0 0,0 c 0.28,0 0.5,-0.22 0.5,-0.5 0,-0.27 -0.22,-0.5 -0.5,-0.5 l 0,0 c -0.27,0 -0.5,0.23 -0.5,0.5 0,0.28 0.23,0.5 0.5,0.5 z m 2,0 0.01,0 c 0.27,0 0.5,-0.22 0.5,-0.5 0,-0.28 -0.23,-0.5 -0.5,-0.5 l -0.01,0 c -0.27,0 -0.5,0.22 -0.5,0.5 0,0.28 0.23,0.5 0.5,0.5 z m 2.01,0 0,0 c 0.27,0 0.5,-0.22 0.5,-0.5 0,-0.28 -0.23,-0.5 -0.5,-0.5 l 0,0 c -0.28,0 -0.5,0.22 -0.5,0.5 0,0.28 0.22,0.5 0.5,0.5 z m 2,0 0,0 c 0.27,0 0.5,-0.22 0.5,-0.5 0,-0.28 -0.23,-0.5 -0.5,-0.5 l 0,0 c -0.28,0 -0.5,0.22 -0.5,0.5 0,0.28 0.22,0.5 0.5,0.5 z m 2,0 0,0 c 0.27,0 0.5,-0.22 0.5,-0.5 0,-0.28 -0.23,-0.5 -0.5,-0.5 l 0,0 c -0.28,0 -0.5,0.22 -0.5,0.5 0,0.28 0.22,0.5 0.5,0.5 z m 2,0 0,0 c 0.28,0 0.5,-0.22 0.5,-0.5 0,-0.28 -0.22,-0.5 -0.5,-0.5 l 0,0 c -0.28,0 -0.5,0.22 -0.5,0.5 0,0.28 0.22,0.5 0.5,0.5 z m 2,0 0,0 c 0.28,0 0.5,-0.22 0.5,-0.5 0,-0.28 -0.22,-0.5 -0.5,-0.5 l 0,0 c -0.28,0 -0.5,0.22 -0.5,0.5 0,0.28 0.22,0.5 0.5,0.5 z m 2,0 0,0 c 0.28,0 0.5,-0.22 0.5,-0.5 0,-0.28 -0.22,-0.5 -0.5,-0.5 l 0,0 c -0.28,0 -0.5,0.22 -0.5,0.5 0,0.28 0.22,0.5 0.5,0.5 z m 2,0 0,0 c 0.28,0 0.5,-0.23 0.5,-0.5 0,-0.28 -0.22,-0.5 -0.5,-0.5 l 0,0 c -0.27,0 -0.5,0.22 -0.5,0.5 0,0.27 0.23,0.5 0.5,0.5 z m 2,0 0,0 c 0.28,0 0.5,-0.23 0.5,-0.5 0,-0.28 -0.22,-0.5 -0.5,-0.5 l 0,0 c -0.27,0 -0.5,0.22 -0.5,0.5 0,0.27 0.23,0.5 0.5,0.5 z m 2,0 0,0 c 0.28,0 0.5,-0.23 0.5,-0.5 0,-0.28 -0.22,-0.5 -0.5,-0.5 l 0,0 c -0.27,0 -0.5,0.22 -0.5,0.5 0,0.27 0.23,0.5 0.5,0.5 z m 2,0 0.01,0 c 0.27,0 0.5,-0.23 0.5,-0.5 0,-0.28 -0.23,-0.5 -0.5,-0.5 l -0.01,0 c -0.27,0 -0.5,0.22 -0.5,0.5 0,0.27 0.23,0.5 0.5,0.5 z m 2.01,0 0,0 c 0.27,0 0.5,-0.23 0.5,-0.5 0,-0.28 -0.23,-0.5 -0.5,-0.5 l 0,0 c -0.28,0 -0.5,0.22 -0.5,0.5 0,0.27 0.22,0.5 0.5,0.5 z m 2,0 0,0 c 0.27,0 0.5,-0.23 0.5,-0.5 0,-0.28 -0.23,-0.5 -0.5,-0.5 l 0,0 c -0.28,0 -0.5,0.22 -0.5,0.5 0,0.27 0.22,0.5 0.5,0.5 z m 2,0 0,0 c 0.27,0 0.5,-0.23 0.5,-0.5 0,-0.28 -0.23,-0.5 -0.5,-0.5 l 0,0 c -0.28,0 -0.5,0.22 -0.5,0.5 0,0.27 0.22,0.5 0.5,0.5 z m 2,0 0,0 c 0.28,0 0.5,-0.23 0.5,-0.5 0,-0.28 -0.22,-0.5 -0.5,-0.5 l 0,0 c -0.28,0 -0.5,0.22 -0.5,0.5 0,0.27 0.22,0.5 0.5,0.5 z m 2,0 0,0 c 0.28,0 0.5,-0.23 0.5,-0.5 0,-0.28 -0.22,-0.5 -0.5,-0.5 l 0,0 c -0.28,0 -0.5,0.22 -0.5,0.5 0,0.27 0.22,0.5 0.5,0.5 z m 2,0 0,0 c 0.28,0 0.5,-0.23 0.5,-0.5 0,-0.28 -0.22,-0.5 -0.5,-0.5 l 0,0 c -0.28,0 -0.5,0.22 -0.5,0.5 0,0.27 0.22,0.5 0.5,0.5 z m 2,0 0,0 c 0.28,0 0.5,-0.23 0.5,-0.5 0,-0.28 -0.22,-0.5 -0.5,-0.5 l 0,0 c -0.27,0 -0.5,0.22 -0.5,0.5 0,0.27 0.23,0.5 0.5,0.5 z m 2,-0.01 0,0 c 0.28,0 0.5,-0.22 0.5,-0.5 0,-0.27 -0.22,-0.5 -0.5,-0.5 l 0,0 c -0.27,0 -0.5,0.23 -0.5,0.5 0,0.28 0.23,0.5 0.5,0.5 z m 2,0 0.01,0 c 0.27,0 0.5,-0.22 0.5,-0.5 0,-0.27 -0.23,-0.5 -0.5,-0.5 l -0.01,0 c -0.27,0 -0.5,0.23 -0.5,0.5 0,0.28 0.23,0.5 0.5,0.5 z m 2.01,0 0,0 c 0.27,0 0.5,-0.22 0.5,-0.5 0,-0.27 -0.23,-0.5 -0.5,-0.5 l 0,0 c -0.28,0 -0.5,0.23 -0.5,0.5 0,0.28 0.22,0.5 0.5,0.5 z m 2,0 0,0 c 0.27,0 0.5,-0.22 0.5,-0.5 0,-0.27 -0.23,-0.5 -0.5,-0.5 l 0,0 c -0.28,0 -0.5,0.23 -0.5,0.5 0,0.28 0.22,0.5 0.5,0.5 z m 2,0 0,0 c 0.27,0 0.5,-0.22 0.5,-0.5 0,-0.27 -0.23,-0.5 -0.5,-0.5 l 0,0 c -0.28,0 -0.5,0.23 -0.5,0.5 0,0.28 0.22,0.5 0.5,0.5 z m 2,0 0,0 c 0.28,0 0.5,-0.22 0.5,-0.5 0,-0.27 -0.22,-0.5 -0.5,-0.5 l 0,0 c -0.28,0 -0.5,0.23 -0.5,0.5 0,0.28 0.22,0.5 0.5,0.5 z m 2,0 0,0 c 0.28,0 0.5,-0.22 0.5,-0.5 0,-0.27 -0.22,-0.5 -0.5,-0.5 l 0,0 c -0.28,0 -0.5,0.23 -0.5,0.5 0,0.28 0.22,0.5 0.5,0.5 z m 2,0 0,0 c 0.28,0 0.5,-0.22 0.5,-0.5 0,-0.27 -0.22,-0.5 -0.5,-0.5 l 0,0 c -0.28,0 -0.5,0.23 -0.5,0.5 0,0.28 0.22,0.5 0.5,0.5 z m 2,0 0,0 c 0.28,0 0.5,-0.22 0.5,-0.5 0,-0.27 -0.22,-0.5 -0.5,-0.5 l 0,0 c -0.27,0 -0.5,0.23 -0.5,0.5 0,0.28 0.23,0.5 0.5,0.5 z m 2,0 0,0 c 0.28,0 0.5,-0.22 0.5,-0.5 0,-0.27 -0.22,-0.5 -0.5,-0.5 l 0,0 c -0.27,0 -0.5,0.23 -0.5,0.5 0,0.28 0.23,0.5 0.5,0.5 z m 2,0 0.01,0 c 0.27,0 0.5,-0.22 0.5,-0.5 0,-0.27 -0.23,-0.5 -0.5,-0.5 l -0.01,0 c -0.27,0 -0.5,0.23 -0.5,0.5 0,0.28 0.23,0.5 0.5,0.5 z m 0.21,2.5 6,-3 -6,-3 0,6 z"
       inkscape:connector-curvature="0"
       id="path218"
       style="fill:#000000;fill-opacity:1;fill-rule:nonzero;stroke:none" /><g
       id="g220"><g
         clip-path="url(#clipPath224)"
         id="g222"><g
           id="g228"><g
             clip-path="url(#clipPath232)"
             id="g230"><text
   transform="matrix(1,0,0,-1,447.89,595.87)"
   id="text236"><tspan
     x="0 7.6701598 12.95244 18.347281 22.664761 26.733 30.801241 35.239319 37.876438 42.314522 44.0994 48.569641 52.991638 57.429722 61.867802 67.150078 68.934959 72.786118 80.576881 85.859161 91.615799 96.053879 100.49196 104.93004 107.56716 112.00524 114.28056 118.59804 123.03612 125.67324"
     y="0"
     id="tspan238"
     style="font-size:8.03999996px;font-variant:normal;font-weight:normal;writing-mode:lr-tb;fill:#000000;fill-opacity:1;fill-rule:nonzero;stroke:none;font-family:Helvetica;-inkscape-font-specification:Helvetica">WSBeschreibungAlsWSDLabrufen()</tspan></text>

</g></g><g
           id="g240"><g
             clip-path="url(#clipPath244)"
             id="g242" /></g></g></g><path
       d="m 726.3,466 13.8,0 0,144.95 -13.8,0 0,-144.95 z"
       inkscape:connector-curvature="0"
       id="path248"
       style="fill:#ffffff;fill-opacity:1;fill-rule:evenodd;stroke:none" /><path
       d="m 726.3,466 13.8,0 0,144.95 -13.8,0 0,-144.95 z"
       inkscape:connector-curvature="0"
       id="path250"
       style="fill:none;stroke:#000000;stroke-width:1;stroke-linecap:round;stroke-linejoin:miter;stroke-miterlimit:8;stroke-opacity:1;stroke-dasharray:none" /><path
       d="m 734.3,578.95 13.8,0 0,20 -13.8,0 0,-20 z"
       inkscape:connector-curvature="0"
       id="path252"
       style="fill:#ffffff;fill-opacity:1;fill-rule:evenodd;stroke:none" /><path
       d="m 734.3,578.95 13.8,0 0,20 -13.8,0 0,-20 z"
       inkscape:connector-curvature="0"
       id="path254"
       style="fill:none;stroke:#000000;stroke-width:1;stroke-linecap:round;stroke-linejoin:miter;stroke-miterlimit:8;stroke-opacity:1;stroke-dasharray:none" /><path
       d="m 748.1,595.05 12,0"
       inkscape:connector-curvature="0"
       id="path256"
       style="fill:none;stroke:#000000;stroke-width:0.75;stroke-linecap:round;stroke-linejoin:round;stroke-miterlimit:8;stroke-opacity:1;stroke-dasharray:none" /><path
       d="m 753.1,586.68 7,-0.03 c 0.28,0 0.5,-0.23 0.5,-0.5 0,-0.28 -0.23,-0.5 -0.5,-0.5 l -7,0.03 c -0.28,0 -0.5,0.23 -0.5,0.5 0,0.28 0.23,0.5 0.5,0.5 z m 0.99,-3.5 -5.99,3.02 6.01,2.98 -0.02,-6 z"
       inkscape:connector-curvature="0"
       id="path258"
       style="fill:#000000;fill-opacity:1;fill-rule:nonzero;stroke:none" /><path
       d="m 760.1,586.2 0.05,8.85"
       inkscape:connector-curvature="0"
       id="path260"
       style="fill:none;stroke:#000000;stroke-width:0.75;stroke-linecap:round;stroke-linejoin:round;stroke-miterlimit:8;stroke-opacity:1;stroke-dasharray:none" /><g
       id="g262"><g
         clip-path="url(#clipPath266)"
         id="g264"><g
           id="g270"><g
             clip-path="url(#clipPath274)"
             id="g272"><text
   transform="matrix(1,0,0,-1,760.3,595.99)"
   id="text278"><tspan
     x="0 5.3948398 9.8329201 12.47004 16.43376 20.87184 23.508961 28.903799 31.179119 35.617199"
     y="0"
     id="tspan280"
     style="font-size:8.03999996px;font-variant:normal;font-weight:normal;writing-mode:lr-tb;fill:#000000;fill-opacity:1;fill-rule:nonzero;stroke:none;font-family:Helvetica;-inkscape-font-specification:Helvetica">ServerStub</tspan></text>

</g></g><g
           id="g282"><g
             clip-path="url(#clipPath286)"
             id="g284"><text
   transform="matrix(1,0,0,-1,800.38,595.99)"
   id="text290"><tspan
     x="0"
     y="0"
     id="tspan292"
     style="font-size:8.03999996px;font-variant:normal;font-weight:normal;writing-mode:lr-tb;fill:#000000;fill-opacity:1;fill-rule:nonzero;stroke:none;font-family:Helvetica;-inkscape-font-specification:Helvetica">-</tspan></text>

</g></g><g
           id="g294"><g
             clip-path="url(#clipPath298)"
             id="g296"><text
   transform="matrix(1,0,0,-1,760.3,586.63)"
   id="text302"><tspan
     x="0 6.2551198 10.67712 15.1152 19.55328 22.190399 23.975281 28.44552 31.066561 35.504639 39.942719 42.579842"
     y="0"
     id="tspan304"
     style="font-size:8.03999996px;font-variant:normal;font-weight:normal;writing-mode:lr-tb;fill:#000000;fill-opacity:1;fill-rule:nonzero;stroke:none;font-family:Helvetica;-inkscape-font-specification:Helvetica">Generieren()</tspan></text>

</g></g><g
           id="g306"><g
             clip-path="url(#clipPath310)"
             id="g308" /></g></g></g><path
       d="m 667.75,560.5 58.55,0 c 0.28,0 0.5,-0.22 0.5,-0.5 0,-0.28 -0.22,-0.5 -0.5,-0.5 l -58.55,0 c -0.28,0 -0.5,0.22 -0.5,0.5 0,0.28 0.22,0.5 0.5,0.5 z m 1,-3.5 -6,3 6,3 0,-6 z"
       inkscape:connector-curvature="0"
       id="path314"
       style="fill:#000000;fill-opacity:1;fill-rule:nonzero;stroke:none" /><g
       id="g316"><g
         clip-path="url(#clipPath320)"
         id="g318"><g
           id="g324"><g
             clip-path="url(#clipPath328)"
             id="g326"><text
   transform="matrix(1,0,0,-1,670.9,561.79)"
   id="text332"><tspan
     x="0 4.6953602 9.3585596 13.4268 16.063919 20.502001 24.940081 27.215401 31.653481 36.348839"
     y="0"
     id="tspan334"
     style="font-size:8.03999996px;font-variant:normal;font-weight:normal;writing-mode:lr-tb;fill:#000000;fill-opacity:1;fill-rule:nonzero;stroke:none;font-family:Helvetica;-inkscape-font-specification:Helvetica">&lt;&lt;create&gt;&gt;</tspan></text>

</g></g><g
           id="g336"><g
             clip-path="url(#clipPath340)"
             id="g338" /></g></g></g><path
       d="m 624,471.35 13.8,0 0,65.75 -13.8,0 0,-65.75 z"
       inkscape:connector-curvature="0"
       id="path344"
       style="fill:#ffffff;fill-opacity:1;fill-rule:evenodd;stroke:none" /><path
       d="m 624,471.35 13.8,0 0,65.75 -13.8,0 0,-65.75 z"
       inkscape:connector-curvature="0"
       id="path346"
       style="fill:none;stroke:#000000;stroke-width:1;stroke-linecap:round;stroke-linejoin:miter;stroke-miterlimit:8;stroke-opacity:1;stroke-dasharray:none" /><path
       d="m 642.8,528.3 77.7,0 c 0.28,0 0.5,-0.22 0.5,-0.5 0,-0.28 -0.22,-0.5 -0.5,-0.5 l -77.7,0 c -0.28,0 -0.5,0.22 -0.5,0.5 0,0.28 0.22,0.5 0.5,0.5 z m 1,-3.5 -6,3 6,3 0,-6 z"
       inkscape:connector-curvature="0"
       id="path348"
       style="fill:#000000;fill-opacity:1;fill-rule:nonzero;stroke:none" /><g
       id="g350"><g
         clip-path="url(#clipPath354)"
         id="g352"><g
           id="g358"><g
             clip-path="url(#clipPath362)"
             id="g360"><text
   transform="matrix(1,0,0,-1,651.31,534.07)"
   id="text366"><tspan
     x="0 6.6008401 11.03892 13.31424 17.752319 22.190399 26.628481 31.066561 36.461399 39.098518"
     y="0"
     id="tspan368"
     style="font-size:8.03999996px;font-variant:normal;font-weight:normal;writing-mode:lr-tb;fill:#000000;fill-opacity:1;fill-rule:nonzero;stroke:none;font-family:Helvetica;-inkscape-font-specification:Helvetica">MethodeA()</tspan></text>

</g></g><g
           id="g370"><g
             clip-path="url(#clipPath374)"
             id="g372" /></g></g></g><path
       d="M 437.5,517.6 624,517.55 c 0.28,0 0.5,-0.22 0.5,-0.5 0,-0.28 -0.22,-0.5 -0.5,-0.5 l -186.5,0.05 c -0.28,0 -0.5,0.22 -0.5,0.5 0,0.28 0.22,0.5 0.5,0.5 z m 1,-3.5 -6,3 6,3 0,-6 z"
       inkscape:connector-curvature="0"
       id="path378"
       style="fill:#000000;fill-opacity:1;fill-rule:nonzero;stroke:none" /><g
       id="g380"><g
         clip-path="url(#clipPath384)"
         id="g382"><g
           id="g388"><g
             clip-path="url(#clipPath392)"
             id="g390"><text
   transform="matrix(1,0,0,-1,447.89,523.39)"
   id="text396"><tspan
     x="0 6.6008401 11.03892 13.31424 17.752319 22.190399 26.628481 31.066561 36.461399 39.098518"
     y="0"
     id="tspan398"
     style="font-size:8.03999996px;font-variant:normal;font-weight:normal;writing-mode:lr-tb;fill:#000000;fill-opacity:1;fill-rule:nonzero;stroke:none;font-family:Helvetica;-inkscape-font-specification:Helvetica">MethodeA()</tspan></text>

</g></g><g
           id="g400"><g
             clip-path="url(#clipPath404)"
             id="g402" /></g></g></g><path
       d="m 432.5,501.15 0,0 c 0.28,0 0.5,-0.22 0.5,-0.5 0,-0.28 -0.22,-0.5 -0.5,-0.5 l 0,0 c -0.28,0 -0.5,0.22 -0.5,0.5 0,0.28 0.22,0.5 0.5,0.5 z m 2,0 0,0 c 0.28,0 0.5,-0.22 0.5,-0.5 0,-0.28 -0.22,-0.5 -0.5,-0.5 l 0,0 c -0.28,0 -0.5,0.22 -0.5,0.5 0,0.28 0.22,0.5 0.5,0.5 z m 2,0 0,0 c 0.28,0 0.5,-0.22 0.5,-0.5 0,-0.28 -0.22,-0.5 -0.5,-0.5 l 0,0 c -0.27,0 -0.5,0.22 -0.5,0.5 0,0.28 0.23,0.5 0.5,0.5 z m 2,0 0,0 c 0.28,0 0.5,-0.23 0.5,-0.5 0,-0.28 -0.22,-0.5 -0.5,-0.5 l 0,0 c -0.27,0 -0.5,0.22 -0.5,0.5 0,0.27 0.23,0.5 0.5,0.5 z m 2,0 0,0 c 0.28,0 0.5,-0.23 0.5,-0.5 0,-0.28 -0.22,-0.5 -0.5,-0.5 l 0,0 c -0.27,0 -0.5,0.22 -0.5,0.5 0,0.27 0.23,0.5 0.5,0.5 z m 2,0 0.01,0 c 0.27,0 0.5,-0.23 0.5,-0.5 0,-0.28 -0.23,-0.5 -0.5,-0.5 l -0.01,0 c -0.27,0 -0.5,0.22 -0.5,0.5 0,0.27 0.23,0.5 0.5,0.5 z m 2.01,0 0,0 c 0.27,0 0.5,-0.23 0.5,-0.5 0,-0.28 -0.23,-0.5 -0.5,-0.5 l 0,0 c -0.28,0 -0.5,0.22 -0.5,0.5 0,0.27 0.22,0.5 0.5,0.5 z m 2,0 0,0 c 0.27,0 0.5,-0.23 0.5,-0.5 0,-0.28 -0.23,-0.5 -0.5,-0.5 l 0,0 c -0.28,0 -0.5,0.22 -0.5,0.5 0,0.27 0.22,0.5 0.5,0.5 z m 2,0 0,0 c 0.27,0 0.5,-0.23 0.5,-0.5 0,-0.28 -0.23,-0.5 -0.5,-0.5 l 0,0 c -0.28,0 -0.5,0.22 -0.5,0.5 0,0.27 0.22,0.5 0.5,0.5 z m 2,0 0,0 c 0.28,0 0.5,-0.23 0.5,-0.5 0,-0.28 -0.22,-0.5 -0.5,-0.5 l 0,0 c -0.28,0 -0.5,0.22 -0.5,0.5 0,0.27 0.22,0.5 0.5,0.5 z m 2,-0.01 0,0 c 0.28,0 0.5,-0.22 0.5,-0.5 0,-0.27 -0.22,-0.5 -0.5,-0.5 l 0,0 c -0.28,0 -0.5,0.23 -0.5,0.5 0,0.28 0.22,0.5 0.5,0.5 z m 2,0 0,0 c 0.28,0 0.5,-0.22 0.5,-0.5 0,-0.27 -0.22,-0.5 -0.5,-0.5 l 0,0 c -0.28,0 -0.5,0.23 -0.5,0.5 0,0.28 0.22,0.5 0.5,0.5 z m 2,0 0,0 c 0.28,0 0.5,-0.22 0.5,-0.5 0,-0.27 -0.22,-0.5 -0.5,-0.5 l 0,0 c -0.27,0 -0.5,0.23 -0.5,0.5 0,0.28 0.23,0.5 0.5,0.5 z m 2,0 0,0 c 0.28,0 0.5,-0.22 0.5,-0.5 0,-0.27 -0.22,-0.5 -0.5,-0.5 l 0,0 c -0.27,0 -0.5,0.23 -0.5,0.5 0,0.28 0.23,0.5 0.5,0.5 z m 2,0 0,0 c 0.28,0 0.5,-0.22 0.5,-0.5 0,-0.27 -0.22,-0.5 -0.5,-0.5 l 0,0 c -0.27,0 -0.5,0.23 -0.5,0.5 0,0.28 0.23,0.5 0.5,0.5 z m 2,0 0.01,0 c 0.27,0 0.5,-0.22 0.5,-0.5 0,-0.27 -0.23,-0.5 -0.5,-0.5 l -0.01,0 c -0.27,0 -0.5,0.23 -0.5,0.5 0,0.28 0.23,0.5 0.5,0.5 z m 2.01,0 0,0 c 0.27,0 0.5,-0.22 0.5,-0.5 0,-0.27 -0.23,-0.5 -0.5,-0.5 l 0,0 c -0.28,0 -0.5,0.23 -0.5,0.5 0,0.28 0.22,0.5 0.5,0.5 z m 2,0 0,0 c 0.27,0 0.5,-0.22 0.5,-0.5 0,-0.28 -0.23,-0.5 -0.5,-0.5 l 0,0 c -0.28,0 -0.5,0.22 -0.5,0.5 0,0.28 0.22,0.5 0.5,0.5 z m 2,0 0,0 c 0.27,0 0.5,-0.22 0.5,-0.5 0,-0.28 -0.23,-0.5 -0.5,-0.5 l 0,0 c -0.28,0 -0.5,0.22 -0.5,0.5 0,0.28 0.22,0.5 0.5,0.5 z m 2,0 0,0 c 0.28,0 0.5,-0.22 0.5,-0.5 0,-0.28 -0.22,-0.5 -0.5,-0.5 l 0,0 c -0.28,0 -0.5,0.22 -0.5,0.5 0,0.28 0.22,0.5 0.5,0.5 z m 2,0 0,0 c 0.28,0 0.5,-0.22 0.5,-0.5 0,-0.28 -0.22,-0.5 -0.5,-0.5 l 0,0 c -0.28,0 -0.5,0.22 -0.5,0.5 0,0.28 0.22,0.5 0.5,0.5 z m 2,0 0,0 c 0.28,0 0.5,-0.22 0.5,-0.5 0,-0.28 -0.22,-0.5 -0.5,-0.5 l 0,0 c -0.28,0 -0.5,0.22 -0.5,0.5 0,0.28 0.22,0.5 0.5,0.5 z m 2,0 0,0 c 0.28,0 0.5,-0.23 0.5,-0.5 0,-0.28 -0.22,-0.5 -0.5,-0.5 l 0,0 c -0.27,0 -0.5,0.22 -0.5,0.5 0,0.27 0.23,0.5 0.5,0.5 z m 2,0 0,0 c 0.28,0 0.5,-0.23 0.5,-0.5 0,-0.28 -0.22,-0.5 -0.5,-0.5 l 0,0 c -0.27,0 -0.5,0.22 -0.5,0.5 0,0.27 0.23,0.5 0.5,0.5 z m 2,0 0,0 c 0.28,0 0.5,-0.23 0.5,-0.5 0,-0.28 -0.22,-0.5 -0.5,-0.5 l 0,0 c -0.27,0 -0.5,0.22 -0.5,0.5 0,0.27 0.23,0.5 0.5,0.5 z m 2,0 0.01,0 c 0.27,0 0.5,-0.23 0.5,-0.5 0,-0.28 -0.23,-0.5 -0.5,-0.5 l -0.01,0 c -0.27,0 -0.5,0.22 -0.5,0.5 0,0.27 0.23,0.5 0.5,0.5 z m 2.01,0 0,0 c 0.27,0 0.5,-0.23 0.5,-0.5 0,-0.28 -0.23,-0.5 -0.5,-0.5 l 0,0 c -0.28,0 -0.5,0.22 -0.5,0.5 0,0.27 0.22,0.5 0.5,0.5 z m 2,0 0,0 c 0.27,0 0.5,-0.23 0.5,-0.5 0,-0.28 -0.23,-0.5 -0.5,-0.5 l 0,0 c -0.28,0 -0.5,0.22 -0.5,0.5 0,0.27 0.22,0.5 0.5,0.5 z m 2,0 0,0 c 0.27,0 0.5,-0.23 0.5,-0.5 0,-0.28 -0.23,-0.5 -0.5,-0.5 l 0,0 c -0.28,0 -0.5,0.22 -0.5,0.5 0,0.27 0.22,0.5 0.5,0.5 z m 2,-0.01 0,0 c 0.28,0 0.5,-0.22 0.5,-0.5 0,-0.27 -0.22,-0.5 -0.5,-0.5 l 0,0 c -0.28,0 -0.5,0.23 -0.5,0.5 0,0.28 0.22,0.5 0.5,0.5 z m 2,0 0,0 c 0.28,0 0.5,-0.22 0.5,-0.5 0,-0.27 -0.22,-0.5 -0.5,-0.5 l 0,0 c -0.28,0 -0.5,0.23 -0.5,0.5 0,0.28 0.22,0.5 0.5,0.5 z m 2,0 0,0 c 0.28,0 0.5,-0.22 0.5,-0.5 0,-0.27 -0.22,-0.5 -0.5,-0.5 l 0,0 c -0.28,0 -0.5,0.23 -0.5,0.5 0,0.28 0.22,0.5 0.5,0.5 z m 2,0 0,0 c 0.28,0 0.5,-0.22 0.5,-0.5 0,-0.27 -0.22,-0.5 -0.5,-0.5 l 0,0 c -0.27,0 -0.5,0.23 -0.5,0.5 0,0.28 0.23,0.5 0.5,0.5 z m 2,0 0,0 c 0.28,0 0.5,-0.22 0.5,-0.5 0,-0.27 -0.22,-0.5 -0.5,-0.5 l 0,0 c -0.27,0 -0.5,0.23 -0.5,0.5 0,0.28 0.23,0.5 0.5,0.5 z m 2,0 0,0 c 0.28,0 0.5,-0.22 0.5,-0.5 0,-0.27 -0.22,-0.5 -0.5,-0.5 l 0,0 c -0.27,0 -0.5,0.23 -0.5,0.5 0,0.28 0.23,0.5 0.5,0.5 z m 2,0 0.01,0 c 0.27,0 0.5,-0.22 0.5,-0.5 0,-0.27 -0.23,-0.5 -0.5,-0.5 l -0.01,0 c -0.27,0 -0.5,0.23 -0.5,0.5 0,0.28 0.23,0.5 0.5,0.5 z m 2.01,0 0,0 c 0.27,0 0.5,-0.22 0.5,-0.5 0,-0.28 -0.23,-0.5 -0.5,-0.5 l 0,0 c -0.28,0 -0.5,0.22 -0.5,0.5 0,0.28 0.22,0.5 0.5,0.5 z m 2,0 0,0 c 0.27,0 0.5,-0.22 0.5,-0.5 0,-0.28 -0.23,-0.5 -0.5,-0.5 l 0,0 c -0.28,0 -0.5,0.22 -0.5,0.5 0,0.28 0.22,0.5 0.5,0.5 z m 2,0 0,0 c 0.27,0 0.5,-0.22 0.5,-0.5 0,-0.28 -0.23,-0.5 -0.5,-0.5 l 0,0 c -0.28,0 -0.5,0.22 -0.5,0.5 0,0.28 0.22,0.5 0.5,0.5 z m 2,0 0,0 c 0.28,0 0.5,-0.22 0.5,-0.5 0,-0.28 -0.22,-0.5 -0.5,-0.5 l 0,0 c -0.28,0 -0.5,0.22 -0.5,0.5 0,0.28 0.22,0.5 0.5,0.5 z m 2,0 0,0 c 0.28,0 0.5,-0.22 0.5,-0.5 0,-0.28 -0.22,-0.5 -0.5,-0.5 l 0,0 c -0.28,0 -0.5,0.22 -0.5,0.5 0,0.28 0.22,0.5 0.5,0.5 z m 2,0 0,0 c 0.28,0 0.5,-0.23 0.5,-0.5 0,-0.28 -0.22,-0.5 -0.5,-0.5 l 0,0 c -0.28,0 -0.5,0.22 -0.5,0.5 0,0.27 0.22,0.5 0.5,0.5 z m 2,0 0,0 c 0.28,0 0.5,-0.23 0.5,-0.5 0,-0.28 -0.22,-0.5 -0.5,-0.5 l 0,0 c -0.27,0 -0.5,0.22 -0.5,0.5 0,0.27 0.23,0.5 0.5,0.5 z m 2,0 0,0 c 0.28,0 0.5,-0.23 0.5,-0.5 0,-0.28 -0.22,-0.5 -0.5,-0.5 l 0,0 c -0.27,0 -0.5,0.22 -0.5,0.5 0,0.27 0.23,0.5 0.5,0.5 z m 2,0 0,0 c 0.28,0 0.5,-0.23 0.5,-0.5 0,-0.28 -0.22,-0.5 -0.5,-0.5 l 0,0 c -0.27,0 -0.5,0.22 -0.5,0.5 0,0.27 0.23,0.5 0.5,0.5 z m 2,0 0.01,0 c 0.27,0 0.5,-0.23 0.5,-0.5 0,-0.28 -0.23,-0.5 -0.5,-0.5 l -0.01,0 c -0.27,0 -0.5,0.22 -0.5,0.5 0,0.27 0.23,0.5 0.5,0.5 z m 2.01,0 0,0 c 0.27,0 0.5,-0.23 0.5,-0.5 0,-0.28 -0.23,-0.5 -0.5,-0.5 l 0,0 c -0.28,0 -0.5,0.22 -0.5,0.5 0,0.27 0.22,0.5 0.5,0.5 z m 2,0 0,0 c 0.27,0 0.5,-0.23 0.5,-0.5 0,-0.28 -0.23,-0.5 -0.5,-0.5 l 0,0 c -0.28,0 -0.5,0.22 -0.5,0.5 0,0.27 0.22,0.5 0.5,0.5 z m 2,-0.01 0,0 c 0.27,0 0.5,-0.22 0.5,-0.5 0,-0.27 -0.23,-0.5 -0.5,-0.5 l 0,0 c -0.28,0 -0.5,0.23 -0.5,0.5 0,0.28 0.22,0.5 0.5,0.5 z m 2,0 0,0 c 0.28,0 0.5,-0.22 0.5,-0.5 0,-0.27 -0.22,-0.5 -0.5,-0.5 l 0,0 c -0.28,0 -0.5,0.23 -0.5,0.5 0,0.28 0.22,0.5 0.5,0.5 z m 2,0 0,0 c 0.28,0 0.5,-0.22 0.5,-0.5 0,-0.27 -0.22,-0.5 -0.5,-0.5 l 0,0 c -0.28,0 -0.5,0.23 -0.5,0.5 0,0.28 0.22,0.5 0.5,0.5 z m 2,0 0,0 c 0.28,0 0.5,-0.22 0.5,-0.5 0,-0.27 -0.22,-0.5 -0.5,-0.5 l 0,0 c -0.28,0 -0.5,0.23 -0.5,0.5 0,0.28 0.22,0.5 0.5,0.5 z m 2,0 0,0 c 0.28,0 0.5,-0.22 0.5,-0.5 0,-0.27 -0.22,-0.5 -0.5,-0.5 l 0,0 c -0.27,0 -0.5,0.23 -0.5,0.5 0,0.28 0.23,0.5 0.5,0.5 z m 2,0 0,0 c 0.28,0 0.5,-0.22 0.5,-0.5 0,-0.27 -0.22,-0.5 -0.5,-0.5 l 0,0 c -0.27,0 -0.5,0.23 -0.5,0.5 0,0.28 0.23,0.5 0.5,0.5 z m 2,0 0,0 c 0.28,0 0.5,-0.22 0.5,-0.5 0,-0.27 -0.22,-0.5 -0.5,-0.5 l 0,0 c -0.27,0 -0.5,0.23 -0.5,0.5 0,0.28 0.23,0.5 0.5,0.5 z m 2,0 0.01,0 c 0.27,0 0.5,-0.22 0.5,-0.5 0,-0.28 -0.23,-0.5 -0.5,-0.5 l -0.01,0 c -0.27,0 -0.5,0.22 -0.5,0.5 0,0.28 0.23,0.5 0.5,0.5 z m 2.01,0 0,0 c 0.27,0 0.5,-0.22 0.5,-0.5 0,-0.28 -0.23,-0.5 -0.5,-0.5 l 0,0 c -0.28,0 -0.5,0.22 -0.5,0.5 0,0.28 0.22,0.5 0.5,0.5 z m 2,0 0,0 c 0.27,0 0.5,-0.22 0.5,-0.5 0,-0.28 -0.23,-0.5 -0.5,-0.5 l 0,0 c -0.28,0 -0.5,0.22 -0.5,0.5 0,0.28 0.22,0.5 0.5,0.5 z m 2,0 0,0 c 0.27,0 0.5,-0.22 0.5,-0.5 0,-0.28 -0.23,-0.5 -0.5,-0.5 l 0,0 c -0.28,0 -0.5,0.22 -0.5,0.5 0,0.28 0.22,0.5 0.5,0.5 z m 2,0 0,0 c 0.28,0 0.5,-0.22 0.5,-0.5 0,-0.28 -0.22,-0.5 -0.5,-0.5 l 0,0 c -0.28,0 -0.5,0.22 -0.5,0.5 0,0.28 0.22,0.5 0.5,0.5 z m 2,0 0,0 c 0.28,0 0.5,-0.23 0.5,-0.5 0,-0.28 -0.22,-0.5 -0.5,-0.5 l 0,0 c -0.28,0 -0.5,0.22 -0.5,0.5 0,0.27 0.22,0.5 0.5,0.5 z m 2,0 0,0 c 0.28,0 0.5,-0.23 0.5,-0.5 0,-0.28 -0.22,-0.5 -0.5,-0.5 l 0,0 c -0.28,0 -0.5,0.22 -0.5,0.5 0,0.27 0.22,0.5 0.5,0.5 z m 2,0 0,0 c 0.28,0 0.5,-0.23 0.5,-0.5 0,-0.28 -0.22,-0.5 -0.5,-0.5 l 0,0 c -0.27,0 -0.5,0.22 -0.5,0.5 0,0.27 0.23,0.5 0.5,0.5 z m 2,0 0,0 c 0.28,0 0.5,-0.23 0.5,-0.5 0,-0.28 -0.22,-0.5 -0.5,-0.5 l 0,0 c -0.27,0 -0.5,0.22 -0.5,0.5 0,0.27 0.23,0.5 0.5,0.5 z m 2,0 0,0 c 0.28,0 0.5,-0.23 0.5,-0.5 0,-0.28 -0.22,-0.5 -0.5,-0.5 l 0,0 c -0.27,0 -0.5,0.22 -0.5,0.5 0,0.27 0.23,0.5 0.5,0.5 z m 2,0 0.01,0 c 0.27,0 0.5,-0.23 0.5,-0.5 0,-0.28 -0.23,-0.5 -0.5,-0.5 l -0.01,0 c -0.27,0 -0.5,0.22 -0.5,0.5 0,0.27 0.23,0.5 0.5,0.5 z m 2.01,0 0,0 c 0.27,0 0.5,-0.23 0.5,-0.5 0,-0.28 -0.23,-0.5 -0.5,-0.5 l 0,0 c -0.28,0 -0.5,0.22 -0.5,0.5 0,0.27 0.22,0.5 0.5,0.5 z m 2,-0.01 0,0 c 0.27,0 0.5,-0.22 0.5,-0.5 0,-0.27 -0.23,-0.5 -0.5,-0.5 l 0,0 c -0.28,0 -0.5,0.23 -0.5,0.5 0,0.28 0.22,0.5 0.5,0.5 z m 2,0 0,0 c 0.27,0 0.5,-0.22 0.5,-0.5 0,-0.27 -0.23,-0.5 -0.5,-0.5 l 0,0 c -0.28,0 -0.5,0.23 -0.5,0.5 0,0.28 0.22,0.5 0.5,0.5 z m 2,0 0,0 c 0.28,0 0.5,-0.22 0.5,-0.5 0,-0.27 -0.22,-0.5 -0.5,-0.5 l 0,0 c -0.28,0 -0.5,0.23 -0.5,0.5 0,0.28 0.22,0.5 0.5,0.5 z m 2,0 0,0 c 0.28,0 0.5,-0.22 0.5,-0.5 0,-0.27 -0.22,-0.5 -0.5,-0.5 l 0,0 c -0.28,0 -0.5,0.23 -0.5,0.5 0,0.28 0.22,0.5 0.5,0.5 z m 2,0 0,0 c 0.28,0 0.5,-0.22 0.5,-0.5 0,-0.27 -0.22,-0.5 -0.5,-0.5 l 0,0 c -0.28,0 -0.5,0.23 -0.5,0.5 0,0.28 0.22,0.5 0.5,0.5 z m 2,0 0,0 c 0.28,0 0.5,-0.22 0.5,-0.5 0,-0.27 -0.22,-0.5 -0.5,-0.5 l 0,0 c -0.27,0 -0.5,0.23 -0.5,0.5 0,0.28 0.23,0.5 0.5,0.5 z m 2,0 0,0 c 0.28,0 0.5,-0.22 0.5,-0.5 0,-0.27 -0.22,-0.5 -0.5,-0.5 l 0,0 c -0.27,0 -0.5,0.23 -0.5,0.5 0,0.28 0.23,0.5 0.5,0.5 z m 2,0 0,0 c 0.28,0 0.5,-0.22 0.5,-0.5 0,-0.28 -0.22,-0.5 -0.5,-0.5 l 0,0 c -0.27,0 -0.5,0.22 -0.5,0.5 0,0.28 0.23,0.5 0.5,0.5 z m 2.01,0 0,0 c 0.27,0 0.5,-0.22 0.5,-0.5 0,-0.28 -0.23,-0.5 -0.5,-0.5 l 0,0 c -0.28,0 -0.51,0.22 -0.51,0.5 0,0.28 0.23,0.5 0.51,0.5 z m 2,0 0,0 c 0.27,0 0.5,-0.22 0.5,-0.5 0,-0.28 -0.23,-0.5 -0.5,-0.5 l 0,0 c -0.28,0 -0.5,0.22 -0.5,0.5 0,0.28 0.22,0.5 0.5,0.5 z m 2,0 0,0 c 0.27,0 0.5,-0.22 0.5,-0.5 0,-0.28 -0.23,-0.5 -0.5,-0.5 l 0,0 c -0.28,0 -0.5,0.22 -0.5,0.5 0,0.28 0.22,0.5 0.5,0.5 z m 2,0 0,0 c 0.28,0 0.5,-0.22 0.5,-0.5 0,-0.28 -0.22,-0.5 -0.5,-0.5 l 0,0 c -0.28,0 -0.5,0.22 -0.5,0.5 0,0.28 0.22,0.5 0.5,0.5 z m 2,0 0,0 c 0.28,0 0.5,-0.23 0.5,-0.5 0,-0.28 -0.22,-0.5 -0.5,-0.5 l 0,0 c -0.28,0 -0.5,0.22 -0.5,0.5 0,0.27 0.22,0.5 0.5,0.5 z m 2,0 0,0 c 0.28,0 0.5,-0.23 0.5,-0.5 0,-0.28 -0.22,-0.5 -0.5,-0.5 l 0,0 c -0.28,0 -0.5,0.22 -0.5,0.5 0,0.27 0.22,0.5 0.5,0.5 z m 2,0 0,0 c 0.28,0 0.5,-0.23 0.5,-0.5 0,-0.28 -0.22,-0.5 -0.5,-0.5 l 0,0 c -0.27,0 -0.5,0.22 -0.5,0.5 0,0.27 0.23,0.5 0.5,0.5 z m 2,0 0,0 c 0.28,0 0.5,-0.23 0.5,-0.5 0,-0.28 -0.22,-0.5 -0.5,-0.5 l 0,0 c -0.27,0 -0.5,0.22 -0.5,0.5 0,0.27 0.23,0.5 0.5,0.5 z m 2,0 0,0 c 0.28,0 0.5,-0.23 0.5,-0.5 0,-0.28 -0.22,-0.5 -0.5,-0.5 l 0,0 c -0.27,0 -0.5,0.22 -0.5,0.5 0,0.27 0.23,0.5 0.5,0.5 z m 2,0 0.01,0 c 0.27,0 0.5,-0.23 0.5,-0.5 0,-0.28 -0.23,-0.5 -0.5,-0.5 l -0.01,0 c -0.27,0 -0.5,0.22 -0.5,0.5 0,0.27 0.23,0.5 0.5,0.5 z m 2.01,0 0,0 c 0.27,0 0.5,-0.23 0.5,-0.5 0,-0.28 -0.23,-0.5 -0.5,-0.5 l 0,0 c -0.28,0 -0.5,0.22 -0.5,0.5 0,0.27 0.22,0.5 0.5,0.5 z m 2,-0.01 0,0 c 0.27,0 0.5,-0.22 0.5,-0.5 0,-0.27 -0.23,-0.5 -0.5,-0.5 l 0,0 c -0.28,0 -0.5,0.23 -0.5,0.5 0,0.28 0.22,0.5 0.5,0.5 z m 2,0 0,0 c 0.27,0 0.5,-0.22 0.5,-0.5 0,-0.27 -0.23,-0.5 -0.5,-0.5 l 0,0 c -0.28,0 -0.5,0.23 -0.5,0.5 0,0.28 0.22,0.5 0.5,0.5 z m 2,0 0,0 c 0.28,0 0.5,-0.22 0.5,-0.5 0,-0.27 -0.22,-0.5 -0.5,-0.5 l 0,0 c -0.28,0 -0.5,0.23 -0.5,0.5 0,0.28 0.22,0.5 0.5,0.5 z m 2,0 0,0 c 0.28,0 0.5,-0.22 0.5,-0.5 0,-0.27 -0.22,-0.5 -0.5,-0.5 l 0,0 c -0.28,0 -0.5,0.23 -0.5,0.5 0,0.28 0.22,0.5 0.5,0.5 z m 2,0 0,0 c 0.28,0 0.5,-0.22 0.5,-0.5 0,-0.27 -0.22,-0.5 -0.5,-0.5 l 0,0 c -0.28,0 -0.5,0.23 -0.5,0.5 0,0.28 0.22,0.5 0.5,0.5 z m 2,0 0,0 c 0.28,0 0.5,-0.22 0.5,-0.5 0,-0.27 -0.22,-0.5 -0.5,-0.5 l 0,0 c -0.27,0 -0.5,0.23 -0.5,0.5 0,0.28 0.23,0.5 0.5,0.5 z m 0.06,2.5 6,-3 -6,-3 0,6 z"
       inkscape:connector-curvature="0"
       id="path408"
       style="fill:#000000;fill-opacity:1;fill-rule:nonzero;stroke:none" /><path
       d="m 641.3,482.15 0,0 c 0.28,0 0.5,-0.22 0.5,-0.5 0,-0.28 -0.22,-0.5 -0.5,-0.5 l 0,0 c -0.28,0 -0.5,0.22 -0.5,0.5 0,0.28 0.22,0.5 0.5,0.5 z m 2,0 0,0 c 0.28,0 0.5,-0.22 0.5,-0.5 0,-0.28 -0.22,-0.5 -0.5,-0.5 l 0,0 c -0.28,0 -0.5,0.22 -0.5,0.5 0,0.28 0.22,0.5 0.5,0.5 z m 2,0 0,0 c 0.28,0 0.5,-0.22 0.5,-0.5 0,-0.28 -0.22,-0.5 -0.5,-0.5 l 0,0 c -0.27,0 -0.5,0.22 -0.5,0.5 0,0.28 0.23,0.5 0.5,0.5 z m 2,0 0,0 c 0.28,0 0.5,-0.22 0.5,-0.5 0,-0.28 -0.22,-0.5 -0.5,-0.5 l 0,0 c -0.27,0 -0.5,0.22 -0.5,0.5 0,0.28 0.23,0.5 0.5,0.5 z m 2,0 0,0 c 0.28,0 0.5,-0.22 0.5,-0.5 0,-0.28 -0.22,-0.5 -0.5,-0.5 l 0,0 c -0.27,0 -0.5,0.22 -0.5,0.5 0,0.28 0.23,0.5 0.5,0.5 z m 2,0 0.01,0 c 0.27,0 0.5,-0.22 0.5,-0.5 0,-0.28 -0.23,-0.5 -0.5,-0.5 l -0.01,0 c -0.27,0 -0.5,0.22 -0.5,0.5 0,0.28 0.23,0.5 0.5,0.5 z m 2.01,0 0,0 c 0.27,0 0.5,-0.22 0.5,-0.5 0,-0.28 -0.23,-0.5 -0.5,-0.5 l 0,0 c -0.28,0 -0.5,0.22 -0.5,0.5 0,0.28 0.22,0.5 0.5,0.5 z m 2,0 0,0 c 0.27,0 0.5,-0.22 0.5,-0.5 0,-0.28 -0.23,-0.5 -0.5,-0.5 l 0,0 c -0.28,0 -0.5,0.22 -0.5,0.5 0,0.28 0.22,0.5 0.5,0.5 z m 2,0 0,0 c 0.27,0 0.5,-0.22 0.5,-0.5 0,-0.28 -0.23,-0.5 -0.5,-0.5 l 0,0 c -0.28,0 -0.5,0.22 -0.5,0.5 0,0.28 0.22,0.5 0.5,0.5 z m 2,0 0,0 c 0.28,0 0.5,-0.22 0.5,-0.5 0,-0.28 -0.22,-0.5 -0.5,-0.5 l 0,0 c -0.28,0 -0.5,0.22 -0.5,0.5 0,0.28 0.22,0.5 0.5,0.5 z m 2,0 0,0 c 0.28,0 0.5,-0.22 0.5,-0.5 0,-0.28 -0.22,-0.5 -0.5,-0.5 l 0,0 c -0.28,0 -0.5,0.22 -0.5,0.5 0,0.28 0.22,0.5 0.5,0.5 z m 2,0 0,0 c 0.28,0 0.5,-0.22 0.5,-0.5 0,-0.28 -0.22,-0.5 -0.5,-0.5 l 0,0 c -0.28,0 -0.5,0.22 -0.5,0.5 0,0.28 0.22,0.5 0.5,0.5 z m 2,0 0,0 c 0.28,0 0.5,-0.22 0.5,-0.5 0,-0.28 -0.22,-0.5 -0.5,-0.5 l 0,0 c -0.27,0 -0.5,0.22 -0.5,0.5 0,0.28 0.23,0.5 0.5,0.5 z m 2,0 0,0 c 0.28,0 0.5,-0.22 0.5,-0.5 0,-0.28 -0.22,-0.5 -0.5,-0.5 l 0,0 c -0.27,0 -0.5,0.22 -0.5,0.5 0,0.28 0.23,0.5 0.5,0.5 z m 2,0 0,0 c 0.28,0 0.5,-0.22 0.5,-0.5 0,-0.28 -0.22,-0.5 -0.5,-0.5 l 0,0 c -0.27,0 -0.5,0.22 -0.5,0.5 0,0.28 0.23,0.5 0.5,0.5 z m 2,0 0.01,0 c 0.27,0 0.5,-0.22 0.5,-0.5 0,-0.28 -0.23,-0.5 -0.5,-0.5 l -0.01,0 c -0.27,0 -0.5,0.22 -0.5,0.5 0,0.28 0.23,0.5 0.5,0.5 z m 2.01,0 0,0 c 0.27,0 0.5,-0.22 0.5,-0.5 0,-0.28 -0.23,-0.5 -0.5,-0.5 l 0,0 c -0.28,0 -0.5,0.22 -0.5,0.5 0,0.28 0.22,0.5 0.5,0.5 z m 2,0 0,0 c 0.27,0 0.5,-0.22 0.5,-0.5 0,-0.28 -0.23,-0.5 -0.5,-0.5 l 0,0 c -0.28,0 -0.5,0.22 -0.5,0.5 0,0.28 0.22,0.5 0.5,0.5 z m 2,0 0,0 c 0.27,0 0.5,-0.22 0.5,-0.5 0,-0.28 -0.23,-0.5 -0.5,-0.5 l 0,0 c -0.28,0 -0.5,0.22 -0.5,0.5 0,0.28 0.22,0.5 0.5,0.5 z m 2,0 0,0 c 0.28,0 0.5,-0.22 0.5,-0.5 0,-0.28 -0.22,-0.5 -0.5,-0.5 l 0,0 c -0.28,0 -0.5,0.22 -0.5,0.5 0,0.28 0.22,0.5 0.5,0.5 z m 2,0 0,0 c 0.28,0 0.5,-0.22 0.5,-0.5 0,-0.28 -0.22,-0.5 -0.5,-0.5 l 0,0 c -0.28,0 -0.5,0.22 -0.5,0.5 0,0.28 0.22,0.5 0.5,0.5 z m 2,0 0,0 c 0.28,0 0.5,-0.22 0.5,-0.5 0,-0.28 -0.22,-0.5 -0.5,-0.5 l 0,0 c -0.28,0 -0.5,0.22 -0.5,0.5 0,0.28 0.22,0.5 0.5,0.5 z m 2,0 0,0 c 0.28,0 0.5,-0.22 0.5,-0.5 0,-0.28 -0.22,-0.5 -0.5,-0.5 l 0,0 c -0.27,0 -0.5,0.22 -0.5,0.5 0,0.28 0.23,0.5 0.5,0.5 z m 2,0 0,0 c 0.28,0 0.5,-0.22 0.5,-0.5 0,-0.28 -0.22,-0.5 -0.5,-0.5 l 0,0 c -0.27,0 -0.5,0.22 -0.5,0.5 0,0.28 0.23,0.5 0.5,0.5 z m 2,0 0,0 c 0.28,0 0.5,-0.22 0.5,-0.5 0,-0.28 -0.22,-0.5 -0.5,-0.5 l 0,0 c -0.27,0 -0.5,0.22 -0.5,0.5 0,0.28 0.23,0.5 0.5,0.5 z m 2,0 0.01,0 c 0.27,0 0.5,-0.22 0.5,-0.5 0,-0.28 -0.23,-0.5 -0.5,-0.5 l -0.01,0 c -0.27,0 -0.5,0.22 -0.5,0.5 0,0.28 0.23,0.5 0.5,0.5 z m 2.01,0 0,0 c 0.27,0 0.5,-0.22 0.5,-0.5 0,-0.28 -0.23,-0.5 -0.5,-0.5 l 0,0 c -0.28,0 -0.5,0.22 -0.5,0.5 0,0.28 0.22,0.5 0.5,0.5 z m 2,0 0,0 c 0.27,0 0.5,-0.22 0.5,-0.5 0,-0.28 -0.23,-0.5 -0.5,-0.5 l 0,0 c -0.28,0 -0.5,0.22 -0.5,0.5 0,0.28 0.22,0.5 0.5,0.5 z m 2,0 0,0 c 0.27,0 0.5,-0.22 0.5,-0.5 0,-0.28 -0.23,-0.5 -0.5,-0.5 l 0,0 c -0.28,0 -0.5,0.22 -0.5,0.5 0,0.28 0.22,0.5 0.5,0.5 z m 2,0 0,0 c 0.28,0 0.5,-0.22 0.5,-0.5 0,-0.28 -0.22,-0.5 -0.5,-0.5 l 0,0 c -0.28,0 -0.5,0.22 -0.5,0.5 0,0.28 0.22,0.5 0.5,0.5 z m 2,0 0,0 c 0.28,0 0.5,-0.22 0.5,-0.5 0,-0.28 -0.22,-0.5 -0.5,-0.5 l 0,0 c -0.28,0 -0.5,0.22 -0.5,0.5 0,0.28 0.22,0.5 0.5,0.5 z m 2,0 0,0 c 0.28,0 0.5,-0.22 0.5,-0.5 0,-0.28 -0.22,-0.5 -0.5,-0.5 l 0,0 c -0.28,0 -0.5,0.22 -0.5,0.5 0,0.28 0.22,0.5 0.5,0.5 z m 2,0 0,0 c 0.28,0 0.5,-0.22 0.5,-0.5 0,-0.28 -0.22,-0.5 -0.5,-0.5 l 0,0 c -0.27,0 -0.5,0.22 -0.5,0.5 0,0.28 0.23,0.5 0.5,0.5 z m 2,0 0,0 c 0.28,0 0.5,-0.22 0.5,-0.5 0,-0.28 -0.22,-0.5 -0.5,-0.5 l 0,0 c -0.27,0 -0.5,0.22 -0.5,0.5 0,0.28 0.23,0.5 0.5,0.5 z m 2,0 0,0 c 0.28,0 0.5,-0.22 0.5,-0.5 0,-0.28 -0.22,-0.5 -0.5,-0.5 l 0,0 c -0.27,0 -0.5,0.22 -0.5,0.5 0,0.28 0.23,0.5 0.5,0.5 z m 2,0 0.01,0 c 0.27,0 0.5,-0.22 0.5,-0.5 0,-0.28 -0.23,-0.5 -0.5,-0.5 l -0.01,0 c -0.27,0 -0.5,0.22 -0.5,0.5 0,0.28 0.23,0.5 0.5,0.5 z m 2.01,0 0,0 c 0.27,0 0.5,-0.22 0.5,-0.5 0,-0.28 -0.23,-0.5 -0.5,-0.5 l 0,0 c -0.28,0 -0.5,0.22 -0.5,0.5 0,0.28 0.22,0.5 0.5,0.5 z m 2,0 0,0 c 0.27,0 0.5,-0.22 0.5,-0.5 0,-0.28 -0.23,-0.5 -0.5,-0.5 l 0,0 c -0.28,0 -0.5,0.22 -0.5,0.5 0,0.28 0.22,0.5 0.5,0.5 z m 2,0 0,0 c 0.28,0 0.5,-0.22 0.5,-0.5 0,-0.28 -0.22,-0.5 -0.5,-0.5 l 0,0 c -0.28,0 -0.5,0.22 -0.5,0.5 0,0.28 0.22,0.5 0.5,0.5 z m -0.69,2.5 6,-3 -6,-3 0,6 z"
       inkscape:connector-curvature="0"
       id="path410"
       style="fill:#000000;fill-opacity:1;fill-rule:nonzero;stroke:none" /></g></svg>