<?xml version="1.0" encoding="UTF-8" standalone="no"?>
<!-- Created with Inkscape (http://www.inkscape.org/) -->

<svg
   xmlns:dc="http://purl.org/dc/elements/1.1/"
   xmlns:cc="http://creativecommons.org/ns#"
   xmlns:rdf="http://www.w3.org/1999/02/22-rdf-syntax-ns#"
   xmlns:svg="http://www.w3.org/2000/svg"
   xmlns="http://www.w3.org/2000/svg"
   xmlns:sodipodi="http://sodipodi.sourceforge.net/DTD/sodipodi-0.dtd"
   xmlns:inkscape="http://www.inkscape.org/namespaces/inkscape"
   version="1.1"
   width="281.79584"
   height="123.1875"
   id="svg2"
   xml:space="preserve"
   inkscape:version="0.48.4 r9939"
   sodipodi:docname="Bild 5-30 Zusammenarbeit in einer SOA.svg"><sodipodi:namedview
     pagecolor="#ffffff"
     bordercolor="#666666"
     borderopacity="1"
     objecttolerance="10"
     gridtolerance="10"
     guidetolerance="10"
     inkscape:pageopacity="0"
     inkscape:pageshadow="2"
     inkscape:window-width="640"
     inkscape:window-height="480"
     id="namedview190"
     showgrid="false"
     inkscape:zoom="0.18730159"
     inkscape:cx="142.29585"
     inkscape:cy="16.9375"
     inkscape:window-x="0"
     inkscape:window-y="0"
     inkscape:window-maximized="0"
     inkscape:current-layer="svg2" /><metadata
     id="metadata8"><rdf:RDF><cc:Work
         rdf:about=""><dc:format>image/svg+xml</dc:format><dc:type
           rdf:resource="http://purl.org/dc/dcmitype/StillImage" /></cc:Work></rdf:RDF></metadata><defs
     id="defs6"><clipPath
       id="clipPath16"><path
         d="m 386.33,566.59 61.68,0 0,11.76 -61.68,0 0,-11.76 z"
         inkscape:connector-curvature="0"
         id="path18" /></clipPath><clipPath
       id="clipPath24"><path
         d="m 386.33,566.59 61.68,0 0,11.76 -61.68,0 0,-11.76 z"
         inkscape:connector-curvature="0"
         id="path26" /></clipPath><clipPath
       id="clipPath36"><path
         d="m 386.33,566.59 61.68,0 0,11.76 -61.68,0 0,-11.76 z"
         inkscape:connector-curvature="0"
         id="path38" /></clipPath><clipPath
       id="clipPath46"><path
         d="m 557.48,567.31 63,0 0,11.88 -63,0 0,-11.88 z"
         inkscape:connector-curvature="0"
         id="path48" /></clipPath><clipPath
       id="clipPath54"><path
         d="m 557.47,567.31 63,0 0,11.88 -63,0 0,-11.88 z"
         inkscape:connector-curvature="0"
         id="path56" /></clipPath><clipPath
       id="clipPath66"><path
         d="m 557.47,567.31 63,0 0,11.88 -63,0 0,-11.88 z"
         inkscape:connector-curvature="0"
         id="path68" /></clipPath><clipPath
       id="clipPath74"><path
         d="m 476,498.79 54.84,0 0,14.16 -54.84,0 0,-14.16 z"
         inkscape:connector-curvature="0"
         id="path76" /></clipPath><clipPath
       id="clipPath82"><path
         d="m 475.99,498.79 54.84,0 0,14.16 -54.84,0 0,-14.16 z"
         inkscape:connector-curvature="0"
         id="path84" /></clipPath><clipPath
       id="clipPath94"><path
         d="m 475.99,498.79 54.84,0 0,14.16 -54.84,0 0,-14.16 z"
         inkscape:connector-curvature="0"
         id="path96" /></clipPath><clipPath
       id="clipPath106"><path
         d="m 475.99,498.79 54.84,0 0,14.16 -54.84,0 0,-14.16 z"
         inkscape:connector-curvature="0"
         id="path108" /></clipPath><clipPath
       id="clipPath118"><path
         d="m 475.99,498.79 54.84,0 0,14.16 -54.84,0 0,-14.16 z"
         inkscape:connector-curvature="0"
         id="path120" /></clipPath><clipPath
       id="clipPath126"><path
         d="m 475.99,498.79 54.84,0 0,14.16 -54.84,0 0,-14.16 z"
         inkscape:connector-curvature="0"
         id="path128" /></clipPath><clipPath
       id="clipPath138"><path
         d="m 475.99,498.79 54.84,0 0,14.16 -54.84,0 0,-14.16 z"
         inkscape:connector-curvature="0"
         id="path140" /></clipPath><clipPath
       id="clipPath150"><path
         d="m 475.99,498.79 54.84,0 0,14.16 -54.84,0 0,-14.16 z"
         inkscape:connector-curvature="0"
         id="path152" /></clipPath><clipPath
       id="clipPath172"><path
         d="m 376.49,528.19 81.12,0 0,8.28 -81.12,0 0,-8.28 z"
         inkscape:connector-curvature="0"
         id="path174" /></clipPath><clipPath
       id="clipPath180"><path
         d="m 376.49,528.19 81.12,0 0,8.28 -81.12,0 0,-8.28 z"
         inkscape:connector-curvature="0"
         id="path182" /></clipPath><clipPath
       id="clipPath192"><path
         d="m 376.49,528.19 81.12,0 0,8.28 -81.12,0 0,-8.28 z"
         inkscape:connector-curvature="0"
         id="path194" /></clipPath><clipPath
       id="clipPath204"><path
         d="m 376.49,528.19 81.12,0 0,8.28 -81.12,0 0,-8.28 z"
         inkscape:connector-curvature="0"
         id="path206" /></clipPath><clipPath
       id="clipPath212"><path
         d="m 470.36,579.55 81,0 0,8.28 -81,0 0,-8.28 z"
         inkscape:connector-curvature="0"
         id="path214" /></clipPath><clipPath
       id="clipPath220"><path
         d="m 470.35,579.55 81,0 0,8.28 -81,0 0,-8.28 z"
         inkscape:connector-curvature="0"
         id="path222" /></clipPath><clipPath
       id="clipPath232"><path
         d="m 470.35,579.55 81,0 0,8.28 -81,0 0,-8.28 z"
         inkscape:connector-curvature="0"
         id="path234" /></clipPath><clipPath
       id="clipPath244"><path
         d="m 470.35,579.55 81,0 0,8.28 -81,0 0,-8.28 z"
         inkscape:connector-curvature="0"
         id="path246" /></clipPath><clipPath
       id="clipPath256"><path
         d="m 470.35,579.55 81,0 0,8.28 -81,0 0,-8.28 z"
         inkscape:connector-curvature="0"
         id="path258" /></clipPath><clipPath
       id="clipPath264"><path
         d="m 539.36,498.79 81,0 0,8.16 -81,0 0,-8.16 z"
         inkscape:connector-curvature="0"
         id="path266" /></clipPath><clipPath
       id="clipPath272"><path
         d="m 539.35,498.79 81,0 0,8.16 -81,0 0,-8.16 z"
         inkscape:connector-curvature="0"
         id="path274" /></clipPath><clipPath
       id="clipPath284"><path
         d="m 539.35,498.79 81,0 0,8.16 -81,0 0,-8.16 z"
         inkscape:connector-curvature="0"
         id="path286" /></clipPath><clipPath
       id="clipPath296"><path
         d="m 539.35,498.79 81,0 0,8.16 -81,0 0,-8.16 z"
         inkscape:connector-curvature="0"
         id="path298" /></clipPath><clipPath
       id="clipPath304"><path
         d="m 518.36,540.55 81.12,0 0,8.16 -81.12,0 0,-8.16 z"
         inkscape:connector-curvature="0"
         id="path306" /></clipPath><clipPath
       id="clipPath312"><path
         d="m 518.35,540.55 81.12,0 0,8.16 -81.12,0 0,-8.16 z"
         inkscape:connector-curvature="0"
         id="path314" /></clipPath><clipPath
       id="clipPath324"><path
         d="m 518.35,540.55 81.12,0 0,8.16 -81.12,0 0,-8.16 z"
         inkscape:connector-curvature="0"
         id="path326" /></clipPath><clipPath
       id="clipPath332"><path
         d="m 469.88,563.95 81.12,0 0,8.28 -81.12,0 0,-8.28 z"
         inkscape:connector-curvature="0"
         id="path334" /></clipPath><clipPath
       id="clipPath340"><path
         d="m 469.87,563.95 81.12,0 0,8.28 -81.12,0 0,-8.28 z"
         inkscape:connector-curvature="0"
         id="path342" /></clipPath><clipPath
       id="clipPath352"><path
         d="m 469.87,563.95 81.12,0 0,8.28 -81.12,0 0,-8.28 z"
         inkscape:connector-curvature="0"
         id="path354" /></clipPath><clipPath
       id="clipPath364"><path
         d="m 469.87,563.95 81.12,0 0,8.28 -81.12,0 0,-8.28 z"
         inkscape:connector-curvature="0"
         id="path366" /></clipPath><clipPath
       id="clipPath376"><path
         d="m 469.87,563.95 81.12,0 0,8.28 -81.12,0 0,-8.28 z"
         inkscape:connector-curvature="0"
         id="path378" /></clipPath></defs><g
     transform="matrix(1.25,0,0,-1.25,-488.07915,736.25)"
     id="g10"><g
       id="g12"><g
         clip-path="url(#clipPath16)"
         id="g14"><g
           id="g20"><g
             clip-path="url(#clipPath24)"
             id="g22"><text
   transform="matrix(1,0,0,-1,394.85,572.47)"
   id="text28"><tspan
     x="0 3.96 7.3140001 9.5939999 12.834 14.502 17.868 21.222 24.576 28.176001 31.889999 33.557999 36.924 38.958 42.312"
     y="0"
     id="tspan30"
     style="font-size:6px;font-variant:normal;font-weight:bold;writing-mode:lr-tb;fill:#000000;fill-opacity:1;fill-rule:nonzero;stroke:none;font-family:Helvetica;-inkscape-font-specification:Helvetica-Bold">Serviceanbieter</tspan></text>

</g></g><g
           id="g32"><g
             clip-path="url(#clipPath36)"
             id="g34" /></g></g></g><path
       d="m 562.15,559.5 53.5,0 0,28.85 -53.5,0 0,-28.85 z"
       inkscape:connector-curvature="0"
       id="path40"
       style="fill:none;stroke:#000000;stroke-width:0.5;stroke-linecap:round;stroke-linejoin:miter;stroke-miterlimit:10;stroke-opacity:1;stroke-dasharray:none" /><g
       id="g42"><g
         clip-path="url(#clipPath46)"
         id="g44"><g
           id="g50"><g
             clip-path="url(#clipPath54)"
             id="g52"><text
   transform="matrix(1,0,0,-1,569.23,573.43)"
   id="text58"><tspan
     x="0 3.96 7.3140001 9.5939999 12.834 14.502 17.868 21.222 24.936001 28.535999 30.57 33.57 36.924"
     y="0"
     id="tspan60"
     style="font-size:6px;font-variant:normal;font-weight:bold;writing-mode:lr-tb;fill:#000000;fill-opacity:1;fill-rule:nonzero;stroke:none;font-family:Helvetica;-inkscape-font-specification:Helvetica-Bold">Servicenutzer</tspan></text>

</g></g><g
           id="g62"><g
             clip-path="url(#clipPath66)"
             id="g64" /></g></g></g><g
       id="g70"><g
         clip-path="url(#clipPath74)"
         id="g72"><g
           id="g78"><g
             clip-path="url(#clipPath82)"
             id="g80"><text
   transform="matrix(1,0,0,-1,491.71,507.55)"
   id="text86"><tspan
     x="0"
     y="0"
     id="tspan88"
     style="font-size:6px;font-variant:normal;font-weight:bold;writing-mode:lr-tb;fill:#000000;fill-opacity:1;fill-rule:nonzero;stroke:none;font-family:Helvetica;-inkscape-font-specification:Helvetica-Bold">S</tspan></text>

</g></g><g
           id="g90"><g
             clip-path="url(#clipPath94)"
             id="g92"><text
   transform="matrix(1,0,0,-1,495.67,507.55)"
   id="text98"><tspan
     x="0 3.3540001 5.6339998 8.8739996 10.542 13.908"
     y="0"
     id="tspan100"
     style="font-size:6px;font-variant:normal;font-weight:bold;writing-mode:lr-tb;fill:#000000;fill-opacity:1;fill-rule:nonzero;stroke:none;font-family:Helvetica;-inkscape-font-specification:Helvetica-Bold">ervice</tspan></text>

</g></g><g
           id="g102"><g
             clip-path="url(#clipPath106)"
             id="g104"><text
   transform="matrix(1,0,0,-1,512.95,507.55)"
   id="text110"><tspan
     x="0"
     y="0"
     id="tspan112"
     style="font-size:6px;font-variant:normal;font-weight:bold;writing-mode:lr-tb;fill:#000000;fill-opacity:1;fill-rule:nonzero;stroke:none;font-family:Helvetica;-inkscape-font-specification:Helvetica-Bold">-</tspan></text>

</g></g><g
           id="g114"><g
             clip-path="url(#clipPath118)"
             id="g116" /></g><g
           id="g122"><g
             clip-path="url(#clipPath126)"
             id="g124"><text
   transform="matrix(1,0,0,-1,487.03,500.59)"
   id="text130"><tspan
     x="0"
     y="0"
     id="tspan132"
     style="font-size:6px;font-variant:normal;font-weight:bold;writing-mode:lr-tb;fill:#000000;fill-opacity:1;fill-rule:nonzero;stroke:none;font-family:Helvetica;-inkscape-font-specification:Helvetica-Bold">v</tspan></text>

</g></g><g
           id="g134"><g
             clip-path="url(#clipPath138)"
             id="g136"><text
   transform="matrix(1,0,0,-1,490.27,500.59)"
   id="text142"><tspan
     x="0 3.3540001 5.6339998 8.6339998 11.988 13.656 17.021999 20.736 24.336 26.004"
     y="0"
     id="tspan144"
     style="font-size:6px;font-variant:normal;font-weight:bold;writing-mode:lr-tb;fill:#000000;fill-opacity:1;fill-rule:nonzero;stroke:none;font-family:Helvetica;-inkscape-font-specification:Helvetica-Bold">erzeichnis</tspan></text>

</g></g><g
           id="g146"><g
             clip-path="url(#clipPath150)"
             id="g148" /></g></g></g><path
       d="m 478,490.7 53.5,0 0,28.85 -53.5,0 0,-28.85 z"
       inkscape:connector-curvature="0"
       id="path154"
       style="fill:none;stroke:#000000;stroke-width:0.5;stroke-linecap:round;stroke-linejoin:miter;stroke-miterlimit:10;stroke-opacity:1;stroke-dasharray:none" /><path
       d="m 391.4,559.9 53.5,0 0,28.85 -53.5,0 0,-28.85 z"
       inkscape:connector-curvature="0"
       id="path156"
       style="fill:none;stroke:#000000;stroke-width:0.5;stroke-linecap:round;stroke-linejoin:miter;stroke-miterlimit:10;stroke-opacity:1;stroke-dasharray:none" /><path
       d="m 445.05,564.5 108.1,0 c 0.28,0 0.5,-0.22 0.5,-0.5 0,-0.28 -0.22,-0.5 -0.5,-0.5 l -108.1,0 c -0.28,0 -0.5,0.22 -0.5,0.5 0,0.28 0.22,0.5 0.5,0.5 z m 107.1,1.5 10,-2 -10,-2 0,4 z"
       inkscape:connector-curvature="0"
       id="path158"
       style="fill:#000000;fill-opacity:1;fill-rule:nonzero;stroke:none" /><path
       d="m 531.17,495.58 66.63,58.37 c 0.21,0.18 0.52,0.16 0.71,-0.05 0.18,-0.21 0.16,-0.52 -0.05,-0.71 l -66.63,-58.37 c -0.21,-0.18 -0.52,-0.16 -0.71,0.05 -0.18,0.21 -0.16,0.52 0.05,0.71 z m 64.89,58.84 8.84,5.08 -6.2,-8.09 -2.64,3.01 z"
       inkscape:connector-curvature="0"
       id="path160"
       style="fill:#000000;fill-opacity:1;fill-rule:nonzero;stroke:none" /><path
       d="m 562.15,580.3 -108.1,-0.05 c -0.28,0 -0.5,0.23 -0.5,0.5 0,0.28 0.22,0.5 0.5,0.5 l 108.1,0.05 c 0.28,0 0.5,-0.22 0.5,-0.5 0,-0.28 -0.22,-0.5 -0.5,-0.5 z m -107.1,-1.55 -10,2 10,2 0,-4 z"
       inkscape:connector-curvature="0"
       id="path162"
       style="fill:#000000;fill-opacity:1;fill-rule:nonzero;stroke:none" /><path
       d="m 588.58,559.12 -49.93,-42.98 c -0.21,-0.18 -0.53,-0.15 -0.71,0.06 -0.18,0.2 -0.15,0.52 0.05,0.7 l 49.93,42.98 c 0.21,0.18 0.53,0.16 0.71,-0.05 0.18,-0.21 0.16,-0.53 -0.05,-0.71 z m -48.2,-43.46 -8.88,-5.01 6.27,8.04 2.61,-3.03 z"
       inkscape:connector-curvature="0"
       id="path164"
       style="fill:#000000;fill-opacity:1;fill-rule:nonzero;stroke:none" /><path
       d="m 417.69,559.87 54.01,-49.43 c 0.2,-0.18 0.22,-0.5 0.03,-0.7 -0.19,-0.21 -0.5,-0.22 -0.71,-0.03 l -54.01,49.42 c -0.2,0.19 -0.22,0.5 -0.03,0.71 0.19,0.2 0.5,0.22 0.71,0.03 z m 54.28,-47.64 6.03,-8.23 -8.73,5.28 2.7,2.95 z"
       inkscape:connector-curvature="0"
       id="path166"
       style="fill:#000000;fill-opacity:1;fill-rule:nonzero;stroke:none" /><g
       id="g168"><g
         clip-path="url(#clipPath172)"
         id="g170"><g
           id="g176"><g
             clip-path="url(#clipPath180)"
             id="g178"><text
   transform="matrix(1,0,0,-1,389.81,530.71)"
   id="text184"><tspan
     x="0"
     y="0"
     id="tspan186"
     style="font-size:6px;font-variant:normal;font-weight:bold;writing-mode:lr-tb;fill:#000000;fill-opacity:1;fill-rule:nonzero;stroke:none;font-family:Helvetica;-inkscape-font-specification:Helvetica-Bold">1</tspan></text>

</g></g><g
           id="g188"><g
             clip-path="url(#clipPath192)"
             id="g190"><text
   transform="matrix(1,0,0,-1,393.17,530.71)"
   id="text196"><tspan
     x="0 1.668 3.3540001 7.3140001 10.668 12.948 16.662001 18.695999 20.73 24.084 27.684 29.718 31.386 33.071999 36.425999 40.026001 43.625999 47.226002"
     y="0"
     id="tspan198"
     style="font-size:6px;font-variant:normal;font-weight:bold;writing-mode:lr-tb;fill:#000000;fill-opacity:1;fill-rule:nonzero;stroke:none;font-family:Helvetica;-inkscape-font-specification:Helvetica-Bold">. Veröffentlichung</tspan></text>

</g></g><g
           id="g200"><g
             clip-path="url(#clipPath204)"
             id="g202" /></g></g></g><g
       id="g208"><g
         clip-path="url(#clipPath212)"
         id="g210"><g
           id="g216"><g
             clip-path="url(#clipPath220)"
             id="g218"><text
   transform="matrix(1,0,0,-1,477.55,582.07)"
   id="text224"><tspan
     x="0 3.3540001 5.0219998"
     y="0"
     id="tspan226"
     style="font-size:6px;font-variant:normal;font-weight:bold;writing-mode:lr-tb;fill:#000000;fill-opacity:1;fill-rule:nonzero;stroke:none;font-family:Helvetica;-inkscape-font-specification:Helvetica-Bold">4. </tspan></text>

</g></g><g
           id="g228"><g
             clip-path="url(#clipPath232)"
             id="g230"><text
   transform="matrix(1,0,0,-1,484.27,582.07)"
   id="text236"><tspan
     x="0 3.96 7.3140001 9.5939999 12.834 14.502 17.868 21.222"
     y="0"
     id="tspan238"
     style="font-size:6px;font-variant:normal;font-weight:bold;writing-mode:lr-tb;fill:#000000;fill-opacity:1;fill-rule:nonzero;stroke:none;font-family:Helvetica;-inkscape-font-specification:Helvetica-Bold">Servicea</tspan></text>

</g></g><g
           id="g240"><g
             clip-path="url(#clipPath244)"
             id="g242"><text
   transform="matrix(1,0,0,-1,508.87,582.07)"
   id="text248"><tspan
     x="0 3.5999999 5.6339998 8.0279999 11.628"
     y="0"
     id="tspan250"
     style="font-size:6px;font-variant:normal;font-weight:bold;writing-mode:lr-tb;fill:#000000;fill-opacity:1;fill-rule:nonzero;stroke:none;font-family:Helvetica;-inkscape-font-specification:Helvetica-Bold">ufruf</tspan></text>

</g></g><g
           id="g252"><g
             clip-path="url(#clipPath256)"
             id="g254" /></g></g></g><g
       id="g260"><g
         clip-path="url(#clipPath264)"
         id="g262"><g
           id="g268"><g
             clip-path="url(#clipPath272)"
             id="g270"><text
   transform="matrix(1,0,0,-1,546.55,501.07)"
   id="text276"><tspan
     x="0 3.3540001 5.0219998"
     y="0"
     id="tspan278"
     style="font-size:6px;font-variant:normal;font-weight:bold;writing-mode:lr-tb;fill:#000000;fill-opacity:1;fill-rule:nonzero;stroke:none;font-family:Helvetica;-inkscape-font-specification:Helvetica-Bold">3. </tspan></text>

</g></g><g
           id="g280"><g
             clip-path="url(#clipPath284)"
             id="g282"><text
   transform="matrix(1,0,0,-1,553.27,501.07)"
   id="text288"><tspan
     x="0 3.96 7.3140001 9.5939999 14.262 17.628 19.296 22.662001 24.33 27.695999 31.296 33.330002 34.998001 38.970001 42.324001 44.604 47.844002 49.512001 52.877998"
     y="0"
     id="tspan290"
     style="font-size:6px;font-variant:normal;font-weight:bold;writing-mode:lr-tb;fill:#000000;fill-opacity:1;fill-rule:nonzero;stroke:none;font-family:Helvetica;-inkscape-font-specification:Helvetica-Bold">Verweis auf Service</tspan></text>

</g></g><g
           id="g292"><g
             clip-path="url(#clipPath296)"
             id="g294" /></g></g></g><g
       id="g300"><g
         clip-path="url(#clipPath304)"
         id="g302"><g
           id="g308"><g
             clip-path="url(#clipPath312)"
             id="g310"><text
   transform="matrix(1,0,0,-1,525.55,542.83)"
   id="text316"><tspan
     x="0 3.3540001 5.0219998 6.7080002 10.668 14.268 17.622 21.222 24.576 28.176001 30.209999 32.490002 35.844002 39.557999"
     y="0"
     id="tspan318"
     style="font-size:6px;font-variant:normal;font-weight:bold;writing-mode:lr-tb;fill:#000000;fill-opacity:1;fill-rule:nonzero;stroke:none;font-family:Helvetica;-inkscape-font-specification:Helvetica-Bold">2. Suchanfrage</tspan></text>

</g></g><g
           id="g320"><g
             clip-path="url(#clipPath324)"
             id="g322" /></g></g></g><g
       id="g328"><g
         clip-path="url(#clipPath332)"
         id="g330"><g
           id="g336"><g
             clip-path="url(#clipPath340)"
             id="g338"><text
   transform="matrix(1,0,0,-1,477.07,566.47)"
   id="text344"><tspan
     x="0 3.3540001 5.0219998"
     y="0"
     id="tspan346"
     style="font-size:6px;font-variant:normal;font-weight:bold;writing-mode:lr-tb;fill:#000000;fill-opacity:1;fill-rule:nonzero;stroke:none;font-family:Helvetica;-inkscape-font-specification:Helvetica-Bold">5. </tspan></text>

</g></g><g
           id="g348"><g
             clip-path="url(#clipPath352)"
             id="g350"><text
   transform="matrix(1,0,0,-1,483.79,566.47)"
   id="text356"><tspan
     x="0 3.96 7.3140001 9.5939999 12.834 14.502 17.868 21.222"
     y="0"
     id="tspan358"
     style="font-size:6px;font-variant:normal;font-weight:bold;writing-mode:lr-tb;fill:#000000;fill-opacity:1;fill-rule:nonzero;stroke:none;font-family:Helvetica;-inkscape-font-specification:Helvetica-Bold">Servicea</tspan></text>

</g></g><g
           id="g360"><g
             clip-path="url(#clipPath364)"
             id="g362"><text
   transform="matrix(1,0,0,-1,508.39,566.47)"
   id="text368"><tspan
     x="0 3.5999999 5.6339998 10.302 14.028 16.308001"
     y="0"
     id="tspan370"
     style="font-size:6px;font-variant:normal;font-weight:bold;writing-mode:lr-tb;fill:#000000;fill-opacity:1;fill-rule:nonzero;stroke:none;font-family:Helvetica;-inkscape-font-specification:Helvetica-Bold">ntwort</tspan></text>

</g></g><g
           id="g372"><g
             clip-path="url(#clipPath376)"
             id="g374" /></g></g></g></g></svg>