<?xml version="1.0" encoding="UTF-8" standalone="no"?>
<!-- Created with Inkscape (http://www.inkscape.org/) -->

<svg
   xmlns:dc="http://purl.org/dc/elements/1.1/"
   xmlns:cc="http://creativecommons.org/ns#"
   xmlns:rdf="http://www.w3.org/1999/02/22-rdf-syntax-ns#"
   xmlns:svg="http://www.w3.org/2000/svg"
   xmlns="http://www.w3.org/2000/svg"
   xmlns:sodipodi="http://sodipodi.sourceforge.net/DTD/sodipodi-0.dtd"
   xmlns:inkscape="http://www.inkscape.org/namespaces/inkscape"
   version="1.1"
   width="688.5625"
   height="387.625"
   id="svg2"
   xml:space="preserve"
   inkscape:version="0.48.4 r9939"
   sodipodi:docname="Bild 5-32 Beispielhaftes Sequenzdiagramm einer SOA.svg"><sodipodi:namedview
     pagecolor="#ffffff"
     bordercolor="#666666"
     borderopacity="1"
     objecttolerance="10"
     gridtolerance="10"
     guidetolerance="10"
     inkscape:pageopacity="0"
     inkscape:pageshadow="2"
     inkscape:window-width="640"
     inkscape:window-height="480"
     id="namedview302"
     showgrid="false"
     inkscape:zoom="0.18730159"
     inkscape:cx="478.96875"
     inkscape:cy="317.71875"
     inkscape:window-x="0"
     inkscape:window-y="0"
     inkscape:window-maximized="0"
     inkscape:current-layer="svg2" /><metadata
     id="metadata8"><rdf:RDF><cc:Work
         rdf:about=""><dc:format>image/svg+xml</dc:format><dc:type
           rdf:resource="http://purl.org/dc/dcmitype/StillImage" /></cc:Work></rdf:RDF></metadata><defs
     id="defs6"><clipPath
       id="clipPath34"><path
         d="m 121.59,524.11 98.04,0 0,32.16 -98.04,0 0,-32.16 z"
         inkscape:connector-curvature="0"
         id="path36" /></clipPath><clipPath
       id="clipPath42"><path
         d="m 121.58,524.11 98.04,0 0,32.16 -98.04,0 0,-32.16 z"
         inkscape:connector-curvature="0"
         id="path44" /></clipPath><clipPath
       id="clipPath54"><path
         d="m 121.58,524.11 98.04,0 0,32.16 -98.04,0 0,-32.16 z"
         inkscape:connector-curvature="0"
         id="path56" /></clipPath><clipPath
       id="clipPath66"><path
         d="m 121.58,524.11 98.04,0 0,32.16 -98.04,0 0,-32.16 z"
         inkscape:connector-curvature="0"
         id="path68" /></clipPath><clipPath
       id="clipPath74"><path
         d="m 121.58,524.11 98.04,0 0,32.16 -98.04,0 0,-32.16 z"
         inkscape:connector-curvature="0"
         id="path76" /></clipPath><clipPath
       id="clipPath86"><path
         d="m 224.43,524.11 99.015,0 0,32.16 -99.015,0 0,-32.16 z"
         inkscape:connector-curvature="0"
         id="path88" /></clipPath><clipPath
       id="clipPath94"><path
         d="m 224.42,524.11 99.024,0 0,32.16 -99.024,0 0,-32.16 z"
         inkscape:connector-curvature="0"
         id="path96" /></clipPath><clipPath
       id="clipPath106"><path
         d="m 224.42,524.11 99.024,0 0,32.16 -99.024,0 0,-32.16 z"
         inkscape:connector-curvature="0"
         id="path108" /></clipPath><clipPath
       id="clipPath118"><path
         d="m 224.42,524.11 99.024,0 0,32.16 -99.024,0 0,-32.16 z"
         inkscape:connector-curvature="0"
         id="path120" /></clipPath><clipPath
       id="clipPath126"><path
         d="m 224.42,524.11 99.024,0 0,32.16 -99.024,0 0,-32.16 z"
         inkscape:connector-curvature="0"
         id="path128" /></clipPath><clipPath
       id="clipPath138"><path
         d="m 224.42,524.11 99.024,0 0,32.16 -99.024,0 0,-32.16 z"
         inkscape:connector-curvature="0"
         id="path140" /></clipPath><clipPath
       id="clipPath146"><path
         d="m 467.96,524.11 98.88,0 0,32.16 -98.88,0 0,-32.16 z"
         inkscape:connector-curvature="0"
         id="path148" /></clipPath><clipPath
       id="clipPath154"><path
         d="m 467.95,524.11 98.88,0 0,32.16 -98.88,0 0,-32.16 z"
         inkscape:connector-curvature="0"
         id="path156" /></clipPath><clipPath
       id="clipPath166"><path
         d="m 467.95,524.11 98.88,0 0,32.16 -98.88,0 0,-32.16 z"
         inkscape:connector-curvature="0"
         id="path168" /></clipPath><clipPath
       id="clipPath178"><path
         d="m 467.95,524.11 98.88,0 0,32.16 -98.88,0 0,-32.16 z"
         inkscape:connector-curvature="0"
         id="path180" /></clipPath><clipPath
       id="clipPath186"><path
         d="m 467.95,524.11 98.88,0 0,32.16 -98.88,0 0,-32.16 z"
         inkscape:connector-curvature="0"
         id="path188" /></clipPath><clipPath
       id="clipPath198"><path
         d="m 467.95,524.11 98.88,0 0,32.16 -98.88,0 0,-32.16 z"
         inkscape:connector-curvature="0"
         id="path200" /></clipPath><clipPath
       id="clipPath210"><path
         d="m 572.12,524.11 99.975,0 0,32.16 -99.975,0 0,-32.16 z"
         inkscape:connector-curvature="0"
         id="path212" /></clipPath><clipPath
       id="clipPath218"><path
         d="m 572.11,524.11 99.984,0 0,32.16 -99.984,0 0,-32.16 z"
         inkscape:connector-curvature="0"
         id="path220" /></clipPath><clipPath
       id="clipPath230"><path
         d="m 572.11,524.11 99.984,0 0,32.16 -99.984,0 0,-32.16 z"
         inkscape:connector-curvature="0"
         id="path232" /></clipPath><clipPath
       id="clipPath242"><path
         d="m 572.11,524.11 99.984,0 0,32.16 -99.984,0 0,-32.16 z"
         inkscape:connector-curvature="0"
         id="path244" /></clipPath><clipPath
       id="clipPath250"><path
         d="m 572.11,524.11 99.984,0 0,32.16 -99.984,0 0,-32.16 z"
         inkscape:connector-curvature="0"
         id="path252" /></clipPath><clipPath
       id="clipPath262"><path
         d="m 572.11,524.11 99.984,0 0,32.16 -99.984,0 0,-32.16 z"
         inkscape:connector-curvature="0"
         id="path264" /></clipPath><clipPath
       id="clipPath278"><path
         d="m 306.17,444.55 125.76,0 0,18 -125.76,0 0,-18 z"
         inkscape:connector-curvature="0"
         id="path280" /></clipPath><clipPath
       id="clipPath286"><path
         d="m 306.17,444.55 125.76,0 0,18 -125.76,0 0,-18 z"
         inkscape:connector-curvature="0"
         id="path288" /></clipPath><clipPath
       id="clipPath298"><path
         d="m 306.17,444.55 125.76,0 0,18 -125.76,0 0,-18 z"
         inkscape:connector-curvature="0"
         id="path300" /></clipPath><clipPath
       id="clipPath306"><path
         d="m 306.17,444.55 125.76,0 0,18 -125.76,0 0,-18 z"
         inkscape:connector-curvature="0"
         id="path308" /></clipPath><clipPath
       id="clipPath318"><path
         d="m 306.17,444.55 125.76,0 0,18 -125.76,0 0,-18 z"
         inkscape:connector-curvature="0"
         id="path320" /></clipPath><clipPath
       id="clipPath334"><path
         d="m 306.17,408.88 190.71,0 0,17.4 -190.71,0 0,-17.4 z"
         inkscape:connector-curvature="0"
         id="path336" /></clipPath><clipPath
       id="clipPath342"><path
         d="m 306.17,408.89 190.7,0 0,17.4 -190.7,0 0,-17.4 z"
         inkscape:connector-curvature="0"
         id="path344" /></clipPath><clipPath
       id="clipPath354"><path
         d="m 306.17,408.89 190.7,0 0,17.4 -190.7,0 0,-17.4 z"
         inkscape:connector-curvature="0"
         id="path356" /></clipPath><clipPath
       id="clipPath362"><path
         d="m 306.17,408.89 190.7,0 0,17.4 -190.7,0 0,-17.4 z"
         inkscape:connector-curvature="0"
         id="path364" /></clipPath><clipPath
       id="clipPath374"><path
         d="m 306.17,408.89 190.7,0 0,17.4 -190.7,0 0,-17.4 z"
         inkscape:connector-curvature="0"
         id="path376" /></clipPath><clipPath
       id="clipPath382"><path
         d="m 306.17,408.89 190.7,0 0,17.4 -190.7,0 0,-17.4 z"
         inkscape:connector-curvature="0"
         id="path384" /></clipPath><clipPath
       id="clipPath394"><path
         d="m 306.17,408.89 190.7,0 0,17.4 -190.7,0 0,-17.4 z"
         inkscape:connector-curvature="0"
         id="path396" /></clipPath><clipPath
       id="clipPath412"><path
         d="m 306.17,374.56 142.68,0 0,18 -142.68,0 0,-18 z"
         inkscape:connector-curvature="0"
         id="path414" /></clipPath><clipPath
       id="clipPath420"><path
         d="m 306.17,374.57 142.68,0 0,18 -142.68,0 0,-18 z"
         inkscape:connector-curvature="0"
         id="path422" /></clipPath><clipPath
       id="clipPath432"><path
         d="m 306.17,374.57 142.68,0 0,18 -142.68,0 0,-18 z"
         inkscape:connector-curvature="0"
         id="path434" /></clipPath><clipPath
       id="clipPath440"><path
         d="m 306.17,374.57 142.68,0 0,18 -142.68,0 0,-18 z"
         inkscape:connector-curvature="0"
         id="path442" /></clipPath><clipPath
       id="clipPath452"><path
         d="m 306.17,374.57 142.68,0 0,18 -142.68,0 0,-18 z"
         inkscape:connector-curvature="0"
         id="path454" /></clipPath><clipPath
       id="clipPath460"><path
         d="m 306.17,344.56 190.71,0 0,18 -190.71,0 0,-18 z"
         inkscape:connector-curvature="0"
         id="path462" /></clipPath><clipPath
       id="clipPath468"><path
         d="m 306.17,344.57 190.7,0 0,18 -190.7,0 0,-18 z"
         inkscape:connector-curvature="0"
         id="path470" /></clipPath><clipPath
       id="clipPath480"><path
         d="m 306.17,344.57 190.7,0 0,18 -190.7,0 0,-18 z"
         inkscape:connector-curvature="0"
         id="path482" /></clipPath><clipPath
       id="clipPath488"><path
         d="m 306.17,344.57 190.7,0 0,18 -190.7,0 0,-18 z"
         inkscape:connector-curvature="0"
         id="path490" /></clipPath><clipPath
       id="clipPath500"><path
         d="m 306.17,344.57 190.7,0 0,18 -190.7,0 0,-18 z"
         inkscape:connector-curvature="0"
         id="path502" /></clipPath><clipPath
       id="clipPath508"><path
         d="m 180.39,312.52 80.88,0 0,32.04 -80.88,0 0,-32.04 z"
         inkscape:connector-curvature="0"
         id="path510" /></clipPath><clipPath
       id="clipPath516"><path
         d="m 180.38,312.53 80.88,0 0,32.04 -80.88,0 0,-32.04 z"
         inkscape:connector-curvature="0"
         id="path518" /></clipPath><clipPath
       id="clipPath528"><path
         d="m 180.38,312.53 80.88,0 0,32.04 -80.88,0 0,-32.04 z"
         inkscape:connector-curvature="0"
         id="path530" /></clipPath><clipPath
       id="clipPath540"><path
         d="m 180.38,312.53 80.88,0 0,32.04 -80.88,0 0,-32.04 z"
         inkscape:connector-curvature="0"
         id="path542" /></clipPath><clipPath
       id="clipPath548"><path
         d="m 180.38,312.53 80.88,0 0,32.04 -80.88,0 0,-32.04 z"
         inkscape:connector-curvature="0"
         id="path550" /></clipPath><clipPath
       id="clipPath560"><path
         d="m 180.38,312.53 80.88,0 0,32.04 -80.88,0 0,-32.04 z"
         inkscape:connector-curvature="0"
         id="path562" /></clipPath><clipPath
       id="clipPath568"><path
         d="m 185.91,468.91 79.32,0 0,17.88 -79.32,0 0,-17.88 z"
         inkscape:connector-curvature="0"
         id="path570" /></clipPath><clipPath
       id="clipPath576"><path
         d="m 185.9,468.91 79.32,0 0,17.88 -79.32,0 0,-17.88 z"
         inkscape:connector-curvature="0"
         id="path578" /></clipPath><clipPath
       id="clipPath588"><path
         d="m 185.9,468.91 79.32,0 0,17.88 -79.32,0 0,-17.88 z"
         inkscape:connector-curvature="0"
         id="path590" /></clipPath><clipPath
       id="clipPath600"><path
         d="m 185.9,468.91 79.32,0 0,17.88 -79.32,0 0,-17.88 z"
         inkscape:connector-curvature="0"
         id="path602" /></clipPath></defs><g
     transform="matrix(1.25,0,0,-1.25,-151.40625,699.90625)"
     id="g10"><g
       id="g12"><path
         d="m 517.6,521.7 0.05,-271.5"
         inkscape:connector-curvature="0"
         id="path14"
         style="fill:none;stroke:#000000;stroke-width:0.75;stroke-linecap:round;stroke-linejoin:round;stroke-miterlimit:10;stroke-opacity:1;stroke-dasharray:5.25, 3;stroke-dashoffset:0" /></g><g
       id="g16"><path
         d="m 273.9,521.7 0.05,-271.5"
         inkscape:connector-curvature="0"
         id="path18"
         style="fill:none;stroke:#000000;stroke-width:0.75;stroke-linecap:round;stroke-linejoin:round;stroke-miterlimit:10;stroke-opacity:1;stroke-dasharray:5.25, 3;stroke-dashoffset:0" /></g><g
       id="g20"><path
         d="m 170.85,521.85 0.05,-271.5"
         inkscape:connector-curvature="0"
         id="path22"
         style="fill:none;stroke:#000000;stroke-width:0.75;stroke-linecap:round;stroke-linejoin:round;stroke-miterlimit:10;stroke-opacity:1;stroke-dasharray:5.25, 3;stroke-dashoffset:0" /></g><path
       d="m 179.1,468.5 74,0 c 0.28,0 0.5,-0.22 0.5,-0.5 0,-0.28 -0.22,-0.5 -0.5,-0.5 l -74,0 c -0.28,0 -0.5,0.22 -0.5,0.5 0,0.28 0.22,0.5 0.5,0.5 z m 73,4.5 10,-5 -10,-5 0,10 z"
       inkscape:connector-curvature="0"
       id="path24"
       style="fill:#000000;fill-opacity:1;fill-rule:nonzero;stroke:none" /><path
       d="m 270,312.55 -3,-0.02 c -0.27,0 -0.5,0.23 -0.5,0.5 0,0.28 0.22,0.5 0.5,0.5 l 3,0.02 c 0.27,0 0.5,-0.22 0.5,-0.5 0,-0.27 -0.22,-0.5 -0.5,-0.5 z m -7,-0.04 -3,-0.01 c -0.27,0 -0.5,0.22 -0.5,0.5 0,0.27 0.22,0.5 0.5,0.5 l 3,0.01 c 0.27,0.01 0.5,-0.22 0.5,-0.49 0,-0.28 -0.22,-0.5 -0.5,-0.51 z m -7,-0.03 -3,-0.02 c -0.27,0 -0.5,0.22 -0.5,0.5 0,0.28 0.22,0.5 0.5,0.5 l 3,0.02 c 0.27,0 0.5,-0.22 0.5,-0.5 0,-0.28 -0.22,-0.5 -0.5,-0.5 z m -7,-0.04 -3,-0.01 c -0.27,-0.01 -0.5,0.22 -0.5,0.49 0,0.28 0.22,0.5 0.5,0.51 l 3,0.01 c 0.27,0 0.5,-0.22 0.5,-0.5 0,-0.27 -0.22,-0.5 -0.5,-0.5 z m -7,-0.04 -3,-0.01 c -0.27,0 -0.5,0.22 -0.5,0.5 0,0.27 0.22,0.5 0.5,0.5 l 3,0.01 c 0.27,0.01 0.5,-0.22 0.5,-0.49 0,-0.28 -0.22,-0.5 -0.5,-0.51 z m -7,-0.03 -3,-0.02 c -0.27,0 -0.5,0.22 -0.5,0.5 0,0.28 0.22,0.5 0.5,0.5 l 3,0.02 c 0.27,0 0.5,-0.22 0.5,-0.5 0,-0.28 -0.22,-0.5 -0.5,-0.5 z m -7,-0.04 -3,-0.01 c -0.27,-0.01 -0.5,0.22 -0.5,0.49 0,0.28 0.22,0.5 0.5,0.51 l 3,0.01 c 0.27,0 0.5,-0.22 0.5,-0.5 0,-0.27 -0.22,-0.5 -0.5,-0.5 z m -7,-0.03 -3,-0.02 c -0.27,0 -0.5,0.22 -0.5,0.5 0,0.27 0.22,0.5 0.5,0.5 l 3,0.02 c 0.27,0 0.5,-0.23 0.5,-0.5 0,-0.28 -0.22,-0.5 -0.5,-0.5 z m -7,-0.04 -3,-0.02 c -0.27,0 -0.5,0.22 -0.5,0.5 0,0.28 0.22,0.5 0.5,0.5 l 3,0.02 c 0.27,0 0.5,-0.22 0.5,-0.5 0,-0.27 -0.22,-0.5 -0.5,-0.5 z m -7,-0.04 -3,-0.01 c -0.27,0 -0.5,0.22 -0.5,0.49 0,0.28 0.22,0.51 0.5,0.51 l 3,0.01 c 0.27,0 0.5,-0.22 0.5,-0.49 0,-0.28 -0.22,-0.51 -0.5,-0.51 z m -7,-0.03 -3,-0.02 c -0.27,0 -0.5,0.22 -0.5,0.5 0,0.27 0.22,0.5 0.5,0.5 l 3,0.02 c 0.27,0 0.5,-0.23 0.5,-0.5 0,-0.28 -0.22,-0.5 -0.5,-0.5 z m -7,-0.04 -3,-0.02 c -0.27,0 -0.5,0.23 -0.5,0.5 0,0.28 0.22,0.5 0.5,0.5 l 3,0.02 c 0.27,0 0.5,-0.22 0.5,-0.5 0,-0.27 -0.22,-0.5 -0.5,-0.5 z m -7,-0.04 -0.45,0 c -0.27,0 -0.5,0.22 -0.5,0.5 0,0.27 0.22,0.5 0.5,0.5 l 0.45,0 c 0.27,0 0.5,-0.22 0.5,-0.49 0,-0.28 -0.22,-0.51 -0.5,-0.51 z m 8.34,-4.89 -9.82,5.39 9.76,5.48 c 0.24,0.14 0.54,0.05 0.68,-0.19 0.13,-0.24 0.05,-0.54 -0.19,-0.68 l -8.97,-5.05 -0.01,0.88 9.03,-4.95 c 0.24,-0.14 0.33,-0.44 0.19,-0.68 -0.13,-0.25 -0.43,-0.33 -0.67,-0.2 z"
       inkscape:connector-curvature="0"
       id="path26"
       style="fill:#000000;fill-opacity:1;fill-rule:nonzero;stroke:none" /><path
       d="m 121.5,522 99,0 0,37.55 -99,0 0,-37.55 z"
       inkscape:connector-curvature="0"
       id="path28"
       style="fill:none;stroke:#000000;stroke-width:0.75;stroke-linecap:round;stroke-linejoin:miter;stroke-miterlimit:10;stroke-opacity:1;stroke-dasharray:none" /><g
       id="g30"><g
         clip-path="url(#clipPath34)"
         id="g32"><g
           id="g38"><g
             clip-path="url(#clipPath42)"
             id="g40"><text
   transform="matrix(1,0,0,-1,125.9,543.31)"
   id="text46"><tspan
     x="0"
     y="0"
     id="tspan48"
     style="font-size:14.03999996px;font-variant:normal;font-weight:normal;writing-mode:lr-tb;fill:#000000;fill-opacity:1;fill-rule:nonzero;stroke:none;font-family:Helvetica;-inkscape-font-specification:Helvetica">:</tspan></text>

</g></g><g
           id="g50"><g
             clip-path="url(#clipPath54)"
             id="g52"><text
   transform="matrix(1,0,0,-1,129.86,543.31)"
   id="text58"><tspan
     x="0 9.3646803 17.170919 21.846239 28.68372 31.8006 38.86272 46.668961 54.475201 62.281441 66.100319 73.162437 80.968681"
     y="0"
     id="tspan60"
     style="font-size:14.03999996px;font-variant:normal;font-weight:normal;writing-mode:lr-tb;fill:#000000;fill-opacity:1;fill-rule:nonzero;stroke:none;font-family:Helvetica;-inkscape-font-specification:Helvetica">Servicenutzer</tspan></text>

</g></g><g
           id="g62"><g
             clip-path="url(#clipPath66)"
             id="g64" /></g><g
           id="g70"><g
             clip-path="url(#clipPath74)"
             id="g72" /></g></g></g><g
       id="g78"><path
         d="M 622.05,521.7 622.1,250.2"
         inkscape:connector-curvature="0"
         id="path80"
         style="fill:none;stroke:#000000;stroke-width:0.75;stroke-linecap:round;stroke-linejoin:round;stroke-miterlimit:10;stroke-opacity:1;stroke-dasharray:5.25, 3;stroke-dashoffset:0" /></g><g
       id="g82"><g
         clip-path="url(#clipPath86)"
         id="g84"><g
           id="g90"><g
             clip-path="url(#clipPath94)"
             id="g92"><text
   transform="matrix(1,0,0,-1,246.26,543.31)"
   id="text98"><tspan
     x="0 3.94524 13.30992 21.116159 25.791479 32.62896 35.745838 42.807961"
     y="0"
     id="tspan100"
     style="font-size:14.03999996px;font-variant:normal;font-weight:normal;writing-mode:lr-tb;fill:#000000;fill-opacity:1;fill-rule:nonzero;stroke:none;font-family:Helvetica;-inkscape-font-specification:Helvetica">:Service</tspan></text>

</g></g><g
           id="g102"><g
             clip-path="url(#clipPath106)"
             id="g104"><text
   transform="matrix(1,0,0,-1,296.93,543.31)"
   id="text110"><tspan
     x="0"
     y="0"
     id="tspan112"
     style="font-size:14.03999996px;font-variant:normal;font-weight:normal;writing-mode:lr-tb;fill:#000000;fill-opacity:1;fill-rule:nonzero;stroke:none;font-family:Helvetica;-inkscape-font-specification:Helvetica">-</tspan></text>

</g></g><g
           id="g114"><g
             clip-path="url(#clipPath118)"
             id="g116" /></g><g
           id="g122"><g
             clip-path="url(#clipPath126)"
             id="g124"><text
   transform="matrix(1,0,0,-1,229.58,527.23)"
   id="text130"><tspan
     x="0 9.3646803 17.170919 28.79604 36.60228 44.40852 52.21476 60.021 67.82724 71.730362 79.438316"
     y="0"
     id="tspan132"
     style="font-size:14.03999996px;font-variant:normal;font-weight:normal;writing-mode:lr-tb;fill:#000000;fill-opacity:1;fill-rule:nonzero;stroke:none;font-family:Helvetica;-inkscape-font-specification:Helvetica">KomponenteA</tspan></text>

</g></g><g
           id="g134"><g
             clip-path="url(#clipPath138)"
             id="g136" /></g></g></g><g
       id="g142"><g
         clip-path="url(#clipPath146)"
         id="g144"><g
           id="g150"><g
             clip-path="url(#clipPath154)"
             id="g152"><text
   transform="matrix(1,0,0,-1,489.79,543.31)"
   id="text158"><tspan
     x="0 3.94524 13.30992 21.116159 25.791479 32.62896 35.745838 42.807961"
     y="0"
     id="tspan160"
     style="font-size:14.03999996px;font-variant:normal;font-weight:normal;writing-mode:lr-tb;fill:#000000;fill-opacity:1;fill-rule:nonzero;stroke:none;font-family:Helvetica;-inkscape-font-specification:Helvetica">:Service</tspan></text>

</g></g><g
           id="g162"><g
             clip-path="url(#clipPath166)"
             id="g164"><text
   transform="matrix(1,0,0,-1,540.43,543.31)"
   id="text170"><tspan
     x="0"
     y="0"
     id="tspan172"
     style="font-size:14.03999996px;font-variant:normal;font-weight:normal;writing-mode:lr-tb;fill:#000000;fill-opacity:1;fill-rule:nonzero;stroke:none;font-family:Helvetica;-inkscape-font-specification:Helvetica">-</tspan></text>

</g></g><g
           id="g174"><g
             clip-path="url(#clipPath178)"
             id="g176" /></g><g
           id="g182"><g
             clip-path="url(#clipPath186)"
             id="g184"><text
   transform="matrix(1,0,0,-1,469.15,527.23)"
   id="text190"><tspan
     x="0 9.3646803 17.170919 28.79604 36.60228 44.40852 52.21476 60.021 67.82724 71.730362 79.438316 88.803001"
     y="0"
     id="tspan192"
     style="font-size:14.03999996px;font-variant:normal;font-weight:normal;writing-mode:lr-tb;fill:#000000;fill-opacity:1;fill-rule:nonzero;stroke:none;font-family:Helvetica;-inkscape-font-specification:Helvetica">KomponenteA1</tspan></text>

</g></g><g
           id="g194"><g
             clip-path="url(#clipPath198)"
             id="g196" /></g></g></g><path
       d="m 224.4,522 99,0 0,37.55 -99,0 0,-37.55 z"
       inkscape:connector-curvature="0"
       id="path202"
       style="fill:none;stroke:#000000;stroke-width:0.75;stroke-linecap:round;stroke-linejoin:miter;stroke-miterlimit:10;stroke-opacity:1;stroke-dasharray:none" /><path
       d="m 467.85,522 99,0 0,37.55 -99,0 0,-37.55 z"
       inkscape:connector-curvature="0"
       id="path204"
       style="fill:none;stroke:#000000;stroke-width:0.75;stroke-linecap:round;stroke-linejoin:miter;stroke-miterlimit:10;stroke-opacity:1;stroke-dasharray:none" /><g
       id="g206"><g
         clip-path="url(#clipPath210)"
         id="g208"><g
           id="g214"><g
             clip-path="url(#clipPath218)"
             id="g216"><text
   transform="matrix(1,0,0,-1,594.43,543.31)"
   id="text222"><tspan
     x="0 3.94524 13.30992 21.116159 25.791479 32.62896 35.745838 42.807961"
     y="0"
     id="tspan224"
     style="font-size:14.03999996px;font-variant:normal;font-weight:normal;writing-mode:lr-tb;fill:#000000;fill-opacity:1;fill-rule:nonzero;stroke:none;font-family:Helvetica;-inkscape-font-specification:Helvetica">:Service</tspan></text>

</g></g><g
           id="g226"><g
             clip-path="url(#clipPath230)"
             id="g228"><text
   transform="matrix(1,0,0,-1,645.07,543.31)"
   id="text234"><tspan
     x="0"
     y="0"
     id="tspan236"
     style="font-size:14.03999996px;font-variant:normal;font-weight:normal;writing-mode:lr-tb;fill:#000000;fill-opacity:1;fill-rule:nonzero;stroke:none;font-family:Helvetica;-inkscape-font-specification:Helvetica">-</tspan></text>

</g></g><g
           id="g238"><g
             clip-path="url(#clipPath242)"
             id="g240" /></g><g
           id="g246"><g
             clip-path="url(#clipPath250)"
             id="g248"><text
   transform="matrix(1,0,0,-1,573.79,527.23)"
   id="text254"><tspan
     x="0 9.3646803 17.170919 28.79604 36.60228 44.40852 52.21476 60.021 67.82724 71.730362 79.438316 88.803001"
     y="0"
     id="tspan256"
     style="font-size:14.03999996px;font-variant:normal;font-weight:normal;writing-mode:lr-tb;fill:#000000;fill-opacity:1;fill-rule:nonzero;stroke:none;font-family:Helvetica;-inkscape-font-specification:Helvetica">KomponenteA2</tspan></text>

</g></g><g
           id="g258"><g
             clip-path="url(#clipPath262)"
             id="g260" /></g></g></g><path
       d="m 572.6,522 99,0 0,37.55 -99,0 0,-37.55 z"
       inkscape:connector-curvature="0"
       id="path266"
       style="fill:none;stroke:#000000;stroke-width:0.75;stroke-linecap:round;stroke-linejoin:miter;stroke-miterlimit:10;stroke-opacity:1;stroke-dasharray:none" /><path
       d="m 286.3,448.65 210,0 c 0.28,0 0.5,-0.22 0.5,-0.5 0,-0.28 -0.22,-0.5 -0.5,-0.5 l -210,0 c -0.28,0 -0.5,0.22 -0.5,0.5 0,0.28 0.22,0.5 0.5,0.5 z m 209,4.5 10,-5 -10,-5 0,10 z"
       inkscape:connector-curvature="0"
       id="path268"
       style="fill:#000000;fill-opacity:1;fill-rule:nonzero;stroke:none" /><path
       d="m 505.3,408.15 24.2,0 0,40.1 -24.2,0 0,-40.1 z"
       inkscape:connector-curvature="0"
       id="path270"
       style="fill:#ffffff;fill-opacity:1;fill-rule:evenodd;stroke:none" /><path
       d="m 505.3,408.15 24.2,0 0,40.1 -24.2,0 0,-40.1 z"
       inkscape:connector-curvature="0"
       id="path272"
       style="fill:none;stroke:#000000;stroke-width:0.75;stroke-linecap:round;stroke-linejoin:miter;stroke-miterlimit:10;stroke-opacity:1;stroke-dasharray:none" /><g
       id="g274"><g
         clip-path="url(#clipPath278)"
         id="g276"><g
           id="g282"><g
             clip-path="url(#clipPath286)"
             id="g284"><text
   transform="matrix(1,0,0,-1,306.17,449.59)"
   id="text290"><tspan
     x="0 7.8062401 15.61248 22.660561 30.466801 38.273041 41.389919 49.196159"
     y="0"
     id="tspan292"
     style="font-size:14.03999996px;font-variant:normal;font-weight:normal;writing-mode:lr-tb;fill:#000000;fill-opacity:1;fill-rule:nonzero;stroke:none;font-family:Helvetica;-inkscape-font-specification:Helvetica">bezahlen</tspan></text>

</g></g><g
           id="g294"><g
             clip-path="url(#clipPath298)"
             id="g296" /></g><g
           id="g302"><g
             clip-path="url(#clipPath306)"
             id="g304"><text
   transform="matrix(1,0,0,-1,367.01,449.59)"
   id="text310"><tspan
     x="0 4.6799998"
     y="0"
     id="tspan312"
     style="font-size:14.03999996px;font-variant:normal;font-weight:normal;writing-mode:lr-tb;fill:#000000;fill-opacity:1;fill-rule:nonzero;stroke:none;font-family:Helvetica;-inkscape-font-specification:Helvetica">()</tspan></text>

</g></g><g
           id="g314"><g
             clip-path="url(#clipPath318)"
             id="g316" /></g></g></g><path
       d="m 503.5,408.4 -3,-0.01 c -0.27,0 -0.5,0.22 -0.5,0.5 0,0.27 0.22,0.5 0.5,0.5 l 3,0.01 c 0.27,0 0.5,-0.22 0.5,-0.5 0,-0.27 -0.22,-0.5 -0.5,-0.5 z m -7,-0.02 -3,-0.01 c -0.27,-0.01 -0.5,0.22 -0.5,0.49 0,0.28 0.22,0.5 0.5,0.51 l 3,0.01 c 0.27,0 0.5,-0.23 0.5,-0.5 0,-0.28 -0.22,-0.5 -0.5,-0.5 z m -7,-0.03 -3,-0.01 c -0.27,0 -0.5,0.22 -0.5,0.5 0,0.28 0.22,0.5 0.5,0.5 l 3,0.01 c 0.27,0 0.5,-0.22 0.5,-0.5 0,-0.27 -0.22,-0.5 -0.5,-0.5 z m -7,-0.02 -3,-0.01 c -0.27,0 -0.5,0.22 -0.5,0.5 0,0.27 0.22,0.5 0.5,0.5 l 3,0.01 c 0.27,0 0.5,-0.22 0.5,-0.5 0,-0.28 -0.22,-0.5 -0.5,-0.5 z m -7,-0.03 -3,-0.01 c -0.27,0 -0.5,0.22 -0.5,0.5 0,0.28 0.22,0.5 0.5,0.5 l 3,0.01 c 0.27,0 0.5,-0.22 0.5,-0.5 0,-0.27 -0.22,-0.5 -0.5,-0.5 z m -7,-0.02 -3,-0.01 c -0.27,0 -0.5,0.22 -0.5,0.5 0,0.27 0.22,0.5 0.5,0.5 l 3,0.01 c 0.27,0 0.5,-0.22 0.5,-0.5 0,-0.28 -0.22,-0.5 -0.5,-0.5 z m -7,-0.03 -3,-0.01 c -0.27,0 -0.5,0.23 -0.5,0.5 0,0.28 0.22,0.5 0.5,0.5 l 3,0.01 c 0.27,0.01 0.5,-0.22 0.5,-0.49 0,-0.28 -0.22,-0.5 -0.5,-0.51 z m -7,-0.02 -3,-0.01 c -0.27,0 -0.5,0.22 -0.5,0.5 0,0.27 0.22,0.5 0.5,0.5 l 3,0.01 c 0.27,0 0.5,-0.22 0.5,-0.5 0,-0.27 -0.22,-0.5 -0.5,-0.5 z m -7,-0.02 -3,-0.01 c -0.27,-0.01 -0.5,0.22 -0.5,0.49 0,0.28 0.22,0.5 0.5,0.51 l 3,0.01 c 0.27,0 0.5,-0.23 0.5,-0.5 0,-0.28 -0.22,-0.5 -0.5,-0.5 z m -7,-0.03 -3,-0.01 c -0.27,0 -0.5,0.22 -0.5,0.5 0,0.28 0.22,0.5 0.5,0.5 l 3,0.01 c 0.27,0 0.5,-0.22 0.5,-0.5 0,-0.27 -0.22,-0.5 -0.5,-0.5 z m -7,-0.02 -3,-0.01 c -0.27,0 -0.5,0.22 -0.5,0.5 0,0.27 0.22,0.5 0.5,0.5 l 3,0.01 c 0.27,0 0.5,-0.22 0.5,-0.5 0,-0.28 -0.22,-0.5 -0.5,-0.5 z m -7,-0.03 -3,-0.01 c -0.27,0 -0.5,0.22 -0.5,0.5 0,0.28 0.22,0.5 0.5,0.5 l 3,0.01 c 0.27,0 0.5,-0.22 0.5,-0.5 0,-0.27 -0.22,-0.5 -0.5,-0.5 z m -7,-0.02 -3,-0.01 c -0.27,0 -0.5,0.22 -0.5,0.5 0,0.27 0.22,0.5 0.5,0.5 l 3,0.01 c 0.27,0 0.5,-0.22 0.5,-0.5 0,-0.28 -0.22,-0.5 -0.5,-0.5 z m -7,-0.03 -3,-0.01 c -0.27,0 -0.5,0.23 -0.5,0.5 0,0.28 0.22,0.5 0.5,0.5 l 3,0.01 c 0.27,0.01 0.5,-0.22 0.5,-0.49 0,-0.28 -0.22,-0.5 -0.5,-0.51 z m -7,-0.02 -3,-0.01 c -0.27,0 -0.5,0.22 -0.5,0.5 0,0.27 0.22,0.5 0.5,0.5 l 3,0.01 c 0.27,0 0.5,-0.22 0.5,-0.5 0,-0.27 -0.22,-0.5 -0.5,-0.5 z m -7,-0.02 -3,-0.01 c -0.27,-0.01 -0.5,0.22 -0.5,0.49 0,0.28 0.22,0.5 0.5,0.51 l 3,0.01 c 0.27,0 0.5,-0.23 0.5,-0.5 0,-0.28 -0.22,-0.5 -0.5,-0.5 z m -7,-0.03 -3,-0.01 c -0.27,0 -0.5,0.22 -0.5,0.5 0,0.28 0.22,0.5 0.5,0.5 l 3,0.01 c 0.27,0 0.5,-0.22 0.5,-0.5 0,-0.27 -0.22,-0.5 -0.5,-0.5 z m -7,-0.02 -3,-0.01 c -0.27,0 -0.5,0.22 -0.5,0.5 0,0.27 0.22,0.5 0.5,0.5 l 3,0.01 c 0.27,0 0.5,-0.22 0.5,-0.5 0,-0.28 -0.22,-0.5 -0.5,-0.5 z m -7,-0.03 -3,-0.01 c -0.27,0 -0.5,0.22 -0.5,0.5 0,0.28 0.22,0.5 0.5,0.5 l 3,0.01 c 0.27,0 0.5,-0.22 0.5,-0.5 0,-0.27 -0.22,-0.5 -0.5,-0.5 z m -7,-0.02 -3,-0.01 c -0.27,0 -0.5,0.22 -0.5,0.5 0,0.27 0.22,0.5 0.5,0.5 l 3,0.01 c 0.27,0 0.5,-0.22 0.5,-0.5 0,-0.28 -0.22,-0.5 -0.5,-0.5 z m -7,-0.03 -3,-0.01 c -0.27,0 -0.5,0.23 -0.5,0.5 0,0.28 0.22,0.5 0.5,0.5 l 3,0.01 c 0.27,0.01 0.5,-0.22 0.5,-0.49 0,-0.28 -0.22,-0.5 -0.5,-0.51 z m -7,-0.02 -3,-0.01 c -0.27,0 -0.5,0.22 -0.5,0.5 0,0.27 0.22,0.5 0.5,0.5 l 3,0.01 c 0.27,0 0.5,-0.22 0.5,-0.5 0,-0.27 -0.22,-0.5 -0.5,-0.5 z m -7,-0.02 -3,-0.01 c -0.27,-0.01 -0.5,0.22 -0.5,0.49 0,0.28 0.22,0.5 0.5,0.51 l 3,0.01 c 0.27,0 0.5,-0.23 0.5,-0.5 0,-0.28 -0.22,-0.5 -0.5,-0.5 z m -7,-0.03 -3,-0.01 c -0.27,0 -0.5,0.22 -0.5,0.5 0,0.28 0.22,0.5 0.5,0.5 l 3,0.01 c 0.27,0 0.5,-0.22 0.5,-0.5 0,-0.27 -0.22,-0.5 -0.5,-0.5 z m -7,-0.02 -3,-0.01 c -0.27,0 -0.5,0.22 -0.5,0.49 0,0.28 0.22,0.51 0.5,0.51 l 3,0.01 c 0.27,0 0.5,-0.23 0.5,-0.5 0,-0.28 -0.22,-0.5 -0.5,-0.5 z m -7,-0.03 -3,-0.01 c -0.27,0 -0.5,0.22 -0.5,0.5 0,0.28 0.22,0.5 0.5,0.5 l 3,0.01 c 0.27,0 0.5,-0.22 0.5,-0.5 0,-0.27 -0.22,-0.5 -0.5,-0.5 z m -7,-0.02 -3,-0.01 c -0.27,0 -0.5,0.22 -0.5,0.5 0,0.27 0.22,0.5 0.5,0.5 l 3,0.01 c 0.27,0 0.5,-0.22 0.5,-0.5 0,-0.28 -0.22,-0.5 -0.5,-0.5 z m -7,-0.03 -3,-0.01 c -0.27,0 -0.5,0.23 -0.5,0.5 0,0.28 0.22,0.5 0.5,0.5 l 3,0.01 c 0.28,0 0.5,-0.22 0.5,-0.49 0,-0.28 -0.22,-0.51 -0.5,-0.51 z m -7,-0.02 -3,-0.01 c -0.27,0 -0.5,0.22 -0.5,0.5 0,0.27 0.22,0.5 0.5,0.5 l 3,0.01 c 0.28,0 0.5,-0.22 0.5,-0.5 0,-0.27 -0.22,-0.5 -0.5,-0.5 z m -7,-0.02 -3,-0.02 c -0.27,0 -0.5,0.23 -0.5,0.5 0,0.28 0.22,0.5 0.5,0.5 l 3,0.02 c 0.28,0 0.5,-0.23 0.5,-0.5 0,-0.28 -0.22,-0.5 -0.5,-0.5 z m -7,-0.03 -3,-0.01 c -0.27,0 -0.5,0.22 -0.5,0.5 0,0.27 0.22,0.5 0.5,0.5 l 3,0.01 c 0.28,0 0.5,-0.22 0.5,-0.5 0,-0.27 -0.22,-0.5 -0.5,-0.5 z m 4.88,-4.92 -9.81,5.4 9.77,5.47 c 0.24,0.14 0.54,0.05 0.68,-0.19 0.13,-0.24 0.05,-0.54 -0.19,-0.68 l -8.99,-5.03 0,0.88 9.02,-4.97 c 0.24,-0.14 0.33,-0.44 0.2,-0.68 -0.14,-0.24 -0.44,-0.33 -0.68,-0.2 z"
       inkscape:connector-curvature="0"
       id="path322"
       style="fill:#000000;fill-opacity:1;fill-rule:nonzero;stroke:none" /><path
       d="m 287.6,376.35 313.7,0 c 0.28,0 0.5,-0.22 0.5,-0.5 0,-0.28 -0.22,-0.5 -0.5,-0.5 l -313.7,0 c -0.28,0 -0.5,0.22 -0.5,0.5 0,0.28 0.22,0.5 0.5,0.5 z m 312.7,4.5 10,-5 -10,-5 0,10 z"
       inkscape:connector-curvature="0"
       id="path324"
       style="fill:#000000;fill-opacity:1;fill-rule:nonzero;stroke:none" /><path
       d="m 610.3,344 24.2,0 0,31.85 -24.2,0 0,-31.85 z"
       inkscape:connector-curvature="0"
       id="path326"
       style="fill:#ffffff;fill-opacity:1;fill-rule:evenodd;stroke:none" /><path
       d="m 610.3,344 24.2,0 0,31.85 -24.2,0 0,-31.85 z"
       inkscape:connector-curvature="0"
       id="path328"
       style="fill:none;stroke:#000000;stroke-width:0.75;stroke-linecap:round;stroke-linejoin:miter;stroke-miterlimit:10;stroke-opacity:1;stroke-dasharray:none" /><g
       id="g330"><g
         clip-path="url(#clipPath334)"
         id="g332"><g
           id="g338"><g
             clip-path="url(#clipPath342)"
             id="g340"><text
   transform="matrix(1,0,0,-1,306.17,413.21)"
   id="text346"><tspan
     x="0 7.8062401 15.61248 22.660561 30.466801 38.273041 41.389919 49.196159"
     y="0"
     id="tspan348"
     style="font-size:14.03999996px;font-variant:normal;font-weight:normal;writing-mode:lr-tb;fill:#000000;fill-opacity:1;fill-rule:nonzero;stroke:none;font-family:Helvetica;-inkscape-font-specification:Helvetica">bezahlen</tspan></text>

</g></g><g
           id="g350"><g
             clip-path="url(#clipPath354)"
             id="g352" /></g><g
           id="g358"><g
             clip-path="url(#clipPath362)"
             id="g360"><text
   transform="matrix(1,0,0,-1,367.01,413.21)"
   id="text366"><tspan
     x="0 4.6799998"
     y="0"
     id="tspan368"
     style="font-size:14.03999996px;font-variant:normal;font-weight:normal;writing-mode:lr-tb;fill:#000000;fill-opacity:1;fill-rule:nonzero;stroke:none;font-family:Helvetica;-inkscape-font-specification:Helvetica">()</tspan></text>

</g></g><g
           id="g370"><g
             clip-path="url(#clipPath374)"
             id="g372" /></g><g
           id="g378"><g
             clip-path="url(#clipPath382)"
             id="g380"><text
   transform="matrix(1,0,0,-1,380.21,413.21)"
   id="text386"><tspan
     x="0 3.8469601 7.7922001 17.156879 21.832199 29.512079 37.318321 44.998199 52.80444 55.921322"
     y="0"
     id="tspan388"
     style="font-size:14.03999996px;font-variant:normal;font-weight:normal;writing-mode:lr-tb;fill:#000000;fill-opacity:1;fill-rule:nonzero;stroke:none;font-family:Helvetica;-inkscape-font-specification:Helvetica">: Ergebnis</tspan></text>

</g></g><g
           id="g390"><g
             clip-path="url(#clipPath394)"
             id="g392" /></g></g></g><path
       d="m 610.3,343.6 -3,0 c -0.28,0 -0.5,0.22 -0.5,0.5 0,0.28 0.22,0.5 0.5,0.5 l 3,0 c 0.28,0 0.5,-0.22 0.5,-0.5 0,-0.28 -0.22,-0.5 -0.5,-0.5 z m -7,0 -3,0 c -0.28,0 -0.5,0.22 -0.5,0.5 0,0.27 0.22,0.5 0.5,0.5 l 3,0 c 0.28,0 0.5,-0.23 0.5,-0.5 0,-0.28 -0.22,-0.5 -0.5,-0.5 z m -7,0 -3,-0.01 c -0.28,0 -0.5,0.23 -0.5,0.5 0,0.28 0.22,0.5 0.5,0.5 l 3,0.01 c 0.28,0 0.5,-0.23 0.5,-0.5 0,-0.28 -0.22,-0.5 -0.5,-0.5 z m -7,-0.01 -3,0 c -0.28,0 -0.5,0.23 -0.5,0.5 0,0.28 0.22,0.5 0.5,0.5 l 3,0 c 0.28,0 0.5,-0.22 0.5,-0.5 0,-0.27 -0.22,-0.5 -0.5,-0.5 z m -7,0 -3,0 c -0.28,0 -0.5,0.22 -0.5,0.5 0,0.28 0.22,0.5 0.5,0.5 l 3,0 c 0.28,0 0.5,-0.22 0.5,-0.5 0,-0.27 -0.22,-0.5 -0.5,-0.5 z m -7,0 -3,0 c -0.28,0 -0.5,0.22 -0.5,0.5 0,0.27 0.22,0.5 0.5,0.5 l 3,0 c 0.28,0 0.5,-0.22 0.5,-0.5 0,-0.28 -0.22,-0.5 -0.5,-0.5 z m -7,0 -3,0 c -0.28,0 -0.5,0.22 -0.5,0.5 0,0.27 0.22,0.5 0.5,0.5 l 3,0 c 0.28,0 0.5,-0.23 0.5,-0.5 0,-0.28 -0.22,-0.5 -0.5,-0.5 z m -7,0 -3,-0.01 c -0.28,0 -0.5,0.23 -0.5,0.5 0,0.28 0.22,0.5 0.5,0.5 l 3,0.01 c 0.28,0 0.5,-0.23 0.5,-0.5 0,-0.28 -0.22,-0.5 -0.5,-0.5 z m -7,-0.01 -3,0 c -0.28,0 -0.5,0.23 -0.5,0.5 0,0.28 0.22,0.5 0.5,0.5 l 3,0 c 0.28,0 0.5,-0.22 0.5,-0.5 0,-0.27 -0.22,-0.5 -0.5,-0.5 z m -7,0 -3,0 c -0.28,0 -0.5,0.22 -0.5,0.5 0,0.28 0.22,0.5 0.5,0.5 l 3,0 c 0.28,0 0.5,-0.22 0.5,-0.5 0,-0.27 -0.22,-0.5 -0.5,-0.5 z m -7,0 -3,0 c -0.28,0 -0.5,0.22 -0.5,0.5 0,0.27 0.22,0.5 0.5,0.5 l 3,0 c 0.28,0 0.5,-0.22 0.5,-0.5 0,-0.28 -0.22,-0.5 -0.5,-0.5 z m -7,0 -3,0 c -0.28,0 -0.5,0.22 -0.5,0.5 0,0.27 0.22,0.5 0.5,0.5 l 3,0 c 0.28,0 0.5,-0.23 0.5,-0.5 0,-0.28 -0.22,-0.5 -0.5,-0.5 z m -7,-0.01 -3,0 c -0.28,0 -0.5,0.23 -0.5,0.5 0,0.28 0.22,0.5 0.5,0.5 l 3,0 c 0.28,0 0.5,-0.22 0.5,-0.5 0,-0.27 -0.22,-0.5 -0.5,-0.5 z m -7,0 -3,0 c -0.28,0 -0.5,0.23 -0.5,0.5 0,0.28 0.22,0.5 0.5,0.5 l 3,0 c 0.28,0 0.5,-0.22 0.5,-0.5 0,-0.27 -0.22,-0.5 -0.5,-0.5 z m -7,0 -3,0 c -0.28,0 -0.5,0.22 -0.5,0.5 0,0.28 0.22,0.5 0.5,0.5 l 3,0 c 0.28,0 0.5,-0.22 0.5,-0.5 0,-0.28 -0.22,-0.5 -0.5,-0.5 z m -7,0 -3,0 c -0.28,0 -0.5,0.22 -0.5,0.5 0,0.27 0.22,0.5 0.5,0.5 l 3,0 c 0.28,0 0.5,-0.23 0.5,-0.5 0,-0.28 -0.22,-0.5 -0.5,-0.5 z m -7,0 -3,0 c -0.28,0 -0.5,0.22 -0.5,0.5 0,0.27 0.22,0.5 0.5,0.5 l 3,0 c 0.28,0 0.5,-0.23 0.5,-0.5 0,-0.28 -0.22,-0.5 -0.5,-0.5 z m -7,-0.01 -3,0 c -0.28,0 -0.5,0.23 -0.5,0.5 0,0.28 0.22,0.5 0.5,0.5 l 3,0 c 0.28,0 0.5,-0.22 0.5,-0.5 0,-0.27 -0.22,-0.5 -0.5,-0.5 z m -7,0 -3,0 c -0.28,0 -0.5,0.22 -0.5,0.5 0,0.28 0.22,0.5 0.5,0.5 l 3,0 c 0.28,0 0.5,-0.22 0.5,-0.5 0,-0.27 -0.22,-0.5 -0.5,-0.5 z m -7,0 -3,0 c -0.28,0 -0.5,0.22 -0.5,0.5 0,0.27 0.22,0.5 0.5,0.5 l 3,0 c 0.28,0 0.5,-0.22 0.5,-0.5 0,-0.28 -0.22,-0.5 -0.5,-0.5 z m -7,0 -3,0 c -0.28,0 -0.5,0.22 -0.5,0.5 0,0.27 0.22,0.5 0.5,0.5 l 3,0 c 0.28,0 0.5,-0.23 0.5,-0.5 0,-0.28 -0.22,-0.5 -0.5,-0.5 z m -7,0 -3,-0.01 c -0.28,0 -0.5,0.23 -0.5,0.5 0,0.28 0.22,0.5 0.5,0.5 l 3,0.01 c 0.28,0 0.5,-0.23 0.5,-0.5 0,-0.28 -0.22,-0.5 -0.5,-0.5 z m -7,-0.01 -3,0 c -0.28,0 -0.5,0.23 -0.5,0.5 0,0.28 0.22,0.5 0.5,0.5 l 3,0 c 0.28,0 0.5,-0.22 0.5,-0.5 0,-0.27 -0.22,-0.5 -0.5,-0.5 z m -7,0 -3,0 c -0.28,0 -0.5,0.22 -0.5,0.5 0,0.28 0.22,0.5 0.5,0.5 l 3,0 c 0.28,0 0.5,-0.22 0.5,-0.5 0,-0.27 -0.22,-0.5 -0.5,-0.5 z m -7,0 -3,0 c -0.28,0 -0.5,0.22 -0.5,0.5 0,0.27 0.22,0.5 0.5,0.5 l 3,0 c 0.28,0 0.5,-0.22 0.5,-0.5 0,-0.28 -0.22,-0.5 -0.5,-0.5 z m -7,0 -3,0 c -0.28,0 -0.5,0.22 -0.5,0.5 0,0.27 0.22,0.5 0.5,0.5 l 3,0 c 0.28,0 0.5,-0.23 0.5,-0.5 0,-0.28 -0.22,-0.5 -0.5,-0.5 z m -7,-0.01 -3,0 c -0.28,0 -0.5,0.23 -0.5,0.5 0,0.28 0.22,0.5 0.5,0.5 l 3,0 c 0.28,0 0.5,-0.22 0.5,-0.5 0,-0.27 -0.22,-0.5 -0.5,-0.5 z m -7,0 -3,0 c -0.28,0 -0.5,0.23 -0.5,0.5 0,0.28 0.22,0.5 0.5,0.5 l 3,0 c 0.28,0 0.5,-0.22 0.5,-0.5 0,-0.27 -0.22,-0.5 -0.5,-0.5 z m -7,0 -3,0 c -0.28,0 -0.5,0.22 -0.5,0.5 0,0.28 0.22,0.5 0.5,0.5 l 3,0 c 0.28,0 0.5,-0.22 0.5,-0.5 0,-0.28 -0.22,-0.5 -0.5,-0.5 z m -7,0 -3,0 c -0.28,0 -0.5,0.22 -0.5,0.5 0,0.27 0.22,0.5 0.5,0.5 l 3,0 c 0.28,0 0.5,-0.23 0.5,-0.5 0,-0.28 -0.22,-0.5 -0.5,-0.5 z m -7,0 -3,0 c -0.28,-0.01 -0.5,0.22 -0.5,0.49 0,0.28 0.22,0.5 0.5,0.51 l 3,0 c 0.28,0 0.5,-0.23 0.5,-0.5 0,-0.28 -0.22,-0.5 -0.5,-0.5 z m -7,-0.01 -3,0 c -0.28,0 -0.5,0.23 -0.5,0.5 0,0.28 0.22,0.5 0.5,0.5 l 3,0 c 0.28,0 0.5,-0.22 0.5,-0.5 0,-0.27 -0.22,-0.5 -0.5,-0.5 z m -7,0 -3,0 c -0.28,0 -0.5,0.22 -0.5,0.5 0,0.28 0.22,0.5 0.5,0.5 l 3,0 c 0.27,0 0.5,-0.22 0.5,-0.5 0,-0.27 -0.22,-0.5 -0.5,-0.5 z m -7,0 -3,0 c -0.28,0 -0.5,0.22 -0.5,0.5 0,0.27 0.22,0.5 0.5,0.5 l 3,0 c 0.27,0 0.5,-0.22 0.5,-0.5 0,-0.28 -0.22,-0.5 -0.5,-0.5 z m -7,0 -3,0 c -0.28,0 -0.5,0.22 -0.5,0.5 0,0.27 0.22,0.5 0.5,0.5 l 3,0 c 0.27,0 0.5,-0.23 0.5,-0.5 0,-0.28 -0.22,-0.5 -0.5,-0.5 z m -7,0 -3,-0.01 c -0.28,0 -0.5,0.23 -0.5,0.5 0,0.28 0.22,0.5 0.5,0.5 l 3,0.01 c 0.27,0 0.5,-0.23 0.5,-0.5 0,-0.28 -0.22,-0.5 -0.5,-0.5 z m -7,-0.01 -3,0 c -0.28,0 -0.5,0.23 -0.5,0.5 0,0.28 0.22,0.5 0.5,0.5 l 3,0 c 0.27,0 0.5,-0.22 0.5,-0.5 0,-0.27 -0.22,-0.5 -0.5,-0.5 z m -7,0 -3,0 c -0.28,0 -0.5,0.22 -0.5,0.5 0,0.28 0.22,0.5 0.5,0.5 l 3,0 c 0.27,0 0.5,-0.22 0.5,-0.5 0,-0.28 -0.22,-0.5 -0.5,-0.5 z m -7,0 -3,0 c -0.28,0 -0.5,0.22 -0.5,0.5 0,0.27 0.22,0.5 0.5,0.5 l 3,0 c 0.27,0 0.5,-0.23 0.5,-0.5 0,-0.28 -0.22,-0.5 -0.5,-0.5 z m -7,0 -3,0 c -0.28,0 -0.5,0.22 -0.5,0.5 0,0.27 0.22,0.5 0.5,0.5 l 3,0 c 0.27,0 0.5,-0.23 0.5,-0.5 0,-0.28 -0.22,-0.5 -0.5,-0.5 z m -7,-0.01 -3,0 c -0.28,0 -0.5,0.23 -0.5,0.5 0,0.28 0.22,0.5 0.5,0.5 l 3,0 c 0.27,0 0.5,-0.22 0.5,-0.5 0,-0.27 -0.22,-0.5 -0.5,-0.5 z m -7,0 -3,0 c -0.28,0 -0.5,0.22 -0.5,0.5 0,0.28 0.22,0.5 0.5,0.5 l 3,0 c 0.27,0 0.5,-0.22 0.5,-0.5 0,-0.27 -0.22,-0.5 -0.5,-0.5 z m -7,0 -3,0 c -0.28,0 -0.5,0.22 -0.5,0.5 0,0.27 0.22,0.5 0.5,0.5 l 3,0 c 0.27,0 0.5,-0.22 0.5,-0.5 0,-0.28 -0.22,-0.5 -0.5,-0.5 z m -7,0 -3,0 c -0.28,0 -0.5,0.22 -0.5,0.5 0,0.27 0.22,0.5 0.5,0.5 l 3,0 c 0.27,0 0.5,-0.23 0.5,-0.5 0,-0.28 -0.22,-0.5 -0.5,-0.5 z m -7,0 -3,-0.01 c -0.28,0 -0.5,0.23 -0.5,0.5 0,0.28 0.22,0.5 0.5,0.5 l 3,0.01 c 0.27,0 0.5,-0.23 0.5,-0.5 0,-0.28 -0.22,-0.5 -0.5,-0.5 z m -7,-0.01 -3,0 c -0.28,0 -0.5,0.23 -0.5,0.5 0,0.28 0.22,0.5 0.5,0.5 l 3,0 c 0.27,0 0.5,-0.22 0.5,-0.5 0,-0.27 -0.22,-0.5 -0.5,-0.5 z m 1.76,-4.93 -9.79,5.43 9.79,5.44 c 0.24,0.13 0.54,0.05 0.68,-0.19 0.13,-0.24 0.04,-0.55 -0.2,-0.68 l -9,-5.01 0,0.88 9,-5 c 0.25,-0.13 0.33,-0.44 0.2,-0.68 -0.14,-0.24 -0.44,-0.33 -0.68,-0.19 z"
       inkscape:connector-curvature="0"
       id="path398"
       style="fill:#000000;fill-opacity:1;fill-rule:nonzero;stroke:none" /><path
       d="m 159.35,289.4 24.2,0 0,212.3 -24.2,0 0,-212.3 z"
       inkscape:connector-curvature="0"
       id="path400"
       style="fill:#ffffff;fill-opacity:1;fill-rule:evenodd;stroke:none" /><path
       d="m 159.35,289.4 24.2,0 0,212.3 -24.2,0 0,-212.3 z"
       inkscape:connector-curvature="0"
       id="path402"
       style="fill:none;stroke:#000000;stroke-width:0.75;stroke-linecap:round;stroke-linejoin:miter;stroke-miterlimit:10;stroke-opacity:1;stroke-dasharray:none" /><path
       d="m 262.1,312.7 24.2,0 0,155.35 -24.2,0 0,-155.35 z"
       inkscape:connector-curvature="0"
       id="path404"
       style="fill:#ffffff;fill-opacity:1;fill-rule:evenodd;stroke:none" /><path
       d="m 262.1,312.7 24.2,0 0,155.35 -24.2,0 0,-155.35 z"
       inkscape:connector-curvature="0"
       id="path406"
       style="fill:none;stroke:#000000;stroke-width:0.75;stroke-linecap:round;stroke-linejoin:miter;stroke-miterlimit:10;stroke-opacity:1;stroke-dasharray:none" /><g
       id="g408"><g
         clip-path="url(#clipPath412)"
         id="g410"><g
           id="g416"><g
             clip-path="url(#clipPath420)"
             id="g418"><text
   transform="matrix(1,0,0,-1,306.17,379.61)"
   id="text424"><tspan
     x="0 6.8374801 14.64372 19.31904 26.381161 34.187401 41.993641 49.799881 57.606121"
     y="0"
     id="tspan426"
     style="font-size:14.03999996px;font-variant:normal;font-weight:normal;writing-mode:lr-tb;fill:#000000;fill-opacity:1;fill-rule:nonzero;stroke:none;font-family:Helvetica;-inkscape-font-specification:Helvetica">versenden</tspan></text>

</g></g><g
           id="g428"><g
             clip-path="url(#clipPath432)"
             id="g430" /></g><g
           id="g436"><g
             clip-path="url(#clipPath440)"
             id="g438"><text
   transform="matrix(1,0,0,-1,375.53,379.61)"
   id="text444"><tspan
     x="0 4.6799998"
     y="0"
     id="tspan446"
     style="font-size:14.03999996px;font-variant:normal;font-weight:normal;writing-mode:lr-tb;fill:#000000;fill-opacity:1;fill-rule:nonzero;stroke:none;font-family:Helvetica;-inkscape-font-specification:Helvetica">()</tspan></text>

</g></g><g
           id="g448"><g
             clip-path="url(#clipPath452)"
             id="g450" /></g></g></g><g
       id="g456"><g
         clip-path="url(#clipPath460)"
         id="g458"><g
           id="g464"><g
             clip-path="url(#clipPath468)"
             id="g466"><text
   transform="matrix(1,0,0,-1,306.17,349.61)"
   id="text472"><tspan
     x="0 6.8374801 14.64372 19.31904 26.381161 34.187401 41.993641 49.799881 57.606121"
     y="0"
     id="tspan474"
     style="font-size:14.03999996px;font-variant:normal;font-weight:normal;writing-mode:lr-tb;fill:#000000;fill-opacity:1;fill-rule:nonzero;stroke:none;font-family:Helvetica;-inkscape-font-specification:Helvetica">versenden</tspan></text>

</g></g><g
           id="g476"><g
             clip-path="url(#clipPath480)"
             id="g478" /></g><g
           id="g484"><g
             clip-path="url(#clipPath488)"
             id="g486"><text
   transform="matrix(1,0,0,-1,375.53,349.61)"
   id="text492"><tspan
     x="0 4.6753201 9.2383204 13.18356 17.030519 20.97576 30.340441 35.015759 42.821999 50.501881 58.308121 66.114357 69.231239"
     y="0"
     id="tspan494"
     style="font-size:14.03999996px;font-variant:normal;font-weight:normal;writing-mode:lr-tb;fill:#000000;fill-opacity:1;fill-rule:nonzero;stroke:none;font-family:Helvetica;-inkscape-font-specification:Helvetica">() : Ergebnis</tspan></text>

</g></g><g
           id="g496"><g
             clip-path="url(#clipPath500)"
             id="g498" /></g></g></g><g
       id="g504"><g
         clip-path="url(#clipPath508)"
         id="g506"><g
           id="g512"><g
             clip-path="url(#clipPath516)"
             id="g514"><text
   transform="matrix(1,0,0,-1,188.18,331.61)"
   id="text520"><tspan
     x="0 7.8062401 15.61248 22.660561 26.507521 34.313759 37.430641 40.54752 48.35376"
     y="0"
     id="tspan522"
     style="font-size:14.03999996px;font-variant:normal;font-weight:normal;writing-mode:lr-tb;fill:#000000;fill-opacity:1;fill-rule:nonzero;stroke:none;font-family:Helvetica;-inkscape-font-specification:Helvetica">bestellen</tspan></text>

</g></g><g
           id="g524"><g
             clip-path="url(#clipPath528)"
             id="g526"><text
   transform="matrix(1,0,0,-1,244.34,331.61)"
   id="text532"><tspan
     x="0 4.6799998"
     y="0"
     id="tspan534"
     style="font-size:14.03999996px;font-variant:normal;font-weight:normal;writing-mode:lr-tb;fill:#000000;fill-opacity:1;fill-rule:nonzero;stroke:none;font-family:Helvetica;-inkscape-font-specification:Helvetica">()</tspan></text>

</g></g><g
           id="g536"><g
             clip-path="url(#clipPath540)"
             id="g538" /></g><g
           id="g544"><g
             clip-path="url(#clipPath548)"
             id="g546"><text
   transform="matrix(1,0,0,-1,191.3,315.53)"
   id="text552"><tspan
     x="0 3.94524 13.30992 17.985241 25.791479 33.597721 41.403961 49.210201 52.18668"
     y="0"
     id="tspan554"
     style="font-size:14.03999996px;font-variant:normal;font-weight:normal;writing-mode:lr-tb;fill:#000000;fill-opacity:1;fill-rule:nonzero;stroke:none;font-family:Helvetica;-inkscape-font-specification:Helvetica">:Ergebnis</tspan></text>

</g></g><g
           id="g556"><g
             clip-path="url(#clipPath560)"
             id="g558" /></g></g></g><g
       id="g564"><g
         clip-path="url(#clipPath568)"
         id="g566"><g
           id="g572"><g
             clip-path="url(#clipPath576)"
             id="g574"><text
   transform="matrix(1,0,0,-1,185.9,473.71)"
   id="text580"><tspan
     x="0 7.8062401 15.61248 22.660561 26.507521 34.313759 37.430641 40.54752 48.35376"
     y="0"
     id="tspan582"
     style="font-size:14.03999996px;font-variant:normal;font-weight:normal;writing-mode:lr-tb;fill:#000000;fill-opacity:1;fill-rule:nonzero;stroke:none;font-family:Helvetica;-inkscape-font-specification:Helvetica">bestellen</tspan></text>

</g></g><g
           id="g584"><g
             clip-path="url(#clipPath588)"
             id="g586"><text
   transform="matrix(1,0,0,-1,242.06,473.71)"
   id="text592"><tspan
     x="0 4.6799998"
     y="0"
     id="tspan594"
     style="font-size:14.03999996px;font-variant:normal;font-weight:normal;writing-mode:lr-tb;fill:#000000;fill-opacity:1;fill-rule:nonzero;stroke:none;font-family:Helvetica;-inkscape-font-specification:Helvetica">()</tspan></text>

</g></g><g
           id="g596"><g
             clip-path="url(#clipPath600)"
             id="g598" /></g></g></g></g></svg>