<?xml version="1.0" encoding="UTF-8" standalone="no"?>
<!-- Created with Inkscape (http://www.inkscape.org/) -->

<svg
   xmlns:dc="http://purl.org/dc/elements/1.1/"
   xmlns:cc="http://creativecommons.org/ns#"
   xmlns:rdf="http://www.w3.org/1999/02/22-rdf-syntax-ns#"
   xmlns:svg="http://www.w3.org/2000/svg"
   xmlns="http://www.w3.org/2000/svg"
   xmlns:sodipodi="http://sodipodi.sourceforge.net/DTD/sodipodi-0.dtd"
   xmlns:inkscape="http://www.inkscape.org/namespaces/inkscape"
   version="1.1"
   width="612.84375"
   height="293.71875"
   id="svg2"
   xml:space="preserve"
   inkscape:version="0.48.4 r9939"
   sodipodi:docname="Bild 5-7 Schichtenmodell eines Einrechner-Systems.svg"><sodipodi:namedview
     pagecolor="#ffffff"
     bordercolor="#666666"
     borderopacity="1"
     objecttolerance="10"
     gridtolerance="10"
     guidetolerance="10"
     inkscape:pageopacity="0"
     inkscape:pageshadow="2"
     inkscape:window-width="640"
     inkscape:window-height="480"
     id="namedview132"
     showgrid="false"
     inkscape:zoom="0.18730159"
     inkscape:cx="379.59375"
     inkscape:cy="193.875"
     inkscape:window-x="0"
     inkscape:window-y="0"
     inkscape:window-maximized="0"
     inkscape:current-layer="svg2" /><metadata
     id="metadata8"><rdf:RDF><cc:Work
         rdf:about=""><dc:format>image/svg+xml</dc:format><dc:type
           rdf:resource="http://purl.org/dc/dcmitype/StillImage" /></cc:Work></rdf:RDF></metadata><defs
     id="defs6"><clipPath
       id="clipPath20"><path
         d="m 201.39,544.75 293.33,0 0,34.68 -293.33,0 0,-34.68 z"
         inkscape:connector-curvature="0"
         id="path22" /></clipPath><clipPath
       id="clipPath28"><path
         d="m 201.38,544.75 293.33,0 0,34.68 -293.33,0 0,-34.68 z"
         inkscape:connector-curvature="0"
         id="path30" /></clipPath><clipPath
       id="clipPath36"><path
         d="m 201.38,544.75 293.33,0 0,34.68 -293.33,0 0,-34.68 z"
         inkscape:connector-curvature="0"
         id="path38" /></clipPath><clipPath
       id="clipPath48"><path
         d="m 201.38,544.75 293.33,0 0,34.68 -293.33,0 0,-34.68 z"
         inkscape:connector-curvature="0"
         id="path50" /></clipPath><clipPath
       id="clipPath60"><path
         d="m 201.38,544.75 293.33,0 0,34.68 -293.33,0 0,-34.68 z"
         inkscape:connector-curvature="0"
         id="path62" /></clipPath><clipPath
       id="clipPath72"><path
         d="m 201.38,544.75 293.33,0 0,34.68 -293.33,0 0,-34.68 z"
         inkscape:connector-curvature="0"
         id="path74" /></clipPath><clipPath
       id="clipPath84"><path
         d="m 201.38,544.75 293.33,0 0,34.68 -293.33,0 0,-34.68 z"
         inkscape:connector-curvature="0"
         id="path86" /></clipPath><clipPath
       id="clipPath96"><path
         d="m 201.39,502.75 293.33,0 0,33.96 -293.33,0 0,-33.96 z"
         inkscape:connector-curvature="0"
         id="path98" /></clipPath><clipPath
       id="clipPath104"><path
         d="m 201.38,502.75 293.33,0 0,33.96 -293.33,0 0,-33.96 z"
         inkscape:connector-curvature="0"
         id="path106" /></clipPath><clipPath
       id="clipPath112"><path
         d="m 201.38,502.75 293.33,0 0,33.96 -293.33,0 0,-33.96 z"
         inkscape:connector-curvature="0"
         id="path114" /></clipPath><clipPath
       id="clipPath124"><path
         d="m 201.38,502.75 293.33,0 0,33.96 -293.33,0 0,-33.96 z"
         inkscape:connector-curvature="0"
         id="path126" /></clipPath><clipPath
       id="clipPath136"><path
         d="m 201.38,502.75 293.33,0 0,33.96 -293.33,0 0,-33.96 z"
         inkscape:connector-curvature="0"
         id="path138" /></clipPath><clipPath
       id="clipPath148"><path
         d="m 201.39,460.75 293.33,0 0,33.96 -293.33,0 0,-33.96 z"
         inkscape:connector-curvature="0"
         id="path150" /></clipPath><clipPath
       id="clipPath156"><path
         d="m 201.38,460.75 293.33,0 0,33.96 -293.33,0 0,-33.96 z"
         inkscape:connector-curvature="0"
         id="path158" /></clipPath><clipPath
       id="clipPath164"><path
         d="m 201.38,460.75 293.33,0 0,33.96 -293.33,0 0,-33.96 z"
         inkscape:connector-curvature="0"
         id="path166" /></clipPath><clipPath
       id="clipPath176"><path
         d="m 201.38,460.75 293.33,0 0,33.96 -293.33,0 0,-33.96 z"
         inkscape:connector-curvature="0"
         id="path178" /></clipPath><clipPath
       id="clipPath196"><path
         d="m 472.04,352.48 218.9,0 0,74.76 -218.9,0 0,-74.76 z"
         inkscape:connector-curvature="0"
         id="path198" /></clipPath><clipPath
       id="clipPath204"><path
         d="m 472.03,352.49 218.9,0 0,74.76 -218.9,0 0,-74.76 z"
         inkscape:connector-curvature="0"
         id="path206" /></clipPath><clipPath
       id="clipPath216"><path
         d="m 472.03,352.49 218.9,0 0,74.76 -218.9,0 0,-74.76 z"
         inkscape:connector-curvature="0"
         id="path218" /></clipPath><clipPath
       id="clipPath228"><path
         d="m 472.03,352.49 218.9,0 0,74.76 -218.9,0 0,-74.76 z"
         inkscape:connector-curvature="0"
         id="path230" /></clipPath><clipPath
       id="clipPath236"><path
         d="m 472.03,352.49 218.9,0 0,74.76 -218.9,0 0,-74.76 z"
         inkscape:connector-curvature="0"
         id="path238" /></clipPath><clipPath
       id="clipPath248"><path
         d="m 472.03,352.49 218.9,0 0,74.76 -218.9,0 0,-74.76 z"
         inkscape:connector-curvature="0"
         id="path250" /></clipPath><clipPath
       id="clipPath260"><path
         d="m 472.03,352.49 218.9,0 0,74.76 -218.9,0 0,-74.76 z"
         inkscape:connector-curvature="0"
         id="path262" /></clipPath></defs><g
     transform="matrix(1.25,0,0,-1.25,-250.78125,729.84375)"
     id="g10"><path
       d="m 201,540.75 294,0 0,42.75 -294,0 0,-42.75 z"
       inkscape:connector-curvature="0"
       id="path12"
       style="fill:#ffffff;fill-opacity:1;fill-rule:evenodd;stroke:none" /><path
       d="m 201,540.75 294,0 0,42.75 -294,0 0,-42.75 z"
       inkscape:connector-curvature="0"
       id="path14"
       style="fill:none;stroke:#000000;stroke-width:0.75;stroke-linecap:round;stroke-linejoin:miter;stroke-miterlimit:10;stroke-opacity:1;stroke-dasharray:none" /><g
       id="g16"><g
         clip-path="url(#clipPath20)"
         id="g18"><g
           id="g24"><g
             clip-path="url(#clipPath28)"
             id="g26" /></g><g
           id="g32"><g
             clip-path="url(#clipPath36)"
             id="g34"><text
   transform="matrix(1,0,0,-1,308.45,557.83)"
   id="text40"><tspan
     x="0 4.4400001 8.8800001"
     y="0"
     id="tspan42"
     style="font-size:15.96000004px;font-variant:normal;font-weight:normal;writing-mode:lr-tb;fill:#000000;fill-opacity:1;fill-rule:nonzero;stroke:none;font-family:Helvetica;-inkscape-font-specification:Helvetica">I/O</tspan></text>

</g></g><g
           id="g44"><g
             clip-path="url(#clipPath48)"
             id="g46"><text
   transform="matrix(1,0,0,-1,329.69,557.83)"
   id="text52"><tspan
     x="0"
     y="0"
     id="tspan54"
     style="font-size:15.96000004px;font-variant:normal;font-weight:normal;writing-mode:lr-tb;fill:#000000;fill-opacity:1;fill-rule:nonzero;stroke:none;font-family:Helvetica;-inkscape-font-specification:Helvetica">-</tspan></text>

</g></g><g
           id="g56"><g
             clip-path="url(#clipPath60)"
             id="g58"><text
   transform="matrix(1,0,0,-1,334.97,557.83)"
   id="text64"><tspan
     x="0"
     y="0"
     id="tspan66"
     style="font-size:15.96000004px;font-variant:normal;font-weight:normal;writing-mode:lr-tb;fill:#000000;fill-opacity:1;fill-rule:nonzero;stroke:none;font-family:Helvetica;-inkscape-font-specification:Helvetica">S</tspan></text>

</g></g><g
           id="g68"><g
             clip-path="url(#clipPath72)"
             id="g70"><text
   transform="matrix(1,0,0,-1,345.65,557.83)"
   id="text76"><tspan
     x="0 8.0278797 16.90164 20.49264 28.520519 37.394279"
     y="0"
     id="tspan78"
     style="font-size:15.96000004px;font-variant:normal;font-weight:normal;writing-mode:lr-tb;fill:#000000;fill-opacity:1;fill-rule:nonzero;stroke:none;font-family:Helvetica;-inkscape-font-specification:Helvetica">chicht</tspan></text>

</g></g><g
           id="g80"><g
             clip-path="url(#clipPath84)"
             id="g82" /></g></g></g><path
       d="m 201,498.75 294,0 0,42 -294,0 0,-42 z"
       inkscape:connector-curvature="0"
       id="path88"
       style="fill:#ffffff;fill-opacity:1;fill-rule:evenodd;stroke:none" /><path
       d="m 201,498.75 294,0 0,42 -294,0 0,-42 z"
       inkscape:connector-curvature="0"
       id="path90"
       style="fill:none;stroke:#000000;stroke-width:0.75;stroke-linecap:round;stroke-linejoin:miter;stroke-miterlimit:10;stroke-opacity:1;stroke-dasharray:none" /><g
       id="g92"><g
         clip-path="url(#clipPath96)"
         id="g94"><g
           id="g100"><g
             clip-path="url(#clipPath104)"
             id="g102" /></g><g
           id="g108"><g
             clip-path="url(#clipPath112)"
             id="g110"><text
   transform="matrix(1,0,0,-1,273.26,514.99)"
   id="text116"><tspan
     x="0 10.64532 19.519079 24.833759 33.70752 39.022202 47.895962 56.769718 60.31284 64.781639 73.655403 82.640877"
     y="0"
     id="tspan118"
     style="font-size:15.96000004px;font-variant:normal;font-weight:normal;writing-mode:lr-tb;fill:#000000;fill-opacity:1;fill-rule:nonzero;stroke:none;font-family:Helvetica;-inkscape-font-specification:Helvetica">Verarbeitung</tspan></text>

</g></g><g
           id="g120"><g
             clip-path="url(#clipPath124)"
             id="g122"><text
   transform="matrix(1,0,0,-1,364.85,514.99)"
   id="text128"><tspan
     x="0 8.0278797 16.055759 24.083639 32.957401 36.548401 44.576279 53.450039"
     y="0"
     id="tspan130"
     style="font-size:15.96000004px;font-variant:normal;font-weight:normal;writing-mode:lr-tb;fill:#000000;fill-opacity:1;fill-rule:nonzero;stroke:none;font-family:Helvetica;-inkscape-font-specification:Helvetica">sschicht</tspan></text>

</g></g><g
           id="g132"><g
             clip-path="url(#clipPath136)"
             id="g134" /></g></g></g><path
       d="m 201,456.75 294,0 0,42 -294,0 0,-42 z"
       inkscape:connector-curvature="0"
       id="path140"
       style="fill:#ffffff;fill-opacity:1;fill-rule:evenodd;stroke:none" /><path
       d="m 201,456.75 294,0 0,42 -294,0 0,-42 z"
       inkscape:connector-curvature="0"
       id="path142"
       style="fill:none;stroke:#000000;stroke-width:0.75;stroke-linecap:round;stroke-linejoin:miter;stroke-miterlimit:10;stroke-opacity:1;stroke-dasharray:none" /><g
       id="g144"><g
         clip-path="url(#clipPath148)"
         id="g146"><g
           id="g152"><g
             clip-path="url(#clipPath156)"
             id="g154" /></g><g
           id="g160"><g
             clip-path="url(#clipPath164)"
             id="g162"><text
   transform="matrix(1,0,0,-1,275.9,472.99)"
   id="text168"><tspan
     x="0 11.52312 20.396879 24.833759 33.70752 42.58128 50.625118 59.498878 68.372643 73.687317 77.230438 81.66732 86.104202 94.164001 102.19188 110.21976 119.09352 122.68452 130.7124 139.58617"
     y="0"
     id="tspan170"
     style="font-size:15.96000004px;font-variant:normal;font-weight:normal;writing-mode:lr-tb;fill:#000000;fill-opacity:1;fill-rule:nonzero;stroke:none;font-family:Helvetica;-inkscape-font-specification:Helvetica">Datenzugriffsschicht</tspan></text>

</g></g><g
           id="g172"><g
             clip-path="url(#clipPath176)"
             id="g174" /></g></g></g><path
       d="m 361.1,427.5 c -19.88,0 -36,-3.09 -36,-6.89 l 0,-41.37 c 0,-3.8 16.12,-6.89 36,-6.89 19.88,0 36,3.09 36,6.89 l 0,41.37 c 0,3.8 -16.12,6.89 -36,6.89 z"
       inkscape:connector-curvature="0"
       id="path180"
       style="fill:#ffffff;fill-opacity:1;fill-rule:evenodd;stroke:none" /><path
       d="m 325.1,420.61 c 0,-3.81 16.12,-6.9 36,-6.9 19.88,0 36,3.09 36,6.9 0,3.8 -16.12,6.89 -36,6.89 -19.88,0 -36,-3.09 -36,-6.89 z"
       inkscape:connector-curvature="0"
       id="path182"
       style="fill:#ffffff;fill-opacity:1;fill-rule:evenodd;stroke:none" /><path
       d="m 361.1,427.5 c -19.88,0 -36,-3.09 -36,-6.89 l 0,-41.37 c 0,-3.8 16.12,-6.89 36,-6.89 19.88,0 36,3.09 36,6.89 l 0,41.37 c 0,3.8 -16.12,6.89 -36,6.89 z"
       inkscape:connector-curvature="0"
       id="path184"
       style="fill:none;stroke:#000000;stroke-width:0.75;stroke-linecap:round;stroke-linejoin:round;stroke-miterlimit:10;stroke-opacity:1;stroke-dasharray:none" /><path
       d="m 325.1,420.61 c 0,-3.81 16.12,-6.9 36,-6.9 19.88,0 36,3.09 36,6.9"
       inkscape:connector-curvature="0"
       id="path186"
       style="fill:none;stroke:#000000;stroke-width:0.75;stroke-linecap:round;stroke-linejoin:round;stroke-miterlimit:10;stroke-opacity:1;stroke-dasharray:none" /><path
       d="m 360.3,456 0,-36.75"
       inkscape:connector-curvature="0"
       id="path188"
       style="fill:none;stroke:#000000;stroke-width:0.75;stroke-linecap:round;stroke-linejoin:round;stroke-miterlimit:10;stroke-opacity:1;stroke-dasharray:none" /><path
       d="m 471.95,348.9 218.95,0 0,82 -218.95,0 0,-82 z"
       inkscape:connector-curvature="0"
       id="path190"
       style="fill:#ffffff;fill-opacity:1;fill-rule:evenodd;stroke:none" /><g
       id="g192"><g
         clip-path="url(#clipPath196)"
         id="g194"><g
           id="g200"><g
             clip-path="url(#clipPath204)"
             id="g202"><text
   transform="matrix(1,0,0,-1,479.23,412.49)"
   id="text208"><tspan
     x="0 11.52 20.39064 24.8244 33.695042 42.565681 51.436321 60.338879 69.209518 77.250237 86.12088 94.145638 103.01628 108.32784 117.29424 126.16488 135.03552 140.34708 148.35588 151.94376 159.96852 164.40228 173.27292 182.14355 186.57732 195.44797 204.4782"
     y="0"
     id="tspan210"
     style="font-size:15.96000004px;font-variant:normal;font-weight:normal;writing-mode:lr-tb;fill:#000000;fill-opacity:1;fill-rule:nonzero;stroke:none;font-family:Helvetica;-inkscape-font-specification:Helvetica">Datenbank zur persistenten </tspan></text>

</g></g><g
           id="g212"><g
             clip-path="url(#clipPath216)"
             id="g214"><text
   transform="matrix(1,0,0,-1,479.23,394.13)"
   id="text220"><tspan
     x="0 11.52 20.39064 24.8244 33.695042 42.565681 51.436321 60.338879 63.926762 68.360519 77.231163 86.101799"
     y="0"
     id="tspan222"
     style="font-size:15.96000004px;font-variant:normal;font-weight:normal;writing-mode:lr-tb;fill:#000000;fill-opacity:1;fill-rule:nonzero;stroke:none;font-family:Helvetica;-inkscape-font-specification:Helvetica">Datenhaltung</tspan></text>

</g></g><g
           id="g224"><g
             clip-path="url(#clipPath228)"
             id="g226" /></g><g
           id="g232"><g
             clip-path="url(#clipPath236)"
             id="g234"><text
   transform="matrix(1,0,0,-1,479.23,375.65)"
   id="text240"><tspan
     x="0 5.3146801 16.837799 25.711559 30.148439 39.022202 47.895962 56.865479 65.739243 69.330238 73.76712 82.640877 91.514641 100.3884"
     y="0"
     id="tspan242"
     style="font-size:15.96000004px;font-variant:normal;font-weight:normal;writing-mode:lr-tb;fill:#000000;fill-opacity:1;fill-rule:nonzero;stroke:none;font-family:Helvetica;-inkscape-font-specification:Helvetica">(Datenhaltungs</tspan></text>

</g></g><g
           id="g244"><g
             clip-path="url(#clipPath248)"
             id="g246"><text
   transform="matrix(1,0,0,-1,587.71,375.65)"
   id="text252"><tspan
     x="0 8.0278797 16.055759 24.92952 28.520519 36.548401 45.422161 49.859039"
     y="0"
     id="tspan254"
     style="font-size:15.96000004px;font-variant:normal;font-weight:normal;writing-mode:lr-tb;fill:#000000;fill-opacity:1;fill-rule:nonzero;stroke:none;font-family:Helvetica;-inkscape-font-specification:Helvetica">schicht)</tspan></text>

</g></g><g
           id="g256"><g
             clip-path="url(#clipPath260)"
             id="g258" /></g></g></g></g></svg>