<?xml version="1.0" encoding="UTF-8" standalone="no"?>
<!-- Created with Inkscape (http://www.inkscape.org/) -->

<svg
   xmlns:dc="http://purl.org/dc/elements/1.1/"
   xmlns:cc="http://creativecommons.org/ns#"
   xmlns:rdf="http://www.w3.org/1999/02/22-rdf-syntax-ns#"
   xmlns:svg="http://www.w3.org/2000/svg"
   xmlns="http://www.w3.org/2000/svg"
   xmlns:sodipodi="http://sodipodi.sourceforge.net/DTD/sodipodi-0.dtd"
   xmlns:inkscape="http://www.inkscape.org/namespaces/inkscape"
   version="1.1"
   width="350.74374"
   height="310.30624"
   id="svg2"
   xml:space="preserve"
   inkscape:version="0.48.4 r9939"
   sodipodi:docname="Bild 5-29 Schichtendiagramm für Services.svg"><sodipodi:namedview
     pagecolor="#ffffff"
     bordercolor="#666666"
     borderopacity="1"
     objecttolerance="10"
     gridtolerance="10"
     guidetolerance="10"
     inkscape:pageopacity="0"
     inkscape:pageshadow="2"
     inkscape:window-width="640"
     inkscape:window-height="480"
     id="namedview328"
     showgrid="false"
     inkscape:zoom="0.18730159"
     inkscape:cx="17.15625"
     inkscape:cy="250.775"
     inkscape:window-x="0"
     inkscape:window-y="0"
     inkscape:window-maximized="0"
     inkscape:current-layer="svg2" /><metadata
     id="metadata8"><rdf:RDF><cc:Work
         rdf:about=""><dc:format>image/svg+xml</dc:format><dc:type
           rdf:resource="http://purl.org/dc/dcmitype/StillImage" /></cc:Work></rdf:RDF></metadata><defs
     id="defs6"><clipPath
       id="clipPath54"><path
         d="m 527.36,514.63 97.68,0 0,26.4 -97.68,0 0,-26.4 z"
         inkscape:connector-curvature="0"
         id="path56" /></clipPath><clipPath
       id="clipPath62"><path
         d="m 527.35,514.63 97.68,0 0,26.4 -97.68,0 0,-26.4 z"
         inkscape:connector-curvature="0"
         id="path64" /></clipPath><clipPath
       id="clipPath72"><path
         d="m 497.24,325.72 69,0 0,11.52 -69,0 0,-11.52 z"
         inkscape:connector-curvature="0"
         id="path74" /></clipPath><clipPath
       id="clipPath80"><path
         d="m 497.23,325.73 69,0 0,11.52 -69,0 0,-11.52 z"
         inkscape:connector-curvature="0"
         id="path82" /></clipPath><clipPath
       id="clipPath92"><path
         d="m 497.23,325.73 69,0 0,11.52 -69,0 0,-11.52 z"
         inkscape:connector-curvature="0"
         id="path94" /></clipPath><clipPath
       id="clipPath100"><path
         d="m 497.24,313.72 54,0 0,11.52 -54,0 0,-11.52 z"
         inkscape:connector-curvature="0"
         id="path102" /></clipPath><clipPath
       id="clipPath108"><path
         d="m 497.23,313.73 54,0 0,11.52 -54,0 0,-11.52 z"
         inkscape:connector-curvature="0"
         id="path110" /></clipPath><clipPath
       id="clipPath120"><path
         d="m 497.23,313.73 54,0 0,11.52 -54,0 0,-11.52 z"
         inkscape:connector-curvature="0"
         id="path122" /></clipPath><clipPath
       id="clipPath128"><path
         d="m 497.24,360.52 26.76,0 0,11.52 -26.76,0 0,-11.52 z"
         inkscape:connector-curvature="0"
         id="path130" /></clipPath><clipPath
       id="clipPath136"><path
         d="m 497.23,360.53 26.76,0 0,11.52 -26.76,0 0,-11.52 z"
         inkscape:connector-curvature="0"
         id="path138" /></clipPath><clipPath
       id="clipPath148"><path
         d="m 497.23,360.53 26.76,0 0,11.52 -26.76,0 0,-11.52 z"
         inkscape:connector-curvature="0"
         id="path150" /></clipPath><clipPath
       id="clipPath156"><path
         d="m 497.24,348.76 41.16,0 0,11.52 -41.16,0 0,-11.52 z"
         inkscape:connector-curvature="0"
         id="path158" /></clipPath><clipPath
       id="clipPath164"><path
         d="m 497.23,348.77 41.16,0 0,11.52 -41.16,0 0,-11.52 z"
         inkscape:connector-curvature="0"
         id="path166" /></clipPath><clipPath
       id="clipPath176"><path
         d="m 497.23,348.77 41.16,0 0,11.52 -41.16,0 0,-11.52 z"
         inkscape:connector-curvature="0"
         id="path178" /></clipPath><clipPath
       id="clipPath200"><path
         d="m 531.44,528.43 101.76,0 0,11.52 -101.76,0 0,-11.52 z"
         inkscape:connector-curvature="0"
         id="path202" /></clipPath><clipPath
       id="clipPath208"><path
         d="m 531.43,528.43 101.76,0 0,11.52 -101.76,0 0,-11.52 z"
         inkscape:connector-curvature="0"
         id="path210" /></clipPath><clipPath
       id="clipPath220"><path
         d="m 531.43,528.43 101.76,0 0,11.52 -101.76,0 0,-11.52 z"
         inkscape:connector-curvature="0"
         id="path222" /></clipPath><clipPath
       id="clipPath228"><path
         d="m 531.44,516.91 81.84,0 0,11.52 -81.84,0 0,-11.52 z"
         inkscape:connector-curvature="0"
         id="path230" /></clipPath><clipPath
       id="clipPath236"><path
         d="m 531.43,516.91 81.84,0 0,11.52 -81.84,0 0,-11.52 z"
         inkscape:connector-curvature="0"
         id="path238" /></clipPath><clipPath
       id="clipPath248"><path
         d="m 531.43,516.91 81.84,0 0,11.52 -81.84,0 0,-11.52 z"
         inkscape:connector-curvature="0"
         id="path250" /></clipPath><clipPath
       id="clipPath332"><path
         d="m 531.44,425.32 51.24,0 0,11.52 -51.24,0 0,-11.52 z"
         inkscape:connector-curvature="0"
         id="path334" /></clipPath><clipPath
       id="clipPath340"><path
         d="m 531.43,425.33 51.24,0 0,11.52 -51.24,0 0,-11.52 z"
         inkscape:connector-curvature="0"
         id="path342" /></clipPath><clipPath
       id="clipPath352"><path
         d="m 531.43,425.33 51.24,0 0,11.52 -51.24,0 0,-11.52 z"
         inkscape:connector-curvature="0"
         id="path354" /></clipPath><clipPath
       id="clipPath390"><path
         d="m 497.48,391.12 51.6,0 0,23.04 -51.6,0 0,-23.04 z"
         inkscape:connector-curvature="0"
         id="path392" /></clipPath><clipPath
       id="clipPath398"><path
         d="m 497.47,391.13 51.6,0 0,23.04 -51.6,0 0,-23.04 z"
         inkscape:connector-curvature="0"
         id="path400" /></clipPath><clipPath
       id="clipPath410"><path
         d="m 497.47,391.13 51.6,0 0,23.04 -51.6,0 0,-23.04 z"
         inkscape:connector-curvature="0"
         id="path412" /></clipPath><clipPath
       id="clipPath418"><path
         d="m 497.47,391.13 51.6,0 0,23.04 -51.6,0 0,-23.04 z"
         inkscape:connector-curvature="0"
         id="path420" /></clipPath><clipPath
       id="clipPath430"><path
         d="m 497.47,391.13 51.6,0 0,23.04 -51.6,0 0,-23.04 z"
         inkscape:connector-curvature="0"
         id="path432" /></clipPath><clipPath
       id="clipPath486"><path
         d="m 572.96,462.31 70.68,0 0,11.4 -70.68,0 0,-11.4 z"
         inkscape:connector-curvature="0"
         id="path488" /></clipPath><clipPath
       id="clipPath494"><path
         d="m 572.95,462.31 70.68,0 0,11.4 -70.68,0 0,-11.4 z"
         inkscape:connector-curvature="0"
         id="path496" /></clipPath><clipPath
       id="clipPath506"><path
         d="m 572.95,462.31 70.68,0 0,11.4 -70.68,0 0,-11.4 z"
         inkscape:connector-curvature="0"
         id="path508" /></clipPath><clipPath
       id="clipPath514"><path
         d="m 604.28,450.91 6.72,0 0,11.52 -6.72,0 0,-11.52 z"
         inkscape:connector-curvature="0"
         id="path516" /></clipPath><clipPath
       id="clipPath522"><path
         d="m 604.27,450.91 6.72,0 0,11.52 -6.72,0 0,-11.52 z"
         inkscape:connector-curvature="0"
         id="path524" /></clipPath><clipPath
       id="clipPath534"><path
         d="m 604.27,450.91 6.72,0 0,11.52 -6.72,0 0,-11.52 z"
         inkscape:connector-curvature="0"
         id="path536" /></clipPath><clipPath
       id="clipPath542"><path
         d="m 680.85,462.31 70.68,0 0,11.4 -70.68,0 0,-11.4 z"
         inkscape:connector-curvature="0"
         id="path544" /></clipPath><clipPath
       id="clipPath550"><path
         d="m 680.86,462.31 70.68,0 0,11.4 -70.68,0 0,-11.4 z"
         inkscape:connector-curvature="0"
         id="path552" /></clipPath><clipPath
       id="clipPath562"><path
         d="m 680.86,462.31 70.68,0 0,11.4 -70.68,0 0,-11.4 z"
         inkscape:connector-curvature="0"
         id="path564" /></clipPath><clipPath
       id="clipPath570"><path
         d="m 712.17,451.03 6.72,0 0,11.52 -6.72,0 0,-11.52 z"
         inkscape:connector-curvature="0"
         id="path572" /></clipPath><clipPath
       id="clipPath578"><path
         d="m 712.18,451.03 6.72,0 0,11.52 -6.72,0 0,-11.52 z"
         inkscape:connector-curvature="0"
         id="path580" /></clipPath><clipPath
       id="clipPath590"><path
         d="m 712.18,451.03 6.72,0 0,11.52 -6.72,0 0,-11.52 z"
         inkscape:connector-curvature="0"
         id="path592" /></clipPath></defs><g
     transform="matrix(1.25,0,0,-1.25,-613.21875,689.53125)"
     id="g10"><path
       d="m 522.17,535.09 c -7.32,-0.35 -12.87,-3.22 -12.87,-6.65 -0.01,-2.37 2.7,-4.57 7.09,-5.77 l -0.07,0.08 c -2.5,-1.24 -3.88,-2.86 -3.88,-4.55 0,-3.68 6.44,-6.66 14.39,-6.66 0.55,0 1.11,0.01 1.67,0.04 l -0.07,-0.04 c 4.54,-3.69 12.97,-5.96 22.11,-5.96 4.62,0 9.17,0.58 13.13,1.69 l -0.04,-0.01 c 4.13,-2.88 11.08,-4.6 18.53,-4.6 9.81,0 18.48,2.99 21.33,7.36 l 0.02,-0.06 c 3.04,-0.87 6.53,-1.34 10.11,-1.34 10.49,0 19.02,3.92 19.09,8.78 l -0.03,0.02 c 11.01,0.73 19.2,5.11 19.2,10.27 0,2.28 -1.63,4.5 -4.63,6.32 l -0.04,0 c 0.93,1.02 1.42,2.12 1.42,3.23 0,3.69 -5.32,6.92 -12.98,7.89 l 0.06,0.02 c -1.37,3.53 -8.02,6.1 -15.78,6.1 -4.71,0 -9.18,-0.96 -12.23,-2.62 l 0.03,-0.01 c -2.72,1.66 -6.96,2.63 -11.46,2.63 -5.46,0 -10.45,-1.43 -12.89,-3.7 l 0.05,-0.11 c -3.29,1.51 -7.73,2.35 -12.35,2.35 -6.51,0 -12.49,-1.67 -15.55,-4.34 l -0.05,-0.05 c -3.42,0.92 -7.31,1.41 -11.27,1.41 -12.31,0 -22.29,-4.63 -22.29,-10.34 0,-0.46 0.07,-0.93 0.2,-1.39 l 0.05,0.01 z"
       inkscape:connector-curvature="0"
       id="path12"
       style="fill:#ffffff;fill-opacity:1;fill-rule:evenodd;stroke:none" /><path
       d="m 522.17,535.09 c -7.32,-0.35 -12.87,-3.22 -12.87,-6.65 -0.01,-2.37 2.7,-4.57 7.09,-5.77 l -0.07,0.08 c -2.5,-1.24 -3.88,-2.86 -3.88,-4.55 0,-3.68 6.44,-6.66 14.39,-6.66 0.55,0 1.11,0.01 1.67,0.04 l -0.07,-0.04 c 4.54,-3.69 12.97,-5.96 22.11,-5.96 4.62,0 9.17,0.58 13.13,1.69 l -0.04,-0.01 c 4.13,-2.88 11.08,-4.6 18.53,-4.6 9.81,0 18.48,2.99 21.33,7.36 l 0.02,-0.06 c 3.04,-0.87 6.53,-1.34 10.11,-1.34 10.49,0 19.02,3.92 19.09,8.78 l -0.03,0.02 c 11.01,0.73 19.2,5.11 19.2,10.27 0,2.28 -1.63,4.5 -4.63,6.32 l -0.04,0 c 0.93,1.02 1.42,2.12 1.42,3.23 0,3.69 -5.32,6.92 -12.98,7.89 l 0.06,0.02 c -1.37,3.53 -8.02,6.1 -15.78,6.1 -4.71,0 -9.18,-0.96 -12.23,-2.62 l 0.03,-0.01 c -2.72,1.66 -6.96,2.63 -11.46,2.63 -5.46,0 -10.45,-1.43 -12.89,-3.7 l 0.05,-0.11 c -3.29,1.51 -7.73,2.35 -12.35,2.35 -6.51,0 -12.49,-1.67 -15.55,-4.34 l -0.05,-0.05 c -3.42,0.92 -7.31,1.41 -11.27,1.41 -12.31,0 -22.29,-4.63 -22.29,-10.34 0,-0.46 0.07,-0.93 0.2,-1.39 l 0.05,0.01 z"
       inkscape:connector-curvature="0"
       id="path14"
       style="fill:none;stroke:#000000;stroke-width:0.75;stroke-linecap:round;stroke-linejoin:round;stroke-miterlimit:10;stroke-opacity:1;stroke-dasharray:none" /><path
       d="m 516.39,522.67 c 2.2,-0.6 4.7,-0.92 7.25,-0.92 0.37,0 0.75,0.01 1.11,0.02"
       inkscape:connector-curvature="0"
       id="path16"
       style="fill:none;stroke:#000000;stroke-width:0.75;stroke-linecap:round;stroke-linejoin:round;stroke-miterlimit:10;stroke-opacity:1;stroke-dasharray:none" /><path
       d="m 528.5,511.58 c 1.26,0.07 2.49,0.22 3.66,0.43"
       inkscape:connector-curvature="0"
       id="path18"
       style="fill:none;stroke:#000000;stroke-width:0.75;stroke-linecap:round;stroke-linejoin:round;stroke-miterlimit:10;stroke-opacity:1;stroke-dasharray:none" /><path
       d="m 561.42,509.22 c 0.58,-0.69 1.32,-1.34 2.21,-1.96"
       inkscape:connector-curvature="0"
       id="path20"
       style="fill:none;stroke:#000000;stroke-width:0.75;stroke-linecap:round;stroke-linejoin:round;stroke-miterlimit:10;stroke-opacity:1;stroke-dasharray:none" /><path
       d="m 603.49,510.02 c 0.45,0.7 0.74,1.42 0.88,2.15"
       inkscape:connector-curvature="0"
       id="path22"
       style="fill:none;stroke:#000000;stroke-width:0.75;stroke-linecap:round;stroke-linejoin:round;stroke-miterlimit:10;stroke-opacity:1;stroke-dasharray:none" /><path
       d="m 632.71,517.4 c 0,0.02 0.01,0.05 0.01,0.07 0,3.39 -4.17,6.47 -10.73,7.96"
       inkscape:connector-curvature="0"
       id="path24"
       style="fill:none;stroke:#000000;stroke-width:0.75;stroke-linecap:round;stroke-linejoin:round;stroke-miterlimit:10;stroke-opacity:1;stroke-dasharray:none" /><path
       d="m 642.43,531 c 2.07,0.82 3.7,1.85 4.78,3.01"
       inkscape:connector-curvature="0"
       id="path26"
       style="fill:none;stroke:#000000;stroke-width:0.75;stroke-linecap:round;stroke-linejoin:round;stroke-miterlimit:10;stroke-opacity:1;stroke-dasharray:none" /><path
       d="m 635.96,543.73 c 0,0.03 0.01,0.07 0.01,0.1 0,0.44 -0.09,0.88 -0.26,1.32"
       inkscape:connector-curvature="0"
       id="path28"
       style="fill:none;stroke:#000000;stroke-width:0.75;stroke-linecap:round;stroke-linejoin:round;stroke-miterlimit:10;stroke-opacity:1;stroke-dasharray:none" /><path
       d="m 607.7,548.63 c -1,-0.55 -1.82,-1.16 -2.44,-1.81"
       inkscape:connector-curvature="0"
       id="path30"
       style="fill:none;stroke:#000000;stroke-width:0.75;stroke-linecap:round;stroke-linejoin:round;stroke-miterlimit:10;stroke-opacity:1;stroke-dasharray:none" /><path
       d="m 583.38,547.55 c -0.54,-0.5 -0.93,-1.02 -1.19,-1.57"
       inkscape:connector-curvature="0"
       id="path32"
       style="fill:none;stroke:#000000;stroke-width:0.75;stroke-linecap:round;stroke-linejoin:round;stroke-miterlimit:10;stroke-opacity:1;stroke-dasharray:none" /><path
       d="m 559.77,543.88 c -1.29,0.58 -2.73,1.09 -4.29,1.52"
       inkscape:connector-curvature="0"
       id="path34"
       style="fill:none;stroke:#000000;stroke-width:0.75;stroke-linecap:round;stroke-linejoin:round;stroke-miterlimit:10;stroke-opacity:1;stroke-dasharray:none" /><path
       d="m 522.12,535.08 c 0.16,-0.54 0.41,-1.07 0.75,-1.59"
       inkscape:connector-curvature="0"
       id="path36"
       style="fill:none;stroke:#000000;stroke-width:0.75;stroke-linecap:round;stroke-linejoin:round;stroke-miterlimit:10;stroke-opacity:1;stroke-dasharray:none" /><path
       d="m 538.18,504.69 c -6.57,0 -11.89,-1.81 -11.89,-4.05 0,-2.23 5.32,-4.05 11.89,-4.05 6.56,0 11.88,1.82 11.88,4.05 0,2.24 -5.32,4.05 -11.88,4.05 z"
       inkscape:connector-curvature="0"
       id="path38"
       style="fill:#ffffff;fill-opacity:1;fill-rule:evenodd;stroke:none" /><path
       d="m 538.18,504.69 c -6.57,0 -11.89,-1.81 -11.89,-4.05 0,-2.23 5.32,-4.05 11.89,-4.05 6.56,0 11.88,1.82 11.88,4.05 0,2.24 -5.32,4.05 -11.88,4.05 z"
       inkscape:connector-curvature="0"
       id="path40"
       style="fill:none;stroke:#000000;stroke-width:0.75;stroke-linecap:round;stroke-linejoin:round;stroke-miterlimit:10;stroke-opacity:1;stroke-dasharray:none" /><path
       d="m 526.28,495.96 c -4.38,0 -7.92,-1.21 -7.92,-2.7 0,-1.49 3.54,-2.7 7.92,-2.7 4.38,0 7.92,1.21 7.92,2.7 0,1.49 -3.54,2.7 -7.92,2.7 z"
       inkscape:connector-curvature="0"
       id="path42"
       style="fill:#ffffff;fill-opacity:1;fill-rule:evenodd;stroke:none" /><path
       d="m 526.28,495.96 c -4.38,0 -7.92,-1.21 -7.92,-2.7 0,-1.49 3.54,-2.7 7.92,-2.7 4.38,0 7.92,1.21 7.92,2.7 0,1.49 -3.54,2.7 -7.92,2.7 z"
       inkscape:connector-curvature="0"
       id="path44"
       style="fill:none;stroke:#000000;stroke-width:0.75;stroke-linecap:round;stroke-linejoin:round;stroke-miterlimit:10;stroke-opacity:1;stroke-dasharray:none" /><path
       d="m 518.2,489.6 c -2.19,0 -3.96,-0.61 -3.96,-1.35 0,-0.74 1.77,-1.35 3.96,-1.35 2.18,0 3.96,0.61 3.96,1.35 0,0.74 -1.78,1.35 -3.96,1.35 z"
       inkscape:connector-curvature="0"
       id="path46"
       style="fill:#ffffff;fill-opacity:1;fill-rule:evenodd;stroke:none" /><path
       d="m 518.2,489.6 c -2.19,0 -3.96,-0.61 -3.96,-1.35 0,-0.74 1.77,-1.35 3.96,-1.35 2.18,0 3.96,0.61 3.96,1.35 0,0.74 -1.78,1.35 -3.96,1.35 z"
       inkscape:connector-curvature="0"
       id="path48"
       style="fill:none;stroke:#000000;stroke-width:0.75;stroke-linecap:round;stroke-linejoin:round;stroke-miterlimit:10;stroke-opacity:1;stroke-dasharray:none" /><g
       id="g50"><g
         clip-path="url(#clipPath54)"
         id="g52"><g
           id="g58"><g
             clip-path="url(#clipPath62)"
             id="g60" /></g></g></g><path
       d="m 494.5,303.45 276.6,0 0,40.5 -276.6,0 0,-40.5 z"
       inkscape:connector-curvature="0"
       id="path66"
       style="fill:none;stroke:#000000;stroke-width:0.14;stroke-linecap:round;stroke-linejoin:miter;stroke-miterlimit:8;stroke-opacity:1;stroke-dasharray:none" /><g
       id="g68"><g
         clip-path="url(#clipPath72)"
         id="g70"><g
           id="g76"><g
             clip-path="url(#clipPath80)"
             id="g78"><text
   transform="matrix(1,0,0,-1,497.23,328.13)"
   id="text84"><tspan
     x="0 6.9620399 13.197 19.302481 22.07136 24.92988 30.46764 35.965561 39.312119 42.081001 48.166561 54.301922 59.83968 65.92524"
     y="0"
     id="tspan86"
     style="font-size:9.96000004px;font-variant:normal;font-weight:bold;writing-mode:lr-tb;fill:#000000;fill-opacity:1;fill-rule:nonzero;stroke:none;font-family:Helvetica;-inkscape-font-specification:Helvetica-Bold">Applikationen/</tspan></text>

</g></g><g
           id="g88"><g
             clip-path="url(#clipPath92)"
             id="g90" /></g></g></g><g
       id="g96"><g
         clip-path="url(#clipPath100)"
         id="g98"><g
           id="g104"><g
             clip-path="url(#clipPath108)"
             id="g106"><text
   transform="matrix(1,0,0,-1,497.23,316.13)"
   id="text112"><tspan
     x="0 6.1054802 12.21096 18.316441 23.8542 27.170879 29.93976 36.065159 42.170639 47.708401"
     y="0"
     id="tspan114"
     style="font-size:9.96000004px;font-variant:normal;font-weight:bold;writing-mode:lr-tb;fill:#000000;fill-opacity:1;fill-rule:nonzero;stroke:none;font-family:Helvetica;-inkscape-font-specification:Helvetica-Bold">Funktionen</tspan></text>

</g></g><g
           id="g116"><g
             clip-path="url(#clipPath120)"
             id="g118" /></g></g></g><g
       id="g124"><g
         clip-path="url(#clipPath128)"
         id="g126"><g
           id="g132"><g
             clip-path="url(#clipPath136)"
             id="g134"><text
   transform="matrix(1,0,0,-1,497.23,362.93)"
   id="text140"><tspan
     x="0 7.1911201 12.72888 18.26664 20.99568"
     y="0"
     id="tspan142"
     style="font-size:9.96000004px;font-variant:normal;font-weight:bold;writing-mode:lr-tb;fill:#000000;fill-opacity:1;fill-rule:nonzero;stroke:none;font-family:Helvetica;-inkscape-font-specification:Helvetica-Bold">Basic</tspan></text>

</g></g><g
           id="g144"><g
             clip-path="url(#clipPath148)"
             id="g146" /></g></g></g><g
       id="g152"><g
         clip-path="url(#clipPath156)"
         id="g154"><g
           id="g160"><g
             clip-path="url(#clipPath164)"
             id="g162"><text
   transform="matrix(1,0,0,-1,497.23,351.17)"
   id="text168"><tspan
     x="0 6.6034799 12.14124 15.96588 21.593281 24.36216 29.979601 35.517361"
     y="0"
     id="tspan170"
     style="font-size:9.96000004px;font-variant:normal;font-weight:bold;writing-mode:lr-tb;fill:#000000;fill-opacity:1;fill-rule:nonzero;stroke:none;font-family:Helvetica;-inkscape-font-specification:Helvetica-Bold">Services</tspan></text>

</g></g><g
           id="g172"><g
             clip-path="url(#clipPath176)"
             id="g174" /></g></g></g><path
       d="m 494.5,343.8 276.6,0 0,35.45 -276.6,0 0,-35.45 z"
       inkscape:connector-curvature="0"
       id="path180"
       style="fill:none;stroke:#000000;stroke-width:0.14;stroke-linecap:round;stroke-linejoin:miter;stroke-miterlimit:8;stroke-opacity:1;stroke-dasharray:none" /><path
       d="m 494.5,379.25 276.6,0 0,45.4 -276.6,0 0,-45.4 z"
       inkscape:connector-curvature="0"
       id="path182"
       style="fill:none;stroke:#000000;stroke-width:0.14;stroke-linecap:round;stroke-linejoin:miter;stroke-miterlimit:8;stroke-opacity:1;stroke-dasharray:none" /><path
       d="m 494.5,439.4 276.6,0 0,40.45 -276.6,0 0,-40.45 z"
       inkscape:connector-curvature="0"
       id="path184"
       style="fill:none;stroke:#000000;stroke-width:0.14;stroke-linecap:round;stroke-linejoin:miter;stroke-miterlimit:8;stroke-opacity:1;stroke-dasharray:none" /><path
       d="m 494.5,424.65 276.6,0 0,14.75 -276.6,0 0,-14.75 z"
       inkscape:connector-curvature="0"
       id="path186"
       style="fill:none;stroke:#000000;stroke-width:0.14;stroke-linecap:round;stroke-linejoin:miter;stroke-miterlimit:8;stroke-opacity:1;stroke-dasharray:none" /><path
       d="m 607.17,477.95 c -28.78,0 -52.12,-7.12 -52.12,-15.9 0,-8.78 23.34,-15.9 52.12,-15.9 28.79,0 52.13,7.12 52.13,15.9 0,8.78 -23.34,15.9 -52.13,15.9 z"
       inkscape:connector-curvature="0"
       id="path188"
       style="fill:#ffffff;fill-opacity:1;fill-rule:evenodd;stroke:none" /><path
       d="m 607.17,477.95 c -28.78,0 -52.12,-7.12 -52.12,-15.9 0,-8.78 23.34,-15.9 52.12,-15.9 28.79,0 52.13,7.12 52.13,15.9 0,8.78 -23.34,15.9 -52.13,15.9 z"
       inkscape:connector-curvature="0"
       id="path190"
       style="fill:none;stroke:#000000;stroke-width:0.14;stroke-linecap:round;stroke-linejoin:round;stroke-miterlimit:8;stroke-opacity:1;stroke-dasharray:none" /><path
       d="m 607.17,477.95 c -28.78,0 -52.12,-7.12 -52.12,-15.9 0,-8.78 23.34,-15.9 52.12,-15.9 28.79,0 52.13,7.12 52.13,15.9 0,8.78 -23.34,15.9 -52.13,15.9 z"
       inkscape:connector-curvature="0"
       id="path192"
       style="fill:none;stroke:#000000;stroke-width:0.14;stroke-linecap:round;stroke-linejoin:round;stroke-miterlimit:8;stroke-opacity:1;stroke-dasharray:none" /><path
       d="m 607.17,477.95 c -28.78,0 -52.12,-7.12 -52.12,-15.9 0,-8.78 23.34,-15.9 52.12,-15.9 28.79,0 52.13,7.12 52.13,15.9 0,8.78 -23.34,15.9 -52.13,15.9 z"
       inkscape:connector-curvature="0"
       id="path194"
       style="fill:none;stroke:#000000;stroke-width:0.14;stroke-linecap:round;stroke-linejoin:round;stroke-miterlimit:8;stroke-opacity:1;stroke-dasharray:none" /><g
       id="g196"><g
         clip-path="url(#clipPath200)"
         id="g198"><g
           id="g204"><g
             clip-path="url(#clipPath208)"
             id="g206"><text
   transform="matrix(1,0,0,-1,531.43,530.83)"
   id="text212"><tspan
     x="0 7.7887201 13.32648 18.336361 23.366159 28.903919 34.40184 37.270321 40.0392 45.05904 50.596802 53.913479 59.451241 64.381439 69.919197 74.929077 79.958878 85.496643 88.265518 96.751442 98.912758"
     y="0"
     id="tspan214"
     style="font-size:9.96000004px;font-variant:normal;font-weight:normal;writing-mode:lr-tb;fill:#000000;fill-opacity:1;fill-rule:nonzero;stroke:none;font-family:Helvetica;-inkscape-font-specification:Helvetica">Geschäftsprozesse mit</tspan></text>

</g></g><g
           id="g216"><g
             clip-path="url(#clipPath220)"
             id="g218" /></g></g></g><g
       id="g224"><g
         clip-path="url(#clipPath228)"
         id="g226"><g
           id="g232"><g
             clip-path="url(#clipPath236)"
             id="g234"><text
   transform="matrix(1,0,0,-1,531.43,519.31)"
   id="text240"><tspan
     x="0 6.6034799 12.23088 19.312441 24.93984 30.4776 36.085079 41.622841 47.120762 52.65852 57.6684 60.53688 66.074638 68.216042 70.486923 76.024681"
     y="0"
     id="tspan242"
     style="font-size:9.96000004px;font-variant:normal;font-weight:normal;writing-mode:lr-tb;fill:#000000;fill-opacity:1;fill-rule:nonzero;stroke:none;font-family:Helvetica;-inkscape-font-specification:Helvetica">Anwendungsfällen</tspan></text>

</g></g><g
           id="g244"><g
             clip-path="url(#clipPath248)"
             id="g246" /></g></g></g><path
       d="m 581.7,313.9 57.8,0 0,23.6 -57.8,0 0,-23.6 z"
       inkscape:connector-curvature="0"
       id="path252"
       style="fill:#ffffff;fill-opacity:1;fill-rule:evenodd;stroke:none" /><path
       d="m 581.7,313.9 57.8,0 0,23.6 -57.8,0 0,-23.6 z"
       inkscape:connector-curvature="0"
       id="path254"
       style="fill:none;stroke:#000000;stroke-width:0.14;stroke-linecap:round;stroke-linejoin:miter;stroke-miterlimit:8;stroke-opacity:1;stroke-dasharray:none" /><path
       d="m 652.75,313.9 105.45,0 0,23.6 -105.45,0 0,-23.6 z"
       inkscape:connector-curvature="0"
       id="path256"
       style="fill:#ffffff;fill-opacity:1;fill-rule:evenodd;stroke:none" /><path
       d="m 652.75,313.9 105.45,0 0,23.6 -105.45,0 0,-23.6 z"
       inkscape:connector-curvature="0"
       id="path258"
       style="fill:none;stroke:#000000;stroke-width:0.14;stroke-linecap:round;stroke-linejoin:miter;stroke-miterlimit:8;stroke-opacity:1;stroke-dasharray:none" /><path
       d="m 585.05,318.45 9.85,0 0,11.55 -9.85,0 0,-11.55 z"
       inkscape:connector-curvature="0"
       id="path260"
       style="fill:#ffffff;fill-opacity:1;fill-rule:evenodd;stroke:none" /><path
       d="m 585.05,318.45 9.85,0 0,11.55 -9.85,0 0,-11.55 z"
       inkscape:connector-curvature="0"
       id="path262"
       style="fill:none;stroke:#000000;stroke-width:0.14;stroke-linecap:round;stroke-linejoin:miter;stroke-miterlimit:8;stroke-opacity:1;stroke-dasharray:none" /><path
       d="m 599.35,318.45 9.7999,0 0,11.55 -9.7999,0 0,-11.55 z"
       inkscape:connector-curvature="0"
       id="path264"
       style="fill:#ffffff;fill-opacity:1;fill-rule:evenodd;stroke:none" /><path
       d="m 599.35,318.45 9.7999,0 0,11.55 -9.7999,0 0,-11.55 z"
       inkscape:connector-curvature="0"
       id="path266"
       style="fill:none;stroke:#000000;stroke-width:0.14;stroke-linecap:round;stroke-linejoin:miter;stroke-miterlimit:8;stroke-opacity:1;stroke-dasharray:none" /><path
       d="m 614.05,318.45 9.85,0 0,11.55 -9.85,0 0,-11.55 z"
       inkscape:connector-curvature="0"
       id="path268"
       style="fill:#ffffff;fill-opacity:1;fill-rule:evenodd;stroke:none" /><path
       d="m 614.05,318.45 9.85,0 0,11.55 -9.85,0 0,-11.55 z"
       inkscape:connector-curvature="0"
       id="path270"
       style="fill:none;stroke:#000000;stroke-width:0.14;stroke-linecap:round;stroke-linejoin:miter;stroke-miterlimit:8;stroke-opacity:1;stroke-dasharray:none" /><path
       d="m 627.6,318.45 9.8,0 0,11.55 -9.8,0 0,-11.55 z"
       inkscape:connector-curvature="0"
       id="path272"
       style="fill:#ffffff;fill-opacity:1;fill-rule:evenodd;stroke:none" /><path
       d="m 627.6,318.45 9.8,0 0,11.55 -9.8,0 0,-11.55 z"
       inkscape:connector-curvature="0"
       id="path274"
       style="fill:none;stroke:#000000;stroke-width:0.14;stroke-linecap:round;stroke-linejoin:miter;stroke-miterlimit:8;stroke-opacity:1;stroke-dasharray:none" /><path
       d="m 658.25,318.45 9.75,0 0,11.55 -9.75,0 0,-11.55 z"
       inkscape:connector-curvature="0"
       id="path276"
       style="fill:#ffffff;fill-opacity:1;fill-rule:evenodd;stroke:none" /><path
       d="m 658.25,318.45 9.75,0 0,11.55 -9.75,0 0,-11.55 z"
       inkscape:connector-curvature="0"
       id="path278"
       style="fill:none;stroke:#000000;stroke-width:0.14;stroke-linecap:round;stroke-linejoin:miter;stroke-miterlimit:8;stroke-opacity:1;stroke-dasharray:none" /><path
       d="m 672.05,318.45 9.8,0 0,11.55 -9.8,0 0,-11.55 z"
       inkscape:connector-curvature="0"
       id="path280"
       style="fill:#ffffff;fill-opacity:1;fill-rule:evenodd;stroke:none" /><path
       d="m 672.05,318.45 9.8,0 0,11.55 -9.8,0 0,-11.55 z"
       inkscape:connector-curvature="0"
       id="path282"
       style="fill:none;stroke:#000000;stroke-width:0.14;stroke-linecap:round;stroke-linejoin:miter;stroke-miterlimit:8;stroke-opacity:1;stroke-dasharray:none" /><path
       d="m 686.1,318.45 9.85,0 0,11.55 -9.85,0 0,-11.55 z"
       inkscape:connector-curvature="0"
       id="path284"
       style="fill:#ffffff;fill-opacity:1;fill-rule:evenodd;stroke:none" /><path
       d="m 686.1,318.45 9.85,0 0,11.55 -9.85,0 0,-11.55 z"
       inkscape:connector-curvature="0"
       id="path286"
       style="fill:none;stroke:#000000;stroke-width:0.14;stroke-linecap:round;stroke-linejoin:miter;stroke-miterlimit:8;stroke-opacity:1;stroke-dasharray:none" /><path
       d="m 699.4,318.45 9.85,0 0,11.55 -9.85,0 0,-11.55 z"
       inkscape:connector-curvature="0"
       id="path288"
       style="fill:#ffffff;fill-opacity:1;fill-rule:evenodd;stroke:none" /><path
       d="m 699.4,318.45 9.85,0 0,11.55 -9.85,0 0,-11.55 z"
       inkscape:connector-curvature="0"
       id="path290"
       style="fill:none;stroke:#000000;stroke-width:0.14;stroke-linecap:round;stroke-linejoin:miter;stroke-miterlimit:8;stroke-opacity:1;stroke-dasharray:none" /><path
       d="m 713.35,318.45 9.8,0 0,11.55 -9.8,0 0,-11.55 z"
       inkscape:connector-curvature="0"
       id="path292"
       style="fill:#ffffff;fill-opacity:1;fill-rule:evenodd;stroke:none" /><path
       d="m 713.35,318.45 9.8,0 0,11.55 -9.8,0 0,-11.55 z"
       inkscape:connector-curvature="0"
       id="path294"
       style="fill:none;stroke:#000000;stroke-width:0.14;stroke-linecap:round;stroke-linejoin:miter;stroke-miterlimit:8;stroke-opacity:1;stroke-dasharray:none" /><path
       d="m 726.6,318.45 9.85,0 0,11.55 -9.85,0 0,-11.55 z"
       inkscape:connector-curvature="0"
       id="path296"
       style="fill:#ffffff;fill-opacity:1;fill-rule:evenodd;stroke:none" /><path
       d="m 726.6,318.45 9.85,0 0,11.55 -9.85,0 0,-11.55 z"
       inkscape:connector-curvature="0"
       id="path298"
       style="fill:none;stroke:#000000;stroke-width:0.14;stroke-linecap:round;stroke-linejoin:miter;stroke-miterlimit:8;stroke-opacity:1;stroke-dasharray:none" /><path
       d="m 741.3,318.45 9.85,0 0,11.55 -9.85,0 0,-11.55 z"
       inkscape:connector-curvature="0"
       id="path300"
       style="fill:#ffffff;fill-opacity:1;fill-rule:evenodd;stroke:none" /><path
       d="m 741.3,318.45 9.85,0 0,11.55 -9.85,0 0,-11.55 z"
       inkscape:connector-curvature="0"
       id="path302"
       style="fill:none;stroke:#000000;stroke-width:0.14;stroke-linecap:round;stroke-linejoin:miter;stroke-miterlimit:8;stroke-opacity:1;stroke-dasharray:none" /><path
       d="m 735.12,420.85 c -14.04,0 -25.42,-6.97 -25.42,-15.57 0,-8.61 11.38,-15.58 25.42,-15.58 14.05,0 25.43,6.97 25.43,15.58 0,8.6 -11.38,15.57 -25.43,15.57 z"
       inkscape:connector-curvature="0"
       id="path304"
       style="fill:#ffffff;fill-opacity:1;fill-rule:evenodd;stroke:none" /><path
       d="m 735.12,420.85 c -14.04,0 -25.42,-6.97 -25.42,-15.57 0,-8.61 11.38,-15.58 25.42,-15.58 14.05,0 25.43,6.97 25.43,15.58 0,8.6 -11.38,15.57 -25.43,15.57 z"
       inkscape:connector-curvature="0"
       id="path306"
       style="fill:none;stroke:#000000;stroke-width:0.14;stroke-linecap:round;stroke-linejoin:round;stroke-miterlimit:8;stroke-opacity:1;stroke-dasharray:none" /><path
       d="m 735.12,420.85 c -14.04,0 -25.42,-6.97 -25.42,-15.57 0,-8.61 11.38,-15.58 25.42,-15.58 14.05,0 25.43,6.97 25.43,15.58 0,8.6 -11.38,15.57 -25.43,15.57 z"
       inkscape:connector-curvature="0"
       id="path308"
       style="fill:none;stroke:#000000;stroke-width:0.14;stroke-linecap:round;stroke-linejoin:round;stroke-miterlimit:8;stroke-opacity:1;stroke-dasharray:none" /><path
       d="m 735.12,420.85 c -14.04,0 -25.42,-6.97 -25.42,-15.57 0,-8.61 11.38,-15.58 25.42,-15.58 14.05,0 25.43,6.97 25.43,15.58 0,8.6 -11.38,15.57 -25.43,15.57 z"
       inkscape:connector-curvature="0"
       id="path310"
       style="fill:none;stroke:#000000;stroke-width:0.14;stroke-linecap:round;stroke-linejoin:round;stroke-miterlimit:8;stroke-opacity:1;stroke-dasharray:none" /><path
       d="m 678.45,420.85 c -14.19,0 -25.7,-6.97 -25.7,-15.57 0,-8.61 11.51,-15.58 25.7,-15.58 14.19,0 25.7,6.97 25.7,15.58 0,8.6 -11.51,15.57 -25.7,15.57 z"
       inkscape:connector-curvature="0"
       id="path312"
       style="fill:#ffffff;fill-opacity:1;fill-rule:evenodd;stroke:none" /><path
       d="m 678.45,420.85 c -14.19,0 -25.7,-6.97 -25.7,-15.57 0,-8.61 11.51,-15.58 25.7,-15.58 14.19,0 25.7,6.97 25.7,15.58 0,8.6 -11.51,15.57 -25.7,15.57 z"
       inkscape:connector-curvature="0"
       id="path314"
       style="fill:none;stroke:#000000;stroke-width:0.14;stroke-linecap:round;stroke-linejoin:round;stroke-miterlimit:8;stroke-opacity:1;stroke-dasharray:none" /><path
       d="m 678.45,420.85 c -14.19,0 -25.7,-6.97 -25.7,-15.57 0,-8.61 11.51,-15.58 25.7,-15.58 14.19,0 25.7,6.97 25.7,15.58 0,8.6 -11.51,15.57 -25.7,15.57 z"
       inkscape:connector-curvature="0"
       id="path316"
       style="fill:none;stroke:#000000;stroke-width:0.14;stroke-linecap:round;stroke-linejoin:round;stroke-miterlimit:8;stroke-opacity:1;stroke-dasharray:none" /><path
       d="m 678.45,420.85 c -14.19,0 -25.7,-6.97 -25.7,-15.57 0,-8.61 11.51,-15.58 25.7,-15.58 14.19,0 25.7,6.97 25.7,15.58 0,8.6 -11.51,15.57 -25.7,15.57 z"
       inkscape:connector-curvature="0"
       id="path318"
       style="fill:none;stroke:#000000;stroke-width:0.14;stroke-linecap:round;stroke-linejoin:round;stroke-miterlimit:8;stroke-opacity:1;stroke-dasharray:none" /><path
       d="m 608.23,420.85 c -20.98,0 -37.98,-6.97 -37.98,-15.57 0,-8.61 17,-15.58 37.98,-15.58 20.97,0 37.97,6.97 37.97,15.58 0,8.6 -17,15.57 -37.97,15.57 z"
       inkscape:connector-curvature="0"
       id="path320"
       style="fill:#ffffff;fill-opacity:1;fill-rule:evenodd;stroke:none" /><path
       d="m 608.23,420.85 c -20.98,0 -37.98,-6.97 -37.98,-15.57 0,-8.61 17,-15.58 37.98,-15.58 20.97,0 37.97,6.97 37.97,15.58 0,8.6 -17,15.57 -37.97,15.57 z"
       inkscape:connector-curvature="0"
       id="path322"
       style="fill:none;stroke:#000000;stroke-width:0.14;stroke-linecap:round;stroke-linejoin:round;stroke-miterlimit:8;stroke-opacity:1;stroke-dasharray:none" /><path
       d="m 608.23,420.85 c -20.98,0 -37.98,-6.97 -37.98,-15.57 0,-8.61 17,-15.58 37.98,-15.58 20.97,0 37.97,6.97 37.97,15.58 0,8.6 -17,15.57 -37.97,15.57 z"
       inkscape:connector-curvature="0"
       id="path324"
       style="fill:none;stroke:#000000;stroke-width:0.14;stroke-linecap:round;stroke-linejoin:round;stroke-miterlimit:8;stroke-opacity:1;stroke-dasharray:none" /><path
       d="m 608.23,420.85 c -20.98,0 -37.98,-6.97 -37.98,-15.57 0,-8.61 17,-15.58 37.98,-15.58 20.97,0 37.97,6.97 37.97,15.58 0,8.6 -17,15.57 -37.97,15.57 z"
       inkscape:connector-curvature="0"
       id="path326"
       style="fill:none;stroke:#000000;stroke-width:0.14;stroke-linecap:round;stroke-linejoin:round;stroke-miterlimit:8;stroke-opacity:1;stroke-dasharray:none" /><g
       id="g328"><g
         clip-path="url(#clipPath332)"
         id="g330"><g
           id="g336"><g
             clip-path="url(#clipPath340)"
             id="g338"><text
   transform="matrix(1,0,0,-1,531.43,427.73)"
   id="text344"><tspan
     x="0 8.2966805 10.43808 16.065479 21.603239 23.8542 29.4816 36.56316 42.100922 45.417599"
     y="0"
     id="tspan346"
     style="font-size:9.96000004px;font-variant:normal;font-weight:normal;writing-mode:lr-tb;fill:#000000;fill-opacity:1;fill-rule:nonzero;stroke:none;font-family:Helvetica;-inkscape-font-specification:Helvetica">Middleware</tspan></text>

</g></g><g
           id="g348"><g
             clip-path="url(#clipPath352)"
             id="g350" /></g></g></g><path
       d="m 589.42,333.7 0.33,19.47 c 0.01,0.34 0.28,0.61 0.62,0.61 0.34,-0.01 0.61,-0.29 0.6,-0.63 l -0.31,-19.48 c -0.01,-0.33 -0.28,-0.61 -0.62,-0.6 -0.34,0 -0.62,0.29 -0.62,0.63 z m 3.11,1.18 -2.55,-4.88 -2.38,4.95 4.93,-0.07 z m -4.65,17.09 2.54,4.88 2.38,-4.96 -4.92,0.08 z"
       inkscape:connector-curvature="0"
       id="path356"
       style="fill:#000000;fill-opacity:1;fill-rule:evenodd;stroke:none" /><path
       d="m 589.42,333.7 0.33,19.47 c 0.01,0.34 0.28,0.61 0.62,0.61 0.34,-0.01 0.61,-0.29 0.6,-0.63 l -0.31,-19.48 c -0.01,-0.33 -0.28,-0.61 -0.62,-0.6 -0.34,0 -0.62,0.29 -0.62,0.63 z m 3.11,1.18 -2.55,-4.88 -2.38,4.95 4.93,-0.07 z m -4.65,17.09 2.54,4.88 2.38,-4.96 -4.92,0.08 z"
       inkscape:connector-curvature="0"
       id="path358"
       style="fill:none;stroke:#000000;stroke-width:0.14;stroke-linecap:round;stroke-linejoin:round;stroke-miterlimit:8;stroke-opacity:1;stroke-dasharray:none" /><path
       d="m 589.39,333.7 0.33,19.47 c 0.01,0.34 0.28,0.61 0.63,0.61 0.34,-0.01 0.62,-0.29 0.61,-0.63 l -0.32,-19.48 c -0.01,-0.33 -0.28,-0.61 -0.63,-0.6 -0.34,0 -0.62,0.29 -0.62,0.63 z m 3.14,1.18 -2.57,-4.88 -2.41,4.95 4.98,-0.07 z m -4.7,17.09 2.56,4.88 2.41,-4.96 -4.97,0.08 z"
       inkscape:connector-curvature="0"
       id="path360"
       style="fill:none;stroke:#000000;stroke-width:0.14;stroke-linecap:round;stroke-linejoin:round;stroke-miterlimit:8;stroke-opacity:1;stroke-dasharray:none" /><path
       d="m 603.67,333.68 0,19.09 c 0,0.34 0.27,0.61 0.61,0.61 0.34,0 0.6,-0.27 0.6,-0.61 l 0,-19.09 c 0,-0.34 -0.26,-0.61 -0.6,-0.61 -0.34,0 -0.61,0.27 -0.61,0.61 z m 3.03,1.23 -2.42,-4.91 -2.43,4.91 4.85,0 z m -4.85,16.63 2.43,4.91 2.42,-4.91 -4.85,0 z"
       inkscape:connector-curvature="0"
       id="path362"
       style="fill:#000000;fill-opacity:1;fill-rule:evenodd;stroke:none" /><path
       d="m 603.67,333.68 0,19.09 c 0,0.34 0.27,0.61 0.61,0.61 0.34,0 0.6,-0.27 0.6,-0.61 l 0,-19.09 c 0,-0.34 -0.26,-0.61 -0.6,-0.61 -0.34,0 -0.61,0.27 -0.61,0.61 z m 3.03,1.23 -2.42,-4.91 -2.43,4.91 4.85,0 z m -4.85,16.63 2.43,4.91 2.42,-4.91 -4.85,0 z"
       inkscape:connector-curvature="0"
       id="path364"
       style="fill:none;stroke:#000000;stroke-width:0.14;stroke-linecap:round;stroke-linejoin:round;stroke-miterlimit:8;stroke-opacity:1;stroke-dasharray:none" /><path
       d="m 603.67,333.68 0,19.09 c 0,0.34 0.27,0.61 0.61,0.61 0.34,0 0.6,-0.27 0.6,-0.61 l 0,-19.09 c 0,-0.34 -0.26,-0.61 -0.6,-0.61 -0.34,0 -0.61,0.27 -0.61,0.61 z m 3.03,1.23 -2.42,-4.91 -2.43,4.91 4.85,0 z m -4.85,16.63 2.43,4.91 2.42,-4.91 -4.85,0 z"
       inkscape:connector-curvature="0"
       id="path366"
       style="fill:none;stroke:#000000;stroke-width:0.14;stroke-linecap:round;stroke-linejoin:round;stroke-miterlimit:8;stroke-opacity:1;stroke-dasharray:none" /><path
       d="m 632.02,334.04 0,19.12 c 0,0.34 0.27,0.62 0.61,0.62 0.33,0 0.6,-0.28 0.6,-0.62 l 0,-19.12 c 0,-0.34 -0.27,-0.62 -0.6,-0.62 -0.34,0 -0.61,0.28 -0.61,0.62 z m 3.03,1.23 -2.42,-4.92 -2.43,4.92 4.85,0 z m -4.85,16.66 2.43,4.92 2.42,-4.92 -4.85,0 z"
       inkscape:connector-curvature="0"
       id="path368"
       style="fill:#000000;fill-opacity:1;fill-rule:evenodd;stroke:none" /><path
       d="m 632.02,334.04 0,19.12 c 0,0.34 0.27,0.62 0.61,0.62 0.33,0 0.6,-0.28 0.6,-0.62 l 0,-19.12 c 0,-0.34 -0.27,-0.62 -0.6,-0.62 -0.34,0 -0.61,0.28 -0.61,0.62 z m 3.03,1.23 -2.42,-4.92 -2.43,4.92 4.85,0 z m -4.85,16.66 2.43,4.92 2.42,-4.92 -4.85,0 z"
       inkscape:connector-curvature="0"
       id="path370"
       style="fill:none;stroke:#000000;stroke-width:0.14;stroke-linecap:round;stroke-linejoin:round;stroke-miterlimit:8;stroke-opacity:1;stroke-dasharray:none" /><path
       d="m 632.02,334.04 0,19.12 c 0,0.34 0.27,0.62 0.61,0.62 0.33,0 0.6,-0.28 0.6,-0.62 l 0,-19.12 c 0,-0.34 -0.27,-0.62 -0.6,-0.62 -0.34,0 -0.61,0.28 -0.61,0.62 z m 3.03,1.23 -2.42,-4.92 -2.43,4.92 4.85,0 z m -4.85,16.66 2.43,4.92 2.42,-4.92 -4.85,0 z"
       inkscape:connector-curvature="0"
       id="path372"
       style="fill:none;stroke:#000000;stroke-width:0.14;stroke-linecap:round;stroke-linejoin:round;stroke-miterlimit:8;stroke-opacity:1;stroke-dasharray:none" /><path
       d="m 676.36,334.09 0,19.12 c 0,0.33 0.28,0.61 0.61,0.61 0.35,0 0.63,-0.28 0.63,-0.61 l 0,-19.12 c 0,-0.34 -0.28,-0.61 -0.63,-0.61 -0.33,0 -0.61,0.27 -0.61,0.61 z m 3.09,1.23 -2.48,-4.92 -2.47,4.92 4.95,0 z m -4.95,16.66 2.47,4.92 2.48,-4.92 -4.95,0 z"
       inkscape:connector-curvature="0"
       id="path374"
       style="fill:#000000;fill-opacity:1;fill-rule:evenodd;stroke:none" /><path
       d="m 676.36,334.09 0,19.12 c 0,0.33 0.28,0.61 0.61,0.61 0.35,0 0.63,-0.28 0.63,-0.61 l 0,-19.12 c 0,-0.34 -0.28,-0.61 -0.63,-0.61 -0.33,0 -0.61,0.27 -0.61,0.61 z m 3.09,1.23 -2.48,-4.92 -2.47,4.92 4.95,0 z m -4.95,16.66 2.47,4.92 2.48,-4.92 -4.95,0 z"
       inkscape:connector-curvature="0"
       id="path376"
       style="fill:none;stroke:#000000;stroke-width:0.14;stroke-linecap:round;stroke-linejoin:round;stroke-miterlimit:8;stroke-opacity:1;stroke-dasharray:none" /><path
       d="m 676.36,334.09 0,19.12 c 0,0.33 0.28,0.61 0.61,0.61 0.35,0 0.63,-0.28 0.63,-0.61 l 0,-19.12 c 0,-0.34 -0.28,-0.61 -0.63,-0.61 -0.33,0 -0.61,0.27 -0.61,0.61 z m 3.09,1.23 -2.48,-4.92 -2.47,4.92 4.95,0 z m -4.95,16.66 2.47,4.92 2.48,-4.92 -4.95,0 z"
       inkscape:connector-curvature="0"
       id="path378"
       style="fill:none;stroke:#000000;stroke-width:0.14;stroke-linecap:round;stroke-linejoin:round;stroke-miterlimit:8;stroke-opacity:1;stroke-dasharray:none" /><path
       d="m 730.91,333.88 0,19.09 c 0,0.34 0.28,0.61 0.62,0.61 0.35,0 0.62,-0.27 0.62,-0.61 l 0,-19.09 c 0,-0.34 -0.27,-0.61 -0.62,-0.61 -0.34,0 -0.62,0.27 -0.62,0.61 z m 3.09,1.23 -2.47,-4.91 -2.48,4.91 4.95,0 z m -4.95,16.63 2.48,4.91 2.47,-4.91 -4.95,0 z"
       inkscape:connector-curvature="0"
       id="path380"
       style="fill:#000000;fill-opacity:1;fill-rule:evenodd;stroke:none" /><path
       d="m 730.91,333.88 0,19.09 c 0,0.34 0.28,0.61 0.62,0.61 0.35,0 0.62,-0.27 0.62,-0.61 l 0,-19.09 c 0,-0.34 -0.27,-0.61 -0.62,-0.61 -0.34,0 -0.62,0.27 -0.62,0.61 z m 3.09,1.23 -2.47,-4.91 -2.48,4.91 4.95,0 z m -4.95,16.63 2.48,4.91 2.47,-4.91 -4.95,0 z"
       inkscape:connector-curvature="0"
       id="path382"
       style="fill:none;stroke:#000000;stroke-width:0.14;stroke-linecap:round;stroke-linejoin:round;stroke-miterlimit:8;stroke-opacity:1;stroke-dasharray:none" /><path
       d="m 730.91,333.88 0,19.09 c 0,0.34 0.28,0.61 0.62,0.61 0.35,0 0.62,-0.27 0.62,-0.61 l 0,-19.09 c 0,-0.34 -0.27,-0.61 -0.62,-0.61 -0.34,0 -0.62,0.27 -0.62,0.61 z m 3.09,1.23 -2.47,-4.91 -2.48,4.91 4.95,0 z m -4.95,16.63 2.48,4.91 2.47,-4.91 -4.95,0 z"
       inkscape:connector-curvature="0"
       id="path384"
       style="fill:none;stroke:#000000;stroke-width:0.14;stroke-linecap:round;stroke-linejoin:round;stroke-miterlimit:8;stroke-opacity:1;stroke-dasharray:none" /><g
       id="g386"><g
         clip-path="url(#clipPath390)"
         id="g388"><g
           id="g394"><g
             clip-path="url(#clipPath398)"
             id="g396"><text
   transform="matrix(1,0,0,-1,497.47,405.05)"
   id="text402"><tspan
     x="0 7.1911201 13.30656 22.160999 28.29636 34.40184 39.939602 42.708481 46.025162"
     y="0"
     id="tspan404"
     style="font-size:9.96000004px;font-variant:normal;font-weight:bold;writing-mode:lr-tb;fill:#000000;fill-opacity:1;fill-rule:nonzero;stroke:none;font-family:Helvetica;-inkscape-font-specification:Helvetica-Bold">Composite</tspan></text>

</g></g><g
           id="g406"><g
             clip-path="url(#clipPath410)"
             id="g408" /></g><g
           id="g414"><g
             clip-path="url(#clipPath418)"
             id="g416"><text
   transform="matrix(1,0,0,-1,497.47,393.53)"
   id="text422"><tspan
     x="0 6.6034799 12.14124 15.96588 21.593281 24.36216 29.979601 35.517361"
     y="0"
     id="tspan424"
     style="font-size:9.96000004px;font-variant:normal;font-weight:bold;writing-mode:lr-tb;fill:#000000;fill-opacity:1;fill-rule:nonzero;stroke:none;font-family:Helvetica;-inkscape-font-specification:Helvetica-Bold">Services</tspan></text>

</g></g><g
           id="g426"><g
             clip-path="url(#clipPath430)"
             id="g428" /></g></g></g><path
       d="m 730.91,374.54 0.05,12.22 c 0,0.28 0.28,0.51 0.62,0.51 0.33,0 0.61,-0.24 0.61,-0.52 l -0.04,-12.21 c -0.01,-0.29 -0.28,-0.52 -0.62,-0.51 -0.34,0 -0.62,0.23 -0.62,0.51 z m 3.1,1.04 -2.49,-4.18 -2.47,4.19 4.96,-0.01 z m -4.93,10.13 2.5,4.19 2.47,-4.21 -4.97,0.02 z"
       inkscape:connector-curvature="0"
       id="path434"
       style="fill:#000000;fill-opacity:1;fill-rule:evenodd;stroke:none" /><path
       d="m 730.91,374.54 0.05,12.22 c 0,0.28 0.28,0.51 0.62,0.51 0.33,0 0.61,-0.24 0.61,-0.52 l -0.04,-12.21 c -0.01,-0.29 -0.28,-0.52 -0.62,-0.51 -0.34,0 -0.62,0.23 -0.62,0.51 z m 3.1,1.04 -2.49,-4.18 -2.47,4.19 4.96,-0.01 z m -4.93,10.13 2.5,4.19 2.47,-4.21 -4.97,0.02 z"
       inkscape:connector-curvature="0"
       id="path436"
       style="fill:none;stroke:#000000;stroke-width:0.14;stroke-linecap:round;stroke-linejoin:round;stroke-miterlimit:8;stroke-opacity:1;stroke-dasharray:none" /><path
       d="m 730.91,374.54 0.05,12.22 c 0,0.28 0.28,0.51 0.62,0.51 0.33,0 0.61,-0.24 0.61,-0.52 l -0.04,-12.21 c -0.01,-0.29 -0.28,-0.52 -0.62,-0.51 -0.34,0 -0.62,0.23 -0.62,0.51 z m 3.1,1.04 -2.49,-4.18 -2.47,4.19 4.96,-0.01 z m -4.93,10.13 2.5,4.19 2.47,-4.21 -4.97,0.02 z"
       inkscape:connector-curvature="0"
       id="path438"
       style="fill:none;stroke:#000000;stroke-width:0.14;stroke-linecap:round;stroke-linejoin:round;stroke-miterlimit:8;stroke-opacity:1;stroke-dasharray:none" /><path
       d="m 676.36,373.98 0,12.59 c 0,0.3 0.28,0.54 0.61,0.54 0.35,0 0.63,-0.24 0.63,-0.54 l 0,-12.59 c 0,-0.31 -0.28,-0.55 -0.63,-0.55 -0.33,0 -0.61,0.24 -0.61,0.55 z m 3.09,1.11 -2.48,-4.44 -2.47,4.44 4.95,0 z m -4.95,10.36 2.47,4.45 2.48,-4.45 -4.95,0 z"
       inkscape:connector-curvature="0"
       id="path440"
       style="fill:#000000;fill-opacity:1;fill-rule:evenodd;stroke:none" /><path
       d="m 676.36,373.98 0,12.59 c 0,0.3 0.28,0.54 0.61,0.54 0.35,0 0.63,-0.24 0.63,-0.54 l 0,-12.59 c 0,-0.31 -0.28,-0.55 -0.63,-0.55 -0.33,0 -0.61,0.24 -0.61,0.55 z m 3.09,1.11 -2.48,-4.44 -2.47,4.44 4.95,0 z m -4.95,10.36 2.47,4.45 2.48,-4.45 -4.95,0 z"
       inkscape:connector-curvature="0"
       id="path442"
       style="fill:none;stroke:#000000;stroke-width:0.14;stroke-linecap:round;stroke-linejoin:round;stroke-miterlimit:8;stroke-opacity:1;stroke-dasharray:none" /><path
       d="m 676.36,373.98 0,12.59 c 0,0.3 0.28,0.54 0.61,0.54 0.35,0 0.63,-0.24 0.63,-0.54 l 0,-12.59 c 0,-0.31 -0.28,-0.55 -0.63,-0.55 -0.33,0 -0.61,0.24 -0.61,0.55 z m 3.09,1.11 -2.48,-4.44 -2.47,4.44 4.95,0 z m -4.95,10.36 2.47,4.45 2.48,-4.45 -4.95,0 z"
       inkscape:connector-curvature="0"
       id="path444"
       style="fill:none;stroke:#000000;stroke-width:0.14;stroke-linecap:round;stroke-linejoin:round;stroke-miterlimit:8;stroke-opacity:1;stroke-dasharray:none" /><path
       d="m 631.76,372.07 -0.41,18.71 c -0.01,0.25 0.26,0.39 0.59,0.34 0.33,-0.06 0.59,-0.3 0.6,-0.54 l 0.41,-18.71 c 0,-0.24 -0.27,-0.39 -0.59,-0.34 -0.33,0.06 -0.6,0.3 -0.6,0.54 z m 2.94,0.37 -2.3,-3.09 -2.44,3.9 4.74,-0.81 z m -5.1,17.77 2.29,3.09 2.45,-3.9 -4.74,0.81 z"
       inkscape:connector-curvature="0"
       id="path446"
       style="fill:#000000;fill-opacity:1;fill-rule:evenodd;stroke:none" /><path
       d="m 631.76,372.07 -0.41,18.71 c -0.01,0.25 0.26,0.39 0.59,0.34 0.33,-0.06 0.59,-0.3 0.6,-0.54 l 0.41,-18.71 c 0,-0.24 -0.27,-0.39 -0.59,-0.34 -0.33,0.06 -0.6,0.3 -0.6,0.54 z m 2.94,0.37 -2.3,-3.09 -2.44,3.9 4.74,-0.81 z m -5.1,17.77 2.29,3.09 2.45,-3.9 -4.74,0.81 z"
       inkscape:connector-curvature="0"
       id="path448"
       style="fill:none;stroke:#000000;stroke-width:0.14;stroke-linecap:round;stroke-linejoin:round;stroke-miterlimit:8;stroke-opacity:1;stroke-dasharray:none" /><path
       d="m 631.76,372.07 -0.41,18.71 c -0.01,0.25 0.26,0.39 0.59,0.34 0.33,-0.06 0.59,-0.3 0.6,-0.54 l 0.41,-18.71 c 0,-0.24 -0.27,-0.39 -0.59,-0.34 -0.33,0.06 -0.6,0.3 -0.6,0.54 z m 2.94,0.37 -2.3,-3.09 -2.44,3.9 4.74,-0.81 z m -5.1,17.77 2.29,3.09 2.45,-3.9 -4.74,0.81 z"
       inkscape:connector-curvature="0"
       id="path450"
       style="fill:none;stroke:#000000;stroke-width:0.14;stroke-linecap:round;stroke-linejoin:round;stroke-miterlimit:8;stroke-opacity:1;stroke-dasharray:none" /><path
       d="m 603.93,372.84 0,14.07 c 0,0.22 0.32,0.4 0.7,0.4 0.39,0 0.69,-0.18 0.69,-0.4 l 0,-14.07 c 0,-0.23 -0.3,-0.4 -0.69,-0.4 -0.38,0 -0.7,0.17 -0.7,0.4 z m 3.47,0.8 -2.77,-3.19 -2.78,3.19 5.55,0 z m -5.55,12.47 2.78,3.19 2.77,-3.19 -5.55,0 z"
       inkscape:connector-curvature="0"
       id="path452"
       style="fill:#000000;fill-opacity:1;fill-rule:evenodd;stroke:none" /><path
       d="m 603.93,372.84 0,14.07 c 0,0.22 0.32,0.4 0.7,0.4 0.39,0 0.69,-0.18 0.69,-0.4 l 0,-14.07 c 0,-0.23 -0.3,-0.4 -0.69,-0.4 -0.38,0 -0.7,0.17 -0.7,0.4 z m 3.47,0.8 -2.77,-3.19 -2.78,3.19 5.55,0 z m -5.55,12.47 2.78,3.19 2.77,-3.19 -5.55,0 z"
       inkscape:connector-curvature="0"
       id="path454"
       style="fill:none;stroke:#000000;stroke-width:0.14;stroke-linecap:round;stroke-linejoin:round;stroke-miterlimit:8;stroke-opacity:1;stroke-dasharray:none" /><path
       d="m 603.93,372.84 0,14.11 c 0,0.22 0.32,0.41 0.7,0.41 0.39,0 0.69,-0.19 0.69,-0.41 l 0,-14.11 c 0,-0.22 -0.3,-0.4 -0.69,-0.4 -0.38,0 -0.7,0.18 -0.7,0.4 z m 3.47,0.8 -2.77,-3.19 -2.78,3.19 5.55,0 z m -5.55,12.52 2.78,3.19 2.77,-3.19 -5.55,0 z"
       inkscape:connector-curvature="0"
       id="path456"
       style="fill:none;stroke:#000000;stroke-width:0.14;stroke-linecap:round;stroke-linejoin:round;stroke-miterlimit:8;stroke-opacity:1;stroke-dasharray:none" /><path
       d="m 589.83,371.55 0,16.15 c 0,0.25 0.25,0.46 0.55,0.46 0.3,0 0.54,-0.21 0.54,-0.46 l 0,-16.15 c 0,-0.26 -0.24,-0.46 -0.54,-0.46 -0.3,0 -0.55,0.2 -0.55,0.46 z m 2.72,0.91 -2.17,-3.66 -2.18,3.66 4.35,0 z m -4.35,14.33 2.18,3.66 2.17,-3.66 -4.35,0 z"
       inkscape:connector-curvature="0"
       id="path458"
       style="fill:#000000;fill-opacity:1;fill-rule:evenodd;stroke:none" /><path
       d="m 589.83,371.55 0,16.15 c 0,0.25 0.25,0.46 0.55,0.46 0.3,0 0.54,-0.21 0.54,-0.46 l 0,-16.15 c 0,-0.26 -0.24,-0.46 -0.54,-0.46 -0.3,0 -0.55,0.2 -0.55,0.46 z m 2.72,0.91 -2.17,-3.66 -2.18,3.66 4.35,0 z m -4.35,14.33 2.18,3.66 2.17,-3.66 -4.35,0 z"
       inkscape:connector-curvature="0"
       id="path460"
       style="fill:none;stroke:#000000;stroke-width:0.14;stroke-linecap:round;stroke-linejoin:round;stroke-miterlimit:8;stroke-opacity:1;stroke-dasharray:none" /><path
       d="m 589.83,371.55 0,16.15 c 0,0.25 0.25,0.46 0.55,0.46 0.3,0 0.54,-0.21 0.54,-0.46 l 0,-16.15 c 0,-0.26 -0.24,-0.46 -0.54,-0.46 -0.3,0 -0.55,0.2 -0.55,0.46 z m 2.72,0.91 -2.17,-3.66 -2.18,3.66 4.35,0 z m -4.35,14.33 2.18,3.66 2.17,-3.66 -4.35,0 z"
       inkscape:connector-curvature="0"
       id="path462"
       style="fill:none;stroke:#000000;stroke-width:0.14;stroke-linecap:round;stroke-linejoin:round;stroke-miterlimit:8;stroke-opacity:1;stroke-dasharray:none" /><path
       d="m 609.8,450.3 0,0 c 0.01,-0.4 -0.3,-0.73 -0.68,-0.74 -0.38,0 -0.69,0.32 -0.69,0.73 0,0.41 0.3,0.74 0.68,0.74 0.38,0 0.69,-0.32 0.69,-0.73 z m 0.03,-2.94 0,0 c 0.01,-0.4 -0.3,-0.73 -0.68,-0.73 -0.38,-0.01 -0.69,0.32 -0.69,0.72 0,0.41 0.3,0.74 0.68,0.74 0.38,0 0.69,-0.32 0.69,-0.73 z m 0.03,-2.93 0,0 c 0.01,-0.41 -0.29,-0.73 -0.67,-0.73 -0.39,0 -0.7,0.31 -0.7,0.72 0,0.41 0.3,0.73 0.68,0.73 0.39,0.02 0.69,-0.31 0.69,-0.72 z m 0.03,-2.93 0,0 c 0.01,-0.41 -0.3,-0.74 -0.68,-0.74 -0.38,0 -0.69,0.32 -0.69,0.73 0,0.4 0.3,0.73 0.68,0.74 0.38,0 0.69,-0.33 0.69,-0.73 z m 0.04,-2.92 0,-0.02 c 0.01,-0.39 -0.31,-0.72 -0.69,-0.73 -0.38,0 -0.68,0.32 -0.68,0.72 l 0,0.01 c 0,0.39 0.29,0.72 0.67,0.73 0.38,0 0.7,-0.32 0.7,-0.71 z m 0.02,-2.94 0,0 c 0.01,-0.41 -0.29,-0.74 -0.67,-0.74 -0.39,-0.01 -0.7,0.32 -0.7,0.73 0,0.4 0.3,0.73 0.68,0.73 0.39,0 0.69,-0.32 0.69,-0.72 z m 0.03,-2.93 0,0 c 0.01,-0.42 -0.29,-0.74 -0.67,-0.74 -0.38,-0.02 -0.7,0.31 -0.7,0.72 0,0.4 0.31,0.74 0.69,0.74 0.38,0 0.68,-0.32 0.68,-0.72 z m 0.04,-2.94 0,0 c 0.01,-0.41 -0.31,-0.74 -0.69,-0.74 -0.38,0 -0.68,0.32 -0.68,0.73 0,0.41 0.3,0.74 0.67,0.74 0.38,0.01 0.7,-0.33 0.7,-0.73 z m 0.03,-2.94 0,0 c 0.01,-0.4 -0.3,-0.74 -0.68,-0.74 -0.39,0 -0.69,0.34 -0.69,0.73 0,0.41 0.29,0.74 0.67,0.75 0.39,0 0.7,-0.33 0.7,-0.74 z m 0.03,-2.92 0,0 c 0,-0.41 -0.3,-0.74 -0.68,-0.75 -0.38,0 -0.7,0.34 -0.7,0.74 0,0.4 0.31,0.74 0.69,0.74 0.38,0 0.69,-0.33 0.69,-0.73 z m 0.03,-2.94 0,0 c 0.01,-0.4 -0.3,-0.74 -0.68,-0.74 -0.38,0 -0.69,0.33 -0.69,0.73 0,0.41 0.3,0.74 0.68,0.74 0.38,0 0.69,-0.31 0.69,-0.73 z m 0.03,-2.93 0,0 c 0.01,-0.4 -0.3,-0.73 -0.68,-0.73 -0.39,0 -0.69,0.31 -0.69,0.72 0,0.41 0.3,0.74 0.68,0.74 0.38,0.01 0.69,-0.32 0.69,-0.73 z m 0.03,-2.94 0,0 c 0.01,-0.4 -0.3,-0.73 -0.68,-0.73 -0.38,0 -0.69,0.32 -0.69,0.72 0,0.41 0.3,0.74 0.68,0.74 0.38,0.01 0.69,-0.32 0.69,-0.73 z m 0.03,-2.92 0,-0.01 c 0.01,-0.39 -0.3,-0.72 -0.68,-0.73 -0.38,0 -0.69,0.32 -0.69,0.72 l 0,0.01 c 0,0.4 0.3,0.72 0.68,0.74 0.38,0 0.69,-0.33 0.69,-0.73 z m -5.05,29.55 3.95,10.47 4.17,-10.37 c 0.15,-0.37 -0.01,-0.8 -0.36,-0.96 -0.34,-0.17 -0.75,0.01 -0.9,0.39 l -3.52,8.75 1.27,0.01 -3.34,-8.83 c -0.14,-0.39 -0.54,-0.56 -0.89,-0.41 -0.36,0.14 -0.53,0.58 -0.38,0.95 z m 8.36,-22.67 -3.95,-10.46 -4.17,10.36 c -0.16,0.38 0.01,0.8 0.35,0.97 0.35,0.16 0.76,-0.01 0.9,-0.39 l 3.53,-8.74 -1.26,-0.03 3.33,8.84 c 0.14,0.38 0.54,0.55 0.89,0.41 0.35,-0.15 0.52,-0.59 0.38,-0.96 z"
       inkscape:connector-curvature="0"
       id="path464"
       style="fill:#7f7f7f;fill-opacity:1;fill-rule:evenodd;stroke:none" /><path
       d="m 609.8,450.3 0,0 c 0.01,-0.4 -0.3,-0.73 -0.68,-0.74 -0.38,0 -0.69,0.32 -0.69,0.73 0,0.41 0.3,0.74 0.68,0.74 0.38,0 0.69,-0.32 0.69,-0.73 z m 0.03,-2.94 0,0 c 0.01,-0.4 -0.3,-0.73 -0.68,-0.73 -0.38,-0.01 -0.69,0.32 -0.69,0.72 0,0.41 0.3,0.74 0.68,0.74 0.38,0 0.69,-0.32 0.69,-0.73 z m 0.03,-2.93 0,0 c 0.01,-0.41 -0.29,-0.73 -0.67,-0.73 -0.39,0 -0.7,0.31 -0.7,0.72 0,0.41 0.3,0.73 0.68,0.73 0.39,0.02 0.69,-0.31 0.69,-0.72 z m 0.03,-2.93 0,0 c 0.01,-0.41 -0.3,-0.74 -0.68,-0.74 -0.38,0 -0.69,0.32 -0.69,0.73 0,0.4 0.3,0.73 0.68,0.74 0.38,0 0.69,-0.33 0.69,-0.73 z m 0.04,-2.92 0,-0.02 c 0.01,-0.39 -0.31,-0.72 -0.69,-0.73 -0.38,0 -0.68,0.32 -0.68,0.72 l 0,0.01 c 0,0.39 0.29,0.72 0.67,0.73 0.38,0 0.7,-0.32 0.7,-0.71 z m 0.02,-2.94 0,0 c 0.01,-0.41 -0.29,-0.74 -0.67,-0.74 -0.39,-0.01 -0.7,0.32 -0.7,0.73 0,0.4 0.3,0.73 0.68,0.73 0.39,0 0.69,-0.32 0.69,-0.72 z m 0.03,-2.93 0,0 c 0.01,-0.42 -0.29,-0.74 -0.67,-0.74 -0.38,-0.02 -0.7,0.31 -0.7,0.72 0,0.4 0.31,0.74 0.69,0.74 0.38,0 0.68,-0.32 0.68,-0.72 z m 0.04,-2.94 0,0 c 0.01,-0.41 -0.31,-0.74 -0.69,-0.74 -0.38,0 -0.68,0.32 -0.68,0.73 0,0.41 0.3,0.74 0.67,0.74 0.38,0.01 0.7,-0.33 0.7,-0.73 z m 0.03,-2.94 0,0 c 0.01,-0.4 -0.3,-0.74 -0.68,-0.74 -0.39,0 -0.69,0.34 -0.69,0.73 0,0.41 0.29,0.74 0.67,0.75 0.39,0 0.7,-0.33 0.7,-0.74 z m 0.03,-2.92 0,0 c 0,-0.41 -0.3,-0.74 -0.68,-0.75 -0.38,0 -0.7,0.34 -0.7,0.74 0,0.4 0.31,0.74 0.69,0.74 0.38,0 0.69,-0.33 0.69,-0.73 z m 0.03,-2.94 0,0 c 0.01,-0.4 -0.3,-0.74 -0.68,-0.74 -0.38,0 -0.69,0.33 -0.69,0.73 0,0.41 0.3,0.74 0.68,0.74 0.38,0 0.69,-0.31 0.69,-0.73 z m 0.03,-2.93 0,0 c 0.01,-0.4 -0.3,-0.73 -0.68,-0.73 -0.39,0 -0.69,0.31 -0.69,0.72 0,0.41 0.3,0.74 0.68,0.74 0.38,0.01 0.69,-0.32 0.69,-0.73 z m 0.03,-2.94 0,0 c 0.01,-0.4 -0.3,-0.73 -0.68,-0.73 -0.38,0 -0.69,0.32 -0.69,0.72 0,0.41 0.3,0.74 0.68,0.74 0.38,0.01 0.69,-0.32 0.69,-0.73 z m 0.03,-2.92 0,-0.01 c 0.01,-0.39 -0.3,-0.72 -0.68,-0.73 -0.38,0 -0.69,0.32 -0.69,0.72 l 0,0.01 c 0,0.4 0.3,0.72 0.68,0.74 0.38,0 0.69,-0.33 0.69,-0.73 z m -5.05,29.55 3.95,10.47 4.17,-10.37 c 0.15,-0.37 -0.01,-0.8 -0.36,-0.96 -0.34,-0.17 -0.75,0.01 -0.9,0.39 l -3.52,8.75 1.27,0.01 -3.34,-8.83 c -0.14,-0.39 -0.54,-0.56 -0.89,-0.41 -0.36,0.14 -0.53,0.58 -0.38,0.95 z m 8.36,-22.67 -3.95,-10.46 -4.17,10.36 c -0.16,0.38 0.01,0.8 0.35,0.97 0.35,0.16 0.76,-0.01 0.9,-0.39 l 3.53,-8.74 -1.26,-0.03 3.33,8.84 c 0.14,0.38 0.54,0.55 0.89,0.41 0.35,-0.15 0.52,-0.59 0.38,-0.96 z"
       inkscape:connector-curvature="0"
       id="path466"
       style="fill:none;stroke:#000000;stroke-width:0.14;stroke-linecap:round;stroke-linejoin:round;stroke-miterlimit:8;stroke-opacity:1;stroke-dasharray:none" /><path
       d="m 609.8,450.3 0,0 c 0.01,-0.4 -0.3,-0.73 -0.68,-0.74 -0.38,0 -0.69,0.32 -0.69,0.73 0,0.41 0.3,0.74 0.68,0.74 0.38,0 0.69,-0.32 0.69,-0.73 z m 0.03,-2.94 0,0 c 0.01,-0.4 -0.3,-0.73 -0.68,-0.73 -0.38,-0.01 -0.69,0.32 -0.69,0.72 0,0.41 0.3,0.74 0.68,0.74 0.38,0 0.69,-0.32 0.69,-0.73 z m 0.03,-2.93 0,0 c 0.01,-0.41 -0.29,-0.73 -0.67,-0.73 -0.39,0 -0.7,0.31 -0.7,0.72 0,0.41 0.3,0.73 0.68,0.73 0.39,0.02 0.69,-0.31 0.69,-0.72 z m 0.03,-2.93 0,0 c 0.01,-0.41 -0.3,-0.74 -0.68,-0.74 -0.38,0 -0.69,0.32 -0.69,0.73 0,0.4 0.3,0.73 0.68,0.74 0.38,0 0.69,-0.33 0.69,-0.73 z m 0.04,-2.92 0,-0.02 c 0.01,-0.39 -0.31,-0.72 -0.69,-0.73 -0.38,0 -0.68,0.32 -0.68,0.72 l 0,0.01 c 0,0.39 0.29,0.72 0.67,0.73 0.38,0 0.7,-0.32 0.7,-0.71 z m 0.02,-2.94 0,0 c 0.01,-0.41 -0.29,-0.74 -0.67,-0.74 -0.39,-0.01 -0.7,0.32 -0.7,0.73 0,0.4 0.3,0.73 0.68,0.73 0.39,0 0.69,-0.32 0.69,-0.72 z m 0.03,-2.93 0,0 c 0.01,-0.42 -0.29,-0.74 -0.67,-0.74 -0.38,-0.02 -0.7,0.31 -0.7,0.72 0,0.4 0.31,0.74 0.69,0.74 0.38,0 0.68,-0.32 0.68,-0.72 z m 0.04,-2.94 0,0 c 0.01,-0.41 -0.31,-0.74 -0.69,-0.74 -0.38,0 -0.68,0.32 -0.68,0.73 0,0.41 0.3,0.74 0.67,0.74 0.38,0.01 0.7,-0.33 0.7,-0.73 z m 0.03,-2.94 0,0 c 0.01,-0.4 -0.3,-0.74 -0.68,-0.74 -0.39,0 -0.69,0.34 -0.69,0.73 0,0.41 0.29,0.74 0.67,0.75 0.39,0 0.7,-0.33 0.7,-0.74 z m 0.03,-2.92 0,0 c 0,-0.41 -0.3,-0.74 -0.68,-0.75 -0.38,0 -0.7,0.34 -0.7,0.74 0,0.4 0.31,0.74 0.69,0.74 0.38,0 0.69,-0.33 0.69,-0.73 z m 0.03,-2.94 0,0 c 0.01,-0.4 -0.3,-0.74 -0.68,-0.74 -0.38,0 -0.69,0.33 -0.69,0.73 0,0.41 0.3,0.74 0.68,0.74 0.38,0 0.69,-0.31 0.69,-0.73 z m 0.03,-2.93 0,0 c 0.01,-0.4 -0.3,-0.73 -0.68,-0.73 -0.39,0 -0.69,0.31 -0.69,0.72 0,0.41 0.3,0.74 0.68,0.74 0.38,0.01 0.69,-0.32 0.69,-0.73 z m 0.03,-2.94 0,0 c 0.01,-0.4 -0.3,-0.73 -0.68,-0.73 -0.38,0 -0.69,0.32 -0.69,0.72 0,0.41 0.3,0.74 0.68,0.74 0.38,0.01 0.69,-0.32 0.69,-0.73 z m 0.03,-2.92 0,-0.01 c 0.01,-0.39 -0.3,-0.72 -0.68,-0.73 -0.38,0 -0.69,0.32 -0.69,0.72 l 0,0.01 c 0,0.4 0.3,0.72 0.68,0.74 0.38,0 0.69,-0.33 0.69,-0.73 z m -5.05,29.55 3.95,10.47 4.17,-10.37 c 0.15,-0.37 -0.01,-0.8 -0.36,-0.96 -0.34,-0.17 -0.75,0.01 -0.9,0.39 l -3.52,8.75 1.27,0.01 -3.34,-8.83 c -0.14,-0.39 -0.54,-0.56 -0.89,-0.41 -0.36,0.14 -0.53,0.58 -0.38,0.95 z m 8.36,-22.67 -3.95,-10.46 -4.17,10.36 c -0.16,0.38 0.01,0.8 0.35,0.97 0.35,0.16 0.76,-0.01 0.9,-0.39 l 3.53,-8.74 -1.26,-0.03 3.33,8.84 c 0.14,0.38 0.54,0.55 0.89,0.41 0.35,-0.15 0.52,-0.59 0.38,-0.96 z"
       inkscape:connector-curvature="0"
       id="path468"
       style="fill:none;stroke:#7f7f7f;stroke-width:0.14;stroke-linecap:round;stroke-linejoin:round;stroke-miterlimit:8;stroke-opacity:1;stroke-dasharray:none" /><path
       d="m 708.9,454.85 0,0 c -0.19,-0.33 -0.63,-0.42 -0.95,-0.23 -0.32,0.21 -0.43,0.64 -0.22,0.96 0.19,0.32 0.62,0.42 0.95,0.23 0.32,-0.21 0.41,-0.64 0.22,-0.96 z m -1.45,-2.36 0,0 c -0.21,-0.34 -0.64,-0.43 -0.95,-0.23 -0.32,0.21 -0.42,0.64 -0.22,0.96 0.19,0.32 0.62,0.43 0.94,0.22 0.33,-0.2 0.42,-0.62 0.23,-0.95 z m -1.45,-2.36 0,0 c -0.21,-0.33 -0.63,-0.43 -0.96,-0.23 -0.31,0.21 -0.42,0.63 -0.22,0.96 0.2,0.32 0.63,0.43 0.95,0.23 0.33,-0.22 0.43,-0.64 0.23,-0.96 z m -1.45,-2.36 0,0 c -0.21,-0.33 -0.63,-0.43 -0.96,-0.23 -0.33,0.21 -0.42,0.63 -0.22,0.96 0.21,0.32 0.63,0.42 0.95,0.22 0.33,-0.2 0.43,-0.63 0.23,-0.95 z m -1.46,-2.37 0,0 c -0.2,-0.33 -0.62,-0.42 -0.94,-0.22 -0.34,0.2 -0.43,0.63 -0.23,0.95 0.21,0.32 0.63,0.43 0.95,0.22 0.33,-0.19 0.43,-0.62 0.22,-0.95 z m -1.45,-2.36 0,0 c -0.19,-0.33 -0.62,-0.42 -0.95,-0.23 -0.32,0.21 -0.42,0.64 -0.22,0.96 0.2,0.32 0.63,0.43 0.96,0.22 0.31,-0.2 0.42,-0.62 0.21,-0.95 z m -1.45,-2.35 0,-0.02 c -0.19,-0.32 -0.62,-0.42 -0.95,-0.21 -0.32,0.19 -0.42,0.63 -0.22,0.95 0.2,0.33 0.63,0.43 0.95,0.22 0.32,-0.2 0.43,-0.62 0.22,-0.94 z m -1.45,-2.37 0,-0.01 c -0.19,-0.32 -0.63,-0.41 -0.95,-0.22 -0.32,0.2 -0.42,0.63 -0.22,0.96 0.19,0.32 0.62,0.43 0.95,0.22 0.32,-0.19 0.42,-0.63 0.22,-0.95 z m -1.45,-2.36 0,-0.01 c -0.21,-0.32 -0.63,-0.41 -0.95,-0.22 -0.32,0.2 -0.42,0.63 -0.22,0.96 0.2,0.32 0.62,0.42 0.94,0.22 0.33,-0.2 0.43,-0.63 0.23,-0.95 z m -1.45,-2.37 0,0 c -0.21,-0.33 -0.63,-0.43 -0.95,-0.22 -0.32,0.2 -0.43,0.62 -0.23,0.95 0.21,0.32 0.63,0.44 0.95,0.22 0.34,-0.19 0.43,-0.62 0.23,-0.95 z m -1.44,-2.36 0,0 c -0.22,-0.32 -0.64,-0.43 -0.96,-0.22 -0.34,0.2 -0.43,0.62 -0.22,0.95 0.2,0.33 0.62,0.43 0.95,0.23 0.32,-0.21 0.42,-0.63 0.23,-0.96 z m -1.46,-2.36 -0.01,0 c -0.19,-0.33 -0.62,-0.43 -0.94,-0.22 -0.33,0.19 -0.43,0.62 -0.23,0.96 0.21,0.32 0.63,0.42 0.96,0.21 0.31,-0.19 0.42,-0.62 0.22,-0.95 z m -1.46,-2.37 0,0 c -0.19,-0.32 -0.62,-0.42 -0.95,-0.22 -0.32,0.2 -0.41,0.63 -0.22,0.96 0.2,0.32 0.64,0.43 0.96,0.22 0.31,-0.19 0.42,-0.63 0.21,-0.96 z m -1.45,-2.36 0,0 c -0.19,-0.32 -0.62,-0.43 -0.95,-0.22 -0.32,0.2 -0.42,0.63 -0.22,0.96 0.2,0.32 0.63,0.43 0.95,0.22 0.32,-0.2 0.43,-0.62 0.22,-0.96 z m -1.45,-2.36 0,0 c -0.19,-0.32 -0.61,-0.43 -0.95,-0.21 -0.32,0.19 -0.42,0.61 -0.22,0.95 0.2,0.33 0.62,0.43 0.95,0.22 0.33,-0.2 0.43,-0.63 0.22,-0.96 z m -1.44,-2.36 0,0 c -0.22,-0.32 -0.64,-0.42 -0.96,-0.22 -0.32,0.2 -0.43,0.63 -0.22,0.96 0.2,0.32 0.62,0.42 0.95,0.22 0.33,-0.2 0.42,-0.63 0.23,-0.96 z m -1.45,-2.36 0,0 c -0.21,-0.32 -0.64,-0.43 -0.96,-0.22 -0.32,0.19 -0.43,0.63 -0.22,0.95 l 0.01,0.01 c 0.19,0.32 0.61,0.42 0.94,0.21 0.33,-0.19 0.42,-0.62 0.23,-0.95 z m -1.46,-2.37 0,0 c -0.2,-0.32 -0.63,-0.42 -0.95,-0.22 -0.32,0.21 -0.43,0.63 -0.22,0.95 l 0,0.01 c 0.2,0.32 0.63,0.43 0.95,0.22 0.32,-0.19 0.42,-0.62 0.22,-0.96 z m -1.45,-2.35 -0.01,0 c -0.19,-0.33 -0.62,-0.44 -0.94,-0.22 -0.33,0.19 -0.42,0.62 -0.23,0.94 l 0,0.01 c 0.21,0.33 0.64,0.42 0.96,0.22 0.31,-0.2 0.42,-0.62 0.22,-0.95 z m 17.84,38.17 8.63,6.24 -1.67,-10.55 c -0.06,-0.37 -0.41,-0.64 -0.79,-0.58 -0.37,0.07 -0.63,0.42 -0.58,0.81 l 1.43,8.89 1.07,-0.66 -7.28,-5.27 c -0.31,-0.22 -0.74,-0.16 -0.97,0.16 -0.21,0.31 -0.14,0.74 0.16,0.96 z m -11.33,-34.07 -8.64,-6.24 1.68,10.55 c 0.06,0.37 0.41,0.63 0.79,0.58 0.38,-0.07 0.64,-0.43 0.57,-0.8 l -1.42,-8.9 -1.07,0.67 7.28,5.26 c 0.31,0.23 0.74,0.16 0.97,-0.16 0.22,-0.31 0.15,-0.75 -0.16,-0.96 z"
       inkscape:connector-curvature="0"
       id="path470"
       style="fill:#7f7f7f;fill-opacity:1;fill-rule:evenodd;stroke:none" /><path
       d="m 708.9,454.85 0,0 c -0.19,-0.33 -0.63,-0.42 -0.95,-0.23 -0.32,0.21 -0.43,0.64 -0.22,0.96 0.19,0.32 0.62,0.42 0.95,0.23 0.32,-0.21 0.41,-0.64 0.22,-0.96 z m -1.45,-2.36 0,0 c -0.21,-0.34 -0.64,-0.43 -0.95,-0.23 -0.32,0.21 -0.42,0.64 -0.22,0.96 0.19,0.32 0.62,0.43 0.94,0.22 0.33,-0.2 0.42,-0.62 0.23,-0.95 z m -1.45,-2.36 0,0 c -0.21,-0.33 -0.63,-0.43 -0.96,-0.23 -0.31,0.21 -0.42,0.63 -0.22,0.96 0.2,0.32 0.63,0.43 0.95,0.23 0.33,-0.22 0.43,-0.64 0.23,-0.96 z m -1.45,-2.36 0,0 c -0.21,-0.33 -0.63,-0.43 -0.96,-0.23 -0.33,0.21 -0.42,0.63 -0.22,0.96 0.21,0.32 0.63,0.42 0.95,0.22 0.33,-0.2 0.43,-0.63 0.23,-0.95 z m -1.46,-2.37 0,0 c -0.2,-0.33 -0.62,-0.42 -0.94,-0.22 -0.34,0.2 -0.43,0.63 -0.23,0.95 0.21,0.32 0.63,0.43 0.95,0.22 0.33,-0.19 0.43,-0.62 0.22,-0.95 z m -1.45,-2.36 0,0 c -0.19,-0.33 -0.62,-0.42 -0.95,-0.23 -0.32,0.21 -0.42,0.64 -0.22,0.96 0.2,0.32 0.63,0.43 0.96,0.22 0.31,-0.2 0.42,-0.62 0.21,-0.95 z m -1.45,-2.35 0,-0.02 c -0.19,-0.32 -0.62,-0.42 -0.95,-0.21 -0.32,0.19 -0.42,0.63 -0.22,0.95 0.2,0.33 0.63,0.43 0.95,0.22 0.32,-0.2 0.43,-0.62 0.22,-0.94 z m -1.45,-2.37 0,-0.01 c -0.19,-0.32 -0.63,-0.41 -0.95,-0.22 -0.32,0.2 -0.42,0.63 -0.22,0.96 0.19,0.32 0.62,0.43 0.95,0.22 0.32,-0.19 0.42,-0.63 0.22,-0.95 z m -1.45,-2.36 0,-0.01 c -0.21,-0.32 -0.63,-0.41 -0.95,-0.22 -0.32,0.2 -0.42,0.63 -0.22,0.96 0.2,0.32 0.62,0.42 0.94,0.22 0.33,-0.2 0.43,-0.63 0.23,-0.95 z m -1.45,-2.37 0,0 c -0.21,-0.33 -0.63,-0.43 -0.95,-0.22 -0.32,0.2 -0.43,0.62 -0.23,0.95 0.21,0.32 0.63,0.44 0.95,0.22 0.34,-0.19 0.43,-0.62 0.23,-0.95 z m -1.44,-2.36 0,0 c -0.22,-0.32 -0.64,-0.43 -0.96,-0.22 -0.34,0.2 -0.43,0.62 -0.22,0.95 0.2,0.33 0.62,0.43 0.95,0.23 0.32,-0.21 0.42,-0.63 0.23,-0.96 z m -1.46,-2.36 -0.01,0 c -0.19,-0.33 -0.62,-0.43 -0.94,-0.22 -0.33,0.19 -0.43,0.62 -0.23,0.96 0.21,0.32 0.63,0.42 0.96,0.21 0.31,-0.19 0.42,-0.62 0.22,-0.95 z m -1.46,-2.37 0,0 c -0.19,-0.32 -0.62,-0.42 -0.95,-0.22 -0.32,0.2 -0.41,0.63 -0.22,0.96 0.2,0.32 0.64,0.43 0.96,0.22 0.31,-0.19 0.42,-0.63 0.21,-0.96 z m -1.45,-2.36 0,0 c -0.19,-0.32 -0.62,-0.43 -0.95,-0.22 -0.32,0.2 -0.42,0.63 -0.22,0.96 0.2,0.32 0.63,0.43 0.95,0.22 0.32,-0.2 0.43,-0.62 0.22,-0.96 z m -1.45,-2.36 0,0 c -0.19,-0.32 -0.61,-0.43 -0.95,-0.21 -0.32,0.19 -0.42,0.61 -0.22,0.95 0.2,0.33 0.62,0.43 0.95,0.22 0.33,-0.2 0.43,-0.63 0.22,-0.96 z m -1.44,-2.36 0,0 c -0.22,-0.32 -0.64,-0.42 -0.96,-0.22 -0.32,0.2 -0.43,0.63 -0.22,0.96 0.2,0.32 0.62,0.42 0.95,0.22 0.33,-0.2 0.42,-0.63 0.23,-0.96 z m -1.45,-2.36 0,0 c -0.21,-0.32 -0.64,-0.43 -0.96,-0.22 -0.32,0.19 -0.43,0.63 -0.22,0.95 l 0.01,0.01 c 0.19,0.32 0.61,0.42 0.94,0.21 0.33,-0.19 0.42,-0.62 0.23,-0.95 z m -1.46,-2.37 0,0 c -0.2,-0.32 -0.63,-0.42 -0.95,-0.22 -0.32,0.21 -0.43,0.63 -0.22,0.95 l 0,0.01 c 0.2,0.32 0.63,0.43 0.95,0.22 0.32,-0.19 0.42,-0.62 0.22,-0.96 z m -1.45,-2.35 -0.01,0 c -0.19,-0.33 -0.62,-0.44 -0.94,-0.22 -0.33,0.19 -0.42,0.62 -0.23,0.94 l 0,0.01 c 0.21,0.33 0.64,0.42 0.96,0.22 0.31,-0.2 0.42,-0.62 0.22,-0.95 z m 17.84,38.17 8.63,6.24 -1.67,-10.55 c -0.06,-0.37 -0.41,-0.64 -0.79,-0.58 -0.37,0.07 -0.63,0.42 -0.58,0.81 l 1.43,8.89 1.07,-0.66 -7.28,-5.27 c -0.31,-0.22 -0.74,-0.16 -0.97,0.16 -0.21,0.31 -0.14,0.74 0.16,0.96 z m -11.33,-34.07 -8.64,-6.24 1.68,10.55 c 0.06,0.37 0.41,0.63 0.79,0.58 0.38,-0.07 0.64,-0.43 0.57,-0.8 l -1.42,-8.9 -1.07,0.67 7.28,5.26 c 0.31,0.23 0.74,0.16 0.97,-0.16 0.22,-0.31 0.15,-0.75 -0.16,-0.96 z"
       inkscape:connector-curvature="0"
       id="path472"
       style="fill:none;stroke:#000000;stroke-width:0.14;stroke-linecap:round;stroke-linejoin:round;stroke-miterlimit:8;stroke-opacity:1;stroke-dasharray:none" /><path
       d="m 708.9,454.85 0,0 c -0.19,-0.33 -0.63,-0.42 -0.95,-0.23 -0.32,0.21 -0.43,0.64 -0.22,0.96 0.19,0.32 0.62,0.42 0.95,0.23 0.32,-0.21 0.41,-0.64 0.22,-0.96 z m -1.45,-2.36 0,0 c -0.21,-0.34 -0.64,-0.43 -0.95,-0.23 -0.32,0.21 -0.42,0.64 -0.22,0.96 0.19,0.32 0.62,0.43 0.94,0.22 0.33,-0.2 0.42,-0.62 0.23,-0.95 z m -1.45,-2.36 0,0 c -0.21,-0.33 -0.63,-0.43 -0.96,-0.23 -0.31,0.21 -0.42,0.63 -0.22,0.96 0.2,0.32 0.63,0.43 0.95,0.23 0.33,-0.22 0.43,-0.64 0.23,-0.96 z m -1.45,-2.36 0,0 c -0.21,-0.33 -0.63,-0.43 -0.96,-0.23 -0.33,0.21 -0.42,0.63 -0.22,0.96 0.21,0.32 0.63,0.42 0.95,0.22 0.33,-0.2 0.43,-0.63 0.23,-0.95 z m -1.46,-2.37 0,0 c -0.2,-0.33 -0.62,-0.42 -0.94,-0.22 -0.34,0.2 -0.43,0.63 -0.23,0.95 0.21,0.32 0.63,0.43 0.95,0.22 0.33,-0.19 0.43,-0.62 0.22,-0.95 z m -1.45,-2.36 0,0 c -0.19,-0.33 -0.62,-0.42 -0.95,-0.23 -0.32,0.21 -0.42,0.64 -0.22,0.96 0.2,0.32 0.63,0.43 0.96,0.22 0.31,-0.2 0.42,-0.62 0.21,-0.95 z m -1.45,-2.35 0,-0.02 c -0.19,-0.32 -0.62,-0.42 -0.95,-0.21 -0.32,0.19 -0.42,0.63 -0.22,0.95 0.2,0.33 0.63,0.43 0.95,0.22 0.32,-0.2 0.43,-0.62 0.22,-0.94 z m -1.45,-2.37 0,-0.01 c -0.19,-0.32 -0.63,-0.41 -0.95,-0.22 -0.32,0.2 -0.42,0.63 -0.22,0.96 0.19,0.32 0.62,0.43 0.95,0.22 0.32,-0.19 0.42,-0.63 0.22,-0.95 z m -1.45,-2.36 0,-0.01 c -0.21,-0.32 -0.63,-0.41 -0.95,-0.22 -0.32,0.2 -0.42,0.63 -0.22,0.96 0.2,0.32 0.62,0.42 0.94,0.22 0.33,-0.2 0.43,-0.63 0.23,-0.95 z m -1.45,-2.37 0,0 c -0.21,-0.33 -0.63,-0.43 -0.95,-0.22 -0.32,0.2 -0.43,0.62 -0.23,0.95 0.21,0.32 0.63,0.44 0.95,0.22 0.34,-0.19 0.43,-0.62 0.23,-0.95 z m -1.44,-2.36 0,0 c -0.22,-0.32 -0.64,-0.43 -0.96,-0.22 -0.34,0.2 -0.43,0.62 -0.22,0.95 0.2,0.33 0.62,0.43 0.95,0.23 0.32,-0.21 0.42,-0.63 0.23,-0.96 z m -1.46,-2.36 -0.01,0 c -0.19,-0.33 -0.62,-0.43 -0.94,-0.22 -0.33,0.19 -0.43,0.62 -0.23,0.96 0.21,0.32 0.63,0.42 0.96,0.21 0.31,-0.19 0.42,-0.62 0.22,-0.95 z m -1.46,-2.37 0,0 c -0.19,-0.32 -0.62,-0.42 -0.95,-0.22 -0.32,0.2 -0.41,0.63 -0.22,0.96 0.2,0.32 0.64,0.43 0.96,0.22 0.31,-0.19 0.42,-0.63 0.21,-0.96 z m -1.45,-2.36 0,0 c -0.19,-0.32 -0.62,-0.43 -0.95,-0.22 -0.32,0.2 -0.42,0.63 -0.22,0.96 0.2,0.32 0.63,0.43 0.95,0.22 0.32,-0.2 0.43,-0.62 0.22,-0.96 z m -1.45,-2.36 0,0 c -0.19,-0.32 -0.61,-0.43 -0.95,-0.21 -0.32,0.19 -0.42,0.61 -0.22,0.95 0.2,0.33 0.62,0.43 0.95,0.22 0.33,-0.2 0.43,-0.63 0.22,-0.96 z m -1.44,-2.36 0,0 c -0.22,-0.32 -0.64,-0.42 -0.96,-0.22 -0.32,0.2 -0.43,0.63 -0.22,0.96 0.2,0.32 0.62,0.42 0.95,0.22 0.33,-0.2 0.42,-0.63 0.23,-0.96 z m -1.45,-2.36 0,0 c -0.21,-0.32 -0.64,-0.43 -0.96,-0.22 -0.32,0.19 -0.43,0.63 -0.22,0.95 l 0.01,0.01 c 0.19,0.32 0.61,0.42 0.94,0.21 0.33,-0.19 0.42,-0.62 0.23,-0.95 z m -1.46,-2.37 0,0 c -0.2,-0.32 -0.63,-0.42 -0.95,-0.22 -0.32,0.21 -0.43,0.63 -0.22,0.95 l 0,0.01 c 0.2,0.32 0.63,0.43 0.95,0.22 0.32,-0.19 0.42,-0.62 0.22,-0.96 z m -1.45,-2.35 -0.01,0 c -0.19,-0.33 -0.62,-0.44 -0.94,-0.22 -0.33,0.19 -0.42,0.62 -0.23,0.94 l 0,0.01 c 0.21,0.33 0.64,0.42 0.96,0.22 0.31,-0.2 0.42,-0.62 0.22,-0.95 z m 17.84,38.17 8.63,6.24 -1.67,-10.55 c -0.06,-0.37 -0.41,-0.64 -0.79,-0.58 -0.37,0.07 -0.63,0.42 -0.58,0.81 l 1.43,8.89 1.07,-0.66 -7.28,-5.27 c -0.31,-0.22 -0.74,-0.16 -0.97,0.16 -0.21,0.31 -0.14,0.74 0.16,0.96 z m -11.33,-34.07 -8.64,-6.24 1.68,10.55 c 0.06,0.37 0.41,0.63 0.79,0.58 0.38,-0.07 0.64,-0.43 0.57,-0.8 l -1.42,-8.9 -1.07,0.67 7.28,5.26 c 0.31,0.23 0.74,0.16 0.97,-0.16 0.22,-0.31 0.15,-0.75 -0.16,-0.96 z"
       inkscape:connector-curvature="0"
       id="path474"
       style="fill:none;stroke:#7f7f7f;stroke-width:0.14;stroke-linecap:round;stroke-linejoin:round;stroke-miterlimit:8;stroke-opacity:1;stroke-dasharray:none" /><path
       d="m 719.25,455.07 0,0 c 0.03,-0.35 -0.22,-0.64 -0.56,-0.67 -0.33,-0.03 -0.64,0.22 -0.66,0.56 -0.03,0.35 0.22,0.67 0.55,0.7 0.34,0.02 0.65,-0.24 0.67,-0.59 z m 0.23,-2.49 0,0 c 0.03,-0.35 -0.22,-0.66 -0.55,-0.69 -0.34,-0.03 -0.64,0.23 -0.67,0.58 -0.03,0.35 0.22,0.64 0.56,0.67 0.33,0.03 0.64,-0.22 0.66,-0.56 z m 0.24,-2.51 0,0 c 0.03,-0.35 -0.22,-0.65 -0.56,-0.68 -0.34,-0.04 -0.63,0.21 -0.66,0.56 -0.04,0.35 0.21,0.66 0.55,0.69 0.34,0.03 0.64,-0.23 0.67,-0.57 z m 0.24,-2.5 0,-0.01 c 0.02,-0.34 -0.23,-0.65 -0.57,-0.67 -0.34,-0.04 -0.63,0.22 -0.66,0.57 -0.03,0.34 0.22,0.65 0.55,0.68 0.34,0.03 0.64,-0.23 0.68,-0.57 z m 0.23,-2.51 0,0 c 0.02,-0.35 -0.23,-0.65 -0.57,-0.69 -0.33,-0.03 -0.63,0.23 -0.66,0.58 -0.03,0.35 0.22,0.65 0.56,0.67 0.33,0.04 0.64,-0.21 0.67,-0.56 z m 0.22,-2.5 0,0 c 0.03,-0.35 -0.21,-0.66 -0.55,-0.69 -0.34,-0.02 -0.63,0.23 -0.67,0.57 -0.03,0.35 0.22,0.66 0.56,0.69 0.33,0.02 0.63,-0.22 0.66,-0.57 z m 0.23,-2.51 0,0 c 0.04,-0.35 -0.21,-0.64 -0.55,-0.68 -0.34,-0.03 -0.63,0.22 -0.66,0.57 -0.04,0.35 0.21,0.65 0.55,0.68 0.34,0.03 0.63,-0.23 0.66,-0.57 z m 0.24,-2.51 0,0 c 0.03,-0.35 -0.22,-0.65 -0.56,-0.68 -0.34,-0.03 -0.63,0.22 -0.66,0.57 -0.03,0.35 0.22,0.65 0.55,0.69 0.34,0.03 0.63,-0.23 0.67,-0.58 z m 0.23,-2.49 0,-0.01 c 0.03,-0.34 -0.22,-0.66 -0.56,-0.68 -0.33,-0.03 -0.63,0.23 -0.66,0.57 -0.03,0.34 0.22,0.65 0.55,0.68 0.34,0.03 0.64,-0.22 0.67,-0.56 z m 0.23,-2.52 0,0 c 0.03,-0.35 -0.22,-0.64 -0.55,-0.68 -0.35,-0.03 -0.63,0.22 -0.67,0.57 -0.03,0.35 0.21,0.66 0.56,0.68 0.34,0.04 0.63,-0.22 0.66,-0.57 z m 0.23,-2.5 0,0 c 0.04,-0.35 -0.21,-0.66 -0.55,-0.68 -0.34,-0.03 -0.64,0.23 -0.67,0.57 -0.03,0.35 0.21,0.65 0.56,0.68 0.34,0.04 0.63,-0.22 0.66,-0.57 z m 0.24,-2.5 0,0 c 0.03,-0.35 -0.22,-0.65 -0.56,-0.69 -0.33,-0.03 -0.64,0.23 -0.67,0.57 -0.02,0.35 0.22,0.66 0.56,0.68 0.34,0.03 0.63,-0.22 0.67,-0.56 z m 0.23,-2.51 0,0 c 0.03,-0.34 -0.22,-0.65 -0.56,-0.68 -0.33,-0.03 -0.64,0.22 -0.67,0.57 -0.02,0.35 0.23,0.65 0.57,0.69 0.33,0.02 0.63,-0.23 0.66,-0.58 z m 0.23,-2.51 0,0 c 0.03,-0.34 -0.22,-0.65 -0.55,-0.68 -0.34,-0.03 -0.64,0.23 -0.68,0.58 -0.02,0.34 0.23,0.64 0.57,0.68 0.34,0.03 0.63,-0.23 0.66,-0.58 z m 0.23,-2.5 0,0 c 0.04,-0.35 -0.21,-0.65 -0.55,-0.69 -0.34,-0.02 -0.64,0.23 -0.67,0.57 -0.03,0.35 0.23,0.66 0.56,0.69 0.34,0.03 0.63,-0.22 0.66,-0.57 z m 0.23,-2.51 0,0 c 0.03,-0.34 -0.21,-0.65 -0.55,-0.67 -0.33,-0.03 -0.64,0.22 -0.66,0.56 -0.03,0.35 0.22,0.66 0.55,0.69 0.34,0.03 0.64,-0.23 0.66,-0.58 z m 0.23,-2.5 0,0 c 0.03,-0.35 -0.22,-0.65 -0.54,-0.69 -0.34,-0.03 -0.65,0.23 -0.67,0.58 -0.03,0.35 0.22,0.65 0.56,0.68 0.33,0.03 0.63,-0.23 0.65,-0.57 z m 0.23,-2.5 0,0 c 0.04,-0.35 -0.22,-0.66 -0.54,-0.68 -0.34,-0.04 -0.64,0.22 -0.67,0.56 -0.03,0.35 0.22,0.65 0.56,0.69 0.33,0.03 0.63,-0.22 0.65,-0.57 z m 0.24,-2.52 0,0 c 0.03,-0.33 -0.22,-0.64 -0.56,-0.67 -0.33,-0.03 -0.63,0.22 -0.65,0.57 -0.04,0.34 0.22,0.65 0.54,0.68 0.34,0.03 0.64,-0.23 0.67,-0.58 z m -7.73,37.42 2.79,9.25 4.44,-8.54 c 0.15,-0.31 0.04,-0.69 -0.25,-0.86 -0.3,-0.16 -0.68,-0.04 -0.83,0.26 l -3.75,7.21 1.13,0.12 -2.36,-7.81 c -0.1,-0.33 -0.44,-0.51 -0.76,-0.41 -0.33,0.1 -0.51,0.45 -0.41,0.78 z m 10.2,-31.3 -2.8,-9.25 -4.44,8.54 c -0.15,0.31 -0.04,0.69 0.26,0.85 0.3,0.17 0.68,0.04 0.83,-0.25 l 3.75,-7.22 -1.13,-0.11 2.36,7.81 c 0.1,0.34 0.43,0.51 0.76,0.41 0.33,-0.1 0.51,-0.45 0.41,-0.78 z"
       inkscape:connector-curvature="0"
       id="path476"
       style="fill:#7f7f7f;fill-opacity:1;fill-rule:evenodd;stroke:none" /><path
       d="m 719.25,455.07 0,0 c 0.03,-0.35 -0.22,-0.64 -0.56,-0.67 -0.33,-0.03 -0.64,0.22 -0.66,0.56 -0.03,0.35 0.22,0.67 0.55,0.7 0.34,0.02 0.65,-0.24 0.67,-0.59 z m 0.23,-2.49 0,0 c 0.03,-0.35 -0.22,-0.66 -0.55,-0.69 -0.34,-0.03 -0.64,0.23 -0.67,0.58 -0.03,0.35 0.22,0.64 0.56,0.67 0.33,0.03 0.64,-0.22 0.66,-0.56 z m 0.24,-2.51 0,0 c 0.03,-0.35 -0.22,-0.65 -0.56,-0.68 -0.34,-0.04 -0.63,0.21 -0.66,0.56 -0.04,0.35 0.21,0.66 0.55,0.69 0.34,0.03 0.64,-0.23 0.67,-0.57 z m 0.24,-2.5 0,-0.01 c 0.02,-0.34 -0.23,-0.65 -0.57,-0.67 -0.34,-0.04 -0.63,0.22 -0.66,0.57 -0.03,0.34 0.22,0.65 0.55,0.68 0.34,0.03 0.64,-0.23 0.68,-0.57 z m 0.23,-2.51 0,0 c 0.02,-0.35 -0.23,-0.65 -0.57,-0.69 -0.33,-0.03 -0.63,0.23 -0.66,0.58 -0.03,0.35 0.22,0.65 0.56,0.67 0.33,0.04 0.64,-0.21 0.67,-0.56 z m 0.22,-2.5 0,0 c 0.03,-0.35 -0.21,-0.66 -0.55,-0.69 -0.34,-0.02 -0.63,0.23 -0.67,0.57 -0.03,0.35 0.22,0.66 0.56,0.69 0.33,0.02 0.63,-0.22 0.66,-0.57 z m 0.23,-2.51 0,0 c 0.04,-0.35 -0.21,-0.64 -0.55,-0.68 -0.34,-0.03 -0.63,0.22 -0.66,0.57 -0.04,0.35 0.21,0.65 0.55,0.68 0.34,0.03 0.63,-0.23 0.66,-0.57 z m 0.24,-2.51 0,0 c 0.03,-0.35 -0.22,-0.65 -0.56,-0.68 -0.34,-0.03 -0.63,0.22 -0.66,0.57 -0.03,0.35 0.22,0.65 0.55,0.69 0.34,0.03 0.63,-0.23 0.67,-0.58 z m 0.23,-2.49 0,-0.01 c 0.03,-0.34 -0.22,-0.66 -0.56,-0.68 -0.33,-0.03 -0.63,0.23 -0.66,0.57 -0.03,0.34 0.22,0.65 0.55,0.68 0.34,0.03 0.64,-0.22 0.67,-0.56 z m 0.23,-2.52 0,0 c 0.03,-0.35 -0.22,-0.64 -0.55,-0.68 -0.35,-0.03 -0.63,0.22 -0.67,0.57 -0.03,0.35 0.21,0.66 0.56,0.68 0.34,0.04 0.63,-0.22 0.66,-0.57 z m 0.23,-2.5 0,0 c 0.04,-0.35 -0.21,-0.66 -0.55,-0.68 -0.34,-0.03 -0.64,0.23 -0.67,0.57 -0.03,0.35 0.21,0.65 0.56,0.68 0.34,0.04 0.63,-0.22 0.66,-0.57 z m 0.24,-2.5 0,0 c 0.03,-0.35 -0.22,-0.65 -0.56,-0.69 -0.33,-0.03 -0.64,0.23 -0.67,0.57 -0.02,0.35 0.22,0.66 0.56,0.68 0.34,0.03 0.63,-0.22 0.67,-0.56 z m 0.23,-2.51 0,0 c 0.03,-0.34 -0.22,-0.65 -0.56,-0.68 -0.33,-0.03 -0.64,0.22 -0.67,0.57 -0.02,0.35 0.23,0.65 0.57,0.69 0.33,0.02 0.63,-0.23 0.66,-0.58 z m 0.23,-2.51 0,0 c 0.03,-0.34 -0.22,-0.65 -0.55,-0.68 -0.34,-0.03 -0.64,0.23 -0.68,0.58 -0.02,0.34 0.23,0.64 0.57,0.68 0.34,0.03 0.63,-0.23 0.66,-0.58 z m 0.23,-2.5 0,0 c 0.04,-0.35 -0.21,-0.65 -0.55,-0.69 -0.34,-0.02 -0.64,0.23 -0.67,0.57 -0.03,0.35 0.23,0.66 0.56,0.69 0.34,0.03 0.63,-0.22 0.66,-0.57 z m 0.23,-2.51 0,0 c 0.03,-0.34 -0.21,-0.65 -0.55,-0.67 -0.33,-0.03 -0.64,0.22 -0.66,0.56 -0.03,0.35 0.22,0.66 0.55,0.69 0.34,0.03 0.64,-0.23 0.66,-0.58 z m 0.23,-2.5 0,0 c 0.03,-0.35 -0.22,-0.65 -0.54,-0.69 -0.34,-0.03 -0.65,0.23 -0.67,0.58 -0.03,0.35 0.22,0.65 0.56,0.68 0.33,0.03 0.63,-0.23 0.65,-0.57 z m 0.23,-2.5 0,0 c 0.04,-0.35 -0.22,-0.66 -0.54,-0.68 -0.34,-0.04 -0.64,0.22 -0.67,0.56 -0.03,0.35 0.22,0.65 0.56,0.69 0.33,0.03 0.63,-0.22 0.65,-0.57 z m 0.24,-2.52 0,0 c 0.03,-0.33 -0.22,-0.64 -0.56,-0.67 -0.33,-0.03 -0.63,0.22 -0.65,0.57 -0.04,0.34 0.22,0.65 0.54,0.68 0.34,0.03 0.64,-0.23 0.67,-0.58 z m -7.73,37.42 2.79,9.25 4.44,-8.54 c 0.15,-0.31 0.04,-0.69 -0.25,-0.86 -0.3,-0.16 -0.68,-0.04 -0.83,0.26 l -3.75,7.21 1.13,0.12 -2.36,-7.81 c -0.1,-0.33 -0.44,-0.51 -0.76,-0.41 -0.33,0.1 -0.51,0.45 -0.41,0.78 z m 10.2,-31.3 -2.8,-9.25 -4.44,8.54 c -0.15,0.31 -0.04,0.69 0.26,0.85 0.3,0.17 0.68,0.04 0.83,-0.25 l 3.75,-7.22 -1.13,-0.11 2.36,7.81 c 0.1,0.34 0.43,0.51 0.76,0.41 0.33,-0.1 0.51,-0.45 0.41,-0.78 z"
       inkscape:connector-curvature="0"
       id="path478"
       style="fill:none;stroke:#000000;stroke-width:0.14;stroke-linecap:round;stroke-linejoin:round;stroke-miterlimit:8;stroke-opacity:1;stroke-dasharray:none" /><path
       d="m 719.25,455.07 0,0 c 0.03,-0.35 -0.22,-0.64 -0.56,-0.67 -0.33,-0.03 -0.64,0.22 -0.66,0.56 -0.03,0.35 0.22,0.67 0.55,0.7 0.34,0.02 0.65,-0.24 0.67,-0.59 z m 0.23,-2.49 0,0 c 0.03,-0.35 -0.22,-0.66 -0.55,-0.69 -0.34,-0.03 -0.64,0.23 -0.67,0.58 -0.03,0.35 0.22,0.64 0.56,0.67 0.33,0.03 0.64,-0.22 0.66,-0.56 z m 0.24,-2.51 0,0 c 0.03,-0.35 -0.22,-0.65 -0.56,-0.68 -0.34,-0.04 -0.63,0.21 -0.66,0.56 -0.04,0.35 0.21,0.66 0.55,0.69 0.34,0.03 0.64,-0.23 0.67,-0.57 z m 0.24,-2.5 0,-0.01 c 0.02,-0.34 -0.23,-0.65 -0.57,-0.67 -0.34,-0.04 -0.63,0.22 -0.66,0.57 -0.03,0.34 0.22,0.65 0.55,0.68 0.34,0.03 0.64,-0.23 0.68,-0.57 z m 0.23,-2.51 0,0 c 0.02,-0.35 -0.23,-0.65 -0.57,-0.69 -0.33,-0.03 -0.63,0.23 -0.66,0.58 -0.03,0.35 0.22,0.65 0.56,0.67 0.33,0.04 0.64,-0.21 0.67,-0.56 z m 0.22,-2.5 0,0 c 0.03,-0.35 -0.21,-0.66 -0.55,-0.69 -0.34,-0.02 -0.63,0.23 -0.67,0.57 -0.03,0.35 0.22,0.66 0.56,0.69 0.33,0.02 0.63,-0.22 0.66,-0.57 z m 0.23,-2.51 0,0 c 0.04,-0.35 -0.21,-0.64 -0.55,-0.68 -0.34,-0.03 -0.63,0.22 -0.66,0.57 -0.04,0.35 0.21,0.65 0.55,0.68 0.34,0.03 0.63,-0.23 0.66,-0.57 z m 0.24,-2.51 0,0 c 0.03,-0.35 -0.22,-0.65 -0.56,-0.68 -0.34,-0.03 -0.63,0.22 -0.66,0.57 -0.03,0.35 0.22,0.65 0.55,0.69 0.34,0.03 0.63,-0.23 0.67,-0.58 z m 0.23,-2.49 0,-0.01 c 0.03,-0.34 -0.22,-0.66 -0.56,-0.68 -0.33,-0.03 -0.63,0.23 -0.66,0.57 -0.03,0.34 0.22,0.65 0.55,0.68 0.34,0.03 0.64,-0.22 0.67,-0.56 z m 0.23,-2.52 0,0 c 0.03,-0.35 -0.22,-0.64 -0.55,-0.68 -0.35,-0.03 -0.63,0.22 -0.67,0.57 -0.03,0.35 0.21,0.66 0.56,0.68 0.34,0.04 0.63,-0.22 0.66,-0.57 z m 0.23,-2.5 0,0 c 0.04,-0.35 -0.21,-0.66 -0.55,-0.68 -0.34,-0.03 -0.64,0.23 -0.67,0.57 -0.03,0.35 0.21,0.65 0.56,0.68 0.34,0.04 0.63,-0.22 0.66,-0.57 z m 0.24,-2.5 0,0 c 0.03,-0.35 -0.22,-0.65 -0.56,-0.69 -0.33,-0.03 -0.64,0.23 -0.67,0.57 -0.02,0.35 0.22,0.66 0.56,0.68 0.34,0.03 0.63,-0.22 0.67,-0.56 z m 0.23,-2.51 0,0 c 0.03,-0.34 -0.22,-0.65 -0.56,-0.68 -0.33,-0.03 -0.64,0.22 -0.67,0.57 -0.02,0.35 0.23,0.65 0.57,0.69 0.33,0.02 0.63,-0.23 0.66,-0.58 z m 0.23,-2.51 0,0 c 0.03,-0.34 -0.22,-0.65 -0.55,-0.68 -0.34,-0.03 -0.64,0.23 -0.68,0.58 -0.02,0.34 0.23,0.64 0.57,0.68 0.34,0.03 0.63,-0.23 0.66,-0.58 z m 0.23,-2.5 0,0 c 0.04,-0.35 -0.21,-0.65 -0.55,-0.69 -0.34,-0.02 -0.64,0.23 -0.67,0.57 -0.03,0.35 0.23,0.66 0.56,0.69 0.34,0.03 0.63,-0.22 0.66,-0.57 z m 0.23,-2.51 0,0 c 0.03,-0.34 -0.21,-0.65 -0.55,-0.67 -0.33,-0.03 -0.64,0.22 -0.66,0.56 -0.03,0.35 0.22,0.66 0.55,0.69 0.34,0.03 0.64,-0.23 0.66,-0.58 z m 0.23,-2.5 0,0 c 0.03,-0.35 -0.22,-0.65 -0.54,-0.69 -0.34,-0.03 -0.65,0.23 -0.67,0.58 -0.03,0.35 0.22,0.65 0.56,0.68 0.33,0.03 0.63,-0.23 0.65,-0.57 z m 0.23,-2.5 0,0 c 0.04,-0.35 -0.22,-0.66 -0.54,-0.68 -0.34,-0.04 -0.64,0.22 -0.67,0.56 -0.03,0.35 0.22,0.65 0.56,0.69 0.33,0.03 0.63,-0.22 0.65,-0.57 z m 0.24,-2.52 0,0 c 0.03,-0.33 -0.22,-0.64 -0.56,-0.67 -0.33,-0.03 -0.63,0.22 -0.65,0.57 -0.04,0.34 0.22,0.65 0.54,0.68 0.34,0.03 0.64,-0.23 0.67,-0.58 z m -7.73,37.42 2.79,9.25 4.44,-8.54 c 0.15,-0.31 0.04,-0.69 -0.25,-0.86 -0.3,-0.16 -0.68,-0.04 -0.83,0.26 l -3.75,7.21 1.13,0.12 -2.36,-7.81 c -0.1,-0.33 -0.44,-0.51 -0.76,-0.41 -0.33,0.1 -0.51,0.45 -0.41,0.78 z m 10.2,-31.3 -2.8,-9.25 -4.44,8.54 c -0.15,0.31 -0.04,0.69 0.26,0.85 0.3,0.17 0.68,0.04 0.83,-0.25 l 3.75,-7.22 -1.13,-0.11 2.36,7.81 c 0.1,0.34 0.43,0.51 0.76,0.41 0.33,-0.1 0.51,-0.45 0.41,-0.78 z"
       inkscape:connector-curvature="0"
       id="path480"
       style="fill:none;stroke:#7f7f7f;stroke-width:0.14;stroke-linecap:round;stroke-linejoin:round;stroke-miterlimit:8;stroke-opacity:1;stroke-dasharray:none" /><g
       id="g482"><g
         clip-path="url(#clipPath486)"
         id="g484"><g
           id="g490"><g
             clip-path="url(#clipPath494)"
             id="g492"><text
   transform="matrix(1,0,0,-1,572.95,464.47)"
   id="text498"><tspan
     x="0 6.6034799 12.23088 19.312441 24.93984 30.4776 36.085079 41.622841 47.120762 52.65852 57.6684 60.53688 66.074638 68.216042"
     y="0"
     id="tspan500"
     style="font-size:9.96000004px;font-variant:normal;font-weight:normal;writing-mode:lr-tb;fill:#000000;fill-opacity:1;fill-rule:nonzero;stroke:none;font-family:Helvetica;-inkscape-font-specification:Helvetica">Anwendungsfall</tspan></text>

</g></g><g
           id="g502"><g
             clip-path="url(#clipPath506)"
             id="g504" /></g></g></g><g
       id="g510"><g
         clip-path="url(#clipPath514)"
         id="g512"><g
           id="g518"><g
             clip-path="url(#clipPath522)"
             id="g520"><text
   transform="matrix(1,0,0,-1,604.27,453.31)"
   id="text526"><tspan
     x="0"
     y="0"
     id="tspan528"
     style="font-size:9.96000004px;font-variant:normal;font-weight:normal;writing-mode:lr-tb;fill:#000000;fill-opacity:1;fill-rule:nonzero;stroke:none;font-family:Helvetica;-inkscape-font-specification:Helvetica">A</tspan></text>

</g></g><g
           id="g530"><g
             clip-path="url(#clipPath534)"
             id="g532" /></g></g></g><g
       id="g538"><g
         clip-path="url(#clipPath542)"
         id="g540"><g
           id="g546"><g
             clip-path="url(#clipPath550)"
             id="g548"><text
   transform="matrix(1,0,0,-1,680.86,464.47)"
   id="text554"><tspan
     x="0 6.6034799 12.23088 19.312441 24.93984 30.4776 36.085079 41.622841 47.120762 52.65852 57.6684 60.53688 66.074638 68.216042 70.486923"
     y="0"
     id="tspan556"
     style="font-size:9.96000004px;font-variant:normal;font-weight:normal;writing-mode:lr-tb;fill:#000000;fill-opacity:1;fill-rule:nonzero;stroke:none;font-family:Helvetica;-inkscape-font-specification:Helvetica">Anwendungsfall </tspan></text>

</g></g><g
           id="g558"><g
             clip-path="url(#clipPath562)"
             id="g560" /></g></g></g><g
       id="g566"><g
         clip-path="url(#clipPath570)"
         id="g568"><g
           id="g574"><g
             clip-path="url(#clipPath578)"
             id="g576"><text
   transform="matrix(1,0,0,-1,712.18,453.43)"
   id="text582"><tspan
     x="0"
     y="0"
     id="tspan584"
     style="font-size:9.96000004px;font-variant:normal;font-weight:normal;writing-mode:lr-tb;fill:#000000;fill-opacity:1;fill-rule:nonzero;stroke:none;font-family:Helvetica;-inkscape-font-specification:Helvetica">B</tspan></text>

</g></g><g
           id="g586"><g
             clip-path="url(#clipPath590)"
             id="g588" /></g></g></g><path
       d="m 716.83,477.95 c -28.77,0 -52.08,-7.12 -52.08,-15.9 0,-8.78 23.31,-15.9 52.08,-15.9 28.76,0 52.07,7.12 52.07,15.9 0,8.78 -23.31,15.9 -52.07,15.9 z"
       inkscape:connector-curvature="0"
       id="path594"
       style="fill:none;stroke:#000000;stroke-width:0.14;stroke-linecap:round;stroke-linejoin:round;stroke-miterlimit:8;stroke-opacity:1;stroke-dasharray:none" /><path
       d="m 602.98,507.71 0.01,-5.42 c 0,-0.21 -0.2,-0.39 -0.46,-0.39 -0.26,0 -0.47,0.17 -0.47,0.39 l -0.01,5.42 c 0,0.22 0.21,0.39 0.47,0.39 0.26,0 0.46,-0.17 0.46,-0.39 z m 0.02,-8.52 0.01,-5.42 c 0,-0.21 -0.2,-0.39 -0.46,-0.39 -0.26,0 -0.47,0.17 -0.47,0.39 l -0.01,5.42 c 0,0.22 0.2,0.39 0.47,0.39 0.26,0 0.46,-0.17 0.46,-0.39 z m 0.02,-8.52 0.01,-5.42 c 0,-0.21 -0.2,-0.39 -0.47,-0.39 -0.25,0 -0.46,0.17 -0.46,0.39 l -0.01,5.42 c 0,0.22 0.2,0.39 0.46,0.39 0.27,0 0.47,-0.17 0.47,-0.39 z m 0.02,-8.52 0.01,-3.41 c 0,-0.21 -0.21,-0.39 -0.47,-0.39 -0.26,0 -0.46,0.17 -0.46,0.39 l -0.01,3.41 c 0,0.21 0.2,0.38 0.46,0.38 0.27,0 0.47,-0.17 0.47,-0.38 z"
       inkscape:connector-curvature="0"
       id="path596"
       style="fill:#000000;fill-opacity:1;fill-rule:evenodd;stroke:none" /><path
       d="m 602.98,507.71 0.01,-5.42 c 0,-0.21 -0.2,-0.39 -0.46,-0.39 -0.26,0 -0.47,0.17 -0.47,0.39 l -0.01,5.42 c 0,0.22 0.21,0.39 0.47,0.39 0.26,0 0.46,-0.17 0.46,-0.39 z m 0.02,-8.52 0.01,-5.42 c 0,-0.21 -0.2,-0.39 -0.46,-0.39 -0.26,0 -0.47,0.17 -0.47,0.39 l -0.01,5.42 c 0,0.22 0.2,0.39 0.47,0.39 0.26,0 0.46,-0.17 0.46,-0.39 z m 0.02,-8.52 0.01,-5.42 c 0,-0.21 -0.2,-0.39 -0.47,-0.39 -0.25,0 -0.46,0.17 -0.46,0.39 l -0.01,5.42 c 0,0.22 0.2,0.39 0.46,0.39 0.27,0 0.47,-0.17 0.47,-0.39 z m 0.02,-8.52 0.01,-3.41 c 0,-0.21 -0.21,-0.39 -0.47,-0.39 -0.26,0 -0.46,0.17 -0.46,0.39 l -0.01,3.41 c 0,0.21 0.2,0.38 0.46,0.38 0.27,0 0.47,-0.17 0.47,-0.38 z"
       inkscape:connector-curvature="0"
       id="path598"
       style="fill:none;stroke:#000000;stroke-width:0.14;stroke-linecap:round;stroke-linejoin:round;stroke-miterlimit:8;stroke-opacity:1;stroke-dasharray:none" /><path
       d="m 602.98,507.71 0.01,-5.42 c 0,-0.21 -0.2,-0.39 -0.46,-0.39 -0.26,0 -0.47,0.17 -0.47,0.39 l -0.01,5.42 c 0,0.22 0.21,0.39 0.47,0.39 0.26,0 0.46,-0.17 0.46,-0.39 z m 0.02,-8.52 0.01,-5.42 c 0,-0.21 -0.2,-0.39 -0.46,-0.39 -0.26,0 -0.47,0.17 -0.47,0.39 l -0.01,5.42 c 0,0.22 0.2,0.39 0.47,0.39 0.26,0 0.46,-0.17 0.46,-0.39 z m 0.02,-8.52 0.01,-5.42 c 0,-0.21 -0.2,-0.39 -0.47,-0.39 -0.25,0 -0.46,0.17 -0.46,0.39 l -0.01,5.42 c 0,0.22 0.2,0.39 0.46,0.39 0.27,0 0.47,-0.17 0.47,-0.39 z m 0.02,-8.52 0.01,-3.41 c 0,-0.21 -0.21,-0.39 -0.47,-0.39 -0.26,0 -0.46,0.17 -0.46,0.39 l -0.01,3.41 c 0,0.21 0.2,0.38 0.46,0.38 0.27,0 0.47,-0.17 0.47,-0.38 z"
       inkscape:connector-curvature="0"
       id="path600"
       style="fill:none;stroke:#000000;stroke-width:0.14;stroke-linecap:round;stroke-linejoin:round;stroke-miterlimit:8;stroke-opacity:1;stroke-dasharray:none" /><path
       d="m 625.75,510.45 4.34,-4.07 c 0.16,-0.17 0.17,-0.43 0.01,-0.61 -0.15,-0.17 -0.42,-0.18 -0.59,-0.03 l -4.33,4.07 c -0.17,0.16 -0.18,0.43 -0.03,0.61 0.16,0.17 0.43,0.18 0.6,0.03 z m 6.8,-6.4 4.33,-4.07 c 0.17,-0.17 0.19,-0.43 0.03,-0.61 -0.16,-0.17 -0.43,-0.18 -0.6,-0.03 l -4.33,4.07 c -0.17,0.17 -0.18,0.44 -0.02,0.61 0.16,0.17 0.42,0.18 0.59,0.03 z m 6.8,-6.39 4.33,-4.07 c 0.18,-0.17 0.18,-0.43 0.02,-0.61 -0.16,-0.17 -0.42,-0.18 -0.59,-0.02 l -4.33,4.06 c -0.17,0.16 -0.18,0.44 -0.03,0.61 0.16,0.17 0.43,0.18 0.6,0.03 z m 6.81,-6.39 4.33,-4.08 c 0.17,-0.17 0.18,-0.43 0.03,-0.61 -0.16,-0.17 -0.43,-0.18 -0.6,-0.02 l -4.33,4.07 c -0.17,0.16 -0.18,0.44 -0.02,0.61 0.15,0.17 0.42,0.19 0.59,0.03 z m 6.8,-6.4 4.33,-4.07 c 0.18,-0.17 0.18,-0.43 0.02,-0.6 -0.16,-0.18 -0.42,-0.19 -0.59,-0.03 l -4.33,4.06 c -0.17,0.16 -0.19,0.44 -0.03,0.61 0.16,0.17 0.43,0.19 0.6,0.03 z m 6.8,-6.39 4.33,-4.07 c 0.17,-0.16 0.18,-0.43 0.03,-0.6 -0.16,-0.18 -0.43,-0.19 -0.6,-0.03 l -4.33,4.06 c -0.16,0.16 -0.17,0.44 -0.02,0.61 0.15,0.17 0.42,0.19 0.59,0.03 z m 6.81,-6.4 3.44,-3.24 c 0.17,-0.16 0.19,-0.43 0.03,-0.6 -0.16,-0.18 -0.42,-0.19 -0.6,-0.03 l -3.44,3.23 c -0.17,0.17 -0.19,0.44 -0.02,0.61 0.16,0.17 0.42,0.19 0.59,0.03 z"
       inkscape:connector-curvature="0"
       id="path602"
       style="fill:#000000;fill-opacity:1;fill-rule:evenodd;stroke:none" /><path
       d="m 625.75,510.45 4.34,-4.07 c 0.16,-0.17 0.17,-0.43 0.01,-0.61 -0.15,-0.17 -0.42,-0.18 -0.59,-0.03 l -4.33,4.07 c -0.17,0.16 -0.18,0.43 -0.03,0.61 0.16,0.17 0.43,0.18 0.6,0.03 z m 6.8,-6.4 4.33,-4.07 c 0.17,-0.17 0.19,-0.43 0.03,-0.61 -0.16,-0.17 -0.43,-0.18 -0.6,-0.03 l -4.33,4.07 c -0.17,0.17 -0.18,0.44 -0.02,0.61 0.16,0.17 0.42,0.18 0.59,0.03 z m 6.8,-6.39 4.33,-4.07 c 0.18,-0.17 0.18,-0.43 0.02,-0.61 -0.16,-0.17 -0.42,-0.18 -0.59,-0.02 l -4.33,4.06 c -0.17,0.16 -0.18,0.44 -0.03,0.61 0.16,0.17 0.43,0.18 0.6,0.03 z m 6.81,-6.39 4.33,-4.08 c 0.17,-0.17 0.18,-0.43 0.03,-0.61 -0.16,-0.17 -0.43,-0.18 -0.6,-0.02 l -4.33,4.07 c -0.17,0.16 -0.18,0.44 -0.02,0.61 0.15,0.17 0.42,0.19 0.59,0.03 z m 6.8,-6.4 4.33,-4.07 c 0.18,-0.17 0.18,-0.43 0.02,-0.6 -0.16,-0.18 -0.42,-0.19 -0.59,-0.03 l -4.33,4.06 c -0.17,0.16 -0.19,0.44 -0.03,0.61 0.16,0.17 0.43,0.19 0.6,0.03 z m 6.8,-6.39 4.33,-4.07 c 0.17,-0.16 0.18,-0.43 0.03,-0.6 -0.16,-0.18 -0.43,-0.19 -0.6,-0.03 l -4.33,4.06 c -0.16,0.16 -0.17,0.44 -0.02,0.61 0.15,0.17 0.42,0.19 0.59,0.03 z m 6.81,-6.4 3.44,-3.24 c 0.17,-0.16 0.19,-0.43 0.03,-0.6 -0.16,-0.18 -0.42,-0.19 -0.6,-0.03 l -3.44,3.23 c -0.17,0.17 -0.19,0.44 -0.02,0.61 0.16,0.17 0.42,0.19 0.59,0.03 z"
       inkscape:connector-curvature="0"
       id="path604"
       style="fill:none;stroke:#000000;stroke-width:0.14;stroke-linecap:round;stroke-linejoin:round;stroke-miterlimit:8;stroke-opacity:1;stroke-dasharray:none" /><path
       d="m 625.75,510.45 4.34,-4.07 c 0.16,-0.17 0.17,-0.43 0.01,-0.61 -0.15,-0.17 -0.42,-0.18 -0.59,-0.03 l -4.33,4.07 c -0.17,0.16 -0.18,0.43 -0.03,0.61 0.16,0.17 0.43,0.18 0.6,0.03 z m 6.8,-6.4 4.33,-4.07 c 0.17,-0.17 0.19,-0.43 0.03,-0.61 -0.16,-0.17 -0.43,-0.18 -0.6,-0.03 l -4.33,4.07 c -0.17,0.17 -0.18,0.44 -0.02,0.61 0.16,0.17 0.42,0.18 0.59,0.03 z m 6.8,-6.39 4.33,-4.07 c 0.18,-0.17 0.18,-0.43 0.02,-0.61 -0.16,-0.17 -0.42,-0.18 -0.59,-0.02 l -4.33,4.06 c -0.17,0.16 -0.18,0.44 -0.03,0.61 0.16,0.17 0.43,0.18 0.6,0.03 z m 6.81,-6.39 4.33,-4.08 c 0.17,-0.17 0.18,-0.43 0.03,-0.61 -0.16,-0.17 -0.43,-0.18 -0.6,-0.02 l -4.33,4.07 c -0.17,0.16 -0.18,0.44 -0.02,0.61 0.15,0.17 0.42,0.19 0.59,0.03 z m 6.8,-6.4 4.33,-4.07 c 0.18,-0.17 0.18,-0.43 0.02,-0.6 -0.16,-0.18 -0.42,-0.19 -0.59,-0.03 l -4.33,4.06 c -0.17,0.16 -0.19,0.44 -0.03,0.61 0.16,0.17 0.43,0.19 0.6,0.03 z m 6.8,-6.39 4.33,-4.07 c 0.17,-0.16 0.18,-0.43 0.03,-0.6 -0.16,-0.18 -0.43,-0.19 -0.6,-0.03 l -4.33,4.06 c -0.16,0.16 -0.17,0.44 -0.02,0.61 0.15,0.17 0.42,0.19 0.59,0.03 z m 6.81,-6.4 3.44,-3.24 c 0.17,-0.16 0.19,-0.43 0.03,-0.6 -0.16,-0.18 -0.42,-0.19 -0.6,-0.03 l -3.44,3.23 c -0.17,0.17 -0.19,0.44 -0.02,0.61 0.16,0.17 0.42,0.19 0.59,0.03 z"
       inkscape:connector-curvature="0"
       id="path606"
       style="fill:none;stroke:#000000;stroke-width:0.14;stroke-linecap:round;stroke-linejoin:round;stroke-miterlimit:8;stroke-opacity:1;stroke-dasharray:none" /><path
       d="m 590.35,370.4 c -3.34,0 -6.05,-3.09 -6.05,-6.9 0,-3.81 2.71,-6.9 6.05,-6.9 3.34,0 6.05,3.09 6.05,6.9 0,3.81 -2.71,6.9 -6.05,6.9 z"
       inkscape:connector-curvature="0"
       id="path608"
       style="fill:#ffffff;fill-opacity:1;fill-rule:evenodd;stroke:none" /><path
       d="m 590.35,370.4 c -3.34,0 -6.05,-3.09 -6.05,-6.9 0,-3.81 2.71,-6.9 6.05,-6.9 3.34,0 6.05,3.09 6.05,6.9 0,3.81 -2.71,6.9 -6.05,6.9 z"
       inkscape:connector-curvature="0"
       id="path610"
       style="fill:none;stroke:#000000;stroke-width:0.14;stroke-linecap:round;stroke-linejoin:round;stroke-miterlimit:8;stroke-opacity:1;stroke-dasharray:none" /><path
       d="m 590.35,370.4 c -3.34,0 -6.05,-3.09 -6.05,-6.9 0,-3.81 2.71,-6.9 6.05,-6.9 3.34,0 6.05,3.09 6.05,6.9 0,3.81 -2.71,6.9 -6.05,6.9 z"
       inkscape:connector-curvature="0"
       id="path612"
       style="fill:none;stroke:#000000;stroke-width:0.14;stroke-linecap:round;stroke-linejoin:round;stroke-miterlimit:8;stroke-opacity:1;stroke-dasharray:none" /><path
       d="m 590.35,370.4 c -3.34,0 -6.05,-3.09 -6.05,-6.9 0,-3.81 2.71,-6.9 6.05,-6.9 3.34,0 6.05,3.09 6.05,6.9 0,3.81 -2.71,6.9 -6.05,6.9 z"
       inkscape:connector-curvature="0"
       id="path614"
       style="fill:none;stroke:#000000;stroke-width:0.14;stroke-linecap:round;stroke-linejoin:round;stroke-miterlimit:8;stroke-opacity:1;stroke-dasharray:none" /><path
       d="m 604.3,370.7 c -3.34,0 -6.05,-3.09 -6.05,-6.9 0,-3.81 2.71,-6.9 6.05,-6.9 3.34,0 6.05,3.09 6.05,6.9 0,3.81 -2.71,6.9 -6.05,6.9 z"
       inkscape:connector-curvature="0"
       id="path616"
       style="fill:#ffffff;fill-opacity:1;fill-rule:evenodd;stroke:none" /><path
       d="m 604.3,370.7 c -3.34,0 -6.05,-3.09 -6.05,-6.9 0,-3.81 2.71,-6.9 6.05,-6.9 3.34,0 6.05,3.09 6.05,6.9 0,3.81 -2.71,6.9 -6.05,6.9 z"
       inkscape:connector-curvature="0"
       id="path618"
       style="fill:none;stroke:#000000;stroke-width:0.14;stroke-linecap:round;stroke-linejoin:round;stroke-miterlimit:8;stroke-opacity:1;stroke-dasharray:none" /><path
       d="m 604.3,370.7 c -3.34,0 -6.05,-3.09 -6.05,-6.9 0,-3.81 2.71,-6.9 6.05,-6.9 3.34,0 6.05,3.09 6.05,6.9 0,3.81 -2.71,6.9 -6.05,6.9 z"
       inkscape:connector-curvature="0"
       id="path620"
       style="fill:none;stroke:#000000;stroke-width:0.14;stroke-linecap:round;stroke-linejoin:round;stroke-miterlimit:8;stroke-opacity:1;stroke-dasharray:none" /><path
       d="m 604.3,370.7 c -3.34,0 -6.05,-3.09 -6.05,-6.9 0,-3.81 2.71,-6.9 6.05,-6.9 3.34,0 6.05,3.09 6.05,6.9 0,3.81 -2.71,6.9 -6.05,6.9 z"
       inkscape:connector-curvature="0"
       id="path622"
       style="fill:none;stroke:#000000;stroke-width:0.14;stroke-linecap:round;stroke-linejoin:round;stroke-miterlimit:8;stroke-opacity:1;stroke-dasharray:none" /><path
       d="m 632.4,370.1 c -3.34,0 -6.05,-3.09 -6.05,-6.9 0,-3.81 2.71,-6.9 6.05,-6.9 3.34,0 6.05,3.09 6.05,6.9 0,3.81 -2.71,6.9 -6.05,6.9 z"
       inkscape:connector-curvature="0"
       id="path624"
       style="fill:#ffffff;fill-opacity:1;fill-rule:evenodd;stroke:none" /><path
       d="m 632.4,370.1 c -3.34,0 -6.05,-3.09 -6.05,-6.9 0,-3.81 2.71,-6.9 6.05,-6.9 3.34,0 6.05,3.09 6.05,6.9 0,3.81 -2.71,6.9 -6.05,6.9 z"
       inkscape:connector-curvature="0"
       id="path626"
       style="fill:none;stroke:#000000;stroke-width:0.14;stroke-linecap:round;stroke-linejoin:round;stroke-miterlimit:8;stroke-opacity:1;stroke-dasharray:none" /><path
       d="m 632.4,370.1 c -3.34,0 -6.05,-3.09 -6.05,-6.9 0,-3.81 2.71,-6.9 6.05,-6.9 3.34,0 6.05,3.09 6.05,6.9 0,3.81 -2.71,6.9 -6.05,6.9 z"
       inkscape:connector-curvature="0"
       id="path628"
       style="fill:none;stroke:#000000;stroke-width:0.14;stroke-linecap:round;stroke-linejoin:round;stroke-miterlimit:8;stroke-opacity:1;stroke-dasharray:none" /><path
       d="m 632.4,370.1 c -3.34,0 -6.05,-3.09 -6.05,-6.9 0,-3.81 2.71,-6.9 6.05,-6.9 3.34,0 6.05,3.09 6.05,6.9 0,3.81 -2.71,6.9 -6.05,6.9 z"
       inkscape:connector-curvature="0"
       id="path630"
       style="fill:none;stroke:#000000;stroke-width:0.14;stroke-linecap:round;stroke-linejoin:round;stroke-miterlimit:8;stroke-opacity:1;stroke-dasharray:none" /><path
       d="m 676.75,370.55 c -3.34,0 -6.05,-3.1 -6.05,-6.92 0,-3.83 2.71,-6.93 6.05,-6.93 3.34,0 6.05,3.1 6.05,6.93 0,3.82 -2.71,6.92 -6.05,6.92 z"
       inkscape:connector-curvature="0"
       id="path632"
       style="fill:#ffffff;fill-opacity:1;fill-rule:evenodd;stroke:none" /><path
       d="m 676.75,370.55 c -3.34,0 -6.05,-3.1 -6.05,-6.92 0,-3.83 2.71,-6.93 6.05,-6.93 3.34,0 6.05,3.1 6.05,6.93 0,3.82 -2.71,6.92 -6.05,6.92 z"
       inkscape:connector-curvature="0"
       id="path634"
       style="fill:none;stroke:#000000;stroke-width:0.14;stroke-linecap:round;stroke-linejoin:round;stroke-miterlimit:8;stroke-opacity:1;stroke-dasharray:none" /><path
       d="m 676.75,370.55 c -3.34,0 -6.05,-3.1 -6.05,-6.92 0,-3.83 2.71,-6.93 6.05,-6.93 3.34,0 6.05,3.1 6.05,6.93 0,3.82 -2.71,6.92 -6.05,6.92 z"
       inkscape:connector-curvature="0"
       id="path636"
       style="fill:none;stroke:#000000;stroke-width:0.14;stroke-linecap:round;stroke-linejoin:round;stroke-miterlimit:8;stroke-opacity:1;stroke-dasharray:none" /><path
       d="m 676.75,370.55 c -3.34,0 -6.05,-3.1 -6.05,-6.92 0,-3.83 2.71,-6.93 6.05,-6.93 3.34,0 6.05,3.1 6.05,6.93 0,3.82 -2.71,6.92 -6.05,6.92 z"
       inkscape:connector-curvature="0"
       id="path638"
       style="fill:none;stroke:#000000;stroke-width:0.14;stroke-linecap:round;stroke-linejoin:round;stroke-miterlimit:8;stroke-opacity:1;stroke-dasharray:none" /><path
       d="m 730.95,370.75 c -3.34,0 -6.05,-3.09 -6.05,-6.9 0,-3.81 2.71,-6.9 6.05,-6.9 3.34,0 6.05,3.09 6.05,6.9 0,3.81 -2.71,6.9 -6.05,6.9 z"
       inkscape:connector-curvature="0"
       id="path640"
       style="fill:#ffffff;fill-opacity:1;fill-rule:evenodd;stroke:none" /><path
       d="m 730.95,370.75 c -3.34,0 -6.05,-3.09 -6.05,-6.9 0,-3.81 2.71,-6.9 6.05,-6.9 3.34,0 6.05,3.09 6.05,6.9 0,3.81 -2.71,6.9 -6.05,6.9 z"
       inkscape:connector-curvature="0"
       id="path642"
       style="fill:none;stroke:#000000;stroke-width:0.14;stroke-linecap:round;stroke-linejoin:round;stroke-miterlimit:8;stroke-opacity:1;stroke-dasharray:none" /><path
       d="m 730.95,370.75 c -3.34,0 -6.05,-3.09 -6.05,-6.9 0,-3.81 2.71,-6.9 6.05,-6.9 3.34,0 6.05,3.09 6.05,6.9 0,3.81 -2.71,6.9 -6.05,6.9 z"
       inkscape:connector-curvature="0"
       id="path644"
       style="fill:none;stroke:#000000;stroke-width:0.14;stroke-linecap:round;stroke-linejoin:round;stroke-miterlimit:8;stroke-opacity:1;stroke-dasharray:none" /><path
       d="m 730.95,370.75 c -3.34,0 -6.05,-3.09 -6.05,-6.9 0,-3.81 2.71,-6.9 6.05,-6.9 3.34,0 6.05,3.09 6.05,6.9 0,3.81 -2.71,6.9 -6.05,6.9 z"
       inkscape:connector-curvature="0"
       id="path646"
       style="fill:none;stroke:#000000;stroke-width:0.14;stroke-linecap:round;stroke-linejoin:round;stroke-miterlimit:8;stroke-opacity:1;stroke-dasharray:none" /><path
       d="m 490.95,482.1 65.85,0 0,22.5 -65.85,0 0,-22.5 z"
       inkscape:connector-curvature="0"
       id="path648"
       style="fill:#ffffff;fill-opacity:1;fill-rule:evenodd;stroke:none" /><path
       d="m 490.95,482.1 65.85,0 0,22.5 -65.85,0 0,-22.5 z"
       inkscape:connector-curvature="0"
       id="path650"
       style="fill:none;stroke:#ffffff;stroke-width:0.75;stroke-linecap:round;stroke-linejoin:miter;stroke-miterlimit:8;stroke-opacity:1;stroke-dasharray:none" /><path
       d="m 537.05,506.2 c -4.94,0 -8.95,-3.79 -8.95,-8.47 0,-4.69 4.01,-8.48 8.95,-8.48 4.94,0 8.95,3.79 8.95,8.48 0,4.68 -4.01,8.47 -8.95,8.47 z"
       inkscape:connector-curvature="0"
       id="path652"
       style="fill:#ffffff;fill-opacity:1;fill-rule:evenodd;stroke:none" /><path
       d="m 537.05,506.2 c -4.94,0 -8.95,-3.79 -8.95,-8.47 0,-4.69 4.01,-8.48 8.95,-8.48 4.94,0 8.95,3.79 8.95,8.48 0,4.68 -4.01,8.47 -8.95,8.47 z"
       inkscape:connector-curvature="0"
       id="path654"
       style="fill:none;stroke:#ffffff;stroke-width:0.75;stroke-linecap:round;stroke-linejoin:round;stroke-miterlimit:8;stroke-opacity:1;stroke-dasharray:none" /></g></svg>