<?xml version="1.0" encoding="UTF-8" standalone="no"?>
<!-- Created with Inkscape (http://www.inkscape.org/) -->

<svg
   xmlns:dc="http://purl.org/dc/elements/1.1/"
   xmlns:cc="http://creativecommons.org/ns#"
   xmlns:rdf="http://www.w3.org/1999/02/22-rdf-syntax-ns#"
   xmlns:svg="http://www.w3.org/2000/svg"
   xmlns="http://www.w3.org/2000/svg"
   xmlns:sodipodi="http://sodipodi.sourceforge.net/DTD/sodipodi-0.dtd"
   xmlns:inkscape="http://www.inkscape.org/namespaces/inkscape"
   version="1.1"
   width="439.15601"
   height="216.5625"
   id="svg2"
   xml:space="preserve"
   inkscape:version="0.48.4 r9939"
   sodipodi:docname="Bild 5-10 Fat Client.svg"><sodipodi:namedview
     pagecolor="#ffffff"
     bordercolor="#666666"
     borderopacity="1"
     objecttolerance="10"
     gridtolerance="10"
     guidetolerance="10"
     inkscape:pageopacity="0"
     inkscape:pageshadow="2"
     inkscape:window-width="640"
     inkscape:window-height="480"
     id="namedview179"
     showgrid="false"
     inkscape:zoom="0.18730159"
     inkscape:cx="191.25"
     inkscape:cy="288.28125"
     inkscape:window-x="0"
     inkscape:window-y="0"
     inkscape:window-maximized="0"
     inkscape:current-layer="svg2" /><metadata
     id="metadata8"><rdf:RDF><cc:Work
         rdf:about=""><dc:format>image/svg+xml</dc:format><dc:type
           rdf:resource="http://purl.org/dc/dcmitype/StillImage" /></cc:Work></rdf:RDF></metadata><defs
     id="defs6"><clipPath
       id="clipPath18"><path
         d="m 360.41,406.96 200.91,0 0,35.19 -200.91,0 0,-35.19 z"
         inkscape:connector-curvature="0"
         id="path20" /></clipPath><clipPath
       id="clipPath26"><path
         d="m 360.41,406.97 200.9,0 0,35.184 -200.9,0 0,-35.184 z"
         inkscape:connector-curvature="0"
         id="path28" /></clipPath><clipPath
       id="clipPath34"><path
         d="m 360.41,406.97 200.9,0 0,35.184 -200.9,0 0,-35.184 z"
         inkscape:connector-curvature="0"
         id="path36" /></clipPath><clipPath
       id="clipPath46"><path
         d="m 360.41,406.97 200.9,0 0,35.184 -200.9,0 0,-35.184 z"
         inkscape:connector-curvature="0"
         id="path48" /></clipPath><clipPath
       id="clipPath58"><path
         d="m 360.41,406.97 200.9,0 0,35.184 -200.9,0 0,-35.184 z"
         inkscape:connector-curvature="0"
         id="path60" /></clipPath><clipPath
       id="clipPath70"><path
         d="m 360.41,406.97 200.9,0 0,35.184 -200.9,0 0,-35.184 z"
         inkscape:connector-curvature="0"
         id="path72" /></clipPath><clipPath
       id="clipPath82"><path
         d="m 360.41,406.97 200.9,0 0,35.184 -200.9,0 0,-35.184 z"
         inkscape:connector-curvature="0"
         id="path84" /></clipPath><clipPath
       id="clipPath92"><path
         d="m 360.41,363.88 200.91,0 0,35.28 -200.91,0 0,-35.28 z"
         inkscape:connector-curvature="0"
         id="path94" /></clipPath><clipPath
       id="clipPath100"><path
         d="m 360.41,363.89 200.9,0 0,35.28 -200.9,0 0,-35.28 z"
         inkscape:connector-curvature="0"
         id="path102" /></clipPath><clipPath
       id="clipPath108"><path
         d="m 360.41,363.89 200.9,0 0,35.28 -200.9,0 0,-35.28 z"
         inkscape:connector-curvature="0"
         id="path110" /></clipPath><clipPath
       id="clipPath120"><path
         d="m 360.41,363.89 200.9,0 0,35.28 -200.9,0 0,-35.28 z"
         inkscape:connector-curvature="0"
         id="path122" /></clipPath><clipPath
       id="clipPath128"><path
         d="m 360.41,363.89 200.9,0 0,35.28 -200.9,0 0,-35.28 z"
         inkscape:connector-curvature="0"
         id="path130" /></clipPath><clipPath
       id="clipPath138"><path
         d="m 360.41,320.68 200.91,0 0,35.28 -200.91,0 0,-35.28 z"
         inkscape:connector-curvature="0"
         id="path140" /></clipPath><clipPath
       id="clipPath146"><path
         d="m 360.41,320.69 200.9,0 0,35.28 -200.9,0 0,-35.28 z"
         inkscape:connector-curvature="0"
         id="path148" /></clipPath><clipPath
       id="clipPath154"><path
         d="m 360.41,320.69 200.9,0 0,35.28 -200.9,0 0,-35.28 z"
         inkscape:connector-curvature="0"
         id="path156" /></clipPath><clipPath
       id="clipPath166"><path
         d="m 360.41,320.69 200.9,0 0,35.28 -200.9,0 0,-35.28 z"
         inkscape:connector-curvature="0"
         id="path168" /></clipPath><clipPath
       id="clipPath178"><path
         d="m 360.41,320.69 200.9,0 0,35.28 -200.9,0 0,-35.28 z"
         inkscape:connector-curvature="0"
         id="path180" /></clipPath><clipPath
       id="clipPath190"><path
         d="m 360.41,320.69 200.9,0 0,35.28 -200.9,0 0,-35.28 z"
         inkscape:connector-curvature="0"
         id="path192" /></clipPath><clipPath
       id="clipPath202"><path
         d="m 581.96,388.36 166.34,0 0,24.84 -166.34,0 0,-24.84 z"
         inkscape:connector-curvature="0"
         id="path204" /></clipPath><clipPath
       id="clipPath210"><path
         d="m 581.95,388.37 166.34,0 0,24.84 -166.34,0 0,-24.84 z"
         inkscape:connector-curvature="0"
         id="path212" /></clipPath><clipPath
       id="clipPath222"><path
         d="m 581.95,388.37 166.34,0 0,24.84 -166.34,0 0,-24.84 z"
         inkscape:connector-curvature="0"
         id="path224" /></clipPath><clipPath
       id="clipPath234"><path
         d="m 581.95,388.37 166.34,0 0,24.84 -166.34,0 0,-24.84 z"
         inkscape:connector-curvature="0"
         id="path236" /></clipPath><clipPath
       id="clipPath246"><path
         d="m 581.95,388.37 166.34,0 0,24.84 -166.34,0 0,-24.84 z"
         inkscape:connector-curvature="0"
         id="path248" /></clipPath><clipPath
       id="clipPath258"><path
         d="m 582.44,300.88 159.26,0 0,25.68 -159.26,0 0,-25.68 z"
         inkscape:connector-curvature="0"
         id="path260" /></clipPath><clipPath
       id="clipPath266"><path
         d="m 582.43,300.89 159.26,0 0,25.68 -159.26,0 0,-25.68 z"
         inkscape:connector-curvature="0"
         id="path268" /></clipPath><clipPath
       id="clipPath278"><path
         d="m 582.43,300.89 159.26,0 0,25.68 -159.26,0 0,-25.68 z"
         inkscape:connector-curvature="0"
         id="path280" /></clipPath><clipPath
       id="clipPath290"><path
         d="m 582.43,300.89 159.26,0 0,25.68 -159.26,0 0,-25.68 z"
         inkscape:connector-curvature="0"
         id="path292" /></clipPath><clipPath
       id="clipPath302"><path
         d="m 582.43,300.89 159.26,0 0,25.68 -159.26,0 0,-25.68 z"
         inkscape:connector-curvature="0"
         id="path304" /></clipPath><clipPath
       id="clipPath314"><path
         d="m 582.43,300.89 159.26,0 0,25.68 -159.26,0 0,-25.68 z"
         inkscape:connector-curvature="0"
         id="path316" /></clipPath><clipPath
       id="clipPath326"><path
         d="m 360.41,277.72 200.91,0 0,35.4 -200.91,0 0,-35.4 z"
         inkscape:connector-curvature="0"
         id="path328" /></clipPath><clipPath
       id="clipPath334"><path
         d="m 360.41,277.73 200.9,0 0,35.4 -200.9,0 0,-35.4 z"
         inkscape:connector-curvature="0"
         id="path336" /></clipPath><clipPath
       id="clipPath342"><path
         d="m 360.41,277.73 200.9,0 0,35.4 -200.9,0 0,-35.4 z"
         inkscape:connector-curvature="0"
         id="path344" /></clipPath><clipPath
       id="clipPath354"><path
         d="m 360.41,277.73 200.9,0 0,35.4 -200.9,0 0,-35.4 z"
         inkscape:connector-curvature="0"
         id="path356" /></clipPath></defs><g
     transform="matrix(1.25,0,0,-1.25,-439.125,558.28125)"
     id="g10"><path
       d="m 360,403.05 201.6,0 0,43.2 -201.6,0 0,-43.2 z"
       inkscape:connector-curvature="0"
       id="path12"
       style="fill:none;stroke:#000000;stroke-width:0.75;stroke-linecap:round;stroke-linejoin:miter;stroke-miterlimit:10;stroke-opacity:1;stroke-dasharray:none" /><g
       id="g14"><g
         clip-path="url(#clipPath18)"
         id="g16"><g
           id="g22"><g
             clip-path="url(#clipPath26)"
             id="g24" /></g><g
           id="g30"><g
             clip-path="url(#clipPath34)"
             id="g32"><text
   transform="matrix(1,0,0,-1,421.25,418.37)"
   id="text38"><tspan
     x="0 4.4400001 8.8800001"
     y="0"
     id="tspan40"
     style="font-size:15.96000004px;font-variant:normal;font-weight:normal;writing-mode:lr-tb;fill:#000000;fill-opacity:1;fill-rule:nonzero;stroke:none;font-family:Helvetica;-inkscape-font-specification:Helvetica">I/O</tspan></text>

</g></g><g
           id="g42"><g
             clip-path="url(#clipPath46)"
             id="g44"><text
   transform="matrix(1,0,0,-1,442.49,418.37)"
   id="text50"><tspan
     x="0"
     y="0"
     id="tspan52"
     style="font-size:15.96000004px;font-variant:normal;font-weight:normal;writing-mode:lr-tb;fill:#000000;fill-opacity:1;fill-rule:nonzero;stroke:none;font-family:Helvetica;-inkscape-font-specification:Helvetica">-</tspan></text>

</g></g><g
           id="g54"><g
             clip-path="url(#clipPath58)"
             id="g56"><text
   transform="matrix(1,0,0,-1,447.77,418.37)"
   id="text62"><tspan
     x="0"
     y="0"
     id="tspan64"
     style="font-size:15.96000004px;font-variant:normal;font-weight:normal;writing-mode:lr-tb;fill:#000000;fill-opacity:1;fill-rule:nonzero;stroke:none;font-family:Helvetica;-inkscape-font-specification:Helvetica">S</tspan></text>

</g></g><g
           id="g66"><g
             clip-path="url(#clipPath70)"
             id="g68"><text
   transform="matrix(1,0,0,-1,458.45,418.37)"
   id="text74"><tspan
     x="0 8.0278797 16.90164 20.49264 28.520519 37.394279"
     y="0"
     id="tspan76"
     style="font-size:15.96000004px;font-variant:normal;font-weight:normal;writing-mode:lr-tb;fill:#000000;fill-opacity:1;fill-rule:nonzero;stroke:none;font-family:Helvetica;-inkscape-font-specification:Helvetica">chicht</tspan></text>

</g></g><g
           id="g78"><g
             clip-path="url(#clipPath82)"
             id="g80" /></g></g></g><path
       d="m 360,360 201.6,0 0,43.2 -201.6,0 0,-43.2 z"
       inkscape:connector-curvature="0"
       id="path86"
       style="fill:none;stroke:#000000;stroke-width:0.75;stroke-linecap:round;stroke-linejoin:miter;stroke-miterlimit:10;stroke-opacity:1;stroke-dasharray:none" /><g
       id="g88"><g
         clip-path="url(#clipPath92)"
         id="g90"><g
           id="g96"><g
             clip-path="url(#clipPath100)"
             id="g98" /></g><g
           id="g104"><g
             clip-path="url(#clipPath108)"
             id="g106"><text
   transform="matrix(1,0,0,-1,386.09,375.17)"
   id="text112"><tspan
     x="0 10.64532 19.519079 24.833759 33.70752 39.022202 47.895962 56.769718 60.31284 64.781639 73.655403 82.640877 91.514641 99.542519 107.5704 115.59828 124.47204 128.06303 136.09093 144.96468"
     y="0"
     id="tspan114"
     style="font-size:15.96000004px;font-variant:normal;font-weight:normal;writing-mode:lr-tb;fill:#000000;fill-opacity:1;fill-rule:nonzero;stroke:none;font-family:Helvetica;-inkscape-font-specification:Helvetica">Verarbeitungsschicht</tspan></text>

</g></g><g
           id="g116"><g
             clip-path="url(#clipPath120)"
             id="g118" /></g><g
           id="g124"><g
             clip-path="url(#clipPath128)"
             id="g126" /></g></g></g><path
       d="m 360,316.8 201.6,0 0,43.2 -201.6,0 0,-43.2 z"
       inkscape:connector-curvature="0"
       id="path132"
       style="fill:none;stroke:#000000;stroke-width:0.75;stroke-linecap:round;stroke-linejoin:miter;stroke-miterlimit:10;stroke-opacity:1;stroke-dasharray:none" /><g
       id="g134"><g
         clip-path="url(#clipPath138)"
         id="g136"><g
           id="g142"><g
             clip-path="url(#clipPath146)"
             id="g144" /></g><g
           id="g150"><g
             clip-path="url(#clipPath154)"
             id="g152"><text
   transform="matrix(1,0,0,-1,388.73,332.09)"
   id="text158"><tspan
     x="0 11.52 20.39064 24.8244 33.695042"
     y="0"
     id="tspan160"
     style="font-size:15.96000004px;font-variant:normal;font-weight:normal;writing-mode:lr-tb;fill:#000000;fill-opacity:1;fill-rule:nonzero;stroke:none;font-family:Helvetica;-inkscape-font-specification:Helvetica">Daten</tspan></text>

</g></g><g
           id="g162"><g
             clip-path="url(#clipPath166)"
             id="g164"><text
   transform="matrix(1,0,0,-1,431.33,332.09)"
   id="text170"><tspan
     x="0 8.0278797 16.90164 25.7754 31.09008 34.633202 39.07008 43.506962"
     y="0"
     id="tspan172"
     style="font-size:15.96000004px;font-variant:normal;font-weight:normal;writing-mode:lr-tb;fill:#000000;fill-opacity:1;fill-rule:nonzero;stroke:none;font-family:Helvetica;-inkscape-font-specification:Helvetica">zugriffs</tspan></text>

</g></g><g
           id="g174"><g
             clip-path="url(#clipPath178)"
             id="g176"><text
   transform="matrix(1,0,0,-1,482.95,332.09)"
   id="text182"><tspan
     x="0 8.0278797 16.055759 24.92952 28.520519 36.548401 45.422161"
     y="0"
     id="tspan184"
     style="font-size:15.96000004px;font-variant:normal;font-weight:normal;writing-mode:lr-tb;fill:#000000;fill-opacity:1;fill-rule:nonzero;stroke:none;font-family:Helvetica;-inkscape-font-specification:Helvetica">schicht</tspan></text>

</g></g><g
           id="g186"><g
             clip-path="url(#clipPath190)"
             id="g188" /></g></g></g><path
       d="m 561.6,360 c 4.39,0 7.95,-3.18 7.95,-7.1 l 0,-28.4 c 0,-3.92 3.56,-7.1 7.95,-7.1 -4.39,0 -7.95,-3.18 -7.95,-7.1 l 0,-28.4 c 0,-3.92 -3.56,-7.1 -7.95,-7.1"
       inkscape:connector-curvature="0"
       id="path194"
       style="fill:none;stroke:#000000;stroke-width:0.75;stroke-linecap:round;stroke-linejoin:round;stroke-miterlimit:10;stroke-opacity:1;stroke-dasharray:none" /><path
       d="m 560.85,446.1 c 5.22,0 9.45,-3.16 9.45,-7.05 l 0,-28.2 c 0,-3.89 4.23,-7.05 9.45,-7.05 -5.22,0 -9.45,-3.16 -9.45,-7.05 l 0,-28.2 c 0,-3.89 -4.23,-7.05 -9.45,-7.05"
       inkscape:connector-curvature="0"
       id="path196"
       style="fill:none;stroke:#000000;stroke-width:0.75;stroke-linecap:round;stroke-linejoin:round;stroke-miterlimit:10;stroke-opacity:1;stroke-dasharray:none" /><g
       id="g198"><g
         clip-path="url(#clipPath202)"
         id="g200"><g
           id="g206"><g
             clip-path="url(#clipPath210)"
             id="g208"><text
   transform="matrix(1,0,0,-1,589.15,398.45)"
   id="text214"><tspan
     x="0 11.52312 15.09816 18.689159 27.56292 36.43668"
     y="0"
     id="tspan216"
     style="font-size:15.96000004px;font-variant:normal;font-weight:normal;writing-mode:lr-tb;fill:#000000;fill-opacity:1;fill-rule:nonzero;stroke:none;font-family:Helvetica;-inkscape-font-specification:Helvetica">Client</tspan></text>

</g></g><g
           id="g218"><g
             clip-path="url(#clipPath222)"
             id="g220"><text
   transform="matrix(1,0,0,-1,630.07,398.45)"
   id="text226"><tspan
     x="0"
     y="0"
     id="tspan228"
     style="font-size:15.96000004px;font-variant:normal;font-weight:normal;writing-mode:lr-tb;fill:#000000;fill-opacity:1;fill-rule:nonzero;stroke:none;font-family:Helvetica;-inkscape-font-specification:Helvetica">-</tspan></text>

</g></g><g
           id="g230"><g
             clip-path="url(#clipPath234)"
             id="g232"><text
   transform="matrix(1,0,0,-1,635.35,398.45)"
   id="text238"><tspan
     x="0 11.52312 20.396879 28.424761 37.298519 46.172279 55.04604"
     y="0"
     id="tspan240"
     style="font-size:15.96000004px;font-variant:normal;font-weight:normal;writing-mode:lr-tb;fill:#000000;fill-opacity:1;fill-rule:nonzero;stroke:none;font-family:Helvetica;-inkscape-font-specification:Helvetica">Rechner</tspan></text>

</g></g><g
           id="g242"><g
             clip-path="url(#clipPath246)"
             id="g244" /></g></g></g><g
       id="g250"><path
         d="m 352.8,361.65 223.2,0"
         inkscape:connector-curvature="0"
         id="path252"
         style="fill:none;stroke:#000000;stroke-width:3;stroke-linecap:butt;stroke-linejoin:round;stroke-miterlimit:10;stroke-opacity:1;stroke-dasharray:12, 9;stroke-dashoffset:0" /></g><g
       id="g254"><g
         clip-path="url(#clipPath258)"
         id="g256"><g
           id="g262"><g
             clip-path="url(#clipPath266)"
             id="g264"><text
   transform="matrix(1,0,0,-1,589.63,311.93)"
   id="text270"><tspan
     x="0"
     y="0"
     id="tspan272"
     style="font-size:15.96000004px;font-variant:normal;font-weight:normal;writing-mode:lr-tb;fill:#000000;fill-opacity:1;fill-rule:nonzero;stroke:none;font-family:Helvetica;-inkscape-font-specification:Helvetica">S</tspan></text>

</g></g><g
           id="g274"><g
             clip-path="url(#clipPath278)"
             id="g276"><text
   transform="matrix(1,0,0,-1,600.31,311.93)"
   id="text282"><tspan
     x="0 8.8737602 14.18844 22.16844 31.0422"
     y="0"
     id="tspan284"
     style="font-size:15.96000004px;font-variant:normal;font-weight:normal;writing-mode:lr-tb;fill:#000000;fill-opacity:1;fill-rule:nonzero;stroke:none;font-family:Helvetica;-inkscape-font-specification:Helvetica">erver</tspan></text>

</g></g><g
           id="g286"><g
             clip-path="url(#clipPath290)"
             id="g288"><text
   transform="matrix(1,0,0,-1,636.67,311.93)"
   id="text294"><tspan
     x="0"
     y="0"
     id="tspan296"
     style="font-size:15.96000004px;font-variant:normal;font-weight:normal;writing-mode:lr-tb;fill:#000000;fill-opacity:1;fill-rule:nonzero;stroke:none;font-family:Helvetica;-inkscape-font-specification:Helvetica">-</tspan></text>

</g></g><g
           id="g298"><g
             clip-path="url(#clipPath302)"
             id="g300"><text
   transform="matrix(1,0,0,-1,641.95,311.93)"
   id="text306"><tspan
     x="0 11.61888 20.49264 28.520519 37.394279 46.26804 55.1418"
     y="0"
     id="tspan308"
     style="font-size:15.96000004px;font-variant:normal;font-weight:normal;writing-mode:lr-tb;fill:#000000;fill-opacity:1;fill-rule:nonzero;stroke:none;font-family:Helvetica;-inkscape-font-specification:Helvetica">Rechner</tspan></text>

</g></g><g
           id="g310"><g
             clip-path="url(#clipPath314)"
             id="g312" /></g></g></g><path
       d="m 360,273.75 201.6,0 0,43.5 -201.6,0 0,-43.5 z"
       inkscape:connector-curvature="0"
       id="path318"
       style="fill:#ffffff;fill-opacity:1;fill-rule:evenodd;stroke:none" /><path
       d="m 360,273.75 201.6,0 0,43.5 -201.6,0 0,-43.5 z"
       inkscape:connector-curvature="0"
       id="path320"
       style="fill:none;stroke:#000000;stroke-width:0.75;stroke-linecap:round;stroke-linejoin:miter;stroke-miterlimit:8;stroke-opacity:1;stroke-dasharray:none" /><g
       id="g322"><g
         clip-path="url(#clipPath326)"
         id="g324"><g
           id="g330"><g
             clip-path="url(#clipPath334)"
             id="g332" /></g><g
           id="g338"><g
             clip-path="url(#clipPath342)"
             id="g340"><text
   transform="matrix(1,0,0,-1,413.21,289.25)"
   id="text346"><tspan
     x="0 11.52 20.39064 24.8244 33.695042 42.565681 51.436321 60.338879 63.926762 68.360519 77.231163 86.101799"
     y="0"
     id="tspan348"
     style="font-size:15.96000004px;font-variant:normal;font-weight:normal;writing-mode:lr-tb;fill:#000000;fill-opacity:1;fill-rule:nonzero;stroke:none;font-family:Helvetica;-inkscape-font-specification:Helvetica">Datenhaltung</tspan></text>

</g></g><g
           id="g350"><g
             clip-path="url(#clipPath354)"
             id="g352" /></g></g></g></g></svg>