<?xml version="1.0" encoding="UTF-8" standalone="no"?>
<!-- Created with Inkscape (http://www.inkscape.org/) -->

<svg
   xmlns:dc="http://purl.org/dc/elements/1.1/"
   xmlns:cc="http://creativecommons.org/ns#"
   xmlns:rdf="http://www.w3.org/1999/02/22-rdf-syntax-ns#"
   xmlns:svg="http://www.w3.org/2000/svg"
   xmlns="http://www.w3.org/2000/svg"
   xmlns:sodipodi="http://sodipodi.sourceforge.net/DTD/sodipodi-0.dtd"
   xmlns:inkscape="http://www.inkscape.org/namespaces/inkscape"
   version="1.1"
   width="488.1875"
   height="233.4375"
   id="svg2"
   xml:space="preserve"
   inkscape:version="0.48.4 r9939"
   sodipodi:docname="Bild 5-18 Sequenzdiagramm Pull- und Push-Prinzip gemischt.svg"><sodipodi:namedview
     pagecolor="#ffffff"
     bordercolor="#666666"
     borderopacity="1"
     objecttolerance="10"
     gridtolerance="10"
     guidetolerance="10"
     inkscape:pageopacity="0"
     inkscape:pageshadow="2"
     inkscape:window-width="640"
     inkscape:window-height="480"
     id="namedview201"
     showgrid="false"
     inkscape:zoom="0.18730159"
     inkscape:cx="126.78125"
     inkscape:cy="169.21875"
     inkscape:window-x="0"
     inkscape:window-y="0"
     inkscape:window-maximized="0"
     inkscape:current-layer="svg2" /><metadata
     id="metadata8"><rdf:RDF><cc:Work
         rdf:about=""><dc:format>image/svg+xml</dc:format><dc:type
           rdf:resource="http://purl.org/dc/dcmitype/StillImage" /></cc:Work></rdf:RDF></metadata><defs
     id="defs6"><clipPath
       id="clipPath16"><path
         d="m 0.00125,-0.09137 1008.72005,0 0,1008.08997 -1008.72005,0 0,-1008.08997 z"
         inkscape:connector-curvature="0"
         id="path18" /></clipPath><clipPath
       id="clipPath56"><path
         d="m 403.73,532.39 52.68,0 0,18.6 -52.68,0 0,-18.6 z"
         inkscape:connector-curvature="0"
         id="path58" /></clipPath><clipPath
       id="clipPath64"><path
         d="m 403.73,532.39 52.68,0 0,18.6 -52.68,0 0,-18.6 z"
         inkscape:connector-curvature="0"
         id="path66" /></clipPath><clipPath
       id="clipPath76"><path
         d="m 403.73,532.39 52.68,0 0,18.6 -52.68,0 0,-18.6 z"
         inkscape:connector-curvature="0"
         id="path78" /></clipPath><clipPath
       id="clipPath88"><path
         d="m 514.64,532.39 56.76,0 0,18.6 -56.76,0 0,-18.6 z"
         inkscape:connector-curvature="0"
         id="path90" /></clipPath><clipPath
       id="clipPath96"><path
         d="m 514.63,532.39 56.76,0 0,18.6 -56.76,0 0,-18.6 z"
         inkscape:connector-curvature="0"
         id="path98" /></clipPath><clipPath
       id="clipPath108"><path
         d="m 514.63,532.39 56.76,0 0,18.6 -56.76,0 0,-18.6 z"
         inkscape:connector-curvature="0"
         id="path110" /></clipPath><clipPath
       id="clipPath120"><path
         d="m 740.01,532.39 52.68,0 0,18.6 -52.68,0 0,-18.6 z"
         inkscape:connector-curvature="0"
         id="path122" /></clipPath><clipPath
       id="clipPath128"><path
         d="m 740.02,532.39 52.68,0 0,18.6 -52.68,0 0,-18.6 z"
         inkscape:connector-curvature="0"
         id="path130" /></clipPath><clipPath
       id="clipPath140"><path
         d="m 740.02,532.39 52.68,0 0,18.6 -52.68,0 0,-18.6 z"
         inkscape:connector-curvature="0"
         id="path142" /></clipPath><clipPath
       id="clipPath164"><path
         d="m 626.36,532.51 56.055,0 0,18.48 -56.055,0 0,-18.48 z"
         inkscape:connector-curvature="0"
         id="path166" /></clipPath><clipPath
       id="clipPath172"><path
         d="m 626.35,532.51 56.064,0 0,18.48 -56.064,0 0,-18.48 z"
         inkscape:connector-curvature="0"
         id="path174" /></clipPath><clipPath
       id="clipPath184"><path
         d="m 626.35,532.51 56.064,0 0,18.48 -56.064,0 0,-18.48 z"
         inkscape:connector-curvature="0"
         id="path186" /></clipPath><clipPath
       id="clipPath204"><path
         d="m 684.33,381.52 42.48,0 0,10.8 -42.48,0 0,-10.8 z"
         inkscape:connector-curvature="0"
         id="path206" /></clipPath><clipPath
       id="clipPath212"><path
         d="m 684.34,381.53 42.48,0 0,10.8 -42.48,0 0,-10.8 z"
         inkscape:connector-curvature="0"
         id="path214" /></clipPath><clipPath
       id="clipPath224"><path
         d="m 684.34,381.53 42.48,0 0,10.8 -42.48,0 0,-10.8 z"
         inkscape:connector-curvature="0"
         id="path226" /></clipPath><clipPath
       id="clipPath232"><path
         d="m 669.21,406.12 35.88,0 0,10.68 -35.88,0 0,-10.68 z"
         inkscape:connector-curvature="0"
         id="path234" /></clipPath><clipPath
       id="clipPath240"><path
         d="m 669.22,406.13 35.88,0 0,10.68 -35.88,0 0,-10.68 z"
         inkscape:connector-curvature="0"
         id="path242" /></clipPath><clipPath
       id="clipPath252"><path
         d="m 669.22,406.13 35.88,0 0,10.68 -35.88,0 0,-10.68 z"
         inkscape:connector-curvature="0"
         id="path254" /></clipPath><clipPath
       id="clipPath264"><path
         d="m 669.22,406.13 35.88,0 0,10.68 -35.88,0 0,-10.68 z"
         inkscape:connector-curvature="0"
         id="path266" /></clipPath><clipPath
       id="clipPath276"><path
         d="m 669.22,406.13 35.88,0 0,10.68 -35.88,0 0,-10.68 z"
         inkscape:connector-curvature="0"
         id="path278" /></clipPath><clipPath
       id="clipPath286"><path
         d="m 469.04,480.67 44.76,0 0,10.8 -44.76,0 0,-10.8 z"
         inkscape:connector-curvature="0"
         id="path288" /></clipPath><clipPath
       id="clipPath294"><path
         d="m 469.03,480.67 44.76,0 0,10.8 -44.76,0 0,-10.8 z"
         inkscape:connector-curvature="0"
         id="path296" /></clipPath><clipPath
       id="clipPath306"><path
         d="m 469.03,480.67 44.76,0 0,10.8 -44.76,0 0,-10.8 z"
         inkscape:connector-curvature="0"
         id="path308" /></clipPath><clipPath
       id="clipPath328"><path
         d="m 558.68,449.11 36,0 0,10.8 -36,0 0,-10.8 z"
         inkscape:connector-curvature="0"
         id="path330" /></clipPath><clipPath
       id="clipPath336"><path
         d="m 558.67,449.11 36,0 0,10.8 -36,0 0,-10.8 z"
         inkscape:connector-curvature="0"
         id="path338" /></clipPath><clipPath
       id="clipPath348"><path
         d="m 558.67,449.11 36,0 0,10.8 -36,0 0,-10.8 z"
         inkscape:connector-curvature="0"
         id="path350" /></clipPath><clipPath
       id="clipPath374"><path
         d="m 579.68,489.55 48.84,0 0,10.8 -48.84,0 0,-10.8 z"
         inkscape:connector-curvature="0"
         id="path376" /></clipPath><clipPath
       id="clipPath382"><path
         d="m 579.67,489.55 48.84,0 0,10.8 -48.84,0 0,-10.8 z"
         inkscape:connector-curvature="0"
         id="path384" /></clipPath><clipPath
       id="clipPath394"><path
         d="m 579.67,489.55 48.84,0 0,10.8 -48.84,0 0,-10.8 z"
         inkscape:connector-curvature="0"
         id="path396" /></clipPath></defs><g
     transform="matrix(1.25,0,0,-1.25,-503.59375,694.21875)"
     id="g10"><g
       id="g12"><g
         clip-path="url(#clipPath16)"
         id="g14" /></g><path
       d="m 555.7,502 93.15,0 c 0.28,0 0.5,-0.22 0.5,-0.5 0,-0.28 -0.22,-0.5 -0.5,-0.5 l -93.15,0 c -0.28,0 -0.5,0.22 -0.5,0.5 0,0.28 0.22,0.5 0.5,0.5 z m 1,-5.5 -10,5 10,5 0,-10 z"
       inkscape:connector-curvature="0"
       id="path20"
       style="fill:#000000;fill-opacity:1;fill-rule:nonzero;stroke:none" /><path
       d="m 544.25,434.95 7,-0.03 c 0.28,0 0.5,-0.23 0.5,-0.5 0,-0.28 -0.23,-0.5 -0.5,-0.5 l -7,0.03 c -0.28,0 -0.5,0.23 -0.5,0.5 0,0.28 0.23,0.5 0.5,0.5 z m 11,-0.05 7,-0.03 c 0.28,0 0.5,-0.22 0.5,-0.5 0,-0.28 -0.23,-0.5 -0.5,-0.5 l -7,0.03 c -0.28,0 -0.5,0.23 -0.5,0.51 0,0.27 0.23,0.49 0.5,0.49 z m 11,-0.04 7,-0.03 c 0.28,-0.01 0.5,-0.23 0.5,-0.51 0,-0.27 -0.23,-0.5 -0.5,-0.49 l -7,0.03 c -0.28,0 -0.5,0.22 -0.5,0.5 0,0.27 0.23,0.5 0.5,0.5 z m 11,-0.05 7,-0.03 c 0.28,0 0.5,-0.23 0.5,-0.5 0,-0.28 -0.23,-0.5 -0.5,-0.5 l -7,0.03 c -0.28,0 -0.5,0.22 -0.5,0.5 0,0.28 0.23,0.5 0.5,0.5 z m 11,-0.05 7,-0.03 c 0.28,0 0.5,-0.22 0.5,-0.5 0,-0.28 -0.23,-0.5 -0.5,-0.5 l -7,0.03 c -0.28,0 -0.5,0.23 -0.5,0.5 0,0.28 0.23,0.5 0.5,0.5 z m 11,-0.05 7,-0.03 c 0.28,0 0.5,-0.22 0.5,-0.5 0,-0.27 -0.23,-0.5 -0.5,-0.5 l -7,0.03 c -0.28,0.01 -0.5,0.23 -0.5,0.51 0,0.27 0.23,0.5 0.5,0.49 z m 11,-0.04 7,-0.03 c 0.28,0 0.5,-0.23 0.5,-0.5 0,-0.28 -0.23,-0.5 -0.5,-0.5 l -7,0.03 c -0.28,0 -0.5,0.22 -0.5,0.5 0,0.28 0.23,0.5 0.5,0.5 z m 11,-0.05 7,-0.03 c 0.28,0 0.5,-0.23 0.5,-0.5 0,-0.28 -0.23,-0.5 -0.5,-0.5 l -7,0.03 c -0.28,0 -0.5,0.23 -0.5,0.5 0,0.28 0.23,0.5 0.5,0.5 z m 11,-0.05 7,-0.03 c 0.28,0 0.5,-0.22 0.5,-0.5 0,-0.27 -0.23,-0.5 -0.5,-0.5 l -7,0.03 c -0.28,0 -0.5,0.23 -0.5,0.51 0,0.27 0.22,0.49 0.5,0.49 z m 11,-0.04 4.05,-0.02 c 0.28,0 0.5,-0.23 0.5,-0.5 0,-0.28 -0.23,-0.5 -0.5,-0.5 l -4.05,0.02 c -0.28,0 -0.5,0.22 -0.5,0.5 0,0.27 0.22,0.5 0.5,0.5 z m -4.68,4.95 9.76,-5.48 -9.81,-5.39 c -0.24,-0.13 -0.55,-0.05 -0.68,0.2 -0.13,0.24 -0.04,0.54 0.2,0.68 l 9.02,4.96 0,-0.88 -8.98,5.04 c -0.24,0.14 -0.33,0.44 -0.19,0.68 0.13,0.24 0.44,0.33 0.68,0.19 z"
       inkscape:connector-curvature="0"
       id="path22"
       style="fill:#000000;fill-opacity:1;fill-rule:nonzero;stroke:none" /><path
       d="m 654.1,420.55 4.25,0 0,9.05 -4.25,0 0,-9.05 z"
       inkscape:connector-curvature="0"
       id="path24"
       style="fill:#ffffff;fill-opacity:1;fill-rule:evenodd;stroke:none" /><path
       d="m 654.1,420.55 4.25,0 0,9.05 -4.25,0 0,-9.05 z"
       inkscape:connector-curvature="0"
       id="path26"
       style="fill:none;stroke:#000000;stroke-width:0.75;stroke-linecap:round;stroke-linejoin:miter;stroke-miterlimit:10;stroke-opacity:1;stroke-dasharray:none" /><path
       d="m 654.1,393.55 4.25,0 0,9.05 -4.25,0 0,-9.05 z"
       inkscape:connector-curvature="0"
       id="path28"
       style="fill:#ffffff;fill-opacity:1;fill-rule:evenodd;stroke:none" /><path
       d="m 654.1,393.55 4.25,0 0,9.05 -4.25,0 0,-9.05 z"
       inkscape:connector-curvature="0"
       id="path30"
       style="fill:none;stroke:#000000;stroke-width:0.75;stroke-linecap:round;stroke-linejoin:miter;stroke-miterlimit:10;stroke-opacity:1;stroke-dasharray:none" /><g
       id="g32"><path
         d="M 654.1,528.6 654.15,369"
         inkscape:connector-curvature="0"
         id="path34"
         style="fill:none;stroke:#000000;stroke-width:0.75;stroke-linecap:round;stroke-linejoin:round;stroke-miterlimit:10;stroke-opacity:1;stroke-dasharray:5.25, 3;stroke-dashoffset:0" /></g><path
       d="m 648.85,378 9.45,0 0,135.3 -9.45,0 0,-135.3 z"
       inkscape:connector-curvature="0"
       id="path36"
       style="fill:#ffffff;fill-opacity:1;fill-rule:evenodd;stroke:none" /><path
       d="m 648.85,378 9.45,0 0,135.3 -9.45,0 0,-135.3 z"
       inkscape:connector-curvature="0"
       id="path38"
       style="fill:none;stroke:#000000;stroke-width:0.75;stroke-linecap:round;stroke-linejoin:miter;stroke-miterlimit:10;stroke-opacity:1;stroke-dasharray:none" /><path
       d="m 543,463.55 4.2499,0 0,9.05 -4.2499,0 0,-9.05 z"
       inkscape:connector-curvature="0"
       id="path40"
       style="fill:#ffffff;fill-opacity:1;fill-rule:evenodd;stroke:none" /><path
       d="m 543,463.55 4.2499,0 0,9.05 -4.2499,0 0,-9.05 z"
       inkscape:connector-curvature="0"
       id="path42"
       style="fill:none;stroke:#000000;stroke-width:0.75;stroke-linecap:round;stroke-linejoin:miter;stroke-miterlimit:10;stroke-opacity:1;stroke-dasharray:none" /><path
       d="m 543,436.55 4.2499,0 0,9.05 -4.2499,0 0,-9.05 z"
       inkscape:connector-curvature="0"
       id="path44"
       style="fill:#ffffff;fill-opacity:1;fill-rule:evenodd;stroke:none" /><path
       d="m 543,436.55 4.2499,0 0,9.05 -4.2499,0 0,-9.05 z"
       inkscape:connector-curvature="0"
       id="path46"
       style="fill:none;stroke:#000000;stroke-width:0.75;stroke-linecap:round;stroke-linejoin:miter;stroke-miterlimit:10;stroke-opacity:1;stroke-dasharray:none" /><path
       d="m 403.25,528.4 53.5,0 0,26.6 -53.5,0 0,-26.6 z"
       inkscape:connector-curvature="0"
       id="path48"
       style="fill:#ffffff;fill-opacity:1;fill-rule:evenodd;stroke:none" /><path
       d="m 403.25,528.4 53.5,0 0,26.6 -53.5,0 0,-26.6 z"
       inkscape:connector-curvature="0"
       id="path50"
       style="fill:none;stroke:#000000;stroke-width:0.75;stroke-linecap:round;stroke-linejoin:miter;stroke-miterlimit:10;stroke-opacity:1;stroke-dasharray:none" /><g
       id="g52"><g
         clip-path="url(#clipPath56)"
         id="g54"><g
           id="g60"><g
             clip-path="url(#clipPath64)"
             id="g62"><text
   transform="matrix(1,0,0,-1,411.05,539.83)"
   id="text68"><tspan
     x="0 3.336 12.708 19.416 26.124001 28.788 31.403999"
     y="0"
     id="tspan70"
     style="font-size:12px;font-variant:normal;font-weight:normal;writing-mode:lr-tb;fill:#000000;fill-opacity:1;fill-rule:nonzero;stroke:none;font-family:Helvetica;-inkscape-font-specification:Helvetica">:Quelle</tspan></text>

</g></g><g
           id="g72"><g
             clip-path="url(#clipPath76)"
             id="g74" /></g></g></g><path
       d="m 514.1,528.4 57.65,0 0,26.6 -57.65,0 0,-26.6 z"
       inkscape:connector-curvature="0"
       id="path80"
       style="fill:#ffffff;fill-opacity:1;fill-rule:evenodd;stroke:none" /><path
       d="m 514.1,528.4 57.65,0 0,26.6 -57.65,0 0,-26.6 z"
       inkscape:connector-curvature="0"
       id="path82"
       style="fill:none;stroke:#000000;stroke-width:0.75;stroke-linecap:round;stroke-linejoin:miter;stroke-miterlimit:10;stroke-opacity:1;stroke-dasharray:none" /><g
       id="g84"><g
         clip-path="url(#clipPath88)"
         id="g86"><g
           id="g92"><g
             clip-path="url(#clipPath96)"
             id="g94"><text
   transform="matrix(1,0,0,-1,522.91,539.83)"
   id="text100"><tspan
     x="0 3.336 10.668 13.332 15.96 19.296 26.028 30.024 33.360001"
     y="0"
     id="tspan102"
     style="font-size:12px;font-variant:normal;font-weight:normal;writing-mode:lr-tb;fill:#000000;fill-opacity:1;fill-rule:nonzero;stroke:none;font-family:Helvetica;-inkscape-font-specification:Helvetica">:Filter 1</tspan></text>

</g></g><g
           id="g104"><g
             clip-path="url(#clipPath108)"
             id="g106" /></g></g></g><path
       d="m 739.55,528.4 53.5,0 0,26.6 -53.5,0 0,-26.6 z"
       inkscape:connector-curvature="0"
       id="path112"
       style="fill:#ffffff;fill-opacity:1;fill-rule:evenodd;stroke:none" /><path
       d="m 739.55,528.4 53.5,0 0,26.6 -53.5,0 0,-26.6 z"
       inkscape:connector-curvature="0"
       id="path114"
       style="fill:none;stroke:#000000;stroke-width:0.75;stroke-linecap:round;stroke-linejoin:miter;stroke-miterlimit:10;stroke-opacity:1;stroke-dasharray:none" /><g
       id="g116"><g
         clip-path="url(#clipPath120)"
         id="g118"><g
           id="g124"><g
             clip-path="url(#clipPath128)"
             id="g126"><text
   transform="matrix(1,0,0,-1,747.7,539.83)"
   id="text132"><tspan
     x="0 3.336 11.388 18.096001 24.804001 30.684"
     y="0"
     id="tspan134"
     style="font-size:12px;font-variant:normal;font-weight:normal;writing-mode:lr-tb;fill:#000000;fill-opacity:1;fill-rule:nonzero;stroke:none;font-family:Helvetica;-inkscape-font-specification:Helvetica">:Senke</tspan></text>

</g></g><g
           id="g136"><g
             clip-path="url(#clipPath140)"
             id="g138" /></g></g></g><g
       id="g144"><path
         d="m 430,528.6 0.05,-159.1"
         inkscape:connector-curvature="0"
         id="path146"
         style="fill:none;stroke:#000000;stroke-width:0.75;stroke-linecap:round;stroke-linejoin:round;stroke-miterlimit:10;stroke-opacity:1;stroke-dasharray:5.25, 3;stroke-dashoffset:0" /></g><g
       id="g148"><path
         d="M 543,528.15 543.55,369.5"
         inkscape:connector-curvature="0"
         id="path150"
         style="fill:none;stroke:#000000;stroke-width:0.75;stroke-linecap:round;stroke-linejoin:round;stroke-miterlimit:10;stroke-opacity:1;stroke-dasharray:5.25, 3;stroke-dashoffset:0" /></g><path
       d="m 538.25,423 9,0 0,81.9 -9,0 0,-81.9 z"
       inkscape:connector-curvature="0"
       id="path152"
       style="fill:#ffffff;fill-opacity:1;fill-rule:evenodd;stroke:none" /><path
       d="m 538.25,423 9,0 0,81.9 -9,0 0,-81.9 z"
       inkscape:connector-curvature="0"
       id="path154"
       style="fill:none;stroke:#000000;stroke-width:0.75;stroke-linecap:round;stroke-linejoin:miter;stroke-miterlimit:10;stroke-opacity:1;stroke-dasharray:none" /><path
       d="m 625.85,528.6 56.85,0 0,26.4 -56.85,0 0,-26.4 z"
       inkscape:connector-curvature="0"
       id="path156"
       style="fill:#ffffff;fill-opacity:1;fill-rule:evenodd;stroke:none" /><path
       d="m 625.85,528.6 56.85,0 0,26.4 -56.85,0 0,-26.4 z"
       inkscape:connector-curvature="0"
       id="path158"
       style="fill:none;stroke:#000000;stroke-width:0.75;stroke-linecap:round;stroke-linejoin:miter;stroke-miterlimit:10;stroke-opacity:1;stroke-dasharray:none" /><g
       id="g160"><g
         clip-path="url(#clipPath164)"
         id="g162"><g
           id="g168"><g
             clip-path="url(#clipPath172)"
             id="g170"><text
   transform="matrix(1,0,0,-1,634.39,539.95)"
   id="text176"><tspan
     x="0 3.336 10.668 13.332 15.96 19.296 26.028 30.024 33.360001"
     y="0"
     id="tspan178"
     style="font-size:12px;font-variant:normal;font-weight:normal;writing-mode:lr-tb;fill:#000000;fill-opacity:1;fill-rule:nonzero;stroke:none;font-family:Helvetica;-inkscape-font-specification:Helvetica">:Filter 2</tspan></text>

</g></g><g
           id="g180"><g
             clip-path="url(#clipPath184)"
             id="g182" /></g></g></g><g
       id="g188"><path
         d="M 766.25,528.3 765.8,369.5"
         inkscape:connector-curvature="0"
         id="path190"
         style="fill:none;stroke:#000000;stroke-width:0.75;stroke-linecap:round;stroke-linejoin:round;stroke-miterlimit:10;stroke-opacity:1;stroke-dasharray:5.25, 3;stroke-dashoffset:0" /></g><path
       d="m 761.5,381 9,0 0,141 -9,0 0,-141 z"
       inkscape:connector-curvature="0"
       id="path192"
       style="fill:#ffffff;fill-opacity:1;fill-rule:evenodd;stroke:none" /><path
       d="m 761.5,381 9,0 0,141 -9,0 0,-141 z"
       inkscape:connector-curvature="0"
       id="path194"
       style="fill:none;stroke:#000000;stroke-width:0.75;stroke-linecap:round;stroke-linejoin:miter;stroke-miterlimit:10;stroke-opacity:1;stroke-dasharray:none" /><path
       d="m 425.25,380.5 9,0 0,141.5 -9,0 0,-141.5 z"
       inkscape:connector-curvature="0"
       id="path196"
       style="fill:#ffffff;fill-opacity:1;fill-rule:evenodd;stroke:none" /><path
       d="m 425.25,380.5 9,0 0,141.5 -9,0 0,-141.5 z"
       inkscape:connector-curvature="0"
       id="path198"
       style="fill:none;stroke:#000000;stroke-width:0.75;stroke-linecap:round;stroke-linejoin:miter;stroke-miterlimit:10;stroke-opacity:1;stroke-dasharray:none" /><g
       id="g200"><g
         clip-path="url(#clipPath204)"
         id="g202"><g
           id="g208"><g
             clip-path="url(#clipPath212)"
             id="g210"><text
   transform="matrix(1,0,0,-1,691.66,383.09)"
   id="text216"><tspan
     x="0 7.0815601 10.42812 12.699 15.46788 21.00564 24.322321"
     y="0"
     id="tspan218"
     style="font-size:9.96000004px;font-variant:normal;font-weight:normal;writing-mode:lr-tb;fill:#000000;fill-opacity:1;fill-rule:nonzero;stroke:none;font-family:Helvetica;-inkscape-font-specification:Helvetica">write()</tspan></text>

</g></g><g
           id="g220"><g
             clip-path="url(#clipPath224)"
             id="g222" /></g></g></g><g
       id="g228"><g
         clip-path="url(#clipPath232)"
         id="g230"><g
           id="g236"><g
             clip-path="url(#clipPath240)"
             id="g238"><text
   transform="matrix(1,0,0,-1,681.22,409.37)"
   id="text244"><tspan
     x="0"
     y="0"
     id="tspan246"
     style="font-size:8.03999996px;font-variant:normal;font-weight:normal;writing-mode:lr-tb;fill:#000000;fill-opacity:1;fill-rule:nonzero;stroke:none;font-family:Helvetica;-inkscape-font-specification:Helvetica">f</tspan></text>

</g></g><g
           id="g248"><g
             clip-path="url(#clipPath252)"
             id="g250"><text
   transform="matrix(1,0,0,-1,683.5,409.37)"
   id="text256"><tspan
     x="0"
     y="0"
     id="tspan258"
     style="font-size:8.03999996px;font-variant:normal;font-weight:normal;writing-mode:lr-tb;fill:#000000;fill-opacity:1;fill-rule:nonzero;stroke:none;font-family:Helvetica;-inkscape-font-specification:Helvetica">2</tspan></text>

</g></g><g
           id="g260"><g
             clip-path="url(#clipPath264)"
             id="g262"><text
   transform="matrix(1,0,0,-1,687.94,409.37)"
   id="text268"><tspan
     x="0 2.6400199"
     y="0"
     id="tspan270"
     style="font-size:8.03999996px;font-variant:normal;font-weight:normal;writing-mode:lr-tb;fill:#000000;fill-opacity:1;fill-rule:nonzero;stroke:none;font-family:Helvetica;-inkscape-font-specification:Helvetica">()</tspan></text>

</g></g><g
           id="g272"><g
             clip-path="url(#clipPath276)"
             id="g274" /></g></g></g><path
       d="m 443.25,493.1 95,0 c 0.28,0 0.5,-0.22 0.5,-0.5 0,-0.28 -0.22,-0.5 -0.5,-0.5 l -95,0 c -0.28,0 -0.5,0.22 -0.5,0.5 0,0.28 0.22,0.5 0.5,0.5 z m 1,-5.5 -10,5 10,5 0,-10 z"
       inkscape:connector-curvature="0"
       id="path280"
       style="fill:#000000;fill-opacity:1;fill-rule:nonzero;stroke:none" /><g
       id="g282"><g
         clip-path="url(#clipPath286)"
         id="g284"><g
           id="g290"><g
             clip-path="url(#clipPath294)"
             id="g292"><text
   transform="matrix(1,0,0,-1,476.23,482.23)"
   id="text298"><tspan
     x="0 3.34656 8.8843203 14.38224 19.92 23.236679"
     y="0"
     id="tspan300"
     style="font-size:9.96000004px;font-variant:normal;font-weight:normal;writing-mode:lr-tb;fill:#000000;fill-opacity:1;fill-rule:nonzero;stroke:none;font-family:Helvetica;-inkscape-font-specification:Helvetica">read()</tspan></text>

</g></g><g
           id="g302"><g
             clip-path="url(#clipPath306)"
             id="g304" /></g></g></g><path
       d="m 543.25,454.6 9,0 0,9 -9,0 0,-9 z"
       inkscape:connector-curvature="0"
       id="path310"
       style="fill:#ffffff;fill-opacity:1;fill-rule:evenodd;stroke:none" /><path
       d="m 543.25,454.6 9,0 0,9 -9,0 0,-9 z"
       inkscape:connector-curvature="0"
       id="path312"
       style="fill:none;stroke:#000000;stroke-width:0.75;stroke-linecap:round;stroke-linejoin:miter;stroke-miterlimit:10;stroke-opacity:1;stroke-dasharray:none" /><path
       d="m 547.3,468.6 22.95,0 c 0.28,0 0.5,-0.22 0.5,-0.5 l 0,-9 c 0,-0.28 -0.22,-0.5 -0.5,-0.5 l -9,0 c -0.28,0 -0.5,0.22 -0.5,0.5 0,0.28 0.22,0.5 0.5,0.5 l 9,0 -0.5,-0.5 0,9 0.5,-0.5 -22.95,0 c -0.28,0 -0.5,0.22 -0.5,0.5 0,0.28 0.22,0.5 0.5,0.5 z m 14.95,-14.5 -10,5 10,5 0,-10 z"
       inkscape:connector-curvature="0"
       id="path314"
       style="fill:#000000;fill-opacity:1;fill-rule:nonzero;stroke:none" /><path
       d="m 543.25,445.6 9,0 0,9 -9,0 0,-9 z"
       inkscape:connector-curvature="0"
       id="path316"
       style="fill:#ffffff;fill-opacity:1;fill-rule:evenodd;stroke:none" /><path
       d="m 543.25,445.6 9,0 0,9 -9,0 0,-9 z"
       inkscape:connector-curvature="0"
       id="path318"
       style="fill:none;stroke:#000000;stroke-width:0.75;stroke-linecap:round;stroke-linejoin:miter;stroke-miterlimit:10;stroke-opacity:1;stroke-dasharray:none" /><path
       d="m 543,445.6 9,0 0,18 -9,0 0,-18 z"
       inkscape:connector-curvature="0"
       id="path320"
       style="fill:#ffffff;fill-opacity:1;fill-rule:evenodd;stroke:none" /><path
       d="m 543,445.6 9,0 0,18 -9,0 0,-18 z"
       inkscape:connector-curvature="0"
       id="path322"
       style="fill:none;stroke:#000000;stroke-width:0.75;stroke-linecap:round;stroke-linejoin:miter;stroke-miterlimit:10;stroke-opacity:1;stroke-dasharray:none" /><g
       id="g324"><g
         clip-path="url(#clipPath328)"
         id="g326"><g
           id="g332"><g
             clip-path="url(#clipPath336)"
             id="g334"><text
   transform="matrix(1,0,0,-1,570.67,452.59)"
   id="text340"><tspan
     x="0 2.2753201 6.7133999 9.3505201"
     y="0"
     id="tspan342"
     style="font-size:8.03999996px;font-variant:normal;font-weight:normal;writing-mode:lr-tb;fill:#000000;fill-opacity:1;fill-rule:nonzero;stroke:none;font-family:Helvetica;-inkscape-font-specification:Helvetica">f1()</tspan></text>

</g></g><g
           id="g344"><g
             clip-path="url(#clipPath348)"
             id="g346" /></g></g></g><path
       d="m 654.35,402.6 9,0 0,9 -9,0 0,-9 z"
       inkscape:connector-curvature="0"
       id="path352"
       style="fill:#ffffff;fill-opacity:1;fill-rule:evenodd;stroke:none" /><path
       d="m 654.35,402.6 9,0 0,9 -9,0 0,-9 z"
       inkscape:connector-curvature="0"
       id="path354"
       style="fill:none;stroke:#000000;stroke-width:0.75;stroke-linecap:round;stroke-linejoin:miter;stroke-miterlimit:10;stroke-opacity:1;stroke-dasharray:none" /><path
       d="m 654.35,411.6 9,0 0,9 -9,0 0,-9 z"
       inkscape:connector-curvature="0"
       id="path356"
       style="fill:#ffffff;fill-opacity:1;fill-rule:evenodd;stroke:none" /><path
       d="m 654.35,411.6 9,0 0,9 -9,0 0,-9 z"
       inkscape:connector-curvature="0"
       id="path358"
       style="fill:none;stroke:#000000;stroke-width:0.75;stroke-linecap:round;stroke-linejoin:miter;stroke-miterlimit:10;stroke-opacity:1;stroke-dasharray:none" /><path
       d="m 658.4,425.6 22.95,0 c 0.28,0 0.5,-0.22 0.5,-0.5 l 0,-9 c 0,-0.28 -0.22,-0.5 -0.5,-0.5 l -9,0 c -0.28,0 -0.5,0.22 -0.5,0.5 0,0.28 0.22,0.5 0.5,0.5 l 9,0 -0.5,-0.5 0,9 0.5,-0.5 -22.95,0 c -0.28,0 -0.5,0.22 -0.5,0.5 0,0.28 0.22,0.5 0.5,0.5 z m 14.95,-14.5 -10,5 10,5 0,-10 z"
       inkscape:connector-curvature="0"
       id="path360"
       style="fill:#000000;fill-opacity:1;fill-rule:nonzero;stroke:none" /><path
       d="m 658,393.25 94.75,0.32 c 0.27,0 0.5,-0.22 0.5,-0.5 0,-0.27 -0.22,-0.5 -0.5,-0.5 L 658,392.25 c -0.27,0 -0.5,0.22 -0.5,0.5 0,0.27 0.22,0.5 0.5,0.5 z m 93.73,4.82 10.02,-4.97 -9.98,-5.03 -0.04,10 z"
       inkscape:connector-curvature="0"
       id="path362"
       style="fill:#000000;fill-opacity:1;fill-rule:nonzero;stroke:none" /><path
       d="m 654.4,402.5 9,0 0,18 -9,0 0,-18 z"
       inkscape:connector-curvature="0"
       id="path364"
       style="fill:#ffffff;fill-opacity:1;fill-rule:evenodd;stroke:none" /><path
       d="m 654.4,402.5 9,0 0,18 -9,0 0,-18 z"
       inkscape:connector-curvature="0"
       id="path366"
       style="fill:none;stroke:#000000;stroke-width:0.75;stroke-linecap:round;stroke-linejoin:miter;stroke-miterlimit:10;stroke-opacity:1;stroke-dasharray:none" /><path
       d="m 434.25,477.45 3,0 c 0.28,0 0.5,-0.23 0.5,-0.5 0,-0.28 -0.22,-0.5 -0.5,-0.5 l -3,0 c -0.28,0 -0.5,0.22 -0.5,0.5 0,0.28 0.22,0.5 0.5,0.5 z m 7,0 3,0 c 0.28,0 0.5,-0.23 0.5,-0.5 0,-0.28 -0.22,-0.5 -0.5,-0.5 l -3,0 c -0.28,0 -0.5,0.22 -0.5,0.5 0,0.27 0.22,0.5 0.5,0.5 z m 7,-0.01 3,0 c 0.28,0 0.5,-0.22 0.5,-0.5 0,-0.27 -0.22,-0.5 -0.5,-0.5 l -3,0 c -0.28,0 -0.5,0.23 -0.5,0.5 0,0.28 0.22,0.5 0.5,0.5 z m 7,0 3,0 c 0.28,0 0.5,-0.23 0.5,-0.5 0,-0.28 -0.22,-0.5 -0.5,-0.5 l -3,0 c -0.28,0 -0.5,0.22 -0.5,0.5 0,0.28 0.22,0.5 0.5,0.5 z m 7,0 3,0 c 0.28,0 0.5,-0.23 0.5,-0.5 0,-0.28 -0.22,-0.5 -0.5,-0.5 l -3,0 c -0.28,0 -0.5,0.22 -0.5,0.5 0,0.27 0.22,0.5 0.5,0.5 z m 7,-0.01 3,0 c 0.28,0 0.5,-0.22 0.5,-0.5 0,-0.27 -0.22,-0.5 -0.5,-0.5 l -3,0 c -0.28,0 -0.5,0.23 -0.5,0.5 0,0.28 0.22,0.5 0.5,0.5 z m 7,0 3,0 c 0.28,0 0.5,-0.23 0.5,-0.5 0,-0.28 -0.22,-0.5 -0.5,-0.5 l -3,0 c -0.28,0 -0.5,0.22 -0.5,0.5 0,0.28 0.22,0.5 0.5,0.5 z m 7,0 3,0 c 0.28,0 0.5,-0.23 0.5,-0.5 0,-0.28 -0.22,-0.5 -0.5,-0.5 l -3,0 c -0.28,0 -0.5,0.22 -0.5,0.5 0,0.27 0.22,0.5 0.5,0.5 z m 7,-0.01 3,0 c 0.28,0 0.5,-0.22 0.5,-0.5 0,-0.27 -0.22,-0.5 -0.5,-0.5 l -3,0 c -0.28,0 -0.5,0.23 -0.5,0.5 0,0.28 0.22,0.5 0.5,0.5 z m 7,0 3,0 c 0.28,0 0.5,-0.23 0.5,-0.5 0,-0.28 -0.22,-0.5 -0.5,-0.5 l -3,0 c -0.28,0 -0.5,0.22 -0.5,0.5 0,0.28 0.22,0.5 0.5,0.5 z m 7,0 3,0 c 0.28,0 0.5,-0.23 0.5,-0.5 0,-0.28 -0.22,-0.5 -0.5,-0.5 l -3,0 c -0.28,0 -0.5,0.22 -0.5,0.5 0,0.27 0.22,0.5 0.5,0.5 z m 7,-0.01 3,0 c 0.28,0 0.5,-0.22 0.5,-0.5 0,-0.27 -0.22,-0.5 -0.5,-0.5 l -3,0 c -0.28,0 -0.5,0.23 -0.5,0.5 0,0.28 0.22,0.5 0.5,0.5 z m 7,0 3,0 c 0.28,0 0.5,-0.23 0.5,-0.5 0,-0.28 -0.22,-0.5 -0.5,-0.5 l -3,0 c -0.28,0 -0.5,0.22 -0.5,0.5 0,0.28 0.22,0.5 0.5,0.5 z m 7,0 3,0 c 0.28,0 0.5,-0.23 0.5,-0.51 0,-0.27 -0.22,-0.49 -0.5,-0.49 l -3,0 c -0.28,0 -0.5,0.22 -0.5,0.5 0,0.27 0.22,0.5 0.5,0.5 z m 7,-0.01 3,0 c 0.28,0 0.5,-0.22 0.5,-0.5 0,-0.27 -0.22,-0.5 -0.5,-0.5 l -3,0 c -0.28,0 -0.5,0.23 -0.5,0.5 0,0.28 0.22,0.5 0.5,0.5 z m -4.75,4.94 9.78,-5.44 -9.79,-5.43 c -0.24,-0.14 -0.55,-0.05 -0.68,0.19 -0.13,0.24 -0.05,0.55 0.19,0.68 l 9.01,5 0,-0.88 -9,5.01 c -0.24,0.13 -0.33,0.44 -0.19,0.68 0.13,0.24 0.43,0.33 0.68,0.19 z"
       inkscape:connector-curvature="0"
       id="path368"
       style="fill:#000000;fill-opacity:1;fill-rule:nonzero;stroke:none" /><g
       id="g370"><g
         clip-path="url(#clipPath374)"
         id="g372"><g
           id="g378"><g
             clip-path="url(#clipPath382)"
             id="g380"><text
   transform="matrix(1,0,0,-1,586.87,491.11)"
   id="text386"><tspan
     x="0 3.34656 8.8843203 14.38224 19.92 23.236679"
     y="0"
     id="tspan388"
     style="font-size:9.96000004px;font-variant:normal;font-weight:normal;writing-mode:lr-tb;fill:#000000;fill-opacity:1;fill-rule:nonzero;stroke:none;font-family:Helvetica;-inkscape-font-specification:Helvetica">read()</tspan></text>

</g></g><g
           id="g390"><g
             clip-path="url(#clipPath394)"
             id="g392" /></g></g></g><path
       d="m 628.9,528.6 0.05,26.4"
       inkscape:connector-curvature="0"
       id="path398"
       style="fill:none;stroke:#000000;stroke-width:0.75;stroke-linecap:round;stroke-linejoin:round;stroke-miterlimit:10;stroke-opacity:1;stroke-dasharray:none" /><path
       d="M 679.55,528.6 679.6,555"
       inkscape:connector-curvature="0"
       id="path400"
       style="fill:none;stroke:#000000;stroke-width:0.75;stroke-linecap:round;stroke-linejoin:round;stroke-miterlimit:10;stroke-opacity:1;stroke-dasharray:none" /></g></svg>