<?xml version="1.0" encoding="UTF-8" standalone="no"?>
<!-- Created with Inkscape (http://www.inkscape.org/) -->

<svg
   xmlns:dc="http://purl.org/dc/elements/1.1/"
   xmlns:cc="http://creativecommons.org/ns#"
   xmlns:rdf="http://www.w3.org/1999/02/22-rdf-syntax-ns#"
   xmlns:svg="http://www.w3.org/2000/svg"
   xmlns="http://www.w3.org/2000/svg"
   xmlns:sodipodi="http://sodipodi.sourceforge.net/DTD/sodipodi-0.dtd"
   xmlns:inkscape="http://www.inkscape.org/namespaces/inkscape"
   version="1.1"
   width="251.375"
   height="146.25"
   id="svg2"
   xml:space="preserve"
   inkscape:version="0.48.4 r9939"
   sodipodi:docname="Bild 5-41 Das Beobachter-Muster im MVC-Architekturmuster.svg"><sodipodi:namedview
     pagecolor="#ffffff"
     bordercolor="#666666"
     borderopacity="1"
     objecttolerance="10"
     gridtolerance="10"
     guidetolerance="10"
     inkscape:pageopacity="0"
     inkscape:pageshadow="2"
     inkscape:window-width="640"
     inkscape:window-height="480"
     id="namedview193"
     showgrid="false"
     inkscape:zoom="0.18730159"
     inkscape:cx="131"
     inkscape:cy="57.3125"
     inkscape:window-x="0"
     inkscape:window-y="0"
     inkscape:window-maximized="0"
     inkscape:current-layer="svg2" /><metadata
     id="metadata8"><rdf:RDF><cc:Work
         rdf:about=""><dc:format>image/svg+xml</dc:format><dc:type
           rdf:resource="http://purl.org/dc/dcmitype/StillImage" /></cc:Work></rdf:RDF></metadata><defs
     id="defs6"><clipPath
       id="clipPath18"><path
         d="m 400.13,532.63 79.11,0 0,39.12 -79.11,0 0,-39.12 z"
         inkscape:connector-curvature="0"
         id="path20" /></clipPath><clipPath
       id="clipPath26"><path
         d="m 400.13,532.63 79.104,0 0,39.12 -79.104,0 0,-39.12 z"
         inkscape:connector-curvature="0"
         id="path28" /></clipPath><clipPath
       id="clipPath38"><path
         d="m 400.13,532.63 79.104,0 0,39.12 -79.104,0 0,-39.12 z"
         inkscape:connector-curvature="0"
         id="path40" /></clipPath><clipPath
       id="clipPath50"><path
         d="m 400.13,532.63 79.104,0 0,39.12 -79.104,0 0,-39.12 z"
         inkscape:connector-curvature="0"
         id="path52" /></clipPath><clipPath
       id="clipPath62"><path
         d="m 400.13,532.63 79.104,0 0,39.12 -79.104,0 0,-39.12 z"
         inkscape:connector-curvature="0"
         id="path64" /></clipPath><clipPath
       id="clipPath70"><path
         d="m 400.13,532.63 79.104,0 0,39.12 -79.104,0 0,-39.12 z"
         inkscape:connector-curvature="0"
         id="path72" /></clipPath><clipPath
       id="clipPath82"><path
         d="m 400.13,532.63 79.104,0 0,39.12 -79.104,0 0,-39.12 z"
         inkscape:connector-curvature="0"
         id="path84" /></clipPath><clipPath
       id="clipPath90"><path
         d="m 400.13,532.63 79.104,0 0,39.12 -79.104,0 0,-39.12 z"
         inkscape:connector-curvature="0"
         id="path92" /></clipPath><clipPath
       id="clipPath98"><path
         d="m 400.13,532.63 79.104,0 0,39.12 -79.104,0 0,-39.12 z"
         inkscape:connector-curvature="0"
         id="path100" /></clipPath><clipPath
       id="clipPath110"><path
         d="m 400.13,532.63 79.104,0 0,39.12 -79.104,0 0,-39.12 z"
         inkscape:connector-curvature="0"
         id="path112" /></clipPath><clipPath
       id="clipPath118"><path
         d="m 400.13,532.63 79.104,0 0,39.12 -79.104,0 0,-39.12 z"
         inkscape:connector-curvature="0"
         id="path120" /></clipPath><clipPath
       id="clipPath130"><path
         d="m 400.13,532.63 79.104,0 0,39.12 -79.104,0 0,-39.12 z"
         inkscape:connector-curvature="0"
         id="path132" /></clipPath><clipPath
       id="clipPath138"><path
         d="m 400.13,532.63 79.104,0 0,39.12 -79.104,0 0,-39.12 z"
         inkscape:connector-curvature="0"
         id="path140" /></clipPath><clipPath
       id="clipPath150"><path
         d="m 400.13,532.63 79.104,0 0,39.12 -79.104,0 0,-39.12 z"
         inkscape:connector-curvature="0"
         id="path152" /></clipPath><clipPath
       id="clipPath162"><path
         d="m 521,532.63 79.2,0 0,39.12 -79.2,0 0,-39.12 z"
         inkscape:connector-curvature="0"
         id="path164" /></clipPath><clipPath
       id="clipPath170"><path
         d="m 520.99,532.63 79.2,0 0,39.12 -79.2,0 0,-39.12 z"
         inkscape:connector-curvature="0"
         id="path172" /></clipPath><clipPath
       id="clipPath182"><path
         d="m 520.99,532.63 79.2,0 0,39.12 -79.2,0 0,-39.12 z"
         inkscape:connector-curvature="0"
         id="path184" /></clipPath><clipPath
       id="clipPath194"><path
         d="m 520.99,532.63 79.2,0 0,39.12 -79.2,0 0,-39.12 z"
         inkscape:connector-curvature="0"
         id="path196" /></clipPath><clipPath
       id="clipPath206"><path
         d="m 520.99,532.63 79.2,0 0,39.12 -79.2,0 0,-39.12 z"
         inkscape:connector-curvature="0"
         id="path208" /></clipPath><clipPath
       id="clipPath214"><path
         d="m 520.99,532.63 79.2,0 0,39.12 -79.2,0 0,-39.12 z"
         inkscape:connector-curvature="0"
         id="path216" /></clipPath><clipPath
       id="clipPath226"><path
         d="m 520.99,532.63 79.2,0 0,39.12 -79.2,0 0,-39.12 z"
         inkscape:connector-curvature="0"
         id="path228" /></clipPath><clipPath
       id="clipPath238"><path
         d="m 520.99,532.63 79.2,0 0,39.12 -79.2,0 0,-39.12 z"
         inkscape:connector-curvature="0"
         id="path240" /></clipPath><clipPath
       id="clipPath246"><path
         d="m 520.99,532.63 79.2,0 0,39.12 -79.2,0 0,-39.12 z"
         inkscape:connector-curvature="0"
         id="path248" /></clipPath><clipPath
       id="clipPath254"><path
         d="m 520.99,532.63 79.2,0 0,39.12 -79.2,0 0,-39.12 z"
         inkscape:connector-curvature="0"
         id="path256" /></clipPath><clipPath
       id="clipPath266"><path
         d="m 520.99,532.63 79.2,0 0,39.12 -79.2,0 0,-39.12 z"
         inkscape:connector-curvature="0"
         id="path268" /></clipPath><clipPath
       id="clipPath284"><path
         d="m 400.01,461.47 79.23,0 0,19.92 -79.23,0 0,-19.92 z"
         inkscape:connector-curvature="0"
         id="path286" /></clipPath><clipPath
       id="clipPath292"><path
         d="m 400.01,461.47 79.224,0 0,19.92 -79.224,0 0,-19.92 z"
         inkscape:connector-curvature="0"
         id="path294" /></clipPath><clipPath
       id="clipPath304"><path
         d="m 400.01,461.47 79.224,0 0,19.92 -79.224,0 0,-19.92 z"
         inkscape:connector-curvature="0"
         id="path306" /></clipPath><clipPath
       id="clipPath314"><path
         d="m 521,461.47 79.2,0 0,19.92 -79.2,0 0,-19.92 z"
         inkscape:connector-curvature="0"
         id="path316" /></clipPath><clipPath
       id="clipPath322"><path
         d="m 520.99,461.47 79.2,0 0,19.92 -79.2,0 0,-19.92 z"
         inkscape:connector-curvature="0"
         id="path324" /></clipPath><clipPath
       id="clipPath334"><path
         d="m 520.99,461.47 79.2,0 0,19.92 -79.2,0 0,-19.92 z"
         inkscape:connector-curvature="0"
         id="path336" /></clipPath><clipPath
       id="clipPath342"><path
         d="m 520.99,461.47 79.2,0 0,19.92 -79.2,0 0,-19.92 z"
         inkscape:connector-curvature="0"
         id="path344" /></clipPath><clipPath
       id="clipPath350"><path
         d="m 520.99,461.47 79.2,0 0,19.92 -79.2,0 0,-19.92 z"
         inkscape:connector-curvature="0"
         id="path352" /></clipPath><clipPath
       id="clipPath362"><path
         d="m 520.99,461.47 79.2,0 0,19.92 -79.2,0 0,-19.92 z"
         inkscape:connector-curvature="0"
         id="path364" /></clipPath></defs><g
     transform="matrix(1.25,0,0,-1.25,-499.375,718.9375)"
     id="g10"><path
       d="m 399.8,529.55 79.7,0 0,45.35 -79.7,0 0,-45.35 z"
       inkscape:connector-curvature="0"
       id="path12"
       style="fill:none;stroke:#000000;stroke-width:0.5;stroke-linecap:round;stroke-linejoin:miter;stroke-miterlimit:10;stroke-opacity:1;stroke-dasharray:none" /><g
       id="g14"><g
         clip-path="url(#clipPath18)"
         id="g16"><g
           id="g22"><g
             clip-path="url(#clipPath26)"
             id="g24"><text
   transform="matrix(1,0,0,-1,419.81,566.71)"
   id="text30"><tspan
     x="0"
     y="0"
     id="tspan32"
     style="font-size:6px;font-variant:normal;font-weight:normal;writing-mode:lr-tb;fill:#000000;fill-opacity:1;fill-rule:nonzero;stroke:none;font-family:Courier New;-inkscape-font-specification:Courier New">«</tspan></text>

</g></g><g
           id="g34"><g
             clip-path="url(#clipPath38)"
             id="g36"><text
   transform="matrix(1,0,0,-1,423.41,566.71)"
   id="text42"><tspan
     x="0 3.5999999 7.1999998 10.8 14.4 18 21.6 25.200001 28.799999"
     y="0"
     id="tspan44"
     style="font-size:6px;font-variant:normal;font-weight:normal;writing-mode:lr-tb;fill:#000000;fill-opacity:1;fill-rule:nonzero;stroke:none;font-family:Courier New;-inkscape-font-specification:Courier New">interface</tspan></text>

</g></g><g
           id="g46"><g
             clip-path="url(#clipPath50)"
             id="g48"><text
   transform="matrix(1,0,0,-1,455.81,566.71)"
   id="text54"><tspan
     x="0"
     y="0"
     id="tspan56"
     style="font-size:6px;font-variant:normal;font-weight:normal;writing-mode:lr-tb;fill:#000000;fill-opacity:1;fill-rule:nonzero;stroke:none;font-family:Courier New;-inkscape-font-specification:Courier New">»</tspan></text>

</g></g><g
           id="g58"><g
             clip-path="url(#clipPath62)"
             id="g60" /></g><g
           id="g66"><g
             clip-path="url(#clipPath70)"
             id="g68"><text
   transform="matrix(1,0,0,-1,430.13,559.51)"
   id="text74"><tspan
     x="0 1.668 6.5999999 10.314 14.028 17.382"
     y="0"
     id="tspan76"
     style="font-size:6px;font-variant:normal;font-weight:bold;writing-mode:lr-tb;fill:#000000;fill-opacity:1;fill-rule:nonzero;stroke:none;font-family:Helvetica;-inkscape-font-specification:Helvetica-Bold">IModel</tspan></text>

</g></g><g
           id="g78"><g
             clip-path="url(#clipPath82)"
             id="g80" /></g><g
           id="g86"><g
             clip-path="url(#clipPath90)"
             id="g88" /></g><g
           id="g94"><g
             clip-path="url(#clipPath98)"
             id="g96"><text
   transform="matrix(1,0,0,-1,401.45,546.55)"
   id="text102"><tspan
     x="0 2.9937601 4.43016 7.19208 9.8330402 14.14728 16.78824 17.982719 20.74464 23.506559 26.26848 29.630159 30.82464 33.586559 37.064159 38.742481 40.178879 43.540562 44.735039 47.49696 50.97456"
     y="0"
     id="tspan104"
     style="font-size:5.03999996px;font-variant:normal;font-weight:normal;writing-mode:lr-tb;fill:#000000;fill-opacity:1;fill-rule:nonzero;stroke:none;font-family:Helvetica;-inkscape-font-specification:Helvetica">+ anmeldenView(IView)</tspan></text>

</g></g><g
           id="g106"><g
             clip-path="url(#clipPath110)"
             id="g108" /></g><g
           id="g114"><g
             clip-path="url(#clipPath118)"
             id="g116"><text
   transform="matrix(1,0,0,-1,401.45,540.79)"
   id="text122"><tspan
     x="0 2.9937601 4.43016 7.19208 9.8330402 14.14728 16.78824 17.982719 20.74464 23.506559 26.26848 29.630159 30.82464 33.586559 37.064159 38.742481 40.178879 43.540562 44.735039 47.49696 50.97456"
     y="0"
     id="tspan124"
     style="font-size:5.03999996px;font-variant:normal;font-weight:normal;writing-mode:lr-tb;fill:#000000;fill-opacity:1;fill-rule:nonzero;stroke:none;font-family:Helvetica;-inkscape-font-specification:Helvetica">+ abmeldenView(IView)</tspan></text>

</g></g><g
           id="g126"><g
             clip-path="url(#clipPath130)"
             id="g128" /></g><g
           id="g134"><g
             clip-path="url(#clipPath138)"
             id="g136"><text
   transform="matrix(1,0,0,-1,401.45,535.15)"
   id="text142"><tspan
     x="0 2.9937601 4.43016 7.19208 9.9540005 12.71592 15.47784 17.997841 20.75976 22.43808 23.632561 26.152559 28.79352 30.229919 31.4244 34.186321 36.948238 40.188961 41.383438 44.145359 47.622959 50.021999 51.700321"
     y="0"
     id="tspan144"
     style="font-size:5.03999996px;font-variant:normal;font-weight:normal;writing-mode:lr-tb;fill:#000000;fill-opacity:1;fill-rule:nonzero;stroke:none;font-family:Helvetica;-inkscape-font-specification:Helvetica">+ benachrichtigeViews()</tspan></text>

</g></g><g
           id="g146"><g
             clip-path="url(#clipPath150)"
             id="g148" /></g></g></g><path
       d="m 399.8,554.95 79.7,0"
       inkscape:connector-curvature="0"
       id="path154"
       style="fill:none;stroke:#000000;stroke-width:0.5;stroke-linecap:round;stroke-linejoin:round;stroke-miterlimit:10;stroke-opacity:1;stroke-dasharray:none" /><path
       d="m 520.65,529.55 79.7,0 0,45.35 -79.7,0 0,-45.35 z"
       inkscape:connector-curvature="0"
       id="path156"
       style="fill:none;stroke:#000000;stroke-width:0.5;stroke-linecap:round;stroke-linejoin:miter;stroke-miterlimit:8;stroke-opacity:1;stroke-dasharray:none" /><g
       id="g158"><g
         clip-path="url(#clipPath162)"
         id="g160"><g
           id="g166"><g
             clip-path="url(#clipPath170)"
             id="g168"><text
   transform="matrix(1,0,0,-1,540.79,566.71)"
   id="text174"><tspan
     x="0"
     y="0"
     id="tspan176"
     style="font-size:6px;font-variant:normal;font-weight:normal;writing-mode:lr-tb;fill:#000000;fill-opacity:1;fill-rule:nonzero;stroke:none;font-family:Courier New;-inkscape-font-specification:Courier New">«</tspan></text>

</g></g><g
           id="g178"><g
             clip-path="url(#clipPath182)"
             id="g180"><text
   transform="matrix(1,0,0,-1,544.39,566.71)"
   id="text186"><tspan
     x="0 3.5999999 7.1999998 10.8 14.4 18 21.6 25.200001 28.799999"
     y="0"
     id="tspan188"
     style="font-size:6px;font-variant:normal;font-weight:normal;writing-mode:lr-tb;fill:#000000;fill-opacity:1;fill-rule:nonzero;stroke:none;font-family:Courier New;-inkscape-font-specification:Courier New">interface</tspan></text>

</g></g><g
           id="g190"><g
             clip-path="url(#clipPath194)"
             id="g192"><text
   transform="matrix(1,0,0,-1,576.79,566.71)"
   id="text198"><tspan
     x="0"
     y="0"
     id="tspan200"
     style="font-size:6px;font-variant:normal;font-weight:normal;writing-mode:lr-tb;fill:#000000;fill-opacity:1;fill-rule:nonzero;stroke:none;font-family:Courier New;-inkscape-font-specification:Courier New">»</tspan></text>

</g></g><g
           id="g202"><g
             clip-path="url(#clipPath206)"
             id="g204" /></g><g
           id="g210"><g
             clip-path="url(#clipPath214)"
             id="g212"><text
   transform="matrix(1,0,0,-1,552.91,559.51)"
   id="text218"><tspan
     x="0"
     y="0"
     id="tspan220"
     style="font-size:6px;font-variant:normal;font-weight:bold;writing-mode:lr-tb;fill:#000000;fill-opacity:1;fill-rule:nonzero;stroke:none;font-family:Helvetica;-inkscape-font-specification:Helvetica-Bold">I</tspan></text>

</g></g><g
           id="g222"><g
             clip-path="url(#clipPath226)"
             id="g224"><text
   transform="matrix(1,0,0,-1,554.47,559.51)"
   id="text230"><tspan
     x="0 3.96 5.6279998 8.9940004"
     y="0"
     id="tspan232"
     style="font-size:6px;font-variant:normal;font-weight:bold;writing-mode:lr-tb;fill:#000000;fill-opacity:1;fill-rule:nonzero;stroke:none;font-family:Helvetica;-inkscape-font-specification:Helvetica-Bold">View</tspan></text>

</g></g><g
           id="g234"><g
             clip-path="url(#clipPath238)"
             id="g236" /></g><g
           id="g242"><g
             clip-path="url(#clipPath246)"
             id="g244" /></g><g
           id="g250"><g
             clip-path="url(#clipPath254)"
             id="g252"><text
   transform="matrix(1,0,0,-1,522.43,546.43)"
   id="text258"><tspan
     x="0 2.9937601 4.43016 7.19208 9.5911198 11.02752 13.78944 16.551359 17.629919 18.8244 21.22344 22.417919 25.17984 26.85816 29.620081 32.382 34.060322"
     y="0"
     id="tspan260"
     style="font-size:5.03999996px;font-variant:normal;font-weight:normal;writing-mode:lr-tb;fill:#000000;fill-opacity:1;fill-rule:nonzero;stroke:none;font-family:Helvetica;-inkscape-font-specification:Helvetica">+ aktualisieren()</tspan></text>

</g></g><g
           id="g262"><g
             clip-path="url(#clipPath266)"
             id="g264" /></g></g></g><path
       d="m 520.65,554.95 79.7,0"
       inkscape:connector-curvature="0"
       id="path270"
       style="fill:none;stroke:#000000;stroke-width:0.5;stroke-linecap:round;stroke-linejoin:round;stroke-miterlimit:8;stroke-opacity:1;stroke-dasharray:none" /><path
       d="m 484.75,570.05 -5.25,-3.77 5.25,-3.78 5.25,3.78 -5.25,3.77 z"
       inkscape:connector-curvature="0"
       id="path272"
       style="fill:#ffffff;fill-opacity:1;fill-rule:evenodd;stroke:none" /><path
       d="m 484.75,570.05 -5.25,-3.77 5.25,-3.78 5.25,3.78 -5.25,3.77 z"
       inkscape:connector-curvature="0"
       id="path274"
       style="fill:none;stroke:#000000;stroke-width:0.5;stroke-linecap:round;stroke-linejoin:round;stroke-miterlimit:8;stroke-opacity:1;stroke-dasharray:none" /><path
       d="m 490,566.35 30.65,0"
       inkscape:connector-curvature="0"
       id="path276"
       style="fill:none;stroke:#000000;stroke-width:0.5;stroke-linecap:round;stroke-linejoin:round;stroke-miterlimit:8;stroke-opacity:1;stroke-dasharray:none" /><path
       d="m 399.75,458.4 79.75,0 0,26.1 -79.75,0 0,-26.1 z"
       inkscape:connector-curvature="0"
       id="path278"
       style="fill:none;stroke:#000000;stroke-width:0.5;stroke-linecap:round;stroke-linejoin:miter;stroke-miterlimit:8;stroke-opacity:1;stroke-dasharray:none" /><g
       id="g280"><g
         clip-path="url(#clipPath284)"
         id="g282"><g
           id="g288"><g
             clip-path="url(#clipPath292)"
             id="g290"><text
   transform="matrix(1,0,0,-1,430.97,475.63)"
   id="text296"><tspan
     x="0 4.9200001 8.6339998 12.348 15.702"
     y="0"
     id="tspan298"
     style="font-size:6px;font-variant:normal;font-weight:bold;writing-mode:lr-tb;fill:#000000;fill-opacity:1;fill-rule:nonzero;stroke:none;font-family:Helvetica;-inkscape-font-specification:Helvetica-Bold">Model</tspan></text>

</g></g><g
           id="g300"><g
             clip-path="url(#clipPath304)"
             id="g302" /></g></g></g><path
       d="m 520.65,458.4 79.7,0 0,26.1 -79.7,0 0,-26.1 z"
       inkscape:connector-curvature="0"
       id="path308"
       style="fill:none;stroke:#000000;stroke-width:0.5;stroke-linecap:round;stroke-linejoin:miter;stroke-miterlimit:8;stroke-opacity:1;stroke-dasharray:none" /><g
       id="g310"><g
         clip-path="url(#clipPath314)"
         id="g312"><g
           id="g318"><g
             clip-path="url(#clipPath322)"
             id="g320"><text
   transform="matrix(1,0,0,-1,553.75,475.99)"
   id="text326"><tspan
     x="0 3.96 5.6279998 8.9940004"
     y="0"
     id="tspan328"
     style="font-size:6px;font-variant:normal;font-weight:bold;writing-mode:lr-tb;fill:#000000;fill-opacity:1;fill-rule:nonzero;stroke:none;font-family:Helvetica;-inkscape-font-specification:Helvetica-Bold">View</tspan></text>

</g></g><g
           id="g330"><g
             clip-path="url(#clipPath334)"
             id="g332" /></g><g
           id="g338"><g
             clip-path="url(#clipPath342)"
             id="g340" /></g><g
           id="g346"><g
             clip-path="url(#clipPath350)"
             id="g348"><text
   transform="matrix(1,0,0,-1,522.43,463.03)"
   id="text354"><tspan
     x="0 2.9937601 4.43016 7.19208 9.5911198 11.02752 13.78944 16.551359 17.629919 18.8244 21.22344 22.417919 25.17984 26.85816 29.620081 32.382 34.060322"
     y="0"
     id="tspan356"
     style="font-size:5.03999996px;font-variant:normal;font-weight:normal;writing-mode:lr-tb;fill:#000000;fill-opacity:1;fill-rule:nonzero;stroke:none;font-family:Helvetica;-inkscape-font-specification:Helvetica">+ aktualisieren()</tspan></text>

</g></g><g
           id="g358"><g
             clip-path="url(#clipPath362)"
             id="g360" /></g></g></g><path
       d="m 520.65,470.85 79.7,0"
       inkscape:connector-curvature="0"
       id="path366"
       style="fill:none;stroke:#000000;stroke-width:0.5;stroke-linecap:round;stroke-linejoin:round;stroke-miterlimit:8;stroke-opacity:1;stroke-dasharray:none" /><path
       d="m 439.63,529.3 -3.58,-7.15 7.15,0 -3.57,7.15 z"
       inkscape:connector-curvature="0"
       id="path368"
       style="fill:#ffffff;fill-opacity:1;fill-rule:evenodd;stroke:none" /><path
       d="m 439.63,529.3 -3.58,-7.15 7.15,0 -3.57,7.15 z"
       inkscape:connector-curvature="0"
       id="path370"
       style="fill:none;stroke:#000000;stroke-width:0.5;stroke-linecap:round;stroke-linejoin:round;stroke-miterlimit:8;stroke-opacity:1;stroke-dasharray:none" /><path
       d="m 439.65,522.15 0,-37.65"
       inkscape:connector-curvature="0"
       id="path372"
       style="fill:none;stroke:#000000;stroke-width:0.5;stroke-linecap:round;stroke-linejoin:round;stroke-miterlimit:8;stroke-opacity:1;stroke-dasharray:none" /><path
       d="m 560.57,529.3 -3.57,-7.15 7.15,0 -3.58,7.15 z"
       inkscape:connector-curvature="0"
       id="path374"
       style="fill:#ffffff;fill-opacity:1;fill-rule:evenodd;stroke:none" /><path
       d="m 560.57,529.3 -3.57,-7.15 7.15,0 -3.58,7.15 z"
       inkscape:connector-curvature="0"
       id="path376"
       style="fill:none;stroke:#000000;stroke-width:0.5;stroke-linecap:round;stroke-linejoin:round;stroke-miterlimit:8;stroke-opacity:1;stroke-dasharray:none" /><path
       d="m 560.5,522.15 0.05,-36.75"
       inkscape:connector-curvature="0"
       id="path378"
       style="fill:none;stroke:#000000;stroke-width:0.5;stroke-linecap:round;stroke-linejoin:round;stroke-miterlimit:8;stroke-opacity:1;stroke-dasharray:none" /><path
       d="m 479.5,473.8 41.15,0"
       inkscape:connector-curvature="0"
       id="path380"
       style="fill:none;stroke:#000000;stroke-width:0.5;stroke-linecap:round;stroke-linejoin:round;stroke-miterlimit:8;stroke-opacity:1;stroke-dasharray:none" /><path
       d="m 479.5,473.8 6.5,3.15"
       inkscape:connector-curvature="0"
       id="path382"
       style="fill:none;stroke:#000000;stroke-width:0.5;stroke-linecap:round;stroke-linejoin:round;stroke-miterlimit:8;stroke-opacity:1;stroke-dasharray:none" /><path
       d="m 479.5,473.8 6.5,-2.95"
       inkscape:connector-curvature="0"
       id="path384"
       style="fill:none;stroke:#000000;stroke-width:0.5;stroke-linecap:round;stroke-linejoin:round;stroke-miterlimit:8;stroke-opacity:1;stroke-dasharray:none" /></g></svg>