<?xml version="1.0" encoding="UTF-8" standalone="no"?>
<!-- Created with Inkscape (http://www.inkscape.org/) -->

<svg
   xmlns:dc="http://purl.org/dc/elements/1.1/"
   xmlns:cc="http://creativecommons.org/ns#"
   xmlns:rdf="http://www.w3.org/1999/02/22-rdf-syntax-ns#"
   xmlns:svg="http://www.w3.org/2000/svg"
   xmlns="http://www.w3.org/2000/svg"
   xmlns:sodipodi="http://sodipodi.sourceforge.net/DTD/sodipodi-0.dtd"
   xmlns:inkscape="http://www.inkscape.org/namespaces/inkscape"
   version="1.1"
   width="477.15866"
   height="361.25"
   id="svg2"
   xml:space="preserve"
   inkscape:version="0.48.4 r9939"
   sodipodi:docname="Bild 5-11 Modell der Drei-Schichten-Architektur mit Kommunikation.svg"><sodipodi:namedview
     pagecolor="#ffffff"
     bordercolor="#666666"
     borderopacity="1"
     objecttolerance="10"
     gridtolerance="10"
     guidetolerance="10"
     inkscape:pageopacity="0"
     inkscape:pageshadow="2"
     inkscape:window-width="640"
     inkscape:window-height="480"
     id="namedview228"
     showgrid="false"
     inkscape:zoom="0.18730159"
     inkscape:cx="191.25"
     inkscape:cy="432.34375"
     inkscape:window-x="0"
     inkscape:window-y="0"
     inkscape:window-maximized="0"
     inkscape:current-layer="svg2" /><metadata
     id="metadata8"><rdf:RDF><cc:Work
         rdf:about=""><dc:format>image/svg+xml</dc:format><dc:type
           rdf:resource="http://purl.org/dc/dcmitype/StillImage" /></cc:Work></rdf:RDF></metadata><defs
     id="defs6"><clipPath
       id="clipPath18"><path
         d="m 360.41,407.44 200.91,0 0,35.31 -200.91,0 0,-35.31 z"
         inkscape:connector-curvature="0"
         id="path20" /></clipPath><clipPath
       id="clipPath26"><path
         d="m 360.41,407.45 200.9,0 0,35.304 -200.9,0 0,-35.304 z"
         inkscape:connector-curvature="0"
         id="path28" /></clipPath><clipPath
       id="clipPath34"><path
         d="m 360.41,407.45 200.9,0 0,35.304 -200.9,0 0,-35.304 z"
         inkscape:connector-curvature="0"
         id="path36" /></clipPath><clipPath
       id="clipPath46"><path
         d="m 360.41,407.45 200.9,0 0,35.304 -200.9,0 0,-35.304 z"
         inkscape:connector-curvature="0"
         id="path48" /></clipPath><clipPath
       id="clipPath58"><path
         d="m 360.41,407.45 200.9,0 0,35.304 -200.9,0 0,-35.304 z"
         inkscape:connector-curvature="0"
         id="path60" /></clipPath><clipPath
       id="clipPath70"><path
         d="m 360.41,407.45 200.9,0 0,35.304 -200.9,0 0,-35.304 z"
         inkscape:connector-curvature="0"
         id="path72" /></clipPath><clipPath
       id="clipPath82"><path
         d="m 360.41,407.45 200.9,0 0,35.304 -200.9,0 0,-35.304 z"
         inkscape:connector-curvature="0"
         id="path84" /></clipPath><clipPath
       id="clipPath92"><path
         d="m 360.41,306.28 200.91,0 0,35.28 -200.91,0 0,-35.28 z"
         inkscape:connector-curvature="0"
         id="path94" /></clipPath><clipPath
       id="clipPath100"><path
         d="m 360.41,306.29 200.9,0 0,35.28 -200.9,0 0,-35.28 z"
         inkscape:connector-curvature="0"
         id="path102" /></clipPath><clipPath
       id="clipPath108"><path
         d="m 360.41,306.29 200.9,0 0,35.28 -200.9,0 0,-35.28 z"
         inkscape:connector-curvature="0"
         id="path110" /></clipPath><clipPath
       id="clipPath120"><path
         d="m 360.41,306.29 200.9,0 0,35.28 -200.9,0 0,-35.28 z"
         inkscape:connector-curvature="0"
         id="path122" /></clipPath><clipPath
       id="clipPath130"><path
         d="m 360.41,205.47 200.91,0 0,35.295 -200.91,0 0,-35.295 z"
         inkscape:connector-curvature="0"
         id="path132" /></clipPath><clipPath
       id="clipPath138"><path
         d="m 360.41,205.46 200.9,0 0,35.304 -200.9,0 0,-35.304 z"
         inkscape:connector-curvature="0"
         id="path140" /></clipPath><clipPath
       id="clipPath146"><path
         d="m 360.41,205.46 200.9,0 0,35.304 -200.9,0 0,-35.304 z"
         inkscape:connector-curvature="0"
         id="path148" /></clipPath><clipPath
       id="clipPath158"><path
         d="m 360.41,205.46 200.9,0 0,35.304 -200.9,0 0,-35.304 z"
         inkscape:connector-curvature="0"
         id="path160" /></clipPath><clipPath
       id="clipPath170"><path
         d="m 360.41,205.46 200.9,0 0,35.304 -200.9,0 0,-35.304 z"
         inkscape:connector-curvature="0"
         id="path172" /></clipPath><clipPath
       id="clipPath188"><path
         d="m 360.41,248.68 200.91,0 0,15.84 -200.91,0 0,-15.84 z"
         inkscape:connector-curvature="0"
         id="path190" /></clipPath><clipPath
       id="clipPath196"><path
         d="m 360.41,248.69 200.9,0 0,15.84 -200.9,0 0,-15.84 z"
         inkscape:connector-curvature="0"
         id="path198" /></clipPath><clipPath
       id="clipPath208"><path
         d="m 360.41,248.69 200.9,0 0,15.84 -200.9,0 0,-15.84 z"
         inkscape:connector-curvature="0"
         id="path210" /></clipPath><clipPath
       id="clipPath218"><path
         d="m 360.41,282.52 200.91,0 0,15.84 -200.91,0 0,-15.84 z"
         inkscape:connector-curvature="0"
         id="path220" /></clipPath><clipPath
       id="clipPath226"><path
         d="m 360.41,282.53 200.9,0 0,15.84 -200.9,0 0,-15.84 z"
         inkscape:connector-curvature="0"
         id="path228" /></clipPath><clipPath
       id="clipPath238"><path
         d="m 360.41,282.53 200.9,0 0,15.84 -200.9,0 0,-15.84 z"
         inkscape:connector-curvature="0"
         id="path240" /></clipPath><clipPath
       id="clipPath248"><path
         d="m 360.41,349.72 200.91,0 0,15.84 -200.91,0 0,-15.84 z"
         inkscape:connector-curvature="0"
         id="path250" /></clipPath><clipPath
       id="clipPath256"><path
         d="m 360.41,349.73 200.9,0 0,15.84 -200.9,0 0,-15.84 z"
         inkscape:connector-curvature="0"
         id="path258" /></clipPath><clipPath
       id="clipPath268"><path
         d="m 360.41,349.73 200.9,0 0,15.84 -200.9,0 0,-15.84 z"
         inkscape:connector-curvature="0"
         id="path270" /></clipPath><clipPath
       id="clipPath278"><path
         d="m 360.41,383.44 200.91,0 0,15.84 -200.91,0 0,-15.84 z"
         inkscape:connector-curvature="0"
         id="path280" /></clipPath><clipPath
       id="clipPath286"><path
         d="m 360.41,383.45 200.9,0 0,15.84 -200.9,0 0,-15.84 z"
         inkscape:connector-curvature="0"
         id="path288" /></clipPath><clipPath
       id="clipPath298"><path
         d="m 360.41,383.45 200.9,0 0,15.84 -200.9,0 0,-15.84 z"
         inkscape:connector-curvature="0"
         id="path300" /></clipPath><clipPath
       id="clipPath306"><path
         d="m 583.28,408.76 66.96,0 0,16.08 -66.96,0 0,-16.08 z"
         inkscape:connector-curvature="0"
         id="path308" /></clipPath><clipPath
       id="clipPath314"><path
         d="m 583.27,408.77 66.96,0 0,16.08 -66.96,0 0,-16.08 z"
         inkscape:connector-curvature="0"
         id="path316" /></clipPath><clipPath
       id="clipPath326"><path
         d="m 583.27,408.77 66.96,0 0,16.08 -66.96,0 0,-16.08 z"
         inkscape:connector-curvature="0"
         id="path328" /></clipPath><clipPath
       id="clipPath334"><path
         d="m 579.8,310.96 171.14,0 0,23.04 -171.14,0 0,-23.04 z"
         inkscape:connector-curvature="0"
         id="path336" /></clipPath><clipPath
       id="clipPath342"><path
         d="m 579.79,310.97 171.14,0 0,23.04 -171.14,0 0,-23.04 z"
         inkscape:connector-curvature="0"
         id="path344" /></clipPath><clipPath
       id="clipPath354"><path
         d="m 579.79,310.97 171.14,0 0,23.04 -171.14,0 0,-23.04 z"
         inkscape:connector-curvature="0"
         id="path356" /></clipPath><clipPath
       id="clipPath366"><path
         d="m 579.79,310.97 171.14,0 0,23.04 -171.14,0 0,-23.04 z"
         inkscape:connector-curvature="0"
         id="path368" /></clipPath><clipPath
       id="clipPath374"><path
         d="m 578,200.31 170.05,0 0,21.495 -170.05,0 0,-21.495 z"
         inkscape:connector-curvature="0"
         id="path376" /></clipPath><clipPath
       id="clipPath382"><path
         d="m 577.99,200.3 170.06,0 0,21.504 -170.06,0 0,-21.504 z"
         inkscape:connector-curvature="0"
         id="path384" /></clipPath><clipPath
       id="clipPath394"><path
         d="m 577.99,200.3 170.06,0 0,21.504 -170.06,0 0,-21.504 z"
         inkscape:connector-curvature="0"
         id="path396" /></clipPath><clipPath
       id="clipPath406"><path
         d="m 577.99,200.3 170.06,0 0,21.504 -170.06,0 0,-21.504 z"
         inkscape:connector-curvature="0"
         id="path408" /></clipPath><clipPath
       id="clipPath424"><path
         d="m 360.41,162.39 200.79,0 0,35.04 -200.79,0 0,-35.04 z"
         inkscape:connector-curvature="0"
         id="path426" /></clipPath><clipPath
       id="clipPath432"><path
         d="m 360.41,162.38 200.78,0 0,35.04 -200.78,0 0,-35.04 z"
         inkscape:connector-curvature="0"
         id="path434" /></clipPath><clipPath
       id="clipPath440"><path
         d="m 360.41,162.38 200.78,0 0,35.04 -200.78,0 0,-35.04 z"
         inkscape:connector-curvature="0"
         id="path442" /></clipPath><clipPath
       id="clipPath452"><path
         d="m 360.41,162.38 200.78,0 0,35.04 -200.78,0 0,-35.04 z"
         inkscape:connector-curvature="0"
         id="path454" /></clipPath></defs><g
     transform="matrix(1.25,0,0,-1.25,-439.125,558.90625)"
     id="g10"><path
       d="m 360,403.55 201.6,0 0,43.2 -201.6,0 0,-43.2 z"
       inkscape:connector-curvature="0"
       id="path12"
       style="fill:none;stroke:#000000;stroke-width:0.75;stroke-linecap:round;stroke-linejoin:miter;stroke-miterlimit:10;stroke-opacity:1;stroke-dasharray:none" /><g
       id="g14"><g
         clip-path="url(#clipPath18)"
         id="g16"><g
           id="g22"><g
             clip-path="url(#clipPath26)"
             id="g24" /></g><g
           id="g30"><g
             clip-path="url(#clipPath34)"
             id="g32"><text
   transform="matrix(1,0,0,-1,421.25,418.85)"
   id="text38"><tspan
     x="0 4.4400001 8.8800001"
     y="0"
     id="tspan40"
     style="font-size:15.96000004px;font-variant:normal;font-weight:normal;writing-mode:lr-tb;fill:#000000;fill-opacity:1;fill-rule:nonzero;stroke:none;font-family:Helvetica;-inkscape-font-specification:Helvetica">I/O</tspan></text>

</g></g><g
           id="g42"><g
             clip-path="url(#clipPath46)"
             id="g44"><text
   transform="matrix(1,0,0,-1,442.49,418.85)"
   id="text50"><tspan
     x="0"
     y="0"
     id="tspan52"
     style="font-size:15.96000004px;font-variant:normal;font-weight:normal;writing-mode:lr-tb;fill:#000000;fill-opacity:1;fill-rule:nonzero;stroke:none;font-family:Helvetica;-inkscape-font-specification:Helvetica">-</tspan></text>

</g></g><g
           id="g54"><g
             clip-path="url(#clipPath58)"
             id="g56"><text
   transform="matrix(1,0,0,-1,447.77,418.85)"
   id="text62"><tspan
     x="0"
     y="0"
     id="tspan64"
     style="font-size:15.96000004px;font-variant:normal;font-weight:normal;writing-mode:lr-tb;fill:#000000;fill-opacity:1;fill-rule:nonzero;stroke:none;font-family:Helvetica;-inkscape-font-specification:Helvetica">S</tspan></text>

</g></g><g
           id="g66"><g
             clip-path="url(#clipPath70)"
             id="g68"><text
   transform="matrix(1,0,0,-1,458.45,418.85)"
   id="text74"><tspan
     x="0 8.0278797 16.90164 20.49264 28.520519 37.394279"
     y="0"
     id="tspan76"
     style="font-size:15.96000004px;font-variant:normal;font-weight:normal;writing-mode:lr-tb;fill:#000000;fill-opacity:1;fill-rule:nonzero;stroke:none;font-family:Helvetica;-inkscape-font-specification:Helvetica">chicht</tspan></text>

</g></g><g
           id="g78"><g
             clip-path="url(#clipPath82)"
             id="g80" /></g></g></g><path
       d="m 360,302.4 201.6,0 0,43.2 -201.6,0 0,-43.2 z"
       inkscape:connector-curvature="0"
       id="path86"
       style="fill:none;stroke:#000000;stroke-width:0.75;stroke-linecap:round;stroke-linejoin:miter;stroke-miterlimit:10;stroke-opacity:1;stroke-dasharray:none" /><g
       id="g88"><g
         clip-path="url(#clipPath92)"
         id="g90"><g
           id="g96"><g
             clip-path="url(#clipPath100)"
             id="g98" /></g><g
           id="g104"><g
             clip-path="url(#clipPath108)"
             id="g106"><text
   transform="matrix(1,0,0,-1,386.09,317.69)"
   id="text112"><tspan
     x="0 10.64532 19.519079 24.833759 33.70752 39.022202 47.895962 56.769718 60.31284 64.781639 73.655403 82.640877 91.514641 99.542519 107.5704 115.59828 124.47204 128.06303 136.09093 144.96468"
     y="0"
     id="tspan114"
     style="font-size:15.96000004px;font-variant:normal;font-weight:normal;writing-mode:lr-tb;fill:#000000;fill-opacity:1;fill-rule:nonzero;stroke:none;font-family:Helvetica;-inkscape-font-specification:Helvetica">Verarbeitungsschicht</tspan></text>

</g></g><g
           id="g116"><g
             clip-path="url(#clipPath120)"
             id="g118" /></g></g></g><path
       d="m 360,201.6 201.6,0 0,43.2 -201.6,0 0,-43.2 z"
       inkscape:connector-curvature="0"
       id="path124"
       style="fill:none;stroke:#000000;stroke-width:0.75;stroke-linecap:round;stroke-linejoin:miter;stroke-miterlimit:10;stroke-opacity:1;stroke-dasharray:none" /><g
       id="g126"><g
         clip-path="url(#clipPath130)"
         id="g128"><g
           id="g134"><g
             clip-path="url(#clipPath138)"
             id="g136" /></g><g
           id="g142"><g
             clip-path="url(#clipPath146)"
             id="g144"><text
   transform="matrix(1,0,0,-1,388.73,216.89)"
   id="text150"><tspan
     x="0 11.52312 20.396879 24.833759 33.70752 42.58128 50.625118 59.498878 68.372643 73.687317 77.230438 81.66732 86.104202"
     y="0"
     id="tspan152"
     style="font-size:15.96000004px;font-variant:normal;font-weight:normal;writing-mode:lr-tb;fill:#000000;fill-opacity:1;fill-rule:nonzero;stroke:none;font-family:Helvetica;-inkscape-font-specification:Helvetica">Datenzugriffs</tspan></text>

</g></g><g
           id="g154"><g
             clip-path="url(#clipPath158)"
             id="g156"><text
   transform="matrix(1,0,0,-1,482.95,216.89)"
   id="text162"><tspan
     x="0 8.0278797 16.055759 24.92952 28.520519 36.548401 45.422161"
     y="0"
     id="tspan164"
     style="font-size:15.96000004px;font-variant:normal;font-weight:normal;writing-mode:lr-tb;fill:#000000;fill-opacity:1;fill-rule:nonzero;stroke:none;font-family:Helvetica;-inkscape-font-specification:Helvetica">schicht</tspan></text>

</g></g><g
           id="g166"><g
             clip-path="url(#clipPath170)"
             id="g168" /></g></g></g><g
       id="g174"><path
         d="m 352.8,374.6 223.2,0"
         inkscape:connector-curvature="0"
         id="path176"
         style="fill:none;stroke:#000000;stroke-width:3;stroke-linecap:butt;stroke-linejoin:round;stroke-miterlimit:10;stroke-opacity:1;stroke-dasharray:12, 9;stroke-dashoffset:0" /></g><g
       id="g178"><path
         d="m 352.8,273.6 223.2,0"
         inkscape:connector-curvature="0"
         id="path180"
         style="fill:none;stroke:#000000;stroke-width:3;stroke-linecap:butt;stroke-linejoin:round;stroke-miterlimit:10;stroke-opacity:1;stroke-dasharray:12, 9;stroke-dashoffset:0" /></g><path
       d="m 360,244.8 201.6,0 0,23.85 -201.6,0 0,-23.85 z"
       inkscape:connector-curvature="0"
       id="path182"
       style="fill:none;stroke:#000000;stroke-width:0.75;stroke-linecap:round;stroke-linejoin:miter;stroke-miterlimit:10;stroke-opacity:1;stroke-dasharray:none" /><g
       id="g184"><g
         clip-path="url(#clipPath188)"
         id="g186"><g
           id="g192"><g
             clip-path="url(#clipPath196)"
             id="g194"><text
   transform="matrix(1,0,0,-1,405.65,249.77)"
   id="text200"><tspan
     x="0 10.64532 19.519079 32.861641 46.156319 55.030079 63.903839 67.526756 75.554642 84.428398 88.86528 92.456284 101.33004"
     y="0"
     id="tspan202"
     style="font-size:15.96000004px;font-variant:normal;font-weight:normal;writing-mode:lr-tb;fill:#000000;fill-opacity:1;fill-rule:nonzero;stroke:none;font-family:Helvetica;-inkscape-font-specification:Helvetica">Kommunikation</tspan></text>

</g></g><g
           id="g204"><g
             clip-path="url(#clipPath208)"
             id="g206" /></g></g></g><path
       d="m 360,278.55 201.6,0 0,23.85 -201.6,0 0,-23.85 z"
       inkscape:connector-curvature="0"
       id="path212"
       style="fill:none;stroke:#000000;stroke-width:0.75;stroke-linecap:round;stroke-linejoin:miter;stroke-miterlimit:10;stroke-opacity:1;stroke-dasharray:none" /><g
       id="g214"><g
         clip-path="url(#clipPath218)"
         id="g216"><g
           id="g222"><g
             clip-path="url(#clipPath226)"
             id="g224"><text
   transform="matrix(1,0,0,-1,405.65,283.61)"
   id="text230"><tspan
     x="0 10.64532 19.519079 32.861641 46.156319 55.030079 63.903839 67.526756 75.554642 84.428398 88.86528 92.456284 101.33004"
     y="0"
     id="tspan232"
     style="font-size:15.96000004px;font-variant:normal;font-weight:normal;writing-mode:lr-tb;fill:#000000;fill-opacity:1;fill-rule:nonzero;stroke:none;font-family:Helvetica;-inkscape-font-specification:Helvetica">Kommunikation</tspan></text>

</g></g><g
           id="g234"><g
             clip-path="url(#clipPath238)"
             id="g236" /></g></g></g><path
       d="m 360,345.8 201.6,0 0,23.85 -201.6,0 0,-23.85 z"
       inkscape:connector-curvature="0"
       id="path242"
       style="fill:none;stroke:#000000;stroke-width:0.75;stroke-linecap:round;stroke-linejoin:miter;stroke-miterlimit:10;stroke-opacity:1;stroke-dasharray:none" /><g
       id="g244"><g
         clip-path="url(#clipPath248)"
         id="g246"><g
           id="g252"><g
             clip-path="url(#clipPath256)"
             id="g254"><text
   transform="matrix(1,0,0,-1,405.65,350.81)"
   id="text260"><tspan
     x="0 10.64532 19.519079 32.861641 46.156319 55.030079 63.903839 67.526756 75.554642 84.428398 88.86528 92.456284 101.33004"
     y="0"
     id="tspan262"
     style="font-size:15.96000004px;font-variant:normal;font-weight:normal;writing-mode:lr-tb;fill:#000000;fill-opacity:1;fill-rule:nonzero;stroke:none;font-family:Helvetica;-inkscape-font-specification:Helvetica">Kommunikation</tspan></text>

</g></g><g
           id="g264"><g
             clip-path="url(#clipPath268)"
             id="g266" /></g></g></g><path
       d="m 360,379.55 201.6,0 0,23.85 -201.6,0 0,-23.85 z"
       inkscape:connector-curvature="0"
       id="path272"
       style="fill:none;stroke:#000000;stroke-width:0.75;stroke-linecap:round;stroke-linejoin:miter;stroke-miterlimit:10;stroke-opacity:1;stroke-dasharray:none" /><g
       id="g274"><g
         clip-path="url(#clipPath278)"
         id="g276"><g
           id="g282"><g
             clip-path="url(#clipPath286)"
             id="g284"><text
   transform="matrix(1,0,0,-1,405.65,384.53)"
   id="text290"><tspan
     x="0 10.64532 19.519079 32.861641 46.156319 55.030079 63.903839 67.526756 75.554642 84.428398 88.86528 92.456284 101.33004"
     y="0"
     id="tspan292"
     style="font-size:15.96000004px;font-variant:normal;font-weight:normal;writing-mode:lr-tb;fill:#000000;fill-opacity:1;fill-rule:nonzero;stroke:none;font-family:Helvetica;-inkscape-font-specification:Helvetica">Kommunikation</tspan></text>

</g></g><g
           id="g294"><g
             clip-path="url(#clipPath298)"
             id="g296" /></g></g></g><g
       id="g302"><g
         clip-path="url(#clipPath306)"
         id="g304"><g
           id="g310"><g
             clip-path="url(#clipPath314)"
             id="g312"><text
   transform="matrix(1,0,0,-1,590.47,410.09)"
   id="text318"><tspan
     x="0 11.52312 15.09816 18.689159 27.56292 36.43668"
     y="0"
     id="tspan320"
     style="font-size:15.96000004px;font-variant:normal;font-weight:normal;writing-mode:lr-tb;fill:#000000;fill-opacity:1;fill-rule:nonzero;stroke:none;font-family:Helvetica;-inkscape-font-specification:Helvetica">Client</tspan></text>

</g></g><g
           id="g322"><g
             clip-path="url(#clipPath326)"
             id="g324" /></g></g></g><g
       id="g330"><g
         clip-path="url(#clipPath334)"
         id="g332"><g
           id="g338"><g
             clip-path="url(#clipPath342)"
             id="g340"><text
   transform="matrix(1,0,0,-1,586.99,319.37)"
   id="text346"><tspan
     x="0 10.64532 19.519079 31.0422 39.915958 48.82164 57.6954 66.56916 75.442917 84.316681 92.360519"
     y="0"
     id="tspan348"
     style="font-size:15.96000004px;font-variant:normal;font-weight:normal;writing-mode:lr-tb;fill:#000000;fill-opacity:1;fill-rule:nonzero;stroke:none;font-family:Helvetica;-inkscape-font-specification:Helvetica">Anwendungss</tspan></text>

</g></g><g
           id="g350"><g
             clip-path="url(#clipPath354)"
             id="g352"><text
   transform="matrix(1,0,0,-1,687.46,319.37)"
   id="text358"><tspan
     x="0 8.8737602 14.18844 22.29612 31.16988"
     y="0"
     id="tspan360"
     style="font-size:15.96000004px;font-variant:normal;font-weight:normal;writing-mode:lr-tb;fill:#000000;fill-opacity:1;fill-rule:nonzero;stroke:none;font-family:Helvetica;-inkscape-font-specification:Helvetica">erver</tspan></text>

</g></g><g
           id="g362"><g
             clip-path="url(#clipPath366)"
             id="g364" /></g></g></g><g
       id="g370"><g
         clip-path="url(#clipPath374)"
         id="g372"><g
           id="g378"><g
             clip-path="url(#clipPath382)"
             id="g380"><text
   transform="matrix(1,0,0,-1,585.19,207.02)"
   id="text386"><tspan
     x="0 11.52 20.39064 24.8244 33.695042 42.565681 51.436321 60.338879 63.926762 68.360519 77.231163 86.101799 94.972443 103.02912"
     y="0"
     id="tspan388"
     style="font-size:15.96000004px;font-variant:normal;font-weight:normal;writing-mode:lr-tb;fill:#000000;fill-opacity:1;fill-rule:nonzero;stroke:none;font-family:Helvetica;-inkscape-font-specification:Helvetica">Datenhaltungss</tspan></text>

</g></g><g
           id="g390"><g
             clip-path="url(#clipPath394)"
             id="g392"><text
   transform="matrix(1,0,0,-1,696.34,207.02)"
   id="text398"><tspan
     x="0 8.9854803 14.30016 22.280161 31.153919"
     y="0"
     id="tspan400"
     style="font-size:15.96000004px;font-variant:normal;font-weight:normal;writing-mode:lr-tb;fill:#000000;fill-opacity:1;fill-rule:nonzero;stroke:none;font-family:Helvetica;-inkscape-font-specification:Helvetica">erver</tspan></text>

</g></g><g
           id="g402"><g
             clip-path="url(#clipPath406)"
             id="g404" /></g></g></g><path
       d="m 561.5,446.75 c 3.56,0 6.45,-2.51 6.45,-5.6 l 0,-22.4 c 0,-3.09 2.89,-5.6 6.45,-5.6 -3.56,0 -6.45,-2.51 -6.45,-5.6 l 0,-22.4 c 0,-3.09 -2.89,-5.6 -6.45,-5.6"
       inkscape:connector-curvature="0"
       id="path410"
       style="fill:none;stroke:#000000;stroke-width:0.75;stroke-linecap:round;stroke-linejoin:round;stroke-miterlimit:10;stroke-opacity:1;stroke-dasharray:none" /><path
       d="m 559.75,369.5 c 4.42,0 8,-3.4 8,-7.58 l 0,-30.34 c 0,-4.18 3.58,-7.58 8,-7.58 -4.42,0 -8,-3.4 -8,-7.58 l 0,-30.34 c 0,-4.18 -3.58,-7.58 -8,-7.58"
       inkscape:connector-curvature="0"
       id="path412"
       style="fill:none;stroke:#000000;stroke-width:0.75;stroke-linecap:round;stroke-linejoin:round;stroke-miterlimit:10;stroke-opacity:1;stroke-dasharray:none" /><path
       d="m 561.6,268.4 c 3.23,0 5.85,-4.1 5.85,-9.16 l 0,-36.63 c 0,-5.06 2.62,-9.16 5.85,-9.16 -3.23,0 -5.85,-4.1 -5.85,-9.16 l 0,-36.63 c 0,-5.06 -2.62,-9.16 -5.85,-9.16"
       inkscape:connector-curvature="0"
       id="path414"
       style="fill:none;stroke:#000000;stroke-width:0.75;stroke-linecap:round;stroke-linejoin:round;stroke-miterlimit:10;stroke-opacity:1;stroke-dasharray:none" /><path
       d="m 360,158.5 201.5,0 0,43 -201.5,0 0,-43 z"
       inkscape:connector-curvature="0"
       id="path416"
       style="fill:#ffffff;fill-opacity:1;fill-rule:evenodd;stroke:none" /><path
       d="m 360,158.5 201.5,0 0,43 -201.5,0 0,-43 z"
       inkscape:connector-curvature="0"
       id="path418"
       style="fill:none;stroke:#000000;stroke-width:0.75;stroke-linecap:round;stroke-linejoin:miter;stroke-miterlimit:8;stroke-opacity:1;stroke-dasharray:none" /><g
       id="g420"><g
         clip-path="url(#clipPath424)"
         id="g422"><g
           id="g428"><g
             clip-path="url(#clipPath432)"
             id="g430" /></g><g
           id="g436"><g
             clip-path="url(#clipPath440)"
             id="g438"><text
   transform="matrix(1,0,0,-1,413.21,173.42)"
   id="text444"><tspan
     x="0 11.52 20.39064 24.8244 33.695042 42.565681 51.436321 60.338879 63.926762 68.360519 77.231163 86.101799"
     y="0"
     id="tspan446"
     style="font-size:15.96000004px;font-variant:normal;font-weight:normal;writing-mode:lr-tb;fill:#000000;fill-opacity:1;fill-rule:nonzero;stroke:none;font-family:Helvetica;-inkscape-font-specification:Helvetica">Datenhaltung</tspan></text>

</g></g><g
           id="g448"><g
             clip-path="url(#clipPath452)"
             id="g450" /></g></g></g></g></svg>