<?xml version="1.0" encoding="UTF-8" standalone="no"?>
<!-- Created with Inkscape (http://www.inkscape.org/) -->

<svg
   xmlns:dc="http://purl.org/dc/elements/1.1/"
   xmlns:cc="http://creativecommons.org/ns#"
   xmlns:rdf="http://www.w3.org/1999/02/22-rdf-syntax-ns#"
   xmlns:svg="http://www.w3.org/2000/svg"
   xmlns="http://www.w3.org/2000/svg"
   xmlns:sodipodi="http://sodipodi.sourceforge.net/DTD/sodipodi-0.dtd"
   xmlns:inkscape="http://www.inkscape.org/namespaces/inkscape"
   version="1.1"
   width="416.25"
   height="240.9375"
   id="svg2"
   xml:space="preserve"
   inkscape:version="0.48.4 r9939"
   sodipodi:docname="Bild 5-38 Komponenten der MVC-Architektur und ihre Abhängigkeiten.svg"><sodipodi:namedview
     pagecolor="#ffffff"
     bordercolor="#666666"
     borderopacity="1"
     objecttolerance="10"
     gridtolerance="10"
     guidetolerance="10"
     inkscape:pageopacity="0"
     inkscape:pageshadow="2"
     inkscape:window-width="640"
     inkscape:window-height="480"
     id="namedview62"
     showgrid="false"
     inkscape:zoom="0.18730159"
     inkscape:cx="359.90625"
     inkscape:cy="130.78125"
     inkscape:window-x="0"
     inkscape:window-y="0"
     inkscape:window-maximized="0"
     inkscape:current-layer="svg2" /><metadata
     id="metadata8"><rdf:RDF><cc:Work
         rdf:about=""><dc:format>image/svg+xml</dc:format><dc:type
           rdf:resource="http://purl.org/dc/dcmitype/StillImage" /></cc:Work></rdf:RDF></metadata><defs
     id="defs6"><clipPath
       id="clipPath20"><path
         d="m 217.23,540.91 118.45,0 0,46.8 -118.45,0 0,-46.8 z"
         inkscape:connector-curvature="0"
         id="path22" /></clipPath><clipPath
       id="clipPath28"><path
         d="m 217.22,540.91 118.46,0 0,46.8 -118.46,0 0,-46.8 z"
         inkscape:connector-curvature="0"
         id="path30" /></clipPath><clipPath
       id="clipPath40"><path
         d="m 217.22,540.91 118.46,0 0,46.8 -118.46,0 0,-46.8 z"
         inkscape:connector-curvature="0"
         id="path42" /></clipPath><clipPath
       id="clipPath52"><path
         d="m 430.25,540.91 118.47,0 0,46.8 -118.47,0 0,-46.8 z"
         inkscape:connector-curvature="0"
         id="path54" /></clipPath><clipPath
       id="clipPath60"><path
         d="m 430.25,540.91 118.46,0 0,46.8 -118.46,0 0,-46.8 z"
         inkscape:connector-curvature="0"
         id="path62" /></clipPath><clipPath
       id="clipPath72"><path
         d="m 430.25,540.91 118.46,0 0,46.8 -118.46,0 0,-46.8 z"
         inkscape:connector-curvature="0"
         id="path74" /></clipPath><clipPath
       id="clipPath80"><path
         d="m 430.25,540.91 118.46,0 0,46.8 -118.46,0 0,-46.8 z"
         inkscape:connector-curvature="0"
         id="path82" /></clipPath><clipPath
       id="clipPath92"><path
         d="m 334.25,403.72 118.44,0 0,46.71 -118.44,0 0,-46.71 z"
         inkscape:connector-curvature="0"
         id="path94" /></clipPath><clipPath
       id="clipPath100"><path
         d="m 334.25,403.73 118.44,0 0,46.704 -118.44,0 0,-46.704 z"
         inkscape:connector-curvature="0"
         id="path102" /></clipPath><clipPath
       id="clipPath112"><path
         d="m 334.25,403.73 118.44,0 0,46.704 -118.44,0 0,-46.704 z"
         inkscape:connector-curvature="0"
         id="path114" /></clipPath></defs><g
     transform="matrix(1.25,0,0,-1.25,-270.46875,740.15625)"
     id="g10"><path
       d="m 216.75,537 119.25,0 0,54.75 -119.25,0 0,-54.75 z"
       inkscape:connector-curvature="0"
       id="path12"
       style="fill:#ffffff;fill-opacity:1;fill-rule:evenodd;stroke:none" /><path
       d="m 216.75,537 119.25,0 0,54.75 -119.25,0 0,-54.75 z"
       inkscape:connector-curvature="0"
       id="path14"
       style="fill:none;stroke:#000000;stroke-width:0.75;stroke-linecap:round;stroke-linejoin:miter;stroke-miterlimit:10;stroke-opacity:1;stroke-dasharray:none" /><g
       id="g16"><g
         clip-path="url(#clipPath20)"
         id="g18"><g
           id="g24"><g
             clip-path="url(#clipPath28)"
             id="g26"><text
   transform="matrix(1,0,0,-1,262.82,576.31)"
   id="text32"><tspan
     x="0 8.0279999 11.364 17.988001"
     y="0"
     id="tspan34"
     style="font-size:12px;font-variant:normal;font-weight:bold;writing-mode:lr-tb;fill:#000000;fill-opacity:1;fill-rule:nonzero;stroke:none;font-family:Helvetica;-inkscape-font-specification:Helvetica-Bold">View</tspan></text>

</g></g><g
           id="g36"><g
             clip-path="url(#clipPath40)"
             id="g38" /></g></g></g><path
       d="m 429.75,537 119.25,0 0,54.75 -119.25,0 0,-54.75 z"
       inkscape:connector-curvature="0"
       id="path44"
       style="fill:#ffffff;fill-opacity:1;fill-rule:evenodd;stroke:none" /><path
       d="m 429.75,537 119.25,0 0,54.75 -119.25,0 0,-54.75 z"
       inkscape:connector-curvature="0"
       id="path46"
       style="fill:none;stroke:#000000;stroke-width:0.75;stroke-linecap:round;stroke-linejoin:miter;stroke-miterlimit:10;stroke-opacity:1;stroke-dasharray:none" /><g
       id="g48"><g
         clip-path="url(#clipPath52)"
         id="g50"><g
           id="g56"><g
             clip-path="url(#clipPath60)"
             id="g58"><text
   transform="matrix(1,0,0,-1,460.85,576.67)"
   id="text64"><tspan
     x="0 8.6639996 15.996 23.280001 27.275999 31.944 39.276001 42.612 45.948002 52.667999"
     y="0"
     id="tspan66"
     style="font-size:12px;font-variant:normal;font-weight:bold;writing-mode:lr-tb;fill:#000000;fill-opacity:1;fill-rule:nonzero;stroke:none;font-family:Helvetica;-inkscape-font-specification:Helvetica-Bold">Controller</tspan></text>

</g></g><g
           id="g68"><g
             clip-path="url(#clipPath72)"
             id="g70" /></g><g
           id="g76"><g
             clip-path="url(#clipPath80)"
             id="g78" /></g></g></g><path
       d="m 333.75,399.75 119.25,0 0,54.75 -119.25,0 0,-54.75 z"
       inkscape:connector-curvature="0"
       id="path84"
       style="fill:#ffffff;fill-opacity:1;fill-rule:evenodd;stroke:none" /><path
       d="m 333.75,399.75 119.25,0 0,54.75 -119.25,0 0,-54.75 z"
       inkscape:connector-curvature="0"
       id="path86"
       style="fill:none;stroke:#000000;stroke-width:0.75;stroke-linecap:round;stroke-linejoin:miter;stroke-miterlimit:10;stroke-opacity:1;stroke-dasharray:none" /><g
       id="g88"><g
         clip-path="url(#clipPath92)"
         id="g90"><g
           id="g96"><g
             clip-path="url(#clipPath100)"
             id="g98"><text
   transform="matrix(1,0,0,-1,376.13,438.89)"
   id="text104"><tspan
     x="0 9.96 17.292 24.624001 31.296"
     y="0"
     id="tspan106"
     style="font-size:12px;font-variant:normal;font-weight:bold;writing-mode:lr-tb;fill:#000000;fill-opacity:1;fill-rule:nonzero;stroke:none;font-family:Helvetica;-inkscape-font-specification:Helvetica-Bold">Model</tspan></text>

</g></g><g
           id="g108"><g
             clip-path="url(#clipPath112)"
             id="g110" /></g></g></g><path
       d="m 481.91,536.72 -3.95,-5.78 c -0.16,-0.23 -0.47,-0.28 -0.7,-0.13 -0.23,0.16 -0.28,0.47 -0.13,0.7 l 3.96,5.77 c 0.15,0.23 0.46,0.29 0.69,0.13 0.23,-0.15 0.29,-0.46 0.13,-0.69 z m -6.21,-9.08 -3.96,-5.77 c -0.15,-0.23 -0.46,-0.29 -0.69,-0.13 -0.23,0.15 -0.29,0.46 -0.13,0.69 l 3.95,5.78 c 0.16,0.22 0.47,0.28 0.7,0.13 0.23,-0.16 0.28,-0.47 0.13,-0.7 z m -6.22,-9.08 -3.95,-5.77 c -0.16,-0.23 -0.47,-0.29 -0.7,-0.13 -0.22,0.15 -0.28,0.47 -0.13,0.69 l 3.96,5.78 c 0.15,0.23 0.47,0.29 0.69,0.13 0.23,-0.16 0.29,-0.47 0.13,-0.7 z m -6.21,-9.07 -3.96,-5.78 c -0.15,-0.23 -0.46,-0.28 -0.69,-0.13 -0.23,0.16 -0.29,0.47 -0.13,0.7 l 3.95,5.77 c 0.16,0.23 0.47,0.29 0.7,0.13 0.23,-0.15 0.29,-0.46 0.13,-0.69 z m -6.22,-9.08 -3.95,-5.77 c -0.16,-0.23 -0.47,-0.29 -0.7,-0.13 -0.22,0.15 -0.28,0.46 -0.13,0.69 l 3.96,5.78 c 0.16,0.23 0.47,0.28 0.69,0.13 0.23,-0.16 0.29,-0.47 0.13,-0.7 z m -6.21,-9.07 -3.95,-5.78 c -0.16,-0.23 -0.47,-0.29 -0.7,-0.13 -0.23,0.16 -0.29,0.47 -0.13,0.69 l 3.95,5.78 c 0.16,0.23 0.47,0.29 0.7,0.13 0.23,-0.16 0.29,-0.47 0.13,-0.69 z m -6.21,-9.08 -3.96,-5.78 c -0.15,-0.22 -0.47,-0.28 -0.69,-0.13 -0.23,0.16 -0.29,0.47 -0.13,0.7 l 3.95,5.77 c 0.16,0.23 0.47,0.29 0.7,0.13 0.22,-0.15 0.28,-0.46 0.13,-0.69 z m -6.22,-9.08 -3.95,-5.77 c -0.16,-0.23 -0.47,-0.29 -0.7,-0.13 -0.23,0.15 -0.28,0.46 -0.13,0.69 l 3.96,5.78 c 0.15,0.23 0.46,0.28 0.69,0.13 0.23,-0.16 0.29,-0.47 0.13,-0.7 z m -6.21,-9.07 -3.96,-5.78 c -0.15,-0.23 -0.47,-0.29 -0.69,-0.13 -0.23,0.16 -0.29,0.47 -0.13,0.7 l 3.95,5.77 c 0.16,0.23 0.47,0.29 0.7,0.13 0.22,-0.15 0.28,-0.47 0.13,-0.69 z m 2.86,-4.56 -10.01,-5 1.04,11.15 c 0.03,0.27 0.27,0.47 0.55,0.45 0.27,-0.03 0.47,-0.27 0.45,-0.55 l -0.96,-10.25 -0.72,0.5 9.21,4.6 c 0.24,0.12 0.54,0.02 0.67,-0.22 0.12,-0.25 0.02,-0.55 -0.23,-0.68 z"
       inkscape:connector-curvature="0"
       id="path116"
       style="fill:#000000;fill-opacity:1;fill-rule:nonzero;stroke:none" /><path
       d="m 280.1,537.36 4.97,-4.93 c 0.2,-0.2 0.2,-0.51 0.01,-0.71 -0.2,-0.2 -0.51,-0.2 -0.71,0 l -4.97,4.92 c -0.2,0.2 -0.2,0.52 -0.01,0.71 0.2,0.2 0.52,0.2 0.71,0.01 z m 7.82,-7.75 4.97,-4.92 c 0.19,-0.2 0.19,-0.52 0,-0.71 -0.19,-0.2 -0.51,-0.2 -0.71,-0.01 l -4.97,4.93 c -0.19,0.2 -0.2,0.51 0,0.71 0.19,0.2 0.51,0.2 0.71,0 z m 7.81,-7.74 4.97,-4.93 c 0.2,-0.19 0.2,-0.51 0,-0.7 -0.19,-0.2 -0.51,-0.2 -0.7,-0.01 l -4.98,4.93 c -0.19,0.19 -0.19,0.51 0,0.71 0.2,0.19 0.51,0.19 0.71,0 z m 7.81,-7.74 4.97,-4.93 c 0.2,-0.2 0.2,-0.51 0.01,-0.71 -0.2,-0.19 -0.51,-0.2 -0.71,0 l -4.97,4.93 c -0.2,0.19 -0.2,0.51 -0.01,0.7 0.2,0.2 0.52,0.2 0.71,0.01 z m 7.82,-7.75 4.97,-4.92 c 0.19,-0.2 0.19,-0.51 0,-0.71 -0.19,-0.2 -0.51,-0.2 -0.71,0 l -4.97,4.92 c -0.2,0.2 -0.2,0.51 0,0.71 0.19,0.2 0.51,0.2 0.71,0 z m 7.81,-7.74 4.97,-4.93 c 0.2,-0.19 0.2,-0.51 0,-0.7 -0.19,-0.2 -0.51,-0.2 -0.7,-0.01 l -4.98,4.93 c -0.19,0.19 -0.19,0.51 0,0.71 0.2,0.19 0.51,0.2 0.71,0 z m 7.81,-7.74 4.97,-4.93 c 0.2,-0.19 0.2,-0.51 0.01,-0.71 -0.2,-0.19 -0.51,-0.19 -0.71,0 l -4.97,4.93 c -0.2,0.19 -0.2,0.51 -0.01,0.7 0.2,0.2 0.52,0.2 0.71,0.01 z m 7.81,-7.74 4.98,-4.93 c 0.19,-0.2 0.19,-0.51 0,-0.71 -0.19,-0.2 -0.51,-0.2 -0.71,0 l -4.97,4.92 c -0.2,0.2 -0.2,0.52 0,0.71 0.19,0.2 0.51,0.2 0.7,0.01 z m 7.82,-7.75 4.97,-4.93 c 0.2,-0.19 0.2,-0.51 0,-0.7 -0.19,-0.2 -0.51,-0.2 -0.7,-0.01 l -4.98,4.93 c -0.19,0.2 -0.19,0.51 0,0.71 0.2,0.2 0.51,0.2 0.71,0 z m 7.81,-7.74 4.97,-4.93 c 0.2,-0.19 0.2,-0.51 0.01,-0.71 -0.2,-0.19 -0.51,-0.19 -0.71,0 l -4.97,4.93 c -0.2,0.19 -0.2,0.51 -0.01,0.71 0.2,0.19 0.52,0.19 0.71,0 z m 7.81,-7.74 3.7,-3.67 c 0.2,-0.19 0.2,-0.51 0.01,-0.7 -0.2,-0.2 -0.52,-0.2 -0.71,-0.01 l -3.7,3.67 c -0.2,0.19 -0.2,0.51 0,0.7 0.19,0.2 0.51,0.2 0.7,0.01 z m 0.96,6 3.12,-10.75 -10.78,3.03 c -0.26,0.07 -0.42,0.35 -0.34,0.62 0.07,0.26 0.35,0.42 0.61,0.34 l 9.91,-2.78 -0.61,-0.62 -2.87,9.89 c -0.08,0.26 0.07,0.54 0.34,0.61 0.26,0.08 0.54,-0.07 0.62,-0.34 z"
       inkscape:connector-curvature="0"
       id="path118"
       style="fill:#000000;fill-opacity:1;fill-rule:nonzero;stroke:none" /><path
       d="m 429.75,569.5 -7,0 c -0.28,0 -0.5,0.22 -0.5,0.5 0,0.28 0.22,0.5 0.5,0.5 l 7,0 c 0.28,0 0.5,-0.22 0.5,-0.5 0,-0.28 -0.22,-0.5 -0.5,-0.5 z m -11,0 -7,0 c -0.28,0 -0.5,0.22 -0.5,0.5 0,0.28 0.22,0.5 0.5,0.5 l 7,0 c 0.28,0 0.5,-0.22 0.5,-0.5 0,-0.28 -0.22,-0.5 -0.5,-0.5 z m -11,0 -7,0 c -0.28,0 -0.5,0.22 -0.5,0.5 0,0.28 0.22,0.5 0.5,0.5 l 7,0 c 0.28,0 0.5,-0.22 0.5,-0.5 0,-0.28 -0.22,-0.5 -0.5,-0.5 z m -11,0 -7,0 c -0.28,0 -0.5,0.22 -0.5,0.5 0,0.28 0.22,0.5 0.5,0.5 l 7,0 c 0.28,0 0.5,-0.22 0.5,-0.5 0,-0.28 -0.22,-0.5 -0.5,-0.5 z m -11,0 -7,0 c -0.28,0 -0.5,0.22 -0.5,0.5 0,0.28 0.22,0.5 0.5,0.5 l 7,0 c 0.28,0 0.5,-0.22 0.5,-0.5 0,-0.28 -0.22,-0.5 -0.5,-0.5 z m -11,0 -7,0 c -0.28,0 -0.5,0.22 -0.5,0.5 0,0.28 0.22,0.5 0.5,0.5 l 7,0 c 0.28,0 0.5,-0.22 0.5,-0.5 0,-0.28 -0.22,-0.5 -0.5,-0.5 z m -11,0 -7,0 c -0.28,0 -0.5,0.22 -0.5,0.5 0,0.28 0.22,0.5 0.5,0.5 l 7,0 c 0.28,0 0.5,-0.22 0.5,-0.5 0,-0.28 -0.22,-0.5 -0.5,-0.5 z m -11,0 -7,0 c -0.28,0 -0.5,0.22 -0.5,0.5 0,0.28 0.22,0.5 0.5,0.5 l 7,0 c 0.28,0 0.5,-0.22 0.5,-0.5 0,-0.28 -0.22,-0.5 -0.5,-0.5 z m -11,0 -3.75,0 c -0.28,0 -0.5,0.22 -0.5,0.5 0,0.28 0.22,0.5 0.5,0.5 l 3.75,0 c 0.28,0 0.5,-0.22 0.5,-0.5 0,-0.28 -0.22,-0.5 -0.5,-0.5 z m 5.01,-4.94 -9.79,5.44 9.79,5.44 c 0.24,0.13 0.54,0.04 0.68,-0.2 0.13,-0.24 0.04,-0.54 -0.2,-0.68 l -9,-5 0,0.88 9,-5 c 0.24,-0.14 0.33,-0.44 0.2,-0.68 -0.14,-0.24 -0.44,-0.33 -0.68,-0.2 z"
       inkscape:connector-curvature="0"
       id="path120"
       style="fill:#000000;fill-opacity:1;fill-rule:nonzero;stroke:none" /><path
       d="m 336,555.5 7,0 c 0.28,0 0.5,-0.22 0.5,-0.5 0,-0.28 -0.22,-0.5 -0.5,-0.5 l -7,0 c -0.28,0 -0.5,0.22 -0.5,0.5 0,0.28 0.22,0.5 0.5,0.5 z m 11,0 7,0 c 0.28,0 0.5,-0.22 0.5,-0.5 0,-0.28 -0.22,-0.5 -0.5,-0.5 l -7,0 c -0.28,0 -0.5,0.22 -0.5,0.5 0,0.28 0.22,0.5 0.5,0.5 z m 11,0 7,0 c 0.28,0 0.5,-0.22 0.5,-0.5 0,-0.28 -0.22,-0.5 -0.5,-0.5 l -7,0 c -0.28,0 -0.5,0.22 -0.5,0.5 0,0.28 0.22,0.5 0.5,0.5 z m 11,0 7,0 c 0.28,0 0.5,-0.22 0.5,-0.5 0,-0.28 -0.22,-0.5 -0.5,-0.5 l -7,0 c -0.28,0 -0.5,0.22 -0.5,0.5 0,0.28 0.22,0.5 0.5,0.5 z m 11,0 7,0 c 0.28,0 0.5,-0.22 0.5,-0.5 0,-0.28 -0.22,-0.5 -0.5,-0.5 l -7,0 c -0.28,0 -0.5,0.22 -0.5,0.5 0,0.28 0.22,0.5 0.5,0.5 z m 11,0 7,0 c 0.28,0 0.5,-0.22 0.5,-0.5 0,-0.28 -0.22,-0.5 -0.5,-0.5 l -7,0 c -0.28,0 -0.5,0.22 -0.5,0.5 0,0.28 0.22,0.5 0.5,0.5 z m 11,0 7,0 c 0.28,0 0.5,-0.22 0.5,-0.5 0,-0.28 -0.22,-0.5 -0.5,-0.5 l -7,0 c -0.28,0 -0.5,0.22 -0.5,0.5 0,0.28 0.22,0.5 0.5,0.5 z m 11,0 7,0 c 0.28,0 0.5,-0.22 0.5,-0.5 0,-0.28 -0.22,-0.5 -0.5,-0.5 l -7,0 c -0.28,0 -0.5,0.22 -0.5,0.5 0,0.28 0.22,0.5 0.5,0.5 z m 11,0 3.75,0 c 0.28,0 0.5,-0.22 0.5,-0.5 0,-0.28 -0.22,-0.5 -0.5,-0.5 l -3.75,0 c -0.28,0 -0.5,0.22 -0.5,0.5 0,0.28 0.22,0.5 0.5,0.5 z m -5.01,4.94 9.79,-5.44 -9.79,-5.44 c -0.24,-0.13 -0.54,-0.04 -0.68,0.2 -0.13,0.24 -0.04,0.54 0.2,0.68 l 9,5 0,-0.88 -9,5 c -0.24,0.14 -0.33,0.44 -0.2,0.68 0.14,0.24 0.44,0.33 0.68,0.2 z"
       inkscape:connector-curvature="0"
       id="path122"
       style="fill:#000000;fill-opacity:1;fill-rule:nonzero;stroke:none" /></g></svg>