<?xml version="1.0" encoding="UTF-8" standalone="no"?>
<!-- Created with Inkscape (http://www.inkscape.org/) -->

<svg
   xmlns:dc="http://purl.org/dc/elements/1.1/"
   xmlns:cc="http://creativecommons.org/ns#"
   xmlns:rdf="http://www.w3.org/1999/02/22-rdf-syntax-ns#"
   xmlns:svg="http://www.w3.org/2000/svg"
   xmlns="http://www.w3.org/2000/svg"
   xmlns:sodipodi="http://sodipodi.sourceforge.net/DTD/sodipodi-0.dtd"
   xmlns:inkscape="http://www.inkscape.org/namespaces/inkscape"
   version="1.1"
   width="484.9375"
   height="235.5625"
   id="svg2"
   xml:space="preserve"
   inkscape:version="0.48.4 r9939"
   sodipodi:docname="Bild 5-17 Sequenzdiagramm für das Push-Prinzip .svg"><sodipodi:namedview
     pagecolor="#ffffff"
     bordercolor="#666666"
     borderopacity="1"
     objecttolerance="10"
     gridtolerance="10"
     guidetolerance="10"
     inkscape:pageopacity="0"
     inkscape:pageshadow="2"
     inkscape:window-width="640"
     inkscape:window-height="480"
     id="namedview201"
     showgrid="false"
     inkscape:zoom="0.18730159"
     inkscape:cx="126.15625"
     inkscape:cy="156.34375"
     inkscape:window-x="0"
     inkscape:window-y="0"
     inkscape:window-maximized="0"
     inkscape:current-layer="svg2" /><metadata
     id="metadata8"><rdf:RDF><cc:Work
         rdf:about=""><dc:format>image/svg+xml</dc:format><dc:type
           rdf:resource="http://purl.org/dc/dcmitype/StillImage" /></cc:Work></rdf:RDF></metadata><defs
     id="defs6"><clipPath
       id="clipPath38"><path
         d="m 404.21,550.39 54.72,0 0,12.6 -54.72,0 0,-12.6 z"
         inkscape:connector-curvature="0"
         id="path40" /></clipPath><clipPath
       id="clipPath46"><path
         d="m 404.21,550.39 54.72,0 0,12.6 -54.72,0 0,-12.6 z"
         inkscape:connector-curvature="0"
         id="path48" /></clipPath><clipPath
       id="clipPath58"><path
         d="m 404.21,550.39 54.72,0 0,12.6 -54.72,0 0,-12.6 z"
         inkscape:connector-curvature="0"
         id="path60" /></clipPath><clipPath
       id="clipPath70"><path
         d="m 516.68,550.39 52.8,0 0,12.6 -52.8,0 0,-12.6 z"
         inkscape:connector-curvature="0"
         id="path72" /></clipPath><clipPath
       id="clipPath78"><path
         d="m 516.67,550.39 52.8,0 0,12.6 -52.8,0 0,-12.6 z"
         inkscape:connector-curvature="0"
         id="path80" /></clipPath><clipPath
       id="clipPath90"><path
         d="m 516.67,550.39 52.8,0 0,12.6 -52.8,0 0,-12.6 z"
         inkscape:connector-curvature="0"
         id="path92" /></clipPath><clipPath
       id="clipPath102"><path
         d="m 626.48,550.39 52.815,0 0,12.6 -52.815,0 0,-12.6 z"
         inkscape:connector-curvature="0"
         id="path104" /></clipPath><clipPath
       id="clipPath110"><path
         d="m 626.47,550.39 52.824,0 0,12.6 -52.824,0 0,-12.6 z"
         inkscape:connector-curvature="0"
         id="path112" /></clipPath><clipPath
       id="clipPath122"><path
         d="m 626.47,550.39 52.824,0 0,12.6 -52.824,0 0,-12.6 z"
         inkscape:connector-curvature="0"
         id="path124" /></clipPath><clipPath
       id="clipPath154"><path
         d="m 579.08,442.99 47.4,0 0,10.68 -47.4,0 0,-10.68 z"
         inkscape:connector-curvature="0"
         id="path156" /></clipPath><clipPath
       id="clipPath162"><path
         d="m 579.07,442.99 47.4,0 0,10.68 -47.4,0 0,-10.68 z"
         inkscape:connector-curvature="0"
         id="path164" /></clipPath><clipPath
       id="clipPath174"><path
         d="m 579.07,442.99 47.4,0 0,10.68 -47.4,0 0,-10.68 z"
         inkscape:connector-curvature="0"
         id="path176" /></clipPath><clipPath
       id="clipPath182"><path
         d="m 662.01,427.6 36,0 0,10.68 -36,0 0,-10.68 z"
         inkscape:connector-curvature="0"
         id="path184" /></clipPath><clipPath
       id="clipPath190"><path
         d="m 662.02,427.61 36,0 0,10.68 -36,0 0,-10.68 z"
         inkscape:connector-curvature="0"
         id="path192" /></clipPath><clipPath
       id="clipPath202"><path
         d="m 662.02,427.61 36,0 0,10.68 -36,0 0,-10.68 z"
         inkscape:connector-curvature="0"
         id="path204" /></clipPath><clipPath
       id="clipPath214"><path
         d="m 662.02,427.61 36,0 0,10.68 -36,0 0,-10.68 z"
         inkscape:connector-curvature="0"
         id="path216" /></clipPath><clipPath
       id="clipPath226"><path
         d="m 662.02,427.61 36,0 0,10.68 -36,0 0,-10.68 z"
         inkscape:connector-curvature="0"
         id="path228" /></clipPath><clipPath
       id="clipPath236"><path
         d="m 463.97,497.95 46.11,0 0,10.8 -46.11,0 0,-10.8 z"
         inkscape:connector-curvature="0"
         id="path238" /></clipPath><clipPath
       id="clipPath244"><path
         d="m 463.97,497.95 46.104,0 0,10.8 -46.104,0 0,-10.8 z"
         inkscape:connector-curvature="0"
         id="path246" /></clipPath><clipPath
       id="clipPath256"><path
         d="m 463.97,497.95 46.104,0 0,10.8 -46.104,0 0,-10.8 z"
         inkscape:connector-curvature="0"
         id="path258" /></clipPath><clipPath
       id="clipPath278"><path
         d="m 552.08,467.47 51.72,0 0,10.68 -51.72,0 0,-10.68 z"
         inkscape:connector-curvature="0"
         id="path280" /></clipPath><clipPath
       id="clipPath286"><path
         d="m 552.07,467.47 51.72,0 0,10.68 -51.72,0 0,-10.68 z"
         inkscape:connector-curvature="0"
         id="path288" /></clipPath><clipPath
       id="clipPath298"><path
         d="m 552.07,467.47 51.72,0 0,10.68 -51.72,0 0,-10.68 z"
         inkscape:connector-curvature="0"
         id="path300" /></clipPath><clipPath
       id="clipPath310"><path
         d="m 552.07,467.47 51.72,0 0,10.68 -51.72,0 0,-10.68 z"
         inkscape:connector-curvature="0"
         id="path312" /></clipPath><clipPath
       id="clipPath332"><path
         d="m 690.81,404.08 53.28,0 0,10.68 -53.28,0 0,-10.68 z"
         inkscape:connector-curvature="0"
         id="path334" /></clipPath><clipPath
       id="clipPath340"><path
         d="m 690.82,404.09 53.28,0 0,10.68 -53.28,0 0,-10.68 z"
         inkscape:connector-curvature="0"
         id="path342" /></clipPath><clipPath
       id="clipPath352"><path
         d="m 690.82,404.09 53.28,0 0,10.68 -53.28,0 0,-10.68 z"
         inkscape:connector-curvature="0"
         id="path354" /></clipPath><clipPath
       id="clipPath370"><path
         d="m 737.97,550.39 52.68,0 0,12.6 -52.68,0 0,-12.6 z"
         inkscape:connector-curvature="0"
         id="path372" /></clipPath><clipPath
       id="clipPath378"><path
         d="m 737.98,550.39 52.68,0 0,12.6 -52.68,0 0,-12.6 z"
         inkscape:connector-curvature="0"
         id="path380" /></clipPath><clipPath
       id="clipPath390"><path
         d="m 737.98,550.39 52.68,0 0,12.6 -52.68,0 0,-12.6 z"
         inkscape:connector-curvature="0"
         id="path392" /></clipPath></defs><g
     transform="matrix(1.25,0,0,-1.25,-504.21875,709.21875)"
     id="g10"><path
       d="m 652.7,443.35 4.25,0 0,9.05 -4.25,0 0,-9.05 z"
       inkscape:connector-curvature="0"
       id="path12"
       style="fill:#ffffff;fill-opacity:1;fill-rule:evenodd;stroke:none" /><path
       d="m 652.7,443.35 4.25,0 0,9.05 -4.25,0 0,-9.05 z"
       inkscape:connector-curvature="0"
       id="path14"
       style="fill:none;stroke:#000000;stroke-width:0.75;stroke-linecap:round;stroke-linejoin:miter;stroke-miterlimit:10;stroke-opacity:1;stroke-dasharray:none" /><path
       d="m 652.7,416.35 4.25,0 0,9.05 -4.25,0 0,-9.05 z"
       inkscape:connector-curvature="0"
       id="path16"
       style="fill:#ffffff;fill-opacity:1;fill-rule:evenodd;stroke:none" /><path
       d="m 652.7,416.35 4.25,0 0,9.05 -4.25,0 0,-9.05 z"
       inkscape:connector-curvature="0"
       id="path18"
       style="fill:none;stroke:#000000;stroke-width:0.75;stroke-linecap:round;stroke-linejoin:miter;stroke-miterlimit:10;stroke-opacity:1;stroke-dasharray:none" /><path
       d="m 543,483.55 4.2499,0 0,9.05 -4.2499,0 0,-9.05 z"
       inkscape:connector-curvature="0"
       id="path20"
       style="fill:#ffffff;fill-opacity:1;fill-rule:evenodd;stroke:none" /><path
       d="m 543,483.55 4.2499,0 0,9.05 -4.2499,0 0,-9.05 z"
       inkscape:connector-curvature="0"
       id="path22"
       style="fill:none;stroke:#000000;stroke-width:0.75;stroke-linecap:round;stroke-linejoin:miter;stroke-miterlimit:10;stroke-opacity:1;stroke-dasharray:none" /><path
       d="m 543,456.55 4.2499,0 0,9.05 -4.2499,0 0,-9.05 z"
       inkscape:connector-curvature="0"
       id="path24"
       style="fill:#ffffff;fill-opacity:1;fill-rule:evenodd;stroke:none" /><path
       d="m 543,456.55 4.2499,0 0,9.05 -4.2499,0 0,-9.05 z"
       inkscape:connector-curvature="0"
       id="path26"
       style="fill:none;stroke:#000000;stroke-width:0.75;stroke-linecap:round;stroke-linejoin:miter;stroke-miterlimit:10;stroke-opacity:1;stroke-dasharray:none" /><path
       d="m 547.25,454.95 92.3,0 c 0.28,0 0.5,-0.22 0.5,-0.5 0,-0.28 -0.22,-0.5 -0.5,-0.5 l -92.3,0 c -0.28,0 -0.5,0.22 -0.5,0.5 0,0.28 0.22,0.5 0.5,0.5 z m 91.3,4.5 10,-5 -10,-5 0,10 z"
       inkscape:connector-curvature="0"
       id="path28"
       style="fill:#000000;fill-opacity:1;fill-rule:nonzero;stroke:none" /><path
       d="m 403.75,546.4 55.55,0 0,20.6 -55.55,0 0,-20.6 z"
       inkscape:connector-curvature="0"
       id="path30"
       style="fill:#ffffff;fill-opacity:1;fill-rule:evenodd;stroke:none" /><path
       d="m 403.75,546.4 55.55,0 0,20.6 -55.55,0 0,-20.6 z"
       inkscape:connector-curvature="0"
       id="path32"
       style="fill:none;stroke:#000000;stroke-width:0.75;stroke-linecap:round;stroke-linejoin:miter;stroke-miterlimit:10;stroke-opacity:1;stroke-dasharray:none" /><g
       id="g34"><g
         clip-path="url(#clipPath38)"
         id="g36"><g
           id="g42"><g
             clip-path="url(#clipPath46)"
             id="g44"><text
   transform="matrix(1,0,0,-1,412.61,551.95)"
   id="text50"><tspan
     x="0 3.336 12.708 19.416 26.124001 28.788 31.403999"
     y="0"
     id="tspan52"
     style="font-size:12px;font-variant:normal;font-weight:normal;writing-mode:lr-tb;fill:#000000;fill-opacity:1;fill-rule:nonzero;stroke:none;font-family:Helvetica;-inkscape-font-specification:Helvetica">:Quelle</tspan></text>

</g></g><g
           id="g54"><g
             clip-path="url(#clipPath58)"
             id="g56" /></g></g></g><path
       d="m 516.25,546.4 53.5,0 0,20.6 -53.5,0 0,-20.6 z"
       inkscape:connector-curvature="0"
       id="path62"
       style="fill:#ffffff;fill-opacity:1;fill-rule:evenodd;stroke:none" /><path
       d="m 516.25,546.4 53.5,0 0,20.6 -53.5,0 0,-20.6 z"
       inkscape:connector-curvature="0"
       id="path64"
       style="fill:none;stroke:#000000;stroke-width:0.75;stroke-linecap:round;stroke-linejoin:miter;stroke-miterlimit:10;stroke-opacity:1;stroke-dasharray:none" /><g
       id="g66"><g
         clip-path="url(#clipPath70)"
         id="g68"><g
           id="g74"><g
             clip-path="url(#clipPath78)"
             id="g76"><text
   transform="matrix(1,0,0,-1,524.71,551.95)"
   id="text82"><tspan
     x="0 3.336 10.668 13.332 15.96 19.296 26.028 30.024"
     y="0"
     id="tspan84"
     style="font-size:12px;font-variant:normal;font-weight:normal;writing-mode:lr-tb;fill:#000000;fill-opacity:1;fill-rule:nonzero;stroke:none;font-family:Helvetica;-inkscape-font-specification:Helvetica">:Filter1</tspan></text>

</g></g><g
           id="g86"><g
             clip-path="url(#clipPath90)"
             id="g88" /></g></g></g><path
       d="m 626.05,546.4 53.5,0 0,20.6 -53.5,0 0,-20.6 z"
       inkscape:connector-curvature="0"
       id="path94"
       style="fill:#ffffff;fill-opacity:1;fill-rule:evenodd;stroke:none" /><path
       d="m 626.05,546.4 53.5,0 0,20.6 -53.5,0 0,-20.6 z"
       inkscape:connector-curvature="0"
       id="path96"
       style="fill:none;stroke:#000000;stroke-width:0.75;stroke-linecap:round;stroke-linejoin:miter;stroke-miterlimit:10;stroke-opacity:1;stroke-dasharray:none" /><g
       id="g98"><g
         clip-path="url(#clipPath102)"
         id="g100"><g
           id="g106"><g
             clip-path="url(#clipPath110)"
             id="g108"><text
   transform="matrix(1,0,0,-1,634.51,551.95)"
   id="text114"><tspan
     x="0 3.336 10.668 13.332 15.96 19.296 26.028 30.024"
     y="0"
     id="tspan116"
     style="font-size:12px;font-variant:normal;font-weight:normal;writing-mode:lr-tb;fill:#000000;fill-opacity:1;fill-rule:nonzero;stroke:none;font-family:Helvetica;-inkscape-font-specification:Helvetica">:Filter2</tspan></text>

</g></g><g
           id="g118"><g
             clip-path="url(#clipPath122)"
             id="g120" /></g></g></g><g
       id="g126"><path
         d="m 431.5,546.6 0.4,-166.75"
         inkscape:connector-curvature="0"
         id="path128"
         style="fill:none;stroke:#000000;stroke-width:0.75;stroke-linecap:round;stroke-linejoin:round;stroke-miterlimit:10;stroke-opacity:1;stroke-dasharray:5.25, 3;stroke-dashoffset:0" /></g><g
       id="g130"><path
         d="M 543,546.15 543.45,379.5"
         inkscape:connector-curvature="0"
         id="path132"
         style="fill:none;stroke:#000000;stroke-width:0.75;stroke-linecap:round;stroke-linejoin:round;stroke-miterlimit:10;stroke-opacity:1;stroke-dasharray:5.25, 3;stroke-dashoffset:0" /></g><path
       d="m 538.25,441 9,0 0,81.9 -9,0 0,-81.9 z"
       inkscape:connector-curvature="0"
       id="path134"
       style="fill:#ffffff;fill-opacity:1;fill-rule:evenodd;stroke:none" /><path
       d="m 538.25,441 9,0 0,81.9 -9,0 0,-81.9 z"
       inkscape:connector-curvature="0"
       id="path136"
       style="fill:none;stroke:#000000;stroke-width:0.75;stroke-linecap:round;stroke-linejoin:miter;stroke-miterlimit:10;stroke-opacity:1;stroke-dasharray:none" /><g
       id="g138"><path
         d="M 652.75,546.3 652.8,379.9"
         inkscape:connector-curvature="0"
         id="path140"
         style="fill:none;stroke:#000000;stroke-width:0.75;stroke-linecap:round;stroke-linejoin:round;stroke-miterlimit:10;stroke-opacity:1;stroke-dasharray:5.25, 3;stroke-dashoffset:0" /></g><path
       d="m 648,405 9,0 0,65.25 -9,0 0,-65.25 z"
       inkscape:connector-curvature="0"
       id="path142"
       style="fill:#ffffff;fill-opacity:1;fill-rule:evenodd;stroke:none" /><path
       d="m 648,405 9,0 0,65.25 -9,0 0,-65.25 z"
       inkscape:connector-curvature="0"
       id="path144"
       style="fill:none;stroke:#000000;stroke-width:0.75;stroke-linecap:round;stroke-linejoin:miter;stroke-miterlimit:10;stroke-opacity:1;stroke-dasharray:none" /><path
       d="m 426.75,386.25 9,0 0,153.75 -9,0 0,-153.75 z"
       inkscape:connector-curvature="0"
       id="path146"
       style="fill:#ffffff;fill-opacity:1;fill-rule:evenodd;stroke:none" /><path
       d="m 426.75,386.25 9,0 0,153.75 -9,0 0,-153.75 z"
       inkscape:connector-curvature="0"
       id="path148"
       style="fill:none;stroke:#000000;stroke-width:0.75;stroke-linecap:round;stroke-linejoin:miter;stroke-miterlimit:10;stroke-opacity:1;stroke-dasharray:none" /><g
       id="g150"><g
         clip-path="url(#clipPath154)"
         id="g152"><g
           id="g158"><g
             clip-path="url(#clipPath162)"
             id="g160"><text
   transform="matrix(1,0,0,-1,586.27,444.43)"
   id="text166"><tspan
     x="0 7.0815601 10.42812 12.699 15.46788 21.00564 24.322321"
     y="0"
     id="tspan168"
     style="font-size:9.96000004px;font-variant:normal;font-weight:normal;writing-mode:lr-tb;fill:#000000;fill-opacity:1;fill-rule:nonzero;stroke:none;font-family:Helvetica;-inkscape-font-specification:Helvetica">write()</tspan></text>

</g></g><g
           id="g170"><g
             clip-path="url(#clipPath174)"
             id="g172" /></g></g></g><g
       id="g178"><g
         clip-path="url(#clipPath182)"
         id="g180"><g
           id="g186"><g
             clip-path="url(#clipPath190)"
             id="g188"><text
   transform="matrix(1,0,0,-1,674.02,430.85)"
   id="text194"><tspan
     x="0"
     y="0"
     id="tspan196"
     style="font-size:8.03999996px;font-variant:normal;font-weight:normal;writing-mode:lr-tb;fill:#000000;fill-opacity:1;fill-rule:nonzero;stroke:none;font-family:Helvetica;-inkscape-font-specification:Helvetica">f</tspan></text>

</g></g><g
           id="g198"><g
             clip-path="url(#clipPath202)"
             id="g200"><text
   transform="matrix(1,0,0,-1,676.3,430.85)"
   id="text206"><tspan
     x="0"
     y="0"
     id="tspan208"
     style="font-size:8.03999996px;font-variant:normal;font-weight:normal;writing-mode:lr-tb;fill:#000000;fill-opacity:1;fill-rule:nonzero;stroke:none;font-family:Helvetica;-inkscape-font-specification:Helvetica">2</tspan></text>

</g></g><g
           id="g210"><g
             clip-path="url(#clipPath214)"
             id="g212"><text
   transform="matrix(1,0,0,-1,680.74,430.85)"
   id="text218"><tspan
     x="0 2.6400199"
     y="0"
     id="tspan220"
     style="font-size:8.03999996px;font-variant:normal;font-weight:normal;writing-mode:lr-tb;fill:#000000;fill-opacity:1;fill-rule:nonzero;stroke:none;font-family:Helvetica;-inkscape-font-specification:Helvetica">()</tspan></text>

</g></g><g
           id="g222"><g
             clip-path="url(#clipPath226)"
             id="g224" /></g></g></g><path
       d="m 435.75,510.75 93.15,0 c 0.28,0 0.5,-0.22 0.5,-0.5 0,-0.28 -0.22,-0.5 -0.5,-0.5 l -93.15,0 c -0.28,0 -0.5,0.22 -0.5,0.5 0,0.28 0.22,0.5 0.5,0.5 z m 92.15,4.5 10,-5 -10,-5 0,10 z"
       inkscape:connector-curvature="0"
       id="path230"
       style="fill:#000000;fill-opacity:1;fill-rule:nonzero;stroke:none" /><g
       id="g232"><g
         clip-path="url(#clipPath236)"
         id="g234"><g
           id="g240"><g
             clip-path="url(#clipPath244)"
             id="g242"><text
   transform="matrix(1,0,0,-1,473.11,499.51)"
   id="text248"><tspan
     x="0 7.0815601 10.42812 12.699 15.46788 21.00564 24.322321"
     y="0"
     id="tspan250"
     style="font-size:9.96000004px;font-variant:normal;font-weight:normal;writing-mode:lr-tb;fill:#000000;fill-opacity:1;fill-rule:nonzero;stroke:none;font-family:Helvetica;-inkscape-font-specification:Helvetica">write()</tspan></text>

</g></g><g
           id="g252"><g
             clip-path="url(#clipPath256)"
             id="g254" /></g></g></g><path
       d="m 543.25,474.6 9,0 0,9 -9,0 0,-9 z"
       inkscape:connector-curvature="0"
       id="path260"
       style="fill:#ffffff;fill-opacity:1;fill-rule:evenodd;stroke:none" /><path
       d="m 543.25,474.6 9,0 0,9 -9,0 0,-9 z"
       inkscape:connector-curvature="0"
       id="path262"
       style="fill:none;stroke:#000000;stroke-width:0.75;stroke-linecap:round;stroke-linejoin:miter;stroke-miterlimit:10;stroke-opacity:1;stroke-dasharray:none" /><path
       d="m 547.3,488.6 22.95,0 c 0.28,0 0.5,-0.22 0.5,-0.5 l 0,-9 c 0,-0.28 -0.22,-0.5 -0.5,-0.5 l -9,0 c -0.28,0 -0.5,0.22 -0.5,0.5 0,0.28 0.22,0.5 0.5,0.5 l 9,0 -0.5,-0.5 0,9 0.5,-0.5 -22.95,0 c -0.28,0 -0.5,0.22 -0.5,0.5 0,0.28 0.22,0.5 0.5,0.5 z m 14.95,-14.5 -10,5 10,5 0,-10 z"
       inkscape:connector-curvature="0"
       id="path264"
       style="fill:#000000;fill-opacity:1;fill-rule:nonzero;stroke:none" /><path
       d="m 543.25,465.6 9,0 0,9 -9,0 0,-9 z"
       inkscape:connector-curvature="0"
       id="path266"
       style="fill:#ffffff;fill-opacity:1;fill-rule:evenodd;stroke:none" /><path
       d="m 543.25,465.6 9,0 0,9 -9,0 0,-9 z"
       inkscape:connector-curvature="0"
       id="path268"
       style="fill:none;stroke:#000000;stroke-width:0.75;stroke-linecap:round;stroke-linejoin:miter;stroke-miterlimit:10;stroke-opacity:1;stroke-dasharray:none" /><path
       d="m 543,465.6 9,0 0,18 -9,0 0,-18 z"
       inkscape:connector-curvature="0"
       id="path270"
       style="fill:#ffffff;fill-opacity:1;fill-rule:evenodd;stroke:none" /><path
       d="m 543,465.6 9,0 0,18 -9,0 0,-18 z"
       inkscape:connector-curvature="0"
       id="path272"
       style="fill:none;stroke:#000000;stroke-width:0.75;stroke-linecap:round;stroke-linejoin:miter;stroke-miterlimit:10;stroke-opacity:1;stroke-dasharray:none" /><g
       id="g274"><g
         clip-path="url(#clipPath278)"
         id="g276"><g
           id="g282"><g
             clip-path="url(#clipPath286)"
             id="g284"><text
   transform="matrix(1,0,0,-1,571.87,470.71)"
   id="text290"><tspan
     x="0 2.28002"
     y="0"
     id="tspan292"
     style="font-size:8.03999996px;font-variant:normal;font-weight:normal;writing-mode:lr-tb;fill:#000000;fill-opacity:1;fill-rule:nonzero;stroke:none;font-family:Helvetica;-inkscape-font-specification:Helvetica">f1</tspan></text>

</g></g><g
           id="g294"><g
             clip-path="url(#clipPath298)"
             id="g296"><text
   transform="matrix(1,0,0,-1,578.59,470.71)"
   id="text302"><tspan
     x="0 2.6400199"
     y="0"
     id="tspan304"
     style="font-size:8.03999996px;font-variant:normal;font-weight:normal;writing-mode:lr-tb;fill:#000000;fill-opacity:1;fill-rule:nonzero;stroke:none;font-family:Helvetica;-inkscape-font-specification:Helvetica">()</tspan></text>

</g></g><g
           id="g306"><g
             clip-path="url(#clipPath310)"
             id="g308" /></g></g></g><path
       d="m 652.95,425.4 9,0 0,9 -9,0 0,-9 z"
       inkscape:connector-curvature="0"
       id="path314"
       style="fill:#ffffff;fill-opacity:1;fill-rule:evenodd;stroke:none" /><path
       d="m 652.95,425.4 9,0 0,9 -9,0 0,-9 z"
       inkscape:connector-curvature="0"
       id="path316"
       style="fill:none;stroke:#000000;stroke-width:0.75;stroke-linecap:round;stroke-linejoin:miter;stroke-miterlimit:10;stroke-opacity:1;stroke-dasharray:none" /><path
       d="m 652.95,434.4 9,0 0,9 -9,0 0,-9 z"
       inkscape:connector-curvature="0"
       id="path318"
       style="fill:#ffffff;fill-opacity:1;fill-rule:evenodd;stroke:none" /><path
       d="m 652.95,434.4 9,0 0,9 -9,0 0,-9 z"
       inkscape:connector-curvature="0"
       id="path320"
       style="fill:none;stroke:#000000;stroke-width:0.75;stroke-linecap:round;stroke-linejoin:miter;stroke-miterlimit:10;stroke-opacity:1;stroke-dasharray:none" /><path
       d="m 657,448.4 22.95,0 c 0.28,0 0.5,-0.22 0.5,-0.5 l 0,-9 c 0,-0.28 -0.22,-0.5 -0.5,-0.5 l -9,0 c -0.28,0 -0.5,0.22 -0.5,0.5 0,0.28 0.22,0.5 0.5,0.5 l 9,0 -0.5,-0.5 0,9 0.5,-0.5 -22.95,0 c -0.28,0 -0.5,0.22 -0.5,0.5 0,0.28 0.22,0.5 0.5,0.5 z m 14.95,-14.5 -10,5 10,5 0,-10 z"
       inkscape:connector-curvature="0"
       id="path322"
       style="fill:#000000;fill-opacity:1;fill-rule:nonzero;stroke:none" /><path
       d="m 653,425.3 9,0 0,18 -9,0 0,-18 z"
       inkscape:connector-curvature="0"
       id="path324"
       style="fill:#ffffff;fill-opacity:1;fill-rule:evenodd;stroke:none" /><path
       d="m 653,425.3 9,0 0,18 -9,0 0,-18 z"
       inkscape:connector-curvature="0"
       id="path326"
       style="fill:none;stroke:#000000;stroke-width:0.75;stroke-linecap:round;stroke-linejoin:miter;stroke-miterlimit:10;stroke-opacity:1;stroke-dasharray:none" /><g
       id="g328"><g
         clip-path="url(#clipPath332)"
         id="g330"><g
           id="g336"><g
             clip-path="url(#clipPath340)"
             id="g338"><text
   transform="matrix(1,0,0,-1,703.54,405.53)"
   id="text344"><tspan
     x="0 7.0815601 10.42812 12.699 15.46788 21.00564 24.322321"
     y="0"
     id="tspan346"
     style="font-size:9.96000004px;font-variant:normal;font-weight:normal;writing-mode:lr-tb;fill:#000000;fill-opacity:1;fill-rule:nonzero;stroke:none;font-family:Helvetica;-inkscape-font-specification:Helvetica">write()</tspan></text>

</g></g><g
           id="g348"><g
             clip-path="url(#clipPath352)"
             id="g350" /></g></g></g><path
       d="m 657,415.75 93.55,0 c 0.28,0 0.5,-0.22 0.5,-0.5 0,-0.28 -0.22,-0.5 -0.5,-0.5 l -93.55,0 c -0.28,0 -0.5,0.22 -0.5,0.5 0,0.28 0.22,0.5 0.5,0.5 z m 92.55,4.5 10,-5 -10,-5 0,10 z"
       inkscape:connector-curvature="0"
       id="path356"
       style="fill:#000000;fill-opacity:1;fill-rule:nonzero;stroke:none" /><g
       id="g358"><path
         d="M 764.3,548.35 764.35,379.3"
         inkscape:connector-curvature="0"
         id="path360"
         style="fill:none;stroke:#000000;stroke-width:0.75;stroke-linecap:round;stroke-linejoin:round;stroke-miterlimit:10;stroke-opacity:1;stroke-dasharray:5.25, 3;stroke-dashoffset:0" /></g><path
       d="m 737.45,546.4 53.5,0 0,20.6 -53.5,0 0,-20.6 z"
       inkscape:connector-curvature="0"
       id="path362"
       style="fill:#ffffff;fill-opacity:1;fill-rule:evenodd;stroke:none" /><path
       d="m 737.45,546.4 53.5,0 0,20.6 -53.5,0 0,-20.6 z"
       inkscape:connector-curvature="0"
       id="path364"
       style="fill:none;stroke:#000000;stroke-width:0.75;stroke-linecap:round;stroke-linejoin:miter;stroke-miterlimit:10;stroke-opacity:1;stroke-dasharray:none" /><g
       id="g366"><g
         clip-path="url(#clipPath370)"
         id="g368"><g
           id="g374"><g
             clip-path="url(#clipPath378)"
             id="g376"><text
   transform="matrix(1,0,0,-1,745.66,551.95)"
   id="text382"><tspan
     x="0 3.336 11.388 18.096001 24.804001 30.684"
     y="0"
     id="tspan384"
     style="font-size:12px;font-variant:normal;font-weight:normal;writing-mode:lr-tb;fill:#000000;fill-opacity:1;fill-rule:nonzero;stroke:none;font-family:Helvetica;-inkscape-font-specification:Helvetica">:Senke</tspan></text>

</g></g><g
           id="g386"><g
             clip-path="url(#clipPath390)"
             id="g388" /></g></g></g><path
       d="m 759.55,385.5 9,0 0,42.75 -9,0 0,-42.75 z"
       inkscape:connector-curvature="0"
       id="path394"
       style="fill:#ffffff;fill-opacity:1;fill-rule:evenodd;stroke:none" /><path
       d="m 759.55,385.5 9,0 0,42.75 -9,0 0,-42.75 z"
       inkscape:connector-curvature="0"
       id="path396"
       style="fill:none;stroke:#000000;stroke-width:0.75;stroke-linecap:round;stroke-linejoin:miter;stroke-miterlimit:10;stroke-opacity:1;stroke-dasharray:none" /><path
       d="m 455.85,546.6 0,20.4"
       inkscape:connector-curvature="0"
       id="path398"
       style="fill:none;stroke:#000000;stroke-width:0.75;stroke-linecap:round;stroke-linejoin:round;stroke-miterlimit:10;stroke-opacity:1;stroke-dasharray:none" /><path
       d="m 407.05,546.55 0,20.4"
       inkscape:connector-curvature="0"
       id="path400"
       style="fill:none;stroke:#000000;stroke-width:0.75;stroke-linecap:round;stroke-linejoin:round;stroke-miterlimit:10;stroke-opacity:1;stroke-dasharray:none" /></g></svg>