<?xml version="1.0" encoding="UTF-8" standalone="no"?>
<!-- Created with Inkscape (http://www.inkscape.org/) -->

<svg
   xmlns:dc="http://purl.org/dc/elements/1.1/"
   xmlns:cc="http://creativecommons.org/ns#"
   xmlns:rdf="http://www.w3.org/1999/02/22-rdf-syntax-ns#"
   xmlns:svg="http://www.w3.org/2000/svg"
   xmlns="http://www.w3.org/2000/svg"
   xmlns:sodipodi="http://sodipodi.sourceforge.net/DTD/sodipodi-0.dtd"
   xmlns:inkscape="http://www.inkscape.org/namespaces/inkscape"
   version="1.1"
   width="591.09375"
   height="409.21875"
   id="svg2"
   xml:space="preserve"
   inkscape:version="0.48.4 r9939"
   sodipodi:docname="Bild 5-8 Beispiel für ein Schichtenmodell eines Client-Server-Rechners.svg"><sodipodi:namedview
     pagecolor="#ffffff"
     bordercolor="#666666"
     borderopacity="1"
     objecttolerance="10"
     gridtolerance="10"
     guidetolerance="10"
     inkscape:pageopacity="0"
     inkscape:pageshadow="2"
     inkscape:window-width="640"
     inkscape:window-height="480"
     id="namedview232"
     showgrid="false"
     inkscape:zoom="0.18730159"
     inkscape:cx="379.59375"
     inkscape:cy="132.1875"
     inkscape:window-x="0"
     inkscape:window-y="0"
     inkscape:window-maximized="0"
     inkscape:current-layer="svg2" /><metadata
     id="metadata8"><rdf:RDF><cc:Work
         rdf:about=""><dc:format>image/svg+xml</dc:format><dc:type
           rdf:resource="http://purl.org/dc/dcmitype/StillImage" /></cc:Work></rdf:RDF></metadata><defs
     id="defs6"><clipPath
       id="clipPath20"><path
         d="m 201.39,684.21 293.33,0 0,36.96 -293.33,0 0,-36.96 z"
         inkscape:connector-curvature="0"
         id="path22" /></clipPath><clipPath
       id="clipPath28"><path
         d="m 201.38,684.22 293.33,0 0,36.96 -293.33,0 0,-36.96 z"
         inkscape:connector-curvature="0"
         id="path30" /></clipPath><clipPath
       id="clipPath36"><path
         d="m 201.38,684.22 293.33,0 0,36.96 -293.33,0 0,-36.96 z"
         inkscape:connector-curvature="0"
         id="path38" /></clipPath><clipPath
       id="clipPath48"><path
         d="m 201.38,684.22 293.33,0 0,36.96 -293.33,0 0,-36.96 z"
         inkscape:connector-curvature="0"
         id="path50" /></clipPath><clipPath
       id="clipPath60"><path
         d="m 201.38,684.22 293.33,0 0,36.96 -293.33,0 0,-36.96 z"
         inkscape:connector-curvature="0"
         id="path62" /></clipPath><clipPath
       id="clipPath72"><path
         d="m 201.38,684.22 293.33,0 0,36.96 -293.33,0 0,-36.96 z"
         inkscape:connector-curvature="0"
         id="path74" /></clipPath><clipPath
       id="clipPath84"><path
         d="m 201.38,684.22 293.33,0 0,36.96 -293.33,0 0,-36.96 z"
         inkscape:connector-curvature="0"
         id="path86" /></clipPath><clipPath
       id="clipPath96"><path
         d="m 201.39,528.91 293.33,0 0,34.08 -293.33,0 0,-34.08 z"
         inkscape:connector-curvature="0"
         id="path98" /></clipPath><clipPath
       id="clipPath104"><path
         d="m 201.38,528.91 293.33,0 0,34.08 -293.33,0 0,-34.08 z"
         inkscape:connector-curvature="0"
         id="path106" /></clipPath><clipPath
       id="clipPath112"><path
         d="m 201.38,528.91 293.33,0 0,34.08 -293.33,0 0,-34.08 z"
         inkscape:connector-curvature="0"
         id="path114" /></clipPath><clipPath
       id="clipPath124"><path
         d="m 201.38,528.91 293.33,0 0,34.08 -293.33,0 0,-34.08 z"
         inkscape:connector-curvature="0"
         id="path126" /></clipPath><clipPath
       id="clipPath136"><path
         d="m 201.38,528.91 293.33,0 0,34.08 -293.33,0 0,-34.08 z"
         inkscape:connector-curvature="0"
         id="path138" /></clipPath><clipPath
       id="clipPath148"><path
         d="m 201.39,486.91 293.33,0 0,34.08 -293.33,0 0,-34.08 z"
         inkscape:connector-curvature="0"
         id="path150" /></clipPath><clipPath
       id="clipPath156"><path
         d="m 201.38,486.91 293.33,0 0,34.08 -293.33,0 0,-34.08 z"
         inkscape:connector-curvature="0"
         id="path158" /></clipPath><clipPath
       id="clipPath164"><path
         d="m 201.38,486.91 293.33,0 0,34.08 -293.33,0 0,-34.08 z"
         inkscape:connector-curvature="0"
         id="path166" /></clipPath><clipPath
       id="clipPath176"><path
         d="m 201.38,486.91 293.33,0 0,34.08 -293.33,0 0,-34.08 z"
         inkscape:connector-curvature="0"
         id="path178" /></clipPath><clipPath
       id="clipPath198"><path
         d="m 201.39,570.91 293.33,0 0,34.08 -293.33,0 0,-34.08 z"
         inkscape:connector-curvature="0"
         id="path200" /></clipPath><clipPath
       id="clipPath206"><path
         d="m 201.38,570.91 293.33,0 0,34.08 -293.33,0 0,-34.08 z"
         inkscape:connector-curvature="0"
         id="path208" /></clipPath><clipPath
       id="clipPath214"><path
         d="m 201.38,570.91 293.33,0 0,34.08 -293.33,0 0,-34.08 z"
         inkscape:connector-curvature="0"
         id="path216" /></clipPath><clipPath
       id="clipPath226"><path
         d="m 201.38,570.91 293.33,0 0,34.08 -293.33,0 0,-34.08 z"
         inkscape:connector-curvature="0"
         id="path228" /></clipPath><clipPath
       id="clipPath238"><path
         d="m 201.39,642.91 293.33,0 0,34.095 -293.33,0 0,-34.095 z"
         inkscape:connector-curvature="0"
         id="path240" /></clipPath><clipPath
       id="clipPath246"><path
         d="m 201.38,642.91 293.33,0 0,34.104 -293.33,0 0,-34.104 z"
         inkscape:connector-curvature="0"
         id="path248" /></clipPath><clipPath
       id="clipPath254"><path
         d="m 201.38,642.91 293.33,0 0,34.104 -293.33,0 0,-34.104 z"
         inkscape:connector-curvature="0"
         id="path256" /></clipPath><clipPath
       id="clipPath266"><path
         d="m 201.38,642.91 293.33,0 0,34.104 -293.33,0 0,-34.104 z"
         inkscape:connector-curvature="0"
         id="path268" /></clipPath><clipPath
       id="clipPath280"><path
         d="m 543.8,472.39 129.02,0 0,41.4 -129.02,0 0,-41.4 z"
         inkscape:connector-curvature="0"
         id="path282" /></clipPath><clipPath
       id="clipPath288"><path
         d="m 543.79,472.39 129.02,0 0,41.4 -129.02,0 0,-41.4 z"
         inkscape:connector-curvature="0"
         id="path290" /></clipPath><clipPath
       id="clipPath300"><path
         d="m 543.79,472.39 129.02,0 0,41.4 -129.02,0 0,-41.4 z"
         inkscape:connector-curvature="0"
         id="path302" /></clipPath><clipPath
       id="clipPath312"><path
         d="m 543.79,472.39 129.02,0 0,41.4 -129.02,0 0,-41.4 z"
         inkscape:connector-curvature="0"
         id="path314" /></clipPath><clipPath
       id="clipPath324"><path
         d="m 543.79,472.39 129.02,0 0,41.4 -129.02,0 0,-41.4 z"
         inkscape:connector-curvature="0"
         id="path326" /></clipPath><clipPath
       id="clipPath334"><path
         d="m 544.64,659.83 128.9,0 0,30.255 -128.9,0 0,-30.255 z"
         inkscape:connector-curvature="0"
         id="path336" /></clipPath><clipPath
       id="clipPath342"><path
         d="m 544.63,659.83 128.9,0 0,30.264 -128.9,0 0,-30.264 z"
         inkscape:connector-curvature="0"
         id="path344" /></clipPath><clipPath
       id="clipPath354"><path
         d="m 544.63,659.83 128.9,0 0,30.264 -128.9,0 0,-30.264 z"
         inkscape:connector-curvature="0"
         id="path356" /></clipPath><clipPath
       id="clipPath366"><path
         d="m 544.63,659.83 128.9,0 0,30.264 -128.9,0 0,-30.264 z"
         inkscape:connector-curvature="0"
         id="path368" /></clipPath><clipPath
       id="clipPath378"><path
         d="m 544.63,659.83 128.9,0 0,30.264 -128.9,0 0,-30.264 z"
         inkscape:connector-curvature="0"
         id="path380" /></clipPath><clipPath
       id="clipPath388"><path
         d="m 398.33,401.8 134.19,0 0,56.55 -134.19,0 0,-56.55 z"
         inkscape:connector-curvature="0"
         id="path390" /></clipPath><clipPath
       id="clipPath396"><path
         d="m 398.33,401.81 134.18,0 0,56.544 -134.18,0 0,-56.544 z"
         inkscape:connector-curvature="0"
         id="path398" /></clipPath><clipPath
       id="clipPath408"><path
         d="m 398.33,401.81 134.18,0 0,56.544 -134.18,0 0,-56.544 z"
         inkscape:connector-curvature="0"
         id="path410" /></clipPath><clipPath
       id="clipPath416"><path
         d="m 398.33,401.81 134.18,0 0,56.544 -134.18,0 0,-56.544 z"
         inkscape:connector-curvature="0"
         id="path418" /></clipPath><clipPath
       id="clipPath428"><path
         d="m 398.33,401.81 134.18,0 0,56.544 -134.18,0 0,-56.544 z"
         inkscape:connector-curvature="0"
         id="path430" /></clipPath><clipPath
       id="clipPath440"><path
         d="m 398.33,401.81 134.18,0 0,56.544 -134.18,0 0,-56.544 z"
         inkscape:connector-curvature="0"
         id="path442" /></clipPath><clipPath
       id="clipPath448"><path
         d="m 398.33,401.81 134.18,0 0,56.544 -134.18,0 0,-56.544 z"
         inkscape:connector-curvature="0"
         id="path450" /></clipPath><clipPath
       id="clipPath460"><path
         d="m 398.33,401.81 134.18,0 0,56.544 -134.18,0 0,-56.544 z"
         inkscape:connector-curvature="0"
         id="path462" /></clipPath></defs><g
     transform="matrix(1.25,0,0,-1.25,-250.78125,907.03125)"
     id="g10"><path
       d="m 201,680.25 294,0 0,45 -294,0 0,-45 z"
       inkscape:connector-curvature="0"
       id="path12"
       style="fill:#ffffff;fill-opacity:1;fill-rule:evenodd;stroke:none" /><path
       d="m 201,680.25 294,0 0,45 -294,0 0,-45 z"
       inkscape:connector-curvature="0"
       id="path14"
       style="fill:none;stroke:#000000;stroke-width:0.75;stroke-linecap:round;stroke-linejoin:miter;stroke-miterlimit:10;stroke-opacity:1;stroke-dasharray:none" /><g
       id="g16"><g
         clip-path="url(#clipPath20)"
         id="g18"><g
           id="g24"><g
             clip-path="url(#clipPath28)"
             id="g26" /></g><g
           id="g32"><g
             clip-path="url(#clipPath36)"
             id="g34"><text
   transform="matrix(1,0,0,-1,308.45,699.7)"
   id="text40"><tspan
     x="0 4.4400001 8.8800001"
     y="0"
     id="tspan42"
     style="font-size:15.96000004px;font-variant:normal;font-weight:normal;writing-mode:lr-tb;fill:#000000;fill-opacity:1;fill-rule:nonzero;stroke:none;font-family:Helvetica;-inkscape-font-specification:Helvetica">I/O</tspan></text>

</g></g><g
           id="g44"><g
             clip-path="url(#clipPath48)"
             id="g46"><text
   transform="matrix(1,0,0,-1,329.69,699.7)"
   id="text52"><tspan
     x="0"
     y="0"
     id="tspan54"
     style="font-size:15.96000004px;font-variant:normal;font-weight:normal;writing-mode:lr-tb;fill:#000000;fill-opacity:1;fill-rule:nonzero;stroke:none;font-family:Helvetica;-inkscape-font-specification:Helvetica">-</tspan></text>

</g></g><g
           id="g56"><g
             clip-path="url(#clipPath60)"
             id="g58"><text
   transform="matrix(1,0,0,-1,334.97,699.7)"
   id="text64"><tspan
     x="0"
     y="0"
     id="tspan66"
     style="font-size:15.96000004px;font-variant:normal;font-weight:normal;writing-mode:lr-tb;fill:#000000;fill-opacity:1;fill-rule:nonzero;stroke:none;font-family:Helvetica;-inkscape-font-specification:Helvetica">S</tspan></text>

</g></g><g
           id="g68"><g
             clip-path="url(#clipPath72)"
             id="g70"><text
   transform="matrix(1,0,0,-1,345.65,699.7)"
   id="text76"><tspan
     x="0 8.0278797 16.90164 20.49264 28.520519 37.394279"
     y="0"
     id="tspan78"
     style="font-size:15.96000004px;font-variant:normal;font-weight:normal;writing-mode:lr-tb;fill:#000000;fill-opacity:1;fill-rule:nonzero;stroke:none;font-family:Helvetica;-inkscape-font-specification:Helvetica">chicht</tspan></text>

</g></g><g
           id="g80"><g
             clip-path="url(#clipPath84)"
             id="g82" /></g></g></g><path
       d="m 201,525 294,0 0,42 -294,0 0,-42 z"
       inkscape:connector-curvature="0"
       id="path88"
       style="fill:#ffffff;fill-opacity:1;fill-rule:evenodd;stroke:none" /><path
       d="m 201,525 294,0 0,42 -294,0 0,-42 z"
       inkscape:connector-curvature="0"
       id="path90"
       style="fill:none;stroke:#000000;stroke-width:0.75;stroke-linecap:round;stroke-linejoin:miter;stroke-miterlimit:10;stroke-opacity:1;stroke-dasharray:none" /><g
       id="g92"><g
         clip-path="url(#clipPath96)"
         id="g94"><g
           id="g100"><g
             clip-path="url(#clipPath104)"
             id="g102" /></g><g
           id="g108"><g
             clip-path="url(#clipPath112)"
             id="g110"><text
   transform="matrix(1,0,0,-1,277.22,541.39)"
   id="text116"><tspan
     x="0 10.64532 19.519079 24.833759 33.70752 39.022202 47.895962 56.769718 60.31284 64.781639 73.655403 82.640877"
     y="0"
     id="tspan118"
     style="font-size:15.96000004px;font-variant:normal;font-weight:normal;writing-mode:lr-tb;fill:#000000;fill-opacity:1;fill-rule:nonzero;stroke:none;font-family:Helvetica;-inkscape-font-specification:Helvetica">Verarbeitung</tspan></text>

</g></g><g
           id="g120"><g
             clip-path="url(#clipPath124)"
             id="g122"><text
   transform="matrix(1,0,0,-1,368.81,541.39)"
   id="text128"><tspan
     x="0 8.0278797 16.055759 24.92952 28.520519 36.548401 45.422161"
     y="0"
     id="tspan130"
     style="font-size:15.96000004px;font-variant:normal;font-weight:normal;writing-mode:lr-tb;fill:#000000;fill-opacity:1;fill-rule:nonzero;stroke:none;font-family:Helvetica;-inkscape-font-specification:Helvetica">schicht</tspan></text>

</g></g><g
           id="g132"><g
             clip-path="url(#clipPath136)"
             id="g134" /></g></g></g><path
       d="m 201,483 294,0 0,42 -294,0 0,-42 z"
       inkscape:connector-curvature="0"
       id="path140"
       style="fill:#ffffff;fill-opacity:1;fill-rule:evenodd;stroke:none" /><path
       d="m 201,483 294,0 0,42 -294,0 0,-42 z"
       inkscape:connector-curvature="0"
       id="path142"
       style="fill:none;stroke:#000000;stroke-width:0.75;stroke-linecap:round;stroke-linejoin:miter;stroke-miterlimit:10;stroke-opacity:1;stroke-dasharray:none" /><g
       id="g144"><g
         clip-path="url(#clipPath148)"
         id="g146"><g
           id="g152"><g
             clip-path="url(#clipPath156)"
             id="g154" /></g><g
           id="g160"><g
             clip-path="url(#clipPath164)"
             id="g162"><text
   transform="matrix(1,0,0,-1,275.9,499.39)"
   id="text168"><tspan
     x="0 11.52312 20.396879 24.833759 33.70752 42.58128 50.625118 59.498878 68.372643 73.687317 77.230438 81.66732 86.104202 94.164001 102.19188 110.21976 119.09352 122.68452 130.7124 139.58617"
     y="0"
     id="tspan170"
     style="font-size:15.96000004px;font-variant:normal;font-weight:normal;writing-mode:lr-tb;fill:#000000;fill-opacity:1;fill-rule:nonzero;stroke:none;font-family:Helvetica;-inkscape-font-specification:Helvetica">Datenzugriffsschicht</tspan></text>

</g></g><g
           id="g172"><g
             clip-path="url(#clipPath176)"
             id="g174" /></g></g></g><path
       d="m 361.1,453.75 c -19.88,0 -36,-3.04 -36,-6.8 l 0,-40.8 c 0,-3.76 16.12,-6.8 36,-6.8 19.88,0 36,3.04 36,6.8 l 0,40.8 c 0,3.76 -16.12,6.8 -36,6.8 z"
       inkscape:connector-curvature="0"
       id="path180"
       style="fill:#ffffff;fill-opacity:1;fill-rule:evenodd;stroke:none" /><path
       d="m 325.1,446.95 c 0,-3.76 16.12,-6.8 36,-6.8 19.88,0 36,3.04 36,6.8 0,3.76 -16.12,6.8 -36,6.8 -19.88,0 -36,-3.04 -36,-6.8 z"
       inkscape:connector-curvature="0"
       id="path182"
       style="fill:#ffffff;fill-opacity:1;fill-rule:evenodd;stroke:none" /><path
       d="m 361.1,453.75 c -19.88,0 -36,-3.04 -36,-6.8 l 0,-40.8 c 0,-3.76 16.12,-6.8 36,-6.8 19.88,0 36,3.04 36,6.8 l 0,40.8 c 0,3.76 -16.12,6.8 -36,6.8 z"
       inkscape:connector-curvature="0"
       id="path184"
       style="fill:none;stroke:#000000;stroke-width:0.75;stroke-linecap:round;stroke-linejoin:round;stroke-miterlimit:10;stroke-opacity:1;stroke-dasharray:none" /><path
       d="m 325.1,446.95 c 0,-3.76 16.12,-6.8 36,-6.8 19.88,0 36,3.04 36,6.8"
       inkscape:connector-curvature="0"
       id="path186"
       style="fill:none;stroke:#000000;stroke-width:0.75;stroke-linecap:round;stroke-linejoin:round;stroke-miterlimit:10;stroke-opacity:1;stroke-dasharray:none" /><path
       d="m 361.5,482.85 0,-35.55"
       inkscape:connector-curvature="0"
       id="path188"
       style="fill:none;stroke:#000000;stroke-width:0.75;stroke-linecap:round;stroke-linejoin:round;stroke-miterlimit:10;stroke-opacity:1;stroke-dasharray:none" /><path
       d="m 201,567 294,0 0,42 -294,0 0,-42 z"
       inkscape:connector-curvature="0"
       id="path190"
       style="fill:#ffffff;fill-opacity:1;fill-rule:evenodd;stroke:none" /><path
       d="m 201,567 294,0 0,42 -294,0 0,-42 z"
       inkscape:connector-curvature="0"
       id="path192"
       style="fill:none;stroke:#000000;stroke-width:0.75;stroke-linecap:round;stroke-linejoin:miter;stroke-miterlimit:8;stroke-opacity:1;stroke-dasharray:none" /><g
       id="g194"><g
         clip-path="url(#clipPath198)"
         id="g196"><g
           id="g202"><g
             clip-path="url(#clipPath206)"
             id="g204" /></g><g
           id="g210"><g
             clip-path="url(#clipPath214)"
             id="g212"><text
   transform="matrix(1,0,0,-1,292.85,583.39)"
   id="text218"><tspan
     x="0 10.64532 19.519079 32.861641 46.156319 55.030079 63.903839 67.526756 75.554642 84.428398 88.86528 92.456284 101.33004"
     y="0"
     id="tspan220"
     style="font-size:15.96000004px;font-variant:normal;font-weight:normal;writing-mode:lr-tb;fill:#000000;fill-opacity:1;fill-rule:nonzero;stroke:none;font-family:Helvetica;-inkscape-font-specification:Helvetica">Kommunikation</tspan></text>

</g></g><g
           id="g222"><g
             clip-path="url(#clipPath226)"
             id="g224" /></g></g></g><path
       d="m 201,639 294,0 0,42 -294,0 0,-42 z"
       inkscape:connector-curvature="0"
       id="path230"
       style="fill:#ffffff;fill-opacity:1;fill-rule:evenodd;stroke:none" /><path
       d="m 201,639 294,0 0,42 -294,0 0,-42 z"
       inkscape:connector-curvature="0"
       id="path232"
       style="fill:none;stroke:#000000;stroke-width:0.75;stroke-linecap:round;stroke-linejoin:miter;stroke-miterlimit:8;stroke-opacity:1;stroke-dasharray:none" /><g
       id="g234"><g
         clip-path="url(#clipPath238)"
         id="g236"><g
           id="g242"><g
             clip-path="url(#clipPath246)"
             id="g244" /></g><g
           id="g250"><g
             clip-path="url(#clipPath254)"
             id="g252"><text
   transform="matrix(1,0,0,-1,292.85,655.39)"
   id="text258"><tspan
     x="0 10.64532 19.519079 32.861641 46.156319 55.030079 63.903839 67.526756 75.554642 84.428398 88.86528 92.456284 101.33004"
     y="0"
     id="tspan260"
     style="font-size:15.96000004px;font-variant:normal;font-weight:normal;writing-mode:lr-tb;fill:#000000;fill-opacity:1;fill-rule:nonzero;stroke:none;font-family:Helvetica;-inkscape-font-specification:Helvetica">Kommunikation</tspan></text>

</g></g><g
           id="g262"><g
             clip-path="url(#clipPath266)"
             id="g264" /></g></g></g><path
       d="m 534,725.25 c 3.11,0 5.63,-3.22 5.63,-7.19 l 0,-28.75 c 0,-3.97 2.51,-7.18 5.62,-7.18 -3.11,0 -5.62,-3.22 -5.62,-7.19 l 0,-28.75 c 0,-3.97 -2.52,-7.19 -5.63,-7.19"
       inkscape:connector-curvature="0"
       id="path270"
       style="fill:none;stroke:#000000;stroke-width:0.75;stroke-linecap:round;stroke-linejoin:round;stroke-miterlimit:8;stroke-opacity:1;stroke-dasharray:none" /><path
       d="m 534,607.5 c 2.9,0 5.25,-7.7 5.25,-17.19 l 0,-68.75 c 0,-9.49 2.35,-17.18 5.25,-17.18 -2.9,0 -5.25,-7.7 -5.25,-17.19 l 0,-68.75 c 0,-9.49 -2.35,-17.19 -5.25,-17.19"
       inkscape:connector-curvature="0"
       id="path272"
       style="fill:none;stroke:#000000;stroke-width:0.75;stroke-linecap:round;stroke-linejoin:round;stroke-miterlimit:8;stroke-opacity:1;stroke-dasharray:none" /><path
       d="m 543.75,468.75 129,0 0,48.75 -129,0 0,-48.75 z"
       inkscape:connector-curvature="0"
       id="path274"
       style="fill:#ffffff;fill-opacity:1;fill-rule:evenodd;stroke:none" /><g
       id="g276"><g
         clip-path="url(#clipPath280)"
         id="g278"><g
           id="g284"><g
             clip-path="url(#clipPath288)"
             id="g286"><text
   transform="matrix(1,0,0,-1,550.99,499.03)"
   id="text292"><tspan
     x="0 10.64532 19.519079 24.833759 32.861641 41.735401"
     y="0"
     id="tspan294"
     style="font-size:15.96000004px;font-variant:normal;font-weight:normal;writing-mode:lr-tb;fill:#000000;fill-opacity:1;fill-rule:nonzero;stroke:none;font-family:Helvetica;-inkscape-font-specification:Helvetica">Server</tspan></text>

</g></g><g
           id="g296"><g
             clip-path="url(#clipPath300)"
             id="g298"><text
   transform="matrix(1,0,0,-1,598.03,499.03)"
   id="text304"><tspan
     x="0"
     y="0"
     id="tspan306"
     style="font-size:15.96000004px;font-variant:normal;font-weight:normal;writing-mode:lr-tb;fill:#000000;fill-opacity:1;fill-rule:nonzero;stroke:none;font-family:Helvetica;-inkscape-font-specification:Helvetica">-</tspan></text>

</g></g><g
           id="g308"><g
             clip-path="url(#clipPath312)"
             id="g310"><text
   transform="matrix(1,0,0,-1,603.31,499.03)"
   id="text316"><tspan
     x="0 11.61888 20.49264 28.520519 37.394279 46.26804 55.1418"
     y="0"
     id="tspan318"
     style="font-size:15.96000004px;font-variant:normal;font-weight:normal;writing-mode:lr-tb;fill:#000000;fill-opacity:1;fill-rule:nonzero;stroke:none;font-family:Helvetica;-inkscape-font-specification:Helvetica">Rechner</tspan></text>

</g></g><g
           id="g320"><g
             clip-path="url(#clipPath324)"
             id="g322" /></g></g></g><path
       d="m 544.5,656.25 129,0 0,37.5 -129,0 0,-37.5 z"
       inkscape:connector-curvature="0"
       id="path328"
       style="fill:#ffffff;fill-opacity:1;fill-rule:evenodd;stroke:none" /><g
       id="g330"><g
         clip-path="url(#clipPath334)"
         id="g332"><g
           id="g338"><g
             clip-path="url(#clipPath342)"
             id="g340"><text
   transform="matrix(1,0,0,-1,551.71,675.34)"
   id="text346"><tspan
     x="0 11.52312 15.09816 18.689159 27.56292 36.43668"
     y="0"
     id="tspan348"
     style="font-size:15.96000004px;font-variant:normal;font-weight:normal;writing-mode:lr-tb;fill:#000000;fill-opacity:1;fill-rule:nonzero;stroke:none;font-family:Helvetica;-inkscape-font-specification:Helvetica">Client</tspan></text>

</g></g><g
           id="g350"><g
             clip-path="url(#clipPath354)"
             id="g352"><text
   transform="matrix(1,0,0,-1,592.63,675.34)"
   id="text358"><tspan
     x="0"
     y="0"
     id="tspan360"
     style="font-size:15.96000004px;font-variant:normal;font-weight:normal;writing-mode:lr-tb;fill:#000000;fill-opacity:1;fill-rule:nonzero;stroke:none;font-family:Helvetica;-inkscape-font-specification:Helvetica">-</tspan></text>

</g></g><g
           id="g362"><g
             clip-path="url(#clipPath366)"
             id="g364"><text
   transform="matrix(1,0,0,-1,597.91,675.34)"
   id="text370"><tspan
     x="0 11.52312 20.396879 28.424761 37.298519 46.172279 55.04604"
     y="0"
     id="tspan372"
     style="font-size:15.96000004px;font-variant:normal;font-weight:normal;writing-mode:lr-tb;fill:#000000;fill-opacity:1;fill-rule:nonzero;stroke:none;font-family:Helvetica;-inkscape-font-specification:Helvetica">Rechner</tspan></text>

</g></g><g
           id="g374"><g
             clip-path="url(#clipPath378)"
             id="g376" /></g></g></g><path
       d="m 398.25,398.25 134.25,0 0,63.75 -134.25,0 0,-63.75 z"
       inkscape:connector-curvature="0"
       id="path382"
       style="fill:#ffffff;fill-opacity:1;fill-rule:evenodd;stroke:none" /><g
       id="g384"><g
         clip-path="url(#clipPath388)"
         id="g386"><g
           id="g392"><g
             clip-path="url(#clipPath396)"
             id="g394"><text
   transform="matrix(1,0,0,-1,405.53,443.59)"
   id="text400"><tspan
     x="0 11.52 20.39064 24.8244 33.695042 42.565681 51.436321 60.338879 69.209518"
     y="0"
     id="tspan402"
     style="font-size:15.96000004px;font-variant:normal;font-weight:normal;writing-mode:lr-tb;fill:#000000;fill-opacity:1;fill-rule:nonzero;stroke:none;font-family:Helvetica;-inkscape-font-specification:Helvetica">Datenbank</tspan></text>

</g></g><g
           id="g404"><g
             clip-path="url(#clipPath408)"
             id="g406" /></g><g
           id="g412"><g
             clip-path="url(#clipPath416)"
             id="g414"><text
   transform="matrix(1,0,0,-1,405.53,425.21)"
   id="text420"><tspan
     x="0 5.3146801 16.837799 25.711559 30.148439 39.022202 47.895962 56.865479 65.739243 69.330238 73.76712 82.640877 91.514641 100.3884"
     y="0"
     id="tspan422"
     style="font-size:15.96000004px;font-variant:normal;font-weight:normal;writing-mode:lr-tb;fill:#000000;fill-opacity:1;fill-rule:nonzero;stroke:none;font-family:Helvetica;-inkscape-font-specification:Helvetica">(Datenhaltungs</tspan></text>

</g></g><g
           id="g424"><g
             clip-path="url(#clipPath428)"
             id="g426"><text
   transform="matrix(1,0,0,-1,514.03,425.21)"
   id="text432"><tspan
     x="0"
     y="0"
     id="tspan434"
     style="font-size:15.96000004px;font-variant:normal;font-weight:normal;writing-mode:lr-tb;fill:#000000;fill-opacity:1;fill-rule:nonzero;stroke:none;font-family:Helvetica;-inkscape-font-specification:Helvetica">-</tspan></text>

</g></g><g
           id="g436"><g
             clip-path="url(#clipPath440)"
             id="g438" /></g><g
           id="g444"><g
             clip-path="url(#clipPath448)"
             id="g446"><text
   transform="matrix(1,0,0,-1,405.53,406.73)"
   id="text452"><tspan
     x="0 8.0278797 16.055759 24.92952 28.520519 36.548401 45.422161 49.859039"
     y="0"
     id="tspan454"
     style="font-size:15.96000004px;font-variant:normal;font-weight:normal;writing-mode:lr-tb;fill:#000000;fill-opacity:1;fill-rule:nonzero;stroke:none;font-family:Helvetica;-inkscape-font-specification:Helvetica">schicht)</tspan></text>

</g></g><g
           id="g456"><g
             clip-path="url(#clipPath460)"
             id="g458" /></g></g></g></g></svg>