<?xml version="1.0" encoding="UTF-8" standalone="no"?>
<!-- Created with Inkscape (http://www.inkscape.org/) -->

<svg
   xmlns:dc="http://purl.org/dc/elements/1.1/"
   xmlns:cc="http://creativecommons.org/ns#"
   xmlns:rdf="http://www.w3.org/1999/02/22-rdf-syntax-ns#"
   xmlns:svg="http://www.w3.org/2000/svg"
   xmlns="http://www.w3.org/2000/svg"
   xmlns:sodipodi="http://sodipodi.sourceforge.net/DTD/sodipodi-0.dtd"
   xmlns:inkscape="http://www.inkscape.org/namespaces/inkscape"
   version="1.1"
   width="376.3125"
   height="203.8125"
   id="svg2"
   xml:space="preserve"
   inkscape:version="0.48.4 r9939"
   sodipodi:docname="Bild 5-5 Schichtenstruktur eines Rechners.svg"><sodipodi:namedview
     pagecolor="#ffffff"
     bordercolor="#666666"
     borderopacity="1"
     objecttolerance="10"
     gridtolerance="10"
     guidetolerance="10"
     inkscape:pageopacity="0"
     inkscape:pageshadow="2"
     inkscape:window-width="640"
     inkscape:window-height="480"
     id="namedview84"
     showgrid="false"
     inkscape:zoom="0.22424933"
     inkscape:cx="188.13751"
     inkscape:cy="101.92499"
     inkscape:window-x="0"
     inkscape:window-y="0"
     inkscape:window-maximized="0"
     inkscape:current-layer="svg2" /><metadata
     id="metadata8"><rdf:RDF><cc:Work
         rdf:about=""><dc:format>image/svg+xml</dc:format><dc:type
           rdf:resource="http://purl.org/dc/dcmitype/StillImage" /></cc:Work></rdf:RDF></metadata><defs
     id="defs6"><clipPath
       id="clipPath28"><path
         d="m 147.63,339.76 300.18,0 0,54.12 -300.18,0 0,-54.12 z"
         inkscape:connector-curvature="0"
         id="path30" /></clipPath><clipPath
       id="clipPath36"><path
         d="m 147.62,339.77 300.19,0 0,54.12 -300.19,0 0,-54.12 z"
         inkscape:connector-curvature="0"
         id="path38" /></clipPath><clipPath
       id="clipPath44"><path
         d="m 147.62,339.77 300.19,0 0,54.12 -300.19,0 0,-54.12 z"
         inkscape:connector-curvature="0"
         id="path46" /></clipPath><clipPath
       id="clipPath56"><path
         d="m 147.62,339.77 300.19,0 0,54.12 -300.19,0 0,-54.12 z"
         inkscape:connector-curvature="0"
         id="path58" /></clipPath><clipPath
       id="clipPath64"><path
         d="m 147.63,393.76 300.18,0 0,54.15 -300.18,0 0,-54.15 z"
         inkscape:connector-curvature="0"
         id="path66" /></clipPath><clipPath
       id="clipPath72"><path
         d="m 147.62,393.77 300.19,0 0,54.144 -300.19,0 0,-54.144 z"
         inkscape:connector-curvature="0"
         id="path74" /></clipPath><clipPath
       id="clipPath80"><path
         d="m 147.62,393.77 300.19,0 0,54.144 -300.19,0 0,-54.144 z"
         inkscape:connector-curvature="0"
         id="path82" /></clipPath><clipPath
       id="clipPath92"><path
         d="m 147.62,393.77 300.19,0 0,54.144 -300.19,0 0,-54.144 z"
         inkscape:connector-curvature="0"
         id="path94" /></clipPath><clipPath
       id="clipPath100"><path
         d="m 147.63,447.79 300.18,0 0,54.12 -300.18,0 0,-54.12 z"
         inkscape:connector-curvature="0"
         id="path102" /></clipPath><clipPath
       id="clipPath108"><path
         d="m 147.62,447.79 300.19,0 0,54.12 -300.19,0 0,-54.12 z"
         inkscape:connector-curvature="0"
         id="path110" /></clipPath><clipPath
       id="clipPath116"><path
         d="m 147.62,447.79 300.19,0 0,54.12 -300.19,0 0,-54.12 z"
         inkscape:connector-curvature="0"
         id="path118" /></clipPath><clipPath
       id="clipPath128"><path
         d="m 147.62,447.79 300.19,0 0,54.12 -300.19,0 0,-54.12 z"
         inkscape:connector-curvature="0"
         id="path130" /></clipPath><clipPath
       id="clipPath140"><path
         d="m 147.62,447.79 300.19,0 0,54.12 -300.19,0 0,-54.12 z"
         inkscape:connector-curvature="0"
         id="path142" /></clipPath><clipPath
       id="clipPath152"><path
         d="m 147.62,447.79 300.19,0 0,54.12 -300.19,0 0,-54.12 z"
         inkscape:connector-curvature="0"
         id="path154" /></clipPath><clipPath
       id="clipPath164"><path
         d="m 147.62,447.79 300.19,0 0,54.12 -300.19,0 0,-54.12 z"
         inkscape:connector-curvature="0"
         id="path166" /></clipPath></defs><g
     transform="matrix(1.25,0,0,-1.25,-183.9375,628.0875)"
     id="g10"><path
       d="m 147.65,339.92 300.05,0 0,54.05 -300.05,0 0,-54.05 z"
       inkscape:connector-curvature="0"
       id="path12"
       style="fill:#ffffff;fill-opacity:1;fill-rule:evenodd;stroke:none" /><path
       d="m 147.65,339.92 300.05,0 0,54.05 -300.05,0 0,-54.05 z"
       inkscape:connector-curvature="0"
       id="path14"
       style="fill:none;stroke:#000000;stroke-width:1;stroke-linecap:round;stroke-linejoin:miter;stroke-miterlimit:10;stroke-opacity:1;stroke-dasharray:none" /><path
       d="m 147.65,447.92 300.05,0 0,54.05 -300.05,0 0,-54.05 z"
       inkscape:connector-curvature="0"
       id="path16"
       style="fill:#ffffff;fill-opacity:1;fill-rule:evenodd;stroke:none" /><path
       d="m 147.65,447.92 300.05,0 0,54.05 -300.05,0 0,-54.05 z"
       inkscape:connector-curvature="0"
       id="path18"
       style="fill:none;stroke:#000000;stroke-width:1;stroke-linecap:round;stroke-linejoin:miter;stroke-miterlimit:10;stroke-opacity:1;stroke-dasharray:none" /><path
       d="m 147.65,393.92 300.05,0 0,54.05 -300.05,0 0,-54.05 z"
       inkscape:connector-curvature="0"
       id="path20"
       style="fill:#ffffff;fill-opacity:1;fill-rule:evenodd;stroke:none" /><path
       d="m 147.65,393.92 300.05,0 0,54.05 -300.05,0 0,-54.05 z"
       inkscape:connector-curvature="0"
       id="path22"
       style="fill:none;stroke:#000000;stroke-width:1;stroke-linecap:round;stroke-linejoin:miter;stroke-miterlimit:10;stroke-opacity:1;stroke-dasharray:none" /><g
       id="g24"><g
         clip-path="url(#clipPath28)"
         id="g26"><g
           id="g32"><g
             clip-path="url(#clipPath36)"
             id="g34" /></g><g
           id="g40"><g
             clip-path="url(#clipPath44)"
             id="g42"><text
   transform="matrix(1,0,0,-1,267.29,363.65)"
   id="text48"><tspan
     x="0 10.08072 17.886959 22.562281 30.368521 40.32288 48.12912 52.80444"
     y="0"
     id="tspan50"
     style="font-size:14.03999996px;font-variant:normal;font-weight:normal;writing-mode:lr-tb;fill:#000000;fill-opacity:1;fill-rule:nonzero;stroke:none;font-family:Helvetica;-inkscape-font-specification:Helvetica">Hardware</tspan></text>

</g></g><g
           id="g52"><g
             clip-path="url(#clipPath56)"
             id="g54" /></g></g></g><g
       id="g60"><g
         clip-path="url(#clipPath64)"
         id="g62"><g
           id="g68"><g
             clip-path="url(#clipPath72)"
             id="g70" /></g><g
           id="g76"><g
             clip-path="url(#clipPath80)"
             id="g78"><text
   transform="matrix(1,0,0,-1,249.65,417.65)"
   id="text84"><tspan
     x="0 9.3646803 17.170919 21.102119 25.777439 28.89432 36.700562 44.506802 51.56892 58.631039 65.468521 72.53064 76.475883 84.28212"
     y="0"
     id="tspan86"
     style="font-size:14.03999996px;font-variant:normal;font-weight:normal;writing-mode:lr-tb;fill:#000000;fill-opacity:1;fill-rule:nonzero;stroke:none;font-family:Helvetica;-inkscape-font-specification:Helvetica">Betriebssystem</tspan></text>

</g></g><g
           id="g88"><g
             clip-path="url(#clipPath92)"
             id="g90" /></g></g></g><g
       id="g96"><g
         clip-path="url(#clipPath100)"
         id="g98"><g
           id="g104"><g
             clip-path="url(#clipPath108)"
             id="g106" /></g><g
           id="g112"><g
             clip-path="url(#clipPath116)"
             id="g114"><text
   transform="matrix(1,0,0,-1,200.21,479.59)"
   id="text120"><tspan
     x="0"
     y="0"
     id="tspan122"
     style="font-size:14.03999996px;font-variant:normal;font-weight:normal;writing-mode:lr-tb;fill:#000000;fill-opacity:1;fill-rule:nonzero;stroke:none;font-family:Helvetica;-inkscape-font-specification:Helvetica">A</tspan></text>

</g></g><g
           id="g124"><g
             clip-path="url(#clipPath128)"
             id="g126"><text
   transform="matrix(1,0,0,-1,209.57,479.59)"
   id="text132"><tspan
     x="0 7.8062401 15.61248 23.41872 28.09404 35.90028 39.803398 49.168079 56.033642 63.09576 67.041 74.847237 86.486397 94.292641 98.967957 106.7742 114.58044 119.25576 127.062 138.68712 150.32628 158.13252 162.07776 169.884 177.69025 185.49648"
     y="0"
     id="tspan134"
     style="font-size:14.03999996px;font-variant:normal;font-weight:normal;writing-mode:lr-tb;fill:#000000;fill-opacity:1;fill-rule:nonzero;stroke:none;font-family:Helvetica;-inkscape-font-specification:Helvetica">ndere Systemprogramme und </tspan></text>

</g></g><g
           id="g136"><g
             clip-path="url(#clipPath140)"
             id="g138"><text
   transform="matrix(1,0,0,-1,221.33,463.39)"
   id="text144"><tspan
     x="0 9.3646803 17.170919 27.12528 34.931519 42.737759 50.543999 58.350239 66.156479 73.962723 80.982719"
     y="0"
     id="tspan146"
     style="font-size:14.03999996px;font-variant:normal;font-weight:normal;writing-mode:lr-tb;fill:#000000;fill-opacity:1;fill-rule:nonzero;stroke:none;font-family:Helvetica;-inkscape-font-specification:Helvetica">Anwendungsp</tspan></text>

</g></g><g
           id="g148"><g
             clip-path="url(#clipPath152)"
             id="g150"><text
   transform="matrix(1,0,0,-1,310.13,463.39)"
   id="text156"><tspan
     x="0 4.6753201 12.48156 20.2878 24.96312 32.76936 44.394482 56.033642"
     y="0"
     id="tspan158"
     style="font-size:14.03999996px;font-variant:normal;font-weight:normal;writing-mode:lr-tb;fill:#000000;fill-opacity:1;fill-rule:nonzero;stroke:none;font-family:Helvetica;-inkscape-font-specification:Helvetica">rogramme</tspan></text>

</g></g><g
           id="g160"><g
             clip-path="url(#clipPath164)"
             id="g162" /></g></g></g></g></svg>