<?xml version="1.0" encoding="UTF-8" standalone="no"?>
<!-- Created with Inkscape (http://www.inkscape.org/) -->

<svg
   xmlns:dc="http://purl.org/dc/elements/1.1/"
   xmlns:cc="http://creativecommons.org/ns#"
   xmlns:rdf="http://www.w3.org/1999/02/22-rdf-syntax-ns#"
   xmlns:svg="http://www.w3.org/2000/svg"
   xmlns="http://www.w3.org/2000/svg"
   xmlns:sodipodi="http://sodipodi.sourceforge.net/DTD/sodipodi-0.dtd"
   xmlns:inkscape="http://www.inkscape.org/namespaces/inkscape"
   version="1.1"
   width="415.3125"
   height="270.46875"
   id="svg2"
   xml:space="preserve"
   inkscape:version="0.48.4 r9939"
   sodipodi:docname="Bild 5-39 Aktualisierung zweier Views durch das Model.svg"><sodipodi:namedview
     pagecolor="#ffffff"
     bordercolor="#666666"
     borderopacity="1"
     objecttolerance="10"
     gridtolerance="10"
     guidetolerance="10"
     inkscape:pageopacity="0"
     inkscape:pageshadow="2"
     inkscape:window-width="640"
     inkscape:window-height="480"
     id="namedview92"
     showgrid="false"
     inkscape:zoom="0.18730159"
     inkscape:cx="445.21875"
     inkscape:cy="164.53125"
     inkscape:window-x="0"
     inkscape:window-y="0"
     inkscape:window-maximized="0"
     inkscape:current-layer="svg2" /><metadata
     id="metadata8"><rdf:RDF><cc:Work
         rdf:about=""><dc:format>image/svg+xml</dc:format><dc:type
           rdf:resource="http://purl.org/dc/dcmitype/StillImage" /></cc:Work></rdf:RDF></metadata><defs
     id="defs6"><clipPath
       id="clipPath42"><path
         d="m 160.59,570.55 92.88,0 0,14.52 -92.88,0 0,-14.52 z"
         inkscape:connector-curvature="0"
         id="path44" /></clipPath><clipPath
       id="clipPath50"><path
         d="m 160.58,570.55 92.88,0 0,14.52 -92.88,0 0,-14.52 z"
         inkscape:connector-curvature="0"
         id="path52" /></clipPath><clipPath
       id="clipPath62"><path
         d="m 160.58,570.55 92.88,0 0,14.52 -92.88,0 0,-14.52 z"
         inkscape:connector-curvature="0"
         id="path64" /></clipPath><clipPath
       id="clipPath72"><path
         d="m 359.33,570.55 92.88,0 0,14.52 -92.88,0 0,-14.52 z"
         inkscape:connector-curvature="0"
         id="path74" /></clipPath><clipPath
       id="clipPath80"><path
         d="m 359.33,570.55 92.88,0 0,14.52 -92.88,0 0,-14.52 z"
         inkscape:connector-curvature="0"
         id="path82" /></clipPath><clipPath
       id="clipPath92"><path
         d="m 359.33,570.55 92.88,0 0,14.52 -92.88,0 0,-14.52 z"
         inkscape:connector-curvature="0"
         id="path94" /></clipPath><clipPath
       id="clipPath102"><path
         d="m 294.53,460.39 50.52,0 0,14.4 -50.52,0 0,-14.4 z"
         inkscape:connector-curvature="0"
         id="path104" /></clipPath><clipPath
       id="clipPath110"><path
         d="m 294.53,460.39 50.52,0 0,14.4 -50.52,0 0,-14.4 z"
         inkscape:connector-curvature="0"
         id="path112" /></clipPath><clipPath
       id="clipPath122"><path
         d="m 294.53,460.39 50.52,0 0,14.4 -50.52,0 0,-14.4 z"
         inkscape:connector-curvature="0"
         id="path124" /></clipPath><clipPath
       id="clipPath132"><path
         d="m 344.69,489.19 135.03,0 0,72.24 -135.03,0 0,-72.24 z"
         inkscape:connector-curvature="0"
         id="path134" /></clipPath><clipPath
       id="clipPath140"><path
         d="m 344.69,489.19 135.02,0 0,72.24 -135.02,0 0,-72.24 z"
         inkscape:connector-curvature="0"
         id="path142" /></clipPath><clipPath
       id="clipPath150"><path
         d="m 148.95,488.47 134.9,0 0,72.24 -134.9,0 0,-72.24 z"
         inkscape:connector-curvature="0"
         id="path152" /></clipPath><clipPath
       id="clipPath158"><path
         d="m 148.94,488.47 134.9,0 0,72.24 -134.9,0 0,-72.24 z"
         inkscape:connector-curvature="0"
         id="path160" /></clipPath><clipPath
       id="clipPath172"><path
         d="m 254.67,376.72 135.02,0 0,72.27 -135.02,0 0,-72.27 z"
         inkscape:connector-curvature="0"
         id="path174" /></clipPath><clipPath
       id="clipPath180"><path
         d="m 254.66,376.73 135.02,0 0,72.264 -135.02,0 0,-72.264 z"
         inkscape:connector-curvature="0"
         id="path182" /></clipPath></defs><g
     transform="matrix(1.25,0,0,-1.25,-185.15625,735.9375)"
     id="g10"><path
       d="m 283.37,453.25 -9.21,29.99 c -0.08,0.27 0.07,0.55 0.33,0.63 0.26,0.08 0.54,-0.07 0.63,-0.33 l 9.21,-29.99 c 0.08,-0.27 -0.07,-0.55 -0.33,-0.63 -0.27,-0.08 -0.55,0.07 -0.63,0.33 z m -9.93,20.54 0.79,10.92 6.79,-8.59 c 0.17,-0.21 0.13,-0.53 -0.08,-0.7 -0.22,-0.17 -0.54,-0.13 -0.71,0.08 l -5.98,7.58 0.89,0.27 -0.71,-9.63 c -0.02,-0.27 -0.26,-0.48 -0.53,-0.46 -0.28,0.02 -0.48,0.26 -0.46,0.53 z"
       inkscape:connector-curvature="0"
       id="path12"
       style="fill:#000000;fill-opacity:1;fill-rule:nonzero;stroke:none" /><path
       d="m 215.2,484.6 6.45,0 0,20.2 -6.45,0 0,-20.2 z"
       inkscape:connector-curvature="0"
       id="path14"
       style="fill:#ffffff;fill-opacity:1;fill-rule:evenodd;stroke:none" /><path
       d="m 215.2,484.6 6.45,0 0,20.2 -6.45,0 0,-20.2 z"
       inkscape:connector-curvature="0"
       id="path16"
       style="fill:none;stroke:#000000;stroke-width:0.75;stroke-linecap:round;stroke-linejoin:miter;stroke-miterlimit:10;stroke-opacity:1;stroke-dasharray:none" /><path
       d="m 189.7,484.6 7.2,0 0,70.45 -7.2,0 0,-70.45 z"
       inkscape:connector-curvature="0"
       id="path18"
       style="fill:#ffffff;fill-opacity:1;fill-rule:evenodd;stroke:none" /><path
       d="m 189.7,484.6 7.2,0 0,70.45 -7.2,0 0,-70.45 z"
       inkscape:connector-curvature="0"
       id="path20"
       style="fill:none;stroke:#000000;stroke-width:0.75;stroke-linecap:round;stroke-linejoin:miter;stroke-miterlimit:10;stroke-opacity:1;stroke-dasharray:none" /><path
       d="m 168.7,484.6 7.2,0 0,38.2 -7.2,0 0,-38.2 z"
       inkscape:connector-curvature="0"
       id="path22"
       style="fill:#ffffff;fill-opacity:1;fill-rule:evenodd;stroke:none" /><path
       d="m 168.7,484.6 7.2,0 0,38.2 -7.2,0 0,-38.2 z"
       inkscape:connector-curvature="0"
       id="path24"
       style="fill:none;stroke:#000000;stroke-width:0.75;stroke-linecap:round;stroke-linejoin:miter;stroke-miterlimit:10;stroke-opacity:1;stroke-dasharray:none" /><path
       d="m 412.13,546 c -14.71,0 -26.63,-11.75 -26.63,-26.25 0,-14.5 11.92,-26.25 26.63,-26.25 14.7,0 26.62,11.75 26.62,26.25 0,14.5 -11.92,26.25 -26.62,26.25 z"
       inkscape:connector-curvature="0"
       id="path26"
       style="fill:#ffffff;fill-opacity:1;fill-rule:evenodd;stroke:none" /><path
       d="m 412.13,546 c -14.71,0 -26.63,-11.75 -26.63,-26.25 0,-14.5 11.92,-26.25 26.63,-26.25 14.7,0 26.62,11.75 26.62,26.25 0,14.5 -11.92,26.25 -26.62,26.25 z"
       inkscape:connector-curvature="0"
       id="path28"
       style="fill:none;stroke:#000000;stroke-width:0.75;stroke-linecap:round;stroke-linejoin:round;stroke-miterlimit:10;stroke-opacity:1;stroke-dasharray:none" /><path
       d="M 411.75,518.25 396,540"
       inkscape:connector-curvature="0"
       id="path30"
       style="fill:none;stroke:#000000;stroke-width:0.75;stroke-linecap:round;stroke-linejoin:round;stroke-miterlimit:10;stroke-opacity:1;stroke-dasharray:none" /><path
       d="M 413.25,545.25 412.5,519"
       inkscape:connector-curvature="0"
       id="path32"
       style="fill:none;stroke:#000000;stroke-width:0.75;stroke-linecap:round;stroke-linejoin:round;stroke-miterlimit:10;stroke-opacity:1;stroke-dasharray:none" /><path
       d="m 412.5,518.25 -24,-10.15"
       inkscape:connector-curvature="0"
       id="path34"
       style="fill:none;stroke:#000000;stroke-width:0.75;stroke-linecap:round;stroke-linejoin:round;stroke-miterlimit:10;stroke-opacity:1;stroke-dasharray:none" /><path
       d="m 160.5,567 93,0 0,21.75 -93,0 0,-21.75 z"
       inkscape:connector-curvature="0"
       id="path36"
       style="fill:#ffffff;fill-opacity:1;fill-rule:evenodd;stroke:none" /><g
       id="g38"><g
         clip-path="url(#clipPath42)"
         id="g40"><g
           id="g46"><g
             clip-path="url(#clipPath50)"
             id="g48"><text
   transform="matrix(1,0,0,-1,167.66,574.03)"
   id="text54"><tspan
     x="0 8.0279999 10.692 17.364 25.908001"
     y="0"
     id="tspan56"
     style="font-size:12px;font-variant:normal;font-weight:normal;writing-mode:lr-tb;fill:#000000;fill-opacity:1;fill-rule:nonzero;stroke:none;font-family:Helvetica;-inkscape-font-specification:Helvetica">View1</tspan></text>

</g></g><g
           id="g58"><g
             clip-path="url(#clipPath62)"
             id="g60" /></g></g></g><path
       d="m 359.25,567 93,0 0,21.75 -93,0 0,-21.75 z"
       inkscape:connector-curvature="0"
       id="path66"
       style="fill:#ffffff;fill-opacity:1;fill-rule:evenodd;stroke:none" /><g
       id="g68"><g
         clip-path="url(#clipPath72)"
         id="g70"><g
           id="g76"><g
             clip-path="url(#clipPath80)"
             id="g78"><text
   transform="matrix(1,0,0,-1,366.53,574.03)"
   id="text84"><tspan
     x="0 8.0279999 10.692 17.364 25.908001"
     y="0"
     id="tspan86"
     style="font-size:12px;font-variant:normal;font-weight:normal;writing-mode:lr-tb;fill:#000000;fill-opacity:1;fill-rule:nonzero;stroke:none;font-family:Helvetica;-inkscape-font-specification:Helvetica">View2</tspan></text>

</g></g><g
           id="g88"><g
             clip-path="url(#clipPath92)"
             id="g90" /></g></g></g><path
       d="m 294.5,456.75 50.55,0 0,21.75 -50.55,0 0,-21.75 z"
       inkscape:connector-curvature="0"
       id="path96"
       style="fill:#ffffff;fill-opacity:1;fill-rule:evenodd;stroke:none" /><g
       id="g98"><g
         clip-path="url(#clipPath102)"
         id="g100"><g
           id="g106"><g
             clip-path="url(#clipPath110)"
             id="g108"><text
   transform="matrix(1,0,0,-1,301.73,463.63)"
   id="text114"><tspan
     x="0 9.96 16.667999 23.375999 30.084"
     y="0"
     id="tspan116"
     style="font-size:12px;font-variant:normal;font-weight:normal;writing-mode:lr-tb;fill:#000000;fill-opacity:1;fill-rule:nonzero;stroke:none;font-family:Helvetica;-inkscape-font-specification:Helvetica">Model</tspan></text>

</g></g><g
           id="g118"><g
             clip-path="url(#clipPath122)"
             id="g120" /></g></g></g><path
       d="m 344.25,485.25 135.75,0 0,80.25 -135.75,0 0,-80.25 z"
       inkscape:connector-curvature="0"
       id="path126"
       style="fill:none;stroke:#000000;stroke-width:0.75;stroke-linecap:round;stroke-linejoin:miter;stroke-miterlimit:8;stroke-opacity:1;stroke-dasharray:none" /><g
       id="g128"><g
         clip-path="url(#clipPath132)"
         id="g130"><g
           id="g136"><g
             clip-path="url(#clipPath140)"
             id="g138" /></g></g></g><path
       d="m 148.5,484.5 135.75,0 0,80.25 -135.75,0 0,-80.25 z"
       inkscape:connector-curvature="0"
       id="path144"
       style="fill:none;stroke:#000000;stroke-width:0.75;stroke-linecap:round;stroke-linejoin:miter;stroke-miterlimit:8;stroke-opacity:1;stroke-dasharray:none" /><g
       id="g146"><g
         clip-path="url(#clipPath150)"
         id="g148"><g
           id="g154"><g
             clip-path="url(#clipPath158)"
             id="g156" /></g></g></g><path
       d="m 356.08,452.41 10.62,32.25 c 0.09,0.26 0.37,0.4 0.63,0.32 0.26,-0.09 0.41,-0.37 0.32,-0.64 l -10.63,-32.25 c -0.08,-0.26 -0.36,-0.4 -0.63,-0.31 -0.26,0.08 -0.4,0.36 -0.31,0.63 z m 4.57,24.96 6.96,8.44 0.57,-10.93 c 0.02,-0.27 -0.2,-0.51 -0.47,-0.52 -0.28,-0.02 -0.51,0.2 -0.53,0.47 l -0.51,9.64 0.89,-0.29 -6.14,-7.45 c -0.18,-0.21 -0.49,-0.24 -0.7,-0.07 -0.22,0.18 -0.25,0.49 -0.07,0.71 z"
       inkscape:connector-curvature="0"
       id="path162"
       style="fill:#000000;fill-opacity:1;fill-rule:nonzero;stroke:none" /><path
       d="m 254.25,372.75 135.75,0 0,80.25 -135.75,0 0,-80.25 z"
       inkscape:connector-curvature="0"
       id="path164"
       style="fill:#ffffff;fill-opacity:1;fill-rule:evenodd;stroke:none" /><path
       d="m 254.25,372.75 135.75,0 0,80.25 -135.75,0 0,-80.25 z"
       inkscape:connector-curvature="0"
       id="path166"
       style="fill:none;stroke:#000000;stroke-width:0.75;stroke-linecap:round;stroke-linejoin:miter;stroke-miterlimit:8;stroke-opacity:1;stroke-dasharray:none" /><g
       id="g168"><g
         clip-path="url(#clipPath172)"
         id="g170"><g
           id="g176"><g
             clip-path="url(#clipPath180)"
             id="g178" /></g></g></g></g></svg>