<?xml version="1.0" encoding="UTF-8" standalone="no"?>
<!-- Created with Inkscape (http://www.inkscape.org/) -->

<svg
   xmlns:dc="http://purl.org/dc/elements/1.1/"
   xmlns:cc="http://creativecommons.org/ns#"
   xmlns:rdf="http://www.w3.org/1999/02/22-rdf-syntax-ns#"
   xmlns:svg="http://www.w3.org/2000/svg"
   xmlns="http://www.w3.org/2000/svg"
   xmlns:sodipodi="http://sodipodi.sourceforge.net/DTD/sodipodi-0.dtd"
   xmlns:inkscape="http://www.inkscape.org/namespaces/inkscape"
   version="1.1"
   width="550"
   height="182.96274"
   id="svg2"
   xml:space="preserve"
   inkscape:version="0.48.4 r9939"
   sodipodi:docname="Bild 5-15 Kommunikationsdiagramm des Musters Pipes and Filters für aktive Filter.svg"><sodipodi:namedview
     pagecolor="#ffffff"
     bordercolor="#666666"
     borderopacity="1"
     objecttolerance="10"
     gridtolerance="10"
     guidetolerance="10"
     inkscape:pageopacity="0"
     inkscape:pageshadow="2"
     inkscape:window-width="640"
     inkscape:window-height="480"
     id="namedview240"
     showgrid="false"
     inkscape:zoom="0.18730159"
     inkscape:cx="554.59375"
     inkscape:cy="-444.03125"
     inkscape:window-x="0"
     inkscape:window-y="0"
     inkscape:window-maximized="0"
     inkscape:current-layer="svg2" /><metadata
     id="metadata8"><rdf:RDF><cc:Work
         rdf:about=""><dc:format>image/svg+xml</dc:format><dc:type
           rdf:resource="http://purl.org/dc/dcmitype/StillImage" /></cc:Work></rdf:RDF></metadata><defs
     id="defs6"><clipPath
       id="clipPath18"><path
         d="m 138.63,998.52 30,0 0,8.64 -30,0 0,-8.64 z"
         inkscape:connector-curvature="0"
         id="path20" /></clipPath><clipPath
       id="clipPath26"><path
         d="m 138.62,998.52 30,0 0,8.64 -30,0 0,-8.64 z"
         inkscape:connector-curvature="0"
         id="path28" /></clipPath><clipPath
       id="clipPath34"><path
         d="m 138.62,998.52 30,0 0,8.64 -30,0 0,-8.64 z"
         inkscape:connector-curvature="0"
         id="path36" /></clipPath><clipPath
       id="clipPath46"><path
         d="m 138.62,998.52 30,0 0,8.64 -30,0 0,-8.64 z"
         inkscape:connector-curvature="0"
         id="path48" /></clipPath><clipPath
       id="clipPath54"><path
         d="m 138.62,998.52 30,0 0,8.64 -30,0 0,-8.64 z"
         inkscape:connector-curvature="0"
         id="path56" /></clipPath><clipPath
       id="clipPath64"><path
         d="m 427.61,928.08 30,0 0,8.64 -30,0 0,-8.64 z"
         inkscape:connector-curvature="0"
         id="path66" /></clipPath><clipPath
       id="clipPath72"><path
         d="m 427.61,928.08 30,0 0,8.64 -30,0 0,-8.64 z"
         inkscape:connector-curvature="0"
         id="path74" /></clipPath><clipPath
       id="clipPath80"><path
         d="m 427.61,928.08 30,0 0,8.64 -30,0 0,-8.64 z"
         inkscape:connector-curvature="0"
         id="path82" /></clipPath><clipPath
       id="clipPath92"><path
         d="m 427.61,928.08 30,0 0,8.64 -30,0 0,-8.64 z"
         inkscape:connector-curvature="0"
         id="path94" /></clipPath><clipPath
       id="clipPath104"><path
         d="m 154.95,934.92 62.76,0 0,34.44 -62.76,0 0,-34.44 z"
         inkscape:connector-curvature="0"
         id="path106" /></clipPath><clipPath
       id="clipPath112"><path
         d="m 154.94,934.92 62.76,0 0,34.44 -62.76,0 0,-34.44 z"
         inkscape:connector-curvature="0"
         id="path114" /></clipPath><clipPath
       id="clipPath124"><path
         d="m 154.94,934.92 62.76,0 0,34.44 -62.76,0 0,-34.44 z"
         inkscape:connector-curvature="0"
         id="path126" /></clipPath><clipPath
       id="clipPath136"><path
         d="m 154.94,934.92 62.76,0 0,34.44 -62.76,0 0,-34.44 z"
         inkscape:connector-curvature="0"
         id="path138" /></clipPath><clipPath
       id="clipPath148"><path
         d="m 343.49,885.81 62.64,0 0,34.59 -62.64,0 0,-34.59 z"
         inkscape:connector-curvature="0"
         id="path150" /></clipPath><clipPath
       id="clipPath156"><path
         d="m 343.49,885.82 62.64,0 0,34.584 -62.64,0 0,-34.584 z"
         inkscape:connector-curvature="0"
         id="path158" /></clipPath><clipPath
       id="clipPath168"><path
         d="m 343.49,885.82 62.64,0 0,34.584 -62.64,0 0,-34.584 z"
         inkscape:connector-curvature="0"
         id="path170" /></clipPath><clipPath
       id="clipPath180"><path
         d="m 343.49,885.82 62.64,0 0,34.584 -62.64,0 0,-34.584 z"
         inkscape:connector-curvature="0"
         id="path182" /></clipPath><clipPath
       id="clipPath192"><path
         d="m 437.21,863.73 62.67,0 0,34.35 -62.67,0 0,-34.35 z"
         inkscape:connector-curvature="0"
         id="path194" /></clipPath><clipPath
       id="clipPath200"><path
         d="m 437.21,863.74 62.664,0 0,34.344 -62.664,0 0,-34.344 z"
         inkscape:connector-curvature="0"
         id="path202" /></clipPath><clipPath
       id="clipPath212"><path
         d="m 437.21,863.74 62.664,0 0,34.344 -62.664,0 0,-34.344 z"
         inkscape:connector-curvature="0"
         id="path214" /></clipPath><clipPath
       id="clipPath224"><path
         d="m 437.21,863.74 62.664,0 0,34.344 -62.664,0 0,-34.344 z"
         inkscape:connector-curvature="0"
         id="path226" /></clipPath><clipPath
       id="clipPath240"><path
         d="m 61.441,959.88 62.79,0 0,34.56 -62.79,0 0,-34.56 z"
         inkscape:connector-curvature="0"
         id="path242" /></clipPath><clipPath
       id="clipPath248"><path
         d="m 61.44,959.88 62.784,0 0,34.56 -62.784,0 0,-34.56 z"
         inkscape:connector-curvature="0"
         id="path250" /></clipPath><clipPath
       id="clipPath260"><path
         d="m 61.44,959.88 62.784,0 0,34.56 -62.784,0 0,-34.56 z"
         inkscape:connector-curvature="0"
         id="path262" /></clipPath><clipPath
       id="clipPath272"><path
         d="m 61.44,959.88 62.784,0 0,34.56 -62.784,0 0,-34.56 z"
         inkscape:connector-curvature="0"
         id="path274" /></clipPath><clipPath
       id="clipPath288"><path
         d="m 249.27,909.48 62.775,0 0,34.08 -62.775,0 0,-34.08 z"
         inkscape:connector-curvature="0"
         id="path290" /></clipPath><clipPath
       id="clipPath296"><path
         d="m 249.26,909.48 62.784,0 0,34.08 -62.784,0 0,-34.08 z"
         inkscape:connector-curvature="0"
         id="path298" /></clipPath><clipPath
       id="clipPath308"><path
         d="m 249.26,909.48 62.784,0 0,34.08 -62.784,0 0,-34.08 z"
         inkscape:connector-curvature="0"
         id="path310" /></clipPath><clipPath
       id="clipPath320"><path
         d="m 249.26,909.48 62.784,0 0,34.08 -62.784,0 0,-34.08 z"
         inkscape:connector-curvature="0"
         id="path322" /></clipPath><clipPath
       id="clipPath328"><path
         d="m 249.26,909.48 62.784,0 0,34.08 -62.784,0 0,-34.08 z"
         inkscape:connector-curvature="0"
         id="path330" /></clipPath><clipPath
       id="clipPath350"><path
         d="m 334.25,937.68 17.76,0 0,8.88 -17.76,0 0,-8.88 z"
         inkscape:connector-curvature="0"
         id="path352" /></clipPath><clipPath
       id="clipPath358"><path
         d="m 334.25,937.68 17.76,0 0,8.88 -17.76,0 0,-8.88 z"
         inkscape:connector-curvature="0"
         id="path360" /></clipPath><clipPath
       id="clipPath370"><path
         d="m 334.25,937.68 17.76,0 0,8.88 -17.76,0 0,-8.88 z"
         inkscape:connector-curvature="0"
         id="path372" /></clipPath><clipPath
       id="clipPath380"><path
         d="m 234.03,963.6 17.76,0 0,9 -17.76,0 0,-9 z"
         inkscape:connector-curvature="0"
         id="path382" /></clipPath><clipPath
       id="clipPath388"><path
         d="m 234.02,963.6 17.76,0 0,9 -17.76,0 0,-9 z"
         inkscape:connector-curvature="0"
         id="path390" /></clipPath><clipPath
       id="clipPath400"><path
         d="m 234.02,963.6 17.76,0 0,9 -17.76,0 0,-9 z"
         inkscape:connector-curvature="0"
         id="path402" /></clipPath><clipPath
       id="clipPath410"><path
         d="m 233.31,972.84 30,0 0,8.64 -30,0 0,-8.64 z"
         inkscape:connector-curvature="0"
         id="path412" /></clipPath><clipPath
       id="clipPath418"><path
         d="m 233.3,972.84 30,0 0,8.64 -30,0 0,-8.64 z"
         inkscape:connector-curvature="0"
         id="path420" /></clipPath><clipPath
       id="clipPath426"><path
         d="m 233.3,972.84 30,0 0,8.64 -30,0 0,-8.64 z"
         inkscape:connector-curvature="0"
         id="path428" /></clipPath><clipPath
       id="clipPath438"><path
         d="m 233.3,972.84 30,0 0,8.64 -30,0 0,-8.64 z"
         inkscape:connector-curvature="0"
         id="path440" /></clipPath><clipPath
       id="clipPath448"><path
         d="m 331.01,947.52 30,0 0,8.76 -30,0 0,-8.76 z"
         inkscape:connector-curvature="0"
         id="path450" /></clipPath><clipPath
       id="clipPath456"><path
         d="m 331.01,947.52 30,0 0,8.76 -30,0 0,-8.76 z"
         inkscape:connector-curvature="0"
         id="path458" /></clipPath><clipPath
       id="clipPath464"><path
         d="m 331.01,947.52 30,0 0,8.76 -30,0 0,-8.76 z"
         inkscape:connector-curvature="0"
         id="path466" /></clipPath><clipPath
       id="clipPath476"><path
         d="m 331.01,947.52 30,0 0,8.76 -30,0 0,-8.76 z"
         inkscape:connector-curvature="0"
         id="path478" /></clipPath></defs><g
     transform="matrix(1.25,0,0,-1.25,-75.78125,1256.994)"
     id="g10"><path
       d="m 140.1,996.95 26.55,-0.05 c 0.28,0 0.5,-0.22 0.5,-0.5 0,-0.27 -0.22,-0.5 -0.5,-0.5 l -26.55,0.05 c -0.28,0 -0.5,0.22 -0.5,0.5 0,0.28 0.22,0.5 0.5,0.5 z m 20.81,3.4 6.73,-3.95 -6.74,-3.92 c -0.24,-0.14 -0.55,-0.06 -0.69,0.18 -0.14,0.24 -0.06,0.55 0.18,0.69 l 6.01,3.49 0,-0.87 -6,3.51 c -0.23,0.14 -0.31,0.45 -0.18,0.69 0.14,0.23 0.45,0.31 0.69,0.18 z"
       inkscape:connector-curvature="0"
       id="path12"
       style="fill:#000000;fill-opacity:1;fill-rule:nonzero;stroke:none" /><g
       id="g14"><g
         clip-path="url(#clipPath18)"
         id="g16"><g
           id="g22"><g
             clip-path="url(#clipPath26)"
             id="g24" /></g><g
           id="g30"><g
             clip-path="url(#clipPath34)"
             id="g32"><text
   transform="matrix(1,0,0,-1,143.3,999.84)"
   id="text38"><tspan
     x="0 4.4380798 8.8761597 11.15148"
     y="0"
     id="tspan40"
     style="font-size:8.03999996px;font-variant:normal;font-weight:normal;writing-mode:lr-tb;fill:#000000;fill-opacity:1;fill-rule:nonzero;stroke:none;font-family:Helvetica;-inkscape-font-specification:Helvetica">data</tspan></text>

</g></g><g
           id="g42"><g
             clip-path="url(#clipPath46)"
             id="g44" /></g><g
           id="g50"><g
             clip-path="url(#clipPath54)"
             id="g52" /></g></g></g><path
       d="m 429.05,926.5 26.55,-0.05 c 0.28,0 0.5,-0.22 0.5,-0.5 0,-0.27 -0.22,-0.5 -0.5,-0.5 l -26.55,0.05 c -0.28,0 -0.5,0.22 -0.5,0.5 0,0.28 0.22,0.5 0.5,0.5 z m 20.81,3.4 6.73,-3.95 -6.74,-3.92 c -0.24,-0.14 -0.55,-0.06 -0.69,0.18 -0.14,0.24 -0.06,0.55 0.18,0.69 l 6.01,3.49 0,-0.87 -6,3.51 c -0.23,0.14 -0.31,0.45 -0.18,0.69 0.14,0.24 0.45,0.32 0.69,0.18 z"
       inkscape:connector-curvature="0"
       id="path58"
       style="fill:#000000;fill-opacity:1;fill-rule:nonzero;stroke:none" /><g
       id="g60"><g
         clip-path="url(#clipPath64)"
         id="g62"><g
           id="g68"><g
             clip-path="url(#clipPath72)"
             id="g70" /></g><g
           id="g76"><g
             clip-path="url(#clipPath80)"
             id="g78"><text
   transform="matrix(1,0,0,-1,432.29,929.4)"
   id="text84"><tspan
     x="0 4.4380798 8.8761597 11.15148 15.46896"
     y="0"
     id="tspan86"
     style="font-size:8.03999996px;font-variant:normal;font-weight:normal;writing-mode:lr-tb;fill:#000000;fill-opacity:1;fill-rule:nonzero;stroke:none;font-family:Helvetica;-inkscape-font-specification:Helvetica">data </tspan></text>

</g></g><g
           id="g88"><g
             clip-path="url(#clipPath92)"
             id="g90" /></g></g></g><path
       d="m 154.55,930.9 63.5,0 0,42.5 -63.5,0 0,-42.5 z"
       inkscape:connector-curvature="0"
       id="path96"
       style="fill:#ffffff;fill-opacity:1;fill-rule:evenodd;stroke:none" /><path
       d="m 154.55,930.9 63.5,0 0,42.5 -63.5,0 0,-42.5 z"
       inkscape:connector-curvature="0"
       id="path98"
       style="fill:none;stroke:#000000;stroke-width:0.75;stroke-linecap:round;stroke-linejoin:miter;stroke-miterlimit:10;stroke-opacity:1;stroke-dasharray:none" /><g
       id="g100"><g
         clip-path="url(#clipPath104)"
         id="g102"><g
           id="g108"><g
             clip-path="url(#clipPath112)"
             id="g110"><text
   transform="matrix(1,0,0,-1,162.14,961.92)"
   id="text116"><tspan
     x="0"
     y="0"
     id="tspan118"
     style="font-size:8.03999996px;font-variant:normal;font-weight:normal;writing-mode:lr-tb;fill:#000000;fill-opacity:1;fill-rule:nonzero;stroke:none;font-family:Helvetica;-inkscape-font-specification:Helvetica">:</tspan></text>

</g></g><g
           id="g120"><g
             clip-path="url(#clipPath124)"
             id="g122"><text
   transform="matrix(1,0,0,-1,164.42,961.92)"
   id="text128"><tspan
     x="0 5.3948398 7.1797199 11.64996"
     y="0"
     id="tspan130"
     style="font-size:8.03999996px;font-variant:normal;font-weight:normal;writing-mode:lr-tb;fill:#000000;fill-opacity:1;fill-rule:nonzero;stroke:none;font-family:Helvetica;-inkscape-font-specification:Helvetica">Pipe</tspan></text>

</g></g><g
           id="g132"><g
             clip-path="url(#clipPath136)"
             id="g134" /></g></g></g><path
       d="m 343,881.9 63.5,0 0,42.5 -63.5,0 0,-42.5 z"
       inkscape:connector-curvature="0"
       id="path140"
       style="fill:#ffffff;fill-opacity:1;fill-rule:evenodd;stroke:none" /><path
       d="m 343,881.9 63.5,0 0,42.5 -63.5,0 0,-42.5 z"
       inkscape:connector-curvature="0"
       id="path142"
       style="fill:none;stroke:#000000;stroke-width:0.75;stroke-linecap:round;stroke-linejoin:miter;stroke-miterlimit:10;stroke-opacity:1;stroke-dasharray:none" /><g
       id="g144"><g
         clip-path="url(#clipPath148)"
         id="g146"><g
           id="g152"><g
             clip-path="url(#clipPath156)"
             id="g154"><text
   transform="matrix(1,0,0,-1,350.69,913.08)"
   id="text160"><tspan
     x="0"
     y="0"
     id="tspan162"
     style="font-size:8.03999996px;font-variant:normal;font-weight:normal;writing-mode:lr-tb;fill:#000000;fill-opacity:1;fill-rule:nonzero;stroke:none;font-family:Helvetica;-inkscape-font-specification:Helvetica">:</tspan></text>

</g></g><g
           id="g164"><g
             clip-path="url(#clipPath168)"
             id="g166"><text
   transform="matrix(1,0,0,-1,352.97,913.08)"
   id="text172"><tspan
     x="0 5.3948398 7.1797199 11.64996"
     y="0"
     id="tspan174"
     style="font-size:8.03999996px;font-variant:normal;font-weight:normal;writing-mode:lr-tb;fill:#000000;fill-opacity:1;fill-rule:nonzero;stroke:none;font-family:Helvetica;-inkscape-font-specification:Helvetica">Pipe</tspan></text>

</g></g><g
           id="g176"><g
             clip-path="url(#clipPath180)"
             id="g178" /></g></g></g><path
       d="m 436.75,859.8 63.5,0 0,42.3 -63.5,0 0,-42.3 z"
       inkscape:connector-curvature="0"
       id="path184"
       style="fill:#ffffff;fill-opacity:1;fill-rule:evenodd;stroke:none" /><path
       d="m 436.75,859.8 63.5,0 0,42.3 -63.5,0 0,-42.3 z"
       inkscape:connector-curvature="0"
       id="path186"
       style="fill:none;stroke:#000000;stroke-width:0.75;stroke-linecap:round;stroke-linejoin:miter;stroke-miterlimit:10;stroke-opacity:1;stroke-dasharray:none" /><g
       id="g188"><g
         clip-path="url(#clipPath192)"
         id="g190"><g
           id="g196"><g
             clip-path="url(#clipPath200)"
             id="g198"><text
   transform="matrix(1,0,0,-1,444.41,890.74)"
   id="text204"><tspan
     x="0"
     y="0"
     id="tspan206"
     style="font-size:8.03999996px;font-variant:normal;font-weight:normal;writing-mode:lr-tb;fill:#000000;fill-opacity:1;fill-rule:nonzero;stroke:none;font-family:Helvetica;-inkscape-font-specification:Helvetica">:</tspan></text>

</g></g><g
           id="g208"><g
             clip-path="url(#clipPath212)"
             id="g210"><text
   transform="matrix(1,0,0,-1,446.69,890.74)"
   id="text216"><tspan
     x="0 5.75664 10.19472 12.47004 16.908119 21.346201 25.41444 29.85252 34.169998 38.238239"
     y="0"
     id="tspan218"
     style="font-size:8.03999996px;font-variant:normal;font-weight:normal;writing-mode:lr-tb;fill:#000000;fill-opacity:1;fill-rule:nonzero;stroke:none;font-family:Helvetica;-inkscape-font-specification:Helvetica">Datensenke</tspan></text>

</g></g><g
           id="g220"><g
             clip-path="url(#clipPath224)"
             id="g222" /></g></g></g><path
       d="m 439.25,860.25 0,41.8"
       inkscape:connector-curvature="0"
       id="path228"
       style="fill:none;stroke:#000000;stroke-width:0.75;stroke-linecap:round;stroke-linejoin:round;stroke-miterlimit:10;stroke-opacity:1;stroke-dasharray:none" /><path
       d="m 496.9,902.05 0,-42.45"
       inkscape:connector-curvature="0"
       id="path230"
       style="fill:none;stroke:#000000;stroke-width:0.75;stroke-linecap:round;stroke-linejoin:round;stroke-miterlimit:10;stroke-opacity:1;stroke-dasharray:none" /><path
       d="m 61,955.9 63.55,0 0,42.6 -63.55,0 0,-42.6 z"
       inkscape:connector-curvature="0"
       id="path232"
       style="fill:#ffffff;fill-opacity:1;fill-rule:evenodd;stroke:none" /><path
       d="m 61,955.9 63.55,0 0,42.6 -63.55,0 0,-42.6 z"
       inkscape:connector-curvature="0"
       id="path234"
       style="fill:none;stroke:#000000;stroke-width:0.75;stroke-linecap:round;stroke-linejoin:miter;stroke-miterlimit:8;stroke-opacity:1;stroke-dasharray:none" /><g
       id="g236"><g
         clip-path="url(#clipPath240)"
         id="g238"><g
           id="g244"><g
             clip-path="url(#clipPath248)"
             id="g246"><text
   transform="matrix(1,0,0,-1,68.64,987)"
   id="text252"><tspan
     x="0"
     y="0"
     id="tspan254"
     style="font-size:8.03999996px;font-variant:normal;font-weight:normal;writing-mode:lr-tb;fill:#000000;fill-opacity:1;fill-rule:nonzero;stroke:none;font-family:Helvetica;-inkscape-font-specification:Helvetica">:</tspan></text>

</g></g><g
           id="g256"><g
             clip-path="url(#clipPath260)"
             id="g258"><text
   transform="matrix(1,0,0,-1,70.92,987)"
   id="text264"><tspan
     x="0 5.75664 10.19472 12.47004 16.908119 21.346201 25.784281 30.222361 34.660439 36.44532 38.254318"
     y="0"
     id="tspan266"
     style="font-size:8.03999996px;font-variant:normal;font-weight:normal;writing-mode:lr-tb;fill:#000000;fill-opacity:1;fill-rule:nonzero;stroke:none;font-family:Helvetica;-inkscape-font-specification:Helvetica">Datenquelle</tspan></text>

</g></g><g
           id="g268"><g
             clip-path="url(#clipPath272)"
             id="g270" /></g></g></g><path
       d="m 121.8,998.15 0,-41.65"
       inkscape:connector-curvature="0"
       id="path276"
       style="fill:none;stroke:#000000;stroke-width:0.75;stroke-linecap:round;stroke-linejoin:round;stroke-miterlimit:8;stroke-opacity:1;stroke-dasharray:none" /><path
       d="m 64.45,998.15 0,-41.65"
       inkscape:connector-curvature="0"
       id="path278"
       style="fill:none;stroke:#000000;stroke-width:0.75;stroke-linecap:round;stroke-linejoin:round;stroke-miterlimit:8;stroke-opacity:1;stroke-dasharray:none" /><path
       d="m 248.85,905.45 63.5,0 0,42.1 -63.5,0 0,-42.1 z"
       inkscape:connector-curvature="0"
       id="path280"
       style="fill:#ffffff;fill-opacity:1;fill-rule:evenodd;stroke:none" /><path
       d="m 248.85,905.45 63.5,0 0,42.1 -63.5,0 0,-42.1 z"
       inkscape:connector-curvature="0"
       id="path282"
       style="fill:none;stroke:#000000;stroke-width:0.75;stroke-linecap:round;stroke-linejoin:miter;stroke-miterlimit:8;stroke-opacity:1;stroke-dasharray:none" /><g
       id="g284"><g
         clip-path="url(#clipPath288)"
         id="g286"><g
           id="g292"><g
             clip-path="url(#clipPath296)"
             id="g294"><text
   transform="matrix(1,0,0,-1,256.46,936.24)"
   id="text300"><tspan
     x="0"
     y="0"
     id="tspan302"
     style="font-size:8.03999996px;font-variant:normal;font-weight:normal;writing-mode:lr-tb;fill:#000000;fill-opacity:1;fill-rule:nonzero;stroke:none;font-family:Helvetica;-inkscape-font-specification:Helvetica">:</tspan></text>

</g></g><g
           id="g304"><g
             clip-path="url(#clipPath308)"
             id="g306"><text
   transform="matrix(1,0,0,-1,258.74,936.24)"
   id="text312"><tspan
     x="0 4.9124398 6.69732 8.4018002 10.67712 15.1152"
     y="0"
     id="tspan314"
     style="font-size:8.03999996px;font-variant:normal;font-weight:normal;writing-mode:lr-tb;fill:#000000;fill-opacity:1;fill-rule:nonzero;stroke:none;font-family:Helvetica;-inkscape-font-specification:Helvetica">Filter</tspan></text>

</g></g><g
           id="g316"><g
             clip-path="url(#clipPath320)"
             id="g318" /></g><g
           id="g324"><g
             clip-path="url(#clipPath328)"
             id="g326" /></g></g></g><path
       d="m 252.1,947.75 0,-42.45"
       inkscape:connector-curvature="0"
       id="path332"
       style="fill:none;stroke:#000000;stroke-width:0.75;stroke-linecap:round;stroke-linejoin:round;stroke-miterlimit:8;stroke-opacity:1;stroke-dasharray:none" /><path
       d="m 308.85,947.8 0,-42.45"
       inkscape:connector-curvature="0"
       id="path334"
       style="fill:none;stroke:#000000;stroke-width:0.75;stroke-linecap:round;stroke-linejoin:round;stroke-miterlimit:8;stroke-opacity:1;stroke-dasharray:none" /><path
       d="m 124.55,991.65 62.1,0 0,-18.25 -0.1,0"
       inkscape:connector-curvature="0"
       id="path336"
       style="fill:none;stroke:#000000;stroke-width:0.75;stroke-linecap:round;stroke-linejoin:round;stroke-miterlimit:8;stroke-opacity:1;stroke-dasharray:none" /><path
       d="m 218.05,966.5 62.1,0 0,-18.25 -0.1,0"
       inkscape:connector-curvature="0"
       id="path338"
       style="fill:none;stroke:#000000;stroke-width:0.75;stroke-linecap:round;stroke-linejoin:round;stroke-miterlimit:8;stroke-opacity:1;stroke-dasharray:none" /><path
       d="m 312.35,940.85 62.2,0 0,-16.45 -0.2,0"
       inkscape:connector-curvature="0"
       id="path340"
       style="fill:none;stroke:#000000;stroke-width:0.75;stroke-linecap:round;stroke-linejoin:round;stroke-miterlimit:8;stroke-opacity:1;stroke-dasharray:none" /><path
       d="m 406.5,917.5 61.75,0 0,-15.4 0.25,0"
       inkscape:connector-curvature="0"
       id="path342"
       style="fill:none;stroke:#000000;stroke-width:0.75;stroke-linecap:round;stroke-linejoin:round;stroke-miterlimit:8;stroke-opacity:1;stroke-dasharray:none" /><path
       d="m 334.15,934 17.8,0 0,16.2 -17.8,0 0,-16.2 z"
       inkscape:connector-curvature="0"
       id="path344"
       style="fill:#ffffff;fill-opacity:1;fill-rule:evenodd;stroke:none" /><g
       id="g346"><g
         clip-path="url(#clipPath350)"
         id="g348"><g
           id="g354"><g
             clip-path="url(#clipPath358)"
             id="g356"><text
   transform="matrix(1,0,0,-1,341.45,939.36)"
   id="text362"><tspan
     x="0"
     y="0"
     id="tspan364"
     style="font-size:8.03999996px;font-variant:normal;font-weight:bold;writing-mode:lr-tb;fill:#000000;fill-opacity:1;fill-rule:nonzero;stroke:none;font-family:Arial;-inkscape-font-specification:Arial Bold">…</tspan></text>

</g></g><g
           id="g366"><g
             clip-path="url(#clipPath370)"
             id="g368" /></g></g></g><path
       d="m 234.05,959.95 17.8,0 0,16.2 -17.8,0 0,-16.2 z"
       inkscape:connector-curvature="0"
       id="path374"
       style="fill:#ffffff;fill-opacity:1;fill-rule:evenodd;stroke:none" /><g
       id="g376"><g
         clip-path="url(#clipPath380)"
         id="g378"><g
           id="g384"><g
             clip-path="url(#clipPath388)"
             id="g386"><text
   transform="matrix(1,0,0,-1,241.22,965.4)"
   id="text392"><tspan
     x="0"
     y="0"
     id="tspan394"
     style="font-size:8.03999996px;font-variant:normal;font-weight:bold;writing-mode:lr-tb;fill:#000000;fill-opacity:1;fill-rule:nonzero;stroke:none;font-family:Arial;-inkscape-font-specification:Arial Bold">…</tspan></text>

</g></g><g
           id="g396"><g
             clip-path="url(#clipPath400)"
             id="g398" /></g></g></g><path
       d="m 234.8,971.25 26.55,-0.05 c 0.28,0 0.5,-0.22 0.5,-0.5 0,-0.27 -0.22,-0.5 -0.5,-0.5 l -26.55,0.05 c -0.28,0 -0.5,0.22 -0.5,0.5 0,0.28 0.22,0.5 0.5,0.5 z m 20.81,3.4 6.73,-3.95 -6.74,-3.92 c -0.24,-0.14 -0.55,-0.06 -0.69,0.18 -0.14,0.24 -0.06,0.55 0.18,0.69 l 6.01,3.49 0,-0.87 -6,3.51 c -0.23,0.14 -0.31,0.45 -0.18,0.69 0.14,0.24 0.45,0.32 0.69,0.18 z"
       inkscape:connector-curvature="0"
       id="path404"
       style="fill:#000000;fill-opacity:1;fill-rule:nonzero;stroke:none" /><g
       id="g406"><g
         clip-path="url(#clipPath410)"
         id="g408"><g
           id="g414"><g
             clip-path="url(#clipPath418)"
             id="g416" /></g><g
           id="g422"><g
             clip-path="url(#clipPath426)"
             id="g424"><text
   transform="matrix(1,0,0,-1,237.98,974.16)"
   id="text430"><tspan
     x="0 4.4380798 8.8761597 11.15148 15.46896"
     y="0"
     id="tspan432"
     style="font-size:8.03999996px;font-variant:normal;font-weight:normal;writing-mode:lr-tb;fill:#000000;fill-opacity:1;fill-rule:nonzero;stroke:none;font-family:Helvetica;-inkscape-font-specification:Helvetica">data </tspan></text>

</g></g><g
           id="g434"><g
             clip-path="url(#clipPath438)"
             id="g436" /></g></g></g><path
       d="m 332.5,946 26.55,-0.05 c 0.28,0 0.5,-0.22 0.5,-0.5 0,-0.27 -0.22,-0.5 -0.5,-0.5 L 332.5,945 c -0.28,0 -0.5,0.22 -0.5,0.5 0,0.28 0.22,0.5 0.5,0.5 z m 20.81,3.4 6.73,-3.95 -6.74,-3.92 c -0.24,-0.14 -0.55,-0.06 -0.69,0.18 -0.14,0.24 -0.06,0.55 0.18,0.69 l 6.01,3.49 0,-0.87 -6,3.51 c -0.23,0.14 -0.31,0.45 -0.18,0.69 0.14,0.24 0.45,0.32 0.69,0.18 z"
       inkscape:connector-curvature="0"
       id="path442"
       style="fill:#000000;fill-opacity:1;fill-rule:nonzero;stroke:none" /><g
       id="g444"><g
         clip-path="url(#clipPath448)"
         id="g446"><g
           id="g452"><g
             clip-path="url(#clipPath456)"
             id="g454" /></g><g
           id="g460"><g
             clip-path="url(#clipPath464)"
             id="g462"><text
   transform="matrix(1,0,0,-1,335.69,948.96)"
   id="text468"><tspan
     x="0 4.4380798 8.8761597 11.15148 15.46896"
     y="0"
     id="tspan470"
     style="font-size:8.03999996px;font-variant:normal;font-weight:normal;writing-mode:lr-tb;fill:#000000;fill-opacity:1;fill-rule:nonzero;stroke:none;font-family:Helvetica;-inkscape-font-specification:Helvetica">data </tspan></text>

</g></g><g
           id="g472"><g
             clip-path="url(#clipPath476)"
             id="g474" /></g></g></g></g></svg>