<?xml version="1.0" encoding="UTF-8" standalone="no"?>
<!-- Created with Inkscape (http://www.inkscape.org/) -->

<svg
   xmlns:dc="http://purl.org/dc/elements/1.1/"
   xmlns:cc="http://creativecommons.org/ns#"
   xmlns:rdf="http://www.w3.org/1999/02/22-rdf-syntax-ns#"
   xmlns:svg="http://www.w3.org/2000/svg"
   xmlns="http://www.w3.org/2000/svg"
   xmlns:sodipodi="http://sodipodi.sourceforge.net/DTD/sodipodi-0.dtd"
   xmlns:inkscape="http://www.inkscape.org/namespaces/inkscape"
   version="1.1"
   width="368.4375"
   height="113.0625"
   id="svg2"
   xml:space="preserve"
   inkscape:version="0.48.4 r9939"
   sodipodi:docname="Bild 5-6 Struktur der Datenzugriffsschicht.svg"><sodipodi:namedview
     pagecolor="#ffffff"
     bordercolor="#666666"
     borderopacity="1"
     objecttolerance="10"
     gridtolerance="10"
     guidetolerance="10"
     inkscape:pageopacity="0"
     inkscape:pageshadow="2"
     inkscape:window-width="640"
     inkscape:window-height="480"
     id="namedview58"
     showgrid="false"
     inkscape:zoom="0.18730159"
     inkscape:cx="379.59375"
     inkscape:cy="64.03125"
     inkscape:window-x="0"
     inkscape:window-y="0"
     inkscape:window-maximized="0"
     inkscape:current-layer="svg2" /><metadata
     id="metadata8"><rdf:RDF><cc:Work
         rdf:about=""><dc:format>image/svg+xml</dc:format><dc:type
           rdf:resource="http://purl.org/dc/dcmitype/StillImage" /></cc:Work></rdf:RDF></metadata><defs
     id="defs6"><clipPath
       id="clipPath20"><path
         d="m 201.39,502.75 293.33,0 0,36 -293.33,0 0,-36 z"
         inkscape:connector-curvature="0"
         id="path22" /></clipPath><clipPath
       id="clipPath28"><path
         d="m 201.38,502.75 293.33,0 0,36 -293.33,0 0,-36 z"
         inkscape:connector-curvature="0"
         id="path30" /></clipPath><clipPath
       id="clipPath40"><path
         d="m 201.38,502.75 293.33,0 0,36 -293.33,0 0,-36 z"
         inkscape:connector-curvature="0"
         id="path42" /></clipPath><clipPath
       id="clipPath48"><path
         d="m 201.38,502.75 293.33,0 0,36 -293.33,0 0,-36 z"
         inkscape:connector-curvature="0"
         id="path50" /></clipPath><clipPath
       id="clipPath60"><path
         d="m 201.38,502.75 293.33,0 0,36 -293.33,0 0,-36 z"
         inkscape:connector-curvature="0"
         id="path62" /></clipPath><clipPath
       id="clipPath72"><path
         d="m 201.39,457.15 293.33,0 0,37.56 -293.33,0 0,-37.56 z"
         inkscape:connector-curvature="0"
         id="path74" /></clipPath><clipPath
       id="clipPath80"><path
         d="m 201.38,457.15 293.33,0 0,37.56 -293.33,0 0,-37.56 z"
         inkscape:connector-curvature="0"
         id="path82" /></clipPath><clipPath
       id="clipPath88"><path
         d="m 201.38,457.15 293.33,0 0,37.56 -293.33,0 0,-37.56 z"
         inkscape:connector-curvature="0"
         id="path90" /></clipPath><clipPath
       id="clipPath100"><path
         d="m 201.38,457.15 293.33,0 0,37.56 -293.33,0 0,-37.56 z"
         inkscape:connector-curvature="0"
         id="path102" /></clipPath><clipPath
       id="clipPath112"><path
         d="m 201.38,457.15 293.33,0 0,37.56 -293.33,0 0,-37.56 z"
         inkscape:connector-curvature="0"
         id="path114" /></clipPath></defs><g
     transform="matrix(1.25,0,0,-1.25,-250.78125,679.03125)"
     id="g10"><path
       d="m 201,498.75 294,0 0,44.1 -294,0 0,-44.1 z"
       inkscape:connector-curvature="0"
       id="path12"
       style="fill:#ffffff;fill-opacity:1;fill-rule:evenodd;stroke:none" /><path
       d="m 201,498.75 294,0 0,44.1 -294,0 0,-44.1 z"
       inkscape:connector-curvature="0"
       id="path14"
       style="fill:none;stroke:#000000;stroke-width:0.75;stroke-linecap:round;stroke-linejoin:miter;stroke-miterlimit:10;stroke-opacity:1;stroke-dasharray:none" /><g
       id="g16"><g
         clip-path="url(#clipPath20)"
         id="g18"><g
           id="g24"><g
             clip-path="url(#clipPath28)"
             id="g26"><text
   transform="matrix(1,0,0,-1,295.13,525.79)"
   id="text32"><tspan
     x="0 10.08072 17.886959 21.832199 29.638439 37.444679 45.250919 52.916759 59.978882 63.924122 68.599442 76.27932 83.243156 87.1884 90.305283 98.111519"
     y="0"
     id="tspan34"
     style="font-size:14.03999996px;font-variant:normal;font-weight:normal;writing-mode:lr-tb;fill:#000000;fill-opacity:1;fill-rule:nonzero;stroke:none;font-family:Helvetica;-inkscape-font-specification:Helvetica">Datenabstraktion</tspan></text>

</g></g><g
           id="g36"><g
             clip-path="url(#clipPath40)"
             id="g38" /></g><g
           id="g44"><g
             clip-path="url(#clipPath48)"
             id="g46"><text
   transform="matrix(1,0,0,-1,274.1,509.59)"
   id="text52"><tspan
     x="0 4.6753201 12.48156 20.2878 24.219 32.025242 39.831478 47.637718 55.303558 63.109798 70.171921 77.978157 85.784401 93.450241 101.25648 109.06272 116.72856 124.5348 132.34103 135.45792 143.26416"
     y="0"
     id="tspan54"
     style="font-size:14.03999996px;font-variant:normal;font-weight:normal;writing-mode:lr-tb;fill:#000000;fill-opacity:1;fill-rule:nonzero;stroke:none;font-family:Helvetica;-inkscape-font-specification:Helvetica">(datenbankunabhängig)</tspan></text>

</g></g><g
           id="g56"><g
             clip-path="url(#clipPath60)"
             id="g58" /></g></g></g><path
       d="m 201,453.15 294,0 0,45.6 -294,0 0,-45.6 z"
       inkscape:connector-curvature="0"
       id="path64"
       style="fill:#ffffff;fill-opacity:1;fill-rule:evenodd;stroke:none" /><path
       d="m 201,453.15 294,0 0,45.6 -294,0 0,-45.6 z"
       inkscape:connector-curvature="0"
       id="path66"
       style="fill:none;stroke:#000000;stroke-width:0.75;stroke-linecap:round;stroke-linejoin:miter;stroke-miterlimit:10;stroke-opacity:1;stroke-dasharray:none" /><g
       id="g68"><g
         clip-path="url(#clipPath72)"
         id="g70"><g
           id="g76"><g
             clip-path="url(#clipPath80)"
             id="g78" /></g><g
           id="g84"><g
             clip-path="url(#clipPath88)"
             id="g86"><text
   transform="matrix(1,0,0,-1,219.14,472.39)"
   id="text92"><tspan
     x="0 7.8062401 12.48156 20.2878 28.09404 32.76936 35.886238 43.692478 47.525398 55.331638 60.006962 67.813202"
     y="0"
     id="tspan94"
     style="font-size:14.03999996px;font-variant:normal;font-weight:normal;writing-mode:lr-tb;fill:#000000;fill-opacity:1;fill-rule:nonzero;stroke:none;font-family:Helvetica;-inkscape-font-specification:Helvetica">proprietäre </tspan></text>

</g></g><g
           id="g96"><g
             clip-path="url(#clipPath100)"
             id="g98"><text
   transform="matrix(1,0,0,-1,290.81,472.39)"
   id="text104"><tspan
     x="0 9.3646803 16.4268 24.23304 32.03928 35.0298 38.876759 42.821999 49.785839 53.731079 61.537319 64.654198 67.77108 75.450958 79.396202 86.458321 94.264557 98.813522 102.75876 112.83948 120.64572 124.47864 132.28488 140.09113 147.89735 155.7036 158.68008 162.62532 170.30521 178.11143"
     y="0"
     id="tspan106"
     style="font-size:14.03999996px;font-variant:normal;font-weight:normal;writing-mode:lr-tb;fill:#000000;fill-opacity:1;fill-rule:nonzero;stroke:none;font-family:Helvetica;-inkscape-font-specification:Helvetica">Schnittstelle zur Datenhaltung</tspan></text>

</g></g><g
           id="g108"><g
             clip-path="url(#clipPath112)"
             id="g110" /></g></g></g></g></svg>