<?xml version="1.0" encoding="UTF-8" standalone="no"?>
<!-- Created with Inkscape (http://www.inkscape.org/) -->

<svg
   xmlns:dc="http://purl.org/dc/elements/1.1/"
   xmlns:cc="http://creativecommons.org/ns#"
   xmlns:rdf="http://www.w3.org/1999/02/22-rdf-syntax-ns#"
   xmlns:svg="http://www.w3.org/2000/svg"
   xmlns="http://www.w3.org/2000/svg"
   xmlns:sodipodi="http://sodipodi.sourceforge.net/DTD/sodipodi-0.dtd"
   xmlns:inkscape="http://www.inkscape.org/namespaces/inkscape"
   version="1.1"
   width="635.625"
   height="286.9375"
   id="svg2"
   xml:space="preserve"
   inkscape:version="0.48.4 r9939"
   sodipodi:docname="Bild 5-19 Asynchrone Entkopplung von parallelen Filtern.svg"><sodipodi:namedview
     pagecolor="#ffffff"
     bordercolor="#666666"
     borderopacity="1"
     objecttolerance="10"
     gridtolerance="10"
     guidetolerance="10"
     inkscape:pageopacity="0"
     inkscape:pageshadow="2"
     inkscape:window-width="640"
     inkscape:window-height="480"
     id="namedview295"
     showgrid="false"
     inkscape:zoom="0.18730159"
     inkscape:cx="129.28125"
     inkscape:cy="220.78125"
     inkscape:window-x="0"
     inkscape:window-y="0"
     inkscape:window-maximized="0"
     inkscape:current-layer="svg2" /><metadata
     id="metadata8"><rdf:RDF><cc:Work
         rdf:about=""><dc:format>image/svg+xml</dc:format><dc:type
           rdf:resource="http://purl.org/dc/dcmitype/StillImage" /></cc:Work></rdf:RDF></metadata><defs
     id="defs6"><clipPath
       id="clipPath20"><path
         d="m 401.69,532.39 52.68,0 0,20.16 -52.68,0 0,-20.16 z"
         inkscape:connector-curvature="0"
         id="path22" /></clipPath><clipPath
       id="clipPath28"><path
         d="m 401.69,532.39 52.68,0 0,20.16 -52.68,0 0,-20.16 z"
         inkscape:connector-curvature="0"
         id="path30" /></clipPath><clipPath
       id="clipPath40"><path
         d="m 401.69,532.39 52.68,0 0,20.16 -52.68,0 0,-20.16 z"
         inkscape:connector-curvature="0"
         id="path42" /></clipPath><clipPath
       id="clipPath64"><path
         d="m 515.12,532.39 54.72,0 0,20.16 -54.72,0 0,-20.16 z"
         inkscape:connector-curvature="0"
         id="path66" /></clipPath><clipPath
       id="clipPath72"><path
         d="m 515.11,532.39 54.72,0 0,20.16 -54.72,0 0,-20.16 z"
         inkscape:connector-curvature="0"
         id="path74" /></clipPath><clipPath
       id="clipPath84"><path
         d="m 515.11,532.39 54.72,0 0,20.16 -54.72,0 0,-20.16 z"
         inkscape:connector-curvature="0"
         id="path86" /></clipPath><clipPath
       id="clipPath96"><path
         d="m 629.48,532.15 56.055,0 0,20.16 -56.055,0 0,-20.16 z"
         inkscape:connector-curvature="0"
         id="path98" /></clipPath><clipPath
       id="clipPath104"><path
         d="m 629.47,532.15 56.064,0 0,20.16 -56.064,0 0,-20.16 z"
         inkscape:connector-curvature="0"
         id="path106" /></clipPath><clipPath
       id="clipPath116"><path
         d="m 629.47,532.15 56.064,0 0,20.16 -56.064,0 0,-20.16 z"
         inkscape:connector-curvature="0"
         id="path118" /></clipPath><clipPath
       id="clipPath124"><path
         d="m 629.47,532.15 56.064,0 0,20.16 -56.064,0 0,-20.16 z"
         inkscape:connector-curvature="0"
         id="path126" /></clipPath><clipPath
       id="clipPath140"><path
         d="m 688.89,532.15 50.64,0 0,20.4 -50.64,0 0,-20.4 z"
         inkscape:connector-curvature="0"
         id="path142" /></clipPath><clipPath
       id="clipPath148"><path
         d="m 688.9,532.15 50.64,0 0,20.4 -50.64,0 0,-20.4 z"
         inkscape:connector-curvature="0"
         id="path150" /></clipPath><clipPath
       id="clipPath160"><path
         d="m 688.9,532.15 50.64,0 0,20.4 -50.64,0 0,-20.4 z"
         inkscape:connector-curvature="0"
         id="path162" /></clipPath><clipPath
       id="clipPath168"><path
         d="m 688.9,532.15 50.64,0 0,20.4 -50.64,0 0,-20.4 z"
         inkscape:connector-curvature="0"
         id="path170" /></clipPath><clipPath
       id="clipPath192"><path
         d="m 743.01,532.03 56.04,0 0,20.28 -56.04,0 0,-20.28 z"
         inkscape:connector-curvature="0"
         id="path194" /></clipPath><clipPath
       id="clipPath200"><path
         d="m 743.02,532.03 56.04,0 0,20.28 -56.04,0 0,-20.28 z"
         inkscape:connector-curvature="0"
         id="path202" /></clipPath><clipPath
       id="clipPath212"><path
         d="m 743.02,532.03 56.04,0 0,20.28 -56.04,0 0,-20.28 z"
         inkscape:connector-curvature="0"
         id="path214" /></clipPath><clipPath
       id="clipPath220"><path
         d="m 743.02,532.03 56.04,0 0,20.28 -56.04,0 0,-20.28 z"
         inkscape:connector-curvature="0"
         id="path222" /></clipPath><clipPath
       id="clipPath236"><path
         d="m 856.08,532.39 52.68,0 0,20.16 -52.68,0 0,-20.16 z"
         inkscape:connector-curvature="0"
         id="path238" /></clipPath><clipPath
       id="clipPath244"><path
         d="m 856.08,532.39 52.68,0 0,20.16 -52.68,0 0,-20.16 z"
         inkscape:connector-curvature="0"
         id="path246" /></clipPath><clipPath
       id="clipPath256"><path
         d="m 856.08,532.39 52.68,0 0,20.16 -52.68,0 0,-20.16 z"
         inkscape:connector-curvature="0"
         id="path258" /></clipPath><clipPath
       id="clipPath308"><path
         d="m 658.53,384.76 47.88,0 0,15.84 -47.88,0 0,-15.84 z"
         inkscape:connector-curvature="0"
         id="path310" /></clipPath><clipPath
       id="clipPath316"><path
         d="m 658.54,384.77 47.88,0 0,15.84 -47.88,0 0,-15.84 z"
         inkscape:connector-curvature="0"
         id="path318" /></clipPath><clipPath
       id="clipPath328"><path
         d="m 658.54,384.77 47.88,0 0,15.84 -47.88,0 0,-15.84 z"
         inkscape:connector-curvature="0"
         id="path330" /></clipPath><clipPath
       id="clipPath336"><path
         d="m 552.32,461.47 36,0 0,10.68 -36,0 0,-10.68 z"
         inkscape:connector-curvature="0"
         id="path338" /></clipPath><clipPath
       id="clipPath344"><path
         d="m 552.31,461.47 36,0 0,10.68 -36,0 0,-10.68 z"
         inkscape:connector-curvature="0"
         id="path346" /></clipPath><clipPath
       id="clipPath356"><path
         d="m 552.31,461.47 36,0 0,10.68 -36,0 0,-10.68 z"
         inkscape:connector-curvature="0"
         id="path358" /></clipPath><clipPath
       id="clipPath368"><path
         d="m 552.31,461.47 36,0 0,10.68 -36,0 0,-10.68 z"
         inkscape:connector-curvature="0"
         id="path370" /></clipPath><clipPath
       id="clipPath380"><path
         d="m 552.31,461.47 36,0 0,10.68 -36,0 0,-10.68 z"
         inkscape:connector-curvature="0"
         id="path382" /></clipPath><clipPath
       id="clipPath390"><path
         d="m 585.44,494.35 47.16,0 0,15 -47.16,0 0,-15 z"
         inkscape:connector-curvature="0"
         id="path392" /></clipPath><clipPath
       id="clipPath398"><path
         d="m 585.43,494.35 47.16,0 0,15 -47.16,0 0,-15 z"
         inkscape:connector-curvature="0"
         id="path400" /></clipPath><clipPath
       id="clipPath410"><path
         d="m 585.43,494.35 47.16,0 0,15 -47.16,0 0,-15 z"
         inkscape:connector-curvature="0"
         id="path412" /></clipPath><clipPath
       id="clipPath420"><path
         d="m 718.41,490.63 54.24,0 0,18.72 -54.24,0 0,-18.72 z"
         inkscape:connector-curvature="0"
         id="path422" /></clipPath><clipPath
       id="clipPath428"><path
         d="m 718.42,490.63 54.24,0 0,18.72 -54.24,0 0,-18.72 z"
         inkscape:connector-curvature="0"
         id="path430" /></clipPath><clipPath
       id="clipPath440"><path
         d="m 718.42,490.63 54.24,0 0,18.72 -54.24,0 0,-18.72 z"
         inkscape:connector-curvature="0"
         id="path442" /></clipPath><clipPath
       id="clipPath452"><path
         d="m 774.09,374.92 46.56,0 0,10.68 -46.56,0 0,-10.68 z"
         inkscape:connector-curvature="0"
         id="path454" /></clipPath><clipPath
       id="clipPath460"><path
         d="m 774.1,374.93 46.56,0 0,10.68 -46.56,0 0,-10.68 z"
         inkscape:connector-curvature="0"
         id="path462" /></clipPath><clipPath
       id="clipPath472"><path
         d="m 774.1,374.93 46.56,0 0,10.68 -46.56,0 0,-10.68 z"
         inkscape:connector-curvature="0"
         id="path474" /></clipPath><clipPath
       id="clipPath492"><path
         d="m 667.17,416.44 36,0 0,10.68 -36,0 0,-10.68 z"
         inkscape:connector-curvature="0"
         id="path494" /></clipPath><clipPath
       id="clipPath500"><path
         d="m 667.18,416.45 36,0 0,10.68 -36,0 0,-10.68 z"
         inkscape:connector-curvature="0"
         id="path502" /></clipPath><clipPath
       id="clipPath512"><path
         d="m 667.18,416.45 36,0 0,10.68 -36,0 0,-10.68 z"
         inkscape:connector-curvature="0"
         id="path514" /></clipPath><clipPath
       id="clipPath526"><path
         d="m 470,490.39 52.08,0 0,10.8 -52.08,0 0,-10.8 z"
         inkscape:connector-curvature="0"
         id="path528" /></clipPath><clipPath
       id="clipPath534"><path
         d="m 469.99,490.39 52.08,0 0,10.8 -52.08,0 0,-10.8 z"
         inkscape:connector-curvature="0"
         id="path536" /></clipPath><clipPath
       id="clipPath546"><path
         d="m 469.99,490.39 52.08,0 0,10.8 -52.08,0 0,-10.8 z"
         inkscape:connector-curvature="0"
         id="path548" /></clipPath><clipPath
       id="clipPath554"><path
         d="m 778.65,349.96 51,0 0,10.8 -51,0 0,-10.8 z"
         inkscape:connector-curvature="0"
         id="path556" /></clipPath><clipPath
       id="clipPath562"><path
         d="m 778.66,349.97 51,0 0,10.8 -51,0 0,-10.8 z"
         inkscape:connector-curvature="0"
         id="path564" /></clipPath><clipPath
       id="clipPath574"><path
         d="m 778.66,349.97 51,0 0,10.8 -51,0 0,-10.8 z"
         inkscape:connector-curvature="0"
         id="path576" /></clipPath></defs><g
     transform="matrix(1.25,0,0,-1.25,-501.09375,696.15625)"
     id="g10"><path
       d="m 401.25,528.4 53.5,0 0,28.15 -53.5,0 0,-28.15 z"
       inkscape:connector-curvature="0"
       id="path12"
       style="fill:#ffffff;fill-opacity:1;fill-rule:evenodd;stroke:none" /><path
       d="m 401.25,528.4 53.5,0 0,28.15 -53.5,0 0,-28.15 z"
       inkscape:connector-curvature="0"
       id="path14"
       style="fill:none;stroke:#000000;stroke-width:0.75;stroke-linecap:round;stroke-linejoin:miter;stroke-miterlimit:10;stroke-opacity:1;stroke-dasharray:none" /><g
       id="g16"><g
         clip-path="url(#clipPath20)"
         id="g18"><g
           id="g24"><g
             clip-path="url(#clipPath28)"
             id="g26"><text
   transform="matrix(1,0,0,-1,409.01,541.51)"
   id="text32"><tspan
     x="0 3.336 12.708 19.416 26.124001 28.788 31.403999"
     y="0"
     id="tspan34"
     style="font-size:12px;font-variant:normal;font-weight:normal;writing-mode:lr-tb;fill:#000000;fill-opacity:1;fill-rule:nonzero;stroke:none;font-family:Helvetica;-inkscape-font-specification:Helvetica">:Quelle</tspan></text>

</g></g><g
           id="g36"><g
             clip-path="url(#clipPath40)"
             id="g38" /></g></g></g><g
       id="g44"><path
         d="M 428.05,528.6 428.1,327.75"
         inkscape:connector-curvature="0"
         id="path46"
         style="fill:none;stroke:#000000;stroke-width:0.75;stroke-linecap:round;stroke-linejoin:round;stroke-miterlimit:10;stroke-opacity:1;stroke-dasharray:5.25, 3;stroke-dashoffset:0" /></g><g
       id="g48"><path
         d="M 714.3,529.75 714.35,328.6"
         inkscape:connector-curvature="0"
         id="path50"
         style="fill:none;stroke:#000000;stroke-width:0.75;stroke-linecap:round;stroke-linejoin:round;stroke-miterlimit:10;stroke-opacity:1;stroke-dasharray:5.25, 3;stroke-dashoffset:0" /></g><g
       id="g52"><path
         d="m 542.4,528.5 0.05,-200"
         inkscape:connector-curvature="0"
         id="path54"
         style="fill:none;stroke:#000000;stroke-width:0.75;stroke-linecap:round;stroke-linejoin:round;stroke-miterlimit:10;stroke-opacity:1;stroke-dasharray:5.25, 3;stroke-dashoffset:0" /></g><path
       d="m 514.6,528.4 55.55,0 0,28.15 -55.55,0 0,-28.15 z"
       inkscape:connector-curvature="0"
       id="path56"
       style="fill:#ffffff;fill-opacity:1;fill-rule:evenodd;stroke:none" /><path
       d="m 514.6,528.4 55.55,0 0,28.15 -55.55,0 0,-28.15 z"
       inkscape:connector-curvature="0"
       id="path58"
       style="fill:none;stroke:#000000;stroke-width:0.75;stroke-linecap:round;stroke-linejoin:miter;stroke-miterlimit:10;stroke-opacity:1;stroke-dasharray:none" /><g
       id="g60"><g
         clip-path="url(#clipPath64)"
         id="g62"><g
           id="g68"><g
             clip-path="url(#clipPath72)"
             id="g70"><text
   transform="matrix(1,0,0,-1,522.55,541.51)"
   id="text76"><tspan
     x="0 3.336 10.668 13.332 15.96 19.296 26.028 30.024 33.360001"
     y="0"
     id="tspan78"
     style="font-size:12px;font-variant:normal;font-weight:normal;writing-mode:lr-tb;fill:#000000;fill-opacity:1;fill-rule:nonzero;stroke:none;font-family:Helvetica;-inkscape-font-specification:Helvetica">:Filter 1</tspan></text>

</g></g><g
           id="g80"><g
             clip-path="url(#clipPath84)"
             id="g82" /></g></g></g><path
       d="m 629,528.25 56.8,0 0,28.15 -56.8,0 0,-28.15 z"
       inkscape:connector-curvature="0"
       id="path88"
       style="fill:#ffffff;fill-opacity:1;fill-rule:evenodd;stroke:none" /><path
       d="m 629,528.25 56.8,0 0,28.15 -56.8,0 0,-28.15 z"
       inkscape:connector-curvature="0"
       id="path90"
       style="fill:none;stroke:#000000;stroke-width:0.75;stroke-linecap:round;stroke-linejoin:miter;stroke-miterlimit:10;stroke-opacity:1;stroke-dasharray:none" /><g
       id="g92"><g
         clip-path="url(#clipPath96)"
         id="g94"><g
           id="g100"><g
             clip-path="url(#clipPath104)"
             id="g102"><text
   transform="matrix(1,0,0,-1,637.51,541.27)"
   id="text108"><tspan
     x="0 3.336 10.668 13.332 15.96 19.296 26.028 30.024 33.360001"
     y="0"
     id="tspan110"
     style="font-size:12px;font-variant:normal;font-weight:normal;writing-mode:lr-tb;fill:#000000;fill-opacity:1;fill-rule:nonzero;stroke:none;font-family:Helvetica;-inkscape-font-specification:Helvetica">:Filter 2</tspan></text>

</g></g><g
           id="g112"><g
             clip-path="url(#clipPath116)"
             id="g114" /></g><g
           id="g120"><g
             clip-path="url(#clipPath124)"
             id="g122" /></g></g></g><g
       id="g128"><path
         d="M 657.6,528.15 658.4,330"
         inkscape:connector-curvature="0"
         id="path130"
         style="fill:none;stroke:#000000;stroke-width:0.75;stroke-linecap:round;stroke-linejoin:round;stroke-miterlimit:10;stroke-opacity:1;stroke-dasharray:5.25, 3;stroke-dashoffset:0" /></g><path
       d="m 688.45,528.2 51.4,0 0,28.35 -51.4,0 0,-28.35 z"
       inkscape:connector-curvature="0"
       id="path132"
       style="fill:#ffffff;fill-opacity:1;fill-rule:evenodd;stroke:none" /><path
       d="m 688.45,528.2 51.4,0 0,28.35 -51.4,0 0,-28.35 z"
       inkscape:connector-curvature="0"
       id="path134"
       style="fill:none;stroke:#000000;stroke-width:0.75;stroke-linecap:round;stroke-linejoin:miter;stroke-miterlimit:10;stroke-opacity:1;stroke-dasharray:none" /><g
       id="g136"><g
         clip-path="url(#clipPath140)"
         id="g138"><g
           id="g144"><g
             clip-path="url(#clipPath148)"
             id="g146"><text
   transform="matrix(1,0,0,-1,700.54,541.51)"
   id="text152"><tspan
     x="0 3.336 11.388 14.052 20.724001"
     y="0"
     id="tspan154"
     style="font-size:12px;font-variant:normal;font-weight:normal;writing-mode:lr-tb;fill:#000000;fill-opacity:1;fill-rule:nonzero;stroke:none;font-family:Helvetica;-inkscape-font-specification:Helvetica">:Pipe</tspan></text>

</g></g><g
           id="g156"><g
             clip-path="url(#clipPath160)"
             id="g158" /></g><g
           id="g164"><g
             clip-path="url(#clipPath168)"
             id="g166" /></g></g></g><path
       d="m 709.55,392.8 9,0 0,123.2 -9,0 0,-123.2 z"
       inkscape:connector-curvature="0"
       id="path172"
       style="fill:#ffffff;fill-opacity:1;fill-rule:evenodd;stroke:none" /><path
       d="m 709.55,392.8 9,0 0,123.2 -9,0 0,-123.2 z"
       inkscape:connector-curvature="0"
       id="path174"
       style="fill:none;stroke:#000000;stroke-width:0.75;stroke-linecap:round;stroke-linejoin:miter;stroke-miterlimit:10;stroke-opacity:1;stroke-dasharray:none" /><g
       id="g176"><path
         d="m 771,528.2 0.05,-199.35"
         inkscape:connector-curvature="0"
         id="path178"
         style="fill:none;stroke:#000000;stroke-width:0.75;stroke-linecap:round;stroke-linejoin:round;stroke-miterlimit:10;stroke-opacity:1;stroke-dasharray:5.25, 3;stroke-dashoffset:0" /></g><path
       d="m 765.75,348.35 9.45,0 0,173.25 -9.45,0 0,-173.25 z"
       inkscape:connector-curvature="0"
       id="path180"
       style="fill:#ffffff;fill-opacity:1;fill-rule:evenodd;stroke:none" /><path
       d="m 765.75,348.35 9.45,0 0,173.25 -9.45,0 0,-173.25 z"
       inkscape:connector-curvature="0"
       id="path182"
       style="fill:none;stroke:#000000;stroke-width:0.75;stroke-linecap:round;stroke-linejoin:miter;stroke-miterlimit:10;stroke-opacity:1;stroke-dasharray:none" /><path
       d="m 742.55,528.05 56.85,0 0,28.35 -56.85,0 0,-28.35 z"
       inkscape:connector-curvature="0"
       id="path184"
       style="fill:#ffffff;fill-opacity:1;fill-rule:evenodd;stroke:none" /><path
       d="m 742.55,528.05 56.85,0 0,28.35 -56.85,0 0,-28.35 z"
       inkscape:connector-curvature="0"
       id="path186"
       style="fill:none;stroke:#000000;stroke-width:0.75;stroke-linecap:round;stroke-linejoin:miter;stroke-miterlimit:10;stroke-opacity:1;stroke-dasharray:none" /><g
       id="g188"><g
         clip-path="url(#clipPath192)"
         id="g190"><g
           id="g196"><g
             clip-path="url(#clipPath200)"
             id="g198"><text
   transform="matrix(1,0,0,-1,751.06,541.27)"
   id="text204"><tspan
     x="0 3.336 10.668 13.332 15.96 19.296 26.028 30.024 33.360001"
     y="0"
     id="tspan206"
     style="font-size:12px;font-variant:normal;font-weight:normal;writing-mode:lr-tb;fill:#000000;fill-opacity:1;fill-rule:nonzero;stroke:none;font-family:Helvetica;-inkscape-font-specification:Helvetica">:Filter 3</tspan></text>

</g></g><g
           id="g208"><g
             clip-path="url(#clipPath212)"
             id="g210" /></g><g
           id="g216"><g
             clip-path="url(#clipPath220)"
             id="g218" /></g></g></g><path
       d="m 652.85,388.45 9.75,0 0,133.55 -9.75,0 0,-133.55 z"
       inkscape:connector-curvature="0"
       id="path224"
       style="fill:#ffffff;fill-opacity:1;fill-rule:evenodd;stroke:none" /><path
       d="m 652.85,388.45 9.75,0 0,133.55 -9.75,0 0,-133.55 z"
       inkscape:connector-curvature="0"
       id="path226"
       style="fill:none;stroke:#000000;stroke-width:0.75;stroke-linecap:round;stroke-linejoin:miter;stroke-miterlimit:10;stroke-opacity:1;stroke-dasharray:none" /><path
       d="m 855.5,528.4 53.5,0 0,28.15 -53.5,0 0,-28.15 z"
       inkscape:connector-curvature="0"
       id="path228"
       style="fill:#ffffff;fill-opacity:1;fill-rule:evenodd;stroke:none" /><path
       d="m 855.5,528.4 53.5,0 0,28.15 -53.5,0 0,-28.15 z"
       inkscape:connector-curvature="0"
       id="path230"
       style="fill:none;stroke:#000000;stroke-width:0.75;stroke-linecap:round;stroke-linejoin:miter;stroke-miterlimit:10;stroke-opacity:1;stroke-dasharray:none" /><g
       id="g232"><g
         clip-path="url(#clipPath236)"
         id="g234"><g
           id="g240"><g
             clip-path="url(#clipPath244)"
             id="g242"><text
   transform="matrix(1,0,0,-1,863.76,541.51)"
   id="text248"><tspan
     x="0 3.336 11.388 18.096001 24.804001 30.684"
     y="0"
     id="tspan250"
     style="font-size:12px;font-variant:normal;font-weight:normal;writing-mode:lr-tb;fill:#000000;fill-opacity:1;fill-rule:nonzero;stroke:none;font-family:Helvetica;-inkscape-font-specification:Helvetica">:Senke</tspan></text>

</g></g><g
           id="g252"><g
             clip-path="url(#clipPath256)"
             id="g254" /></g></g></g><g
       id="g260"><path
         d="M 881.75,528.3 881.8,328.5"
         inkscape:connector-curvature="0"
         id="path262"
         style="fill:none;stroke:#000000;stroke-width:0.75;stroke-linecap:round;stroke-linejoin:round;stroke-miterlimit:10;stroke-opacity:1;stroke-dasharray:5.25, 3;stroke-dashoffset:0" /></g><path
       d="m 775.2,361.35 93.3,0 c 0.28,0 0.5,-0.22 0.5,-0.5 0,-0.28 -0.22,-0.5 -0.5,-0.5 l -93.3,0 c -0.28,0 -0.5,0.22 -0.5,0.5 0,0.28 0.22,0.5 0.5,0.5 z m 92.3,4.5 10,-5 -10,-5 0,10 z"
       inkscape:connector-curvature="0"
       id="path264"
       style="fill:#000000;fill-opacity:1;fill-rule:nonzero;stroke:none" /><path
       d="m 441.1,503.6 98.9,0.05 c 0.28,0 0.5,-0.22 0.5,-0.5 0,-0.28 -0.22,-0.5 -0.5,-0.5 l -98.9,-0.05 c -0.28,0 -0.5,0.23 -0.5,0.5 0,0.28 0.22,0.5 0.5,0.5 z m 1,-5.5 -10,5 10,5 0,-10 z"
       inkscape:connector-curvature="0"
       id="path266"
       style="fill:#000000;fill-opacity:1;fill-rule:nonzero;stroke:none" /><path
       d="m 424.05,481.4 9,0 0,27 -9,0 0,-27 z"
       inkscape:connector-curvature="0"
       id="path268"
       style="fill:#ffffff;fill-opacity:1;fill-rule:evenodd;stroke:none" /><path
       d="m 424.05,481.4 9,0 0,27 -9,0 0,-27 z"
       inkscape:connector-curvature="0"
       id="path270"
       style="fill:none;stroke:#000000;stroke-width:0.75;stroke-linecap:round;stroke-linejoin:miter;stroke-miterlimit:10;stroke-opacity:1;stroke-dasharray:none" /><path
       d="m 432.25,487.55 7,0 c 0.28,0 0.5,-0.23 0.5,-0.5 0,-0.28 -0.22,-0.5 -0.5,-0.5 l -7,0 c -0.28,0 -0.5,0.22 -0.5,0.5 0,0.28 0.22,0.5 0.5,0.5 z m 11,-0.01 7,0 c 0.28,0 0.5,-0.22 0.5,-0.5 0,-0.27 -0.22,-0.5 -0.5,-0.5 l -7,0 c -0.28,0 -0.5,0.23 -0.5,0.51 0,0.27 0.22,0.49 0.5,0.49 z m 11,0 7,0 c 0.28,0 0.5,-0.23 0.5,-0.5 0,-0.28 -0.22,-0.5 -0.5,-0.5 l -7,0 c -0.28,0 -0.5,0.22 -0.5,0.5 0,0.28 0.22,0.5 0.5,0.5 z m 11,-0.01 7,0 c 0.28,0 0.5,-0.22 0.5,-0.5 0,-0.28 -0.22,-0.5 -0.5,-0.5 l -7,0 c -0.28,0 -0.5,0.23 -0.5,0.5 0,0.28 0.22,0.5 0.5,0.5 z m 11,0 7,0 c 0.28,0 0.5,-0.23 0.5,-0.5 0,-0.28 -0.22,-0.5 -0.5,-0.5 l -7,0 c -0.28,0 -0.5,0.22 -0.5,0.5 0,0.28 0.22,0.5 0.5,0.5 z m 11,-0.01 7,0 c 0.28,0 0.5,-0.22 0.5,-0.5 0,-0.28 -0.22,-0.5 -0.5,-0.5 l -7,0 c -0.28,0 -0.5,0.23 -0.5,0.5 0,0.28 0.22,0.5 0.5,0.5 z m 11,0 7,0 c 0.28,0 0.5,-0.23 0.5,-0.5 0,-0.28 -0.22,-0.5 -0.5,-0.5 l -7,0 c -0.28,0 -0.5,0.22 -0.5,0.5 0,0.28 0.22,0.5 0.5,0.5 z m 11,-0.01 7,0 c 0.28,0 0.5,-0.22 0.5,-0.5 0,-0.28 -0.22,-0.5 -0.5,-0.5 l -7,0 c -0.28,0 -0.5,0.23 -0.5,0.5 0,0.28 0.22,0.5 0.5,0.5 z m 11,0 7,-0.01 c 0.28,0 0.5,-0.22 0.5,-0.5 0,-0.27 -0.22,-0.5 -0.5,-0.5 l -7,0.01 c -0.28,0 -0.5,0.22 -0.5,0.5 0,0.27 0.22,0.5 0.5,0.5 z m 11,-0.01 3.6,0 c 0.28,0 0.5,-0.22 0.5,-0.5 0,-0.28 -0.22,-0.5 -0.5,-0.5 l -3.6,0 c -0.28,0 -0.5,0.23 -0.5,0.5 0,0.28 0.22,0.5 0.5,0.5 z m -5.15,4.94 9.78,-5.44 -9.79,-5.43 c -0.24,-0.14 -0.55,-0.05 -0.68,0.19 -0.13,0.24 -0.05,0.55 0.19,0.68 l 9.01,5 0,-0.88 -9,5.01 c -0.24,0.13 -0.33,0.44 -0.19,0.68 0.13,0.24 0.43,0.33 0.68,0.19 z"
       inkscape:connector-curvature="0"
       id="path272"
       style="fill:#000000;fill-opacity:1;fill-rule:nonzero;stroke:none" /><path
       d="m 662.25,402 41.55,-0.04 c 0.28,0 0.5,-0.23 0.5,-0.51 0,-0.27 -0.22,-0.49 -0.5,-0.49 L 662.25,401 c -0.28,0 -0.5,0.22 -0.5,0.5 0,0.28 0.22,0.5 0.5,0.5 z m 40.55,2.46 6,-3.01 -6,-2.99 0,6 z"
       inkscape:connector-curvature="0"
       id="path274"
       style="fill:#000000;fill-opacity:1;fill-rule:nonzero;stroke:none" /><path
       d="m 542.8,477 4.25,0 0,9.05 -4.25,0 0,-9.05 z"
       inkscape:connector-curvature="0"
       id="path276"
       style="fill:#ffffff;fill-opacity:1;fill-rule:evenodd;stroke:none" /><path
       d="m 542.8,477 4.25,0 0,9.05 -4.25,0 0,-9.05 z"
       inkscape:connector-curvature="0"
       id="path278"
       style="fill:none;stroke:#000000;stroke-width:0.75;stroke-linecap:round;stroke-linejoin:miter;stroke-miterlimit:10;stroke-opacity:1;stroke-dasharray:none" /><path
       d="m 542.8,450 4.25,0 0,9.05 -4.25,0 0,-9.05 z"
       inkscape:connector-curvature="0"
       id="path280"
       style="fill:#ffffff;fill-opacity:1;fill-rule:evenodd;stroke:none" /><path
       d="m 542.8,450 4.25,0 0,9.05 -4.25,0 0,-9.05 z"
       inkscape:connector-curvature="0"
       id="path282"
       style="fill:none;stroke:#000000;stroke-width:0.75;stroke-linecap:round;stroke-linejoin:miter;stroke-miterlimit:10;stroke-opacity:1;stroke-dasharray:none" /><path
       d="m 537.05,441 10.1,0 0,72 -10.1,0 0,-72 z"
       inkscape:connector-curvature="0"
       id="path284"
       style="fill:#ffffff;fill-opacity:1;fill-rule:evenodd;stroke:none" /><path
       d="m 537.05,441 10.1,0 0,72 -10.1,0 0,-72 z"
       inkscape:connector-curvature="0"
       id="path286"
       style="fill:none;stroke:#000000;stroke-width:0.75;stroke-linecap:round;stroke-linejoin:miter;stroke-miterlimit:10;stroke-opacity:1;stroke-dasharray:none" /><path
       d="m 547.45,447.95 7,0 c 0.28,0 0.5,-0.23 0.5,-0.5 0,-0.28 -0.22,-0.5 -0.5,-0.5 l -7,0 c -0.28,0 -0.5,0.22 -0.5,0.5 0,0.28 0.22,0.5 0.5,0.5 z m 11,-0.01 7,0 c 0.28,0 0.5,-0.22 0.5,-0.5 0,-0.27 -0.22,-0.5 -0.5,-0.5 l -7,0 c -0.28,0.01 -0.5,0.23 -0.5,0.51 0,0.27 0.22,0.5 0.5,0.49 z m 11,0 7,0 c 0.28,0 0.5,-0.23 0.5,-0.5 0,-0.28 -0.22,-0.5 -0.5,-0.5 l -7,0 c -0.28,0 -0.5,0.22 -0.5,0.5 0,0.28 0.22,0.5 0.5,0.5 z m 11,-0.01 7,0 c 0.28,0 0.5,-0.22 0.5,-0.5 0,-0.28 -0.22,-0.5 -0.5,-0.5 l -7,0 c -0.28,0 -0.5,0.23 -0.5,0.5 0,0.28 0.22,0.5 0.5,0.5 z m 11,0 7,0 c 0.28,0 0.5,-0.23 0.5,-0.5 0,-0.28 -0.22,-0.5 -0.5,-0.5 l -7,0 c -0.28,0 -0.5,0.22 -0.5,0.5 0,0.28 0.22,0.5 0.5,0.5 z m 11,-0.01 7,0 c 0.28,0 0.5,-0.22 0.5,-0.5 0,-0.28 -0.22,-0.5 -0.5,-0.5 l -7,0 c -0.28,0 -0.5,0.23 -0.5,0.5 0,0.28 0.22,0.5 0.5,0.5 z m 11,0 7,0 c 0.28,0 0.5,-0.23 0.5,-0.5 0,-0.28 -0.22,-0.5 -0.5,-0.5 l -7,0 c -0.28,0 -0.5,0.22 -0.5,0.5 0,0.28 0.22,0.5 0.5,0.5 z m 11,-0.01 7,0 c 0.28,0 0.5,-0.22 0.5,-0.5 0,-0.28 -0.22,-0.5 -0.5,-0.5 l -7,0 c -0.28,0 -0.5,0.23 -0.5,0.5 0,0.28 0.22,0.5 0.5,0.5 z m 11,0 7,0 c 0.28,-0.01 0.5,-0.23 0.5,-0.51 0,-0.27 -0.22,-0.5 -0.5,-0.49 l -7,0 c -0.28,0 -0.5,0.22 -0.5,0.5 0,0.27 0.22,0.5 0.5,0.5 z m 11,-0.01 4,0 c 0.28,0 0.5,-0.22 0.5,-0.5 0,-0.28 -0.22,-0.5 -0.5,-0.5 l -4,0 c -0.28,0 -0.5,0.23 -0.5,0.5 0,0.28 0.22,0.5 0.5,0.5 z m -4.75,4.94 9.78,-5.44 -9.79,-5.43 c -0.24,-0.14 -0.55,-0.05 -0.68,0.19 -0.13,0.24 -0.05,0.55 0.19,0.68 l 9.01,5 0,-0.88 -9,5.01 c -0.24,0.13 -0.33,0.44 -0.19,0.68 0.13,0.24 0.43,0.33 0.68,0.19 z"
       inkscape:connector-curvature="0"
       id="path288"
       style="fill:#000000;fill-opacity:1;fill-rule:nonzero;stroke:none" /><path
       d="m 542.8,468.05 9,0 0,9 -9,0 0,-9 z"
       inkscape:connector-curvature="0"
       id="path290"
       style="fill:#ffffff;fill-opacity:1;fill-rule:evenodd;stroke:none" /><path
       d="m 542.8,468.05 9,0 0,9 -9,0 0,-9 z"
       inkscape:connector-curvature="0"
       id="path292"
       style="fill:none;stroke:#000000;stroke-width:0.75;stroke-linecap:round;stroke-linejoin:miter;stroke-miterlimit:10;stroke-opacity:1;stroke-dasharray:none" /><path
       d="m 546.95,482.05 22.7,0 c 0.28,0 0.5,-0.22 0.5,-0.5 l 0,-9 c 0,-0.28 -0.22,-0.5 -0.5,-0.5 l -9,0 c -0.28,0 -0.5,0.22 -0.5,0.5 0,0.28 0.22,0.5 0.5,0.5 l 9,0 -0.5,-0.5 0,9 0.5,-0.5 -22.7,0 c -0.28,0 -0.5,0.22 -0.5,0.5 0,0.28 0.22,0.5 0.5,0.5 z m 14.7,-14.5 -10,5 10,5 0,-10 z"
       inkscape:connector-curvature="0"
       id="path294"
       style="fill:#000000;fill-opacity:1;fill-rule:nonzero;stroke:none" /><path
       d="m 542.8,459.05 9,0 0,9 -9,0 0,-9 z"
       inkscape:connector-curvature="0"
       id="path296"
       style="fill:#ffffff;fill-opacity:1;fill-rule:evenodd;stroke:none" /><path
       d="m 542.8,459.05 9,0 0,9 -9,0 0,-9 z"
       inkscape:connector-curvature="0"
       id="path298"
       style="fill:none;stroke:#000000;stroke-width:0.75;stroke-linecap:round;stroke-linejoin:miter;stroke-miterlimit:10;stroke-opacity:1;stroke-dasharray:none" /><path
       d="m 542.8,459.05 9,0 0,18 -9,0 0,-18 z"
       inkscape:connector-curvature="0"
       id="path300"
       style="fill:#ffffff;fill-opacity:1;fill-rule:evenodd;stroke:none" /><path
       d="m 542.8,459.05 9,0 0,18 -9,0 0,-18 z"
       inkscape:connector-curvature="0"
       id="path302"
       style="fill:none;stroke:#000000;stroke-width:0.75;stroke-linecap:round;stroke-linejoin:miter;stroke-miterlimit:10;stroke-opacity:1;stroke-dasharray:none" /><g
       id="g304"><g
         clip-path="url(#clipPath308)"
         id="g306"><g
           id="g312"><g
             clip-path="url(#clipPath316)"
             id="g314"><text
   transform="matrix(1,0,0,-1,668.62,391.49)"
   id="text320"><tspan
     x="0 7.0815601 10.42812 12.699 15.46788 21.00564 24.322321"
     y="0"
     id="tspan322"
     style="font-size:9.96000004px;font-variant:normal;font-weight:normal;writing-mode:lr-tb;fill:#000000;fill-opacity:1;fill-rule:nonzero;stroke:none;font-family:Helvetica;-inkscape-font-specification:Helvetica">write()</tspan></text>

</g></g><g
           id="g324"><g
             clip-path="url(#clipPath328)"
             id="g326" /></g></g></g><g
       id="g332"><g
         clip-path="url(#clipPath336)"
         id="g334"><g
           id="g340"><g
             clip-path="url(#clipPath344)"
             id="g342"><text
   transform="matrix(1,0,0,-1,564.31,464.71)"
   id="text348"><tspan
     x="0"
     y="0"
     id="tspan350"
     style="font-size:8.03999996px;font-variant:normal;font-weight:normal;writing-mode:lr-tb;fill:#000000;fill-opacity:1;fill-rule:nonzero;stroke:none;font-family:Helvetica;-inkscape-font-specification:Helvetica">f</tspan></text>

</g></g><g
           id="g352"><g
             clip-path="url(#clipPath356)"
             id="g354"><text
   transform="matrix(1,0,0,-1,566.59,464.71)"
   id="text360"><tspan
     x="0"
     y="0"
     id="tspan362"
     style="font-size:8.03999996px;font-variant:normal;font-weight:normal;writing-mode:lr-tb;fill:#000000;fill-opacity:1;fill-rule:nonzero;stroke:none;font-family:Helvetica;-inkscape-font-specification:Helvetica">1</tspan></text>

</g></g><g
           id="g364"><g
             clip-path="url(#clipPath368)"
             id="g366"><text
   transform="matrix(1,0,0,-1,571.03,464.71)"
   id="text372"><tspan
     x="0 2.6400199"
     y="0"
     id="tspan374"
     style="font-size:8.03999996px;font-variant:normal;font-weight:normal;writing-mode:lr-tb;fill:#000000;fill-opacity:1;fill-rule:nonzero;stroke:none;font-family:Helvetica;-inkscape-font-specification:Helvetica">()</tspan></text>

</g></g><g
           id="g376"><g
             clip-path="url(#clipPath380)"
             id="g378" /></g></g></g><path
       d="m 556.15,510.58 96.45,-0.23 c 0.28,0 0.5,-0.22 0.5,-0.5 0,-0.28 -0.23,-0.5 -0.5,-0.5 l -96.45,0.23 c -0.28,0 -0.5,0.22 -0.5,0.5 0,0.28 0.22,0.5 0.5,0.5 z m 0.99,-5.5 -9.99,5.02 10.01,4.98 -0.02,-10 z"
       inkscape:connector-curvature="0"
       id="path384"
       style="fill:#000000;fill-opacity:1;fill-rule:nonzero;stroke:none" /><g
       id="g386"><g
         clip-path="url(#clipPath390)"
         id="g388"><g
           id="g394"><g
             clip-path="url(#clipPath398)"
             id="g396"><text
   transform="matrix(1,0,0,-1,595.75,500.11)"
   id="text402"><tspan
     x="0 3.34656 8.8843203 14.38224 19.92 23.236679"
     y="0"
     id="tspan404"
     style="font-size:9.96000004px;font-variant:normal;font-weight:normal;writing-mode:lr-tb;fill:#000000;fill-opacity:1;fill-rule:nonzero;stroke:none;font-family:Helvetica;-inkscape-font-specification:Helvetica">read()</tspan></text>

</g></g><g
           id="g406"><g
             clip-path="url(#clipPath410)"
             id="g408" /></g></g></g><path
       d="m 727.8,511.65 37.95,0 c 0.28,0 0.5,-0.22 0.5,-0.5 0,-0.28 -0.22,-0.5 -0.5,-0.5 l -37.95,0 c -0.28,0 -0.5,0.22 -0.5,0.5 0,0.28 0.22,0.5 0.5,0.5 z m 1,-5.5 -10,5 10,5 0,-10 z"
       inkscape:connector-curvature="0"
       id="path414"
       style="fill:#000000;fill-opacity:1;fill-rule:nonzero;stroke:none" /><g
       id="g416"><g
         clip-path="url(#clipPath420)"
         id="g418"><g
           id="g424"><g
             clip-path="url(#clipPath428)"
             id="g426"><text
   transform="matrix(1,0,0,-1,732.22,500.23)"
   id="text432"><tspan
     x="0 3.34656 8.8843203 14.38224 19.92 23.236679"
     y="0"
     id="tspan434"
     style="font-size:9.96000004px;font-variant:normal;font-weight:normal;writing-mode:lr-tb;fill:#000000;fill-opacity:1;fill-rule:nonzero;stroke:none;font-family:Helvetica;-inkscape-font-specification:Helvetica">read()</tspan></text>

</g></g><g
           id="g436"><g
             clip-path="url(#clipPath440)"
             id="g438" /></g></g></g><path
       d="m 770.95,362.4 4.25,0 0,32.35 -4.25,0 0,-32.35 z"
       inkscape:connector-curvature="0"
       id="path444"
       style="fill:#ffffff;fill-opacity:1;fill-rule:evenodd;stroke:none" /><path
       d="m 770.95,362.4 4.25,0 0,32.35 -4.25,0 0,-32.35 z"
       inkscape:connector-curvature="0"
       id="path446"
       style="fill:none;stroke:#000000;stroke-width:0.75;stroke-linecap:round;stroke-linejoin:miter;stroke-miterlimit:10;stroke-opacity:1;stroke-dasharray:none" /><g
       id="g448"><g
         clip-path="url(#clipPath452)"
         id="g450"><g
           id="g456"><g
             clip-path="url(#clipPath460)"
             id="g458"><text
   transform="matrix(1,0,0,-1,791.38,378.17)"
   id="text464"><tspan
     x="0 2.2753201 6.7133999 9.3505201"
     y="0"
     id="tspan466"
     style="font-size:8.03999996px;font-variant:normal;font-weight:normal;writing-mode:lr-tb;fill:#000000;fill-opacity:1;fill-rule:nonzero;stroke:none;font-family:Helvetica;-inkscape-font-specification:Helvetica">f3()</tspan></text>

</g></g><g
           id="g468"><g
             clip-path="url(#clipPath472)"
             id="g470" /></g></g></g><path
       d="m 773.5,395.25 22.95,0 c 0.28,0 0.5,-0.22 0.5,-0.5 l 0,-9 c 0,-0.28 -0.22,-0.5 -0.5,-0.5 l -9,0 c -0.28,0 -0.5,0.22 -0.5,0.5 0,0.28 0.22,0.5 0.5,0.5 l 9,0 -0.5,-0.5 0,9 0.5,-0.5 -22.95,0 c -0.28,0 -0.5,0.22 -0.5,0.5 0,0.28 0.22,0.5 0.5,0.5 z m 14.95,-14.5 -10,5 10,5 0,-10 z"
       inkscape:connector-curvature="0"
       id="path476"
       style="fill:#000000;fill-opacity:1;fill-rule:nonzero;stroke:none" /><path
       d="m 770.95,370.35 9,0 0,18 -9,0 0,-18 z"
       inkscape:connector-curvature="0"
       id="path478"
       style="fill:#ffffff;fill-opacity:1;fill-rule:evenodd;stroke:none" /><path
       d="m 770.95,370.35 9,0 0,18 -9,0 0,-18 z"
       inkscape:connector-curvature="0"
       id="path480"
       style="fill:none;stroke:#000000;stroke-width:0.75;stroke-linecap:round;stroke-linejoin:miter;stroke-miterlimit:10;stroke-opacity:1;stroke-dasharray:none" /><path
       d="m 658.4,403.35 4.25,0 0,32.75 -4.25,0 0,-32.75 z"
       inkscape:connector-curvature="0"
       id="path482"
       style="fill:#ffffff;fill-opacity:1;fill-rule:evenodd;stroke:none" /><path
       d="m 658.4,403.35 4.25,0 0,32.75 -4.25,0 0,-32.75 z"
       inkscape:connector-curvature="0"
       id="path484"
       style="fill:none;stroke:#000000;stroke-width:0.75;stroke-linecap:round;stroke-linejoin:miter;stroke-miterlimit:10;stroke-opacity:1;stroke-dasharray:none" /><path
       d="m 661.7,436.6 22.7,0 c 0.28,0 0.5,-0.22 0.5,-0.5 l 0,-9 c 0,-0.28 -0.22,-0.5 -0.5,-0.5 l -9,0 c -0.28,0 -0.5,0.22 -0.5,0.5 0,0.28 0.22,0.5 0.5,0.5 l 9,0 -0.5,-0.5 0,9 0.5,-0.5 -22.7,0 c -0.28,0 -0.5,0.22 -0.5,0.5 0,0.28 0.22,0.5 0.5,0.5 z m 14.7,-14.5 -10,5 10,5 0,-10 z"
       inkscape:connector-curvature="0"
       id="path486"
       style="fill:#000000;fill-opacity:1;fill-rule:nonzero;stroke:none" /><g
       id="g488"><g
         clip-path="url(#clipPath492)"
         id="g490"><g
           id="g496"><g
             clip-path="url(#clipPath500)"
             id="g498"><text
   transform="matrix(1,0,0,-1,679.18,419.69)"
   id="text504"><tspan
     x="0 2.2753201 6.7133999 9.3505201"
     y="0"
     id="tspan506"
     style="font-size:8.03999996px;font-variant:normal;font-weight:normal;writing-mode:lr-tb;fill:#000000;fill-opacity:1;fill-rule:nonzero;stroke:none;font-family:Helvetica;-inkscape-font-specification:Helvetica">f2()</tspan></text>

</g></g><g
           id="g508"><g
             clip-path="url(#clipPath512)"
             id="g510" /></g></g></g><path
       d="m 658.4,410.4 9,0 0,19.15 -9,0 0,-19.15 z"
       inkscape:connector-curvature="0"
       id="path516"
       style="fill:#ffffff;fill-opacity:1;fill-rule:evenodd;stroke:none" /><path
       d="m 658.4,410.4 9,0 0,19.15 -9,0 0,-19.15 z"
       inkscape:connector-curvature="0"
       id="path518"
       style="fill:none;stroke:#000000;stroke-width:0.75;stroke-linecap:round;stroke-linejoin:miter;stroke-miterlimit:10;stroke-opacity:1;stroke-dasharray:none" /><path
       d="m 718.55,399.7 7,-0.01 c 0.28,0 0.5,-0.22 0.5,-0.5 0,-0.27 -0.22,-0.5 -0.5,-0.5 l -7,0.01 c -0.28,0 -0.5,0.22 -0.5,0.5 0,0.28 0.22,0.5 0.5,0.5 z m 11,-0.01 7,-0.01 c 0.28,0 0.5,-0.22 0.5,-0.5 0,-0.28 -0.22,-0.5 -0.5,-0.5 l -7,0.01 c -0.28,0 -0.5,0.22 -0.5,0.5 0,0.28 0.22,0.5 0.5,0.5 z m 11,-0.01 7,-0.01 c 0.28,0 0.5,-0.22 0.5,-0.5 0,-0.28 -0.22,-0.5 -0.5,-0.5 l -7,0.01 c -0.28,0 -0.5,0.22 -0.5,0.5 0,0.27 0.22,0.5 0.5,0.5 z m 11,-0.01 7,-0.01 c 0.28,0 0.5,-0.23 0.5,-0.5 0,-0.28 -0.22,-0.5 -0.5,-0.5 l -7,0.01 c -0.28,0 -0.5,0.22 -0.5,0.5 0,0.27 0.22,0.5 0.5,0.5 z m 11,-0.02 1.2,0 c 0.28,0 0.5,-0.22 0.5,-0.5 0,-0.27 -0.22,-0.5 -0.5,-0.5 l -1.2,0 c -0.28,0 -0.5,0.23 -0.5,0.5 0,0.28 0.22,0.5 0.5,0.5 z m -7.55,4.95 9.78,-5.45 -9.79,-5.43 c -0.24,-0.13 -0.55,-0.04 -0.68,0.2 -0.14,0.24 -0.05,0.55 0.19,0.68 l 9.01,4.99 0,-0.87 -9,5.01 c -0.24,0.13 -0.33,0.43 -0.19,0.68 0.13,0.24 0.44,0.32 0.68,0.19 z"
       inkscape:connector-curvature="0"
       id="path520"
       style="fill:#000000;fill-opacity:1;fill-rule:nonzero;stroke:none" /><g
       id="g522"><g
         clip-path="url(#clipPath526)"
         id="g524"><g
           id="g530"><g
             clip-path="url(#clipPath534)"
             id="g532"><text
   transform="matrix(1,0,0,-1,477.19,491.95)"
   id="text538"><tspan
     x="0 3.34656 8.8843203 14.38224 19.92 23.236679"
     y="0"
     id="tspan540"
     style="font-size:9.96000004px;font-variant:normal;font-weight:normal;writing-mode:lr-tb;fill:#000000;fill-opacity:1;fill-rule:nonzero;stroke:none;font-family:Helvetica;-inkscape-font-specification:Helvetica">read()</tspan></text>

</g></g><g
           id="g542"><g
             clip-path="url(#clipPath546)"
             id="g544" /></g></g></g><g
       id="g550"><g
         clip-path="url(#clipPath554)"
         id="g552"><g
           id="g558"><g
             clip-path="url(#clipPath562)"
             id="g560"><text
   transform="matrix(1,0,0,-1,790.3,351.53)"
   id="text566"><tspan
     x="0 7.0815601 10.42812 12.699 15.46788 21.00564 24.322321"
     y="0"
     id="tspan568"
     style="font-size:9.96000004px;font-variant:normal;font-weight:normal;writing-mode:lr-tb;fill:#000000;fill-opacity:1;fill-rule:nonzero;stroke:none;font-family:Helvetica;-inkscape-font-specification:Helvetica">write()</tspan></text>

</g></g><g
           id="g570"><g
             clip-path="url(#clipPath574)"
             id="g572" /></g></g></g><path
       d="m 877.2,338.9 9,0 0,25.3 -9,0 0,-25.3 z"
       inkscape:connector-curvature="0"
       id="path578"
       style="fill:#ffffff;fill-opacity:1;fill-rule:evenodd;stroke:none" /><path
       d="m 877.2,338.9 9,0 0,25.3 -9,0 0,-25.3 z"
       inkscape:connector-curvature="0"
       id="path580"
       style="fill:none;stroke:#000000;stroke-width:0.75;stroke-linecap:round;stroke-linejoin:miter;stroke-miterlimit:10;stroke-opacity:1;stroke-dasharray:none" /><path
       d="m 632.6,528.25 0,28.15"
       inkscape:connector-curvature="0"
       id="path582"
       style="fill:none;stroke:#000000;stroke-width:0.75;stroke-linecap:round;stroke-linejoin:round;stroke-miterlimit:10;stroke-opacity:1;stroke-dasharray:none" /><path
       d="m 682.15,528.6 0,27.95"
       inkscape:connector-curvature="0"
       id="path584"
       style="fill:none;stroke:#000000;stroke-width:0.75;stroke-linecap:round;stroke-linejoin:round;stroke-miterlimit:10;stroke-opacity:1;stroke-dasharray:none" /><path
       d="m 746.05,528.05 0,28.15"
       inkscape:connector-curvature="0"
       id="path586"
       style="fill:none;stroke:#000000;stroke-width:0.75;stroke-linecap:round;stroke-linejoin:round;stroke-miterlimit:10;stroke-opacity:1;stroke-dasharray:none" /><path
       d="m 795.9,528.2 0,28.15"
       inkscape:connector-curvature="0"
       id="path588"
       style="fill:none;stroke:#000000;stroke-width:0.75;stroke-linecap:round;stroke-linejoin:round;stroke-miterlimit:10;stroke-opacity:1;stroke-dasharray:none" /></g></svg>