<?xml version="1.0" encoding="UTF-8" standalone="no"?>
<!-- Created with Inkscape (http://www.inkscape.org/) -->

<svg
   xmlns:dc="http://purl.org/dc/elements/1.1/"
   xmlns:cc="http://creativecommons.org/ns#"
   xmlns:rdf="http://www.w3.org/1999/02/22-rdf-syntax-ns#"
   xmlns:svg="http://www.w3.org/2000/svg"
   xmlns="http://www.w3.org/2000/svg"
   xmlns:sodipodi="http://sodipodi.sourceforge.net/DTD/sodipodi-0.dtd"
   xmlns:inkscape="http://www.inkscape.org/namespaces/inkscape"
   version="1.1"
   width="423.15237"
   height="82.423126"
   id="svg2"
   xml:space="preserve"
   inkscape:version="0.48.4 r9939"
   sodipodi:docname="Kapitelbild.svg"><sodipodi:namedview
     pagecolor="#ffffff"
     bordercolor="#666666"
     borderopacity="1"
     objecttolerance="10"
     gridtolerance="10"
     guidetolerance="10"
     inkscape:pageopacity="0"
     inkscape:pageshadow="2"
     inkscape:window-width="640"
     inkscape:window-height="480"
     id="namedview118"
     showgrid="false"
     inkscape:zoom="0.18730159"
     inkscape:cx="149.48072"
     inkscape:cy="35.529723"
     inkscape:window-x="0"
     inkscape:window-y="0"
     inkscape:window-maximized="0"
     inkscape:current-layer="svg2" /><metadata
     id="metadata8"><rdf:RDF><cc:Work
         rdf:about=""><dc:format>image/svg+xml</dc:format><dc:type
           rdf:resource="http://purl.org/dc/dcmitype/StillImage" /></cc:Work></rdf:RDF></metadata><defs
     id="defs6"><clipPath
       id="clipPath18"><path
         d="m 0,0 319.31,0 0,73.95 L 0,73.95 0,0 z"
         inkscape:connector-curvature="0"
         id="path20" /></clipPath><clipPath
       id="clipPath28"><path
         d="m 73.096,35.634 67.31,0 0,15.429 -67.31,0 0,-15.429 z"
         inkscape:connector-curvature="0"
         id="path30" /></clipPath><clipPath
       id="clipPath36"><path
         d="m 73.096,35.634 67.188,0 0,15.429 -67.188,0 0,-15.429 z"
         inkscape:connector-curvature="0"
         id="path38" /></clipPath><clipPath
       id="clipPath48"><path
         d="m 73.096,35.634 67.188,0 0,15.429 -67.188,0 0,-15.429 z"
         inkscape:connector-curvature="0"
         id="path50" /></clipPath><clipPath
       id="clipPath58"><path
         d="m 157.89,37.706 27.735,0 0,9.4326 -27.735,0 0,-9.4326 z"
         inkscape:connector-curvature="0"
         id="path60" /></clipPath><clipPath
       id="clipPath66"><path
         d="m 157.89,37.706 27.613,0 0,9.4326 -27.613,0 0,-9.4326 z"
         inkscape:connector-curvature="0"
         id="path68" /></clipPath><clipPath
       id="clipPath78"><path
         d="m 157.89,37.706 27.613,0 0,9.4326 -27.613,0 0,-9.4326 z"
         inkscape:connector-curvature="0"
         id="path80" /></clipPath><clipPath
       id="clipPath86"><path
         d="m 142.34,3.5586 55.713,0 0,11.748 -55.713,0 0,-11.748 z"
         inkscape:connector-curvature="0"
         id="path88" /></clipPath><clipPath
       id="clipPath94"><path
         d="m 142.34,3.5586 55.591,0 0,11.748 -55.591,0 0,-11.748 z"
         inkscape:connector-curvature="0"
         id="path96" /></clipPath><clipPath
       id="clipPath106"><path
         d="m 142.34,3.5586 55.591,0 0,11.748 -55.591,0 0,-11.748 z"
         inkscape:connector-curvature="0"
         id="path108" /></clipPath><clipPath
       id="clipPath114"><path
         d="m 154.64,58.765 32.691,0 0,11.748 -32.691,0 0,-11.748 z"
         inkscape:connector-curvature="0"
         id="path116" /></clipPath><clipPath
       id="clipPath122"><path
         d="m 154.64,58.765 32.569,0 0,11.748 -32.569,0 0,-11.748 z"
         inkscape:connector-curvature="0"
         id="path124" /></clipPath><clipPath
       id="clipPath134"><path
         d="m 154.64,58.765 32.569,0 0,11.748 -32.569,0 0,-11.748 z"
         inkscape:connector-curvature="0"
         id="path136" /></clipPath><clipPath
       id="clipPath142"><path
         d="m 279.84,58.765 32.691,0 0,11.748 -32.691,0 0,-11.748 z"
         inkscape:connector-curvature="0"
         id="path144" /></clipPath><clipPath
       id="clipPath150"><path
         d="m 279.84,58.765 32.569,0 0,11.748 -32.569,0 0,-11.748 z"
         inkscape:connector-curvature="0"
         id="path152" /></clipPath><clipPath
       id="clipPath162"><path
         d="m 279.84,58.765 32.569,0 0,11.748 -32.569,0 0,-11.748 z"
         inkscape:connector-curvature="0"
         id="path164" /></clipPath><clipPath
       id="clipPath176"><path
         d="m 203.83,35.634 67.31,0 0,15.429 -67.31,0 0,-15.429 z"
         inkscape:connector-curvature="0"
         id="path178" /></clipPath><clipPath
       id="clipPath184"><path
         d="m 203.83,35.634 67.188,0 0,15.429 -67.188,0 0,-15.429 z"
         inkscape:connector-curvature="0"
         id="path186" /></clipPath><clipPath
       id="clipPath196"><path
         d="m 203.83,35.634 67.188,0 0,15.429 -67.188,0 0,-15.429 z"
         inkscape:connector-curvature="0"
         id="path198" /></clipPath><clipPath
       id="clipPath212"><path
         d="m 27.735,37.341 27.759,0 0,9.3108 -27.759,0 0,-9.3108 z"
         inkscape:connector-curvature="0"
         id="path214" /></clipPath><clipPath
       id="clipPath220"><path
         d="m 27.735,37.341 27.637,0 0,9.3108 -27.637,0 0,-9.3108 z"
         inkscape:connector-curvature="0"
         id="path222" /></clipPath><clipPath
       id="clipPath232"><path
         d="m 27.735,37.341 27.637,0 0,9.3108 -27.637,0 0,-9.3108 z"
         inkscape:connector-curvature="0"
         id="path234" /></clipPath></defs><g
     transform="matrix(1.25,0,0,-1.25,-480.89428,676.89341)"
     id="g10"><g
       transform="matrix(4.8847,0,0,1.0812,382.86,469.39)"
       id="g12"><g
         transform="scale(0.22548,0.97363)"
         id="g14"><g
           clip-path="url(#clipPath18)"
           id="g16"><path
             d="m 65.503,32.441 81.519,0 0,22.765 -81.519,0 0,-22.765 z"
             inkscape:connector-curvature="0"
             id="path22"
             style="fill:#ffffff;fill-opacity:1;fill-rule:evenodd;stroke:#000000;stroke-width:0.73242998;stroke-linecap:butt;stroke-linejoin:round;stroke-miterlimit:10;stroke-opacity:1;stroke-dasharray:none" /><g
             id="g24"><g
               clip-path="url(#clipPath28)"
               id="g26"><g
                 id="g32"><g
                   clip-path="url(#clipPath36)"
                   id="g34"><text
   transform="matrix(1,0,0,-1,93.238,39.802)"
   id="text40"><tspan
     x="0 7.3536 10.013152 12.672704 16.043104 22.808416"
     y="0"
     id="tspan42"
     style="font-size:12.25599957px;font-variant:normal;font-weight:normal;writing-mode:lr-tb;fill:#000000;fill-opacity:1;fill-rule:nonzero;stroke:none;font-family:Helvetica;-inkscape-font-specification:Helvetica">Filter</tspan></text>

</g></g><g
                 id="g44"><g
                   clip-path="url(#clipPath48)"
                   id="g46" /></g></g></g><path
             d="m 150.29,34.538 42.09,0 0,16.647 -42.09,0 0,-16.647 z"
             inkscape:connector-curvature="0"
             id="path52"
             style="fill:#ffffff;fill-opacity:1;fill-rule:evenodd;stroke:#7f7f7f;stroke-width:0.73242998;stroke-linecap:butt;stroke-linejoin:round;stroke-miterlimit:10;stroke-opacity:1;stroke-dasharray:none" /><g
             id="g54"><g
               clip-path="url(#clipPath58)"
               id="g56"><g
                 id="g62"><g
                   clip-path="url(#clipPath66)"
                   id="g64"><text
   transform="matrix(1,0,0,-1,163.67,39.656)"
   id="text70"><tspan
     x="0 5.4219885 7.2485156 11.699647"
     y="0"
     id="tspan72"
     style="font-size:8.2276001px;font-variant:normal;font-weight:normal;writing-mode:lr-tb;fill:#000000;fill-opacity:1;fill-rule:nonzero;stroke:none;font-family:Helvetica;-inkscape-font-specification:Helvetica">Pipe</tspan></text>

</g></g><g
                 id="g74"><g
                   clip-path="url(#clipPath78)"
                   id="g76" /></g></g></g><g
             id="g82"><g
               clip-path="url(#clipPath86)"
               id="g84"><g
                 id="g90"><g
                   clip-path="url(#clipPath94)"
                   id="g92"><text
   transform="matrix(1,0,0,-1,144.14,5.9959)"
   id="text98"><tspan
     x="0 7.2285099 12.766974 15.546387 21.08485 26.623316 31.713816 34.483047 37.873322 43.391422"
     y="0"
     id="tspan100"
     style="font-size:10.18099976px;font-variant:normal;font-weight:normal;writing-mode:lr-tb;fill:#000000;fill-opacity:1;fill-rule:nonzero;stroke:none;font-family:Helvetica;-inkscape-font-specification:Helvetica">Datenstrom</tspan></text>

</g></g><g
                 id="g102"><g
                   clip-path="url(#clipPath106)"
                   id="g104" /></g></g></g><g
             id="g110"><g
               clip-path="url(#clipPath114)"
               id="g112"><g
                 id="g118"><g
                   clip-path="url(#clipPath122)"
                   id="g120"><text
   transform="matrix(1,0,0,-1,157.52,61.227)"
   id="text126"><tspan
     x="0 7.2285099 12.766974 15.546387 21.08485"
     y="0"
     id="tspan128"
     style="font-size:10.18099976px;font-variant:normal;font-weight:normal;writing-mode:lr-tb;fill:#000000;fill-opacity:1;fill-rule:nonzero;stroke:none;font-family:Helvetica;-inkscape-font-specification:Helvetica">Daten</tspan></text>

</g></g><g
                 id="g130"><g
                   clip-path="url(#clipPath134)"
                   id="g132" /></g></g></g><g
             id="g138"><g
               clip-path="url(#clipPath142)"
               id="g140"><g
                 id="g146"><g
                   clip-path="url(#clipPath150)"
                   id="g148"><text
   transform="matrix(1,0,0,-1,282.72,61.227)"
   id="text154"><tspan
     x="0 7.2285099 12.766974 15.546387 21.08485"
     y="0"
     id="tspan156"
     style="font-size:10.18099976px;font-variant:normal;font-weight:normal;writing-mode:lr-tb;fill:#000000;fill-opacity:1;fill-rule:nonzero;stroke:none;font-family:Helvetica;-inkscape-font-specification:Helvetica">Daten</tspan></text>

</g></g><g
                 id="g158"><g
                   clip-path="url(#clipPath162)"
                   id="g160" /></g></g></g><path
             d="m 1.6846,20.815 296.61,0 0,2.0718 -296.61,0 0,-2.0718 z"
             inkscape:connector-curvature="0"
             id="path166"
             style="fill:#000000;fill-opacity:1;fill-rule:nonzero;stroke:none" /><path
             d="m 298.05,16.282 10.99,5.508 -10.99,5.63 0,-11.138 z"
             inkscape:connector-curvature="0"
             id="path168"
             style="fill:#000000;fill-opacity:1;fill-rule:evenodd;stroke:none" /><path
             d="m 196.24,32.441 81.544,0 0,22.643 -81.544,0 0,-22.643 z"
             inkscape:connector-curvature="0"
             id="path170"
             style="fill:#ffffff;fill-opacity:1;fill-rule:evenodd;stroke:#000000;stroke-width:0.73242998;stroke-linecap:butt;stroke-linejoin:round;stroke-miterlimit:10;stroke-opacity:1;stroke-dasharray:none" /><g
             id="g172"><g
               clip-path="url(#clipPath176)"
               id="g174"><g
                 id="g180"><g
                   clip-path="url(#clipPath184)"
                   id="g182"><text
   transform="matrix(1,0,0,-1,223.98,39.802)"
   id="text188"><tspan
     x="0 7.3536 10.013152 12.672704 16.043104 22.808416"
     y="0"
     id="tspan190"
     style="font-size:12.25599957px;font-variant:normal;font-weight:normal;writing-mode:lr-tb;fill:#000000;fill-opacity:1;fill-rule:nonzero;stroke:none;font-family:Helvetica;-inkscape-font-specification:Helvetica">Filter</tspan></text>

</g></g><g
                 id="g192"><g
                   clip-path="url(#clipPath196)"
                   id="g194" /></g></g></g><path
             d="m 1.8067,41.508 16.651,0 0,1.2187 -16.651,0 0,-1.2187 z"
             inkscape:connector-curvature="0"
             id="path200"
             style="fill:#000000;fill-opacity:1;fill-rule:nonzero;stroke:none" /><path
             d="m 280.08,41.874 16.162,0 0,1.2187 -16.162,0 0,-1.2187 z"
             inkscape:connector-curvature="0"
             id="path202"
             style="fill:#000000;fill-opacity:1;fill-rule:nonzero;stroke:none" /><path
             d="m 296,37.706 9.15,4.656 -9.15,4.777 0,-9.433 z"
             inkscape:connector-curvature="0"
             id="path204"
             style="fill:#000000;fill-opacity:1;fill-rule:evenodd;stroke:none" /><path
             d="m 20.02,34.148 42.09,0 0,16.672 -42.09,0 0,-16.672 z"
             inkscape:connector-curvature="0"
             id="path206"
             style="fill:#ffffff;fill-opacity:1;fill-rule:evenodd;stroke:#7f7f7f;stroke-width:0.73242998;stroke-linecap:butt;stroke-linejoin:round;stroke-miterlimit:10;stroke-opacity:1;stroke-dasharray:none" /><g
             id="g208"><g
               clip-path="url(#clipPath212)"
               id="g210"><g
                 id="g216"><g
                   clip-path="url(#clipPath220)"
                   id="g218"><text
   transform="matrix(1,0,0,-1,33.521,39.169)"
   id="text224"><tspan
     x="0 5.4219885 7.2485156 11.699647"
     y="0"
     id="tspan226"
     style="font-size:8.2276001px;font-variant:normal;font-weight:normal;writing-mode:lr-tb;fill:#000000;fill-opacity:1;fill-rule:nonzero;stroke:none;font-family:Helvetica;-inkscape-font-specification:Helvetica">Pipe</tspan></text>

</g></g><g
                 id="g228"><g
                   clip-path="url(#clipPath232)"
                   id="g230" /></g></g></g></g></g></g></g></svg>